<?xml version="1.0" encoding="UTF-8"?>
<svg width="100px" height="100px" viewBox="0 0 100 100" version="1.1" xmlns="http://www.w3.org/2000/svg" xmlns:xlink="http://www.w3.org/1999/xlink">
    <!-- Generator: sketchtool 63.1 (101010) - https://sketch.com -->
    <title>app/app_Eclipse</title>
    <desc>Created with sketchtool.</desc>
    <defs>
        <linearGradient x1="84.5559877%" y1="87.1096608%" x2="17.7606244%" y2="12.890923%" id="linearGradient-1">
            <stop stop-color="#04034E" offset="0%"></stop>
            <stop stop-color="#7575B9" offset="100%"></stop>
        </linearGradient>
        <linearGradient x1="462.369161%" y1="103.327808%" x2="128.021726%" y2="103.327808%" id="linearGradient-2">
            <stop stop-color="#04034E" offset="0%"></stop>
            <stop stop-color="#C98CBB" offset="100%"></stop>
        </linearGradient>
        <linearGradient x1="-1.70958496%" y1="50.2785685%" x2="101.123561%" y2="50.2618997%" id="linearGradient-3">
            <stop stop-color="#C98CBB" offset="0%"></stop>
            <stop stop-color="#A9B7DA" offset="100%"></stop>
        </linearGradient>
        <linearGradient x1="-0.297895397%" y1="50.1172713%" x2="101.149123%" y2="50.1011221%" id="linearGradient-4">
            <stop stop-color="#C98CBB" offset="0%"></stop>
            <stop stop-color="#A9B7DA" offset="100%"></stop>
        </linearGradient>
        <linearGradient x1="-0.953705782%" y1="49.9645067%" x2="101.104744%" y2="49.9481293%" id="linearGradient-5">
            <stop stop-color="#C98CBB" offset="0%"></stop>
            <stop stop-color="#A9B7DA" offset="100%"></stop>
        </linearGradient>
        <linearGradient x1="-1.58366483%" y1="49.8068076%" x2="101.145512%" y2="49.790178%" id="linearGradient-6">
            <stop stop-color="#C98CBB" offset="0%"></stop>
            <stop stop-color="#A9B7DA" offset="100%"></stop>
        </linearGradient>
        <radialGradient cx="41.9287032%" cy="33.6746694%" fx="41.9287032%" fy="33.6746694%" r="60.2196614%" gradientTransform="translate(0.419287,0.336747),scale(0.963812,1.000000),rotate(61.669198),translate(-0.419287,-0.336747)" id="radialGradient-7">
            <stop stop-color="#FFFFFF" stop-opacity="0.63529414" offset="0%"></stop>
            <stop stop-color="#FFFFFF" stop-opacity="0.20792079" offset="50%"></stop>
            <stop stop-color="#424289" stop-opacity="0.07450981" offset="100%"></stop>
        </radialGradient>
    </defs>
    <g id="Icons" stroke="none" stroke-width="1" fill="none" fill-rule="evenodd" stroke-linejoin="round" stroke-opacity="0">
        <g id="app/app_Eclipse" fill-rule="nonzero" stroke="#000000">
            <g id="Eclipse" transform="translate(0.100000, 3.200000)">
                <path d="M95.7656521,45.9085119 C95.7656521,71.1835223 75.2956943,91.6832818 50.0207099,91.7204333 C24.7457255,91.7574839 4.21582047,71.3179077 4.14126857,46.0430066 C4.06712165,20.7681055 24.4764211,0.208101321 49.7511863,0.0960475397 C75.0259516,-0.0150939215 95.6160121,20.3638826 95.7656521,45.6384548" id="path3257" stroke-width="1.99270923" fill="url(#linearGradient-1)"></path>
                <path d="M45.9074915,0.09836 C20.6191638,0.09836 0.0963208511,20.6212021 0.0963208511,45.9095298 C0.0963208511,71.1978574 20.6191617,91.7207 45.9074915,91.7207 C46.4721468,91.7207 47.0099957,91.6745 47.5697255,91.6542106 C23.3750404,90.4264617 4.15217191,70.4075979 4.15217191,45.9095298 C4.15217191,21.4114638 23.3750404,1.39259617 47.5697255,0.164849362 C47.0120723,0.144730213 46.4700277,0.09836 45.9074915,0.09836 Z" id="path2274" stroke-width="1.99264162" fill="url(#linearGradient-2)"></path>
                <rect id="rect3343" stroke-width="2.1352664" fill="url(#linearGradient-3)" x="4.67500809" y="35.4620277" width="93.1392915" height="2.14165404"></rect>
                <rect id="rect3345" stroke-width="2.14494264" fill="url(#linearGradient-4)" x="3.36396149" y="41.8474809" width="94.4119064" height="2.13197766"></rect>
                <rect id="rect3347" stroke-width="2.14065643" fill="url(#linearGradient-5)" x="3.97773021" y="48.2116213" width="93.8462851" height="2.13626404"></rect>
                <rect id="rect3349" stroke-width="2.13598723" fill="url(#linearGradient-6)" x="4.55921979" y="54.5899021" width="93.2335553" height="2.14093319"></rect>
                <path d="M49.8336,0.136556809 C24.9520064,0.136556809 4.73449404,20.024134 4.08892,44.7509191 C9.94496468,50.0054745 17.6156998,53.2615574 26.0969,53.2615574 C44.3541043,53.2615574 59.2086,38.4070638 59.2086,20.1498553 L59.2086,19.9503872 C59.1648872,12.5352417 56.6507255,5.69718234 52.4931745,0.20304617 C51.606966,0.151933404 50.7325447,0.136556809 49.8336,0.136556809 Z" id="path3301" stroke-width="2.47111194" fill="url(#radialGradient-7)"></path>
            </g>
        </g>
    </g>
</svg>