<?xml version="1.0" encoding="UTF-8"?>
<svg width="100px" height="100px" viewBox="0 0 100 100" version="1.1" xmlns="http://www.w3.org/2000/svg" xmlns:xlink="http://www.w3.org/1999/xlink">
    <!-- Generator: sketchtool 63.1 (101010) - https://sketch.com -->
    <title>app/Bear</title>
    <desc>Created with sketchtool.</desc>
    <defs>
        <linearGradient x1="50%" y1="0%" x2="50%" y2="100%" id="linearGradient-1">
            <stop stop-color="#DC4540" offset="0%"></stop>
            <stop stop-color="#BF1B21" offset="100%"></stop>
        </linearGradient>
    </defs>
    <g id="Icons" stroke="none" stroke-width="1" fill="none" fill-rule="evenodd">
        <g id="app/Bear">
            <g transform="translate(7.183635, 7.183635)" id="Group">
                <g transform="translate(2.568982, 2.568982)">
                    <circle id="Red-circle-(fill)" stroke="#B73431" stroke-width="0.5" fill="url(#linearGradient-1)" cx="40.2473834" cy="40.2473834" r="40.2473834"></circle>
                    <path d="M22.484232,17.4834326 C24.3487375,16.1577087 27.7343397,17.7769222 32.1389793,21.569623 C35.1628119,21.1527702 45.9900833,19.5619589 50.708008,26.2227103 C53.4165472,29.0023985 59.2587982,31.9114746 65.373309,33.8399569 C65.9914948,33.7978688 67.1729771,33.4288419 67.7760222,34.4533301 C68.7325482,36.4681226 68.0445523,51.0430968 48.2332851,50.8023952 C41.6695984,52.1647455 44.0304256,61.3258489 55.3157665,78.2857052 C45.4058856,80.1774069 37.8895291,80.6062136 32.7666971,79.572125 C21.6430013,77.3267094 12.011293,70.6778501 5.68948153,60.5216039 C9.80292661,42.4523396 11.7986848,38.2976713 21.0291201,25.5321634 C20.9459217,22.7031299 20.335383,19.011334 22.484232,17.4834326 Z" id="Bear---white" fill="#FFFFFF"></path>
                    <path d="M26.6564897,40.0207394 C27.6079818,41.1805201 29.1102696,45.8761875 35.3927248,48.9410455 C38.8252641,50.0906183 43.4964204,50.6081423 48.3950917,50.6821878 C41.831405,52.0445381 43.9901652,61.0081647 54.8713721,77.5730676 C50.3556451,78.7803164 47.196113,79.4809046 45.3927759,79.674832 C41.7693409,80.0644893 43.5691895,80.4947669 36.863397,80.0644893 C37.2148386,77.4991088 38.1332827,73.1076071 37.9247128,68.6392777 C37.2017472,59.2995368 31.616484,51.6467158 28.8172872,47.8167191 C26.0180904,43.9867225 26.0534446,38.9962512 26.6564897,40.0207394 Z" id="Bear---gray" fill-opacity="0.510626093" fill="#DEDEDE"></path>
                    <circle id="Red-circle-(border)" stroke="#B73431" stroke-width="0.5" cx="40.2473834" cy="40.2473834" r="40.2473834"></circle>
                </g>
            </g>
        </g>
    </g>
</svg>