<?xml version="1.0" encoding="UTF-8"?>
<svg width="100px" height="100px" viewBox="0 0 100 100" version="1.1" xmlns="http://www.w3.org/2000/svg" xmlns:xlink="http://www.w3.org/1999/xlink">
    <!-- Generator: sketchtool 63.1 (101010) - https://sketch.com -->
    <title>app/Git</title>
    <desc>Created with sketchtool.</desc>
    <g id="Icons" stroke="none" stroke-width="1" fill="none" fill-rule="evenodd">
        <g id="app/Git" fill="#F05133">
            <g transform="translate(7.183635, 7.183635)" id="Git">
                <g transform="translate(2.911513, 2.911513)">
                    <path d="M78.1701605,36.3630828 L43.4457567,1.64041005 C41.4463706,-0.359841625 38.2032105,-0.359841625 36.2020932,1.64041005 L28.9921856,8.85204874 L38.1382953,17.9981584 C40.2640496,17.2797643 42.7013965,17.7618673 44.3952488,19.4565851 C46.0994874,21.1616893 46.5772628,23.6198091 45.8406924,25.7533532 L54.6570332,34.5688285 C56.7905773,33.8331236 59.2504282,34.3091679 60.9538013,36.0151377 C63.3340229,38.3953593 63.3340229,42.2521838 60.9538013,44.6341365 C58.5718486,47.0152236 54.7150241,47.0152236 52.3322059,44.6341365 C50.5422792,42.8424787 50.0991253,40.211252 51.0070716,38.0058685 L42.7844879,29.7841503 L42.7844879,51.4199319 C43.3643964,51.7072895 43.9122802,52.0898561 44.3952488,52.5728247 C46.7754704,54.9530463 46.7754704,58.8098708 44.3952488,61.192689 C42.0150272,63.5720451 38.155606,63.5720451 35.7771155,61.192689 C33.3968939,58.8090052 33.3968939,54.9521807 35.7771155,52.5728247 C36.3656794,51.9851263 37.0468555,51.5402412 37.773905,51.2424972 L37.773905,29.4050459 C37.0468555,29.1073018 36.3674105,28.6667444 35.7771155,28.0747184 C33.9742058,26.2726743 33.5405727,23.6258678 34.4649642,21.411829 L25.4486848,12.3938185 L1.63781345,36.2020932 C-0.362438231,38.204076 -0.362438231,41.4472361 1.63781345,43.4474878 L36.3639483,78.1710261 C38.3633345,80.1712777 41.605629,80.1712777 43.6076118,78.1710261 L78.1701605,43.6084773 C80.1704122,41.6082257 80.1704122,38.3633345 78.1701605,36.3630828 Z" id="Path" fill-rule="nonzero"></path>
                </g>
            </g>
        </g>
    </g>
</svg>