<?xml version="1.0" encoding="UTF-8"?>
<svg width="100px" height="100px" viewBox="0 0 100 100" version="1.1" xmlns="http://www.w3.org/2000/svg" xmlns:xlink="http://www.w3.org/1999/xlink">
    <!-- Generator: sketchtool 63.1 (101010) - https://sketch.com -->
    <title>app/OmniGraffle</title>
    <desc>Created with sketchtool.</desc>
    <defs>
        <linearGradient x1="50%" y1="0%" x2="50%" y2="100%" id="linearGradient-1">
            <stop stop-color="#79FFB0" offset="0%"></stop>
            <stop stop-color="#00D156" offset="100%"></stop>
        </linearGradient>
    </defs>
    <g id="Icons" stroke="none" stroke-width="1" fill="none" fill-rule="evenodd">
        <g id="app/OmniGraffle">
            <g id="Group">
                <g transform="translate(50.848128, 50.929711) rotate(9.000000) translate(-50.848128, -50.929711) translate(2.848128, -1.070289)">
                    <path d="M81.4,6.05 L12.8,6.05 C11.1569529,6.05 9.66945287,6.71597643 8.59271465,7.79271465 C7.51597643,8.86945287 6.85,10.3569529 6.85,12 L6.85,90.2 C6.85,91.8430471 7.51597643,93.3305471 8.59271465,94.4072853 C9.66945287,95.4840236 11.1569529,96.15 12.8,96.15 L81.4,96.15 C83.0430471,96.15 84.5305471,95.4840236 85.6072853,94.4072853 C86.6840236,93.3305471 87.35,91.8430471 87.35,90.2 L87.35,12 C87.35,10.3569529 86.6840236,8.86945287 85.6072853,7.79271465 C84.5305471,6.71597643 83.0430471,6.05 81.4,6.05 Z" id="Rectangle" stroke="#01D157" stroke-width="0.5" fill="url(#linearGradient-1)" transform="translate(47.100000, 51.100000) rotate(-9.000000) translate(-47.100000, -51.100000) "></path>
                    <g id="Group-13" transform="translate(48.804234, 51.795042) rotate(-9.000000) translate(-48.804234, -51.795042) translate(12.804234, 16.795042)" fill="#515151">
                        <g id="Group-11" transform="translate(0.181466, 0.117973)" stroke="#979797" stroke-width="0.5">
                            <ellipse id="Oval" cx="8.58267603" cy="8.06286645" rx="8.33267603" ry="7.81286645"></ellipse>
                            <ellipse id="Oval-Copy-3" cx="49.3125542" cy="11.1433876" rx="8.33267603" ry="7.81286645"></ellipse>
                            <ellipse id="Oval-Copy-5" cx="61.217324" cy="36.134658" rx="8.33267603" ry="7.81286645"></ellipse>
                            <ellipse id="Oval-Copy-6" cx="46.7471196" cy="58.5371336" rx="8.33267603" ry="7.81286645"></ellipse>
                            <ellipse id="Oval-Copy-7" cx="9.02946521" cy="58.1032573" rx="8.33267603" ry="7.81286645"></ellipse>
                            <ellipse id="Oval-Copy-8" cx="21.7773694" cy="31.7018893" rx="12.9374871" ry="12.2456352"></ellipse>
                        </g>
                        <polygon id="Rectangle" transform="translate(13.814311, 16.801697) rotate(61.000000) translate(-13.814311, -16.801697) " points="5.48633103 13.8469307 22.1336433 13.8713479 22.142291 19.7564636 5.49497879 19.7320464"></polygon>
                        <polygon id="Rectangle-Copy-16" transform="translate(14.958456, 46.451205) rotate(-63.000000) translate(-14.958456, -46.451205) " points="6.63809122 43.5205891 23.2870695 43.4972957 23.2788198 49.3818213 6.62984147 49.4051147"></polygon>
                        <polygon id="Rectangle-Copy-13" transform="translate(37.313337, 20.546228) rotate(-37.000000) translate(-37.313337, -20.546228) " points="29.0057822 17.8517345 45.6299006 17.8240576 45.6208912 23.2407213 28.9967728 23.2683982"></polygon>
                        <polygon id="Rectangle-Copy-14" transform="translate(43.559443, 34.242634) rotate(7.000000) translate(-43.559443, -34.242634) " points="32.2582847 31.5263069 54.8583338 31.5357877 54.8606012 36.958962 32.2605521 36.9494812"></polygon>
                        <polygon id="Rectangle-Copy-15" transform="translate(35.597233, 45.981173) rotate(47.000000) translate(-35.597233, -45.981173) " points="24.2721542 43.2549124 46.9129624 43.2940064 46.922312 48.7074329 24.2815039 48.6683389"></polygon>
                    </g>
                </g>
            </g>
        </g>
    </g>
</svg>