<?xml version="1.0" encoding="UTF-8"?>
<svg width="100px" height="100px" viewBox="0 0 100 100" version="1.1" xmlns="http://www.w3.org/2000/svg" xmlns:xlink="http://www.w3.org/1999/xlink">
    <!-- Generator: sketchtool 63.1 (101010) - https://sketch.com -->
    <title>app/QuickTime_alt</title>
    <desc>Created with sketchtool.</desc>
    <defs>
        <linearGradient x1="50%" y1="0%" x2="50%" y2="100%" id="linearGradient-1">
            <stop stop-color="#42A5F5" offset="0%"></stop>
            <stop stop-color="#0288D1" offset="100%"></stop>
        </linearGradient>
        <linearGradient x1="4.68708333%" y1="28.8704167%" x2="109.600417%" y2="77.7920833%" id="linearGradient-2">
            <stop stop-color="#FFFFFF" stop-opacity="0.2" offset="0%"></stop>
            <stop stop-color="#FFFFFF" stop-opacity="0" offset="100%"></stop>
        </linearGradient>
    </defs>
    <g id="Icons" stroke="none" stroke-width="1" fill="none" fill-rule="evenodd">
        <g id="app/QuickTime_alt" fill-rule="nonzero">
            <g id="quicktime">
                <path d="M97.9166696,100 L87.5,100 C86.9583359,100 86.4416692,99.7916696 86.0500025,99.4125029 L77.8500023,91.470836 C69.5666687,97.0541695 59.9750018,100 50,100 C22.4291673,100 0,77.5708356 0,50 C0,22.4291673 22.4291673,0 50,0 C77.5708356,0 100,22.4291673 100,50 C100,59.9750018 97.0541695,69.5666687 91.470836,77.8500023 L99.4125029,86.0500025 C99.7916696,86.4416692 100,86.9583359 100,87.5 L100,97.9166696 C100,99.0666696 99.0666696,100 97.9166696,100 Z" id="Path" fill="#303C42"></path>
                <path d="M2.15000006,52.1500015 C2.15000006,24.5791674 24.5791674,2.15000006 52.1500015,2.15000006 C65.3875019,2.15000006 77.4083356,7.35833355 86.3625025,15.7875005 C77.2375023,6.09583351 64.3291686,0 50,0 C22.4291673,0 0,22.4291673 0,50 C0,64.3291686 6.09583351,77.2375023 15.7875005,86.3625025 C7.35833355,77.4083356 2.15000006,65.3875019 2.15000006,52.1500015 Z" id="Path" fill="#FFFFFF" opacity="0.2"></path>
                <path d="M50.0000004,87.5000004 C29.3250009,87.5000004 12.5000004,70.6750021 12.5000004,50.0000004 C12.5000004,29.3250009 29.3250009,12.5000004 50.0000004,12.5000004 C70.6750021,12.5000004 87.5000004,29.3250009 87.5000004,50.0000004 C87.5000004,57.083335 85.4833359,64.0041686 81.6708357,70.0250021 C81.3291691,70.5625021 80.7583357,70.9166688 80.1250024,70.9833354 C79.4958357,71.0416688 78.8583357,70.8208354 78.4125023,70.3583354 L54.3916683,45.5583347 C53.2375016,44.4000013 51.6708349,43.7500013 50.0000004,43.7500013 C46.554168,43.7500013 43.7500013,46.554168 43.7500013,50.0000004 C43.7500013,51.6708349 44.4000013,53.2375016 45.579168,54.4166683 L70.3541687,78.4125023 C70.8125021,78.8583357 71.0458354,79.4875023 70.9791688,80.1250024 C70.9125021,80.7583357 70.5583354,81.3291691 70.0208354,81.6708357 C64.0041686,85.4833359 57.083335,87.5000004 50.0000004,87.5000004 Z" id="Path" fill="#303C42"></path>
                <path d="M50.0000015,16.6666672 C31.6208343,16.6666672 16.6666672,31.6208343 16.6666672,50.0000015 C16.6666672,68.3791687 31.6208343,83.3333358 50.0000015,83.3333358 C55.4000016,83.3333358 60.7041685,82.0125024 65.4791686,79.491669 L42.6583346,57.3875017 C40.6666672,55.4000016 39.5833345,52.7833349 39.5833345,50.0000015 C39.5833345,44.2583346 44.2583346,39.5833345 50.0000015,39.5833345 C52.7833349,39.5833345 55.4000016,40.6666672 57.3666684,42.6333346 L79.491669,65.4791686 C82.0125024,60.7041685 83.3333358,55.4000016 83.3333358,50.0000015 C83.3333358,31.6208343 68.3791687,16.6666672 50.0000015,16.6666672 Z" id="Path" fill="url(#linearGradient-1)"></path>
                <path d="M97.9166696,100 L87.5,100 C86.9583359,100 86.4416692,99.7916696 86.0500025,99.4125029 L77.8500023,91.470836 C69.5666687,97.0541695 59.9750018,100 50,100 C22.4291673,100 0,77.5708356 0,50 C0,22.4291673 22.4291673,0 50,0 C77.5708356,0 100,22.4291673 100,50 C100,59.9750018 97.0541695,69.5666687 91.470836,77.8500023 L99.4125029,86.0500025 C99.7916696,86.4416692 100,86.9583359 100,87.5 L100,97.9166696 C100,99.0666696 99.0666696,100 97.9166696,100 Z" id="Path" fill="url(#linearGradient-2)"></path>
            </g>
        </g>
    </g>
</svg>