<?xml version="1.0" encoding="UTF-8"?>
<svg width="100px" height="100px" viewBox="0 0 100 100" version="1.1" xmlns="http://www.w3.org/2000/svg" xmlns:xlink="http://www.w3.org/1999/xlink">
    <!-- Generator: sketchtool 63.1 (101010) - https://sketch.com -->
    <title>app/QuickTime</title>
    <desc>Created with sketchtool.</desc>
    <g id="Icons" stroke="none" stroke-width="1" fill="none" fill-rule="evenodd">
        <g id="app/QuickTime" fill="#2196F3" fill-rule="nonzero">
            <g id="quicktime-2">
                <path d="M76.875,34.0625 L55.5,55.125 C53.9375,56.5625 52,57.3125 50,57.3125 C48,57.3125 45.9375,56.5625 44.4375,55 C42.9763484,53.5260228 42.1617571,51.5312185 42.1733579,49.4557824 C42.1852084,47.3803462 43.0222871,45.3948734 44.5,43.9375 L65.75,23.0625 C70.3125,25.6875 74.1875,29.5 76.875,34.0625 L76.875,34.0625 Z" id="Path"></path>
                <path d="M100.000019,50 C100.000019,22.375 77.625,0 50,0 C22.375,0 0,22.375 0,50 C0,77.625 22.375,100 50,100 C60.4375,100 70.0625,96.8125 78.125,91.375 L86.75,100 L100.000019,100 L100.000019,86.75 L91.375,78.125 C97.003862,69.8263345 100.008821,60.0275549 100.000019,50 Z M84.5875,25.91875 C84.25625,26.4625 76.875,34.0625 76.875,34.0625 C82.609922,43.7196368 82.7188712,55.712176 77.1603466,65.471911 C71.6018221,75.231646 61.2316333,81.2559344 50,81.2500044 C32.75,81.2500044 18.75,67.25 18.75,50 C18.75,32.75 32.75,18.75 50,18.75 C55.75,18.75 61.125,20.3125 65.75,23.0625 C65.75,23.0625 73.55625,15.70625 74.0625,15.39375 C78.1637535,18.2543187 81.7269313,21.8174965 84.5875,25.91875 Z" id="Shape"></path>
            </g>
        </g>
    </g>
</svg>