<?xml version="1.0" encoding="UTF-8"?>
<svg width="128px" height="128px" viewBox="0 0 128 128" version="1.1" xmlns="http://www.w3.org/2000/svg" xmlns:xlink="http://www.w3.org/1999/xlink">
    <!-- Generator: Sketch 52.5 (67469) - http://www.bohemiancoding.com/sketch -->
    <title>freeplane_no_shadows_forFP_icon</title>
    <desc>Created with Sketch.</desc>
    <g id="freeplane_no_shadows_forFP_icon" stroke="none" stroke-width="1" fill="none" fill-rule="evenodd">
        <circle id="Oval" fill="#FFFFFF" cx="63.375" cy="63.875" r="43.475"></circle>
        <path d="M119.490196,43.9997155 C120.622271,40.6711912 121.919061,36.5420651 122.303396,34.6739942 C123.236781,30.1372508 124.914187,17.7721249 124.484274,17.823643 C124.322668,17.9297715 123.000396,20.552282 121.643316,23.7515968 C116.021691,36.5373156 107.369135,44.8969469 97.7463325,46.8309466 C91.8543474,48.0228757 87.5614347,47.1491099 81.0362945,43.4020343 C76.4611961,40.7747744 75.9995836,40.7086235 71.6973441,41.9182777 L67.2768008,43.1594612 L69.3496984,48.0300514 C73.9339004,58.2219188 81.086811,65.7113206 89.2164087,68.5893798 C93.5495145,70.0830198 101.432568,68.0451553 106.090552,64.155288 C111.190052,60.0216345 116.868025,51.4458255 119.490196,43.9997155 Z" id="Red" fill="#FF2828" transform="translate(95.915123, 43.451939) rotate(240.000000) translate(-95.915123, -43.451939) "></path>
        <path d="M73.9575325,80.9637564 C72.8254574,84.2922808 71.5286673,88.4214069 71.1443323,90.2894777 C70.2109475,94.8262211 68.5335412,107.191347 68.9634543,107.139829 C69.1250603,107.0337 70.4473319,104.41119 71.8044119,101.211875 C77.4260372,88.4261563 86.0785935,80.066525 95.7013956,78.1325253 C101.593381,76.9405962 105.886293,77.814362 112.411434,81.5614376 C116.986532,84.1886975 117.448144,84.2548484 121.750384,83.0451942 L126.170927,81.8040107 L124.09803,76.9334206 C119.513828,66.7415532 112.360917,59.2521514 104.231319,56.3740921 C99.8982135,54.8804522 92.0151602,56.9183166 87.3571763,60.8081839 C82.2576764,64.9418374 76.5797032,73.5176465 73.9575325,80.9637564 Z" id="Purple" fill="#D529FF" transform="translate(97.532605, 81.511532) rotate(120.000000) translate(-97.532605, -81.511532) "></path>
        <path d="M88.7780187,102.482369 C89.9100939,99.1538447 91.206884,95.0247186 91.5912189,93.1566478 C92.5246038,88.6199044 94.2020101,76.2547785 93.772097,76.3062966 C93.610491,76.412425 92.2882194,79.0349355 90.9311394,82.2342504 C85.309514,95.0199692 76.6569578,103.3796 67.0341557,105.3136 C61.1421706,106.505529 56.8492579,105.631763 50.3241176,101.884688 C45.7490193,99.257428 45.2874068,99.1912771 40.9851673,100.400931 L36.564624,101.642115 L38.6375216,106.512705 C43.2217236,116.704572 50.3746342,124.193974 58.5042319,127.072033 C62.8373377,128.565673 70.720391,126.527809 75.378375,122.637942 C80.4778748,118.504288 86.155848,109.928479 88.7780187,102.482369 Z" id="Blue" fill="#288BFF"></path>
        <path d="M7.68073169,83.7502845 C6.54865654,87.0788088 5.25186642,91.2079349 4.86753149,93.0760058 C3.93414664,97.6127492 2.25674037,109.977875 2.68665342,109.926357 C2.84825944,109.820229 4.17053105,107.197718 5.52761104,103.998403 C11.1492364,91.2126844 19.8017926,82.8530531 29.4245948,80.9190534 C35.3165799,79.7271243 39.6094925,80.6008901 46.1346328,84.3479657 C50.7097311,86.9752256 51.1713436,87.0413765 55.4735831,85.8317223 L59.8941264,84.5905388 L57.8212288,79.7199486 C53.2370268,69.5280812 46.0841162,62.0386794 37.9545186,59.1606202 C33.6214127,57.6669802 25.7383594,59.7048447 21.0803754,63.594712 C15.9808756,67.7283655 10.3029024,76.3041745 7.68073169,83.7502845 Z" id="Green" fill="#3F9E00" transform="translate(31.255804, 84.298061) rotate(240.000000) translate(-31.255804, -84.298061) "></path>
        <path d="M53.2133947,46.7862436 C54.3454699,43.4577192 55.64226,39.3285931 56.0265949,37.4605223 C56.9599798,32.9237789 58.637386,20.558653 58.207473,20.6101711 C58.045867,20.7162995 56.7235953,23.33881 55.3665154,26.5381249 C49.74489,39.3238437 41.0923338,47.683475 31.4695316,49.6174747 C25.5775465,50.8094038 21.2846339,49.935638 14.7594936,46.1885624 C10.1843953,43.5613025 9.7227828,43.4951516 5.42054331,44.7048058 L1,45.9459893 L3.07289757,50.8165794 C7.65709959,61.0084468 14.8100102,68.4978486 22.9396078,71.3759079 C27.2727137,72.8695478 35.155767,70.8316834 39.813751,66.9418161 C44.9132508,62.8081626 50.591224,54.2323535 53.2133947,46.7862436 Z" id="Yellow" fill="#F9E700" transform="translate(29.638322, 46.238468) rotate(120.000000) translate(-29.638322, -46.238468) "></path>
        <path d="M88.9357637,22.1826969 C87.4369313,22.3113185 85.9799354,22.503558 84.6019745,22.7614396 C81.2074313,23.4345717 77.0613273,24.3573398 75.2059829,24.9594651 C69.5693395,21.9828934 65.5206349,21.3472621 60.1367716,22.4363998 C50.5139694,24.3703995 41.8614132,32.7300308 36.2397879,45.5157496 C34.8827079,48.7150645 33.5604363,51.337575 33.3988302,51.4437034 C32.9689172,51.4952215 34.6463235,39.1300956 35.5797083,34.5933522 C35.9640432,32.7252814 37.2608334,28.5961553 38.3929085,25.2676309 C41.0150792,17.821521 46.6930524,9.24571196 51.7925522,5.11205843 C56.4505362,1.22219111 64.3335895,-0.815673328 68.6666954,0.677966651 C76.796293,3.55602589 83.9492036,11.0454277 88.5334056,21.2372951 L88.9357637,22.1826969 Z" id="Combined-Shape" fill="#FF9F00"></path>
    </g>
</svg>