<svg version="1.1" viewBox="0 0 36 36" xmlns="http://www.w3.org/2000/svg">
    <path d="m18 3.443c-9.6649 0-17.5 6.7152-17.5 14.998 0 1.0363 0.1225 2.0482 0.35681 3.0252 1.7296 2.9756 2.9264 1.0975 8.3932-1.636 5.5679-2.7841 0 3.8884-1.9444 7.7768-0.59792 1.1957-0.27417 2.2076 0.54444 3.0368 2.8642 1.7537 6.3622 2.7958 10.15 2.7958 9.6649 0 17.5-6.7143 17.5-14.998 0-8.2823-7.8351-14.998-17.5-14.998zm2.7699 23.765c-0.38403 1.3084-2.3917 1.8703-4.4849 1.255-2.0932-0.61437-3.4786-2.1717-3.0946-3.4811 0.38402-1.3084 2.3917-1.8703 4.4849-1.254 2.0932 0.61339 3.4786 2.1707 3.0946 3.4801z" fill="#D99E82" style="fill:#d1d1d1;stroke:#4aa2f4"/>
    <circle cx="10" cy="11" r="3" fill="#5C913B"/>
    <circle cx="20" cy="9" r="3" fill="#269"/>
    <circle cx="29" cy="15" r="3" fill="#DD2E44"/>
    <circle cx="28" cy="24" r="3" fill="#FFCC4D" style="fill:#ffe90f"/>
</svg>
