<?xml version="1.0" encoding="UTF-8" standalone="no"?>
<!DOCTYPE svg PUBLIC "-//W3C//DTD SVG 1.1//EN" "http://www.w3.org/Graphics/SVG/1.1/DTD/svg11.dtd">
<svg width="100%" height="100%" viewBox="0 0 435 534" version="1.1" xmlns="http://www.w3.org/2000/svg" xmlns:xlink="http://www.w3.org/1999/xlink" xml:space="preserve" xmlns:serif="http://www.serif.com/" style="fill-rule:evenodd;clip-rule:evenodd;stroke-linejoin:round;stroke-miterlimit:2;">
    <g transform="matrix(1,0,0,1,-1382,-3038)">
        <g transform="matrix(4.16667,0,0,4.16667,1595.2,7899.37)">
            <g id="g5171">
                <g id="g25513" transform="matrix(7.99974,0,0,7.9969,-938.968,-8974.56)">
                    <path id="path25515" d="M111.562,976.373C111.104,976.461 110.992,976.657 111,977.123L111,991.625C111,992.149 111.226,992.375 111.75,992.375L123.25,992.375C123.774,992.375 124,992.149 124,991.625L124,982.644C124.006,982.38 123.902,982.115 123.719,981.925L118.448,976.655C118.259,976.471 117.994,976.367 117.73,976.373L111.75,976.373C111.688,976.367 111.625,976.367 111.562,976.373Z" style="fill:url(#_Linear1);fill-rule:nonzero;"/>
                    <path id="path25517" d="M120.329,976.377C119.997,976.483 119.885,976.99 120.141,977.228L123.153,980.257C123.431,980.522 123.986,980.295 124,979.91L124,976.881C124,976.617 123.761,976.377 123.498,976.377L120.486,976.377C120.434,976.368 120.381,976.368 120.329,976.377Z" style="fill:url(#_Linear2);fill-rule:nonzero;"/>
                </g>
                <path id="path25519" d="M-45,-1160.58L-45,-1044.58L46.999,-1044.58L46.999,-1117.45L46.374,-1118.08L4.624,-1160.08L4.124,-1160.58L-45,-1160.58Z" style="fill:url(#_Linear3);fill-rule:nonzero;"/>
                <path id="path25521" d="M-41,-1156.58L1.234,-1156.58L42.997,-1114.58L42.997,-1048.58L-41,-1048.58L-41,-1156.58Z" style="fill:url(#_Linear4);fill-rule:nonzero;"/>
            </g>
        </g>
    </g>
    <defs>
        <linearGradient id="_Linear1" x1="0" y1="0" x2="1" y2="0" gradientUnits="userSpaceOnUse" gradientTransform="matrix(9.82655e-16,16.048,-16.048,9.82655e-16,121.306,976.377)"><stop offset="0" style="stop-color:rgb(102,102,102);stop-opacity:1"/><stop offset="1" style="stop-color:rgb(51,51,51);stop-opacity:1"/></linearGradient>
        <linearGradient id="_Linear2" x1="0" y1="0" x2="1" y2="0" gradientUnits="userSpaceOnUse" gradientTransform="matrix(9.93774e-16,16.2296,-16.2296,9.93774e-16,109.913,976.3)"><stop offset="0" style="stop-color:rgb(102,102,102);stop-opacity:1"/><stop offset="1" style="stop-color:rgb(51,51,51);stop-opacity:1"/></linearGradient>
        <linearGradient id="_Linear3" x1="0" y1="0" x2="1" y2="0" gradientUnits="userSpaceOnUse" gradientTransform="matrix(0.600659,-107.709,107.709,0.600659,-35,-1050.64)"><stop offset="0" style="stop-color:rgb(179,179,179);stop-opacity:1"/><stop offset="1" style="stop-color:rgb(230,230,230);stop-opacity:1"/></linearGradient>
        <linearGradient id="_Linear4" x1="0" y1="0" x2="1" y2="0" gradientUnits="userSpaceOnUse" gradientTransform="matrix(3.95851e-15,-64.6474,64.6474,3.95851e-15,-38.75,-1089.93)"><stop offset="0" style="stop-color:white;stop-opacity:0.59"/><stop offset="1" style="stop-color:white;stop-opacity:0.86"/></linearGradient>
    </defs>
</svg>
