<?xml version="1.0" encoding="UTF-8" standalone="no"?>
<!DOCTYPE svg PUBLIC "-//W3C//DTD SVG 1.1//EN" "http://www.w3.org/Graphics/SVG/1.1/DTD/svg11.dtd">
<svg width="100%" height="100%" viewBox="0 0 434 534" version="1.1" xmlns="http://www.w3.org/2000/svg" xmlns:xlink="http://www.w3.org/1999/xlink" xml:space="preserve" xmlns:serif="http://www.serif.com/" style="fill-rule:evenodd;clip-rule:evenodd;">
    <g transform="matrix(1,0,0,1,-7928,-3038)">
        <g>
            <g id="use6696" transform="matrix(4.16667,0,0,4.16667,8141.03,7899.37)">
                <g id="g25513" transform="matrix(7.99974,0,0,7.9969,-938.968,-8974.56)">
                    <path id="path25515" d="M111.562,976.373C111.104,976.461 110.992,976.657 111,977.123L111,991.625C111,992.149 111.226,992.375 111.75,992.375L123.25,992.375C123.774,992.375 124,992.149 124,991.625L124,982.644C124.006,982.38 123.902,982.115 123.719,981.925L118.448,976.655C118.259,976.471 117.994,976.367 117.73,976.373L111.75,976.373C111.688,976.367 111.625,976.367 111.562,976.373Z" style="fill:url(#_Linear1);fill-rule:nonzero;"/>
                    <path id="path25517" d="M120.329,976.377C119.997,976.483 119.885,976.99 120.141,977.228L123.153,980.257C123.431,980.522 123.986,980.295 124,979.91L124,976.881C124,976.617 123.761,976.377 123.498,976.377L120.486,976.377C120.434,976.368 120.381,976.368 120.329,976.377Z" style="fill:url(#_Linear2);fill-rule:nonzero;"/>
                </g>
                <path id="path25519" d="M-45,-1160.58L-45,-1044.58L46.999,-1044.58L46.999,-1117.45L46.374,-1118.08L4.624,-1160.08L4.124,-1160.58L-45,-1160.58Z" style="fill:url(#_Linear3);fill-rule:nonzero;"/>
                <path id="path25521" d="M-41,-1156.58L1.234,-1156.58L42.997,-1114.58L42.997,-1048.58L-41,-1048.58L-41,-1156.58Z" style="fill:url(#_Linear4);fill-rule:nonzero;"/>
            </g>
            <g id="g11472" transform="matrix(4.16667,0,0,4.16667,1595.2,7899.37)">
                <path id="rect7807" d="M1539,-1118.64L1539,-1114.64L1603,-1114.64L1603,-1118.64L1539,-1118.64ZM1539,-1110.64L1539,-1106.64L1603,-1106.64L1603,-1110.64L1539,-1110.64ZM1539,-1102.64L1539,-1098.64L1576.31,-1098.64C1578.94,-1099.91 1581.88,-1100.64 1585,-1100.64C1588.12,-1100.64 1591.06,-1099.91 1593.69,-1098.64L1603,-1098.64L1603,-1102.64L1539,-1102.64ZM1539,-1094.64L1539,-1090.64L1567.69,-1090.64C1568.53,-1092.09 1569.55,-1093.44 1570.72,-1094.64L1539,-1094.64ZM1599.28,-1094.64C1600.45,-1093.44 1601.47,-1092.09 1602.31,-1090.64L1603,-1090.64L1603,-1094.64L1599.28,-1094.64ZM1539,-1086.64L1539,-1082.64L1565.09,-1082.64C1565.23,-1084.02 1565.53,-1085.36 1565.94,-1086.64L1539,-1086.64ZM1539,-1078.64L1539,-1074.64L1565.94,-1074.64C1565.53,-1075.92 1565.23,-1077.26 1565.09,-1078.64L1539,-1078.64ZM1539,-1070.64L1539,-1066.64L1570.72,-1066.64C1569.55,-1067.83 1568.53,-1069.18 1567.69,-1070.64L1539,-1070.64Z" style="fill:url(#_Linear5);fill-rule:nonzero;"/>
                <g id="path8828" transform="matrix(1.05455,0,0,1.05455,335.891,-1792.98)">
                    <clipPath id="_clip6">
                        <path d="M1201.57,675.5C1201.57,684.864 1193.86,692.569 1184.5,692.569C1175.14,692.569 1167.43,684.864 1167.43,675.5C1167.43,666.136 1175.14,658.431 1184.5,658.431C1193.86,658.431 1201.57,666.136 1201.57,675.5Z"/>
                    </clipPath>
                    <g clip-path="url(#_clip6)">
                        <path d="M1201,675.5C1201,684.613 1193.61,692 1184.5,692C1175.39,692 1168,684.613 1168,675.5C1168,666.387 1175.39,659 1184.5,659C1193.61,659 1201,666.387 1201,675.5Z" style="fill:url(#_Radial7);fill-rule:nonzero;stroke:rgb(2,63,98);stroke-width:0.95px;"/>
                    </g>
                </g>
                <g id="path8842" transform="matrix(1.2,0,0,1.2,-2091.8,220.928)">
                    <clipPath id="_clip8">
                        <path d="M3079,-1084.64C3079,-1076.41 3072.23,-1069.64 3064,-1069.64C3055.77,-1069.64 3049,-1076.41 3049,-1084.64C3049,-1092.87 3055.77,-1099.64 3064,-1099.64C3072.23,-1099.64 3079,-1092.87 3079,-1084.64Z"/>
                    </clipPath>
                    <g clip-path="url(#_clip8)">
                        <path d="M3068.18,-1099.54C3052.36,-1093.96 3051.99,-1078.72 3055.78,-1072.01" style="fill:none;fill-rule:nonzero;stroke:url(#_Linear9);stroke-width:0.83px;stroke-linecap:round;"/>
                    </g>
                </g>
                <g id="path8858" transform="matrix(1.2,0,0,1.2,-2091.49,219.928)">
                    <clipPath id="_clip10">
                        <path d="M3079,-1084.64C3079,-1076.41 3072.23,-1069.64 3064,-1069.64C3055.77,-1069.64 3049,-1076.41 3049,-1084.64C3049,-1092.87 3055.77,-1099.64 3064,-1099.64C3072.23,-1099.64 3079,-1092.87 3079,-1084.64Z"/>
                    </clipPath>
                    <g clip-path="url(#_clip10)">
                        <path d="M3078.47,-1088.39C3062.91,-1098.08 3048.2,-1089.56 3044.29,-1082.58" style="fill:none;fill-rule:nonzero;stroke:url(#_Linear11);stroke-width:0.83px;stroke-linecap:round;"/>
                    </g>
                </g>
                <g id="path8860" transform="matrix(1.2,0,0,1.2,-2091.8,220.928)">
                    <clipPath id="_clip12">
                        <path d="M3079,-1084.64C3079,-1076.41 3072.23,-1069.64 3064,-1069.64C3055.77,-1069.64 3049,-1076.41 3049,-1084.64C3049,-1092.87 3055.77,-1099.64 3064,-1099.64C3072.23,-1099.64 3079,-1092.87 3079,-1084.64Z"/>
                    </clipPath>
                    <g clip-path="url(#_clip12)">
                        <path d="M3066.22,-1069.31C3064.18,-1082.06 3052.63,-1084.44 3047.01,-1082.5" style="fill:none;fill-rule:nonzero;stroke:url(#_Linear13);stroke-width:0.83px;stroke-linecap:round;"/>
                    </g>
                </g>
                <g id="path8862" transform="matrix(1.2,0,0,1.2,-2091.8,220.928)">
                    <clipPath id="_clip14">
                        <path d="M3079,-1084.64C3079,-1076.41 3072.23,-1069.64 3064,-1069.64C3055.77,-1069.64 3049,-1076.41 3049,-1084.64C3049,-1092.87 3055.77,-1099.64 3064,-1099.64C3072.23,-1099.64 3079,-1092.87 3079,-1084.64Z"/>
                    </clipPath>
                    <g clip-path="url(#_clip14)">
                        <path d="M3062.76,-1100.09C3078.2,-1093.52 3077.6,-1078.29 3073.4,-1071.83" style="fill:none;fill-rule:nonzero;stroke:url(#_Linear15);stroke-width:0.83px;stroke-linecap:round;"/>
                    </g>
                </g>
                <g id="path8864" transform="matrix(1.2,0,0,1.2,-2091.8,220.928)">
                    <clipPath id="_clip16">
                        <path d="M3079,-1084.64C3079,-1076.41 3072.23,-1069.64 3064,-1069.64C3055.77,-1069.64 3049,-1076.41 3049,-1084.64C3049,-1092.87 3055.77,-1099.64 3064,-1099.64C3072.23,-1099.64 3079,-1092.87 3079,-1084.64Z"/>
                    </clipPath>
                    <g clip-path="url(#_clip16)">
                        <path d="M3072.41,-1068.24C3074.06,-1088.48 3059.02,-1094.99 3050.6,-1093.36" style="fill:none;fill-rule:nonzero;stroke:url(#_Linear17);stroke-width:0.83px;stroke-linecap:round;"/>
                    </g>
                </g>
                <g id="path8866" transform="matrix(1.2,0,0,1.2,-2091.8,220.928)">
                    <clipPath id="_clip18">
                        <path d="M3079,-1084.64C3079,-1076.41 3072.23,-1069.64 3064,-1069.64C3055.77,-1069.64 3049,-1076.41 3049,-1084.64C3049,-1092.87 3055.77,-1099.64 3064,-1099.64C3072.23,-1099.64 3079,-1092.87 3079,-1084.64Z"/>
                    </clipPath>
                    <g clip-path="url(#_clip18)">
                        <path d="M3085.01,-1076.95C3069.14,-1082.38 3059.4,-1070.65 3058.22,-1063.04" style="fill:none;fill-rule:nonzero;stroke:url(#_Linear19);stroke-width:0.83px;stroke-linecap:round;"/>
                    </g>
                </g>
                <g id="path8868" transform="matrix(1.2,0,0,1.2,-2091.8,220.928)">
                    <clipPath id="_clip20">
                        <path d="M3079,-1084.64C3079,-1076.41 3072.23,-1069.64 3064,-1069.64C3055.77,-1069.64 3049,-1076.41 3049,-1084.64C3049,-1092.87 3055.77,-1099.64 3064,-1099.64C3072.23,-1099.64 3079,-1092.87 3079,-1084.64Z"/>
                    </clipPath>
                    <g clip-path="url(#_clip20)">
                        <path d="M3086.22,-1079.86C3072.08,-1088.9 3059.84,-1079.81 3056.89,-1072.69" style="fill:none;fill-rule:nonzero;stroke:url(#_Linear21);stroke-width:0.83px;stroke-linecap:round;"/>
                    </g>
                </g>
                <g id="path8911" transform="matrix(1.2,0,0,1.2,-2091.8,220.928)">
                    <clipPath id="_clip22">
                        <path d="M3079,-1084.64C3079,-1076.41 3072.23,-1069.64 3064,-1069.64C3055.77,-1069.64 3049,-1076.41 3049,-1084.64C3049,-1092.87 3055.77,-1099.64 3064,-1099.64C3072.23,-1099.64 3079,-1092.87 3079,-1084.64Z"/>
                    </clipPath>
                    <g clip-path="url(#_clip22)">
                        <path d="M3078.52,-1092.19C3061.75,-1092.81 3055.82,-1078.77 3056.88,-1071.14" style="fill:none;fill-rule:nonzero;stroke:url(#_Linear23);stroke-width:0.83px;stroke-linecap:round;"/>
                    </g>
                </g>
                <g id="path8931" transform="matrix(2.56979,0,0,2.56979,-6587.72,-2783.76)">
                    <clipPath id="_clip24">
                        <path d="M3185.58,662.199C3185.58,664.987 3183.28,667.281 3180.49,667.281C3177.71,667.281 3175.41,664.987 3175.41,662.199C3175.41,659.411 3177.71,657.117 3180.49,657.117C3183.28,657.117 3185.58,659.411 3185.58,662.199Z"/>
                    </clipPath>
                    <g clip-path="url(#_clip24)">
                        <path d="M3182.5,660.75C3182.5,661.578 3181.83,662.25 3181,662.25C3180.17,662.25 3179.5,661.578 3179.5,660.75C3179.5,659.922 3180.17,659.25 3181,659.25C3181.83,659.25 3182.5,659.922 3182.5,660.75Z" style="fill:url(#_Radial25);fill-rule:nonzero;"/>
                    </g>
                </g>
                <g id="path9944" transform="matrix(2.56979,0,0,2.56979,-6587.34,-2795.14)">
                    <clipPath id="_clip26">
                        <path d="M3185.58,662.199C3185.58,664.987 3183.28,667.281 3180.49,667.281C3177.71,667.281 3175.41,664.987 3175.41,662.199C3175.41,659.411 3177.71,657.117 3180.49,657.117C3183.28,657.117 3185.58,659.411 3185.58,662.199Z"/>
                    </clipPath>
                    <g clip-path="url(#_clip26)">
                        <path d="M3182.5,660.75C3182.5,661.578 3181.83,662.25 3181,662.25C3180.17,662.25 3179.5,661.578 3179.5,660.75C3179.5,659.922 3180.17,659.25 3181,659.25C3181.83,659.25 3182.5,659.922 3182.5,660.75Z" style="fill:url(#_Radial27);fill-rule:nonzero;"/>
                    </g>
                </g>
                <g id="path9948" transform="matrix(2.56979,0,0,2.56979,-6596.47,-2788.45)">
                    <clipPath id="_clip28">
                        <path d="M3185.58,662.199C3185.58,664.987 3183.28,667.281 3180.49,667.281C3177.71,667.281 3175.41,664.987 3175.41,662.199C3175.41,659.411 3177.71,657.117 3180.49,657.117C3183.28,657.117 3185.58,659.411 3185.58,662.199Z"/>
                    </clipPath>
                    <g clip-path="url(#_clip28)">
                        <path d="M3182.5,660.75C3182.5,661.578 3181.83,662.25 3181,662.25C3180.17,662.25 3179.5,661.578 3179.5,660.75C3179.5,659.922 3180.17,659.25 3181,659.25C3181.83,659.25 3182.5,659.922 3182.5,660.75Z" style="fill:url(#_Radial29);fill-rule:nonzero;"/>
                    </g>
                </g>
                <g id="path9952" transform="matrix(2.56979,0,0,2.56979,-6601.53,-2776.51)">
                    <clipPath id="_clip30">
                        <path d="M3185.58,662.199C3185.58,664.987 3183.28,667.281 3180.49,667.281C3177.71,667.281 3175.41,664.987 3175.41,662.199C3175.41,659.411 3177.71,657.117 3180.49,657.117C3183.28,657.117 3185.58,659.411 3185.58,662.199Z"/>
                    </clipPath>
                    <g clip-path="url(#_clip30)">
                        <path d="M3182.5,660.75C3182.5,661.578 3181.83,662.25 3181,662.25C3180.17,662.25 3179.5,661.578 3179.5,660.75C3179.5,659.922 3180.17,659.25 3181,659.25C3181.83,659.25 3182.5,659.922 3182.5,660.75Z" style="fill:url(#_Radial31);fill-rule:nonzero;"/>
                    </g>
                </g>
                <g id="path9956" transform="matrix(2.56979,0,0,2.56979,-6591.9,-2771.89)">
                    <clipPath id="_clip32">
                        <path d="M3185.58,662.199C3185.58,664.987 3183.28,667.281 3180.49,667.281C3177.71,667.281 3175.41,664.987 3175.41,662.199C3175.41,659.411 3177.71,657.117 3180.49,657.117C3183.28,657.117 3185.58,659.411 3185.58,662.199Z"/>
                    </clipPath>
                    <g clip-path="url(#_clip32)">
                        <path d="M3182.5,660.75C3182.5,661.578 3181.83,662.25 3181,662.25C3180.17,662.25 3179.5,661.578 3179.5,660.75C3179.5,659.922 3180.17,659.25 3181,659.25C3181.83,659.25 3182.5,659.922 3182.5,660.75Z" style="fill:url(#_Radial33);fill-rule:nonzero;"/>
                    </g>
                </g>
                <g id="path9960" transform="matrix(2.56979,0,0,2.56979,-6588.22,-2765.76)">
                    <clipPath id="_clip34">
                        <path d="M3185.58,662.199C3185.58,664.987 3183.28,667.281 3180.49,667.281C3177.71,667.281 3175.41,664.987 3175.41,662.199C3175.41,659.411 3177.71,657.117 3180.49,657.117C3183.28,657.117 3185.58,659.411 3185.58,662.199Z"/>
                    </clipPath>
                    <g clip-path="url(#_clip34)">
                        <path d="M3182.5,660.75C3182.5,661.578 3181.83,662.25 3181,662.25C3180.17,662.25 3179.5,661.578 3179.5,660.75C3179.5,659.922 3180.17,659.25 3181,659.25C3181.83,659.25 3182.5,659.922 3182.5,660.75Z" style="fill:url(#_Radial35);fill-rule:nonzero;"/>
                    </g>
                </g>
                <g id="path9964" transform="matrix(2.56979,0,0,2.56979,-6579.72,-2769.95)">
                    <clipPath id="_clip36">
                        <path d="M3185.58,662.199C3185.58,664.987 3183.28,667.281 3180.49,667.281C3177.71,667.281 3175.41,664.987 3175.41,662.199C3175.41,659.411 3177.71,657.117 3180.49,657.117C3183.28,657.117 3185.58,659.411 3185.58,662.199Z"/>
                    </clipPath>
                    <g clip-path="url(#_clip36)">
                        <path d="M3182.5,660.75C3182.5,661.578 3181.83,662.25 3181,662.25C3180.17,662.25 3179.5,661.578 3179.5,660.75C3179.5,659.922 3180.17,659.25 3181,659.25C3181.83,659.25 3182.5,659.922 3182.5,660.75Z" style="fill:url(#_Radial37);fill-rule:nonzero;"/>
                    </g>
                </g>
                <g id="path9968" transform="matrix(2.56979,0,0,2.56979,-6578.78,-2786.76)">
                    <clipPath id="_clip38">
                        <path d="M3185.58,662.199C3185.58,664.987 3183.28,667.281 3180.49,667.281C3177.71,667.281 3175.41,664.987 3175.41,662.199C3175.41,659.411 3177.71,657.117 3180.49,657.117C3183.28,657.117 3185.58,659.411 3185.58,662.199Z"/>
                    </clipPath>
                    <g clip-path="url(#_clip38)">
                        <path d="M3182.5,660.75C3182.5,661.578 3181.83,662.25 3181,662.25C3180.17,662.25 3179.5,661.578 3179.5,660.75C3179.5,659.922 3180.17,659.25 3181,659.25C3181.83,659.25 3182.5,659.922 3182.5,660.75Z" style="fill:url(#_Radial39);fill-rule:nonzero;"/>
                    </g>
                </g>
                <g id="path9972" transform="matrix(2.56979,0,0,2.56979,-6575.28,-2777.39)">
                    <clipPath id="_clip40">
                        <path d="M3185.58,662.199C3185.58,664.987 3183.28,667.281 3180.49,667.281C3177.71,667.281 3175.41,664.987 3175.41,662.199C3175.41,659.411 3177.71,657.117 3180.49,657.117C3183.28,657.117 3185.58,659.411 3185.58,662.199Z"/>
                    </clipPath>
                    <g clip-path="url(#_clip40)">
                        <path d="M3182.5,660.75C3182.5,661.578 3181.83,662.25 3181,662.25C3180.17,662.25 3179.5,661.578 3179.5,660.75C3179.5,659.922 3180.17,659.25 3181,659.25C3181.83,659.25 3182.5,659.922 3182.5,660.75Z" style="fill:url(#_Radial41);fill-rule:nonzero;"/>
                    </g>
                </g>
            </g>
        </g>
    </g>
    <defs>
        <linearGradient id="_Linear1" x1="0" y1="0" x2="1" y2="0" gradientUnits="userSpaceOnUse" gradientTransform="matrix(9.82655e-16,16.048,-16.048,9.82655e-16,121.306,976.377)"><stop offset="0" style="stop-color:rgb(102,102,102);stop-opacity:1"/><stop offset="1" style="stop-color:rgb(51,51,51);stop-opacity:1"/></linearGradient>
        <linearGradient id="_Linear2" x1="0" y1="0" x2="1" y2="0" gradientUnits="userSpaceOnUse" gradientTransform="matrix(9.93774e-16,16.2296,-16.2296,9.93774e-16,109.913,976.3)"><stop offset="0" style="stop-color:rgb(102,102,102);stop-opacity:1"/><stop offset="1" style="stop-color:rgb(51,51,51);stop-opacity:1"/></linearGradient>
        <linearGradient id="_Linear3" x1="0" y1="0" x2="1" y2="0" gradientUnits="userSpaceOnUse" gradientTransform="matrix(0.600659,-107.709,107.709,0.600659,-35,-1050.64)"><stop offset="0" style="stop-color:rgb(179,179,179);stop-opacity:1"/><stop offset="1" style="stop-color:rgb(230,230,230);stop-opacity:1"/></linearGradient>
        <linearGradient id="_Linear4" x1="0" y1="0" x2="1" y2="0" gradientUnits="userSpaceOnUse" gradientTransform="matrix(3.95851e-15,-64.6474,64.6474,3.95851e-15,-38.75,-1089.93)"><stop offset="0" style="stop-color:white;stop-opacity:0.59"/><stop offset="1" style="stop-color:white;stop-opacity:0.86"/></linearGradient>
        <linearGradient id="_Linear5" x1="0" y1="0" x2="1" y2="0" gradientUnits="userSpaceOnUse" gradientTransform="matrix(3.19174e-15,52.125,-52.125,3.19174e-15,1539,-1118.76)"><stop offset="0" style="stop-color:rgb(3,105,163);stop-opacity:1"/><stop offset="1" style="stop-color:rgb(2,63,98);stop-opacity:1"/></linearGradient>
        <radialGradient id="_Radial7" cx="0" cy="0" r="1" gradientUnits="userSpaceOnUse" gradientTransform="matrix(16.1475,11.5111,-12.7276,17.8538,1179.83,668.213)"><stop offset="0" style="stop-color:rgb(3,105,163);stop-opacity:1"/><stop offset="1" style="stop-color:rgb(2,63,98);stop-opacity:1"/></radialGradient>
        <linearGradient id="_Linear9" x1="0" y1="0" x2="1" y2="0" gradientUnits="userSpaceOnUse" gradientTransform="matrix(5.46,-26.75,26.75,5.46,3054.22,-1072.65)"><stop offset="0" style="stop-color:rgb(99,187,238);stop-opacity:1"/><stop offset="1" style="stop-color:rgb(170,220,247);stop-opacity:1"/></linearGradient>
        <linearGradient id="_Linear11" x1="0" y1="0" x2="1" y2="0" gradientUnits="userSpaceOnUse" gradientTransform="matrix(-30.2175,5.03423,-5.03423,-30.2175,3075.51,-1089.98)"><stop offset="0" style="stop-color:rgb(99,187,238);stop-opacity:1"/><stop offset="1" style="stop-color:rgb(170,220,247);stop-opacity:1"/></linearGradient>
        <linearGradient id="_Linear13" x1="0" y1="0" x2="1" y2="0" gradientUnits="userSpaceOnUse" gradientTransform="matrix(-14.0296,-11.6875,11.6875,-14.0296,3065.44,-1071.26)"><stop offset="0" style="stop-color:rgb(99,187,238);stop-opacity:1"/><stop offset="1" style="stop-color:rgb(170,220,247);stop-opacity:1"/></linearGradient>
        <linearGradient id="_Linear15" x1="0" y1="0" x2="1" y2="0" gradientUnits="userSpaceOnUse" gradientTransform="matrix(-8.6768,-23.375,23.375,-8.6768,3075.07,-1074.96)"><stop offset="0" style="stop-color:rgb(99,187,238);stop-opacity:1"/><stop offset="1" style="stop-color:rgb(170,220,247);stop-opacity:1"/></linearGradient>
        <linearGradient id="_Linear17" x1="0" y1="0" x2="1" y2="0" gradientUnits="userSpaceOnUse" gradientTransform="matrix(-10.6208,-24.6875,24.6875,-10.6208,3067.78,-1071.48)"><stop offset="0" style="stop-color:rgb(99,187,238);stop-opacity:1"/><stop offset="1" style="stop-color:rgb(170,220,247);stop-opacity:1"/></linearGradient>
        <linearGradient id="_Linear19" x1="0" y1="0" x2="1" y2="0" gradientUnits="userSpaceOnUse" gradientTransform="matrix(-9.8269,-21.5625,21.5625,-9.8269,3069.72,-1071.38)"><stop offset="0" style="stop-color:rgb(99,187,238);stop-opacity:1"/><stop offset="1" style="stop-color:rgb(170,220,247);stop-opacity:1"/></linearGradient>
        <linearGradient id="_Linear21" x1="0" y1="0" x2="1" y2="0" gradientUnits="userSpaceOnUse" gradientTransform="matrix(-6.63932,-26.144,26.144,-6.63932,3072.35,-1070.13)"><stop offset="0" style="stop-color:rgb(99,187,238);stop-opacity:1"/><stop offset="1" style="stop-color:rgb(170,220,247);stop-opacity:1"/></linearGradient>
        <linearGradient id="_Linear23" x1="0" y1="0" x2="1" y2="0" gradientUnits="userSpaceOnUse" gradientTransform="matrix(-18.982,-19.1644,19.1644,-18.982,3071.51,-1076.78)"><stop offset="0" style="stop-color:rgb(99,187,238);stop-opacity:1"/><stop offset="1" style="stop-color:rgb(170,220,247);stop-opacity:1"/></linearGradient>
        <radialGradient id="_Radial25" cx="0" cy="0" r="1" gradientUnits="userSpaceOnUse" gradientTransform="matrix(-5.93686e-06,1.44387,-1.53627,-6.52961e-06,3180.94,660.766)"><stop offset="0" style="stop-color:rgb(99,187,238);stop-opacity:1"/><stop offset="1" style="stop-color:rgb(0,160,252);stop-opacity:0"/></radialGradient>
        <radialGradient id="_Radial27" cx="0" cy="0" r="1" gradientUnits="userSpaceOnUse" gradientTransform="matrix(-5.93686e-06,1.44387,-1.53627,-6.52961e-06,3180.94,660.766)"><stop offset="0" style="stop-color:rgb(99,187,238);stop-opacity:1"/><stop offset="1" style="stop-color:rgb(0,160,252);stop-opacity:0"/></radialGradient>
        <radialGradient id="_Radial29" cx="0" cy="0" r="1" gradientUnits="userSpaceOnUse" gradientTransform="matrix(-5.93686e-06,1.44387,-1.53627,-6.52961e-06,3180.94,660.766)"><stop offset="0" style="stop-color:rgb(99,187,238);stop-opacity:1"/><stop offset="1" style="stop-color:rgb(0,160,252);stop-opacity:0"/></radialGradient>
        <radialGradient id="_Radial31" cx="0" cy="0" r="1" gradientUnits="userSpaceOnUse" gradientTransform="matrix(-5.93686e-06,1.44387,-1.53627,-6.52961e-06,3180.94,660.766)"><stop offset="0" style="stop-color:rgb(99,187,238);stop-opacity:1"/><stop offset="1" style="stop-color:rgb(0,160,252);stop-opacity:0"/></radialGradient>
        <radialGradient id="_Radial33" cx="0" cy="0" r="1" gradientUnits="userSpaceOnUse" gradientTransform="matrix(-5.93686e-06,1.44387,-1.53627,-6.52961e-06,3180.94,660.766)"><stop offset="0" style="stop-color:rgb(99,187,238);stop-opacity:1"/><stop offset="1" style="stop-color:rgb(0,160,252);stop-opacity:0"/></radialGradient>
        <radialGradient id="_Radial35" cx="0" cy="0" r="1" gradientUnits="userSpaceOnUse" gradientTransform="matrix(-5.93686e-06,1.44387,-1.53627,-6.52961e-06,3180.94,660.766)"><stop offset="0" style="stop-color:rgb(99,187,238);stop-opacity:1"/><stop offset="1" style="stop-color:rgb(0,160,252);stop-opacity:0"/></radialGradient>
        <radialGradient id="_Radial37" cx="0" cy="0" r="1" gradientUnits="userSpaceOnUse" gradientTransform="matrix(-5.93686e-06,1.44387,-1.53627,-6.52961e-06,3180.94,660.766)"><stop offset="0" style="stop-color:rgb(99,187,238);stop-opacity:1"/><stop offset="1" style="stop-color:rgb(0,160,252);stop-opacity:0"/></radialGradient>
        <radialGradient id="_Radial39" cx="0" cy="0" r="1" gradientUnits="userSpaceOnUse" gradientTransform="matrix(-5.93686e-06,1.44387,-1.53627,-6.52961e-06,3180.94,660.766)"><stop offset="0" style="stop-color:rgb(99,187,238);stop-opacity:1"/><stop offset="1" style="stop-color:rgb(0,160,252);stop-opacity:0"/></radialGradient>
        <radialGradient id="_Radial41" cx="0" cy="0" r="1" gradientUnits="userSpaceOnUse" gradientTransform="matrix(-5.93686e-06,1.44387,-1.53627,-6.52961e-06,3180.94,660.766)"><stop offset="0" style="stop-color:rgb(99,187,238);stop-opacity:1"/><stop offset="1" style="stop-color:rgb(0,160,252);stop-opacity:0"/></radialGradient>
    </defs>
</svg>
