<?xml version="1.0" encoding="UTF-8" standalone="no"?>
<!DOCTYPE svg PUBLIC "-//W3C//DTD SVG 1.1//EN" "http://www.w3.org/Graphics/SVG/1.1/DTD/svg11.dtd">
<svg width="100%" height="100%" viewBox="0 0 434 535" version="1.1" xmlns="http://www.w3.org/2000/svg" xmlns:xlink="http://www.w3.org/1999/xlink" xml:space="preserve" xmlns:serif="http://www.serif.com/" style="fill-rule:evenodd;clip-rule:evenodd;stroke-linejoin:round;stroke-miterlimit:2;">
    <g transform="matrix(1,0,0,1,-2550,-5226)">
        <g>
            <g id="use5178" transform="matrix(4.16667,0,0,4.16667,2763.01,10087.8)">
                <g id="g25513" transform="matrix(7.99974,0,0,7.9969,-938.968,-8974.56)">
                    <path id="path25515" d="M111.562,976.373C111.104,976.461 110.992,976.657 111,977.123L111,991.625C111,992.149 111.226,992.375 111.75,992.375L123.25,992.375C123.774,992.375 124,992.149 124,991.625L124,982.644C124.006,982.38 123.902,982.115 123.719,981.925L118.448,976.655C118.259,976.471 117.994,976.367 117.73,976.373L111.75,976.373C111.688,976.367 111.625,976.367 111.562,976.373Z" style="fill:url(#_Linear1);fill-rule:nonzero;"/>
                    <path id="path25517" d="M120.329,976.377C119.997,976.483 119.885,976.99 120.141,977.228L123.153,980.257C123.431,980.522 123.986,980.295 124,979.91L124,976.881C124,976.617 123.761,976.377 123.498,976.377L120.486,976.377C120.434,976.368 120.381,976.368 120.329,976.377Z" style="fill:url(#_Linear2);fill-rule:nonzero;"/>
                </g>
                <path id="path25519" d="M-45,-1160.58L-45,-1044.58L46.999,-1044.58L46.999,-1117.45L46.374,-1118.08L4.624,-1160.08L4.124,-1160.58L-45,-1160.58Z" style="fill:url(#_Linear3);fill-rule:nonzero;"/>
                <path id="path25521" d="M-41,-1156.58L1.234,-1156.58L42.997,-1114.58L42.997,-1048.58L-41,-1048.58L-41,-1156.58Z" style="fill:url(#_Linear4);fill-rule:nonzero;"/>
            </g>
            <g id="g10178" transform="matrix(4.16667,0,0,4.16667,-12524.5,10088.2)">
                <g id="use7849" transform="matrix(1.64103,0,0,0.500002,2783.67,-531.417)">
                    <rect x="520" y="-1090.64" width="39" height="28" style="fill:rgb(128,128,128);"/>
                </g>
                <rect id="use7948" x="3637" y="-1118.74" width="64" height="42" style="fill:url(#_Linear5);"/>
                <rect id="use7851" x="3639" y="-1074.74" width="60" height="10" style="fill:rgb(204,204,204);"/>
                <g id="use7954" transform="matrix(1.71429,0,0,0.416664,2744.14,-621.141)">
                    <rect x="522" y="-1088.64" width="35" height="24" style="fill:url(#_Linear6);"/>
                </g>
                <g id="text7855" transform="matrix(1,0,0,1,0,-0.1001)">
                    <path id="path8801" d="M3655.25,-1071.36L3655.25,-1070.59C3655.03,-1070.72 3654.8,-1070.81 3654.57,-1070.88C3654.34,-1070.95 3654.11,-1070.98 3653.88,-1070.98C3653.52,-1070.98 3653.25,-1070.92 3653.07,-1070.8C3652.9,-1070.69 3652.81,-1070.51 3652.81,-1070.28C3652.81,-1070.06 3652.88,-1069.9 3653.01,-1069.8C3653.14,-1069.69 3653.47,-1069.59 3653.99,-1069.49L3654.31,-1069.43C3654.7,-1069.36 3654.99,-1069.21 3655.19,-1068.98C3655.39,-1068.76 3655.5,-1068.47 3655.5,-1068.12C3655.5,-1067.64 3655.33,-1067.27 3654.99,-1067C3654.66,-1066.74 3654.19,-1066.61 3653.59,-1066.61C3653.35,-1066.61 3653.1,-1066.63 3652.84,-1066.68C3652.58,-1066.73 3652.3,-1066.8 3652,-1066.9L3652,-1067.72C3652.29,-1067.57 3652.58,-1067.45 3652.84,-1067.38C3653.11,-1067.3 3653.37,-1067.26 3653.61,-1067.26C3653.95,-1067.26 3654.22,-1067.33 3654.41,-1067.47C3654.61,-1067.62 3654.7,-1067.81 3654.7,-1068.07C3654.7,-1068.43 3654.35,-1068.69 3653.65,-1068.83L3653.62,-1068.84L3653.32,-1068.9C3652.87,-1068.99 3652.54,-1069.13 3652.33,-1069.34C3652.12,-1069.55 3652.02,-1069.84 3652.02,-1070.2C3652.02,-1070.66 3652.17,-1071.02 3652.48,-1071.26C3652.8,-1071.51 3653.24,-1071.64 3653.82,-1071.64C3654.07,-1071.64 3654.32,-1071.62 3654.56,-1071.57C3654.79,-1071.52 3655.03,-1071.45 3655.25,-1071.36" style="fill-rule:nonzero;"/>
                    <path id="path8803" d="M3657.81,-1069.1C3657.81,-1068.49 3657.91,-1068.03 3658.1,-1067.72C3658.29,-1067.41 3658.58,-1067.26 3658.96,-1067.26C3659.34,-1067.26 3659.63,-1067.41 3659.82,-1067.72C3660.02,-1068.04 3660.12,-1068.5 3660.12,-1069.1C3660.12,-1069.71 3660.02,-1070.17 3659.82,-1070.48C3659.63,-1070.8 3659.34,-1070.95 3658.96,-1070.95C3658.58,-1070.95 3658.29,-1070.8 3658.1,-1070.49C3657.91,-1070.17 3657.81,-1069.71 3657.81,-1069.1M3660.12,-1067.32C3659.99,-1067.09 3659.81,-1066.9 3659.59,-1066.78C3659.38,-1066.65 3659.12,-1066.59 3658.84,-1066.59C3658.26,-1066.59 3657.81,-1066.81 3657.47,-1067.25C3657.14,-1067.69 3656.98,-1068.31 3656.98,-1069.09C3656.98,-1069.88 3657.14,-1070.5 3657.47,-1070.95C3657.81,-1071.4 3658.26,-1071.62 3658.84,-1071.62C3659.12,-1071.62 3659.37,-1071.56 3659.59,-1071.43C3659.81,-1071.31 3659.99,-1071.13 3660.12,-1070.89L3660.12,-1071.51L3660.91,-1071.51L3660.91,-1064.89L3660.12,-1064.89L3660.12,-1067.32" style="fill-rule:nonzero;"/>
                    <path id="path8805" d="M3666.55,-1070.44C3666.38,-1070.57 3666.21,-1070.67 3666.03,-1070.73C3665.86,-1070.79 3665.67,-1070.82 3665.46,-1070.82C3664.97,-1070.82 3664.59,-1070.66 3664.33,-1070.35C3664.07,-1070.05 3663.94,-1069.6 3663.94,-1069.02L3663.94,-1066.63L3663.15,-1066.63L3663.15,-1071.43L3663.94,-1071.43L3663.94,-1070.49C3664.08,-1070.83 3664.28,-1071.09 3664.55,-1071.27C3664.82,-1071.45 3665.14,-1071.54 3665.52,-1071.54C3665.71,-1071.54 3665.89,-1071.52 3666.06,-1071.47C3666.23,-1071.42 3666.39,-1071.35 3666.55,-1071.24L3666.55,-1070.44" style="fill-rule:nonzero;"/>
                    <path id="path8807" d="M3669.88,-1072.76L3669.88,-1071.4L3671.67,-1071.4L3671.67,-1070.79L3669.88,-1070.79L3669.88,-1068.18C3669.88,-1067.83 3669.95,-1067.58 3670.08,-1067.44C3670.21,-1067.3 3670.45,-1067.23 3670.78,-1067.23L3671.67,-1067.23L3671.67,-1066.6L3670.7,-1066.6C3670.11,-1066.6 3669.7,-1066.72 3669.45,-1066.96C3669.21,-1067.19 3669.09,-1067.6 3669.09,-1068.18L3669.09,-1070.79L3667.81,-1070.79L3667.81,-1071.4L3669.09,-1071.4L3669.09,-1072.76L3669.88,-1072.76" style="fill-rule:nonzero;"/>
                    <path id="path8809" d="M3677.17,-1066.16L3677.17,-1065.55L3676.89,-1065.55C3676.18,-1065.55 3675.71,-1065.65 3675.46,-1065.87C3675.22,-1066.08 3675.11,-1066.5 3675.11,-1067.13L3675.11,-1068.15C3675.11,-1068.58 3675.03,-1068.88 3674.87,-1069.05C3674.72,-1069.21 3674.45,-1069.29 3674.05,-1069.29L3673.78,-1069.29L3673.78,-1069.91L3674.05,-1069.91C3674.45,-1069.91 3674.73,-1069.99 3674.88,-1070.15C3675.03,-1070.31 3675.11,-1070.61 3675.11,-1071.04L3675.11,-1072.06C3675.11,-1072.69 3675.22,-1073.11 3675.46,-1073.32C3675.71,-1073.53 3676.18,-1073.64 3676.89,-1073.64L3677.17,-1073.64L3677.17,-1073.03L3676.87,-1073.03C3676.47,-1073.03 3676.21,-1072.96 3676.09,-1072.84C3675.97,-1072.71 3675.91,-1072.45 3675.91,-1072.05L3675.91,-1070.98C3675.91,-1070.54 3675.84,-1070.21 3675.71,-1070.01C3675.58,-1069.81 3675.36,-1069.67 3675.05,-1069.6C3675.36,-1069.52 3675.58,-1069.38 3675.71,-1069.18C3675.84,-1068.98 3675.91,-1068.65 3675.91,-1068.21L3675.91,-1067.14C3675.91,-1066.74 3675.97,-1066.47 3676.09,-1066.35C3676.21,-1066.23 3676.47,-1066.16 3676.87,-1066.16L3677.17,-1066.16" style="fill-rule:nonzero;"/>
                    <path id="path8811" d="M3682.52,-1071.52L3680.8,-1069.23L3682.69,-1066.73L3681.78,-1066.73L3680.37,-1068.65L3678.97,-1066.73L3678.06,-1066.73L3679.94,-1069.23L3678.23,-1071.52L3679.1,-1071.52L3680.37,-1069.79L3681.63,-1071.52L3682.52,-1071.52" style="fill-rule:nonzero;"/>
                    <path id="path8813" d="M3683.86,-1066.16L3684.15,-1066.16C3684.55,-1066.16 3684.82,-1066.23 3684.94,-1066.35C3685.06,-1066.48 3685.12,-1066.74 3685.12,-1067.14L3685.12,-1068.21C3685.12,-1068.65 3685.19,-1068.98 3685.31,-1069.18C3685.44,-1069.38 3685.66,-1069.52 3685.98,-1069.6C3685.67,-1069.67 3685.45,-1069.81 3685.31,-1070.01C3685.19,-1070.21 3685.12,-1070.54 3685.12,-1070.98L3685.12,-1072.05C3685.12,-1072.45 3685.06,-1072.71 3684.94,-1072.84C3684.82,-1072.96 3684.55,-1073.03 3684.15,-1073.03L3683.86,-1073.03L3683.86,-1073.64L3684.12,-1073.64C3684.84,-1073.64 3685.31,-1073.53 3685.55,-1073.32C3685.79,-1073.11 3685.91,-1072.69 3685.91,-1072.06L3685.91,-1071.04C3685.91,-1070.61 3685.99,-1070.31 3686.14,-1070.15C3686.29,-1069.99 3686.57,-1069.91 3686.97,-1069.91L3687.24,-1069.91L3687.24,-1069.29L3686.97,-1069.29C3686.57,-1069.29 3686.29,-1069.21 3686.14,-1069.05C3685.99,-1068.88 3685.91,-1068.58 3685.91,-1068.15L3685.91,-1067.13C3685.91,-1066.5 3685.79,-1066.08 3685.55,-1065.87C3685.31,-1065.65 3684.84,-1065.55 3684.12,-1065.55L3683.86,-1065.55L3683.86,-1066.16" style="fill-rule:nonzero;"/>
                </g>
                <g id="g8155" transform="matrix(1,0,0,1,0,-0.1001)">
                    <rect id="rect7999" x="3643" y="-1113.64" width="52" height="1" style="fill:rgb(240,158,111);"/>
                    <rect id="rect8004" x="3643" y="-1081.64" width="52" height="1" style="fill:rgb(240,158,111);"/>
                    <g id="rect8007" transform="matrix(0,1,-1,0,0,0)">
                        <rect x="-1113.64" y="-3644" width="33" height="1" style="fill:rgb(240,158,111);"/>
                    </g>
                    <g id="rect8009" transform="matrix(0,1,-1,0,0,0)">
                        <rect x="-1113.64" y="-3695" width="33" height="1" style="fill:rgb(240,158,111);"/>
                    </g>
                    <g id="rect8011" transform="matrix(0,1,-1,0,0,0)">
                        <rect x="-1113.64" y="-3668" width="33" height="1" style="fill:rgb(240,158,111);"/>
                    </g>
                    <rect id="rect8013" x="3643" y="-1103.64" width="52" height="1" style="fill:rgb(240,158,111);"/>
                </g>
                <rect id="rect8017" x="3639" y="-1113.74" width="4" height="1" style="fill:url(#_Linear7);"/>
                <g id="rect8019" transform="matrix(0,1,-1,0,0,0)">
                    <rect x="-1116.74" y="-3644" width="3" height="1" style="fill:url(#_Linear8);"/>
                </g>
                <g id="rect8023" transform="matrix(0,1,-1,0,0,0)">
                    <rect x="-1116.74" y="-3695" width="3" height="1" style="fill:url(#_Linear9);"/>
                </g>
                <g id="rect8025" transform="matrix(-1,0,0,-1,0,0)">
                    <rect x="-3698" y="1112.74" width="3" height="1" style="fill:url(#_Linear10);"/>
                </g>
                <g id="rect8029" transform="matrix(-1,0,0,-1,0,0)">
                    <rect x="-3699" y="1080.74" width="4" height="1" style="fill:url(#_Linear11);"/>
                </g>
                <g id="rect8031" transform="matrix(0,-1,1,0,0,0)">
                    <rect x="1077.74" y="3694" width="3" height="1" style="fill:url(#_Linear12);"/>
                </g>
                <g id="rect8035" transform="matrix(0,-1,1,0,0,0)">
                    <rect x="1077.74" y="3643" width="3" height="1" style="fill:url(#_Linear13);"/>
                </g>
                <rect id="rect8037" x="3639" y="-1081.74" width="4" height="1" style="fill:url(#_Linear14);"/>
                <rect id="rect8039" x="3639" y="-1103.74" width="4" height="1" style="fill:url(#_Linear15);"/>
                <g id="rect8041" transform="matrix(-1,0,0,1,0,0)">
                    <rect x="-3699" y="-1103.74" width="4" height="1" style="fill:url(#_Linear16);"/>
                </g>
                <g id="rect8043" transform="matrix(0,-1,-1,0,0,0)">
                    <rect x="1077.74" y="-3668" width="3" height="1" style="fill:url(#_Linear17);"/>
                </g>
                <g id="rect8045" transform="matrix(0,1,1,0,0,0)">
                    <rect x="-1116.74" y="3667" width="3" height="1" style="fill:url(#_Linear18);"/>
                </g>
                <g id="g7773" transform="matrix(6.01645,0,0,6.01645,-18690.6,-5282.86)">
                    <path id="path7775" d="M3715.75,692.954L3720.73,692.954L3720.73,693.951L3720.23,693.951L3720.23,693.619L3716.16,693.619L3714.13,698.439L3713.84,698.439L3712.59,695.782L3712.11,696.036L3711.93,695.413L3712.93,695.031L3713.98,697.073L3715.74,692.954" style="fill:url(#_Linear19);fill-rule:nonzero;"/>
                </g>
                <g id="g7777" transform="matrix(1,0,0,1,-1.6,-8.1001)">
                    <path id="path7779" d="M3693.78,-1095.64L3688.82,-1095.64L3682.72,-1087.64L3682.57,-1087.64L3676.68,-1095.64L3671.31,-1095.64L3679.75,-1084.42L3679.75,-1084.28L3671,-1072.64L3675.96,-1072.64L3682.47,-1081.3L3682.62,-1081.3L3689.13,-1072.64L3694.5,-1072.64L3685.55,-1084.47L3685.55,-1084.61L3693.78,-1095.64" style="fill:url(#_Linear20);fill-rule:nonzero;"/>
                </g>
            </g>
        </g>
    </g>
    <defs>
        <linearGradient id="_Linear1" x1="0" y1="0" x2="1" y2="0" gradientUnits="userSpaceOnUse" gradientTransform="matrix(9.82655e-16,16.048,-16.048,9.82655e-16,121.306,976.377)"><stop offset="0" style="stop-color:rgb(102,102,102);stop-opacity:1"/><stop offset="1" style="stop-color:rgb(51,51,51);stop-opacity:1"/></linearGradient>
        <linearGradient id="_Linear2" x1="0" y1="0" x2="1" y2="0" gradientUnits="userSpaceOnUse" gradientTransform="matrix(9.93774e-16,16.2296,-16.2296,9.93774e-16,109.913,976.3)"><stop offset="0" style="stop-color:rgb(102,102,102);stop-opacity:1"/><stop offset="1" style="stop-color:rgb(51,51,51);stop-opacity:1"/></linearGradient>
        <linearGradient id="_Linear3" x1="0" y1="0" x2="1" y2="0" gradientUnits="userSpaceOnUse" gradientTransform="matrix(0.600659,-107.709,107.709,0.600659,-35,-1050.64)"><stop offset="0" style="stop-color:rgb(179,179,179);stop-opacity:1"/><stop offset="1" style="stop-color:rgb(230,230,230);stop-opacity:1"/></linearGradient>
        <linearGradient id="_Linear4" x1="0" y1="0" x2="1" y2="0" gradientUnits="userSpaceOnUse" gradientTransform="matrix(3.95851e-15,-64.6474,64.6474,3.95851e-15,-38.75,-1089.93)"><stop offset="0" style="stop-color:white;stop-opacity:0.59"/><stop offset="1" style="stop-color:white;stop-opacity:0.86"/></linearGradient>
        <linearGradient id="_Linear5" x1="0" y1="0" x2="1" y2="0" gradientUnits="userSpaceOnUse" gradientTransform="matrix(2.57257e-15,-42.0132,42.0132,2.57257e-15,3658.22,-1076.72)"><stop offset="0" style="stop-color:white;stop-opacity:0.59"/><stop offset="1" style="stop-color:white;stop-opacity:0.86"/></linearGradient>
        <linearGradient id="_Linear6" x1="0" y1="0" x2="1" y2="0" gradientUnits="userSpaceOnUse" gradientTransform="matrix(1.46958e-15,-24,24,1.46958e-15,522,-1064.64)"><stop offset="0" style="stop-color:white;stop-opacity:0.59"/><stop offset="1" style="stop-color:white;stop-opacity:0.86"/></linearGradient>
        <linearGradient id="_Linear7" x1="0" y1="0" x2="1" y2="0" gradientUnits="userSpaceOnUse" gradientTransform="matrix(-4,4.89859e-16,-4.89859e-16,-4,3643,-1112.74)"><stop offset="0" style="stop-color:rgb(240,158,111);stop-opacity:1"/><stop offset="1" style="stop-color:rgb(249,207,181);stop-opacity:1"/></linearGradient>
        <linearGradient id="_Linear8" x1="0" y1="0" x2="1" y2="0" gradientUnits="userSpaceOnUse" gradientTransform="matrix(-3,3.67394e-16,-3.67394e-16,-3,-1113.74,-3643)"><stop offset="0" style="stop-color:rgb(240,158,111);stop-opacity:1"/><stop offset="1" style="stop-color:rgb(249,207,181);stop-opacity:1"/></linearGradient>
        <linearGradient id="_Linear9" x1="0" y1="0" x2="1" y2="0" gradientUnits="userSpaceOnUse" gradientTransform="matrix(-3,3.67394e-16,-3.67394e-16,-3,-1113.74,-3694)"><stop offset="0" style="stop-color:rgb(240,158,111);stop-opacity:1"/><stop offset="1" style="stop-color:rgb(249,207,181);stop-opacity:1"/></linearGradient>
        <linearGradient id="_Linear10" x1="0" y1="0" x2="1" y2="0" gradientUnits="userSpaceOnUse" gradientTransform="matrix(-3,3.67394e-16,-3.67394e-16,-3,-3695,1113.74)"><stop offset="0" style="stop-color:rgb(240,158,111);stop-opacity:1"/><stop offset="1" style="stop-color:rgb(249,207,181);stop-opacity:1"/></linearGradient>
        <linearGradient id="_Linear11" x1="0" y1="0" x2="1" y2="0" gradientUnits="userSpaceOnUse" gradientTransform="matrix(-4,4.89859e-16,-4.89859e-16,-4,-3695,1081.74)"><stop offset="0" style="stop-color:rgb(240,158,111);stop-opacity:1"/><stop offset="1" style="stop-color:rgb(249,207,181);stop-opacity:1"/></linearGradient>
        <linearGradient id="_Linear12" x1="0" y1="0" x2="1" y2="0" gradientUnits="userSpaceOnUse" gradientTransform="matrix(-3,3.67394e-16,-3.67394e-16,-3,1080.74,3695)"><stop offset="0" style="stop-color:rgb(240,158,111);stop-opacity:1"/><stop offset="1" style="stop-color:rgb(249,207,181);stop-opacity:1"/></linearGradient>
        <linearGradient id="_Linear13" x1="0" y1="0" x2="1" y2="0" gradientUnits="userSpaceOnUse" gradientTransform="matrix(-3,3.67394e-16,-3.67394e-16,-3,1080.74,3644)"><stop offset="0" style="stop-color:rgb(240,158,111);stop-opacity:1"/><stop offset="1" style="stop-color:rgb(249,207,181);stop-opacity:1"/></linearGradient>
        <linearGradient id="_Linear14" x1="0" y1="0" x2="1" y2="0" gradientUnits="userSpaceOnUse" gradientTransform="matrix(-4,4.89859e-16,-4.89859e-16,-4,3643,-1080.74)"><stop offset="0" style="stop-color:rgb(240,158,111);stop-opacity:1"/><stop offset="1" style="stop-color:rgb(249,207,181);stop-opacity:1"/></linearGradient>
        <linearGradient id="_Linear15" x1="0" y1="0" x2="1" y2="0" gradientUnits="userSpaceOnUse" gradientTransform="matrix(-4,4.89859e-16,-4.89859e-16,-4,3643,-1102.74)"><stop offset="0" style="stop-color:rgb(240,158,111);stop-opacity:1"/><stop offset="1" style="stop-color:rgb(249,207,181);stop-opacity:1"/></linearGradient>
        <linearGradient id="_Linear16" x1="0" y1="0" x2="1" y2="0" gradientUnits="userSpaceOnUse" gradientTransform="matrix(-4,4.89859e-16,-4.89859e-16,-4,-3695,-1102.74)"><stop offset="0" style="stop-color:rgb(240,158,111);stop-opacity:1"/><stop offset="1" style="stop-color:rgb(249,207,181);stop-opacity:1"/></linearGradient>
        <linearGradient id="_Linear17" x1="0" y1="0" x2="1" y2="0" gradientUnits="userSpaceOnUse" gradientTransform="matrix(-2.99998,3.67392e-16,-3.67392e-16,-2.99998,1080.74,-3667)"><stop offset="0" style="stop-color:rgb(240,158,111);stop-opacity:1"/><stop offset="1" style="stop-color:rgb(249,207,181);stop-opacity:1"/></linearGradient>
        <linearGradient id="_Linear18" x1="0" y1="0" x2="1" y2="0" gradientUnits="userSpaceOnUse" gradientTransform="matrix(-3.00002,3.67396e-16,-3.67396e-16,-3.00002,-1113.74,3668)"><stop offset="0" style="stop-color:rgb(240,158,111);stop-opacity:1"/><stop offset="1" style="stop-color:rgb(249,207,181);stop-opacity:1"/></linearGradient>
        <linearGradient id="_Linear19" x1="0" y1="0" x2="1" y2="0" gradientUnits="userSpaceOnUse" gradientTransform="matrix(1.29532e-15,21.1542,-21.1542,1.29532e-15,3716.16,683.977)"><stop offset="0" style="stop-color:rgb(102,102,102);stop-opacity:1"/><stop offset="1" style="stop-color:rgb(51,51,51);stop-opacity:1"/></linearGradient>
        <linearGradient id="_Linear20" x1="0" y1="0" x2="1" y2="0" gradientUnits="userSpaceOnUse" gradientTransform="matrix(7.79323e-15,127.273,-127.273,7.79323e-15,3670.1,-1159.65)"><stop offset="0" style="stop-color:rgb(102,102,102);stop-opacity:1"/><stop offset="1" style="stop-color:rgb(51,51,51);stop-opacity:1"/></linearGradient>
    </defs>
</svg>
