<?xml version="1.0" encoding="UTF-8" standalone="no"?>
<!DOCTYPE svg PUBLIC "-//W3C//DTD SVG 1.1//EN" "http://www.w3.org/Graphics/SVG/1.1/DTD/svg11.dtd">
<svg width="100%" height="100%" viewBox="0 0 434 534" version="1.1" xmlns="http://www.w3.org/2000/svg" xmlns:xlink="http://www.w3.org/1999/xlink" xml:space="preserve" xmlns:serif="http://www.serif.com/" style="fill-rule:evenodd;clip-rule:evenodd;stroke-linejoin:round;stroke-miterlimit:2;">
    <g transform="matrix(1,0,0,1,-3578,-3038)">
        <g>
            <g id="g5980" transform="matrix(33.3322,0,0,33.3204,-121.334,-29494.6)">
                <path id="path5982" d="M111.562,976.373C111.104,976.461 110.992,976.657 111,977.123L111,991.625C111,992.149 111.226,992.375 111.75,992.375L123.25,992.375C123.774,992.375 124,992.149 124,991.625L124,982.644C124.006,982.38 123.902,982.115 123.719,981.925L118.448,976.655C118.259,976.471 117.994,976.367 117.73,976.373L111.75,976.373C111.688,976.367 111.625,976.367 111.562,976.373Z" style="fill:url(#_Linear1);fill-rule:nonzero;"/>
                <path id="path5984" d="M120.329,976.377C119.997,976.483 119.885,976.99 120.141,977.228L123.153,980.257C123.431,980.522 123.986,980.295 124,979.91L124,976.881C124,976.617 123.761,976.377 123.498,976.377L120.486,976.377C120.434,976.368 120.381,976.368 120.329,976.377Z" style="fill:url(#_Linear2);fill-rule:nonzero;"/>
            </g>
            <g id="path5986" transform="matrix(4.16667,0,0,4.16667,1595.2,7899.37)">
                <path d="M482,-1160.58L482,-1044.58L573.999,-1044.58L573.999,-1117.45L573.374,-1118.08L531.624,-1160.08L531.124,-1160.58L482,-1160.58Z" style="fill:url(#_Linear3);fill-rule:nonzero;"/>
            </g>
            <g id="path5988" transform="matrix(4.16667,0,0,4.16667,1595.2,7899.37)">
                <path d="M486,-1156.58L528.234,-1156.58L569.997,-1114.58L569.997,-1048.58L486,-1048.58L486,-1156.58Z" style="fill:url(#_Linear4);fill-rule:nonzero;"/>
            </g>
            <g id="rect7041" transform="matrix(4.16667,0,0,4.16667,1595.2,7899.37)">
                <rect x="495" y="-1118.64" width="60" height="50" style="fill:rgb(204,244,198);fill-opacity:0.75;"/>
            </g>
            <g id="rect7043" transform="matrix(4.16667,0,0,4.16667,1595.2,7899.37)">
                <rect x="495" y="-1118.64" width="60" height="11" style="fill:rgb(146,226,133);"/>
            </g>
            <g id="rect7045" transform="matrix(4.16667,0,0,4.16667,1595.2,7899.37)">
                <path d="M495,-1118.64L495,-1066.64L555,-1066.64L555,-1118.64L495,-1118.64ZM497,-1116.64L514,-1116.64L514,-1108.64L497,-1108.64L497,-1116.64ZM516,-1116.64L534,-1116.64L534,-1108.64L516,-1108.64L516,-1116.64ZM536,-1116.64L553,-1116.64L553,-1108.64L536,-1108.64L536,-1116.64ZM497,-1106.64L514,-1106.64L514,-1098.64L497,-1098.64L497,-1106.64ZM516,-1106.64L534,-1106.64L534,-1098.64L516,-1098.64L516,-1106.64ZM536,-1106.64L553,-1106.64L553,-1098.64L536,-1098.64L536,-1106.64ZM497,-1096.64L514,-1096.64L514,-1088.64L497,-1088.64L497,-1096.64ZM516,-1096.64L534,-1096.64L534,-1088.64L516,-1088.64L516,-1096.64ZM536,-1096.64L553,-1096.64L553,-1088.64L536,-1088.64L536,-1096.64ZM497,-1086.64L514,-1086.64L514,-1078.64L497,-1078.64L497,-1086.64ZM516,-1086.64L534,-1086.64L534,-1078.64L516,-1078.64L516,-1086.64ZM536,-1086.64L553,-1086.64L553,-1078.64L536,-1078.64L536,-1086.64ZM497,-1076.64L514,-1076.64L514,-1068.64L497,-1068.64L497,-1076.64ZM516,-1076.64L534,-1076.64L534,-1068.64L516,-1068.64L516,-1076.64ZM536,-1076.64L553,-1076.64L553,-1068.64L536,-1068.64L536,-1076.64Z" style="fill:url(#_Linear5);fill-rule:nonzero;"/>
            </g>
            <g id="rect7127" transform="matrix(4.16667,0,0,4.16667,1595.2,7899.37)">
                <rect x="520" y="-1090.64" width="39" height="28" style="fill:rgb(128,128,128);"/>
            </g>
            <g id="rect7192" transform="matrix(4.16667,0,0,4.16667,1595.2,7899.37)">
                <rect x="522" y="-1088.64" width="35" height="24" style="fill:url(#_Linear6);"/>
            </g>
            <g id="rect7153" transform="matrix(4.16667,0,0,4.16667,1595.2,7899.37)">
                <rect x="522" y="-1088.64" width="35" height="24" style="fill:url(#_Linear7);"/>
            </g>
            <g id="rect7466" transform="matrix(4.16667,0,0,4.16667,1595.2,7899.37)">
                <path d="M523,-1067.6L556,-1067.6C556.554,-1067.6 557,-1067.15 557,-1066.6L557,-1065.64C557,-1065.08 556.554,-1064.64 556,-1064.64L523,-1064.64C522.446,-1064.64 522,-1065.08 522,-1065.64L522,-1066.6C522,-1067.15 522.446,-1067.6 523,-1067.6Z" style="fill:url(#_Radial8);fill-rule:nonzero;"/>
            </g>
            <g id="g7262" transform="matrix(3.69048,0,0,4.16667,1848.41,7895.2)">
                <rect id="rect7256" x="523" y="-1080.64" width="35" height="1" style="fill:rgb(230,230,230);"/>
                <rect id="rect7250" x="523" y="-1085.64" width="35" height="1" style="fill:rgb(230,230,230);"/>
                <rect id="rect7258" x="523" y="-1075.64" width="35" height="1" style="fill:rgb(230,230,230);"/>
                <rect id="rect7260" x="523" y="-1070.64" width="35" height="1" style="fill:rgb(230,230,230);"/>
            </g>
            <g id="rect7069" transform="matrix(4.16667,0,0,4.16667,1595.2,7899.37)">
                <rect x="524" y="-1081.64" width="7" height="16" style="fill:rgb(3,105,163);"/>
            </g>
            <g id="rect7071" transform="matrix(4.16667,0,0,-4.16667,1595.2,7899.37)">
                <rect x="525" y="1066.64" width="5" height="14" style="fill:url(#_Linear9);"/>
            </g>
            <g id="rect7073" transform="matrix(4.16667,0,0,4.16667,1595.2,7899.37)">
                <rect x="532" y="-1086.64" width="7" height="21" style="fill:rgb(163,62,3);"/>
            </g>
            <g id="rect7075" transform="matrix(4.16667,0,0,-4.16667,1595.2,7899.37)">
                <rect x="533" y="1066.64" width="5" height="19" style="fill:url(#_Linear10);"/>
            </g>
            <g id="rect7077" transform="matrix(4.16667,0,0,4.16667,1595.2,7899.37)">
                <rect x="540" y="-1075.64" width="7" height="10" style="fill:rgb(201,156,0);"/>
            </g>
            <g id="rect7079" transform="matrix(4.16667,0,0,-4.16667,1595.2,7899.37)">
                <rect x="541" y="1066.64" width="5" height="8" style="fill:url(#_Linear11);"/>
            </g>
            <g id="rect7244" transform="matrix(4.16667,0,0,4.16667,1595.2,7899.37)">
                <rect x="548" y="-1079.64" width="7" height="14" style="fill:rgb(67,195,48);"/>
            </g>
            <g id="rect7246" transform="matrix(4.16667,0,0,-4.16667,1595.2,7899.37)">
                <rect x="549" y="1066.64" width="5" height="12" style="fill:url(#_Linear12);"/>
            </g>
        </g>
    </g>
    <defs>
        <linearGradient id="_Linear1" x1="0" y1="0" x2="1" y2="0" gradientUnits="userSpaceOnUse" gradientTransform="matrix(9.87899e-16,16.1336,-16.1336,9.87899e-16,121.984,976.333)"><stop offset="0" style="stop-color:rgb(24,163,3);stop-opacity:1"/><stop offset="1" style="stop-color:rgb(16,104,2);stop-opacity:1"/></linearGradient>
        <linearGradient id="_Linear2" x1="0" y1="0" x2="1" y2="0" gradientUnits="userSpaceOnUse" gradientTransform="matrix(9.93774e-16,16.2296,-16.2296,9.93774e-16,109.913,976.3)"><stop offset="0" style="stop-color:rgb(24,163,3);stop-opacity:1"/><stop offset="1" style="stop-color:rgb(16,104,2);stop-opacity:1"/></linearGradient>
        <linearGradient id="_Linear3" x1="0" y1="0" x2="1" y2="0" gradientUnits="userSpaceOnUse" gradientTransform="matrix(0.600659,-107.709,107.709,0.600659,492,-1050.64)"><stop offset="0" style="stop-color:rgb(179,179,179);stop-opacity:1"/><stop offset="1" style="stop-color:rgb(230,230,230);stop-opacity:1"/></linearGradient>
        <linearGradient id="_Linear4" x1="0" y1="0" x2="1" y2="0" gradientUnits="userSpaceOnUse" gradientTransform="matrix(3.95851e-15,-64.6474,64.6474,3.95851e-15,488.25,-1089.93)"><stop offset="0" style="stop-color:white;stop-opacity:0.59"/><stop offset="1" style="stop-color:white;stop-opacity:0.86"/></linearGradient>
        <linearGradient id="_Linear5" x1="0" y1="0" x2="1" y2="0" gradientUnits="userSpaceOnUse" gradientTransform="matrix(7.34788e-15,120,-120,7.34788e-15,517,-1163.64)"><stop offset="0" style="stop-color:rgb(24,163,3);stop-opacity:1"/><stop offset="1" style="stop-color:rgb(16,104,2);stop-opacity:1"/></linearGradient>
        <linearGradient id="_Linear6" x1="0" y1="0" x2="1" y2="0" gradientUnits="userSpaceOnUse" gradientTransform="matrix(1.46958e-15,-24,24,1.46958e-15,522,-1064.64)"><stop offset="0" style="stop-color:rgb(179,179,179);stop-opacity:1"/><stop offset="1" style="stop-color:rgb(230,230,230);stop-opacity:1"/></linearGradient>
        <linearGradient id="_Linear7" x1="0" y1="0" x2="1" y2="0" gradientUnits="userSpaceOnUse" gradientTransform="matrix(1.46958e-15,-24,24,1.46958e-15,522,-1064.64)"><stop offset="0" style="stop-color:white;stop-opacity:0.59"/><stop offset="1" style="stop-color:white;stop-opacity:0.86"/></linearGradient>
        <radialGradient id="_Radial8" cx="0" cy="0" r="1" gradientUnits="userSpaceOnUse" gradientTransform="matrix(0,1.67605,-17.4563,-0.000405795,539.456,-1066.14)"><stop offset="0" style="stop-color:black;stop-opacity:0.25"/><stop offset="1" style="stop-color:black;stop-opacity:0"/></radialGradient>
        <linearGradient id="_Linear9" x1="0" y1="0" x2="1" y2="0" gradientUnits="userSpaceOnUse" gradientTransform="matrix(9.389e-16,15.3334,-15.3334,9.389e-16,526.528,1065.85)"><stop offset="0" style="stop-color:rgb(99,187,238);stop-opacity:1"/><stop offset="1" style="stop-color:rgb(170,220,247);stop-opacity:1"/></linearGradient>
        <linearGradient id="_Linear10" x1="0" y1="0" x2="1" y2="0" gradientUnits="userSpaceOnUse" gradientTransform="matrix(1.27422e-15,20.8096,-20.8096,1.27422e-15,534.528,1065.57)"><stop offset="0" style="stop-color:rgb(240,158,111);stop-opacity:1"/><stop offset="1" style="stop-color:rgb(249,207,181);stop-opacity:1"/></linearGradient>
        <linearGradient id="_Linear11" x1="0" y1="0" x2="1" y2="0" gradientUnits="userSpaceOnUse" gradientTransform="matrix(5.36512e-16,8.76191,-8.76191,5.36512e-16,542.528,1066.19)"><stop offset="0" style="stop-color:rgb(245,206,83);stop-opacity:1"/><stop offset="1" style="stop-color:rgb(253,233,169);stop-opacity:1"/></linearGradient>
        <linearGradient id="_Linear12" x1="0" y1="0" x2="1" y2="0" gradientUnits="userSpaceOnUse" gradientTransform="matrix(8.0477e-16,13.1429,-13.1429,8.0477e-16,550.528,1065.96)"><stop offset="0" style="stop-color:rgb(146,226,133);stop-opacity:1"/><stop offset="1" style="stop-color:rgb(204,244,198);stop-opacity:1"/></linearGradient>
    </defs>
</svg>
