<?xml version="1.0" encoding="UTF-8" standalone="no"?>
<!DOCTYPE svg PUBLIC "-//W3C//DTD SVG 1.1//EN" "http://www.w3.org/Graphics/SVG/1.1/DTD/svg11.dtd">
<svg width="100%" height="100%" viewBox="0 0 434 534" version="1.1" xmlns="http://www.w3.org/2000/svg" xmlns:xlink="http://www.w3.org/1999/xlink" xml:space="preserve" xmlns:serif="http://www.serif.com/" style="fill-rule:evenodd;clip-rule:evenodd;stroke-linejoin:round;stroke-miterlimit:2;">
    <g transform="matrix(1,0,0,1,-1463,-5227)">
        <g>
            <g id="use6712" transform="matrix(4.16667,0,0,4.16667,1675.51,10088.2)">
                <g id="g25513" transform="matrix(7.99974,0,0,7.9969,-938.968,-8974.56)">
                    <path id="path25515" d="M111.562,976.373C111.104,976.461 110.992,976.657 111,977.123L111,991.625C111,992.149 111.226,992.375 111.75,992.375L123.25,992.375C123.774,992.375 124,992.149 124,991.625L124,982.644C124.006,982.38 123.902,982.115 123.719,981.925L118.448,976.655C118.259,976.471 117.994,976.367 117.73,976.373L111.75,976.373C111.688,976.367 111.625,976.367 111.562,976.373Z" style="fill:url(#_Linear1);fill-rule:nonzero;"/>
                    <path id="path25517" d="M120.329,976.377C119.997,976.483 119.885,976.99 120.141,977.228L123.153,980.257C123.431,980.522 123.986,980.295 124,979.91L124,976.881C124,976.617 123.761,976.377 123.498,976.377L120.486,976.377C120.434,976.368 120.381,976.368 120.329,976.377Z" style="fill:url(#_Linear2);fill-rule:nonzero;"/>
                </g>
                <path id="path25519" d="M-45,-1160.58L-45,-1044.58L46.999,-1044.58L46.999,-1117.45L46.374,-1118.08L4.624,-1160.08L4.124,-1160.58L-45,-1160.58Z" style="fill:url(#_Linear3);fill-rule:nonzero;"/>
                <path id="path25521" d="M-41,-1156.58L1.234,-1156.58L42.997,-1114.58L42.997,-1048.58L-41,-1048.58L-41,-1156.58Z" style="fill:url(#_Linear4);fill-rule:nonzero;"/>
            </g>
            <g id="rect24351" transform="matrix(4.16667,0,0,4.16667,-12524.5,10088.2)">
                <rect x="3411" y="-1118.64" width="29" height="26" style="fill:url(#_Linear5);"/>
            </g>
            <g id="rect24355" transform="matrix(4.16667,0,0,4.16667,-12524.5,10088.2)">
                <rect x="3411" y="-1088.64" width="29" height="26" style="fill:url(#_Linear6);"/>
            </g>
            <g id="rect24359" transform="matrix(4.16667,0,0,4.16667,-12524.5,10088.2)">
                <rect x="3376" y="-1088.64" width="29" height="26" style="fill:url(#_Linear7);"/>
            </g>
            <g id="rect24341" transform="matrix(4.16667,0,0,4.16667,-12524.5,10088.2)">
                <rect x="3376" y="-1118.64" width="29" height="26" style="fill:url(#_Linear8);"/>
            </g>
            <g id="g23711" transform="matrix(4.16667,0,0,4.16667,667.178,8863.18)">
                <rect id="rect23713" x="225" y="-824.638" width="14" height="10" style="fill:url(#_Linear9);"/>
                <rect id="rect23715" x="226" y="-823.638" width="12" height="8" style="fill:url(#_Linear10);"/>
                <path id="path23717" d="M233,-817.638L229.5,-822.138L226,-816.638L226,-815.638L238,-815.638L238,-816.638L235.5,-819.638L233,-817.638Z" style="fill:url(#_Linear11);fill-rule:nonzero;"/>
                <g id="path23719" transform="matrix(0,0.461465,-0.746667,0,1059.1,-1027.23)">
                    <path d="M448.772,1099.69C448.772,1102.28 445.376,1104.38 441.188,1104.38L441.188,1099.69L448.772,1099.69Z" style="fill:rgb(201,156,0);fill-opacity:0.5;fill-rule:nonzero;"/>
                </g>
                <g id="path23721" transform="matrix(0,0.395542,-0.64,0,941.8,-998.146)">
                    <path d="M448.772,1099.69C448.772,1102.28 445.376,1104.38 441.188,1104.38L441.188,1099.69L448.772,1099.69Z" style="fill:rgb(233,185,19);fill-opacity:0.5;fill-rule:nonzero;"/>
                </g>
            </g>
            <g id="g23723" transform="matrix(4.16667,0,0,4.16667,646.345,8863.18)">
                <rect id="rect23725" x="215" y="-816.638" width="13" height="2" style="fill:url(#_Linear12);"/>
                <rect id="rect23727" x="215" y="-824.638" width="13" height="2" style="fill:url(#_Linear13);"/>
                <rect id="rect23729" x="215" y="-812.638" width="29" height="2" style="fill:url(#_Linear14);"/>
                <rect id="rect23731" x="215" y="-800.638" width="23" height="2" style="fill:url(#_Linear15);"/>
                <rect id="rect23733" x="215" y="-820.638" width="13" height="2" style="fill:url(#_Linear16);"/>
                <rect id="rect23735" x="215" y="-808.638" width="29" height="2" style="fill:url(#_Linear17);"/>
                <rect id="rect23895" x="215" y="-804.638" width="29" height="2" style="fill:url(#_Linear18);"/>
            </g>
            <g id="g23899" transform="matrix(4.16667,0,0,4.16667,646.345,8988.18)">
                <rect id="rect23901" x="215" y="-816.638" width="13" height="2" style="fill:url(#_Linear19);"/>
                <rect id="rect23903" x="215" y="-824.638" width="13" height="2" style="fill:url(#_Linear20);"/>
                <rect id="rect23905" x="215" y="-812.638" width="29" height="2" style="fill:url(#_Linear21);"/>
                <rect id="rect23907" x="215" y="-800.638" width="23" height="2" style="fill:url(#_Linear22);"/>
                <rect id="rect23909" x="215" y="-820.638" width="13" height="2" style="fill:url(#_Linear23);"/>
                <rect id="rect23911" x="215" y="-808.638" width="29" height="2" style="fill:url(#_Linear24);"/>
                <rect id="rect23913" x="215" y="-804.638" width="29" height="2" style="fill:url(#_Linear25);"/>
            </g>
            <g id="g23931" transform="matrix(4.16667,0,0,4.16667,667.178,8988.18)">
                <rect id="rect23933" x="225" y="-824.638" width="14" height="10" style="fill:url(#_Linear26);"/>
                <rect id="rect23935" x="226" y="-823.638" width="12" height="8" style="fill:url(#_Linear27);"/>
                <path id="path23937" d="M233,-817.638L229.5,-822.138L226,-816.638L226,-815.638L238,-815.638L238,-816.638L235.5,-819.638L233,-817.638Z" style="fill:url(#_Linear28);fill-rule:nonzero;"/>
                <g id="path23939" transform="matrix(0,0.461465,-0.746667,0,1059.1,-1027.23)">
                    <path d="M448.772,1099.69C448.772,1102.28 445.376,1104.38 441.188,1104.38L441.188,1099.69L448.772,1099.69Z" style="fill:rgb(201,156,0);fill-opacity:0.5;fill-rule:nonzero;"/>
                </g>
                <g id="path23941" transform="matrix(0,0.395542,-0.64,0,941.8,-998.146)">
                    <path d="M448.772,1099.69C448.772,1102.28 445.376,1104.38 441.188,1104.38L441.188,1099.69L448.772,1099.69Z" style="fill:rgb(233,185,19);fill-opacity:0.5;fill-rule:nonzero;"/>
                </g>
            </g>
            <g id="g23949" transform="matrix(4.16667,0,0,4.16667,813.011,8863.18)">
                <rect id="rect23951" x="225" y="-824.638" width="14" height="10" style="fill:url(#_Linear29);"/>
                <rect id="rect23953" x="226" y="-823.638" width="12" height="8" style="fill:url(#_Linear30);"/>
                <path id="path23955" d="M233,-817.638L229.5,-822.138L226,-816.638L226,-815.638L238,-815.638L238,-816.638L235.5,-819.638L233,-817.638Z" style="fill:url(#_Linear31);fill-rule:nonzero;"/>
                <g id="path23957" transform="matrix(0,0.461465,-0.746667,0,1059.1,-1027.23)">
                    <path d="M448.772,1099.69C448.772,1102.28 445.376,1104.38 441.188,1104.38L441.188,1099.69L448.772,1099.69Z" style="fill:rgb(201,156,0);fill-opacity:0.5;fill-rule:nonzero;"/>
                </g>
                <g id="path23959" transform="matrix(0,0.395542,-0.64,0,941.8,-998.146)">
                    <path d="M448.772,1099.69C448.772,1102.28 445.376,1104.38 441.188,1104.38L441.188,1099.69L448.772,1099.69Z" style="fill:rgb(233,185,19);fill-opacity:0.5;fill-rule:nonzero;"/>
                </g>
            </g>
            <g id="g23961" transform="matrix(4.16667,0,0,4.16667,792.178,8863.18)">
                <rect id="rect23963" x="215" y="-816.638" width="13" height="2" style="fill:url(#_Linear32);"/>
                <rect id="rect23965" x="215" y="-824.638" width="13" height="2" style="fill:url(#_Linear33);"/>
                <rect id="rect23967" x="215" y="-812.638" width="29" height="2" style="fill:url(#_Linear34);"/>
                <rect id="rect23969" x="215" y="-800.638" width="23" height="2" style="fill:url(#_Linear35);"/>
                <rect id="rect23971" x="215" y="-820.638" width="13" height="2" style="fill:url(#_Linear36);"/>
                <rect id="rect23973" x="215" y="-808.638" width="29" height="2" style="fill:url(#_Linear37);"/>
                <rect id="rect23975" x="215" y="-804.638" width="29" height="2" style="fill:url(#_Linear38);"/>
            </g>
            <g id="g23977" transform="matrix(4.16667,0,0,4.16667,792.178,8988.18)">
                <rect id="rect23979" x="215" y="-816.638" width="13" height="2" style="fill:url(#_Linear39);"/>
                <rect id="rect23981" x="215" y="-824.638" width="13" height="2" style="fill:url(#_Linear40);"/>
                <rect id="rect23983" x="215" y="-812.638" width="29" height="2" style="fill:url(#_Linear41);"/>
                <rect id="rect23985" x="215" y="-800.638" width="23" height="2" style="fill:url(#_Linear42);"/>
                <rect id="rect23987" x="215" y="-820.638" width="13" height="2" style="fill:url(#_Linear43);"/>
                <rect id="rect23989" x="215" y="-808.638" width="29" height="2" style="fill:url(#_Linear44);"/>
                <rect id="rect23991" x="215" y="-804.638" width="29" height="2" style="fill:url(#_Linear45);"/>
            </g>
            <g id="g23993" transform="matrix(4.16667,0,0,4.16667,813.011,8988.18)">
                <rect id="rect23995" x="225" y="-824.638" width="14" height="10" style="fill:url(#_Linear46);"/>
                <rect id="rect23997" x="226" y="-823.638" width="12" height="8" style="fill:url(#_Linear47);"/>
                <path id="path23999" d="M233,-817.638L229.5,-822.138L226,-816.638L226,-815.638L238,-815.638L238,-816.638L235.5,-819.638L233,-817.638Z" style="fill:url(#_Linear48);fill-rule:nonzero;"/>
                <g id="path24001" transform="matrix(0,0.461465,-0.746667,0,1059.1,-1027.23)">
                    <path d="M448.772,1099.69C448.772,1102.28 445.376,1104.38 441.188,1104.38L441.188,1099.69L448.772,1099.69Z" style="fill:rgb(201,156,0);fill-opacity:0.5;fill-rule:nonzero;"/>
                </g>
                <g id="path24003" transform="matrix(0,0.395542,-0.64,0,941.8,-998.146)">
                    <path d="M448.772,1099.69C448.772,1102.28 445.376,1104.38 441.188,1104.38L441.188,1099.69L448.772,1099.69Z" style="fill:rgb(233,185,19);fill-opacity:0.5;fill-rule:nonzero;"/>
                </g>
            </g>
        </g>
    </g>
    <defs>
        <linearGradient id="_Linear1" x1="0" y1="0" x2="1" y2="0" gradientUnits="userSpaceOnUse" gradientTransform="matrix(9.82655e-16,16.048,-16.048,9.82655e-16,121.306,976.377)"><stop offset="0" style="stop-color:rgb(102,102,102);stop-opacity:1"/><stop offset="1" style="stop-color:rgb(51,51,51);stop-opacity:1"/></linearGradient>
        <linearGradient id="_Linear2" x1="0" y1="0" x2="1" y2="0" gradientUnits="userSpaceOnUse" gradientTransform="matrix(9.93774e-16,16.2296,-16.2296,9.93774e-16,109.913,976.3)"><stop offset="0" style="stop-color:rgb(102,102,102);stop-opacity:1"/><stop offset="1" style="stop-color:rgb(51,51,51);stop-opacity:1"/></linearGradient>
        <linearGradient id="_Linear3" x1="0" y1="0" x2="1" y2="0" gradientUnits="userSpaceOnUse" gradientTransform="matrix(0.600659,-107.709,107.709,0.600659,-35,-1050.64)"><stop offset="0" style="stop-color:rgb(179,179,179);stop-opacity:1"/><stop offset="1" style="stop-color:rgb(230,230,230);stop-opacity:1"/></linearGradient>
        <linearGradient id="_Linear4" x1="0" y1="0" x2="1" y2="0" gradientUnits="userSpaceOnUse" gradientTransform="matrix(3.95851e-15,-64.6474,64.6474,3.95851e-15,-38.75,-1089.93)"><stop offset="0" style="stop-color:white;stop-opacity:0.59"/><stop offset="1" style="stop-color:white;stop-opacity:0.86"/></linearGradient>
        <linearGradient id="_Linear5" x1="0" y1="0" x2="1" y2="0" gradientUnits="userSpaceOnUse" gradientTransform="matrix(1.53203e-15,-25.02,25.02,1.53203e-15,3440,-1092.64)"><stop offset="0" style="stop-color:rgb(99,187,238);stop-opacity:0.5"/><stop offset="1" style="stop-color:rgb(170,220,247);stop-opacity:0.5"/></linearGradient>
        <linearGradient id="_Linear6" x1="0" y1="0" x2="1" y2="0" gradientUnits="userSpaceOnUse" gradientTransform="matrix(1.53203e-15,-25.02,25.02,1.53203e-15,3440,-1062.64)"><stop offset="0" style="stop-color:rgb(99,187,238);stop-opacity:0.5"/><stop offset="1" style="stop-color:rgb(170,220,247);stop-opacity:0.5"/></linearGradient>
        <linearGradient id="_Linear7" x1="0" y1="0" x2="1" y2="0" gradientUnits="userSpaceOnUse" gradientTransform="matrix(1.53203e-15,-25.02,25.02,1.53203e-15,3405,-1062.64)"><stop offset="0" style="stop-color:rgb(99,187,238);stop-opacity:0.5"/><stop offset="1" style="stop-color:rgb(170,220,247);stop-opacity:0.5"/></linearGradient>
        <linearGradient id="_Linear8" x1="0" y1="0" x2="1" y2="0" gradientUnits="userSpaceOnUse" gradientTransform="matrix(1.53203e-15,-25.02,25.02,1.53203e-15,3405,-1092.64)"><stop offset="0" style="stop-color:rgb(99,187,238);stop-opacity:0.5"/><stop offset="1" style="stop-color:rgb(170,220,247);stop-opacity:0.5"/></linearGradient>
        <linearGradient id="_Linear9" x1="0" y1="0" x2="1" y2="0" gradientUnits="userSpaceOnUse" gradientTransform="matrix(1.42248e-15,23.2309,-23.2309,1.42248e-15,214.063,-824.586)"><stop offset="0" style="stop-color:rgb(3,105,163);stop-opacity:1"/><stop offset="1" style="stop-color:rgb(2,63,98);stop-opacity:1"/></linearGradient>
        <linearGradient id="_Linear10" x1="0" y1="0" x2="1" y2="0" gradientUnits="userSpaceOnUse" gradientTransform="matrix(2.4493e-16,4.00001,-4.00001,2.4493e-16,238,-823.638)"><stop offset="0" style="stop-color:rgb(99,187,238);stop-opacity:1"/><stop offset="1" style="stop-color:rgb(170,220,247);stop-opacity:1"/></linearGradient>
        <linearGradient id="_Linear11" x1="0" y1="0" x2="1" y2="0" gradientUnits="userSpaceOnUse" gradientTransform="matrix(4.69453e-16,7.66675,-7.66675,4.69453e-16,226,-823.346)"><stop offset="0" style="stop-color:rgb(102,102,102);stop-opacity:1"/><stop offset="1" style="stop-color:rgb(51,51,51);stop-opacity:1"/></linearGradient>
        <linearGradient id="_Linear12" x1="0" y1="0" x2="1" y2="0" gradientUnits="userSpaceOnUse" gradientTransform="matrix(1.34711e-15,22,-22,1.34711e-15,215,-824.638)"><stop offset="0" style="stop-color:rgb(3,105,163);stop-opacity:1"/><stop offset="1" style="stop-color:rgb(2,63,98);stop-opacity:1"/></linearGradient>
        <linearGradient id="_Linear13" x1="0" y1="0" x2="1" y2="0" gradientUnits="userSpaceOnUse" gradientTransform="matrix(1.34711e-15,22,-22,1.34711e-15,215,-824.638)"><stop offset="0" style="stop-color:rgb(3,105,163);stop-opacity:1"/><stop offset="1" style="stop-color:rgb(2,63,98);stop-opacity:1"/></linearGradient>
        <linearGradient id="_Linear14" x1="0" y1="0" x2="1" y2="0" gradientUnits="userSpaceOnUse" gradientTransform="matrix(1.34711e-15,22,-22,1.34711e-15,215,-824.638)"><stop offset="0" style="stop-color:rgb(3,105,163);stop-opacity:1"/><stop offset="1" style="stop-color:rgb(2,63,98);stop-opacity:1"/></linearGradient>
        <linearGradient id="_Linear15" x1="0" y1="0" x2="1" y2="0" gradientUnits="userSpaceOnUse" gradientTransform="matrix(1.34711e-15,22,-22,1.34711e-15,215,-820.638)"><stop offset="0" style="stop-color:rgb(3,105,163);stop-opacity:1"/><stop offset="1" style="stop-color:rgb(2,63,98);stop-opacity:1"/></linearGradient>
        <linearGradient id="_Linear16" x1="0" y1="0" x2="1" y2="0" gradientUnits="userSpaceOnUse" gradientTransform="matrix(1.34711e-15,22,-22,1.34711e-15,215,-824.638)"><stop offset="0" style="stop-color:rgb(3,105,163);stop-opacity:1"/><stop offset="1" style="stop-color:rgb(2,63,98);stop-opacity:1"/></linearGradient>
        <linearGradient id="_Linear17" x1="0" y1="0" x2="1" y2="0" gradientUnits="userSpaceOnUse" gradientTransform="matrix(1.34711e-15,22,-22,1.34711e-15,215,-824.638)"><stop offset="0" style="stop-color:rgb(3,105,163);stop-opacity:1"/><stop offset="1" style="stop-color:rgb(2,63,98);stop-opacity:1"/></linearGradient>
        <linearGradient id="_Linear18" x1="0" y1="0" x2="1" y2="0" gradientUnits="userSpaceOnUse" gradientTransform="matrix(1.34711e-15,22,-22,1.34711e-15,215,-820.638)"><stop offset="0" style="stop-color:rgb(3,105,163);stop-opacity:1"/><stop offset="1" style="stop-color:rgb(2,63,98);stop-opacity:1"/></linearGradient>
        <linearGradient id="_Linear19" x1="0" y1="0" x2="1" y2="0" gradientUnits="userSpaceOnUse" gradientTransform="matrix(1.34711e-15,22,-22,1.34711e-15,215,-824.638)"><stop offset="0" style="stop-color:rgb(3,105,163);stop-opacity:1"/><stop offset="1" style="stop-color:rgb(2,63,98);stop-opacity:1"/></linearGradient>
        <linearGradient id="_Linear20" x1="0" y1="0" x2="1" y2="0" gradientUnits="userSpaceOnUse" gradientTransform="matrix(1.34711e-15,22,-22,1.34711e-15,215,-824.638)"><stop offset="0" style="stop-color:rgb(3,105,163);stop-opacity:1"/><stop offset="1" style="stop-color:rgb(2,63,98);stop-opacity:1"/></linearGradient>
        <linearGradient id="_Linear21" x1="0" y1="0" x2="1" y2="0" gradientUnits="userSpaceOnUse" gradientTransform="matrix(1.34711e-15,22,-22,1.34711e-15,215,-824.638)"><stop offset="0" style="stop-color:rgb(3,105,163);stop-opacity:1"/><stop offset="1" style="stop-color:rgb(2,63,98);stop-opacity:1"/></linearGradient>
        <linearGradient id="_Linear22" x1="0" y1="0" x2="1" y2="0" gradientUnits="userSpaceOnUse" gradientTransform="matrix(1.34711e-15,22,-22,1.34711e-15,215,-820.638)"><stop offset="0" style="stop-color:rgb(3,105,163);stop-opacity:1"/><stop offset="1" style="stop-color:rgb(2,63,98);stop-opacity:1"/></linearGradient>
        <linearGradient id="_Linear23" x1="0" y1="0" x2="1" y2="0" gradientUnits="userSpaceOnUse" gradientTransform="matrix(1.34711e-15,22,-22,1.34711e-15,215,-824.638)"><stop offset="0" style="stop-color:rgb(3,105,163);stop-opacity:1"/><stop offset="1" style="stop-color:rgb(2,63,98);stop-opacity:1"/></linearGradient>
        <linearGradient id="_Linear24" x1="0" y1="0" x2="1" y2="0" gradientUnits="userSpaceOnUse" gradientTransform="matrix(1.34711e-15,22,-22,1.34711e-15,215,-824.638)"><stop offset="0" style="stop-color:rgb(3,105,163);stop-opacity:1"/><stop offset="1" style="stop-color:rgb(2,63,98);stop-opacity:1"/></linearGradient>
        <linearGradient id="_Linear25" x1="0" y1="0" x2="1" y2="0" gradientUnits="userSpaceOnUse" gradientTransform="matrix(1.34711e-15,22,-22,1.34711e-15,215,-820.638)"><stop offset="0" style="stop-color:rgb(3,105,163);stop-opacity:1"/><stop offset="1" style="stop-color:rgb(2,63,98);stop-opacity:1"/></linearGradient>
        <linearGradient id="_Linear26" x1="0" y1="0" x2="1" y2="0" gradientUnits="userSpaceOnUse" gradientTransform="matrix(1.42248e-15,23.2309,-23.2309,1.42248e-15,214.063,-824.586)"><stop offset="0" style="stop-color:rgb(3,105,163);stop-opacity:1"/><stop offset="1" style="stop-color:rgb(2,63,98);stop-opacity:1"/></linearGradient>
        <linearGradient id="_Linear27" x1="0" y1="0" x2="1" y2="0" gradientUnits="userSpaceOnUse" gradientTransform="matrix(2.4493e-16,4.00001,-4.00001,2.4493e-16,238,-823.638)"><stop offset="0" style="stop-color:rgb(99,187,238);stop-opacity:1"/><stop offset="1" style="stop-color:rgb(170,220,247);stop-opacity:1"/></linearGradient>
        <linearGradient id="_Linear28" x1="0" y1="0" x2="1" y2="0" gradientUnits="userSpaceOnUse" gradientTransform="matrix(4.69453e-16,7.66675,-7.66675,4.69453e-16,226,-823.346)"><stop offset="0" style="stop-color:rgb(102,102,102);stop-opacity:1"/><stop offset="1" style="stop-color:rgb(51,51,51);stop-opacity:1"/></linearGradient>
        <linearGradient id="_Linear29" x1="0" y1="0" x2="1" y2="0" gradientUnits="userSpaceOnUse" gradientTransform="matrix(1.42248e-15,23.2309,-23.2309,1.42248e-15,214.063,-824.586)"><stop offset="0" style="stop-color:rgb(3,105,163);stop-opacity:1"/><stop offset="1" style="stop-color:rgb(2,63,98);stop-opacity:1"/></linearGradient>
        <linearGradient id="_Linear30" x1="0" y1="0" x2="1" y2="0" gradientUnits="userSpaceOnUse" gradientTransform="matrix(2.4493e-16,4.00001,-4.00001,2.4493e-16,238,-823.638)"><stop offset="0" style="stop-color:rgb(99,187,238);stop-opacity:1"/><stop offset="1" style="stop-color:rgb(170,220,247);stop-opacity:1"/></linearGradient>
        <linearGradient id="_Linear31" x1="0" y1="0" x2="1" y2="0" gradientUnits="userSpaceOnUse" gradientTransform="matrix(4.69453e-16,7.66675,-7.66675,4.69453e-16,226,-823.346)"><stop offset="0" style="stop-color:rgb(102,102,102);stop-opacity:1"/><stop offset="1" style="stop-color:rgb(51,51,51);stop-opacity:1"/></linearGradient>
        <linearGradient id="_Linear32" x1="0" y1="0" x2="1" y2="0" gradientUnits="userSpaceOnUse" gradientTransform="matrix(1.34711e-15,22,-22,1.34711e-15,215,-824.638)"><stop offset="0" style="stop-color:rgb(3,105,163);stop-opacity:1"/><stop offset="1" style="stop-color:rgb(2,63,98);stop-opacity:1"/></linearGradient>
        <linearGradient id="_Linear33" x1="0" y1="0" x2="1" y2="0" gradientUnits="userSpaceOnUse" gradientTransform="matrix(1.34711e-15,22,-22,1.34711e-15,215,-824.638)"><stop offset="0" style="stop-color:rgb(3,105,163);stop-opacity:1"/><stop offset="1" style="stop-color:rgb(2,63,98);stop-opacity:1"/></linearGradient>
        <linearGradient id="_Linear34" x1="0" y1="0" x2="1" y2="0" gradientUnits="userSpaceOnUse" gradientTransform="matrix(1.34711e-15,22,-22,1.34711e-15,215,-824.638)"><stop offset="0" style="stop-color:rgb(3,105,163);stop-opacity:1"/><stop offset="1" style="stop-color:rgb(2,63,98);stop-opacity:1"/></linearGradient>
        <linearGradient id="_Linear35" x1="0" y1="0" x2="1" y2="0" gradientUnits="userSpaceOnUse" gradientTransform="matrix(1.34711e-15,22,-22,1.34711e-15,215,-820.638)"><stop offset="0" style="stop-color:rgb(3,105,163);stop-opacity:1"/><stop offset="1" style="stop-color:rgb(2,63,98);stop-opacity:1"/></linearGradient>
        <linearGradient id="_Linear36" x1="0" y1="0" x2="1" y2="0" gradientUnits="userSpaceOnUse" gradientTransform="matrix(1.34711e-15,22,-22,1.34711e-15,215,-824.638)"><stop offset="0" style="stop-color:rgb(3,105,163);stop-opacity:1"/><stop offset="1" style="stop-color:rgb(2,63,98);stop-opacity:1"/></linearGradient>
        <linearGradient id="_Linear37" x1="0" y1="0" x2="1" y2="0" gradientUnits="userSpaceOnUse" gradientTransform="matrix(1.34711e-15,22,-22,1.34711e-15,215,-824.638)"><stop offset="0" style="stop-color:rgb(3,105,163);stop-opacity:1"/><stop offset="1" style="stop-color:rgb(2,63,98);stop-opacity:1"/></linearGradient>
        <linearGradient id="_Linear38" x1="0" y1="0" x2="1" y2="0" gradientUnits="userSpaceOnUse" gradientTransform="matrix(1.34711e-15,22,-22,1.34711e-15,215,-820.638)"><stop offset="0" style="stop-color:rgb(3,105,163);stop-opacity:1"/><stop offset="1" style="stop-color:rgb(2,63,98);stop-opacity:1"/></linearGradient>
        <linearGradient id="_Linear39" x1="0" y1="0" x2="1" y2="0" gradientUnits="userSpaceOnUse" gradientTransform="matrix(1.34711e-15,22,-22,1.34711e-15,215,-824.638)"><stop offset="0" style="stop-color:rgb(3,105,163);stop-opacity:1"/><stop offset="1" style="stop-color:rgb(2,63,98);stop-opacity:1"/></linearGradient>
        <linearGradient id="_Linear40" x1="0" y1="0" x2="1" y2="0" gradientUnits="userSpaceOnUse" gradientTransform="matrix(1.34711e-15,22,-22,1.34711e-15,215,-824.638)"><stop offset="0" style="stop-color:rgb(3,105,163);stop-opacity:1"/><stop offset="1" style="stop-color:rgb(2,63,98);stop-opacity:1"/></linearGradient>
        <linearGradient id="_Linear41" x1="0" y1="0" x2="1" y2="0" gradientUnits="userSpaceOnUse" gradientTransform="matrix(1.34711e-15,22,-22,1.34711e-15,215,-824.638)"><stop offset="0" style="stop-color:rgb(3,105,163);stop-opacity:1"/><stop offset="1" style="stop-color:rgb(2,63,98);stop-opacity:1"/></linearGradient>
        <linearGradient id="_Linear42" x1="0" y1="0" x2="1" y2="0" gradientUnits="userSpaceOnUse" gradientTransform="matrix(1.34711e-15,22,-22,1.34711e-15,215,-820.638)"><stop offset="0" style="stop-color:rgb(3,105,163);stop-opacity:1"/><stop offset="1" style="stop-color:rgb(2,63,98);stop-opacity:1"/></linearGradient>
        <linearGradient id="_Linear43" x1="0" y1="0" x2="1" y2="0" gradientUnits="userSpaceOnUse" gradientTransform="matrix(1.34711e-15,22,-22,1.34711e-15,215,-824.638)"><stop offset="0" style="stop-color:rgb(3,105,163);stop-opacity:1"/><stop offset="1" style="stop-color:rgb(2,63,98);stop-opacity:1"/></linearGradient>
        <linearGradient id="_Linear44" x1="0" y1="0" x2="1" y2="0" gradientUnits="userSpaceOnUse" gradientTransform="matrix(1.34711e-15,22,-22,1.34711e-15,215,-824.638)"><stop offset="0" style="stop-color:rgb(3,105,163);stop-opacity:1"/><stop offset="1" style="stop-color:rgb(2,63,98);stop-opacity:1"/></linearGradient>
        <linearGradient id="_Linear45" x1="0" y1="0" x2="1" y2="0" gradientUnits="userSpaceOnUse" gradientTransform="matrix(1.34711e-15,22,-22,1.34711e-15,215,-820.638)"><stop offset="0" style="stop-color:rgb(3,105,163);stop-opacity:1"/><stop offset="1" style="stop-color:rgb(2,63,98);stop-opacity:1"/></linearGradient>
        <linearGradient id="_Linear46" x1="0" y1="0" x2="1" y2="0" gradientUnits="userSpaceOnUse" gradientTransform="matrix(1.42248e-15,23.2309,-23.2309,1.42248e-15,214.063,-824.586)"><stop offset="0" style="stop-color:rgb(3,105,163);stop-opacity:1"/><stop offset="1" style="stop-color:rgb(2,63,98);stop-opacity:1"/></linearGradient>
        <linearGradient id="_Linear47" x1="0" y1="0" x2="1" y2="0" gradientUnits="userSpaceOnUse" gradientTransform="matrix(2.4493e-16,4.00001,-4.00001,2.4493e-16,238,-823.638)"><stop offset="0" style="stop-color:rgb(99,187,238);stop-opacity:1"/><stop offset="1" style="stop-color:rgb(170,220,247);stop-opacity:1"/></linearGradient>
        <linearGradient id="_Linear48" x1="0" y1="0" x2="1" y2="0" gradientUnits="userSpaceOnUse" gradientTransform="matrix(4.69453e-16,7.66675,-7.66675,4.69453e-16,226,-823.346)"><stop offset="0" style="stop-color:rgb(102,102,102);stop-opacity:1"/><stop offset="1" style="stop-color:rgb(51,51,51);stop-opacity:1"/></linearGradient>
    </defs>
</svg>
