<?xml version="1.0" encoding="UTF-8" standalone="no"?>
<!DOCTYPE svg PUBLIC "-//W3C//DTD SVG 1.1//EN" "http://www.w3.org/Graphics/SVG/1.1/DTD/svg11.dtd">
<svg width="100%" height="100%" viewBox="0 0 454 534" version="1.1" xmlns="http://www.w3.org/2000/svg" xmlns:xlink="http://www.w3.org/1999/xlink" xml:space="preserve" xmlns:serif="http://www.serif.com/" style="fill-rule:evenodd;clip-rule:evenodd;stroke-linejoin:round;">
    <g transform="matrix(1,0,0,1,-5833,-5227)">
        <g>
            <g id="use10259" transform="matrix(4.16667,0,0,4.16667,6046.34,10088.2)">
                <g id="g25513" transform="matrix(7.99974,0,0,7.9969,-938.968,-8974.56)">
                    <path id="path25515" d="M111.562,976.373C111.104,976.461 110.992,976.657 111,977.123L111,991.625C111,992.149 111.226,992.375 111.75,992.375L123.25,992.375C123.774,992.375 124,992.149 124,991.625L124,982.644C124.006,982.38 123.902,982.115 123.719,981.925L118.448,976.655C118.259,976.471 117.994,976.367 117.73,976.373L111.75,976.373C111.688,976.367 111.625,976.367 111.562,976.373Z" style="fill:url(#_Linear1);fill-rule:nonzero;"/>
                    <path id="path25517" d="M120.329,976.377C119.997,976.483 119.885,976.99 120.141,977.228L123.153,980.257C123.431,980.522 123.986,980.295 124,979.91L124,976.881C124,976.617 123.761,976.377 123.498,976.377L120.486,976.377C120.434,976.368 120.381,976.368 120.329,976.377Z" style="fill:url(#_Linear2);fill-rule:nonzero;"/>
                </g>
                <path id="path25519" d="M-45,-1160.58L-45,-1044.58L46.999,-1044.58L46.999,-1117.45L46.374,-1118.08L4.624,-1160.08L4.124,-1160.58L-45,-1160.58Z" style="fill:url(#_Linear3);fill-rule:nonzero;"/>
                <path id="path25521" d="M-41,-1156.58L1.234,-1156.58L42.997,-1114.58L42.997,-1048.58L-41,-1048.58L-41,-1156.58Z" style="fill:url(#_Linear4);fill-rule:nonzero;"/>
            </g>
            <g id="use10261" transform="matrix(4.16667,0,0,4.16667,6046.34,10088.2)">
                <g id="g255131" serif:id="g25513" transform="matrix(7.99974,0,0,7.9969,-938.968,-8974.56)">
                    <path id="path255151" serif:id="path25515" d="M111.562,976.373C111.104,976.461 110.992,976.657 111,977.123L111,991.625C111,992.149 111.226,992.375 111.75,992.375L123.25,992.375C123.774,992.375 124,992.149 124,991.625L124,982.644C124.006,982.38 123.902,982.115 123.719,981.925L118.448,976.655C118.259,976.471 117.994,976.367 117.73,976.373L111.75,976.373C111.688,976.367 111.625,976.367 111.562,976.373Z" style="fill:url(#_Linear5);fill-rule:nonzero;"/>
                    <path id="path255171" serif:id="path25517" d="M120.329,976.377C119.997,976.483 119.885,976.99 120.141,977.228L123.153,980.257C123.431,980.522 123.986,980.295 124,979.91L124,976.881C124,976.617 123.761,976.377 123.498,976.377L120.486,976.377C120.434,976.368 120.381,976.368 120.329,976.377Z" style="fill:url(#_Linear6);fill-rule:nonzero;"/>
                </g>
                <path id="path255191" serif:id="path25519" d="M-45,-1160.58L-45,-1044.58L46.999,-1044.58L46.999,-1117.45L46.374,-1118.08L4.624,-1160.08L4.124,-1160.58L-45,-1160.58Z" style="fill:url(#_Linear7);fill-rule:nonzero;"/>
                <path id="path255211" serif:id="path25521" d="M-41,-1156.58L1.234,-1156.58L42.997,-1114.58L42.997,-1048.58L-41,-1048.58L-41,-1156.58Z" style="fill:url(#_Linear8);fill-rule:nonzero;"/>
            </g>
            <g id="path22971" transform="matrix(4.16667,0,0,4.16667,-12524.5,10088.2)">
                <path d="M4428.72,-1072.3L4485.28,-1072.3C4486.24,-1072.3 4487,-1070.85 4487,-1069.04L4487,-1065.91C4487,-1064.1 4486.24,-1062.64 4485.28,-1062.64L4428.72,-1062.64C4427.77,-1062.64 4427,-1064.1 4427,-1065.91L4427,-1069.04C4427,-1070.85 4427.77,-1072.3 4428.72,-1072.3Z" style="fill:url(#_Radial9);fill-rule:nonzero;"/>
            </g>
            <g id="path22973" transform="matrix(4.16667,0,0,4.16667,-12524.5,10088.2)">
                <path d="M4429,-1091.64L4443,-1091.64L4443,-1117.64L4471,-1117.64L4471,-1091.64L4485,-1091.64L4457,-1067.64L4429,-1091.64Z" style="fill:url(#_Linear10);fill-rule:nonzero;stroke:url(#_Linear11);stroke-width:8.33px;"/>
            </g>
            <g id="text22981" transform="matrix(4.16667,0,0,4.16667,-12524.5,10088.2)">
                <g transform="matrix(1,0,0,1,4427.09,-1126.48)">
                    <text x="0px" y="0px" style="font-family:'LucidaGrande', 'Lucida Grande', sans-serif;font-weight:500;font-size:8.19px;fill:url(#_Linear12);">01010101001101010</text>
                </g>
                <g transform="matrix(1,0,0,1,4427.09,-1118.44)">
                    <text x="0px" y="0px" style="font-family:'LucidaGrande', 'Lucida Grande', sans-serif;font-weight:500;font-size:8.19px;fill:url(#_Linear13);">10101010010100110</text>
                </g>
                <g transform="matrix(1,0,0,1,4427.09,-1108.21)">
                    <text x="0px" y="0px" style="font-family:'LucidaGrande', 'Lucida Grande', sans-serif;font-weight:500;font-size:8.19px;fill:url(#_Linear14);">11001010100010101</text>
                </g>
                <g transform="matrix(1,0,0,1,4427.09,-1097.97)">
                    <text x="0px" y="0px" style="font-family:'LucidaGrande', 'Lucida Grande', sans-serif;font-weight:500;font-size:8.19px;fill:url(#_Linear15);">11010010010010010</text>
                </g>
                <g transform="matrix(1,0,0,1,4427.09,-1087.73)">
                    <text x="0px" y="0px" style="font-family:'LucidaGrande', 'Lucida Grande', sans-serif;font-weight:500;font-size:8.19px;fill:url(#_Linear16);">10101010101010100</text>
                </g>
                <g transform="matrix(1,0,0,1,4427.09,-1077.49)">
                    <text x="0px" y="0px" style="font-family:'LucidaGrande', 'Lucida Grande', sans-serif;font-weight:500;font-size:8.19px;fill:url(#_Linear17);">01010100010101101</text>
                </g>
                <g transform="matrix(1,0,0,1,4427.09,-1067.26)">
                    <text x="0px" y="0px" style="font-family:'LucidaGrande', 'Lucida Grande', sans-serif;font-weight:500;font-size:8.19px;fill:url(#_Linear18);">01010001010100101</text>
                </g>
                <g transform="matrix(1,0,0,1,4427.09,-1057.02)">
                    <text x="0px" y="0px" style="font-family:'LucidaGrande', 'Lucida Grande', sans-serif;font-weight:500;font-size:8.19px;fill:url(#_Linear19);">01011001010100101</text>
                </g>
            </g>
            <g id="path23021" transform="matrix(4.16667,0,0,4.16667,-12524.5,10088.2)">
                <path d="M4429,-1091.64L4443,-1091.64L4443,-1117.64L4471,-1117.64L4471,-1091.64L4485,-1091.64L4457,-1067.64L4429,-1091.64Z" style="fill:none;fill-rule:nonzero;stroke:url(#_Linear20);stroke-width:8.33px;"/>
            </g>
        </g>
    </g>
    <defs>
        <linearGradient id="_Linear1" x1="0" y1="0" x2="1" y2="0" gradientUnits="userSpaceOnUse" gradientTransform="matrix(9.82655e-16,16.048,-16.048,9.82655e-16,121.306,976.377)"><stop offset="0" style="stop-color:rgb(102,102,102);stop-opacity:1"/><stop offset="1" style="stop-color:rgb(51,51,51);stop-opacity:1"/></linearGradient>
        <linearGradient id="_Linear2" x1="0" y1="0" x2="1" y2="0" gradientUnits="userSpaceOnUse" gradientTransform="matrix(9.93774e-16,16.2296,-16.2296,9.93774e-16,109.913,976.3)"><stop offset="0" style="stop-color:rgb(102,102,102);stop-opacity:1"/><stop offset="1" style="stop-color:rgb(51,51,51);stop-opacity:1"/></linearGradient>
        <linearGradient id="_Linear3" x1="0" y1="0" x2="1" y2="0" gradientUnits="userSpaceOnUse" gradientTransform="matrix(0.600659,-107.709,107.709,0.600659,-35,-1050.64)"><stop offset="0" style="stop-color:rgb(179,179,179);stop-opacity:1"/><stop offset="1" style="stop-color:rgb(230,230,230);stop-opacity:1"/></linearGradient>
        <linearGradient id="_Linear4" x1="0" y1="0" x2="1" y2="0" gradientUnits="userSpaceOnUse" gradientTransform="matrix(3.95851e-15,-64.6474,64.6474,3.95851e-15,-38.75,-1089.93)"><stop offset="0" style="stop-color:white;stop-opacity:0.59"/><stop offset="1" style="stop-color:white;stop-opacity:0.86"/></linearGradient>
        <linearGradient id="_Linear5" x1="0" y1="0" x2="1" y2="0" gradientUnits="userSpaceOnUse" gradientTransform="matrix(9.82655e-16,16.048,-16.048,9.82655e-16,121.306,976.377)"><stop offset="0" style="stop-color:rgb(102,102,102);stop-opacity:1"/><stop offset="1" style="stop-color:rgb(51,51,51);stop-opacity:1"/></linearGradient>
        <linearGradient id="_Linear6" x1="0" y1="0" x2="1" y2="0" gradientUnits="userSpaceOnUse" gradientTransform="matrix(9.93774e-16,16.2296,-16.2296,9.93774e-16,109.913,976.3)"><stop offset="0" style="stop-color:rgb(102,102,102);stop-opacity:1"/><stop offset="1" style="stop-color:rgb(51,51,51);stop-opacity:1"/></linearGradient>
        <linearGradient id="_Linear7" x1="0" y1="0" x2="1" y2="0" gradientUnits="userSpaceOnUse" gradientTransform="matrix(0.600659,-107.709,107.709,0.600659,-35,-1050.64)"><stop offset="0" style="stop-color:rgb(179,179,179);stop-opacity:1"/><stop offset="1" style="stop-color:rgb(230,230,230);stop-opacity:1"/></linearGradient>
        <linearGradient id="_Linear8" x1="0" y1="0" x2="1" y2="0" gradientUnits="userSpaceOnUse" gradientTransform="matrix(3.95851e-15,-64.6474,64.6474,3.95851e-15,-38.75,-1089.93)"><stop offset="0" style="stop-color:white;stop-opacity:0.59"/><stop offset="1" style="stop-color:white;stop-opacity:0.86"/></linearGradient>
        <radialGradient id="_Radial9" cx="0" cy="0" r="1" gradientUnits="userSpaceOnUse" gradientTransform="matrix(0.0754268,4.90342,-25.0726,0.359595,4456.92,-1067.54)"><stop offset="0" style="stop-color:black;stop-opacity:0.3"/><stop offset="1" style="stop-color:black;stop-opacity:0"/></radialGradient>
        <linearGradient id="_Linear10" x1="0" y1="0" x2="1" y2="0" gradientUnits="userSpaceOnUse" gradientTransform="matrix(3.53866e-15,-57.7906,57.7906,3.53866e-15,4457.5,-1066.69)"><stop offset="0" style="stop-color:rgb(24,163,3);stop-opacity:1"/><stop offset="1" style="stop-color:rgb(146,226,133);stop-opacity:1"/></linearGradient>
        <linearGradient id="_Linear11" x1="0" y1="0" x2="1" y2="0" gradientUnits="userSpaceOnUse" gradientTransform="matrix(3.63611e-15,59.3821,-59.3821,3.63611e-15,4470.19,-1124.48)"><stop offset="0" style="stop-color:rgb(24,163,3);stop-opacity:1"/><stop offset="1" style="stop-color:rgb(16,104,2);stop-opacity:1"/></linearGradient>
        <linearGradient id="_Linear12" x1="0" y1="0" x2="1" y2="0" gradientUnits="userSpaceOnUse" gradientTransform="matrix(2.36671e-15,38.6512,-38.6512,2.36671e-15,4469.83,-1114.1)"><stop offset="0" style="stop-color:rgb(24,163,3);stop-opacity:1"/><stop offset="1" style="stop-color:rgb(16,104,2);stop-opacity:1"/></linearGradient>
        <linearGradient id="_Linear13" x1="0" y1="0" x2="1" y2="0" gradientUnits="userSpaceOnUse" gradientTransform="matrix(2.36671e-15,38.6512,-38.6512,2.36671e-15,4469.83,-1114.1)"><stop offset="0" style="stop-color:rgb(24,163,3);stop-opacity:1"/><stop offset="1" style="stop-color:rgb(16,104,2);stop-opacity:1"/></linearGradient>
        <linearGradient id="_Linear14" x1="0" y1="0" x2="1" y2="0" gradientUnits="userSpaceOnUse" gradientTransform="matrix(2.36671e-15,38.6512,-38.6512,2.36671e-15,4469.83,-1114.1)"><stop offset="0" style="stop-color:rgb(24,163,3);stop-opacity:1"/><stop offset="1" style="stop-color:rgb(16,104,2);stop-opacity:1"/></linearGradient>
        <linearGradient id="_Linear15" x1="0" y1="0" x2="1" y2="0" gradientUnits="userSpaceOnUse" gradientTransform="matrix(2.36671e-15,38.6512,-38.6512,2.36671e-15,4469.83,-1114.1)"><stop offset="0" style="stop-color:rgb(24,163,3);stop-opacity:1"/><stop offset="1" style="stop-color:rgb(16,104,2);stop-opacity:1"/></linearGradient>
        <linearGradient id="_Linear16" x1="0" y1="0" x2="1" y2="0" gradientUnits="userSpaceOnUse" gradientTransform="matrix(2.36671e-15,38.6512,-38.6512,2.36671e-15,4469.83,-1114.1)"><stop offset="0" style="stop-color:rgb(24,163,3);stop-opacity:1"/><stop offset="1" style="stop-color:rgb(16,104,2);stop-opacity:1"/></linearGradient>
        <linearGradient id="_Linear17" x1="0" y1="0" x2="1" y2="0" gradientUnits="userSpaceOnUse" gradientTransform="matrix(2.36671e-15,38.6512,-38.6512,2.36671e-15,4469.83,-1114.1)"><stop offset="0" style="stop-color:rgb(24,163,3);stop-opacity:1"/><stop offset="1" style="stop-color:rgb(16,104,2);stop-opacity:1"/></linearGradient>
        <linearGradient id="_Linear18" x1="0" y1="0" x2="1" y2="0" gradientUnits="userSpaceOnUse" gradientTransform="matrix(2.36671e-15,38.6512,-38.6512,2.36671e-15,4469.83,-1114.1)"><stop offset="0" style="stop-color:rgb(24,163,3);stop-opacity:1"/><stop offset="1" style="stop-color:rgb(16,104,2);stop-opacity:1"/></linearGradient>
        <linearGradient id="_Linear19" x1="0" y1="0" x2="1" y2="0" gradientUnits="userSpaceOnUse" gradientTransform="matrix(2.36671e-15,38.6512,-38.6512,2.36671e-15,4469.83,-1114.1)"><stop offset="0" style="stop-color:rgb(24,163,3);stop-opacity:1"/><stop offset="1" style="stop-color:rgb(16,104,2);stop-opacity:1"/></linearGradient>
        <linearGradient id="_Linear20" x1="0" y1="0" x2="1" y2="0" gradientUnits="userSpaceOnUse" gradientTransform="matrix(3.63611e-15,59.3821,-59.3821,3.63611e-15,4470.19,-1124.48)"><stop offset="0" style="stop-color:rgb(24,163,3);stop-opacity:1"/><stop offset="1" style="stop-color:rgb(16,104,2);stop-opacity:1"/></linearGradient>
    </defs>
</svg>
