<?xml version="1.0" encoding="UTF-8" standalone="no"?>
<!DOCTYPE svg PUBLIC "-//W3C//DTD SVG 1.1//EN" "http://www.w3.org/Graphics/SVG/1.1/DTD/svg11.dtd">
<svg width="100%" height="100%" viewBox="0 0 434 534" version="1.1" xmlns="http://www.w3.org/2000/svg" xmlns:xlink="http://www.w3.org/1999/xlink" xml:space="preserve" xmlns:serif="http://www.serif.com/" style="fill-rule:evenodd;clip-rule:evenodd;stroke-linejoin:round;stroke-miterlimit:2;">
    <g transform="matrix(1,0,0,1,-2491,-3038)">
        <g>
            <g id="g5632" transform="matrix(33.3322,0,0,33.3204,-1208.83,-29494.6)">
                <path id="path5634" d="M111.562,976.373C111.104,976.461 110.992,976.657 111,977.123L111,991.625C111,992.149 111.226,992.375 111.75,992.375L123.25,992.375C123.774,992.375 124,992.149 124,991.625L124,982.644C124.006,982.38 123.902,982.115 123.719,981.925L118.448,976.655C118.259,976.471 117.994,976.367 117.73,976.373L111.75,976.373C111.688,976.367 111.625,976.367 111.562,976.373Z" style="fill:url(#_Linear1);fill-rule:nonzero;"/>
                <path id="path5636" d="M120.329,976.377C119.997,976.483 119.885,976.99 120.141,977.228L123.153,980.257C123.431,980.522 123.986,980.295 124,979.91L124,976.881C124,976.617 123.761,976.377 123.498,976.377L120.486,976.377C120.434,976.368 120.381,976.368 120.329,976.377Z" style="fill:url(#_Linear2);fill-rule:nonzero;"/>
            </g>
            <g id="path5638" transform="matrix(4.16667,0,0,4.16667,1595.2,7899.37)">
                <path d="M221,-1160.58L221,-1044.58L312.999,-1044.58L312.999,-1117.45L312.374,-1118.08L270.624,-1160.08L270.124,-1160.58L221,-1160.58Z" style="fill:url(#_Linear3);fill-rule:nonzero;"/>
            </g>
            <g id="path5640" transform="matrix(4.16667,0,0,4.16667,1595.2,7899.37)">
                <path d="M225,-1156.58L267.234,-1156.58L308.997,-1114.58L308.997,-1048.58L225,-1048.58L225,-1156.58Z" style="fill:url(#_Linear4);fill-rule:nonzero;"/>
            </g>
            <g id="g5655" transform="matrix(4.16667,0,0,4.16667,1028.53,7345.2)">
                <rect id="rect5657" x="370" y="-977.638" width="18" height="4" style="fill:url(#_Linear5);"/>
                <rect id="rect5659" x="370" y="-985.638" width="18" height="4" style="fill:url(#_Linear6);"/>
                <rect id="rect5661" x="370" y="-953.638" width="64" height="4" style="fill:url(#_Linear7);"/>
                <rect id="rect5663" x="370" y="-969.638" width="18" height="4" style="fill:url(#_Linear8);"/>
                <rect id="rect5665" x="370" y="-945.638" width="64" height="4" style="fill:url(#_Linear9);"/>
                <rect id="rect5667" x="370" y="-937.638" width="42" height="4" style="fill:url(#_Linear10);"/>
                <rect id="rect5669" x="370" y="-961.638" width="18" height="4" style="fill:url(#_Linear11);"/>
            </g>
            <g id="g5671" transform="matrix(4.16667,0,0,4.16667,1028.53,7345.2)">
                <rect id="rect5673" x="391.999" y="-985.638" width="41.999" height="28" style="fill:url(#_Linear12);"/>
                <rect id="rect5675" x="395.5" y="-982.138" width="35" height="21" style="fill:url(#_Linear13);"/>
                <path id="path5677" d="M421.167,-976.304C423.5,-975.138 427.555,-971.075 430.499,-968.138L430.499,-964.638L403.666,-964.638C408.333,-970.471 415.333,-973.971 421.167,-976.304Z" style="fill:url(#_Linear14);fill-rule:nonzero;"/>
                <path id="path5679" d="M412.599,-969.523L412.803,-971.171L415.867,-972.482L417.59,-974.092L420.62,-975.32L419.829,-973.33L418.648,-971.261L417.945,-969.012L417.459,-967.716L412.599,-969.523Z" style="fill:rgb(51,51,51);fill-rule:nonzero;"/>
                <path id="path5681" d="M413.583,-971.054C410.091,-973.952 408.333,-976.304 406,-979.804C405.318,-979.598 405.344,-979.677 404.833,-979.804C404.833,-979.804 401.712,-975.167 400.167,-972.804C398.622,-970.442 395.499,-966.971 395.499,-966.971L395.499,-964.638L422.332,-964.638C422.332,-964.638 415.922,-969.268 413.583,-971.054Z" style="fill:url(#_Linear15);fill-rule:nonzero;"/>
                <path id="path5683" d="M430.5,-966.971L428.996,-966.971L422.333,-965.804C422.333,-965.804 415.749,-967.554 414.759,-967.554C413.786,-967.554 410.667,-966.971 410.083,-966.971C409.674,-966.971 407.167,-968.138 406.574,-968.138C405.596,-968.138 404.468,-966.898 401.552,-966.388C401.552,-966.388 400.714,-968.247 400.167,-968.138C396.667,-966.789 395.499,-966.971 395.499,-966.971L395.499,-961.138L430.499,-961.138L430.5,-966.971L430.5,-966.971Z" style="fill:url(#_Linear16);fill-rule:nonzero;"/>
                <path id="path5685" d="M395.5,-965.804L395.499,-961.138L425.833,-961.138L427,-962.304L425.833,-963.471L423.5,-964.638L417.667,-965.804L411.833,-966.388L406.583,-965.804L395.5,-965.804Z" style="fill:url(#_Linear17);fill-rule:nonzero;"/>
                <path id="path5687" d="M397.833,-968.138L399.496,-970.806L401.466,-973.138L402.97,-975.878L404.833,-978.638L403.569,-975.153L402.643,-972.281L402.195,-970.47L401.359,-968.541C401.023,-968.786 400.597,-968.795 400.214,-968.92L399.119,-968.49L397.833,-968.138Z" style="fill:rgb(51,51,51);fill-rule:nonzero;"/>
                <path id="path5689" d="M414.167,-968.138L412.468,-970.712L409.456,-973.997L406.963,-977.274L406,-978.638L407.044,-975.097L408.189,-972.973L409.205,-969.729L409.5,-968.138L410.549,-967.786L412.152,-968.158C412.825,-968.224 413.498,-968.146 414.167,-968.138L414.167,-968.138Z" style="fill:rgb(128,128,128);fill-rule:nonzero;"/>
                <path id="path5691" d="M402.113,-968.086L403.368,-971.254L403.98,-974.524L404.864,-976.543L405.417,-978.638L406.184,-976.482L406.401,-974.424L407.329,-972.59L408.248,-970.483L408.42,-968.995L406.876,-968.562L405.409,-969.134L403.787,-968.081L402.113,-968.081L402.113,-968.086Z" style="fill:rgb(102,102,102);fill-rule:nonzero;"/>
                <path id="path5693" d="M417.15,-967.552L415.107,-969.025L413.802,-970.067L415.069,-968.091L417.15,-967.552Z" style="fill:rgb(128,128,128);fill-rule:nonzero;"/>
                <g id="path5695" transform="matrix(0,0.922931,-1.49333,0,2072.7,-1389.32)">
                    <path d="M448.772,1099.69C448.772,1102.28 445.376,1104.38 441.188,1104.38L441.188,1099.69L448.772,1099.69Z" style="fill:rgb(201,156,0);fill-opacity:0.5;fill-rule:nonzero;"/>
                </g>
                <g id="path5697" transform="matrix(0,0.769109,-1.24444,0,1799,-1321.46)">
                    <path d="M448.772,1099.69C448.772,1102.28 445.376,1104.38 441.188,1104.38L441.188,1099.69L448.772,1099.69Z" style="fill:rgb(233,185,19);fill-opacity:0.5;fill-rule:nonzero;"/>
                </g>
                <path id="path5699" d="M418.863,-968.957L419.584,-971.279L420.469,-973.298L421.021,-975.393L421.788,-973.238L422.771,-971.398L423.48,-969.564L423.379,-967.603L424.353,-966.625L422.348,-966.734L418.301,-967.571L418.863,-968.957L418.863,-968.957Z" style="fill:rgb(102,102,102);fill-rule:nonzero;"/>
                <path id="path5701" d="M414.167,-968.138L412.468,-970.712L409.456,-973.997L406.963,-977.274L406,-978.638L407.044,-975.097L408.189,-972.973L409.205,-969.729L409.5,-968.138L410.549,-967.786L412.152,-968.158C412.825,-968.224 413.498,-968.146 414.167,-968.138L414.167,-968.138Z" style="fill:rgb(128,128,128);fill-rule:nonzero;"/>
                <path id="path5703" d="M430.026,-967.664L428.656,-968.488L426.737,-971.117L423.917,-973.555L421.714,-975.393L422.138,-973.857L424.085,-970.786L424.299,-968.016L425.469,-967.117L428.094,-967.627L430.026,-967.664L430.026,-967.664Z" style="fill:rgb(128,128,128);fill-rule:nonzero;"/>
                <path id="path5705" d="M396.667,-964.638L395.5,-961.138L424.667,-961.138L424.667,-962.304L423.5,-963.471L417.667,-964.638L411.833,-965.221L406,-964.638L399.687,-964.464L396.667,-964.638Z" style="fill:rgb(3,105,163);fill-rule:nonzero;"/>
                <path id="path5707" d="M408.333,-962.304L409.5,-963.471L414.167,-963.471L417.667,-962.304L418.833,-961.138L416.5,-961.138L408.333,-962.304Z" style="fill:rgb(28,153,224);fill-opacity:0.5;fill-rule:nonzero;"/>
            </g>
        </g>
    </g>
    <defs>
        <linearGradient id="_Linear1" x1="0" y1="0" x2="1" y2="0" gradientUnits="userSpaceOnUse" gradientTransform="matrix(9.82184e-16,16.0403,-16.0403,9.82184e-16,121.517,976.377)"><stop offset="0" style="stop-color:rgb(3,105,163);stop-opacity:1"/><stop offset="1" style="stop-color:rgb(2,63,98);stop-opacity:1"/></linearGradient>
        <linearGradient id="_Linear2" x1="0" y1="0" x2="1" y2="0" gradientUnits="userSpaceOnUse" gradientTransform="matrix(9.93774e-16,16.2296,-16.2296,9.93774e-16,109.913,976.3)"><stop offset="0" style="stop-color:rgb(3,105,163);stop-opacity:1"/><stop offset="1" style="stop-color:rgb(2,63,98);stop-opacity:1"/></linearGradient>
        <linearGradient id="_Linear3" x1="0" y1="0" x2="1" y2="0" gradientUnits="userSpaceOnUse" gradientTransform="matrix(0.600659,-107.709,107.709,0.600659,231,-1050.64)"><stop offset="0" style="stop-color:rgb(179,179,179);stop-opacity:1"/><stop offset="1" style="stop-color:rgb(230,230,230);stop-opacity:1"/></linearGradient>
        <linearGradient id="_Linear4" x1="0" y1="0" x2="1" y2="0" gradientUnits="userSpaceOnUse" gradientTransform="matrix(3.95851e-15,-64.6474,64.6474,3.95851e-15,227.25,-1089.93)"><stop offset="0" style="stop-color:white;stop-opacity:0.59"/><stop offset="1" style="stop-color:white;stop-opacity:0.86"/></linearGradient>
        <linearGradient id="_Linear5" x1="0" y1="0" x2="1" y2="0" gradientUnits="userSpaceOnUse" gradientTransform="matrix(3.19174e-15,52.125,-52.125,3.19174e-15,370,-985.763)"><stop offset="0" style="stop-color:rgb(3,105,163);stop-opacity:1"/><stop offset="1" style="stop-color:rgb(2,63,98);stop-opacity:1"/></linearGradient>
        <linearGradient id="_Linear6" x1="0" y1="0" x2="1" y2="0" gradientUnits="userSpaceOnUse" gradientTransform="matrix(3.19174e-15,52.125,-52.125,3.19174e-15,370,-985.763)"><stop offset="0" style="stop-color:rgb(3,105,163);stop-opacity:1"/><stop offset="1" style="stop-color:rgb(2,63,98);stop-opacity:1"/></linearGradient>
        <linearGradient id="_Linear7" x1="0" y1="0" x2="1" y2="0" gradientUnits="userSpaceOnUse" gradientTransform="matrix(3.19174e-15,52.125,-52.125,3.19174e-15,370,-985.763)"><stop offset="0" style="stop-color:rgb(3,105,163);stop-opacity:1"/><stop offset="1" style="stop-color:rgb(2,63,98);stop-opacity:1"/></linearGradient>
        <linearGradient id="_Linear8" x1="0" y1="0" x2="1" y2="0" gradientUnits="userSpaceOnUse" gradientTransform="matrix(3.19174e-15,52.125,-52.125,3.19174e-15,370,-985.763)"><stop offset="0" style="stop-color:rgb(3,105,163);stop-opacity:1"/><stop offset="1" style="stop-color:rgb(2,63,98);stop-opacity:1"/></linearGradient>
        <linearGradient id="_Linear9" x1="0" y1="0" x2="1" y2="0" gradientUnits="userSpaceOnUse" gradientTransform="matrix(3.19174e-15,52.125,-52.125,3.19174e-15,370,-985.763)"><stop offset="0" style="stop-color:rgb(3,105,163);stop-opacity:1"/><stop offset="1" style="stop-color:rgb(2,63,98);stop-opacity:1"/></linearGradient>
        <linearGradient id="_Linear10" x1="0" y1="0" x2="1" y2="0" gradientUnits="userSpaceOnUse" gradientTransform="matrix(3.19174e-15,52.125,-52.125,3.19174e-15,370,-985.763)"><stop offset="0" style="stop-color:rgb(3,105,163);stop-opacity:1"/><stop offset="1" style="stop-color:rgb(2,63,98);stop-opacity:1"/></linearGradient>
        <linearGradient id="_Linear11" x1="0" y1="0" x2="1" y2="0" gradientUnits="userSpaceOnUse" gradientTransform="matrix(3.19174e-15,52.125,-52.125,3.19174e-15,370,-985.763)"><stop offset="0" style="stop-color:rgb(3,105,163);stop-opacity:1"/><stop offset="1" style="stop-color:rgb(2,63,98);stop-opacity:1"/></linearGradient>
        <linearGradient id="_Linear12" x1="0" y1="0" x2="1" y2="0" gradientUnits="userSpaceOnUse" gradientTransform="matrix(3.98292e-15,65.046,-65.046,3.98292e-15,359.188,-985.492)"><stop offset="0" style="stop-color:rgb(3,105,163);stop-opacity:1"/><stop offset="1" style="stop-color:rgb(2,63,98);stop-opacity:1"/></linearGradient>
        <linearGradient id="_Linear13" x1="0" y1="0" x2="1" y2="0" gradientUnits="userSpaceOnUse" gradientTransform="matrix(6.42939e-16,10.5,-10.5,6.42939e-16,430.5,-982.138)"><stop offset="0" style="stop-color:rgb(99,187,238);stop-opacity:1"/><stop offset="1" style="stop-color:rgb(170,220,247);stop-opacity:1"/></linearGradient>
        <linearGradient id="_Linear14" x1="0" y1="0" x2="1" y2="0" gradientUnits="userSpaceOnUse" gradientTransform="matrix(1.143e-15,18.6667,-18.6667,1.143e-15,430.499,-984.471)"><stop offset="0" style="stop-color:rgb(102,102,102);stop-opacity:1"/><stop offset="1" style="stop-color:rgb(51,51,51);stop-opacity:1"/></linearGradient>
        <linearGradient id="_Linear15" x1="0" y1="0" x2="1" y2="0" gradientUnits="userSpaceOnUse" gradientTransform="matrix(1.143e-15,18.6667,-18.6667,1.143e-15,395.499,-983.305)"><stop offset="0" style="stop-color:rgb(102,102,102);stop-opacity:1"/><stop offset="1" style="stop-color:rgb(51,51,51);stop-opacity:1"/></linearGradient>
        <linearGradient id="_Linear16" x1="0" y1="0" x2="1" y2="0" gradientUnits="userSpaceOnUse" gradientTransform="matrix(4.2008e-16,-6.86043,6.86043,4.2008e-16,415.552,-961.174)"><stop offset="0" style="stop-color:rgb(24,163,3);stop-opacity:1"/><stop offset="1" style="stop-color:rgb(16,104,2);stop-opacity:1"/></linearGradient>
        <linearGradient id="_Linear17" x1="0" y1="0" x2="1" y2="0" gradientUnits="userSpaceOnUse" gradientTransform="matrix(1.143e-15,18.6667,-18.6667,1.143e-15,395.499,-978.638)"><stop offset="0" style="stop-color:rgb(3,105,163);stop-opacity:1"/><stop offset="1" style="stop-color:rgb(2,63,98);stop-opacity:1"/></linearGradient>
    </defs>
</svg>
