<?xml version="1.0" encoding="UTF-8" standalone="no"?>
<!DOCTYPE svg PUBLIC "-//W3C//DTD SVG 1.1//EN" "http://www.w3.org/Graphics/SVG/1.1/DTD/svg11.dtd">
<svg width="100%" height="100%" viewBox="0 0 73 100" version="1.1" xmlns="http://www.w3.org/2000/svg" xmlns:xlink="http://www.w3.org/1999/xlink" xml:space="preserve" xmlns:serif="http://www.serif.com/" style="fill-rule:evenodd;clip-rule:evenodd;stroke-linejoin:round;stroke-miterlimit:2;">
    <g transform="matrix(1,0,0,1,-16,0)">
        <path d="M50.211,0C68.508,0 82.977,14.895 82.977,33.617C82.977,51.914 68.508,56.172 50.211,100C31.488,56.172 17.02,51.914 17.02,33.617C17.02,14.894 31.915,0 50.211,0ZM50.211,20.426C57.02,20.426 62.977,25.957 62.977,33.192C62.977,40.001 57.02,45.958 50.211,45.958C42.977,45.958 37.445,40.001 37.445,33.192C37.445,25.958 42.976,20.426 50.211,20.426Z" style="fill:rgb(233,98,96);"/>
    </g>
</svg>
