<?xml version="1.0" encoding="UTF-8"?>
<svg width="500px" height="500px" viewBox="0 0 500 500" version="1.1" xmlns="http://www.w3.org/2000/svg" xmlns:xlink="http://www.w3.org/1999/xlink">
    <!-- Generator: Sketch 58 (84663) - https://sketch.com -->
    <title>Annotations/Email Address</title>
    <desc>Created with Sketch.</desc>
    <g id="Annotations/Email-Address" stroke="none" stroke-width="1" fill="none" fill-rule="evenodd">
        <path d="M352.229184,164.735556 C356.37487,143.988889 344.092262,122.005556 324.378263,114.778889 C307.376759,108.398889 290.26461,105.577778 268.919162,105.577778 C157.624993,105.577778 107.812173,195.272222 107.812173,284.177778 C107.812173,354.427778 156.589672,391.166667 204.795882,391.166667 C236.615909,391.166667 264.77562,381.314444 288.129614,362.282222 C290.070135,364.929778 292.054744,367.230111 293.995491,369.226667 C307.645468,383.376111 326.851968,391.166667 348.087336,391.166667 C419.114636,391.166667 491,329.644444 491,212.066667 C491,89.1722222 399.859023,0 274.276976,0 C123.049003,0 9,117.427778 9,273.111111 C9,404.577778 103.488552,500 233.660108,500 C273.881815,500 307.199501,494.444444 338.4059,482.27 C351.989265,476.974889 356.928773,461.067778 350.137091,448.328889 C343.345408,435.611667 327.40237,430.902778 313.642313,435.763889 C290.11332,444.097222 264.489976,447.916667 233.661802,447.916667 C148.324041,447.916667 61.9024115,387.866667 61.9024115,273.111111 C61.9024115,163.261111 134.849064,52.0833333 274.256088,52.0833333 C372.227699,52.0833333 438.078395,116.361111 438.078395,212.044444 C438.078395,295.444444 392.8071,339.061111 348.089029,339.061111 C344.274149,339.061111 337.173564,338.323278 332.366153,333.353889 C326.985645,327.776667 325.971325,318.597222 326.191485,311.348889 L352.229184,164.735556 Z M274.666123,299.946938 C257.166847,326.895474 234.341435,340 204.97894,340 C178.675086,340 161,317.883465 161,284.927109 C161,226.392519 189.284533,158.02229 268.965264,158 C278.760464,158 286.178286,158.783619 292.187375,159.980892 C296.06139,160.742778 298.570624,164.791606 297.888234,168.62288 L274.666123,299.946938 Z" id="Shape" fill="#F3F26E" fill-rule="nonzero"></path>
    </g>
</svg>