<?xml version="1.0" encoding="UTF-8"?>
<svg width="100px" height="100px" viewBox="0 0 100 100" version="1.1" xmlns="http://www.w3.org/2000/svg" xmlns:xlink="http://www.w3.org/1999/xlink">
    <!-- Generator: sketchtool 63.1 (101010) - https://sketch.com -->
    <title>link/web_ssl</title>
    <desc>Created with sketchtool.</desc>
    <defs>
        <radialGradient cx="50.704%" cy="57.042%" fx="50.704%" fy="57.042%" r="58.1%" id="radialGradient-1">
            <stop stop-color="#92BEFC" offset="0%"></stop>
            <stop stop-color="#7396E7" offset="36.195%"></stop>
            <stop stop-color="#438EC5" offset="62.535%"></stop>
            <stop stop-color="#475BAF" offset="72.607%"></stop>
            <stop stop-color="#020407" offset="100%"></stop>
        </radialGradient>
        <linearGradient x1="25.7654609%" y1="89.8948913%" x2="68.6230319%" y2="7.63730304%" id="linearGradient-2">
            <stop stop-color="#73FA66" offset="0%"></stop>
            <stop stop-color="#3ABC3E" offset="78.9121354%"></stop>
            <stop stop-color="#077D0F" offset="100%"></stop>
        </linearGradient>
        <linearGradient x1="72.887%" y1="-12.6524121%" x2="35.915%" y2="24.9388115%" id="linearGradient-3">
            <stop stop-color="#FFFFFF" offset="0%"></stop>
            <stop stop-color="#FFFFFF" stop-opacity="0" offset="100%"></stop>
        </linearGradient>
        <linearGradient x1="42.241%" y1="14.4159387%" x2="37.791%" y2="53.7436004%" id="linearGradient-4">
            <stop stop-color="#FFFFFF" stop-opacity="0.664745411" offset="0%"></stop>
            <stop stop-color="#FFFFFF" stop-opacity="0" offset="100%"></stop>
        </linearGradient>
        <linearGradient x1="51.163%" y1="171.7%" x2="51.163%" y2="48.507%" id="linearGradient-5">
            <stop stop-color="#FFFFFF" offset="0%"></stop>
            <stop stop-color="#FFFFFF" stop-opacity="0" offset="100%"></stop>
        </linearGradient>
    </defs>
    <g id="Icons" stroke="none" stroke-width="1" fill="none" fill-rule="evenodd">
        <g id="link/web_ssl">
            <g id="annotation/Globe-(Very-Simple)" transform="translate(7.183635, 7.183635)">
                <g id="Group" transform="translate(0.513796, 0.513796)">
                    <path d="M84.5967488,42.298375 C84.5967488,27.1866212 76.5347245,13.2227847 63.4475618,5.66690774 C50.3603991,-1.88896925 34.2363497,-1.88896925 21.149187,5.66690774 C8.06202434,13.2227847 -2.19044573e-13,27.1866212 -2.19044573e-13,42.298375 C-2.19044573e-13,65.6591222 18.9376273,84.5967495 42.2983744,84.5967495 C65.6591215,84.5967495 84.5967488,65.6591222 84.5967488,42.298375 L84.5967488,42.298375 Z" id="Blue-ball" fill="url(#radialGradient-1)" transform="translate(42.298374, 42.298375) scale(-1, 1) translate(-42.298374, -42.298375) "></path>
                    <path d="M51.0106109,69.527333 C45.1903993,68.8180408 45.13312,58.5116595 50.9151454,57.6758269 C54.5491977,59.8170234 57.922311,50.789366 59.7775233,54.3891069 C58.2468936,61.2122977 66.5651183,59.667173 68.1530273,54.4257371 C70.5142067,50.1966242 69.3304348,58.0787582 70.2373568,59.7570833 C72.3503259,65.1916598 65.8077589,72.7840829 60.9835704,68.1886689 C57.5309026,64.9818691 54.3646311,68.3917995 51.0106109,69.527333 Z M63.1856407,73.2802544 C63.76798,75.6379015 64.9549341,75.8510222 65.7313866,73.3635046 C66.5046569,71.0058575 63.5961422,71.4454188 63.1856407,73.2802544 Z M19.1219612,16.1372806 C14.3136837,21.1223058 12.8944303,28.3184577 11.2937926,34.9318578 C12.4839288,39.597202 16.0670662,44.3524564 11.9397756,48.6148694 C9.30174641,54.6155476 0.80850164,50.8393162 2.92465292,44.7387376 C2.81645872,37.5092856 1.97318039,29.8535923 5.29219661,23.2002321 C7.10922275,18.9677892 10.5491619,13.8762038 15.5197308,14.3590552 C16.8307899,14.6654162 17.9954687,15.4046784 19.1219612,16.1372806 L19.1219612,16.1372806 Z M29.4411044,32.9691591 C29.0974287,27.2200195 35.1531217,27.7120481 33.7879655,20.8401588 C33.552484,15.0117663 21.8325063,17.9144048 25.2660811,10.9599603 C28.4609922,5.76228911 28.0791303,3.09740939 36.0791368,1.75341181 C44.0823255,0.0461716396 52.6423961,-1.9516626 66.0998454,8.34791591 C79.2008902,18.6474944 55.2008707,10.4811406 52.3241779,14.2588635 C47.7004669,18.3007629 49.7847963,27.1407666 44.3941794,28.996606 C39.7354644,32.0973768 40.1045975,38.5036552 39.328145,43.5263096 C40.2541601,47.6408575 52.5246553,44.7184057 46.7871805,50.3651769 C40.9542402,51.9007024 37.0433381,45.8048313 32.9860555,42.5884833 C30.9303657,40.574138 29.7815979,38.3517538 29.4411044,32.9691591 L29.4411044,32.9691591 Z M70.1418913,24.2924754 C75.0965493,23.9628044 77.1299638,29.9102025 76.6940049,34.2292256 C73.9955142,38.93786 79.9366487,43.3268133 82.873803,38.4849786 C86.0400745,32.6341508 80.8753925,25.3081285 76.0384753,22.2078891 C73.9000487,20.2265331 69.6900214,20.4962639 70.1418913,24.2924754 Z M21.2476591,73.9762265 C27.47519,73.8763262 33.756818,72.3978017 39.9429806,73.7597758 C42.3550748,77.1530562 49.1617629,79.5273534 49.250864,83.0738142 C44.4489508,86.5903048 38.2086912,83.2869348 33.1903895,81.9249607 C29.2062972,80.6628868 23.5451947,81.5386795 21.4863227,76.8533552 C21.1967441,75.9342724 21.0471816,74.9352694 21.2476591,73.9762265 Z" id="Continents" fill="url(#linearGradient-2)"></path>
                    <g id="Glows" transform="translate(2.265281, 0.000000)">
                        <path d="M1.94706287e-14,4.10289285 C18.5150964,-7.82860863 56.1800509,9.82194684 50.6622828,43.0663536 C43.1790829,53.6085021 29.6394409,-0.294543959 1.94706287e-14,4.10289285 Z" id="Top-left-glow" fill="url(#linearGradient-3)" transform="translate(25.604281, 22.403015) scale(-1, 1) translate(-25.604281, -22.403015) "></path>
                        <path d="M72.042539,20.4342976 C72.042539,9.14874667 57.8927601,0 40.4381233,0 C22.9834865,0 8.8337076,9.14874667 8.8337076,20.4342976 C8.8337076,31.7198486 22.9834865,40.8685953 40.4381233,40.8685953 C57.8927601,40.8685953 72.042539,31.7198486 72.042539,20.4342976 Z" id="Top-glow" fill="url(#linearGradient-4)" transform="translate(40.438123, 20.434298) scale(-1, 1) translate(-40.438123, -20.434298) "></path>
                        <path d="M74.6779317,59.4148093 C74.6779317,45.4985661 59.3562923,34.217222 40.4560922,34.217222 C21.5558922,34.217222 6.23425276,45.4985661 6.23425276,59.4148093 C6.23425276,73.3310525 21.5558922,84.6123966 40.4560922,84.6123966 C59.3562923,84.6123966 74.6779317,73.3310525 74.6779317,59.4148093 Z" id="Bottom-Glow" fill="url(#linearGradient-5)" transform="translate(40.456092, 59.414809) scale(-1, 1) translate(-40.456092, -59.414809) "></path>
                    </g>
                    <path d="M21.499187,6.27312552 C8.6286051,13.7039595 0.7,27.4367071 0.7,42.298375 C0.7,53.7854489 5.35605665,64.1850425 12.8838818,71.7128677 C20.4117069,79.2406928 30.8113005,83.8967495 42.2983744,83.8967495 C53.7854483,83.8967495 64.1850419,79.2406928 71.712867,71.7128677 C79.2406922,64.1850425 83.8967488,53.7854489 83.8967488,42.298375 C83.8967488,27.4367071 75.9681437,13.7039595 63.0975618,6.27312552 C56.6622708,2.55770851 49.4803226,0.7 42.2983744,0.7 C35.1164262,0.7 27.934478,2.55770851 21.499187,6.27312552 Z" id="Black-outline" stroke="#000000" stroke-width="1.4" transform="translate(42.298374, 42.298375) scale(-1, 1) translate(-42.298374, -42.298375) "></path>
                </g>
            </g>
            <g id="annotation/Lock" transform="translate(-5.613701, 1.046622)" fill-rule="nonzero">
                <path d="M19.384739,15.9255723 C19.384739,11.5346587 22.9566874,7.96271035 27.347601,7.96271035 C31.7448143,7.96271035 35.3167627,11.5346587 35.3167627,15.9255723 L35.3167627,24.3357153 L43.2040279,24.3357153 L43.2040279,15.9255723 C43.2040279,7.18784325 36.0916298,0.0754451563 27.347601,0.0754451563 C18.6098719,0.0754451563 11.4974738,7.18784325 11.4974738,15.9255723 L11.4974738,24.3357153 L19.384739,24.3357153 L19.384739,15.9255723 Z" id="Shackle" fill="#797979"></path>
                <path d="M19.3879653,25.3357558 L11.5038633,25.4365111 L10.5021161,25.4365111 C9.83671033,25.4365111 9.23461297,25.7055312 8.79882698,26.1405117 C8.3633598,26.5751739 8.09396074,27.1755685 8.09396074,27.8383667 L8.09396074,51.1347778 C8.09396074,51.8002477 8.36307838,52.4023969 8.79878767,52.8381062 C9.23449696,53.2738155 9.83664616,53.5429331 10.5021161,53.5429331 L44.1993857,53.5429331 C44.8648556,53.5429331 45.4670048,53.2738155 45.9027141,52.8381062 C46.3384234,52.4023969 46.607541,51.8002477 46.607541,51.1347778 L46.607541,27.8446664 C46.607541,27.1802606 46.3391098,26.5800772 45.9042239,26.1459952 C45.4575394,25.7001364 44.8357297,25.4297616 44.1502543,25.4432962 L43.1567586,25.3364011 L35.319989,25.4365515 L19.3879653,25.3357558 Z" id="Lock-Body" stroke="#5C4400" stroke-width="2" fill="#FFBD00"></path>
                <path d="M30.951048,37.2564669 C30.951048,35.2720511 29.3383165,33.6593196 27.3539007,33.6593196 C25.3631852,33.6593196 23.7567534,35.2720511 23.7567534,37.2564669 C23.7567534,38.7684027 24.6828141,40.0535481 25.9994582,40.5890254 L25.9238614,40.929211 L24.7647106,45.8808008 L29.9493906,45.8808008 L28.7902398,40.929211 L28.714643,40.5890254 C30.0186876,40.0472484 30.951048,38.762103 30.951048,37.2564669 Z" id="Keyhole" fill="#2F2F2F"></path>
            </g>
        </g>
    </g>
</svg>