<?xml version="1.0" encoding="UTF-8"?>
<svg width="100px" height="100px" viewBox="0 0 100 100" version="1.1" xmlns="http://www.w3.org/2000/svg" xmlns:xlink="http://www.w3.org/1999/xlink">
    <!-- Generator: sketchtool 63.1 (101010) - https://sketch.com -->
    <title>app/app_Adobe_DreamWeaver</title>
    <desc>Created with sketchtool.</desc>
    <g id="Icons" stroke="none" stroke-width="1" fill="none" fill-rule="evenodd">
        <g id="app/app_Adobe_DreamWeaver" fill-rule="nonzero">
            <g id="dreamweaver">
                <path d="M78.5076923,100 L21.4923077,100 C9.62115385,100 0,90.3788462 0,78.5076923 L0,21.4923077 C0,9.62115385 9.62115385,0 21.4923077,0 L78.5096154,0 C90.3788462,0 100,9.62115385 100,21.4923077 L100,78.5096154 C100,90.3788462 90.3788462,100 78.5076923,100 Z" id="Path" fill="#255C26"></path>
                <g id="Group" transform="translate(7.692308, 20.230769)" fill="#25EB00">
                    <path d="M16.3865385,54.7692308 L0.384615385,54.7692308 L0.384615385,0.846153846 L14.8480769,0.846153846 C20.6423077,0.846153846 25.0653846,2.43653846 28.1153846,5.61538462 C31.1653846,8.79423077 32.6923077,13.0269231 32.6923077,18.3076923 L32.6923077,39.3846154 C32.6923077,49.6423077 27.2576923,54.7692308 16.3865385,54.7692308 Z M27.1538462,40.1538462 L27.1538462,17.5384615 C27.1538462,13.6923077 26.0384615,10.8346154 23.8076923,8.96153846 C21.5788462,7.09038462 18.8480769,6.15384615 15.6153846,6.15384615 L5.92307692,6.15384615 L5.92307692,49.7692308 L15.1538462,49.7692308 C20.8461538,49.7692308 24.4884615,48.2557692 26.0788462,45.2307692 C26.7961538,43.8980769 27.1538462,42.2057692 27.1538462,40.1538462 Z" id="Shape"></path>
                    <polygon id="Path" points="74.4634615 54.7692308 67.8480769 54.7692308 60.7711538 26.7692308 53.6153846 54.7692308 47 54.7692308 35 16.2307692 40.9230769 16.2307692 50.2307692 47.1538462 58.1538462 16.2307692 63.6153846 16.2307692 71.5384615 47.1538462 80.6153846 16.2307692 86.5384615 16.2307692"></polygon>
                </g>
            </g>
        </g>
    </g>
</svg>