<?xml version="1.0" encoding="UTF-8"?>
<svg width="100px" height="100px" viewBox="0 0 100 100" version="1.1" xmlns="http://www.w3.org/2000/svg" xmlns:xlink="http://www.w3.org/1999/xlink">
    <!-- Generator: sketchtool 63.1 (101010) - https://sketch.com -->
    <title>app/app_Adobe_Illustrator</title>
    <desc>Created with sketchtool.</desc>
    <g id="Icons" stroke="none" stroke-width="1" fill="none" fill-rule="evenodd">
        <g id="app/app_Adobe_Illustrator" fill-rule="nonzero">
            <g id="file_illustrator">
                <path d="M78.5076923,100 L21.4923077,100 C9.62115385,100 0,90.3788462 0,78.5076923 L0,21.4923077 C0,9.62115385 9.62115385,0 21.4923077,0 L78.5096154,0 C90.3788462,0 100,9.62115385 100,21.4923077 L100,78.5096154 C100,90.3788462 90.3788462,100 78.5076923,100 Z" id="Path" fill="#6D4C13"></path>
                <g id="Group" transform="translate(20.230769, 20.230769)" fill="#FFBD2E">
                    <path d="M38.7692308,54.7692308 L32.5384615,54.7692308 L27.2307692,37.3846154 L11.2307692,37.3846154 L6.15384615,54.7692308 L0.153846154,54.7692308 L16,0.923076923 L22.3846154,0.923076923 L38.7692308,54.7692308 Z M25.8461538,31.6923077 L19.1538462,9.84615385 L12.6923077,31.6923077 L25.8461538,31.6923077 Z" id="Shape"></path>
                    <path d="M51.8442308,3.30769231 C51.8442308,4.17884615 51.5365385,4.92307692 50.9211538,5.53846154 C50.3057692,6.15192308 49.575,6.45961538 48.7288462,6.45961538 C47.8826923,6.45961538 47.1384615,6.14038462 46.4980769,5.49807692 C45.8557692,4.85769231 45.5365385,4.12692308 45.5365385,3.30576923 C45.5365385,2.48461538 45.8557692,1.75384615 46.4980769,1.11153846 C47.1384615,0.471153846 47.8826923,0.15 48.7288462,0.15 C49.575,0.15 50.3057692,0.457692308 50.9211538,1.07307692 C51.5384615,1.69230769 51.8442308,2.43653846 51.8442308,3.30769231 Z M51.3846154,54.7692308 L45.8461538,54.7692308 L45.8461538,16.2307692 L51.3846154,16.2307692 L51.3846154,54.7692308 Z" id="Shape"></path>
                </g>
            </g>
        </g>
    </g>
</svg>