<?xml version="1.0" encoding="UTF-8"?>
<svg width="100px" height="100px" viewBox="0 0 100 100" version="1.1" xmlns="http://www.w3.org/2000/svg" xmlns:xlink="http://www.w3.org/1999/xlink">
    <!-- Generator: sketchtool 63.1 (101010) - https://sketch.com -->
    <title>app/app_Adobe_PhotoShop</title>
    <desc>Created with sketchtool.</desc>
    <g id="Icons" stroke="none" stroke-width="1" fill="none" fill-rule="evenodd">
        <g id="app/app_Adobe_PhotoShop" fill-rule="nonzero">
            <g id="file_photoshop">
                <path d="M78.5076923,100 L21.4923077,100 C9.62115385,100 0,90.3788462 0,78.5076923 L0,21.4923077 C0,9.62115385 9.62115385,0 21.4923077,0 L78.5096154,0 C90.3788462,0 100,9.62115385 100,21.4923077 L100,78.5096154 C100,90.3788462 90.3788462,100 78.5076923,100 Z" id="Path" fill="#393687"></path>
                <g id="Group" transform="translate(17.307692, 21.153846)" fill="#89D3FF">
                    <path d="M6.07692308,53.8461538 L0.538461538,53.8461538 L0.538461538,0 L19.0769231,0 C24.1019231,0 27.8326923,1.56346154 30.2692308,4.69230769 C32.7038462,7.81923077 33.9230769,11.9230769 33.9230769,16.9980769 C33.9230769,18.7942308 33.8711538,20.3442308 33.7692308,21.6519231 C33.6653846,22.9615385 33.3461538,24.6019231 32.8076923,26.5769231 C32.2692308,28.55 31.5384615,30.1653846 30.6153846,31.4230769 C29.6923077,32.6807692 28.2826923,33.7826923 26.3846154,34.7307692 C24.4865385,35.6807692 22.2307692,36.1538462 19.6153846,36.1538462 L6.07692308,36.1538462 L6.07692308,53.8461538 Z M6.07692308,30.7692308 L18.9230769,30.7692308 C20.7692308,30.7692308 22.3326923,30.4096154 23.6153846,29.6923077 C24.8961538,28.9730769 25.8326923,28.2057692 26.4230769,27.3846154 C27.0115385,26.5634615 27.4730769,25.3846154 27.8076923,23.8461538 C28.1403846,22.3057692 28.3211538,21.1538462 28.3461538,20.3826923 C28.3711538,19.6153846 28.3846154,18.5115385 28.3846154,17.075 C28.3846154,9.28076923 25.1269231,5.38269231 18.6153846,5.38269231 L6.07692308,5.38269231 L6.07692308,30.7692308 Z" id="Shape"></path>
                    <path d="M39.3846154,44.0769231 L44.7692308,43.8461538 C44.9730769,45.7442308 45.9230769,47.2192308 47.6153846,48.2692308 C49.3076923,49.3211538 51.2557692,49.8461538 53.4615385,49.8461538 C55.6673077,49.8461538 57.5769231,49.3461538 59.1923077,48.3461538 C60.8076923,47.3461538 61.6153846,45.9115385 61.6153846,44.0403846 C61.6153846,42.1692308 60.9230769,40.6807692 59.5384615,39.5788462 C58.1538462,38.4769231 56.4615385,37.6057692 54.4615385,36.9634615 C52.4615385,36.3230769 50.45,35.6442308 48.4230769,34.925 C46.3961538,34.2076923 44.6153846,33.0788462 43.0769231,31.5403846 C41.1788462,29.7442308 40.2307692,27.5538462 40.2307692,24.9634615 C40.2307692,22.3730769 41.2692308,19.9615385 43.3461538,17.7307692 C45.4230769,15.5 48.7942308,14.3865385 53.4615385,14.3865385 C55.1038462,14.3865385 56.6403846,14.5788462 58.0769231,14.9634615 C59.5115385,15.3480769 60.5384615,15.7211538 61.1538462,16.0788462 L62.0769231,16.6153846 L60.3076923,21.4634615 C58.6653846,20.1826923 56.5115385,19.5403846 53.8461538,19.5403846 C51.1788462,19.5403846 49.1923077,20.0403846 47.8846154,21.0403846 C46.5769231,22.0403846 45.9230769,23.3096154 45.9230769,24.8461538 C45.9230769,26.5384615 46.7423077,27.8730769 48.3846154,28.8461538 C50.025,29.8211538 51.8711538,30.6423077 53.9230769,31.3076923 C55.9730769,31.975 58.0115385,32.7173077 60.0384615,33.5384615 C62.0634615,34.3596154 63.7807692,35.6423077 65.1923077,37.3846154 C66.6038462,39.1269231 67.3076923,41.4346154 67.3076923,44.3076923 C67.3076923,47.1807692 66.1538462,49.6807692 63.8461538,51.8076923 C61.5384615,53.9346154 58.1653846,55 53.7307692,55 C49.2942308,55 45.8192308,53.9480769 43.3076923,51.8461538 C40.7942308,49.7442308 39.4865385,47.1538462 39.3846154,44.0769231 Z" id="Path"></path>
                </g>
            </g>
        </g>
    </g>
</svg>