<?xml version="1.0" encoding="UTF-8"?>
<svg width="100px" height="100px" viewBox="0 0 100 100" version="1.1" xmlns="http://www.w3.org/2000/svg" xmlns:xlink="http://www.w3.org/1999/xlink">
    <!-- Generator: sketchtool 63.1 (101010) - https://sketch.com -->
    <title>app/app_Adobe_Bridge</title>
    <desc>Created with sketchtool.</desc>
    <g id="Icons" stroke="none" stroke-width="1" fill="none" fill-rule="evenodd">
        <g id="app/app_Adobe_Bridge" fill-rule="nonzero">
            <g id="file_bridge">
                <path d="M78.5076923,100 L21.4923077,100 C9.62115385,100 0,90.3788462 0,78.5076923 L0,21.4923077 C0,9.62115385 9.62115385,0 21.4923077,0 L78.5096154,0 C90.3788462,0 100,9.62115385 100,21.4923077 L100,78.5096154 C100,90.3788462 90.3788462,100 78.5076923,100 Z" id="Path" fill="#69461E"></path>
                <g id="Group" transform="translate(23.076923, 21.153846)" fill="#FBC500">
                    <path d="M17.6923077,53.8461538 L0.230769231,53.8461538 L0.230769231,0 L16.8461538,0 C21.0519231,0 24.4230769,1.10384615 26.9615385,3.30769231 C29.5,5.51346154 30.7692308,8.89807692 30.7692308,13.4615385 C30.7692308,18.0269231 29.0769231,21.4615385 25.6923077,23.7692308 C25.6403846,23.8192308 25.6153846,23.8730769 25.6153846,23.9230769 L25.6153846,24 C27.8711538,25.025 29.7557692,26.6807692 31.2692308,28.9596154 C32.7826923,31.2442308 33.5384615,34.2057692 33.5384615,37.8442308 C33.5384615,41.0769231 32.8461538,43.9980769 31.4615385,46.6153846 C29,51.4365385 24.4096154,53.8461538 17.6923077,53.8461538 Z M5.76923077,22.0769231 L15.6923077,22.0769231 C21.6923077,22.0769231 24.6923077,19.2557692 24.6923077,13.6153846 C24.6923077,8.12692308 21.6403846,5.38461538 15.5384615,5.38461538 L5.76923077,5.38461538 L5.76923077,22.0769231 Z M5.76923077,48.6923077 L16.4615385,48.6923077 C19.8961538,48.6923077 22.5769231,47.8980769 24.5,46.3076923 C26.4230769,44.7192308 27.3846154,42.025 27.3846154,38.2307692 C27.3846154,34.4365385 26.4230769,31.6942308 24.5,30 C22.5769231,28.3076923 20.2557692,27.4634615 17.5384615,27.4634615 L5.76923077,27.4634615 L5.76923077,48.6923077 Z" id="Shape"></path>
                    <path d="M46.4615385,53.8461538 L40.9230769,53.8461538 L40.9230769,15.3076923 L46.3076923,15.3076923 L46.3076923,17.3076923 C48.6153846,15.6153846 51.5384615,14.7692308 55.0769231,14.7692308 C56.8192308,14.7692308 58.7423077,14.975 60.8461538,15.3846154 L59.4615385,20.6153846 C57.6653846,20.0519231 55.8096154,19.7711538 53.8865385,19.7711538 C51.9634615,19.7711538 50.2423077,20.2711538 48.7307692,21.2692308 C47.2173077,22.2711538 46.4615385,23.6173077 46.4615385,25.3096154 L46.4615385,53.8461538 Z" id="Path"></path>
                </g>
            </g>
        </g>
    </g>
</svg>