<?xml version="1.0" encoding="UTF-8"?>
<svg width="99px" height="99px" viewBox="0 0 99 99" version="1.1" xmlns="http://www.w3.org/2000/svg" xmlns:xlink="http://www.w3.org/1999/xlink">
    <!-- Generator: sketchtool 63.1 (101010) - https://sketch.com -->
    <title>cloud/cloud_Azure</title>
    <desc>Created with sketchtool.</desc>
    <g id="Icons" stroke="none" stroke-width="1" fill="none" fill-rule="evenodd">
        <g id="cloud/cloud_Azure">
            <g id="Group-2" transform="translate(0.900000, 15.300000)">
                <path d="M73.8,59.4 L51.9604364,21.1836956 L43.4395636,38.369757 L58.4404364,55.7813298 L30.6,58.9476662 L73.8,59.4 Z M30.7204364,30.7941495 L16.2,55.3303071 L28.5604364,54.0860614 L50.2795636,14.4 L30.7204364,30.7941495 Z" id="Shape" fill="#FFFFFF" fill-rule="nonzero"></path>
                <g id="Group">
                    <g id="Cloud" fill="#035BDA">
                        <rect id="Rectangle" x="17.55" y="26.2728477" width="59.85" height="35.3324503"></rect>
                        <polygon id="Path" fill-rule="nonzero" points="26.5671975 33.9735099 23.85 46.6569536 29.25 46.6569536 26.6286169 33.9735099"></polygon>
                        <path d="M0,48.0640396 L0,49.9127633 C0,59.1036403 8.84447298,68.4 19.7474668,68.4 L77.9025332,68.4 C88.805527,68.4 97.65,59.1008644 97.65,49.9127633 L97.65,48.0640396 C97.65,39.5199383 89.9941807,28.7912341 80.1513375,27.8474413 C79.9313995,20.2082708 74.3637555,14.0930482 67.516023,14.0930482 C64.8569973,14.0930482 62.3907263,15.0201859 60.3544464,16.5913234 C56.4499291,6.82029138 47.7339593,0 37.5797431,0 C23.7928432,0 12.6180159,12.5496693 12.6180159,28.0417516 C12.6180159,28.3193377 12.6476705,28.5830445 12.6550841,28.8550789 C5.25874225,31.2617507 0,40.988369 0,48.0640396 Z M31.3819398,56.5442961 L29.9684057,50.2292115 L23.2541187,50.2292115 L21.7738618,56.5442961 L17.9508946,56.5442961 L24.4724269,30.775975 L29.1627901,30.775975 L35.2024358,56.5442961 L31.3819398,56.5442961 Z M53.6525155,56.5442961 L49.4119132,56.5442961 L46.4563419,37.1299217 L46.3920903,37.1299217 L43.4686448,56.5442961 L39.2280425,56.5442961 L34.7922143,30.775975 L38.4891497,30.775975 L41.5065013,50.8038148 L41.5732241,50.8038148 L44.5905757,30.775975 L48.4481399,30.775975 L51.5322143,50.9120734 L51.5964659,50.9120734 L54.584163,30.775975 L58.2143756,30.775975 L53.6525155,56.5442961 L53.6525155,56.5442961 Z M67.0786182,57.046727 C61.3923561,57.046727 60.1073251,52.7913315 60.1073251,49.1799359 L60.1073251,48.5664705 L63.7696634,48.5664705 L63.7696634,49.2160221 C63.7696634,52.3555213 64.9904429,53.943314 67.5283791,53.943314 C69.8414349,53.943314 70.9954916,52.100142 70.9954916,50.1847977 C70.9954916,47.4783329 69.7771833,46.2874883 67.7211337,45.6046264 L65.2128521,44.6275232 C61.8693003,43.1840753 60.4261116,41.2381965 60.4261116,37.5574043 C60.4261116,32.8634228 63.2531798,30.2652165 67.5580337,30.2652165 C73.4370505,30.2652165 74.0474402,34.3790431 74.0474402,37.0466458 L74.0474402,37.6268009 L70.3851019,37.6268009 L70.3851019,37.0855079 C70.3851019,34.7371292 69.4534544,33.3658537 67.1725244,33.3658537 C65.5983614,33.3658537 64.08845,34.3429569 64.08845,37.0855079 C64.08845,39.286766 65.084349,40.4026622 67.5283791,41.449162 L69.9995926,42.4623514 C73.2442958,43.7586786 74.6603027,45.7489712 74.6603027,49.2826427 C74.6627724,54.7760724 71.7047298,57.046727 67.0786182,57.046727 L67.0786182,57.046727 Z" id="Shape" fill-rule="nonzero"></path>
                    </g>
                    <path d="M73.8,59.4 L51.9604364,21.1836956 L43.4395636,38.369757 L58.4404364,55.7813298 L30.6,58.9476662 L73.8,59.4 Z M30.7204364,30.7941495 L16.2,55.3303071 L28.5604364,54.0860614 L50.2795636,14.4 L30.7204364,30.7941495 Z" id="Shape-Copy" fill="#FFFFFF" fill-rule="nonzero"></path>
                </g>
            </g>
        </g>
    </g>
</svg>