<?xml version="1.0" encoding="UTF-8"?>
<svg width="99px" height="99px" viewBox="0 0 99 99" version="1.1" xmlns="http://www.w3.org/2000/svg" xmlns:xlink="http://www.w3.org/1999/xlink">
    <!-- Generator: sketchtool 63.1 (101010) - https://sketch.com -->
    <title>cloud/cloud_AWS</title>
    <desc>Created with sketchtool.</desc>
    <g id="Icons" stroke="none" stroke-width="1" fill="none" fill-rule="evenodd">
        <g id="cloud/cloud_AWS" fill-rule="nonzero">
            <g id="AWS_Simple_Icons_AWS_Cloud" transform="translate(0.900000, 15.300000)">
                <polygon id="Path" fill="#F7981F" points="26.5671975 34.2 23.85 46.8 29.25 46.8 26.6286169 34.2"></polygon>
                <path d="M0,48.0640396 L0,49.9127633 C0,59.1036403 8.84447298,68.4 19.7474668,68.4 L77.9025332,68.4 C88.805527,68.4 97.65,59.1008644 97.65,49.9127633 L97.65,48.0640396 C97.65,39.5199383 89.9941807,28.7912341 80.1513375,27.8474413 C79.9313995,20.2082708 74.3637555,14.0930482 67.516023,14.0930482 C64.8569973,14.0930482 62.3907263,15.0201859 60.3544464,16.5913234 C56.4499291,6.82029138 47.7339593,0 37.5797431,0 C23.7928432,0 12.6180159,12.5496693 12.6180159,28.0417516 C12.6180159,28.3193377 12.6476705,28.5830445 12.6550841,28.8550789 C5.25874225,31.2617507 0,40.988369 0,48.0640396 Z M31.3819398,56.5442961 L29.9684057,50.2292115 L23.2541187,50.2292115 L21.7738618,56.5442961 L17.9508946,56.5442961 L24.4724269,30.775975 L29.1627901,30.775975 L35.2024358,56.5442961 L31.3819398,56.5442961 Z M53.6525155,56.5442961 L49.4119132,56.5442961 L46.4563419,37.1299217 L46.3920903,37.1299217 L43.4686448,56.5442961 L39.2280425,56.5442961 L34.7922143,30.775975 L38.4891497,30.775975 L41.5065013,50.8038148 L41.5732241,50.8038148 L44.5905757,30.775975 L48.4481399,30.775975 L51.5322143,50.9120734 L51.5964659,50.9120734 L54.584163,30.775975 L58.2143756,30.775975 L53.6525155,56.5442961 L53.6525155,56.5442961 Z M67.0786182,57.046727 C61.3923561,57.046727 60.1073251,52.7913315 60.1073251,49.1799359 L60.1073251,48.5664705 L63.7696634,48.5664705 L63.7696634,49.2160221 C63.7696634,52.3555213 64.9904429,53.943314 67.5283791,53.943314 C69.8414349,53.943314 70.9954916,52.100142 70.9954916,50.1847977 C70.9954916,47.4783329 69.7771833,46.2874883 67.7211337,45.6046264 L65.2128521,44.6275232 C61.8693003,43.1840753 60.4261116,41.2381965 60.4261116,37.5574043 C60.4261116,32.8634228 63.2531798,30.2652165 67.5580337,30.2652165 C73.4370505,30.2652165 74.0474402,34.3790431 74.0474402,37.0466458 L74.0474402,37.6268009 L70.3851019,37.6268009 L70.3851019,37.0855079 C70.3851019,34.7371292 69.4534544,33.3658537 67.1725244,33.3658537 C65.5983614,33.3658537 64.08845,34.3429569 64.08845,37.0855079 C64.08845,39.286766 65.084349,40.4026622 67.5283791,41.449162 L69.9995926,42.4623514 C73.2442958,43.7586786 74.6603027,45.7489712 74.6603027,49.2826427 C74.6627724,54.7760724 71.7047298,57.046727 67.0786182,57.046727 L67.0786182,57.046727 Z" id="Shape" fill="#F7981F"></path>
                <path d="M24.46332,30.6 L18,56.25 L21.7888427,56.25 L23.2558866,49.9639125 L29.9102406,49.9639125 L31.3111573,56.25 L35.1,56.25 L29.1142653,30.6 L24.46332,30.6 Z M23.9220567,46.6923839 L26.628373,34.048368 L26.6896018,34.048368 L29.300401,46.6923839 L23.9220567,46.6923839 L23.9220567,46.6923839 Z" id="Shape" fill="#FFFFFF"></path>
                <polygon id="Path" fill="#FFFFFF" points="51.4401235 50.6436389 51.3734568 50.6436389 48.2919753 30.6 44.4401235 30.6 41.4253086 50.5331143 41.358642 50.5331143 38.3438272 30.6 34.65 30.6 39.0820988 56.25 43.3191358 56.25 46.2376543 36.9247711 46.304321 36.9247711 49.2574074 56.25 53.4944444 56.25 58.05 30.6 54.4253086 30.6"></polygon>
                <path d="M70.0882832,42.4466418 L67.6430464,41.4251866 C65.2271523,40.3701493 64.2392766,39.2451493 64.2392766,37.0259328 C64.2392766,34.2610075 65.7333164,33.2759328 67.2909322,33.2759328 C69.5478859,33.2759328 70.4697402,34.6583955 70.4697402,37.0259328 L70.4697402,37.5716418 L74.0935813,37.5716418 L74.0935813,36.9867537 C74.0935813,34.2973881 73.4896077,30.15 67.6723892,30.15 C63.4127866,30.15 60.6154356,32.769403 60.6154356,37.5016791 C60.6154356,41.2125 62.0434539,43.1742537 65.3518594,44.6294776 L67.8337748,45.6145522 C69.8682119,46.3029851 71.0737137,47.5063433 71.0737137,50.2320896 C71.0737137,52.1602612 69.9293428,54.0212687 67.6430464,54.0212687 C65.1317881,54.0212687 63.9238411,52.4205224 63.9238411,49.2554104 L63.9238411,48.6005597 L60.3,48.6005597 L60.3,49.2190299 C60.3,52.8598881 61.5739684,57.15 67.1980132,57.15 C71.7754967,57.15 74.7,54.8608209 74.7,49.3281716 C74.7,45.7572761 73.2988793,43.7507463 70.0882832,42.4466418 L70.0882832,42.4466418 Z" id="Path" fill="#FFFFFF"></path>
            </g>
        </g>
    </g>
</svg>