<?xml version="1.0" encoding="UTF-8"?>
<svg width="100px" height="100px" viewBox="0 0 100 100" version="1.1" xmlns="http://www.w3.org/2000/svg" xmlns:xlink="http://www.w3.org/1999/xlink">
    <!-- Generator: sketchtool 63.1 (101010) - https://sketch.com -->
    <title>file/file_exe</title>
    <desc>Created with sketchtool.</desc>
    <g id="Icons" stroke="none" stroke-width="1" fill="none" fill-rule="evenodd">
        <g id="file/file_exe" fill-rule="nonzero">
            <g id="exe" transform="translate(11.000000, 0.000000)">
                <path d="M55.3303571,0 L3.50535714,0 C2.0625,0 0.892857143,1.16964286 0.892857143,3.43928571 L0.892857143,98.2142857 C0.892857143,98.8303571 2.0625,100 3.50535714,100 L75.0660714,100 C76.5089286,100 77.6785714,98.8303571 77.6785714,98.2142857 L77.6785714,23.175 C77.6785714,21.9321429 77.5125,21.5321429 77.2196429,21.2375 L56.4410714,0.458928571 C56.1464286,0.166071429 55.7464286,0 55.3303571,0 Z" id="Path" fill="#E9E9E0"></path>
                <polygon id="Path" fill="#D9D7CA" points="56.25 0.269642857 56.25 21.4285714 77.4089286 21.4285714"></polygon>
                <path d="M75.0660714,100 L3.50535714,100 C2.0625,100 0.892857143,98.8303571 0.892857143,97.3875 L0.892857143,69.6428571 L77.6785714,69.6428571 L77.6785714,97.3875 C77.6785714,98.8303571 76.5089286,100 75.0660714,100 Z" id="Path" fill="#9777A8"></path>
                <g id="Group" transform="translate(16.071429, 76.000000)" fill="#FFFFFF">
                    <polygon id="Path" points="3.71785714 2.87142857 3.71785714 8.53571429 11.2375 8.53571429 11.2375 10.5375 3.71785714 10.5375 3.71785714 16.4214286 11.9946429 16.4214286 11.9946429 18.6428571 0.739285714 18.6428571 0.739285714 0.65 11.9946429 0.65 11.9946429 2.87142857"></polygon>
                    <polygon id="Path" points="24.25 9.90178571 28.8160714 18.6428571 25.4232143 18.6428571 22.5660714 11.8553571 22.3214286 11.8553571 19.2446429 18.6428571 15.8517857 18.6428571 20.4178571 9.90178571 15.5589286 0.648214286 18.9035714 0.648214286 22.0767857 7.97321429 22.3214286 7.97321429 25.7642857 0.648214286 29.1089286 0.648214286"></polygon>
                    <polygon id="Path" points="36.1892857 2.87142857 36.1892857 8.53571429 43.7089286 8.53571429 43.7089286 10.5375 36.1892857 10.5375 36.1892857 16.4214286 44.4642857 16.4214286 44.4642857 18.6428571 33.2089286 18.6428571 33.2089286 0.65 44.4642857 0.65 44.4642857 2.87142857"></polygon>
                </g>
                <path d="M49.1071429,57.1428571 C48.9303571,57.1428571 48.75,57.1160714 48.5732143,57.0607143 C47.6321429,56.7660714 47.1071429,55.7642857 47.4017857,54.8232143 L56.3303571,26.2517857 C56.625,25.3107143 57.6267857,24.7857143 58.5678571,25.0803571 C59.5089286,25.375 60.0339286,26.3767857 59.7392857,27.3178571 L50.8107143,55.8892857 C50.5732143,56.6535714 49.8678571,57.1428571 49.1071429,57.1428571 Z" id="Path" fill="#9777A8"></path>
                <circle id="Oval" fill="#9777A8" cx="41.0714286" cy="34.8214286" r="2.67857143"></circle>
                <circle id="Oval" fill="#9777A8" cx="41.0714286" cy="47.3214286" r="2.67857143"></circle>
                <path d="M31.25,53.5714286 L27.6785714,53.5714286 C20.7857143,53.5714286 15.1785714,47.9642857 15.1785714,41.0714286 C15.1785714,34.1785714 20.7857143,28.5714286 27.6785714,28.5714286 L31.25,28.5714286 C32.2357143,28.5714286 33.0357143,29.3714286 33.0357143,30.3571429 C33.0357143,31.3428571 32.2357143,32.1428571 31.25,32.1428571 L27.6785714,32.1428571 C22.7553571,32.1428571 18.75,36.1482143 18.75,41.0714286 C18.75,45.9946429 22.7553571,50 27.6785714,50 L31.25,50 C32.2357143,50 33.0357143,50.8 33.0357143,51.7857143 C33.0357143,52.7714286 32.2357143,53.5714286 31.25,53.5714286 Z" id="Path" fill="#9777A8"></path>
            </g>
        </g>
    </g>
</svg>