<?xml version="1.0" encoding="UTF-8"?>
<svg width="100px" height="100px" viewBox="0 0 100 100" version="1.1" xmlns="http://www.w3.org/2000/svg" xmlns:xlink="http://www.w3.org/1999/xlink">
    <!-- Generator: sketchtool 63.1 (101010) - https://sketch.com -->
    <title>file/file_markdown</title>
    <desc>Created with sketchtool.</desc>
    <g id="Icons" stroke="none" stroke-width="1" fill="none" fill-rule="evenodd">
        <g id="file/file_markdown" fill="#F1F35B" fill-rule="nonzero">
            <g id="Markdown" transform="translate(0.000000, 19.000000)">
                <path d="M8.984375,0 C4.12605781,0 0,3.924345 0,8.7890625 L0,53.7109375 C0,58.5756562 4.12605781,62.5 8.984375,62.5 L91.015625,62.5 C95.8739437,62.5 100,58.5756562 100,53.7109375 L100,8.7890625 C100,3.924345 95.8739437,0 91.015625,0 L8.984375,0 Z M8.984375,6.25 L91.015625,6.25 C92.6323062,6.25 93.75,7.44128 93.75,8.7890625 L93.75,53.7109375 C93.75,55.0587188 92.6323062,56.25 91.015625,56.25 L8.984375,56.25 C7.36769219,56.25 6.25,55.0587188 6.25,53.7109375 L6.25,8.7890625 C6.25,7.44128 7.36769219,6.25 8.984375,6.25 Z M15.625,15.625 L15.625,46.875 L25,46.875 L25,26.0742188 L34.375,38.4765625 L43.75,26.0742188 L43.75,46.875 L53.125,46.875 L53.125,15.625 L43.75,15.625 L34.375,28.125 L25,15.625 L15.625,15.625 Z M68.75,15.625 L68.75,31.25 L59.375,31.25 L73.4375,46.875 L87.5,31.25 L78.125,31.25 L78.125,15.625 L68.75,15.625 Z" id="Shape"></path>
            </g>
        </g>
    </g>
</svg>