<?xml version="1.0" encoding="UTF-8"?>
<svg width="100px" height="100px" viewBox="0 0 100 100" version="1.1" xmlns="http://www.w3.org/2000/svg" xmlns:xlink="http://www.w3.org/1999/xlink">
    <!-- Generator: sketchtool 63.1 (101010) - https://sketch.com -->
    <title>file/freeplane_mindmap</title>
    <desc>Created with sketchtool.</desc>
    <g id="Icons" stroke="none" stroke-width="1" fill="none" fill-rule="evenodd">
        <g id="file/freeplane_mindmap" fill-rule="nonzero">
            <g id="freeplane" transform="translate(-1.000000, 1.000000)">
                <path d="M68.9851131,81.1816565 C69.7077487,79.056965 70.5355266,76.4212268 70.7808585,75.2287844 C71.3766644,72.3328527 72.4474003,64.4398429 72.1729746,64.4726259 C72.069817,64.5404731 71.2257736,66.2144957 70.359511,68.256709 C66.7710684,76.4181952 61.2478969,81.7543846 55.1053899,82.9889108 C51.3443691,83.7497533 48.6040815,83.192004 44.4388998,80.8001391 C41.518485,79.1230851 41.2238247,79.0808591 38.4775835,79.8530156 L35.6558256,80.6452983 L36.9790148,83.7543339 C39.9052407,90.2600909 44.4711459,95.0407878 49.6604982,96.8779346 C52.4264423,97.8313673 57.4584184,96.5305407 60.4317413,94.0475282 C63.6868964,91.4089002 67.3113073,85.934719 68.9851131,81.1816565 Z" id="Blue" fill="#288BFF"></path>
                <path d="M36.1548533,16.1747461 C35.4322177,18.2994374 34.60444,20.9351755 34.3591081,22.1276179 C33.7633022,25.0235496 32.6925662,32.9165594 32.9669919,32.8837765 C33.0701496,32.8159292 33.914193,31.1419066 34.7804556,29.0996934 C38.3688981,20.9382072 43.8920696,15.6020179 50.0345765,14.3674912 C53.7955974,13.6066491 56.535885,14.1643985 60.7010668,16.5562629 C63.6214816,18.2333173 63.9161418,18.2755433 66.662383,17.5033867 L69.484141,16.7111042 L68.1609518,13.6020687 C65.2347259,7.09631129 60.6688206,2.31561413 55.4794684,0.47846747 C52.7135242,-0.474965203 47.6815482,0.825861342 44.7082252,3.30887374 C41.4530702,5.94750181 37.8286591,11.4216834 36.1548533,16.1747461 Z" id="Orange" fill="#FF9F00"></path>
                <path d="M66.2008291,63.2283697 C65.4781935,65.353061 64.6504156,67.988799 64.4050838,69.1812415 C63.8092778,72.0771732 62.7385419,79.9701834 63.0129676,79.9374001 C63.1161252,79.8695526 63.9601687,78.1955301 64.8264312,76.1533169 C68.4148738,67.9918308 73.9380453,62.6556415 80.0805523,61.4211148 C83.8415727,60.6602727 86.5818605,61.2180221 90.7470422,63.6098865 C93.6674574,65.2869409 93.9621172,65.3291669 96.7083585,64.5570103 L99.5301164,63.7647278 L98.2069272,60.6556923 C95.2807013,54.1499348 90.7147959,49.3692377 85.5254442,47.532091 C82.7594999,46.5786584 77.7275239,47.8794849 74.7542009,50.3624973 C71.4990458,53.0011253 67.8746348,58.475307 66.2008291,63.2283697 Z" id="Purple" fill="#D529FF" transform="translate(81.249465, 63.578031) rotate(120.000000) translate(-81.249465, -63.578031) "></path>
                <path d="M38.939138,34.1280332 C39.6617736,32.0033419 40.4895514,29.3676038 40.7348834,28.1751613 C41.3306893,25.2792296 42.4014251,17.3862198 42.1269995,17.4190028 C42.0238418,17.48685 41.1797985,19.1608728 40.3135359,21.2030859 C36.7250933,29.3645721 31.2019218,34.7007613 25.0594148,35.9352881 C21.298394,36.6961302 18.5581063,36.1383808 14.3929246,33.7465163 C11.4725099,32.069462 11.1778496,32.027236 8.43160835,32.7993925 L5.60985045,33.591675 L6.93303966,36.7007106 C9.85926551,43.206468 14.4251708,47.9871651 19.614523,49.8243118 C22.3804672,50.7777444 27.4124432,49.476918 30.3857662,46.9939055 C33.6409213,44.3552774 37.2653322,38.8810959 38.939138,34.1280332 Z" id="Yellow" fill="#F9E700" transform="translate(23.890502, 33.778372) rotate(120.000000) translate(-23.890502, -33.778372) "></path>
                <path d="M10.2083586,65.5825052 C9.485723,67.7071965 8.65794522,70.3429346 8.41261337,71.535377 C7.81680734,74.4313088 6.74607148,82.3243188 7.02049718,82.2915355 C7.12365486,82.2236881 7.96769819,80.5496656 8.83396083,78.5074524 C12.4224033,70.3459662 17.9455749,65.009777 24.0880818,63.7752503 C27.8491027,63.0144082 30.5893903,63.5721577 34.754572,65.964022 C37.6749867,67.6410764 37.9696471,67.6833023 40.7158883,66.9111459 L43.5376462,66.1188633 L42.214457,63.0098278 C39.2882311,56.5040704 34.7223259,51.7233733 29.5329736,49.8862266 C26.7670295,48.9327939 21.7350535,50.2336205 18.7617304,52.7166329 C15.5065754,55.3552609 11.8821644,60.8294426 10.2083586,65.5825052 Z" id="Green" fill="#3F9E00" transform="translate(25.256995, 65.932166) rotate(-120.000000) translate(-25.256995, -65.932166) "></path>
                <path d="M94.9316076,31.7738978 C95.6542436,29.6492065 96.4820209,27.0134685 96.7273529,25.821026 C97.3231591,22.9250942 98.3938944,15.0320844 98.1194691,15.0648675 C98.0163114,15.1327147 97.1722678,16.8067374 96.3060053,18.8489506 C92.7175629,27.0104368 87.194391,32.346626 81.0518844,33.5811527 C77.2908636,34.3419948 74.550576,33.7842454 70.3853943,31.392381 C67.4649795,29.7153266 67.1703192,29.6731006 64.424078,30.4452571 L61.6023201,31.2375397 L62.9255093,34.3465752 C65.8517352,40.8523327 70.4176404,45.6330297 75.6069927,47.4701764 C78.3729368,48.4236091 83.4049127,47.1227826 86.3782361,44.6397702 C89.6333905,42.0011421 93.2578023,36.5269605 94.9316076,31.7738978 Z" id="Red" fill="#FF2828" transform="translate(79.882971, 31.424237) rotate(-120.000000) translate(-79.882971, -31.424237) "></path>
            </g>
        </g>
    </g>
</svg>