<?xml version="1.0" encoding="UTF-8"?>
<!-- Copyright 2000-2023 JetBrains s.r.o. and contributors. Use of this source code is governed by the Apache 2.0 license. -->
<svg version="1.1" viewBox="0 0 16 16" xmlns="http://www.w3.org/2000/svg">
 <path d="M2.63333 2C1.73127 2 1 2.83574 1 3.86667V12.1333C1 13.1643 1.73127 14 2.63333 14H8V12.5C8 11.6716 8.67157 11 9.5 11H11V9.5C11 8.67157 11.6716 8 12.5 8H15V6C15 4.89543 14.1046 4 13 4L8.46667 4L6.84336 2.30775C6.65477 2.11115 6.39413 2 6.1217 2H2.63333Z" fill="#EBECF0"/>
 <path d="M6.1217 3L2.63333 3C2.40481 3 2 3.25841 2 3.86667V12.1333C2 12.7416 2.40481 13 2.63333 13H8V14H2.63333C1.73127 14 1 13.1643 1 12.1333V3.86667C1 2.83574 1.73127 2 2.63333 2H6.1217C6.39413 2 6.65477 2.11115 6.84336 2.30775L8.46667 4L13 4C14.1046 4 15 4.89543 15 6V8H14V6C14 5.44771 13.5523 5 13 5H8.04022L6.1217 3Z" fill="#6C707E"/>
 <path d="m10.149 10.213c4.1719 4.1719 4.265 4.0788 4.265 4.0788" fill="#0071bc" stroke="#0071bc" stroke-linecap="round" stroke-miterlimit="0" stroke-width="1.1" style="paint-order:fill markers stroke"/>
 <path d="m14.321 10.119c-4.1719 4.1719-4.0788 4.265-4.0788 4.265" fill="#0071bc" stroke="#0071bc" stroke-linecap="round" stroke-miterlimit="0" stroke-width="1.1" style="paint-order:fill markers stroke"/>
</svg>
