<?xml version="1.0" encoding="UTF-8"?>
<!-- Copyright 2000-2022 JetBrains s.r.o. and contributors. Use of this source code is governed by the Apache 2.0 license. -->
<svg fill="none" version="1.1" viewBox="0 0 16 16" xmlns="http://www.w3.org/2000/svg">
 <path d="m5.8536 1.8536c0.19526-0.19526 0.19526-0.51184 0-0.7071-0.19526-0.19527-0.51185-0.19527-0.70711 0l-3.8536 3.8536 3.8536 3.8536c0.19526 0.19527 0.51185 0.19527 0.70711 0 0.19526-0.19526 0.19526-0.51184 0-0.7071l-2.6464-2.6464h7.2929c1.933 0 3.5 1.567 3.5 3.5s-1.567 3.5-3.5 3.5h-5c-0.27615 0-0.5 0.2239-0.5 0.5s0.22385 0.5 0.5 0.5h5c2.4853 0 4.5-2.0147 4.5-4.5 0-2.4853-2.0147-4.5-4.5-4.5h-7.2929l2.6464-2.6464z" clip-rule="evenodd" fill="#333333" fill-rule="evenodd"/>
</svg>
