<?xml version="1.0" encoding="UTF-8" standalone="no"?>
<!-- Created with Inkscape (http://www.inkscape.org/) -->
<svg xmlns:inkscape="http://www.inkscape.org/namespaces/inkscape" xmlns:sodipodi="http://sodipodi.sourceforge.net/DTD/sodipodi-0.dtd" xmlns:xlink="http://www.w3.org/1999/xlink" xmlns="http://www.w3.org/2000/svg" xmlns:svg="http://www.w3.org/2000/svg" xmlns:rdf="http://www.w3.org/1999/02/22-rdf-syntax-ns#" xmlns:cc="http://creativecommons.org/ns#" xmlns:dc="http://purl.org/dc/elements/1.1/" viewBox="0 0 64 64" version="1.1" id="svg10437" inkscape:version="1.2-alpha1 (b6a15bbbed, 2022-02-23)" sodipodi:docname="Progress_tenth_00.svg" inkscape:export-filename="C:\Users\Aron\My Drive\Freeplane\Freeplane_icons\InProgress\Predrag\svg\bitmap.svg" inkscape:export-xdpi="300" inkscape:export-ydpi="300">
  <defs id="defs10431">
    <linearGradient id="linearGradient6405" inkscape:swatch="gradient">
      <stop id="stop6407" offset="0" style="stop-color:#800080;stop-opacity:1;"/>
      <stop style="stop-color:#ffffff;stop-opacity:1" offset="0.23327851" id="stop6409"/>
      <stop style="stop-color:#ff00ff;stop-opacity:1" offset="1" id="stop6411"/>
      <stop id="stop6413" offset="1" style="stop-color:#800080;stop-opacity:0;"/>
    </linearGradient>
    <linearGradient id="linearGradient4885" inkscape:swatch="gradient">
      <stop style="stop-color:#800080;stop-opacity:1;" offset="0" id="stop4887"/>
      <stop id="stop6401" offset="0.23327851" style="stop-color:#ffffff;stop-opacity:1"/>
      <stop id="stop6399" offset="0.67576009" style="stop-color:#ff00ff;stop-opacity:1"/>
      <stop style="stop-color:#800080;stop-opacity:0;" offset="1" id="stop4889"/>
    </linearGradient>
    <linearGradient id="linearGradient6369">
      <stop style="stop-color:#ffffff;stop-opacity:1" offset="0" id="stop6371"/>
      <stop id="stop6387" offset="1" style="stop-color:#f7f7f7;stop-opacity:0.96862745;"/>
    </linearGradient>
    <linearGradient id="linearGradient6335">
      <stop style="stop-color:#800080;stop-opacity:1;" offset="0" id="stop6337"/>
      <stop id="stop6349" offset="0.25" style="stop-color:#800080;stop-opacity:0.74901961;"/>
      <stop id="stop6347" offset="0.5" style="stop-color:#800080;stop-opacity:0.49803922;"/>
      <stop style="stop-color:#800080;stop-opacity:0;" offset="1" id="stop6339"/>
    </linearGradient>
    <radialGradient inkscape:collect="always" xlink:href="#linearGradient6429-0" id="radialGradient6435-8" cx="38.93148" cy="43.321198" fx="38.93148" fy="43.321198" r="15.090909" gradientTransform="matrix(0.98881461,1.48232,-1.2392904,0.92929832,53.784006,-56.118238)" gradientUnits="userSpaceOnUse"/>
    <linearGradient inkscape:collect="always" id="linearGradient6429-0">
      <stop style="stop-color:#ffffff;stop-opacity:1;" offset="0" id="stop6431-7"/>
      <stop id="stop6437-7" offset="0.99891293" style="stop-color:#ff00ff;stop-opacity:1"/>
      <stop style="stop-color:#ffffff;stop-opacity:0;" offset="1" id="stop6433-3"/>
    </linearGradient>
  </defs>
  <sodipodi:namedview id="base" pagecolor="#ffffff" bordercolor="#666666" borderopacity="1.0" inkscape:pageopacity="0.0" inkscape:pageshadow="2" inkscape:zoom="10.03667" inkscape:cx="31.03619" inkscape:cy="30.587834" inkscape:document-units="px" inkscape:current-layer="layer1" inkscape:pagecheckerboard="0" showgrid="true" units="px" showguides="false" inkscape:guide-bbox="true" inkscape:snap-global="true" inkscape:snap-bbox="true" inkscape:snap-page="true" inkscape:window-width="1920" inkscape:window-height="1017" inkscape:window-x="-8" inkscape:window-y="-8" inkscape:window-maximized="1" inkscape:deskcolor="#d1d1d1">
    <sodipodi:guide position="3,62" orientation="0,1" id="guide10894" inkscape:label="" inkscape:locked="false" inkscape:color="rgb(0,0,255)"/>
    <sodipodi:guide position="62,61" orientation="-1,0" id="guide10978" inkscape:label="" inkscape:locked="false" inkscape:color="rgb(0,0,255)"/>
    <sodipodi:guide position="2,2" orientation="0,1" id="guide10982" inkscape:label="" inkscape:locked="false" inkscape:color="rgb(0,0,255)"/>
    <sodipodi:guide position="2,22" orientation="-1,0" id="guide10986" inkscape:label="" inkscape:locked="false" inkscape:color="rgb(0,0,255)"/>
    <inkscape:grid type="xygrid" id="grid11"/>
    <sodipodi:guide position="32,38" orientation="1,0" id="guide7428"/>
    <sodipodi:guide position="32,32" orientation="0,-1" id="guide51502"/>
    <sodipodi:guide position="32,32" orientation="-1,0" id="guide51508" inkscape:label="" inkscape:locked="false" inkscape:color="rgb(0,0,255)"/>
    <sodipodi:guide position="32,32" orientation="0.30901699,0.95105652" id="guide52335" inkscape:label="" inkscape:locked="false" inkscape:color="rgb(0,0,255)"/>
    <sodipodi:guide position="32,32" orientation="0.80901699,0.58778526" id="guide52337" inkscape:label="" inkscape:locked="false" inkscape:color="rgb(0,0,255)"/>
    <sodipodi:guide position="32,32" orientation="-0.30901699,0.95105652" id="guide52339" inkscape:label="" inkscape:locked="false" inkscape:color="rgb(0,0,255)"/>
    <sodipodi:guide position="32,32" orientation="-0.80901699,0.58778526" id="guide52341" inkscape:label="" inkscape:locked="false" inkscape:color="rgb(0,0,255)"/>
  </sodipodi:namedview>
  <metadata id="metadata10434">
    <rdf:RDF>
      <cc:Work rdf:about="">
        <dc:format>image/svg+xml</dc:format>
        <dc:type rdf:resource="http://purl.org/dc/dcmitype/StillImage"/>
      </cc:Work>
    </rdf:RDF>
  </metadata>
  <g inkscape:label="Layer 1" inkscape:groupmode="layer" id="layer1">
    <text xml:space="preserve" style="font-style:normal;font-weight:normal;font-size:12.0142px;line-height:0%;font-family:'Bitstream Vera Sans';letter-spacing:1.23146px;word-spacing:0px;fill:#000000;fill-opacity:1;stroke:none;stroke-width:1" x="26.280495" y="35.44878" id="text6443-9-3-9-6" transform="scale(0.99756057,1.0024454)"><tspan sodipodi:role="line" id="tspan6445-6-3-3-2" x="26.280495" y="35.44878" style="font-style:normal;font-variant:normal;font-weight:normal;font-stretch:normal;font-size:9.92167px;line-height:1.25;font-family:Roboto;-inkscape-font-specification:'Roboto, Normal';font-variant-ligatures:normal;font-variant-caps:normal;font-variant-numeric:normal;font-variant-east-asian:normal;stroke-width:1" dx="-1.3">0%</tspan></text>
    <path id="path51481" style="fill:#999999;fill-opacity:1;fill-rule:evenodd;stroke:none;stroke-width:2;stroke-linecap:round;paint-order:markers stroke fill;stop-color:#000000" d="m 48.777344,56.792969 -8.21875,-11.3125 a 16,16 0 0 1 -1.91211,1.039062 16,16 0 0 1 -2.138672,0.796875 16,16 0 0 1 -2.230468,0.486328 A 16,16 0 0 1 33,47.929688 v 14 a 30,30 0 0 0 15.777344,-5.136719 z"/>
    <path id="path52631" style="fill:#999999;fill-opacity:1;fill-rule:evenodd;stroke:none;stroke-width:2;stroke-linecap:round;paint-order:markers stroke fill;stop-color:#000000" d="M 60.162109,42.201172 46.857422,37.878906 a 16,16 0 0 1 -0.302734,0.732422 16,16 0 0 1 -1.09375,2.003906 16,16 0 0 1 -1.369141,1.828125 16,16 0 0 1 -1.613281,1.613282 16,16 0 0 1 -0.304688,0.246093 l 8.222656,11.316407 a 30,30 0 0 0 9.765625,-13.417969 z"/>
    <path id="path52674" style="fill:#999999;fill-opacity:1;fill-rule:evenodd;stroke:none;stroke-width:2;stroke-linecap:round;paint-order:markers stroke fill;stop-color:#000000" d="M 60.78125,23.675781 47.457031,27.943359 A 16,16 0 0 1 47.837891,29.6875 16,16 0 0 1 48,31.964844 a 16,16 0 0 1 -0.162109,2.277344 16,16 0 0 1 -0.359375,1.736328 l 13.308593,4.324218 A 30,30 0 0 0 62,31.964844 30,30 0 0 0 60.78125,23.675781 Z"/>
    <path id="path52679" style="fill:#999999;fill-opacity:1;fill-rule:evenodd;stroke:none;stroke-width:2;stroke-linecap:round;paint-order:markers stroke fill;stop-color:#000000" d="m 50.431641,8.3320312 -8.22461,11.3222658 a 16,16 0 0 1 0.271485,0.21875 16,16 0 0 1 1.613281,1.613281 16,16 0 0 1 1.369141,1.828125 16,16 0 0 1 1.09375,2.003906 16,16 0 0 1 0.269531,0.726563 l 13.357422,-4.279297 a 30,30 0 0 0 -9.75,-13.4335938 z"/>
    <path id="path52722" style="fill:#999999;fill-opacity:1;fill-rule:evenodd;stroke:none;stroke-width:2;stroke-linecap:round;paint-order:markers stroke fill;stop-color:#000000" d="m 33,2 v 14 a 16,16 0 0 1 1.277344,0.126953 16,16 0 0 1 2.230468,0.486328 16,16 0 0 1 2.138672,0.796875 16,16 0 0 1 1.947266,1.060547 L 48.814453,7.15625 A 30,30 0 0 0 33,2 Z"/>
    <path id="path53614" style="fill:#999999;fill-opacity:1;fill-rule:evenodd;stroke:none;stroke-width:2;stroke-linecap:round;paint-order:markers stroke fill;stop-color:#000000" d="m 15.222656,56.792969 8.21875,-11.3125 a -16,16 0 0 0 1.91211,1.039062 -16,16 0 0 0 2.138672,0.796875 -16,16 0 0 0 2.230468,0.486328 A -16,16 0 0 0 31,47.929688 v 14 A -30,30 0 0 1 15.222656,56.792969 Z"/>
    <path id="path53616" style="fill:#999999;fill-opacity:1;fill-rule:evenodd;stroke:none;stroke-width:2;stroke-linecap:round;paint-order:markers stroke fill;stop-color:#000000" d="m 3.837891,42.201172 13.304687,-4.322266 a -16,16 0 0 0 0.302734,0.732422 -16,16 0 0 0 1.09375,2.003906 -16,16 0 0 0 1.369141,1.828125 -16,16 0 0 0 1.613281,1.613282 -16,16 0 0 0 0.304688,0.246093 L 13.603516,55.619141 A -30,30 0 0 1 3.837891,42.201172 Z"/>
    <path id="path53618" style="fill:#999999;fill-opacity:1;fill-rule:evenodd;stroke:none;stroke-width:2;stroke-linecap:round;paint-order:markers stroke fill;stop-color:#000000" d="m 3.21875,23.675781 13.324219,4.267578 A -16,16 0 0 0 16.162109,29.6875 -16,16 0 0 0 16,31.964844 a -16,16 0 0 0 0.162109,2.277344 -16,16 0 0 0 0.359375,1.736328 L 3.212891,40.302734 A -30,30 0 0 1 2,31.964844 -30,30 0 0 1 3.21875,23.675781 Z"/>
    <path id="path53620" style="fill:#999999;fill-opacity:1;fill-rule:evenodd;stroke:none;stroke-width:2;stroke-linecap:round;paint-order:markers stroke fill;stop-color:#000000" d="m 13.568359,8.3320312 8.22461,11.3222658 a -16,16 0 0 0 -0.271485,0.21875 -16,16 0 0 0 -1.613281,1.613281 -16,16 0 0 0 -1.369141,1.828125 -16,16 0 0 0 -1.09375,2.003906 -16,16 0 0 0 -0.269531,0.726563 L 3.818359,21.765625 a -30,30 0 0 1 9.75,-13.4335938 z"/>
    <path id="path53622" style="fill:#999999;fill-opacity:1;fill-rule:evenodd;stroke:none;stroke-width:2;stroke-linecap:round;paint-order:markers stroke fill;stop-color:#000000" d="m 31,2 v 14 a -16,16 0 0 0 -1.277344,0.126953 -16,16 0 0 0 -2.230468,0.486328 -16,16 0 0 0 -2.138672,0.796875 -16,16 0 0 0 -1.947266,1.060547 L 15.185547,7.15625 A -30,30 0 0 1 31,2 Z"/>
  </g>
</svg>
