<?xml version="1.0" encoding="UTF-8"?>
<svg width="100px" height="100px" viewBox="0 0 100 100" version="1.1" xmlns="http://www.w3.org/2000/svg" xmlns:xlink="http://www.w3.org/1999/xlink">
    <!-- Generator: sketchtool 63.1 (101010) - https://sketch.com -->
    <title>general/general_telephone</title>
    <desc>Created with sketchtool.</desc>
    <g id="Icons" stroke="none" stroke-width="1" fill="none" fill-rule="evenodd">
        <g id="general/general_telephone" fill="#6B8DFF" fill-rule="nonzero">
            <g id="telephone" transform="translate(14.000000, 0.000000)">
                <path d="M34.5402062,21.2350515 L24.1381443,3.21443299 C21.4923711,-1.36835052 16.905567,1.27742268 16.905567,1.27742268 L10.4863918,4.98237113 L26.1843299,32.1689691 L32.6035052,28.4640206 C37.1862887,25.8182474 34.5405155,21.2354639 34.5405155,21.2354639 M61.2075258,98.0519588 L45.5095876,70.8612371 C41.6315464,73.0962887 38.0796907,68.9645361 34.8095876,64.5307216 C32.6510309,61.5828866 30.6898969,58.5183505 28.9421649,55.5020619 C27.2024742,52.477732 25.5312371,49.2480412 24.0573196,45.9015464 C21.8545361,40.8556701 20.1913402,35.6285567 23.9244227,33.4695876 L8.22648454,6.2871134 C2.69328866,9.48061856 -8.30856701,26.4871134 13.5663814,64.3778351 L13.5663814,64.3818629 C35.5138041,102.389079 55.6777216,101.249904 61.2065876,98.051966 M71.8261753,85.8096979 L61.4199897,67.7890794 C58.7742165,63.2062959 54.1874124,65.8520691 54.1874124,65.8520691 L47.7682371,69.5570175 L63.4661753,96.7477392 L69.8853505,93.0427907 C74.4721546,90.3970175 71.8263814,85.8102134 71.8263814,85.8102134" id="Shape"></path>
            </g>
        </g>
    </g>
</svg>