<?xml version="1.0" encoding="UTF-8"?>
<svg version="1.1" viewBox="0 0 24 24" xmlns="http://www.w3.org/2000/svg">
 <defs>
  <marker id="Triangle_Fnone_S-333333" overflow="visible" markerHeight="0.5" markerWidth="0.5" orient="auto-start-reverse" preserveAspectRatio="xMidYMid" viewBox="0 0 1 1">
   <path transform="scale(.5)" d="m5.77 0-8.65 5v-10z" fill="#333333" fill-rule="evenodd" stroke="#333333" stroke-width="1pt"/>
  </marker>
 </defs>
 <path d="m11.914 7.3519s10.238 1.2759 10.17 2.831c-0.06009 1.3721-9.1842 2.4834-9.1842 2.4834" fill="none" marker-end="url(#Triangle_Fnone_S-333333)" stroke="#333333" stroke-linecap="square" stroke-miterlimit="0" style="paint-order:fill markers stroke"/>
 <path d="m11.914 15.927s10.238 1.2759 10.17 2.831c-0.06009 1.3721-9.1842 2.4834-9.1842 2.4834" fill="none" marker-end="url(#Triangle_Fnone_S-333333)" stroke="#333333" stroke-linecap="square" stroke-miterlimit="0" style="paint-order:fill markers stroke"/>
 <g transform="matrix(.57042 0 0 .5704 .45623 7.676)" stroke-width="1.7531" data-name="Layer 2">
  <path d="m12.5 11h1l-1.5 1.62-2-2.12-0.49-0.5 1.66-5h4.83l-2.92 5z" fill="#333333"/>
  <path d="m22 2-7.53 8h-0.23l2.62-4.5 0.14-0.23v-0.27c0-0.3-0.12-1-1.26-1h-5.29l-0.23 0.68-1.49 4.47-6.73-7.15z" fill="#333333"/>
  <path d="m14 11v2.12l-0.15 0.16-3 3-0.88 0.89v-1.28l1.03-2.89h-1v-3h3.08l-0.58 1z" fill="#333333"/>
  <path d="m12.94 15.6 1.06-1.06v4.46l-4 3v-3.57a11.17 11.17 0 0 0 1.59-1.43z" fill="#333333"/>
  <path d="m15.5 11v0.47l-1.5 1.65-0.15 0.16-3 3-0.88 0.89-0.16 0.16-0.22 0.21a0.3 0.3 0 0 1-0.14-0.11l0.52-1.5 1.03-2.93h-2.5l1-3 1.66-5h4.84l-2.92 5-0.58 1z" fill="#0071bc"/>
  <path d="m15.5 11v0.47l-1.5 1.65-0.15 0.16-3 3-0.88 0.89-0.16 0.16-0.22 0.21a0.3 0.3 0 0 1-0.14-0.11l0.52-1.5 1.03-2.93h-2.5l1-3 1.66-5h4.84l-2.92 5-0.58 1z" fill="#0071bc"/>
 </g>
</svg>
