<?xml version="1.0" encoding="UTF-8"?>
<!-- Copyright 2000-2022 JetBrains s.r.o. and contributors. Use of this source code is governed by the Apache 2.0 license. -->
<svg version="1.1" viewBox="0 0 16 16" xmlns="http://www.w3.org/2000/svg">
 <path d="m7.2074 3.2447h1.5851c0.43771 0 0.79256 0.35484 0.79256 0.79256h-3.1702c0-0.43771 0.35484-0.79256 0.79256-0.79256zm-1.5851 0.79256c0-0.87546 0.70968-1.5851 1.5851-1.5851h1.5851c0.87546 0 1.5851 0.70968 1.5851 1.5851h1.5851c0.43773 0 0.79256 0.35484 0.79256 0.79256v1.5851h-0.79256v5.5479c0 0.87546-0.70965 1.5851-1.5851 1.5851h-4.7553c-0.87546 0-1.5851-0.70966-1.5851-1.5851v-5.5479h-0.79256v-1.5851c0-0.43771 0.35484-0.79256 0.79256-0.79256zm4.7553 0.79256h-6.3405v0.79256h7.9256v-0.79256zm-5.5479 1.5851h6.3405v5.5479c0 0.43773-0.35483 0.79256-0.79256 0.79256h-4.7553c-0.43771 0-0.79256-0.35483-0.79256-0.79256zm1.9814 0.79256c-0.21886 0-0.39628 0.17742-0.39628 0.39628v3.1702c0 0.21882 0.17742 0.39628 0.39628 0.39628 0.21886 0 0.39628-0.17745 0.39628-0.39628v-3.1702c0-0.21886-0.17742-0.39628-0.39628-0.39628zm1.9814 0.39628c0-0.21886 0.17742-0.39628 0.39628-0.39628s0.39628 0.17742 0.39628 0.39628v3.1702c0 0.21882-0.17742 0.39628-0.39628 0.39628-0.21886 0-0.39628-0.17745-0.39628-0.39628z" clip-rule="evenodd" fill="#333333" fill-rule="evenodd"/>
 <circle cx="8" cy="8" r="7.1261" fill="none" stroke="#bc0009" stroke-miterlimit="0" stroke-width="1.5" style="paint-order:fill markers stroke"/>
 <path d="m12.934 3.0933-10.002 10.002" fill="none" stroke="#bc0009" stroke-miterlimit="0" stroke-width="1.5" style="paint-order:fill markers stroke"/>
 <path d="m12.934 13.095-10.002-10.002" fill="none" stroke="#bc0009" stroke-miterlimit="0" stroke-width="1.5" style="paint-order:fill markers stroke"/>
</svg>
