<?xml version="1.0" encoding="UTF-8"?>
<svg version="1.1" viewBox="0 0 24 24" xml:space="preserve" xmlns="http://www.w3.org/2000/svg"><defs><marker id="Triangle_Fnone_S-333333" overflow="visible" markerHeight="0.5" markerWidth="0.5" orient="auto-start-reverse" preserveAspectRatio="xMidYMid" viewBox="0 0 1 1"><path transform="scale(.5)" d="m5.77 0-8.65 5v-10z" fill="#333333" fill-rule="evenodd" stroke="#333333" stroke-width="1pt"/></marker></defs><rect x="1.6512" y="7.2893" width="5.9994" height="3.333" rx="1.0932" ry="1.0932" fill="#0071bc" stroke-width=".6666"/><path d="m6.5573 20.479a0.42662 0.42662 0 0 1 0.42662 0.42662v1.1466a0.42662 0.42662 0 0 1-0.42662 0.42662h-3.813a0.42662 0.42662 0 0 1-0.42662-0.42662v-1.1466a0.42662 0.42662 0 0 1 0.42662-0.42662h3.813m0-0.6666h-3.813a1.0999 1.0999 0 0 0-1.0932 1.0932v1.1466a1.0932 1.0932 0 0 0 1.0932 1.0932h3.813a1.0866 1.0866 0 0 0 1.0932-1.0932v-1.1466a1.0932 1.0932 0 0 0-1.0932-1.0932z" fill="#0071bc" stroke-width=".6666"/><path d="m7.9069 2.9513s12.725 1.4304 12.64 3.174c-0.07469 1.5383-11.415 2.7842-11.415 2.7842" fill="none" marker-end="url(#Triangle_Fnone_S-333333)" stroke="#333333" stroke-linecap="square" stroke-miterlimit="0" style="paint-order:fill markers stroke"/><path d="m6.5573 1.6945a0.42662 0.42662 0 0 1 0.42662 0.42662v1.1466a0.42662 0.42662 0 0 1-0.42662 0.42662h-3.813a0.42662 0.42662 0 0 1-0.42662-0.42662v-1.1466a0.42662 0.42662 0 0 1 0.42662-0.42662h3.813m0-0.6666h-3.813a1.0999 1.0999 0 0 0-1.0932 1.0932v1.1466a1.0932 1.0932 0 0 0 1.0932 1.0932h3.813a1.0866 1.0866 0 0 0 1.0932-1.0932v-1.1466a1.0932 1.0932 0 0 0-1.0932-1.0932z" fill="#0071bc" stroke-width=".6666"/><path d="m7.9069 15.536s12.725 1.4304 12.64 3.174c-0.07469 1.5383-11.415 2.7842-11.415 2.7842" fill="none" marker-end="url(#Triangle_Fnone_S-333333)" stroke="#333333" stroke-linecap="square" stroke-miterlimit="0" style="paint-order:fill markers stroke"/><rect x="1.6512" y="13.551" width="5.9994" height="3.333" rx="1.0932" ry="1.0932" fill="#0071bc" stroke-width=".6666"/></svg>
