<?xml version="1.0" encoding="UTF-8"?>
<svg version="1.1" viewBox="0 0 24 24" xmlns="http://www.w3.org/2000/svg">
 <defs>
  <marker id="RoundedArrow_F-333333_S-333333" overflow="visible" markerHeight="0.40000001" markerWidth="0.40000001" orient="auto-start-reverse" preserveAspectRatio="xMidYMid" viewBox="0 0 1 1">
   <path transform="scale(.7)" d="m-0.21115-4.1056 6.4223 3.2111a1 1 90 0 1 0 1.7889l-6.4223 3.2111a1.2361 1.2361 31.717 0 1-1.7889-1.1056v-6a1.2361 1.2361 148.28 0 1 1.7889-1.1056z" fill="#333333" fill-rule="evenodd"/>
  </marker>
 </defs>
 <path d="m20.843 5.1019v0.26809l-0.85563 0.94116-0.08556 0.09126-1.7113 1.7112-0.50197 0.50766-0.09127 0.09126-0.12549 0.11978a0.17113 0.17112 0 0 1-0.07986-0.062736l0.29662-0.8556 0.58753-1.6713h-1.426l0.57042-1.7112 0.9469-2.852h2.7608l-1.6656 2.852-0.33084 0.5704z" fill="#333333" stroke-width=".99999"/>
 <path d="m22.064 14.198h-7.4801" fill="#333333" marker-end="url(#RoundedArrow_F-333333_S-333333)" stroke="#333333" stroke-miterlimit="0" stroke-width="2" style="paint-order:fill markers stroke"/>
 <path d="m10.796 18.192h7.4801" fill="#333333" marker-end="url(#RoundedArrow_F-333333_S-333333)" stroke="#333333" stroke-miterlimit="0" stroke-width="2" style="paint-order:fill markers stroke"/>
 <g transform="matrix(.49824 0 0 .49563 1.7612 8.3131)" fill="#0071bc" stroke="#0071bc" stroke-width="2.0123" data-name="Layer 2">
  <polygon points="22 2 2 2 12 12.62"/>
  <polygon points="14 10 14 19 10 22 10 10"/>
 </g>
</svg>
