<?xml version="1.0" encoding="UTF-8"?>
<svg width="100px" height="100px" viewBox="0 0 100 100" version="1.1" xmlns="http://www.w3.org/2000/svg" xmlns:xlink="http://www.w3.org/1999/xlink">
    <!-- Generator: sketchtool 63.1 (101010) - https://sketch.com -->
    <title>app/app_Marked2</title>
    <desc>Created with sketchtool.</desc>
    <g id="Icons" stroke="none" stroke-width="1" fill="none" fill-rule="evenodd">
        <g id="app/app_Marked2" fill-rule="nonzero">
            <g id="Marked2_Logo" transform="translate(1.000000, 0.000000)">
                <g id="White-Fill" transform="translate(0.185036, 0.135660)" fill="#FFFFFF">
                    <rect id="Rectangle" transform="translate(49.715724, 45.617531) rotate(-10.000000) translate(-49.715724, -45.617531) " x="8.2342424" y="12.4693825" width="82.962963" height="66.2962963" rx="10"></rect>
                    <rect id="Rectangle-Copy" transform="translate(42.592593, 25.370370) rotate(-10.000000) translate(-42.592593, -25.370370) " x="2.59259259" y="7.77777778" width="80" height="35.1851852" rx="17.4074074"></rect>
                    <rect id="Rectangle-Copy-2" transform="translate(48.148148, 24.629630) rotate(-10.000000) translate(-48.148148, -24.629630) " x="8.14814815" y="7.03703704" width="80" height="35.1851852" rx="17.4074074"></rect>
                </g>
                <g id="g28" transform="translate(0.740741, 2.592593)">
                    <path d="M23.5976693,97.2322185 C19.6692285,96.821063 16.0918659,95.1795593 13.3710411,92.5396519 C10.9761081,90.2159407 9.54280741,87.589937 8.76607815,84.1027296 C8.45088741,82.6876519 0.318469889,29.3870411 0.166670815,27.7414289 C-0.260911111,23.1061293 1.42923341,18.6810889 4.895734,15.3600644 C7.50513148,12.8601733 10.0806111,11.1049474 12.5239374,10.1613333 C13.9188881,9.62260259 15.0695844,9.38537407 21.4908022,8.31271407 C24.8862881,7.74550074 36.3956626,5.80650037 47.0671889,4.00382444 C57.7387185,2.20114815 66.955037,0.645754593 67.5479,0.547393778 C68.3839556,0.408684889 69.1645519,0.367768116 71.0266778,0.367768116 C73.1781481,0.367768116 73.5322741,0.390471667 74.4359556,0.592881926 C75.8753444,0.91528237 76.7962704,1.23205389 78.0753074,1.84471341 C82.6763852,4.04862963 85.8498111,7.96033704 87.1456,13.0251578 C87.3550852,13.8439696 96.2651852,59.1004815 96.9431148,62.7890741 C97.3623148,65.0698667 97.5138111,67.0505704 97.4565556,69.5016519 C97.4130926,71.3622185 97.3664296,71.8847667 97.1577222,72.8480481 C95.6714185,79.7082815 90.7620222,84.4880519 83.3249037,86.3156259 C82.0239,86.6353296 29.6334619,96.8811926 28.2663167,97.0832963 C26.9549193,97.2771481 24.7109204,97.3487333 23.5976693,97.2322185 Z" id="path66" fill="#F4FAFC"></path>
                    <path d="M23.5624219,95.9157333 C18.3369059,95.1649185 13.9380722,92.0462889 11.6687567,87.4835185 C10.9323333,86.002837 10.5322196,84.8281444 10.2021156,83.1776185 C9.83444778,81.3392667 1.83897456,28.7430993 1.7175847,27.3643078 C1.53724648,25.3159574 1.7229587,23.8841904 2.4641427,21.6086344 C3.28019733,19.1032159 4.51762441,16.9454622 6.00586452,15.4327874 C6.4694243,14.9616178 6.76120296,14.686357 6.65426163,14.8210985 C6.5473203,14.95584 6.19243841,15.5070552 5.86563519,16.0460211 C4.11975089,18.9253452 3.52067104,21.0263104 3.60979936,23.9572067 C3.6573342,25.5203433 3.80492526,26.4601215 11.0241241,71.1675444 C11.7342941,75.5655259 12.4095811,79.4462926 12.550257,79.9379926 C12.8855304,81.1098593 13.9099537,83.1830519 14.640773,84.1687074 C16.0257493,86.0366259 17.7644407,87.4989333 19.8027585,88.5101444 C22.8101544,90.0021148 25.7601496,90.4517407 29.1127156,89.9291222 C29.9193622,89.8033778 36.2987378,88.5867296 47.5845519,86.4062444 C49.9829481,85.9428593 53.7753111,85.2110667 56.0120185,84.7800407 C58.2487296,84.3490111 62.2174778,83.5818481 64.831463,83.0752333 C67.4454481,82.5686185 70.8850333,81.9060074 72.4749815,81.6027667 C85.9421815,79.0342296 85.8765407,79.0488519 87.6330778,78.2257148 C89.2746,77.4564704 91.2492519,75.9847852 92.3805741,74.687463 C93.7705259,73.0935593 94.9121519,71.0634815 95.5172704,69.1096778 C95.8271481,68.1091407 95.8357667,68.0334074 95.8294815,66.3658481 C95.8257778,65.4226593 95.7753704,64.2669185 95.7171296,63.7975333 C95.6588926,63.3281519 94.5309074,57.3309296 93.2104963,50.4703741 C90.942737,38.6875963 86.2326333,14.1746733 85.7862741,11.8322867 C85.6733,11.2394241 85.4376148,10.3574796 85.2625296,9.87241037 C84.7989815,8.58816222 84.7941185,8.57139037 84.9774889,8.88973407 C85.5614556,9.90354778 86.0895407,11.676113 86.7299667,14.7721015 C87.2766259,17.4147841 95.920363,61.5511926 96.1888852,63.0709556 C96.6775593,65.8367185 96.8207148,69.3474778 96.5265148,71.3509556 C95.9915407,74.9940926 94.6106704,77.7528593 92.0294815,80.3353444 C89.5202778,82.8458037 86.5285074,84.4049222 82.5383963,85.2814778 C80.8767963,85.6465037 31.0458826,95.3977926 29.1617122,95.7266333 C27.3885807,96.0360926 24.9688489,96.1178148 23.5624219,95.9157333 L23.5624219,95.9157333 Z M24.3833476,85.99781 C23.3694616,85.7716441 22.3418027,85.3691444 21.4642792,84.8545074 C20.6091576,84.3530122 19.3543104,83.2251278 18.7810917,82.4427985 C18.3250244,81.8203578 17.6676031,80.4968822 17.4578913,79.7790248 C17.3683387,79.4724789 15.255748,66.6417389 12.7632454,51.2662685 C7.85047852,20.9609378 8.02103585,22.1659967 8.407736,20.4928622 C9.13576863,17.3428759 11.4841886,14.8075124 14.6646304,13.7378928 C15.2036519,13.5566134 24.0464008,12.0301081 43.88945,8.69287222 C74.9339293,3.47176175 73.46498,3.68773943 75.3228067,4.07126137 C77.4757152,4.51569993 79.4777648,5.75807348 80.7490074,7.43849944 C81.3596748,8.24572241 82.0568919,9.71599237 82.2719174,10.6499642 C82.4206644,11.296052 84.3233226,21.2928921 90.59812,54.3969748 C91.6926837,60.1715781 92.6185837,65.1973374 92.65568,65.5653285 C92.7481744,66.4828578 92.5521844,67.8998981 92.1752748,69.0386878 C91.6231856,70.7067848 90.4271726,72.355403 88.9765993,73.4478419 C88.2148548,74.0215159 86.7094578,74.761957 85.8753767,74.973207 C85.5363207,75.0590767 72.3594578,77.5925248 56.593457,80.603083 C28.5655336,85.955093 27.8960094,86.0776104 26.4895908,86.111807 C25.4938399,86.1360056 24.8456595,86.1009526 24.3833476,85.99781 Z M27.903696,83.8040333 C28.3829536,83.7442026 36.9425173,82.14989 46.9249481,80.2611126 C56.9073826,78.3723352 69.3552163,76.0194504 74.5868041,75.0324833 C79.8183881,74.0455122 84.5115811,73.1218852 85.01612,72.9799807 C87.4887133,72.2845315 89.2470174,70.9042041 90.209227,68.9032181 C91.1598433,66.9263448 91.1358515,66.6211344 89.2599441,56.8263522 C88.4331656,52.5094489 86.1358215,40.4590522 84.1547356,30.047694 C82.1736459,19.6363357 80.4769363,10.9101864 80.3842726,10.6562508 C79.7566693,8.93642993 78.49395,7.46086926 76.9757622,6.67321474 C75.5789248,5.94851907 75.1044096,5.81826248 73.6613144,5.76338611 C72.4289374,5.71652285 72.199863,5.74431122 68.108377,6.43696885 C65.7612307,6.83432278 53.0588889,8.96217544 39.8809463,11.1655298 C23.8120317,13.8522543 15.6437334,15.2592593 15.0790139,15.4377077 C12.8230386,16.1505877 10.9923206,17.8464452 10.0980355,20.0517602 C9.81401741,20.7521525 9.76212819,21.0215497 9.72401259,21.993576 C9.68241696,23.0543648 9.75124967,23.5598816 10.869566,30.4067946 C11.523961,34.4133336 12.7096817,41.6851248 13.5045013,46.56633 C18.8727344,79.5341211 18.7475127,78.7921811 19.0767052,79.5819115 C20.0644257,81.9514433 22.1274899,83.3818259 25.2273624,83.8463441 C25.7752379,83.9284448 27.0712389,83.9079544 27.903696,83.8040333 Z M9.16811296,12.623433 C9.39283852,12.3468093 10.6087074,11.5569419 11.4983426,11.1096422 C12.60088,10.5552978 13.5714411,10.1792574 14.6666552,9.88209222 C15.4954419,9.65721704 69.514163,0.611994148 70.0283481,0.611994148 C70.0804778,0.611994148 70.1231296,0.65609137 70.1231296,0.709987963 C70.1231296,0.763884593 70.0215963,0.807981778 69.8974963,0.807981778 C69.7733963,0.807981778 68.0866778,1.07080563 66.1492333,1.39203489 C24.8985507,8.23140963 15.7501681,9.76080815 15.0506019,9.93454333 C13.4065526,10.3428404 11.6889581,11.10111 10.115487,12.1132556 C8.97202556,12.8487952 8.9951463,12.8363441 9.16811296,12.623433 Z M73.4549185,0.709987963 C73.4549185,0.65609137 73.518463,0.611994148 73.5961259,0.611994148 C73.6737926,0.611994148 73.7645889,0.65609137 73.7979,0.709987963 C73.8311963,0.763884593 73.7676778,0.807981778 73.6566926,0.807981778 C73.5457185,0.807981778 73.4549185,0.763884593 73.4549185,0.709987963 Z M70.4661074,0.611994148 C70.7372926,0.495461667 72.686637,0.495461667 72.8669556,0.611994148 C72.9654926,0.675671815 72.5616852,0.705210963 71.6420333,0.701599889 C70.7856111,0.698236926 70.343763,0.664568037 70.4661074,0.611994148 Z" id="path56" fill="#D1D2D2"></path>
                    <path d="M23.8700459,95.3017111 C23.0440481,95.2079222 21.5577159,94.8552185 20.6217704,94.5309037 C15.5915296,92.7878593 11.9398459,88.5957111 10.8392411,83.3005222 C10.5557389,81.9365481 2.31140504,27.8343378 2.31140504,27.3378737 C2.31140504,27.1082841 2.55919367,27.36727 2.57897559,27.6175333 C2.59139781,27.7746911 2.62756778,28.0576141 2.65935296,28.2462522 C2.69113815,28.43489 2.73601822,28.7215222 2.75908648,28.8832119 C2.78215463,29.0449019 2.82673885,29.3315337 2.85816226,29.5201719 C2.88958559,29.70881 2.93298378,29.9954419 2.95460248,30.1571315 C2.97622107,30.3188215 3.03649042,30.6554311 3.08853416,30.9051537 C3.17233328,31.3072489 3.25551504,31.8907589 3.33812031,32.6559741 C3.35266563,32.7907156 3.39238311,33.0112015 3.42638119,33.1459433 C3.46037937,33.2806848 3.50651054,33.5893652 3.52889497,33.8319 C3.55127942,34.0744348 3.59389927,34.3390178 3.62360571,34.419863 C3.65331215,34.5007078 3.70517959,34.8093881 3.73886663,35.1058196 C3.82479574,35.8619593 3.88901278,36.2992111 4.11305311,37.6536593 C4.18883144,38.1117815 4.25450337,38.5527519 4.25899078,38.6335963 C4.26347781,38.7144407 4.50877322,40.3221556 4.80409074,42.2062963 C5.09940815,44.090437 5.32237544,45.650663 5.29957348,45.673463 C5.27677163,45.6962778 5.29706237,45.7876963 5.34466819,45.8766481 C5.39227219,45.9655963 5.45299889,46.2795037 5.47961633,46.5742185 C5.50623374,46.8689333 5.55264515,47.1762074 5.58275278,47.2570519 C5.63040374,47.3850074 5.68639656,47.7860741 5.78796585,48.7269593 C5.80251104,48.8617037 5.84222867,49.0821889 5.87622674,49.2169296 C5.91022489,49.3516704 5.95995833,49.6603519 5.98674556,49.9028852 C6.01353296,50.1454222 6.10039233,50.7226926 6.17976674,51.1857148 C6.25914115,51.648737 6.34799244,52.222 6.377214,52.459637 C6.40643548,52.6972704 6.53814944,53.5732481 6.66991133,54.4062556 C6.80167315,55.2392593 6.89069937,55.9395889 6.86774733,55.9625407 C6.84479548,55.9855037 6.86496585,56.0770481 6.91256933,56.166 C6.96017337,56.2549481 7.02090004,56.5688556 7.04751741,56.8635704 C7.07413593,57.1582852 7.1205463,57.4655593 7.15065407,57.5464037 C7.18076148,57.6272481 7.22913667,57.9138815 7.2581537,58.183363 C7.28717222,58.4528481 7.4433463,59.5111815 7.60520963,60.5352148 C7.76707296,61.5592519 7.92106593,62.5734889 7.9474163,62.7890741 C7.97376815,63.0046593 8.05680778,63.5558778 8.13195222,64.0139963 C8.20709667,64.4721185 8.27160185,64.9130889 8.27529704,64.993937 C8.27900074,65.0747815 8.34859926,65.519763 8.42997852,65.9827815 C8.51135852,66.4458037 8.60135556,67.0190704 8.62997259,67.2567037 C8.65859111,67.494337 8.78709852,68.3502222 8.91554778,69.1586741 C9.04399704,69.9671222 9.15243815,70.6947259 9.1565263,70.7755704 C9.16061148,70.8564148 9.23054296,71.3013963 9.31192296,71.7644185 C9.39330296,72.2274407 9.48379444,72.8007037 9.51301593,73.038337 C9.54223815,73.2759741 9.67395148,74.1519519 9.8057137,74.9849556 C9.93747519,75.817963 10.0265019,76.5182926 10.0035496,76.5412444 C9.98059778,76.5642074 10.0007719,76.6557519 10.0483722,76.7447 C10.0959756,76.8336481 10.1567022,77.1475556 10.1833193,77.4422704 C10.2099378,77.7369852 10.2563481,78.044263 10.2864559,78.1251074 C10.3165633,78.2059519 10.3646215,78.4925852 10.3932515,78.7620667 C10.4837752,79.6141296 10.9287122,82.2375148 11.0889304,82.863837 C11.1736185,83.1949 11.3995648,83.8626444 11.5910341,84.3477148 C13.4180463,88.9762963 17.6334389,92.3593667 22.6403185,93.2153333 C23.9206452,93.4342185 26.1669496,93.4793481 27.3488267,93.3099333 C27.726103,93.2558556 40.5363444,90.809263 55.8160333,87.873063 C74.3583481,84.3099074 83.9837037,82.4195963 84.7592481,82.1889481 C89.9076889,80.6577889 93.7471815,77.1521667 95.2578333,72.6032852 C95.663263,71.3824593 95.8584926,70.445437 95.9828963,69.1232852 C96.0353148,68.5661778 96.1088667,68.0816481 96.1463407,68.0465556 C96.2841407,67.9175111 96.0696926,70.5692333 95.8424333,71.8045074 C95.4324296,74.0330593 94.7110296,75.8525407 93.5456296,77.5973778 C91.2633111,81.0144704 87.7705037,83.3116259 83.0634222,84.491337 C81.6623074,84.8424926 29.6037633,95.0221889 28.1817741,95.2230704 C27.2408474,95.3556446 24.7484811,95.4014556 23.8700459,95.3017111 Z M24.5464493,85.97452 C21.100599,85.3208548 18.3809999,82.9212033 17.4601268,79.7218756 C17.3705635,79.4107093 15.2550676,66.5531293 12.7590262,51.1494774 C7.81502748,20.638909 8.01211544,22.0423656 8.42781207,20.3069886 C8.80734163,18.7225943 9.5022403,17.4686027 10.6889446,16.2266206 C11.8120309,15.0512195 13.2313776,14.166099 14.7404692,13.7000416 C15.1223416,13.5821063 28.3012894,11.3246977 44.0270204,8.68357626 C74.0110174,3.64779366 73.4372919,3.73463181 75.0322848,3.99068356 C77.9361211,4.45684933 80.6463852,6.50450893 81.7925078,9.09817167 C82.1792663,9.97339763 82.2414289,10.2764131 84.8289344,23.8997261 C86.1386,30.7951666 88.4404978,42.8912067 89.9442652,50.7798193 L92.6783859,65.1227474 L92.633167,66.5157678 C92.594027,67.7215741 92.5448293,68.0405248 92.2671044,68.8890556 C91.8412333,70.1902278 91.1698448,71.3070137 90.2061648,72.3172056 C89.0902626,73.4869763 87.8874526,74.2603507 86.408613,74.7589337 C86.0706467,74.8728793 72.7130267,77.4591478 56.7250204,80.5061974 C25.0522298,86.5425107 26.3648164,86.3194563 24.5464493,85.97452 Z M56.3388707,79.1097911 C72.1467448,76.1038596 85.3354259,73.5720804 85.647053,73.4836141 C85.9586759,73.3951481 86.6308596,73.1075467 87.1407881,72.8444989 C87.877367,72.4645304 88.2594826,72.1750463 88.9998189,71.4361237 C89.7807026,70.6567348 90.0103548,70.3472848 90.4170815,69.5264048 C91.1047496,68.1385026 91.2392285,67.5096452 91.1866815,65.9274907 C91.1477111,64.7541926 90.8665978,63.1747352 88.2851215,49.6247315 C86.7129937,41.3727548 84.4139896,29.2846951 83.1762152,22.7623753 C81.66638,14.8064369 80.8380889,10.6705689 80.6594533,10.1955096 C79.7644078,7.81525919 77.5815515,5.97762996 75.0663122,5.48694222 C73.5301296,5.18725404 73.6805444,5.16462056 43.9253885,10.1727806 C28.5424575,12.761917 15.7181158,14.9483419 15.4268513,15.0315001 C14.5796286,15.2733909 13.1282132,16.0528282 12.3951006,16.6596084 C11.2549808,17.6032583 10.3946664,18.9065022 9.94178559,20.3760088 C9.5708843,21.5795074 9.63375633,22.7210696 10.2947233,26.7842098 C10.6084071,28.7125067 11.6029889,34.8376838 12.504905,40.3957156 C13.4068214,45.9537474 15.1901844,56.9437941 16.4679325,64.8180389 C18.5550407,77.6800315 18.8237031,79.2132074 19.1118435,79.9060322 C19.9512543,81.9243626 21.5191957,83.4092585 23.6644791,84.2175307 C24.5620886,84.5557237 25.509024,84.6835489 26.6701335,84.6232648 C27.2976717,84.590683 36.8852046,82.8089881 56.3388707,79.1097911 L56.3388707,79.1097911 Z" id="path44" fill="#B1B1B2"></path>
                    <path d="M24.5464493,85.97452 C21.100599,85.3208548 18.3809999,82.9212033 17.4601268,79.7218756 C17.3705635,79.4107093 15.2550676,66.5531293 12.7590262,51.1494774 C7.81502748,20.638909 8.01211544,22.0423656 8.42781207,20.3069886 C8.80734163,18.7225943 9.5022403,17.4686027 10.6889446,16.2266206 C11.8120309,15.0512195 13.2313776,14.166099 14.7404692,13.7000416 C15.1223416,13.5821063 28.3012894,11.3246977 44.0270204,8.68357626 C74.0110174,3.64779366 73.4372919,3.73463181 75.0322848,3.99068356 C77.9361211,4.45684933 80.6463852,6.50450893 81.7925078,9.09817167 C82.1792663,9.97339763 82.2414289,10.2764131 84.8289344,23.8997261 C86.1386,30.7951666 88.4404978,42.8912067 89.9442652,50.7798193 L92.6783859,65.1227474 L92.633167,66.5157678 C92.594027,67.7215741 92.5448293,68.0405248 92.2671044,68.8890556 C91.8412333,70.1902278 91.1698448,71.3070137 90.2061648,72.3172056 C89.0902626,73.4869763 87.8874526,74.2603507 86.408613,74.7589337 C86.0706467,74.8728793 72.7130267,77.4591478 56.7250204,80.5061974 C25.0522298,86.5425107 26.3648164,86.3194563 24.5464493,85.97452 L24.5464493,85.97452 Z M56.3388707,79.1097911 C72.1467448,76.1038596 85.3354259,73.5720804 85.647053,73.4836141 C85.9586759,73.3951481 86.6308596,73.1075467 87.1407881,72.8444989 C87.877367,72.4645304 88.2594826,72.1750463 88.9998189,71.4361237 C89.7807026,70.6567348 90.0103548,70.3472848 90.4170815,69.5264048 C91.1047496,68.1385026 91.2392285,67.5096452 91.1866815,65.9274907 C91.1477111,64.7541926 90.8665978,63.1747352 88.2851215,49.6247315 C86.7129937,41.3727548 84.4139896,29.2846951 83.1762152,22.7623753 C81.66638,14.8064369 80.8380889,10.6705689 80.6594533,10.1955096 C79.7644078,7.81525919 77.5815515,5.97762996 75.0663122,5.48694222 C73.5301296,5.18725404 73.6805444,5.16462056 43.9253885,10.1727806 C28.5424575,12.761917 15.7181158,14.9483419 15.4268513,15.0315001 C14.5796286,15.2733909 13.1282132,16.0528282 12.3951006,16.6596084 C11.2549808,17.6032583 10.3946664,18.9065022 9.94178559,20.3760088 C9.5708843,21.5795074 9.63375633,22.7210696 10.2947233,26.7842098 C10.6084071,28.7125067 11.6029889,34.8376838 12.504905,40.3957156 C13.4068214,45.9537474 15.1901844,56.9437941 16.4679325,64.8180389 C18.5550407,77.6800315 18.8237031,79.2132074 19.1118435,79.9060322 C19.9512543,81.9243626 21.5191957,83.4092585 23.6644791,84.2175307 C24.5620886,84.5557237 25.509024,84.6835489 26.6701335,84.6232648 C27.2976717,84.590683 36.8852046,82.8089881 56.3388707,79.1097911 L56.3388707,79.1097911 Z M21.9303797,60.1442852 C20.5039067,59.796633 19.2277355,58.7035311 18.4901366,57.1975489 C17.7891852,55.7663889 17.6785743,55.2021356 17.6785743,53.0575322 C17.6785743,51.357527 17.7046676,51.0955493 17.9788645,50.0426852 C18.7039599,47.2584478 20.5669406,43.5655419 22.7232874,40.6380178 C23.5748611,39.4818952 25.4188043,37.5707533 26.3403938,36.889096 C28.3241098,35.4218316 30.7701617,34.6342663 32.8459304,34.7944774 C33.7698384,34.8657851 34.5514626,35.1529139 34.7298533,35.4865289 C34.7933146,35.6052115 34.8441888,35.8849939 34.8429044,36.1082658 C34.8381959,36.927862 34.3411991,37.6575578 32.2839079,39.8654344 C29.0676486,43.3171111 26.88844,46.1913574 25.8430241,48.360573 C25.5344853,49.0007819 25.476846,49.2224415 25.5251571,49.5829485 C25.628161,50.3515711 26.3281414,50.6323226 27.047262,50.193443 C27.2307412,50.081467 27.8488281,49.3754952 28.4207874,48.6246211 C34.7278027,40.3446889 40.641073,34.2343417 45.6602593,30.8105969 C47.8398567,29.3238216 49.2735333,28.8518949 51.36596,28.9324314 C52.7830126,28.9869734 53.49507,29.1892124 54.2840178,29.7612229 C55.1926133,30.4199811 55.5823063,31.5575996 55.2541126,32.5931865 C54.746503,34.194896 52.5632178,38.1543193 50.0824437,41.9720919 C48.9892622,43.6544374 48.9247141,43.7895496 49.1205207,43.985527 C49.3738852,44.239117 49.6521422,44.0713426 50.870383,42.9304393 C54.4828578,39.5472963 64.3017285,30.9240233 67.7867896,28.073864 C69.2386133,26.8865297 69.7899848,26.5669478 70.386653,26.5669478 C70.9085563,26.5669478 71.2888326,26.7729721 72.3142756,27.6112896 C74.2529785,29.1962129 74.5414519,29.6041485 74.4739426,30.6653019 C74.422033,31.4812214 74.1225759,31.9686928 71.9922607,34.7050794 C68.9007293,38.6761593 67.61193,40.504743 67.0131122,41.7696367 C66.726017,42.3760656 66.6806319,42.589253 66.6806319,43.3313211 C66.6806319,44.1036067 66.7100796,44.2293381 66.9711137,44.5718796 C67.3906767,45.1224333 68.0112048,45.3311937 69.0439152,45.2692144 C70.2920781,45.1943041 70.3917711,45.1357589 75.2373915,41.6321759 C76.6112563,40.6388141 78.5392085,39.232857 79.521733,38.5078259 C80.8794837,37.505907 81.34127,37.2171096 81.4461981,37.3042681 C81.7393315,37.5477615 82.2374556,39.7304067 82.0993115,40.1660374 C81.9125763,40.754903 72.9705952,47.891737 67.240207,52.0254848 C65.1353744,53.5438515 64.5569574,53.8880256 63.3194089,54.3584496 C62.5107356,54.6658519 62.3163993,54.6974244 61.206433,54.7017674 C59.9999633,54.7064719 59.9750389,54.7015541 59.2931204,54.3258033 C57.0925596,53.1131544 56.6895367,49.9973285 58.3102981,46.7274519 C58.5133204,46.3178607 59.4668711,44.5357833 60.4293004,42.767277 C61.6734778,40.4810596 62.1599193,39.4910993 62.1125456,39.3417126 C62.0367322,39.1026344 61.7226233,38.9710807 61.4411204,39.0605026 C61.3363533,39.0937963 60.562423,39.8510356 59.7212804,40.7432826 C52.5924567,48.3052122 46.5534356,54.4643174 45.4548067,55.2934393 C43.9171381,56.4539004 42.5259096,56.9556881 41.1137544,56.8591648 C39.7752756,56.76768 38.8001544,56.1634744 38.2800133,55.1033285 C38.0183537,54.5700126 37.9812981,54.3740026 37.9837667,53.53628 C37.9860967,52.7377011 38.0441037,52.4110426 38.3331307,51.5681004 C38.8347833,50.1050381 40.2780478,47.2381781 41.6537807,44.9720537 C43.4096533,42.079757 43.7665478,41.4506537 43.8974485,41.0170896 C44.0492281,40.5143733 43.9594378,40.2909848 43.6055926,40.2909848 C42.8090719,40.2909848 41.6592526,41.5297663 31.725231,53.0905485 C29.0708408,56.1796107 26.9217881,58.5860748 26.5725119,58.8604489 C25.0282423,60.0735485 23.4411442,60.5124804 21.9303797,60.1442852 L21.9303797,60.1442852 Z" id="path42" fill="#4EC9ED"></path>
                </g>
            </g>
        </g>
    </g>
</svg>