<?xml version="1.0" encoding="UTF-8"?>
<svg width="100px" height="100px" viewBox="0 0 100 100" version="1.1" xmlns="http://www.w3.org/2000/svg" xmlns:xlink="http://www.w3.org/1999/xlink">
    <!-- Generator: sketchtool 63.1 (101010) - https://sketch.com -->
    <title>app/app_Things</title>
    <desc>Created with sketchtool.</desc>
    <g id="Icons" stroke="none" stroke-width="1" fill="none" fill-rule="evenodd">
        <g id="app/app_Things">
            <rect id="Rectangle" fill="#000000" x="32" y="24" width="43" height="38"></rect>
            <g id="link_things" transform="translate(8.000000, 0.000000)">
                <path d="M12.6342857,16.8862857 C11.6537143,17.2365714 10.9014286,17.9288571 10.6011429,18.7571429 C10.4214286,19.2528571 10.3977143,20.1854286 9.62114286,57.0108571 L9.49314286,63.082 L9.75885714,63.2885714 C11.0074286,64.2591429 13.0397143,64.7937143 15.828,64.8854286 C22.088,65.0911429 25.4091429,66.0168571 27.1434286,68.0394286 C27.8725714,68.8897143 27.9997143,69.2911429 28.2222857,71.4474286 L28.2882857,72.0894286 L42.0468571,72.0894286 L55.8054286,72.0894286 L55.8788571,70.8894286 C56.1128571,67.0597143 59.9322857,65.2282857 68.3951429,64.8882857 C70.8631429,64.7891429 72.668,64.3165714 74.0591429,63.4051429 L74.4782857,63.1311429 L74.4782857,62.1694286 C74.4782857,61.6402857 74.4279989,58.8471429 74.3657131,55.962 C74.3034274,53.0771429 74.1251417,44.7902857 73.9691417,37.5468571 C73.8134274,30.3037143 73.6491417,23.1402857 73.6039989,21.6282857 L73.5217131,18.8794286 L73.1905703,18.3468571 C72.7625703,17.6585714 72.2262846,17.2334286 71.4354274,16.9554286 C70.6294274,16.672 13.4217131,16.6048571 12.6342846,16.8862857 M56.5714274,69.7142857 L56.5714274,90.8571429 L27.142856,90.8571429 L27.142856,69.7142857 L56.5714274,69.7142857 Z M62.7551417,27.3348434 C62.8079989,27.3348434 63.0999989,27.6488571 63.4039989,28.0322857 C64.232856,29.0782857 65.102856,30.2597143 65.1005805,30.3362857 C65.0997143,30.3734286 64.3899989,31.1322857 63.5237131,32.0222857 C60.4214274,35.2102857 56.0659989,40.046 54.3159989,42.2454286 C54.0182846,42.6197143 52.7731417,44.1765714 51.5494274,45.7051429 L51.4085223,45.8811577 C50.2371823,47.3444177 49.1483737,48.7059463 48.9505709,48.9545577 C48.2517137,49.8337006 45.0319994,54.0625577 44.7902851,54.4188434 C44.0208566,55.5537006 42.5982851,57.3985577 42.385428,57.538272 C41.8899994,57.8628434 41.9765709,57.930272 37.2945709,53.5614149 C35.6162851,51.9954149 33.4157137,49.9614149 32.4042851,49.0414149 C27.3968566,44.4859863 26.9739994,44.0445577 27.3088566,43.7211291 C27.999428,43.0537006 30.0257137,41.2377006 30.7525709,40.6348434 C30.9248566,40.4917006 31.035428,40.5439863 31.8128566,41.134272 C33.8851423,42.7074149 38.5819994,46.360272 39.425428,47.054272 L40.1431423,47.6448434 L42.7177137,45.1057006 C48.9711423,38.9385577 62.0548566,27.3348434 62.7551423,27.3348434 L62.7551417,27.3348434 Z" id="Shape" fill="#F7F8F9"></path>
                <path d="M15.4934286,0.108 C8.26714286,0.523714286 3.15714286,4.01457143 1.53342857,9.64514286 C1.15171429,10.9685714 0.851428571,17.3425714 0.481714286,31.9665714 C0.419714286,34.422 0.319142857,37.9374286 0.258285714,39.7791429 C-0.00657142857,47.7897143 0.0194285714,59.19 0.307142857,61.2077143 C0.35,61.5097143 0.382,61.8771429 0.544571429,63.942 C0.724,66.2222857 0.831714286,67.5174286 0.874,67.904 C0.900857143,68.1494286 1.002,69.3297143 1.09914286,70.5268571 C1.19628571,71.7237143 1.44657143,74.6617143 1.65514286,77.0557143 C1.86371429,79.4497143 2.14,82.7394286 2.26914286,84.366 C2.82314286,91.344 3.45285714,93.2931429 5.91085714,95.6382857 L6.67114286,96.3637143 L5.82914286,95.4708571 C4.36285714,93.9162857 3.75714286,92.8168571 3.21571429,90.7277143 C3.14885714,90.4697143 3.16,90.4737143 3.36228571,90.7834286 C4.08714286,91.8928571 5.18771429,92.5985714 5.75285714,92.3168571 L6.06828571,92.1594286 L6.00942857,86.3374286 C5.97714286,83.1354286 5.92485714,77.8788571 5.89285714,74.6562857 L5.83514286,68.7968571 L5.41857143,68.4317143 C5.02171429,68.084 5.03714286,68.0882857 5.74714286,68.5225714 C8.22971429,70.0422857 11.6034286,70.9488571 15.4934286,71.1422857 C21.9868571,71.4648571 24.6682857,72.136 26.7005714,73.9477143 C27.8791429,74.9982857 28.04,75.9348571 28.2705714,83.0825714 C28.5917143,93.0405714 28.5828571,92.9562857 29.366,93.644 C30.7742857,94.8802857 31.102,94.9128571 42.1117143,94.9128571 C53.1557143,94.9128571 53.3311429,94.8945714 54.7048571,93.5917143 C55.4697143,92.8662857 55.51,92.4562857 55.7311429,83.1382857 C55.9077143,75.6928571 55.9457143,75.4554286 57.1414286,74.3045714 C59.1525714,72.3694286 61.8111429,71.6548571 68.898,71.1442857 C72.3068571,70.8985714 74.4762857,70.3871429 76.7657143,69.29 C78.0151429,68.6908571 78.0657143,68.6714286 77.6811429,68.938 L77.3691429,69.1542857 L77.3768571,73.346 C77.3828571,76.6448571 77.3542857,77.5477143 77.2425714,77.5851429 C77.0728571,77.6414286 76.9557143,93.2945714 77.1248571,93.2945714 C77.1788571,93.2945714 77.2834286,93.2342857 77.3571429,93.1608571 C77.4614286,93.0565714 77.4911429,93.0668571 77.4911429,93.2071429 C77.4911429,93.716 79.5791429,92.7142857 80.148,91.9325714 C80.354,91.6497143 80.5348571,91.6805714 80.4442857,91.9831429 C80.1225714,93.0582857 79.1568571,94.5111429 77.9791429,95.6917143 C77.4614286,96.2105714 77.3934286,96.3022857 77.77,95.9737143 C79.6831429,94.3037143 80.7674286,92.2191429 81.282,89.2208571 C81.5185714,87.8434286 81.6408571,86.4137143 83.0748571,68.2388571 C83.2588571,65.9062857 83.4897143,63.0434286 83.5874286,61.8771429 C83.8977143,58.1817143 83.9497143,56.0808571 83.8457143,51.4977143 C83.79,49.0422857 83.72,45.2254286 83.6905714,43.0157143 C83.5414286,31.9085714 82.8448571,11.7785714 82.5622857,10.4105714 C81.2982857,4.29057143 76.0788571,0.563714286 68.1251429,0.101714286 C65.9548571,-0.0242857143 17.6937143,-0.0185714286 15.4934286,0.108 M63.2611429,5.79257143 C70.9908571,5.906 71.5691429,6.00771429 73.546,7.60485714 C75.9202857,9.52314286 75.9714286,9.85485714 76.266,25.27 C76.3342857,28.8302857 76.4865714,35.7108571 76.6051429,40.5602857 C76.9071429,52.9394286 76.9011429,58.8602857 76.586,59.8845714 C75.6771429,62.8362857 73.2417143,64.568 69.6228571,64.8354286 C68.8862857,64.8897143 67.48,64.9911429 66.4977143,65.0605714 C60.836,65.4602857 57.4594286,66.8022857 56.2608571,69.1291429 C55.9188571,69.7925714 55.7245714,72.8062857 55.5085714,80.7945714 C55.3417143,86.964 55.3462857,86.9342857 54.4571429,87.6442857 C52.9782857,88.8254286 52.6165714,88.8645714 42.7254286,88.9151429 C32.4317143,88.9677143 31.8311429,88.9257143 30.154,88.0317143 C28.6697143,87.2405714 28.6437143,87.0854286 28.4414286,77.8928571 C28.3045714,71.6788571 28.0697143,69.3865714 27.4822857,68.5414286 C25.8434286,66.1831429 22.7034286,65.2 15.9954286,64.9451429 C11.5205714,64.7751429 9.52742857,63.864 8.03142857,61.3034286 C7.04714286,59.6191429 6.982,57.4911429 7.39485714,40.5602857 C7.51342857,35.7108571 7.66571429,28.8302857 7.734,25.27 C8.02971429,9.79828571 8.05857143,9.61 10.4545714,7.60085714 C12.2845714,6.066 13.1891429,5.89342857 19.9017143,5.80085714 C27.662,5.69342857 56.1365714,5.688 63.2611429,5.79257143" id="Shape" fill="#346ECF"></path>
                <path d="M20.5714286,5.91428571 C20.6888571,5.99571429 19.8794286,6.01914286 17.8648571,5.99228571 C16.2742857,5.97142857 14.9911429,5.99771429 14.9911429,6.05171429 C14.9911429,6.10514286 14.7902857,6.11514286 14.5445714,6.07371429 C14.2991429,6.03228571 14.0982857,6.04028571 14.0982857,6.09171429 C14.0982857,6.14314286 13.8785714,6.19371429 13.61,6.204 C12.5131429,6.24628571 10.4777143,7.412 9.60714286,8.496 C9.09285714,9.13628571 8.948,9.42885714 9.42457143,8.86371429 C9.866,8.34085714 10.25,7.97028571 10.6382857,7.69257143 L10.9174286,7.49285714 L10.8617143,10.7454286 C10.8245714,12.8977143 10.7622857,14.0731429 10.6774286,14.2208571 C10.6065714,14.3437143 10.5442857,14.482 10.5391429,14.5285714 C10.5122857,14.7602857 10.2045714,15.3551429 10.0417143,15.4902857 C9.94028571,15.5745714 9.85714286,15.6908571 9.85714286,15.7491429 C9.85714286,15.8074286 9.71542857,16.0648571 9.54228571,16.3214286 C8.988,17.142 8.38114286,18.55 8.23428571,19.3548571 C8.09514286,20.1165714 8.09085714,20.0791429 8.06314286,17.8482857 C8.03628571,15.6797143 8.03057143,15.7525714 7.95342857,19.2434286 C7.85285714,23.8137143 7.66542857,31.8842857 7.45485714,40.7277143 C7.096,55.8131429 7.10742857,59.0834286 7.52285714,60.0914286 C7.59885714,60.2757143 7.65285714,60.464 7.64314286,60.51 C7.63314286,60.556 7.67828571,60.5937143 7.74314286,60.5937143 C7.80828571,60.5937143 7.83028571,60.644 7.79228571,60.7054286 C7.75457143,60.7668571 7.78485714,60.8168571 7.86028571,60.8168571 C7.93542857,60.8168571 7.96885714,60.8451429 7.93428571,60.8797143 C7.89971429,60.914 7.99371429,61.074 8.14285714,61.2351429 C8.29228571,61.396 8.38914286,61.5934286 8.35857143,61.6734286 C8.32771429,61.7534286 8.36371429,61.8068571 8.43828571,61.7922857 C8.51257143,61.7777143 8.566,61.8568571 8.55685714,61.9682857 C8.54771429,62.08 8.56885714,62.1425714 8.60371429,62.1077143 C8.63857143,62.0728571 8.74657143,62.1154286 8.84371429,62.2028571 C9.00428571,62.3471429 9.02228571,61.9522857 9.04428571,57.8225714 C9.07742857,51.5762857 9.17628571,44.1234286 9.29914286,38.6071429 C9.35571429,36.0597143 9.43228571,32.092 9.46942857,29.7902857 C9.57828571,23.044 9.71114286,19.7745714 9.906,19.0471429 C10.4805714,16.9005714 12.2551429,15.1754286 14.3531429,14.724 C15.5508571,14.466 69.7431429,14.6225714 70.3482857,14.8857143 C72.2285714,15.7028571 73.2728571,16.7525714 73.9065714,18.462 C74.374,19.7231429 74.4362857,20.5662857 74.5322857,26.9442857 C74.6231429,32.9725714 74.6888571,36.5951429 74.8265714,43.1831429 C74.8954286,46.4671429 74.958,52.126 74.9657143,55.7582857 C74.9785714,61.7714286 74.9957143,62.3482857 75.1562857,62.2031429 C75.2534286,62.1157143 75.3614286,62.0728571 75.3962857,62.1077143 C75.4311429,62.1425714 75.4522857,62.08 75.4431429,61.9682857 C75.434,61.8568571 75.4874286,61.7777143 75.5617143,61.7922857 C75.6362857,61.8068571 75.6722857,61.7534286 75.6414286,61.6734286 C75.6108571,61.5934286 75.7077143,61.396 75.8571429,61.2351429 C76.0062857,61.074 76.1002857,60.914 76.0657143,60.8797143 C76.0311429,60.8451429 76.0645714,60.8168571 76.1397143,60.8168571 C76.2151429,60.8168571 76.2454286,60.7668571 76.2077143,60.7054286 C76.1697143,60.644 76.1917143,60.5937143 76.2568571,60.5937143 C76.3217143,60.5937143 76.3668571,60.556 76.3568571,60.51 C76.3471429,60.464 76.4011429,60.2757143 76.4771429,60.0914286 C76.8925714,59.0834286 76.904,55.8131429 76.5451429,40.7277143 C76.3345714,31.8842857 76.1471429,23.8137143 76.0465714,19.2434286 C75.9691429,15.7454286 75.9637143,15.6751429 75.9362857,17.8482857 C75.908,20.1045714 75.9054286,20.1257143 75.7568571,19.3785714 C75.674,18.962 75.478,18.3405714 75.3211429,17.998 C75.164,17.6551429 75.0357143,17.3354286 75.0357143,17.2871429 C75.0357143,17.2042857 74.1402857,15.6868571 73.9511429,15.4485714 C73.7751429,15.2277143 73.5848571,14.7074286 73.5848571,14.4482857 C73.5848571,14.3028571 73.5337143,14.1668571 73.4714286,14.146 C73.3971429,14.1211429 73.3682857,12.9962857 73.3877143,10.8917143 L73.4174286,7.67514286 L74.0017143,8.26942857 C74.3228571,8.59628571 74.6657143,8.96428571 74.7631429,9.08714286 C74.8608571,9.20971429 74.904,9.23485714 74.8591429,9.14285714 C74.3005714,7.99371429 71.4482857,6.054 70.6771429,6.29885714 C70.548,6.33971429 70.4597143,6.31571429 70.4597143,6.23971429 C70.4597143,6.15457143 70.3434286,6.13742857 70.1111429,6.18828571 C69.8514286,6.24542857 69.7837143,6.23028571 69.8462857,6.12914286 C69.9094286,6.02657143 69.8174286,6.01257143 69.4694286,6.07114286 C69.2162857,6.114 69.0088571,6.10514286 69.0088571,6.05171429 C69.0088571,5.99771429 67.7257143,5.97142857 66.1351429,5.99228571 C64.1205714,6.01914286 63.3111429,5.99571429 63.4285714,5.91428571 C63.5448571,5.83342857 57.0008571,5.798 42,5.798 C26.9991429,5.798 20.4551429,5.83342857 20.5714286,5.91428571" id="Path" fill="#273E60"></path>
                <path d="M10.2277143,25.6608571 C10.2277143,26.0597143 10.248,26.2228571 10.2725714,26.0234286 C10.2974286,25.824 10.2974286,25.4974286 10.2725714,25.298 C10.248,25.0985714 10.2277143,25.2617143 10.2277143,25.6608571 M10.0054286,35.6494286 C10.006,36.0791429 10.026,36.2414286 10.0502857,36.0097143 C10.0742857,35.7782857 10.074,35.4265714 10.0494286,35.2285714 C10.0245714,35.0302857 10.0048571,35.22 10.0054286,35.6494286 M45.9551429,41.9831429 L45.6271429,42.346 L45.99,42.0182857 C46.1894286,41.838 46.3525714,41.6745714 46.3525714,41.6554286 C46.3525714,41.5691429 46.2605714,41.6451429 45.9551429,41.9831429 M74.1794286,45.3594286 C74.18,45.7891429 74.2002857,45.9511429 74.2242857,45.7197143 C74.2485714,45.488 74.248,45.1365714 74.2234286,44.9382857 C74.1988571,44.7402857 74.1788571,44.9297143 74.1794286,45.3594286 M9.67514286,51.2188571 C9.67514286,51.8631429 9.69371429,52.1268571 9.71628571,51.8045714 C9.73885714,51.4822857 9.73885714,50.9551429 9.71628571,50.6328571 C9.69371429,50.3105714 9.67514286,50.5742857 9.67514286,51.2188571 M28.3182857,74.0666 C28.3545714,75.0171543 28.438,77.9971143 28.5034286,80.6884857 C28.6177143,85.3836 28.7288571,87.2629714 28.91,87.5645429 C28.9565714,87.6415171 28.9965714,87.7308674 28.9988571,87.7634683 C29.0094286,87.897192 29.1071083,88.0834397 29.3248571,88.264554 C29.4708989,88.4468423 29.80502,88.553434 30.1877143,88.6310111 C30.5106514,88.7575726 30.8079829,88.8097657 30.8930886,88.8245031 C31.5026,88.9300474 47.8442886,89.6114517 52.2680029,89.075952 C52.7897171,89.0128634 53.31686,88.956114 53.4397171,88.9500766 C53.6254314,88.9407191 54.5881229,88.3242023 54.6674314,88.2588194 C54.7467394,88.193436 54.731312,88.193436 54.7991929,88.1224694 C54.867074,88.0515031 55.1968614,87.4282323 55.1968614,87.3686351 C55.1968614,87.3090383 55.3657186,86.973198 55.5085757,81.3960351 C55.5788614,78.6397551 55.6751471,75.4826066 55.72229,74.3802066 C55.7691471,73.2775151 55.7854329,72.3489951 55.7585757,72.3166951 C55.6951471,72.2409286 28.7305757,72.2059129 28.4574329,72.2813777 C28.2657186,72.3342031 28.2565757,72.4543431 28.31829,74.0665749 L28.3182857,74.0666 Z" id="Shape" fill="#989FAE"></path>
                <path d="M10.5268571,7.52457143 C10.4502857,7.61657143 10.4268571,7.692 10.4745714,7.692 C10.5222857,7.692 10.4705714,7.79228571 10.3594286,7.91514286 C10.1374286,8.16028571 9.906,8.22085714 10.0394286,7.99885714 C10.1002857,7.89771429 10.0731429,7.9 9.94114286,8.00714286 C9.84085714,8.08828571 9.78314286,8.21828571 9.81314286,8.296 C9.84285714,8.37371429 9.78971429,8.502 9.69485714,8.58057143 C9.6,8.65942857 9.52228571,8.68628571 9.52228571,8.64057143 C9.52228571,8.59485714 9.45,8.61742857 9.36142857,8.69085714 C9.27314286,8.76428571 9.22628571,8.89085714 9.25742857,8.97228571 C9.28885714,9.05371429 9.25285714,9.15828571 9.178,9.20457143 C9.09057143,9.25857143 9.07,9.24257143 9.12114286,9.16 C9.16485714,9.08914286 9.17371429,9.03114286 9.14057143,9.03114286 C9.00057143,9.03114286 8.63742857,9.92628571 8.70514286,10.1034286 C8.75828571,10.2414286 8.73885714,10.2705714 8.63657143,10.2074286 C8.52971429,10.1414286 8.514,10.1822857 8.57371429,10.3705714 C8.62942857,10.546 8.61485714,10.598 8.52542857,10.5425714 C8.43514286,10.4868571 8.41771429,10.5568571 8.46657143,10.7797143 C8.52228571,11.034 8.51057143,11.0631429 8.40628571,10.9285714 C8.30457143,10.7971429 8.29085714,10.8691429 8.34314286,11.2634286 C8.392,11.6334286 8.37828571,11.7214286 8.29142857,11.5982857 C8.20514286,11.476 8.18885714,11.6114286 8.23114286,12.1005714 C8.27285714,12.5831429 8.26,12.6922857 8.18571429,12.4911429 C8.11542857,12.3005714 8.096,12.584 8.12514286,13.384 C8.156,14.2317143 8.14085714,14.4322857 8.07028571,14.1094286 C8.00428571,13.8065714 7.98857143,14.13 8.02171429,15.1137143 C8.04857143,15.9117143 8.07514286,17.3682857 8.08114286,18.3505714 L8.09171429,20.1362857 L8.23428571,19.3548571 C8.38114286,18.55 8.988,17.142 9.54228571,16.3214286 C9.71542857,16.0648571 9.85714286,15.8074286 9.85714286,15.7491429 C9.85714286,15.6908571 9.94028571,15.5745714 10.0417143,15.4902857 C10.2045714,15.3551429 10.5122857,14.7602857 10.5391429,14.5285714 C10.5442857,14.482 10.6065714,14.3437143 10.6774286,14.2208571 C10.8397143,13.9388571 10.9714286,7.42542857 10.8114286,7.58571429 C10.638,7.75942857 10.4877143,7.70628571 10.6382857,7.52457143 C10.7148571,7.43257143 10.7522857,7.35714286 10.7214286,7.35714286 C10.6908571,7.35714286 10.6031429,7.43257143 10.5268571,7.52457143 M73.2908571,7.44057143 C73.3365714,7.51714286 73.37,9.06142857 73.3648571,10.8722857 C73.3585714,13.0577143 73.394,14.1651429 73.4702857,14.1651429 C73.5331429,14.1651429 73.5848571,14.2882857 73.5848571,14.4388571 C73.5848571,14.706 73.7728571,15.2248571 73.9511429,15.4485714 C74.1402857,15.6868571 75.0357143,17.2042857 75.0357143,17.2871429 C75.0357143,17.3354286 75.164,17.6551429 75.3211429,17.998 C75.478,18.3405714 75.674,18.962 75.7568571,19.3785714 L75.9077143,20.1362857 L75.9185714,18.3505714 C75.9245714,17.3682857 75.9514286,15.9117143 75.9782857,15.1137143 C76.0114286,14.13 75.9957143,13.8065714 75.9297143,14.1094286 C75.8591429,14.4322857 75.844,14.2317143 75.8748571,13.384 C75.904,12.584 75.8845714,12.3005714 75.8142857,12.4911429 C75.74,12.6922857 75.7271429,12.5831429 75.7688571,12.1005714 C75.8111429,11.6114286 75.7948571,11.476 75.7085714,11.5982857 C75.6217143,11.7214286 75.608,11.6334286 75.6568571,11.2634286 C75.7091429,10.8691429 75.6954286,10.7971429 75.5937143,10.9285714 C75.4894286,11.0631429 75.4777143,11.034 75.5334286,10.7797143 C75.5822857,10.5568571 75.5648571,10.4868571 75.4745714,10.5425714 C75.3851429,10.598 75.3705714,10.546 75.4262857,10.3705714 C75.486,10.1822857 75.4702857,10.1414286 75.3634286,10.2074286 C75.2611429,10.2705714 75.2417143,10.2414286 75.2948571,10.1034286 C75.3625714,9.92628571 74.9994286,9.03114286 74.8594286,9.03114286 C74.8262857,9.03114286 74.8351429,9.08914286 74.8788571,9.16 C74.93,9.24257143 74.9094286,9.25857143 74.822,9.20457143 C74.7471429,9.15828571 74.7111429,9.05371429 74.7425714,8.97228571 C74.7737143,8.89085714 74.7142857,8.758 74.6105714,8.67657143 C74.4377143,8.54142857 74.4354286,8.54771429 74.586,8.75228571 C74.7071429,8.91714286 74.6705714,8.90457143 74.4462857,8.70485714 C74.1382857,8.43 74.0274286,8.16942857 74.2822857,8.31828571 C74.3591429,8.36314286 74.3262857,8.29085714 74.2091429,8.15771429 C73.9717143,7.88685714 73.8134286,7.82 74.0311429,8.08257143 C74.1077143,8.17457143 74.1225714,8.25 74.0642857,8.25 C73.9208571,8.25 73.456,7.74628571 73.5305714,7.67171429 C73.5634286,7.63885714 73.504,7.54228571 73.3985714,7.45685714 C73.2728571,7.35457143 73.2357143,7.34914286 73.2908571,7.44057143 M5.41857143,68.4317143 L5.83514286,68.7968571 L5.89285714,74.6562857 C5.92485714,77.8788571 5.97714286,83.1354286 6.00942857,86.3374286 L6.06828571,92.1594286 L5.75285714,92.3168571 C5.19371429,92.5957143 4.05142857,91.8691429 3.39057143,90.8142857 L3.2,90.51 L3.20828571,90.8868571 C3.21285714,91.094 3.262,91.2354286 3.31771429,91.2014286 C3.37342857,91.1671429 3.39085714,91.2477143 3.356,91.38 C3.31628571,91.5328571 3.336,91.5942857 3.41057143,91.5482857 C3.48571429,91.5017143 3.508,91.5805714 3.472,91.768 C3.44142857,91.9285714 3.45542857,92.036 3.50371429,92.0062857 C3.62542857,91.9308571 3.75085714,92.3708571 3.65285714,92.5297143 C3.59942857,92.6162857 3.62171429,92.6291429 3.72057143,92.568 C3.82857143,92.5011429 3.84857143,92.528 3.79485714,92.6682857 C3.74514286,92.7974286 3.76342857,92.8337143 3.85057143,92.78 C3.93771429,92.726 3.956,92.7625714 3.90628571,92.8914286 C3.85685714,93.0205714 3.87514286,93.0568571 3.96228571,93.0031429 C4.04942857,92.9491429 4.06742857,92.9857143 4.018,93.1148571 C3.96857143,93.2437143 3.98657143,93.2802857 4.07371429,93.2262857 C4.16085714,93.1725714 4.17914286,93.2088571 4.12971429,93.338 C4.086,93.4517143 4.10085714,93.5017143 4.16657143,93.4611429 C4.26771429,93.3988571 4.32628571,93.5522857 4.28714286,93.7771429 C4.27857143,93.828 4.32285714,93.8374286 4.38571429,93.7985714 C4.49028571,93.734 4.55,93.8842857 4.51057143,94.112 C4.50171429,94.1625714 4.54057143,94.1754286 4.59714286,94.1405714 C4.70742857,94.0725714 4.888,94.3934286 4.84314286,94.578 C4.82828571,94.6394286 4.85114286,94.6548571 4.89371429,94.6122857 C4.97228571,94.5337143 5.458,95.0425714 5.50028571,95.2477143 C5.53914286,95.4357143 5.74771429,95.6391429 5.842,95.5808571 C5.89114286,95.5505714 6.14257143,95.7645714 6.40085714,96.0565714 C6.65914286,96.3482857 6.916,96.574 6.97171429,96.558 C7.02742857,96.5422857 7.102,96.604 7.13685714,96.6954286 C7.22857143,96.9342857 7.93171429,97.3428571 8.08657143,97.2474286 C8.16714286,97.1974286 8.18771429,97.2145714 8.14,97.292 C7.86914286,97.73 11.6771429,99.104 14.6005714,99.6228571 C16.1017143,99.8891429 67.2722857,99.936 69.1205714,99.6725714 C72.136,99.2428571 76.1071429,97.7534286 76.7337143,96.8177143 C76.7774286,96.7522857 76.8528571,96.6977143 76.9011429,96.6965714 C76.9494286,96.6954286 77.3205714,96.3574286 77.726,95.9454286 C78.1314286,95.5337143 78.4997143,95.2334286 78.5445714,95.278 C78.5891429,95.3228571 78.6091429,95.3068571 78.5885714,95.2425714 C78.5388571,95.086 79.1191429,94.402 79.218,94.5005714 C79.2605714,94.5431429 79.2831429,94.528 79.2682857,94.4665714 C79.2237143,94.282 79.4042857,93.9608571 79.5145714,94.0291429 C79.5708571,94.064 79.61,94.0511429 79.6011429,94.0005714 C79.562,93.7754286 79.6208571,93.622 79.722,93.6845714 C79.7874286,93.7248571 79.8022857,93.6748571 79.7588571,93.5611429 C79.7048571,93.4208571 79.7248571,93.394 79.8331429,93.4608571 C79.9274286,93.5191429 79.954,93.5091429 79.9068571,93.4328571 C79.8325714,93.3122857 80.3117143,92.2465714 80.4008571,92.3348571 C80.4271429,92.3608571 80.454,92.236 80.4605714,92.0571429 C80.474,91.6865714 80.3602857,91.6411429 80.148,91.9325714 C79.5791429,92.7142857 77.4911429,93.716 77.4911429,93.2071429 C77.4911429,93.0668571 77.4614286,93.0565714 77.3571429,93.1605714 C77.2834286,93.2342857 77.1788571,93.2945714 77.1248571,93.2945714 C76.9557143,93.2945714 77.0728571,77.6414286 77.2425714,77.5851429 C77.3542857,77.5477143 77.3828571,76.6448571 77.3768571,73.346 L77.3691429,69.1542857 L77.6811429,68.938 C78.0657143,68.6714286 78.0151429,68.6908571 76.7657143,69.29 C74.4762857,70.3871429 72.3068571,70.8985714 68.898,71.1442857 C61.8111429,71.6548571 59.1525714,72.3694286 57.1414286,74.3045714 C55.9457143,75.4554286 55.9077143,75.6928571 55.7311429,83.1382857 C55.51,92.4562857 55.4697143,92.8662857 54.7048571,93.5917143 C53.3311429,94.8945714 53.1557143,94.9128571 42.1117143,94.9128571 C31.81,94.9128571 31.8414286,94.9148571 30.3371429,94.2471429 C28.5322857,93.446 28.62,93.9208571 28.2705714,83.0825714 C28.04,75.9348571 27.8791429,74.9982857 26.7005714,73.9477143 C24.6682857,72.136 21.9868571,71.4648571 15.4934286,71.1422857 C11.6034286,70.9488571 8.22971429,70.0422857 5.74714286,68.5225714 C5.03714286,68.0882857 5.02171429,68.084 5.41857143,68.4317143" id="Shape" fill="#20498E"></path>
                <path d="M5.83942857,95.6734286 C5.83942857,95.6925714 6.00257143,95.8557143 6.202,96.036 L6.56485714,96.3637143 L6.23685714,96.0011429 C5.93142857,95.6631429 5.83942857,95.5871429 5.83942857,95.6734286 M8.44742857,97.2977143 C8.26428571,97.4311429 8.29085714,97.6417143 8.48171429,97.5685714 C8.60457143,97.5214286 8.63942857,97.5408571 8.58628571,97.6271429 C8.53228571,97.7142857 8.56885714,97.7322857 8.69771429,97.6828571 C8.82685714,97.6334286 8.86314286,97.6514286 8.80942857,97.7385714 C8.75542857,97.8257143 8.792,97.844 8.92085714,97.7945714 C9.05,97.7448571 9.08657143,97.7631429 9.03257143,97.8502857 C8.97885714,97.9374286 9.01514286,97.9557143 9.14428571,97.906 C9.27314286,97.8565714 9.30971429,97.8748571 9.25571429,97.962 C9.202,98.0491429 9.23828571,98.0671429 9.36742857,98.0177143 C9.49657143,97.9682857 9.53285714,97.9862857 9.47914286,98.0734286 C9.42514286,98.1605714 9.46171429,98.1788571 9.59057143,98.1294286 C9.71971429,98.0797143 9.756,98.098 9.70228571,98.1851429 C9.64828571,98.2722857 9.68485714,98.2905714 9.81371429,98.2408571 C9.93628571,98.194 9.97857143,98.2108571 9.93114286,98.2877143 C9.88314286,98.3654286 9.94171429,98.3854286 10.0977143,98.3448571 C10.2771429,98.298 10.3154286,98.3191429 10.248,98.4282857 C10.1874286,98.526 10.2008571,98.5477143 10.2885714,98.4937143 C10.4508571,98.3934286 11.22,98.6351429 11.1414286,98.762 C11.1102857,98.8125714 11.1928571,98.8257143 11.3254286,98.7911429 C11.4797143,98.7508571 11.5397143,98.7708571 11.4928571,98.8471429 C11.4457143,98.9231429 11.5057143,98.9431429 11.6602857,98.9028571 C11.8025714,98.8657143 11.8734286,98.8842857 11.8337143,98.9488571 C11.7931429,99.014 11.9094286,99.0402857 12.1231429,99.0142857 C12.4114286,98.9791429 12.4477143,98.9957143 12.3125714,99.1008571 C12.1711429,99.2105714 12.178,99.2202857 12.3554286,99.1622857 C12.6571429,99.0637143 13.3817143,99.212 13.1885714,99.3328571 C13.1002857,99.3877143 13.2231429,99.4011429 13.4842857,99.3648571 C13.8042857,99.3205714 13.8848571,99.3351429 13.7691429,99.416 C13.6531429,99.4974286 13.7477143,99.5151429 14.104,99.4794286 C14.4157143,99.448 14.5234286,99.4634286 14.3934286,99.5205714 C14.132,99.6354286 12.2377143,99.6208571 34.8014286,99.6802857 C45.3594286,99.7082857 52.1142857,99.7014286 49.8125714,99.6651429 C46.1342857,99.6071429 45.8774286,99.5922857 47.692,99.544 C50.2354286,99.476 43.9417143,99.3637143 28.7188571,99.2057143 C23.102,99.1474286 18.356,99.0777143 18.172,99.0508571 C17.9877143,99.024 17.2594286,98.9708571 16.5537143,98.9325714 C14.3754286,98.8145714 11.8268571,98.2754286 10.1605714,97.5797143 C9.48085714,97.296 8.64,97.1577143 8.44742857,97.2977143 M18.1997143,99.8505714 C18.5834286,99.8722857 19.2111429,99.8722857 19.5948571,99.8505714 C19.9785714,99.8285714 19.6645714,99.8108571 18.8974286,99.8108571 C18.13,99.8108571 17.816,99.8285714 18.1997143,99.8505714 M64.6842857,99.8502857 C65.0371429,99.8725714 65.6145714,99.8725714 65.9677143,99.8502857 C66.3205714,99.8282857 66.0317143,99.81 65.326,99.81 C64.62,99.81 64.3311429,99.8282857 64.6842857,99.8502857" id="Shape" fill="#0C347E"></path>
            </g>
        </g>
    </g>
</svg>