<?xml version="1.0" encoding="UTF-8" standalone="no"?>
<svg
   viewBox="0 0 24 24"
   version="1.1"
   id="svg206"
   xml:space="preserve"
   xmlns="http://www.w3.org/2000/svg"
   xmlns:svg="http://www.w3.org/2000/svg"><defs
     id="defs210" /><rect
     x="6.9409437"
     y="10.333501"
     width="4.5"
     height="3.3329999"
     rx="0.82000005"
     style="fill:#0071bc;stroke-width:0.577322"
     id="rect191" /><path
     d="m 5.0028188,16.109292 a 0.31999889,0.426624 0 0 1 0.3199989,0.426624 v 1.146552 A 0.31999889,0.426624 0 0 1 5.0028188,18.109092 H 2.1428285 A 0.31999889,0.426624 0 0 1 1.8228296,17.682468 v -1.146552 a 0.31999889,0.426624 0 0 1 0.3199989,-0.426624 h 2.8599903 m 0,-0.6666 H 2.1428285 a 0.82499717,1.09989 0 0 0 -0.819997,1.093224 v 1.146552 a 0.81999718,1.093224 0 0 0 0.819997,1.093224 H 5.0028188 A 0.81499721,1.086558 0 0 0 5.8228159,17.682468 V 16.535916 A 0.81999718,1.093224 0 0 0 5.0028188,15.442692 Z"
     style="fill:#0071bc;stroke-width:0.57732"
     id="path103-8" /><path
     d="m 10.620931,16.109292 a 0.31999889,0.426624 0 0 1 0.319999,0.426624 v 1.146552 a 0.31999889,0.426624 0 0 1 -0.319999,0.426624 H 7.7609409 A 0.31999889,0.426624 0 0 1 7.440942,17.682468 v -1.146552 a 0.31999889,0.426624 0 0 1 0.3199989,-0.426624 h 2.8599901 m 0,-0.6666 H 7.7609409 a 0.82499717,1.09989 0 0 0 -0.819997,1.093224 v 1.146552 a 0.81999718,1.093224 0 0 0 0.819997,1.093224 h 2.8599901 a 0.81499721,1.086558 0 0 0 0.819997,-1.093224 v -1.146552 a 0.81999718,1.093224 0 0 0 -0.819997,-1.093224 z"
     style="fill:#0071bc;stroke-width:0.57732"
     id="path103-8-0" /><rect
     x="-17.059055"
     y="10.333501"
     width="4.5"
     height="3.3329999"
     rx="0.82000005"
     style="fill:#0071bc;stroke-width:0.577322"
     id="rect191-4"
     transform="scale(-1,1)" /><path
     d="m 13.379068,16.109292 a 0.31999889,0.426624 0 0 0 -0.319999,0.426624 v 1.146552 a 0.31999889,0.426624 0 0 0 0.319999,0.426624 h 2.85999 a 0.31999889,0.426624 0 0 0 0.319999,-0.426624 v -1.146552 a 0.31999889,0.426624 0 0 0 -0.319999,-0.426624 h -2.85999 m 0,-0.6666 h 2.85999 a 0.82499717,1.09989 0 0 1 0.819998,1.093224 v 1.146552 a 0.81999718,1.093224 0 0 1 -0.819998,1.093224 h -2.85999 a 0.81499721,1.086558 0 0 1 -0.819997,-1.093224 v -1.146552 a 0.81999718,1.093224 0 0 1 0.819997,-1.093224 z"
     style="fill:#0071bc;stroke-width:0.57732"
     id="path103-46-3-5-5-9" /><path
     d="m 18.99718,16.109292 a 0.31999889,0.426624 0 0 0 -0.319999,0.426624 v 1.146552 a 0.31999889,0.426624 0 0 0 0.319999,0.426624 h 2.85999 a 0.31999889,0.426624 0 0 0 0.319999,-0.426624 V 16.535916 A 0.31999889,0.426624 0 0 0 21.85717,16.109292 h -2.85999 m 0,-0.6666 h 2.85999 a 0.82499717,1.09989 0 0 1 0.819998,1.093224 v 1.146552 a 0.81999718,1.093224 0 0 1 -0.819998,1.093224 h -2.85999 a 0.81499721,1.086558 0 0 1 -0.819997,-1.093224 v -1.146552 a 0.81999718,1.093224 0 0 1 0.819997,-1.093224 z"
     style="fill:#0071bc;stroke-width:0.57732"
     id="path103-8-9" /><rect
     x="0.43639565"
     y="-12.157206"
     width="23.127209"
     height="0.34628978"
     style="fill:#333333;stroke-width:0.66703"
     id="rect619"
     transform="rotate(90)" /></svg>
