<?xml version="1.0" encoding="UTF-8" standalone="no"?>
<svg
   viewBox="0 0 24 24"
   version="1.1"
   id="svg206"
   xml:space="preserve"
   xmlns="http://www.w3.org/2000/svg"
   xmlns:svg="http://www.w3.org/2000/svg"><defs
     id="defs210" /><rect
     x="9.0002995"
     y="7.7168097"
     width="5.9994001"
     height="3.3329999"
     rx="1.093224"
     style="fill:#0071bc;stroke-width:0.6666"
     id="rect191" /><path
     d="m 21.032846,3.2741974 a 0.426624,0.426624 0 0 1 0.426624,0.426624 v 1.146552 a 0.426624,0.426624 0 0 1 -0.426624,0.426624 H 17.219894 A 0.426624,0.426624 0 0 1 16.79327,4.8473734 v -1.146552 a 0.426624,0.426624 0 0 1 0.426624,-0.426624 h 3.812952 m 0,-0.6666 h -3.812952 a 1.09989,1.09989 0 0 0 -1.093224,1.093224 v 1.146552 a 1.093224,1.093224 0 0 0 1.093224,1.093224 h 3.812952 a 1.086558,1.086558 0 0 0 1.093224,-1.093224 v -1.146552 a 1.093224,1.093224 0 0 0 -1.093224,-1.093224 z"
     style="fill:#0071bc;stroke-width:0.6666"
     id="path103-46" /><path
     d="m 21.032846,8.3833891 a 0.426624,0.426624 0 0 1 0.426624,0.426624 v 1.146552 A 0.426624,0.426624 0 0 1 21.032846,10.383189 H 17.219894 A 0.426624,0.426624 0 0 1 16.79327,9.9565651 v -1.146552 a 0.426624,0.426624 0 0 1 0.426624,-0.426624 h 3.812952 m 0,-0.6666 h -3.812952 a 1.09989,1.09989 0 0 0 -1.093224,1.093224 v 1.146552 a 1.093224,1.093224 0 0 0 1.093224,1.0932239 h 3.812952 A 1.086558,1.086558 0 0 0 22.12607,9.9565651 v -1.146552 a 1.093224,1.093224 0 0 0 -1.093224,-1.093224 z"
     style="fill:#0071bc;stroke-width:0.6666"
     id="path103-46-3" /><rect
     x="8.986167"
     y="-16.28319"
     width="5.9994001"
     height="3.3329999"
     rx="1.093224"
     style="fill:#0071bc;stroke-width:0.6666"
     id="rect191-3"
     transform="scale(1,-1)" /><path
     d="m 21.018712,20.725803 a 0.426624,0.426624 0 0 0 0.426624,-0.426624 V 19.152627 A 0.426624,0.426624 0 0 0 21.018712,18.726003 H 17.20576 a 0.426624,0.426624 0 0 0 -0.426624,0.426624 v 1.146552 a 0.426624,0.426624 0 0 0 0.426624,0.426624 h 3.812952 m 0,0.6666 H 17.20576 a 1.09989,1.09989 0 0 1 -1.093224,-1.093224 v -1.146552 a 1.093224,1.093224 0 0 1 1.093224,-1.093224 h 3.812952 a 1.086558,1.086558 0 0 1 1.093224,1.093224 v 1.146552 a 1.093224,1.093224 0 0 1 -1.093224,1.093224 z"
     style="fill:#0071bc;stroke-width:0.6666"
     id="path103-46-6" /><path
     d="m 21.018712,15.616611 a 0.426624,0.426624 0 0 0 0.426624,-0.426624 V 14.043435 A 0.426624,0.426624 0 0 0 21.018712,13.616811 H 17.20576 a 0.426624,0.426624 0 0 0 -0.426624,0.426624 v 1.146552 a 0.426624,0.426624 0 0 0 0.426624,0.426624 h 3.812952 m 0,0.6666 H 17.20576 a 1.09989,1.09989 0 0 1 -1.093224,-1.093224 v -1.146552 a 1.093224,1.093224 0 0 1 1.093224,-1.093224 h 3.812952 a 1.086558,1.086558 0 0 1 1.093224,1.093224 v 1.146552 a 1.093224,1.093224 0 0 1 -1.093224,1.093224 z"
     style="fill:#0071bc;stroke-width:0.6666"
     id="path103-46-3-9" /><rect
     x="0.36572412"
     y="11.826855"
     width="23.127209"
     height="0.34628978"
     style="fill:#333333;stroke-width:0.66703"
     id="rect619" /></svg>
