<?xml version="1.0" encoding="UTF-8"?>
<svg width="100px" height="100px" viewBox="0 0 100 100" version="1.1" xmlns="http://www.w3.org/2000/svg" xmlns:xlink="http://www.w3.org/1999/xlink">
    <!-- Generator: sketchtool 63.1 (101010) - https://sketch.com -->
    <title>user/user_male_suit</title>
    <desc>Created with sketchtool.</desc>
    <g id="Icons" stroke="none" stroke-width="1" fill="none" fill-rule="evenodd">
        <g id="user/user_male_suit" stroke="#383838">
            <g id="Person/Male/Business/White" transform="translate(7.136061, 7.136061)">
                <g id="Group-2" transform="translate(1.562641, 1.406377)">
                    <path d="M39.834335,35.9157072 C22.0778201,36.4204224 8.14984058,65.5394564 14.7184362,75.4140395 C21.2870318,85.2886226 59.8280685,85.2886226 66.106891,75.4140395 C72.3857135,65.5394564 58.167961,35.3944522 39.834335,35.9157072 Z" id="Path" stroke-width="1.5" fill="#FFFFFF" fill-rule="nonzero"></path>
                    <polygon id="Path" stroke-width="1.5" fill="#FF8080" fill-rule="nonzero" points="41.179767 53.7519975 45.3828194 58.1067301 43.0084295 72.1460569 53.3529885 78.0830409 57.2238007 68.6746491 49.8706231 57.3906588 51.4263609 51.4950778 41.1793403 53.7523623"></polygon>
                    <path d="M23.1953428,15.6239483 C29.8073018,4.83381135 42.8032168,1.6840756 52.8200883,8.44399054 C62.8369597,15.2039055 66.3948105,29.5249983 60.9303616,41.0895357 C55.4659128,52.6540732 42.8775771,57.4444009 32.2347108,52.0092931 C21.5918444,46.5741854 16.5919024,32.8018616 20.8371287,20.6146906" id="Path" stroke-width="1.5" fill="#FFCCAA" fill-rule="nonzero"></path>
                    <path d="M32.4167865,16.8042565 C32.4167865,16.8042565 40.5289227,25.4364147 49.5779175,25.4364147 C58.0887817,25.4364147 66.3920638,19.1994013 66.3920638,19.1994013 C66.3920638,19.1994013 62.0585906,1.85091633 48.2599845,0.309045628 C34.4816497,-1.23044639 18.5240076,2.70534934 14.0771252,18.384552 C9.57813419,34.2472787 21.5111194,44.9244893 21.5111194,44.9244893 L25.2451005,28.3853644 L30.2125208,28.5127883 L32.4168474,16.8054275 L32.4167865,16.8042565 Z" id="Path" stroke-width="1.5" fill="#918A6F" fill-rule="nonzero"></path>
                    <path d="M29.2605982,29.5063354 C27.5162426,24.5881545 21.6555489,26.2649598 21.3278032,31.7098574 C20.954032,37.914251 28.7438158,38.9651182 28.7438158,38.9651182" id="Path" stroke-width="1.5" fill="#FFCCAA" fill-rule="nonzero"></path>
                </g>
            </g>
        </g>
    </g>
</svg>