<?xml version="1.0" encoding="UTF-8"?>
<svg width="100px" height="100px" viewBox="0 0 100 100" version="1.1" xmlns="http://www.w3.org/2000/svg" xmlns:xlink="http://www.w3.org/1999/xlink">
    <!-- Generator: sketchtool 63.1 (101010) - https://sketch.com -->
    <title>file/file_html</title>
    <desc>Created with sketchtool.</desc>
    <g id="Icons" stroke="none" stroke-width="1" fill="none" fill-rule="evenodd">
        <g id="file/file_html" fill-rule="nonzero">
            <g id="html" transform="translate(11.000000, 0.000000)">
                <path d="M55.3303571,0 L3.50535714,0 C2.0625,0 0.892857143,1.16964286 0.892857143,3.43928571 L0.892857143,98.2142857 C0.892857143,98.8303571 2.0625,100 3.50535714,100 L75.0660714,100 C76.5089286,100 77.6785714,98.8303571 77.6785714,98.2142857 L77.6785714,23.175 C77.6785714,21.9321429 77.5125,21.5321429 77.2196429,21.2375 L56.4410714,0.458928571 C56.1464286,0.166071429 55.7464286,0 55.3303571,0 Z" id="Path" fill="#E9E9E0"></path>
                <polygon id="Path" fill="#D9D7CA" points="56.25 0.269642857 56.25 21.4285714 77.4089286 21.4285714"></polygon>
                <path d="M75.0660714,100 L3.50535714,100 C2.0625,100 0.892857143,98.8303571 0.892857143,97.3875 L0.892857143,69.6428571 L77.6785714,69.6428571 L77.6785714,97.3875 C77.6785714,98.8303571 76.5089286,100 75.0660714,100 Z" id="Path" fill="#EC6630"></path>
                <g id="Group" transform="translate(6.357143, 76.000000)" fill="#FFFFFF">
                    <polygon id="Path" points="14.0982143 0.65 14.0982143 18.6428571 11.1678571 18.6428571 11.1678571 10.5375 3.38035714 10.5375 3.38035714 18.6428571 0.401785714 18.6428571 0.401785714 0.65 3.38035714 0.65 3.38035714 8.53571429 11.1678571 8.53571429 11.1678571 0.65 14.0982143 0.65"></polygon>
                    <polygon id="Path" points="31.3339286 0.65 31.3339286 2.65178571 25.9642857 2.65178571 25.9642857 18.6428571 23.0107143 18.6428571 23.0107143 2.65178571 17.6392857 2.65178571 17.6392857 0.65"></polygon>
                    <polygon id="Path" points="48.4732143 0.65 51.4517857 0.65 51.4517857 18.6428571 48.4732143 18.6428571 48.4732143 6.26428571 44.4446429 16.2732143 41.8571429 16.2732143 37.8035714 6.26428571 37.8035714 18.6428571 34.825 18.6428571 34.825 0.65 37.8035714 0.65 43.15 12.9553571"></polygon>
                    <polygon id="Path" points="58.9464286 0.65 58.9464286 16.4214286 67.2232143 16.4214286 67.2232143 18.6428571 55.9678571 18.6428571 55.9678571 0.65"></polygon>
                </g>
                <g id="Group" transform="translate(16.071429, 28.571429)" fill="#EC6630">
                    <path d="M14.6553571,0.523214286 C13.9571429,-0.175 12.8285714,-0.175 12.1303571,0.523214286 L1.41607143,11.2375 C0.717857143,11.9357143 0.717857143,13.0642857 1.41607143,13.7625 L12.1303571,24.4767857 C12.4785714,24.825 12.9357143,25 13.3928571,25 C13.85,25 14.3071429,24.825 14.6553571,24.4767857 C15.3535714,23.7785714 15.3535714,22.65 14.6553571,21.9517857 L5.20357143,12.5 L14.6553571,3.04821429 C15.3535714,2.35 15.3535714,1.22142857 14.6553571,0.523214286 Z" id="Path"></path>
                    <path d="M46.7982143,11.2375 L36.0839286,0.523214286 C35.3857143,-0.175 34.2571429,-0.175 33.5589286,0.523214286 C32.8607143,1.22142857 32.8607143,2.35 33.5589286,3.04821429 L43.0107143,12.5 L33.5589286,21.9517857 C32.8607143,22.65 32.8607143,23.7785714 33.5589286,24.4767857 C33.9071429,24.825 34.3642857,25 34.8214286,25 C35.2785714,25 35.7357143,24.825 36.0839286,24.4767857 L46.7982143,13.7625 C47.4964286,13.0642857 47.4964286,11.9357143 46.7982143,11.2375 Z" id="Path"></path>
                </g>
            </g>
        </g>
    </g>
</svg>