<?xml version="1.0" encoding="UTF-8"?>
<svg width="100px" height="100px" viewBox="0 0 100 100" version="1.1" xmlns="http://www.w3.org/2000/svg" xmlns:xlink="http://www.w3.org/1999/xlink">
    <!-- Generator: sketchtool 63.1 (101010) - https://sketch.com -->
    <title>file/file_png_image_graphic</title>
    <desc>Created with sketchtool.</desc>
    <g id="Icons" stroke="none" stroke-width="1" fill="none" fill-rule="evenodd">
        <g id="file/file_png_image_graphic" fill-rule="nonzero">
            <g id="file_png" transform="translate(11.000000, 0.000000)">
                <path d="M55.3303571,0 L3.50535714,0 C2.0625,0 0.892857143,1.16964286 0.892857143,3.43928571 L0.892857143,98.2142857 C0.892857143,98.8303571 2.0625,100 3.50535714,100 L75.0660714,100 C76.5089286,100 77.6785714,98.8303571 77.6785714,98.2142857 L77.6785714,23.175 C77.6785714,21.9321429 77.5125,21.5321429 77.2196429,21.2375 L56.4410714,0.458928571 C56.1464286,0.166071429 55.7464286,0 55.3303571,0 Z" id="Path" fill="#E9E9E0"></path>
                <path d="M75.0660714,100 L3.50535714,100 C2.0625,100 0.892857143,98.8303571 0.892857143,97.3875 L0.892857143,69.6428571 L77.6785714,69.6428571 L77.6785714,97.3875 C77.6785714,98.8303571 76.5089286,100 75.0660714,100 Z" id="Path" fill="#659C35"></path>
                <polygon id="Path" fill="#D9D7CA" points="56.25 0.269642857 56.25 21.4285714 77.4089286 21.4285714"></polygon>
                <g id="Group" transform="translate(17.071429, 76.000000)" fill="#FFFFFF">
                    <path d="M3.25892857,18.6428571 L0.328571429,18.6428571 L0.328571429,0.65 L5.50357143,0.65 C6.26785714,0.65 7.025,0.771428571 7.77321429,1.01607143 C8.52142857,1.26071429 9.19285714,1.62678571 9.7875,2.11428571 C10.3821429,2.60178571 10.8625,3.19285714 11.2285714,3.88392857 C11.5946429,4.575 11.7785714,5.35178571 11.7785714,6.21607143 C11.7785714,7.12857143 11.6232143,7.95357143 11.3142857,8.69464286 C11.0053571,9.43571429 10.5732143,10.0589286 10.0196429,10.5625 C9.46607143,11.0660714 8.79821429,11.4571429 8.01785714,11.7339286 C7.2375,12.0107143 6.37321429,12.1482143 5.43035714,12.1482143 L3.25714286,12.1482143 L3.25714286,18.6428571 L3.25892857,18.6428571 Z M3.25892857,2.87142857 L3.25892857,10 L5.94464286,10 C6.30178571,10 6.65535714,9.93928571 7.00714286,9.81607143 C7.35714286,9.69464286 7.67857143,9.49464286 7.97142857,9.21785714 C8.26428571,8.94107143 8.5,8.55535714 8.67857143,8.05892857 C8.85714286,7.5625 8.94642857,6.94821429 8.94642857,6.21607143 C8.94642857,5.92321429 8.90535714,5.58392857 8.825,5.20357143 C8.74285714,4.82142857 8.57678571,4.45535714 8.325,4.10535714 C8.07142857,3.75535714 7.71785714,3.4625 7.2625,3.22678571 C6.80714286,2.99107143 6.20357143,2.87321429 5.45535714,2.87321429 L3.25892857,2.87321429 L3.25892857,2.87142857 Z" id="Shape"></path>
                    <polygon id="Path" points="28.1357143 0.65 28.1357143 18.6428571 25.1571429 18.6428571 18.1017857 6.24107143 18.1017857 18.6428571 15.1232143 18.6428571 15.1232143 0.65 18.1017857 0.65 25.1571429 13.0517857 25.1571429 0.65"></polygon>
                    <path d="M45.7142857,9.36607143 L45.7142857,16.3232143 C45.3392857,16.7964286 44.9214286,17.1803571 44.4571429,17.4821429 C43.9928571,17.7839286 43.5053571,18.0321429 42.9928571,18.2267857 C42.4803571,18.4214286 41.95,18.5607143 41.4053571,18.6428571 C40.8589286,18.725 40.3196429,18.7642857 39.7821429,18.7642857 C38.7071429,18.7642857 37.7196429,18.5696429 36.8160714,18.1785714 C35.9125,17.7875 35.1232143,17.2107143 34.4482143,16.4446429 C33.7732143,15.6785714 33.2428571,14.7196429 32.8607143,13.5642857 C32.4785714,12.4089286 32.2875,11.0732143 32.2875,9.56071429 C32.2875,8.04821429 32.4785714,6.71607143 32.8607143,5.56964286 C33.2428571,4.42142857 33.7714286,3.46607143 34.4482143,2.70178571 C35.1232143,1.93571429 35.9160714,1.35535714 36.8285714,0.955357143 C37.7392857,0.555357143 38.725,0.357142857 39.7821429,0.357142857 C40.7589286,0.357142857 41.6696429,0.519642857 42.5160714,0.844642857 C43.3625,1.17142857 44.1178571,1.65892857 44.7857143,2.30892857 L42.7589286,4.11607143 C42.3678571,3.64285714 41.9196429,3.30178571 41.4160714,3.09107143 C40.9107143,2.88035714 40.3910714,2.77321429 39.8535714,2.77321429 C39.2517857,2.77321429 38.6767857,2.88571429 38.1321429,3.11428571 C37.5857143,3.34285714 37.0982143,3.72857143 36.6678571,4.27321429 C36.2357143,4.81964286 35.8982143,5.52142857 35.6553571,6.38571429 C35.4125,7.25 35.2803571,8.30535714 35.2642857,9.55892857 C35.2803571,10.7803571 35.4071429,11.8375 35.6428571,12.7321429 C35.8785714,13.6267857 36.2035714,14.3589286 36.6196429,14.9285714 C37.0357143,15.4982143 37.5071429,15.9214286 38.0357143,16.1982143 C38.5642857,16.475 39.1214286,16.6125 39.7089286,16.6125 C39.8875,16.6125 40.1267857,16.6 40.4285714,16.575 C40.7285714,16.55 41.0303571,16.5107143 41.3321429,16.4535714 C41.6321429,16.3964286 41.9214286,16.3196429 42.1982143,16.2214286 C42.475,16.1232143 42.6785714,15.9857143 42.8089286,15.8071429 L42.8089286,11.3642857 L39.7571429,11.3642857 L39.7571429,9.3625 L45.7142857,9.3625 L45.7142857,9.36607143 Z" id="Path"></path>
                </g>
                <circle id="Oval" fill="#F3D55B" cx="23.0910714" cy="25.7696429" r="8.15892857"></circle>
                <polygon id="Path" fill="#88C057" points="0.892857143 69.6428571 20.5357143 69.6428571 77.6785714 69.6428571 77.6785714 50 59.8214286 33.0357143 41.0714286 53.5714286 31.2803571 43.7803571"></polygon>
            </g>
        </g>
    </g>
</svg>