<?xml version="1.0" encoding="UTF-8"?>
<svg width="100px" height="100px" viewBox="0 0 100 100" version="1.1" xmlns="http://www.w3.org/2000/svg" xmlns:xlink="http://www.w3.org/1999/xlink">
    <!-- Generator: sketchtool 63.1 (101010) - https://sketch.com -->
    <title>code/file_code_Xcode_playground</title>
    <desc>Created with sketchtool.</desc>
    <g id="Icons" stroke="none" stroke-width="1" fill="none" fill-rule="evenodd">
        <g id="code/file_code_Xcode_playground" fill-rule="nonzero">
            <g id="beach-ball">
                <path d="M41.2378906,30.0769531 C41.2378906,30.0769531 39.8015625,11.1251953 41.8900391,1.79082031 C42.0166016,1.22578125 41.5197266,0.71484375 40.95,0.818945313 C26.8888672,3.38984375 14.8816406,11.8408203 7.57285156,23.5316406 C7.20136719,24.1257812 7.70214844,24.8824219 8.39316406,24.7664062 C15.6101563,23.5542969 29.4208984,22.6455078 41.2378906,30.0769531 Z" id="Path" fill="#FF3F62"></path>
                <g id="Group" fill="#9BC9FF">
                    <path d="M0,50 C0,60.9720703 3.53613281,71.1166016 9.52851563,79.3611328 C10.553125,80.7708984 12.6953125,80.6382812 13.5300781,79.1082031 L41.2376953,28.340625 C41.2376953,28.340625 23.9746094,17.0980469 7.70332031,23.328125 C2.82578125,31.0474609 0,40.1933594 0,50 Z" id="Path"></path>
                    <path d="M75.5107422,27.9111328 C84.4203125,27.7994141 88.2513672,16.6001953 81.3080078,11.0158203 C72.7398437,4.12441406 61.8519531,0 50,0 C46.3648437,0 42.8216797,0.39140625 39.4070312,1.128125 C38.1923828,14.9054687 41.2380859,28.340625 41.2380859,28.340625 L75.5107422,27.9111328 Z" id="Path"></path>
                </g>
                <g id="Group" transform="translate(0.000000, 4.101562)" fill="#57A4FF">
                    <path d="M3.36308594,27.8667969 C3.36308594,27.8583984 3.36347656,27.85 3.36347656,27.8416016 C1.19238281,33.4425781 0,39.5308594 0,45.8984375 C0,58.1966797 4.44257812,69.4554687 11.8072266,78.1638672 L21.3027344,60.765625 C10.509375,53.7998047 3.36308594,41.6681641 3.36308594,27.8667969 Z" id="Path"></path>
                    <path d="M94.7451172,23.5685547 C89.5261719,13.1308594 80.7630859,4.77480469 70.0333984,0.0759765625 C77.1875,7.16640625 81.6195313,16.9984375 81.6195313,27.8667969 C81.6195313,28.0601563 81.6150391,28.2523437 81.6121094,28.4449219 L93.5818359,29.6917969 L94.7451172,23.5685547 Z" id="Path"></path>
                </g>
                <g id="Group" transform="translate(8.984375, 10.351562)" fill="#FFEB99">
                    <path d="M52.1275391,77.7244141 L50.6328125,57.2351563 L32.5705078,17.9892578 C32.5705078,17.9892578 -0.0998046875,21.5095703 0.0112225566,67.8082031 C0.0056640625,67.7994141 0.085546875,68.0759766 0.236914062,68.5878906 C9.2984375,81.3335938 24.1859375,89.6484375 41.015625,89.6484375 C41.0566406,89.6484375 41.0974609,89.6484375 41.1384766,89.6484375 C47.5574219,89.6328125 52.5945312,84.1263672 52.1275391,77.7244141 Z" id="Path"></path>
                    <path d="M91.015625,39.6484375 C91.015625,23.7748047 83.6167969,9.63046875 72.0814453,0.47109375 C40.5916016,-3.27011719 32.2535156,17.9890625 32.2535156,17.9890625 L82.6896484,57.8992188 C84.5755859,59.3916016 87.3658203,58.5806641 88.1675781,56.3132813 C90.0111328,51.1009766 91.015625,45.4923828 91.015625,39.6484375 Z" id="Path"></path>
                </g>
                <g id="Group" transform="translate(8.984375, 10.351562)" fill="#FFE477">
                    <path d="M91.015625,39.6484375 C91.015625,23.7748047 83.6167969,9.63046875 72.0814453,0.47109375 C70.0056641,0.224609375 68.0333984,0.0892578125 66.1546875,0.0466796875 C70.2490234,6.23105469 72.6353516,13.6449219 72.6353516,21.6167969 C72.6353516,30.0478516 69.9685547,37.8558594 65.4328125,44.2439453 L86.3371094,60.7853516 C89.3369141,54.3648438 91.015625,47.203125 91.015625,39.6484375 Z" id="Path"></path>
                    <path d="M2.95996094,46.0669922 C1.11621094,51.9896484 -0.009375,59.1507812 0.0112225566,67.8082031 C0.0056640625,67.7994141 0.085546875,68.0759766 0.236914062,68.5878906 C9.2984375,81.3335938 24.1859375,89.6484375 41.015625,89.6484375 C45.1089844,89.6484375 49.0857422,89.1529297 52.8935547,88.2251953 L50.6330078,57.2351562 L50.4724609,56.8859375 C45.3404297,59.3591797 39.5857422,60.7451172 33.5074219,60.7451172 C21.1488281,60.7451172 10.1306641,55.0140625 2.95996094,46.0669922 Z" id="Path"></path>
                </g>
                <path d="M97.4572266,65.7767578 C96.2304688,61.8019531 85.5238281,31.7277344 41.5101563,28.3408203 C41.5101563,28.3408203 24.7513672,64.5191406 50.2707031,99.9966797 C72.2539062,99.8798828 90.8775391,85.5779297 97.4572266,65.7767578 Z" id="Path" fill="#FF3F62"></path>
                <path d="M80.278125,42.1583984 C75.6804687,58.8458984 60.8503906,70.8529297 42.7052734,71.1369141 C40.9923828,71.1636719 39.1253906,70.9888672 37.4701172,70.7767578 C39.2773438,80.0283203 43.1089844,90.0400391 50.2707031,99.9964844 C72.2537109,99.8794922 90.8777344,85.5779297 97.4572266,65.7767578 C96.7291016,63.4179688 92.6625,51.8679688 80.278125,42.1583984 Z" id="Path" fill="#FF0C38"></path>
                <g id="Group" transform="translate(55.664062, 84.765625)" fill="#C70024">
                    <path d="M15.0753906,3.95546875 C14.6578125,3.2203125 14.8957031,2.28808594 15.6257812,1.86191406 C16.4048828,1.40703125 17.1810547,0.919921875 17.9324219,0.413476563 C18.6339844,-0.0587890625 19.5851562,0.1265625 20.0570312,0.82734375 C20.5292969,1.52851563 20.3439453,2.47988281 19.6431641,2.95195313 C18.8373047,3.49492188 18.0048828,4.01757813 17.16875,4.50546875 C16.9261719,4.64746094 15.7644531,5.16894531 15.0753906,3.95546875 Z" id="Path"></path>
                    <path d="M0.0958984375,8.76640625 C-0.0421875,7.93261719 0.521679687,7.14433594 1.35566406,7.00605469 C4.83984375,6.42851563 8.23671875,5.41503906 11.4519531,3.99394531 C12.225,3.6515625 13.1291016,4.00175781 13.4707031,4.775 C13.8125,5.54824219 13.4626953,6.45214844 12.6896484,6.79375 C9.2390625,8.31914063 5.59414062,9.40644531 1.85644531,10.0261719 C1.77167969,10.0400391 0.390429688,10.5429688 0.0958984375,8.76640625 Z" id="Path"></path>
                </g>
                <ellipse id="Oval" fill="#FFFFFF" transform="translate(41.242967, 28.343378) rotate(-33.502562) translate(-41.242967, -28.343378) " cx="41.2429666" cy="28.3433782" rx="10.2315315" ry="9.00295862"></ellipse>
            </g>
        </g>
    </g>
</svg>