<?xml version="1.0" encoding="UTF-8"?>
<svg width="100px" height="100px" viewBox="0 0 100 100" version="1.1" xmlns="http://www.w3.org/2000/svg" xmlns:xlink="http://www.w3.org/1999/xlink">
    <!-- Generator: sketchtool 63.1 (101010) - https://sketch.com -->
    <title>code/file_code_SwiftUI</title>
    <desc>Created with sketchtool.</desc>
    <g id="Icons" stroke="none" stroke-width="1" fill="none" fill-rule="evenodd">
        <g id="code/file_code_SwiftUI" fill-rule="nonzero">
            <g id="SwiftUI">
                <path d="M99.9930219,27.6979992 C99.9871287,26.6922902 99.9760159,25.6870862 99.9482338,24.6801984 C99.889639,22.489965 99.7601579,20.2798634 99.3708725,18.1130343 C98.9758624,15.9125301 98.3301404,13.8664265 97.3124757,11.8674682 C96.3135008,9.90437388 95.0075765,8.10797169 93.4497616,6.55015813 C91.8922836,4.99234457 90.0958797,3.68658969 88.1319419,2.68711053 C86.1346657,1.67062539 84.0882237,1.0250723 81.8897381,0.630062503 C79.7217286,0.239598858 77.5116249,0.110959706 75.319706,0.0516913857 C74.3133227,0.0244144946 73.3079494,0.0129649488 72.3019028,0.00673502811 C71.1077801,0 69.9128155,0 68.7190297,0 L42.2476263,0 L31.2811282,0 C30.0861636,0 28.892546,0 27.6987602,0.00690341745 C26.6923768,0.013133318 25.6858249,0.0245828839 24.680957,0.0518597751 C24.1330614,0.066676845 23.5839872,0.0858716943 23.0345762,0.112306699 C21.3865119,0.191780124 19.7359218,0.337425246 18.1107565,0.630230892 C16.4618502,0.926572412 14.8983105,1.36367619 13.3772017,1.99256007 C12.8702215,2.20201964 12.3677874,2.43303134 11.8683842,2.68711053 C10.3954308,3.43671991 9.01643129,4.35857781 7.76219837,5.42978509 C7.34412073,5.78691031 6.93984993,6.16053637 6.55056458,6.54998976 C4.99241295,8.10780332 3.6864886,9.90420549 2.68751371,11.8672998 C1.6698491,13.8662581 1.02496896,15.9123617 0.629622075,18.112866 C0.240673485,20.2796951 0.111360707,22.4897967 0.0524291159,24.6800301 C0.024815443,25.6869177 0.0131974981,26.6921217 0.00663083363,27.6978307 C0,28.8922892 0,30.086916 0,31.2810377 L0,47.5830212 L0,68.7184025 C0,69.9137027 -0.00111445623,71.107151 0.00663083363,72.3024512 C0.0131974981,73.3081603 0.024815443,74.3133642 0.0524291159,75.3185682 C0.111360707,77.5099801 0.240505116,79.720587 0.629622075,81.8864057 C1.02496896,84.0862365 1.6698491,86.1341923 2.68751371,88.1326455 C3.6864886,90.0962448 4.99241295,91.892142 6.55056458,93.4492819 C8.10753756,95.0077691 9.90444639,96.3133555 11.8685526,97.3135082 C13.8659972,98.3301617 15.9122709,98.9748729 18.1112616,99.3698827 C20.2779242,99.7598412 22.4897115,99.8894907 24.6811253,99.9480855 C25.6859933,99.9748573 26.6925451,99.986812 27.6989285,99.9925367 C28.8927146,100.001124 30.0863321,100 31.2812965,100 L68.7190297,100 C69.9128155,100 71.1077801,100.001124 72.3017343,99.9925367 C73.3077811,99.986812 74.3131542,99.9748573 75.3195377,99.9480855 C77.5114566,99.8894907 79.7215601,99.7596729 81.8895696,99.3698827 C84.0880554,98.9748729 86.1344974,98.3299934 88.1317736,97.3135082 C90.0957114,96.313524 91.8921151,95.0077691 93.4495933,93.4492819 C95.0074082,91.8919735 96.3135008,90.0962448 97.3123074,88.1326455 C98.3299719,86.1341923 98.9756941,84.086405 99.3707042,81.8864057 C99.7599894,79.720587 99.8894707,77.5099801 99.9480655,75.3185682 C99.9756791,74.3133642 99.9867919,73.3083286 99.9928534,72.3024512 C100,71.107151 100,69.9137027 100,68.7184025 L100,31.2810377 C100,30.086916 100,28.8922892 99.9930219,27.6979992 L99.9930219,27.6979992 Z" id="Path" fill="#0092FF"></path>
                <path d="M84.9601705,62.3443125 C84.9573874,62.3407526 84.9548032,62.3381816 84.9518214,62.3348193 C85.0824239,61.892593 85.2172009,61.4531354 85.3315027,60.9998336 C90.2315804,41.5764847 78.2724093,18.6127537 58.0349897,6.52173913 C66.9034343,18.4830128 70.8246892,32.9708705 67.3407639,45.6407743 C67.0300612,46.7708645 66.6565419,47.8554662 66.2436633,48.9096102 C65.7955995,48.6167046 65.2310468,48.2842436 64.4728767,47.8683214 C64.4728767,47.8683214 44.3420063,35.5020033 22.5234421,13.629005 C21.9509381,13.0548623 34.1579953,30.9877741 48.011598,45.5497976 C41.4846549,41.9053855 23.2949311,28.738076 11.7796494,18.2522086 C13.1944101,20.5996078 14.8771345,22.8599858 16.7268392,25.0361114 C26.3431171,37.1694497 38.8839363,52.1400778 53.9083891,63.6357876 C43.3520515,70.0631008 28.4357385,70.5628798 13.5842296,63.6425119 C9.9108612,61.9297749 6.45754894,59.8632171 3.26086957,57.5152244 C9.54748018,67.5197059 19.2297551,76.1514264 31.0139942,81.1905523 C45.067178,87.1991744 59.0420402,86.7917565 69.4504807,81.2890446 L69.4423306,81.3009111 C69.4898403,81.2710471 69.5502715,81.2384141 69.5995703,81.2081544 C70.0269605,80.9795256 70.4511699,80.7467437 70.8660366,80.5009087 C75.8668988,77.9183541 85.7445804,75.2982223 91.0464045,85.561592 C92.3448755,88.0733427 95.1040265,74.7622503 84.9601705,62.3443125 L84.9601705,62.3443125 Z" id="Path" fill="#FFFFFF"></path>
            </g>
        </g>
    </g>
</svg>