<?xml version="1.0" encoding="UTF-8"?>
<svg width="78px" height="100px" viewBox="0 0 78 100" version="1.1" xmlns="http://www.w3.org/2000/svg" xmlns:xlink="http://www.w3.org/1999/xlink">
    <!-- Generator: sketchtool 63.1 (101010) - https://sketch.com -->
    <title>action/action_lightning_small</title>
    <desc>Created with sketchtool.</desc>
    <g id="Icons" stroke="none" stroke-width="1" fill="none" fill-rule="evenodd">
        <g id="action/action_lightning_small" fill="#FFE842" fill-rule="nonzero" stroke="#968300" stroke-width="2.6">
            <g id="Action/Lightning-Bolt" transform="translate(5.100000, 15.900000)">
                <path d="M55.441812,23.0874779 L37.9208629,23.0874779 L43.7492243,5.5909081 C43.9483251,4.99319442 43.857829,4.32301653 43.4777172,3.79775777 C43.0976055,3.27248973 42.5002844,3.0008 41.8667648,3.0008 L22.0651082,3.0008 C21.1781901,3.0008 20.418013,3.54417945 20.1645495,4.37737859 L10.8610052,34.6251985 C10.6800036,35.2229122 10.7886037,35.9111736 11.1687108,36.4002652 C11.5488225,36.8893012 12.1461436,37.2153344 12.7615917,37.2153344 L28.056511,37.2153344 L25.4138188,63.0257193 C25.3233171,63.9313455 25.8301291,64.7464425 26.680858,65.0724108 C26.9161666,65.1629735 27.1695651,65.1992 27.4048737,65.1992 C28.0202848,65.1992 28.6176059,64.9093989 28.9977547,64.3841308 L57.0353509,26.2212622 C57.4878596,25.6054371 57.5421666,24.8266001 57.2163526,24.1563944 C56.8898805,23.4859104 56.2020169,23.0874779 55.441812,23.0874779 Z" id="Path"></path>
            </g>
        </g>
    </g>
</svg>