<?xml version="1.0" encoding="UTF-8"?>
<svg width="78px" height="100px" viewBox="0 0 78 100" version="1.1" xmlns="http://www.w3.org/2000/svg" xmlns:xlink="http://www.w3.org/1999/xlink">
    <!-- Generator: sketchtool 63.1 (101010) - https://sketch.com -->
    <title>action/action_lightning</title>
    <desc>Created with sketchtool.</desc>
    <g id="Icons" stroke="none" stroke-width="1" fill="none" fill-rule="evenodd">
        <g id="action/action_lightning" fill="#FFE842" fill-rule="nonzero" stroke="#968300" stroke-width="2.6">
            <g id="Action/Lightning-Bolt" transform="translate(-7.600000, 3.300000)">
                <path d="M76.0089358,31.6521875 L51.9882797,31.6521875 L59.9787752,7.66495466 C60.2517361,6.84550847 60.1276687,5.92671621 59.6065478,5.20660339 C59.0854269,4.48647785 58.2665189,4.114 57.3979841,4.114 L30.2505516,4.114 C29.0346155,4.114 27.9924371,4.8589557 27.6449469,6.00124484 L14.8900878,47.4700302 C14.6419404,48.2894764 14.7908276,49.2330606 15.3119422,49.9035894 C15.8330631,50.5740419 16.6519711,51.021023 17.4957306,51.021023 L38.4645716,51.021023 L34.8415258,86.4062281 C34.7174509,87.6478124 35.4122737,88.7652841 36.5785956,89.2121762 C36.9011961,89.3363346 37.2485973,89.386 37.5711978,89.386 C38.4149065,89.386 39.2338145,88.988692 39.7549862,88.2685664 L78.1936263,35.9485047 C78.8140011,35.1042283 78.8884542,34.0364678 78.4417737,33.1176374 C77.9941911,32.1984256 77.0511523,31.6521875 76.0089358,31.6521875 Z" id="Path"></path>
            </g>
        </g>
    </g>
</svg>