<?xml version="1.0" standalone="no"?>
<!DOCTYPE svg PUBLIC "-//W3C//DTD SVG 20010904//EN"
 "http://www.w3.org/TR/2001/REC-SVG-20010904/DTD/svg10.dtd">
<svg version="1.0" xmlns="http://www.w3.org/2000/svg"
 width="400.000000pt" height="400.000000pt" viewBox="0 0 400.000000 400.000000"
 preserveAspectRatio="xMidYMid meet">
<metadata>
Created by potrace 1.13, written by Peter Selinger 2001-2015
</metadata>
<g transform="translate(0.000000,400.000000) scale(0.100000,-0.100000)"
fill="#000000" stroke="none">
<path d="M1834 3985 c-423 -65 -764 -364 -885 -776 l-22 -76 -60 -11 c-130
-24 -269 -115 -337 -222 -99 -155 -108 -356 -22 -525 28 -56 140 -173 190
-199 l32 -17 0 48 c0 108 81 207 198 243 62 19 96 20 1072 20 976 0 1010 -1
1072 -20 117 -36 198 -135 198 -243 l0 -48 31 18 c99 57 194 179 229 291 22
71 26 197 9 272 -43 187 -212 346 -406 382 l-60 11 -22 76 c-54 181 -145 336
-275 467 -249 248 -598 363 -942 309z m352 -305 c164 -42 318 -136 420 -258
75 -91 157 -257 162 -332 4 -52 2 -60 -27 -92 -55 -63 -154 -68 -206 -12 -12
13 -32 52 -44 87 -48 133 -148 245 -271 301 -57 26 -160 56 -192 56 -10 0 -35
15 -55 33 -31 30 -37 41 -41 90 -5 65 10 96 61 127 41 25 93 25 193 0z"/>
<path d="M985 2289 c-16 -5 -37 -15 -46 -22 -16 -13 -43 -57 -37 -62 2 -1 249
-138 551 -304 l547 -301 548 301 c301 166 548 303 550 304 9 8 -25 55 -51 71
-31 18 -66 19 -1032 21 -594 1 -1012 -2 -1030 -8z"/>
<path d="M1010 1978 c1 -15 299 -749 304 -750 10 0 525 283 531 291 3 7 -814
461 -829 461 -3 0 -6 -1 -6 -2z"/>
<path d="M2563 1753 c-226 -125 -410 -230 -408 -234 6 -8 521 -291 531 -291 5
1 303 735 304 750 0 9 -58 -22 -427 -225z"/>
<path d="M1720 1289 c-151 -83 -294 -162 -317 -175 l-42 -24 26 -63 c13 -34
30 -67 36 -74 7 -7 139 -82 295 -167 l282 -156 283 156 c155 85 287 160 294
167 6 7 23 40 36 74 l25 62 -21 14 c-33 20 -590 325 -607 332 -9 3 -133 -60
-290 -146z"/>
<path d="M1562 588 c32 -84 61 -154 63 -156 5 -5 212 106 219 116 4 7 -321
192 -336 192 -4 0 21 -69 54 -152z"/>
<path d="M2318 648 c-92 -51 -165 -95 -162 -100 7 -10 214 -121 219 -116 9 9
122 308 117 308 -4 0 -82 -42 -174 -92z"/>
<path d="M1841 385 c-85 -46 -156 -86 -158 -88 -2 -3 13 -48 34 -102 37 -95
40 -99 96 -136 119 -77 255 -77 374 0 60 40 63 43 128 222 4 12 -31 36 -153
102 -87 48 -161 87 -163 87 -2 0 -73 -38 -158 -85z"/>
</g>
</svg>
