<?xml version="1.0" encoding="UTF-8"?>
<svg width="456px" height="506px" viewBox="0 0 456 506" version="1.1" xmlns="http://www.w3.org/2000/svg" xmlns:xlink="http://www.w3.org/1999/xlink">
    <!-- Generator: Sketch 63.1 (92452) - https://sketch.com -->
    <title>Accordance</title>
    <desc>Created with Sketch.</desc>
    <g id="Page-1" stroke="none" stroke-width="1" fill="none" fill-rule="evenodd">
        <g id="Accordance" transform="translate(0.578125, 0.500000)">
            <g id="Group" transform="translate(267.998481, 228.614813)">
                <path d="M1.42108547e-14,70.8851865 C0.448929532,66.2899484 1.77266566,57.7744879 3.97120839,45.3388048 C7.26902248,26.6852803 15.4082387,7.18587167 18.7015308,5.32124338 C21.9948229,3.45661509 20.7091086,1.02804366 33.9080101,0.12812472 C47.1069116,-0.771794221 63.2301159,3.25730024 72.3981837,6.32124338 C81.5662514,9.38518652 88.1994499,12.3472275 91.5597032,16.929391 C93.799872,19.9841667 94.1332054,31.6941401 92.5597032,52.0593113 L89.8104051,82.6070682 L70.5653183,78.436684 C73.8656596,56.1408037 74.4766147,43.7844412 72.3981837,41.3675964 C69.2805372,37.7423294 48.7077375,33.4251797 46.2798516,33.4251797 C43.8519657,33.4251797 43.8519657,33.4251797 41.5449493,34.9525675 C40.0069383,35.9708261 37.1279586,48.9027098 32.9080101,73.7482187 L1.42108547e-14,70.8851865 Z" id="Path-5" fill="#CEA276"></path>
                <path d="M38.2358943,45.0101865 C38.777561,43.5935199 39.590061,42.8851865 40.6733943,42.8851865 C42.2983943,42.8851865 47.7474837,42.892595 51.4858943,43.9476865 C55.2243049,45.002778 57.6733943,45.3851865 58.6108943,47.9476865 C59.5483943,50.5101865 58.9233943,60.9476865 57.6733943,66.7601865 C56.840061,70.6351865 56.090061,74.0310199 55.4233943,76.9476865 L70.4233943,79.2601865 C72.0095655,69.7599903 72.9678988,62.5099903 73.2983943,57.5101865 C73.7941375,50.0104809 74.2358943,45.0101865 72.8608943,42.3851865 C71.4858943,39.7601865 63.4233943,36.8851865 58.6733943,35.7601865 C53.9233943,34.6351865 47.7959601,33.3602671 45.6733943,33.2601865 C43.5508285,33.160106 42.9233943,33.9476865 41.5449493,34.9525675 C40.6259859,35.6224882 39.5229676,38.9750278 38.2358943,45.0101865 Z" id="Path-6" fill="#826046"></path>
            </g>
            <ellipse id="Oval-Copy" fill="#CEA276" cx="227.921875" cy="368.5" rx="227.5" ry="71"></ellipse>
            <ellipse id="Oval" fill="#CEA276" cx="151.421875" cy="417" rx="96" ry="37.5"></ellipse>
            <path d="M0.421875,368.5 C-1.078125,377.333333 1.421875,386.166667 7.921875,395 C17.671875,408.25 36.421875,418.5 47.421875,426 C58.421875,433.5 71.671875,443 80.421875,453 C89.171875,463 88.671875,464.75 96.3905666,471.5 C104.109258,478.25 124.917303,493.146547 170.921875,500 C216.926447,506.853453 246.228148,506.25 286.700011,500 C327.171875,493.75 346.171875,482.75 358.421875,471.5 C370.671875,460.25 366.921875,460.25 385.921875,443 C404.921875,425.75 428.671875,409.75 439.921875,400 C450.921875,390.166667 456.088542,379.666667 455.421875,368.5 C452.599718,382.557316 441.933051,394.557316 423.421875,404.5 C395.65511,419.414026 366.921875,424 340.921875,430 C305.921875,436.833333 260.755208,440 205.421875,439.5 C173.921875,443.166667 153.921875,445.5 145.421875,446.5 C132.671875,448 110.421875,451 95.3905666,446.5 C80.3592582,442 73.1788224,431.533754 66.171875,426 C59.1649276,420.466246 60.421875,418.25 53.921875,414.75 C47.421875,411.25 34.6377304,406.675984 29.921875,403.5 C16.671875,394 15.1042859,395.264976 7.921875,386.5 C3.13360109,380.656683 0.633601087,374.656683 0.421875,368.5 Z" id="Path-4" fill="#826046"></path>
            <ellipse id="Oval" fill="#373431" cx="227.421875" cy="340" rx="164" ry="40.5"></ellipse>
            <path d="M227.421875,299.5 C317.996574,299.5 391.421875,317.632468 391.421875,340 C391.421875,357.608902 345.915299,372.593051 282.359908,378.17172 C282.400858,377.9485 282.421875,377.724869 282.421875,377.5 C282.421875,369.768014 257.573679,363.5 226.921875,363.5 C196.270071,363.5 171.421875,369.768014 171.421875,377.5 C171.421875,377.694481 171.437596,377.888037 171.468734,378.080589 C108.444257,372.433118 63.421875,357.514972 63.421875,340 C63.421875,317.632468 136.847176,299.5 227.421875,299.5 Z" id="Combined-Shape" fill="#826046"></path>
            <ellipse id="Oval" fill="#383431" cx="136.421875" cy="405" rx="33" ry="14.5"></ellipse>
            <path d="M120.058106,362.703068 C102.981175,341.693792 94.7708029,317.336353 95.4269882,289.630752 C95.1533091,260.894449 104.595238,233.252861 123.752773,206.70599 C148.940411,171.056468 165.087477,146.69903 172.193971,133.633674 C182.853712,114.035641 186.533897,101.369191 189.846272,85.1924763 C192.054522,74.4079995 192.054522,61.8187617 189.846272,47.4247626 C207.155071,70.9063021 218.680272,91.569073 224.421875,109.413075 C233.03428,136.179079 235.41384,159.085829 231.719172,177.559167 C220.224651,217.789993 194.361977,248.989408 169.320341,280.599343 C151.66804,300.714755 145.219219,310.094395 136.068332,325.345873 C129.967741,335.513525 124.630999,347.965923 120.058106,362.703068 Z" id="Path" fill="#FFC239"></path>
            <path d="M67.9222402,306.051497 C57.1265256,289.445494 50.0108694,276.023566 46.5752716,265.785714 C43.1361607,254.642857 37.9933036,220.5 46.5752716,201.369248 C53.3442027,184.139222 70.4491455,154.718721 97.8901,113.107743 C113.122993,85.8854195 123.24912,65.3594881 128.268478,51.5299489 C133.287837,37.7004096 136.845665,20.52376 138.941963,-2.84217094e-14 C150.921962,19.3809524 157.915266,35.1892066 159.921875,47.4247626 C161.340533,65.7142857 166.036192,73.6979547 150.847003,113.107743 C127.036922,152.92805 115.131882,166.475164 101.174249,185.76954 C87.2166157,207.527027 89.2692088,200.54821 76.5431314,230.51607 C68.0590798,250.494643 65.1854494,275.673119 67.9222402,306.051497 Z" id="Path-2" fill="#FFC239"></path>
            <path d="M151.748698,359.5 C153.880295,349.455556 163.32474,333.677778 180.082031,312.166667 C205.217969,279.9 223.185122,262.375337 238.082031,236.166667 C252.97894,209.957997 256.657628,197.643342 260.415365,170.833333 C261.822669,162.442858 260.156002,142.998414 255.415365,112.5 C268.418077,138.916667 275.751411,156.694444 277.415365,165.833333 C285.486347,198.602773 287.817969,221.1 286.233154,237.625 C283.817969,262.3 254.082031,292.5 243.415365,301.5 C227.671875,314.166667 209.255381,323.035166 190.082031,335.166667 C177.299798,343.254334 164.522021,351.365445 151.748698,359.5 Z" id="Path-3" fill="#FFC239"></path>
        </g>
    </g>
</svg>