<?xml version="1.0" encoding="iso-8859-1"?>
<!-- Generator: Adobe Illustrator 18.0.0, SVG Export Plug-In . SVG Version: 6.00 Build 0)  -->
<!DOCTYPE svg PUBLIC "-//W3C//DTD SVG 1.1//EN" "http://www.w3.org/Graphics/SVG/1.1/DTD/svg11.dtd">
<svg version="1.1" id="Capa_1" xmlns="http://www.w3.org/2000/svg" xmlns:xlink="http://www.w3.org/1999/xlink" x="0px" y="0px"
	 viewBox="0 0 52 52" style="enable-background:new 0 0 52 52;" xml:space="preserve">
<g>
	<path style="fill:#3A3375;" d="M40.824,52H11.176C5.003,52,0,46.997,0,40.824V11.176C0,5.003,5.003,0,11.176,0h29.649
		C46.997,0,52,5.003,52,11.176v29.649C52,46.997,46.997,52,40.824,52z"/>
	<g>
		<path style="fill:#E7ADFB;" d="M27.44,39H24.2l-2.76-9.04h-8.32L10.48,39H7.36l8.24-28h3.32L27.44,39z M20.72,27l-3.48-11.36
			L13.88,27H20.72z"/>
		<path style="fill:#E7ADFB;" d="M31.48,33.48c0,2.267,1.333,3.399,4,3.399c1.653,0,3.466-0.546,5.44-1.64L42,37.6
			c-2.054,1.254-4.2,1.881-6.44,1.881c-4.64,0-6.96-1.946-6.96-5.841V25.44c0-2.16,0.673-3.841,2.02-5.04
			c1.346-1.2,3.126-1.801,5.34-1.801s3.94,0.594,5.18,1.78c1.24,1.187,1.86,2.834,1.86,4.94V30.8L31.48,31.4V33.48z M40.08,28.24
			v-3.08c0-1.413-0.44-2.42-1.32-3.021c-0.88-0.6-1.907-0.899-3.08-0.899c-1.174,0-2.167,0.359-2.98,1.08
			c-0.814,0.72-1.22,1.773-1.22,3.16v3.199L40.08,28.24z"/>
	</g>
</g>
<g>
</g>
<g>
</g>
<g>
</g>
<g>
</g>
<g>
</g>
<g>
</g>
<g>
</g>
<g>
</g>
<g>
</g>
<g>
</g>
<g>
</g>
<g>
</g>
<g>
</g>
<g>
</g>
<g>
</g>
</svg>
