<?xml version="1.0" encoding="UTF-8"?>
<svg width="100pt" height="100pt" version="1.1" viewBox="0 0 100 100" xmlns="http://www.w3.org/2000/svg">
 <path d="m50 2.1406c-11.125 0-20.172 9.0508-20.172 20.172v60.117c0 8.5117 6.9219 15.434 15.434 15.434s15.434-6.9219 15.434-15.434v-48.82c0-6.2852-5.1172-11.402-11.406-11.402-6.2891 0-11.402 5.1172-11.402 11.402v42.215h5.2617v-42.215c0-3.3867 2.7539-6.1406 6.1406-6.1406 3.3867 0 6.1406 2.7539 6.1406 6.1406v48.82c0 5.6094-4.5625 10.172-10.172 10.172-5.6094 0-10.172-4.5625-10.172-10.172l0.003906-60.117c0-8.2227 6.6914-14.91 14.91-14.91 8.2227 0 14.914 6.6914 14.914 14.91v53.512h5.2617v-53.512c0-11.125-9.0508-20.172-20.176-20.172z"/>
</svg>
