<?xml version="1.0" encoding="UTF-8"?>
<svg width="100pt" height="100pt" version="1.1" viewBox="0 0 100 100" xmlns="http://www.w3.org/2000/svg">
 <path d="m83.422 43.062l-40.566 40.031c-2.8984 2.8984-6.7578 4.4961-10.859 4.4961-4.1016 0-7.957-1.5977-10.859-4.4961-2.8945-2.8945-4.4883-6.75-4.4883-10.855s1.5898-7.957 4.4766-10.844l46.863-46.348c1.6992-1.6992 3.9648-2.6367 6.3672-2.6367 2.4023 0 4.6641 0.9375 6.3633 2.6367 3.5078 3.5078 3.5117 9.2148 0.015625 12.715l-46.867 46.344c-1 1-2.7461 1-3.7461 0-1.0312-1.0312-1.0391-2.7031-0.027344-3.7148l23.578-23.031c0.70703-0.69141 1.1016-1.6211 1.1133-2.6094 0.011719-0.99219-0.36328-1.9258-1.0586-2.6328-1.3867-1.4141-3.832-1.4375-5.2422-0.054688l-23.602 23.059c-1.8984 1.8945-2.9414 4.4219-2.9414 7.1133 0 2.6875 1.0469 5.2148 2.9414 7.1133 1.8984 1.8984 4.4297 2.9453 7.1172 2.9453s5.207-1.043 7.0977-2.9336l46.867-46.344c3.0977-3.0938 4.8008-7.2148 4.8008-11.605 0-4.3867-1.7031-8.5078-4.8008-11.605-3.1055-3.0977-7.2266-4.8047-11.609-4.8047-4.3828 0-8.5 1.7031-11.59 4.793l-46.871 46.348c-4.293 4.293-6.6602 10.012-6.6602 16.098 0 6.0859 2.3633 11.805 6.6602 16.098 4.3008 4.2969 10.02 6.6641 16.102 6.6641 6.0781 0 11.793-2.3633 16.082-6.6484l40.551-40.016c0.70312-0.69531 1.0977-1.625 1.1016-2.6133 0.007812-0.98828-0.37109-1.9219-1.0664-2.625-1.3906-1.4141-3.8359-1.4258-5.2422-0.035156z"/>
</svg>
