<?xml version="1.0" encoding="UTF-8"?>
<svg width="100pt" height="100pt" version="1.1" viewBox="0 0 100 100" xmlns="http://www.w3.org/2000/svg">
 <path d="m72.133 33.215c-0.94141-3.5195-3.1992-6.4609-6.3555-8.2812-3.1523-1.8203-6.832-2.3086-10.352-1.3633-3.5195 0.94141-6.4609 3.1992-8.2852 6.3555l-18.387 31.848s-0.003906 0-0.003906 0.003906l-0.59375 1.0234 0.066406 0.039063c-0.89453 2.0742-1.0742 4.3711-0.48047 6.5859 0.69922 2.6016 2.3672 4.7773 4.6992 6.1211 1.5547 0.89844 3.2773 1.3555 5.0234 1.3555 0.875 0 1.7578-0.11328 2.625-0.34766 2.2148-0.59375 4.1133-1.8945 5.4648-3.707l0.066406 0.039063 17.262-29.898 0.015626-0.027343 0.41797-0.72266h-0.003906l0.003906 0.003907c0.011719-0.023438 0.019532-0.046876 0.035156-0.066407l0.074219-0.13281-0.007812-0.003907c1.6406-3.0859 0.55859-6.9492-2.4922-8.7109-3.0117-1.7383-6.8359-0.79297-8.7148 2.0781l-0.007813-0.003906-0.11328 0.19141c-0.023438 0.042969-0.054688 0.078125-0.078125 0.12109l0.003906 0.003906-0.003906-0.003906-0.17188 0.30078-0.007813 0.011719-11.68 20.23 3.082 1.7773 11.859-20.547-0.015625-0.007812 0.015625 0.007812c0.81641-1.4141 2.6367-1.9023 4.0547-1.0859 1.3906 0.80469 1.8789 2.5742 1.1172 3.9766l-0.28906 0.51562-16.844 29.184c-0.87109 1.5117-2.2773 2.5898-3.9609 3.0391-1.6836 0.45312-3.4414 0.21875-4.9492-0.65234-1.5117-0.87109-2.5898-2.2773-3.0391-3.9609-0.44922-1.6836-0.21875-3.4375 0.65234-4.9492l18.387-31.848c1.3477-2.332 3.5195-4 6.1211-4.6992 2.6016-0.69531 5.3164-0.33594 7.6484 1.0078 2.3359 1.3477 4.0039 3.5195 4.6992 6.1211 0.69531 2.6016 0.33984 5.3164-1.0078 7.6523l-13.246 22.941 3.082 1.7773 13.246-22.941c1.8242-3.1562 2.3086-6.832 1.3672-10.352z"/>
</svg>
