<?xml version="1.0" encoding="UTF-8"?>
<svg width="46px" height="88px" viewBox="0 0 46 88" version="1.1" xmlns="http://www.w3.org/2000/svg" xmlns:xlink="http://www.w3.org/1999/xlink">
    <!-- Generator: Sketch 52.5 (67469) - http://www.bohemiancoding.com/sketch -->
    <title>attachment_paperclip_2</title>
    <desc>Created with Sketch.</desc>
    <g id="attachment_paperclip_2" stroke="none" stroke-width="1" fill="none" fill-rule="evenodd">
        <path d="M36.5035673,23.7462693 L36.5035673,60.8770287 C36.5035673,68.3044768 30.4274481,74.380596 23,74.380596 C15.5725519,74.380596 9.49643267,68.3044768 9.49643267,60.8770287 L9.49643267,22.0595386 C9.49643267,17.3315887 13.211696,13.619404 17.9365673,13.619404 C22.6614386,13.619404 26.376702,17.3315077 26.376702,22.0595386 L26.376702,60.8802693 C26.376702,62.7347819 24.8576722,64.2569713 23,64.2569713 C21.1454874,64.2569713 19.623298,62.7379415 19.623298,60.8802693 L19.623298,28.809702 L14.5598653,28.809702 L14.5598653,60.8770287 C14.5598653,65.6049786 18.2751287,69.3171634 23,69.3171634 C27.7248713,69.3171634 31.4401347,65.6050596 31.4401347,60.8770287 L31.4401347,22.0595386 C31.4401347,14.6320905 25.3640154,8.55597129 17.9365673,8.55597129 C10.5091192,8.55597129 4.433,14.6320905 4.433,22.0595386 L4.433,60.8802693 C4.433,71.1715949 12.7054338,79.4440287 23,79.4440287 C33.2945662,79.4440287 41.567,71.1715949 41.567,60.8770287 L41.567,23.7462693 L36.5035673,23.7462693 Z" id="Path" fill="#535353"></path>
    </g>
</svg>