<?xml version="1.0" encoding="iso-8859-1"?>
<!-- Generator: Adobe Illustrator 18.0.0, SVG Export Plug-In . SVG Version: 6.00 Build 0)  -->
<!DOCTYPE svg PUBLIC "-//W3C//DTD SVG 1.1//EN" "http://www.w3.org/Graphics/SVG/1.1/DTD/svg11.dtd">
<svg version="1.1" id="Capa_1" xmlns="http://www.w3.org/2000/svg" xmlns:xlink="http://www.w3.org/1999/xlink" x="0px" y="0px"
	 viewBox="0 0 52 52" style="enable-background:new 0 0 52 52;" xml:space="preserve">
<g>
	<path style="fill:#2F5074;" d="M40.824,52H11.176C5.003,52,0,46.997,0,40.824V11.176C0,5.003,5.003,0,11.176,0h29.649
		C46.997,0,52,5.003,52,11.176v29.649C52,46.997,46.997,52,40.824,52z"/>
	<g>
		<path style="fill:#00F5F1;" d="M28.08,39h-3.24l-2.76-9.04h-8.32L11.12,39H8l8.239-28h3.32L28.08,39z M21.359,27L17.88,15.64
			L14.52,27H21.359z"/>
		<path style="fill:#00F5F1;" d="M43.84,39h-2.76v-1.48c-1.147,1.28-2.694,1.921-4.641,1.921c-5.014,0-7.52-2.44-7.52-7.32V18.96
			h2.88v13.16c0,3.066,1.546,4.6,4.64,4.6c3.014,0,4.521-1.546,4.521-4.64V18.96h2.88V39z"/>
	</g>
</g>
<g>
</g>
<g>
</g>
<g>
</g>
<g>
</g>
<g>
</g>
<g>
</g>
<g>
</g>
<g>
</g>
<g>
</g>
<g>
</g>
<g>
</g>
<g>
</g>
<g>
</g>
<g>
</g>
<g>
</g>
</svg>
