<?xml version="1.0" encoding="UTF-8"?>
<svg width="1051px" height="1051px" viewBox="0 0 1051 1051" version="1.1" xmlns="http://www.w3.org/2000/svg" xmlns:xlink="http://www.w3.org/1999/xlink">
    <!-- Generator: Sketch 56.3 (81716) - https://sketch.com -->
    <title>Bear_Logo_app_red_note_notes.svg</title>
    <desc>Created with Sketch.</desc>
    <defs>
        <linearGradient x1="50%" y1="0%" x2="50%" y2="100%" id="linearGradient-1">
            <stop stop-color="#DC4540" offset="0%"></stop>
            <stop stop-color="#BF1B21" offset="100%"></stop>
        </linearGradient>
    </defs>
    <g id="Bear_Logo_app_red_note_notes.svg" stroke="none" stroke-width="1" fill="none" fill-rule="evenodd">
        <g id="Bear" transform="translate(75.500000, 75.500000)">
            <g id="Group">
                <circle id="Red-circle-(fill)" stroke="#B73431" stroke-width="4" fill="url(#linearGradient-1)" cx="450" cy="450" r="450"></circle>
                <path d="M251.392849,195.479656 C272.239607,180.656934 310.093522,198.76112 359.341141,241.166743 C393.150163,236.505973 514.208272,218.719349 566.958685,293.192219 C597.242458,324.271499 662.563797,356.797445 730.929231,378.359518 C737.841075,377.888937 751.051052,373.762902 757.79361,385.217552 C768.488384,407.744648 760.796005,570.705263 539.289177,568.014014 C465.901574,583.246251 492.297631,685.675182 618.477347,875.30081 C507.676444,896.451646 423.637182,901.246069 366.35956,889.684078 C241.987174,864.578422 134.296479,790.238516 63.6132456,676.683039 C109.605062,474.653286 131.919337,428.200559 235.12346,285.471316 C234.193231,253.840314 227.366889,212.562894 251.392849,195.479656 Z" id="Bear---white" fill="#FFFFFF"></path>
                <path d="M298.042242,447.465927 C308.680733,460.433262 325.477589,512.93482 395.720785,547.20254 C434.099495,560.055742 486.326999,565.842102 541.098312,566.669993 C467.710709,581.90223 491.847485,682.123204 613.508639,867.332915 C563.018968,880.830985 527.69271,888.664157 507.529867,890.83243 C467.01678,895.189131 487.140619,900 412.164151,895.189131 C416.093568,866.505993 426.362554,817.405266 424.030566,767.445541 C415.947194,663.019289 353.499199,577.454237 322.201796,534.631615 C290.904394,491.808993 291.299684,436.011277 298.042242,447.465927 Z" id="Bear---gray" fill-opacity="0.510626093" fill="#DEDEDE"></path>
                <circle id="Red-circle-(border)" stroke="#B73431" stroke-width="4" cx="450" cy="450" r="450"></circle>
            </g>
        </g>
    </g>
</svg>