<?xml version="1.0" encoding="UTF-8"?>
<svg width="461px" height="331px" viewBox="0 0 461 331" version="1.1" xmlns="http://www.w3.org/2000/svg" xmlns:xlink="http://www.w3.org/1999/xlink">
    <!-- Generator: Sketch 63.1 (92452) - https://sketch.com -->
    <title>blue-arrow-up-2068</title>
    <desc>Created with Sketch.</desc>
    <defs>
        <linearGradient x1="49.2146191%" y1="100.21866%" x2="50.4710936%" y2="0.230407343%" id="linearGradient-1">
            <stop stop-color="#006BCD" offset="0%"></stop>
            <stop stop-color="#00C4FF" offset="100%"></stop>
        </linearGradient>
    </defs>
    <g id="Page-1" stroke="none" stroke-width="1" fill="none" fill-rule="evenodd">
        <g id="blue-arrow-up-2068" transform="translate(230.000000, 165.500000) rotate(90.000000) translate(-230.000000, -165.500000) translate(64.000000, -65.000000)" fill-rule="nonzero">
            <path d="M203.12,25.61 L315.28,147.51 C333.37,167.51 342.83,183.97 308.04,183.97 L253.78,183.97 C234.58,235.97 237.36,394.97 296.37,431.68 C306.11,437.8 319.75,441.42 320.86,448.1 C321.97,453.38 315.02,463.41 296.37,459.23 C226.79,443.64 78.17,380.23 77.61,183.69 L33.07,183.69 C-15.64,184.25 -1.17,166.69 21.38,142.22 L126.31,28.11 C158.87,-7.51 170.28,-10.3 203.12,25.61 Z" id="Path" fill="url(#linearGradient-1)"></path>
            <path d="M269.92,442.25 C213.14,427.25 94.58,368.25 84.28,190.65 L84.84,190.65 C102.65,356.25 227.07,414.42 269.93,434.18 C305,443.36 317.23,454.78 269.92,442.25 Z" id="Path" fill="#2290CC"></path>
        </g>
    </g>
</svg>