<?xml version="1.0" encoding="UTF-8"?>
<svg width="31px" height="32px" viewBox="0 0 31 32" version="1.1" xmlns="http://www.w3.org/2000/svg" xmlns:xlink="http://www.w3.org/1999/xlink">
    <!-- Generator: Sketch 52.4 (67378) - http://www.bohemiancoding.com/sketch -->
    <title>Untitled</title>
    <desc>Created with Sketch.</desc>
    <g id="Page-1" stroke="none" stroke-width="1" fill="none" fill-rule="evenodd">
        <g id="Group">
            <path d="M15.695,0.958 C7.285,0.958 0.461,7.781 0.461,16.196 C0.461,24.609 7.285,31.433 15.695,31.433 C24.114,31.433 30.935,24.609 30.935,16.196 C30.935,7.781 24.115,0.958 15.695,0.958" id="Path" fill="#ED1C24"></path>
            <rect id="Rectangle" fill="#FFFFFF" x="8.447" y="18.271" width="14.396" height="4.545"></rect>
            <path d="M15.177,11.479 C15.365,11.719 15.525,11.79 15.694,11.793 C15.866,11.789 16.018,11.729 16.206,11.479 C16.206,11.479 18.611,8.318 18.737,8.166 C19.062,7.762 19.454,7.762 19.779,8.164 L22.844,12.045 L22.844,18.272 L19.8,14.363 C19.443,13.915 19.035,13.913 18.675,14.363 C18.554,14.521 16.217,17.616 16.217,17.616 C15.854,18.075 15.505,18.075 15.146,17.616 C15.146,17.616 12.753,14.505 12.646,14.363 C12.297,13.922 11.906,13.913 11.526,14.363 L8.448,18.272 L8.446,12.064 C8.446,12.064 11.379,8.387 11.566,8.165 C11.897,7.763 12.296,7.763 12.622,8.162 C12.769,8.353 15.177,11.479 15.177,11.479" id="Path" fill="#FFFFFF"></path>
        </g>
    </g>
</svg>