<?xml version="1.0" encoding="UTF-8"?>
<svg fill="#F1F35B" width="100pt" height="100pt" version="1.1" viewBox="0 0 100 100" xmlns="http://www.w3.org/2000/svg">
 <g>
  <path d="m21.992 21.395l-5.8828-6.8242c-0.38281-0.44531-0.35938-1.1094 0.054687-1.5273 0.41406-0.41406 1.082-0.44141 1.5273-0.058594l6.8125 5.875c0.074219 0.0625 0.078125 0.17578 0.007813 0.24219l-2.2812 2.2969c-0.0625 0.074218-0.17578 0.070312-0.23828-0.003907z"/>
  <path d="m44.746 70.453c0.49609-0.79688 1.5352-1.2031 2.7148-0.52344v-1.4844c0-0.32031 0.34375-0.52344 0.62109-0.36328 1.5938 0.92188 5.6367 3.2617 6.6719 3.8242 0.13281 0.074219 0.21484 0.21094 0.21484 0.36328v1.9961l2.0625 1.1914c0.95312 0.55078 1.2422 1.8086 0.58203 2.7266-0.57422 0.79688-1.6992 0.96484-2.5508 0.47266-2.1328-1.2305-7.5898-4.3828-9.5625-5.5195-0.92969-0.53906-1.3203-1.7734-0.75391-2.6836z"/>
  <path d="m77.488 42.434c0.03125-6.2305-5.1992-11.336-11.434-11.336h-27.418l-7.957-12.012c-1.0273-1.5508-3.2188-1.7656-4.5312-0.44531l-15.586 15.699c-1.2344 1.2422-1.3281 3.2148-0.21875 4.5703l0.003906 0.007813c0.87891 1.0742 2.3203 1.5117 3.6523 1.1055l9.3867-2.8672c0.09375-0.027344 0.19141 0.027344 0.21094 0.125 0.77344 3.6094 1.5859 7.4102 1.625 7.6016l0.007813-0.007812c0.24609 1.0781 0.64453 2.0938 1.1758 3.0273l-4.1602 5.5391c-0.88281 1.1758-0.76172 2.8203 0.28125 3.8555l11.051 10.973c1.0508 1.043 2.7344 1.2617 3.9219 0.37891 1.2891-0.96094 1.5586-2.7227 0.69531-4.0078l-6.0938-9.0859c-0.042968-0.066407-0.035156-0.15625 0.019532-0.21094l1.9336-1.9336c0.69531 0.13672 1.4141 0.21094 2.1523 0.21094h22.992c-0.74609 1.1602-0.60156 2.6914 0.39062 3.6758l11.051 10.973c1.0508 1.043 2.7344 1.2617 3.9219 0.37891 1.2891-0.96094 1.5586-2.7227 0.69531-4.0078l-6.1719-9.1992c4.6875-4.6914 8.375-7.2266 8.4023-13.008zm-52.551-13.211c-1.0352 0-1.8789-0.83984-1.8789-1.8789 0-1.0352 0.83984-1.8789 1.8789-1.8789 1.0352 0 1.8789 0.83984 1.8789 1.8789s-0.83984 1.8789-1.8789 1.8789zm26.277 13.137c-4 0-7.2695-3.1289-7.4961-7.0703-0.015625-0.23828 0.18359-0.43359 0.42188-0.43359h14.145c0.23828 0 0.43359 0.19922 0.42188 0.43359-0.22266 3.9414-3.4922 7.0703-7.4922 7.0703z"/>
  <path d="m89.816 46.512c0.27734 0.15625 0.26953 0.55469 0 0.72266-3.6523 2.2109-8.5742-0.375-8.5742-4.8711v-5.6289c0-1.7773-2.2266-2.5234-3.3086-1.207-0.074219 0.089844-0.20703 0.089844-0.26562-0.011719-0.83594-1.3906-1.9141-2.6133-3.1836-3.6133-0.058594-0.046875-0.082031-0.13281-0.050781-0.20312 3.3359-7.2227 14.316-4.8945 14.316 3.1562 0 3.4375-1.8359 3.8516-1.8359 6.707 0 2.125 1.1719 3.9766 2.9023 4.9492z"/>
  <path d="m54.551 55.707c0.23047 0 0.41797 0.1875 0.41797 0.41797v3.1289l2.0625 1.1914c0.95312 0.55078 1.2422 1.8086 0.58203 2.7266-0.57422 0.79688-1.6992 0.96094-2.5508 0.47266l-9.6602-5.5781c-0.95312-0.55078-1.2422-1.8086-0.58203-2.7266 0.57422-0.79688 1.6992-0.96094 2.5508-0.47266l1.457 0.84375z"/>
  <path d="m44.746 62.949c0.49609-0.79688 1.5352-1.2031 2.7148-0.52344v-1.4844c0-0.32031 0.34375-0.52344 0.62109-0.36328 1.5938 0.92188 5.6367 3.2617 6.6719 3.8242 0.13281 0.074218 0.21484 0.21094 0.21484 0.36328v1.9961l2.0625 1.1914c2.1484 1.2422 0.26953 4.4922-1.8789 3.25l-9.6484-5.5703c-0.92969-0.53906-1.3242-1.7773-0.75781-2.6836z"/>
  <path d="m66.215 86.969c0.015625 0.23828-0.18359 0.43359-0.42188 0.43359l-29.16 0.003906c-0.23828 0-0.43359-0.19922-0.42187-0.43359 0.22656-3.9453 3.4961-7.0703 7.4961-7.0703h3.7539v-3.9492c0-0.32031 0.34375-0.51953 0.61719-0.35938 1.75 1.0117 6.4727 3.7461 6.8906 3.9375v0.37109h3.7539c4-0.003906 7.2695 3.125 7.4922 7.0664z"/>
 </g>
</svg>
