<?xml version="1.0"?>
<svg xmlns="http://www.w3.org/2000/svg" height="512px" version="1.1" viewBox="0 0 512 512.00045" width="512px">
<g id="surface1">
<path d="M 496.992188 482 L 481.992188 482 L 481.992188 467 C 481.992188 458.710938 475.285156 452 466.992188 452 L 45 452 C 36.707031 452 30 458.710938 30 467 L 30 482 L 15 482 C 6.710938 482 0 488.710938 0 497 C 0 505.292969 6.710938 512 15 512 L 496.992188 512 C 505.285156 512 511.992188 505.292969 511.992188 497 C 511.992188 488.710938 505.285156 482 496.992188 482 Z M 496.992188 482 " style=" fill-rule:nonzero;fill-opacity:1;" stroke="#00479e" fill="#00479e"/>
<path d="M 255.996094 91.007812 C 247.722656 91.007812 240.996094 97.730469 240.996094 106.007812 C 240.996094 114.28125 247.722656 121.003906 255.996094 121.003906 C 264.273438 121.003906 270.996094 114.28125 270.996094 106.007812 C 270.996094 97.730469 264.273438 91.007812 255.996094 91.007812 Z M 255.996094 91.007812 " style=" fill-rule:nonzero;fill-opacity:1;" stroke="#00479e" fill="#00479e"/>
<path d="M 511.214844 171.75 C 513.265625 165.628906 511.15625 158.875 505.988281 155.007812 L 264.992188 3.011719 C 259.660156 -1.003906 252.335938 -1.003906 247.003906 3.011719 L 6.007812 155.007812 C 0.835938 158.875 -1.273438 165.628906 0.777344 171.75 C 2.8125 177.875 8.542969 182.003906 15 182.003906 L 496.996094 182.003906 C 503.453125 182.003906 509.179688 177.875 511.214844 171.75 Z M 255.996094 152.003906 C 231.183594 152.003906 210.996094 130.820312 210.996094 106.007812 C 210.996094 81.191406 231.183594 61.007812 255.996094 61.007812 C 280.808594 61.007812 300.996094 81.191406 300.996094 106.007812 C 300.996094 130.820312 280.808594 152.003906 255.996094 152.003906 Z M 255.996094 152.003906 " style=" fill-rule:nonzero;fill-opacity:1;" stroke="#00479e" fill="#00479e"/>
<path d="M 60 302.003906 L 121 302.003906 L 121 422 L 60 422 Z M 60 302.003906 " style=" fill-rule:nonzero;fill-opacity:1;" stroke="#00479e" fill="#00479e"/>
<path d="M 391.996094 302.003906 L 451.992188 302.003906 L 451.992188 422 L 391.996094 422 Z M 391.996094 302.003906 " style=" fill-rule:nonzero;fill-opacity:1;" stroke="#00479e" fill="#00479e"/>
<path d="M 225.996094 302.003906 L 285.996094 302.003906 L 285.996094 422 L 225.996094 422 Z M 225.996094 302.003906 " style=" fill-rule:nonzero;fill-opacity:1;" stroke="#00479e" fill="#00479e"/>
<path d="M 481.992188 257.003906 L 481.992188 212.003906 L 30 212.003906 L 30 257.003906 C 30 265.292969 36.707031 272.003906 45 272.003906 L 466.992188 272.003906 C 475.285156 272.003906 481.992188 265.292969 481.992188 257.003906 Z M 481.992188 257.003906 " style=" fill-rule:nonzero;fill-opacity:1;" stroke="#00479e" fill="#00479e"/>
</g>
</svg>
