<?xml version="1.0" encoding="iso-8859-1"?>
<!-- Generator: Adobe Illustrator 18.0.0, SVG Export Plug-In . SVG Version: 6.00 Build 0)  -->
<!DOCTYPE svg PUBLIC "-//W3C//DTD SVG 1.1//EN" "http://www.w3.org/Graphics/SVG/1.1/DTD/svg11.dtd">
<svg version="1.1" id="Capa_1" xmlns="http://www.w3.org/2000/svg" xmlns:xlink="http://www.w3.org/1999/xlink" x="0px" y="0px"
	 viewBox="0 0 52 52" style="enable-background:new 0 0 52 52;" xml:space="preserve">
<g>
	<path style="fill:#255C26;" d="M40.824,52H11.176C5.003,52,0,46.997,0,40.824V11.176C0,5.003,5.003,0,11.176,0h29.649
		C46.997,0,52,5.003,52,11.176v29.649C52,46.997,46.997,52,40.824,52z"/>
	<g>
		<path style="fill:#25EB00;" d="M12.521,39H4.2V10.96h7.521c3.013,0,5.313,0.827,6.899,2.48S21,17.294,21,20.04V31
			C21,36.334,18.174,39,12.521,39z M18.12,31.4V19.64c0-2-0.58-3.486-1.74-4.46c-1.159-0.973-2.579-1.46-4.26-1.46H7.08V36.4h4.8
			c2.96,0,4.854-0.787,5.681-2.36C17.934,33.347,18.12,32.467,18.12,31.4z"/>
		<path style="fill:#25EB00;" d="M42.721,39h-3.44l-3.68-14.56L31.88,39H28.44L22.2,18.96h3.08l4.84,16.08l4.12-16.08h2.84
			l4.12,16.08l4.72-16.08H49L42.721,39z"/>
	</g>
</g>
<g>
</g>
<g>
</g>
<g>
</g>
<g>
</g>
<g>
</g>
<g>
</g>
<g>
</g>
<g>
</g>
<g>
</g>
<g>
</g>
<g>
</g>
<g>
</g>
<g>
</g>
<g>
</g>
<g>
</g>
</svg>
