<?xml version="1.0" encoding="UTF-8"?>
<svg width="1000px" height="1000px" viewBox="0 0 1000 1000" version="1.1" xmlns="http://www.w3.org/2000/svg" xmlns:xlink="http://www.w3.org/1999/xlink">
    <!-- Generator: Sketch 58 (84663) - https://sketch.com -->
    <title>Email</title>
    <desc>Created with Sketch.</desc>
    <g id="Email" stroke="none" stroke-width="1" fill="none" fill-rule="evenodd">
        <g id="Group" transform="translate(63.500000, 166.500000)" fill="#F2EFA4" fill-rule="nonzero">
            <path d="M863.372224,91.0730194 L828.764477,56.465272 L508.187448,377.0423 C468.11532,417.114429 400.721285,417.114429 360.649157,377.0423 L40.0721285,58.2867324 L5.46438116,92.8944798 L244.075692,331.505791 L5.46438116,570.117102 L40.0721285,604.724849 L278.683439,366.113538 L326.04141,413.471508 C355.184776,442.614874 393.435444,459.008018 433.507572,459.008018 C473.579701,459.008018 511.830369,442.614874 540.973735,413.471508 L588.331705,366.113538 L826.943016,604.724849 L861.550764,570.117102 L622.939453,331.505791 L863.372224,91.0730194" id="Fill-3"></path>
            <path d="M795.97819,666.654502 L76.5013363,666.654502 C34.6077474,666.654502 -5.68434189e-14,632.046755 -5.68434189e-14,590.153166 L-5.68434189e-14,76.5013363 C-5.68434189e-14,34.6077474 34.6077474,0 76.5013363,0 L795.97819,0 C837.871779,0 872.479526,34.6077474 872.479526,76.5013363 L872.479526,590.153166 C872.479526,632.046755 837.871779,666.654502 795.97819,666.654502 L795.97819,666.654502 Z M74.6798759,49.1794305 C60.1081928,49.1794305 49.1794305,60.1081928 49.1794305,74.6798759 L49.1794305,588.331705 C49.1794305,602.903389 60.1081928,613.832151 74.6798759,613.832151 L794.156729,613.832151 C808.728412,613.832151 819.657175,602.903389 819.657175,588.331705 L819.657175,74.6798759 C819.657175,60.1081928 808.728412,49.1794305 794.156729,49.1794305 L74.6798759,49.1794305 L74.6798759,49.1794305 Z" id="Fill-4"></path>
        </g>
    </g>
</svg>