<?xml version="1.0" encoding="UTF-8"?>
<svg width="268px" height="366px" viewBox="0 0 268 366" version="1.1" xmlns="http://www.w3.org/2000/svg" xmlns:xlink="http://www.w3.org/1999/xlink">
    <!-- Generator: Sketch 63.1 (92452) - https://sketch.com -->
    <title>ePub</title>
    <desc>Created with Sketch.</desc>
    <g id="Page-1" stroke="none" stroke-width="1" fill="none" fill-rule="evenodd">
        <g id="ePub" fill-rule="nonzero">
            <path d="M51.5,360.2 C57.1,360.2 61,357.9 64.3,354.5 L68.1,357.9 C64,362.5 59.1,365.5 51.4,365.5 C40.2,365.5 31.2,356.9 31.2,344.3 C31.2,332.5 39.4,323.1 50.7,323.1 C62.7,323.1 69.6,332.7 69.6,344.6 C69.6,345.2 69.6,345.8 69.5,346.5 L37.3,346.5 C38.1,355.3 44.4,360.2 51.5,360.2 Z M63.4,342 C62.8,334.6 58.5,328.2 50.4,328.2 C43.4,328.2 38,334.1 37.2,342 L63.4,342 Z" id="XMLID_5_" fill="#D5D5D5"></path>
            <path d="M100.7,345.2 L87.4,345.2 L87.4,364.6 L81.2,364.6 L81.2,309.6 L101.8,309.6 C114.2,309.6 122.4,316.2 122.4,327.1 C122.3,339.1 112.4,345.2 100.7,345.2 Z M101.2,315.3 L87.3,315.3 L87.3,339.5 L100.9,339.5 C110,339.5 116,334.6 116,327.3 C116,319.4 110.1,315.3 101.2,315.3 Z" id="XMLID_8_" fill="#D5D5D5"></path>
            <path d="M178.5,341.1 C178.5,357.1 169.3,365.4 155.6,365.4 C142,365.4 132.8,357.1 132.8,341.5 L132.8,309.6 L139,309.6 L139,341.2 C139,353.1 145.3,359.7 155.8,359.7 C165.9,359.7 172.4,353.6 172.4,341.6 L172.4,309.7 L178.6,309.7 L178.6,341.1 L178.5,341.1 Z" id="XMLID_9_" fill="#D5D5D5"></path>
            <path d="M233.8,323.4 C233.8,330.6 229.4,334.3 225.1,336.2 C231.6,338.2 236.9,341.9 236.9,349.5 C236.9,359 229,364.6 217,364.6 L192.2,364.6 L192.2,309.6 L216,309.6 C226.8,309.6 233.8,314.9 233.8,323.4 Z M227.5,324.2 C227.5,318.7 223.2,315.2 215.3,315.2 L198.2,315.2 L198.2,334.1 L214.8,334.1 C222.4,334.1 227.5,330.7 227.5,324.2 Z M230.6,349.1 C230.6,343.1 225.6,339.6 216,339.6 L198.3,339.6 L198.3,359 L217.1,359 C225.4,359 230.6,355.3 230.6,349.1 Z" id="XMLID_13_" fill="#D5D5D5"></path>
            <path d="M134,217.7 L50.2,133.9 L134,50 L161.9,77.9 L106,133.8 L133.9,161.7 L217.7,77.9 L144.7,4.9 C138.7,-1.1 129.1,-1.1 123.1,4.9 L5.1,123.1 C-0.9,129.1 -0.9,138.7 5.1,144.7 L123.2,262.8 C129.2,268.8 138.8,268.8 144.8,262.8 L262.9,144.7 C268.9,138.7 268.9,129.1 262.9,123.1 L245.8,106 L134,217.7 Z" id="XMLID_14_" fill="#86B918"></path>
        </g>
    </g>
</svg>