<?xml version="1.0" encoding="UTF-8"?>
<svg width="1000px" height="1000px" viewBox="0 0 1000 1000" version="1.1" xmlns="http://www.w3.org/2000/svg" xmlns:xlink="http://www.w3.org/1999/xlink">
    <!-- Generator: Sketch 63.1 (92452) - https://sketch.com -->
    <title>file_csv</title>
    <desc>Created with Sketch.</desc>
    <defs>
        <path d="M330.028059,956 C357.900234,956 381.890881,951.51094 402,942.532819 L402,942.532819 L402,910.688546 C381.236165,920.975976 360.659392,926.119691 340.26968,926.119691 C317.541699,926.119691 299.794232,919.105534 287.02728,905.07722 C274.260327,891.048906 267.876851,871.502789 267.876851,846.438867 C267.876851,820.907336 273.816056,801.197555 285.694466,787.309524 C297.572876,773.421493 314.455183,766.477477 336.341387,766.477477 C353.457521,766.477477 374.68901,770.919777 400.035853,779.804376 L400.035853,779.804376 L400.035853,745.996139 C377.681995,740.66538 355.187841,738 332.55339,738 C297.105222,738 269.817615,747.422351 250.690569,766.267053 C231.563523,785.111755 222,812.022737 222,847 C222,881.322608 231.493375,908.069927 250.480125,927.241956 C269.466875,946.413985 295.982853,956 330.028059,956 Z M486.850806,956 C512.159946,956 532.012097,950.528958 546.407258,939.586873 C560.802419,928.644788 568,913.54097 568,894.275418 C568,880.714715 564.189516,869.211497 556.568548,859.765766 C548.947581,850.320034 535.069892,839.985843 514.935484,828.763192 L514.935484,828.763192 L499.975806,820.486486 C488.77957,814.220506 481.158602,808.936508 477.112903,804.634492 C473.067204,800.332475 471.044355,795.329043 471.044355,789.624196 C471.044355,782.703561 473.9375,777.115616 479.72379,772.86036 C485.510081,768.605105 493.201613,766.477477 502.798387,766.477477 C515.217742,766.477477 532.106183,770.452166 553.46371,778.401544 L553.46371,778.401544 L553.46371,745.15444 C532.576613,740.384813 513.806452,738 497.153226,738 C476.360215,738 459.636425,743.190476 446.981855,753.571429 C434.327285,763.952381 428,777.700129 428,794.814672 C428,807.627199 431.857527,818.826469 439.572581,828.412484 C447.287634,837.998498 460.50672,848.028743 479.229839,858.503218 L479.229839,858.503218 L493.201613,866.21879 C504.491935,872.578293 512.159946,878.072716 516.205645,882.702059 C520.251344,887.331403 522.274194,893.01287 522.274194,899.746461 C522.274194,908.256971 519.051747,914.990562 512.606855,919.947233 C506.161962,924.903904 497.341398,927.382239 486.145161,927.382239 C470.150538,927.382239 450.909946,922.706135 428.423387,913.353925 L428.423387,913.353925 L428.423387,948.985843 C450.627688,953.661948 470.103495,956 486.850806,956 Z M703.901805,950 L778,742 L746.903971,742 L689.474368,902.918919 L630.083755,742 L584,742 L660.619495,950 L703.901805,950 Z" id="path-1"></path>
        <filter x="-2.4%" y="-6.2%" width="105.2%" height="112.4%" filterUnits="objectBoundingBox" id="filter-2">
            <feMorphology radius="2.5" operator="dilate" in="SourceAlpha" result="shadowSpreadOuter1"></feMorphology>
            <feOffset dx="0" dy="0" in="shadowSpreadOuter1" result="shadowOffsetOuter1"></feOffset>
            <feGaussianBlur stdDeviation="2" in="shadowOffsetOuter1" result="shadowBlurOuter1"></feGaussianBlur>
            <feColorMatrix values="0 0 0 0 0   0 0 0 0 0   0 0 0 0 0  0 0 0 0.5 0" type="matrix" in="shadowBlurOuter1"></feColorMatrix>
        </filter>
    </defs>
    <g id="file_csv" stroke="none" stroke-width="1" fill="none" fill-rule="evenodd">
        <g id="File/CSV">
            <g id="csv" stroke-width="1" fill-rule="evenodd" transform="translate(116.000000, 0.000000)">
                <path d="M544.476279,0 L26.1298605,0 C11.6986047,0 0,11.6964286 0,34.3928571 L0,982.142857 C0,988.303571 11.6986047,1000 26.1298605,1000 L741.87014,1000 C756.301395,1000 768,988.303571 768,982.142857 L768,231.75 C768,219.321429 766.338977,215.321429 763.40986,212.375 L555.585488,4.58928571 C552.638512,1.66071429 548.637767,0 544.476279,0 Z" id="Path" fill="#E9E9E0" fill-rule="nonzero"></path>
                <polygon id="Path" fill="#D9D7CA" fill-rule="nonzero" points="550 6 550 216 762 216"></polygon>
                <path d="M741.87014,1000 L26.1298605,1000 C11.6986047,1000 0,988.364118 0,974.010235 L0,698 L768,698 L768,974.010235 C768,988.364118 756.301395,1000 741.87014,1000 Z" id="Path" fill="#C81759" fill-rule="nonzero"></path>
            </g>
            <path d="M423.819871,620 C569.353021,539.715302 649.647173,422.633452 647.974378,300.533808 C646.301583,205.19573 601.136123,158.362989 579.38979,150 L549.279483,150 L413.783102,233.629893 L413.783102,265.409253 L485.71328,305.551601 C497.422843,320.604982 504.114023,342.348754 504.114023,364.092527 C504.114023,432.669039 450.584588,507.935943 382,563.131673 L423.819871,620 Z" id="," fill="#1E1E1E" fill-rule="nonzero"></path>
            <g id="CSV" fill-rule="nonzero">
                <use fill="black" fill-opacity="1" filter="url(#filter-2)" xlink:href="#path-1"></use>
                <use fill="#FFFFFF" xlink:href="#path-1"></use>
            </g>
        </g>
    </g>
</svg>