<?xml version="1.0" encoding="UTF-8"?>
<svg width="1000px" height="1000px" viewBox="0 0 1000 1000" version="1.1" xmlns="http://www.w3.org/2000/svg" xmlns:xlink="http://www.w3.org/1999/xlink">
    <!-- Generator: Sketch 63.1 (92452) - https://sketch.com -->
    <title>file_tsv</title>
    <desc>Created with Sketch.</desc>
    <defs>
        <path d="M230.631863,956.275862 L230.631863,779.54287 L304.308725,779.54287 L304.308725,751.448276 L114,751.448276 L114,779.54287 L187.676862,779.54287 L187.676862,956.275862 L230.631863,956.275862 Z M381.004736,960 C405.964449,960 425.542515,954.579151 439.738932,943.737452 C453.935349,932.895753 461.033557,917.930502 461.033557,898.841699 C461.033557,885.405405 457.275682,874.007722 449.759932,864.648649 C442.244182,855.289575 428.558093,845.050193 408.701667,833.930502 L393.948528,825.72973 C382.90687,819.521236 375.39112,814.285714 371.401277,810.023166 C367.411435,805.760618 365.416513,800.803089 365.416513,795.150579 C365.416513,788.293436 368.269715,782.756757 373.976118,778.540541 C379.682521,774.324324 387.267861,772.216216 396.732139,772.216216 C408.980028,772.216216 425.635302,776.15444 446.69796,784.030888 L446.69796,751.088803 C426.099237,746.362934 407.588223,744 391.164917,744 C370.658981,744 354.166085,749.142857 341.686228,759.428571 C329.206371,769.714286 322.966443,783.335907 322.966443,800.293436 C322.966443,812.988417 326.770712,824.084942 334.379249,833.583012 C341.987786,843.081081 355.024365,853.019305 373.488986,863.397683 L387.267861,871.042471 C398.402306,877.343629 405.964449,882.787645 409.954292,887.374517 C413.944135,891.96139 415.939056,897.590734 415.939056,904.262548 C415.939056,912.694981 412.7611,919.366795 406.405188,924.277992 C400.049276,929.189189 391.350491,931.644788 380.308833,931.644788 C364.535036,931.644788 345.560087,927.011583 323.383985,917.745174 L323.383985,953.050193 C345.281726,957.683398 364.488643,960 381.004736,960 Z M595.886425,956.275862 L670,751.448276 L638.897517,751.448276 L581.455993,909.912861 L522.053052,751.448276 L475.959732,751.448276 L552.59513,956.275862 L595.886425,956.275862 Z" id="path-1"></path>
        <filter x="-2.4%" y="-6.2%" width="105.2%" height="112.5%" filterUnits="objectBoundingBox" id="filter-2">
            <feMorphology radius="2.5" operator="dilate" in="SourceAlpha" result="shadowSpreadOuter1"></feMorphology>
            <feOffset dx="0" dy="0" in="shadowSpreadOuter1" result="shadowOffsetOuter1"></feOffset>
            <feGaussianBlur stdDeviation="2" in="shadowOffsetOuter1" result="shadowBlurOuter1"></feGaussianBlur>
            <feColorMatrix values="0 0 0 0 0   0 0 0 0 0   0 0 0 0 0  0 0 0 0.5 0" type="matrix" in="shadowBlurOuter1"></feColorMatrix>
        </filter>
    </defs>
    <g id="file_tsv" stroke="none" stroke-width="1" fill="none" fill-rule="evenodd">
        <g id="File/TSV">
            <g id="tsv" transform="translate(116.000000, 0.000000)">
                <path d="M544.476279,0 L26.1298605,0 C11.6986047,0 0,11.6964286 0,34.3928571 L0,982.142857 C0,988.303571 11.6986047,1000 26.1298605,1000 L741.87014,1000 C756.301395,1000 768,988.303571 768,982.142857 L768,231.75 C768,219.321429 766.338977,215.321429 763.40986,212.375 L555.585488,4.58928571 C552.638512,1.66071429 548.637767,0 544.476279,0 Z" id="Path" fill="#E9E9E0" fill-rule="nonzero"></path>
                <polygon id="Path" fill="#D9D7CA" fill-rule="nonzero" points="552 6 552 216 762 216"></polygon>
                <path d="M741.87014,1000 L26.1298605,1000 C11.6986047,1000 0,988.364118 0,974.010235 L0,698 L768,698 L768,974.010235 C768,988.364118 756.301395,1000 741.87014,1000 Z" id="Path" fill="#6700A8" fill-rule="nonzero"></path>
                <g id="TSV" fill-rule="nonzero">
                    <use fill="black" fill-opacity="1" filter="url(#filter-2)" xlink:href="#path-1"></use>
                    <use fill="#FFFFFF" xlink:href="#path-1"></use>
                </g>
                <g id="Group-5" transform="translate(70.000000, 242.000000)" fill="#000000">
                    <rect id="Rectangle" x="497.981651" y="0" width="92.0183486" height="372"></rect>
                    <polygon id="Rectangle-Copy-3" transform="translate(178.623853, 183.304348) rotate(-90.000000) translate(-178.623853, -183.304348) " points="130.102114 4.68049462 227.145592 4.68049462 227.145592 361.928201 130.102114 361.928201"></polygon>
                    <polygon id="Triangle" transform="translate(368.073394, 183.304348) rotate(90.000000) translate(-368.073394, -183.304348) " points="368.073394 80.4603111 551.377742 286.148385 184.769047 286.148385"></polygon>
                </g>
            </g>
        </g>
    </g>
</svg>