<?xml version="1.0" encoding="UTF-8"?>
<svg width="1000px" height="1000px" viewBox="0 0 1000 1000" version="1.1" xmlns="http://www.w3.org/2000/svg" xmlns:xlink="http://www.w3.org/1999/xlink">
    <!-- Generator: Sketch 58 (84663) - https://sketch.com -->
    <title>file_ms_word</title>
    <desc>Created with Sketch.</desc>
    <g id="file_ms_word" stroke="none" stroke-width="1" fill="none" fill-rule="evenodd">
        <g id="File/Word">
            <g id="file_ms_word" transform="translate(40.000000, 50.000000)">
                <path d="M480.821994,1.72972973 L543.322814,1.72972973 C543.322814,29.6094972 543.322814,57.384846 543.322814,85.2646135 C655.155386,85.8911251 766.883441,84.1160088 878.611497,85.8911251 C902.441241,83.4894972 921.149681,101.97159 918.954836,125.779032 C920.731615,331.483683 918.53677,537.292753 920,742.997404 C918.954836,764.089962 922.090328,787.47973 909.861907,806.17066 C894.602509,817.030195 874.848906,815.672753 857.081114,816.508102 C752.460175,815.986009 647.943753,816.194846 543.322814,816.194846 C543.322814,844.074613 543.322814,871.849962 543.322814,899.72973 L478.00005,899.72973 C318.926056,870.701358 159.433996,844.074613 0.0464517432,816.194846 C-0.058064679,572.586241 0.0464517432,328.977637 0.0464517432,85.4734507 C160.270127,57.4892646 320.598319,30.2360088 480.821994,1.72972973 Z" id="path6" fill="#2A5699" fill-rule="nonzero"></path>
                <path d="M544,117.72973 C658.666667,117.72973 773.333333,117.72973 888,117.72973 C888,340.361605 888,563.097855 888,785.72973 C773.333333,785.72973 658.666667,785.72973 544,785.72973 C544,757.861605 544,730.097855 544,702.22973 C634.378182,702.22973 724.652121,702.22973 815.030303,702.22973 C815.030303,688.347855 815.030303,674.361605 815.030303,660.47973 C724.652121,660.47973 634.378182,660.47973 544,660.47973 C544,643.049105 544,625.722855 544,608.29223 C634.378182,608.29223 724.652121,608.29223 815.030303,608.29223 C815.030303,594.410355 815.030303,580.424105 815.030303,566.54223 C724.652121,566.54223 634.378182,566.54223 544,566.54223 C544,549.111605 544,531.785355 544,514.35473 C634.378182,514.35473 724.652121,514.35473 815.030303,514.35473 C815.030303,500.472855 815.030303,486.486605 815.030303,472.60473 C724.652121,472.60473 634.378182,472.60473 544,472.60473 C544,455.174105 544,437.847855 544,420.41723 C634.378182,420.41723 724.652121,420.41723 815.030303,420.41723 C815.030303,406.535355 815.030303,392.549105 815.030303,378.66723 C724.652121,378.66723 634.378182,378.66723 544,378.66723 C544,361.236605 544,343.910355 544,326.47973 C634.378182,326.47973 724.652121,326.47973 815.030303,326.47973 C815.030303,312.597855 815.030303,298.611605 815.030303,284.72973 C724.652121,284.72973 634.378182,284.72973 544,284.72973 C544,267.299105 544,249.972855 544,232.54223 C634.378182,232.54223 724.652121,232.54223 815.030303,232.54223 C815.030303,218.660355 815.030303,204.674105 815.030303,190.79223 C724.652121,190.79223 634.378182,190.79223 544,190.79223 C544,166.472855 544,142.049105 544,117.72973 Z" id="path46" fill="#FFFFFF" fill-rule="nonzero"></path>
                <path d="M216.773041,301.957142 C236.666458,300.807556 256.559875,299.971494 276.453292,298.926416 C290.378683,369.469177 304.618182,439.907431 319.695298,510.136669 C331.526646,437.608259 344.61442,365.288865 357.283386,292.864964 C378.223824,292.133409 399.164263,290.983823 420,289.72973 C396.337304,390.997783 375.60627,493.101898 349.744828,593.742905 C332.259561,602.835083 306.084013,593.324874 285.352978,594.787983 C271.427586,525.603823 255.198746,456.837694 242.739185,387.34001 C230.489028,454.852045 214.574295,521.737034 200.544201,588.831038 C180.441379,587.78596 160.233856,586.531867 140.026332,585.173266 C122.645768,493.206406 102.22884,401.866594 86,309.690719 C103.904075,308.854656 121.912853,308.123102 139.816928,307.496055 C150.601254,374.06752 162.851411,440.325462 172.274608,507.001435 C187.037618,438.653337 202.114734,370.305239 216.773041,301.957142 L216.773041,301.957142 Z" id="path88" fill="#FFFFFF" fill-rule="nonzero"></path>
            </g>
        </g>
    </g>
</svg>