<?xml version="1.0" encoding="UTF-8"?>
<svg width="1000px" height="1000px" viewBox="0 0 1000 1000" version="1.1" xmlns="http://www.w3.org/2000/svg" xmlns:xlink="http://www.w3.org/1999/xlink">
    <!-- Generator: Sketch 63.1 (92452) - https://sketch.com -->
    <title>file_xsd</title>
    <desc>Created with Sketch.</desc>
    <defs>
        <path d="M252.84434,952 L300.982704,877.654054 L345.902516,952 L396,952 L330.22956,842.097297 L393.761006,744 L358.916667,744 L313.29717,813.989189 L271.176101,744 L220.938679,744 L284.330189,849.545946 L218,952 L252.84434,952 Z M476.850806,956 C502.159946,956 522.012097,950.528958 536.407258,939.586873 C550.802419,928.644788 558,913.54097 558,894.275418 C558,880.714715 554.189516,869.211497 546.568548,859.765766 C538.947581,850.320034 525.069892,839.985843 504.935484,828.763192 L504.935484,828.763192 L489.975806,820.486486 C478.77957,814.220506 471.158602,808.936508 467.112903,804.634492 C463.067204,800.332475 461.044355,795.329043 461.044355,789.624196 C461.044355,782.703561 463.9375,777.115616 469.72379,772.86036 C475.510081,768.605105 483.201613,766.477477 492.798387,766.477477 C505.217742,766.477477 522.106183,770.452166 543.46371,778.401544 L543.46371,778.401544 L543.46371,745.15444 C522.576613,740.384813 503.806452,738 487.153226,738 C466.360215,738 449.636425,743.190476 436.981855,753.571429 C424.327285,763.952381 418,777.700129 418,794.814672 C418,807.627199 421.857527,818.826469 429.572581,828.412484 C437.287634,837.998498 450.50672,848.028743 469.229839,858.503218 L469.229839,858.503218 L483.201613,866.21879 C494.491935,872.578293 502.159946,878.072716 506.205645,882.702059 C510.251344,887.331403 512.274194,893.01287 512.274194,899.746461 C512.274194,908.256971 509.051747,914.990562 502.606855,919.947233 C496.161962,924.903904 487.341398,927.382239 476.145161,927.382239 C460.150538,927.382239 440.909946,922.706135 418.423387,913.353925 L418.423387,913.353925 L418.423387,948.985843 C440.627688,953.661948 460.103495,956 476.850806,956 Z M681.137342,952 C713.610492,952 738.872556,942.513514 756.923534,923.540541 C774.974511,904.567568 784,877.935135 784,843.643243 C784,811.412613 775.486266,786.747748 758.458797,769.648649 C741.431329,752.54955 716.913635,744 684.905716,744 L684.905716,744 L596,744 L596,952 L681.137342,952 Z M670.303371,922 L638,922 L638,772 L664.123596,772 C680.790262,772 693.477528,773.733833 702.185393,777.2015 C710.893258,780.669166 718.337079,786.948454 724.516854,796.039363 C733.505618,809.253983 738,825.795689 738,845.66448 C738,871.343955 732.405431,890.48641 721.216292,903.091846 C710.027154,915.697282 693.05618,922 670.303371,922 L670.303371,922 Z" id="path-1"></path>
        <filter x="-3.1%" y="-6.2%" width="105.5%" height="112.4%" filterUnits="objectBoundingBox" id="filter-2">
            <feMorphology radius="2.5" operator="dilate" in="SourceAlpha" result="shadowSpreadOuter1"></feMorphology>
            <feOffset dx="0" dy="0" in="shadowSpreadOuter1" result="shadowOffsetOuter1"></feOffset>
            <feGaussianBlur stdDeviation="2" in="shadowOffsetOuter1" result="shadowBlurOuter1"></feGaussianBlur>
            <feColorMatrix values="0 0 0 0 0   0 0 0 0 0   0 0 0 0 0  0 0 0 0.5 0" type="matrix" in="shadowBlurOuter1"></feColorMatrix>
        </filter>
    </defs>
    <g id="file_xsd" stroke="none" stroke-width="1" fill="none" fill-rule="evenodd">
        <g id="File/XSD">
            <g id="xml" stroke-width="1" fill-rule="evenodd" transform="translate(116.000000, 0.000000)">
                <path d="M544.476279,0 L26.1298605,0 C11.6986047,0 0,11.6964286 0,34.3928571 L0,982.142857 C0,988.303571 11.6986047,1000 26.1298605,1000 L741.87014,1000 C756.301395,1000 768,988.303571 768,982.142857 L768,231.75 C768,219.321429 766.338977,215.321429 763.40986,212.375 L555.585488,4.58928571 C552.638512,1.66071429 548.637767,0 544.476279,0 Z" id="Path" fill="#E9E9E0" fill-rule="nonzero"></path>
                <polygon id="Path" fill="#D9D7CA" fill-rule="nonzero" points="558 6 558 216 768 216"></polygon>
                <path d="M741.87014,1000 L26.1298605,1000 C11.6986047,1000 0,988.364118 0,974.010235 L0,698 L768,698 L768,974.010235 C768,988.364118 756.301395,1000 741.87014,1000 Z" id="Path" fill="#2D42FF" fill-rule="nonzero"></path>
                <g id="Group-3" transform="translate(50.000000, 242.000000)" fill="#2D42FF">
                    <path d="M0.146717326,76.9558967 L233.824458,77.0878601 C237.963285,77.0901974 241.317884,80.4447962 241.320221,84.5836234 L241.357544,150.674225 C241.359883,154.81636 238.003916,158.17612 233.861781,158.178459 C233.858957,158.17846 233.856133,158.17846 233.85331,158.178459 L0.175569395,158.046495 C-3.96325788,158.044158 -7.31785669,154.689559 -7.32019398,150.550732 L-7.3575169,84.460131 C-7.35985607,80.317996 -4.00388849,76.9582359 0.138246473,76.9558967 C0.141070091,76.9558951 0.143893709,76.9558951 0.146717326,76.9558967 Z" id="Rectangle" transform="translate(117.000014, 117.567178) rotate(-45.000000) translate(-117.000014, -117.567178) "></path>
                    <path d="M0.175555799,195.953537 L233.853296,195.821574 C237.995431,195.819235 241.355191,199.175202 241.35753,203.317337 C241.357532,203.320161 241.357532,203.322985 241.35753,203.325808 L241.320208,269.416371 C241.31787,273.555198 237.963271,276.909797 233.824444,276.912134 L0.146703751,277.044098 C-3.99543121,277.046437 -7.35519132,273.690469 -7.35753048,269.548334 C-7.35753207,269.545511 -7.35753207,269.542687 -7.35753048,269.539863 L-7.32020758,203.449301 C-7.31787029,199.310473 -3.96327148,195.955875 0.175555799,195.953537 Z" id="Rectangle-Copy" transform="translate(117.000000, 236.432836) rotate(45.000000) translate(-117.000000, -236.432836) "></path>
                </g>
                <g id="Group-3-Copy" transform="translate(585.000000, 419.000000) scale(-1, 1) translate(-585.000000, -419.000000) translate(468.000000, 242.000000)" fill="#2D42FF">
                    <path d="M0.146717326,76.9558967 L233.824458,77.0878601 C237.963285,77.0901974 241.317884,80.4447962 241.320221,84.5836234 L241.357544,150.674225 C241.359883,154.81636 238.003916,158.17612 233.861781,158.178459 C233.858957,158.17846 233.856133,158.17846 233.85331,158.178459 L0.175569395,158.046495 C-3.96325788,158.044158 -7.31785669,154.689559 -7.32019398,150.550732 L-7.3575169,84.460131 C-7.35985607,80.317996 -4.00388849,76.9582359 0.138246473,76.9558967 C0.141070091,76.9558951 0.143893709,76.9558951 0.146717326,76.9558967 Z" id="Rectangle" transform="translate(117.000014, 117.567178) rotate(-45.000000) translate(-117.000014, -117.567178) "></path>
                    <path d="M0.175555799,195.953537 L233.853296,195.821574 C237.995431,195.819235 241.355191,199.175202 241.35753,203.317337 C241.357532,203.320161 241.357532,203.322985 241.35753,203.325808 L241.320208,269.416371 C241.31787,273.555198 237.963271,276.909797 233.824444,276.912134 L0.146703751,277.044098 C-3.99543121,277.046437 -7.35519132,273.690469 -7.35753048,269.548334 C-7.35753207,269.545511 -7.35753207,269.542687 -7.35753048,269.539863 L-7.32020758,203.449301 C-7.31787029,199.310473 -3.96327148,195.955875 0.175555799,195.953537 Z" id="Rectangle-Copy" transform="translate(117.000000, 236.432836) rotate(45.000000) translate(-117.000000, -236.432836) "></path>
                </g>
                <path d="M147.234777,383.725499 L615.344586,383.806676 C618.933556,383.809553 621.842836,386.718833 621.845712,390.307803 L621.855646,447.613466 C621.858522,451.203317 618.948877,454.11397 615.359026,454.114593 C615.358275,454.114593 615.357523,454.114593 615.356773,454.112339 L147.246963,454.031162 C143.657993,454.028285 140.748713,451.119005 140.745837,447.530035 L140.735904,390.224371 C140.733028,386.634521 143.642672,383.723867 147.232523,383.723245 C147.233275,383.723245 147.234026,383.723245 147.234777,383.725499 Z" id="Rectangle-Copy-2" fill="#2D42FF" transform="translate(381.295775, 418.918919) rotate(-71.000000) translate(-381.295775, -418.918919) "></path>
            </g>
            <g id="XSD" fill-rule="nonzero">
                <use fill="black" fill-opacity="1" filter="url(#filter-2)" xlink:href="#path-1"></use>
                <use fill="#FFFFFF" xlink:href="#path-1"></use>
            </g>
        </g>
    </g>
</svg>