<?xml version="1.0" encoding="UTF-8"?>
<svg width="1000px" height="1000px" viewBox="0 0 1000 1000" version="1.1" xmlns="http://www.w3.org/2000/svg" xmlns:xlink="http://www.w3.org/1999/xlink">
    <!-- Generator: Sketch 58 (84663) - https://sketch.com -->
    <title>file_ms_onenote</title>
    <desc>Created with Sketch.</desc>
    <g id="file_ms_onenote" stroke="none" stroke-width="1" fill="none" fill-rule="evenodd">
        <g id="File/OneNote">
            <g id="file_ms_onenote" transform="translate(40.000000, 52.000000)">
                <path d="M476.369353,0 L538.324306,0 C538.324306,27.6621612 538.324306,55.3243224 538.42791,82.9864837 C635.400879,86.7162133 733.513489,75.1126101 829.761233,89.6171141 C833.180152,100.599096 836.806278,111.477474 840.432404,122.355852 C864.882853,126.707203 904.252221,123.702698 908.085555,156.855851 C915.959428,217.463957 910.468437,278.797288 906.531501,339.508997 C912.126095,404.05404 915.959428,469.635119 904.666636,533.765748 C914.094563,593.13061 914.198167,654.049527 907.878347,713.621597 C903.423393,745.842317 865.193664,743.563038 841.054025,748.121596 C837.531503,765.008983 837.842314,783.554027 828.725197,798.576549 C810.076549,810.283756 786.972946,807.486459 766.148623,808.418891 C690.207184,807.693666 614.265745,808.004477 538.42791,808.004477 C538.324306,835.666638 538.324306,863.328799 538.324306,890.990961 L473.468452,890.990961 C315.887377,862.085556 157.891887,835.666638 0.1036036,808.108081 C0,566.400882 0,324.797286 0,83.0900873 C158.824319,55.427926 317.648638,28.2837828 476.369353,0 Z" id="path26" fill="#733781" fill-rule="nonzero"></path>
                <path d="M538.324306,113.860356 C628.148627,113.860356 717.972949,113.756753 807.79727,113.860356 C807.693666,127.639635 807.693666,141.315311 807.79727,155.094589 C831.626098,155.198193 855.454926,155.612607 879.387357,156.648643 C880.734204,211.144137 881.252222,265.639631 878.972943,320.135124 C855.247719,320.963953 831.418891,321.378367 807.79727,321.481971 C807.79727,473.364849 807.900873,625.247726 807.79727,777.130604 C717.972949,777.234208 628.148627,777.130604 538.324306,777.130604 C538.324306,749.468443 538.324306,721.702678 538.324306,694.040517 C603.905385,693.936913 669.486464,694.040517 735.171146,694.040517 C735.067543,680.261238 735.067543,666.585563 735.171146,652.806284 C669.486464,652.806284 603.905385,652.909888 538.324306,652.806284 C538.324306,635.504483 538.324306,618.099078 538.324306,600.797277 C603.905385,600.693673 669.486464,600.797277 735.171146,600.797277 C735.067543,587.017998 735.067543,573.342323 735.171146,559.563044 C669.486464,559.563044 603.905385,559.666648 538.324306,559.563044 C538.324306,542.261243 538.324306,524.855838 538.324306,507.554037 C603.905385,507.450433 669.486464,507.554037 735.171146,507.554037 C735.067543,493.774758 735.067543,480.099083 735.171146,466.319804 C669.486464,466.319804 603.905385,466.423408 538.324306,466.319804 C538.324306,449.018003 538.324306,431.612598 538.324306,414.310797 C603.905385,414.207193 669.486464,414.310797 735.067543,414.310797 C735.067543,400.531518 735.067543,386.855843 735.171146,373.076564 C669.486464,373.076564 603.905385,373.180167 538.324306,373.076564 C538.324306,355.774763 538.324306,338.369358 538.324306,321.067557 C603.905385,320.963953 669.486464,321.067557 735.171146,321.067557 C735.067543,307.288278 735.067543,293.612603 735.171146,279.833324 C669.486464,279.833324 603.905385,279.936927 538.324306,279.833324 C538.324306,262.531523 538.324306,245.126118 538.324306,227.824317 C603.905385,227.720713 669.486464,227.824317 735.171146,227.824317 C735.067543,214.045038 735.067543,200.369363 735.171146,186.590084 C669.486464,186.590084 603.905385,186.693687 538.324306,186.590084 C538.324306,162.346841 538.324306,138.103599 538.324306,113.860356 L538.324306,113.860356 Z" id="path52" fill="#FFFFFF" fill-rule="nonzero"></path>
                <path d="M320.135124,271.752243 C340.752241,270.612603 361.472961,269.472964 382.297284,268.540531 C382.297284,382.918906 382.297284,497.400884 382.297284,611.779258 C359.918907,610.846826 337.747736,609.603583 315.576566,608.36034 C274.342333,529.103586 229.689181,451.608093 189.801795,371.626113 C192.081075,448.292778 190.734228,525.063045 190.941435,601.729709 C172.08558,600.486466 153.436932,599.346826 134.68468,598.207187 C134.995491,492.945929 134.891887,387.581068 134.68468,282.31981 C156.027022,281.180171 177.26576,280.040531 198.711705,278.900891 C239.220713,353.081069 280.351342,426.950436 319.72071,501.855839 C320.549539,425.189175 319.72071,348.418907 320.135124,271.752243 Z" id="path80" fill="#FFFFFF" fill-rule="nonzero"></path>
                <path d="M838.671143,351.734222 C852.139611,352.25224 865.608079,352.873862 879.18015,353.495483 C880.941411,407.990977 881.252222,462.382867 878.869339,516.774757 C865.400871,517.396379 852.036007,518.018 838.671143,518.536018 C838.567539,462.900885 838.567539,407.265752 838.671143,351.734222 Z" id="path102" fill="#FFFFFF" fill-rule="nonzero"></path>
                <path d="M838.671143,548.477459 C852.139611,549.09908 865.711682,549.824306 879.387357,550.549531 C880.941411,604.734214 880.837808,658.918896 879.387357,713.103579 C865.711682,713.932408 852.139611,714.761237 838.671143,715.590066 C838.567539,659.851329 838.567539,604.216196 838.671143,548.477459 Z" id="path116" fill="#FFFFFF" fill-rule="nonzero"></path>
            </g>
        </g>
    </g>
</svg>