<?xml version="1.0" encoding="UTF-8"?>
<svg width="1000px" height="1000px" viewBox="0 0 1000 1000" version="1.1" xmlns="http://www.w3.org/2000/svg" xmlns:xlink="http://www.w3.org/1999/xlink">
    <!-- Generator: Sketch 60.1 (88133) - https://sketch.com -->
    <title>file_ms_powerpoint</title>
    <desc>Created with Sketch.</desc>
    <defs>
        <polygon id="path-1" points="0 1055.96365 1265.86875 1055.96365 1265.86875 0 0 0"></polygon>
    </defs>
    <g id="file_ms_powerpoint" stroke="none" stroke-width="1" fill="none" fill-rule="evenodd">
        <g id="File/PowerPoint">
            <rect id="Rectangle" stroke="#979797" fill="#D8D8D8" x="472.5" y="160.5" width="477" height="665"></rect>
            <g id="file_ms_powerpoint" transform="translate(-134.000000, -28.000000)">
                <g id="g12" transform="translate(633.000000, 528.000000) scale(-1, 1) rotate(-180.000000) translate(-633.000000, -528.000000) ">
                    <g id="g14-Clipped">
                        <mask id="mask-2" fill="white">
                            <use xlink:href="#path-1"></use>
                        </mask>
                        <g id="path16"></g>
                        <g id="g14" mask="url(#mask-2)">
                            <g transform="translate(173.681957, 76.042907)">
                                <g id="g20" transform="translate(0.183822, 0.307405)">
                                    <path d="M892.218094,150.112479 L527.759291,150.112479 L527.759291,228.186498 L811.965517,228.186498 L811.965517,264.420544 L527.759291,264.420544 L527.759291,325.671612 L811.965517,325.671612 L811.965517,361.905659 L527.759291,361.905659 L527.759291,462.600075 C550.659049,435.051847 584.713547,417.555979 622.773863,417.555979 C691.735482,417.555979 747.635309,474.914475 747.635309,545.664039 L622.773863,545.664039 L622.773863,673.7721 C584.713547,673.7721 550.659049,656.276231 527.759291,628.728003 L527.759291,771.267567 L892.268545,771.267567 L892.218094,150.112479 Z M892.268545,802.325321 L527.759291,802.325321 L527.759291,900.022664 L0.545214348,806.171306 L0.545214348,94.4932177 L527.759291,0.641860257 L527.759291,119.054725 L892.268545,119.054725 C908.962817,119.054725 922.53921,132.984128 922.53921,150.112479 L922.53921,771.267567 C922.53921,788.395918 908.962817,802.325321 892.268545,802.325321" id="path22" fill="#CB4A32" fill-rule="nonzero"></path>
                                </g>
                                <g id="g24" transform="translate(642.295595, 563.509358)">
                                    <path d="M0,128.692347 L0,0.584286629 L124.861447,0.584286629 C124.861447,71.3338511 68.9616193,128.692347 0,128.692347" id="path26" fill="#CB4A32" fill-rule="nonzero"></path>
                                </g>
                                <g id="g28" transform="translate(169.030058, 297.089328)">
                                    <path d="M54.7801553,159.035139 C75.8132221,157.378725 96.3569132,153.346393 109.131134,175.718329 C118.787476,192.598219 117.975213,223.443745 106.775067,236.415534 C92.290554,253.186721 73.5782381,250.795274 54.7801553,247.741261 L54.7801553,159.035139 Z M53.2968927,0.226488042 L0.489718129,0.226488042 L0.489718129,302.635842 C41.2289877,302.635842 81.7614077,303.810861 122.142474,301.84387 C132.757388,301.32624 145.082593,293.230519 152.91765,284.927746 C182.905789,253.16084 182.910834,213.588084 173.950717,174.118855 C165.964307,138.966653 143.861676,114.234328 109.025186,105.538157 C91.6700053,101.2056 73.0989525,102.002749 53.2968927,100.330807 L53.2968927,0.226488042 Z" id="path30" fill="#FFFFFF"></path>
                                </g>
                            </g>
                        </g>
                    </g>
                </g>
            </g>
        </g>
    </g>
</svg>