<?xml version="1.0" encoding="UTF-8"?>
<svg width="1000px" height="1000px" viewBox="0 0 1000 1000" version="1.1" xmlns="http://www.w3.org/2000/svg" xmlns:xlink="http://www.w3.org/1999/xlink">
    <!-- Generator: Sketch 63.1 (92452) - https://sketch.com -->
    <title>file_java</title>
    <desc>Created with Sketch.</desc>
    <defs>
        <path d="M192.640625,984.8125 C215.609375,984.8125 232.152344,979.34375 242.269531,968.40625 C252.386719,957.46875 257.445312,939.558594 257.445312,914.675781 L257.445312,914.675781 L257.445312,742 L215.199219,742 L215.199219,919.1875 C215.199219,933.132812 213.376302,942.794271 209.730469,948.171875 C206.084635,953.549479 199.43099,956.238281 189.769531,956.238281 C178.19401,956.238281 166.9375,954.096354 156,949.8125 L156,949.8125 L156.273438,979.890625 C169.033854,983.171875 181.15625,984.8125 192.640625,984.8125 Z M317.661147,944.34375 L338.715834,890.339844 L422.387709,890.339844 L443.442397,944.34375 L486.645522,944.34375 L407.895522,742 L365.786147,742 L287.036147,944.34375 L317.661147,944.34375 Z M411.997084,863.40625 L349.106459,863.40625 L380.551772,782.742188 L411.997084,863.40625 Z M588.666043,944.34375 L660.990262,742 L630.638699,742 L574.584012,898.542969 L516.615262,742 L471.634793,742 L546.419949,944.34375 L588.666043,944.34375 Z M675.784221,944.34375 L696.838908,890.339844 L780.510783,890.339844 L801.565471,944.34375 L844.768596,944.34375 L766.018596,742 L723.909221,742 L645.159221,944.34375 L675.784221,944.34375 Z M770.120158,863.40625 L707.229533,863.40625 L738.674846,782.742188 L770.120158,863.40625 Z" id="path-1"></path>
        <filter x="-2.0%" y="-5.6%" width="104.3%" height="111.1%" filterUnits="objectBoundingBox" id="filter-2">
            <feMorphology radius="2.5" operator="dilate" in="SourceAlpha" result="shadowSpreadOuter1"></feMorphology>
            <feOffset dx="0" dy="0" in="shadowSpreadOuter1" result="shadowOffsetOuter1"></feOffset>
            <feGaussianBlur stdDeviation="2" in="shadowOffsetOuter1" result="shadowBlurOuter1"></feGaussianBlur>
            <feColorMatrix values="0 0 0 0 0   0 0 0 0 0   0 0 0 0 0  0 0 0 0.5 0" type="matrix" in="shadowBlurOuter1"></feColorMatrix>
        </filter>
    </defs>
    <g id="file_java" stroke="none" stroke-width="1" fill="none" fill-rule="evenodd">
        <g id="File/Java">
            <path d="M660.476279,0 L142.12986,0 C127.698605,0 116,11.6964286 116,34.3928571 L116,982.142857 C116,988.303571 127.698605,1000 142.12986,1000 L857.87014,1000 C872.301395,1000 884,988.303571 884,982.142857 L884,231.75 C884,219.321429 882.338977,215.321429 879.40986,212.375 L671.585488,4.58928571 C668.638512,1.66071429 664.637767,0 660.476279,0 Z" id="Path" fill="#E9E9E0" fill-rule="nonzero"></path>
            <polygon id="Path" fill="#D9D7CA" fill-rule="nonzero" points="668 6 668 216 878 216"></polygon>
            <path d="M857.87014,1000 L142.12986,1000 C127.698605,1000 116,988.364118 116,974.010235 L116,698 L884,698 L884,974.010235 C884,988.364118 872.301395,1000 857.87014,1000 Z" id="Path" fill="#6700A8" fill-rule="nonzero"></path>
            <g id="Group" stroke-width="1" fill-rule="evenodd" transform="translate(276.000000, 58.000000)">
                <path d="M105.232813,567.95933 C131.792842,578.842133 161.927965,582 193.889258,582 C219.740752,582 244.401183,580.997109 266.937919,573.642635 C321.473138,555.962002 363.491233,519.041296 380.065026,473.429561 C384.274369,473.206694 388.781621,471.646664 392.022379,469.343732 C397.498216,465.406525 399.658721,461.134989 400.962501,458.052051 C402.303471,454.820586 402.862289,452.14624 403.309247,449.397536 C403.979751,445.868921 404.277736,446.091712 404.836554,445.274622 C405.544306,444.123204 411.318166,440.743116 422.046407,436.174431 C432.588598,431.457218 447.153129,424.919834 463.356921,413.479816 C475.091129,405.271073 483.99406,395.465425 489.767232,384.693875 C495.578359,373.88524 498.036869,362.295934 498,351.524384 C497.813332,328.681432 488.463453,309.477492 479.374568,294.508765 C473.638013,285.074244 464.585938,279.65129 456.428732,276.976469 C448.121905,274.22786 440.000841,273.484939 431.9924,273.484939 C416.458998,273.559221 400.925596,276.493613 387.776227,279.650814 L387.776227,263.456404 C387.366469,247.112707 366.282744,232.330351 332.198709,221.483681 C326.834636,219.775048 321.134891,218.177858 315.212955,216.69211 C311.189852,215.689219 307.055082,214.723507 302.808357,213.832058 C295.768023,212.309131 288.168491,210.414791 283.84767,217.880708 C278.856078,226.460864 286.082748,231.066539 293.420991,232.923604 C299.269309,234.409352 304.707954,236.043626 309.587592,237.75226 C314.46742,239.497977 318.863004,241.280874 322.736961,243.212394 C335.029986,249.266827 342.032366,256.324056 342.032366,263.827437 C342.032366,286.893845 275.65232,305.613788 193.850446,305.613788 C111.974189,305.613788 45.6685254,286.85581 45.6685254,263.827437 C45.6685254,255.210102 54.9811283,247.187065 70.8496296,240.538524 C74.7981595,238.86707 79.1937432,237.307059 83.9246171,235.821311 C91.6727226,233.406936 107.616178,232.329781 106.312589,220.517874 C105.381329,212.123425 98.0429526,211.157618 91.1892408,212.494838 C86.7936571,213.349145 82.5098369,214.277735 78.3373987,215.243447 C73.345807,216.394866 68.5037417,217.620643 63.9216314,218.957768 C24.9579588,229.951824 0.37190906,245.775391 0,263.41894 L0,430.307606 C0,490.294721 42.6894385,542.254519 105.231192,567.966271 L105.232813,567.95933 Z" id="Path" fill="#000000" fill-rule="nonzero"></path>
                <path d="M386.211437,355.710634 C386.211437,346.127757 384.556184,333.621804 393.095551,326.77635 C402.87607,318.969294 418.789155,317.8963 430.827013,318.007312 C446.815215,317.896309 454.075488,340.725086 454,352.972452 C453.961793,357.671443 453.058953,361.667514 450.839519,365.848762 C448.544814,369.992786 444.670165,374.691777 437.447643,379.723427 C425.29711,388.122487 410.249788,397.113171 395.954591,401.368965 C383.879174,404.958021 386.174072,392.414937 386.174072,384.497342 C386.211688,374.877524 386.211688,365.294647 386.211688,355.710823 L386.211437,355.710634 Z" id="Path" fill="#FFFFFF" fill-rule="nonzero"></path>
                <path d="M236.873698,82.5841265 C246.122736,122.004645 229.096922,156.623268 224.52947,184.949588 C222.641933,196.749919 220.94314,226.715307 237.629447,229.804758 C246.274465,231.405421 260.053554,222.806513 266.093749,217.074352 C270.359674,213.054063 272.586912,208.773334 273.492941,204.268663 C276.097763,191.27715 267.830233,176.75997 267.603798,163.35869 C267.377286,151.298205 271.303394,139.60937 271.567713,127.58605 C272.24723,96.3923144 247.708456,64.1179385 221.774271,49.0423324 C221.170252,48.7073147 220.60402,48.3350654 220,48 C224.001606,53.6208568 227.776776,59.651671 231.023116,66.3518345 C233.590151,71.7121559 235.515475,77.1468071 236.874568,82.5814583 L236.873698,82.5841265 Z" id="Path" fill="#000000" fill-rule="nonzero"></path>
                <path d="M155.389559,257.593906 C168.47586,265.103496 207.021559,278.15282 211.521565,254.433932 C214.146313,240.6417 205.184697,225.882528 202.934982,212.499533 C200.797671,199.041353 201.21014,184.877953 205.034761,170.713602 C214.596217,137.255164 229.707041,108.108939 225.170559,83.7955151 C224.608116,80.3752472 223.745685,76.9178626 222.433312,73.4608586 C212.647143,45.7269766 191.049418,14.7220555 153.515453,0 C187.936466,55.3183449 166.788934,76.6947809 143.729284,116.584899 C119.619504,158.37083 100.833323,226.28891 155.390135,257.590765 L155.389559,257.593906 Z" id="Path" fill="#000000" fill-rule="nonzero"></path>
            </g>
            <g id="JAVA" fill-rule="nonzero">
                <use fill="black" fill-opacity="1" filter="url(#filter-2)" xlink:href="#path-1"></use>
                <use fill="#FFFFFF" xlink:href="#path-1"></use>
            </g>
        </g>
    </g>
</svg>