<?xml version="1.0" encoding="UTF-8"?>
<svg width="1000px" height="1000px" viewBox="0 0 1000 1000" version="1.1" xmlns="http://www.w3.org/2000/svg" xmlns:xlink="http://www.w3.org/1999/xlink">
    <!-- Generator: Sketch 58 (84663) - https://sketch.com -->
    <title>file_ms_access</title>
    <desc>Created with Sketch.</desc>
    <g id="file_ms_access" stroke="none" stroke-width="1" fill="none" fill-rule="evenodd">
        <g id="File/Access">
            <g id="file_ms_access" transform="translate(40.000000, 48.000000)">
                <path d="M480.90908,0 L543.42726,0 C543.42726,30.4227266 543.42726,60.7409077 543.42726,91.1636343 C644.418167,78.3045437 750.009074,79.2454527 846.922708,113.536361 C883.409071,125.97727 923.136343,154.413633 919.581797,197.904541 C919.999979,358.590901 919.999979,519.381806 919.581797,680.172712 C923.240888,724.186347 882.468162,752.413619 845.563617,764.749983 C748.545438,796.949982 644.104531,800.818164 543.42726,786.495437 C543.42726,824.027254 543.42726,861.559071 543.42726,899.090889 L478.295444,899.090889 C319.07272,870.027253 159.431815,843.472708 0,815.454527 C0,571.549987 0,327.645447 0,83.8454526 C160.268178,55.8272715 320.745447,28.5409084 480.90908,0 Z" id="path22" fill="#A33639" fill-rule="nonzero"></path>
                <path d="M543.42726,122.945452 C636.786349,110.086361 734.01362,110.504543 824.759072,138.209088 C849.745435,147.513633 883.19998,158.699996 888.845434,188.49545 C884.663616,212.854541 859.259071,223.831813 839.186345,232.613631 C744.363619,264.604539 641.804531,267.636358 543.42726,252.790903 C543.42726,209.509086 543.42726,166.227269 543.42726,122.945452 L543.42726,122.945452 Z" id="path50" fill="#FFFFFF" fill-rule="nonzero"></path>
                <path d="M757.536346,285.618175 C803.536345,278.822721 851.522708,268.890903 888.740889,238.990904 C886.440889,283.945448 892.295434,329.42272 885.604525,373.959082 C866.890889,396.227264 837.199981,404.172718 810.436345,411.804536 C723.140893,432.39999 632.081804,432.922717 543.42726,421.527263 C543.42726,376.363628 543.42726,331.199992 543.42726,286.036357 C614.413622,295.027266 686.549984,294.922721 757.536346,285.618175 L757.536346,285.618175 Z" id="path66" fill="#FFFFFF" fill-rule="nonzero"></path>
                <path d="M213.377268,274.849994 C237.736358,273.072721 261.990903,271.399994 286.454539,269.518176 C321.477265,386.609082 354.722719,504.327261 389.327264,621.522713 C365.177264,619.954531 341.027265,618.177259 317.086356,615.981804 C310.709084,589.845441 303.913629,563.709078 297.01363,537.677261 C264.918176,537.572715 232.822722,536.527261 200.831814,534.959079 C194.663632,559.736351 188.390905,584.409078 182.013632,609.081804 C161.522724,607.513623 141.13636,606.049986 120.749997,604.690895 C151.277269,494.604534 183.059087,384.936355 213.377268,274.849994 Z" id="path78" fill="#FFFFFF" fill-rule="nonzero"></path>
                <path d="M213.899995,478.504535 C224.459086,429.577263 240.140904,381.799991 247.145449,332.140902 C256.55454,381.695446 271.086357,429.995445 283.004539,478.922716 C259.899995,478.818171 236.899995,478.713625 213.899995,478.504535 Z" id="path98" fill="#A33639" fill-rule="nonzero"></path>
                <path d="M758.163619,452.786353 C804.059073,445.990899 851.731799,436.059081 888.740889,406.263627 C886.64998,451.113626 891.981798,496.381807 885.813616,540.91817 C867.518162,563.290896 837.827254,571.236351 811.168163,578.868169 C723.66362,599.672714 632.290895,600.195441 543.42726,588.904532 C543.42726,543.636351 543.42726,498.472716 543.42726,453.309081 C614.622713,462.404535 686.968166,462.195444 758.163619,452.786353 L758.163619,452.786353 Z" id="path110" fill="#FFFFFF" fill-rule="nonzero"></path>
                <path d="M757.745437,620.059077 C803.745436,613.368168 851.522708,603.331804 888.740889,573.536351 C886.545434,618.38635 892.190889,663.863621 885.604525,708.399984 C856.018162,740.599983 809.077254,746.559074 768.409073,754.818165 C693.868166,766.213619 617.654531,766.42271 543.009079,755.654528 C543.740897,710.595438 543.42726,665.640894 543.42726,620.581804 C614.518168,629.677258 686.65453,629.468168 757.745437,620.059077 L757.745437,620.059077 Z" id="path118" fill="#FFFFFF" fill-rule="nonzero"></path>
            </g>
        </g>
    </g>
</svg>