<?xml version="1.0" encoding="UTF-8"?>
<svg width="1000px" height="1000px" viewBox="0 0 1000 1000" version="1.1" xmlns="http://www.w3.org/2000/svg" xmlns:xlink="http://www.w3.org/1999/xlink">
    <!-- Generator: Sketch 63.1 (92452) - https://sketch.com -->
    <title>file_xml</title>
    <desc>Created with Sketch.</desc>
    <defs>
        <path d="M227.235849,952 L275.915094,876.939189 L321.339623,952 L372,952 L305.490566,841.040541 L369.735849,742 L334.5,742 L288.367925,812.662162 L245.773585,742 L194.971698,742 L259.075472,848.560811 L192,952 L227.235849,952 Z M440.455339,952 L440.455339,791.378378 L490.856951,937.952703 L526.166555,937.952703 L577.564809,793.506757 L577.564809,952 L618,952 L618,742 L567.028878,742 L514.77636,889.709459 L464.089993,742 L406,742 L406,952 L440.455339,952 Z M810,952 L810,922.202703 L715.593846,922.202703 L715.593846,742 L672,742 L672,952 L810,952 Z" id="path-1"></path>
        <filter x="-2.9%" y="-6.4%" width="105.0%" height="112.9%" filterUnits="objectBoundingBox" id="filter-2">
            <feMorphology radius="2.5" operator="dilate" in="SourceAlpha" result="shadowSpreadOuter1"></feMorphology>
            <feOffset dx="0" dy="0" in="shadowSpreadOuter1" result="shadowOffsetOuter1"></feOffset>
            <feGaussianBlur stdDeviation="2" in="shadowOffsetOuter1" result="shadowBlurOuter1"></feGaussianBlur>
            <feColorMatrix values="0 0 0 0 0   0 0 0 0 0   0 0 0 0 0  0 0 0 0.5 0" type="matrix" in="shadowBlurOuter1"></feColorMatrix>
        </filter>
    </defs>
    <g id="file_xml" stroke="none" stroke-width="1" fill="none" fill-rule="evenodd">
        <g id="File/XML">
            <g id="xml" stroke-width="1" fill-rule="evenodd" transform="translate(116.000000, 0.000000)">
                <path d="M544.476279,0 L26.1298605,0 C11.6986047,0 0,11.6964286 0,34.3928571 L0,982.142857 C0,988.303571 11.6986047,1000 26.1298605,1000 L741.87014,1000 C756.301395,1000 768,988.303571 768,982.142857 L768,231.75 C768,219.321429 766.338977,215.321429 763.40986,212.375 L555.585488,4.58928571 C552.638512,1.66071429 548.637767,0 544.476279,0 Z" id="Path" fill="#E9E9E0" fill-rule="nonzero"></path>
                <polygon id="Path" fill="#D9D7CA" fill-rule="nonzero" points="558 6 558 216 768 216"></polygon>
                <path d="M741.87014,1000 L26.1298605,1000 C11.6986047,1000 0,988.364118 0,974.010235 L0,698 L768,698 L768,974.010235 C768,988.364118 756.301395,1000 741.87014,1000 Z" id="Path" fill="#BD3700" fill-rule="nonzero"></path>
                <g id="Group-3" transform="translate(50.000000, 242.000000)" fill="#BD3700">
                    <path d="M0.146717326,76.9558967 L233.824458,77.0878601 C237.963285,77.0901974 241.317884,80.4447962 241.320221,84.5836234 L241.357544,150.674225 C241.359883,154.81636 238.003916,158.17612 233.861781,158.178459 C233.858957,158.17846 233.856133,158.17846 233.85331,158.178459 L0.175569395,158.046495 C-3.96325788,158.044158 -7.31785669,154.689559 -7.32019398,150.550732 L-7.3575169,84.460131 C-7.35985607,80.317996 -4.00388849,76.9582359 0.138246473,76.9558967 C0.141070091,76.9558951 0.143893709,76.9558951 0.146717326,76.9558967 Z" id="Rectangle" transform="translate(117.000014, 117.567178) rotate(-45.000000) translate(-117.000014, -117.567178) "></path>
                    <path d="M0.175555799,195.953537 L233.853296,195.821574 C237.995431,195.819235 241.355191,199.175202 241.35753,203.317337 C241.357532,203.320161 241.357532,203.322985 241.35753,203.325808 L241.320208,269.416371 C241.31787,273.555198 237.963271,276.909797 233.824444,276.912134 L0.146703751,277.044098 C-3.99543121,277.046437 -7.35519132,273.690469 -7.35753048,269.548334 C-7.35753207,269.545511 -7.35753207,269.542687 -7.35753048,269.539863 L-7.32020758,203.449301 C-7.31787029,199.310473 -3.96327148,195.955875 0.175555799,195.953537 Z" id="Rectangle-Copy" transform="translate(117.000000, 236.432836) rotate(45.000000) translate(-117.000000, -236.432836) "></path>
                </g>
                <g id="Group-3-Copy" transform="translate(585.000000, 419.000000) scale(-1, 1) translate(-585.000000, -419.000000) translate(468.000000, 242.000000)" fill="#BD3700">
                    <path d="M0.146717326,76.9558967 L233.824458,77.0878601 C237.963285,77.0901974 241.317884,80.4447962 241.320221,84.5836234 L241.357544,150.674225 C241.359883,154.81636 238.003916,158.17612 233.861781,158.178459 C233.858957,158.17846 233.856133,158.17846 233.85331,158.178459 L0.175569395,158.046495 C-3.96325788,158.044158 -7.31785669,154.689559 -7.32019398,150.550732 L-7.3575169,84.460131 C-7.35985607,80.317996 -4.00388849,76.9582359 0.138246473,76.9558967 C0.141070091,76.9558951 0.143893709,76.9558951 0.146717326,76.9558967 Z" id="Rectangle" transform="translate(117.000014, 117.567178) rotate(-45.000000) translate(-117.000014, -117.567178) "></path>
                    <path d="M0.175555799,195.953537 L233.853296,195.821574 C237.995431,195.819235 241.355191,199.175202 241.35753,203.317337 C241.357532,203.320161 241.357532,203.322985 241.35753,203.325808 L241.320208,269.416371 C241.31787,273.555198 237.963271,276.909797 233.824444,276.912134 L0.146703751,277.044098 C-3.99543121,277.046437 -7.35519132,273.690469 -7.35753048,269.548334 C-7.35753207,269.545511 -7.35753207,269.542687 -7.35753048,269.539863 L-7.32020758,203.449301 C-7.31787029,199.310473 -3.96327148,195.955875 0.175555799,195.953537 Z" id="Rectangle-Copy" transform="translate(117.000000, 236.432836) rotate(45.000000) translate(-117.000000, -236.432836) "></path>
                </g>
                <path d="M147.234777,383.725499 L615.344586,383.806676 C618.933556,383.809553 621.842836,386.718833 621.845712,390.307803 L621.855646,447.613466 C621.858522,451.203317 618.948877,454.11397 615.359026,454.114593 C615.358275,454.114593 615.357523,454.114593 615.356773,454.112339 L147.246963,454.031162 C143.657993,454.028285 140.748713,451.119005 140.745837,447.530035 L140.735904,390.224371 C140.733028,386.634521 143.642672,383.723867 147.232523,383.723245 C147.233275,383.723245 147.234026,383.723245 147.234777,383.725499 Z" id="Rectangle-Copy-2" fill="#BD3700" transform="translate(381.295775, 418.918919) rotate(-71.000000) translate(-381.295775, -418.918919) "></path>
            </g>
            <g id="XML" fill-rule="nonzero">
                <use fill="black" fill-opacity="1" filter="url(#filter-2)" xlink:href="#path-1"></use>
                <use fill="#FFFFFF" xlink:href="#path-1"></use>
            </g>
        </g>
    </g>
</svg>