<?xml version="1.0" encoding="UTF-8"?>
<svg width="1000px" height="1000px" viewBox="0 0 1000 1000" version="1.1" xmlns="http://www.w3.org/2000/svg" xmlns:xlink="http://www.w3.org/1999/xlink">
    <!-- Generator: Sketch 63.1 (92452) - https://sketch.com -->
    <title>file_zip</title>
    <desc>Created with Sketch.</desc>
    <defs>
        <path d="M434,956 L434,925.635135 L327.703839,925.635135 L434,771.352703 L434,742 L282.065814,742 L282.065814,771.352703 L382.296161,771.352703 L276,925.635135 L276,956 L434,956 Z M524,956 L524,742 L480,742 L480,956 L524,956 Z M621.948869,956 L621.948869,872.135135 L640.576205,872.135135 C667.547034,872.135135 688.52704,865.700676 703.516224,852.831757 C718.505408,839.962838 726,821.960811 726,798.825676 C726,778.38964 720.397247,763.809685 709.19174,755.085811 C697.986234,746.361937 679.286136,742 653.091445,742 L653.091445,742 L578,742 L578,956 L621.948869,956 Z M630.678304,844 L622,844 L622,772 L639.356608,772 C666.452203,772 680,782.736842 680,804.210526 C680,816.453441 675.588529,826.145749 666.765586,833.287449 C657.942643,840.42915 645.913549,844 630.678304,844 L630.678304,844 Z" id="path-1"></path>
        <filter x="-3.0%" y="-6.3%" width="106.0%" height="112.6%" filterUnits="objectBoundingBox" id="filter-2">
            <feMorphology radius="2.5" operator="dilate" in="SourceAlpha" result="shadowSpreadOuter1"></feMorphology>
            <feOffset dx="0" dy="0" in="shadowSpreadOuter1" result="shadowOffsetOuter1"></feOffset>
            <feGaussianBlur stdDeviation="2" in="shadowOffsetOuter1" result="shadowBlurOuter1"></feGaussianBlur>
            <feColorMatrix values="0 0 0 0 0   0 0 0 0 0   0 0 0 0 0  0 0 0 0.5 0" type="matrix" in="shadowBlurOuter1"></feColorMatrix>
        </filter>
    </defs>
    <g id="file_zip" stroke="none" stroke-width="1" fill="none" fill-rule="evenodd">
        <g id="File/Zip">
            <g id="file_zip" stroke-width="1" fill-rule="evenodd" transform="translate(116.000000, 0.000000)">
                <path d="M544.476279,0 L26.1298605,0 C11.6986047,0 0,11.6964286 0,34.3928571 L0,982.142857 C0,988.303571 11.6986047,1000 26.1298605,1000 L741.87014,1000 C756.301395,1000 768,988.303571 768,982.142857 L768,231.75 C768,219.321429 766.338977,215.321429 763.40986,212.375 L555.585488,4.58928571 C552.638512,1.66071429 548.637767,0 544.476279,0 Z" id="Path" fill="#E9E9E0" fill-rule="nonzero"></path>
                <polygon id="Path" fill="#D9D7CA" fill-rule="nonzero" points="558 6 558 216 768 216"></polygon>
                <path d="M741.87014,1000 L26.1298605,1000 C11.6986047,1000 0,988.364118 0,974.010235 L0,698 L768,698 L768,974.010235 C768,988.364118 756.301395,1000 741.87014,1000 Z" id="Path" fill="#374E90" fill-rule="nonzero"></path>
                <g id="Group" transform="translate(286.000000, 38.000000)" fill="#2C2C2C" fill-rule="nonzero">
                    <path d="M133.2,406.285714 L133.2,361.142857 L177.6,361.142857 L177.6,316 L133.2,316 L133.2,270.857143 L177.6,270.857143 L177.6,225.714286 L133.2,225.714286 L133.2,180.571429 L177.6,180.571429 L177.6,135.428571 L133.2,135.428571 L133.2,90.2857143 L177.6,90.2857143 L177.6,45.1428571 L133.2,45.1428571 L133.2,0 L88.8,0 L88.8,45.1428571 L44.4,45.1428571 L44.4,90.2857143 L88.8,90.2857143 L88.8,135.428571 L44.4,135.428571 L44.4,180.571429 L88.8,180.571429 L88.8,225.714286 L44.4,225.714286 L44.4,270.857143 L88.8,270.857143 L88.8,316 L44.4,316 L44.4,361.142857 L88.8,361.142857 L88.8,406.285714 L0,406.285714 L0,519.142857 C0,581.372286 49.7946,632 111,632 C172.2054,632 222,581.372286 222,519.142857 L222,406.285714 L133.2,406.285714 Z M177.6,519.142857 C177.6,556.476 147.7188,586.857143 111,586.857143 C74.2812,586.857143 44.4,556.476 44.4,519.142857 L44.4,451.428571 L177.6,451.428571 L177.6,519.142857 Z" id="Shape"></path>
                    <path d="M87.9878049,540.17094 L134.012195,540.17094 C146.714927,540.17094 157.02439,530.512684 157.02439,518.564103 C157.02439,506.615521 146.714927,496.957265 134.012195,496.957265 L87.9878049,496.957265 C75.2850732,496.957265 64.9756098,506.615521 64.9756098,518.564103 C64.9756098,530.512684 75.2850732,540.17094 87.9878049,540.17094 Z" id="Path"></path>
                </g>
            </g>
            <g id="ZIP" fill-rule="nonzero">
                <use fill="black" fill-opacity="1" filter="url(#filter-2)" xlink:href="#path-1"></use>
                <use fill="#FFFFFF" xlink:href="#path-1"></use>
            </g>
        </g>
    </g>
</svg>