<?xml version="1.0" encoding="UTF-8"?>
<svg width="500px" height="500px" viewBox="0 0 500 500" version="1.1" xmlns="http://www.w3.org/2000/svg" xmlns:xlink="http://www.w3.org/1999/xlink">
    <!-- Generator: Sketch 63.1 (92452) - https://sketch.com -->
    <title>file_webarchive</title>
    <desc>Created with Sketch.</desc>
    <defs>
        <radialGradient cx="50.704%" cy="57.042%" fx="50.704%" fy="57.042%" r="58.1%" id="radialGradient-1">
            <stop stop-color="#92BEFC" offset="0%"></stop>
            <stop stop-color="#7396E7" offset="36.195%"></stop>
            <stop stop-color="#438EC5" offset="62.535%"></stop>
            <stop stop-color="#475BAF" offset="72.607%"></stop>
            <stop stop-color="#020407" offset="100%"></stop>
        </radialGradient>
        <linearGradient x1="25.7654609%" y1="89.8948913%" x2="68.6230319%" y2="7.63730304%" id="linearGradient-2">
            <stop stop-color="#73FA66" offset="0%"></stop>
            <stop stop-color="#3ABC3E" offset="78.9121354%"></stop>
            <stop stop-color="#077D0F" offset="100%"></stop>
        </linearGradient>
        <linearGradient x1="72.887%" y1="-12.6524121%" x2="35.915%" y2="24.9388115%" id="linearGradient-3">
            <stop stop-color="#FFFFFF" offset="0%"></stop>
            <stop stop-color="#FFFFFF" stop-opacity="0" offset="100%"></stop>
        </linearGradient>
        <linearGradient x1="42.241%" y1="14.4159387%" x2="37.791%" y2="53.7436004%" id="linearGradient-4">
            <stop stop-color="#FFFFFF" stop-opacity="0.664745411" offset="0%"></stop>
            <stop stop-color="#FFFFFF" stop-opacity="0" offset="100%"></stop>
        </linearGradient>
        <linearGradient x1="51.163%" y1="171.7%" x2="51.163%" y2="48.507%" id="linearGradient-5">
            <stop stop-color="#FFFFFF" offset="0%"></stop>
            <stop stop-color="#FFFFFF" stop-opacity="0" offset="100%"></stop>
        </linearGradient>
    </defs>
    <g id="file_webarchive" stroke="none" stroke-width="1" fill="none" fill-rule="evenodd">
        <g id="Files/Web-Archive">
            <g id="Files/File">
                <rect id="Rectangle" fill="#FFFFFF" x="93" y="140" width="312" height="304"></rect>
                <rect id="Rectangle-Copy" fill="#FFFFFF" x="93" y="57" width="229" height="93"></rect>
                <g id="Group" stroke-width="1" transform="translate(77.000000, 45.000000)" fill="#AEAEAE">
                    <polygon id="Path" fill-rule="nonzero" points="77 227 270 227 270 249 77 249"></polygon>
                    <polygon id="Path" fill-rule="nonzero" points="77 162 270 162 270 184 77 184"></polygon>
                    <polygon id="Path" fill-rule="nonzero" points="77 98 190 98 190 120 77 120"></polygon>
                    <polygon id="Path" fill-rule="nonzero" points="77 291 270 291 270 313 77 313"></polygon>
                    <path d="M338.964943,96.740025 L249.441157,7.06419236 C245.220588,2.8364543 238.382096,0 232.416275,0 L31.841418,0 C14.2822282,0 0,14.3064851 0,31.8954975 L0,379.104502 C0,396.693515 14.2822282,411 31.841418,411 L314.176195,411 C331.735385,411 345.999917,396.693515 345.999917,379.104502 L345.999917,113.771446 C346.017645,107.813303 343.186105,100.963288 338.965399,96.7354583 L338.964943,96.740025 Z M321.530668,379.106786 C321.530668,383.120484 318.164898,386.474205 314.193519,386.474205 L31.8405063,386.474205 C27.8692645,386.474205 24.4855782,383.120529 24.4855782,379.124596 L24.4855782,31.8973242 C24.4855782,27.9193377 27.8513479,24.5477146 31.8405063,24.5477146 L227.519068,24.5477146 L227.519068,89.2849251 C227.519068,105.518091 240.714902,118.718527 256.902765,118.718527 L321.530668,118.718527 L321.530668,379.106786 Z" id="Shape" fill-rule="nonzero"></path>
                </g>
            </g>
            <g id="Annotations/Globe-(Very-Simple)" transform="translate(227.000000, 227.000000)" stroke-width="1">
                <g id="Group" transform="translate(1.638000, 1.638000)">
                    <path d="M269.697255,134.84863 C269.697255,86.6718546 243.995253,42.1546784 202.272942,18.0662908 C160.550631,-6.02209692 109.146624,-6.02209692 67.4243132,18.0662908 C25.7020023,42.1546784 -6.98321401e-13,86.6718546 -6.98321401e-13,134.84863 C-6.98321401e-13,209.32347 60.373787,269.697257 134.848628,269.697257 C209.323468,269.697257 269.697255,209.32347 269.697255,134.84863 L269.697255,134.84863 Z" id="Blue-ball" fill="url(#radialGradient-1)" transform="translate(134.848628, 134.848629) scale(-1, 1) translate(-134.848628, -134.848629) "></path>
                    <path d="M162.623528,221.655455 C144.068499,219.394208 143.885891,186.537121 162.319181,183.872459 C173.90466,190.698665 184.658258,161.918192 190.572737,173.394286 C185.693038,195.146845 212.211816,190.220936 217.274123,173.511064 C224.801641,160.028511 221.027737,185.157017 223.919035,190.507573 C230.655251,207.833184 209.797329,232.038082 194.417655,217.387749 C183.410435,207.164365 173.316256,218.035337 162.623528,221.655455 Z M201.437929,233.619894 C203.294446,241.136151 207.078495,241.815587 209.553851,233.885298 C212.019063,226.36904 202.746621,227.770377 201.437929,233.619894 Z M60.9614498,51.4461886 C45.6325006,67.338615 41.1078737,90.280187 36.0049872,111.363927 C39.7991811,126.2372 51.2223425,141.39711 38.0644026,154.985824 C29.6542776,174.116186 2.57753018,162.077435 9.32389101,142.628587 C8.97896429,119.580853 6.29056486,95.1742475 16.8716992,73.9631133 C22.6644391,60.4699444 33.6310798,44.2378001 49.4774191,45.7771467 C53.6571193,46.7538356 57.370154,49.1106283 60.9614498,51.4461886 L60.9614498,51.4461886 Z M93.8592221,105.106778 C92.7635725,86.7783296 112.069324,88.3469332 107.71716,66.4391208 C106.966437,47.8580114 69.6027578,57.1117197 80.5491087,34.9407189 C90.7345918,18.3703698 89.5172034,9.87464438 115.021491,5.5899353 C140.535923,0.147196726 167.825713,-6.22196543 210.72851,26.6134342 C252.495078,59.4488338 175.982216,33.4142255 166.811223,45.4577321 C152.070678,58.343442 158.71559,86.5256686 141.530124,92.4421465 C126.677985,102.327507 127.854794,122.750936 125.379437,138.763326 C128.331604,151.880642 167.450352,142.563768 149.159091,160.565863 C130.563483,165.461169 118.095397,146.027329 105.160645,135.773504 C98.6070369,129.351704 94.9447267,122.266669 93.8592221,105.106778 L93.8592221,105.106778 Z M223.614688,77.4452214 C239.410302,76.3942193 245.892896,95.3547226 244.503044,109.123912 C235.900166,124.135195 254.840701,138.127325 264.204447,122.691395 C274.298626,104.038761 257.833447,80.6831573 242.413194,70.7994907 C235.595819,64.4828617 222.174111,65.3427725 223.614688,77.4452214 Z M67.7382454,235.838676 C87.5918215,235.52019 107.617861,230.806605 127.339553,235.148624 C135.02939,245.966515 156.729339,253.535853 157.013396,264.842089 C141.704737,276.052778 121.810581,265.521524 105.812068,261.179505 C93.110649,257.155972 75.0628657,259.948028 68.4991131,245.011058 C67.5759269,242.080992 67.0991164,238.896137 67.7382454,235.838676 Z" id="Continents" fill="url(#linearGradient-2)"></path>
                    <g id="Glows" transform="translate(7.221791, 0.000000)">
                        <path d="M6.20730134e-14,13.0801592 C59.0267445,-24.9578653 179.103875,31.3126939 161.513046,137.296971 C137.656356,170.905692 94.4915257,-0.939015959 6.20730134e-14,13.0801592 Z" id="Top-left-glow" fill="url(#linearGradient-3)" transform="translate(81.627302, 71.421559) scale(-1, 1) translate(-81.627302, -71.421559) "></path>
                        <path d="M229.674016,65.145222 C229.674016,29.1665094 184.564049,0 128.918085,0 C73.272121,0 28.1621543,29.1665094 28.1621543,65.145222 C28.1621543,101.123935 73.272121,130.290444 128.918085,130.290444 C184.564049,130.290444 229.674016,101.123935 229.674016,65.145222 Z" id="Top-glow" fill="url(#linearGradient-4)" transform="translate(128.918085, 65.145222) scale(-1, 1) translate(-128.918085, -65.145222) "></path>
                        <path d="M238.075736,189.416393 C238.075736,145.050945 189.229838,109.085644 128.975371,109.085644 C68.7209028,109.085644 19.8750056,145.050945 19.8750056,189.416393 C19.8750056,233.78184 68.7209028,269.747141 128.975371,269.747141 C189.229838,269.747141 238.075736,233.78184 238.075736,189.416393 Z" id="Bottom-Glow" fill="url(#linearGradient-5)" transform="translate(128.975371, 189.416393) scale(-1, 1) translate(-128.975371, -189.416393) "></path>
                    </g>
                    <path d="M70.9243132,24.1284686 C31.3678099,46.9664267 7,89.1727138 7,134.84863 C7,170.153053 21.3099451,202.11521 44.4459961,225.251261 C67.582047,248.387312 99.5442039,262.697257 134.848628,262.697257 C170.153051,262.697257 202.115208,248.387312 225.251259,225.251261 C248.38731,202.11521 262.697255,170.153053 262.697255,134.84863 C262.697255,89.1727138 238.329445,46.9664267 198.772942,24.1284686 C178.99469,12.7094895 156.921659,7 134.848628,7 C112.775596,7 90.7025649,12.7094895 70.9243132,24.1284686 Z" id="Black-outline" stroke="#000000" stroke-width="14" transform="translate(134.848628, 134.848629) scale(-1, 1) translate(-134.848628, -134.848629) "></path>
                </g>
            </g>
        </g>
    </g>
</svg>