<?xml version="1.0" encoding="UTF-8"?>
<svg width="1000px" height="1000px" viewBox="0 0 1000 1000" version="1.1" xmlns="http://www.w3.org/2000/svg" xmlns:xlink="http://www.w3.org/1999/xlink">
    <!-- Generator: Sketch 63.1 (92452) - https://sketch.com -->
    <title>file_psd</title>
    <desc>Created with Sketch.</desc>
    <defs>
        <path d="M274.761062,952 L274.761062,869.702703 L292.884956,869.702703 C319.126844,869.702703 339.539823,863.388514 354.123894,850.760135 C368.707965,838.131757 376,820.466216 376,797.763514 C376,777.709459 370.548673,763.402027 359.646018,754.841216 C348.743363,746.280405 330.548673,742 305.061947,742 L305.061947,742 L232,742 L232,952 L274.761062,952 Z M284.379052,840 L276,840 L276,770 L292.758105,770 C318.919368,770 332,780.438596 332,801.315789 C332,813.218623 327.740648,822.6417 319.221945,829.58502 C310.703242,836.52834 299.088944,840 284.379052,840 L284.379052,840 Z M456.850806,956 C482.159946,956 502.012097,950.478764 516.407258,939.436293 C530.802419,928.393822 538,913.151437 538,893.709138 C538,880.024024 534.189516,868.415272 526.568548,858.882883 C518.947581,849.350493 505.069892,838.921493 484.935484,827.595882 L484.935484,827.595882 L469.975806,819.243243 C458.77957,812.919777 451.158602,807.587302 447.112903,803.245817 C443.067204,798.904333 441.044355,793.854998 441.044355,788.097812 C441.044355,781.113685 443.9375,775.474474 449.72379,771.18018 C455.510081,766.885886 463.201613,764.738739 472.798387,764.738739 C485.217742,764.738739 502.106183,768.749893 523.46371,776.772201 L523.46371,776.772201 L523.46371,743.220077 C502.576613,738.406692 483.806452,736 467.153226,736 C446.360215,736 429.636425,741.238095 416.981855,751.714286 C404.327285,762.190476 398,776.06435 398,793.335907 C398,806.26598 401.857527,817.567997 409.572581,827.241956 C417.287634,836.915916 430.50672,847.038181 449.229839,857.608752 L449.229839,857.608752 L463.201613,865.395109 C474.491935,871.812956 482.159946,877.357786 486.205645,882.029601 C490.251344,886.701416 492.274194,892.435006 492.274194,899.230373 C492.274194,907.818962 489.051747,914.614329 482.606855,919.616474 C476.161962,924.618619 467.341398,927.119691 456.145161,927.119691 C440.150538,927.119691 420.909946,922.400686 398.423387,912.962677 L398.423387,912.962677 L398.423387,948.921493 C420.627688,953.640498 440.103495,956 456.850806,956 Z M664.043059,952 C696.861668,952 722.392477,942.422297 740.635486,923.266892 C758.878495,904.111486 768,877.222973 768,842.601351 C768,810.060811 759.395694,785.158784 742.187082,767.89527 C724.978471,750.631757 700.199951,742 667.851522,742 L667.851522,742 L578,742 L578,952 L664.043059,952 Z M654.303371,922 L622,922 L622,770 L648.123596,770 C664.790262,770 677.477528,771.756951 686.185393,775.270853 C694.893258,778.784755 702.337079,785.147766 708.516854,794.359888 C717.505618,807.750703 722,824.512965 722,844.646673 C722,870.668541 716.405431,890.066229 705.216292,902.839738 C694.027154,915.613246 677.05618,922 654.303371,922 L654.303371,922 Z" id="path-1"></path>
        <filter x="-2.5%" y="-6.1%" width="105.0%" height="112.3%" filterUnits="objectBoundingBox" id="filter-2">
            <feMorphology radius="2.5" operator="dilate" in="SourceAlpha" result="shadowSpreadOuter1"></feMorphology>
            <feOffset dx="0" dy="0" in="shadowSpreadOuter1" result="shadowOffsetOuter1"></feOffset>
            <feGaussianBlur stdDeviation="2" in="shadowOffsetOuter1" result="shadowBlurOuter1"></feGaussianBlur>
            <feColorMatrix values="0 0 0 0 0   0 0 0 0 0   0 0 0 0 0  0 0 0 0.5 0" type="matrix" in="shadowBlurOuter1"></feColorMatrix>
        </filter>
    </defs>
    <g id="file_psd" stroke="none" stroke-width="1" fill="none" fill-rule="evenodd">
        <g id="File/PSD">
            <g id="file_psd" stroke-width="1" fill-rule="evenodd" transform="translate(132.000000, 0.000000)">
                <path d="M521.789767,0 L25.0411163,0 C11.2111628,0 0,11.6964286 0,34.3928571 L0,982.142857 C0,988.303571 11.2111628,1000 25.0411163,1000 L710.958884,1000 C724.788837,1000 736,988.303571 736,982.142857 L736,231.75 C736,219.321429 734.408186,215.321429 731.601116,212.375 L532.436093,4.58928571 C529.611907,1.66071429 525.77786,0 521.789767,0 Z" id="Path" fill="#E9E9E0" fill-rule="nonzero"></path>
                <path d="M710.958884,1000 L25.0411163,1000 C11.2111628,1000 0,988.364118 0,974.010235 L0,698 L736,698 L736,974.010235 C736,988.364118 724.788837,1000 710.958884,1000 Z" id="Path" fill="#5889C4" fill-rule="nonzero"></path>
                <path d="M622.617577,184.55376 C613.025773,178.000235 600.202174,180.830661 593.945749,190.889559 C564.258807,238.701985 511.514245,303.322787 486.426396,329.689293 L428.668408,390.391043 L370.081754,328.818393 L427.798309,268.09487 C464.487476,229.53576 557.712349,149.608886 595.934547,135.239031 C596.763212,135.108396 597.819761,134.912443 598.25481,134.803581 C609.048179,132.256198 615.38747,121.369944 613.48154,109.917605 C611.554892,98.4652663 600.72009,90.6489362 589.802422,92.1947842 L583.939613,93.5446797 C533.411732,111.245728 429.45564,204.758647 398.484266,237.330317 L249.635218,393.765782 C247.667138,393.678692 245.719774,393.460967 243.730976,393.460967 C182.181843,393.460967 130.55598,439.727544 119.783328,502.671863 L117.545931,504.261256 L117.131599,515.93132 C116.427233,536.441022 110.875174,604.153519 68.5925148,614.909138 C57.8820127,617.717791 50.817639,628.516955 52.1642205,639.991066 L55.5203159,660 L200.122452,660 L200.536785,660 L200.536785,660 L243.751693,659.346825 C313.504615,659.346825 370.268204,599.690155 370.268204,526.382123 C370.268204,522.180029 370.040321,518.043253 369.667421,513.928249 L515.699006,360.475618 C542.734219,332.062496 597.011812,265.591032 628.625402,214.68691 C634.881827,204.606239 632.188664,191.129057 622.617577,184.55376 Z M241.295495,616.074115 L163.795833,616.074115 L164.106744,616.72381 L129.678571,616.72381 C148.063755,587.682483 153.743056,550.953109 155.463428,529.123387 L157.163073,518.208526 C161.578004,472.599999 197.747276,438.209524 241.316222,438.209524 C243.824235,438.209524 246.187156,438.750936 248.653714,438.989157 L252.115186,439.443943 C273.775294,442.34591 292.657934,453.628931 306.006365,470.001222 C307.208553,471.495519 308.452195,472.924846 309.550746,474.505768 C311.250391,476.88798 312.76349,479.421787 314.235133,481.977251 C315.271502,483.818051 316.245689,485.702163 317.178421,487.607933 C318.484246,490.336648 319.748616,493.108676 320.784985,495.988987 C321.406806,497.721505 321.862808,499.540648 322.380993,501.338135 C323.313724,504.521636 324.267184,507.705137 324.868278,511.06189 L324.971915,511.624959 C325.821737,516.692573 326.464286,521.825156 326.464286,527.130991 C326.422831,576.16124 288.243003,616.074115 241.295495,616.074115 Z M344.595039,446.393389 C344.448603,446.194591 344.323088,446.017881 344.176653,445.819083 C331.520479,427.905143 314.785043,413.45913 295.392857,403.960987 L339.80452,357.066667 L398.964286,419.533524 L355.640426,465.257143 C352.481613,458.630531 348.757978,452.335251 344.595039,446.393389 Z" id="Shape" fill="#2C2C2C" fill-rule="nonzero"></path>
                <polygon id="Path" fill="#D9D7CA" fill-rule="nonzero" points="534 6 534 216 736 216"></polygon>
            </g>
            <g id="PSD" fill-rule="nonzero">
                <use fill="black" fill-opacity="1" filter="url(#filter-2)" xlink:href="#path-1"></use>
                <use fill="#FFFFFF" xlink:href="#path-1"></use>
            </g>
        </g>
    </g>
</svg>