<?xml version="1.0" encoding="UTF-8"?>
<svg width="1000px" height="1000px" viewBox="0 0 1000 1000" version="1.1" xmlns="http://www.w3.org/2000/svg" xmlns:xlink="http://www.w3.org/1999/xlink">
    <!-- Generator: Sketch 58 (84663) - https://sketch.com -->
    <title>file_ms_outlook</title>
    <desc>Created with Sketch.</desc>
    <g id="file_ms_outlook" stroke="none" stroke-width="1" fill="none" fill-rule="evenodd">
        <g id="File/Outlook">
            <g id="file_ms_outlook" transform="translate(40.000000, 50.000000)">
                <path d="M480.871266,0 L543.370944,0 C543.370944,69.7678553 543.370944,139.431111 543.370944,209.198966 C651.647978,209.408165 759.820497,208.885168 867.993016,209.198966 C889.313976,208.152972 918.473525,214.324341 918.055467,241.206408 C922.027018,373.524755 918.159981,506.156899 919.936728,638.579845 C920.354786,662.010129 919.623185,698.933747 887.746259,699.247545 C773.09384,703.222326 658.127877,699.561344 543.370944,700.816537 C543.370944,767.02801 543.370944,833.344083 543.370944,899.555556 L478.571947,899.555556 C319.291832,870.581499 159.593659,843.90863 0.104514511,815.875969 C0,571.845375 0,327.81478 0,83.8887855 C160.32526,55.7515245 320.650521,28.5556589 480.871266,0 Z" id="path18" fill="#0071C5" fill-rule="nonzero"></path>
                <path d="M542.707071,239.817937 C658.593786,239.922666 774.375911,239.503749 890.262626,240.027395 C888.275399,253.746923 884.091763,267.256993 872.586764,275.844789 C803.34759,340.462718 734.526778,405.394835 665.496785,470.222222 C623.974199,432.624432 583.602112,393.769891 542.707071,355.543726 C542.707071,316.898643 542.707071,278.35829 542.707071,239.817937 Z" id="path64" fill="#FFFFFF" fill-rule="nonzero"></path>
                <path d="M223.836701,278.587703 C282.919808,256.278953 351.954857,287.594991 376.991847,344.676063 C411.142721,423.227998 406.323886,530.687044 338.441167,590.072306 C275.90107,643.592357 171.039031,613.114206 142.54505,537.075934 C105.041944,449.411976 123.269711,314.512121 223.836701,278.587703 Z" id="path76" fill="#FFFFFF" fill-rule="nonzero"></path>
                <path d="M697.743659,479.597591 C760.352085,419.851216 823.481379,360.52338 886.402326,301.090909 C886.714847,423.722698 886.402326,546.459121 886.5065,669.090909 C771.915371,669.090909 657.324243,669.090909 542.733114,669.090909 C542.733114,577.84951 542.62894,486.608111 542.837288,395.471347 C581.694098,430.000775 616.488131,469.343397 657.740938,500.838421 C674.72126,503.97746 686.180372,489.223977 697.743659,479.597591 Z" id="path92" fill="#FFFFFF" fill-rule="nonzero"></path>
                <path d="M233.397477,341.548655 C261.05571,328.296497 295.68049,341.757351 308.67778,369.200797 C329.473443,410.522487 329.369465,460.922428 315.748305,504.539768 C306.078322,535.531036 272.285368,561.096223 239.532198,548.887542 C198.668718,535.948427 186.295298,487.322397 185.879385,449.235485 C185.359493,409.792053 194.405607,360.644285 233.397477,341.548655 L233.397477,341.548655 Z" id="path96" fill="#0071C5" fill-rule="nonzero"></path>
            </g>
        </g>
    </g>
</svg>