<?xml version="1.0" encoding="UTF-8"?>
<svg width="1000px" height="1000px" viewBox="0 0 1000 1000" version="1.1" xmlns="http://www.w3.org/2000/svg" xmlns:xlink="http://www.w3.org/1999/xlink">
    <!-- Generator: Sketch 58 (84663) - https://sketch.com -->
    <title>file_ms_excel</title>
    <desc>Created with Sketch.</desc>
    <g id="file_ms_excel" stroke="none" stroke-width="1" fill="none" fill-rule="evenodd">
        <g id="File/Excel">
            <g id="file_ms_excel" transform="translate(36.000000, 46.000000)">
                <path d="M486.3929,0 L549.146458,0 C549.146458,28.1843061 549.146458,56.263053 549.146458,84.4473591 C654.897825,84.4473591 760.649192,84.6584775 866.400558,84.1306815 C884.254685,84.8695959 903.904789,83.6028855 919.43471,94.2643646 C930.31622,109.887126 929.048471,129.732255 929.787991,147.677319 C929.259762,330.928089 929.471054,514.073299 929.5767,697.218509 C929.048471,727.936236 932.429134,759.287318 925.984745,789.582808 C921.758916,811.539121 895.347486,812.066917 877.704651,812.805832 C768.255684,813.122509 658.701071,812.594713 549.146458,812.805832 C549.146458,844.473591 549.146458,876.141351 549.146458,907.809111 L483.540465,907.809111 C322.536386,878.569213 161.21537,851.546058 0,823.361752 C0,577.09214 0,330.822529 0,84.5529183 C162.166182,56.3686122 324.332364,28.6065429 486.3929,0 Z" id="path10" fill="#207245" fill-rule="nonzero"></path>
                <path d="M548.720174,114.989154 C665.05423,114.989154 781.388286,114.989154 897.722343,114.989154 C897.722343,336.898048 897.722343,558.806941 897.722343,780.715835 C781.388286,780.715835 665.05423,780.715835 548.720174,780.715835 C548.720174,759.581655 548.720174,738.447474 548.720174,717.313294 C576.957622,717.313294 605.089312,717.313294 633.32676,717.313294 C633.32676,692.691974 633.32676,667.964983 633.32676,643.343663 C605.089312,643.343663 576.957622,643.343663 548.720174,643.343663 C548.720174,629.289433 548.720174,615.129532 548.720174,601.075302 C576.957622,601.075302 605.089312,601.075302 633.32676,601.075302 C633.32676,576.453982 633.32676,551.726991 633.32676,527.105671 C605.089312,527.105671 576.957622,527.105671 548.720174,527.105671 C548.720174,513.051441 548.720174,498.89154 548.720174,484.83731 C576.957622,484.83731 605.089312,484.83731 633.32676,484.83731 C633.32676,460.21599 633.32676,435.488999 633.32676,410.867679 C605.089312,410.867679 576.957622,410.867679 548.720174,410.867679 C548.720174,396.813449 548.720174,382.653548 548.720174,368.599318 C576.957622,368.599318 605.089312,368.599318 633.32676,368.599318 C633.32676,343.977998 633.32676,319.251007 633.32676,294.629687 C605.089312,294.629687 576.957622,294.629687 548.720174,294.629687 C548.720174,280.575457 548.720174,266.415556 548.720174,252.361326 C576.957622,252.361326 605.089312,252.361326 633.32676,252.361326 C633.32676,227.740006 633.32676,203.013015 633.32676,178.391695 C605.089312,178.391695 576.957622,178.391695 548.720174,178.391695 C548.720174,157.257515 548.720174,136.123334 548.720174,114.989154 Z" id="path48" fill="#FFFFFF" fill-rule="nonzero"></path>
                <path d="M675.813449,179.544469 C724.93745,179.544469 773.95626,179.544469 823.08026,179.544469 C823.08026,204.389619 823.08026,229.341401 823.08026,254.186551 C773.95626,254.186551 724.93745,254.186551 675.813449,254.186551 C675.813449,229.341401 675.813449,204.389619 675.813449,179.544469 L675.813449,179.544469 Z" id="path58" fill="#207245" fill-rule="nonzero"></path>
                <path d="M312.730766,278.676554 C336.645452,276.992079 360.665955,275.518163 384.686457,274.360087 C356.433267,331.948077 328.074259,389.536067 299.291983,446.913497 C328.391711,505.870123 358.126342,564.40563 387.331887,623.362256 C361.829944,621.88834 336.433817,620.309145 310.931874,618.51939 C292.942951,574.61776 271.038792,532.190045 258.129095,486.288101 C243.737957,529.031655 223.209421,569.353775 206.701939,611.255092 C183.527974,610.939253 160.354009,609.991735 137.180043,609.044218 C164.375062,556.088535 190.617726,502.711732 218.659282,450.071888 C194.850413,395.852848 168.713567,342.686605 144.163978,288.783404 C167.443761,287.414768 190.723543,286.046132 214.003325,284.782776 C229.770087,325.947134 247.01829,366.585094 260.033804,408.80225 C274.001674,364.058382 294.847661,321.946506 312.730766,278.676554 L312.730766,278.676554 Z" id="path72" fill="#FFFFFF" fill-rule="nonzero"></path>
                <path d="M675.813449,294.533623 C724.93745,294.533623 773.95626,294.533623 823.08026,294.533623 C823.08026,319.378773 823.08026,344.330555 823.08026,369.175705 C773.95626,369.175705 724.93745,369.175705 675.813449,369.175705 C675.813449,344.330555 675.813449,319.378773 675.813449,294.533623 L675.813449,294.533623 Z" id="path90" fill="#207245" fill-rule="nonzero"></path>
                <path d="M675.813449,411.54013 C724.93745,411.54013 773.95626,411.54013 823.08026,411.54013 C823.08026,436.38528 823.08026,461.337062 823.08026,486.182213 C773.95626,486.182213 724.93745,486.182213 675.813449,486.182213 C675.813449,461.337062 675.813449,436.38528 675.813449,411.54013 L675.813449,411.54013 Z" id="path108" fill="#207245" fill-rule="nonzero"></path>
                <path d="M675.813449,526.529284 C724.93745,526.529284 773.95626,526.529284 823.08026,526.529284 C823.08026,551.374434 823.08026,576.326216 823.08026,601.171367 C773.95626,601.171367 724.93745,601.171367 675.813449,601.171367 C675.813449,576.326216 675.813449,551.374434 675.813449,526.529284 L675.813449,526.529284 Z" id="path114" fill="#207245" fill-rule="nonzero"></path>
                <path d="M675.813449,643.535792 C724.93745,643.535792 773.95626,643.535792 823.08026,643.535792 C823.08026,668.380942 823.08026,693.332724 823.08026,718.177874 C773.95626,718.177874 724.93745,718.177874 675.813449,718.177874 C675.813449,693.332724 675.813449,668.380942 675.813449,643.535792 L675.813449,643.535792 Z" id="path120" fill="#207245" fill-rule="nonzero"></path>
            </g>
        </g>
    </g>
</svg>