<?xml version="1.0" encoding="iso-8859-1"?>
<!-- Generator: Adobe Illustrator 18.0.0, SVG Export Plug-In . SVG Version: 6.00 Build 0)  -->
<!DOCTYPE svg PUBLIC "-//W3C//DTD SVG 1.1//EN" "http://www.w3.org/Graphics/SVG/1.1/DTD/svg11.dtd">
<svg version="1.1" id="Capa_1" xmlns="http://www.w3.org/2000/svg" xmlns:xlink="http://www.w3.org/1999/xlink" x="0px" y="0px"
	 viewBox="0 0 52 52" style="enable-background:new 0 0 52 52;" xml:space="preserve">
<g>
	<path style="fill:#69461E;" d="M40.824,52H11.176C5.003,52,0,46.997,0,40.824V11.176C0,5.003,5.003,0,11.176,0h29.649
		C46.997,0,52,5.003,52,11.176v29.649C52,46.997,46.997,52,40.824,52z"/>
	<g>
		<path style="fill:#FBC500;" d="M21.2,39h-9.08V11h8.64c2.187,0,3.94,0.574,5.26,1.72C27.34,13.867,28,15.627,28,18
			c0,2.374-0.88,4.16-2.64,5.36c-0.027,0.026-0.04,0.054-0.04,0.08v0.04c1.173,0.533,2.153,1.394,2.94,2.579
			c0.787,1.188,1.18,2.728,1.18,4.62c0,1.681-0.36,3.2-1.08,4.561C27.08,37.747,24.693,39,21.2,39z M15,22.48h5.16
			c3.12,0,4.68-1.467,4.68-4.4c0-2.854-1.587-4.28-4.76-4.28H15V22.48z M15,36.32h5.56c1.786,0,3.18-0.413,4.18-1.24
			c1-0.826,1.5-2.227,1.5-4.2c0-1.973-0.5-3.399-1.5-4.28c-1-0.88-2.207-1.319-3.62-1.319H15V36.32z"/>
		<path style="fill:#FBC500;" d="M36.16,39h-2.88V18.96h2.8V20c1.2-0.88,2.72-1.32,4.56-1.32c0.906,0,1.906,0.107,3,0.32l-0.72,2.72
			c-0.934-0.293-1.899-0.439-2.899-0.439c-1,0-1.895,0.26-2.681,0.779c-0.787,0.521-1.18,1.221-1.18,2.101V39z"/>
	</g>
</g>
<g>
</g>
<g>
</g>
<g>
</g>
<g>
</g>
<g>
</g>
<g>
</g>
<g>
</g>
<g>
</g>
<g>
</g>
<g>
</g>
<g>
</g>
<g>
</g>
<g>
</g>
<g>
</g>
<g>
</g>
</svg>
