<?xml version="1.0" encoding="UTF-8"?>
<svg width="1000px" height="1000px" viewBox="0 0 1000 1000" version="1.1" xmlns="http://www.w3.org/2000/svg" xmlns:xlink="http://www.w3.org/1999/xlink">
    <!-- Generator: Sketch 58 (84663) - https://sketch.com -->
    <title>file_ms_visio</title>
    <desc>Created with Sketch.</desc>
    <g id="file_ms_visio" stroke="none" stroke-width="1" fill="none" fill-rule="evenodd">
        <g id="File/Visio">
            <g id="file_ms_visio" transform="translate(28.000000, 54.000000)">
                <path d="M257.077891,830.659773 C116.748188,805.722647 1.49806791,785.219726 0.96651899,785.097806 C0.434970073,784.980716 0,630.653137 0,442.158511 C0,253.664031 0.434970073,99.3434778 0.96651899,99.2238995 C1.49806791,99.1068093 117.129273,78.5301209 257.924746,53.5032755 L513.916542,8 L515.002141,50.8162032 L516.08774,93.6324064 L710.241899,95.5687846 L904.396058,97.5050163 L913.198029,106.325709 L922,115.146401 L922,438.286047 L922,761.425693 L913.198029,770.246386 L904.396058,779.067078 L710.241899,781.00331 L516.08774,782.939688 L514.154702,829.469844 L512.22181,876 L257.077891,830.659773 Z" id="path164" fill="#FFFFFF" fill-rule="nonzero"></path>
                <path d="M263.97716,846.561898 L0,799.536685 L0,446.928489 L0,94.3202931 L262.043285,48.1619287 C406.167021,22.7748356 527.1325,1.22501137 530.855235,0.273674435 C537.024221,-1.30290626 537.62387,2.70304662 537.62387,45.4862661 L537.62387,92.4287477 L726.963932,92.4287477 C857.489732,92.4287477 919.231778,93.7656272 925.729094,96.7301905 C930.912796,99.0960133 937.08646,105.279923 939.448363,110.472228 C945.517212,123.814081 945.517212,762.276696 939.448363,775.618548 C937.08646,780.810854 930.912796,786.994764 925.729094,789.360586 C919.231778,792.325882 857.489732,793.662029 726.963932,793.662029 L537.62387,793.662029 L537.62387,844.026805 C537.62387,881.950548 536.429542,894.292304 532.78911,893.994768 C530.130014,893.768241 409.16468,872.425757 263.97716,846.561898 L263.97716,846.561898 Z M912.800245,443.045388 L912.800245,123.422535 L725.212057,123.422535 L537.62387,123.422535 L537.62387,195.09553 L537.62387,266.768526 L584.694547,266.768526 L631.765225,266.768526 L684.461374,214.466519 C715.812101,183.350465 740.203424,162.164659 744.676815,162.164659 C753.632516,162.164659 870.254416,277.302785 870.254416,286.14464 C870.254416,289.395175 845.88736,316.415516 816.105339,346.190005 L761.956115,400.325279 L761.956115,497.426221 C761.956115,567.783569 760.678463,595.807668 757.314758,599.17637 C754.208045,602.288239 736.944386,603.825431 705.099555,603.825431 L657.525564,603.825431 L657.525564,646.305546 C657.525564,684.339256 656.742016,689.205321 650.04428,692.796153 C645.929625,695.001931 618.951715,696.806646 590.093433,696.806646 L537.62387,696.806646 L537.62387,729.737517 L537.62387,762.668242 L725.212057,762.668242 L912.800245,762.668242 L912.800245,443.045388 Z M622.715381,588.328464 L622.715381,514.718384 L580.169698,514.718384 L537.62387,514.718384 L537.62387,588.328464 L537.62387,661.93869 L580.169698,661.93869 L622.715381,661.93869 L622.715381,588.328464 Z M310.556219,451.761169 C333.515664,370.258083 353.299397,299.65093 354.520038,294.856614 C356.662225,286.443351 355.81377,286.141711 330.180757,286.198964 C315.573564,286.22825 301.540144,287.584165 298.995657,289.204234 C295.645839,291.337384 241.557487,503.20526 239.552567,522.046475 C239.421,523.342355 227.248802,473.950294 212.517395,412.28486 C197.786004,350.619279 184.409932,299.115007 182.792824,297.830987 C181.175702,296.546822 167.977099,296.160547 153.4626,296.972925 C132.78014,298.129699 127.523433,299.625891 129.157162,303.890288 C130.303687,306.883111 148.128547,373.771162 168.768001,452.530644 L206.294292,595.729768 L227.883637,597.107648 C239.75781,597.86614 253.824208,598.815281 259.1424,599.217516 C268.645416,599.936473 269.530855,597.396841 310.556219,451.761169 L310.556219,451.761169 Z M727.145932,484.747097 L727.145932,400.53672 L677.887311,351.086527 L628.62869,301.636482 L583.12628,301.636482 L537.62387,301.636482 L537.62387,390.743528 L537.62387,479.850428 L593.57087,479.850428 C660.32529,479.850428 657.525564,477.572169 657.525564,531.897652 L657.525564,568.957475 L692.335748,568.957475 L727.145932,568.957475 L727.145932,484.747097 Z M790.987333,243.545918 C767.647224,220.094445 746.750881,200.906783 744.551097,200.906783 C742.351166,200.906783 721.464471,220.084781 698.136057,243.524686 L655.720771,286.142443 L700.094052,330.715881 L744.467333,375.289172 L788.945575,330.737113 L833.423816,286.1852 L790.987333,243.545918 Z" id="path177" fill="#3652A0" fill-rule="nonzero"></path>
            </g>
        </g>
    </g>
</svg>