<?xml version="1.0" encoding="UTF-8"?>
<svg width="1000px" height="1000px" viewBox="0 0 1000 1000" version="1.1" xmlns="http://www.w3.org/2000/svg" xmlns:xlink="http://www.w3.org/1999/xlink">
    <!-- Generator: Sketch 63.1 (92452) - https://sketch.com -->
    <title>file_txt</title>
    <desc>Created with Sketch.</desc>
    <defs>
        <path d="M324.894083,952 L324.894083,770.804054 L400,770.804054 L400,742 L206,742 L206,770.804054 L281.105917,770.804054 L281.105917,952 L324.894083,952 Z M447.235849,952 L495.915094,876.939189 L541.339623,952 L592,952 L525.490566,841.040541 L589.735849,742 L554.5,742 L508.367925,812.662162 L465.773585,742 L414.971698,742 L479.075472,848.560811 L412,952 L447.235849,952 Z M720.894083,952 L720.894083,770.804054 L796,770.804054 L796,742 L602,742 L602,770.804054 L677.105917,770.804054 L677.105917,952 L720.894083,952 Z" id="path-1"></path>
        <filter x="-2.3%" y="-6.4%" width="104.6%" height="112.9%" filterUnits="objectBoundingBox" id="filter-2">
            <feMorphology radius="2.5" operator="dilate" in="SourceAlpha" result="shadowSpreadOuter1"></feMorphology>
            <feOffset dx="0" dy="0" in="shadowSpreadOuter1" result="shadowOffsetOuter1"></feOffset>
            <feGaussianBlur stdDeviation="2" in="shadowOffsetOuter1" result="shadowBlurOuter1"></feGaussianBlur>
            <feColorMatrix values="0 0 0 0 0   0 0 0 0 0   0 0 0 0 0  0 0 0 0.5 0" type="matrix" in="shadowBlurOuter1"></feColorMatrix>
        </filter>
    </defs>
    <g id="file_txt" stroke="none" stroke-width="1" fill="none" fill-rule="evenodd">
        <g id="File/TXT">
            <g id="file_psd" stroke-width="1" fill-rule="evenodd" transform="translate(132.000000, 0.000000)">
                <path d="M521.789767,0 L25.0411163,0 C11.2111628,0 0,11.6964286 0,34.3928571 L0,982.142857 C0,988.303571 11.2111628,1000 25.0411163,1000 L710.958884,1000 C724.788837,1000 736,988.303571 736,982.142857 L736,231.75 C736,219.321429 734.408186,215.321429 731.601116,212.375 L532.436093,4.58928571 C529.611907,1.66071429 525.77786,0 521.789767,0 Z" id="Path" fill="#E9E9E0" fill-rule="nonzero"></path>
                <path d="M710.958884,1000 L25.0411163,1000 C11.2111628,1000 0,988.364118 0,974.010235 L0,698 L736,698 L736,974.010235 C736,988.364118 724.788837,1000 710.958884,1000 Z" id="Path" fill="#127400" fill-rule="nonzero"></path>
                <polygon id="Path" fill="#D9D7CA" fill-rule="nonzero" points="534 6 534 216 736 216"></polygon>
            </g>
            <g id="TXT" fill-rule="nonzero">
                <use fill="black" fill-opacity="1" filter="url(#filter-2)" xlink:href="#path-1"></use>
                <use fill="#FFFFFF" xlink:href="#path-1"></use>
            </g>
            <g id="Group" stroke-width="1" fill-rule="evenodd" transform="translate(206.000000, 172.000000)" fill="#2C2C2C">
                <path d="M124.25,42 L17.75,42 C7.93425,42 0,32.592 0,21 C0,9.408 7.93425,0 17.75,0 L124.25,0 C134.06575,0 142,9.408 142,21 C142,32.592 134.06575,42 124.25,42 Z" id="Path" fill-rule="nonzero"></path>
                <path d="M180,142 L18,142 C8.046,142 0,132.592 0,121 C0,109.408 8.046,100 18,100 L180,100 C189.954,100 198,109.408 198,121 C198,132.592 189.954,142 180,142 Z" id="Path" fill-rule="nonzero"></path>
                <path d="M250,140 C245.32,140 240.622,137.786164 237.22,134.163522 C233.962,130.339623 232,125.308176 232,119.874214 C232,114.440252 233.962,109.408805 237.4,105.584906 C243.88,98.1383648 256.12,98.1383648 262.78,105.584906 C266.02,109.408805 268,114.641509 268,119.874214 C268,125.106918 266.02,130.339623 262.78,134.163522 C259.36,137.786164 254.68,140 250,140 Z" id="Path" fill-rule="nonzero"></path>
                <path d="M462.2,142 L319.8,142 C309.9566,142 302,132.592 302,121 C302,109.408 309.9566,100 319.8,100 L462.2,100 C472.0434,100 480,109.408 480,121 C480,132.592 472.0434,142 462.2,142 Z" id="Path" fill-rule="nonzero"></path>
                <path d="M20,440 C15.32,440 10.622,437.784784 7.22,434.159886 C3.962,430.333604 2,425.097639 2,419.861675 C2,414.62571 3.962,409.389746 7.22,405.563464 C13.88,398.112284 26.12,398.112284 32.78,405.764847 C36.02,409.389746 38,414.62571 38,419.861675 C38,425.097639 36.02,430.333604 32.78,434.159886 C29.36,437.784784 24.68,440 20,440 Z" id="Path" fill-rule="nonzero"></path>
                <path d="M232.2,442 L89.8,442 C79.9566,442 72,432.592 72,421 C72,409.408 79.9566,400 89.8,400 L232.2,400 C242.0434,400 250,409.408 250,421 C250,432.592 242.0434,442 232.2,442 Z" id="Path" fill-rule="nonzero"></path>
                <path d="M571,142 L537,142 C527.599,142 520,132.592 520,121 C520,109.408 527.599,100 537,100 L571,100 C580.401,100 588,109.408 588,121 C588,132.592 580.401,142 571,142 Z" id="Path" fill-rule="nonzero"></path>
                <path d="M410.166667,242 L17.8333333,242 C7.9715,242 0,232.592 0,221 C0,209.408 7.9715,200 17.8333333,200 L410.166667,200 C420.0285,200 428,209.408 428,221 C428,232.592 420.0285,242 410.166667,242 Z" id="Path" fill-rule="nonzero"></path>
                <path d="M570.25,242 L463.75,242 C453.93425,242 446,232.592 446,221 C446,209.408 453.93425,200 463.75,200 L570.25,200 C580.06575,200 588,209.408 588,221 C588,232.592 580.06575,242 570.25,242 Z" id="Path" fill-rule="nonzero"></path>
                <path d="M91.6666667,342 L18.3333333,342 C8.195,342 0,332.592 0,321 C0,309.408 8.195,300 18.3333333,300 L91.6666667,300 C101.805,300 110,309.408 110,321 C110,332.592 101.805,342 91.6666667,342 Z" id="Path" fill-rule="nonzero"></path>
                <path d="M338.166667,342 L159.833333,342 C149.9715,342 142,332.592 142,321 C142,309.408 149.9715,300 159.833333,300 L338.166667,300 C348.0285,300 356,309.408 356,321 C356,332.592 348.0285,342 338.166667,342 Z" id="Path" fill-rule="nonzero"></path>
                <path d="M572,342 L410,342 C400.046,342 392,332.592 392,321 C392,309.408 400.046,300 410,300 L572,300 C581.954,300 590,309.408 590,321 C590,332.592 581.954,342 572,342 Z" id="Path" fill-rule="nonzero"></path>
            </g>
        </g>
    </g>
</svg>