<?xml version="1.0" encoding="UTF-8"?>
<svg width="500px" height="500px" viewBox="0 0 500 500" version="1.1" xmlns="http://www.w3.org/2000/svg" xmlns:xlink="http://www.w3.org/1999/xlink">
    <!-- Generator: Sketch 63.1 (92452) - https://sketch.com -->
    <title>file_generic</title>
    <desc>Created with Sketch.</desc>
    <g id="file_generic" stroke="none" stroke-width="1" fill="none" fill-rule="evenodd">
        <g id="Files/File">
            <rect id="Rectangle" fill="#FFFFFF" x="93" y="140" width="312" height="304"></rect>
            <rect id="Rectangle-Copy" fill="#FFFFFF" x="93" y="57" width="229" height="93"></rect>
            <g id="Group" stroke-width="1" transform="translate(77.000000, 45.000000)" fill="#AEAEAE">
                <polygon id="Path" fill-rule="nonzero" points="77 227 270 227 270 249 77 249"></polygon>
                <polygon id="Path" fill-rule="nonzero" points="77 162 270 162 270 184 77 184"></polygon>
                <polygon id="Path" fill-rule="nonzero" points="77 98 190 98 190 120 77 120"></polygon>
                <polygon id="Path" fill-rule="nonzero" points="77 291 270 291 270 313 77 313"></polygon>
                <path d="M338.964943,96.740025 L249.441157,7.06419236 C245.220588,2.8364543 238.382096,0 232.416275,0 L31.841418,0 C14.2822282,0 0,14.3064851 0,31.8954975 L0,379.104502 C0,396.693515 14.2822282,411 31.841418,411 L314.176195,411 C331.735385,411 345.999917,396.693515 345.999917,379.104502 L345.999917,113.771446 C346.017645,107.813303 343.186105,100.963288 338.965399,96.7354583 L338.964943,96.740025 Z M321.530668,379.106786 C321.530668,383.120484 318.164898,386.474205 314.193519,386.474205 L31.8405063,386.474205 C27.8692645,386.474205 24.4855782,383.120529 24.4855782,379.124596 L24.4855782,31.8973242 C24.4855782,27.9193377 27.8513479,24.5477146 31.8405063,24.5477146 L227.519068,24.5477146 L227.519068,89.2849251 C227.519068,105.518091 240.714902,118.718527 256.902765,118.718527 L321.530668,118.718527 L321.530668,379.106786 Z" id="Shape" fill-rule="nonzero"></path>
            </g>
        </g>
    </g>
</svg>