<?xml version="1.0" encoding="UTF-8"?>
<svg width="500px" height="500px" viewBox="0 0 500 500" version="1.1" xmlns="http://www.w3.org/2000/svg" xmlns:xlink="http://www.w3.org/1999/xlink">
    <!-- Generator: Sketch 63.1 (92452) - https://sketch.com -->
    <title>file_script</title>
    <desc>Created with Sketch.</desc>
    <g id="file_script" stroke="none" stroke-width="1" fill="none" fill-rule="evenodd">
        <g id="Files/Script">
            <g id="Fill" stroke-width="1" fill-rule="evenodd" transform="translate(73.000000, 71.000000)" fill="#FFFFFF">
                <rect id="Rectangle" x="0" y="0" width="320" height="59"></rect>
                <rect id="Rectangle-Copy" x="66" y="54" width="264" height="105"></rect>
                <rect id="Rectangle-Copy-2" x="52" y="151" width="264" height="67"></rect>
                <rect id="Rectangle-Copy-4" x="92" y="310" width="264" height="45"></rect>
                <rect id="Rectangle-Copy-3" x="38" y="214" width="264" height="145"></rect>
            </g>
            <path d="M104.686002,45.024064 C89.3756513,44.5055146 73.7617313,52.4447949 63.9962205,61.3674329 C51.2618624,73.258638 44,89.9059589 44,107.340167 L44,146.08855 L126.577358,146.08855 C128.884624,179.043534 120.585634,205.812364 110.372782,233.419808 C79.9137101,311.023688 71.5071657,348.358511 93.6856079,411.87257 C100.983184,436.352147 122.320514,453.875618 146.753064,456.772317 C238.025426,456.557743 307.722822,457.273014 391.339551,456.879602 C408.152182,456.772317 424.195586,450.03107 435.964291,438.032749 C447.732995,426.034429 454.243488,404.880928 453.993032,388.091244 L453.72475,369.870148 C430.437798,370.174128 407.168245,370.013198 383.880835,370.013198 C381.698797,355.243147 381.358963,346.356214 382.288995,334.643992 C384.274285,309.610069 391.947363,288.939505 400.46105,265.462877 C408.974737,241.98625 418.185763,215.736519 420.385842,182.439131 C421.494764,165.541416 420.868761,143.10024 417.61356,122.088187 L417.542017,121.623287 L417.470475,121.212022 C414.268936,105.440852 411.103296,88.20348 401.534212,72.6804152 C391.965129,57.1573503 372.165794,45.0720555 349.629753,45.0720555 L104.686002,45.024064 Z M110.033956,81.1618468 C114.183428,91.1217667 117.545817,100.563046 120.06778,109.485684 L80.6119661,109.503564 C80.2005949,96.7362081 86.1925197,90.9071052 88.9644815,88.117522 C93.9008081,84.1121309 97.5317393,81.1797269 110.016099,81.1797269 L110.033956,81.1618468 Z M350.650685,82.0916469 C363.403358,82.0916469 365.799865,84.3983401 370.378592,91.8011726 C374.903658,99.1326405 378.391366,112.847557 381.503528,128.100087 C384.150582,145.605706 384.758728,166.473106 383.864411,180.009955 C382.022206,207.886562 374.474356,229.68596 366.050413,252.912651 C357.626469,276.139341 348.307842,300.885792 345.857307,331.73417 C344.81995,344.787625 345.123978,354.460987 347.055651,369.946516 L179.089597,369.982281 L179.089597,397.09031 C176.156373,406.442326 168.215119,418.440647 157.966552,419.978259 C143.711598,422.141903 131.531724,412.700807 128.741448,401.417506 C102.270906,332.396606 128.902417,290.877867 144.67771,246.099883 C160.39923,203.614356 167.33875,149.48985 144.802911,82.1489262 C216.50579,81.9701164 289.335035,82.2562158 350.648781,82.0416413 L350.650685,82.0916469 Z M218.101092,401.680657 L410.641178,401.680657 C410.641178,409.673587 400.428326,425.087247 394.597774,425.087247 C334.822481,425.194537 269.630553,425.087247 209.67669,425.087247 C213.826162,423.978601 218.100634,407.170103 218.100634,401.680657 L218.101092,401.680657 Z" id="Shape" fill="#398EC7" fill-rule="nonzero"></path>
            <path d="M208.789378,118 L208.789378,136.267321 L334,136.267321 L334,118 L208.789378,118 Z M208.843117,189.178616 L208.843117,207.428127 L333.998711,207.428127 L333.998711,189.178616 L208.843117,189.178616 Z M191.002266,260.626675 L191.002266,278.822754 L316.139518,278.822754 L316.139518,260.626675 L191.002266,260.626675 Z M173,331.75049 L173,350 L298.316092,349.982157 L298.316092,331.732647 L173,331.75049 Z" id="Shape" fill="#398EC7" fill-rule="nonzero"></path>
        </g>
    </g>
</svg>