<?xml version="1.0" encoding="UTF-8"?>
<svg width="1000px" height="1000px" viewBox="0 0 1000 1000" version="1.1" xmlns="http://www.w3.org/2000/svg" xmlns:xlink="http://www.w3.org/1999/xlink">
    <!-- Generator: Sketch 58 (84663) - https://sketch.com -->
    <title>folder_key</title>
    <desc>Created with Sketch.</desc>
    <defs>
        <linearGradient x1="50%" y1="0%" x2="50%" y2="100%" id="linearGradient-1">
            <stop stop-color="#F4DE7C" offset="0%"></stop>
            <stop stop-color="#C66C00" offset="100%"></stop>
        </linearGradient>
        <linearGradient x1="50%" y1="0%" x2="50%" y2="100%" id="linearGradient-2">
            <stop stop-color="#F6F6F6" offset="0%"></stop>
            <stop stop-color="#B0B0B0" offset="100%"></stop>
        </linearGradient>
        <linearGradient x1="50%" y1="0%" x2="50%" y2="100%" id="linearGradient-3">
            <stop stop-color="#F4DE7C" stop-opacity="0.573126093" offset="0%"></stop>
            <stop stop-color="#FAB04C" stop-opacity="0.938456075" offset="60.102335%"></stop>
            <stop stop-color="#DA8C2F" offset="100%"></stop>
        </linearGradient>
        <linearGradient x1="50%" y1="0%" x2="50%" y2="100%" id="linearGradient-4">
            <stop stop-color="#F6F6F6" offset="0%"></stop>
            <stop stop-color="#B0B0B0" offset="100%"></stop>
        </linearGradient>
    </defs>
    <g id="folder_key" stroke="none" stroke-width="1" fill="none" fill-rule="evenodd">
        <g id="Folder/Key" transform="translate(50.000000, 50.000000)" fill-rule="nonzero">
            <g id="Folder/Parts/Back">
                <path d="M45.8945683,265.212626 C45.3687207,266.936593 45,269.610129 45,273.295898 L45,844.2 C45,848.836434 50.1558931,854.276284 54,854.276284 C205.527782,854.276284 205.527782,854.276284 431.672543,854.276284 C567.814074,854.276284 567.814074,854.276284 687.675773,854.276284 C791.257637,854.276284 791.257637,854.276284 846,854.276284 C851.423282,854.276284 855,850.665802 855,845.276284 L855,326.453906 C855,323.292717 854.59999,321.020887 854.017238,319.521135 C853.867329,319.135335 853.731408,318.87141 853.613614,318.693056 C853.563393,318.617016 853.533466,318.581022 853.505175,318.553757 C853.463333,318.513432 853.395083,318.460703 853.271581,318.384797 C853.032489,318.237848 852.700726,318.078465 852.254994,317.916349 C850.781292,317.380352 848.691308,317.032509 846,317.032509 L394.284375,317.032509 C384.029534,317.032509 374.390461,314.731812 365.490235,310.677705 C359.030169,307.735106 353.407669,304.108855 348.049577,299.836679 C346.073765,298.261303 344.324168,296.754613 342.38183,295.003257 C342.080184,294.73127 341.787948,294.466151 341.43894,294.148353 C341.334533,294.053283 340.840015,293.602503 340.718762,293.492174 C340.493155,293.286892 340.33746,293.146145 340.240461,293.059106 L308.184196,265.822564 C307.746984,265.738063 307.21739,265.645148 306.594888,265.549135 C301.029443,264.690737 292.48398,264.295898 278.669531,264.295898 L54,264.295898 C50.3715511,264.295898 47.6676742,264.666938 45.8945683,265.212626 Z" id="Folder-Back" stroke-opacity="0.8" stroke="#DA8C2F" stroke-width="90" fill-opacity="0.8" fill="#DA8C2F"></path>
                <path d="M291.579508,273.495595 L82,273.495595 C57.2420294,273.495595 48.5,281.792741 48.5,305.910887 L48.5,815.303705 C48.5,828.82291 50.1008429,835.818341 53.4660786,839.475944 C57.2995556,843.642468 65.844417,846.1 82,846.1 C222.515363,846.1 222.515363,846.1 433.469759,846.1 C560.005063,846.1 560.005063,846.1 671.338996,846.1 C767.471556,846.1 767.471556,846.1 818,846.1 C831.987867,846.1 840.414534,843.703115 844.924309,839.378714 C849.20941,835.269752 851.5,827.839689 851.5,815.303705 L851.5,358.449495 C851.5,345.29982 849.525911,337.591417 845.602157,333.313433 C841.351718,328.679271 832.921294,326.038608 818,326.038608 L380.155208,326.038608 C371.303666,326.038608 360.211731,323.162028 353.889939,317.996328 L311.738593,283.529729 L311.440637,283.25182 C308.476913,280.487497 308.153458,280.19333 306.873125,279.153359 C302.213132,275.368203 297.72324,273.495595 291.579508,273.495595 Z" id="Folder-Back" stroke="url(#linearGradient-2)" stroke-width="25" fill="url(#linearGradient-1)"></path>
            </g>
            <g id="Annotations/Key" transform="translate(503.649020, 392.404669) scale(-1, 1) rotate(45.000000) translate(-503.649020, -392.404669) translate(44.649020, -66.595331)">
                <path d="M840.41137,382.651577 L469.468122,385.591045 L467.204788,344.53887 C467.032889,329.87021 449.456238,323.747514 437.96767,331.332774 L396.196266,365.473615 C374.207546,317.768207 335.200847,278.321985 286.83999,259.265632 C264.96587,250.031402 241.616285,245.830114 218.324,246.030858 C167.040863,246.403669 115.786376,268.241762 79.759256,306.039014 C15.1396385,370.807674 2.3475041,479.596653 45.0643517,560.367487 C81.5212185,633.409672 164.218858,677.802803 243.378248,666.57547 C313.570251,658.129878 372.775056,605.922066 399.949389,540.22138 L450.215458,569.114196 C464.927129,578.29107 473.17827,566.791299 473.17827,553.284087 L472.218502,499.341272 L529.417822,500.674786 L568.281272,537.31059 L618.891139,486.006126 L665.146236,530.198512 L699.339769,530.198512 L746.697884,482.693848 L781.006016,511.701375 L824.653982,509.894677 L862.529014,473.488296 L903.312,435.891788 C896.335774,412.820552 876.639039,398.567719 840.41137,382.651577 Z M134.365769,495.94296 C116.345047,498.35189 97.4934804,488.74485 89.1993642,472.972097 C79.4584331,455.550374 82.4093622,432.091989 97.0923833,418.097255 C109.067998,406.253351 128.306337,401.664914 144.278599,408.074387 C161.010081,414.311794 172.914071,430.68678 173.573017,448.079825 C173.601667,448.954495 173.658966,449.857844 173.658966,450.775531 C174.188987,472.398542 156.726936,493.390642 134.365769,495.94296 Z" id="Shape" fill="#FFE600"></path>
                <path d="M882.671823,435.132 L391.068,441.250154 L447.464172,459 L865.033691,452.838659 L883.116,435.751013 C882.987045,435.549474 882.815106,435.347935 882.671823,435.132 Z" id="Path" fill="#8F7200"></path>
                <path d="M217.295643,686.664 C139.508149,686.664 63.7676933,639.623852 28.7962451,569.572288 C-18.2856596,480.521262 -2.46762836,365.40687 66.6020554,296.186353 C105.409913,255.465031 160.236211,231.737195 216.73736,231.336 C216.76599,231.336 216.780305,231.336 216.79462,231.336 C244.279344,231.336 268.958335,236.236314 291.819327,245.879329 C336.095499,263.331325 374.731577,297.64785 399.968853,341.464108 L425.835986,320.329713 C452.604962,302.275925 481.936316,320.816879 482.26556,346.249794 L483.625481,370.679722 L838.407459,367.857027 C841.456545,367.756728 843.088451,368.329864 845.235695,369.26121 C881.867679,385.352007 908.149946,402.345493 917.297206,432.950963 C919.12952,439.054863 917.31152,445.688913 912.630528,450.001763 L834.270435,523.707069 C831.350183,526.529765 827.485144,528.177531 823.419695,528.349472 L779.816326,530.169179 C775.951287,530.455747 771.570909,528.951265 768.364358,526.243197 L745.80398,507.157763 L709.329461,543.766834 C706.194485,546.904754 701.942942,548.667148 697.519619,548.667148 L663.349809,548.667148 C659.05532,548.667148 654.932612,547.019381 651.84058,544.039074 L617.484675,511.198373 L578.433464,550.80208 C572.077621,557.249861 561.727905,557.421802 555.143023,551.231932 L520.958898,519.021681 L487.54778,518.233619 L488.206268,554.742391 C488.206268,583.313227 463.298237,599.70492 439.778757,585.032635 L405.866616,565.546007 C372.541389,630.725914 310.70076,676.806059 243.907155,684.829964 C235.389753,686.03355 226.328383,686.664 217.295643,686.664 Z M218.397895,264.692523 C170.156479,265.050733 122.85985,285.526021 90.4507794,319.498665 C32.1602608,377.944223 18.5037886,478.773197 58.442528,554.326867 C91.4241967,620.409463 166.964243,662.033475 239.569722,651.745681 C300.665973,644.380882 356.823562,598.816559 382.96268,535.628301 C384.80931,531.200824 388.459624,527.762007 392.997467,526.21454 C397.520994,524.638416 402.502601,525.125581 406.668254,527.532753 L454.866726,555.229557 C454.866726,555.157915 454.866726,555.100601 454.866726,555.043287 L453.907623,501.455059 C453.821734,496.898627 455.596789,492.528464 458.83197,489.318901 C462.038521,486.123667 466.504788,484.604857 470.971056,484.461573 L528.130693,485.794114 C532.253401,485.894413 536.190016,487.513523 539.181842,490.336218 L566.165543,515.769134 L605.302644,476.079457 C611.701431,469.603018 622.079778,469.431078 628.678974,475.735575 L670.063525,515.281968 L690.634123,515.281968 L733.063666,472.712282 C739.204784,466.565397 749.010531,466.17853 755.624043,471.752279 L784.955397,496.540417 L815.761192,495.265189 L881.35234,433.509771 C874.395269,422.218989 860.524073,412.704929 835.100703,401.270863 L468.036489,404.193857 C467.979229,404.193857 467.936284,404.193857 467.89334,404.193857 C459.061009,404.193857 451.731749,397.273239 451.245041,388.432614 L448.983277,347.396067 L405.193813,380.322737 C401.185624,383.575285 395.889089,384.850513 390.907483,383.646927 C385.897247,382.471998 381.688648,379.061838 379.527089,374.37645 C358.741767,329.270637 322.195673,293.70754 279.265107,276.800024 C260.11169,268.704476 239.770131,264.692523 218.397895,264.692523 Z M127.412007,514.809131 C104.694165,514.809131 83.379189,502.157151 73.0867325,482.570223 C59.6306697,458.498506 64.240087,426.933033 84.2380866,407.876257 C100.600086,391.69949 127.669676,385.882158 149.084857,394.450543 C171.774069,402.889973 187.892715,424.984371 188.794557,449.299671 C188.808872,449.500269 188.894762,452.394606 188.894762,452.595204 C189.66777,482.942762 165.432542,510.840163 134.870101,514.336294 C132.594023,514.622862 130.003015,514.809131 127.412007,514.809131 Z M127.540842,423.723471 C120.097062,423.723471 112.581708,426.746764 107.442637,431.819019 C98.3812675,440.459046 96.2626533,455.67581 102.403771,466.651367 C107.571472,476.480652 119.438574,482.842463 130.790338,481.223354 C144.47544,479.661558 155.913093,466.493755 155.569534,453.025056 C155.09714,439.900238 147.352747,429.411847 137.074605,425.586164 C133.868054,424.296607 130.790338,423.723471 127.540842,423.723471 Z" id="Shape" fill="#8F7200"></path>
            </g>
            <g id="Folder/Parts/Front" fill="url(#linearGradient-3)" stroke="url(#linearGradient-4)" stroke-width="25">
                <path d="M59.4,819 L59.7556748,547.597266 C59.7556748,517.322423 81.3226413,493.597266 113.405484,493.597266 C384.90801,493.597266 531.77704,493.597266 554.012576,493.597266 C570.647806,493.597266 592.45027,509.405187 619.419968,541.021029 C629.24803,548.435395 644.445284,556.639632 656.735853,556.639632 L790.205484,556.639632 C824.674419,556.639632 844.205484,577.585227 844.205484,613.286091 L844.205484,819" id="Path" transform="translate(451.802742, 656.298633) scale(-1, 1) translate(-451.802742, -656.298633) "></path>
            </g>
        </g>
    </g>
</svg>