<?xml version="1.0" encoding="UTF-8"?>
<svg width="1000px" height="1000px" viewBox="0 0 1000 1000" version="1.1" xmlns="http://www.w3.org/2000/svg" xmlns:xlink="http://www.w3.org/1999/xlink">
    <!-- Generator: Sketch 58 (84663) - https://sketch.com -->
    <title>folder_task</title>
    <desc>Created with Sketch.</desc>
    <defs>
        <linearGradient x1="50%" y1="0%" x2="50%" y2="100%" id="linearGradient-1">
            <stop stop-color="#F4DE7C" offset="0%"></stop>
            <stop stop-color="#C66C00" offset="100%"></stop>
        </linearGradient>
        <linearGradient x1="50%" y1="0%" x2="50%" y2="100%" id="linearGradient-2">
            <stop stop-color="#F6F6F6" offset="0%"></stop>
            <stop stop-color="#B0B0B0" offset="100%"></stop>
        </linearGradient>
        <linearGradient x1="50%" y1="0%" x2="50%" y2="100%" id="linearGradient-3">
            <stop stop-color="#F4DE7C" stop-opacity="0.573126093" offset="0%"></stop>
            <stop stop-color="#FAB04C" stop-opacity="0.938456075" offset="60.102335%"></stop>
            <stop stop-color="#DA8C2F" offset="100%"></stop>
        </linearGradient>
        <linearGradient x1="50%" y1="0%" x2="50%" y2="100%" id="linearGradient-4">
            <stop stop-color="#F6F6F6" offset="0%"></stop>
            <stop stop-color="#B0B0B0" offset="100%"></stop>
        </linearGradient>
    </defs>
    <g id="folder_task" stroke="none" stroke-width="1" fill="none" fill-rule="evenodd">
        <g id="Folder/Gear" transform="translate(50.000000, 50.000000)">
            <g id="Folder/Parts/Back" fill-rule="nonzero">
                <path d="M45.8945683,265.212626 C45.3687207,266.936593 45,269.610129 45,273.295898 L45,844.2 C45,848.836434 50.1558931,854.276284 54,854.276284 C205.527782,854.276284 205.527782,854.276284 431.672543,854.276284 C567.814074,854.276284 567.814074,854.276284 687.675773,854.276284 C791.257637,854.276284 791.257637,854.276284 846,854.276284 C851.423282,854.276284 855,850.665802 855,845.276284 L855,326.453906 C855,323.292717 854.59999,321.020887 854.017238,319.521135 C853.867329,319.135335 853.731408,318.87141 853.613614,318.693056 C853.563393,318.617016 853.533466,318.581022 853.505175,318.553757 C853.463333,318.513432 853.395083,318.460703 853.271581,318.384797 C853.032489,318.237848 852.700726,318.078465 852.254994,317.916349 C850.781292,317.380352 848.691308,317.032509 846,317.032509 L394.284375,317.032509 C384.029534,317.032509 374.390461,314.731812 365.490235,310.677705 C359.030169,307.735106 353.407669,304.108855 348.049577,299.836679 C346.073765,298.261303 344.324168,296.754613 342.38183,295.003257 C342.080184,294.73127 341.787948,294.466151 341.43894,294.148353 C341.334533,294.053283 340.840015,293.602503 340.718762,293.492174 C340.493155,293.286892 340.33746,293.146145 340.240461,293.059106 L308.184196,265.822564 C307.746984,265.738063 307.21739,265.645148 306.594888,265.549135 C301.029443,264.690737 292.48398,264.295898 278.669531,264.295898 L54,264.295898 C50.3715511,264.295898 47.6676742,264.666938 45.8945683,265.212626 Z" id="Folder-Back" stroke-opacity="0.8" stroke="#DA8C2F" stroke-width="90" fill-opacity="0.8" fill="#DA8C2F"></path>
                <path d="M291.579508,273.495595 L82,273.495595 C57.2420294,273.495595 48.5,281.792741 48.5,305.910887 L48.5,815.303705 C48.5,828.82291 50.1008429,835.818341 53.4660786,839.475944 C57.2995556,843.642468 65.844417,846.1 82,846.1 C222.515363,846.1 222.515363,846.1 433.469759,846.1 C560.005063,846.1 560.005063,846.1 671.338996,846.1 C767.471556,846.1 767.471556,846.1 818,846.1 C831.987867,846.1 840.414534,843.703115 844.924309,839.378714 C849.20941,835.269752 851.5,827.839689 851.5,815.303705 L851.5,358.449495 C851.5,345.29982 849.525911,337.591417 845.602157,333.313433 C841.351718,328.679271 832.921294,326.038608 818,326.038608 L380.155208,326.038608 C371.303666,326.038608 360.211731,323.162028 353.889939,317.996328 L311.738593,283.529729 L311.440637,283.25182 C308.476913,280.487497 308.153458,280.19333 306.873125,279.153359 C302.213132,275.368203 297.72324,273.495595 291.579508,273.495595 Z" id="Folder-Back" stroke="url(#linearGradient-2)" stroke-width="25" fill="url(#linearGradient-1)"></path>
            </g>
            <g id="Annotations/Gear" transform="translate(216.000000, 0.000000)" fill-rule="evenodd" stroke="#4A4A4A" stroke-width="1">
                <g id="Group" transform="translate(41.724000, 41.724000)">
                    <path d="M588.536529,346.04511 C564.028536,339.198561 547.370944,319.615369 547.370944,299.037144 C547.370944,278.45892 564.028536,259.870368 588.536529,253.024015 C596.386733,251.073314 601.288527,242.237485 600.292522,234.435463 C592.442318,200.164533 579.690124,167.844109 561.079735,137.513357 C556.178136,130.666809 547.370944,127.721663 539.520544,131.623065 C512.06375,146.310607 481.697367,142.409596 466.992572,121.831371 C456.19337,106.148994 458.184987,83.6594307 470.898557,65.0317117 C473.847163,61.130309 474.804543,57.1907188 473.847163,53.289512 C472.85155,49.3881094 470.898557,45.4485191 466.992572,42.5029817 C436.586976,22.9195933 403.271791,8.23205203 367.009766,0.390863323 C363.10378,-0.603581139 358.202182,0.390863323 355.253772,2.34156464 C351.347786,4.29226595 349.356561,8.23185619 348.399181,12.1332588 C342.50197,39.5578359 322.895184,58.1463881 300.379201,58.1463881 C277.824005,58.1463881 259.213616,38.5629998 253.316013,12.1332588 C252.3204,8.23185619 250.367407,4.29226595 246.461422,2.34156464 C242.555436,0.390863323 238.611218,-0.603581139 234.705428,0.390863323 C199.398234,8.23185619 166.083049,21.9247572 134.722622,41.5081455 C130.816636,43.4588469 128.825411,47.3984371 127.868031,52.2946759 C126.872418,56.1960785 127.868031,61.0919256 130.816636,65.0317117 C144.525427,84.6151 146.517437,107.14383 135.718235,123.781877 C121.013439,144.360101 88.655047,148.261112 62.1942578,132.579126 C54.3440537,128.677724 45.5366655,130.628425 40.6350671,137.474974 C22.024678,167.844892 8.27667457,200.12615 0.426274459,235.391915 C-1.52671844,244.189165 3.37488004,252.029962 12.1822682,253.980468 C38.6430574,260.827016 56.2966545,280.410209 56.2966545,301.944102 C56.2966545,323.477996 37.6862654,342.105715 13.178273,347.957232 C4.37068878,349.907933 -0.530517563,358.743762 1.42227927,366.545784 C9.27248332,401.81155 22.98147,434.092807 41.6310719,464.462726 C46.5326703,471.309274 55.3398625,474.25442 63.1902626,469.358573 C89.6510518,453.676196 122.009444,457.616373 136.71424,478.155823 C147.513441,493.8382 145.521824,516.327763 131.812641,535.911152 C128.864036,539.812554 127.906655,543.752145 128.864036,548.648187 C129.859648,552.54959 131.812641,556.48918 135.718627,559.434718 C167.081015,579.018106 200.435412,592.710811 236.701359,600.552 L239.649964,600.552 C246.504556,600.552 253.358755,595.656153 255.350765,588.8098 C262.205356,563.335729 280.854762,545.742013 302.413952,545.742013 L303.409565,545.742013 C324.011964,545.742013 342.622353,563.374896 349.476748,587.854131 C351.429741,595.695124 360.27595,601.546836 368.087137,599.596331 C403.394331,591.755338 436.709516,578.062437 467.119033,557.484212 C471.025019,555.533511 473.016244,551.593921 473.973624,547.692518 C474.969237,543.791115 473.973624,538.895268 471.025019,535.950318 C458.27302,517.361766 456.320223,494.833036 467.119033,479.150659 C480.827824,458.572434 512.229424,454.671423 538.690213,469.358965 C546.540417,473.260367 555.347805,471.309666 560.249404,463.468673 C578.859793,433.098754 592.607796,399.822661 600.458196,365.551731 C601.300654,356.831053 596.399085,347.995224 588.549273,346.044718 L588.536529,346.04511 Z" id="Path" stroke-width="35" fill="#B4B4B4" fill-rule="nonzero"></path>
                    <path d="M300.276,409.032 C239.963189,409.032 191.52,360.541522 191.52,300.276 C191.52,239.963189 240.010478,191.52 300.276,191.52 C360.588811,191.52 409.032,240.010478 409.032,300.276 C409.032,360.541522 359.387662,409.032 300.276,409.032 Z" id="Path" stroke-width="33" fill="#929292" fill-rule="nonzero"></path>
                </g>
            </g>
            <g id="Folder/Parts/Front" fill="url(#linearGradient-3)" fill-rule="nonzero" stroke="url(#linearGradient-4)" stroke-width="25">
                <path d="M59.4,819 L59.7556748,547.597266 C59.7556748,517.322423 81.3226413,493.597266 113.405484,493.597266 C384.90801,493.597266 531.77704,493.597266 554.012576,493.597266 C570.647806,493.597266 592.45027,509.405187 619.419968,541.021029 C629.24803,548.435395 644.445284,556.639632 656.735853,556.639632 L790.205484,556.639632 C824.674419,556.639632 844.205484,577.585227 844.205484,613.286091 L844.205484,819" id="Path" transform="translate(451.802742, 656.298633) scale(-1, 1) translate(-451.802742, -656.298633) "></path>
            </g>
        </g>
    </g>
</svg>