<?xml version="1.0" encoding="UTF-8"?>
<svg width="1001px" height="1000px" viewBox="0 0 1001 1000" version="1.1" xmlns="http://www.w3.org/2000/svg" xmlns:xlink="http://www.w3.org/1999/xlink">
    <!-- Generator: Sketch 58 (84663) - https://sketch.com -->
    <title>folder</title>
    <desc>Created with Sketch.</desc>
    <defs>
        <linearGradient x1="50%" y1="0%" x2="50%" y2="100%" id="linearGradient-1">
            <stop stop-color="#F4DE7C" offset="0%"></stop>
            <stop stop-color="#C66C00" offset="100%"></stop>
        </linearGradient>
        <linearGradient x1="50%" y1="0%" x2="50%" y2="100%" id="linearGradient-2">
            <stop stop-color="#F6F6F6" offset="0%"></stop>
            <stop stop-color="#B0B0B0" offset="100%"></stop>
        </linearGradient>
        <linearGradient x1="50%" y1="0%" x2="50%" y2="100%" id="linearGradient-3">
            <stop stop-color="#F4DE7C" stop-opacity="0.573126093" offset="0%"></stop>
            <stop stop-color="#FAB04C" stop-opacity="0.938456075" offset="60.102335%"></stop>
            <stop stop-color="#DA8C2F" offset="100%"></stop>
        </linearGradient>
        <linearGradient x1="50%" y1="0%" x2="50%" y2="100%" id="linearGradient-4">
            <stop stop-color="#F6F6F6" offset="0%"></stop>
            <stop stop-color="#B0B0B0" offset="100%"></stop>
        </linearGradient>
    </defs>
    <g id="folder" stroke="none" stroke-width="1" fill="none" fill-rule="evenodd" transform="translate(1.000000, 0.000000)">
        <g id="Folder/Plain" transform="translate(50.000000, 50.000000)" fill-rule="nonzero">
            <g id="Folder/Parts/Back">
                <path d="M45.8945683,265.212626 C45.3687207,266.936593 45,269.610129 45,273.295898 L45,844.2 C45,848.836434 50.1558931,854.276284 54,854.276284 C205.527782,854.276284 205.527782,854.276284 431.672543,854.276284 C567.814074,854.276284 567.814074,854.276284 687.675773,854.276284 C791.257637,854.276284 791.257637,854.276284 846,854.276284 C851.423282,854.276284 855,850.665802 855,845.276284 L855,326.453906 C855,323.292717 854.59999,321.020887 854.017238,319.521135 C853.867329,319.135335 853.731408,318.87141 853.613614,318.693056 C853.563393,318.617016 853.533466,318.581022 853.505175,318.553757 C853.463333,318.513432 853.395083,318.460703 853.271581,318.384797 C853.032489,318.237848 852.700726,318.078465 852.254994,317.916349 C850.781292,317.380352 848.691308,317.032509 846,317.032509 L394.284375,317.032509 C384.029534,317.032509 374.390461,314.731812 365.490235,310.677705 C359.030169,307.735106 353.407669,304.108855 348.049577,299.836679 C346.073765,298.261303 344.324168,296.754613 342.38183,295.003257 C342.080184,294.73127 341.787948,294.466151 341.43894,294.148353 C341.334533,294.053283 340.840015,293.602503 340.718762,293.492174 C340.493155,293.286892 340.33746,293.146145 340.240461,293.059106 L308.184196,265.822564 C307.746984,265.738063 307.21739,265.645148 306.594888,265.549135 C301.029443,264.690737 292.48398,264.295898 278.669531,264.295898 L54,264.295898 C50.3715511,264.295898 47.6676742,264.666938 45.8945683,265.212626 Z" id="Folder-Back" stroke-opacity="0.8" stroke="#DA8C2F" stroke-width="90" fill-opacity="0.8" fill="#DA8C2F"></path>
                <path d="M291.579508,273.495595 L82,273.495595 C57.2420294,273.495595 48.5,281.792741 48.5,305.910887 L48.5,815.303705 C48.5,828.82291 50.1008429,835.818341 53.4660786,839.475944 C57.2995556,843.642468 65.844417,846.1 82,846.1 C222.515363,846.1 222.515363,846.1 433.469759,846.1 C560.005063,846.1 560.005063,846.1 671.338996,846.1 C767.471556,846.1 767.471556,846.1 818,846.1 C831.987867,846.1 840.414534,843.703115 844.924309,839.378714 C849.20941,835.269752 851.5,827.839689 851.5,815.303705 L851.5,358.449495 C851.5,345.29982 849.525911,337.591417 845.602157,333.313433 C841.351718,328.679271 832.921294,326.038608 818,326.038608 L380.155208,326.038608 C371.303666,326.038608 360.211731,323.162028 353.889939,317.996328 L311.738593,283.529729 L311.440637,283.25182 C308.476913,280.487497 308.153458,280.19333 306.873125,279.153359 C302.213132,275.368203 297.72324,273.495595 291.579508,273.495595 Z" id="Folder-Back" stroke="url(#linearGradient-2)" stroke-width="25" fill="url(#linearGradient-1)"></path>
            </g>
            <g id="Folder/Parts/Front" fill="url(#linearGradient-3)" stroke="url(#linearGradient-4)" stroke-width="25">
                <path d="M59.4,819 L59.7556748,547.597266 C59.7556748,517.322423 81.3226413,493.597266 113.405484,493.597266 C384.90801,493.597266 531.77704,493.597266 554.012576,493.597266 C570.647806,493.597266 592.45027,509.405187 619.419968,541.021029 C629.24803,548.435395 644.445284,556.639632 656.735853,556.639632 L790.205484,556.639632 C824.674419,556.639632 844.205484,577.585227 844.205484,613.286091 L844.205484,819" id="Path" transform="translate(451.802742, 656.298633) scale(-1, 1) translate(-451.802742, -656.298633) "></path>
            </g>
        </g>
    </g>
</svg>