<?xml version="1.0" encoding="UTF-8"?>
<svg width="128px" height="128px" viewBox="0 0 128 128" version="1.1" xmlns="http://www.w3.org/2000/svg" xmlns:xlink="http://www.w3.org/1999/xlink">
    <!-- Generator: Sketch 53.2 (72643) - https://sketchapp.com -->
    <title>freeplane_icon</title>
    <desc>Created with Sketch.</desc>
    <g id="freeplane_icon" stroke="none" stroke-width="1" fill="none" fill-rule="evenodd">
        <path d="M83.6558482,102.092573 C84.5112128,99.577632 85.4910315,96.4577787 85.7814243,95.0463162 C86.486664,91.6184787 87.7540657,82.2757324 87.4292353,82.314658 C87.3071303,82.3948457 86.3080585,84.3763419 85.2826865,86.7936555 C81.0351422,96.4541902 74.4975106,102.770496 67.2267881,104.231772 C62.7749675,105.132361 59.5313618,104.472168 54.6011467,101.640981 C51.1443292,99.6558966 50.7955476,99.6059148 47.5448947,100.519896 L44.2048548,101.4577 L45.7710787,105.137783 C49.2347747,112.838475 54.6393156,118.497259 60.7818142,120.671841 C64.0557888,121.800394 70.0120054,120.26064 73.5314489,117.321564 C77.3844896,114.19829 81.6746087,107.718647 83.6558482,102.092573 Z" id="Blue" fill="#288BFF"></path>
        <path d="M44.7955407,25.1456178 C43.9401761,27.6605585 42.9603575,30.7804118 42.6699647,32.1918743 C41.964725,35.6197118 40.6973233,44.9624581 41.0221537,44.9235325 C41.1442587,44.8433448 42.1433305,42.8618486 43.1687025,40.444535 C47.4162467,30.7840003 53.9538783,24.4676947 61.2246008,23.0064181 C65.6764214,22.1058295 68.9200272,22.7660227 73.8502423,25.5972092 C77.3070598,27.5822939 77.6558413,27.6322757 80.9064942,26.7182945 L84.2465342,25.7804907 L82.6803103,22.1004078 C79.2166143,14.3997154 73.8120734,8.74093101 67.6695748,6.56634925 C64.3956001,5.43779629 58.4393836,6.97755016 54.91994,9.91662606 C51.0668994,13.0399001 46.7767802,19.5195436 44.7955407,25.1456178 Z" id="Orange" fill="#FF9F00"></path>
        <path d="M80.3601648,80.8417433 C79.5048002,83.356684 78.5249815,86.4765372 78.2345887,87.8879998 C77.529349,91.3158373 76.2619473,100.658584 76.5867777,100.619658 C76.7088827,100.53947 77.7079545,98.557974 78.7333265,96.1406604 C82.9808708,86.4801258 89.5185024,80.1638202 96.7892249,78.7025436 C101.241045,77.801955 104.484651,78.4621482 109.414866,81.2933347 C112.871684,83.2784194 113.220465,83.3284012 116.471118,82.41442 L119.811158,81.4766162 L118.244934,77.7965333 C114.781238,70.0958408 109.376697,64.4370565 103.234199,62.2624747 C99.9602241,61.1339218 94.0040076,62.6736756 90.4845641,65.6127515 C86.6315234,68.7360255 82.3414042,75.2156691 80.3601648,80.8417433 Z" id="Purple" fill="#D529FF" transform="translate(98.172836, 81.255628) rotate(120.000000) translate(-98.172836, -81.255628) "></path>
        <path d="M48.0912242,46.3964472 C48.9465888,43.8815065 49.9264074,40.7616533 50.2168003,39.3501907 C50.92204,35.9223532 52.1894416,26.5796069 51.8646113,26.6185325 C51.7425062,26.6987202 50.7434345,28.6802165 49.7180625,31.09753 C45.4705182,40.7580647 38.9328866,47.0743703 31.6621641,48.5356469 C27.2103435,49.4362355 23.9667377,48.7760423 19.0365226,45.9448558 C15.5797052,43.9597711 15.2309236,43.9097893 11.9802707,44.8237705 L8.64023074,45.7615743 L10.2064547,49.4416572 C13.6701506,57.1423497 19.0746916,62.801134 25.2171901,64.9757158 C28.4911648,66.1042687 34.4473813,64.5645149 37.9668249,61.6254389 C41.8198656,58.5021649 46.1099847,52.0225214 48.0912242,46.3964472 Z" id="Yellow" fill="#F9E700" transform="translate(30.278553, 45.982563) rotate(120.000000) translate(-30.278553, -45.982563) "></path>
        <path d="M14.0833639,83.6282714 C13.2279993,86.1432121 12.2481807,89.2630653 11.9577879,90.6745278 C11.2525481,94.1023654 9.98514647,103.445112 10.3099769,103.406186 C10.4320819,103.325998 11.4311536,101.344502 12.4565257,98.9271885 C16.7040699,89.2666538 23.2417015,82.9503482 30.512424,81.4890717 C34.9642446,80.5884831 38.2078504,81.2486763 43.1380655,84.0798627 C46.5948829,86.0649475 46.9436645,86.1149292 50.1943174,85.2009481 L53.5343574,84.2631442 L51.9681334,80.5830614 C48.5044375,72.8823689 43.0998966,67.2235846 36.957398,65.0490028 C33.6834233,63.9204498 27.7272068,65.4602037 24.2077632,68.3992796 C20.3547226,71.5225536 16.0646034,78.0021972 14.0833639,83.6282714 Z" id="Green" fill="#3F9E00" transform="translate(31.896035, 84.042156) rotate(240.000000) translate(-31.896035, -84.042156) "></path>
        <path d="M114.368025,43.6099191 C115.22339,41.0949784 116.203208,37.9751252 116.493601,36.5636627 C117.198841,33.1358251 118.466242,23.7930788 118.141412,23.8320045 C118.019307,23.9121922 117.020235,25.8936884 115.994863,28.311002 C111.747319,37.9715367 105.209687,44.2878423 97.9389649,45.7491188 C93.4871443,46.6497074 90.2435386,45.9895142 85.3133235,43.1583278 C81.856506,41.173243 81.5077244,41.1232612 78.2570715,42.0372424 L74.9170316,42.9750463 L76.4832555,46.6551291 C79.9469515,54.3558216 85.3514924,60.0146059 91.493991,62.1891877 C94.7679656,63.3177407 100.724182,61.7779868 104.243626,58.8389109 C108.096666,55.7156369 112.386786,49.2359933 114.368025,43.6099191 Z" id="Red" fill="#FF2828" transform="translate(96.555354, 43.196035) rotate(240.000000) translate(-96.555354, -43.196035) "></path>
    </g>
</svg>