<?xml version="1.0" encoding="UTF-8"?>
<svg width="1051px" height="1051px" viewBox="0 0 1051 1051" version="1.1" xmlns="http://www.w3.org/2000/svg" xmlns:xlink="http://www.w3.org/1999/xlink">
    <!-- Generator: Sketch 56.3 (81716) - https://sketch.com -->
    <title>git_server_computer_version_source_control.svg</title>
    <desc>Created with Sketch.</desc>
    <g id="git_server_computer_version_source_control.svg" stroke="none" stroke-width="1" fill="none" fill-rule="evenodd">
        <g id="Git" transform="translate(75.500000, 75.500000)" fill="#F05133">
            <g id="Path">
                <path d="M877.83871,410.4 L489.590323,22.1709677 C467.235484,-0.193548387 430.974194,-0.193548387 408.6,22.1709677 L327.987097,102.803226 L430.248387,205.064516 C454.016129,197.032258 481.267742,202.422581 500.206452,221.370968 C519.26129,240.435484 524.603226,267.919355 516.367742,291.774194 L614.941935,390.33871 C638.796774,382.112903 666.3,387.435484 685.345161,406.509677 C711.958065,433.122581 711.958065,476.245161 685.345161,502.877419 C658.712903,529.5 615.590323,529.5 588.948387,502.877419 C568.935484,482.845161 563.980645,453.425806 574.132258,428.767742 L482.196774,336.841935 L482.196774,578.748387 C488.680645,581.96129 494.806452,586.23871 500.206452,591.63871 C526.819355,618.251613 526.819355,661.374194 500.206452,688.016129 C473.593548,714.619355 430.441935,714.619355 403.848387,688.016129 C377.235484,661.364516 377.235484,618.241935 403.848387,591.63871 C410.429032,585.067742 418.045161,580.093548 426.174194,576.764516 L426.174194,332.603226 C418.045161,329.274194 410.448387,324.348387 403.848387,317.729032 C383.690323,297.580645 378.841935,267.987097 389.177419,243.232258 L288.367742,142.403226 L22.1419355,408.6 C-0.222580645,430.983871 -0.222580645,467.245161 22.1419355,489.609677 L410.409677,877.848387 C432.764516,900.212903 469.016129,900.212903 491.4,877.848387 L877.83871,491.409677 C900.203226,469.045161 900.203226,432.764516 877.83871,410.4 Z" fill-rule="nonzero"></path>
            </g>
        </g>
    </g>
</svg>