<?xml version="1.0" encoding="UTF-8"?>
<svg width="1000px" height="1000px" viewBox="0 0 1000 1000" version="1.1" xmlns="http://www.w3.org/2000/svg" xmlns:xlink="http://www.w3.org/1999/xlink">
    <!-- Generator: Sketch 58 (84663) - https://sketch.com -->
    <title>git_server_computer_version_source_control.svg</title>
    <desc>Created with Sketch.</desc>
    <g id="git_server_computer_version_source_control.svg" stroke="none" stroke-width="1" fill="none" fill-rule="evenodd">
        <g id="App/Git" transform="translate(71.836346, 71.836346)" fill="#F05133">
            <g id="Git" transform="translate(29.104000, 29.104000)">
                <path d="M781.402822,363.49184 L434.291508,16.3978305 C414.305289,-3.59704086 381.886083,-3.59704086 361.88256,16.3978305 L289.811042,88.4866529 L381.23718,179.912791 C402.486598,172.731596 426.850751,177.550784 443.782799,194.491484 C460.818672,211.536009 465.5946,236.107811 458.231711,257.435097 L546.361421,345.556155 C567.688707,338.201918 592.277813,342.960542 609.305034,360.013719 C633.098152,383.806837 633.098152,422.360341 609.305034,446.170763 C585.494612,469.972533 546.941108,469.972533 523.122034,446.170763 C505.229609,428.261034 500.799763,401.958823 509.875756,379.913418 L427.681347,297.727661 L427.681347,514.00278 C433.478216,516.875258 438.954959,520.699462 443.782799,525.527302 C467.575917,549.32042 467.575917,587.873923 443.782799,611.692998 C419.989681,635.477464 381.410221,635.477464 357.634407,611.692998 C333.841289,587.865271 333.841289,549.311768 357.634407,525.527302 C363.517796,519.652564 370.326954,515.205414 377.59467,512.229111 L377.59467,293.938066 C370.326954,290.961763 363.5351,286.557874 357.634407,280.639876 C339.612201,262.626323 335.277528,236.168375 344.51791,214.036449 L254.389578,123.890813 L16.3718744,361.88256 C-3.62299699,381.894735 -3.62299699,414.313941 16.3718744,434.308812 L363.500492,781.411474 C383.486711,801.406345 415.897265,801.406345 435.90944,781.411474 L781.402822,435.918092 C801.397693,415.923221 801.397693,383.486711 781.402822,363.49184 Z" id="Path" fill-rule="nonzero"></path>
            </g>
        </g>
    </g>
</svg>