<?xml version="1.0" encoding="UTF-8"?>
<svg width="500px" height="500px" viewBox="0 0 500 500" version="1.1" xmlns="http://www.w3.org/2000/svg" xmlns:xlink="http://www.w3.org/1999/xlink">
    <!-- Generator: Sketch 63.1 (92452) - https://sketch.com -->
    <title>heart_small</title>
    <desc>Created with Sketch.</desc>
    <defs>
        <radialGradient cx="49.9975263%" cy="49.99844%" fx="49.9975263%" fy="49.99844%" r="235.711005%" gradientTransform="translate(0.499975,0.499984),scale(0.212121,1.000000),translate(-0.499975,-0.499984)" id="radialGradient-1">
            <stop stop-color="#000000" offset="0%"></stop>
            <stop stop-color="#000000" stop-opacity="0" offset="100%"></stop>
        </radialGradient>
        <linearGradient x1="-3.28448515%" y1="100.000835%" x2="-3.28448515%" y2="0.000134908592%" id="linearGradient-2">
            <stop stop-color="#AF0400" offset="0%"></stop>
            <stop stop-color="#E85752" offset="100%"></stop>
        </linearGradient>
        <radialGradient cx="49.9999623%" cy="-19.5489949%" fx="49.9999623%" fy="-19.5489949%" r="75.7959606%" gradientTransform="translate(0.500000,-0.195490),scale(0.920940,1.000000),rotate(-0.973586),translate(-0.500000,0.195490)" id="radialGradient-3">
            <stop stop-color="#EEEEEE" offset="0%"></stop>
            <stop stop-color="#EEEEEE" stop-opacity="0" offset="100%"></stop>
        </radialGradient>
    </defs>
    <g id="heart_small" stroke="none" stroke-width="1" fill="none" fill-rule="evenodd">
        <g id="Annotations/Heart" transform="translate(74.000000, 74.000000)">
            <path d="M199.137428,239.706164 C199.137428,226.938537 188.761198,216.562306 175.99357,216.562306 C163.185411,216.562306 152.849712,226.938537 152.849712,239.706164 C152.849712,249.43388 158.807938,257.702439 167.279158,261.147672 L166.792772,263.336408 L159.334856,295.194678 L192.692816,295.194678 L185.234901,263.336408 L184.748515,261.147672 C193.13867,257.661907 199.137428,249.393348 199.137428,239.706164 Z" id="Keyhole" fill="#2F2F2F" fill-rule="nonzero"></path>
            <g id="Group" stroke-width="1" fill-rule="evenodd" transform="translate(0.000000, 9.856000)">
                <path d="M210.496,325.6 C210.496,329.682489 194.894019,332.992 175.648,332.992 C156.401981,332.992 140.8,329.682489 140.8,325.6 C140.8,321.517511 156.401981,318.208 175.648,318.208 C194.894019,318.208 210.496,321.517511 210.496,325.6 L210.496,325.6 Z" id="1" fill="url(#radialGradient-1)" opacity="0.23"></path>
                <path d="M255.570957,0 C222.330756,0.0886092688 193.041599,17.206214 175.825239,42.9801397 C158.489822,17.3312224 129.298555,0.348913361 96.0795213,0.437130545 C43.0429291,0.577959751 -0.140476556,43.919207 0,96.9669562 C0.138965492,149.187268 27.3404917,183.081705 61.4036726,214.549893 C95.4668534,246.018081 136.696071,276.3249 169.973144,323.921243 C171.510888,326.107714 174.028505,327.394247 176.701091,327.36 C179.373677,327.324365 181.856809,325.972454 183.336884,323.746528 C214.480879,276.380362 255.60299,245.065185 289.897426,212.977462 C324.191865,180.889738 352.134457,146.839375 352,96.0060258 C351.858756,42.9714543 308.601408,-0.140476816 255.570957,0 Z" id="2" fill="#9C0F0F" fill-rule="nonzero"></path>
                <path d="M95.4787684,8.1668185 C46.9204139,8.29571273 7.61539512,47.8022836 7.744,96.3511472 C8.00658458,195.116643 107.72346,220.747631 175.886224,318.208 C239.826324,220.996057 343.101433,191.074037 342.848,95.4616332 C342.71863,46.9127835 303.204384,7.61541446 254.64594,7.744 C219.423616,7.83781305 189.1638,28.7116398 175.197014,58.6647231 C161.071425,28.7862025 130.701174,8.07331302 95.4787684,8.1668185 Z" id="4" fill="url(#linearGradient-2)" fill-rule="nonzero"></path>
                <path d="M255.404233,11.264 C221.277186,11.3550495 191.964323,31.5318094 178.44045,60.5837515 C178.008055,61.5854302 177.030361,62.2410142 175.940865,62.2598265 C174.851368,62.2786387 173.851689,61.657198 173.385072,60.6710426 C159.705515,31.6873607 130.374791,11.6100112 96.2469657,11.7007631 C49.1963121,11.825865 11.1393915,50.1267026 11.264,97.2459928 C11.3929489,145.771378 35.6590205,175.986048 68.9653531,206.796261 C101.530594,236.920925 142.577638,267.334072 176.522893,314.688 C208.486796,267.40967 249.400501,236.001989 282.250037,205.225022 C315.862992,173.732814 340.859824,143.165834 340.736,96.2857912 C340.610639,49.1619983 302.457104,11.1391929 255.404233,11.264 Z" id="5" stroke="url(#radialGradient-3)" stroke-width="2.7"></path>
            </g>
        </g>
    </g>
</svg>