<?xml version="1.0" encoding="UTF-8"?>
<svg width="500px" height="500px" viewBox="0 0 500 500" version="1.1" xmlns="http://www.w3.org/2000/svg" xmlns:xlink="http://www.w3.org/1999/xlink">
    <!-- Generator: Sketch 63.1 (92452) - https://sketch.com -->
    <title>heart</title>
    <desc>Created with Sketch.</desc>
    <defs>
        <radialGradient cx="49.9975263%" cy="49.99844%" fx="49.9975263%" fy="49.99844%" r="235.711005%" gradientTransform="translate(0.499975,0.499984),scale(0.212121,1.000000),translate(-0.499975,-0.499984)" id="radialGradient-1">
            <stop stop-color="#000000" offset="0%"></stop>
            <stop stop-color="#000000" stop-opacity="0" offset="100%"></stop>
        </radialGradient>
        <linearGradient x1="-3.28448515%" y1="100.000835%" x2="-3.28448515%" y2="0.000134908592%" id="linearGradient-2">
            <stop stop-color="#AF0400" offset="0%"></stop>
            <stop stop-color="#E85752" offset="100%"></stop>
        </linearGradient>
        <radialGradient cx="49.9999623%" cy="-19.5489949%" fx="49.9999623%" fy="-19.5489949%" r="75.7959606%" gradientTransform="translate(0.500000,-0.195490),scale(0.920940,1.000000),rotate(-0.973586),translate(-0.500000,0.195490)" id="radialGradient-3">
            <stop stop-color="#EEEEEE" offset="0%"></stop>
            <stop stop-color="#EEEEEE" stop-opacity="0" offset="100%"></stop>
        </radialGradient>
    </defs>
    <g id="heart" stroke="none" stroke-width="1" fill="none" fill-rule="evenodd">
        <g id="Annotations/Heart">
            <path d="M282.865665,340.49171 C282.865665,322.355876 268.126701,307.616912 249.990867,307.616912 C231.797458,307.616912 217.116068,322.355876 217.116068,340.49171 C217.116068,354.309489 225.579458,366.054601 237.61244,370.948398 L236.921551,374.057398 L226.327921,419.310623 L273.711387,419.310623 L263.117756,374.057398 L262.426868,370.948398 C274.344702,365.997027 282.865665,354.251915 282.865665,340.49171 Z" id="Keyhole" fill="#2F2F2F" fill-rule="nonzero"></path>
            <g id="Group" stroke-width="1" fill-rule="evenodd" transform="translate(0.000000, 14.000000)">
                <path d="M299,462.5 C299,468.29899 276.838095,473 249.5,473 C222.161905,473 200,468.29899 200,462.5 C200,456.70101 222.161905,452 249.5,452 C276.838095,452 299,456.70101 299,462.5 L299,462.5 Z" id="1" fill="url(#radialGradient-1)" opacity="0.23"></path>
                <path d="M363.026927,0 C315.810733,0.125865439 274.206817,24.4406449 249.75176,61.0513348 C225.127588,24.6182137 183.662721,0.49561557 136.476593,0.62092407 C61.1405243,0.820965555 -0.199540562,62.3852372 0,137.737154 C0.197394164,211.913733 38.8359258,260.05924 87.2211258,304.758371 C135.606326,349.457501 194.170555,392.50696 241.439124,460.115402 C243.623421,463.221185 247.199581,465.048646 250.995868,465 C254.792155,464.949383 258.319331,463.029054 260.42171,459.867228 C304.660339,392.585741 363.07243,348.103955 411.786117,302.524803 C460.499809,256.945651 500.190991,208.578657 500,136.372196 C499.799369,61.0389975 438.354273,-0.199540932 363.026927,0 Z" id="2" fill="#9C0F0F" fill-rule="nonzero"></path>
                <path d="M135.623251,11.6005945 C66.6483152,11.7836828 10.8173226,67.900971 11,136.862425 C11.3729895,277.154322 153.016279,313.561976 249.838387,452 C340.662391,313.914853 487.35999,271.411984 487,135.598911 C486.816236,66.6374766 430.688045,10.8173501 361.712983,11 C311.681272,11.1332572 268.69858,40.7835793 248.859396,83.3305725 C228.794638,40.8894922 185.655076,11.4677742 135.623251,11.6005945 Z" id="4" fill="url(#linearGradient-2)" fill-rule="nonzero"></path>
                <path d="M362.790103,16 C314.314184,16.1293317 272.676595,44.789502 253.466549,86.0564652 C252.85235,87.4793042 251.46358,88.4105315 249.916001,88.4372535 C248.368421,88.4639755 246.948422,87.5812471 246.285613,86.1804582 C226.854425,45.0104555 185.191465,16.4914931 136.71444,16.6204022 C69.8811252,16.7981038 15.8229993,71.2027026 16,138.133512 C16.1831661,207.061617 50.6520177,249.980182 97.9621493,293.744689 C144.219593,336.535405 202.525055,379.735897 250.742745,447 C296.146017,379.843281 354.262076,335.230099 400.923348,291.512816 C448.669022,246.779565 484.175887,203.36056 484,136.76959 C483.821931,69.8323839 429.626568,15.8227171 362.790103,16 Z" id="5" stroke="url(#radialGradient-3)" stroke-width="2.7"></path>
            </g>
        </g>
    </g>
</svg>