<?xml version="1.0" encoding="UTF-8"?>
<svg fill="#4CD846" width="100pt" height="100pt" version="1.1" viewBox="0 0 100 100" xmlns="http://www.w3.org/2000/svg">
 <path d="m49.449 90.551c-22.699 0-41.094-18.402-41.094-41.094 0-22.699 18.395-41.102 41.094-41.102s41.098 18.402 41.098 41.102c0 22.691-18.398 41.094-41.098 41.094m0-90.551c27.309 0 49.453 22.141 49.453 49.457 0 27.309-22.145 49.445-49.453 49.445-27.309 0-49.449-22.137-49.449-49.445 0-27.316 22.141-49.457 49.449-49.457zm0 16.715c-2.3086 0-4.1758 1.8711-4.1758 4.1836v28.492 0.023437c-0.007813 1.0859 0.39062 2.1719 1.2188 3l20.191 20.184c0.81641 0.82422 1.8789 1.2266 2.9531 1.2266 1.0664 0 2.1367-0.40234 2.9531-1.2266 1.6289-1.6289 1.6289-4.2734 0-5.9023l-18.961-18.961v-26.836c0-2.3125-1.8672-4.1836-4.1797-4.1836z" fill-rule="evenodd"/>
</svg>
