<?xml version="1.0" encoding="iso-8859-1"?>
<!-- Generator: Adobe Illustrator 18.0.0, SVG Export Plug-In . SVG Version: 6.00 Build 0)  -->
<!DOCTYPE svg PUBLIC "-//W3C//DTD SVG 1.1//EN" "http://www.w3.org/Graphics/SVG/1.1/DTD/svg11.dtd">
<svg version="1.1" id="Capa_1" xmlns="http://www.w3.org/2000/svg" xmlns:xlink="http://www.w3.org/1999/xlink" x="0px" y="0px"
	 viewBox="0 0 52 52" style="enable-background:new 0 0 52 52;" xml:space="preserve">
<g>
	<path style="fill:#6D4C13;" d="M40.824,52H11.176C5.003,52,0,46.997,0,40.824V11.176C0,5.003,5.003,0,11.176,0h29.649
		C46.997,0,52,5.003,52,11.176v29.649C52,46.997,46.997,52,40.824,52z"/>
	<g>
		<path style="fill:#FFBD2E;" d="M30.68,39h-3.24l-2.76-9.04h-8.32L13.72,39H10.6l8.24-28h3.32L30.68,39z M23.96,27l-3.48-11.36
			L17.12,27H23.96z"/>
		<path style="fill:#FFBD2E;" d="M37.479,12.24c0,0.453-0.16,0.84-0.48,1.16c-0.32,0.319-0.7,0.479-1.14,0.479
			c-0.44,0-0.827-0.166-1.16-0.5c-0.334-0.333-0.5-0.713-0.5-1.14s0.166-0.807,0.5-1.141c0.333-0.333,0.72-0.5,1.16-0.5
			c0.44,0,0.82,0.16,1.14,0.48C37.32,11.4,37.479,11.787,37.479,12.24z M37.24,39h-2.88V18.96h2.88V39z"/>
	</g>
</g>
<g>
</g>
<g>
</g>
<g>
</g>
<g>
</g>
<g>
</g>
<g>
</g>
<g>
</g>
<g>
</g>
<g>
</g>
<g>
</g>
<g>
</g>
<g>
</g>
<g>
</g>
<g>
</g>
<g>
</g>
</svg>
