<?xml version="1.0" encoding="UTF-8"?><svg version="1.1" viewBox="0 0 512 512" xmlns="http://www.w3.org/2000/svg" xmlns:xlink="http://www.w3.org/1999/xlink"><rect width="489" height="489" x="11.5" y="11.5" stroke-width="1" fill-rule="evenodd" stroke="#979797" fill="#330212"></rect><path fill="#FF53A0" stroke="none" d="M0 0v512h512v-512h-512Zm43 44h426v426h-426v-426Zm144.2 310.855c0 2.18803-.362667 2.8882-2.816 2.8882h-32.768c-2.13333 0-2.816-1.09402-2.816-2.8882v-234.907c0-2.18803 1.06667-2.8882 2.816-2.8882h33.1307c1.74933 0 2.45333.722051 2.45333 2.53812v235.257Zm37.76-84.7207c0-52.3597 33.664-93.1446 87.5093-93.1446 4.56533 0 7.04 0 11.264.328206v-58.0704c0-1.4441 1.06667-2.18803 2.13333-2.18803h34.6667c1.792 0 2.13333.743932 2.13333 1.83795v204.691c0 6.1265 0 13.6752 1.06667 21.9679 0 1.4441-.426666 1.81607-1.856 2.53812 -18.304 9.03658-37.6747 13.0188-55.9787 13.0188 -47.2107 0-81.0027-29.9761-81.0027-90.9785h.064Zm98.7733-57.414c-3.15733-1.4441-7.40267-2.18803-12.672-2.18803 -27.4133 0-46.656 21.6615-46.656 57.7641 0 41.1788 19.584 57.7641 44.224 57.7641 5.26933 0 10.9227-.700171 15.1467-2.51624v-110.824h-.042667Z"></path></svg>