<?xml version="1.0" encoding="iso-8859-1"?>
<!-- Generator: Adobe Illustrator 18.0.0, SVG Export Plug-In . SVG Version: 6.00 Build 0)  -->
<!DOCTYPE svg PUBLIC "-//W3C//DTD SVG 1.1//EN" "http://www.w3.org/Graphics/SVG/1.1/DTD/svg11.dtd">
<svg version="1.1" id="Capa_1" xmlns="http://www.w3.org/2000/svg" xmlns:xlink="http://www.w3.org/1999/xlink" x="0px" y="0px"
	 viewBox="0 0 52 52" style="enable-background:new 0 0 52 52;" xml:space="preserve">
<g>
	<path style="fill:#6F2B41;" d="M40.824,52H11.176C5.003,52,0,46.997,0,40.824V11.176C0,5.003,5.003,0,11.176,0h29.649
		C46.997,0,52,5.003,52,11.176v29.649C52,46.997,46.997,52,40.824,52z"/>
	<g>
		<path style="fill:#FF70BD;" d="M18.08,39H15.2V13.72l-2.64-0.08V11h5.52V39z"/>
		<path style="fill:#FF70BD;" d="M27.68,19.4c1.173-0.507,2.593-0.761,4.26-0.761s3.073,0.374,4.22,1.12V11h2.88v28
			c-2.293,0.32-4.414,0.48-6.36,0.48c-1.947,0-3.707-0.4-5.28-1.2c-2.08-1.066-3.12-2.92-3.12-5.561v-7.56
			C24.28,22.36,25.413,20.44,27.68,19.4z M36.16,22.52c-1.387-0.746-2.907-1.119-4.56-1.119c-1.574,0-2.714,0.406-3.42,1.22
			c-0.707,0.813-1.06,1.847-1.06,3.1v7.12c0,1.227,0.44,2.188,1.32,2.88C29.4,36.44,30.586,36.8,32,36.8
			c1.413,0,2.8-0.106,4.16-0.319V22.52z"/>
	</g>
</g>
<g>
</g>
<g>
</g>
<g>
</g>
<g>
</g>
<g>
</g>
<g>
</g>
<g>
</g>
<g>
</g>
<g>
</g>
<g>
</g>
<g>
</g>
<g>
</g>
<g>
</g>
<g>
</g>
<g>
</g>
</svg>
