<?xml version="1.0" encoding="UTF-8"?>
<svg width="1000px" height="1000px" viewBox="0 0 1000 1000" version="1.1" xmlns="http://www.w3.org/2000/svg" xmlns:xlink="http://www.w3.org/1999/xlink">
    <!-- Generator: Sketch 63.1 (92452) - https://sketch.com -->
    <title>key</title>
    <desc>Created with Sketch.</desc>
    <g id="key" stroke="none" stroke-width="1" fill="none" fill-rule="evenodd">
        <g id="Annotations/Key" transform="translate(-0.212857, 0.000000)" fill-rule="nonzero">
            <path d="M915.870528,416.831783 L511.620894,420.033818 L509.154339,375.314674 C508.967005,359.335741 489.812176,352.666137 477.292068,360.928948 L431.770078,398.119407 C407.807028,346.152731 365.297981,303.182991 312.594882,282.424436 C288.75672,272.365362 263.310615,267.788795 237.926953,268.007471 C182.039188,268.413583 126.182645,292.202356 86.9207087,333.375832 C16.4990018,403.929928 2.55828264,522.436441 49.1106058,610.422099 C88.8408749,689.98875 178.9638,738.34728 265.230781,726.11707 C341.725209,716.917079 406.245917,660.045823 435.860188,588.476449 L490.639565,619.950104 C506.672173,629.946699 515.664171,617.419716 515.664171,602.705977 L514.618226,543.944741 L576.953379,545.397371 L619.306315,585.305654 L674.460358,529.418438 L724.868625,577.558292 L762.132339,577.558292 L813.742661,525.810292 L851.131264,557.408905 L898.698309,555.440825 L939.974078,515.782457 L984.418902,474.827656 C976.816292,449.695591 955.351019,434.169628 915.870528,416.831783 Z M146.430251,540.242876 C126.791478,542.866983 106.24726,532.401797 97.2084286,515.220149 C86.5928754,496.242237 89.8087636,470.688441 105.810149,455.443633 C118.861035,442.541777 139.826753,437.543479 157.233138,444.525476 C175.466912,451.320037 188.439742,469.157712 189.157853,488.104384 C189.189075,489.057185 189.25152,490.041224 189.25152,491.040884 C189.829131,514.595362 170.79919,537.462573 146.430251,540.242876 Z" id="Shape" fill="#FFE600"></path>
            <path d="M961.925477,474 L426.181354,480.664656 L487.641245,500 L942.703646,493.288299 L962.409536,474.674306 C962.269003,474.454765 962.081625,474.235223 961.925477,474 Z" id="Path" fill="#8F7200"></path>
            <path d="M236.806262,748 C152.034356,748 69.4932898,696.758009 31.3818127,620.449116 C-19.9274989,523.44364 -2.68919266,398.046699 72.5821447,322.643086 C114.874496,278.284348 174.623558,252.437032 236.197852,252 C236.229052,252 236.244652,252 236.260253,252 C266.212785,252 293.107663,257.338033 318.021305,267.842407 C366.272963,286.853295 408.378111,324.235131 435.881399,371.965259 L464.0711,348.943042 C493.243618,329.276606 525.208586,349.473724 525.567393,377.178425 L527.049419,403.790547 L913.686688,400.715715 C917.009547,400.606457 918.787979,401.230789 921.128021,402.245327 C961.04913,419.773428 989.691239,438.284851 999.659816,471.624142 C1001.65665,478.273271 999.675416,485.499906 994.574125,490.197999 L909.178208,570.487004 C905.995752,573.561835 901.783677,575.356788 897.353198,575.544087 L849.834754,577.526339 C845.622679,577.838505 840.848994,576.199635 837.354532,573.24967 L812.768495,552.459437 L773.018989,592.338599 C769.602528,595.756813 764.969246,597.676632 760.148761,597.676632 L722.910899,597.676632 C718.230816,597.676632 713.737936,595.881679 710.368276,592.635156 L672.927611,556.860973 L630.370055,600.002266 C623.443532,607.025993 612.164531,607.213292 604.988404,600.470514 L567.734942,565.383095 L531.323895,564.52464 L532.041508,604.294543 C532.041508,635.417459 504.897026,653.273334 479.26577,637.290453 L442.308714,616.063188 C405.991268,687.065265 338.598071,737.261502 265.807178,746.00214 C256.525013,747.313236 246.650037,748 236.806262,748 Z M238.007484,288.336082 C185.43455,288.726289 133.891234,311.030524 98.5722064,348.037762 C35.0478778,411.703946 20.1652134,521.53943 63.6899867,603.841903 C99.6330253,675.827302 181.955688,721.169362 261.080294,709.962616 C327.662277,701.939958 388.862164,652.30562 417.34827,583.473095 C419.360706,578.650135 423.338776,574.904148 428.284064,573.218453 C433.213752,571.501542 438.642648,572.032224 443.182329,574.654415 L495.708462,604.825225 C495.708462,604.747184 495.708462,604.68475 495.708462,604.622317 L494.663244,546.247341 C494.569642,541.283907 496.504076,536.523381 500.029739,533.027126 C503.524201,529.546479 508.391488,527.892001 513.258774,527.735918 L575.550681,529.187488 C580.043561,529.296746 584.333637,531.060482 587.594095,534.135314 L617.000617,561.840015 L659.651775,518.605073 C666.625099,511.550129 677.9353,511.36283 685.127028,518.230474 L730.227429,561.309334 L752.645027,561.309334 L798.884249,514.937126 C805.576768,508.241173 816.262957,507.81975 823.470286,513.891371 L855.435253,540.8937 L889.00705,539.504563 L960.48752,472.232866 C952.905785,459.933539 937.789117,449.569639 910.083024,437.11423 L510.060717,440.29832 C509.998316,440.29832 509.951515,440.29832 509.904714,440.29832 C500.279343,440.29832 492.292002,432.759519 491.761592,423.129209 L489.296748,378.427088 L441.5755,414.294921 C437.207423,417.838001 431.43532,419.227138 426.006424,417.916043 C420.546327,416.636163 415.959845,412.921392 413.604204,407.817484 C390.952601,358.682611 351.125093,319.942854 304.339862,301.52508 C283.466691,292.706401 261.298698,288.336082 238.007484,288.336082 Z M138.852122,560.79426 C114.094482,560.79426 90.8656695,547.012147 79.6490702,525.675625 C64.9848097,499.45371 70.0080989,465.068664 91.8016861,444.309648 C109.632803,426.687897 139.132927,420.350935 162.470942,429.684688 C187.197381,438.877966 204.763293,462.945937 205.746111,489.433193 C205.761711,489.651709 205.855313,492.804582 205.855313,493.023098 C206.697727,526.08144 180.286458,556.470766 146.979866,560.279187 C144.499422,560.591353 141.675772,560.79426 138.852122,560.79426 Z M138.992525,461.572409 C130.88038,461.572409 122.690235,464.865756 117.089735,470.391088 C107.21476,479.802882 104.905919,496.378878 111.598438,508.334823 C117.230138,519.042105 130.162768,525.972182 142.533787,524.208446 C157.447652,522.507143 169.912274,508.163132 169.537867,493.491346 C169.023058,479.194159 160.583308,467.768897 149.382309,463.601485 C145.887847,462.19674 142.533787,461.572409 138.992525,461.572409 Z" id="Shape" fill="#8F7200"></path>
        </g>
    </g>
</svg>