<?xml version="1.0" encoding="UTF-8"?>
<svg width="264px" height="263px" viewBox="0 0 264 263" version="1.1" xmlns="http://www.w3.org/2000/svg" xmlns:xlink="http://www.w3.org/1999/xlink">
    <!-- Generator: Sketch 63.1 (92452) - https://sketch.com -->
    <title>Marked2 Logo</title>
    <desc>Created with Sketch.</desc>
    <g id="Page-1" stroke="none" stroke-width="1" fill="none" fill-rule="evenodd">
        <g id="Marked2-Logo" transform="translate(-2.000000, -7.000000)">
            <g id="White-Fill" transform="translate(0.499596, 0.366282)" fill="#FFFFFF">
                <rect id="Rectangle" transform="translate(134.232454, 123.167333) rotate(-10.000000) translate(-134.232454, -123.167333) " x="22.2324545" y="33.6673329" width="224" height="179" rx="27"></rect>
                <rect id="Rectangle-Copy" transform="translate(115.000000, 68.500000) rotate(-10.000000) translate(-115.000000, -68.500000) " x="7" y="21" width="216" height="95" rx="47"></rect>
                <rect id="Rectangle-Copy-2" transform="translate(130.000000, 66.500000) rotate(-10.000000) translate(-130.000000, -66.500000) " x="22" y="19" width="216" height="95" rx="47"></rect>
            </g>
            <g id="g28" transform="translate(2.000000, 7.000000)" fill-rule="nonzero">
                <path d="M63.713707,262.52699 C53.106917,261.41687 43.448038,256.98481 36.101811,249.85706 C29.635492,243.58304 25.76558,236.49283 23.668411,227.07737 C22.817396,223.25666 0.8598687,79.345011 0.4500112,74.901858 C-0.70446,62.386549 3.8589302,50.43894 13.2184818,41.472174 C20.263855,34.722468 27.21765,29.983358 33.814631,27.4356 C37.580998,25.981027 40.687878,25.34051 58.025166,22.444328 C67.192978,20.912852 98.268289,15.677551 127.08141,10.810326 C155.89454,5.9431 180.7786,1.7435374 182.37933,1.4779632 C184.63668,1.1034492 186.74429,0.992973914 191.77203,0.992973914 C197.581,0.992973914 198.53714,1.0542735 200.97708,1.6007812 C204.86343,2.4712624 207.34993,3.3265455 210.80333,4.9807262 C223.22624,10.9313 231.79449,21.49291 235.29312,35.167926 C235.85873,37.378718 259.916,159.5713 261.74641,169.5305 C262.87825,175.68864 263.28729,181.03654 263.1327,187.65446 C263.01535,192.67799 262.88936,194.08887 262.32585,196.68973 C258.31283,215.21236 245.05746,228.11774 224.97724,233.05219 C221.46453,233.91539 80.010347,261.57922 76.319055,262.1249 C72.778282,262.6483 66.719485,262.84158 63.713707,262.52699 Z" id="path66" fill="#F4FAFC"></path>
                <path d="M63.618539,258.97248 C49.509646,256.94528 37.632795,248.52498 31.505643,236.2055 C29.5173,232.20766 28.436993,229.03599 27.545712,224.57957 C26.553009,219.61602 4.9652313,77.606368 4.6374787,73.883631 C4.1505655,68.353085 4.6519885,64.487314 6.6531853,58.343313 C8.8565328,51.578683 12.1975859,45.752748 16.2158342,41.668526 C17.4674456,40.396368 18.255248,39.653164 17.9665064,40.016966 C17.6777648,40.380768 16.7195837,41.869049 15.837215,43.324257 C11.1233274,51.098432 9.5058118,56.771038 9.74645827,64.684458 C9.87480235,68.904927 10.2732982,71.442328 29.765135,192.15237 C31.682594,204.02692 33.505869,214.50499 33.885694,215.83258 C34.790932,218.99662 37.556875,224.59424 39.530087,227.25551 C43.269523,232.29889 47.96399,236.24712 53.467448,238.97739 C61.587417,243.00571 69.552404,244.2197 78.604332,242.80863 C80.782278,242.46912 98.006592,239.18417 128.47829,233.29686 C134.95396,232.04572 145.19334,230.06988 151.23245,228.90611 C157.27157,227.74233 167.98719,225.67099 175.04495,224.30313 C182.10271,222.93527 191.38959,221.14622 195.68245,220.32747 C232.04389,213.39242 231.86666,213.4319 236.60931,211.20943 C241.04142,209.13247 246.37298,205.15892 249.42755,201.65615 C253.18042,197.35261 256.26281,191.8714 257.89663,186.59613 C258.7333,183.89468 258.75657,183.6902 258.7396,179.18779 C258.7296,176.64118 258.5935,173.52068 258.43625,172.25334 C258.27901,170.98601 255.23345,154.79351 251.66834,136.27001 C245.54539,104.45651 232.82811,38.271618 231.62294,31.947174 C231.31791,30.346445 230.68156,27.965195 230.20883,26.655508 C228.95725,23.188038 228.94412,23.142754 229.43922,24.002282 C231.01593,26.739579 232.44176,31.525505 234.17091,39.884674 C235.64689,47.019917 258.98498,166.18822 259.70999,170.29158 C261.02941,177.75914 261.41593,187.23819 260.62159,192.64758 C259.17716,202.48405 255.44881,209.93272 248.4796,216.90543 C241.70475,223.68367 233.62697,227.89329 222.85367,230.25999 C218.36735,231.24556 83.823883,257.57404 78.736623,258.46191 C73.949168,259.29745 67.415892,259.5181 63.618539,258.97248 L63.618539,258.97248 Z M65.8350384,232.194087 C63.0975464,231.583439 60.3228672,230.49669 57.9535538,229.10717 C55.6447256,227.753133 52.2566381,224.707845 50.7089477,222.595556 C49.4775659,220.914966 47.7025284,217.341582 47.1363064,215.403367 C46.8945146,214.575693 41.1905196,179.932695 34.4607625,138.418925 C21.196292,56.594532 21.6567968,59.8481912 22.7008872,55.3307279 C24.6665753,46.8257648 31.0073092,39.9802835 39.5945021,37.0923105 C41.0498601,36.6028562 64.9252821,32.481292 118.501515,23.470755 C202.321609,9.37375673 198.355446,9.95689647 203.371578,10.9924057 C209.184431,12.1923898 214.589965,15.5467984 218.02232,20.0839485 C219.671122,22.2634505 221.553608,26.2331794 222.134177,28.7549033 C222.535794,30.4993404 227.672971,57.4908088 244.614924,146.871832 C247.570246,162.463261 250.070176,176.032811 250.170336,177.026387 C250.420071,179.503716 249.890898,183.329725 248.873242,186.404457 C247.382601,190.908319 244.153366,195.359588 240.236818,198.309173 C238.180108,199.858093 234.115536,201.857284 231.863517,202.427659 C230.948066,202.659507 195.370536,209.499817 152.802334,217.628324 C77.1269407,232.078751 75.3192255,232.409548 71.5218951,232.501879 C68.8333677,232.567215 67.0832806,232.472572 65.8350384,232.194087 Z M75.3399791,226.27089 C76.6339748,226.109347 99.7447967,221.804703 126.69736,216.705004 C153.649933,211.605305 187.259084,205.252516 201.384371,202.587705 C215.509648,199.922883 228.181269,197.42909 229.543524,197.045948 C236.219526,195.168235 240.966947,191.441351 243.564913,186.038689 C246.131577,180.701131 246.066799,179.877063 241.001849,153.431151 C238.769547,141.775512 232.566718,109.239441 227.217786,81.1287738 C221.868844,53.0181063 217.287728,29.4575034 217.037536,28.7718771 C215.343007,24.1283608 211.933665,20.144347 207.834558,18.0176798 C204.063097,16.0610015 202.781906,15.7093087 198.885549,15.5611425 C195.558131,15.4346117 194.93963,15.5096403 183.892618,17.3798159 C177.555323,18.4526715 143.259,24.1978737 107.678555,30.1469304 C64.2924856,37.4010866 42.2380801,41.2000001 40.7133376,41.6818107 C34.6222043,43.6065867 29.6792656,48.1854021 27.2646959,54.1397525 C26.497847,56.0308117 26.3577461,56.7581843 26.254834,59.3826552 C26.1425258,62.246785 26.3283741,63.6116802 29.3478281,82.0983453 C31.1146948,92.9160007 34.3161407,112.549837 36.4621535,125.729091 C50.956383,214.742127 50.6182842,212.738889 51.507104,214.871161 C54.1739494,221.268897 59.7442228,225.13093 68.1138786,226.385129 C69.5931423,226.606801 73.0923449,226.551477 75.3399791,226.27089 Z M24.753905,34.083269 C25.360664,33.336385 28.64351,31.203743 31.045525,29.996034 C34.022376,28.499304 36.642891,27.483995 39.599969,26.681649 C41.837693,26.074486 187.68824,1.6523842 189.07654,1.6523842 C189.21729,1.6523842 189.33245,1.7714467 189.33245,1.9169675 C189.33245,2.0624884 189.05831,2.1815508 188.72324,2.1815508 C188.38817,2.1815508 183.83403,2.8911752 178.60293,3.7584942 C67.226087,22.224806 42.525454,26.354182 40.636625,26.823267 C36.197692,27.925669 31.560187,29.972997 27.311815,32.70579 C24.224469,34.691747 24.286895,34.658129 24.753905,34.083269 Z M198.32828,1.9169675 C198.32828,1.7714467 198.49985,1.6523842 198.70954,1.6523842 C198.91924,1.6523842 199.16439,1.7714467 199.25433,1.9169675 C199.34423,2.0624884 199.17273,2.1815508 198.87307,2.1815508 C198.57344,2.1815508 198.32828,2.0624884 198.32828,1.9169675 Z M190.25849,1.6523842 C190.99069,1.3377465 196.25392,1.3377465 196.74078,1.6523842 C197.00683,1.8243139 195.91655,1.9040696 193.43349,1.8943197 C191.12115,1.8852397 189.92816,1.7943337 190.25849,1.6523842 Z" id="path56" fill="#D1D2D2"></path>
                <path d="M64.449124,257.31462 C62.21893,257.06139 58.205833,256.10909 55.67878,255.23344 C42.09713,250.52722 32.237584,239.20842 29.265951,224.91141 C28.500495,221.22868 6.2407936,75.152712 6.2407936,73.812259 C6.2407936,73.192367 6.9098229,73.891629 6.9632341,74.56734 C6.9967741,74.991666 7.094433,75.755558 7.180253,76.264881 C7.266073,76.774203 7.3872492,77.54811 7.4495335,77.984672 C7.5118175,78.421235 7.6321949,79.195141 7.7170381,79.704464 C7.8018811,80.213787 7.9190562,80.987693 7.9774267,81.424255 C8.0357969,81.860818 8.19852414,82.769664 8.33904222,83.443915 C8.56529986,84.529572 8.78989061,86.105049 9.01292483,88.17113 C9.05219719,88.534932 9.1594344,89.130244 9.2512292,89.494047 C9.3430243,89.857849 9.46757846,90.691286 9.52801643,91.34613 C9.58845443,92.000974 9.70352804,92.715348 9.78373541,92.93363 C9.86394281,93.151911 10.0039849,93.985348 10.0949399,94.785713 C10.3269485,96.82729 10.5003345,98.00787 11.1052434,101.66488 C11.3098449,102.90181 11.4871591,104.09243 11.4992751,104.31071 C11.5113901,104.52899 12.1736877,108.86982 12.971045,113.957 C13.768402,119.04418 14.3704137,123.25679 14.3088484,123.31835 C14.2472834,123.37995 14.3020684,123.62678 14.4306041,123.86695 C14.5591349,124.10711 14.723097,124.95466 14.7949641,125.75039 C14.8668311,126.54612 14.9921419,127.37576 15.0734325,127.59404 C15.2020901,127.93952 15.3532707,129.0224 15.6275078,131.56279 C15.6667798,131.9266 15.7740174,132.52191 15.8658122,132.88571 C15.9576072,133.24951 16.0918875,134.08295 16.164213,134.73779 C16.236539,135.39264 16.4710593,136.95127 16.6853702,138.20143 C16.8996811,139.45159 17.1395796,140.9994 17.2184778,141.64102 C17.2973758,142.28263 17.6530035,144.64777 18.0087606,146.89689 C18.3645175,149.146 18.6048883,151.03689 18.5429178,151.09886 C18.4809478,151.16086 18.5354078,151.40803 18.6639372,151.6482 C18.7924681,151.88836 18.9564301,152.73591 19.028297,153.53164 C19.100167,154.32737 19.225475,155.15701 19.306766,155.37529 C19.388056,155.59357 19.518669,156.36748 19.597015,157.09508 C19.675365,157.82269 20.097035,160.68019 20.534066,163.44508 C20.971097,166.20998 21.386878,168.94842 21.458024,169.5305 C21.529174,170.11258 21.753381,171.60087 21.956271,172.83779 C22.159161,174.07472 22.333325,175.26534 22.343302,175.48363 C22.353302,175.70191 22.541218,176.90336 22.760942,178.15351 C22.980668,179.40367 23.22366,180.95149 23.300926,181.5931 C23.378196,182.23471 23.725166,184.5456 24.071979,186.72842 C24.418792,188.91123 24.711583,190.87576 24.722621,191.09404 C24.733651,191.31232 24.922466,192.51377 25.142192,193.76393 C25.361918,195.01409 25.606245,196.5619 25.685143,197.20351 C25.764043,197.84513 26.119669,200.21027 26.475427,202.45938 C26.831183,204.7085 27.071555,206.59939 27.009584,206.66136 C26.947614,206.72336 27.002084,206.97053 27.130605,207.21069 C27.259134,207.45085 27.423096,208.2984 27.494962,209.09413 C27.566832,209.88986 27.69214,210.71951 27.773431,210.93779 C27.854721,211.15607 27.984478,211.92998 28.061779,212.65758 C28.306193,214.95815 29.507523,222.04129 29.940112,223.73236 C30.16877,224.62623 30.778825,226.42914 31.295792,227.73883 C36.228725,240.236 47.610285,249.37029 61.12886,251.6814 C64.585742,252.27239 70.650764,252.39424 73.841832,251.93682 C74.860478,251.79081 109.44813,245.18501 150.70329,237.25727 C200.76754,227.63675 226.756,222.53291 228.84997,221.91016 C242.75076,217.77603 253.11739,208.31085 257.19615,196.02887 C258.29081,192.73264 258.81793,190.20268 259.15382,186.63287 C259.29535,185.12868 259.49394,183.82045 259.59512,183.7257 C259.96718,183.37728 259.38817,190.53693 258.77457,193.87217 C257.66756,199.88926 255.71978,204.80186 252.5732,209.51292 C246.41094,218.73907 236.98036,224.94139 224.27124,228.12661 C220.48823,229.07473 79.930161,256.55991 76.09079,257.10229 C73.550288,257.460436 66.820899,257.58393 64.449124,257.31462 Z M66.275413,232.131204 C56.9716173,230.366308 49.6286998,223.887249 47.1423423,215.249064 C46.9005214,214.408915 41.1886825,179.693449 34.4493708,138.103589 C21.1005742,55.7250544 21.6327117,59.5143871 22.7550926,54.8288691 C23.7798224,50.5510047 25.6560488,47.1652273 28.8601505,43.8118757 C31.8924834,40.6382927 35.7247196,38.2484672 39.7992669,36.9901123 C40.8303223,36.671687 76.4134814,30.5766837 118.872955,23.4456559 C199.829747,9.84904288 198.280688,10.0835059 202.587169,10.7748456 C210.427527,12.0334932 217.74524,17.5621741 220.839771,24.5650635 C221.884019,26.9281736 222.051858,27.7463154 229.038123,64.5292604 C232.57422,83.1469499 238.789344,115.806258 242.849516,137.105512 L250.231642,175.831418 L250.109551,179.592573 C250.003873,182.84825 249.871039,183.709417 249.121182,186.00045 C247.97133,189.513615 246.158581,192.528937 243.556645,195.256455 C240.543709,198.414836 237.296122,200.502947 233.303255,201.849121 C232.390746,202.156774 196.325172,209.139699 153.157555,217.366733 C67.6410205,233.664779 71.1850044,233.062532 66.275413,232.131204 Z M152.114951,213.596436 C194.796211,205.480421 230.40565,198.644617 231.247043,198.405758 C232.088425,198.1669 233.903321,197.390376 235.280128,196.680147 C237.268891,195.654232 238.300603,194.872625 240.299511,192.877534 C242.407897,190.773184 243.027958,189.937669 244.12612,187.721293 C245.982824,183.973957 246.345917,182.276042 246.20404,178.004225 C246.09882,174.83632 245.339814,170.571785 238.369828,133.986775 C234.125083,111.706438 227.917772,79.0686768 224.575781,61.4584133 C220.499226,39.9773796 218.26284,28.8105361 217.780524,27.5278758 C215.363901,21.1011998 209.470189,16.1396009 202.679043,14.814744 C198.53135,14.0055859 198.93747,13.9444755 118.598549,27.4665076 C77.0646353,34.457176 42.4389127,40.3605231 41.6524986,40.5850503 C39.3649972,41.2381555 35.4461757,43.3426361 33.4667717,44.9809426 C30.3884482,47.5287973 28.0655994,51.047556 26.8428211,55.0152238 C25.8413876,58.2646699 26.0111421,61.3468879 27.7957528,72.3173665 C28.6426992,77.523768 31.32807,94.0617462 33.7632434,109.068432 C36.1984177,124.075118 41.0134978,153.748244 44.4634177,175.008705 C50.0986098,209.736085 50.8239985,213.87566 51.6019774,215.746287 C53.8683865,221.195779 58.1018284,225.204998 63.8940937,227.387333 C66.3176391,228.300454 68.8743648,228.645582 72.0093604,228.482815 C73.7037135,228.394844 99.5900523,223.584268 152.114951,213.596436 L152.114951,213.596436 Z" id="path44" fill="#B1B1B2"></path>
                <path d="M66.275413,232.131204 C56.9716173,230.366308 49.6286998,223.887249 47.1423423,215.249064 C46.9005214,214.408915 41.1886825,179.693449 34.4493708,138.103589 C21.1005742,55.7250544 21.6327117,59.5143871 22.7550926,54.8288691 C23.7798224,50.5510047 25.6560488,47.1652273 28.8601505,43.8118757 C31.8924834,40.6382927 35.7247196,38.2484672 39.7992669,36.9901123 C40.8303223,36.671687 76.4134814,30.5766837 118.872955,23.4456559 C199.829747,9.84904288 198.280688,10.0835059 202.587169,10.7748456 C210.427527,12.0334932 217.74524,17.5621741 220.839771,24.5650635 C221.884019,26.9281736 222.051858,27.7463154 229.038123,64.5292604 C232.57422,83.1469499 238.789344,115.806258 242.849516,137.105512 L250.231642,175.831418 L250.109551,179.592573 C250.003873,182.84825 249.871039,183.709417 249.121182,186.00045 C247.97133,189.513615 246.158581,192.528937 243.556645,195.256455 C240.543709,198.414836 237.296122,200.502947 233.303255,201.849121 C232.390746,202.156774 196.325172,209.139699 153.157555,217.366733 C67.6410205,233.664779 71.1850044,233.062532 66.275413,232.131204 L66.275413,232.131204 Z M152.114951,213.596436 C194.796211,205.480421 230.40565,198.644617 231.247043,198.405758 C232.088425,198.1669 233.903321,197.390376 235.280128,196.680147 C237.268891,195.654232 238.300603,194.872625 240.299511,192.877534 C242.407897,190.773184 243.027958,189.937669 244.12612,187.721293 C245.982824,183.973957 246.345917,182.276042 246.20404,178.004225 C246.09882,174.83632 245.339814,170.571785 238.369828,133.986775 C234.125083,111.706438 227.917772,79.0686768 224.575781,61.4584133 C220.499226,39.9773796 218.26284,28.8105361 217.780524,27.5278758 C215.363901,21.1011998 209.470189,16.1396009 202.679043,14.814744 C198.53135,14.0055859 198.93747,13.9444755 118.598549,27.4665076 C77.0646353,34.457176 42.4389127,40.3605231 41.6524986,40.5850503 C39.3649972,41.2381555 35.4461757,43.3426361 33.4667717,44.9809426 C30.3884482,47.5287973 28.0655994,51.047556 26.8428211,55.0152238 C25.8413876,58.2646699 26.0111421,61.3468879 27.7957528,72.3173665 C28.6426992,77.523768 31.32807,94.0617462 33.7632434,109.068432 C36.1984177,124.075118 41.0134978,153.748244 44.4634177,175.008705 C50.0986098,209.736085 50.8239985,213.87566 51.6019774,215.746287 C53.8683865,221.195779 58.1018284,225.204998 63.8940937,227.387333 C66.3176391,228.300454 68.8743648,228.645582 72.0093604,228.482815 C73.7037135,228.394844 99.5900523,223.584268 152.114951,213.596436 L152.114951,213.596436 Z M59.2120253,162.38957 C55.3605481,161.450909 51.9148858,158.499534 49.9233687,154.433382 C48.0308,150.56925 47.7321505,149.045766 47.7321505,143.255337 C47.7321505,138.665323 47.8026025,137.957983 48.5429341,135.11525 C50.5006918,127.597809 55.5307396,117.626963 61.352876,109.722648 C63.652125,106.601117 68.6307715,101.441034 71.1190632,99.6005591 C76.4750964,95.6389454 83.0794365,93.5125191 88.6840121,93.9450891 C91.1785636,94.1376199 93.288949,94.9128674 93.7706038,95.813628 C93.9419493,96.1340711 94.0793097,96.8894836 94.0758419,97.4923176 C94.063129,99.7052275 92.7212376,101.675406 87.1665512,107.636673 C78.4826511,116.9562 72.598788,124.716665 69.7761651,130.573547 C68.9431102,132.302111 68.7874843,132.900592 68.9179242,133.873961 C69.1960348,135.949242 71.0859817,136.707271 73.0276075,135.522296 C73.5230012,135.219961 75.1918359,133.313837 76.736126,131.286477 C93.7650674,108.93066 109.730897,92.4327225 123.2827,83.1886116 C129.167613,79.1743184 133.03854,77.9001161 138.688092,78.1175649 C142.514134,78.2648281 144.436689,78.8108734 146.566848,80.3553017 C149.020056,82.1339491 150.072227,85.2055188 149.186104,88.0016035 C147.815558,92.3262193 141.920688,103.016662 135.222598,113.324648 C132.271008,117.866981 132.096728,118.231784 132.625406,118.760923 C133.30949,119.445616 134.060784,118.992625 137.350034,115.912186 C147.103716,106.7777 173.614667,83.494863 183.024332,75.7994329 C186.944256,72.5936302 188.432959,71.7307591 190.043963,71.7307591 C191.453102,71.7307591 192.479848,72.2870248 195.248544,74.5504819 C200.483042,78.8297747 201.26192,79.9312009 201.079645,82.7963152 C200.939489,84.9992978 200.130955,86.3154706 194.379104,93.7037145 C186.031969,104.42563 182.552211,109.362806 180.935403,112.778019 C180.160246,114.415377 180.037706,114.990983 180.037706,116.994567 C180.037706,119.079738 180.117215,119.419213 180.822007,120.344075 C181.954827,121.83057 183.630253,122.394223 186.418571,122.226879 C189.788611,122.024621 190.057782,121.866549 203.140957,112.406875 C206.850392,109.724798 212.055863,105.928714 214.708679,103.97113 C218.374606,101.265949 219.621429,100.486196 219.904735,100.721524 C220.696195,101.378956 222.04113,107.272098 221.668141,108.448301 C221.163956,110.038238 197.020607,129.30769 181.548559,140.468809 C175.865511,144.568399 174.303785,145.497669 170.962404,146.767814 C168.778986,147.5978 168.254278,147.683046 165.257369,147.694772 C161.999901,147.707474 161.932605,147.694196 160.091425,146.679669 C154.149911,143.405517 153.061749,134.992787 157.437805,126.16412 C157.985965,125.058224 160.560552,120.246615 163.159111,115.471648 C166.51839,109.298861 167.831782,106.625968 167.703873,106.222624 C167.499177,105.577113 166.651083,105.221918 165.891025,105.463357 C165.608154,105.55325 163.518542,107.597796 161.247457,110.006863 C141.999633,130.424073 125.694276,147.053657 122.727978,149.292286 C118.576273,152.425531 114.819956,153.780358 111.007137,153.519745 C107.393244,153.272736 104.760417,151.641381 103.356036,148.778987 C102.649555,147.339034 102.549505,146.809807 102.55617,144.547956 C102.562461,142.391793 102.71908,141.509815 103.499453,139.233871 C104.853915,135.283603 108.750729,127.543081 112.465208,121.424545 C117.206064,113.615344 118.169679,111.916765 118.523111,110.746142 C118.932916,109.388808 118.690482,108.785659 117.7351,108.785659 C115.584494,108.785659 112.479982,112.130369 85.6581238,143.344481 C78.4912702,151.684949 72.6888279,158.182402 71.745782,158.923212 C67.5762541,162.198581 63.2910893,163.383697 59.2120253,162.38957 L59.2120253,162.38957 Z" id="path42" fill="#4EC9ED"></path>
            </g>
        </g>
    </g>
</svg>