<?xml version="1.0" encoding="UTF-8"?>
<svg width="28px" height="28px" viewBox="0 0 28 28" version="1.1" xmlns="http://www.w3.org/2000/svg" xmlns:xlink="http://www.w3.org/1999/xlink">
    <!-- Generator: Sketch 63.1 (92452) - https://sketch.com -->
    <title>meta</title>
    <desc>Created with Sketch.</desc>
    <g id="Page-1" stroke="none" stroke-width="1" fill="none" fill-rule="evenodd">
        <g id="meta" fill-rule="nonzero">
            <path d="M14,0.043 C9.223,0.043 5.002,2.44 2.475,6.096 L5.182,7.66 C7.22698235,4.82873995 10.5074386,3.15205406 14,3.153 C17.626,3.153 20.84,4.93 22.818,7.658 L25.525,6.094 C22.998,2.44 18.777,0.044 14,0.044 L14,0.043 Z" id="Path" fill="#C00000"></path>
            <path d="M1.002,8.84 C0.338119214,10.4942314 -0.00203582801,12.2605255 -9.08444202e-06,14.043 C-9.08444202e-06,21.245 5.448,27.183 12.444,27.957 L12.444,24.82 C7.17,24.062 3.11,19.524 3.11,14.042 C3.11,12.77 3.33,11.549 3.732,10.414 L1.002,8.84 Z" id="Path" fill="#00CD6A"></path>
            <path d="M26.998,8.84 L24.268,10.415 C24.6795834,11.5802486 24.8892608,12.8071992 24.888,14.043 C24.888,19.525 20.83,24.063 15.556,24.819 L15.556,27.954 C22.552,27.183 28,21.245 28,14.043 C28,12.203 27.644,10.448 26.998,8.84 L26.998,8.84 Z" id="Path" fill="#0071DA"></path>
        </g>
    </g>
</svg>