<?xml version="1.0" encoding="UTF-8"?>
<svg width="1000px" height="1000px" viewBox="0 0 1000 1000" version="1.1" xmlns="http://www.w3.org/2000/svg" xmlns:xlink="http://www.w3.org/1999/xlink">
    <!-- Generator: Sketch 58 (84663) - https://sketch.com -->
    <title>file_pdf_1</title>
    <desc>Created with Sketch.</desc>
    <g id="file_pdf_1" stroke="none" stroke-width="1" fill="none" fill-rule="evenodd">
        <rect id="Rectangle" stroke="#979797" fill="#FFFFFF" x="98.0019029" y="98.4776403" width="803.044719" height="803.044719" rx="84"></rect>
        <g id="File/PDF3" transform="translate(-0.475737, -0.475737)" fill-rule="nonzero">
            <path d="M673.291107,674.349551 C751.496658,713.598001 844.518313,729.955963 908.651465,730.817526 L910.583058,730.838247 L910.583058,783.520247 L910.583942,800.583942 C910.583942,861.335264 861.335264,910.583942 800.583942,910.583942 L225.180058,910.583247 L226.205791,909.384135 C260.152898,869.539011 296.768757,815.575103 336.066946,746.915243 C343.997396,738.68529 343.997396,738.68529 352.227349,738.68529 C432.118114,706.466442 536.79751,690.411183 673.291107,674.349551 Z M197.625112,910.569657 L199.416058,910.583942 C198.78976,910.583942 198.164683,910.578707 197.540871,910.568281 C197.568432,910.568741 197.596771,910.569205 197.625112,910.569657 Z M195.739434,910.523655 L195.813043,910.526048 C195.788361,910.525254 195.763681,910.524452 195.739003,910.523641 L195.739434,910.523655 Z M193.905302,910.448304 L194.052355,910.455462 C194.003349,910.453109 193.954352,910.450724 193.905363,910.448307 L193.905302,910.448304 Z M192.072249,910.342685 L192.299294,910.357417 C192.223604,910.352584 192.147935,910.347674 192.072287,910.342687 L192.072249,910.342685 Z M190.285683,910.21042 L190.574006,910.233732 C190.477671,910.226069 190.381371,910.218283 190.285106,910.210373 L190.285683,910.21042 Z M184.951639,909.641441 L185.13775,909.665725 C185.075677,909.65768 185.013621,909.649582 184.951581,909.641433 L184.951639,909.641441 Z M183.227499,909.401078 L183.388094,909.424644 C183.33439,909.416804 183.280698,909.408925 183.227019,909.401008 L183.227499,909.401078 Z M181.550397,909.140459 L181.592435,909.147316 C181.578433,909.145035 181.564432,909.142751 181.550432,909.140464 L181.550397,909.140459 Z M179.703305,908.822547 L179.964557,908.869489 C179.877522,908.853959 179.790523,908.838327 179.70356,908.822593 L179.703305,908.822547 Z M178.03711,908.50774 L178.235408,908.546608 C178.169421,908.533737 178.103454,908.520807 178.037509,908.507818 L178.03711,908.50774 Z M176.36508,908.164831 L176.442026,908.181209 C176.416378,908.17576 176.390732,908.170301 176.36509,908.164833 L176.36508,908.164831 Z M174.681718,907.79199 L174.726295,907.802223 C174.696631,907.79542 174.666972,907.788605 174.637317,907.781778 C174.652348,907.785238 174.667033,907.788615 174.681718,907.79199 Z M172.854994,907.355692 L173.043592,907.402276 C172.98084,907.386835 172.91811,907.371341 172.8554,907.355792 L172.854994,907.355692 Z M171.173133,906.924457 L171.3792,906.978828 C171.310472,906.960766 171.24177,906.942639 171.173095,906.924447 L171.173133,906.924457 Z M169.515387,906.471335 L169.694362,906.521608 C169.634654,906.504891 169.574967,906.488125 169.5153,906.47131 L169.515387,906.471335 Z M167.896624,906.00162 L168.007353,906.034616 C167.970349,906.02361 167.933353,906.012586 167.896365,906.001543 L167.896624,906.00162 Z M166.242121,905.493326 L166.357235,905.529623 C166.318907,905.517561 166.280588,905.505479 166.242278,905.493376 L166.242121,905.493326 Z M164.591043,904.95724 L164.738248,905.006217 C164.689265,904.989959 164.640297,904.973666 164.591344,904.957341 L164.591043,904.95724 Z M159.687036,903.190545 L159.852118,903.254354 C159.797071,903.233128 159.742046,903.211859 159.687042,903.190547 L159.687036,903.190545 Z M158.065127,902.547168 L158.292165,902.639038 C158.216434,902.608492 158.140745,902.577865 158.065098,902.547156 L158.065127,902.547168 Z M156.551374,901.919399 L156.659881,901.965285 C156.623548,901.949943 156.587224,901.934582 156.55091,901.919203 L156.551374,901.919399 Z M151.921294,899.830367 L151.989641,899.863105 C151.922852,899.831142 151.8561,899.799113 151.789385,899.767019 C151.833202,899.788098 151.87724,899.809247 151.921294,899.830367 Z M148.85488,898.300838 L148.913493,898.331205 C148.894221,898.321227 148.874952,898.311244 148.855686,898.301256 L148.85488,898.300838 Z M147.310054,897.484201 L147.395855,897.530387 C147.367494,897.515137 147.339141,897.499875 147.310795,897.484601 L147.310054,897.484201 Z M145.820449,896.666572 L145.869247,896.693834 C145.85285,896.684679 145.836456,896.67552 145.820065,896.666358 L145.820449,896.666572 Z M144.328015,895.816915 L144.482184,895.906121 C144.430882,895.876492 144.379607,895.846823 144.328358,895.817114 L144.328015,895.816915 Z M141.475472,894.105102 L141.580218,894.170053 C141.502808,894.122113 141.425462,894.074079 141.34818,894.025951 C141.390694,894.052427 141.433073,894.078778 141.475472,894.105102 Z M138.501867,892.192072 L138.709765,892.330249 C138.640334,892.284216 138.570958,892.238106 138.501638,892.191919 L138.501867,892.192072 Z M137.083096,891.230774 L137.338025,891.405884 C137.252944,891.347617 137.167948,891.289234 137.083038,891.230735 L137.083096,891.230774 Z M135.778245,890.317822 L135.880421,890.390328 C135.84642,890.366229 135.812433,890.342112 135.778461,890.317976 L135.778245,890.317822 Z M134.380075,889.307932 C134.403872,889.325405 134.427676,889.342868 134.451487,889.360322 Z M215.329104,770.798994 C188.703877,824.555566 161.921274,863.317041 135.086113,888.472489 L134.273541,889.229611 C133.852315,888.919547 133.43338,888.606553 133.016765,888.290659 L133.016643,888.291845 C132.118627,887.609656 131.231272,886.915174 130.355001,886.207515 L130.354658,886.208167 C128.16299,884.43729 126.040337,882.584605 123.99176,880.654175 L123.991765,880.654531 C123.165,879.875098 122.350305,879.083357 121.547985,878.279264 L121.7376,878.469062 C121.312599,878.045158 120.891046,877.617801 120.472988,877.187036 L121.547985,878.279264 C121.159862,877.890284 120.774635,877.498413 120.392339,877.103686 L120.472988,877.187036 C120.098886,876.801563 119.727583,876.41336 119.35911,876.022461 L120.392339,877.103686 C120.004997,876.703749 119.620663,876.300881 119.239375,875.895117 L119.35911,876.022461 C118.978212,875.618379 118.600338,875.211415 118.225527,874.801605 L119.239375,875.895117 C118.826997,875.456267 118.41818,875.014031 118.012972,874.568455 L118.013152,874.568735 C117.243354,873.722164 116.486753,872.863824 115.743485,871.99375 L115.74334,871.993617 C115.044438,871.175442 114.357185,870.346755 113.681989,869.507953 L113.813719,869.671298 C113.454843,869.227188 113.099352,868.78023 112.747287,868.330463 L113.681989,869.507953 C113.296876,869.029523 112.915685,868.547802 112.538465,868.062839 L112.747287,868.330463 C112.404155,867.892108 112.064277,867.451085 111.727688,867.007429 L112.538465,868.062839 C112.223713,867.658186 111.911727,867.251277 111.602534,866.842139 L111.727688,867.007429 C111.390247,866.562649 111.056112,866.115224 110.72532,865.665189 L111.602534,866.842139 C111.237635,866.359289 110.876627,865.873335 110.519556,865.384324 L110.72532,865.665189 C110.397042,865.218574 110.072057,864.769389 109.750399,864.31767 L109.749942,864.317028 C109.677355,864.21509 109.604482,864.11238 109.531781,864.009539 L109.002419,863.254034 L109.002419,863.254034 L109.594402,862.520537 C127.102595,840.819343 149.576781,816.892021 175.386908,794.685931 C183.616861,786.860626 199.273845,778.627486 215.329104,770.798994 Z M108.620021,862.699783 C108.639795,862.728633 108.659584,862.757473 108.679385,862.786303 Z M107.701535,861.338147 L107.770629,861.442115 C107.747559,861.407444 107.724508,861.372758 107.701477,861.338059 L107.701535,861.338147 Z M106.774477,859.917853 L106.851976,860.038433 C106.826205,859.998393 106.800459,859.958336 106.774738,859.91826 L106.774477,859.917853 Z M105.828398,858.41728 L105.974728,858.652911 C105.925755,858.574272 105.876878,858.495567 105.828097,858.416796 L105.828398,858.41728 Z M104.951825,856.977257 L105.128425,857.271403 C105.069368,857.173386 105.01046,857.075269 104.951701,856.977053 L104.951825,856.977257 Z M104.121607,855.565794 L104.185216,855.675661 C104.163953,855.638986 104.142711,855.602297 104.121489,855.565594 L104.121607,855.565794 Z M102.453439,852.574043 L102.547327,852.748412 C102.516012,852.690384 102.484749,852.632325 102.453536,852.574234 L102.453439,852.574043 Z M101.685311,851.118379 L101.740985,851.225703 C101.722229,851.189601 101.703492,851.153487 101.684775,851.117362 L101.685311,851.118379 Z M100.872626,849.517931 L100.990617,849.754394 C100.951251,849.675747 100.911976,849.597046 100.872793,849.518292 L100.872626,849.517931 Z M100.130147,847.996224 L100.221839,848.187448 C100.191233,848.123788 100.160686,848.060094 100.130199,847.996366 L100.130147,847.996224 Z M99.4155673,846.472534 L99.4900744,846.634332 C99.4652868,846.580634 99.4405412,846.526912 99.4158377,846.473168 L99.4155673,846.472534 Z M97.3944824,841.790742 L97.4422544,841.908806 C97.4262665,841.869393 97.4103008,841.829969 97.3943573,841.790533 L97.3944824,841.790742 Z M96.7481912,840.154355 L96.8390233,840.38919 C96.8085787,840.310791 96.7782214,840.232348 96.7479516,840.153861 L96.7481912,840.154355 Z M96.12701,838.504137 L96.2239544,838.767235 C96.1915041,838.679568 96.1591622,838.591849 96.126929,838.504078 L96.12701,838.504137 Z M95.5581059,836.917213 L95.6155545,837.081221 C95.5963293,837.026542 95.5771461,836.971842 95.5580049,836.917124 L95.5581059,836.917213 Z M94.9898743,835.249728 L95.0990193,835.577194 C95.0624508,835.468135 95.0260485,835.359 94.9898127,835.249789 L94.9898743,835.249728 Z M94.4601126,833.609829 L94.542495,833.871052 C94.5149008,833.784036 94.4874119,833.696973 94.4600285,833.609863 L94.4601126,833.609829 Z M93.9566211,831.9628 L94.0341652,832.222986 C94.0081703,832.136281 93.9822796,832.04953 93.9564931,831.962735 L93.9566211,831.9628 Z M93.475246,830.293956 L93.5487801,830.555897 C93.5240957,830.468533 93.4995165,830.381125 93.4750427,830.293674 L93.475246,830.293956 Z M93.0180337,828.608319 L93.0859178,828.866004 C93.0631038,828.780008 93.0403914,828.69397 93.0177806,828.607892 L93.0180337,828.608319 Z M92.594207,826.941467 L92.6476689,827.158556 C92.6298013,827.086534 92.6120047,827.014483 92.5942792,826.942405 L92.594207,826.941467 Z M91.8196162,823.560928 L91.8559478,823.732152 C91.8437298,823.675107 91.8315561,823.618045 91.8194267,823.560967 L91.8196162,823.560928 Z M91.140757,820.091418 L91.1757624,820.287347 C91.1640056,820.222336 91.1523059,820.157304 91.1406634,820.092253 L91.140757,820.091418 Z M90.8457838,818.363518 L90.8764577,818.552866 C90.8660991,818.489822 90.8557941,818.42676 90.8455428,818.36368 L90.8457838,818.363518 Z M90.5764803,816.617598 L90.5991402,816.773983 C90.5914689,816.721977 90.583834,816.669959 90.5762356,816.61793 L90.5764803,816.617598 Z M90.3356903,814.870698 L90.3584258,815.047347 C90.3507158,814.988644 90.3430521,814.929927 90.3354348,814.871196 L90.3356903,814.870698 Z M90.1197479,813.092124 L90.1390985,813.264947 C90.1324768,813.207259 90.1258997,813.149558 90.1193673,813.091843 L90.1197479,813.092124 Z M89.9309908,811.292207 L89.9585154,811.577185 C89.9490864,811.482158 89.9397784,811.387095 89.9305915,811.291997 L89.9309908,811.292207 Z M89.7701934,809.470064 L89.7982396,809.819097 C89.7923271,809.747968 89.7864823,809.676819 89.7807052,809.605652 L89.7701934,809.470064 L89.7701934,809.470064 Z M89.6448353,807.728991 L89.6633601,808.018887 C89.6569054,807.922177 89.6505758,807.825432 89.6443712,807.728652 L89.6448353,807.728991 Z M89.5423632,805.892121 L89.5620661,806.300988 C89.5572634,806.207185 89.5525782,806.11335 89.5480107,806.019484 L89.5423632,805.892121 L89.5423632,805.892121 Z M89.4714401,804.091747 L89.4820811,804.431256 C89.4796029,804.35916 89.4771942,804.287047 89.4748548,804.214916 L89.4714401,804.091747 L89.4714401,804.091747 Z M199.416058,89.4160584 L385.567506,89.4194318 C362.641892,185.431644 378.603847,240.416924 408.231177,329.398856 C384.347426,401.457942 360.059027,481.852126 320.011687,562.243124 C287.894796,618.246952 263.609584,666.524245 239.620689,706.469628 C207.506985,722.626845 183.620048,738.688476 167.558416,746.91843 C136.680864,764.844403 110.740857,784.426782 89.4714401,804.091747 L89.434567,802.622367 C89.4317095,802.465127 89.4291818,802.307807 89.4269848,802.150407 L89.4270199,802.149724 L89.4160584,800.583942 L89.4160584,800.583942 L89.4160584,199.416058 C89.4160584,139.272249 137.684687,90.4021822 197.597007,89.4307953 L199.416058,89.4160584 L199.416058,89.4160584 Z M464.333776,401.454756 C496.450667,473.618987 544.724774,537.95154 585.071618,586.126875 C592.903296,593.955367 600.728602,602.18532 616.787047,610.013812 C552.954727,618.243765 456.502098,642.232661 352.227349,682.576318 L336.066946,682.576318 C352.227349,650.459428 368.285794,626.17103 384.344239,593.955367 C416.059669,521.893095 448.275331,457.557356 464.333776,401.454756 Z M801.462352,618.246952 C852.734566,618.246952 887.331934,623.229288 910.58313,629.431409 L910.583058,664.427247 L909.41793,664.262426 C873.15707,659.03565 829.448662,645.103335 785.802182,626.174216 L785.802182,618.246952 L801.462352,618.246952 Z M800.583942,89.4160584 C861.335264,89.4160584 910.583942,138.664736 910.583942,199.416058 L910.583058,567.704247 L909.265197,567.505975 C885.002235,563.894291 857.066811,562.243124 825.744378,562.243124 C793.627488,562.243124 761.513784,570.074802 721.466443,570.074802 C689.352739,554.013171 673.291107,537.957912 649.005895,521.899467 C600.728602,473.625359 552.957913,401.461128 520.742251,313.241639 L520.742251,305.008499 C542.601559,234.250582 560.624826,152.311665 552.428352,89.4159134 L800.583942,89.4160584 Z M445.922851,89.4163566 L385.567506,89.4194318 L385.568058,89.4152466 L445.922957,89.4153545 C445.922922,89.4156885 445.922886,89.4160225 445.922851,89.4163566 Z M445.922851,89.4163566 L477.944891,89.4154492 C477.140524,100.968599 475.347866,114.289525 472.566916,128.661919 L472.566916,144.723551 C472.566916,168.607302 464.336962,184.668933 456.505284,216.785823 C445.550968,167.92884 442.02349,126.223355 445.922851,89.4163566 Z" id="Combined-Shape" fill="#CD2A00"></path>
            <rect id="Border-Copy-3" stroke="#686868" stroke-width="20" x="99.4160584" y="99.4160584" width="801.167883" height="801.167883" rx="110"></rect>
        </g>
    </g>
</svg>