<?xml version="1.0" encoding="iso-8859-1"?>
<!-- Generator: Adobe Illustrator 18.0.0, SVG Export Plug-In . SVG Version: 6.00 Build 0)  -->
<!DOCTYPE svg PUBLIC "-//W3C//DTD SVG 1.1//EN" "http://www.w3.org/Graphics/SVG/1.1/DTD/svg11.dtd">
<svg version="1.1" id="Capa_1" xmlns="http://www.w3.org/2000/svg" xmlns:xlink="http://www.w3.org/1999/xlink" x="0px" y="0px"
	 viewBox="0 0 52 52" style="enable-background:new 0 0 52 52;" xml:space="preserve">
<g>
	<path style="fill:#193772;" d="M40.824,52H11.176C5.003,52,0,46.997,0,40.824V11.176C0,5.003,5.003,0,11.176,0h29.649
		C46.997,0,52,5.003,52,11.176v29.649C52,46.997,46.997,52,40.824,52z"/>
	<g>
		<path style="fill:#00D5EE;" d="M15.96,39h-2.88V11h9.64c2.613,0,4.554,0.813,5.82,2.44c1.267,1.626,1.9,3.76,1.9,6.399
			c0,0.934-0.027,1.74-0.08,2.42c-0.054,0.681-0.22,1.534-0.5,2.561s-0.66,1.866-1.141,2.52c-0.479,0.654-1.213,1.227-2.199,1.72
			C25.533,29.554,24.36,29.8,23,29.8h-7.04V39z M15.96,27h6.681c0.96,0,1.772-0.187,2.439-0.56c0.666-0.374,1.153-0.773,1.46-1.2
			s0.547-1.04,0.72-1.84c0.174-0.801,0.267-1.4,0.28-1.801c0.014-0.399,0.021-0.973,0.021-1.72c0-4.053-1.694-6.08-5.08-6.08H15.96
			V27z"/>
		<path style="fill:#00D5EE;" d="M38,39h-2.88V11H38V39z"/>
	</g>
</g>
<g>
</g>
<g>
</g>
<g>
</g>
<g>
</g>
<g>
</g>
<g>
</g>
<g>
</g>
<g>
</g>
<g>
</g>
<g>
</g>
<g>
</g>
<g>
</g>
<g>
</g>
<g>
</g>
<g>
</g>
</svg>
