<svg height="512" viewBox="0 0 64 64" width="512" xmlns="http://www.w3.org/2000/svg"><g id="Signpost-pin-locations-2" data-name="Signpost-pin-locations"><ellipse cx="32" cy="58" fill="#787680" rx="7" ry="3"/><path d="m61 38-6 6h-21v-12h21z" fill="#ffda44"/><path d="m30 22v12h-21l-6-6 6-6z" fill="#91dc5a"/><path d="m61 18-6 6h-21v-12h21z" fill="#ff5023"/><path d="m34 6v50a2.006 2.006 0 0 1 -2 2 2.015 2.015 0 0 1 -2-2v-50z" fill="#b39a7c"/><path d="m34 8.23a3 3 0 0 1 -5-2.23 3 3 0 0 1 6 0 2.94 2.94 0 0 1 -1 2.23z" fill="#d80027"/><rect fill="#a7e37b" height="3" rx="1.5" width="15" x="10" y="23"/><rect fill="#ff734f" height="3" rx="1.5" width="15" x="38" y="13"/><rect fill="#ffe98f" height="3" rx="1.5" width="15" x="38" y="33"/><circle cx="30.5" cy="4.5" fill="#fff" r=".5"/></g></svg>