<?xml version="1.0" encoding="iso-8859-1"?>
<!-- Generator: Adobe Illustrator 19.0.0, SVG Export Plug-In . SVG Version: 6.00 Build 0)  -->
<svg version="1.1" id="Layer_1" xmlns="http://www.w3.org/2000/svg" xmlns:xlink="http://www.w3.org/1999/xlink" x="0px" y="0px"
	 viewBox="0 0 512 512" style="enable-background:new 0 0 512 512;" xml:space="preserve">
<g>
	<path style="fill:#D49000;" d="M380.997,330.658c-72.235,0-131.002-58.767-131.002-131.002
		c0-72.236,58.767-131.003,131.002-131.003C453.233,68.654,512,127.421,512,199.657C512,271.891,453.233,330.658,380.997,330.658z
		 M380.997,85.237c-63.09,0-114.418,51.329-114.418,114.419c0,63.09,51.329,114.418,114.418,114.418
		c63.091,0,114.419-51.329,114.419-114.418C495.417,136.566,444.089,85.237,380.997,85.237z"/>
	<path style="fill:#D49000;" d="M380.997,293.316c-51.644,0-93.659-42.015-93.659-93.659c0-51.645,42.016-93.66,93.659-93.66
		c51.645,0,93.66,42.015,93.66,93.66C474.658,251.3,432.642,293.316,380.997,293.316z M380.997,122.581
		c-42.5,0-77.076,34.576-77.076,77.077c0,42.5,34.575,77.076,77.076,77.076s77.077-34.575,77.077-77.076
		S423.498,122.581,380.997,122.581z"/>
	<path style="fill:#D49000;" d="M366.93,240.422L366.93,240.422c-2.199,0-4.309-0.873-5.864-2.429l-28.448-28.45
		c-3.238-3.238-3.238-8.488,0.001-11.726c3.238-3.238,8.488-3.237,11.725,0.001l22.585,22.588l52.933-52.935
		c3.239-3.237,8.488-3.237,11.727,0c3.238,3.239,3.238,8.488,0,11.727l-58.797,58.797
		C371.237,239.548,369.129,240.422,366.93,240.422z"/>
</g>
<path style="fill:#5C6670;" d="M122.84,111.679c0,100.15,61.521,93.71,61.521,260.912h94.784
	c0-167.202,61.521-160.762,61.521-260.912c0-60.15-48.76-108.914-108.914-108.914C171.604,2.765,122.84,51.529,122.84,111.679z"/>
<path style="fill:#333E48;" d="M161.504,234.444c12.338,29.571,22.858,69.01,22.858,138.147h94.784
	c0-69.137,10.52-108.575,22.861-138.147H161.504z"/>
<path style="opacity:0.2;enable-background:new    ;" d="M182.872,330.336c0.96,12.742,1.49,26.748,1.49,42.254h94.784
	c0-15.505,0.532-29.512,1.493-42.254H182.872z"/>
<path style="fill:#C29178;" d="M429.17,442.257c0-39.998-32.427-72.423-72.423-72.423H106.762
	c-39.998,0-72.423,32.425-72.423,72.423H429.17z"/>
<path style="opacity:0.2;enable-background:new    ;" d="M426.269,421.973H37.239c-1.873,6.439-2.899,13.24-2.899,20.285h394.83
	C429.17,435.213,428.145,428.411,426.269,421.973z"/>
<path style="fill:#FFC843;" d="M463.508,488.564c0,11.368-9.3,20.671-20.671,20.671H20.669C9.3,509.235,0,499.933,0,488.564v-28.393
	c0-11.368,9.3-20.669,20.669-20.669h422.167c11.371,0,20.671,9.301,20.671,20.669v28.393H463.508z"/>
<g>
</g>
<g>
</g>
<g>
</g>
<g>
</g>
<g>
</g>
<g>
</g>
<g>
</g>
<g>
</g>
<g>
</g>
<g>
</g>
<g>
</g>
<g>
</g>
<g>
</g>
<g>
</g>
<g>
</g>
</svg>
