<?xml version="1.0" encoding="UTF-8"?><svg version="1.1" viewBox="0 0 20 18" xmlns="http://www.w3.org/2000/svg" xmlns:xlink="http://www.w3.org/1999/xlink"><g transform="matrix(1 0 0 1 -380 -7520)"><path fill="#FA4829" fill-rule="evenodd" stroke="none" d="M336.322 7360c8.791 6.025 5.948 12.668 5.948 12.668 0 0 2.5 2.844 1.489 5.332 0 0-1.031-1.742-2.76-1.742 -1.667 0-2.646 1.742-6 1.742 -7.468 0-10.999-6.288-10.999-6.288 6.728 4.461 11.322 1.302 11.322 1.302 -3.031-1.773-9.479-10.254-9.479-10.254 5.615 4.817 8.042 6.088 8.042 6.088 -1.448-1.207-5.511-7.106-5.511-7.106 3.25 3.317 9.708 7.945 9.708 7.945 1.834-5.122-1.76-9.687-1.76-9.687" transform="matrix(1 0 0 1 56 160)"></path></g></svg>