<?xml version="1.0" encoding="UTF-8"?>
<svg width="512px" height="512px" viewBox="0 0 512 512" version="1.1" xmlns="http://www.w3.org/2000/svg" xmlns:xlink="http://www.w3.org/1999/xlink">
    <!-- Generator: Sketch 61 (89581) - https://sketch.com -->
    <title>target-svgrepo-com</title>
    <desc>Created with Sketch.</desc>
    <g id="Page-1" stroke="none" stroke-width="1" fill="none" fill-rule="evenodd">
        <g id="target-svgrepo-com" fill-rule="nonzero">
            <path d="M397.241,114.759 L401.077,72.573 C401.451,68.459 403.255,64.608 406.176,61.687 L443.966,23.897 C447.413,20.45 453.003,20.45 456.45,23.897 L488.104,55.551 C491.551,58.998 491.551,64.588 488.104,68.035 L450.314,105.825 C447.393,108.746 443.541,110.55 439.429,110.924 L397.241,114.759 Z" id="Path" fill="#FF6464"></path>
            <circle id="Oval" fill="#707487" cx="211.862" cy="300.139" r="211.862"></circle>
            <circle id="Oval" fill="#00D2FF" cx="211.862" cy="300.139" r="158.897"></circle>
            <circle id="Oval" fill="#FF6464" cx="211.862" cy="300.139" r="105.931"></circle>
            <circle id="Oval" fill="#FFE164" cx="211.862" cy="300.139" r="52.966"></circle>
            <path d="M211.862,308.966 C209.603,308.966 207.344,308.104 205.621,306.38 C202.173,302.932 202.173,297.345 205.621,293.897 L496.931,2.587 C500.379,-0.861 505.966,-0.861 509.414,2.587 C512.862,6.035 512.862,11.622 509.414,15.07 L218.104,306.38 C216.38,308.105 214.121,308.966 211.862,308.966 Z" id="Path" fill="#464655"></path>
            <path d="M509.414,2.587 C505.966,-0.861 500.379,-0.861 496.931,2.587 L481.863,17.656 L494.345,30.139 L509.414,15.07 C512.862,11.621 512.862,6.036 509.414,2.587 Z" id="Path" fill="#FF6464"></path>
        </g>
    </g>
</svg>