<?xml version="1.0" encoding="UTF-8"?>
<svg fill="#6B8DFF" width="100pt" height="100pt" version="1.1" viewBox="0 0 100 100" xmlns="http://www.w3.org/2000/svg">
 <path d="m51.504 21.598l-10.09-17.48c-2.5664-4.4453-7.0156-1.8789-7.0156-1.8789l-6.2266 3.5938 15.227 26.371 6.2266-3.5938c4.4453-2.5664 1.8789-7.0117 1.8789-7.0117m25.867 74.512l-15.227-26.375c-3.7617 2.168-7.207-1.8398-10.379-6.1406-2.0938-2.8594-3.9961-5.832-5.6914-8.7578-1.6875-2.9336-3.3086-6.0664-4.7383-9.3125-2.1367-4.8945-3.75-9.9648-0.12891-12.059l-15.227-26.367c-5.3672 3.0977-16.039 19.594 5.1797 56.348v0.003907c21.289 36.867 40.848 35.762 46.211 32.66m10.301-11.875l-10.094-17.48c-2.5664-4.4453-7.0156-1.8789-7.0156-1.8789l-6.2266 3.5938 15.227 26.375 6.2266-3.5938c4.4492-2.5664 1.8828-7.0156 1.8828-7.0156"/>
</svg>
