<?xml version="1.0" encoding="UTF-8"?><svg version="1.1" viewBox="0 0 294 350" xmlns="http://www.w3.org/2000/svg" xmlns:xlink="http://www.w3.org/1999/xlink"><g fill-rule="evenodd" fill="#F7F8F9" stroke="none"><path d="M44.22 59.102c-3.432 1.226-6.065 3.649-7.116 6.548 -.629 1.735-.712 4.999-3.43 133.888l-.448 21.249 .93.723c4.37 3.397 11.483 5.268 21.242 5.589 21.91.72 33.534 3.96 39.604 11.039 2.552 2.976 2.997 4.381 3.776 11.928l.231 2.247h48.155 48.155l.257-4.2c.819-13.404 14.187-19.814 43.807-21.004 8.638-.347 14.955-2.001 19.824-5.191l1.467-.959v-3.366c0-1.852-.176004-11.628-.394004-21.726 -.218-10.097-.842-39.101-1.388-64.453 -.545-25.351-1.12-50.423-1.278-55.715l-.288-9.621 -1.159-1.864c-1.498-2.409-3.375-3.897-6.143-4.87 -2.821-.992-203.048-1.227-205.804-.242m153.78 184.898v74h-103v-74h103Zm21.643-148.328c.185 1.42109e-14 1.207 1.099 2.271 2.441 2.901 3.661 5.946 7.796 5.93802 8.064 -.003016.13-2.48702 2.786-5.51902 5.901 -10.858 11.158-26.102 28.083-32.227 35.781 -1.042 1.31-5.4 6.759-9.683 12.109l-.493168.616052c-4.09969 5.12141-7.91052 9.88676-8.60283 10.7569 -2.446 3.077-13.715 17.878-14.561 19.125 -2.693 3.972-7.672 10.429-8.417 10.918 -1.734 1.136-1.431 1.372-17.818-13.919 -5.874-5.481-13.576-12.6-17.116-15.82 -17.526-15.944-19.006-17.489-17.834-18.621 2.417-2.336 9.509-8.692 12.053-10.802 .603-.501.99-.318 3.711 1.748 7.253 5.506 23.692 18.291 26.644 20.72l2.512 2.067 9.011-8.887c21.887-21.585 67.68-62.198 70.131-62.198Z"></path><path fill="#346ECF" d="M54.227.378c-25.292 1.455-43.177 13.673-48.86 33.38 -1.336 4.632-2.387 26.941-3.681 78.125 -.217 8.594-.569 20.898-.782 27.344 -.927 28.037-.836 67.938.171 75 .15 1.057.262 2.343.831 9.57 .628 7.981 1.005 12.514 1.153 13.867 .094.859.448 4.99.788 9.18 .34 4.189 1.216 14.472 1.946 22.851 .73 8.379 1.697 19.893 2.149 25.586 1.939 24.423 4.143 31.245 12.746 39.453l2.661 2.539 -2.947-3.125c-5.132-5.441-7.252-9.289-9.147-16.601 -.234-.903-.195-.889.513.195 2.537 3.883 6.389 6.353 8.367 5.367l1.104-.551 -.206-20.377c-.113-11.207-.296-29.605-.408-40.884l-.202-20.508 -1.458-1.278c-1.389-1.217-1.335-1.202 1.15.318 8.689 5.319 20.497 8.492 34.112 9.169 22.727 1.129 32.112 3.478 39.225 9.819 4.125 3.677 4.688 6.955 5.495 31.972 1.124 34.853 1.093 34.558 3.834 36.965 4.929 4.327 6.076 4.441 44.61 4.441 38.654 0 39.268-.064 44.076-4.624 2.677-2.539 2.818-3.974 3.592-36.587 .618-26.059.751-26.89 4.936-30.918 7.039-6.773 16.344-9.274 41.148-11.061 11.931-.86 19.524-2.65 27.537-6.49 4.373-2.097 4.55-2.165 3.204-1.232l-1.092.757 .027 14.671c.021 11.546-.079 14.706-.47 14.837 -.594.197-1.004 54.983-.412 54.983 .189 0 .555-.211.813-.468 .365-.365.469-.329.469.162 0 1.781 7.308-1.725 9.299-4.461 .721-.99 1.354-.882 1.037.177 -1.126 3.763-4.506 8.848-8.628 12.98 -1.812 1.816-2.05 2.137-.732.987 6.696-5.845 10.491-13.141 12.292-23.635 .828-4.821 1.256-9.825 6.275-73.437 .644-8.164 1.452-18.184 1.794-22.266 1.086-12.934 1.268-20.287.904-36.328 -.195-8.594-.44-21.953-.543-29.687 -.522-38.875-2.96-109.33-3.949-114.118 -4.424-21.42-22.692-34.464-50.53-36.081 -7.596-.441-176.51-.421-184.211.022m167.187 19.896c27.054.397 29.078.753 35.997 6.343 8.31 6.714 8.489 7.875 9.52 61.828 .239 12.461.772 36.543 1.187 53.516 1.057 43.327 1.036 64.05-.067 67.635 -3.181 10.331-11.705 16.392-24.371 17.328 -2.578.19-7.5.545-10.938.788 -19.816 1.399-31.634 6.096-35.829 14.24 -1.197 2.322-1.877 12.87-2.633 40.829 -.584 21.593-.568 21.489-3.68 23.974 -5.176 4.134-6.442 4.271-41.061 4.448 -36.028.184-38.13.037-44-3.092 -5.195-2.769-5.286-3.312-5.994-35.486 -.479-21.749-1.301-29.772-3.357-32.73 -5.736-8.254-16.726-11.695-40.204-12.587 -15.662-.595-22.638-3.784-27.874-12.746 -3.445-5.895-3.673-13.343-2.228-72.601 .415-16.973.948-41.055 1.187-53.516 1.035-54.151 1.136-54.81 9.522-61.842 6.405-5.372 9.571-5.976 33.065-6.3 27.161-.376 126.822-.395 151.758-.029"></path><path fill="#273E60" d="M72 20.7c.411.285-2.422.367-9.473.273 -5.567-.073-10.058.019-10.058.208 0 .187-.703.222-1.563.077 -.859-.145-1.562-.117-1.562.063 0 .18-.769.357-1.709.393 -3.839.148-10.963 4.228-14.01 8.022 -1.8 2.241-2.307 3.265-.639 1.287 1.545-1.83 2.889-3.127 4.248-4.099l.977-.699 -.195 11.384c-.13 7.533-.348 11.647-.645 12.164 -.248.43-.466.914-.484 1.077 -.094.811-1.171 2.893-1.741 3.366 -.355.295-.646.702-.646.906 0 .204-.496 1.105-1.102 2.003 -1.94 2.872-4.064 7.8-4.578 10.617 -.487 2.666-.502 2.535-.599-5.273 -.094-7.59-.114-7.335-.384 4.883 -.352 15.996-1.008 44.243-1.745 75.195 -1.256 52.799-1.216 64.245.238 67.773 .266.645.455 1.304.421 1.465 -.035.161.123.293.35.293 .228 0 .305.176.172.391 -.132.215-.026.39.238.39 .263 0 .38.099.259.22 -.121.12.208.68.73 1.244 .523.563.862 1.254.755 1.534 -.108.28.018.467.279.416 .26-.051.447.226.415.616 -.032.391.042.61.164.488 .122-.122.5.027.84.333 .562.505.625-.877.702-15.331 .116-21.862.462-47.947.892-67.254 .198-8.916.466-22.803.596-30.859 .381-23.612.846-35.055 1.528-37.601 2.011-7.513 8.222-13.551 15.565-15.131 4.192-.903 193.865-.355 195.983.566 6.581 2.86 10.236 6.534 12.454 12.517 1.636 4.414 1.854 7.365 2.19 29.688 .318 21.099.548 33.778 1.03 56.836 .241 11.494.46 31.3.487 44.013 .045 21.046.105 23.065.667 22.557 .34-.306.718-.456.84-.334 .122.122.196-.097.164-.488 -.032-.39.155-.667.415-.616 .261.051.387-.136.279-.416 -.107-.28.232-.971.755-1.534 .522-.564.851-1.124.73-1.244 -.121-.121-.004-.22.259-.22 .264 0 .37-.175.238-.39 -.133-.215-.056-.391.172-.391 .227 0 .385-.132.35-.293 -.034-.161.155-.82.421-1.465 1.454-3.528 1.494-14.974.238-67.773 -.737-30.952-1.393-59.199-1.745-75.195 -.271-12.243-.29-12.489-.386-4.883 -.099 7.897-.108 7.971-.628 5.356 -.29-1.458-.976-3.633-1.525-4.832 -.55-1.2-.999-2.319-.999-2.488 0-.29-3.134-5.601-3.796-6.435 -.616-.773-1.282-2.594-1.282-3.501 0-.509-.179-.985-.397-1.058 -.26-.087-.361-4.024-.293-11.39l.104-11.258 2.045 2.08c1.124 1.144 2.324 2.432 2.665 2.862 .342.429.493.517.336.195 -1.955-4.022-11.938-10.811-14.637-9.954 -.452.143-.761.059-.761-.207 0-.298-.407-.358-1.22-.18 -.909.2-1.146.147-.927-.207 .221-.359-.101-.408-1.319-.203 -.886.15-1.612.119-1.612-.068 0-.189-4.491-.281-10.058-.208 -7.051.094-9.884.012-9.473-.273 .407-.283-22.497-.407-75-.407 -52.503 0-75.407.124-75 .407"></path><path fill="#989FAE" d="M35.797 89.813c0 1.396.071 1.967.157 1.269 .087-.698.087-1.841 0-2.539 -.086-.698-.157-.127-.157 1.27m-.778 34.96c.002 1.504.072 2.072.157 1.261 .084-.81.083-2.041-.003-2.734 -.087-.694-.156-.03-.154 1.473m125.824 22.168l-1.148 1.27 1.27-1.147c.698-.631 1.269-1.203 1.269-1.27 0-.302-.322-.036-1.391 1.147m98.785 11.817c.002 1.504.073 2.071.157 1.261 .085-.811.083-2.041-.003-2.735 -.086-.693-.156-.03-.154 1.474m-225.765 20.508c0 2.255.065 3.178.144 2.05 .079-1.128.079-2.973 0-4.101 -.079-1.128-.144-.205-.144 2.051m65.251 79.9671c.127 3.32694.419 13.7568.648 23.1766 .4 16.4329.789 23.0107 1.423 24.0662 .163.26941.303.582136.311.696239 .037.468033.378879 1.1199 1.141 1.7538 .511146.638009 1.68057 1.01108 3.02 1.2826 1.13028.442965 2.17094.625641 2.46881.677222 2.13329.369405 59.3292 2.75432 74.8122.880071 1.826-.22081 3.671-.419433 4.101-.440564 .65-.032751 4.01942-2.19056 4.297-2.4194 .277578-.228842.223582-.228842.461165-.477225 .237584-.248382 1.39184-2.42983 1.39184-2.63842 0-.208589.591-1.38403 1.091-20.9041 .246-9.64698.583-20.697.748-24.5554 .164-3.85942.221-7.10924.127-7.22229 -.222-.265183-94.598-.387738-95.554-.123611 -.671.184889-.703.605379-.487 6.24819Z"></path><path fill="#20498E" d="M36.844 26.336c-.268.322-.35.586-.183.586 .167 0-.014.351-.403.781 -.777.858-1.587 1.07-1.12.293 .213-.354.118-.346-.344.029 -.351.284-.553.739-.448 1.011 .104.272-.082.721-.414.996 -.332.276-.604.37-.604.21 0-.16-.253-.081-.563.176 -.309.257-.473.7-.364.985 .11.285-.016.651-.278.813 -.306.189-.378.133-.199-.156 .153-.248.184-.451.068-.451 -.49 0-1.761 3.133-1.524 3.753 .186.483.118.585-.24.364 -.374-.231-.429-.088-.22.571 .195.614.144.796-.169.602 -.316-.195-.377.05-.206.83 .195.89.154.992-.211.521 -.356-.46-.404-.208-.221 1.172 .171 1.295.123 1.603-.181 1.172 -.302-.428-.359.046-.211 1.758 .146 1.689.101 2.071-.159 1.367 -.246-.667-.314.325-.212 3.125 .108 2.967.055 3.669-.192 2.539 -.231-1.06-.286.072-.17 3.515 .094 2.793.187 7.891.208 11.329l.037 6.25 .499-2.735c.514-2.817 2.638-7.745 4.578-10.617 .606-.898 1.102-1.799 1.102-2.003 0-.204.291-.611.646-.906 .57-.473 1.647-2.555 1.741-3.366 .018-.163.236-.647.484-1.077 .568-.987 1.029-23.784.469-23.223 -.607.608-1.133.422-.606-.214 .268-.322.399-.586.291-.586 -.107 0-.414.264-.681.586m219.674-.294c.16.268.277 5.673.259 12.011 -.022 7.649.102 11.525.369 11.525 .22 0 .401.431.401.958 0 .935.658 2.751 1.282 3.534 .662.834 3.796 6.145 3.796 6.435 0 .169.449 1.288.999 2.488 .549 1.199 1.235 3.374 1.525 4.832l.528 2.652 .038-6.25c.021-3.438.115-8.536.209-11.329 .116-3.443.061-4.575-.17-3.515 -.247 1.13-.3.428-.192-2.539 .102-2.8.034-3.792-.212-3.125 -.26.704-.305.322-.159-1.367 .148-1.712.091-2.186-.211-1.758 -.304.431-.352.123-.181-1.172 .183-1.38.135-1.632-.221-1.172 -.365.471-.406.369-.211-.521 .171-.78.11-1.025-.206-.83 -.313.194-.364.012-.169-.602 .209-.659.154-.802-.22-.571 -.358.221-.426.119-.24-.364 .237-.62-1.034-3.753-1.524-3.753 -.116 0-.085.203.068.451 .179.289.107.345-.199.156 -.262-.162-.388-.528-.278-.813 .109-.285-.099-.75-.462-1.035 -.605-.473-.613-.451-.086.265 .424.577.296.533-.489-.166 -1.078-.962-1.466-1.874-.574-1.353 .269.157.154-.096-.256-.562 -.831-.948-1.385-1.182-.623-.263 .268.322.32.586.116.586 -.502 0-2.129-1.763-1.868-2.024 .115-.115-.093-.453-.462-.752 -.44-.358-.57-.377-.377-.057m-237.553 213.469l1.458 1.278 .202 20.508c.112 11.279.295 29.677.408 40.884l.206 20.377 -1.104.551c-1.957.976-5.955-1.567-8.268-5.259l-.667-1.065 .029 1.319c.016.725.188 1.22.383 1.101 .195-.12.256.162.134.625 -.139.535-.07.75.191.589 .263-.163.341.113.215.769 -.107.562-.058.938.111.834 .426-.264.865 1.276.522 1.832 -.187.303-.109.348.237.134 .378-.234.448-.14.26.351 -.174.452-.11.579.195.391 .305-.189.369-.061.195.39 -.173.452-.109.579.196.391 .305-.189.368-.061.195.391 -.173.451-.11.579.195.39 .305-.188.369-.061.196.391 -.153.398-.101.573.129.431 .354-.218.559.319.422 1.106 -.03.178.125.211.345.075 .366-.226.575.3.437 1.097 -.031.177.105.222.303.1 .386-.238 1.018.885.861 1.531 -.052.215.028.269.177.12 .275-.275 1.975 1.506 2.123 2.224 .136.658.866 1.37 1.196 1.166 .172-.106 1.052.643 1.956 1.665 .904 1.021 1.803 1.811 1.998 1.755 .195-.055.456.161.578.481 .321.836 2.782 2.266 3.324 1.932 .282-.175.354-.115.187.156 -.948 1.533 12.38 6.342 22.612 8.158 5.254.932 184.351 1.096 190.82.174 10.554-1.504 24.453-6.717 26.646-9.992 .153-.229.417-.42.586-.424 .169-.004 1.468-1.187 2.887-2.629 1.419-1.441 2.708-2.492 2.865-2.336 .156.157.226.101.154-.124 -.174-.548 1.857-2.942 2.203-2.597 .149.149.228.096.176-.119 -.156-.646.476-1.77.862-1.531 .197.122.334.077.303-.1 -.137-.788.069-1.325.423-1.106 .229.141.281-.034.129-.432 -.189-.491-.119-.585.26-.351 .33.204.423.169.258-.098 -.26-.422 1.417-4.152 1.729-3.843 .092.091.186-.346.209-.972 .047-1.297-.351-1.456-1.094-.436 -1.991 2.736-9.299 6.242-9.299 4.461 0-.491-.104-.527-.469-.163 -.258.258-.624.469-.813.469 -.592 0-.182-54.786.412-54.983 .391-.131.491-3.291.47-14.837l-.027-14.671 1.092-.757c1.346-.933 1.169-.865-3.204 1.232 -8.013 3.84-15.606 5.63-27.537 6.49 -24.804 1.787-34.109 4.288-41.148 11.061 -4.185 4.028-4.318 4.859-4.936 30.918 -.774 32.613-.915 34.048-3.592 36.587 -4.808 4.56-5.422 4.624-44.076 4.624 -36.056 0-35.946.007-41.211-2.33 -6.317-2.804-6.01-1.142-7.233-39.076 -.807-25.017-1.37-28.295-5.495-31.972 -7.113-6.341-16.498-8.69-39.225-9.819 -13.615-.677-25.423-3.85-34.112-9.169 -2.485-1.52-2.539-1.535-1.15-.318"></path><path fill="#0C347E" d="M20.438 334.857c0 .067.571.638 1.269 1.269l1.27 1.147 -1.148-1.269c-1.069-1.183-1.391-1.449-1.391-1.147m9.128 5.685c-.641.467-.548 1.204.12.948 .43-.165.552-.097.366.205 -.189.305-.061.368.39.195 .452-.173.579-.11.391.195 -.189.305-.061.369.39.196 .452-.174.58-.11.391.195 -.188.305-.061.369.391.195 .451-.173.579-.109.39.196 -.188.305-.061.368.391.195 .452-.173.579-.11.391.195 -.189.305-.061.369.39.196 .452-.174.579-.11.391.195 -.189.305-.061.369.39.195 .429-.164.577-.105.411.164 -.168.272.037.342.583.2 .628-.164.762-.09.526.292 -.212.342-.165.418.142.229 .568-.351 3.26.495 2.985.939 -.109.177.18.223.644.102 .54-.141.75-.071.586.196 -.165.266.045.336.586.195 .498-.13.746-.065.607.161 -.142.228.265.32 1.013.229 1.009-.123 1.136-.065.663.303 -.495.384-.471.418.15.215 1.056-.345 3.592.174 2.916.597 -.309.192.121.239 1.035.112 1.12-.155 1.402-.104.997.179 -.406.285-.075.347 1.172.222 1.091-.11 1.468-.056 1.013.144 -.915.402-7.545.351 71.428.559 36.953.098 60.595.074 52.539-.053 -12.874-.203-13.773-.255-7.422-.424 8.902-.238-13.126-.631-66.406-1.184 -19.659-.204-36.27-.448-36.914-.542 -.645-.094-3.194-.28-5.664-.414 -7.624-.413-16.544-2.3-22.376-4.735 -2.379-.993-5.322-1.477-5.996-.987m34.133 8.935c1.343.076 3.54.076 4.883 0 1.343-.077.244-.139-2.441-.139 -2.686 0-3.785.062-2.442.139m162.696-.001c1.235.078 3.256.078 4.492 0 1.235-.077.224-.141-2.246-.141 -2.471 0-3.482.064-2.246.141"></path></g></svg>