<?xml version="1.0" encoding="UTF-8"?>
<svg width="1000px" height="1000px" viewBox="0 0 1000 1000" version="1.1" xmlns="http://www.w3.org/2000/svg" xmlns:xlink="http://www.w3.org/1999/xlink">
    <!-- Generator: Sketch 58 (84663) - https://sketch.com -->
    <title>user_1</title>
    <desc>Created with Sketch.</desc>
    <g id="user_1" stroke="none" stroke-width="1" fill="none" fill-rule="evenodd">
        <g id="Person/Male" transform="translate(71.360609, 71.360609)" fill-rule="nonzero" stroke="#383838" stroke-width="15">
            <path d="M406.375827,372.211528 C226.558015,377.266076 85.5112608,668.883156 152.030535,767.773699 C218.549809,866.664242 608.849648,866.664242 672.43443,767.773699 C736.019211,668.883156 592.037965,366.991338 406.375827,372.211528 Z" id="Path" fill="#66A5FF"></path>
            <path d="M238.670407,168.996562 C305.574263,60.937064 437.074902,29.3935471 538.431751,97.091763 C639.788601,164.789979 675.789117,308.210783 620.496472,424.025636 C565.203826,539.840488 437.827325,587.813967 330.136276,533.383238 C222.445226,478.95251 171.852746,341.027439 214.808549,218.977125" id="Path" fill="#FFCCAA"></path>
            <path d="M332.839385,182.347225 C332.839385,182.347225 415.010751,268.795312 506.671966,268.795312 C592.882221,268.795312 676.989787,206.333775 676.989787,206.333775 C676.989787,206.333775 633.094147,32.5946826 493.322048,17.1533795 C353.755284,1.73589805 192.113368,41.1515345 147.068957,198.173339 C101.496715,357.033075 222.371127,463.961655 222.371127,463.961655 L260.19425,298.328026 L310.511416,299.604132 L332.840002,182.358953 L332.839385,182.347225 Z" id="Path" fill="#918A6F"></path>
            <path d="M299.009837,308.02388 C281.540717,258.769995 222.847892,275.562622 219.565632,330.091393 C215.822442,392.226254 293.834439,402.750327 293.834439,402.750327" id="Path" fill="#FFCCAA"></path>
        </g>
    </g>
</svg>