<?xml version="1.0" encoding="UTF-8"?>
<svg width="1000px" height="1000px" viewBox="0 0 1000 1000" version="1.1" xmlns="http://www.w3.org/2000/svg" xmlns:xlink="http://www.w3.org/1999/xlink">
    <!-- Generator: Sketch 58 (84663) - https://sketch.com -->
    <title>user_1_suit</title>
    <desc>Created with Sketch.</desc>
    <g id="user_1_suit" stroke="none" stroke-width="1" fill="none" fill-rule="evenodd">
        <g id="Person/Male/Business/White" transform="translate(71.360609, 71.360609)" stroke="#383838">
            <g id="Group-2" transform="translate(15.620438, 14.058394)">
                <path d="M398.191094,359.019794 C220.693814,364.065017 81.4672553,655.144058 147.128105,753.852146 C212.788954,852.560234 598.052009,852.560234 660.816235,753.852146 C723.580461,655.144058 581.457279,353.809236 398.191094,359.019794 Z" id="Path" stroke-width="15" fill="#FFFFFF" fill-rule="nonzero"></path>
                <polygon id="Path" stroke-width="15" fill="#FF8080" fill-rule="nonzero" points="411.640272 537.314523 453.654731 580.845204 429.919907 721.184811 533.325958 780.531958 572.019285 686.484002 498.515614 573.687228 514.067046 514.753953 411.636006 537.318169"></polygon>
                <path d="M231.864771,156.179764 C297.959088,48.3196376 427.868564,16.8343191 527.998992,84.4076306 C628.129421,151.980942 663.694329,295.137132 609.070727,410.738304 C554.447125,526.339476 428.611884,574.224443 322.223899,519.89414 C215.835915,465.563837 165.855606,327.89324 208.291642,206.068112" id="Path" stroke-width="15" fill="#FFCCAA" fill-rule="nonzero"></path>
                <path d="M324.043961,167.978335 C324.043961,167.978335 405.134317,254.266923 495.589677,254.266923 C580.665789,254.266923 663.666873,191.920629 663.666873,191.920629 C663.666873,191.920629 620.348705,18.5020886 482.415385,3.08927504 C344.6847,-12.2997609 185.169273,27.0431529 140.717446,183.77525 C95.7447322,342.341886 215.028974,449.073181 215.028974,449.073181 L252.354513,283.745149 L302.009729,285.018901 L324.04457,167.990041 L324.043961,167.978335 Z" id="Path" stroke-width="15" fill="#918A6F" fill-rule="nonzero"></path>
                <path d="M292.494142,294.950574 C275.057253,245.787563 216.472717,262.549207 213.196513,316.977372 C209.460229,378.997593 287.328292,389.502249 287.328292,389.502249" id="Path" stroke-width="15" fill="#FFCCAA" fill-rule="nonzero"></path>
            </g>
        </g>
    </g>
</svg>