<?xml version="1.0" encoding="UTF-8"?>
<svg width="1000px" height="1000px" viewBox="0 0 1000 1000" version="1.1" xmlns="http://www.w3.org/2000/svg" xmlns:xlink="http://www.w3.org/1999/xlink">
    <!-- Generator: Sketch 58 (84663) - https://sketch.com -->
    <title>user_1_female</title>
    <desc>Created with Sketch.</desc>
    <g id="user_1_female" stroke="none" stroke-width="1" fill="none" fill-rule="evenodd">
        <g id="Person/Female" transform="translate(71.360609, 71.360609)" fill-rule="nonzero" stroke="#383838" stroke-width="15">
            <path d="M415.129291,391.83579 C244.427723,396.679182 110.530194,676.110889 173.677142,770.871299 C236.82409,865.631708 607.341782,865.631708 667.70482,770.871299 C728.067857,676.110889 591.386416,386.833882 415.129291,391.83579 L415.129291,391.83579 Z" id="Path" fill="#ED68E2"></path>
            <path d="M288.034852,448.797714 L572.715505,448.797714 C572.715505,448.797714 577.258199,731.244094 475.801507,731.244094 C380.402844,731.244094 288.034852,448.797714 288.034852,448.797714 L288.034852,448.797714 Z" id="Path" fill="#FFFFFF"></path>
            <path d="M643.252537,330.725489 C643.252537,461.333393 548.508718,567.283814 431.487124,567.545955 C314.465529,567.807124 219.344626,462.281225 218.871485,331.674382 C218.40186,201.067538 312.757965,94.689776 429.777651,93.8947817 C546.797336,93.1086495 642.300346,198.203758 643.245614,328.807401" id="Path" fill="#FFCCAA"></path>
            <path d="M351.064439,263.354321 C351.064439,263.354321 449.837709,367.6987 551.217701,359.558097 C652.751029,351.404622 721.145262,304.122924 721.145262,304.122924 C721.145262,304.122924 668.780831,18.8401687 434.841395,14.1200905 C251.696223,10.2860383 161.515933,185.998368 134.786306,304.122924 C107.711979,423.767712 144.852544,423.314095 184.426867,413.119952 C224.00119,402.925809 351.066893,263.352482 351.066893,263.352482 L351.064439,263.354321 Z" id="Path" fill="#D38D5F"></path>
        </g>
    </g>
</svg>