<?xml version="1.0" encoding="UTF-8"?>
<svg width="1051px" height="1051px" viewBox="0 0 1051 1051" version="1.1" xmlns="http://www.w3.org/2000/svg" xmlns:xlink="http://www.w3.org/1999/xlink">
    <!-- Generator: Sketch 57.1 (83088) - https://sketch.com -->
    <title>world_web_Globe-2-16x16</title>
    <desc>Created with Sketch.</desc>
    <defs>
        <radialGradient cx="50.704%" cy="57.042%" fx="50.704%" fy="57.042%" r="58.1%" id="radialGradient-1">
            <stop stop-color="#E3F9FF" offset="0%"></stop>
            <stop stop-color="#73BEE7" offset="36.195%"></stop>
            <stop stop-color="#438EC5" offset="62.535%"></stop>
            <stop stop-color="#477DAF" offset="72.607%"></stop>
            <stop stop-color="#020407" offset="100%"></stop>
        </radialGradient>
        <linearGradient x1="72.887%" y1="-12.6524121%" x2="35.915%" y2="24.9388115%" id="linearGradient-2">
            <stop stop-color="#FFFFFF" offset="0%"></stop>
            <stop stop-color="#FFFFFF" stop-opacity="0" offset="100%"></stop>
        </linearGradient>
        <linearGradient x1="42.241%" y1="14.4159387%" x2="37.791%" y2="53.7436004%" id="linearGradient-3">
            <stop stop-color="#FFFFFF" stop-opacity="0.664745411" offset="0%"></stop>
            <stop stop-color="#FFFFFF" stop-opacity="0" offset="100%"></stop>
        </linearGradient>
        <linearGradient x1="51.163%" y1="171.7%" x2="51.163%" y2="48.507%" id="linearGradient-4">
            <stop stop-color="#FFFFFF" offset="0%"></stop>
            <stop stop-color="#FFFFFF" stop-opacity="0" offset="100%"></stop>
        </linearGradient>
    </defs>
    <g id="world_web_Globe-2-16x16" stroke="none" stroke-width="1" fill="none" fill-rule="evenodd">
        <g id="Globe-(Very-Simple)" transform="translate(75.500000, 75.500000)">
            <path d="M890.709637,445.491786 C890.709637,286.667253 805.977761,139.907332 668.431682,60.4950647 C530.885602,-18.9172024 361.421842,-18.9172024 223.875763,60.4950647 C86.3296829,139.907332 1.59780701,286.667253 1.59780701,445.491786 C1.59780701,691.013238 200.63227,890.047701 446.153722,890.047701 C691.675174,890.047701 890.709637,691.013238 890.709637,445.491786 L890.709637,445.491786 Z" id="path825" fill="url(#radialGradient-1)" transform="translate(446.153722, 445.491783) scale(-1, 1) translate(-446.153722, -445.491783) "></path>
            <path d="M537.719327,731.668134 C476.548904,724.213473 475.946898,615.893405 536.715985,607.108805 C574.909875,629.612781 610.361296,534.732101 629.859577,572.565378 C613.772659,644.277113 701.197201,628.037852 717.886124,572.950361 C742.702119,528.502385 730.260677,611.343613 739.792427,628.982809 C761.999732,686.100209 693.237353,765.896575 642.535132,717.598774 C606.247593,683.895309 572.97008,719.733677 537.719327,731.668134 Z M665.67889,771.111338 C671.799277,795.89021 684.274164,798.130108 692.43468,771.986298 C700.561751,747.207426 669.993261,751.827216 665.67889,771.111338 Z M202.56962,170.538684 C152.034622,222.931298 137.11827,298.562855 120.295567,368.06969 C132.803899,417.102457 170.462672,467.080181 127.084849,511.878142 C99.3591618,574.94527 10.0951592,535.257077 32.3359092,471.139997 C31.1987882,395.158456 22.3359329,314.69712 57.2187934,244.770304 C76.3157381,200.287329 112.469499,146.774766 164.710178,151.849535 C178.489409,155.069388 190.730183,162.839034 202.56962,170.538684 L202.56962,170.538684 Z M311.023814,347.441726 C307.411782,287.01827 371.057116,292.18949 356.709324,219.965933 C354.234414,158.709528 231.057448,189.216259 267.144319,116.125048 C300.722835,61.4975229 296.709466,33.489637 380.789535,19.3642225 C464.903048,1.42112827 554.86939,-19.5761096 696.307182,88.6724605 C833.999163,196.921031 581.758958,111.092652 551.524916,150.79652 C502.929714,193.276882 524.836016,286.185321 468.180632,305.690193 C419.217537,338.279295 423.097127,405.609281 414.936611,458.397378 C424.669029,501.641276 553.631935,470.926308 493.331074,530.273873 C432.026872,546.412246 390.92329,482.344641 348.281251,448.540823 C326.675951,427.370055 314.602401,404.012797 311.023814,347.441726 L311.023814,347.441726 Z M738.789085,256.249781 C790.86254,252.784939 812.233727,315.292093 807.651798,360.685026 C779.290661,410.172773 841.731985,456.300672 872.601477,405.412989 C905.87899,343.920789 851.598182,266.924295 800.762182,234.340779 C778.287319,213.516727 734.039932,216.351598 738.789085,256.249781 Z M224.910704,778.426005 C290.362054,777.376053 356.381964,761.83676 421.398533,776.151108 C446.749643,811.814485 518.287935,836.768348 519.224388,874.041651 C468.75628,910.999968 403.171151,876.281549 350.428801,861.967201 C308.555991,848.702805 249.057804,857.907386 227.419059,808.664628 C224.375588,799.005068 222.803685,788.505546 224.910704,778.426005 Z" id="path846" fill="#0BA508"></path>
            <path d="M25.4059083,44.0572682 C219.999571,-81.3428123 615.858243,104.164526 557.866501,453.56324 C479.218069,564.361221 336.916432,-2.15979267 25.4059083,44.0572682 Z" id="path863" fill="url(#linearGradient-2)" transform="translate(294.506903, 236.391552) scale(-1, 1) translate(-294.506903, -236.391552) "></path>
            <path d="M782.572993,215.700332 C782.572993,97.0891919 633.858817,0.93586434 450.410584,0.93586434 C266.962351,0.93586434 118.248175,97.0891919 118.248175,215.700332 C118.248175,334.311473 266.962351,430.4648 450.410584,430.4648 C633.858817,430.4648 782.572993,334.311473 782.572993,215.700332 Z" id="path868" fill="url(#linearGradient-3)" transform="translate(450.410584, 215.700332) scale(-1, 1) translate(-450.410584, -215.700332) "></path>
            <path d="M810.27097,625.38551 C810.27097,479.125794 649.24054,360.558868 450.599438,360.558868 C251.958335,360.558868 90.9279048,479.125794 90.9279048,625.38551 C90.9279048,771.645226 251.958335,890.212153 450.599438,890.212153 C649.24054,890.212153 810.27097,771.645226 810.27097,625.38551 Z" id="path884" fill="url(#linearGradient-4)" transform="translate(450.599438, 625.385510) scale(-1, 1) translate(-450.599438, -625.385510) "></path>
        </g>
    </g>
</svg>