<?xml version="1.0"?>
<svg xmlns="http://www.w3.org/2000/svg" viewBox="0 0 24 24"><g id="Layer_2" data-name="Layer 2"><path d="M9.72,9.15c-.72,0-1.36.5-1.92,1.53L6.21,9.5C7.32,7.7,8.57,7,9.77,7c2.09,0,3.08,2.07,4.52,2.07.72,0,1.35-.51,1.91-1.53l1.59,1.2c-1.11,1.77-2.36,2.48-3.56,2.48C12.15,11.22,11.15,9.15,9.72,9.15Zm0,5.79c-.72,0-1.36.5-1.92,1.52L6.21,15.29c1.11-1.8,2.36-2.5,3.56-2.5,2.09,0,3.08,2.06,4.52,2.06.72,0,1.35-.5,1.91-1.53l1.59,1.2C16.68,16.3,15.43,17,14.23,17,12.15,17,11.15,14.94,9.72,14.94Z" style="fill:#333"/></g></svg>
