<?xml version="1.0"?>
<svg xmlns="http://www.w3.org/2000/svg" viewBox="0 0 24 24"><g id="Layer_2" data-name="Layer 2"><path d="M22.25,15.25a6.75,6.75,0,0,1-13.2,2,8.59,8.59,0,0,0,5.89-2.56A8.58,8.58,0,0,0,17.49,8.8a6.77,6.77,0,0,1,4.76,6.45Z" style="fill:#999"/><path d="M13.52,3.73A6.67,6.67,0,0,1,15.2,6.51,8.76,8.76,0,0,0,6.76,15,6.75,6.75,0,1,1,13.52,3.73Z" style="fill:#999"/><path d="M15.5,8.5c0,.17,0,.34,0,.5a4,4,0,0,1-.06.5,6.74,6.74,0,0,1-5.67,5.67,4,4,0,0,1-.5.06l-.5,0a4.07,4.07,0,0,1,0-.5,2.07,2.07,0,0,1,.06-.5A6.69,6.69,0,0,1,14.5,8.59a2.07,2.07,0,0,1,.5-.06A4.07,4.07,0,0,1,15.5,8.5Z" style="fill:#0071bc"/></g></svg>
