<?xml version="1.0" encoding="UTF-8" standalone="no"?>
<!-- Created with Inkscape (http://www.inkscape.org/) -->
<svg xmlns:inkscape="http://www.inkscape.org/namespaces/inkscape" xmlns:sodipodi="http://sodipodi.sourceforge.net/DTD/sodipodi-0.dtd" xmlns="http://www.w3.org/2000/svg" xmlns:svg="http://www.w3.org/2000/svg" xmlns:rdf="http://www.w3.org/1999/02/22-rdf-syntax-ns#" xmlns:cc="http://creativecommons.org/ns#" xmlns:dc="http://purl.org/dc/elements/1.1/" viewBox="0 0 24 24" version="1.1" id="svg10437" inkscape:version="1.1.2 (b8e25be833, 2022-02-05)" sodipodi:docname="iappCol.svg">
  <defs id="defs10431"/>
  <sodipodi:namedview id="base" pagecolor="#ffffff" bordercolor="#666666" borderopacity="1.0" inkscape:pageopacity="0.0" inkscape:pageshadow="2" inkscape:zoom="37.745303" inkscape:cx="8.8752765" inkscape:cy="17.830033" inkscape:document-units="px" inkscape:current-layer="layer1" inkscape:pagecheckerboard="0" showgrid="true" units="px" showguides="true" inkscape:guide-bbox="true" inkscape:snap-global="true" inkscape:snap-bbox="true" inkscape:snap-page="true" inkscape:window-width="1920" inkscape:window-height="1017" inkscape:window-x="-8" inkscape:window-y="-8" inkscape:window-maximized="1" inkscape:bbox-paths="true" inkscape:bbox-nodes="true" inkscape:snap-bbox-midpoints="true" inkscape:snap-bbox-edge-midpoints="true" inkscape:snap-object-midpoints="true" inkscape:snap-intersection-paths="true" inkscape:snap-grids="true">
    <sodipodi:guide position="0,22" orientation="0,1" id="guide10894" inkscape:label="" inkscape:locked="false" inkscape:color="rgb(0,0,255)"/>
    <sodipodi:guide position="22,24" orientation="-1,0" id="guide10978" inkscape:label="" inkscape:locked="false" inkscape:color="rgb(0,0,255)"/>
    <sodipodi:guide position="11.065513,2" orientation="0,1" id="guide10982" inkscape:label="" inkscape:locked="false" inkscape:color="rgb(0,0,255)"/>
    <sodipodi:guide position="2,22" orientation="-1,0" id="guide10986" inkscape:label="" inkscape:locked="false" inkscape:color="rgb(0,0,255)"/>
    <inkscape:grid type="xygrid" id="grid826"/>
    <sodipodi:guide position="11,17" orientation="0,-1" id="guide1300"/>
    <sodipodi:guide position="9,20" orientation="1,0" id="guide1523"/>
    <sodipodi:guide position="15,19" orientation="1,0" id="guide1525"/>
    <sodipodi:guide position="12.5,20.766284" orientation="0,-1" id="guide1414"/>
    <sodipodi:guide position="14.5,20.766284" orientation="0,1" id="guide1496" inkscape:label="" inkscape:locked="false" inkscape:color="rgb(0,0,255)"/>
    <sodipodi:guide position="14.5,22.766284" orientation="0,1" id="guide1500" inkscape:label="" inkscape:locked="false" inkscape:color="rgb(0,0,255)"/>
  </sodipodi:namedview>
  <metadata id="metadata10434">
    <rdf:RDF>
      <cc:Work rdf:about="">
        <dc:format>image/svg+xml</dc:format>
        <dc:type rdf:resource="http://purl.org/dc/dcmitype/StillImage"/>
      </cc:Work>
    </rdf:RDF>
  </metadata>
  <g inkscape:label="Layer 1" inkscape:groupmode="layer" id="layer1">
    <path id="rect1642" style="fill:#0071bc;fill-rule:evenodd;stroke-linecap:square;paint-order:markers stroke fill;stop-color:#000000" d="M 12.65625,8 12.83167,3.3389792 H 7.480108 L 7.448858,19.620888 12.597295,19.652138 12.656245,15 H 11.113276 C 10.938504,14.999923 10.764497,14.97694 10.595698,14.93164 10.42688,14.88659 10.264692,14.819613 10.113276,14.732421 9.961934,14.644851 9.822727,14.537823 9.699214,14.414062 9.575452,14.290549 9.46842,14.151342 9.380854,13.999999 9.293664,13.848583 9.226686,13.686395 9.181636,13.517577 9.136336,13.348778 9.113356,13.174771 9.113276,12.999999 V 9.9999998 C 9.113358,9.8252284 9.13634,9.6512205 9.181641,9.482422 9.226691,9.3136036 9.293667,9.1514158 9.380859,9 9.468425,8.8486576 9.575457,8.7094502 9.699219,8.5859375 9.822732,8.462176 9.961939,8.355144 10.113281,8.2675781 c 0.151416,-0.087192 0.313604,-0.1541683 0.482422,-0.1992187 0.168799,-0.045301 0.342806,-0.068283 0.517578,-0.068359 z" sodipodi:nodetypes="ccccccccccccccccccccc"/>
    <path id="rect850" style="color:#000000;fill:#333333;fill-rule:evenodd;stroke-width:0.999999;stroke-linecap:square;-inkscape-stroke:none;paint-order:markers stroke fill" d="M 18.001528,7.1857525 18,3 H 17.5 2 v 17 h 16 l -0.0039,-3.97132 -0.570312,0.356086 c -0.0045,0.003 -0.0091,0.0059 -0.01367,0.0088 -0.04925,0.03251 -0.100658,0.0635 -0.152344,0.09262 -0.05169,0.02911 -0.104363,0.05645 -0.158203,0.08214 -0.04611,0.02201 -0.06187,0.03388 -0.109375,0.05335 L 17,19 H 3 V 4 h 14 l -0.0033,2.5600461 c 0.0475,0.019479 0.09933,0.060221 0.145448,0.082223 0.05384,0.02569 0.106518,0.053025 0.158204,0.082135 0.05169,0.02911 0.103092,0.060113 0.152343,0.092619 0.0046,0.0029 0.0091,0.00582 0.01367,0.00875 z" sodipodi:nodetypes="cccccccccccccccccccccc"/>
    <path id="path1625" style="color:#000000;fill:#333333;stroke-width:0.999999;-inkscape-stroke:none" d="m 12,15 v 5 h 1 v -5 z" sodipodi:nodetypes="ccccc"/>
    <path id="path2787" style="color:#000000;fill:#333333;stroke-width:1;-inkscape-stroke:none" d="M 13,8 V 3.1052632 H 12 V 8 Z" sodipodi:nodetypes="ccccc"/>
    <path style="fill:none;stroke:#333333;stroke-width:1px;stroke-linecap:butt;stroke-linejoin:miter;stroke-opacity:1" d="M 7.480108,3.3389792 V 20" id="path1627" sodipodi:nodetypes="cc"/>
    <path style="fill:none;stroke:#333333;stroke-width:1px;stroke-linecap:butt;stroke-linejoin:miter;stroke-opacity:1" d="M 7,9 H 3" id="path926" sodipodi:nodetypes="cc"/>
    <path style="fill:none;stroke:#333333;stroke-width:1px;stroke-linecap:butt;stroke-linejoin:miter;stroke-opacity:1" d="M 7,14 H 2" id="path928" sodipodi:nodetypes="cc"/>
    <path d="M 20.342788,11 16.070577,7.7933175 A 0.67163594,0.67163594 0 0 0 15,8.3286063 v 6.4133657 a 0.67163594,0.67163594 0 0 0 1.070577,0.535289 l 4.272211,-3.206683 a 0.66658605,0.66658605 0 0 0 0,-1.070578 z" style="fill:#333333;stroke-width:1" id="path1020"/>
    <path id="rect1022" style="fill:#333333" d="m 17.885761,10 v 3.014969 H 11 V 10 Z"/>
  </g>
</svg>
