<?xml version="1.0"?>
<svg xmlns="http://www.w3.org/2000/svg" viewBox="0 0 24 24"><g id="Layer_2" data-name="Layer 2"><path d="M12.5,11h1L12,12.62,10,10.5,9.51,10l1.66-5H16l-2.92,5Z" style="fill:#333"/><path d="M22,2l-7.53,8h-.23l2.62-4.5L17,5.27V5c0-.3-.12-1-1.26-1H10.45l-.23.68L8.73,9.15,2,2Z" style="fill:#333"/><path d="M14,11v2.12l-.15.16-3,3-.88.89V15.89L11,13H10V10h3.08l-.58,1Z" style="fill:#333"/><path d="M12.94,15.6,14,14.54V19l-4,3V18.43A11.17,11.17,0,0,0,11.59,17Z" style="fill:#333"/><path d="M15.5,11v.47L14,13.12l-.15.16-3,3-.88.89-.16.16-.22.21a.3.3,0,0,1-.14-.11l.52-1.5L11,13H8.5l1-3,1.66-5H16l-2.92,5-.58,1Z" style="fill:#0071bc"/><path d="M15.5,11v.47L14,13.12l-.15.16-3,3-.88.89-.16.16-.22.21a.3.3,0,0,1-.14-.11l.52-1.5L11,13H8.5l1-3,1.66-5H16l-2.92,5-.58,1Z" style="fill:#0071bc"/></g></svg>
