<?xml version="1.0" encoding="UTF-8"?>
<svg data-name="Layer 2" version="1.1" viewBox="0 0 24 24" xmlns="http://www.w3.org/2000/svg">
 <g transform="matrix(-1 0 0 1 24.433 -.48416)" fill="#333333" stroke="#333333">
  <path d="m21.431 13.93-8.39-6.34a1.33 1.33 0 0 0-2.13 1.06v12.67a1.33 1.33 0 0 0 2.13 1.06l8.39-6.33a1.32 1.32 0 0 0 0-2.12z"/>
  <rect x="2.9107" y="12.15" width="13" height="6"/>
 </g>
 <path d="m23.188 4.9043v0.36636l-1.1693 1.2861-0.11692 0.12471-2.3386 2.3384-0.68596 0.69374-0.12473 0.12471-0.17149 0.16368a0.23386 0.23384 0 0 1-0.10913-0.085732l0.40534-1.1692 0.80289-2.2839h-1.9487l0.7795-2.3384 1.294-3.8974h3.7728l-2.2761 3.8974-0.45211 0.77948z" fill="#333333" stroke-width=".99999"/>
</svg>
