<?xml version="1.0" encoding="UTF-8" standalone="no"?>
<!-- Created with Inkscape (http://www.inkscape.org/) -->
<svg xmlns:inkscape="http://www.inkscape.org/namespaces/inkscape" xmlns:sodipodi="http://sodipodi.sourceforge.net/DTD/sodipodi-0.dtd" xmlns="http://www.w3.org/2000/svg" xmlns:svg="http://www.w3.org/2000/svg" xmlns:rdf="http://www.w3.org/1999/02/22-rdf-syntax-ns#" xmlns:cc="http://creativecommons.org/ns#" xmlns:dc="http://purl.org/dc/elements/1.1/" viewBox="0 0 24 24" version="1.1" id="svg10437" inkscape:version="1.1.2 (b8e25be833, 2022-02-05)" sodipodi:docname="BranchStats.svg">
  <defs id="defs10431"/>
  <sodipodi:namedview id="base" pagecolor="#ffffff" bordercolor="#666666" borderopacity="1.0" inkscape:pageopacity="0.0" inkscape:pageshadow="2" inkscape:zoom="31.076367" inkscape:cx="7.5137483" inkscape:cy="14.190848" inkscape:document-units="px" inkscape:current-layer="layer1" inkscape:pagecheckerboard="0" showgrid="true" units="px" showguides="true" inkscape:guide-bbox="true" inkscape:snap-global="true" inkscape:snap-bbox="true" inkscape:snap-page="true" inkscape:window-width="1920" inkscape:window-height="1017" inkscape:window-x="-8" inkscape:window-y="-8" inkscape:window-maximized="1" inkscape:bbox-paths="true" inkscape:bbox-nodes="true" inkscape:snap-bbox-edge-midpoints="true" inkscape:snap-bbox-midpoints="true" inkscape:snap-object-midpoints="true">
    <sodipodi:guide position="0,22" orientation="0,1" id="guide10894" inkscape:label="" inkscape:locked="false" inkscape:color="rgb(0,0,255)"/>
    <sodipodi:guide position="22,24" orientation="-1,0" id="guide10978" inkscape:label="" inkscape:locked="false" inkscape:color="rgb(0,0,255)"/>
    <sodipodi:guide position="11.065513,2" orientation="0,1" id="guide10982" inkscape:label="" inkscape:locked="false" inkscape:color="rgb(0,0,255)"/>
    <sodipodi:guide position="2,22" orientation="-1,0" id="guide10986" inkscape:label="" inkscape:locked="false" inkscape:color="rgb(0,0,255)"/>
    <sodipodi:guide position="-21.5399,20.648491" orientation="0.70710678,-0.70710678" id="guide1102"/>
    <sodipodi:guide position="-19.5399,12.648491" orientation="0,-1" id="guide1104"/>
    <sodipodi:guide position="-19.5399,12.648491" orientation="1,0" id="guide1106"/>
    <inkscape:grid type="xygrid" id="grid1387"/>
  </sodipodi:namedview>
  <metadata id="metadata10434">
    <rdf:RDF>
      <cc:Work rdf:about="">
        <dc:format>image/svg+xml</dc:format>
        <dc:type rdf:resource="http://purl.org/dc/dcmitype/StillImage"/>
      </cc:Work>
    </rdf:RDF>
  </metadata>
  <g inkscape:label="Layer 1" inkscape:groupmode="layer" id="layer1">
    <path id="path1644" style="fill:#0071bc" d="M 6.3789062,22 C 5.5083922,21.898327 4.6773455,21.566195 3.9726562,21.033203 2.7926753,20.148217 2.1357147,18.872406 2,17.550781 H 6.3789062 Z M 8.3348309,21.251066 V 15.94056 H 8.3231119 V 15.555794 H 2.7703778 c 0.182544,-1.243231 0.830257,-2.429333 1.9453125,-3.265625 0.8634151,-0.653044 1.9174418,-1.004386 3,-1 2.7614257,0 4.9999997,2.238576 4.9999997,5 0,2.551745 -1.911627,4.655935 -4.3808591,4.960938 z" sodipodi:nodetypes="ccccccccccccscc"/>
    <path id="path1909" style="color:#000000;fill:#333333;stroke-miterlimit:10;-inkscape-stroke:none" d="M 9.5390625 3.25 C 8.013163 3.25 6.7558594 4.5073036 6.7558594 6.0332031 L 6.7558594 9.0449219 C 6.7820188 9.0414916 6.8077753 9.0363486 6.8339844 9.0332031 C 6.931491 9.0215009 7.0288327 9.0116406 7.1269531 9.0039062 C 7.2250736 8.9961719 7.3232562 8.9920078 7.421875 8.9882812 C 7.5204938 8.9845547 7.6197484 8.9821008 7.71875 8.9824219 C 7.8439793 8.9824901 7.9680332 8.9857599 8.0917969 8.9921875 C 8.2155606 8.9986151 8.3387974 9.0088554 8.4609375 9.0214844 C 8.5600539 9.0317328 8.6579063 9.0443557 8.7558594 9.0585938 L 8.7558594 6.0332031 C 8.7558594 5.5881828 9.0940422 5.25 9.5390625 5.25 L 10.753906 5.25 L 10.753906 3.25 L 9.5390625 3.25 z "/>
    <rect x="12.253634" y="2" width="9.7463665" height="5.2480435" rx="1.4019773" style="fill:#333333;stroke-width:1" id="rect1084"/>
    <path id="rect1108" style="fill:#333333" d="M 14.978516 15.494141 L 20.597656 15.494141 C 21.374351 15.494141 22 14.870445 22 14.09375 L 22 11.648438 C 22 10.871741 21.374351 10.246094 20.597656 10.246094 L 13.65625 10.246094 C 13.193034 10.246094 12.784281 10.470167 12.529297 10.814453 C 12.559065 10.840688 12.5898 10.865873 12.619141 10.892578 C 12.705803 10.971456 12.790218 11.051897 12.873047 11.134766 C 12.955875 11.217634 13.038351 11.30197 13.117188 11.388672 C 13.196024 11.475373 13.272971 11.56392 13.347656 11.654297 C 13.422342 11.744673 13.494076 11.837747 13.564453 11.931641 C 13.634831 12.025534 13.70362 12.121498 13.769531 12.21875 C 13.835443 12.316002 13.897697 12.413218 13.958984 12.513672 C 14.020272 12.614125 14.080213 12.716816 14.136719 12.820312 C 14.193224 12.923809 14.247263 13.028384 14.298828 13.134766 C 14.350394 13.241148 14.398845 13.349875 14.445312 13.458984 C 14.49178 13.568094 14.536913 13.677383 14.578125 13.789062 C 14.619337 13.900742 14.657561 14.014816 14.693359 14.128906 C 14.729158 14.242997 14.760789 14.358265 14.791016 14.474609 C 14.821242 14.590954 14.84855 14.707732 14.873047 14.826172 C 14.897544 14.944612 14.920843 15.065169 14.939453 15.185547 C 14.955257 15.287772 14.967063 15.390624 14.978516 15.494141 z "/>
  </g>
</svg>
