<?xml version="1.0"?>
<svg xmlns="http://www.w3.org/2000/svg" id="Layer_2" data-name="Layer 2" viewBox="0 0 24 24"><path d="M6.5,16.69H3.93v-5c0-.6,0-1.15,0-1.65a6.56,6.56,0,0,1-.59.6l-1.06.88L1,9.94,4.22,7.32H6.5Z" style="fill:#333"/><path d="M15.35,16.69H8.55V15l2.29-2.31c.65-.68,1.08-1.15,1.28-1.4a3.41,3.41,0,0,0,.42-.64,1.39,1.39,0,0,0,.12-.57.75.75,0,0,0-.24-.58,1,1,0,0,0-.67-.21,1.81,1.81,0,0,0-.89.26,5.8,5.8,0,0,0-1,.74L8.44,8.68a7.42,7.42,0,0,1,1.22-.92,4.28,4.28,0,0,1,1.08-.43A5.16,5.16,0,0,1,12,7.18a4,4,0,0,1,1.63.32,2.56,2.56,0,0,1,1.1.92,2.29,2.29,0,0,1,.4,1.33,3.64,3.64,0,0,1-.14,1,3.33,3.33,0,0,1-.43.92,6,6,0,0,1-.76,1c-.32.33-1,1-2,1.9v.06h3.55Z" style="fill:#333"/><path d="M22.73,9.35a2.23,2.23,0,0,1-.54,1.5,2.9,2.9,0,0,1-1.53.9v0Q23,12.09,23,14a2.41,2.41,0,0,1-1,2.06,4.83,4.83,0,0,1-2.88.75,8.74,8.74,0,0,1-1.4-.11,7.27,7.27,0,0,1-1.39-.4v-2.1a5.93,5.93,0,0,0,1.25.47,5.15,5.15,0,0,0,1.18.15,2.34,2.34,0,0,0,1.21-.24.78.78,0,0,0,.38-.73.77.77,0,0,0-.2-.59,1.24,1.24,0,0,0-.64-.32,5.08,5.08,0,0,0-1.15-.11h-.58v-1.9h.59c1.29,0,1.93-.33,1.93-1A.61.61,0,0,0,20,9.4a1.44,1.44,0,0,0-.77-.18,3.44,3.44,0,0,0-1.86.61l-1.05-1.7a5.3,5.3,0,0,1,1.52-.73,6.9,6.9,0,0,1,1.79-.22,4,4,0,0,1,2.28.58A1.85,1.85,0,0,1,22.73,9.35Z" style="fill:#333"/></svg>
