<?xml version="1.0"?>
<svg xmlns="http://www.w3.org/2000/svg" id="Layer_2" data-name="Layer 2" viewBox="0 0 24 24"><path d="M7,16.38l-.41-1.56H3.9l-.42,1.56H1L3.72,8h3l2.75,8.37ZM6.14,13,5.78,11.6c-.08-.3-.18-.7-.3-1.18s-.2-.83-.24-1c0,.2-.1.52-.2,1S4.71,11.66,4.37,13Z" style="fill:#333"/><path d="M14.2,9.81a1.93,1.93,0,0,1,1.67.88,4.17,4.17,0,0,1,.62,2.45,4.26,4.26,0,0,1-.62,2.46,2,2,0,0,1-1.74.9,2.49,2.49,0,0,1-.64-.08,2,2,0,0,1-.5-.21,3.73,3.73,0,0,1-.51-.46h-.13l-.36.63H10.25V7.51h2.23v2c0,.24,0,.66-.08,1.24h.08a2.13,2.13,0,0,1,.75-.72A2.07,2.07,0,0,1,14.2,9.81Zm-.82,1.75a.78.78,0,0,0-.68.32,1.93,1.93,0,0,0-.22,1v.32a2.26,2.26,0,0,0,.22,1.13.78.78,0,0,0,.71.35.65.65,0,0,0,.6-.4,2.64,2.64,0,0,0,.21-1.19C14.22,12.08,13.94,11.56,13.38,11.56Z" style="fill:#333"/><path d="M20.71,16.5a3.16,3.16,0,0,1-2.4-.86,3.4,3.4,0,0,1-.82-2.46,3.36,3.36,0,0,1,.88-2.49,3.41,3.41,0,0,1,2.52-.88A4.64,4.64,0,0,1,23,10.3l-.65,1.64c-.27-.11-.52-.21-.75-.28a2.44,2.44,0,0,0-.71-.1,1,1,0,0,0-.84.42,2,2,0,0,0-.3,1.19c0,1,.38,1.55,1.15,1.55a3.47,3.47,0,0,0,1.88-.57v1.78A3.65,3.65,0,0,1,20.71,16.5Z" style="fill:#333"/></svg>
