<?xml version="1.0" encoding="UTF-8" standalone="no"?>
<svg
   xmlns:dc="http://purl.org/dc/elements/1.1/"
   xmlns:cc="http://creativecommons.org/ns#"
   xmlns:rdf="http://www.w3.org/1999/02/22-rdf-syntax-ns#"
   xmlns:svg="http://www.w3.org/2000/svg"
   xmlns="http://www.w3.org/2000/svg"
   id="svg9"
   version="1.1"
   viewBox="0 0 24 24">
  <metadata
     id="metadata15">
    <rdf:RDF>
      <cc:Work
         rdf:about="">
        <dc:format>image/svg+xml</dc:format>
        <dc:type
           rdf:resource="http://purl.org/dc/dcmitype/StillImage" />
        <dc:title></dc:title>
      </cc:Work>
    </rdf:RDF>
  </metadata>
  <defs
     id="defs13" />
  <path
     id="rect828"
     d="M 5.8652344 2 C 3.7243529 2 2 3.7243529 2 5.8652344 L 2 18.134766 C 2 20.275647 3.7243529 22 5.8652344 22 L 18.134766 22 C 20.275647 22 22 20.275647 22 18.134766 L 22 5.8652344 C 22 3.7243529 20.275647 2 18.134766 2 L 5.8652344 2 z M 12 4.6601562 A 7.3389831 7.3389831 0 0 1 19.339844 12 A 7.3389831 7.3389831 0 0 1 12 19.339844 A 7.3389831 7.3389831 0 0 1 4.6601562 12 A 7.3389831 7.3389831 0 0 1 12 4.6601562 z "
     clip-path="none"
     style="opacity:1;fill:#0071bc;fill-opacity:1;stroke:none;stroke-width:3.22675467;stroke-linecap:butt;stroke-miterlimit:4;stroke-dasharray:none;stroke-opacity:1;paint-order:fill markers stroke" />
  <rect
     ry="0"
     rx="0"
     y="10.779661"
     x="6.3559327"
     height="2.4406781"
     width="11.288135"
     id="rect834"
     style="opacity:1;fill:#0071bc;fill-opacity:1;stroke:none;stroke-width:0.39732438;stroke-linecap:butt;stroke-miterlimit:4;stroke-dasharray:none;stroke-opacity:1;paint-order:fill markers stroke" />
</svg>
