<?xml version="1.0" encoding="UTF-8" standalone="no"?>
<svg xmlns:rdf="http://www.w3.org/1999/02/22-rdf-syntax-ns#" xmlns="http://www.w3.org/2000/svg" version="1.1" xmlns:cc="http://creativecommons.org/ns#" xmlns:xlink="http://www.w3.org/1999/xlink" viewBox="0 0 16 16" xmlns:dc="http://purl.org/dc/elements/1.1/">
<defs>
<linearGradient id="c" y2="-2104.9" gradientUnits="userSpaceOnUse" x2="-2596.4" gradientTransform="matrix(.35401 0 0 .35044 838.93 1582.3)" y1="-2128.6" x1="-2585.9">
<stop stop-color="#dcdcdc" offset="0"/>
<stop stop-color="#fff" offset="1"/>
</linearGradient>
<filter id="e" style="color-interpolation-filters:sRGB" height="1.3315" width="1.3481" y="-.16576" x="-.17407">
<feGaussianBlur stdDeviation="0.82320991"/>
</filter>
<linearGradient id="a" y2="-2125.2" gradientUnits="userSpaceOnUse" x2="-2589.3" gradientTransform="matrix(.31920 0 0 .31597 748.88 1509)" y1="-2130.1" x1="-2584.4">
<stop stop-color="#fff" offset="0"/>
<stop stop-color="#dcdcdc" offset="1"/>
</linearGradient>
<linearGradient id="b" y2="-2104.9" gradientUnits="userSpaceOnUse" x2="-2596.4" gradientTransform="matrix(.35401 0 0 .35044 838.93 1582.3)" y1="-2128.6" x1="-2585.9">
<stop stop-color="#dfdfdf" offset="0"/>
<stop stop-color="#fff" offset="1"/>
</linearGradient>
<filter id="d" style="color-interpolation-filters:sRGB" height="1.3315" width="1.3481" y="-.16576" x="-.17407">
<feGaussianBlur stdDeviation="0.82320991"/>
</filter>
</defs>
<metadata>
<rdf:RDF>
<cc:Work rdf:about="">
<dc:format>image/svg+xml</dc:format>
<dc:type rdf:resource="http://purl.org/dc/dcmitype/StillImage"/>
<dc:title/>
</cc:Work>
</rdf:RDF>
</metadata>
<g transform="translate(-36.304 -231.76)">
<g transform="translate(188.74 -632.88)">
<g fill-rule="evenodd" transform="matrix(.76061 0 0 .76061 -86.255 230.27)" stroke="#666">
<path d="m-85.847 834.41h7.4607l3.7543 3.9023-0.08477 10.715h-11.13v-14.617z" stroke-width=".51007" fill="url(#c)"/>
<path stroke-linejoin="round" d="m-2829.3-1828.3c1.0683 4.7916 0.3837 8.5401-0.06 10.889 2.6346-0.6545 5.7398-1.3853 10.35 0.03-4.9699-5.5487-6.9971-7.2565-10.29-10.919z" transform="matrix(.31920 0 0 .31597 824.74 1412.6)" filter="url(#e)" stroke-width="1.6061" fill="#d3d3d3"/>
<path stroke-linejoin="round" d="m-78.164 834.64c0.34102 1.514 0.12249 2.6984-0.01908 3.4407 0.84097-0.20682 1.8321-0.43775 3.3038 0.009-1.5864-1.7532-2.2335-2.2928-3.2847-3.4501z" stroke-width=".51007" fill="url(#a)"/>
<g transform="translate(7.3241 5.8)">
<path d="m-85.847 834.41h7.4607l3.7543 3.9023-0.08477 10.715h-11.13v-14.617z" stroke-width=".51007" fill="url(#b)"/>
<path stroke-linejoin="round" d="m-2829.3-1828.3c1.0683 4.7916 0.3837 8.5401-0.06 10.889 2.6346-0.6545 5.7398-1.3853 10.35 0.03-4.9699-5.5487-6.9971-7.2565-10.29-10.919z" transform="matrix(.31920 0 0 .31597 824.74 1412.6)" filter="url(#d)" stroke-width="1.6061" fill="#d3d3d3"/>
<path stroke-linejoin="round" d="m-78.164 834.64c0.34102 1.514 0.12249 2.6984-0.01908 3.4407 0.84097-0.20682 1.8321-0.43775 3.3038 0.009-1.5864-1.7532-2.2335-2.2928-3.2847-3.4501z" stroke-width=".51007" fill="url(#a)"/>
</g>
</g>
<rect style="color:#000000" height="16" width="16" y="864.65" x="-152.43" fill="none"/>
</g>
</g>
</svg>
