<svg xmlns="http://www.w3.org/2000/svg" viewBox="0 0 24 24"><g id="Layer_2" data-name="Layer 2"><polygon points="22 2 17.81 6.45 16.66 5.3 15.95 6.01 11.97 10 10.71 11.25 10 11.97 10 10.5 2 2 22 2" style="fill:#333"/><polygon points="13.27 15.76 14 15.03 14 19 10 22 10 18.63 10.42 18.48 10.64 18.41 10.8 18.24 11.74 17.29 13.27 15.76" style="fill:#333"/><path d="M10.09,17.54l-.09,0-2,.69a.47.47,0,0,1-.17,0,.63.63,0,0,1-.59-.79L8,15.42Z" style="fill:#0071bc"/><polygon points="8.91 14.47 10 13.39 13.39 10 16.66 6.72 17.12 7.18 18.78 8.84 11.03 16.59 8.91 14.47" style="fill:#0071bc"/></g></svg>