<?xml version="1.0" encoding="UTF-8" standalone="no"?>
<svg xmlns:inkscape="http://www.inkscape.org/namespaces/inkscape" xmlns:sodipodi="http://sodipodi.sourceforge.net/DTD/sodipodi-0.dtd" xmlns:xlink="http://www.w3.org/1999/xlink" xmlns="http://www.w3.org/2000/svg" xmlns:svg="http://www.w3.org/2000/svg" viewBox="0 0 24 24" version="1.1" id="svg37635" sodipodi:docname="EditDetailsInDialogAction_.svg" inkscape:version="1.1.2 (b8e25be833, 2022-02-05)">
  <defs id="defs37639">
    <inkscape:path-effect effect="offset" id="path-effect1038" is_visible="true" lpeversion="1" linejoin_type="miter" unit="mm" offset="0.019474025" miter_limit="4" attempt_force_join="false" update_on_knot_move="true"/>
    <linearGradient id="d" y2="446.77" xlink:href="#e" gradientUnits="userSpaceOnUse" x2="215.36" gradientTransform="matrix(0.99094,0,0,1.0073,134.73,-154.36)" y1="440.75" x1="209.71"/>
    <linearGradient id="e">
      <stop stop-color="#f70000" offset="0" id="stop845"/>
      <stop stop-color="#780000" offset="1" id="stop847"/>
    </linearGradient>
    <linearGradient id="c" y2="449.6" xlink:href="#f" gradientUnits="userSpaceOnUse" x2="194.27" gradientTransform="matrix(0.99094,0,0,1.0073,134.73,-154.36)" y1="456.24" x1="202.53"/>
    <linearGradient id="f">
      <stop stop-color="#baa492" offset="0" id="stop851"/>
      <stop stop-color="#fff" offset="1" id="stop853"/>
    </linearGradient>
    <linearGradient id="b" y2="449.64" xlink:href="#h" gradientUnits="userSpaceOnUse" x2="193.04" gradientTransform="matrix(0.99094,0,0,1.0073,134.73,-154.36)" y1="457.89" x1="203.5"/>
    <linearGradient id="h">
      <stop offset="0" id="stop857"/>
      <stop stop-color="#7e7e7e" offset="1" id="stop859"/>
    </linearGradient>
    <linearGradient id="a" y2="462.65" xlink:href="#g" gradientUnits="userSpaceOnUse" x2="196.75" gradientTransform="matrix(0.99094,0,0,1.0073,134.73,-154.36)" y1="458.87" x1="193.01"/>
    <linearGradient id="g">
      <stop stop-color="#c00000" offset="0" id="stop863"/>
      <stop offset="1" id="stop865"/>
    </linearGradient>
    <inkscape:path-effect effect="offset" id="path-effect1038-2" is_visible="true" lpeversion="1" linejoin_type="miter" unit="mm" offset="0.019474025" miter_limit="4" attempt_force_join="false" update_on_knot_move="true"/>
    <inkscape:path-effect effect="offset" id="path-effect1038-9" is_visible="true" lpeversion="1" linejoin_type="miter" unit="mm" offset="0.019474025" miter_limit="4" attempt_force_join="false" update_on_knot_move="true"/>
    <inkscape:path-effect effect="offset" id="path-effect1038-1" is_visible="true" lpeversion="1" linejoin_type="miter" unit="mm" offset="0.019474025" miter_limit="4" attempt_force_join="false" update_on_knot_move="true"/>
  </defs>
  <sodipodi:namedview id="namedview37637" pagecolor="#ffffff" bordercolor="#666666" borderopacity="1.0" inkscape:pageshadow="2" inkscape:pageopacity="0.0" inkscape:pagecheckerboard="0" showgrid="true" showguides="true" inkscape:guide-bbox="true" inkscape:snap-nodes="true" inkscape:snap-others="true" inkscape:zoom="3.8004938" inkscape:cx="-111.95914" inkscape:cy="-15.787422" inkscape:window-width="1920" inkscape:window-height="1017" inkscape:window-x="-8" inkscape:window-y="-8" inkscape:window-maximized="1" inkscape:current-layer="svg37635">
    <inkscape:grid type="xygrid" id="grid37698"/>
    <sodipodi:guide position="2,2" orientation="0,-1" id="guide37700"/>
    <sodipodi:guide position="2,22" orientation="0,-1" id="guide37702"/>
    <sodipodi:guide position="2,22" orientation="1,0" id="guide37704"/>
    <sodipodi:guide position="22,22" orientation="1,0" id="guide37708"/>
  </sodipodi:namedview>
  <g id="g41958" transform="translate(0,-1)">
    <g id="Layer_2" data-name="Layer 2" transform="translate(0,-3)">
      <path id="rect37628" style="fill:#0071bc" d="M 15.726562 13 L 19.490234 13 C 20.880774 13 22 11.880774 22 10.490234 L 22 6.7148438 L 16.892578 11.830078 L 15.726562 13 z " transform="translate(0,4)"/>
      <path id="path1857" style="fill:#0071bc" d="M 4.5097656 3 C 3.1192256 3 2 4.1192256 2 5.5097656 L 2 10.490234 C 2 11.880774 3.1192256 13 4.5097656 13 L 8.0039062 13 C 8.0084563 12.973155 8.009978 12.946723 8.015625 12.919922 A 1.8201131 1.8201131 0 0 1 8.0878906 12.669922 L 8.8476562 10.589844 A 1.8201131 1.8201131 0 0 1 9.0546875 10.183594 A 1.8201131 1.8201131 0 0 1 9.3574219 9.84375 A 1.8201131 1.8201131 0 0 1 9.734375 9.5898438 A 1.8201131 1.8201131 0 0 1 9.9921875 9.4980469 A 1.9281809 1.9281809 0 0 1 10.015625 9.3808594 A 1.9281809 1.9281809 0 0 1 10.208984 8.9140625 A 1.9281809 1.9281809 0 0 1 10.515625 8.515625 L 12.183594 6.8554688 L 16.025391 3 L 4.5097656 3 z " transform="translate(0,4)"/>
    </g>
    <rect style="fill:#333333;stroke-width:2;stroke-linecap:square;paint-order:markers stroke fill;stop-color:#000000" id="rect38119" width="2" height="2" x="3" y="16" rx="0" ry="0.44582042"/>
    <rect style="fill:#333333;fill-opacity:1;stroke-width:2;stroke-linecap:square;paint-order:markers stroke fill;stop-color:#000000" id="rect38281" width="2" height="2" x="3" y="20" rx="0" ry="0.44582042"/>
    <rect style="fill:#333333;fill-opacity:1;stroke-width:2;stroke-linecap:square;paint-order:markers stroke fill;stop-color:#000000" id="rect38283" width="2" height="2" x="11" y="20" rx="0" ry="0.44582042"/>
    <rect style="fill:#333333;fill-opacity:1;stroke-width:2;stroke-linecap:square;paint-order:markers stroke fill;stop-color:#000000" id="rect38285" width="2" height="2" x="7" y="20" rx="0" ry="0.44582042"/>
    <rect style="fill:#333333;fill-opacity:1;stroke-width:2;stroke-linecap:square;paint-order:markers stroke fill;stop-color:#000000" id="rect41934" width="2" height="2" x="15" y="20" rx="0" ry="0.44582042"/>
    <rect style="fill:#333333;fill-opacity:1;stroke-width:2;stroke-linecap:square;paint-order:markers stroke fill;stop-color:#000000" id="rect41936" width="2" height="2" x="19" y="20" rx="0" ry="0.44582042"/>
    <rect style="fill:#333333;stroke-width:2;stroke-linecap:square;paint-order:markers stroke fill;stop-color:#000000" id="rect41938" width="2" height="2" x="7" y="16" rx="0" ry="0.44582042"/>
    <rect style="fill:#333333;stroke-width:2;stroke-linecap:square;paint-order:markers stroke fill;stop-color:#000000" id="rect41940" width="2" height="2" x="11" y="16" rx="0" ry="0.44582042"/>
    <rect style="fill:#333333;stroke-width:2;stroke-linecap:square;paint-order:markers stroke fill;stop-color:#000000" id="rect41942" width="2" height="2" x="15" y="16" rx="0" ry="0.44582042"/>
    <rect style="fill:#333333;stroke-width:2;stroke-linecap:square;paint-order:markers stroke fill;stop-color:#000000" id="rect41944" width="2" height="2" x="19" y="16" rx="0" ry="0.44582042"/>
  </g>
  <g id="g10443" transform="translate(-26.608543,-2.434658)">
    <g id="g10321" transform="rotate(-0.33709486,32.568864,9.5284568)">
      <g id="g10215" transform="rotate(-44.598787,42.143649,13.003575)">
        <path id="path10007" style="fill:#0071bc;fill-opacity:1" sodipodi:type="inkscape:offset" inkscape:radius="0" inkscape:original="M 17.449219 1.9492188 L 11.369141 8.0390625 L 9.6992188 9.6992188 L 11.820312 11.820312 L 13.349609 10.289062 L 19.570312 4.0703125 L 17.449219 1.9492188 z " transform="rotate(44.881979,24.528864,46.494645)" d="m 17.449219,1.9492188 -6.080078,6.0898437 -1.6699222,1.6601563 2.1210932,2.1210932 1.529297,-1.53125 6.220703,-6.2187495 z"/>
      </g>
    </g>
    <path d="m 37.163638,13.648202 2.12,2.12 -2.08,0.72 a 0.47,0.47 0 0 1 -0.17,0 0.63,0.63 0 0 1 -0.63,-0.76 z" style="fill:#333333" id="path10011"/>
  </g>
</svg>
