<?xml version="1.0" encoding="UTF-8"?>
<!-- Created with Inkscape (http://www.inkscape.org/) -->
<svg version="1.1" viewBox="0 0 24 24" xmlns="http://www.w3.org/2000/svg" xmlns:cc="http://creativecommons.org/ns#" xmlns:dc="http://purl.org/dc/elements/1.1/" xmlns:rdf="http://www.w3.org/1999/02/22-rdf-syntax-ns#">
 <metadata>
  <rdf:RDF>
   <cc:Work rdf:about="">
    <dc:format>image/svg+xml</dc:format>
    <dc:type rdf:resource="http://purl.org/dc/dcmitype/StillImage"/>
   </cc:Work>
  </rdf:RDF>
 </metadata>
 <path d="m3.1342 9.7854a0.52827 0.52827 0 0 0-0.52827 0.52827v1.4197a0.52827 0.52827 0 0 0 0.52827 0.52827h4.7215a0.52827 0.52827 0 0 0 0.52827-0.52827v-1.4197a0.52827 0.52827 0 0 0-0.52827-0.52827h-4.7215m0-0.82543h4.7215a1.362 1.362 0 0 1 1.3537 1.3537v1.4197a1.3537 1.3537 0 0 1-1.3537 1.3537h-4.7215a1.3454 1.3454 0 0 1-1.3537-1.3537v-1.4197a1.3537 1.3537 0 0 1 1.3537-1.3537z" fill="#0071bc"/>
 <path d="m3.1342 18.011a0.52827 0.52827 0 0 0-0.52827 0.52828v1.4197a0.52827 0.52827 0 0 0 0.52827 0.52827h4.7215a0.52827 0.52827 0 0 0 0.52827-0.52827v-1.4197a0.52827 0.52827 0 0 0-0.52827-0.52828h-4.7215m0-0.82543h4.7215a1.362 1.362 0 0 1 1.3537 1.3537v1.4197a1.3537 1.3537 0 0 1-1.3537 1.3537h-4.7215a1.3454 1.3454 0 0 1-1.3537-1.3537v-1.4197a1.3537 1.3537 0 0 1 1.3537-1.3537z" fill="#0071bc"/>
 <path d="m22.339 15.101a6.5126 5.1218 0 0 1-6.3971 5.1932h-2.6826v1.2983l-4.1271-2.272 4.1271-2.272v1.2983h2.6826a4.0281 3.1678 0 0 0 3.9208-3.2458 4.0281 3.1678 0 0 0-3.9208-3.2458h-2.6826v1.2983l-4.1271-2.272 4.1271-2.272v1.2983h2.6826a6.5126 5.1218 0 0 1 6.3971 5.1932z" fill="#0071bc"/>
 <g transform="matrix(.59037 0 0 .77246 12.519 -.46828)" fill="#333333" stroke="#333333" stroke-width="1.4807" data-name="Layer 2">
  <g transform="translate(-4.6828 .13788)" stroke-width="1.4807">
   <polygon points="22 2 2 2 12 12.62"/>
   <polygon points="10 22 10 10 14 10 14 19"/>
  </g>
 </g>
</svg>
