<?xml version="1.0"?>
<svg xmlns="http://www.w3.org/2000/svg" viewBox="0 0 24 24"><g id="Layer_2" data-name="Layer 2"><path d="M7,6V7.72A2.28,2.28,0,0,0,9.28,10H15a1.27,1.27,0,0,1-1.24,1H7.28A1.28,1.28,0,0,1,6,9.72V7.28A1.27,1.27,0,0,1,7,6Z" style="fill:#0071bc"/><path d="M10,6a.86.86,0,0,1,0-.28V5.5h3.72A1.77,1.77,0,0,1,15.47,7H11.28A1.27,1.27,0,0,1,10,6Z" style="fill:#0071bc"/><path d="M15.5,8V9H9.28A1.28,1.28,0,0,1,8,7.72V5.5H9v.22A2.46,2.46,0,0,0,9,6a2.28,2.28,0,0,0,2.26,2Z" style="fill:#0071bc"/><path d="M9,5.72V5H8a.86.86,0,0,0,0,.28V6H9A2.46,2.46,0,0,1,9,5.72ZM13.72,5H10v.72A.86.86,0,0,0,10,6h3.68A1.27,1.27,0,0,1,15,7h1A2.28,2.28,0,0,0,13.72,5ZM15,8V9h.72A.86.86,0,0,0,16,9V8Z" style="fill:#fff"/><path d="M17,8a1.24,1.24,0,0,1-1,1,.86.86,0,0,1-.28,0H9.28A1.28,1.28,0,0,1,8,7.72V5.28A.86.86,0,0,1,8,5,1.24,1.24,0,0,1,9,4V5.72A2.46,2.46,0,0,0,9,6a2.28,2.28,0,0,0,2.26,2Z" style="fill:#0071bc"/><path d="M17.5,5.28V7H11.28A1.27,1.27,0,0,1,10,6a.86.86,0,0,1,0-.28V3.5h5.72A1.78,1.78,0,0,1,17.5,5.28Z" style="fill:#0071bc"/><path d="M15.72,3H10a.86.86,0,0,0,0,.28V4h5.72A1.28,1.28,0,0,1,17,5.28V7h.72A.86.86,0,0,0,18,7V5.28A2.28,2.28,0,0,0,15.72,3Z" style="fill:#fff"/><path d="M19,3.28V5.72A1.27,1.27,0,0,1,18,7a.86.86,0,0,1-.28,0H11.28A1.27,1.27,0,0,1,10,6a.86.86,0,0,1,0-.28V3.28A.86.86,0,0,1,10,3a1.27,1.27,0,0,1,1.24-1h6.44A1.28,1.28,0,0,1,19,3.28Z" style="fill:#0071bc"/><polygon points="17 12 13 16.67 12 17.84 11 16.67 7 12 17 12" style="fill:#333"/><polygon points="11 15 13 15 13 20 11 22 11 15" style="fill:#333"/></g></svg>
