<svg xmlns="http://www.w3.org/2000/svg" viewBox="0 0 24 24"><g id="Layer_2" data-name="Layer 2"><path d="M13.65,14.47l-2.9-2.66A3,3,0,0,1,8,16,3,3,0,1,1,9,10.16L7.65,9,6,7.5l.28-.26A6,6,0,0,0,8,19a5.91,5.91,0,0,0,3.12-.88,5.3,5.3,0,0,0,1.12-.88,5.3,5.3,0,0,0,.88-1.12,5.49,5.49,0,0,0,.66-1.53ZM9.37,7.16,9,7.5,13.91,12A6,6,0,0,0,9.37,7.16Z" style="fill:#333"/><rect x="11.92" y="15.98" width="2.83" height="4.71" transform="translate(-9.06 14.8) rotate(-45)" style="fill:#333"/><polygon points="21 4 21 10 15 10 15 13 13.91 12 9 7.5 9.37 7.16 15 2 15 4 21 4" style="fill:#0071bc"/></g></svg>