<?xml version="1.0"?>
<svg xmlns="http://www.w3.org/2000/svg" id="Layer_2" data-name="Layer 2" viewBox="0 0 24 24"><path d="M19,13.73v3.49A1.78,1.78,0,0,1,17.22,19H6.78A1.78,1.78,0,0,1,5,17.22V6.78A1.78,1.78,0,0,1,6.78,5h3.49a2.82,2.82,0,0,1-.15-2H6.78A3.79,3.79,0,0,0,3,6.78V17.22A3.79,3.79,0,0,0,6.78,21H17.22A3.79,3.79,0,0,0,21,17.22V13.88a2.77,2.77,0,0,1-2-.15ZM17.22,3H12.81a.8.8,0,0,0-.57,1.37l.63.63h4.35A1.78,1.78,0,0,1,19,6.78v4.35l.63.63a.75.75,0,0,0,.56.24.81.81,0,0,0,.81-.81V6.78A3.79,3.79,0,0,0,17.22,3Z" style="fill:#333"/><path d="M21,3.81v7.38a.81.81,0,0,1-.81.81.75.75,0,0,1-.56-.24L19,11.13,17.83,10l-.49-.49-.7.71-.71.7-4.52,4.52L8.59,12.59l4.52-4.52.71-.7.7-.71L14,6.17,12.87,5l-.63-.63A.8.8,0,0,1,12.81,3h7.38A.81.81,0,0,1,21,3.81Z" style="fill:#0071bc"/></svg>
