<?xml version="1.0"?>
<svg xmlns="http://www.w3.org/2000/svg" id="Layer_2" data-name="Layer 2" viewBox="0 0 24 24"><path d="M18,11.76v5.62A1.63,1.63,0,0,1,16.38,19H6.62A1.63,1.63,0,0,1,5,17.38V7.62A1.63,1.63,0,0,1,6.62,6h6l2-2h-8A3.62,3.62,0,0,0,3,7.62v9.76A3.62,3.62,0,0,0,6.62,21h9.76A3.62,3.62,0,0,0,20,17.38V9.76Z" style="fill:#333"/><path d="M11.62,15.24a.09.09,0,0,1,0,.15l-2.47.71a.47.47,0,0,1-.17,0H8.91a.93.93,0,0,1-.82-1.06l.72-2.46a.07.07,0,0,1,.07-.06.11.11,0,0,1,.08,0Z" style="fill:#0071bc"/><polygon points="21.46 5.46 18 8.92 14.37 12.56 12.63 14.3 9.88 11.55 11.79 9.66 15.44 6 17.32 4.12 18.72 2.72 21.46 5.46" style="fill:#0071bc"/></svg>
