<?xml version="1.0"?>
<svg xmlns="http://www.w3.org/2000/svg" id="Layer_2" data-name="Layer 2" viewBox="0 0 24 24"><path d="M21.06,10.38l-1.8-.22a6.71,6.71,0,0,0-.83-2l1.12-1.43a1.08,1.08,0,0,0-.09-1.42l-.78-.78a1.08,1.08,0,0,0-1.42-.09L15.83,5.57a6.71,6.71,0,0,0-2-.83l-.22-1.8A1.08,1.08,0,0,0,12.55,2h-1.1a1.08,1.08,0,0,0-1.07.94l-.22,1.8a6.71,6.71,0,0,0-2,.83L6.74,4.45a1.08,1.08,0,0,0-1.42.09l-.78.78a1.08,1.08,0,0,0-.09,1.42L5.57,8.17a6.71,6.71,0,0,0-.83,2l-1.8.22A1.08,1.08,0,0,0,2,11.45v1.1a1.08,1.08,0,0,0,.94,1.07l1.8.22a6.71,6.71,0,0,0,.83,2L4.45,17.26a1.08,1.08,0,0,0,.09,1.42l.78.78a1.08,1.08,0,0,0,1.42.09l1.43-1.12a6.71,6.71,0,0,0,2,.83l.22,1.8a1.08,1.08,0,0,0,1.07.94h1.1a1.08,1.08,0,0,0,1.07-.94l.22-1.8a6.71,6.71,0,0,0,2-.83l1.43,1.12a1.08,1.08,0,0,0,1.42-.09l.78-.78a1.08,1.08,0,0,0,.09-1.42l-1.12-1.43a6.71,6.71,0,0,0,.83-2l1.8-.22A1.08,1.08,0,0,0,22,12.55v-1.1A1.08,1.08,0,0,0,21.06,10.38ZM12,16a4,4,0,1,1,4-4A4,4,0,0,1,12,16Z" style="fill:#333"/></svg>
