<?xml version="1.0"?>
<svg xmlns="http://www.w3.org/2000/svg" id="Layer_2" data-name="Layer 2" viewBox="0 0 24 24"><path d="M15.21,5.82,13.72,7.31l-.15.15L12,9h0a3,3,0,0,0-3,3v0L7.31,13.72a5,5,0,0,1,2.13-6A8.39,8.39,0,0,0,6.05,9.77L3.83,12l2.22,2.23q.19.19.39.36L5,16H5l-.38-.37L1,12,4.64,8.36A10.39,10.39,0,0,1,15.21,5.82Z" style="fill:#999"/><path d="M23,12l-3.64,3.64A10.39,10.39,0,0,1,8.79,18.18l1.49-1.49.15-.15L12,15h0a3,3,0,0,0,3-3v0l1.69-1.69a5,5,0,0,1-2.13,6A8.39,8.39,0,0,0,18,14.23L20.17,12,18,9.77q-.19-.19-.39-.36L19,8l.38.37Z" style="fill:#999"/><polygon points="21 4.55 16.76 8.79 16.22 9.33 14.74 10.81 4.55 21 3 19.45 5.8 16.65 7.24 15.21 7.78 14.67 13.19 9.26 14.67 7.78 14.7 7.75 16.24 6.21 19.45 3 21 4.55" style="fill:#0071bc"/><path d="M9.33,16.22a.41.41,0,0,0,.11.07l-.14,0Z" style="fill:#0071bc"/><path d="M14.7,7.75l0,0a.41.41,0,0,0-.11-.07Z" style="fill:#0071bc"/><path d="M9.33,16.22l0,0,.14,0A.41.41,0,0,1,9.33,16.22Zm5.23-8.51a.41.41,0,0,1,.11.07l0,0Z" style="fill:#0071bc"/></svg>
