<?xml version="1.0" encoding="UTF-8" standalone="no"?>
<svg
   xmlns:dc="http://purl.org/dc/elements/1.1/"
   xmlns:cc="http://creativecommons.org/ns#"
   xmlns:rdf="http://www.w3.org/1999/02/22-rdf-syntax-ns#"
   xmlns:svg="http://www.w3.org/2000/svg"
   xmlns="http://www.w3.org/2000/svg"
   height="15.78941"
   width="16"
   y="0px"
   x="0px"
   xml:space="preserve"
   version="1.1"
   viewBox="0 0 16 15.78941"
   id="false"><metadata
     id="metadata13"><rdf:RDF><cc:Work
         rdf:about=""><dc:format>image/svg+xml</dc:format><dc:type
           rdf:resource="http://purl.org/dc/dcmitype/StillImage" /><dc:title></dc:title></cc:Work></rdf:RDF></metadata><defs
     id="defs11" /><g
     style="fill:#5c5c5c;fill-opacity:1"
     transform="matrix(0.16374269,0,0,0.16374269,-0.1871345,-0.2924295)"
     id="g6"><path
       style="fill:#5c5c5c;fill-opacity:1"
       id="path2"
       d="m 20.7798,85 9.5303,-9.7998 c 2.9101,1.3896 5.8398,2.3896 8.6699,3.0596 2.5801,0.6303 5.1601,0.9404 7.7402,1.2002 l 5.3999,0.0498 C 55.46,79.3101 58.79,78.8398 62.1299,78 c 2.1201,-0.5698 4.3403,-1.2998 6.4702,-2.1899 6.5098,-2.6499 14.75,-8.75 19.6001,-16.4102 0.77,-1.21 3.1597,-5.1499 4.1099,-7.8901 0.2797,-0.46 0.4399,-1.0196 0.4399,-1.6299 0,-0.52 -0.1001,-1.1499 -0.3501,-1.7197 -1.52,-3.2403 -3.5498,-6.48 -5.9199,-9.6602 -2.2798,-2.9199 -5.8198,-6.6299 -8.71,-8.8198 -0.6201,-0.48 -1.23,-0.94 -1.8501,-1.3804 l 8.48,-8.7197 C 87.3599,16.54 82.9399,11.96 79.98,15 l -9.6802,9.9502 C 67.1899,23.3999 64.0601,22.3101 61.0298,21.5898 58.4502,20.96 55.8701,20.6499 53.29,20.3901 l -5.4101,-0.0503 c -3.3399,0.2002 -6.6797,0.67 -10.02,1.5103 -2.1299,0.5698 -4.3501,1.2998 -6.48,2.1899 -6.52,2.6602 -14.77,8.7701 -19.6299,16.44 -0.96,1.52 -4.5,7.3598 -4.5,9.7099 0,0.71 0.21,1.4302 0.6201,1.9903 1.4898,3.0796 3.4297,6.1596 5.6997,9.1997 2.27,2.9199 5.8101,6.6201 8.69,8.81 0.79,0.6001 1.5903,1.19 2.3701,1.73 l -8.27,8.5 C 13.3999,83.46 17.8198,88.04 20.7798,85 Z M 34.7202,70.6699 39.7002,65.54 C 42.6099,67.7202 46.1699,69 50,69 c 9.8799,0 17.8999,-8.5098 17.8999,-19 0,-3.8501 -1.0801,-7.4399 -2.9399,-10.4302 l 6.7802,-6.98 c 2.3697,1.5601 4.7398,3.5 6.8897,5.75 3.5801,3.75 6.2402,7.7002 8.1001,11.4502 -0.1802,0.4898 -0.3701,0.9898 -0.6001,1.4302 -0.6099,1.0899 -1.1597,2.3399 -1.8701,3.4898 -1.6197,2.6499 -3.7398,5.4702 -6.4698,8.08 -2.4199,2.2901 -5.1001,4.2198 -7.4799,5.5699 -6.1099,3.4399 -12.1202,4.8003 -18.2403,5.2099 h -4.2397 c -0.96,0 -5.46,-0.6699 -5.5103,-0.6699 -0.5097,-0.0601 -1.0097,-0.21 -1.52,-0.3198 -2.02,-0.44 -4.0596,-1.0801 -6.0796,-1.9102 z M 43.8701,61.2598 60.75,43.8999 c 0.7002,1.7202 1.0601,3.77 1.0601,6.1001 0,8.0098 -4.2701,12.5898 -11.8101,12.5898 -2.3799,0 -4.4399,-0.4497 -6.1299,-1.33 z M 65.9199,29.46 60.73,34.79 C 57.7402,32.4102 54.0298,31 50,31 c -9.8799,0 -17.8999,8.5098 -17.8999,19 0,4.0601 1.1997,7.8101 3.2397,10.8999 l -6.54,6.7202 C 26.2598,66 23.71,63.9502 21.3999,61.5298 c -3.6099,-3.77 -6.27,-7.75 -8.1401,-11.52 0.1704,-0.4698 0.3501,-0.92 0.5703,-1.3296 0.6001,-1.1001 1.1601,-2.3501 1.8701,-3.5 1.6196,-2.6602 3.7397,-5.48 6.4697,-8.0904 2.4302,-2.2998 5.1099,-4.2299 7.4903,-5.58 6.1196,-3.4497 12.1396,-4.8096 18.27,-5.2198 h 4.25 c 0.9599,0 5.4599,0.67 5.5097,0.67 0.5103,0.06 1.0103,0.2099 1.5201,0.3198 2.2299,0.48 4.4902,1.2202 6.7099,2.1802 z M 56.6201,39.02 39.48,56.6401 C 38.6299,54.8101 38.1899,52.5801 38.1899,50 38.1899,41.9902 42.46,37.4102 50,37.4102 c 2.6201,0 4.8301,0.56 6.6201,1.6098 z" /><path
       style="fill:#5c5c5c;fill-opacity:1"
       id="path4"
       d="m 8.6401,50.4702 c 4.9898,9.98 10.69,16.4297 16.2901,20.5899 l -8.3101,8.3198 c -1.1699,1.1699 -1.2202,3.02 -0.1201,4.1201 1.1001,1.1001 2.9502,1.0498 4.1201,-0.1201 l 9.1997,-9.21 c 8.6402,4.6402 16.4302,4.5 20.1802,4.5 6.8101,0 27.0298,0.4702 41.3599,-28.1997 C 86.2598,40.2598 80.4102,33.6299 74.6802,29.3101 l 8.6997,-8.69 c 1.1699,-1.1699 1.2202,-3.02 0.1201,-4.1201 -1.1001,-1.1001 -2.9502,-1.0498 -4.1201,0.1201 l -9.5498,9.5401 c -8.5,-4.69 -16.1299,-4.8301 -19.8301,-4.8301 -6.8101,0 -27.02,0.4697 -41.3599,29.1401 z m 6.2701,-0.0903 C 26.3799,27.4399 44.5498,27.0601 50,27.0601 c 2.7798,0 8.8701,0.1001 15.6899,3.2397 l -5.8398,5.8501 C 57.0801,34.1602 53.6699,33 50,33 c -9.3901,0 -17,7.6099 -17,17 0,3.6699 1.1602,7.0801 3.1499,9.8501 l -7.2598,7.2598 C 23.96,63.79 19.0098,58.5698 14.9102,50.3799 Z M 70.7998,33.2002 c 5.0303,3.4399 10.1001,8.8096 14.29,17.1797 -11.4697,22.9302 -29.6396,22.56 -35.0898,22.56 -2.8198,0 -9.0298,0.1001 -15.9702,-2.9799 l 6.1201,-6.1099 C 42.9199,65.8398 46.3301,67 50,67 c 9.3901,0 17,-7.6099 17,-17 0,-3.6699 -1.1602,-7.0801 -3.1499,-9.8501 z m -14.79,6.79 -16.0196,16.0196 C 38.9302,54.25 38.3198,52.2002 38.3198,50 c 0,-6.4502 5.23,-11.6802 11.6802,-11.6802 2.2002,0 4.25,0.6104 6.0098,1.6704 z M 43.9902,60.0098 60.0098,43.9902 c 1.06,1.7598 1.6704,3.8096 1.6704,6.0098 0,6.4502 -5.23,11.6802 -11.6802,11.6802 -2.2002,0 -4.25,-0.6104 -6.0098,-1.6704 z" /></g><path
     id="path4514"
     d="M 4.47954,10.648748 C 3.7295314,10.117152 3.1160334,9.4391527 2.5913328,8.562021 2.4978092,8.4056794 2.3261921,8.0956077 2.2780852,7.9960563 l -0.019022,-0.039363 0.036487,-0.072863 C 2.3628829,7.7493671 2.4957498,7.5102519 2.5998674,7.336162 3.3012514,6.1634128 4.1899292,5.2988232 5.2392273,4.7683436 5.9595901,4.4041594 6.6873097,4.209476 7.5310911,4.1552121 c 0.17524,-0.01127 0.7710318,-0.011293 0.9411236,-3.69e-5 0.6966953,0.046105 1.3319208,0.1924043 1.9274533,0.443912 l 0.0973,0.041091 -0.300615,0.3077383 C 10.031013,5.1171726 9.8648588,5.2880049 9.8271198,5.327544 L 9.7585038,5.399433 9.7023908,5.357018 C 9.2862691,5.0424765 8.8075,4.8529072 8.2779765,4.7930191 8.1608545,4.7797729 7.8418894,4.7796284 7.7254766,4.7927688 7.1615266,4.8564264 6.6700513,5.0596675 6.2276841,5.412155 6.0416223,5.5604129 5.8017216,5.815934 5.6572009,6.0197833 4.9241047,7.0538299 4.8679468,8.4568107 5.5158282,9.5516663 l 0.06199,0.1047568 -0.516739,0.5167929 c -0.2842065,0.284236 -0.5186936,0.516458 -0.5210824,0.516048 -0.00239,-4.09e-4 -0.029594,-0.01864 -0.060457,-0.04052 z"
     style="fill:#ffffff;fill-opacity:1;stroke-width:0.00863281" /><path
     id="path4516"
     d="M 6.3444482,8.8418137 C 6.3022517,8.7745695 6.2282214,8.6088684 6.1921599,8.5009486 6.1476531,8.3677554 6.1175041,8.2308011 6.102219,8.0923852 6.0888881,7.9716654 6.0957304,7.705712 6.1151228,7.5908299 6.261878,6.7214414 6.9634451,6.0723421 7.8420196,5.9930819 8.104974,5.9693596 8.4052901,6.0100733 8.6594168,6.1038961 8.7666734,6.143495 8.9373327,6.2280187 8.9338062,6.2397951 8.9301002,6.2521712 6.8842929,8.351892 6.600466,8.6346263 L 6.3629229,8.8712549 Z"
     style="fill:#ffffff;fill-opacity:1;stroke-width:0.00863281" /><path
     id="path4518"
     d="M 7.7556915,9.7878615 C 7.5694781,9.7614006 7.3605289,9.7014399 7.2096033,9.6311547 L 7.1383198,9.5979582 8.3172838,8.3850484 C 8.965714,7.717948 9.5367157,7.1314582 9.5861764,7.0817378 9.6910616,6.9763015 9.6786694,6.9738815 9.7396477,7.1117089 9.9731392,7.6394627 9.9630938,8.2224125 9.7116808,8.7346772 9.441113,9.2859704 8.9367145,9.6636727 8.3211405,9.7759379 c -0.1303628,0.023775 -0.436604,0.030233 -0.565449,0.011924 z"
     style="fill:#ffffff;fill-opacity:1;stroke-width:0.00863281" /><path
     id="path4520"
     d="M 7.5700861,11.642394 C 6.9152172,11.621489 6.2694485,11.498229 5.6950422,11.284499 L 5.5508768,11.230857 5.7597883,11.015336 C 5.8746896,10.8968 6.0463951,10.720381 6.141356,10.623294 l 0.1726562,-0.176521 0.1350369,0.08996 c 0.3763844,0.250743 0.7669657,0.393534 1.2505291,0.457177 0.1273271,0.01676 0.5057275,0.01374 0.6431444,-0.0051 C 8.8083408,10.92487 9.1971012,10.7767 9.5815308,10.516657 9.8814978,10.313748 10.176093,10.018083 10.38075,9.7145352 10.977686,8.8291591 11.100379,7.6971897 10.708248,6.6930517 10.668198,6.5905054 10.555528,6.3585288 10.498594,6.2614112 l -0.04302,-0.073379 0.09181,-0.094961 c 0.0505,-0.052229 0.272031,-0.2805238 0.492298,-0.5073228 l 0.400486,-0.4123618 0.02245,0.014444 c 0.03927,0.025273 0.261556,0.1935618 0.333228,0.252286 0.304988,0.2498932 0.649542,0.5930464 0.90266,0.8989895 0.372967,0.4508045 0.737657,1.0110827 1.003448,1.5416095 l 0.03925,0.078348 -0.0649,0.1245228 c -0.711481,1.3650373 -1.627391,2.3372886 -2.761003,2.9308416 -0.250446,0.131133 -0.490802,0.232169 -0.789902,0.332044 -0.5263031,0.175743 -1.0375598,0.266594 -1.6488669,0.293007 -0.1791431,0.0077 -0.7029581,0.0094 -0.906445,0.0029 z"
     style="fill:#ffffff;fill-opacity:1;stroke-width:0.00863281" /></svg>