<?xml version="1.0" encoding="UTF-8" standalone="no"?>
<svg
   xmlns:dc="http://purl.org/dc/elements/1.1/"
   xmlns:cc="http://creativecommons.org/ns#"
   xmlns:rdf="http://www.w3.org/1999/02/22-rdf-syntax-ns#"
   xmlns:svg="http://www.w3.org/2000/svg"
   xmlns="http://www.w3.org/2000/svg"
   id="svg32"
   viewBox="0 0 15.97275 15.999999"
   version="1.1"
   width="4.5079mm"
   height="4.5156mm">
  <defs
     id="defs16">
    <linearGradient
       x1="295.32"
       y1="563.58"
       gradientTransform="matrix(1.7686 0 0 1.8459 -306.28 -490.99)"
       x2="285.19"
       gradientUnits="userSpaceOnUse"
       y2="563.76"
       id="b">
      <stop
         id="stop2"
         offset="0"
         stop-color="#2a89ea" />
      <stop
         id="stop4"
         offset=".47542"
         stop-color="#d4e2f6" />
      <stop
         id="stop6"
         offset=".86308"
         stop-color="#e5eef9" />
      <stop
         id="stop8"
         offset="1"
         stop-color="#f7fafd" />
    </linearGradient>
    <linearGradient
       x1="290.75"
       y1="558.21"
       x2="290.7"
       gradientUnits="userSpaceOnUse"
       y2="557.24"
       id="a">
      <stop
         id="stop11"
         offset="0"
         stop-color="#b6c6dd" />
      <stop
         id="stop13"
         offset="1"
         stop-color="#f7fafd" />
    </linearGradient>
  </defs>
  <metadata
     id="metadata18">
    <rdf:RDF>
      <cc:Work
         rdf:about="">
        <dc:format>image/svg+xml</dc:format>
        <dc:type
           rdf:resource="http://purl.org/dc/dcmitype/StillImage" />
        <dc:title></dc:title>
      </cc:Work>
    </rdf:RDF>
  </metadata>
  <g
     id="g30"
     transform="translate(-15.524 -27.954)">
    <g
       id="g28"
       transform="matrix(.49915 0 0 .49915 -79.976 -253.66)">
      <g
         fill-rule="evenodd"
         stroke="#000080"
         id="g24"
         transform="translate(.0000051953 28.466)">
        <path
           fill="url(#b)"
           stroke-width=".90705"
           stroke-linecap="round"
           stroke-linejoin="round"
           id="path20"
           d="m192.08 538.38c1.5448 6.8951 11.713 11.923 12.715 15.136l0.0641 13.784 5.4493-5.8882-0.19234-8.2969c0.63957-3.4367 7.9818-5.1312 12.518-14.801" />
        <ellipse
           fill="url(#a)"
           stroke-width=".43432"
           id="ellipse22"
           cx="290.51"
           cy="557.94"
           ry=".79745"
           transform="matrix(1.7715 0 0 2.4653 -307.3 -837.27)"
           rx="8.6451" />
      </g>
      <rect
         fill="none"
         id="rect26"
         x="191.33"
         y="564.25"
         width="32"
         height="32"
         ry=".18513"
         rx=".16552" />
    </g>
  </g>
  <g
     id="g6"
     transform="matrix(0.15350757,0,0,0.15350757,0.18904493,1.0703849)"
     style="fill:#5c5c5c;fill-opacity:1">
    <path
       d="m 20.7798,85 9.5303,-9.7998 c 2.9101,1.3896 5.8398,2.3896 8.6699,3.0596 2.5801,0.6303 5.1601,0.9404 7.7402,1.2002 l 5.3999,0.0498 C 55.46,79.3101 58.79,78.8398 62.1299,78 c 2.1201,-0.5698 4.3403,-1.2998 6.4702,-2.1899 6.5098,-2.6499 14.75,-8.75 19.6001,-16.4102 0.77,-1.21 3.1597,-5.1499 4.1099,-7.8901 0.2797,-0.46 0.4399,-1.0196 0.4399,-1.6299 0,-0.52 -0.1001,-1.1499 -0.3501,-1.7197 -1.52,-3.2403 -3.5498,-6.48 -5.9199,-9.6602 -2.2798,-2.9199 -5.8198,-6.6299 -8.71,-8.8198 -0.6201,-0.48 -1.23,-0.94 -1.8501,-1.3804 l 8.48,-8.7197 C 87.3599,16.54 82.9399,11.96 79.98,15 l -9.6802,9.9502 C 67.1899,23.3999 64.0601,22.3101 61.0298,21.5898 58.4502,20.96 55.8701,20.6499 53.29,20.3901 l -5.4101,-0.0503 c -3.3399,0.2002 -6.6797,0.67 -10.02,1.5103 -2.1299,0.5698 -4.3501,1.2998 -6.48,2.1899 -6.52,2.6602 -14.77,8.7701 -19.6299,16.44 -0.96,1.52 -4.5,7.3598 -4.5,9.7099 0,0.71 0.21,1.4302 0.6201,1.9903 1.4898,3.0796 3.4297,6.1596 5.6997,9.1997 2.27,2.9199 5.8101,6.6201 8.69,8.81 0.79,0.6001 1.5903,1.19 2.3701,1.73 l -8.27,8.5 C 13.3999,83.46 17.8198,88.04 20.7798,85 Z M 34.7202,70.6699 39.7002,65.54 C 42.6099,67.7202 46.1699,69 50,69 c 9.8799,0 17.8999,-8.5098 17.8999,-19 0,-3.8501 -1.0801,-7.4399 -2.9399,-10.4302 l 6.7802,-6.98 c 2.3697,1.5601 4.7398,3.5 6.8897,5.75 3.5801,3.75 6.2402,7.7002 8.1001,11.4502 -0.1802,0.4898 -0.3701,0.9898 -0.6001,1.4302 -0.6099,1.0899 -1.1597,2.3399 -1.8701,3.4898 -1.6197,2.6499 -3.7398,5.4702 -6.4698,8.08 -2.4199,2.2901 -5.1001,4.2198 -7.4799,5.5699 -6.1099,3.4399 -12.1202,4.8003 -18.2403,5.2099 h -4.2397 c -0.96,0 -5.46,-0.6699 -5.5103,-0.6699 -0.5097,-0.0601 -1.0097,-0.21 -1.52,-0.3198 -2.02,-0.44 -4.0596,-1.0801 -6.0796,-1.9102 z M 43.8701,61.2598 60.75,43.8999 c 0.7002,1.7202 1.0601,3.77 1.0601,6.1001 0,8.0098 -4.2701,12.5898 -11.8101,12.5898 -2.3799,0 -4.4399,-0.4497 -6.1299,-1.33 z M 65.9199,29.46 60.73,34.79 C 57.7402,32.4102 54.0298,31 50,31 c -9.8799,0 -17.8999,8.5098 -17.8999,19 0,4.0601 1.1997,7.8101 3.2397,10.8999 l -6.54,6.7202 C 26.2598,66 23.71,63.9502 21.3999,61.5298 c -3.6099,-3.77 -6.27,-7.75 -8.1401,-11.52 0.1704,-0.4698 0.3501,-0.92 0.5703,-1.3296 0.6001,-1.1001 1.1601,-2.3501 1.8701,-3.5 1.6196,-2.6602 3.7397,-5.48 6.4697,-8.0904 2.4302,-2.2998 5.1099,-4.2299 7.4903,-5.58 6.1196,-3.4497 12.1396,-4.8096 18.27,-5.2198 h 4.25 c 0.9599,0 5.4599,0.67 5.5097,0.67 0.5103,0.06 1.0103,0.2099 1.5201,0.3198 2.2299,0.48 4.4902,1.2202 6.7099,2.1802 z M 56.6201,39.02 39.48,56.6401 C 38.6299,54.8101 38.1899,52.5801 38.1899,50 38.1899,41.9902 42.46,37.4102 50,37.4102 c 2.6201,0 4.8301,0.56 6.6201,1.6098 z"
       id="path2"
       style="fill:#5c5c5c;fill-opacity:1" />
    <path
       d="m 8.6401,50.4702 c 4.9898,9.98 10.69,16.4297 16.2901,20.5899 l -8.3101,8.3198 c -1.1699,1.1699 -1.2202,3.02 -0.1201,4.1201 1.1001,1.1001 2.9502,1.0498 4.1201,-0.1201 l 9.1997,-9.21 c 8.6402,4.6402 16.4302,4.5 20.1802,4.5 6.8101,0 27.0298,0.4702 41.3599,-28.1997 C 86.2598,40.2598 80.4102,33.6299 74.6802,29.3101 l 8.6997,-8.69 c 1.1699,-1.1699 1.2202,-3.02 0.1201,-4.1201 -1.1001,-1.1001 -2.9502,-1.0498 -4.1201,0.1201 l -9.5498,9.5401 c -8.5,-4.69 -16.1299,-4.8301 -19.8301,-4.8301 -6.8101,0 -27.02,0.4697 -41.3599,29.1401 z m 6.2701,-0.0903 C 26.3799,27.4399 44.5498,27.0601 50,27.0601 c 2.7798,0 8.8701,0.1001 15.6899,3.2397 l -5.8398,5.8501 C 57.0801,34.1602 53.6699,33 50,33 c -9.3901,0 -17,7.6099 -17,17 0,3.6699 1.1602,7.0801 3.1499,9.8501 l -7.2598,7.2598 C 23.96,63.79 19.0098,58.5698 14.9102,50.3799 Z M 70.7998,33.2002 c 5.0303,3.4399 10.1001,8.8096 14.29,17.1797 -11.4697,22.9302 -29.6396,22.56 -35.0898,22.56 -2.8198,0 -9.0298,0.1001 -15.9702,-2.9799 l 6.1201,-6.1099 C 42.9199,65.8398 46.3301,67 50,67 c 9.3901,0 17,-7.6099 17,-17 0,-3.6699 -1.1602,-7.0801 -3.1499,-9.8501 z m -14.79,6.79 -16.0196,16.0196 C 38.9302,54.25 38.3198,52.2002 38.3198,50 c 0,-6.4502 5.23,-11.6802 11.6802,-11.6802 2.2002,0 4.25,0.6104 6.0098,1.6704 z M 43.9902,60.0098 60.0098,43.9902 c 1.06,1.7598 1.6704,3.8096 1.6704,6.0098 0,6.4502 -5.23,11.6802 -11.6802,11.6802 -2.2002,0 -4.25,-0.6104 -6.0098,-1.6704 z"
       id="path4"
       style="fill:#5c5c5c;fill-opacity:1" />
  </g>
</svg>
