<?xml version="1.0"?>
<svg xmlns="http://www.w3.org/2000/svg" viewBox="0 0 24 24"><g id="Layer_2" data-name="Layer 2"><path d="M10.41,8.5v.78a.71.71,0,0,0,.71.72h1.34A5.88,5.88,0,0,0,10.41,8.5ZM11,14a3,3,0,0,1-3,3,3,3,0,0,1-1.16-5.76,4.61,4.61,0,0,1-.43-2V8.22A6,6,0,0,0,8,20a5.91,5.91,0,0,0,3.12-.88,5.75,5.75,0,0,0,2-2A5.94,5.94,0,0,0,14,14ZM8,11a3,3,0,0,1,2.81,2,1.62,1.62,0,0,0,.31,0h2.79a5.51,5.51,0,0,0-.72-2H11.12A1.72,1.72,0,0,1,9.41,9.28V8.17A5.92,5.92,0,0,0,8,8a5.68,5.68,0,0,0-.59,0V9.28A3.64,3.64,0,0,0,7.84,11Zm2.41-2.5v.78a.71.71,0,0,0,.71.72h1.34A5.88,5.88,0,0,0,10.41,8.5Z" style="fill:#333"/><rect x="11.92" y="16.98" width="2.83" height="4.71" transform="translate(-9.77 15.09) rotate(-45)" style="fill:#333"/><path d="M19.2,6.72V9.28a.72.72,0,0,1-.72.72H11.12a.71.71,0,0,1-.71-.72V6.72A.73.73,0,0,1,11.12,6h7.36A.71.71,0,0,1,19.2,6.72Z" style="fill:#333"/><path d="M18.48,3H11.12A3.71,3.71,0,0,0,7.41,6.72V9.28a3.72,3.72,0,0,0,3.4,3.7,1.62,1.62,0,0,0,.31,0h7.36A3.73,3.73,0,0,0,22.2,9.28V6.72A3.72,3.72,0,0,0,18.48,3ZM20.2,9.28A1.72,1.72,0,0,1,18.48,11H11.12A1.72,1.72,0,0,1,9.41,9.28V6.72A1.72,1.72,0,0,1,11.12,5h7.36A1.72,1.72,0,0,1,20.2,6.72Z" style="fill:#0071bc"/></g></svg>
