<?xml version="1.0" encoding="UTF-8"?>
<svg version="1.1" viewBox="0 0 24 24" xmlns="http://www.w3.org/2000/svg">
 <path d="m17.266 19.781h-1.6484l-1.1406-3.2422h-5.0313l-1.1406 3.2422h-1.5703l4.2344-11.633h2.0625zm-3.2656-4.5703-2.0391-5.7109-2.0469 5.7109zm1.2734-10.992q-0.085938 1.1875-0.60156 1.7891t-1.3828 0.60156q-0.42188 0-0.78125-0.14844-0.35938-0.15625-0.67969-0.44531-0.36719-0.33594-0.625-0.5-0.25-0.17188-0.55469-0.17188-0.40625 0-0.60938 0.35156-0.20313 0.35156-0.23438 0.94531h-1.0234q0.0625-1.1797 0.61719-1.7812t1.3594-0.60156q0.39062 0 0.75 0.15625 0.36719 0.14844 0.69531 0.42969 0.36719 0.32031 0.64844 0.48438 0.28906 0.15625 0.54688 0.15625 0.39844 0 0.61719-0.35938 0.22656-0.35938 0.25-0.90625z" fill="#333333" stroke="#333333" stroke-linejoin="round" stroke-miterlimit="0" style="paint-order:markers stroke fill" aria-label="Ã"/>
</svg>
