<svg xmlns="http://www.w3.org/2000/svg" viewBox="0 0 24 24"><g id="Layer_2" data-name="Layer 2"><polygon points="11.07 4.5 13.4 4.5 15.6 7.19 14.7 8.03 12.28 6 12.2 6 9.78 8.03 8.87 7.19 11.07 4.5" style="fill:#0071bc"/><path d="M7.73,14.39c0-3.18,2.21-5.14,4.51-5.14,2.64,0,4,1.91,4,4.64a6.14,6.14,0,0,1-.1,1.12H10a2.78,2.78,0,0,0,2.88,2.72A4.14,4.14,0,0,0,15.12,17l.78,1.43a6.13,6.13,0,0,1-3.35,1.05C9.85,19.5,7.73,17.61,7.73,14.39Zm6.56-.94c0-1.51-.67-2.42-2-2.42a2.46,2.46,0,0,0-2.34,2.42Z" style="fill:#333"/></g></svg>