<?xml version="1.0" encoding="UTF-8"?>
<svg width="15px" height="27px" viewBox="0 0 15 27" version="1.1" xmlns="http://www.w3.org/2000/svg" xmlns:xlink="http://www.w3.org/1999/xlink">
    <!-- Generator: Sketch 53.2 (72643) - https://sketchapp.com -->
    <title>knotes</title>
    <desc>Created with Sketch.</desc>
    <g id="Page-1" stroke="none" stroke-width="1" fill="none" fill-rule="evenodd">
        <g id="Icon" transform="translate(-0.995445, 2.000000)">
            <rect id="Rectangle" x="0" y="0" width="17.7908894" height="22.5"></rect>
            <g id="Group-2" transform="translate(8.895445, 11.900000) rotate(-12.000000) translate(-8.895445, -11.900000) translate(1.395445, 4.400000)" fill-rule="nonzero">
                <g id="Group" transform="translate(0.000000, 9.000000)">
                    <polygon id="Path" fill="#F5CE85" points="1.9928 1.3236 3.0284 0.2876 5.0472 2.046 3.886 3.2076 0.5812 4.6188"></polygon>
                    <path d="M3.038,0.5612 L4.7544,2.056 L3.7716,3.0388 L0.9612,4.2392 L2.1616,1.438 L3.038,0.5612 L3.038,0.5612 Z M3.0192,0.0144 L1.824,1.2096 L0.2004,4.9992 L4,3.376 L5.3404,2.0356 L3.0192,0.0144 L3.0192,0.0144 Z" id="Shape" fill="#967A44"></path>
                </g>
                <polygon id="Path" fill="#36404D" points="1.122 11.852 0.2016 14 2.3552 13.0804"></polygon>
                <g id="Group" transform="translate(10.200000, 0.000000)">
                    <path d="M0.4248,1.686 L1.32,0.7912 C1.5724,0.5388 1.9076,0.4 2.264,0.4 C2.6204,0.4 2.9556,0.5388 3.208,0.7912 C3.7288,1.312 3.7288,2.1588 3.208,2.6796 L2.3132,3.5744 L0.4248,1.686 Z" id="Path" fill="#F78F8F"></path>
                    <path d="M2.264,0.6 C2.5672,0.6 2.8524,0.718 3.0668,0.9324 C3.5096,1.3752 3.5096,2.0952 3.0668,2.538 L2.3132,3.2916 L0.708,1.686 L1.4616,0.9324 C1.6756,0.718 1.9608,0.6 2.264,0.6 L2.264,0.6 Z M2.264,0.2 C1.8712,0.2 1.478,0.35 1.1784,0.6496 L0.142,1.686 L2.3132,3.8572 L3.3496,2.8208 C3.9492,2.2212 3.9492,1.2492 3.3496,0.6496 L3.3496,0.6496 C3.05,0.35 2.6572,0.2 2.264,0.2 L2.264,0.2 Z" id="Shape" fill="#C74343"></path>
                </g>
                <g id="Group" transform="translate(1.600000, 1.000000)">
                    <path d="M2.5384,10.9552 C2.512,10.894 2.4756,10.832 2.4256,10.7736 C2.3016,10.6284 2.126,10.54 1.9016,10.5092 C1.8216,10.0024 1.4192,9.788 1.106,9.7236 C1.0532,9.378 0.8464,9.1868 0.6256,9.0908 L9.2216,0.4896 L11.11,2.378 L2.5384,10.9552 Z" id="Path" fill="#FFEEA3"></path>
                    <path d="M9.2216,0.7724 L10.8272,2.378 L2.5724,10.6376 C2.4756,10.5264 2.3172,10.4016 2.068,10.3384 C1.9456,9.9072 1.606,9.6644 1.2748,9.5612 C1.2144,9.3428 1.096,9.174 0.9464,9.0524 L9.2216,0.7724 L9.2216,0.7724 Z M9.2212,0.2068 L0.224,9.2092 C0.224,9.2092 0.2268,9.2092 0.2324,9.2092 C0.3112,9.2092 0.9184,9.2308 0.9184,9.9016 C0.9184,9.9016 1.7156,9.9264 1.7156,10.6976 C2.5084,10.6976 2.3996,11.3764 2.3996,11.3764 L11.3924,2.3784 L9.2212,0.2068 L9.2212,0.2068 Z" id="Shape" fill="#BA9B48"></path>
                </g>
                <g id="Group" transform="translate(9.000000, 0.800000)">
                    <rect id="Rectangle" fill="#D9E7F5" transform="translate(2.358064, 2.040847) rotate(-45.008103) translate(-2.358064, -2.040847) " x="1.24247469" y="0.705459313" width="2.23117863" height="2.67077441"></rect>
                    <path d="M2.2028,0.5908 L3.8084,2.1964 L2.5136,3.4912 L0.908,1.8856 L2.2028,0.5908 L2.2028,0.5908 Z M2.2028,0.0252 L0.3424,1.8856 L2.5136,4.0568 L4.374,2.1964 L2.2028,0.0252 L2.2028,0.0252 Z" id="Shape" fill="#788B9C"></path>
                </g>
            </g>
        </g>
    </g>
</svg>