<?xml version="1.0" encoding="UTF-8" standalone="no"?>
<!-- Created with Inkscape (http://www.inkscape.org/) -->
<svg xmlns:inkscape="http://www.inkscape.org/namespaces/inkscape" xmlns:sodipodi="http://sodipodi.sourceforge.net/DTD/sodipodi-0.dtd" xmlns="http://www.w3.org/2000/svg" xmlns:svg="http://www.w3.org/2000/svg" xmlns:rdf="http://www.w3.org/1999/02/22-rdf-syntax-ns#" xmlns:cc="http://creativecommons.org/ns#" xmlns:dc="http://purl.org/dc/elements/1.1/" viewBox="0 0 24 24" version="1.1" id="svg10437" inkscape:version="1.1.1 (3bf5ae0d25, 2021-09-20)" sodipodi:docname="lock.svg">
  <defs id="defs10431"/>
  <sodipodi:namedview id="base" pagecolor="#ffffff" bordercolor="#666666" borderopacity="1.0" inkscape:pageopacity="0.0" inkscape:pageshadow="2" inkscape:zoom="15.538184" inkscape:cx="21.817222" inkscape:cy="12.742802" inkscape:document-units="px" inkscape:current-layer="layer1" inkscape:pagecheckerboard="0" showgrid="false" units="px" showguides="false" inkscape:guide-bbox="true" inkscape:snap-global="true" inkscape:snap-bbox="true" inkscape:snap-page="true" inkscape:window-width="1920" inkscape:window-height="1017" inkscape:window-x="-8" inkscape:window-y="-8" inkscape:window-maximized="1">
    <sodipodi:guide position="0,22" orientation="0,1" id="guide10894" inkscape:label="" inkscape:locked="false" inkscape:color="rgb(0,0,255)"/>
    <sodipodi:guide position="22,24" orientation="-1,0" id="guide10978" inkscape:label="" inkscape:locked="false" inkscape:color="rgb(0,0,255)"/>
    <sodipodi:guide position="11.065513,2" orientation="0,1" id="guide10982" inkscape:label="" inkscape:locked="false" inkscape:color="rgb(0,0,255)"/>
    <sodipodi:guide position="2,22" orientation="-1,0" id="guide10986" inkscape:label="" inkscape:locked="false" inkscape:color="rgb(0,0,255)"/>
  </sodipodi:namedview>
  <metadata id="metadata10434">
    <rdf:RDF>
      <cc:Work rdf:about="">
        <dc:format>image/svg+xml</dc:format>
        <dc:type rdf:resource="http://purl.org/dc/dcmitype/StillImage"/>
      </cc:Work>
    </rdf:RDF>
  </metadata>
  <g inkscape:label="Layer 1" inkscape:groupmode="layer" id="layer1">
    <g id="g854" transform="translate(-28.960914)">
      <path id="polygon15106" d="m 33.046548,19.046875 c 0.03477,0.03318 0.07003,0.06741 0.105468,0.09961 0.06918,0.06285 0.139029,0.122429 0.210938,0.181641 0.07191,0.05921 0.14586,0.11814 0.220703,0.173828 0.07484,0.05569 0.150531,0.107873 0.228516,0.160156 0.07798,0.05228 0.156947,0.103347 0.238281,0.152344 0.08133,0.049 0.165109,0.09675 0.25,0.142578 0.08489,0.04583 0.17111,0.09003 0.259766,0.132813 0.08866,0.04278 0.178856,0.0832 0.271484,0.123047 0.09263,0.03985 0.188348,0.08015 0.285156,0.117187 0.09681,0.03704 0.195679,0.07112 0.296875,0.105469 0.101196,0.03435 0.204755,0.06784 0.310547,0.09961 0.105792,0.03177 0.213623,0.06248 0.324219,0.0918 0.110595,-0.02931 0.218412,-0.06003 0.324219,-0.0918 0.105806,-0.03177 0.209323,-0.06526 0.310547,-0.09961 0.101222,-0.03434 0.200029,-0.06843 0.296875,-0.105469 0.09684,-0.03704 0.192482,-0.07734 0.285156,-0.117187 0.09267,-0.03985 0.182776,-0.08027 0.271484,-0.123047 0.08871,-0.04278 0.174818,-0.08698 0.259766,-0.132813 0.08495,-0.04583 0.168606,-0.09358 0.25,-0.142578 0.08139,-0.049 0.162189,-0.10006 0.240234,-0.152344 0.07805,-0.05228 0.153613,-0.104468 0.228516,-0.160156 0.0749,-0.05569 0.148737,-0.114616 0.220703,-0.173828 0.07197,-0.05921 0.141702,-0.118787 0.210938,-0.181641 0.06923,-0.06285 0.138368,-0.128698 0.205078,-0.195312 0.06671,-0.06661 0.130922,-0.134585 0.195312,-0.205078 0.06439,-0.07049 0.127176,-0.142307 0.189453,-0.216797 0.06228,-0.07449 0.125178,-0.151862 0.185547,-0.230469 0.06037,-0.07861 0.119067,-0.159346 0.177735,-0.242187 0.05368,-0.0758 0.105907,-0.153524 0.15625,-0.234375 0.05034,-0.08085 0.09956,-0.164031 0.146484,-0.25 0.04693,-0.08597 0.09133,-0.174472 0.134766,-0.265625 0.04343,-0.09115 0.08513,-0.184847 0.125,-0.28125 0.03987,-0.0964 0.07706,-0.197108 0.113281,-0.298829 0.03622,-0.10172 0.07102,-0.205397 0.103515,-0.3125 0.0325,-0.107102 0.0631,-0.217526 0.0918,-0.330078 0.0287,-0.112552 0.05525,-0.227635 0.08008,-0.345703 0.02482,-0.118067 0.04749,-0.237679 0.06836,-0.361328 0.02087,-0.123649 0.0398,-0.251562 0.05664,-0.380859 0.01684,-0.129297 0.03218,-0.261473 0.04492,-0.396485 0.01274,-0.135011 0.02465,-0.271317 0.0332,-0.412109 0.0086,-0.140792 0.01328,-0.285002 0.01758,-0.431641 0.0043,-0.146638 0.0079,-0.296667 0.0078,-0.449218 -3.8e-5,-0.152552 -0.0034,-0.308266 -0.0078,-0.466797 -0.0045,-0.158531 -0.01059,-0.319798 -0.01953,-0.484375 -0.113501,-0.02485 -0.227517,-0.05218 -0.341797,-0.08203 -0.114279,-0.02985 -0.229093,-0.06278 -0.34375,-0.09766 -0.114656,-0.03487 -0.229115,-0.07142 -0.34375,-0.111328 -0.114634,-0.03991 -0.229538,-0.08198 -0.34375,-0.126953 -0.114211,-0.04497 -0.228408,-0.09254 -0.341796,-0.142578 -0.113389,-0.05004 -0.225726,-0.103071 -0.337891,-0.158203 -0.112165,-0.05513 -0.223443,-0.113587 -0.333984,-0.173828 -0.110542,-0.06024 -0.219608,-0.122134 -0.328125,-0.1875 -0.108518,-0.06537 -0.216173,-0.132616 -0.322266,-0.203125 -0.106093,-0.07051 -0.211184,-0.145033 -0.314453,-0.220704 -0.103269,-0.07567 -0.204643,-0.153527 -0.304688,-0.234374 -0.100044,-0.08085 -0.198502,-0.163958 -0.294921,-0.25 -0.09642,-0.08604 -0.19081,-0.17437 -0.283204,-0.265626 -0.0924,-0.09125 -0.183519,-0.184763 -0.271487,-0.281249 -0.08797,-0.096485 -0.172716,-0.197095 -0.25586,-0.298828 -0.08314,-0.101732 -0.16427,-0.205503 -0.242187,-0.3125 -0.07792,0.10695 -0.159054,0.210803 -0.242188,0.3125 -0.08313,0.101698 -0.16791,0.200415 -0.255859,0.296875 -0.08795,0.09646 -0.179119,0.191963 -0.271484,0.283203 -0.09237,0.09124 -0.186821,0.17959 -0.283204,0.265626 -0.09638,0.08603 -0.19492,0.169152 -0.294921,0.25 -0.100002,0.08085 -0.201467,0.158699 -0.304688,0.234374 -0.103221,0.07568 -0.206459,0.148231 -0.3125,0.21875 -0.106041,0.07052 -0.213803,0.139699 -0.322266,0.205079 -0.108462,0.06538 -0.217639,0.127243 -0.328125,0.1875 -0.110485,0.06026 -0.221875,0.118679 -0.333984,0.173828 -0.0175,0.0086 -0.0352,0.01691 -0.05273,0.02539 z"/>
      <path id="path28998" d="m 33.046548,2 v 7.644531 c 0.0033,-0.0022 0.0065,-0.0037 0.0098,-0.0059 0.07491,-0.04939 0.148517,-0.101703 0.224609,-0.15625 0.07609,-0.05455 0.15314,-0.111857 0.230469,-0.171875 0.07733,-0.06002 0.155754,-0.121694 0.234375,-0.1875 0.07862,-0.06581 0.158315,-0.135121 0.238281,-0.2070314 0.07997,-0.07191 0.160822,-0.1462774 0.242187,-0.2246094 0.08136,-0.078332 0.163276,-0.1610231 0.246094,-0.2460937 0.08282,-0.085071 0.165674,-0.1734989 0.25,-0.265625 0.08432,-0.092085 0.169968,-0.1875698 0.255855,-0.2870684 0.08589,-0.099499 0.172263,-0.2033588 0.259766,-0.3105469 0.0875,-0.107188 0.176453,-0.2168367 0.265625,-0.3320312 0.08917,-0.1151945 0.178636,-0.2358571 0.269531,-0.359375 0.0909,-0.1235179 0.182718,-0.2506543 0.275391,-0.3828125 0.09267,0.1321582 0.184491,0.2592946 0.275391,0.3828125 0.0909,0.1235179 0.180351,0.2441805 0.269531,0.359375 0.08918,0.1151945 0.178112,0.2248432 0.265625,0.3320312 0.08751,0.1071881 0.173864,0.2110483 0.259766,0.3105469 0.0859,0.099499 0.171517,0.1949833 0.255859,0.2871094 0.08434,0.092126 0.167163,0.1805544 0.25,0.265625 0.08284,0.085071 0.164708,0.1677618 0.246094,0.2460937 0.08139,0.078332 0.162199,0.1526991 0.242187,0.2246094 0.07999,0.07191 0.159637,0.1412254 0.238282,0.2070314 0.07864,0.06581 0.157019,0.127482 0.234374,0.1875 0.07736,0.06002 0.15435,0.117328 0.230469,0.171875 0.07612,0.05455 0.151626,0.106857 0.226563,0.15625 0.149873,0.09879 0.297893,0.187505 0.443359,0.267578 0.145466,0.08007 0.288199,0.150948 0.429688,0.214844 0.141488,0.0639 0.280027,0.121622 0.417968,0.171875 0.137942,0.05025 0.275332,0.09367 0.410157,0.132812 0.134824,0.03915 0.268252,0.07294 0.40039,0.103516 0.132138,0.03058 0.262698,0.05749 0.392578,0.08203 0.259762,0.04908 0.516218,0.08875 0.769532,0.128906 0.126657,0.02008 0.251263,0.04085 0.376953,0.0625 0.12569,0.02165 0.2518,0.04456 0.376953,0.07031 l 0.0059,0.640625 c 0.0062,0.433239 0.0061,0.850318 0,1.251953 -0.003,0.200817 -0.0071,0.398578 -0.01367,0.591797 -0.0066,0.193219 -0.015,0.382537 -0.02539,0.568359 -0.01039,0.185822 -0.02259,0.368249 -0.03711,0.546875 -0.01452,0.178627 -0.03183,0.351805 -0.05078,0.523438 -0.01895,0.171632 -0.03881,0.341019 -0.0625,0.505859 -0.02368,0.164841 -0.05136,0.326125 -0.08008,0.484375 -0.02872,0.15825 -0.05969,0.312983 -0.09375,0.464844 -0.03406,0.151861 -0.06968,0.301592 -0.109375,0.447266 -0.03969,0.145673 -0.08327,0.288046 -0.128906,0.427734 -0.04564,0.139688 -0.09461,0.276252 -0.146485,0.410156 -0.05188,0.133904 -0.105638,0.264257 -0.164062,0.392578 -0.05842,0.128321 -0.120276,0.254013 -0.185547,0.376953 -0.06527,0.122941 -0.134611,0.243567 -0.207031,0.361329 -0.07242,0.117761 -0.148644,0.232919 -0.228516,0.345703 -0.07987,0.112783 -0.161327,0.222624 -0.246094,0.330078 -0.08477,0.107453 -0.172181,0.212307 -0.261718,0.314453 -0.08954,0.102145 -0.181207,0.201968 -0.275391,0.298828 -0.09418,0.09686 -0.192307,0.191606 -0.291016,0.283203 -0.09871,0.0916 -0.199625,0.179269 -0.302734,0.265625 -0.103109,0.08636 -0.207066,0.170816 -0.314453,0.251953 -0.01972,0.0149 -0.04069,0.02825 -0.06055,0.04297 h 1.265586 6 V 8 h -6 V 2 Z" style="fill:#333333;fill-opacity:1"/>
      <polygon points="16,3 20,7 16,7 " id="polygon15108" transform="translate(27.046548,-1)" style="fill:#333333;fill-opacity:1"/>
      <path id="path28835" style="color:#000000;fill:#0071bc;stroke-width:2;stroke-linejoin:bevel;-inkscape-stroke:none" d="m 36.048501,9.208984 c -0.07792,0.10695 -0.159054,0.210803 -0.242188,0.3125 -0.08313,0.101698 -0.16791,0.200415 -0.255859,0.296875 -0.08795,0.09646 -0.179119,0.191963 -0.271484,0.283203 -0.09237,0.09124 -0.186821,0.17959 -0.283204,0.265626 -0.09638,0.08603 -0.19492,0.169152 -0.294921,0.25 -0.100002,0.08085 -0.201467,0.158699 -0.304688,0.234374 -0.103221,0.07568 -0.206459,0.148231 -0.3125,0.21875 -0.106041,0.07052 -0.213803,0.139699 -0.322266,0.205079 -0.108462,0.06538 -0.217639,0.127243 -0.328125,0.1875 -0.110485,0.06026 -0.221875,0.118679 -0.333984,0.173828 -0.112109,0.05515 -0.22651,0.108146 -0.339844,0.158203 -0.113334,0.05006 -0.225684,0.0976 -0.339843,0.142578 -0.11416,0.04498 -0.229164,0.08703 -0.34375,0.126953 -0.114587,0.03992 -0.229136,0.07645 -0.343751,0.111328 -0.114614,0.03488 -0.229506,0.0678 -0.34375,0.09766 -0.114243,0.02985 -0.228323,0.05719 -0.341796,0.08203 -0.0089,0.164577 -0.01508,0.325844 -0.01953,0.484375 -0.0045,0.158531 -0.0078,0.314245 -0.0078,0.466797 -3.9e-5,0.152551 0.0035,0.30258 0.0078,0.449218 0.0043,0.146639 0.009,0.290849 0.01758,0.431641 0.0086,0.140792 0.02046,0.277098 0.0332,0.412109 0.01274,0.135012 0.02808,0.267188 0.04492,0.396485 0.01684,0.129297 0.03577,0.25721 0.05664,0.380859 0.02087,0.123649 0.04353,0.243261 0.06836,0.361328 0.02482,0.118068 0.05138,0.233151 0.08008,0.345703 0.0287,0.112552 0.0593,0.222976 0.0918,0.330078 0.0325,0.107103 0.06729,0.21078 0.103515,0.3125 0.03622,0.101721 0.07341,0.202425 0.113281,0.298829 0.03987,0.0964 0.08156,0.190096 0.125,0.28125 0.04344,0.09115 0.08784,0.179655 0.134766,0.265625 0.04693,0.08597 0.09614,0.169148 0.146484,0.25 0.05034,0.08085 0.102569,0.158574 0.15625,0.234375 0.05867,0.08284 0.11738,0.163581 0.177735,0.242187 0.06036,0.07861 0.123296,0.155979 0.185547,0.230469 0.06225,0.07449 0.125099,0.146304 0.189453,0.216797 0.06435,0.07049 0.128648,0.138464 0.195312,0.205078 0.06666,0.06661 0.135896,0.132459 0.205078,0.195312 0.06918,0.06285 0.139029,0.122429 0.210938,0.181641 0.07191,0.05921 0.14586,0.11814 0.220703,0.173828 0.07484,0.05569 0.150531,0.107873 0.228516,0.160156 0.07798,0.05228 0.156947,0.103347 0.238281,0.152344 0.08133,0.049 0.165109,0.09675 0.25,0.142578 0.08489,0.04583 0.17111,0.09003 0.259766,0.132813 0.08866,0.04278 0.178856,0.0832 0.271484,0.123047 0.09263,0.03985 0.188348,0.08015 0.285156,0.117187 0.09681,0.03704 0.195679,0.07112 0.296875,0.105469 0.101197,0.03435 0.204755,0.06784 0.310547,0.09961 0.108447,0.03023 0.214041,0.06259 0.324219,0.0918 0.109894,-0.02913 0.216042,-0.06164 0.324219,-0.0918 0.105806,-0.03177 0.209323,-0.06526 0.310547,-0.09961 0.101222,-0.03434 0.200029,-0.06843 0.296875,-0.105469 0.09685,-0.03704 0.192482,-0.07734 0.285156,-0.117187 0.09267,-0.03985 0.182776,-0.08027 0.271484,-0.123047 0.08871,-0.04278 0.174818,-0.08698 0.259766,-0.132813 0.08495,-0.04583 0.168606,-0.09358 0.25,-0.142578 0.08139,-0.049 0.162189,-0.10006 0.240234,-0.152344 0.07805,-0.05228 0.153613,-0.104468 0.228516,-0.160156 0.0749,-0.05569 0.148737,-0.114616 0.220703,-0.173828 0.07197,-0.05921 0.141702,-0.118787 0.210938,-0.181641 0.06923,-0.06285 0.138368,-0.128698 0.205078,-0.195312 0.06671,-0.06661 0.130922,-0.134585 0.195312,-0.205078 0.06439,-0.07049 0.127176,-0.142307 0.189453,-0.216797 0.06228,-0.07449 0.125178,-0.151862 0.185547,-0.230469 0.06037,-0.07861 0.119067,-0.159346 0.177735,-0.242187 0.05368,-0.0758 0.105907,-0.153524 0.15625,-0.234375 0.05034,-0.08085 0.09956,-0.164031 0.146484,-0.25 0.04693,-0.08597 0.09133,-0.174472 0.134766,-0.265625 0.04343,-0.09115 0.08513,-0.184847 0.125,-0.28125 0.03987,-0.0964 0.07706,-0.197108 0.113281,-0.298829 0.03622,-0.10172 0.07102,-0.205397 0.103515,-0.3125 0.0325,-0.107102 0.0631,-0.217526 0.0918,-0.330078 0.0287,-0.112552 0.05525,-0.227635 0.08008,-0.345703 0.02482,-0.118067 0.04749,-0.237679 0.06836,-0.361328 0.02087,-0.123649 0.0398,-0.251562 0.05664,-0.380859 0.01684,-0.129297 0.03218,-0.261473 0.04492,-0.396485 0.01274,-0.135011 0.02465,-0.271317 0.0332,-0.412109 0.0086,-0.140792 0.01328,-0.285002 0.01758,-0.431641 0.0043,-0.146638 0.0079,-0.296667 0.0078,-0.449218 -3.8e-5,-0.152552 -0.0034,-0.308266 -0.0078,-0.466797 -0.0045,-0.158531 -0.01059,-0.319798 -0.01953,-0.484375 -0.113501,-0.02485 -0.227517,-0.05218 -0.341797,-0.08203 -0.114279,-0.02985 -0.229093,-0.06278 -0.34375,-0.09766 -0.114656,-0.03487 -0.229115,-0.07142 -0.34375,-0.111328 -0.114634,-0.03991 -0.229538,-0.08198 -0.34375,-0.126953 -0.114211,-0.04497 -0.228408,-0.09254 -0.341796,-0.142578 -0.113389,-0.05004 -0.225726,-0.103071 -0.337891,-0.158203 -0.112165,-0.05513 -0.223443,-0.113587 -0.333984,-0.173828 -0.110542,-0.06024 -0.219608,-0.122134 -0.328125,-0.1875 -0.108518,-0.06537 -0.216173,-0.132616 -0.322266,-0.203125 -0.106093,-0.07051 -0.211184,-0.145033 -0.314453,-0.220704 -0.103269,-0.07567 -0.204643,-0.153527 -0.304688,-0.234374 -0.100044,-0.08085 -0.198502,-0.163958 -0.294921,-0.25 -0.09642,-0.08604 -0.19081,-0.174372 -0.283204,-0.265628 -0.0924,-0.09125 -0.183519,-0.184762 -0.271487,-0.281248 -0.08797,-0.096485 -0.172716,-0.197095 -0.25586,-0.298828 -0.08314,-0.101732 -0.16427,-0.205503 -0.242187,-0.3125 z"/>
    </g>
  </g>
</svg>
