<?xml version="1.0" encoding="UTF-8"?>
<svg version="1.1" viewBox="0 0 24 24" xmlns="http://www.w3.org/2000/svg">
 <path d="m13.051 17.695h-1.6484l-1.1406-3.2422h-5.0313l-1.1406 3.2422h-1.5703l4.2344-11.633h2.0625zm-3.2656-4.5703-2.0391-5.7109-2.0469 5.7109zm11.695 4.5703h-1.4609v-0.92969q-0.19531 0.13281-0.53125 0.375-0.32812 0.23438-0.64062 0.375-0.36719 0.17969-0.84375 0.29688-0.47656 0.125-1.1172 0.125-1.1797 0-2-0.78125-0.82031-0.78125-0.82031-1.9922 0-0.99219 0.42188-1.6016 0.42969-0.61719 1.2188-0.96875 0.79688-0.35156 1.9141-0.47656 1.1172-0.125 2.3984-0.1875v-0.22656q0-0.5-0.17969-0.82812-0.17188-0.32812-0.5-0.51562-0.3125-0.17969-0.75-0.24219t-0.91406-0.0625q-0.57812 0-1.2891 0.15625-0.71094 0.14844-1.4688 0.4375h-0.07813v-1.4922q0.42969-0.11719 1.2422-0.25781t1.6016-0.14062q0.92188 0 1.6016 0.15625 0.6875 0.14844 1.1875 0.51562 0.49219 0.35938 0.75 0.92969 0.25781 0.57031 0.25781 1.4141zm-1.4609-2.1484v-2.4297q-0.67188 0.03906-1.5859 0.11719-0.90625 0.07813-1.4375 0.22656-0.63281 0.17969-1.0234 0.5625-0.39062 0.375-0.39062 1.0391 0 0.75 0.45312 1.1328 0.45312 0.375 1.3828 0.375 0.77344 0 1.4141-0.29688 0.64062-0.30469 1.1875-0.72656z" fill="#333333" stroke="#333333" stroke-linejoin="round" stroke-miterlimit="0" style="paint-order:markers stroke fill" aria-label="Aa"/>
</svg>
