<?xml version="1.0"?>
<svg xmlns="http://www.w3.org/2000/svg" viewBox="0 0 24 24"><g id="Layer_2" data-name="Layer 2"><path d="M6.2,6H8.88L13,19H10.66l-2-6.91c-.41-1.37-.79-2.85-1.17-4.28H7.45c-.35,1.44-.73,2.91-1.14,4.28L4.33,19H2ZM4.48,13.68h6.07v1.8H4.48Z" style="fill:#333"/><path d="M14.22,16.23c0-2,1.68-3.08,5.56-3.5,0-1-.44-1.86-1.72-1.86a5.21,5.21,0,0,0-2.65.93l-.82-1.48a7.33,7.33,0,0,1,3.88-1.24c2.37,0,3.53,1.46,3.53,4.09V19H20.1L20,17.73H20A4.59,4.59,0,0,1,17,19,2.65,2.65,0,0,1,14.22,16.23Zm5.56,0V14.11c-2.56.32-3.42,1-3.42,1.95s.57,1.2,1.37,1.2A3,3,0,0,0,19.78,16.24Z" style="fill:#333"/></g></svg>
