<?xml version="1.0" encoding="UTF-8" standalone="no"?>
<!-- Created with Inkscape (http://www.inkscape.org/) -->
<svg xmlns:inkscape="http://www.inkscape.org/namespaces/inkscape" xmlns:sodipodi="http://sodipodi.sourceforge.net/DTD/sodipodi-0.dtd" xmlns:xlink="http://www.w3.org/1999/xlink" xmlns="http://www.w3.org/2000/svg" xmlns:svg="http://www.w3.org/2000/svg" xmlns:rdf="http://www.w3.org/1999/02/22-rdf-syntax-ns#" xmlns:cc="http://creativecommons.org/ns#" xmlns:dc="http://purl.org/dc/elements/1.1/" viewBox="0 0 24 24" version="1.1" id="svg10437" inkscape:version="1.1.2 (b8e25be833, 2022-02-05)" sodipodi:docname="MoveToRootAction.svg">
  <defs id="defs10431">
    <inkscape:path-effect effect="offset" id="path-effect1038" is_visible="true" lpeversion="1" linejoin_type="miter" unit="mm" offset="0.019474025" miter_limit="4" attempt_force_join="false" update_on_knot_move="true"/>
    <linearGradient id="d" y2="446.77" xlink:href="#e" gradientUnits="userSpaceOnUse" x2="215.36" gradientTransform="matrix(0.99094,0,0,1.0073,134.73,-154.36)" y1="440.75" x1="209.71"/>
    <linearGradient id="e">
      <stop stop-color="#f70000" offset="0" id="stop845"/>
      <stop stop-color="#780000" offset="1" id="stop847"/>
    </linearGradient>
    <linearGradient id="c" y2="449.6" xlink:href="#f" gradientUnits="userSpaceOnUse" x2="194.27" gradientTransform="matrix(0.99094,0,0,1.0073,134.73,-154.36)" y1="456.24" x1="202.53"/>
    <linearGradient id="f">
      <stop stop-color="#baa492" offset="0" id="stop851"/>
      <stop stop-color="#fff" offset="1" id="stop853"/>
    </linearGradient>
    <linearGradient id="b" y2="449.64" xlink:href="#h" gradientUnits="userSpaceOnUse" x2="193.04" gradientTransform="matrix(0.99094,0,0,1.0073,134.73,-154.36)" y1="457.89" x1="203.5"/>
    <linearGradient id="h">
      <stop offset="0" id="stop857"/>
      <stop stop-color="#7e7e7e" offset="1" id="stop859"/>
    </linearGradient>
    <linearGradient id="a" y2="462.65" xlink:href="#g" gradientUnits="userSpaceOnUse" x2="196.75" gradientTransform="matrix(0.99094,0,0,1.0073,134.73,-154.36)" y1="458.87" x1="193.01"/>
    <linearGradient id="g">
      <stop stop-color="#c00000" offset="0" id="stop863"/>
      <stop offset="1" id="stop865"/>
    </linearGradient>
    <inkscape:path-effect effect="offset" id="path-effect1038-0" is_visible="true" lpeversion="1" linejoin_type="miter" unit="mm" offset="0.019474025" miter_limit="4" attempt_force_join="false" update_on_knot_move="true"/>
  </defs>
  <sodipodi:namedview id="base" pagecolor="#ffffff" bordercolor="#666666" borderopacity="1.0" inkscape:pageopacity="0.0" inkscape:pageshadow="2" inkscape:zoom="25.906533" inkscape:cx="14.764615" inkscape:cy="16.559529" inkscape:document-units="px" inkscape:current-layer="layer1" inkscape:pagecheckerboard="0" showgrid="true" units="px" showguides="true" inkscape:guide-bbox="true" inkscape:snap-global="false" inkscape:snap-bbox="true" inkscape:snap-page="true" inkscape:window-width="1920" inkscape:window-height="1017" inkscape:window-x="-8" inkscape:window-y="-8" inkscape:window-maximized="1" inkscape:snap-center="true" inkscape:object-paths="true" inkscape:bbox-nodes="true" inkscape:bbox-paths="true" inkscape:snap-bbox-edge-midpoints="true" inkscape:snap-bbox-midpoints="true">
    <sodipodi:guide position="0,22" orientation="0,1" id="guide10894" inkscape:label="" inkscape:locked="false" inkscape:color="rgb(0,0,255)"/>
    <sodipodi:guide position="22,24" orientation="-1,0" id="guide10978" inkscape:label="" inkscape:locked="false" inkscape:color="rgb(0,0,255)"/>
    <sodipodi:guide position="11.065513,2" orientation="0,1" id="guide10982" inkscape:label="" inkscape:locked="false" inkscape:color="rgb(0,0,255)"/>
    <sodipodi:guide position="2,22" orientation="-1,0" id="guide10986" inkscape:label="" inkscape:locked="false" inkscape:color="rgb(0,0,255)"/>
    <inkscape:grid type="xygrid" id="grid826"/>
  </sodipodi:namedview>
  <metadata id="metadata10434">
    <rdf:RDF>
      <cc:Work rdf:about="">
        <dc:format>image/svg+xml</dc:format>
        <dc:type rdf:resource="http://purl.org/dc/dcmitype/StillImage"/>
      </cc:Work>
    </rdf:RDF>
  </metadata>
  <g inkscape:label="Layer 1" inkscape:groupmode="layer" id="layer1">
    <path d="m -57,1 c -0.311285,0.0036 -0.560517,0.258537 -0.556634,0.56936 l 0.201726,9.32693 c 0.0017,0.148807 0.06265,0.291889 0.169838,0.39668 l 3.475717,3.398024 c 0.815603,0.797373 2.1234,0.782562 2.920745,-0.03301 l 2.115288,-2.163651 -3.575267,-3.495355 2.79628,-2.860213 3.575266,3.495351 2.12491,-2.133969 c 0.804762,-0.808199 0.782563,-2.123345 -0.03301,-2.920689 l -3.475745,-3.398053 c -0.107185,-0.104791 -0.251248,-0.162912 -0.400417,-0.160829 z" id="path22061" style="fill:#333333;stroke-width:1" sodipodi:nodetypes="cccsssccccssscc" inkscape:transform-center-x="-6.6412436" inkscape:transform-center-y="7.1397382"/>
    <g id="g1796">
      <path style="color:#000000;fill:#0071bc;stroke-linecap:round;stroke-linejoin:round;-inkscape-stroke:none" d="m 12.669922,3.0917969 a 1.0001,1.0001 0 0 0 -1.414063,0.00586 L 2.0976563,12.324219 a 1,1 0 0 0 0.00586,1.414062 1,1 0 0 0 1.4140625,-0.0059 l 8.4531249,-8.5175783 8.517578,8.4531253 a 1,1 0 0 0 1.414063,-0.0039 1,1 0 0 0 -0.0059,-1.414063 z" id="path7076"/>
      <path id="path22096" style="fill:#333333;stroke:none;stroke-width:1px;stroke-linecap:round;stroke-linejoin:round;stroke-opacity:1" inkscape:transform-center-x="-0.0082373165" inkscape:transform-center-y="3.5393995" d="M 11.992188 7.6933594 L 4.4863281 14.755859 L 4.4667969 14.755859 L 4.4785156 19.226562 C 4.4807156 20.3183 5.3959439 21.199219 6.4980469 21.199219 C 8.0790149 21.199219 9.4726564 21.193359 9.4726562 21.193359 L 9.9707031 21.189453 L 9.9707031 15.693359 L 13.978516 15.693359 L 13.978516 21.191406 L 14.476562 21.193359 C 14.476562 21.193359 15.885443 21.199219 17.484375 21.199219 C 18.593135 21.199219 19.519213 20.321438 19.521484 19.226562 L 19.533203 14.755859 L 19.53125 14.755859 L 11.992188 7.6933594 z "/>
    </g>
  </g>
</svg>
