<?xml version="1.0"?>
<svg xmlns="http://www.w3.org/2000/svg" viewBox="0 0 24 24"><g id="Layer_2" data-name="Layer 2"><path d="M22,15.25a6.75,6.75,0,0,1-13.2,2,8.59,8.59,0,0,0,5.89-2.56A8.58,8.58,0,0,0,17.24,8.8,6.77,6.77,0,0,1,22,15.25Z" style="fill:#0071bc"/><path d="M15,6.51A8.76,8.76,0,0,0,6.51,15,6.75,6.75,0,1,1,13.27,3.73,6.67,6.67,0,0,1,15,6.51Z" style="fill:#0071bc"/><path d="M13.27,13.27a6.69,6.69,0,0,1-4.77,2A6.76,6.76,0,0,1,15.25,8.5,6.69,6.69,0,0,1,13.27,13.27Z" style="fill:#0071bc"/></g></svg>
