<?xml version="1.0"?>
<svg xmlns="http://www.w3.org/2000/svg" id="Layer_2" data-name="Layer 2" viewBox="0 0 24 24"><path d="M17.78,7.33l-6.44,6.44A4.76,4.76,0,0,1,11,12a5,5,0,0,1,5-5A4.76,4.76,0,0,1,17.78,7.33Z" style="fill:#0071bc"/><path d="M20.21,9.29,13.3,16.2a4.82,4.82,0,0,1-1.49-1.49L18.72,7.8A4.82,4.82,0,0,1,20.21,9.29Z" style="fill:#0071bc"/><path d="M21,12a5,5,0,0,1-5,5,4.76,4.76,0,0,1-1.77-.33l6.44-6.44A4.76,4.76,0,0,1,21,12Z" style="fill:#0071bc"/><circle cx="5.51" cy="14" r="3.5" style="fill:#333"/><polygon points="22.01 7.49 11.5 18 10.01 16.51 11.81 14.71 18.72 7.8 20.52 6 22.01 7.49" style="fill:#333"/></svg>
