<?xml version="1.0" encoding="UTF-8" standalone="no"?>
<!DOCTYPE svg PUBLIC "-//W3C//DTD SVG 1.1//EN" "http://www.w3.org/Graphics/SVG/1.1/DTD/svg11.dtd">
<svg xmlns="http://www.w3.org/2000/svg" xmlns:xlink="http://www.w3.org/1999/xlink" xmlns:serif="http://www.serif.com/" viewBox="0 0 24 24" version="1.1" xml:space="preserve" style="fill-rule:evenodd;clip-rule:evenodd;stroke-linejoin:round;stroke-miterlimit:2;">
    <g id="Layer-1" serif:id="Layer 1" transform="matrix(1,0,0,1,1.82123,0)">
        <g id="g1884">
            <path id="path1516" d="M2,2L2,21L7.414,21C7.223,20.856 7.04,20.701 6.865,20.537C6.605,20.278 6.367,19.997 6.154,19.697C5.942,19.398 5.755,19.082 5.596,18.752C5.436,18.421 5.305,18.077 5.203,17.725C5.101,17.372 5.03,17.011 4.988,16.646C4.946,16.282 4.935,15.914 4.955,15.547C4.976,15.181 5.028,14.817 5.109,14.459C5.191,14.101 5.302,13.751 5.441,13.412C5.582,13.072 5.75,12.745 5.945,12.434C6.14,12.123 6.361,11.829 6.605,11.555C6.85,11.281 7.117,11.028 7.404,10.799C7.691,10.57 7.996,10.365 8.316,10.188C8.638,10.009 8.974,9.858 9.32,9.736C9.667,9.615 10.023,9.523 10.385,9.461C10.747,9.399 11.113,9.368 11.48,9.367C11.823,9.367 12.165,9.394 12.504,9.447C12.842,9.501 13.176,9.581 13.502,9.687C13.828,9.793 14.146,9.925 14.451,10.08C14.756,10.236 15.049,10.416 15.326,10.617C15.563,10.793 15.789,10.985 16,11.191L16,8L10,8L10,2L2,2Z" style="fill:rgb(51,51,51);fill-rule:nonzero;"/>
            <g id="polygon847" transform="matrix(1,0,0,1,-4,-1)">
                <path d="M16,3L20,7L16,7L16,3Z" style="fill-rule:nonzero;"/>
            </g>
            <g id="polygon849" transform="matrix(1,0,0,1,-4,-1)">
                <path d="M16,3L20,7L16,7L16,3Z" style="fill:rgb(51,51,51);fill-rule:nonzero;"/>
            </g>
            <path id="path1405" d="M11.288,13.436C11.356,13.431 11.424,13.428 11.492,13.428C12.856,13.428 13.977,14.55 13.977,15.913C13.977,17.276 12.856,18.398 11.492,18.398C10.202,18.398 9.115,17.392 9.015,16.105C8.909,14.751 9.934,13.548 11.288,13.436M11.096,11.049C8.58,11.254 6.618,13.382 6.618,15.907C6.618,18.581 8.818,20.781 11.492,20.781C14.166,20.781 16.366,18.581 16.366,15.907C16.366,15.777 16.361,15.647 16.351,15.517C16.133,12.851 13.763,10.835 11.096,11.049Z" style="fill:rgb(0,113,188);fill-rule:nonzero;"/>
            <g id="rect1407" transform="matrix(0.64833,-0.761359,0.761359,0.64833,0,0)">
                <rect x="-5.815" y="23.273" width="2.299" height="3.832" style="fill:rgb(0,113,188);"/>
            </g>
        </g>
    </g>
</svg>
