<svg xmlns="http://www.w3.org/2000/svg" viewBox="0 0 24 24"><g id="Layer_2" data-name="Layer 2"><path d="M13.06,9.7a3.79,3.79,0,0,1,1.43.27l-.49.52-2,2.13-1.66-1.77,0,0A3.81,3.81,0,0,1,11.59,10,3.85,3.85,0,0,1,13.06,9.7Z" style="fill:#333"/><path d="M13.06,5.5a8,8,0,0,1,4.4,1.32L15.21,9.21a4.78,4.78,0,0,0-5.53.89l0,0L7.46,7.79A8,8,0,0,1,13.06,5.5Z" style="fill:#333"/><path d="M22,2,18.15,6.08a9,9,0,0,0-11.37,1L2,2Z" style="fill:#333"/><path d="M10,21.94l0,0,0,0Z" style="fill:#333"/><path d="M13.34,18.29v1.2L11,21.21a7,7,0,0,1-1-.33V17.17A5.15,5.15,0,0,0,13.34,18.29Z" style="fill:#333"/><path d="M14,10v8l-.66-.66A4,4,0,0,1,10,15.71V11.26a4.35,4.35,0,0,1,.34-.41l0,0A3.81,3.81,0,0,1,11.59,10Z" style="fill:#333"/><path d="M20,6.2v5.29H15L16.39,10a4.47,4.47,0,0,0-1.18-.82,4.78,4.78,0,0,0-5.53.89l0,0a4.77,4.77,0,0,0,.35,7,5.15,5.15,0,0,0,3.34,1.12v3.2a8.84,8.84,0,0,1-2.3-.28,7,7,0,0,1-1-.33,7.9,7.9,0,0,1-2.59-1.73,8,8,0,0,1,0-11.31l0,0a8,8,0,0,1,10-1,7.81,7.81,0,0,1,1.12.89Z" style="fill:#0071bc"/><path d="M9.53,11.05v0l0,0Zm-.3.5h0Zm0,0h0Zm.3-.5v0l0,0Zm-.3.5h0Z" style="fill:#fff"/></g></svg>