<svg xmlns="http://www.w3.org/2000/svg" viewBox="0 0 24 24"><g id="Layer_2" data-name="Layer 2"><polygon points="11.67 12.27 11.95 12.27 11.95 12.57 11.67 12.27" style="fill:#333"/><path d="M13,5.58,16.32,8,14,10.5,13,11.61v-.34H11.47l-.16,0-.11,0-.11.05h0l-.15.1-.93-1L8.26,8.65l.19-.14.19-.13a5.31,5.31,0,0,1,.81-.44l.2-.08L10,7.73l.13,0,.42-.11.11,0,.44-.07h.15a4.41,4.41,0,0,1,.52,0H13Z" style="fill:#333"/><path d="M22,2,17,7.29,13.54,4.77,12,3.62V6.45h-.18a6.77,6.77,0,0,0-4.2,1.46L2,2Z" style="fill:#333"/><path d="M14,10v2.22L13,13V11.27H11.47l-.16,0-.11,0-.11.05h0l-.15.1h0l-.19.18-.21.25,0,0-.15.23c-.06.1-.11.2-.16.3a3.79,3.79,0,0,0-.18.42V10Z" style="fill:#333"/><path d="M13.54,13.79l.46-.33V19l-4,3V18h.77V14a2.74,2.74,0,0,1,.77-1.71H12v2.67Z" style="fill:#333"/><path d="M18.05,9.28,14,12.22,13,13V11.27H11.47l-.16,0-.11,0-.11.05h0l-.15.1h0l-.19.18-.21.25,0,0-.15.23c-.06.1-.11.2-.16.3a3.79,3.79,0,0,0-.18.42c0,.09-.07.19-.1.28a2.74,2.74,0,0,0-.09.39,2,2,0,0,0,0,.41v3H6V13.27a5.12,5.12,0,0,1,0-.56c0-.05,0-.09,0-.13s0-.3.07-.44a5.26,5.26,0,0,1,.15-.6c0-.15.1-.29.16-.43a3.82,3.82,0,0,1,.21-.46l.12-.23c0-.09.11-.17.17-.26a0,0,0,0,1,0,0,5.79,5.79,0,0,1,.43-.58,5,5,0,0,1,.45-.47,5.15,5.15,0,0,1,.5-.43l.19-.14.19-.13a5.31,5.31,0,0,1,.81-.44l.2-.08L10,7.73l.13,0,.42-.11.11,0,.44-.07h.15a4.41,4.41,0,0,1,.52,0H13V5.58L16.32,8Z" style="fill:#0071bc"/><path d="M18.05,9.28,14,12.22,13,13V11.27H11.47l-.16,0-.11,0-.11.05h0l-.15.1h0l-.19.18-.21.25,0,0-.15.23c-.06.1-.11.2-.16.3a1.72,1.72,0,0,0-.18.42c0,.09-.07.19-.1.28a2.74,2.74,0,0,0-.09.39,2,2,0,0,0,0,.41v3H6V13.27a5.12,5.12,0,0,1,0-.56c0-.05,0-.09,0-.13s0-.3.07-.44a5.26,5.26,0,0,1,.15-.6c0-.15.1-.29.16-.43a3.82,3.82,0,0,1,.21-.46l.12-.23c0-.09.11-.17.17-.26a0,0,0,0,1,0,0,5.79,5.79,0,0,1,.43-.58,5,5,0,0,1,.45-.47,5.15,5.15,0,0,1,.5-.43l.19-.14.19-.13a5.31,5.31,0,0,1,.81-.44l.2-.08L10,7.73l.13,0,.42-.11.11,0,.44-.07h.15a4.41,4.41,0,0,1,.52,0H13V5.58L16.32,8Z" style="fill:#0071bc"/></g></svg>