<svg xmlns="http://www.w3.org/2000/svg" viewBox="0 0 24 24"><g id="Layer_2" data-name="Layer 2"><polygon points="14.94 6.44 16.42 7.92 14 10.49 12 12.62 10 10.49 7.34 7.66 8.56 6.44 11.75 9.63 14.94 6.44" style="fill:#333"/><polygon points="22 1.99 17.11 7.19 15.65 5.73 14.94 5.03 14.23 5.73 11.75 8.22 9.27 5.73 8.56 5.03 7.85 5.73 6.65 6.93 2 1.99 22 1.99" style="fill:#333"/><polygon points="14 9.99 14 16.12 11.75 13.87 10 15.62 10 9.99 14 9.99" style="fill:#333"/><polygon points="11.75 15.28 14 17.54 14 18.99 10 21.99 10 17.04 11.75 15.28" style="fill:#333"/><polygon points="14 11.88 17.06 14.94 14.94 17.06 11.75 13.87 8.56 17.06 6.44 14.94 9.63 11.75 6.44 8.56 8.56 6.44 11.75 9.63 14.94 6.44 17.06 8.56 14 11.62 14 11.88" style="fill:#0071bc"/><path d="M13.87,11.75l.13.13v-.26Z" style="fill:#fff"/></g></svg>