<?xml version="1.0"?>
<svg xmlns="http://www.w3.org/2000/svg" viewBox="0 0 24 24"><g id="Layer_2" data-name="Layer 2"><path d="M7,17v1.68A2.28,2.28,0,0,0,9.28,21H15a1.27,1.27,0,0,1-1.24,1H7.28A1.28,1.28,0,0,1,6,20.72V18.28A1.27,1.27,0,0,1,7,17Z" style="fill:#0071bc"/><path d="M10,17a.86.86,0,0,1,0-.28V16.5h3.72A1.77,1.77,0,0,1,15.47,18H11.28A1.27,1.27,0,0,1,10,17Z" style="fill:#0071bc"/><path d="M15.5,19v1H9.28A1.28,1.28,0,0,1,8,18.72V16.5H9v.22A2.46,2.46,0,0,0,9,17a2.28,2.28,0,0,0,2.26,2Z" style="fill:#0071bc"/><path d="M9,16.72V16H8a.86.86,0,0,0,0,.28V17H9A2.46,2.46,0,0,1,9,16.72ZM13.72,16H10v.72A.86.86,0,0,0,10,17h3.68A1.27,1.27,0,0,1,15,18h1A2.28,2.28,0,0,0,13.72,16ZM15,19v1h.72A.86.86,0,0,0,16,20V19Z" style="fill:#fff"/><path d="M17,19a1.24,1.24,0,0,1-1,1,.86.86,0,0,1-.28,0H9.28A1.28,1.28,0,0,1,8,18.72V16.28A.86.86,0,0,1,8,16a1.24,1.24,0,0,1,1-1v1.68A2.46,2.46,0,0,0,9,17a2.28,2.28,0,0,0,2.26,2Z" style="fill:#0071bc"/><path d="M17.5,16.28V18H11.28A1.27,1.27,0,0,1,10,17a.86.86,0,0,1,0-.28V14.5h5.72A1.78,1.78,0,0,1,17.5,16.28Z" style="fill:#0071bc"/><path d="M15.72,14H10a.86.86,0,0,0,0,.28V15h5.72A1.28,1.28,0,0,1,17,16.28V18h.72A.86.86,0,0,0,18,18V16.28A2.28,2.28,0,0,0,15.72,14Z" style="fill:#fff"/><path d="M19,14.28v2.44A1.27,1.27,0,0,1,18,18a.86.86,0,0,1-.28,0H11.28A1.27,1.27,0,0,1,10,17a.86.86,0,0,1,0-.28V14.28A.86.86,0,0,1,10,14a1.27,1.27,0,0,1,1.24-1h6.44A1.28,1.28,0,0,1,19,14.28Z" style="fill:#0071bc"/><polygon points="17 2 13 6.67 12 7.84 11 6.67 7 2 17 2" style="fill:#333"/><polygon points="11 5 13 5 13 10 11 12 11 5" style="fill:#333"/></g></svg>
