<?xml version="1.0"?>
<svg xmlns="http://www.w3.org/2000/svg" viewBox="0 0 24 24"><g id="Layer_2" data-name="Layer 2"><path d="M11,14a3,3,0,0,1-3,3,3,3,0,0,1-1.84-5.37A4.48,4.48,0,0,1,5.6,9.44V8.5A6,6,0,0,0,8,20a5.91,5.91,0,0,0,3.12-.88,5.3,5.3,0,0,0,1.12-.88,5.3,5.3,0,0,0,.88-1.12A5.91,5.91,0,0,0,14,14Zm-.77-2h3.42A6,6,0,0,0,8,8a2.61,2.61,0,0,0-.4,0V9.44A2.55,2.55,0,0,0,8.14,11,3,3,0,0,1,10.23,12Z" style="fill:#333"/><rect x="11.92" y="16.98" width="2.83" height="4.71" transform="translate(-9.77 15.09) rotate(-45)" style="fill:#333"/><path d="M22,6.56V9.44A2.56,2.56,0,0,1,19.44,12H10.16A2.56,2.56,0,0,1,7.6,9.44V6.56A2.56,2.56,0,0,1,10.16,4h9.28A2.56,2.56,0,0,1,22,6.56Z" style="fill:#0071bc"/></g></svg>
