<?xml version="1.0" encoding="UTF-8" standalone="no"?>
<svg xmlns:rdf="http://www.w3.org/1999/02/22-rdf-syntax-ns#" xmlns="http://www.w3.org/2000/svg" height="4.5156mm" width="4.5156mm" version="1.1" xmlns:cc="http://creativecommons.org/ns#" xmlns:xlink="http://www.w3.org/1999/xlink" viewBox="0 0 16.000003 15.999999" xmlns:dc="http://purl.org/dc/elements/1.1/">
 <defs>
  <linearGradient id="a" y2="557.24" gradientUnits="userSpaceOnUse" x2="290.7" y1="558.21" x1="290.75">
   <stop stop-color="#b6c6dd" offset="0"/>
   <stop stop-color="#f7fafd" offset="1"/>
  </linearGradient>
  <linearGradient id="b" y2="563.76" gradientUnits="userSpaceOnUse" x2="285.19" gradientTransform="matrix(1.7686 0 0 1.8459 -306.28 -490.99)" y1="563.58" x1="295.32">
   <stop stop-color="#2a89ea" offset="0"/>
   <stop stop-color="#d4e2f6" offset=".47542"/>
   <stop stop-color="#e5eef9" offset=".86308"/>
   <stop stop-color="#f7fafd" offset="1"/>
  </linearGradient>
 </defs>
 <metadata>
  <rdf:RDF>
   <cc:Work rdf:about="">
    <dc:format>image/svg+xml</dc:format>
    <dc:type rdf:resource="http://purl.org/dc/dcmitype/StillImage"/>
    <dc:title/>
   </cc:Work>
  </rdf:RDF>
 </metadata>
 <g transform="translate(-17.484 -254.36)">
  <g transform="matrix(.49915 0 0 .49915 -78.016 -27.261)">
   <g fill-rule="evenodd" transform="translate(.0000051953 28.466)" stroke="#000080">
    <path stroke-linejoin="round" d="m192.08 538.38c1.5448 6.8951 11.713 11.923 12.715 15.136l0.0641 13.784 5.4493-5.8882-0.19234-8.2969c0.63957-3.4367 7.9818-5.1312 12.518-14.801" stroke-linecap="round" stroke-width=".90705" fill="url(#b)"/>
    <ellipse rx="8.6451" ry=".79745" transform="matrix(1.7715 0 0 2.4653 -307.3 -837.27)" cy="557.94" cx="290.51" stroke-width=".43432" fill="url(#a)"/>
   </g>
   <rect rx=".16552" ry=".18513" height="32" width="32" y="564.25" x="191.33" fill="none"/>
  </g>
  <g transform="matrix(-.98294 0 0 .98294 232.15 -332.74)">
   <path d="m206.43 609.36 10.358 0.14386" stroke="#00f" stroke-width="1.5" fill="none"/>
   <circle style="color:#000000" cx="205.27" stroke="#000" cy="609.43" r="3.0304" stroke-width=".25" fill="#00f"/>
   <circle style="color:#000000" stroke-width=".25" stroke="#000" cy="609.43" cx="216.54" r="1.7269" fill="#00f"/>
   <circle style="color:#000000" cx="211.55" stroke="#000" cy="609.43" r="2.1787" stroke-width=".25" fill="#00f"/>
  </g>
 </g>
</svg>
