<svg xmlns="http://www.w3.org/2000/svg" viewBox="0 0 24 24"><g id="Layer_2" data-name="Layer 2"><polygon points="12.34 12.27 12.04 12.59 12.04 12.27 12.34 12.27" style="fill:#333"/><path d="M12.22,7.45a5.71,5.71,0,0,1,3.52,1.2L14,10.5l-.93,1a.87.87,0,0,0-.54-.22H11v.34L10,10.5,7.67,8,11,5.58V7.45Z" style="fill:#333"/><path d="M22,2,16.43,7.92a6.77,6.77,0,0,0-4.21-1.47H12V3.62L10.46,4.77,7,7.29,2,2Z" style="fill:#333"/><path d="M14,10v2.9a3.26,3.26,0,0,0-.93-1.41.87.87,0,0,0-.54-.22H11V13l-1-.76V10Z" style="fill:#333"/><path d="M14,18v1l-4,3V13.46l.46.33L12,14.94V12.27h.42A2.76,2.76,0,0,1,13.23,14v4Z" style="fill:#333"/><path d="M18.05,13.27V17H14.23V14A3,3,0,0,0,14,12.9a3.26,3.26,0,0,0-.93-1.41.87.87,0,0,0-.54-.22H11V13l-1-.76L6,9.28,7.67,8,11,5.58V7.45h1.18a5.71,5.71,0,0,1,3.52,1.2A5.78,5.78,0,0,1,18.05,13.27Z" style="fill:#0071bc"/><path d="M18.05,13.27V17H14.23V14A3,3,0,0,0,14,12.9a3.26,3.26,0,0,0-.93-1.41.87.87,0,0,0-.54-.22H11V13l-1-.76L6,9.28,7.67,8,11,5.58V7.45h1.18a5.71,5.71,0,0,1,3.52,1.2A5.78,5.78,0,0,1,18.05,13.27Z" style="fill:#0071bc"/></g></svg>