<?xml version="1.0" encoding="UTF-8" standalone="no"?>
<!-- Created with Inkscape (http://www.inkscape.org/) -->
<svg xmlns:inkscape="http://www.inkscape.org/namespaces/inkscape" xmlns:sodipodi="http://sodipodi.sourceforge.net/DTD/sodipodi-0.dtd" xmlns="http://www.w3.org/2000/svg" xmlns:svg="http://www.w3.org/2000/svg" xmlns:rdf="http://www.w3.org/1999/02/22-rdf-syntax-ns#" xmlns:cc="http://creativecommons.org/ns#" xmlns:dc="http://purl.org/dc/elements/1.1/" viewBox="0 0 24 24" version="1.1" id="svg10437" inkscape:version="1.1.2 (b8e25be833, 2022-02-05)" sodipodi:docname="unlock.svg">
  <defs id="defs10431"/>
  <sodipodi:namedview id="base" pagecolor="#ffffff" bordercolor="#666666" borderopacity="1.0" inkscape:pageopacity="0.0" inkscape:pageshadow="2" inkscape:zoom="15.538184" inkscape:cx="20.336997" inkscape:cy="2.4455882" inkscape:document-units="px" inkscape:current-layer="layer1" inkscape:pagecheckerboard="0" showgrid="true" units="px" showguides="true" inkscape:guide-bbox="true" inkscape:snap-global="true" inkscape:snap-bbox="true" inkscape:snap-page="true" inkscape:window-width="1920" inkscape:window-height="1017" inkscape:window-x="-8" inkscape:window-y="-8" inkscape:window-maximized="1">
    <sodipodi:guide position="0,22" orientation="0,1" id="guide10894" inkscape:label="" inkscape:locked="false" inkscape:color="rgb(0,0,255)"/>
    <sodipodi:guide position="22,24" orientation="-1,0" id="guide10978" inkscape:label="" inkscape:locked="false" inkscape:color="rgb(0,0,255)"/>
    <sodipodi:guide position="11.065513,2" orientation="0,1" id="guide10982" inkscape:label="" inkscape:locked="false" inkscape:color="rgb(0,0,255)"/>
    <sodipodi:guide position="2,22" orientation="-1,0" id="guide10986" inkscape:label="" inkscape:locked="false" inkscape:color="rgb(0,0,255)"/>
    <inkscape:grid type="xygrid" id="grid920"/>
  </sodipodi:namedview>
  <metadata id="metadata10434">
    <rdf:RDF>
      <cc:Work rdf:about="">
        <dc:format>image/svg+xml</dc:format>
        <dc:type rdf:resource="http://purl.org/dc/dcmitype/StillImage"/>
      </cc:Work>
    </rdf:RDF>
  </metadata>
  <g inkscape:label="Layer 1" inkscape:groupmode="layer" id="layer1">
    <path id="path28835" style="color:#000000;fill:#0071bc;stroke-width:2;stroke-linejoin:bevel;-inkscape-stroke:none" d="M 11.998329,2 C 11.865814,2.1873362 11.727834,2.3692475 11.586452,2.5473825 11.445077,2.7255191 11.300896,2.8984342 11.151325,3.0673958 11.001753,3.2363575 10.846707,3.4036428 10.689626,3.563461 10.532537,3.7232792 10.371909,3.8780352 10.207995,4.0287379 10.044087,4.1794301 9.8765051,4.3250286 9.7064385,4.4666439 9.5363701,4.6082627 9.3638137,4.7446248 9.1882709,4.877179 9.0127282,5.009742 8.8371565,5.136824 8.6568179,5.2603468 8.4764794,5.3838713 8.2932139,5.5050469 8.1087564,5.6195681 7.9243005,5.7340893 7.7386287,5.84245 7.5507307,5.9479976 7.3628345,6.0535505 7.1733991,6.1558786 6.982741,6.2524788 6.7920829,6.349081 6.5975268,6.44191 6.4047854,6.529591 6.212044,6.6172773 6.020976,6.7005496 5.8268316,6.7793341 5.6326854,6.8581221 5.4371039,6.931778 5.2422333,7.001708 5.0473609,7.0716328 4.8525532,7.1356197 4.6576333,7.1967128 4.462715,7.2578095 4.267324,7.315473 4.073035,7.3677765 3.8787477,7.4200621 3.6847375,7.4679517 3.4917597,7.5114621 3.4766239,7.7997392 3.4661139,8.0822183 3.458546,8.359905 3.450896,8.6375918 3.445281,8.9103441 3.445281,9.1775578 c -6.63e-5,0.267212 0.00595,0.5300068 0.013265,0.7868616 0.00731,0.2568556 0.015306,0.5094576 0.029897,0.7560726 0.014626,0.246615 0.034795,0.485371 0.056462,0.72186 0.021666,0.23649 0.047754,0.468013 0.076393,0.694493 0.028639,0.226479 0.060832,0.450535 0.096325,0.667121 0.035493,0.216587 0.074029,0.426102 0.1162564,0.632911 0.04221,0.206811 0.087379,0.408393 0.1361881,0.605541 0.048809,0.197149 0.1008485,0.39057 0.1561196,0.578173 0.055271,0.187604 0.1144367,0.369207 0.1760427,0.547382 0.061598,0.178177 0.1248447,0.354573 0.1926513,0.523437 0.067805,0.168856 0.138705,0.332977 0.2125812,0.492644 0.073876,0.159661 0.1493851,0.314688 0.2291898,0.465276 0.079811,0.150586 0.1635004,0.296283 0.2491179,0.437905 0.085611,0.141618 0.1744339,0.277762 0.2657265,0.410537 0.099777,0.145105 0.1996222,0.286533 0.302265,0.424221 0.1026512,0.137695 0.2096832,0.273217 0.3155504,0.403695 0.1058654,0.130478 0.2127495,0.256269 0.3221931,0.379747 0.1094369,0.123471 0.2187852,0.242536 0.3321573,0.359219 0.1133653,0.116676 0.2311115,0.232018 0.3487658,0.342113 0.117651,0.11009 0.2364397,0.21445 0.3587317,0.318166 0.1222937,0.103715 0.2480567,0.206938 0.3753384,0.304482 0.1272767,0.09755 0.2560005,0.188953 0.3886257,0.280533 0.1326166,0.09158 0.2669118,0.181025 0.4052325,0.26685 0.1383138,0.08583 0.2807925,0.169469 0.4251624,0.249743 0.1443681,0.08028 0.2909981,0.157699 0.4417709,0.232639 0.1507796,0.07493 0.3041714,0.145735 0.4616992,0.215531 0.1575311,0.0698 0.3203141,0.140392 0.4849501,0.205267 0.16464,0.06488 0.332781,0.124577 0.504881,0.184743 0.1721,0.06017 0.348216,0.11883 0.528131,0.174479 0.18443,0.05295 0.364009,0.109635 0.551383,0.1608 0.186891,-0.05102 0.367412,-0.10797 0.551383,-0.1608 0.179939,-0.05565 0.355985,-0.11431 0.528132,-0.174479 0.172143,-0.06015 0.340179,-0.119864 0.50488,-0.184743 0.164708,-0.06488 0.327344,-0.13547 0.48495,-0.205267 0.157599,-0.0698 0.310838,-0.140603 0.461699,-0.215531 0.150865,-0.07493 0.297305,-0.152357 0.441771,-0.232639 0.144471,-0.08028 0.28674,-0.163918 0.425163,-0.249743 0.138416,-0.08583 0.275826,-0.175268 0.408554,-0.26685 0.132735,-0.09157 0.261241,-0.182988 0.388625,-0.280533 0.127379,-0.09755 0.25295,-0.200764 0.375339,-0.304482 0.122395,-0.103713 0.240985,-0.20807 0.358731,-0.318166 0.117736,-0.110089 0.235316,-0.22543 0.348766,-0.342113 0.11345,-0.116676 0.222653,-0.235742 0.332157,-0.359219 0.109505,-0.123472 0.216282,-0.249269 0.322194,-0.379747 0.105916,-0.130478 0.212884,-0.266005 0.31555,-0.403695 0.102668,-0.137696 0.202491,-0.279115 0.302265,-0.424221 0.09129,-0.132774 0.180111,-0.268917 0.265726,-0.410537 0.08561,-0.141619 0.169317,-0.28732 0.249118,-0.437905 0.07981,-0.150588 0.155321,-0.30561 0.22919,-0.465276 0.07386,-0.159661 0.144776,-0.323782 0.212581,-0.492644 0.0678,-0.168857 0.131052,-0.34526 0.192652,-0.523437 0.0616,-0.178175 0.12078,-0.359778 0.176042,-0.547382 0.05527,-0.187603 0.107311,-0.381024 0.15612,-0.578173 0.04881,-0.197148 0.09396,-0.39873 0.136188,-0.605541 0.04221,-0.206809 0.08076,-0.416324 0.116256,-0.632911 0.03549,-0.216586 0.06769,-0.440642 0.09633,-0.667121 0.02864,-0.22648 0.05473,-0.458003 0.07639,-0.694493 0.02167,-0.236489 0.04192,-0.475245 0.05646,-0.72186 0.01463,-0.246615 0.02259,-0.499217 0.0299,-0.7560726 0.0073,-0.2568548 0.01344,-0.5196496 0.01327,-0.7868616 -6.4e-5,-0.2672137 -0.0058,-0.539966 -0.01327,-0.8176528 -0.0077,-0.2776867 -0.01801,-0.5601658 -0.03321,-0.8484429 -0.193032,-0.043528 -0.386933,-0.0914 -0.581283,-0.1436856 C 19.732604,7.3154905 19.537346,7.2578095 19.342355,7.1967128 19.147365,7.1356337 18.95271,7.0716118 18.757756,7.001708 18.562804,6.9318007 18.367393,6.8581098 18.173158,6.7793341 17.978925,6.7005636 17.784716,6.6172388 17.591883,6.529591 17.399048,6.4419398 17.208002,6.3490495 17.017248,6.2524788 16.826495,6.1559118 16.63725,6.0535172 16.449259,5.9479976 16.261266,5.8424798 16.075782,5.7340648 15.891233,5.6195681 15.706682,5.5050645 15.523599,5.3872747 15.343172,5.2637695 15.162745,5.1402625 14.984022,5.0097262 14.808397,4.877179 14.632773,4.7446337 14.460371,4.6082575 14.29023,4.4666439 14.12009,4.3250251 13.952647,4.1794511 13.788673,4.0287379 13.624696,3.8780282 13.464171,3.7233037 13.307042,3.5634575 13.149902,3.4036218 12.99494,3.239824 12.845337,3.0708167 12.695731,2.9018113 12.551608,2.7255804 12.410209,2.5473825 12.268817,2.3691862 12.130843,2.1874185 11.998334,2 Z"/>
  </g>
</svg>
