<?xml version="1.0" encoding="UTF-8" standalone="no"?>
<svg xmlns:rdf="http://www.w3.org/1999/02/22-rdf-syntax-ns#" xmlns="http://www.w3.org/2000/svg" height="32" width="32" version="1.1" xmlns:cc="http://creativecommons.org/ns#" xmlns:xlink="http://www.w3.org/1999/xlink" viewBox="0 0 32.000464 31.999999" xmlns:dc="http://purl.org/dc/elements/1.1/">
<defs>
<radialGradient id="a" gradientUnits="userSpaceOnUse" cy="43.321" cx="38.931" gradientTransform="matrix(.98881 1.4823 -1.2393 .9293 53.784 -56.118)" r="15.091">
<stop stop-color="#fff" offset="0"/>
<stop stop-color="#999" offset=".95096"/>
<stop stop-color="#f0f" offset=".99891"/>
<stop stop-color="#fff" stop-opacity="0" offset="1"/>
</radialGradient>
<radialGradient id="b" gradientUnits="userSpaceOnUse" cy="43.321" cx="38.931" gradientTransform="matrix(.98881 1.4823 -1.2393 .9293 53.784 -56.118)" r="15.091">
<stop stop-color="#fff" offset="0"/>
<stop stop-color="#f0f" offset=".99891"/>
<stop stop-color="#fff" stop-opacity="0" offset="1"/>
</radialGradient>
</defs>
<metadata>
<rdf:RDF>
<cc:Work rdf:about="">
<dc:format>image/svg+xml</dc:format>
<dc:type rdf:resource="http://purl.org/dc/dcmitype/StillImage"/>
<dc:title/>
</cc:Work>
</rdf:RDF>
</metadata>
<g transform="translate(-73.976 -395.6)">
<g transform="matrix(.5 0 0 .5 73.975 395.6)">
<path fill="url(#a)" d="m61.455 46.545a15.091 16 0 0 1 -15.091 16 15.091 16 0 0 1 -15.091 -16 15.091 16 0 0 1 15.091 -16 15.091 16 0 0 1 15.091 16z" transform="matrix(2.1205,0,0,2,-66.313,-61.091)"/>
<path fill="url(#b)" d="m46.364 30.545a15.091 16 0 0 1 15.091 16h-15.091z" transform="matrix(2.1205,0,0,2,-66.313,-61.091)"/>
</g>
</g>
</svg>
