<?xml version="1.0" encoding="UTF-8" standalone="no"?>
<svg xmlns:rdf="http://www.w3.org/1999/02/22-rdf-syntax-ns#" xmlns="http://www.w3.org/2000/svg" height="9.0311mm" width="9.0304mm" version="1.1" xmlns:cc="http://creativecommons.org/ns#" xmlns:dc="http://purl.org/dc/elements/1.1/" viewBox="0 0 31.997559 31.999853">
<metadata>
<rdf:RDF>
<cc:Work rdf:about="">
<dc:format>image/svg+xml</dc:format>
<dc:type rdf:resource="http://purl.org/dc/dcmitype/StillImage"/>
<dc:title/>
</cc:Work>
</rdf:RDF>
</metadata>
<g transform="translate(-344 -622.08)">
<path stroke-linejoin="round" d="m354.73 622.31c-0.5678 0.0423-1.0559 0.40344-1.2438 0.92034-0.1878 0.5169-0.04 1.0917 0.377 1.4648l18.95 18.075 0.078 8.3076h-7.6519l-17.695-17.155 4.2724-4.7218 13.955 12.934c0.8616 0.84253-0.4658 2.1548-1.4059 1.2223l-11.653-10.769c-0.5613-0.5396-1.4713-0.5396-2.0325 0-0.5613 0.5396-0.5613 1.4144 0 1.954l12.67 11.746c0.4139 0.25967 0.6122 0.32755 1.1127 0.40563 0.5109 0.0797 0.8084 0.0473 1.4683-0.0254 0.9739-0.10769 2.932-1.2839 3.2955-3.3161 0.062-0.45205 0.07-0.81643-0.014-1.1248-0.097-0.35465-0.2483-0.67181-0.4219-0.97703l-16.078-15.124c-0.2933-0.2797-0.6977-0.4243-1.1099-0.39678-0.4121 0.0275-0.7919 0.22446-1.0422 0.54047l-6.0359 6.9344c-0.4365 0.54733-0.3854 1.3205 0.1195 1.8104l18.98 18.42c0.2698 0.25845 0.6354 0.40319 1.0163 0.4023h9.6843c0.7923-0.00008 1.4346-0.61758 1.4347-1.3793l-0.078-10.204c0.01-0.3761-0.1422-0.73939-0.4185-1.0058l-19.369-18.506c-0.2997-0.30727-0.7291-0.46602-1.1657-0.43105z" fill-rule="evenodd" stroke="#000" stroke-linecap="round" stroke-width=".46892" fill="#164450"/>
</g>
</svg>
