<?xml version="1.0" encoding="UTF-8" standalone="no"?>
<svg xmlns:rdf="http://www.w3.org/1999/02/22-rdf-syntax-ns#" xmlns="http://www.w3.org/2000/svg" height="32" width="31.656" version="1.1" xmlns:cc="http://creativecommons.org/ns#" xmlns:xlink="http://www.w3.org/1999/xlink" viewBox="0 0 31.655999 31.999999" xmlns:dc="http://purl.org/dc/elements/1.1/">
<defs>
<linearGradient id="f">
<stop stop-color="#fce594" offset="0"/>
<stop stop-color="#e0a916" offset="1"/>
</linearGradient>
<linearGradient id="b">
<stop stop-color="#487cd2" offset="0"/>
<stop stop-color="#fff" offset="1"/>
</linearGradient>
<linearGradient id="c" y2="542.24" gradientUnits="userSpaceOnUse" y1="576.96" gradientTransform="matrix(1.0958 0 0 .84992 -220.33 83.378)" x2="181.06" x1="205.6">
<stop stop-color="#4679d1" offset="0"/>
<stop stop-color="#fff" offset="1"/>
</linearGradient>
<radialGradient id="a" xlink:href="#f" gradientUnits="userSpaceOnUse" cy="526.19" cx="157" gradientTransform="matrix(0.6104,8.8908e-6,-3.4584e-5,2.3744,43.709,-699.22)" r="2.5231"/>
<linearGradient id="d" y2="607.09" xlink:href="#b" gradientUnits="userSpaceOnUse" y1="608.99" gradientTransform="matrix(.97612 0 0 .97612 -159.04 -31.357)" x2="198.02" x1="200.21"/>
<linearGradient id="e" y2="612.86" xlink:href="#b" gradientUnits="userSpaceOnUse" y1="609.96" gradientTransform="matrix(.97612 0 0 .97612 -159.04 -31.357)" x2="205.23" x1="201.64"/>
</defs>
<metadata>
<rdf:RDF>
<cc:Work rdf:about="">
<dc:format>image/svg+xml</dc:format>
<dc:type rdf:resource="http://purl.org/dc/dcmitype/StillImage"/>
<dc:title/>
</cc:Work>
</rdf:RDF>
</metadata>
<g transform="translate(-145.69 -600.21)">
<g transform="translate(135.62,62.837)">
<rect transform="matrix(.99803 -.062668 .067934 .99769 0 0)" height="26.048" width="27.186" stroke="#000080" stroke-linecap="round" y="541.99" x="-25.424" stroke-width=".69208" fill="url(#c)"/>
<g stroke-linejoin="round" stroke-linecap="round" transform="matrix(.50288 -.035635 .035635 .50288 -74.382 269.22)">
<path d="m162.05 533.23a2.7803 2.7803 0 0 1 -2.7803 2.7803 2.7803 2.7803 0 0 1 -2.7804 -2.7803 2.7803 2.7803 0 0 1 2.7804 -2.7804 2.7803 2.7803 0 0 1 2.7803 2.7804z" transform="matrix(1.0874,0,0,1.0874,-33.668,-22.498)" stroke="#000" stroke-width=".5" fill="#fff"/>
<path d="m141.55 557.63c-1.3932 1.2534-2.4896 1.2288-4.0462 0.16664l0.0206-9.7177c1.3402-1.1275 2.5219-1.1302 3.9788-0.0468l0.0468 9.5978z" stroke-opacity=".80814" fill-rule="evenodd" stroke="#774d10" stroke-width="1px" fill="url(#a)"/>
</g>
<text font-size="22.294px" stroke-width=".21951" space="preserve" transform="rotate(-3.5331)" stroke="#000000" y="560.32349" x="-19.352104" font-family="Georgia" line-height="125%" fill="#d40000">
<tspan y="560.32349" x="-19.352104" stroke-width=".21951">12</tspan>
</text>
<path stroke-linejoin="round" d="m39.791 559.82-6.7952 7.1864c0.34287-2.1596 0.6651-4.6854 0.11991-7.1297 2.755 0.42873 4.5813 0.50553 6.6752-0.0568z" fill-rule="evenodd" stroke="#000080" stroke-linecap="round" stroke-width=".73209" fill="url(#d)"/>
<path stroke-linejoin="round" d="m40.312 566.5c-0.51172 0-7.3051 0.51213-7.3051 0.51213l6.9228-7.2693 0.3823 6.7572z" fill-rule="evenodd" stroke="#000080" stroke-width=".73209" fill="url(#e)"/>
<g stroke-linejoin="round" stroke-linecap="round" transform="matrix(.50288 -.035635 .035635 .50288 -68.119 268.92)">
<path d="m162.05 533.23a2.7803 2.7803 0 0 1 -2.7803 2.7803 2.7803 2.7803 0 0 1 -2.7804 -2.7803 2.7803 2.7803 0 0 1 2.7804 -2.7804 2.7803 2.7803 0 0 1 2.7803 2.7804z" transform="matrix(1.0874,0,0,1.0874,-33.668,-22.498)" stroke="#000" stroke-width=".5" fill="#fff"/>
<path d="m141.55 557.63c-1.3932 1.2534-2.4896 1.2288-4.0462 0.16664l0.0206-9.7177c1.3402-1.1275 2.5219-1.1302 3.9788-0.0468l0.0468 9.5978z" stroke-opacity=".80814" fill-rule="evenodd" stroke="#774d10" stroke-width="1px" fill="url(#a)"/>
</g>
<g stroke-linejoin="round" stroke-linecap="round" transform="matrix(.50288 -.035635 .035635 .50288 -61.856 268.47)">
<path d="m162.05 533.23a2.7803 2.7803 0 0 1 -2.7803 2.7803 2.7803 2.7803 0 0 1 -2.7804 -2.7803 2.7803 2.7803 0 0 1 2.7804 -2.7804 2.7803 2.7803 0 0 1 2.7803 2.7804z" transform="matrix(1.0874,0,0,1.0874,-33.668,-22.498)" stroke="#000" stroke-width=".5" fill="#fff"/>
<path d="m141.55 557.63c-1.3932 1.2534-2.4896 1.2288-4.0462 0.16664l0.0206-9.7177c1.3402-1.1275 2.5219-1.1302 3.9788-0.0468l0.0468 9.5978z" stroke-opacity=".80814" fill-rule="evenodd" stroke="#774d10" stroke-width="1px" fill="url(#a)"/>
</g>
<g stroke-linejoin="round" stroke-linecap="round" transform="matrix(.50288 -.035635 .035635 .50288 -55.593 268.12)">
<path d="m162.05 533.23a2.7803 2.7803 0 0 1 -2.7803 2.7803 2.7803 2.7803 0 0 1 -2.7804 -2.7803 2.7803 2.7803 0 0 1 2.7804 -2.7804 2.7803 2.7803 0 0 1 2.7803 2.7804z" transform="matrix(1.0874,0,0,1.0874,-33.668,-22.498)" stroke="#000" stroke-width=".5" fill="#fff"/>
<path d="m141.55 557.63c-1.3932 1.2534-2.4896 1.2288-4.0462 0.16664l0.0206-9.7177c1.3402-1.1275 2.5219-1.1302 3.9788-0.0468l0.0468 9.5978z" stroke-opacity=".80814" fill-rule="evenodd" stroke="#774d10" stroke-width="1px" fill="url(#a)"/>
</g>
<rect rx=".20723" ry=".20723" height="32" width="31.656" y="537.37" x="10.068" fill="none"/>
</g>
</g>
</svg>
