<?xml version="1.0" encoding="UTF-8" standalone="no"?>
<svg xmlns:rdf="http://www.w3.org/1999/02/22-rdf-syntax-ns#" xmlns="http://www.w3.org/2000/svg" height="31.948" width="32" version="1.1" xmlns:cc="http://creativecommons.org/ns#" xmlns:xlink="http://www.w3.org/1999/xlink" viewBox="0 0 31.99965 31.947845" xmlns:dc="http://purl.org/dc/elements/1.1/">
<defs>
<linearGradient id="a" y2="378.15" gradientUnits="userSpaceOnUse" y1="343.67" gradientTransform="matrix(.034458 -.0045512 .0045512 .034458 50.49 502)" x2="181.28" x1="171.37">
<stop stop-color="#c8c800" offset="0"/>
<stop stop-color="#ffff49" offset="1"/>
</linearGradient>
</defs>
<metadata>
<rdf:RDF>
<cc:Work rdf:about="">
<dc:format>image/svg+xml</dc:format>
<dc:type rdf:resource="http://purl.org/dc/dcmitype/StillImage"/>
<dc:title/>
</cc:Work>
</rdf:RDF>
</metadata>
<g transform="translate(-69.758 -600.3)">
<g transform="matrix(1.99,0,0,1.99,-43.26,-415.13)">
<path fill-opacity=".39216" d="m57.404 513.19c1.7717-0.68915 4.6762-1.0467 4.6762-1.0467l8.2754-1.093 0.8896 6.7353s0.47528 3.9326 1.6282 5.8108c-2.6976 1.1187-7.4739 1.8141-7.4739 1.8141l-6.7353 0.8896-1.5217-11.521s-0.24257-0.91915 0.26155-1.5887z"/>
<path d="m57.146 512.94c2.0323-0.58487 4.7631-0.9424 4.7631-0.9424l8.2754-1.093 0.8896 6.7353s0.30472 2.6413 1.4577 4.5194c-2.1964 2.6463-7.3034 3.1054-7.3034 3.1054l-6.7353 0.88959-1.5217-11.521s-0.13194-1.1078 0.17466-1.693z" stroke="#000" stroke-width="0.3" fill="url(#a)"/>
<g transform="matrix(.20785 0 0 .20785 49.567 414.22)">
<path fill="#dfdf1f" d="m527.82 393.14a123.43 123.43 0 0 1 -123.43 123.44 123.43 123.43 0 0 1 -123.44 -123.44 123.43 123.43 0 0 1 123.44 -123.43 123.43 123.43 0 0 1 123.43 123.43z" transform="matrix(.097805 -.017874 .016854 .092222 22.094 450.65)"/>
<g transform="matrix(.22442 0 0 .22442 -7.5146 451.03)">
<path fill="#00bf00" d="m527.82 393.14a123.43 123.43 0 0 1 -123.43 123.44 123.43 123.43 0 0 1 -123.44 -123.44 123.43 123.43 0 0 1 123.44 -123.43 123.43 123.43 0 0 1 123.43 123.43z" transform="matrix(.43582 -.079648 .075103 .41094 140.95 -12.415)"/>
<path fill="#00d600" d="m509.34 405.88-152.09 27.81-31.84 143.87c17.672 2.6926 36.123 2.7338 54.844-0.6875 84.379-15.421 141.36-91.532 129.09-171z" transform="matrix(.34629 0 0 .34629 227.1 -36.051)"/>
<path fill="#00e600" d="m358.56 281.16c-10.467-0.1047-21.125 0.79104-31.844 2.75-85.752 15.672-143.34 94.018-128.56 174.88 11.551 63.205 63.973 109.14 127.25 118.78l31.84-143.88 152.09-27.81c-0.1997-1.2933-0.26335-2.5801-0.5-3.875-12.93-70.75-77.01-120.11-150.28-120.84z" transform="matrix(.34629 0 0 .34629 227.1 -36.051)"/>
<path fill="#090" d="m294.21 361.94-11.417 8.4406-21.06 15.749c-8.5971 18.275-7.3982 37.665-2.0165 58.264 13.962 53.441 53.709 79.564 109.79 73.192 28.709-3.2616 55.008-12.916 71.137-33.43l29.26-36.68-175.69-85.54z" transform="matrix(.34629 0 0 .34629 227.1 -36.051)"/>
<path fill="#00bf00" d="m527.82 393.14a123.43 123.43 0 0 1 -123.43 123.44 123.43 123.43 0 0 1 -123.44 -123.44 123.43 123.43 0 0 1 123.44 -123.43 123.43 123.43 0 0 1 123.43 123.43z" transform="matrix(.34065 -.062255 .058702 .3212 200.08 -8.6127)"/>
<path fill="#00e600" d="m527.82 393.14a123.43 123.43 0 0 1 -123.43 123.44 123.43 123.43 0 0 1 -123.44 -123.44 123.43 123.43 0 0 1 123.44 -123.43 123.43 123.43 0 0 1 123.43 123.43z" transform="matrix(.34065 -.062255 .058702 .3212 203.09 -11.37)"/>
</g>
</g>
</g>
</g>
</svg>
