<?xml version="1.0" encoding="UTF-8" standalone="no"?>
<svg xmlns:rdf="http://www.w3.org/1999/02/22-rdf-syntax-ns#" xmlns="http://www.w3.org/2000/svg" height="9.0598mm" width="9.0311mm" version="1.1" xmlns:cc="http://creativecommons.org/ns#" xmlns:xlink="http://www.w3.org/1999/xlink" viewBox="0 0 32.0001 32.10182" xmlns:dc="http://purl.org/dc/elements/1.1/">
<defs>
<linearGradient id="a" y2="39.685" gradientUnits="userSpaceOnUse" y1="12.285" gradientTransform="matrix(.86831 0 0 .86831 516.57 525.9)" x2="34.534" x1="14.463">
<stop stop-color="#8da6d8" offset="0"/>
<stop stop-color="#b4c5e5" offset=".25"/>
<stop stop-color="#d8e1f2" offset=".5"/>
<stop stop-color="#92aada" offset=".75"/>
<stop stop-color="#8ea7d8" offset="1"/>
</linearGradient>
</defs>
<metadata>
<rdf:RDF>
<cc:Work rdf:about="">
<dc:format>image/svg+xml</dc:format>
<dc:type rdf:resource="http://purl.org/dc/dcmitype/StillImage"/>
<dc:title/>
</cc:Work>
</rdf:RDF>
</metadata>
<g transform="translate(-521.14 -530.6)">
<path style="color:#000000" d="m536.34 531.27c-0.3254 0.0241-0.64172 0.0725-0.96134 0.10938h-0.0241l-0.76471 4.1731c-1.2464 0.28385-2.419 0.76557-3.474 1.4202l-3.4302-2.4689c-0.92726 0.71989-1.7711 1.5595-2.5126 2.4689l2.3815 3.474c-0.72307 1.105-1.2669 2.3668-1.5731 3.6924-0.00004 0.008-0.00004 0.0213 0 0.0241l-4.1512 0.65545c-0.0761 0.61988-0.10938 1.2606-0.10938 1.9008 0 0.52389 0.014 1.0408 0.0656 1.5513l4.1512 0.74286c0.29525 1.4416 0.85611 2.7879 1.6387 3.9764l-2.4689 3.3866c0.70709 0.87778 1.5234 1.677 2.4034 2.3815l3.4958-2.4033c1.2217 0.77934 2.5856 1.3258 4.0639 1.595l0.65545 4.1294c0.46577 0.0423 0.94342 0.0437 1.4202 0.0437 0.67305-0.00004 1.316-0.0267 1.9664-0.10938l0.78655-4.2168c1.4036-0.3493 2.7221-0.95528 3.8672-1.7697l3.3647 2.447c0.87257-0.74235 1.6705-1.5956 2.3597-2.5126l-2.447-3.5395c0.66269-1.1445 1.1219-2.4073 1.3546-3.758l4.1294-0.65544c0.0359-0.43095 0.0437-0.84885 0.0437-1.2891 0-0.76503-0.0891-1.5151-0.19649-2.2504l-4.195-0.76468c-0.32872-1.2139-0.86809-2.3465-1.5512-3.3647l2.4689-3.3865c-0.76529-0.93589-1.6383-1.8004-2.6-2.5344l-3.5613 2.4471c-1.0236-0.60537-2.1251-1.0698-3.321-1.3328l-0.65544-4.1513c-0.59663-0.0702-1.1981-0.10938-1.8135-0.10938-0.16638 0-0.33746-0.006-0.50251 0-0.0805 0.002-0.15996-0.006-0.24028 0-0.0213 0.001-0.0438-0.001-0.0656 0zm0.56808 10.618c0.0797-0.006 0.15956 0 0.24028 0 2.5863 0 4.6974 2.1112 4.6974 4.6975s-2.1112 4.6756-4.6974 4.6756c-2.5863 0-4.6756-2.0893-4.6756-4.6756 0-2.5054 1.9608-4.5719 4.4353-4.6975z" stroke="#003380" stroke-width="1.1495" fill="url(#a)"/>
</g>
</svg>
