<?xml version="1.0" encoding="UTF-8" standalone="no"?>
<svg
   xmlns:dc="http://purl.org/dc/elements/1.1/"
   xmlns:cc="http://creativecommons.org/ns#"
   xmlns:rdf="http://www.w3.org/1999/02/22-rdf-syntax-ns#"
   xmlns:svg="http://www.w3.org/2000/svg"
   xmlns="http://www.w3.org/2000/svg"
   xmlns:sodipodi="http://sodipodi.sourceforge.net/DTD/sodipodi-0.dtd"
   xmlns:inkscape="http://www.inkscape.org/namespaces/inkscape"
   height="26.005"
   width="31.983"
   version="1.1"
   viewBox="0 0 31.983439 26.005018"
   id="svg2"
   inkscape:version="0.91 r13725"
   sodipodi:docname="image.svg">
  <sodipodi:namedview
     pagecolor="#ffffff"
     bordercolor="#666666"
     borderopacity="1"
     objecttolerance="10"
     gridtolerance="10"
     guidetolerance="10"
     inkscape:pageopacity="0"
     inkscape:pageshadow="2"
     inkscape:window-width="1062"
     inkscape:window-height="716"
     id="namedview62"
     showgrid="false"
     inkscape:zoom="9.0751781"
     inkscape:cx="-0.75748261"
     inkscape:cy="12.892309"
     inkscape:window-x="841"
     inkscape:window-y="172"
     inkscape:window-maximized="0"
     inkscape:current-layer="svg2" />
  <defs
     id="defs4">
    <linearGradient
       id="a"
       y2="298.92"
       gradientUnits="userSpaceOnUse"
       y1="310.62"
       x2="112.73"
       x1="111.93"
       gradientTransform="matrix(2.0152,0,0,2.113437,-209.7888,-631.17642)">
      <stop
         stop-color="#0d2e2e"
         offset="0"
         id="stop7" />
      <stop
         stop-color="#0d2e2e"
         stop-opacity="0"
         offset="1"
         id="stop9" />
    </linearGradient>
    <linearGradient
       id="b"
       y2="7.1091"
       gradientUnits="userSpaceOnUse"
       y1="24.627"
       gradientTransform="matrix(0.84426804,0,0,-0.63982192,-2.908368,28.807686)"
       x2="21.933"
       x1="21.933">
      <stop
         stop-color="#acf"
         offset="0"
         id="stop12" />
      <stop
         stop-color="#04a"
         offset="1"
         id="stop14" />
    </linearGradient>
    <linearGradient
       id="c"
       y2="302.84"
       gradientUnits="userSpaceOnUse"
       y1="302.84"
       x2="118.52"
       x1="105.51"
       gradientTransform="matrix(2.0152,0,0,2.113437,-209.7888,-631.17642)">
      <stop
         stop-color="#37c837"
         offset="0"
         id="stop17" />
      <stop
         stop-color="#165016"
         offset="1"
         id="stop19" />
    </linearGradient>
    <linearGradient
       id="d"
       y2="300.78"
       gradientUnits="userSpaceOnUse"
       y1="303.64"
       x2="112.37"
       x1="112.29"
       gradientTransform="matrix(2.0152,0,0,2.113437,-209.7888,-631.17642)">
      <stop
         stop-color="#b9d7ff"
         offset="0"
         id="stop22" />
      <stop
         stop-color="#3c8dff"
         offset="1"
         id="stop24" />
    </linearGradient>
  </defs>
  <metadata
     id="metadata26">
    <rdf:RDF>
      <cc:Work
         rdf:about="">
        <dc:format>image/svg+xml</dc:format>
        <dc:type
           rdf:resource="http://purl.org/dc/dcmitype/StillImage" />
        <dc:title />
      </cc:Work>
    </rdf:RDF>
  </metadata>
  <g
     id="g4561">
    <path
       style="color:#000000;fill:url(#a);stroke:#0d2e2e;stroke-width:0.74587476;stroke-opacity:0.52548996"
       d="m 1.182488,0.38195871 29.615379,0 c 0.453944,0 0.819381,0.38325067 0.819381,0.85932349 L 31.495932,24.586307 c -0.01008,0.735138 -0.569757,0.899289 -1.154467,0.909455 L 1.1815207,25.62299 c -0.4539238,0 -0.81938032,-0.38325 -0.81938032,-0.859302 l 0,-23.5225537 c 0,-0.47607287 0.36545652,-0.85932353 0.81938032,-0.85932353 z"
       id="path34"
       inkscape:connector-curvature="0" />
    <path
       d="m 2.834952,22.932331 26.219767,0 0,-8.319122 -26.219767,0 0,8.319122 z"
       id="path36"
       style="fill:url(#b)"
       inkscape:connector-curvature="0" />
    <path
       d="m 2.834952,3.0871581 26.219767,0 0,11.5408449 -26.219767,0 0,-11.5408449 z"
       id="path38"
       style="fill:url(#c)"
       inkscape:connector-curvature="0" />
    <path
       style="color:#000000;fill:url(#d)"
       d="m 3.177536,3.6155173 0,11.1297817 c 16.26085,0.530536 14.567075,-6.9825843 25.576918,-6.9825843 l 0,-4.3517781 z"
       id="path40"
       inkscape:connector-curvature="0" />
    <path
       style="opacity:0.05;fill:#e8f52f;stroke:none;stroke-width:1.24858904"
       inkscape:connector-curvature="0"
       id="path44"
       d="m 13.678712,8.9433991 c 0,2.4277219 -1.902587,4.5243909 -4.3336698,4.5243909 -2.3253837,0 -4.3336697,-1.986318 -4.3336697,-4.5243909 0,-2.427722 1.9025867,-4.524391 4.3336697,-4.524391 2.3253838,0 4.3336698,1.986318 4.3336698,4.524391 z" />
    <path
       style="opacity:0.2083;fill:#ecf751;stroke:none;stroke-width:1.24858904"
       inkscape:connector-curvature="0"
       id="path46"
       d="m 13.255915,8.9433991 c 0,2.2070199 -1.691188,4.0829869 -3.9108728,4.0829869 -2.1139852,0 -3.9108726,-1.765616 -3.9108726,-4.0829869 0,-2.20702 1.6911881,-4.082987 3.9108726,-4.082987 2.1139848,0 3.9108728,1.765616 3.9108728,4.082987 z" />
    <path
       style="opacity:0.3667;fill:#f0f972;stroke:none;stroke-width:1.24858904"
       inkscape:connector-curvature="0"
       id="path48"
       d="m 12.833118,8.9433991 c 0,1.9863179 -1.585489,3.6415829 -3.4880758,3.6415829 -1.9025867,0 -3.4880756,-1.655265 -3.4880756,-3.6415829 0,-1.986318 1.5854889,-3.641583 3.4880756,-3.641583 1.9025868,0 3.4880758,1.655265 3.4880758,3.641583 z" />
    <path
       style="opacity:0.525;fill:#f4fa95;stroke:none;stroke-width:1.24858904"
       inkscape:connector-curvature="0"
       id="path50"
       d="m 12.410321,8.9433991 c 0,1.7656159 -1.374091,3.2001789 -3.0652788,3.2001789 -1.6911882,0 -3.0652786,-1.434563 -3.0652786,-3.2001789 0,-1.765616 1.3740904,-3.200179 3.0652786,-3.200179 1.6911878,0 3.0652788,1.434563 3.0652788,3.200179 z" />
    <path
       style="opacity:0.6833;fill:#f7fcb7;stroke:none;stroke-width:1.24858904"
       inkscape:connector-curvature="0"
       id="path52"
       d="m 11.987524,8.9433991 c 0,1.5449139 -1.162692,2.7587749 -2.6424818,2.7587749 -1.4797897,0 -2.6424815,-1.213861 -2.6424815,-2.7587749 0,-1.544914 1.1626918,-2.758775 2.6424815,-2.758775 1.4797898,0 2.6424818,1.213861 2.6424818,2.758775 z" />
    <path
       style="opacity:0.8417;fill:#fbfddb;stroke:none;stroke-width:1.24858904"
       inkscape:connector-curvature="0"
       id="path54"
       d="m 11.564727,8.9433991 c 0,1.3242119 -1.056993,2.3173709 -2.2196848,2.3173709 -1.1626919,0 -2.2196845,-1.10351 -2.2196845,-2.3173709 0,-1.213861 1.0569926,-2.317371 2.2196845,-2.317371 1.1626918,0 2.2196848,1.10351 2.2196848,2.317371 z" />
    <path
       style="fill:#ffffff;stroke:none;stroke-width:1.24858904;fill-opacity:1"
       inkscape:connector-curvature="0"
       id="path56"
       d="m 11.14193,8.9433991 c 0,1.1035099 -0.845594,1.9863179 -1.9025871,1.9863179 -1.0569926,0 -1.9025867,-0.882808 -1.9025867,-1.9863179 0,-1.10351 0.8455941,-1.986318 1.9025867,-1.986318 1.0569931,0 1.9025871,0.882808 1.9025871,1.986318 z" />
    <path
       style="color:#000000;fill:none;stroke:#ffffff;stroke-width:1.48301995"
       d="m 2.593128,2.2206489 26.761856,0 c 0.09935,0 0.28773,0.084115 0.28773,0.1885186 l 0,20.8010805 c -0.0018,0.357087 0.01411,0.447246 -0.195474,0.459462 L 2.5926847,23.629343 c -0.099551,0 -0.1797559,0.104192 -0.1797559,0 l 0,-21.2210209 c 0,-0.1041924 0.080205,-0.1885186 0.1797559,-0.1885186 z"
       id="path58"
       inkscape:connector-curvature="0" />
    <rect
       style="color:#000000;opacity:0.84658999;fill:none;stroke:#4f4f4f;stroke-width:0.74587476"
       height="19.143723"
       width="25.536613"
       y="3.4675949"
       x="3.1976929"
       id="rect60" />
  </g>
</svg>
