<?xml version="1.0" encoding="UTF-8" standalone="no"?>
<svg xmlns:rdf="http://www.w3.org/1999/02/22-rdf-syntax-ns#" xmlns="http://www.w3.org/2000/svg" height="32" width="32" version="1.1" xmlns:cc="http://creativecommons.org/ns#" xmlns:xlink="http://www.w3.org/1999/xlink" viewBox="0 0 32.000216 32.000217" xmlns:dc="http://purl.org/dc/elements/1.1/">
<defs>
<linearGradient id="a">
<stop stop-color="#69f931" offset="0"/>
<stop stop-color="#f1fee4" stop-opacity=".043478" offset="1"/>
</linearGradient>
<filter id="b" style="color-interpolation-filters:sRGB" height="1.3909" width="1.102" y="-.19547" x="-.051002">
<feGaussianBlur stdDeviation="8.8998435"/>
</filter>
<radialGradient id="d" gradientUnits="userSpaceOnUse" cy="610.38" cx="351.84" gradientTransform="matrix(1.2586 0 0 .24468 -90.988 447.73)" r="174.5">
<stop stop-color="#fff" offset="0"/>
<stop stop-color="#fff" stop-opacity="0" offset="1"/>
</radialGradient>
<radialGradient id="e" xlink:href="#a" gradientUnits="userSpaceOnUse" cy="218.3" cx="305.9" gradientTransform="matrix(.1007 1.0897 -2.0556 .18997 721.02 -132.84)" r="86.902"/>
<radialGradient id="f" xlink:href="#a" gradientUnits="userSpaceOnUse" cy="428.09" cx="415.86" gradientTransform="matrix(-.36185 1.5532 -2.5863 -.60254 1686.8 53.041)" r="82.42"/>
<radialGradient id="c" gradientUnits="userSpaceOnUse" cy="416.94" cx="303.89" gradientTransform="matrix(.93426 0 0 1 22.813 -2.8005e-7)" r="224.11">
<stop stop-color="#b2d8f5" offset="0"/>
<stop stop-color="#729ec0" stop-opacity="0" offset="1"/>
</radialGradient>
</defs>
<metadata>
<rdf:RDF>
<cc:Work rdf:about="">
<dc:format>image/svg+xml</dc:format>
<dc:type rdf:resource="http://purl.org/dc/dcmitype/StillImage"/>
<dc:title/>
</cc:Work>
</rdf:RDF>
</metadata>
<g transform="translate(-323.47 -458.36)">
<g transform="translate(-18.433 .642)">
<path style="color:#000000" fill="#59f" d="m564.38 441.46a224.11 224.11 0 0 1 -224.11 224.11 224.11 224.11 0 0 1 -224.11 -224.11 224.11 224.11 0 0 1 224.11 -224.11 224.11 224.11 0 0 1 224.11 224.11z" transform="matrix(.071394 0 0 .071394 333.61 442.2)"/>
<path style="color:#000000" fill="url(#c)" d="m564.38 441.46a224.11 224.11 0 0 1 -224.11 224.11 224.11 224.11 0 0 1 -224.11 -224.11 224.11 224.11 0 0 1 224.11 -224.11 224.11 224.11 0 0 1 224.11 224.11z" transform="matrix(.071394 0 0 .071394 333.61 442.2)"/>
<path style="color:#000000" d="m177.34 551.54c38.421 55.056 102.22 91.062 174.5 91.062 72.287 0.00002 136.09-35.994 174.5-91.062-47.253 30.092-108.07 48.188-174.5 48.188-66.415-0.00001-127.24-18.103-174.5-48.188z" transform="matrix(.063689 0 0 .063689 335.49 446.67)" filter="url(#b)" fill="url(#d)"/>
<g fill-rule="evenodd" transform="matrix(.071394 0 0 .071394 332.78 442.07)">
<g fill="#226e00">
<path d="m370.98 650.97 13.38-8.5143-6.374-6.6664 17.929-37.121c-1.1969-10.768-0.18329-20.588 3.0408-30.408l-9.7306-6.0816-16.175-2.4326-2.3624-12.818-9.368-7.5435-0.67838-10.093-11.555-10.292 1.8479-10.947 8.8535-2.7484-10.701-10.631 10.339-7.9061 8.5143-1.8245-7.5903-8.7833 11.847-9.4616c2.0778-8.5533 5.1031-15.843 10.023-23.765l-0.29237-12.116 4.2103-0.31579 4.5729-9.1224 10.07-1.5087 15.204 3.0408-0.31579 5.4501 15.45-1.4619 19.531 8.1751 7.9061 7.298 12.771 0.60816c7.049 5.4342 11.709 10.158 12.044 12.294 0.3402 2.1708 3.4357 7.2614 9.242 12.032l-3.0408 10.339 8.5143 7.9061 9.1224 0.60816 4.2572 4.8653h10.947l1.2163 7.298h8.5143v12.771c-15.851 14.245-20.675 45.692-28.607 54.103-5.9078 6.265-15.524 8.9822-26.128 11.579l-6.1284 14.619c-9.7346 8.4714-10.676 13.345-17.52 19.099-2.7737 2.3318-6.0816 3.3332-10.07 4.5261l-2.1637-7.8359 2.4326-3.649-6.6898 3.649-3.649 7.9061-0.63157 6.0114-13.017 8.8535-16.491 2.1637-1.5321 6.643c-10.67 4.4092-12.499 7.8711-12.116 10.386l-18.853 1.8245z"/>
<path d="m341.68 438.79c-3.1579-6.9473-13.59-9.858-18.947-15.158l-1.8947-11.368c-6.9473 0.94735-12.947 1.2631-19.894-0.94736-0.73683-2.421-1.4737-4.842-2.2105-7.263l-12-6.9473-7.5788 6.6315c-16.842-1.7894-15.368-7.6841-34.421-19.579l-0.94735-13.263c-3.4736-8.3157-5.9999-16.631-13.263-24l0.31579-9.1578-5.0526-2.8421v17.684l7.5788 10.421 0.31579 8.842c-10.631-14.421-13.684-27.263-13.895-42.315-4.0828-9.9813-3.4736-6.9473-3.4736-6.9473l0.31579-10.737c3.2631-13.052 7.4736-20.421 20.21-33.473 2-12.421 10.631-17.579 16.105-25.894 12.21-7.5788 37.052-18 64.104-20.842l42.947-2.5263 18.947 6.3157 2.2105 8.2104-6.6315-4.421-12.947-0.63157-2.8421-5.0526-11.052 0.63157 0.31579 5.0526-15.473 0.31578-13.579 6.3157c0.73683 6.6315 18.526 7.8946 28.736 12.316l6.6315 6.3157-1.8947-8.2104 4.421-4.421-3.7894-4.1052-0.94736-7.2631c11.895 0.73683 22.842 3.3684 25.263 7.8946l8.842-1.5789c8.842 9.0525 17.368 12.421 28.421 15.789 1.3684 6.6315 4.6315 9.4736 9.7893 11.368l-6.6315 1.8947-6.6315-3.4736-0.63158-8.2104-6.9473 5.0526-12-2.2105-5.9999 3.1578 9.7893-0.94736 5.6841 13.895-13.895 2.2105-4.421 4.7368 1.2631 5.3684-4.421 0.63157-4.1052 6.3157-4.421-2.8421-4.421 2.5263 3.4736 9.1578c-6.842 8.3157-20.316 16.631-23.368 28.736l7.263 9.1578-0.63157 10.737-4.7368 0.63157-5.3684-7.8946-0.31578-9.4736-15.473-8.5262c-8.6315 0.31578-14.421 1.2631-20.21 5.6841l-13.895-1.8947-15.158 12 3.7894 5.9999-5.0526 12.947 4.7368 12.631 7.8946 7.8946 14.842-3.1578 10.421-11.368 5.9999 0.31579-0.63157 7.8946-5.6841 5.0526v12l18.631-0.31578c0.73683 5.0526 4.6315 6.3157 6.9473 9.4736l-2.5263 16.421 5.6841 6.6315-1.5789 5.9999z"/>
</g>
<path fill="url(#e)" d="m348.94 323.53c-10.316-9.9999-17.025-17.005-36.947-18-19.538-0.95986-31.421 10.826-48.315 18-11.319 4.8066-27.368 7.9999-36.315 7.2631l-8.2104-10.737c-2.9473-11.368 9.5788-27.473 20.526-36.947l2.5263-12c6.5262-8.2104 13.308-15.868 22.421-20.842 10.889-5.9438 23.684-9.1578 41.684-13.263l26.21-3.1578-19.263 10.737 0.31578 6.6315 24 8.2104c5.5789 5.6841 10.526 10.421 16.737 11.368l8.842 0.31578-3.7894-11.052 6.9473-3.7894-5.9999-10.421 11.368 4.421 11.052-0.31579 9.1578 7.5788 0.31579 3.4736-9.7893 5.3684-1.8947 8.2104h11.052l0.94735 4.7368-12.631 6.6315-0.31578 7.8946c-5.7894 3.5789-13.019 2.5927-16.421 6.9473-2.6315 3.3684-0.84209 9.8946-0.31578 12.947l-13.895 9.7893z"/>
<path fill="url(#f)" d="m377.05 543v-15.158l-16.421-10.105 6.3157-6.3157 0.63157-16.737 7.2631 0.31578-3.4736-22.421 6.6315-3.1578 19.894-38.21 6.6315 3.1578 25.263-3.1578 10.105 10.421 21.473 4.7368 14.526 9.1578 7.2631 12 3.1578 15.158 19.579 12 9.7893 0.63157 9.7893 13.895c-14.631 13.789-30.577 29.587-52.42 36.631-12.324 3.9743-26.96 3.7859-38.21 9.7893-10.645 5.6806-18.947 13.684-27.473 25.263l-4.421-16.737c-9.8946-5.7894-19.789-11.895-25.894-21.158z"/>
</g>
</g>
</g>
</svg>
