<?xml version="1.0" encoding="UTF-8" standalone="no"?>
<svg xmlns:rdf="http://www.w3.org/1999/02/22-rdf-syntax-ns#" xmlns="http://www.w3.org/2000/svg" height="31.694" width="31.975" version="1.1" xmlns:cc="http://creativecommons.org/ns#" xmlns:xlink="http://www.w3.org/1999/xlink" viewBox="0 0 31.974631 31.694322" xmlns:dc="http://purl.org/dc/elements/1.1/">
<defs>
<linearGradient id="a">
<stop stop-color="#00c1ff" offset="0"/>
<stop stop-color="#000083" offset="1"/>
</linearGradient>
<linearGradient id="b" y2="331.1" xlink:href="#a" gradientUnits="userSpaceOnUse" y1="333.71" gradientTransform="matrix(1.0425 .22384 -.18089 .93822 -8.5985 -108.83)" x2="434.02" x1="437.85"/>
<radialGradient id="c" xlink:href="#a" gradientUnits="userSpaceOnUse" cy="342.87" cx="426.43" gradientTransform="matrix(1.0657 .034538 -.011714 1.0078 -76.179 -52.215)" r="5.9413"/>
<radialGradient id="d" xlink:href="#a" gradientUnits="userSpaceOnUse" cy="338.06" cx="423.44" gradientTransform="matrix(1.9614 1.2513 -.57542 .78087 -265 -490.63)" r="6.8047"/>
<radialGradient id="e" xlink:href="#a" gradientUnits="userSpaceOnUse" cy="319.95" cx="438.93" gradientTransform="matrix(1.0425 .22384 -.24138 1.252 10.716 -209.01)" r="5.2539"/>
<radialGradient id="f" xlink:href="#a" gradientUnits="userSpaceOnUse" cy="317.57" cx="433.67" gradientTransform="matrix(1.0425 .22384 -.29005 1.5044 26.16 -289.11)" r="4.7513"/>
</defs>
<metadata>
<rdf:RDF>
<cc:Work rdf:about="">
<dc:format>image/svg+xml</dc:format>
<dc:type rdf:resource="http://purl.org/dc/dcmitype/StillImage"/>
<dc:title/>
</cc:Work>
</rdf:RDF>
</metadata>
<g transform="translate(-205.89 -337.29)">
<g stroke-opacity=".83140" fill-rule="evenodd" transform="translate(-156.95,57.033)" stroke="#005">
<path stroke-linejoin="bevel" d="m378.26 303.88c0.23687 4.3848-1.1266 5.5461-3.0433 6.8131 3.8146-0.78994 9.4422-3.3702 13.481-7.6532 4.0795-4.3259 5.608-11.598 5.4309-13.725 0.46876 2.2248-2.7712 4.897-6.0034 5.0559-2.1146 5.4916-5.1589 7.907-9.8655 9.5094z" stroke-width="1.0869px" fill="url(#b)"/>
<path stroke-linejoin="round" d="m376.11 300.57-9.6728 9.5425c2.3175 1.2246 7.2046 2.4548 10.197-0.45505 2.3894-2.3238 1.5722-7.4511-0.52382-9.0875z" stroke-width="1.0093px" fill="url(#c)"/>
<path stroke-linejoin="round" d="m366.23 310-2.8881-2.4767 10.413-8.9311 2.3228 1.9722-9.8476 9.4356z" stroke-width="1.0093px" fill="url(#d)"/>
<path stroke-linejoin="round" d="m391.32 282.65-8.2493 10.711c2.4527 1.0306 7.1834 2.1729 10.063-1.8128 2.5592-3.5418 0.48188-7.4342-1.8141-8.8987z" stroke-width="1.0093px" fill="url(#e)"/>
<path stroke-linejoin="round" d="m383.04 293.33-2.6051-1.8046 7.334-10.762 3.608 1.8891-8.3368 10.678z" stroke-width="1.0093px" fill="url(#f)"/>
</g>
</g>
</svg>
