<?xml version="1.0" encoding="UTF-8" standalone="no"?>
<svg xmlns:rdf="http://www.w3.org/1999/02/22-rdf-syntax-ns#" xmlns="http://www.w3.org/2000/svg" height="31.991" width="29.253" version="1.1" xmlns:cc="http://creativecommons.org/ns#" xmlns:xlink="http://www.w3.org/1999/xlink" viewBox="0 0 29.253261 31.991283" xmlns:dc="http://purl.org/dc/elements/1.1/">
<defs>
<linearGradient id="a">
<stop stop-color="#00bf00" offset="0"/>
<stop stop-color="#fff" offset="1"/>
</linearGradient>
<linearGradient id="b" y2="436.44" xlink:href="#a" gradientUnits="userSpaceOnUse" y1="431.62" gradientTransform="matrix(.99688 .078957 -.078957 .99688 -64.045 -52.331)" x2="590.72" x1="588.28"/>
<linearGradient id="c" y2="436.44" xlink:href="#a" gradientUnits="userSpaceOnUse" y1="431.62" gradientTransform="matrix(-.92376 .63311 -.44787 -1.0062 1241.7 474.84)" x2="590.72" x1="588.28"/>
<linearGradient id="d" y2="436.44" xlink:href="#a" gradientUnits="userSpaceOnUse" y1="431.62" gradientTransform="matrix(-.89388 -.39153 .44831 -.92236 840.47 1049.7)" x2="590.72" x1="588.28"/>
<linearGradient id="e" y2="436.44" xlink:href="#a" gradientUnits="userSpaceOnUse" y1="431.62" gradientTransform="matrix(-.30745 -.92144 .92855 -.32891 286.18 1112.8)" x2="590.72" x1="588.28"/>
<linearGradient id="f" y2="436.44" xlink:href="#a" gradientUnits="userSpaceOnUse" y1="431.62" gradientTransform="matrix(.50268 .83339 -.74126 .56515 514.87 -318.06)" x2="590.72" x1="588.28"/>
<linearGradient id="g" y2="436.44" xlink:href="#a" gradientUnits="userSpaceOnUse" y1="431.62" gradientTransform="matrix(.3486 -.91745 .93881 .39786 -110.36 800.52)" x2="590.72" x1="588.28"/>
<linearGradient id="h" y2="436.44" xlink:href="#a" gradientUnits="userSpaceOnUse" y1="431.62" gradientTransform="matrix(-.36302 .93443 -.93134 -.35736 1112.8 16.192)" x2="590.72" x1="588.28"/>
<linearGradient id="i" y2="436.44" xlink:href="#a" gradientUnits="userSpaceOnUse" y1="431.62" gradientTransform="matrix(.83427 -.55135 .55135 .83427 -236 395.31)" x2="590.72" x1="588.28"/>
<radialGradient id="j" gradientUnits="userSpaceOnUse" cy="429.96" cx="599.22" gradientTransform="matrix(.58485 -.6645 .70371 .61935 -53.801 561.87)" r="5.2611">
<stop stop-color="#b94606" stop-opacity=".99115" offset="0"/>
<stop stop-color="#ffff06" offset="1"/>
</radialGradient>
</defs>
<metadata>
<rdf:RDF>
<cc:Work rdf:about="">
<dc:format>image/svg+xml</dc:format>
<dc:type rdf:resource="http://purl.org/dc/dcmitype/StillImage"/>
<dc:title/>
</cc:Work>
</rdf:RDF>
</metadata>
<g transform="translate(-71.786 -784.43)">
<g transform="matrix(.86423 0 0 .86423 -344.56 435.47)">
<path d="m493.4 421.82c-0.26796 0.87152-0.10076 2.3458 0.78007 3.3103-0.63591 1.5735-2.0814 2.6384-3.3004 3.7034-1.4851 1.0155-5.7401 3.5593-8.1132 0.17476-1.4115-3.427 0.94783-5.6094 3.9524-6.746 2.4057-0.59661 4.1992-0.66134 6.6811-0.44243z" stroke-opacity=".77326" fill-rule="evenodd" stroke="#006100" stroke-width="1.21" fill="url(#b)"/>
<path d="m501.96 418.53c-0.53454-0.67373-1.3628-1.1181-2.2799-1.521 0.19984-2.3646 0.35674-4.9315 0.89579-6.8438 0.529-2.0952 2.1832-6.9739 6.9057-5.5265 3.5681 2.4472 2.7359 5.3139 0.6657 8.5322-1.9317 2.6839-3.8068 3.6267-6.1873 5.3592z" stroke-opacity=".77326" fill-rule="evenodd" stroke="#006100" stroke-width="1.21" fill="url(#c)"/>
<path d="m503.38 422.23c0.1811-0.80676-0.31242-1.7445-0.50723-2.7086 1.1813-1.2936 3.0118-2.6726 4.542-3.2978 1.7581-0.4936 6.6576-1.5603 7.5825 2.4097 0.018 3.7051-2.9891 5.0302-6.2006 5.1566-2.4534-0.19678-3.1997-0.56385-5.4167-1.5598z" stroke-opacity=".77326" fill-rule="evenodd" stroke="#006100" stroke-width="1.21" fill="url(#d)"/>
<path d="m502.13 425.72c0.67561-0.43987 1.0746-1.1128 1.4827-2.0015 1.7264 0.0703 4.0909 0.26705 5.5087 0.99054 1.4179 0.72349 5.4903 3.9186 3.239 7.1718s-5.7733 1.2422-7.5818-0.8252c-1.8086-2.0674-1.9033-3.0326-2.6486-5.3356z" stroke-opacity=".77326" fill-rule="evenodd" stroke="#006100" stroke-width="1.21" fill="url(#e)"/>
<path d="m495.05 418.39c-0.48929 0.60984-0.96111 1.25-1.2358 2.2039-1.4562 0.49012-3.41 0.64146-4.8369 0.35324-1.5412-0.5286-5.7012-2.2732-4.6626-6.2684 1.6064-3.2659 4.4529-2.7842 6.9291-1.1373 1.7635 1.5159 2.5704 2.7596 3.8062 4.8485z" stroke-opacity=".77326" fill-rule="evenodd" stroke="#006100" stroke-width="1.1491" fill="url(#f)"/>
<path d="m498.69 427.33c0.81142 0.13655 1.4036-0.0767 2.3543-0.45872 1.3421 1.1117 2.6114 3.4852 3.3041 4.9836 0.57229 1.7341 2.8047 7.1832-1.1048 8.331-3.6874 0.2243-5.1322-3.6545-5.4058-6.8653 0.0829-2.4692-0.0373-3.7137 0.85216-5.9906z" stroke-opacity=".77326" fill-rule="evenodd" stroke="#006100" stroke-width="1.21" fill="url(#g)"/>
<path d="m498.51 416.84c-0.80834-0.10117-1.8301 0.43008-2.7838 0.72115-1.0564-1.5208-2.6039-3.2595-3.4178-4.6947-0.81399-1.4352-2.0401-6.2978 2.1722-7.8359 3.6869-0.38665 5.0288 2.0281 5.2503 5.2327-0.12269 2.4774-0.62855 3.9903-1.2208 6.5767z" stroke-opacity=".77326" fill-rule="evenodd" stroke="#006100" stroke-width="1.21" fill="url(#h)"/>
<path d="m495.06 426.16c0.59908 0.55347 1.2285 1.0878 2.1721 1.4058 0.13446 1.8979 0.19218 3.7482-0.11302 5.3378-0.54543 1.7144-1.9338 6.4048-5.8873 5.198-3.2218-1.8322-2.7056-5.0044-1.0372-7.7495 1.5288-1.9509 2.7746-2.837 4.8654-4.1921z" stroke-opacity=".77326" fill-rule="evenodd" stroke="#006100" stroke-width="1.21" fill="url(#i)"/>
<path stroke-linejoin="round" d="m603.41 428.36a5.1111 5.1852 0 0 1 -5.1111 5.1852 5.1111 5.1852 0 0 1 -5.1111 -5.1852 5.1111 5.1852 0 0 1 5.1111 -5.1852 5.1111 5.1852 0 0 1 5.1111 5.1852z" stroke-opacity=".86628" transform="matrix(.95776 0 0 .95776 -74.509 11.998)" stroke="#060" stroke-linecap="round" stroke-width=".7173" fill="url(#j)"/>
</g>
</g>
</svg>
