<?xml version="1.0" encoding="UTF-8" standalone="no"?>
<svg
   xmlns:dc="http://purl.org/dc/elements/1.1/"
   xmlns:cc="http://creativecommons.org/ns#"
   xmlns:rdf="http://www.w3.org/1999/02/22-rdf-syntax-ns#"
   xmlns:svg="http://www.w3.org/2000/svg"
   xmlns="http://www.w3.org/2000/svg"
   xmlns:sodipodi="http://sodipodi.sourceforge.net/DTD/sodipodi-0.dtd"
   xmlns:inkscape="http://www.inkscape.org/namespaces/inkscape"
   height="28.413"
   width="32.006"
   version="1.1"
   viewBox="0 0 32.006244 28.413295"
   id="svg2"
   inkscape:version="0.91 r13725"
   sodipodi:docname="mindmap.svg">
  <sodipodi:namedview
     pagecolor="#ffffff"
     bordercolor="#666666"
     borderopacity="1"
     objecttolerance="10"
     gridtolerance="10"
     guidetolerance="10"
     inkscape:pageopacity="0"
     inkscape:pageshadow="2"
     inkscape:window-width="1222"
     inkscape:window-height="830"
     id="namedview55"
     showgrid="false"
     inkscape:zoom="8.3060571"
     inkscape:cx="-0.79197226"
     inkscape:cy="14.2065"
     inkscape:window-x="497"
     inkscape:window-y="70"
     inkscape:window-maximized="0"
     inkscape:current-layer="svg2" />
  <defs
     id="defs4">
    <linearGradient
       id="a"
       y2="124.52"
       gradientUnits="userSpaceOnUse"
       y1="238.03"
       x2="219.96"
       x1="268.63"
       gradientTransform="matrix(0.10362572,0,0,0.10395711,-10.559999,-7.377449)">
      <stop
         stop-color="#fff"
         offset="0"
         id="stop7" />
      <stop
         stop-color="#fff"
         stop-opacity=".99225"
         offset="1"
         id="stop9" />
    </linearGradient>
  </defs>
  <metadata
     id="metadata11">
    <rdf:RDF>
      <cc:Work
         rdf:about="">
        <dc:format>image/svg+xml</dc:format>
        <dc:type
           rdf:resource="http://purl.org/dc/dcmitype/StillImage" />
        <dc:title />
      </cc:Work>
    </rdf:RDF>
  </metadata>
  <g
     id="g4438">
    <g
       style="stroke:#ff6600"
       id="g17"
       transform="matrix(1.9609,0,0,1.9609,-349.58,-677.51102)">
      <path
         inkscape:connector-curvature="0"
         id="path19"
         font-size="xx-small"
         line-height="normal"
         d="m 186.01,354.4 c 1.308,-0.0185 2.106,-0.3557 2.878,-0.92391 0.77199,-0.56819 1.5135,-0.9051 2.622,-0.8176 -0.92664,-0.068 -1.7777,0.45059 -2.5221,1.1098 -0.75844,0.67299 -1.6346,1.4722 -2.9704,1.4911 l -0.007,-0.85943 z"
         style="color:#000000;font-size:xx-small;line-height:normal;text-indent:0;text-transform:none;block-progression:tb;fill:#ff6600;stroke-width:0.32962" />
      <rect
         style="fill:#ffffff;fill-rule:evenodd;stroke-width:0.36881;stroke-linejoin:round"
         id="rect21"
         x="190.24001"
         y="351.64001"
         width="4.1717"
         height="2.339"
         ry="0.51581001"
         rx="0.47172001" />
    </g>
    <g
       style="stroke:#217867"
       id="g23"
       transform="matrix(-1.9609,0,0,1.9609,381.58078,-676.46182)">
      <path
         inkscape:connector-curvature="0"
         id="path25"
         font-size="xx-small"
         line-height="normal"
         d="m 186.2,353.12 c 1.4758,-0.012 2.3763,-0.23122 3.2473,-0.60058 0.87105,-0.36934 1.7077,-0.58834 2.9585,-0.53147 -1.0456,-0.0441 -2.0059,0.2929 -2.8458,0.72143 -0.85577,0.43747 -1.8444,0.95699 -3.3516,0.96928 l -0.008,-0.55866 z"
         style="color:#000000;font-size:xx-small;line-height:normal;text-indent:0;text-transform:none;block-progression:tb;fill:#165044;stroke-width:0.28229001" />
      <rect
         style="fill:#ffffff;fill-rule:evenodd;stroke-width:0.36881;stroke-linejoin:round"
         id="rect27"
         x="190.24001"
         y="350.82001"
         width="4.1717"
         height="2.339"
         ry="0.51581001"
         rx="0.47172001" />
    </g>
    <g
       id="g29"
       transform="matrix(2.5281884,0,0,2.5281884,-455.56861,-885.27238)">
      <path
         inkscape:connector-curvature="0"
         id="path31"
         font-size="xx-small"
         line-height="normal"
         d="m 185.11,355.09 c 1.4462,-0.0397 2.3285,-0.75973 3.1821,-1.9733 0.85355,-1.2136 1.6734,-1.9331 2.899,-1.7462 -1.0246,-0.14512 -1.9656,0.96238 -2.7886,2.3704 -0.83861,1.4374 -1.8074,3.1444 -3.2843,3.1847 l -0.008,-1.8356 z"
         style="color:#000000;font-size:xx-small;line-height:normal;text-indent:0;text-transform:none;block-progression:tb;fill:#000080" />
      <rect
         style="fill:#ffffff;fill-rule:evenodd;stroke:#000080;stroke-width:0.28604999;stroke-linejoin:round"
         id="rect33"
         x="189.44"
         y="350.82001"
         width="3.2356"
         height="1.8142"
         ry="0.40008"
         rx="0.36587" />
    </g>
    <g
       id="g35"
       transform="matrix(-2.5281884,0,0,-2.5281884,486.68502,908.55894)">
      <path
         inkscape:connector-curvature="0"
         id="path37"
         font-size="xx-small"
         line-height="normal"
         d="m 185.44,355.37 c 1.394,0.0397 2.2445,0.763 3.0672,1.9818 0.82275,1.2188 1.613,1.9415 2.7944,1.7538 -0.98756,0.14576 -1.8946,-0.96653 -2.6879,-2.3806 -0.80833,-1.4436 -1.7421,-3.158 -3.1657,-3.1985 l -0.008,1.8435 z"
         style="color:#000000;font-size:xx-small;line-height:normal;text-indent:0;text-transform:none;block-progression:tb;fill:#ff0000" />
      <rect
         style="fill:#ffffff;fill-rule:evenodd;stroke:#ff0000;stroke-width:0.27259001;stroke-linejoin:round"
         id="rect39"
         x="188.87"
         y="357.38"
         width="3.2253001"
         height="1.8536"
         ry="0.40876001"
         rx="0.36471" />
    </g>
    <path
       style="color:#000000;font-size:xx-small;line-height:normal;text-indent:0;text-transform:none;block-progression:tb;fill:#008000;stroke:#008000;stroke-width:0.2500026"
       d="m 13.734561,19.524192 c 3.305048,0.07559 5.321602,1.448827 7.272113,3.763103 1.95067,2.314382 3.82437,3.686715 6.625478,3.330244 -2.341462,0.276769 -4.491957,-1.835321 -6.372978,-4.520603 -1.916535,-2.741165 -4.130447,-5.996615 -7.505781,-6.073532 l -0.01857,3.500523 z"
       line-height="normal"
       font-size="xx-small"
       id="path43"
       inkscape:connector-curvature="0" />
    <rect
       transform="scale(1,-1)"
       rx="0.97040188"
       ry="1.0611374"
       height="4.8118267"
       width="8.5818253"
       y="-28.038099"
       x="22.964619"
       id="rect45"
       style="fill:#ffffff;fill-rule:evenodd;stroke:#008000;stroke-width:0.7500078;stroke-linejoin:round" />
    <g
       id="g47"
       transform="matrix(2.3956315,0,0,2.3956315,-426.42767,-830.53582)">
      <path
         inkscape:connector-curvature="0"
         id="path49"
         font-size="xx-small"
         line-height="normal"
         d="m 185.76,355.22 c -1.5092,0.0318 -2.4299,0.61046 -3.3206,1.5856 -0.89073,0.97513 -1.7463,1.5533 -3.0253,1.4032 1.0692,0.11661 2.0512,-0.77329 2.91,-1.9046 0.87511,-1.155 1.886,-2.5266 3.4273,-2.559 l 0.008,1.4749 z"
         style="color:#000000;font-size:xx-small;line-height:normal;text-indent:0;text-transform:none;block-progression:tb;fill:#d400aa" />
      <rect
         style="fill:#ffffff;fill-rule:evenodd;stroke:#d400aa;stroke-width:0.27259001;stroke-linejoin:round"
         id="rect51"
         x="-181.85001"
         y="356.48001"
         width="3.2253001"
         height="1.8536"
         transform="scale(-1,1)"
         rx="0.36471"
         ry="0.40876001" />
    </g>
    <path
       inkscape:connector-curvature="0"
       style="font-size:61.54299927px;fill:url(#a);fill-rule:evenodd;stroke:#000080;stroke-width:0.97798371;stroke-opacity:0.99607999"
       id="path53"
       d="m 21.424079,15.483759 a 5.3062586,5.3232278 0 0 1 -5.306673,5.323644 5.3062586,5.3232278 0 0 1 -5.306673,-5.323644 5.3062586,5.3232278 0 0 1 5.306673,-5.323644 5.3062586,5.3232278 0 0 1 5.306673,5.323644 z"
       font-size="61.543px" />
  </g>
</svg>
