<?xml version="1.0" encoding="UTF-8" standalone="no"?>
<svg xmlns:rdf="http://www.w3.org/1999/02/22-rdf-syntax-ns#" xmlns="http://www.w3.org/2000/svg" height="31.65" width="31.127" version="1.1" xmlns:cc="http://creativecommons.org/ns#" xmlns:xlink="http://www.w3.org/1999/xlink" viewBox="0 0 31.126794 31.649595" xmlns:dc="http://purl.org/dc/elements/1.1/">
<metadata>
<rdf:RDF>
<cc:Work rdf:about="">
<dc:format>image/svg+xml</dc:format>
<dc:type rdf:resource="http://purl.org/dc/dcmitype/StillImage"/>
<dc:title/>
</cc:Work>
</rdf:RDF>
</metadata>
<g transform="translate(-26.99 -458.13)">
<g transform="matrix(1.9841,0,0,1.9105,-134.12,329.21)">
<path fill-rule="evenodd" fill="#fca" d="m85.015 79.022c-0.80502-2.5188-0.51479-4.4019 0.17682-6.3021 1.2291-2.9296 6.1719-2.7514 7.5223-0.86111s2.904 8.6026 0.31492 11.378c-3.8269 2.3747-6.5163-1.3147-8.0141-4.2145z"/>
<g stroke="#000080">
<path stroke-width="2.7879" fill="none" d="m82.117 68.945c1.1816 1.0313 2.058 1.7834 1.962 3.307-0.81404 3.783-0.45615 7.2435 0 10.677"/>
<path style="color:#000000;block-progression:tb;text-transform:none;text-indent:0" d="m89.409 67.979c-2.9819-0.06027-5.0719 1.5626-5.9819 4.2188 0.08318 0.83506-0.04193 1.0802 0.30227 1.3927 0.41206 0.37414 0.32125-0.14328 1.0617-0.81407 1.0358-1.4651 2.4966-2.6011 4.6552-2.5575 2.2789 0.04606 3.4736 1.0257 4.3065 2.6039 0.0047 0.0089-0.0047 0.02235 0 0.03125 0.65438 1.5778 0.82072 3.8058 0.375 5.5625-0.4507 1.7763-1.3211 2.958-2.9688 3.125-0.01258-0.000222-0.01879 0.000298-0.03125 0-0.55768-0.01332-1.0227-0.11163-1.3438-0.28125-0.34258-0.18098-0.60379-0.42928-0.84375-1.0312-0.19635-0.49087-0.82163-0.75885-1.3125-0.5625s-0.75885 0.82163-0.5625 1.3125c0.38128 0.95649 1.0266 1.6638 1.7812 2.0625 0.75462 0.39866 1.5558 0.49567 2.3438 0.5 0.04161 0.0026 0.08339 0.0026 0.125 0 2.6023-0.24164 4.1703-2.3403 4.75-4.625 0.57967-2.2847 0.3573-4.8794-0.53125-6.9375-0.0097-0.02119-0.02011-0.04204-0.03125-0.0625-1.2761-2.4192-3.2421-3.8799-6.0938-3.9375z" line-height="normal" font-size="xx-small" fill="#000080"/>
</g>
</g>
</g>
</svg>
