<?xml version="1.0" encoding="UTF-8" standalone="no"?>
<svg xmlns:rdf="http://www.w3.org/1999/02/22-rdf-syntax-ns#" xmlns="http://www.w3.org/2000/svg" height="31.956" width="31.956" version="1.1" xmlns:cc="http://creativecommons.org/ns#" xmlns:xlink="http://www.w3.org/1999/xlink" viewBox="0 0 31.955807 31.955808" xmlns:dc="http://purl.org/dc/elements/1.1/">
<defs>
<linearGradient id="d">
<stop stop-color="#ff0" offset="0"/>
<stop stop-color="#ff0" stop-opacity="0" offset="1"/>
</linearGradient>
<radialGradient id="c" gradientUnits="userSpaceOnUse" cy="230.15" cx="267.6" gradientTransform="matrix(-1.2041 -.8086 .97364 -1.4498 368.7 779.61)" r="54.705">
<stop stop-color="#fdff00" offset="0"/>
<stop stop-color="#ffd000" offset="1"/>
</radialGradient>
<radialGradient id="a" xlink:href="#d" gradientUnits="userSpaceOnUse" cy="419.45" cx="127.13" gradientTransform="matrix(1,0,0,1.7307,0,-306.48)" r="2.2463"/>
<linearGradient id="b" y2="214.96" gradientUnits="userSpaceOnUse" y1="271.12" x2="246.2" x1="315.83">
<stop stop-color="#540" offset="0"/>
<stop stop-color="#d4aa00" stop-opacity="0" offset="1"/>
</linearGradient>
</defs>
<metadata>
<rdf:RDF>
<cc:Work rdf:about="">
<dc:format>image/svg+xml</dc:format>
<dc:type rdf:resource="http://purl.org/dc/dcmitype/StillImage"/>
<dc:title/>
</cc:Work>
</rdf:RDF>
</metadata>
<g transform="translate(-157.63 -724.72)">
<g transform="translate(-163.38,305.52)">
<path font-size="61.543px" d="m308.65 219.91a51.206 51.206 0 0 1 -51.21 51.21 51.206 51.206 0 0 1 -51.21 -51.21 51.206 51.206 0 0 1 51.21 -51.21 51.206 51.206 0 0 1 51.21 51.21z" stroke-opacity=".79651" fill-rule="evenodd" transform="matrix(.29248 0 0 .29248 261.69 370.86)" stroke="#000" stroke-width="6.8381" fill="url(#c)"/>
<path font-size="61.543px" d="m308.65 219.91a51.206 51.206 0 0 1 -51.21 51.21 51.206 51.206 0 0 1 -51.21 -51.21 51.206 51.206 0 0 1 51.21 -51.21 51.206 51.206 0 0 1 51.21 51.21z" fill-rule="evenodd" transform="matrix(.29248 0 0 .29248 261.65 370.83)" fill="url(#b)"/>
<path stroke-linejoin="round" d="m128.77 419.45a1.6413 3.2825 0 0 1 -1.6413 3.2825 1.6413 3.2825 0 0 1 -1.6413 -3.2825 1.6413 3.2825 0 0 1 1.6413 -3.2825 1.6413 3.2825 0 0 1 1.6413 3.2825z" stroke-opacity=".84884" transform="matrix(1.3985 0 0 .94735 155.22 37.117)" stroke="url(#a)" stroke-linecap="round" stroke-width="1.21"/>
<path d="m331.35 442.91c0.0587-0.94077-0.0442-0.96971 0.0239-1.639 0.97754 0.0128 10.284-0.0228 11.174-0.0199 0.0777 0.64499-0.10545 0.6359-0.0285 1.5804" stroke="#000" stroke-linecap="square" stroke-width="1.344" fill="none"/>
<path stroke-linejoin="round" d="m128.77 419.45a1.6413 3.2825 0 0 1 -1.6413 3.2825 1.6413 3.2825 0 0 1 -1.6413 -3.2825 1.6413 3.2825 0 0 1 1.6413 -3.2825 1.6413 3.2825 0 0 1 1.6413 3.2825z" stroke-opacity=".84884" transform="matrix(1.3985 0 0 .94735 163.29 37.117)" stroke="url(#a)" stroke-linecap="round" stroke-width="1.21"/>
<path d="m338.04 431.92c1.0614-2.387 2.7157-3.8222 5.2806-4.4347m-12.673-0.0375c2.4314 0.6195 4.6497 2.6276 5.4437 4.5444" stroke="#000" stroke-width="1.5" fill="none"/>
</g>
</g>
</svg>
