<?xml version="1.0" encoding="UTF-8" standalone="no"?>
<svg xmlns:rdf="http://www.w3.org/1999/02/22-rdf-syntax-ns#" xmlns="http://www.w3.org/2000/svg" height="31.956" width="31.956" version="1.1" xmlns:cc="http://creativecommons.org/ns#" xmlns:xlink="http://www.w3.org/1999/xlink" viewBox="0 0 31.955807 31.955808" xmlns:dc="http://purl.org/dc/elements/1.1/">
<defs>
<linearGradient id="d">
<stop stop-color="#ff0" offset="0"/>
<stop stop-color="#ff0" stop-opacity="0" offset="1"/>
</linearGradient>
<radialGradient id="c" gradientUnits="userSpaceOnUse" cy="230.15" cx="267.6" gradientTransform="matrix(-1.2041 -.8086 .97364 -1.4498 368.7 779.61)" r="54.705">
<stop stop-color="#fdff00" offset="0"/>
<stop stop-color="#ffd000" offset="1"/>
</radialGradient>
<radialGradient id="a" xlink:href="#d" gradientUnits="userSpaceOnUse" cy="419.45" cx="127.13" gradientTransform="matrix(1,0,0,1.7307,0,-306.48)" r="2.2463"/>
<linearGradient id="b" y2="214.96" gradientUnits="userSpaceOnUse" y1="271.12" x2="246.2" x1="315.83">
<stop stop-color="#540" offset="0"/>
<stop stop-color="#d4aa00" stop-opacity="0" offset="1"/>
</linearGradient>
</defs>
<metadata>
<rdf:RDF>
<cc:Work rdf:about="">
<dc:format>image/svg+xml</dc:format>
<dc:type rdf:resource="http://purl.org/dc/dcmitype/StillImage"/>
<dc:title/>
</cc:Work>
</rdf:RDF>
</metadata>
<g transform="translate(-200.61 -724.72)">
<g transform="translate(138.85,397.61)">
<path font-size="61.543px" d="m308.65 219.91a51.206 51.206 0 0 1 -51.21 51.21 51.206 51.206 0 0 1 -51.21 -51.21 51.206 51.206 0 0 1 51.21 -51.21 51.206 51.206 0 0 1 51.21 51.21z" stroke-opacity=".79651" fill-rule="evenodd" transform="matrix(.29248 0 0 .29248 2.4462 278.77)" stroke="#000" stroke-width="6.8381" fill="url(#c)"/>
<path stroke-linejoin="round" d="m128.77 419.45a1.6413 3.2825 0 0 1 -1.6413 3.2825 1.6413 3.2825 0 0 1 -1.6413 -3.2825 1.6413 3.2825 0 0 1 1.6413 -3.2825 1.6413 3.2825 0 0 1 1.6413 3.2825z" stroke-opacity=".84884" transform="matrix(1.6157,0,0,1.0945,-132.71,-119.05)" stroke="url(#a)" stroke-linecap="round" stroke-width="1.21"/>
<path stroke-linejoin="round" d="m69.862 351.57c4.7441-9.6763 13.523-5.7568 15.52-0.19094" stroke="#000" stroke-linecap="round" stroke-width="1.3444" fill="none"/>
<path stroke-linejoin="round" d="m128.77 419.45a1.6413 3.2825 0 0 1 -1.6413 3.2825 1.6413 3.2825 0 0 1 -1.6413 -3.2825 1.6413 3.2825 0 0 1 1.6413 -3.2825 1.6413 3.2825 0 0 1 1.6413 3.2825z" stroke-opacity=".84884" transform="matrix(1.6157,0,0,1.0945,-123.19,-118.99)" stroke="url(#a)" stroke-linecap="round" stroke-width="1.21"/>
<path font-size="61.543px" d="m308.65 219.91a51.206 51.206 0 0 1 -51.21 51.21 51.206 51.206 0 0 1 -51.21 -51.21 51.206 51.206 0 0 1 51.21 -51.21 51.206 51.206 0 0 1 51.21 51.21z" fill-rule="evenodd" transform="matrix(.29248 0 0 .29248 2.4068 278.74)" fill="url(#b)"/>
</g>
</g>
</svg>
