<?xml version="1.0" encoding="UTF-8" standalone="no"?>
<svg xmlns:rdf="http://www.w3.org/1999/02/22-rdf-syntax-ns#" xmlns="http://www.w3.org/2000/svg" height="32.005" width="16.826" version="1.1" xmlns:cc="http://creativecommons.org/ns#" xmlns:xlink="http://www.w3.org/1999/xlink" viewBox="0 0 16.826198 32.004813" xmlns:dc="http://purl.org/dc/elements/1.1/">
<defs>
<filter id="c" style="color-interpolation-filters:sRGB" height="1.1931" width="1.2009" y="-.096529" x="-.10044">
<feGaussianBlur stdDeviation="0.33615137"/>
</filter>
<linearGradient id="a" y2="578.18" gradientUnits="userSpaceOnUse" y1="609.47" gradientTransform="matrix(1.1454,0,0,1.0743,-67.105,-384.12)" x2="424.05" x1="424.05">
<stop stop-color="#161627" offset="0"/>
<stop stop-color="#fff" offset="1"/>
</linearGradient>
<radialGradient id="b" gradientUnits="userSpaceOnUse" cy="623.78" cx="423.23" gradientTransform="matrix(.6578 .0069657 -.006742 .63667 149.04 223.68)" r="2.9041">
<stop stop-color="#fff" offset="0"/>
<stop stop-color="#f00" offset="1"/>
</radialGradient>
</defs>
<metadata>
<rdf:RDF>
<cc:Work rdf:about="">
<dc:format>image/svg+xml</dc:format>
<dc:type rdf:resource="http://purl.org/dc/dcmitype/StillImage"/>
<dc:title/>
</cc:Work>
</rdf:RDF>
</metadata>
<g transform="translate(-78.475 -165.1)">
<g stroke-linecap="round" transform="translate(-331.74,-82.203)">
<rect stroke-linejoin="round" height="28.912" width="15.756" stroke="#000" y="247.84" x="410.75" stroke-width="1.0702" fill="#e6e6e6"/>
<rect stroke-opacity=".80814" height="1.7332" width="3.5007" stroke="#000" y="277.26" x="416.88" stroke-width="0.633"/>
<rect stroke-linejoin="round" stroke-opacity=".87097" height="25.895" width="12.251" stroke="#000" y="249.29" x="412.49" stroke-width=".55465" fill="url(#a)"/>
<path d="m426.21 624.16a2.5541 2.6339 0 0 1 -2.5535 2.6339 2.5541 2.6339 0 0 1 -2.5547 -2.6326 2.5541 2.6339 0 0 1 2.5522 -2.6351 2.5541 2.6339 0 0 1 2.5559 2.6314" stroke-opacity=".87097" transform="matrix(1.1454,0,0,1.0743,-66.648,-408.39)" stroke="#000" stroke-width="0.7" fill="#999"/>
<path d="m426.21 624.16a2.5541 2.6339 0 0 1 -2.5535 2.6339 2.5541 2.6339 0 0 1 -2.5547 -2.6326 2.5541 2.6339 0 0 1 2.5522 -2.6351 2.5541 2.6339 0 0 1 2.5559 2.6314" stroke-opacity=".87097" transform="matrix(1.1454,0,0,1.0743,-66.648,-400.59)" stroke="#000" stroke-width="0.7" fill="#999"/>
<path d="m426.21 624.16a2.5541 2.6339 0 0 1 -2.5535 2.6339 2.5541 2.6339 0 0 1 -2.5547 -2.6326 2.5541 2.6339 0 0 1 2.5522 -2.6351 2.5541 2.6339 0 0 1 2.5559 2.6314" stroke-opacity=".43226" transform="matrix(1.5398,0,0,1.4442,-233.65,-647.22)" filter="url(#c)" stroke="#f00" stroke-width="3.006" fill="url(#b)"/>
</g>
</g>
</svg>
