<?xml version="1.0" encoding="UTF-8"?>
<svg width="100px" height="100px" viewBox="0 0 100 100" version="1.1" xmlns="http://www.w3.org/2000/svg" xmlns:xlink="http://www.w3.org/1999/xlink">
    <!-- Generator: sketchtool 63.1 (101010) - https://sketch.com -->
    <title>folder/folder</title>
    <desc>Created with sketchtool.</desc>
    <defs>
        <linearGradient x1="50%" y1="0%" x2="50%" y2="100%" id="linearGradient-1">
            <stop stop-color="#F4DE7C" offset="0%"></stop>
            <stop stop-color="#C66C00" offset="100%"></stop>
        </linearGradient>
        <linearGradient x1="50%" y1="0%" x2="50%" y2="100%" id="linearGradient-2">
            <stop stop-color="#F6F6F6" offset="0%"></stop>
            <stop stop-color="#B0B0B0" offset="100%"></stop>
        </linearGradient>
        <linearGradient x1="50%" y1="0%" x2="50%" y2="100%" id="linearGradient-3">
            <stop stop-color="#F4DE7C" stop-opacity="0.573126093" offset="0%"></stop>
            <stop stop-color="#FAB04C" stop-opacity="0.938456075" offset="60.102335%"></stop>
            <stop stop-color="#DA8C2F" offset="100%"></stop>
        </linearGradient>
        <linearGradient x1="50%" y1="0%" x2="50%" y2="100%" id="linearGradient-4">
            <stop stop-color="#F6F6F6" offset="0%"></stop>
            <stop stop-color="#B0B0B0" offset="100%"></stop>
        </linearGradient>
    </defs>
    <g id="Icons" stroke="none" stroke-width="1" fill="none" fill-rule="evenodd">
        <g id="folder/folder" fill-rule="nonzero">
            <g id="Folder/Plain" transform="translate(5.000000, -8.200000)">
                <g id="Folder/Parts/Back">
                    <path d="M27.8669531,26.4295898 L5.4,26.4295898 C5.11289948,26.4295898 4.75956145,26.307064 4.56644234,26.5001831 C4.38126652,26.6853589 4.5,27.0336077 4.5,27.3295898 L4.5,84.42 C4.5,84.6995927 4.66136797,84.9516332 4.85097773,85.1450221 C4.99216216,85.2890205 5.1728167,85.4276284 5.4,85.4276284 L84.6,85.4276284 C84.8518248,85.4276284 85.0852478,85.3478907 85.2488584,85.1842801 C85.4161043,85.0170343 85.5,84.7800482 85.5,84.5276284 L85.5,32.6453906 C85.5,32.3503075 85.5336333,32.0399057 85.3511693,31.8560178 C85.1678653,31.6712834 84.866867,31.7032509 84.6,31.7032509 L39.4284375,31.7032509 C37.2706377,31.7032509 35.4422025,30.5807448 34.0030941,29.2881088 L30.5472995,26.3519015 C30.069613,25.946662 29.0138304,26.4295898 27.8669531,26.4295898 Z" id="Folder-Back" stroke-opacity="0.8" stroke="#DA8C2F" stroke-width="9" fill-opacity="0.8" fill="#DA8C2F"></path>
                    <path d="M29.1579508,27.3495595 L8.2,27.3495595 C7.05621874,27.3495595 6.15816317,27.5174874 5.58542027,28.0767246 C5.03682992,28.6123789 4.85,29.4640645 4.85,30.5910887 L4.85,81.5303705 C4.85,82.6104926 4.84811439,83.4822515 5.40172396,84.003322 C5.91867299,84.4898867 6.82753972,84.61 8.2,84.61 L81.8,84.61 C83.0264101,84.61 83.9279812,84.469232 84.482526,83.9472813 C85.02293,83.4386401 85.15,82.6106751 85.15,81.5303705 L85.15,35.8449495 C85.15,34.7318988 85.0768757,33.8328085 84.5066651,33.2760984 C83.9782085,32.7601537 83.0871867,32.6038608 81.8,32.6038608 L38.0155208,32.6038608 C37.2396095,32.6038608 35.9807184,32.2831462 35.3893194,31.7998989 L31.1180342,28.3006929 C30.7464369,27.9576436 30.2001,27.3495595 29.1579508,27.3495595 Z" id="Folder-Back" stroke="url(#linearGradient-2)" stroke-width="2.5" fill="url(#linearGradient-1)"></path>
                </g>
                <g id="Folder/Parts/Front" fill="url(#linearGradient-3)" stroke="url(#linearGradient-4)" stroke-width="2.5">
                    <path d="M5.94,81.9 L5.97556748,54.7597266 C5.97556748,51.7322423 8.13226413,49.3597266 11.3405484,49.3597266 C38.490801,49.3597266 53.177704,49.3597266 55.4012576,49.3597266 C57.0647806,49.3597266 59.245027,50.9405187 61.9419968,54.1021029 C62.924803,54.8435395 64.4445284,55.6639632 65.6735853,55.6639632 L79.0205484,55.6639632 C82.4674419,55.6639632 84.4205484,57.7585227 84.4205484,61.3286091 L84.4205484,81.9" id="Path" transform="translate(45.180274, 65.629863) scale(-1, 1) translate(-45.180274, -65.629863) "></path>
                </g>
            </g>
        </g>
    </g>
</svg>