<?xml version="1.0" encoding="UTF-8"?>
<svg width="100px" height="100px" viewBox="0 0 100 100" version="1.1" xmlns="http://www.w3.org/2000/svg" xmlns:xlink="http://www.w3.org/1999/xlink">
    <!-- Generator: sketchtool 63.1 (101010) - https://sketch.com -->
    <title>user/user_group_male_female</title>
    <desc>Created with sketchtool.</desc>
    <g id="Icons" stroke="none" stroke-width="1" fill="none" fill-rule="evenodd">
        <g id="user/user_group_male_female" fill-rule="nonzero" stroke="#383838" stroke-width="1.4123999">
            <g id="Group" transform="translate(-8.000000, 3.000000)">
                <g id="Person/Male" transform="translate(40.000000, 0.000000)">
                    <path d="M37.9790493,34.7861241 C21.1736463,35.2585118 7.99170662,62.5124445 14.2084612,71.7545513 C20.4252158,80.9966581 56.9018363,80.9966581 62.8443392,71.7545513 C68.7868422,62.5124445 55.3306509,34.2982559 37.9790493,34.7861241 Z" id="Path" fill="#66A5FF"></path>
                    <path d="M22.3056455,15.7940713 C28.5583423,5.69505271 40.8481217,2.74706047 50.3207244,9.07399655 C59.7933272,15.4009326 63.1578614,28.8047461 57.9903245,39.6285641 C52.8227875,50.4523821 40.9184416,54.9358848 30.8538575,49.8489008 C20.7892734,44.7619168 16.0610043,31.8717232 20.0755653,20.4651519" id="Path" fill="#FFCCAA"></path>
                    <path d="M31.1064846,17.0417968 C31.1064846,17.0417968 38.7860515,25.1210572 47.3525202,25.1210572 C55.4095534,25.1210572 63.2700736,19.2835304 63.2700736,19.2835304 C63.2700736,19.2835304 59.1676773,3.04623202 46.1048643,1.60311958 C33.0612415,0.162233462 17.9545204,3.8459378 13.7447623,18.5208728 C9.48567428,33.3675771 20.7823483,43.3609024 20.7823483,43.3609024 L24.3172196,27.8811239 L29.0197585,28.0003862 L31.1065422,17.0428928 L31.1064846,17.0417968 Z" id="Path" fill="#918A6F"></path>
                    <path d="M27.9448446,28.7872785 C26.3122165,24.1841117 20.8269058,25.7535161 20.5201525,30.8496629 C20.1703217,36.6566593 27.4611625,37.6402175 27.4611625,37.6402175" id="Path" fill="#FFCCAA"></path>
                </g>
                <g id="Person/Female" transform="translate(0.000000, 15.000000)">
                    <path d="M38.79713,36.6201673 C22.8437125,37.0728207 10.3299247,63.1879336 16.2315086,72.0440466 C22.1330925,80.9001596 56.7609142,80.9001596 62.4023196,72.0440466 C68.0437249,63.1879336 55.2697585,36.1526993 38.79713,36.6201673 L38.79713,36.6201673 Z" id="Path" fill="#ED68E2"></path>
                    <path d="M26.9191451,41.9437116 L53.5248136,41.9437116 C53.5248136,41.9437116 53.9493644,68.3405695 44.4674305,68.3405695 C35.5516676,68.3405695 26.9191451,41.9437116 26.9191451,41.9437116 L26.9191451,41.9437116 Z" id="Path" fill="#FFFFFF"></path>
                    <path d="M60.1170596,30.9089242 C60.1170596,43.1152703 51.262497,53.0171789 40.3258994,53.041678 C29.3893018,53.0660864 20.4994978,43.2038528 20.4552789,30.9976058 C20.4113888,18.7913587 29.2297163,8.84951178 40.1661356,8.77521324 C51.1025548,8.70174294 60.0280697,18.5237157 60.1164126,30.7296636" id="Path" fill="#FFCCAA"></path>
                    <path d="M32.8097607,24.6125533 C32.8097607,24.6125533 42.0409074,34.3643645 51.515673,33.6035605 C61.004769,32.8415535 67.3967535,28.4227032 67.3967535,28.4227032 C67.3967535,28.4227032 62.5028814,1.76076343 40.6393827,1.31963462 C23.5230115,0.961311993 15.094947,17.3830251 12.5968511,28.4227032 C10.0665401,39.6044591 13.5376209,39.5620649 17.2361558,38.6093413 C20.9346906,37.6566176 32.80999,24.6123815 32.80999,24.6123815 L32.8097607,24.6125533 Z" id="Path" fill="#D38D5F"></path>
                </g>
            </g>
        </g>
    </g>
</svg>