<?xml version="1.0" encoding="UTF-8"?>
<svg width="100px" height="100px" viewBox="0 0 100 100" version="1.1" xmlns="http://www.w3.org/2000/svg" xmlns:xlink="http://www.w3.org/1999/xlink">
    <!-- Generator: sketchtool 63.1 (101010) - https://sketch.com -->
    <title>user/user_male</title>
    <desc>Created with sketchtool.</desc>
    <g id="Icons" stroke="none" stroke-width="1" fill="none" fill-rule="evenodd">
        <g id="user/user_male" fill-rule="nonzero" stroke="#383838" stroke-width="1.5">
            <g id="Person/Male" transform="translate(7.136061, 7.136061)">
                <path d="M40.6531212,37.235385 C22.6644644,37.7410331 8.55439576,66.9138916 15.2088667,76.8067271 C21.8633376,86.6995627 60.9082453,86.6995627 67.2691547,76.8067271 C73.6300642,66.9138916 59.2264341,36.7131664 40.6531212,37.235385 Z" id="Path" fill="#66A5FF"></path>
                <path d="M23.8761667,16.9061181 C30.5691105,6.09603644 43.7242025,2.94047862 53.8637631,9.71288879 C64.0033236,16.4852989 67.6047518,30.8328633 62.073373,42.418777 C56.5419943,54.0046906 43.7994737,58.8038729 33.0262509,53.3587187 C22.2530282,47.9135646 17.1918457,34.1157837 21.4890685,21.9060855" id="Path" fill="#FFCCAA"></path>
                <path d="M33.2966653,18.2416949 C33.2966653,18.2416949 41.5169438,26.8898091 50.6865701,26.8898091 C59.3108921,26.8898091 67.7248647,20.641267 67.7248647,20.641267 C67.7248647,20.641267 63.3336222,3.26071458 49.3510679,1.71599384 C35.3890549,0.17365618 19.2186826,4.11672695 14.7125191,19.8249115 C10.1535524,35.7169593 22.2456154,46.4139059 22.2456154,46.4139059 L26.029374,29.8442097 L31.0630146,29.9718691 L33.2967269,18.2428681 L33.2966653,18.2416949 Z" id="Path" fill="#918A6F"></path>
                <path d="M29.9124169,30.8141659 C28.1648369,25.886894 22.2933102,27.5667988 21.9649587,33.0217609 C21.5904966,39.2376229 29.3946792,40.2904326 29.3946792,40.2904326" id="Path" fill="#FFCCAA"></path>
            </g>
        </g>
    </g>
</svg>