<?xml version="1.0" encoding="UTF-8"?>
<svg width="1024px" height="1024px" viewBox="0 0 1024 1024" version="1.1" xmlns="http://www.w3.org/2000/svg" xmlns:xlink="http://www.w3.org/1999/xlink">
    <!-- Generator: Sketch 63.1 (92452) - https://sketch.com -->
    <title>freeplane</title>
    <desc>Created with Sketch.</desc>
    <g id="freeplane" stroke="none" stroke-width="1" fill="none" fill-rule="evenodd">
        <g id="Group-4" transform="translate(-43.000000, 0.000000)">
            <g id="Group-3">
                <g id="Group-2" transform="translate(0.000000, -0.000000)">
                    <path d="M368.802806,186.240998 C356.800401,214.529773 352.033179,234.929347 349.26336,248.416967 C342.536657,281.172617 330.447952,370.449811 333.546242,370.077847 C334.710902,369.311591 344.240229,350.376856 354.020412,327.277548 C394.534254,234.963638 456.891362,174.606434 526.240823,160.642802 C568.70309,152.036978 598.421802,160.520199 646.666466,185.399822 C673.837104,199.411635 674.093484,192.188945 705.098797,183.455146 L740.614322,175.68075 L730.889245,151.98517 C697.851889,78.3990743 646.302404,24.3249962 587.714146,3.54517899 C556.486386,-7.23902077 499.674919,7.47452299 466.105833,35.5596753 C429.354836,65.4049834 380.805211,157.952223 368.802806,186.240998 Z" id="Orange-Copy" fill="#FF9F00"></path>
                    <path d="M661.067258,333.945113 C649.064853,362.233888 644.297631,382.633462 641.527812,396.121082 C634.801109,428.876732 622.712403,518.153926 625.810694,517.781962 C626.975354,517.015706 636.50468,498.080971 646.284863,474.981663 C686.798706,382.667753 749.155814,322.310549 818.505275,308.346917 C860.967542,299.741093 890.686253,308.224314 938.930917,333.103937 C966.101555,347.11575 966.357936,339.89306 997.363249,331.159261 L1032.87877,323.384865 L1023.1537,299.689285 C990.11634,226.103189 938.566855,172.029111 879.978597,151.249294 C848.750837,140.465094 791.939371,155.178638 758.370284,183.26379 C721.619288,213.109098 673.069662,305.656338 661.067258,333.945113 Z" id="Orange-Copy-2" fill="#FF2828" transform="translate(829.095483, 332.743618) rotate(60.000000) translate(-829.095483, -332.743618) "></path>
                    <path d="M679.283968,660.90561 C667.281563,689.194385 662.514341,709.593959 659.744522,723.081579 C653.017819,755.837229 640.929113,845.114424 644.027404,844.742459 C645.192064,843.976203 654.72139,825.041468 664.501573,801.94216 C705.015416,709.62825 767.372524,649.271046 836.721985,635.307414 C879.184252,626.701591 908.902963,635.184811 957.147627,660.064434 C984.318265,674.076247 984.574646,666.853558 1015.57996,658.119758 L1051.09548,650.345363 L1041.37041,626.649782 C1008.33305,553.063687 956.783565,498.989608 898.195307,478.209791 C866.967547,467.425591 810.156081,482.139135 776.586994,510.224287 C739.835998,540.069596 691.286372,632.616835 679.283968,660.90561 Z" id="Orange-Copy-3" fill="#D529FF" transform="translate(847.312193, 659.704115) rotate(120.000000) translate(-847.312193, -659.704115) "></path>
                    <path d="M405.236226,840.161992 C393.233821,868.450767 388.466599,888.850341 385.69678,902.337962 C378.970077,935.093611 366.881372,1024.37081 369.979662,1023.99884 C371.144322,1023.23259 380.673649,1004.29785 390.453831,981.198542 C430.967674,888.884633 493.324782,828.527428 562.674243,814.563796 C605.13651,805.957973 634.855222,814.441194 683.099886,839.320816 C710.270524,853.332629 710.526904,846.10994 741.532217,837.37614 L777.047742,829.601745 L767.322665,805.906164 C734.285309,732.320069 682.735824,678.245991 624.147566,657.466173 C592.919806,646.681974 536.108339,661.395517 502.539253,689.48067 C465.788256,719.325978 417.238631,811.873217 405.236226,840.161992 Z" id="Orange-Copy-4" fill="#288BFF" transform="translate(573.264452, 838.960497) rotate(180.000000) translate(-573.264452, -838.960497) "></path>
                    <path d="M112.971774,692.457877 C100.96937,720.746652 96.2021479,741.146226 93.4323288,754.633847 C86.7056254,787.389496 74.6169199,876.666691 77.7152106,876.294726 C78.8798703,875.52847 88.4091969,856.593736 98.1893799,833.494427 C138.703222,741.180518 201.06033,680.823313 270.409792,666.859681 C312.872058,658.253858 342.59077,666.737079 390.835434,691.616701 C418.006072,705.628514 418.262453,698.405825 449.267766,689.672025 L484.78329,681.89763 L475.058213,658.202049 C442.020857,584.615954 390.471372,530.541876 331.883114,509.762058 C300.655354,498.977859 243.843888,513.691402 210.274801,541.776555 C173.523805,571.621863 124.974179,664.169102 112.971774,692.457877 Z" id="Orange-Copy-5" fill="#3F9E00" transform="translate(281.000000, 691.256382) rotate(240.000000) translate(-281.000000, -691.256382) "></path>
                    <path d="M94.7550645,365.49738 C82.7526597,393.786155 77.9854379,414.185729 75.2156188,427.67335 C68.4889154,460.428999 56.4002099,549.706194 59.4985006,549.334229 C60.6631604,548.567973 70.1924869,529.633238 79.9726699,506.53393 C120.486512,414.22002 182.84362,353.862816 252.193082,339.899184 C294.655348,331.293361 324.37406,339.776581 372.618724,364.656204 C399.789362,378.668017 400.045743,371.445328 431.051056,362.711528 L466.56658,354.937133 L456.841503,331.241552 C423.804147,257.655457 372.254662,203.581378 313.666404,182.801561 C282.438644,172.017361 225.627178,186.730905 192.058091,214.816057 C155.307095,244.661366 106.757469,337.208605 94.7550645,365.49738 Z" id="Orange-Copy-6" fill="#DEBA00" transform="translate(262.783290, 364.295885) rotate(300.000000) translate(-262.783290, -364.295885) "></path>
                </g>
            </g>
        </g>
    </g>
</svg>