<?xml version="1.0" encoding="UTF-8"?>
<svg width="100px" height="100px" viewBox="0 0 100 100" version="1.1" xmlns="http://www.w3.org/2000/svg" xmlns:xlink="http://www.w3.org/1999/xlink">
    <!-- Generator: sketchtool 63.1 (101010) - https://sketch.com -->
    <title>file/file_email</title>
    <desc>Created with sketchtool.</desc>
    <g id="Icons" stroke="none" stroke-width="1" fill="none" fill-rule="evenodd">
        <g id="file/file_email" fill-rule="nonzero">
            <g id="Annotations/Email-Address" transform="translate(10.000000, 10.000000)">
                <path d="M56.3566694,26.3576889 C57.0199793,23.0382222 55.0547619,19.5208889 51.900522,18.3646222 C49.1802814,17.3438222 46.4423376,16.8924444 43.0270659,16.8924444 C25.2199989,16.8924444 17.2499477,31.2435556 17.2499477,45.4684444 C17.2499477,56.7084444 25.0543476,62.5866667 32.7673411,62.5866667 C37.8585455,62.5866667 42.3640993,61.0103111 46.1007382,57.9651556 C46.4112215,58.3887644 46.7287591,58.7568178 47.0392785,59.0762667 C49.2232749,61.3401778 52.2963149,62.5866667 55.6939737,62.5866667 C67.0583418,62.5866667 78.56,52.7431111 78.56,33.9306667 C78.56,14.2675556 63.9774438,0 43.8843161,0 C19.6878404,0 1.44,18.7884444 1.44,43.6977778 C1.44,64.7324444 16.5581683,80 37.3856173,80 C43.8210904,80 49.1519202,79.1111111 54.1449441,77.1632 C56.3182824,76.3159822 57.1086036,73.7708444 56.0219345,71.7326222 C54.9352653,69.6978667 52.3843793,68.9444444 50.1827701,69.7222222 C46.4181312,71.0555556 42.3183961,71.6666667 37.3858882,71.6666667 C23.7318466,71.6666667 9.90438584,62.0586667 9.90438584,43.6977778 C9.90438584,26.1217778 21.5758502,8.33333333 43.8809742,8.33333333 C59.5564318,8.33333333 70.0925432,18.6177778 70.0925432,33.9271111 C70.0925432,47.2711111 62.849136,54.2497778 55.6942447,54.2497778 C55.0838638,54.2497778 53.9477702,54.1317244 53.1785844,53.3366222 C52.3177033,52.4442667 52.1554119,50.9755556 52.1906377,49.8158222 L56.3566694,26.3576889 Z M43.9465797,47.9915101 C41.1466955,52.3032758 37.4946296,54.4 32.7966305,54.4 C28.5880137,54.4 25.76,50.8613544 25.76,45.5883375 C25.76,36.2228031 30.2855252,25.2835665 43.0344423,25.28 C44.6016742,25.28 45.7885257,25.405379 46.7499801,25.5969427 C47.3698224,25.7188445 47.7712999,26.366657 47.6621175,26.9796608 L43.9465797,47.9915101 Z" id="Shape" fill="#F3F26E"></path>
                <path d="M56.3566694,26.3576889 C57.0199793,23.0382222 55.0547619,19.5208889 51.900522,18.3646222 C49.1802814,17.3438222 46.4423376,16.8924444 43.0270659,16.8924444 C25.2199989,16.8924444 17.2499477,31.2435556 17.2499477,45.4684444 C17.2499477,56.7084444 25.0543476,62.5866667 32.7673411,62.5866667 C37.8585455,62.5866667 42.3640993,61.0103111 46.1007382,57.9651556 C46.4112215,58.3887644 46.7287591,58.7568178 47.0392785,59.0762667 C49.2232749,61.3401778 52.2963149,62.5866667 55.6939737,62.5866667 C67.0583418,62.5866667 78.56,52.7431111 78.56,33.9306667 C78.56,14.2675556 63.9774438,0 43.8843161,0 C19.6878404,0 1.44,18.7884444 1.44,43.6977778 C1.44,64.7324444 16.5581683,80 37.3856173,80 C43.8210904,80 49.1519202,79.1111111 54.1449441,77.1632 C56.3182824,76.3159822 57.1086036,73.7708444 56.0219345,71.7326222 C54.9352653,69.6978667 52.3843793,68.9444444 50.1827701,69.7222222 C46.4181312,71.0555556 42.3183961,71.6666667 37.3858882,71.6666667 C23.7318466,71.6666667 9.90438584,62.0586667 9.90438584,43.6977778 C9.90438584,26.1217778 21.5758502,8.33333333 43.8809742,8.33333333 C59.5564318,8.33333333 70.0925432,18.6177778 70.0925432,33.9271111 C70.0925432,47.2711111 62.849136,54.2497778 55.6942447,54.2497778 C55.0838638,54.2497778 53.9477702,54.1317244 53.1785844,53.3366222 C52.3177033,52.4442667 52.1554119,50.9755556 52.1906377,49.8158222 L56.3566694,26.3576889 Z M43.9465797,47.9915101 C41.1466955,52.3032758 37.4946296,54.4 32.7966305,54.4 C28.5880137,54.4 25.76,50.8613544 25.76,45.5883375 C25.76,36.2228031 30.2855252,25.2835665 43.0344423,25.28 C44.6016742,25.28 45.7885257,25.405379 46.7499801,25.5969427 C47.3698224,25.7188445 47.7712999,26.366657 47.6621175,26.9796608 L43.9465797,47.9915101 Z" id="Shape-Copy" fill="#858400"></path>
            </g>
        </g>
    </g>
</svg>