<?xml version="1.0" encoding="UTF-8"?>
<svg width="1000px" height="1000px" viewBox="0 0 1000 1000" version="1.1" xmlns="http://www.w3.org/2000/svg" xmlns:xlink="http://www.w3.org/1999/xlink">
    <!-- Generator: Sketch 58 (84663) - https://sketch.com -->
    <title>world_web_globe-v2-16x16</title>
    <desc>Created with Sketch.</desc>
    <defs>
        <radialGradient cx="50.704%" cy="57.042%" fx="50.704%" fy="57.042%" r="58.1%" id="radialGradient-1">
            <stop stop-color="#92BEFC" offset="0%"></stop>
            <stop stop-color="#7396E7" offset="36.195%"></stop>
            <stop stop-color="#438EC5" offset="62.535%"></stop>
            <stop stop-color="#475BAF" offset="72.607%"></stop>
            <stop stop-color="#020407" offset="100%"></stop>
        </radialGradient>
        <linearGradient x1="25.7654609%" y1="89.8948913%" x2="68.6230319%" y2="7.63730304%" id="linearGradient-2">
            <stop stop-color="#73FA66" offset="0%"></stop>
            <stop stop-color="#3ABC3E" offset="78.9121354%"></stop>
            <stop stop-color="#077D0F" offset="100%"></stop>
        </linearGradient>
        <linearGradient x1="72.887%" y1="-12.6524121%" x2="35.915%" y2="24.9388115%" id="linearGradient-3">
            <stop stop-color="#FFFFFF" offset="0%"></stop>
            <stop stop-color="#FFFFFF" stop-opacity="0" offset="100%"></stop>
        </linearGradient>
        <linearGradient x1="42.241%" y1="14.4159387%" x2="37.791%" y2="53.7436004%" id="linearGradient-4">
            <stop stop-color="#FFFFFF" stop-opacity="0.664745411" offset="0%"></stop>
            <stop stop-color="#FFFFFF" stop-opacity="0" offset="100%"></stop>
        </linearGradient>
        <linearGradient x1="51.163%" y1="171.7%" x2="51.163%" y2="48.507%" id="linearGradient-5">
            <stop stop-color="#FFFFFF" offset="0%"></stop>
            <stop stop-color="#FFFFFF" stop-opacity="0" offset="100%"></stop>
        </linearGradient>
    </defs>
    <g id="world_web_globe-v2-16x16" stroke="none" stroke-width="1" fill="none" fill-rule="evenodd">
        <g id="Annotations/Globe-(Very-Simple)" transform="translate(71.836346, 71.836346)">
            <g id="Group" transform="translate(5.136000, 5.136000)">
                <path d="M845.644141,422.822077 C845.644141,271.762299 765.054712,132.177307 634.233107,56.6474172 C503.411503,-18.8824724 342.232638,-18.8824724 211.411033,56.6474172 C80.5894286,132.177307 -1.27897692e-12,271.762299 -1.27897692e-12,422.822077 C-1.27897692e-12,656.340258 189.303889,845.644147 422.82207,845.644147 C656.340252,845.644147 845.644141,656.340258 845.644141,422.822077 L845.644141,422.822077 Z" id="Blue-ball" fill="url(#radialGradient-1)" transform="translate(422.822070, 422.822073) scale(-1, 1) translate(-422.822070, -422.822073) "></path>
                <path d="M509.911135,695.007581 C451.731265,687.91737 451.158691,584.89295 508.956845,576.53782 C545.283478,597.941601 579.001718,507.699532 597.54675,543.683182 C582.246303,611.88901 665.396757,596.443669 681.269777,544.049343 C704.872546,501.774379 693.039352,580.565592 702.105105,597.342428 C723.22672,651.667421 657.826057,727.562632 609.602612,681.626057 C575.08913,649.570316 543.438517,683.656587 509.911135,695.007581 Z M631.614897,732.52245 C637.436065,756.089911 649.301068,758.220302 657.062626,733.354635 C664.792373,709.787174 635.718343,714.181108 631.614897,732.52245 Z M191.146524,161.311126 C143.082127,211.142324 128.895018,283.076337 112.894758,349.185061 C124.791572,395.82067 160.60925,443.355039 119.35212,485.962877 C92.9819108,545.946724 8.08192613,508.198842 29.2353506,447.216375 C28.1538221,374.949487 19.724262,298.421816 52.9017382,231.913645 C71.0650545,189.605393 105.451298,138.709 155.137988,143.535669 C168.243568,146.598107 179.885904,153.987904 191.146524,161.311126 L191.146524,161.311126 Z M294.298513,329.565575 C290.86307,272.096154 351.396854,277.01456 337.75051,208.321932 C335.396595,150.060285 218.241614,179.075575 252.564238,109.557712 C284.501138,57.6008664 280.683978,30.9622549 360.653466,17.5274162 C440.654762,0.461539917 526.22275,-19.5091663 660.745805,83.4472515 C791.706179,186.403669 551.797717,104.771344 523.041784,142.534134 C476.822347,182.937679 497.657675,271.303928 443.772109,289.855229 C397.202766,320.851085 400.892686,384.889383 393.131129,435.096729 C402.38774,476.226481 525.045792,447.013133 467.692974,503.459262 C409.385866,518.808648 370.291793,457.873237 329.734475,425.72205 C309.185434,405.586297 297.702147,383.370949 294.298513,329.565575 L294.298513,329.565575 Z M701.150815,242.831903 C750.678457,239.536453 771.004831,298.987702 766.646907,342.161425 C739.672315,389.22977 799.060951,433.102528 828.421268,384.702688 C860.071881,326.216773 808.444801,252.984552 760.094117,221.994008 C738.718025,202.18802 696.633844,204.884298 701.150815,242.831903 Z M212.395377,739.479511 C274.646884,738.48089 337.439154,723.701296 399.277135,737.315832 C423.388857,771.235665 491.429722,794.969563 492.320392,830.420615 C444.319614,865.572081 381.940869,832.551007 331.777034,818.936471 C291.951339,806.320557 235.361952,815.075136 214.781102,768.239802 C211.886423,759.052487 210.391369,749.066275 212.395377,739.479511 Z" id="Continents" fill="url(#linearGradient-2)"></path>
                <g id="Glows" transform="translate(22.644150, 0.000000)">
                    <path d="M1.13686838e-13,41.0132463 C185.080195,-78.2561636 561.585776,98.1819268 506.429186,430.498927 C431.625789,535.880117 296.281121,-2.94431378 1.13686838e-13,41.0132463 Z" id="Top-left-glow" fill="url(#linearGradient-3)" transform="translate(255.944946, 223.944521) scale(-1, 1) translate(-255.944946, -223.944521) "></path>
                    <path d="M720.150027,204.264872 C720.150027,91.4524982 578.706322,0 404.226669,0 C229.747017,0 88.3033116,91.4524982 88.3033116,204.264872 C88.3033116,317.077245 229.747017,408.529744 404.226669,408.529744 C578.706322,408.529744 720.150027,317.077245 720.150027,204.264872 Z" id="Top-glow" fill="url(#linearGradient-4)" transform="translate(404.226669, 204.264872) scale(-1, 1) translate(-404.226669, -204.264872) "></path>
                    <path d="M746.493881,593.920997 C746.493881,454.811756 593.33605,342.041435 404.40629,342.041435 C215.47653,342.041435 62.3186989,454.811756 62.3186989,593.920997 C62.3186989,733.030238 215.47653,845.800559 404.40629,845.800559 C593.33605,845.800559 746.493881,733.030238 746.493881,593.920997 Z" id="Bottom-Glow" fill="url(#linearGradient-5)" transform="translate(404.406290, 593.920997) scale(-1, 1) translate(-404.406290, -593.920997) "></path>
                </g>
                <path d="M838.644141,422.822077 C838.644141,274.263156 759.388903,136.989054 630.733107,62.709595 C502.07731,-11.569865 343.566831,-11.569865 214.911033,62.709595 C86.2552374,136.989054 7,274.263156 7,422.822077 C7,652.474265 193.169882,838.644147 422.82207,838.644147 C652.474258,838.644147 838.644141,652.474265 838.644141,422.822077 Z" id="Black-outline" stroke="#000000" stroke-width="14" transform="translate(422.822070, 422.822073) scale(-1, 1) translate(-422.822070, -422.822073) "></path>
            </g>
        </g>
    </g>
</svg>