<?xml version="1.0" encoding="UTF-8"?>
<svg width="100px" height="100px" viewBox="0 0 100 100" version="1.1" xmlns="http://www.w3.org/2000/svg" xmlns:xlink="http://www.w3.org/1999/xlink">
    <!-- Generator: sketchtool 63.1 (101010) - https://sketch.com -->
    <title>logo/logo_BMO</title>
    <desc>Created with sketchtool.</desc>
    <g id="Icons" stroke="none" stroke-width="1" fill="none" fill-rule="evenodd">
        <g id="logo/logo_BMO" fill-rule="nonzero">
            <g id="BMO" transform="translate(2.000000, 2.000000)">
                <path d="M48.046875,0.99375 C21.765625,0.99375 0.440625,22.315625 0.440625,48.6125 C0.440625,74.903125 21.765625,96.228125 48.046875,96.228125 C74.35625,96.228125 95.671875,74.903125 95.671875,48.6125 C95.671875,22.315625 74.359375,0.99375 48.046875,0.99375" id="Path" fill="#ED1C24"></path>
                <rect id="Rectangle" fill="#FFFFFF" x="25.396875" y="55.096875" width="44.9875" height="14.203125"></rect>
                <path d="M46.428125,33.871875 C47.015625,34.621875 47.515625,34.84375 48.04375,34.853125 C48.58125,34.840625 49.05625,34.653125 49.64375,33.871875 C49.64375,33.871875 57.159375,23.99375 57.553125,23.51875 C58.56875,22.25625 59.79375,22.25625 60.809375,23.5125 L70.3875,35.640625 L70.3875,55.1 L60.875,42.884375 C59.759375,41.484375 58.484375,41.478125 57.359375,42.884375 C56.98125,43.378125 49.678125,53.05 49.678125,53.05 C48.54375,54.484375 47.453125,54.484375 46.33125,53.05 C46.33125,53.05 38.853125,43.328125 38.51875,42.884375 C37.428125,41.50625 36.20625,41.478125 35.01875,42.884375 L25.4,55.1 L25.39375,35.7 C25.39375,35.7 34.559375,24.209375 35.14375,23.515625 C36.178125,22.259375 37.425,22.259375 38.44375,23.50625 C38.903125,24.103125 46.428125,33.871875 46.428125,33.871875" id="Path" fill="#FFFFFF"></path>
            </g>
        </g>
    </g>
</svg>