<?xml version="1.0" encoding="UTF-8"?>
<svg width="100px" height="100px" viewBox="0 0 100 100" version="1.1" xmlns="http://www.w3.org/2000/svg" xmlns:xlink="http://www.w3.org/1999/xlink">
    <!-- Generator: sketchtool 63.1 (101010) - https://sketch.com -->
    <title>website/website_github</title>
    <desc>Created with sketchtool.</desc>
    <g id="Icons" stroke="none" stroke-width="1" fill="none" fill-rule="evenodd">
        <g id="website/website_github" fill="#EBEBEB" fill-rule="nonzero">
            <path d="M65.2727273,93.3818182 L64.8363636,93.3818182 L64.4,92.9454545 L64.4,90.3272727 L64.4,79.4181818 C64.4,76.3636364 63.9636364,73.7454545 62.6545455,71.5636364 C72.6909091,69.8181818 83.6,64.5818182 83.6,44.9454545 C83.6,39.7090909 81.8545455,34.9090909 78.8,30.9818182 C79.6727273,28.3636364 80.1090909,23.5636364 77.9272727,17.4545455 L76.6181818,16.1454545 C76.6181818,16.1454545 75.7454545,15.7090909 74.8727273,15.7090909 C72.2545455,15.7090909 68.3272727,16.5818182 61.7818182,20.9454545 C58.2909091,20.5090909 54.3636364,19.6363636 50,19.6363636 C45.6363636,19.6363636 41.7090909,20.0727273 37.7818182,20.9454545 C31.6727273,17.0181818 27.3090909,16.1454545 24.6909091,16.1454545 C23.8181818,16.1454545 23.3818182,16.5818182 22.9454545,16.5818182 C22.5090909,16.5818182 21.6363636,17.4545455 21.6363636,17.8909091 C19.4545455,24 19.8909091,28.8 20.7636364,31.4181818 C17.7090909,35.3454545 15.9636364,40.1454545 15.9636364,45.3818182 C15.9636364,64.5818182 27.3090909,69.8181818 36.9090909,72 C36.4727273,72.8727273 36.0363636,74.1818182 35.6,75.4909091 C34.7272727,75.9272727 33.4181818,76.3636364 31.6727273,76.3636364 C29.9272727,76.3636364 28.1818182,75.9272727 26.8727273,74.6181818 L26.4363636,74.1818182 C26,73.7454545 26,73.3090909 25.5636364,73.3090909 L25.1272727,72.8727273 L24.6909091,72.4363636 C24.6909091,72 21.2,66.7636364 15.0909091,66.3272727 C12.9090909,66.3272727 11.1636364,67.2 10.7272727,68.5090909 C9.85454545,70.6909091 12.4727273,72.4363636 13.7818182,73.3090909 C13.7818182,73.3090909 16.4,74.6181818 18.1454545,79.4181818 C19.0181818,82.4727273 22.9454545,88.1454545 32.1090909,88.1454545 L35.1636364,88.1454545 L35.1636364,94.2545455 L34.7272727,94.6909091 C34.7272727,94.6909091 34.2909091,94.6909091 34.7272727,94.6909091 C15.0909091,86.8363636 2,68.5090909 2,48 C2,21.3818182 23.3818182,0 50,0 C76.6181818,0 98,21.3818182 98,48 C98,68.5090909 84.9090909,86.8363636 65.2727273,93.3818182 Z" id="Path"></path>
        </g>
    </g>
</svg>