<?xml version="1.0" encoding="UTF-8"?>
<svg width="148px" height="100px" viewBox="0 0 148 100" version="1.1" xmlns="http://www.w3.org/2000/svg" xmlns:xlink="http://www.w3.org/1999/xlink">
    <!-- Generator: sketchtool 63.1 (101010) - https://sketch.com -->
    <title>website/website_wikipedia</title>
    <desc>Created with sketchtool.</desc>
    <g id="Icons" stroke="none" stroke-width="1" fill="none" fill-rule="evenodd">
        <g id="website/website_wikipedia" fill="#DADADA">
            <path d="M145,11.5125 C145,12.025 144.837643,12.4875 144.525418,12.9125 C144.200704,13.325 143.8635,13.5375 143.476341,13.5375 C140.366579,13.8375 137.806332,14.8375 135.833069,16.55 C133.847318,18.25 131.811609,21.5125 129.700967,26.3125 L97.4793316,98.9875 C97.2670185,99.6625 96.6800352,100 95.7058927,100 C94.9440633,100 94.35708,99.6625 93.9324538,98.9875 L75.8608619,61.1625 L55.0791557,98.9875 C54.6545295,99.6625 54.0675462,100 53.3057168,100 C52.3815303,100 51.769569,99.6625 51.4698329,98.9875 L19.8102023,26.3125 C17.8369393,21.8 15.7512753,18.65 13.5532102,16.8625 C11.3676341,15.075 8.30782762,13.9625 4.39876869,13.5375 C4.06156552,13.5375 3.73685136,13.3625 3.44960422,13 C3.14986807,12.65 3,12.2375 3,11.775 C3,10.5875 3.33720317,10 4.0116095,10 C6.83412489,10 9.78153034,10.125 12.8663149,10.375 C15.7262973,10.6375 18.4239226,10.7625 20.9467018,10.7625 C23.5194371,10.7625 26.5542656,10.6375 30.0511873,10.375 C33.7104661,10.125 36.9576077,10 39.7801231,10 C40.4545295,10 40.7917326,10.5875 40.7917326,11.775 C40.7917326,12.95 40.5794195,13.5375 40.1672823,13.5375 C37.3447669,13.75 35.1217238,14.475 33.498153,15.6875 C31.8745822,16.9125 31.0627968,18.5125 31.0627968,20.5 C31.0627968,21.5125 31.4,22.775 32.0744063,24.2875 L58.2388742,83.425 L73.0883026,55.35 L59.2504837,26.3125 C56.7651715,21.1375 54.7169745,17.7875 53.1183817,16.2875 C51.5197889,14.8 49.0969217,13.875 45.8497801,13.5375 C45.550044,13.5375 45.2752858,13.3625 45.0005277,13 C44.7257696,12.65 44.5883905,12.2375 44.5883905,11.775 C44.5883905,10.5875 44.8756376,10 45.4751099,10 C48.2976253,10 50.8828496,10.125 53.2432718,10.375 C55.5162709,10.6375 57.9391381,10.7625 60.5118734,10.7625 C63.0346526,10.7625 65.7072999,10.6375 68.5298153,10.375 C71.4397537,10.125 74.2997361,10 77.1222515,10 C77.7966579,10 78.133861,10.5875 78.133861,11.775 C78.133861,12.95 77.9340369,13.5375 77.5094107,13.5375 C71.8643799,13.925 69.0418646,15.525 69.0418646,18.35 C69.0418646,19.6125 69.6912929,21.575 71.0026385,24.225 L80.15708,42.825 L89.2615655,25.8125 C90.5229551,23.4125 91.1598945,21.3875 91.1598945,19.7375 C91.1598945,15.8625 88.3373791,13.8 82.6923483,13.5375 C82.180299,13.5375 81.9305189,12.95 81.9305189,11.775 C81.9305189,11.35 82.055409,10.95 82.3051891,10.575 C82.5674582,10.1875 82.8172383,10 83.0670185,10 C85.0902375,10 87.5755497,10.125 90.5229551,10.375 C93.3454705,10.6375 95.6684257,10.7625 97.4793316,10.7625 C98.7781882,10.7625 100.701495,10.65 103.224274,10.4375 C106.42146,10.15 109.106596,10 111.254705,10 C111.754266,10 112.004046,10.5 112.004046,11.5125 C112.004046,12.8625 111.541953,13.5375 110.617766,13.5375 C107.333157,13.875 104.685488,14.7875 102.687247,16.2625 C100.689006,17.7375 98.1912049,21.0875 95.2063325,26.3125 L83.0670185,48.775 L99.5025506,82.2875 L123.76869,25.8125 C124.605453,23.75 125.030079,21.85 125.030079,20.125 C125.030079,15.9875 122.207564,13.8 116.562533,13.5375 C116.050484,13.5375 115.800704,12.95 115.800704,11.775 C115.800704,10.5875 116.175374,10 116.937203,10 C118.997889,10 121.445734,10.125 124.26825,10.375 C126.878452,10.6375 129.076517,10.7625 130.837467,10.7625 C132.698329,10.7625 134.846438,10.6375 137.281794,10.375 C139.817062,10.125 142.090062,10 144.113281,10 C144.700264,10 145,10.5 145,11.5125 Z" id="Path"></path>
        </g>
    </g>
</svg>