<?xml version="1.0" encoding="UTF-8"?>
<svg width="100px" height="100px" viewBox="0 0 100 100" version="1.1" xmlns="http://www.w3.org/2000/svg" xmlns:xlink="http://www.w3.org/1999/xlink">
    <!-- Generator: sketchtool 63.1 (101010) - https://sketch.com -->
    <title>website/website_linkedin</title>
    <desc>Created with sketchtool.</desc>
    <g id="Icons" stroke="none" stroke-width="1" fill="none" fill-rule="evenodd">
        <g id="website/website_linkedin" fill="#0077B7" fill-rule="nonzero">
            <g id="link_linkedin" transform="translate(3.000000, 3.000000)">
                <path d="M85.4969372,0 L8.50306283,0 C3.807,0 0,3.807 0,8.50306283 L0,85.4966911 C0,90.193 3.807,94 8.50306283,94 L85.4966911,94 C90.193,94 94,90.193 94,85.4966911 L94,8.50306283 C94,3.807 90.193,0 85.4969372,0 Z M29.0875864,81.165801 C29.0875864,82.5324921 27.9797644,83.6403141 26.6130733,83.6403141 L16.0796597,83.6403141 C14.7129686,83.6403141 13.6051466,82.5324921 13.6051466,81.165801 L13.6051466,37.0101623 C13.6051466,35.6434712 14.7129686,34.5356492 16.0796597,34.5356492 L26.6130733,34.5356492 C27.9797644,34.5356492 29.0875864,35.6434712 29.0875864,37.0101623 L29.0875864,81.165801 Z M21.3463665,30.3733194 C15.8198063,30.3733194 11.3395497,25.8930628 11.3395497,20.3665026 C11.3395497,14.8399424 15.8198063,10.3596859 21.3463665,10.3596859 C26.8729267,10.3596859 31.3531832,14.8399424 31.3531832,20.3665026 C31.3531832,25.8930628 26.8731728,30.3733194 21.3463665,30.3733194 Z M84.1349282,81.3651204 C84.1349282,82.6215707 83.116178,83.6403141 81.8597277,83.6403141 L70.5565969,83.6403141 C69.3001466,83.6403141 68.2814031,82.6215707 68.2814031,81.3651204 L68.2814031,60.653623 C68.2814031,57.5639267 69.1876911,47.1144241 60.207,47.1144241 C53.240911,47.1144241 51.8279581,54.2667906 51.5442356,57.4765707 L51.5442356,81.3651204 C51.5442356,82.6215707 50.5257382,83.6403141 49.2690419,83.6403141 L38.3369895,83.6403141 C37.0805393,83.6403141 36.0617958,82.6215707 36.0617958,81.3651204 L36.0617958,36.8108429 C36.0617958,35.5543927 37.0805393,34.5356492 38.3369895,34.5356492 L49.2690419,34.5356492 C50.5254921,34.5356492 51.5442356,35.5543927 51.5442356,36.8108429 L51.5442356,40.6631204 C54.127267,36.7867277 57.9660105,33.7947225 66.1393351,33.7947225 C84.2385183,33.7947225 84.1349282,50.7038953 84.1349282,59.9946387 L84.1349282,81.3651204 L84.1349282,81.3651204 Z" id="Shape"></path>
            </g>
        </g>
    </g>
</svg>