<?xml version="1.0" encoding="UTF-8"?>
<svg width="100px" height="100px" viewBox="0 0 100 100" version="1.1" xmlns="http://www.w3.org/2000/svg" xmlns:xlink="http://www.w3.org/1999/xlink">
    <!-- Generator: sketchtool 63.1 (101010) - https://sketch.com -->
    <title>code/code_software_design</title>
    <desc>Created with sketchtool.</desc>
    <g id="Icons" stroke="none" stroke-width="1" fill="none" fill-rule="evenodd">
        <g id="code/code_software_design" fill="#00B9FF" fill-rule="nonzero">
            <path d="M24.1632653,19.1010204 C26.4552041,16.8130612 26.4552041,13.0981633 24.1632653,10.8062245 L17.4907143,4.08193878 C17.0721837,3.67138776 16.8370204,3.10936735 16.8370204,2.5194898 C16.8210765,1.38744898 17.6700918,0.434795918 18.7981429,0.315204082 C24.5538571,-0.250806122 30.285898,1.64255102 34.5705918,5.52887755 C38.8594694,9.41918367 41.3029388,14.9397959 41.2948776,20.7237755 C41.2948776,21.2539082 41.2948776,21.7441837 41.2350878,22.3141837 L41.2350878,23.2748061 C41.2350878,25.8417449 42.0442408,28.336949 43.5429449,30.4176633 L38.7757,35.1330714 L34.4190673,30.7764388 C33.3907,29.7480714 31.7245776,29.7480714 30.6922306,30.7764388 C29.6638633,31.8048061 29.6638633,33.4709286 30.6922306,34.4992959 L35.0488633,38.8559286 L30.3972306,43.5075612 L30.3972306,43.5115469 C28.0494755,41.8215469 25.1795776,41.0203224 22.2977408,41.2474653 C16.605802,41.6899041 10.9895776,39.7407306 6.79672041,35.8664449 C2.60743469,31.9920571 0.219883673,26.5432816 0.215904082,20.8388939 C0.215904082,20.1572918 0.251777551,19.4797102 0.319536735,18.7980776 L0.31555102,18.7980776 C0.4152,17.9530571 0.989183673,17.2396082 1.79034694,16.9645061 C2.59153061,16.6854857 3.48034694,16.8887724 4.08228571,17.490649 L10.7548367,24.1632 C13.0467755,26.4551388 16.7616735,26.4551388 19.0536122,24.1632 L24.1632653,19.1010204 Z M99.7452378,79.2010204 L99.7452378,79.2050061 C99.7409122,73.4970469 97.3532653,68.0478633 93.1640816,64.1774551 C88.9708163,60.3030673 83.3545918,58.3500061 77.6630612,58.7964347 C74.7772449,59.019649 71.9073469,58.2104959 69.5635714,56.5204143 L64.8680612,61.2238837 L69.2366327,65.5924551 C70.265,66.6208224 70.265,68.2869449 69.2366327,69.3153122 C68.2082653,70.3436796 66.5381633,70.3436796 65.5097959,69.3153122 L61.1412245,64.9467408 L56.497551,69.5904143 L56.5015367,69.5904143 C57.9962306,71.6711286 58.8054143,74.1703122 58.8054143,76.7332714 L58.8054143,77.6938939 C58.8054143,78.2240265 58.7456245,78.714302 58.7456245,79.284302 C58.7416388,85.0719551 61.1810327,90.5924653 65.4699102,94.4792 C69.7548082,98.3655265 75.4866449,100.262873 81.2464408,99.6928735 C82.0834918,99.585251 82.7889918,99.003302 83.0600122,98.2021592 C83.3270735,97.3969959 83.1158153,96.5121592 82.509951,95.9181796 L75.8374,89.2456286 C74.7333184,88.1455265 74.1154612,86.6507306 74.1154612,85.0922612 C74.1154612,83.5337918 74.7332878,82.0389959 75.8374,80.9388939 L80.9394408,75.8368531 C83.2313796,73.5449143 86.942298,73.5449143 89.2342367,75.8368531 L95.9187265,82.5094041 C96.5166245,83.1152714 97.4134204,83.3265265 98.2186245,83.0475061 C99.0237878,82.7684857 99.5978082,82.0510163 99.6934204,81.2019959 C99.71335,80.5403224 99.7452378,79.8666898 99.7452378,79.2050571 L99.7452378,79.2010204 Z M94.5113265,23.5489796 L28.5715306,89.4489796 C27.5909796,90.4135816 26.3832653,91.115102 25.059898,91.4897959 L7.85683673,96.4682653 C6.63714286,96.8190306 5.3177551,96.4802235 4.41693878,95.5833776 C3.52009184,94.682551 3.18132653,93.3631735 3.53205102,92.1434796 L8.47868367,74.8965408 C8.85336735,73.5731735 9.55490816,72.369398 10.5195,71.3888878 L76.4511327,5.48888776 C77.7904184,4.14164286 79.612051,3.38031633 81.5172551,3.38031633 C83.4185816,3.38031633 85.2401122,4.14163265 86.5833776,5.48888776 L94.5114388,13.416949 C95.8586837,14.7602143 96.6200102,16.5818469 96.6200102,18.4830714 C96.6200102,20.3883776 95.8586939,22.2099082 94.5114388,23.5491939 L94.5113265,23.5489796 Z M81.7960204,10.9571429 C80.8672857,10.3712041 79.6515306,10.5147041 78.8862245,11.3039184 L14.6005102,75.5896327 C14.2298163,75.9682959 14.0026122,76.4625612 13.9587653,76.9887143 L11.6509082,85.020449 L14.9791735,88.3487143 L23.4692755,85.9093265 C23.8519286,85.8056939 24.2066837,85.6063878 24.4896837,85.3273776 L25.7452959,84.0717653 C23.7881531,82.895949 21.9905,81.4689082 20.408051,79.8266633 C19.9536531,79.3722653 19.5231633,78.9138776 19.120602,78.4595204 C18.8495612,78.1725306 18.8495612,77.7221122 19.120602,77.4391122 L82.143051,14.4493163 C82.6253571,13.9670102 82.8645102,13.2973776 82.7967449,12.6237041 C82.7289837,11.9460918 82.3622755,11.3362551 81.7962653,10.9575816 L81.7960204,10.9571429 Z" id="Shape"></path>
        </g>
    </g>
</svg>