<?xml version="1.0" encoding="UTF-8"?>
<svg width="100px" height="100px" viewBox="0 0 100 100" version="1.1" xmlns="http://www.w3.org/2000/svg" xmlns:xlink="http://www.w3.org/1999/xlink">
    <!-- Generator: sketchtool 63.1 (101010) - https://sketch.com -->
    <title>code/file_code_JXA</title>
    <desc>Created with sketchtool.</desc>
    <g id="Icons" stroke="none" stroke-width="1" fill="none" fill-rule="evenodd">
        <g id="code/file_code_JXA">
            <g id="JXA">
                <rect id="Rectangle" fill="#D6B92C" x="0" y="0" width="100" height="100"></rect>
                <path d="M17.001037,92.6829268 C24.8359814,92.6829268 29.4151887,88.1445934 29.4151887,80.4399809 L29.4151887,53.6585366 L22.5860818,53.6585366 L22.5860818,80.3872096 C22.5860818,84.5033724 20.6273457,86.7197678 16.9480982,86.7197678 C13.5600141,86.7197678 11.7600945,84.5297581 11.5748086,81.6009499 L11.5483392,81.4162503 L4.87804878,81.4162503 L4.90451819,81.7064925 C5.16921225,88.2237504 9.58960315,92.6829268 17.001037,92.6829268 Z M39.2440252,91.7330431 L48.2700929,77.722258 L48.5083175,77.722258 L57.5343852,91.7330431 L65.4222683,91.7330431 L52.8493002,72.7353683 L52.8493002,72.6562113 L65.6340236,53.6585366 L57.9578957,53.6585366 L49.1171139,67.9859496 L48.8259504,67.9859496 L39.9586992,53.6585366 L31.8855302,53.6585366 L44.246743,72.4715117 L44.246743,72.5506687 L31.7796525,91.7330431 L39.2440252,91.7330431 Z M72.3394701,91.7330431 L75.5157989,81.8911921 L89.650462,81.8911921 L92.8532602,91.7330431 L100,91.7330431 L86.4476638,53.6585366 L78.7450665,53.6585366 L65.1927303,91.7330431 L72.3394701,91.7330431 Z M87.95642,76.6404459 L77.2363103,76.6404459 L82.3713752,60.7298933 L82.8213551,60.7298933 L87.95642,76.6404459 Z" fill="#000000" fill-rule="nonzero"></path>
            </g>
        </g>
    </g>
</svg>