<?xml version="1.0" encoding="UTF-8"?>
<svg width="100px" height="100px" viewBox="0 0 100 100" version="1.1" xmlns="http://www.w3.org/2000/svg" xmlns:xlink="http://www.w3.org/1999/xlink">
    <!-- Generator: sketchtool 63.1 (101010) - https://sketch.com -->
    <title>sysadmin/sysadmin_apple</title>
    <desc>Created with sketchtool.</desc>
    <g id="Icons" stroke="none" stroke-width="1" fill="none" fill-rule="evenodd">
        <g id="sysadmin/sysadmin_apple" fill="#878787" fill-rule="nonzero">
            <g id="apple-logo" transform="translate(7.272727, 0.000000)">
                <path d="M83.811884,77.9303607 C82.2749146,81.4240823 80.4556447,84.6400345 78.3478009,87.5967352 C75.4746091,91.6274776 73.1221048,94.4175167 71.3091082,95.9668526 C68.4986498,98.5099857 65.4874444,99.8124154 62.2629453,99.8864873 C59.9480811,99.8864873 57.1564428,99.2383587 53.9068503,97.9235836 C50.6465931,96.6149812 47.6504437,95.9668526 44.9108741,95.9668526 C42.0376823,95.9668526 38.9562154,96.6149812 35.6602001,97.9235836 C32.3591662,99.2383587 29.6998954,99.9235232 27.6667044,99.9914224 C24.5745729,100.121048 21.4924786,98.7815824 18.4160304,95.9668526 C16.4524736,94.2817184 13.9964592,91.3929168 11.0542605,87.3004479 C7.89751353,82.9302096 5.30223087,77.8624615 3.26903988,72.0848584 C1.09156196,65.8443063 0,59.801279 0,53.9508386 C0,47.2491893 1.47172665,41.469117 4.41957128,36.6254363 C6.73631745,32.7348131 9.81841166,29.6657701 13.6758913,27.4127517 C17.5333709,25.1597334 21.701381,24.01162 26.1899591,23.9381654 C28.6459735,23.9381654 31.8667086,24.6856737 35.8691025,26.1547651 C39.8602043,27.6287946 42.4228656,28.3763029 43.5464216,28.3763029 C44.3864225,28.3763029 47.2332663,27.5022552 52.0593503,25.7597153 C56.6232085,24.1437147 60.4750421,23.4745992 63.6305344,23.7381714 C72.1811031,24.4171633 78.605008,27.7337297 82.8771557,33.7088577 C75.2299486,38.2679792 71.4471218,44.6535887 71.5224019,52.8453164 C71.5914087,59.2259878 73.943913,64.5357038 78.5673679,68.7516258 C80.6626651,70.7083568 83.0026226,72.2206567 85.6060606,73.2946984 C85.0414596,74.9057608 84.4454919,76.448924 83.811884,77.9303607 L83.811884,77.9303607 Z M64.2014088,2.00055682 C64.2014088,7.00170196 62.3444988,11.6712522 58.6432255,15.9933438 C54.1766041,21.1314601 48.7739997,24.1005062 42.9153232,23.6320018 C42.8406704,23.0320199 42.7973843,22.4005575 42.7973843,21.7369974 C42.7973843,16.9359079 44.9215388,11.7977916 48.6937009,7.59668398 C50.5769589,5.46958778 52.9721219,3.70093753 55.8766805,2.29005424 C58.7749657,0.900219706 61.5164173,0.131600961 64.0947619,0 C64.1700421,0.668560041 64.2014088,1.33718181 64.2014088,2.00049509 L64.2014088,2.00055682 Z" id="Shape"></path>
            </g>
        </g>
    </g>
</svg>