<?xml version="1.0" encoding="UTF-8"?>
<svg width="100px" height="100px" viewBox="0 0 100 100" version="1.1" xmlns="http://www.w3.org/2000/svg" xmlns:xlink="http://www.w3.org/1999/xlink">
    <!-- Generator: sketchtool 63.1 (101010) - https://sketch.com -->
    <title>sysadmin/sysadmin_Linux</title>
    <desc>Created with sketchtool.</desc>
    <g id="Icons" stroke="none" stroke-width="1" fill="none" fill-rule="evenodd">
        <g id="sysadmin/sysadmin_Linux">
            <g id="np_penguin_57271_F1F35B" transform="translate(0.000000, 2.272727)">
                <g id="Group">
                    <ellipse id="Oval" fill="#FFFFFF" cx="50.3676471" cy="62.0046083" rx="31.9852941" ry="27.516838"></ellipse>
                    <ellipse id="Oval-Copy-2" fill="#FFFFFF" cx="50.3676471" cy="62.0046083" rx="31.9852941" ry="27.516838"></ellipse>
                    <ellipse id="Oval-Copy" fill="#FFFFFF" cx="49.6323529" cy="40.7249202" rx="27.5735294" ry="27.516838"></ellipse>
                    <path d="M44.4685212,38.2488479 C43.7612006,38.3547979 41.5691905,39.7757778 39.8931807,41.1968312 C38.2236961,42.6178047 39.9696501,45.7776368 39.9696501,45.7776368 C39.9696501,45.7776368 44.9144827,52.1098097 46.5012598,53.854795 C48.0880369,55.5997803 49.789332,55.2757685 49.789332,55.2757685 C49.789332,55.2757685 51.1912489,55.5998441 52.7778954,53.854795 C54.364542,52.1097459 59.1630133,45.7776368 59.1630133,45.7776368 C59.1630133,45.7776368 60.8388601,42.6115504 59.1630133,41.1968312 C57.4871666,39.7758576 55.5499837,38.3549479 54.8426469,38.2488479 L44.4685212,38.2488479 Z" id="Path" fill="#E3792C" fill-rule="nonzero"></path>
                    <path d="M79.7777008,38.0317333 C79.3761915,34.1504063 76.5231085,20.8792897 76.2066461,19.3828802 C75.8948877,17.9004772 73.5046838,0.453899293 50.5292981,0.0420874135 L50.5292981,0.0187063152 C50.5292981,0.0187063152 51.6346309,0.0140291378 52.9336624,0.0093531576 C52.928939,0.0093531576 52.9997942,0.0093531576 52.9950696,0.00467717736 C52.5652153,0.0093531576 52.1731502,0.0093531576 51.7008026,0.0093531576 C51.1528644,0.0140291378 50.571853,0.0140291378 49.9624967,0.0187063152 C49.3436961,0.0140291378 48.7532404,0.0140291378 48.2053264,0.0093531576 C47.6101425,0.00467717736 47.0574761,0.00467717736 46.5378829,0 C46.5237116,0 46.6276327,0 46.6134614,0.00467717736 C48.0730337,0.0140291378 49.3201397,0.0187063152 49.3201397,0.0187063152 L49.3201397,0.0420874135 C27.5535266,0.476979912 24.0442648,17.9008363 23.7322767,19.3828802 C23.4157901,20.8792897 20.6618541,34.1554342 20.260381,38.0317333 C19.8541434,41.9083914 3.49646106,56.2137066 1.78657267,58.3086798 C0.0765633567,60.403653 -0.948402272,61.8299108 1.26696734,63.5274377 C3.48233695,65.2249646 8.41391385,62.0965111 10.9315854,60.3989842 C13.449257,58.7014574 15.3624214,59.1270362 15.3624214,59.1270362 L15.3671448,58.8651646 C15.3057375,63.7331641 18.2911265,72.6417085 19.6184062,75.0359636 L19.6136828,75.0359636 L21.0166619,78.6413527 C16.3072133,80.1050805 13.1895088,82.7378034 13.1895088,85.5856502 C13.1895088,85.6698226 13.2131268,85.8194612 13.2178501,85.9036312 C13.1044823,86.4320553 13.0383481,87.0119079 13.0383481,87.5776944 C13.0383481,91.8751429 16.5575258,95.3917051 20.898514,95.3917051 L40.2466146,95.3917051 C43.0288714,95.3917051 45.4662484,93.9607785 46.8645115,91.8003224 L53.1280963,91.8003224 C54.5262384,93.9561097 56.949588,95.3917051 59.7270078,95.3917051 L79.0751084,95.3917051 C83.4160966,95.3917051 86.9352743,91.9078245 86.9352743,87.610376 C86.9352743,87.0445416 86.8691425,86.4974184 86.7557723,85.9689944 C86.7604968,85.8848219 86.7841148,85.8006543 86.7841148,85.7164723 C86.7841148,82.8686255 83.6712473,80.3667487 78.9569616,78.9031405 L80.3599408,75.5548944 C81.6873414,72.3376141 84.6773485,63.9998601 84.6159183,59.126713 C84.6206417,59.131389 86.5384012,58.705846 89.0561937,60.403337 C91.5738653,62.0961951 96.5101704,65.2291976 98.730244,63.5317904 C100.940885,61.8295948 99.9347721,60.403337 98.220083,58.3083638 C96.5088499,56.2137066 80.1791739,41.9092294 79.7777008,38.0317333 Z M76.4328979,76.0692642 C76.3195302,76.709919 76.1636449,77.4253703 75.9652543,78.1642375 C73.9152022,77.7667552 71.6855754,77.5329442 69.3284931,77.5329442 C60.6322474,77.5329442 53.4424932,80.5117567 52.111102,84.4117589 C51.5867806,85.2067234 51.2655659,86.1046169 51.2655659,87.0819519 C51.2655659,87.9143266 51.5017457,88.6953207 51.8938108,89.4013865 L47.8928654,89.4013865 C48.2802023,88.6952728 48.5163942,87.9143147 48.5163942,87.0819519 C48.5163942,86.3571271 48.3416204,85.6650317 48.0393064,85.0291175 C47.2976937,80.8298335 39.805964,77.5283951 30.6562472,77.5283951 C28.2991649,77.5283951 26.0695381,77.7622061 24.019486,78.1596884 C23.8210954,77.4208332 23.6652101,76.7054178 23.5518424,76.0647152 C22.7488236,70.6028207 20.798003,49.8823384 35.4176697,39.4170493 C35.5877153,39.295469 35.7436005,39.1832383 35.9042019,39.0663268 L35.5593703,38.7156044 L36.5749521,37.6914977 C33.3486564,36.3167164 31.090733,33.1414552 31.090733,29.4425705 C31.090733,24.4857442 35.1483925,20.4641138 40.1601552,20.4641138 C43.8304899,20.4641138 46.9858023,22.6292387 48.4123619,25.7295597 L49.9522289,24.1723362 L51.5252295,25.7295597 C52.9517891,22.6244502 56.1733688,20.4641138 59.8435825,20.4641138 C64.8553452,20.4641138 68.9130047,24.4857442 68.9130047,29.4425705 C68.9130047,33.1414552 66.6550814,36.3167164 63.4287856,37.6914977 L64.4443674,38.7156044 L64.0995359,39.0663268 C64.2601372,39.1832335 64.4160224,39.295469 64.586068,39.4170493 C79.1817914,49.8872466 77.236098,70.6082078 76.4330309,76.0695037 L76.4328979,76.0692642 Z" id="Shape" fill="#000000" fill-rule="nonzero"></path>
                    <path d="M59.9078341,29.4954603 C59.9078341,36.2511292 52.9953917,36.2511292 52.9953917,29.4954603 C52.9953917,22.7334641 59.9078341,22.7334641 59.9078341,29.4954603" id="Path" fill="#004EFF" fill-rule="nonzero"></path>
                    <path d="M47.4654378,29.4954603 C47.4654378,36.2511292 41.4746544,36.2511292 41.4746544,29.4954603 C41.4746544,22.7334641 47.4654378,22.7334641 47.4654378,29.4954603" id="Path" fill="#004EFF" fill-rule="nonzero"></path>
                </g>
            </g>
        </g>
    </g>
</svg>