<?xml version="1.0" encoding="UTF-8"?>
<svg width="100px" height="100px" viewBox="0 0 100 100" version="1.1" xmlns="http://www.w3.org/2000/svg" xmlns:xlink="http://www.w3.org/1999/xlink">
    <!-- Generator: sketchtool 63.1 (101010) - https://sketch.com -->
    <title>sysadmin/sysadmin_AWS</title>
    <desc>Created with sketchtool.</desc>
    <g id="Icons" stroke="none" stroke-width="1" fill="none" fill-rule="evenodd">
        <g id="sysadmin/sysadmin_AWS" fill-rule="nonzero">
            <g id="AWS" transform="translate(5.454545, 0.000000)">
                <path d="M38.4767523,1.98473282 L6.11034004,20.7633588 C2.36988203,22.9770992 0.00346981263,26.9465649 0.00346981263,31.2977099 L0.00346981263,68.7022901 C0.00346981263,73.0534351 2.29354615,77.0992366 6.11034004,79.2366412 L38.4767523,98.0152672 C42.2172103,100.229008 46.8736988,100.229008 50.6904927,98.0152672 L83.1332408,79.3129771 C86.8736988,77.0992366 89.240111,73.129771 89.240111,68.778626 L89.240111,31.2977099 C89.240111,26.9465649 86.9500347,22.9007634 83.1332408,20.7633588 L50.6904927,1.98473282 C46.8736988,-0.152671756 42.2935461,-0.152671756 38.4767523,1.98473282 Z" id="Path" fill="#F47C20"></path>
                <polygon id="Path" fill="#FFFFFF" points="68.629424 70.3816794 66.3393477 62.9007634 59.6217904 64.9618321 43.5912561 25.1908397 43.5912561 25.1908397 43.5912561 25.1908397 31.3011797 25.1908397 31.3011797 32.9770992 37.7897294 32.9770992 40.6141568 41.221374 40.6141568 41.221374 20.537821 72.2137405 30.3851492 72.2137405 44.5836225 51.221374 53.9729355 74.8091603 53.9729355 74.8091603 54.0492713 74.8091603"></polygon>
            </g>
        </g>
    </g>
</svg>