<?xml version="1.0" encoding="UTF-8"?>
<svg width="100px" height="100px" viewBox="0 0 100 100" version="1.1" xmlns="http://www.w3.org/2000/svg" xmlns:xlink="http://www.w3.org/1999/xlink">
    <!-- Generator: sketchtool 63.1 (101010) - https://sketch.com -->
    <title>bullet/bullet_star_yellow</title>
    <desc>Created with sketchtool.</desc>
    <g id="Icons" stroke="none" stroke-width="1" fill="none" fill-rule="evenodd">
        <g id="bullet/bullet_star_yellow" fill-rule="nonzero">
            <g id="bullet_star_4_hot_2" transform="translate(0.000000, 1.000000)">
                <polygon id="path2985" fill="#FFCC00" transform="translate(49.852824, 47.911037) rotate(1.006711) translate(-49.852824, -47.911037) " points="81.1619969 93.7590459 50.578263 78.3521185 20.5474895 94.8124633 25.7493383 60.9645878 0.814736647 37.4900249 34.6134601 31.9776246 49.233955 1.00961128 64.9212723 31.4514745 98.8909108 35.7864602 74.7874254 60.1122469"></polygon>
                <path d="M65.3106048,31.5232317 C49.9621203,52.4166657 49.7954536,52.6439384 49.7954536,52.6439384 L98.9929274,36.5333327 L65.3106048,31.5232317 Z" id="path3836" fill="#FFE680"></path>
                <polygon id="path3838" fill="#FFDD55" points="50.0479789 52.1949485 50.0479789 78.4282814 19.4267673 94.1439376"></polygon>
                <polygon id="path3840" fill="#FFDD55" points="50.0479789 52.1949485 80.1555541 93.3444427 74.5045441 60.0191908"></polygon>
                <polygon id="path3842" fill="#FFE680" points="1.20454543 36.5686862 50.0505041 52.1959586 34.9585852 31.5686863"></polygon>
                <polygon id="path3844" fill="#FFDD55" points="50.0479789 52.1949485 50.0479789 1.07373735 65.1136351 31.5570701"></polygon>
                <polygon id="path3846" fill="#FFD42A" points="19.7398986 93.7202003 25.4272723 60.1136352 50.0520193 52.1949485"></polygon>
            </g>
        </g>
    </g>
</svg>