<?xml version="1.0" encoding="UTF-8"?>
<svg width="100px" height="100px" viewBox="0 0 100 100" version="1.1" xmlns="http://www.w3.org/2000/svg" xmlns:xlink="http://www.w3.org/1999/xlink">
    <!-- Generator: sketchtool 63.1 (101010) - https://sketch.com -->
    <title>hebrew/hebrew_Phrase</title>
    <desc>Created with sketchtool.</desc>
    <g id="Icons" stroke="none" stroke-width="1" fill="none" fill-rule="evenodd">
        <g id="hebrew/hebrew_Phrase" fill-rule="nonzero">
            <path d="M88.7692136,74.8283326 C95.6987241,66.9372942 100,55.9174952 100,43.8089168 C100,19.59176 82.7955082,0 61.529227,0 L38.5899046,0 C27.956611,0 18.398713,4.89793999 11.3502238,12.7891526 C9.67748842,14.6939941 8.12434336,16.7346718 6.81007312,18.9115341 C2.50895016,25.9863363 0,34.5577748 0,43.6737772 C0,58.5036075 6.4517609,71.7013136 16.3679712,79.5920038 C14.2174862,85.8505697 10.9916057,91.564746 7.16838533,96.462686 C6.09311224,97.8232249 6.92943406,100 8.48262499,100 C20.4301888,100 31.4219474,95.3742549 40.1434778,87.4830422 L61.409759,87.4830422 C72.2820803,87.6190961 81.8395196,82.7211126 88.7702535,74.8300741 L88.7692136,74.8283326 Z" id="Path" fill="#008FFF"></path>
            <path d="M25.3860708,71.8181818 C27.6655555,71.0221045 29.5392228,70.4250465 31.0070727,70.0270079 C32.4749227,69.6289692 33.76145,69.4299499 34.8666547,69.4299499 C35.902784,69.4299499 36.7921284,69.5943572 37.5346878,69.9231717 C38.2772472,70.2519863 39.0457098,70.710596 39.8400757,71.299001 L39.8400757,71.299001 L46.6267231,63.6670425 C46.6957984,63.4939822 46.6957984,63.3209219 46.6267231,63.1478617 C44.2781632,61.0711383 42.2922486,59.2540053 40.6689792,57.6964628 C39.0457098,56.1389202 37.7246449,54.7198259 36.7057843,53.4391798 C35.6869237,52.1585337 34.9443644,50.9817238 34.4781061,49.90875 C34.0118479,48.8357763 33.7787188,47.7801086 33.7787188,46.7417469 C33.7787188,45.4611008 34.0291167,44.1025775 34.5299126,42.6661772 C35.0307085,41.2297769 36.0409346,39.507827 37.560591,37.5003278 C38.8730216,38.6425256 40.4531189,40.0443139 42.300883,41.7056926 C44.148647,43.3670713 46.1086584,45.1495923 48.1809172,47.0532554 C50.253176,48.9569185 52.351338,50.9124997 54.4754032,52.919999 C56.5994684,54.9274982 58.5767487,56.8311613 60.4072439,58.6309883 C61.3052227,59.5309017 62.2032015,60.4481212 63.1011803,61.3826468 C63.9991591,62.3171723 64.8539658,63.3036159 65.6656005,64.3419776 C66.4772352,65.3803393 67.2370634,66.4879251 67.9450851,67.664735 C68.6531069,68.841545 69.2661501,70.122191 69.7842148,71.5066733 C70.4404301,71.6797336 71.2002583,71.7316517 72.0636994,71.6624276 C72.7199147,69.9664368 73.3588612,68.3569762 73.9805388,66.8340457 C74.6022164,65.3111152 75.2584317,63.7535726 75.9491846,62.161418 C76.2254858,61.503789 76.3636364,60.8634659 76.3636364,60.2404489 C76.3636364,59.4443716 76.0009911,58.5444581 75.2757005,57.5407085 C74.5504099,56.5369589 73.5142806,55.412067 72.1673124,54.166033 C71.718323,53.7506883 71.2261615,53.2834255 70.690828,52.7642447 C70.1554945,52.2450638 69.5079136,51.6220468 68.7480854,50.8951936 C67.9882572,50.1683405 67.081644,49.3116921 66.0282458,48.3252484 C64.9748476,47.3388048 63.7055891,46.1706479 62.2204703,44.8207777 C65.0525573,42.0864253 67.3234075,39.7154994 69.033021,37.7080001 C70.7426345,35.7005008 72.0636994,33.978551 72.9962159,32.5421507 C73.9287323,31.1057503 74.5417755,29.9029814 74.8353455,28.9338438 C75.1289155,27.9647062 75.2757005,27.1513229 75.2757005,26.4936938 C75.2757005,25.6283924 74.8785176,24.6679078 74.0841517,23.6122401 C73.2897859,22.5565724 71.8910112,21.128825 69.8878277,19.3289981 C68.9898489,18.5329208 68.2645584,17.8752917 67.711956,17.3561109 C67.1593537,16.83693 66.7276331,16.3956263 66.4167943,16.0321997 C66.1059555,15.6687731 65.8987296,15.3313056 65.7951167,15.019797 C65.6915037,14.7082885 65.6396973,14.362168 65.6396973,13.9814354 C65.6396973,13.773763 65.6483317,13.5487846 65.6656005,13.3065002 C65.6828693,13.0642159 65.7087726,12.7700134 65.7433102,12.4238928 C65.3979337,12.2508325 65.0007508,12.0950783 64.5517614,11.95663 C64.102772,11.8181818 63.7401267,11.7835698 63.4638256,11.8527939 C60.9771151,14.1371896 59.2243295,16.0321997 58.205469,17.5378242 C57.1866084,19.0434486 56.6771781,20.2116055 56.6771781,21.0422949 C56.6771781,21.5268637 56.737619,21.9768204 56.8585008,22.3921651 C56.9793825,22.8075098 57.221146,23.2661195 57.5837913,23.7679943 C57.9464366,24.2698692 58.4558669,24.8323151 59.1120822,25.4553321 C59.7682974,26.0783491 60.6144698,26.8398144 61.6505992,27.7397278 C62.9284921,28.8473136 63.8351053,29.7558801 64.3704388,30.4654273 C64.9057723,31.1749744 65.173439,31.9277867 65.173439,32.723864 C65.173439,33.2430448 65.0611917,33.7795317 64.836697,34.3333246 C64.6122023,34.8871175 64.249557,35.5101345 63.7487611,36.2023756 C63.2479653,36.8946168 62.6090188,37.6993471 61.8319218,38.6165666 C61.0548248,39.5337861 60.1136739,40.5808008 59.0084692,41.7576107 C57.4542752,40.3385164 55.8310058,38.858851 54.1386611,37.3186145 C52.4463165,35.778378 50.7539718,34.2035294 49.0616272,32.5940688 C47.3692825,30.9846081 45.7028411,29.3578415 44.0623029,27.7137688 C42.4217647,26.0696961 40.8762051,24.4688885 39.4256239,22.9113459 C38.6312581,22.0114325 37.9923116,21.1807431 37.5087846,20.4192779 C37.0252575,19.6578126 36.6453434,18.9309594 36.3690423,18.2387183 C36.0927411,17.5464772 35.902784,16.8628891 35.7991711,16.187954 C35.6955582,15.5130189 35.6437517,14.8121247 35.6437517,14.0852715 L35.6437517,14.0852715 L35.6437517,13.2545822 C35.6437517,12.9430737 35.6610205,12.6488712 35.6955582,12.3719747 C35.3156441,12.1989144 34.8839235,12.0864253 34.4003964,12.0345072 C33.9168694,11.9825891 33.4851488,12.0085481 33.1052347,12.1123843 C32.2072559,13.6699268 31.3179115,15.2015103 30.4372015,16.7071348 C29.5564916,18.2127593 28.7189537,19.7962608 27.9245878,21.4576396 C27.4755984,22.3921651 27.2511037,23.3613027 27.2511037,24.3650523 C27.2511037,25.1957417 27.4324263,25.983166 27.7950716,26.7273252 C28.1577169,27.4714844 28.6585128,28.2416026 29.2974592,29.0376799 C29.9364057,29.8337572 30.6789651,30.6644466 31.5251374,31.529748 C32.3713097,32.3950494 33.2779229,33.346881 34.244977,34.3852427 C32.690783,36.427354 31.3610836,38.270446 30.2558789,39.9145187 C29.1506742,41.5585914 28.244061,43.0815219 27.5360393,44.4833102 C26.8280175,45.8850985 26.3099528,47.1830506 25.9818452,48.3771665 C25.6537376,49.5712825 25.4896838,50.7221334 25.4896838,51.8297192 C25.4896838,52.7296326 25.6019311,53.6295461 25.8264258,54.5294596 C26.0509205,55.429373 26.4222002,56.3552456 26.9402649,57.3070771 C27.4583296,58.2589087 28.1318137,59.2886174 28.9607172,60.3962032 C29.7896207,61.503789 30.8084812,62.7152109 32.0172989,64.0304691 C30.4631048,64.9996067 29.0211581,65.9514382 27.6914587,66.8859638 C26.3617593,67.8204893 25.1615761,68.7030967 24.0909091,69.5337861 C24.194522,69.9837428 24.3758447,70.4163935 24.634877,70.8317382 C24.8939094,71.2470829 25.1443073,71.5758974 25.3860708,71.8181818 Z" id="×" fill="#FFFFFF"></path>
        </g>
    </g>
</svg>