<?xml version="1.0" encoding="UTF-8"?>
<svg width="100px" height="100px" viewBox="0 0 100 100" version="1.1" xmlns="http://www.w3.org/2000/svg" xmlns:xlink="http://www.w3.org/1999/xlink">
    <!-- Generator: sketchtool 63.1 (101010) - https://sketch.com -->
    <title>hebrew/hebrew</title>
    <desc>Created with sketchtool.</desc>
    <g id="Icons" stroke="none" stroke-width="1" fill="none" fill-rule="evenodd">
        <g id="hebrew/hebrew" fill="#F1F35B" fill-rule="nonzero">
            <g id="Language/Hebrew" transform="translate(2.300000, 2.300000)">
                <path d="M11.9875689,90.916 C15.2692101,89.7730851 17.9666198,88.9158989 20.0797978,88.3444414 C22.1929759,87.772984 24.0451143,87.4872553 25.6362131,87.4872553 C27.1278682,87.4872553 28.4082055,87.723292 29.477225,88.1953656 C30.5462445,88.6674391 31.6525553,89.3258575 32.7961576,90.1706207 L32.7961576,90.1706207 L42.5664985,79.2135451 C42.6659422,78.9650854 42.6659422,78.7166256 42.5664985,78.4681658 C39.1854136,75.4866487 36.326408,72.8778212 33.9894817,70.6416833 C31.6525553,68.4055454 29.7506951,66.3681754 28.2839009,64.5295731 C26.8171067,62.6909709 25.7480872,61.0014445 25.0768424,59.4609939 C24.4055976,57.9205434 24.0699752,56.4049389 24.0699752,54.9141803 C24.0699752,53.075578 24.4304585,51.1251689 25.1514252,49.0629528 C25.8723918,47.0007368 27.3267555,44.5285622 29.5145164,41.6464289 C31.4039462,43.2862633 33.6787202,45.2987874 36.3388385,47.6840012 C38.9989567,50.0692149 41.820671,52.6283504 44.8039812,55.3614078 C47.7872914,58.0944652 50.807893,60.9020606 53.8657859,63.7841938 C56.9236789,66.6663271 59.770254,69.3993845 62.4055114,71.983366 C63.6982792,73.2753568 64.9910469,74.5921935 66.2838147,75.9338763 C67.5765824,77.275559 68.8071979,78.6917796 69.9756611,80.1825382 C71.1441242,81.6732968 72.2380046,83.2634393 73.2573023,84.9529657 C74.2765999,86.6424921 75.1591625,88.4810943 75.9049901,90.4687724 C76.849705,90.7172322 77.9435854,90.7917701 79.1866313,90.6923862 C80.1313462,88.2574805 81.0512002,85.9468047 81.9461933,83.7603588 C82.8411863,81.5739129 83.7859012,79.337775 84.780338,77.0519452 C85.1781127,76.1077981 85.377,75.188497 85.377,74.2940418 C85.377,73.1511269 84.8549207,71.8591361 83.8107621,70.4180695 C82.7666036,68.9770029 81.2749485,67.3620144 79.3357968,65.5731041 C78.689413,64.9768007 77.9808768,64.3059593 77.2101883,63.56058 C76.4394998,62.8152007 75.5072154,61.9207456 74.413335,60.8772146 C73.3194546,59.8336836 72.0142564,58.6038078 70.4977403,57.1875871 C68.9812243,55.7713665 67.1539468,54.0942631 65.0159078,52.1562769 C69.0930984,48.2306126 72.3623092,44.8267139 74.8235401,41.9445806 C77.2847711,39.0624474 79.1866313,36.5902727 80.5291209,34.5280567 C81.8716105,32.4658406 82.7541731,30.7390453 83.1768087,29.3476706 C83.5994443,27.9562959 83.8107621,26.788535 83.8107621,25.8443879 C83.8107621,24.6020891 83.238961,23.2231374 82.0953588,21.7075329 C80.9517565,20.1919283 78.9380221,18.1421353 76.0541556,15.5581537 C74.7613878,14.4152388 73.7172293,13.4710917 72.9216799,12.7257124 C72.1261305,11.9803331 71.5046075,11.3467607 71.057111,10.8249952 C70.6096145,10.3032297 70.3112834,9.8187332 70.1621179,9.37150562 C70.0129524,8.92427805 69.9383697,8.42735852 69.9383697,7.88074704 C69.9383697,7.58259533 69.9508001,7.25959763 69.9756611,6.91175397 C70.000522,6.5639103 70.0378133,6.1415287 70.0875352,5.64460917 C69.5903168,5.39614941 69.0185157,5.17253562 68.3721318,4.97376781 C67.7257479,4.775 67.2036686,4.72530805 66.805894,4.82469195 C63.2259217,8.10436083 60.7025385,10.8249952 59.2357443,12.9865952 C57.7689501,15.1481951 57.035553,16.8252985 57.035553,18.0179054 C57.035553,18.7135927 57.1225662,19.3595881 57.2965927,19.9558915 C57.4706191,20.552195 57.818672,21.2106134 58.3407512,21.9311467 C58.8628305,22.65168 59.5962276,23.4591742 60.5409425,24.3536294 C61.4856574,25.2480845 62.7038424,26.3413075 64.1954975,27.6332982 C66.0352055,29.2234407 67.3404037,30.5278545 68.1110922,31.5465395 C68.8817806,32.5652245 69.2671249,33.6460245 69.2671249,34.7889394 C69.2671249,35.5343187 69.1055289,36.304544 68.782337,37.0996152 C68.459145,37.8946865 67.9370657,38.7891416 67.2160991,39.7829807 C66.4951325,40.7768197 65.5752785,41.9321576 64.4565372,43.2489944 C63.3377958,44.5658311 61.9828758,46.0690127 60.391777,47.7585391 C58.1542944,45.721169 55.817368,43.596838 53.380998,41.3855461 C50.944628,39.1742543 48.508258,36.9132704 46.071888,34.6025946 C43.635518,32.2919188 41.2364394,29.956397 38.8746521,27.5960293 C36.5128649,25.2356615 34.2878127,22.9374087 32.1994955,20.7012708 C31.0558933,19.4092801 30.1360393,18.2166732 29.4399336,17.1234502 C28.7438279,16.0302273 28.1968877,14.9866963 27.799113,13.9928572 C27.4013383,12.9990182 27.1278682,12.0176021 26.9787027,11.048609 C26.8295372,10.079616 26.7549544,9.07335391 26.7549544,8.0298229 L26.7549544,8.0298229 L26.7549544,6.83721604 C26.7549544,6.38998846 26.7798153,5.96760686 26.8295372,5.57007124 C26.282597,5.32161148 25.661074,5.16011263 24.9649683,5.0855747 C24.2688626,5.01103678 23.6473396,5.04830574 23.1003994,5.1973816 C21.8076316,7.43351947 20.5272944,9.63238838 19.2593875,11.7939883 C17.9914807,13.9555883 16.7857261,16.2289951 15.6421239,18.6142088 C14.99574,19.9558915 14.6725481,21.3472662 14.6725481,22.7883329 C14.6725481,23.9809397 14.9335877,25.1114316 15.455667,26.1798086 C15.9777463,27.2481856 16.6987129,28.3538316 17.6185669,29.4967465 C18.5384209,30.6396614 19.6074404,31.8322682 20.8256254,33.0745671 C22.0438104,34.3168659 23.3490086,35.6833946 24.74122,37.1741532 C22.5037374,40.1059784 20.5894466,42.7520748 18.9983479,45.1124426 C17.4072491,47.4728104 16.1020509,49.6592563 15.0827532,51.6717804 C14.0634556,53.6843044 13.317628,55.5477527 12.8452706,57.262125 C12.3729131,58.9764974 12.1367344,60.6287548 12.1367344,62.2188973 C12.1367344,63.5108881 12.2983304,64.8028789 12.6215223,66.0948696 C12.9447142,67.3868604 13.479224,68.7161201 14.2250515,70.0826488 C14.9708791,71.4491775 15.9404549,72.9275131 17.133779,74.5176556 C18.3271031,76.1077981 19.7938973,77.8470164 21.5341615,79.7353106 C19.2966789,81.1266853 17.2207922,82.493214 15.3065015,83.8348967 C13.3922108,85.1765795 11.6643769,86.4437243 10.123,87.6363311 C10.2721655,88.2823265 10.5332052,88.9034759 10.9061189,89.4997793 C11.2790327,90.0960828 11.639516,90.5681563 11.9875689,90.916 Z" id="×"></path>
            </g>
        </g>
    </g>
</svg>