<?xml version="1.0" encoding="UTF-8"?>
<svg width="100px" height="100px" viewBox="0 0 100 100" version="1.1" xmlns="http://www.w3.org/2000/svg" xmlns:xlink="http://www.w3.org/1999/xlink">
    <!-- Generator: sketchtool 63.1 (101010) - https://sketch.com -->
    <title>hebrew/hebrew_Resource</title>
    <desc>Created with sketchtool.</desc>
    <defs>
        <linearGradient x1="0.00116880948%" y1="50%" x2="99.9988312%" y2="50%" id="linearGradient-1">
            <stop stop-color="#81D4FA" offset="0.07573342%"></stop>
            <stop stop-color="#29B6F6" offset="100%"></stop>
        </linearGradient>
        <linearGradient x1="49.9979123%" y1="100.005461%" x2="49.9979123%" y2="0.00329957902%" id="linearGradient-2">
            <stop stop-color="#81D4FA" offset="0%"></stop>
            <stop stop-color="#7DD3FA" offset="22.08%"></stop>
            <stop stop-color="#72CFF9" offset="43.15%"></stop>
            <stop stop-color="#5EC8F8" offset="63.8%"></stop>
            <stop stop-color="#44BFF7" offset="84.08%"></stop>
            <stop stop-color="#29B6F6" offset="100%"></stop>
        </linearGradient>
        <linearGradient x1="50.0028235%" y1="100.002161%" x2="50.0028235%" y2="0%" id="linearGradient-3">
            <stop stop-color="#039BE5" offset="0%"></stop>
            <stop stop-color="#0398E2" offset="36.89%"></stop>
            <stop stop-color="#0390D9" offset="63.77%"></stop>
            <stop stop-color="#0282C9" offset="87.4%"></stop>
            <stop stop-color="#0277BD" offset="100%"></stop>
        </linearGradient>
        <linearGradient x1="49.9979889%" y1="100.002161%" x2="49.9979889%" y2="-0.0026154196%" id="linearGradient-4">
            <stop stop-color="#29B6F6" offset="0%"></stop>
            <stop stop-color="#25B3F4" offset="33.05%"></stop>
            <stop stop-color="#1AABEF" offset="64.57%"></stop>
            <stop stop-color="#079EE7" offset="95.39%"></stop>
            <stop stop-color="#039BE5" offset="100%"></stop>
        </linearGradient>
        <linearGradient x1="71.0697739%" y1="17.1890976%" x2="49.7592388%" y2="86.5643944%" id="linearGradient-5">
            <stop stop-color="#B3E5FC" offset="0.5261479%"></stop>
            <stop stop-color="#4FC3F7" offset="100%"></stop>
        </linearGradient>
        <linearGradient x1="49.9944843%" y1="9.26384977%" x2="49.9944843%" y2="103.058529%" id="linearGradient-6">
            <stop stop-color="#81D4FA" offset="0.906808%"></stop>
            <stop stop-color="#29B6F6" offset="100%"></stop>
        </linearGradient>
        <linearGradient x1="49.9981175%" y1="8.44148936%" x2="49.9981175%" y2="99.1082603%" id="linearGradient-7">
            <stop stop-color="#E1F5FE" offset="0%"></stop>
            <stop stop-color="#D3F0FD" offset="27.5%"></stop>
            <stop stop-color="#B3E5FC" offset="100%"></stop>
        </linearGradient>
        <linearGradient x1="49.9938004%" y1="1.51045242%" x2="49.9938004%" y2="104.024961%" id="linearGradient-8">
            <stop stop-color="#81D4FA" offset="0.906808%"></stop>
            <stop stop-color="#29B6F6" offset="100%"></stop>
        </linearGradient>
        <linearGradient x1="-0.012399256%" y1="49.9934477%" x2="100%" y2="49.9934477%" id="linearGradient-9">
            <stop stop-color="#4FC3F7" offset="1.15%"></stop>
            <stop stop-color="#29B6F6" offset="100%"></stop>
        </linearGradient>
        <path d="M48.0570322,97.2727273 C50.2374088,96.5068044 52.0296123,95.9323623 53.4336427,95.5494008 C54.8376731,95.1664394 56.0682644,94.9749587 57.1254167,94.9749587 C58.116497,94.9749587 58.9671742,95.1331384 59.6774484,95.4494979 C60.3877226,95.7658573 61.1227738,96.2070955 61.882602,96.7732124 L61.882602,96.7732124 L68.3741779,89.4303432 C68.4402499,89.2638383 68.4402499,89.0973333 68.3741779,88.9308283 C66.1277292,86.9327687 64.2281587,85.1844665 62.6754663,83.6859218 C61.1227738,82.1873771 59.8591465,80.8220363 58.8845842,79.5898996 C57.9100219,78.3577628 57.1997477,77.225529 56.7537616,76.1931982 C56.3077755,75.1608674 56.0847824,74.1451871 56.0847824,73.1461573 C56.0847824,71.9140205 56.3242935,70.6069565 56.8033156,69.2249653 C57.2823377,67.842974 58.248641,66.1862496 59.7022254,64.2547919 C60.9575938,65.3537247 62.4689912,66.702415 64.2364177,68.3008627 C66.0038442,69.8993104 67.8786377,71.6143116 69.8607983,73.4458662 C71.8429588,75.2774209 73.8498964,77.158927 75.881611,79.0903847 C77.9133255,81.0218423 79.8046371,82.853397 81.5555455,84.5850486 C82.4144818,85.4508745 83.273418,86.3333508 84.1323543,87.2324776 C84.9912905,88.1316045 85.8089317,89.0806828 86.585278,90.0797126 C87.3616242,91.0787424 88.0884164,92.1443742 88.7656546,93.276608 C89.4428928,94.4088418 90.0292819,95.6409786 90.5248221,96.9730183 C91.1525062,97.1395233 91.8792984,97.1894748 92.7051987,97.1228728 C93.3328828,95.4911241 93.944049,93.9426279 94.5386972,92.4773842 C95.1333453,91.0121404 95.7610295,89.5135957 96.4217497,87.98175 C96.6860378,87.3490311 96.8181818,86.7329627 96.8181818,86.1335449 C96.8181818,85.367622 96.4713037,84.5017962 95.7775475,83.5360673 C95.0837913,82.5703385 94.0927111,81.4880562 92.8043067,80.2892204 C92.3748386,79.8896085 91.9040754,79.4400451 91.3920173,78.9405302 C90.8799592,78.4410153 90.260534,77.8415974 89.5337418,77.1422765 C88.8069496,76.4429557 87.9397543,75.6187561 86.9321561,74.6696777 C85.9245578,73.7205994 84.7104844,72.5966909 83.289936,71.2979521 C85.9988888,68.6671736 88.1710064,66.3860555 89.8062889,64.4545979 C91.4415713,62.5231403 92.7051987,60.8664158 93.5971709,59.4844246 C94.4891432,58.1024333 95.0755323,56.9452238 95.3563384,56.012796 C95.6371445,55.0803681 95.7775475,54.2977948 95.7775475,53.6650759 C95.7775475,52.8325511 95.3976334,51.9084485 94.6378052,50.8927682 C93.877977,49.8770879 92.5400186,48.5034219 90.6239301,46.7717702 C89.7649938,46.0058473 89.0712376,45.3731285 88.5426615,44.8736136 C88.0140854,44.3740986 87.6011352,43.949511 87.3038112,43.5998505 C87.0064871,43.2501901 86.808271,42.9255054 86.709163,42.6257965 C86.610055,42.3260875 86.5605009,41.9930776 86.5605009,41.6267667 C86.5605009,41.4269607 86.5687599,41.2105042 86.585278,40.9773973 C86.601796,40.7442903 86.626573,40.4612319 86.659609,40.1282219 C86.3292489,39.961717 85.9493348,39.8118625 85.5198667,39.6786585 C85.0903985,39.5454545 84.7435204,39.5121536 84.4792324,39.5787555 C82.1006397,41.7766211 80.4240622,43.5998505 79.4495,45.0484438 C78.4749377,46.497037 77.9876565,47.6209455 77.9876565,48.4201694 C77.9876565,48.8863833 78.0454696,49.3192962 78.1610956,49.7189081 C78.2767216,50.1185201 78.5079737,50.5597582 78.8548518,51.0426226 C79.2017299,51.5254871 79.689011,52.0666282 80.3166952,52.6660461 C80.9443794,53.265464 81.7537616,53.9980858 82.7448419,54.8639117 C83.9671742,55.9295435 84.8343695,56.8036946 85.3464276,57.4863649 C85.8584857,58.1690353 86.1145148,58.8933319 86.1145148,59.6592548 C86.1145148,60.1587697 86.0071478,60.6749351 85.7924137,61.207751 C85.5776797,61.7405669 85.2308016,62.3399848 84.7517794,63.0060047 C84.2727573,63.6720245 83.6615911,64.4462726 82.9182809,65.328749 C82.1749707,66.2112253 81.2747395,67.2185804 80.2175872,68.3508142 C78.7309668,66.9854734 77.1782743,65.5618559 75.5595099,64.0799617 C73.9407454,62.5980675 72.321981,61.0828723 70.7032165,59.5343761 C69.0844521,57.9858799 67.4904646,56.4207331 65.9212542,54.8389359 C64.3520437,53.2571387 62.8736823,51.7169678 61.4861699,50.2184231 C60.7263417,49.3525972 60.1151755,48.5533734 59.6526714,47.8207515 C59.1901673,47.0881296 58.8267712,46.3888088 58.5624831,45.7227889 C58.298195,45.056769 58.116497,44.3990744 58.017389,43.749705 C57.9182809,43.1003356 57.8687269,42.4259905 57.8687269,41.7266696 L57.8687269,41.7266696 L57.8687269,40.9274458 C57.8687269,40.6277368 57.8852449,40.3446784 57.9182809,40.0782704 C57.5548848,39.9117655 57.1419347,39.8035372 56.6794306,39.7535858 C56.2169264,39.7036343 55.8039763,39.72861 55.4405802,39.828513 C54.581644,41.3270577 53.7309668,42.8006267 52.8885485,44.2492199 C52.0461303,45.6978131 51.2450071,47.2213336 50.4851788,48.8197813 C50.0557107,49.7189081 49.8409767,50.651336 49.8409767,51.6170648 C49.8409767,52.4162886 50.0144157,53.1738863 50.3612938,53.8898576 C50.7081719,54.605829 51.187194,55.3467761 51.7983602,56.112699 C52.4095264,56.8786218 53.1198006,57.6778457 53.9291828,58.5103705 C54.738565,59.3428954 55.6057603,60.2586727 56.5307685,61.2577025 C55.0441481,63.2224611 53.7722618,64.995739 52.7151095,66.5775363 C51.6579572,68.1593335 50.7907619,69.6245772 50.1135237,70.9732674 C49.4362856,72.3219577 48.9407454,73.5707449 48.6269033,74.7196292 C48.3130612,75.8685135 48.1561402,76.9757716 48.1561402,78.0414034 C48.1561402,78.9072292 48.2635072,79.773055 48.4782413,80.6388809 C48.6929753,81.5047067 49.0481124,82.3955083 49.5436526,83.3112856 C50.0391927,84.227063 50.6833949,85.2177675 51.4762591,86.2833993 C52.2691233,87.3490311 53.2436856,88.5145659 54.3999459,89.7800037 C52.9133255,90.7124315 51.5340721,91.6282088 50.2621858,92.5273357 C48.9902994,93.4264625 47.8422981,94.2756378 46.8181818,95.0748617 C46.9172898,95.5077746 47.0907289,95.924037 47.338499,96.3236489 C47.586269,96.7232609 47.8257801,97.0396203 48.0570322,97.2727273 Z" id="path-10"></path>
        <filter x="-15.2%" y="-13.0%" width="130.2%" height="127.0%" filterUnits="objectBoundingBox" id="filter-11">
            <feMorphology radius="1.5" operator="dilate" in="SourceAlpha" result="shadowSpreadOuter1"></feMorphology>
            <feOffset dx="0" dy="0" in="shadowSpreadOuter1" result="shadowOffsetOuter1"></feOffset>
            <feGaussianBlur stdDeviation="1" in="shadowOffsetOuter1" result="shadowBlurOuter1"></feGaussianBlur>
            <feColorMatrix values="0 0 0 0 0   0 0 0 0 0   0 0 0 0 0  0 0 0 0.5 0" type="matrix" in="shadowBlurOuter1"></feColorMatrix>
        </filter>
    </defs>
    <g id="Icons" stroke="none" stroke-width="1" fill="none" fill-rule="evenodd">
        <g id="hebrew/hebrew_Resource">
            <g id="Gem" transform="translate(0.000000, 1.818182)">
                <polygon id="Path" fill="#81D4FA" fill-rule="nonzero" points="49.875 96.5704701 99.9583333 26.170973 100 26.1549366 100 26.1308821 76.7 0.480769231 23.3416667 0.480769231 0 26.0827731 0 26.1068276 0.025 26.1629548 49.5416667 96.2818161 49.8083333 96.6346154 49.8666667 96.5624519 49.6833333 95.8969441 49.6833333 95.8969441"></polygon>
                <polygon id="Path" fill="url(#linearGradient-1)" fill-rule="nonzero" points="49.8246786 96.6346154 0 26.1196556 23.2927033 0.480769231 76.7490399 0.480769231 100 26.1196556"></polygon>
                <g id="Group">
                    <polygon id="Path" points="50.1407683 0.798633185 50.099219 0.854537508 50.1823177 0.854537508"></polygon>
                    <polygon id="Path" fill="url(#linearGradient-2)" fill-rule="nonzero" points="49.9579511 96.5467657 69.7105168 26.3548951 29.9062301 26.3948268"></polygon>
                    <polygon id="Path" fill="#81D4FA" fill-rule="nonzero" points="69.7105168 26.3548951 70.0346018 26.3548951 69.8019253 26.0514145"></polygon>
                    <polygon id="Path" fill="url(#linearGradient-3)" fill-rule="nonzero" points="100 26.3708678 69.7354464 26.3548951 49.966261 96.5627384 100 26.3788541"></polygon>
                    <polygon id="Path" fill="url(#linearGradient-4)" fill-rule="nonzero" points="30.0807374 26.8260887 29.3660885 27.7525032 30.0807374 26.8260887 29.9394696 26.3389224 0.422804468 26.3309361 0.372945237 26.3788541 49.9579511 96.5627384"></polygon>
                    <polygon id="Path" fill="url(#linearGradient-5)" fill-rule="nonzero" points="30.1970757 26.3548951 23.5491781 0.878496503 0.0654799746 26.3948268"></polygon>
                    <polygon id="Path" fill="url(#linearGradient-6)" fill-rule="nonzero" points="69.8684043 26.3548951 76.5163019 0.878496503 100 26.3948268"></polygon>
                    <polygon id="Path" fill="url(#linearGradient-7)" fill-rule="nonzero" points="29.981019 26.3548951 49.9247117 0.830578512 69.7105168 26.3548951"></polygon>
                    <polygon id="Path" fill="url(#linearGradient-8)" fill-rule="nonzero" points="50.1407683 0.830578512 30.1970757 26.3948268 23.3331214 0.798633185"></polygon>
                    <polygon id="Path" fill="url(#linearGradient-9)" fill-rule="nonzero" points="49.9247117 0.830578512 69.8684043 26.3948268 76.7323586 0.798633185"></polygon>
                </g>
                <g id="Group" opacity="0.2" transform="translate(0.000000, 0.480769)" fill="#424242" fill-rule="nonzero">
                    <path d="M75.5583333,2.40384615 L96.8333333,25.8012821 L49.8166667,91.8349359 L3.13333333,25.7932692 L24.475,2.40384615 L75.5583333,2.40384615 M76.7,0 L23.3416667,0 L0,25.5849359 L0,25.6089744 L0.025,25.6650641 L49.8083333,96.0977564 L99.9583333,25.6650641 L100,25.6490385 L100,25.625 L76.7,0 L76.7,0 Z" id="Shape"></path>
                </g>
            </g>
            <g id="×" fill-rule="nonzero">
                <use fill="black" fill-opacity="1" filter="url(#filter-11)" xlink:href="#path-10"></use>
                <use fill="#F1F35B" xlink:href="#path-10"></use>
            </g>
        </g>
    </g>
</svg>