<?xml version="1.0" encoding="UTF-8"?>
<svg width="100px" height="100px" viewBox="0 0 100 100" version="1.1" xmlns="http://www.w3.org/2000/svg" xmlns:xlink="http://www.w3.org/1999/xlink">
    <!-- Generator: sketchtool 63.1 (101010) - https://sketch.com -->
    <title>hebrew/hebrew_Story</title>
    <desc>Created with sketchtool.</desc>
    <defs>
        <path d="M48.0570322,97.2727273 C50.2374088,96.5068044 52.0296123,95.9323623 53.4336427,95.5494008 C54.8376731,95.1664394 56.0682644,94.9749587 57.1254167,94.9749587 C58.116497,94.9749587 58.9671742,95.1331384 59.6774484,95.4494979 C60.3877226,95.7658573 61.1227738,96.2070955 61.882602,96.7732124 L61.882602,96.7732124 L68.3741779,89.4303432 C68.4402499,89.2638383 68.4402499,89.0973333 68.3741779,88.9308283 C66.1277292,86.9327687 64.2281587,85.1844665 62.6754663,83.6859218 C61.1227738,82.1873771 59.8591465,80.8220363 58.8845842,79.5898996 C57.9100219,78.3577628 57.1997477,77.225529 56.7537616,76.1931982 C56.3077755,75.1608674 56.0847824,74.1451871 56.0847824,73.1461573 C56.0847824,71.9140205 56.3242935,70.6069565 56.8033156,69.2249653 C57.2823377,67.842974 58.248641,66.1862496 59.7022254,64.2547919 C60.9575938,65.3537247 62.4689912,66.702415 64.2364177,68.3008627 C66.0038442,69.8993104 67.8786377,71.6143116 69.8607983,73.4458662 C71.8429588,75.2774209 73.8498964,77.158927 75.881611,79.0903847 C77.9133255,81.0218423 79.8046371,82.853397 81.5555455,84.5850486 C82.4144818,85.4508745 83.273418,86.3333508 84.1323543,87.2324776 C84.9912905,88.1316045 85.8089317,89.0806828 86.585278,90.0797126 C87.3616242,91.0787424 88.0884164,92.1443742 88.7656546,93.276608 C89.4428928,94.4088418 90.0292819,95.6409786 90.5248221,96.9730183 C91.1525062,97.1395233 91.8792984,97.1894748 92.7051987,97.1228728 C93.3328828,95.4911241 93.944049,93.9426279 94.5386972,92.4773842 C95.1333453,91.0121404 95.7610295,89.5135957 96.4217497,87.98175 C96.6860378,87.3490311 96.8181818,86.7329627 96.8181818,86.1335449 C96.8181818,85.367622 96.4713037,84.5017962 95.7775475,83.5360673 C95.0837913,82.5703385 94.0927111,81.4880562 92.8043067,80.2892204 C92.3748386,79.8896085 91.9040754,79.4400451 91.3920173,78.9405302 C90.8799592,78.4410153 90.260534,77.8415974 89.5337418,77.1422765 C88.8069496,76.4429557 87.9397543,75.6187561 86.9321561,74.6696777 C85.9245578,73.7205994 84.7104844,72.5966909 83.289936,71.2979521 C85.9988888,68.6671736 88.1710064,66.3860555 89.8062889,64.4545979 C91.4415713,62.5231403 92.7051987,60.8664158 93.5971709,59.4844246 C94.4891432,58.1024333 95.0755323,56.9452238 95.3563384,56.012796 C95.6371445,55.0803681 95.7775475,54.2977948 95.7775475,53.6650759 C95.7775475,52.8325511 95.3976334,51.9084485 94.6378052,50.8927682 C93.877977,49.8770879 92.5400186,48.5034219 90.6239301,46.7717702 C89.7649938,46.0058473 89.0712376,45.3731285 88.5426615,44.8736136 C88.0140854,44.3740986 87.6011352,43.949511 87.3038112,43.5998505 C87.0064871,43.2501901 86.808271,42.9255054 86.709163,42.6257965 C86.610055,42.3260875 86.5605009,41.9930776 86.5605009,41.6267667 C86.5605009,41.4269607 86.5687599,41.2105042 86.585278,40.9773973 C86.601796,40.7442903 86.626573,40.4612319 86.659609,40.1282219 C86.3292489,39.961717 85.9493348,39.8118625 85.5198667,39.6786585 C85.0903985,39.5454545 84.7435204,39.5121536 84.4792324,39.5787555 C82.1006397,41.7766211 80.4240622,43.5998505 79.4495,45.0484438 C78.4749377,46.497037 77.9876565,47.6209455 77.9876565,48.4201694 C77.9876565,48.8863833 78.0454696,49.3192962 78.1610956,49.7189081 C78.2767216,50.1185201 78.5079737,50.5597582 78.8548518,51.0426226 C79.2017299,51.5254871 79.689011,52.0666282 80.3166952,52.6660461 C80.9443794,53.265464 81.7537616,53.9980858 82.7448419,54.8639117 C83.9671742,55.9295435 84.8343695,56.8036946 85.3464276,57.4863649 C85.8584857,58.1690353 86.1145148,58.8933319 86.1145148,59.6592548 C86.1145148,60.1587697 86.0071478,60.6749351 85.7924137,61.207751 C85.5776797,61.7405669 85.2308016,62.3399848 84.7517794,63.0060047 C84.2727573,63.6720245 83.6615911,64.4462726 82.9182809,65.328749 C82.1749707,66.2112253 81.2747395,67.2185804 80.2175872,68.3508142 C78.7309668,66.9854734 77.1782743,65.5618559 75.5595099,64.0799617 C73.9407454,62.5980675 72.321981,61.0828723 70.7032165,59.5343761 C69.0844521,57.9858799 67.4904646,56.4207331 65.9212542,54.8389359 C64.3520437,53.2571387 62.8736823,51.7169678 61.4861699,50.2184231 C60.7263417,49.3525972 60.1151755,48.5533734 59.6526714,47.8207515 C59.1901673,47.0881296 58.8267712,46.3888088 58.5624831,45.7227889 C58.298195,45.056769 58.116497,44.3990744 58.017389,43.749705 C57.9182809,43.1003356 57.8687269,42.4259905 57.8687269,41.7266696 L57.8687269,41.7266696 L57.8687269,40.9274458 C57.8687269,40.6277368 57.8852449,40.3446784 57.9182809,40.0782704 C57.5548848,39.9117655 57.1419347,39.8035372 56.6794306,39.7535858 C56.2169264,39.7036343 55.8039763,39.72861 55.4405802,39.828513 C54.581644,41.3270577 53.7309668,42.8006267 52.8885485,44.2492199 C52.0461303,45.6978131 51.2450071,47.2213336 50.4851788,48.8197813 C50.0557107,49.7189081 49.8409767,50.651336 49.8409767,51.6170648 C49.8409767,52.4162886 50.0144157,53.1738863 50.3612938,53.8898576 C50.7081719,54.605829 51.187194,55.3467761 51.7983602,56.112699 C52.4095264,56.8786218 53.1198006,57.6778457 53.9291828,58.5103705 C54.738565,59.3428954 55.6057603,60.2586727 56.5307685,61.2577025 C55.0441481,63.2224611 53.7722618,64.995739 52.7151095,66.5775363 C51.6579572,68.1593335 50.7907619,69.6245772 50.1135237,70.9732674 C49.4362856,72.3219577 48.9407454,73.5707449 48.6269033,74.7196292 C48.3130612,75.8685135 48.1561402,76.9757716 48.1561402,78.0414034 C48.1561402,78.9072292 48.2635072,79.773055 48.4782413,80.6388809 C48.6929753,81.5047067 49.0481124,82.3955083 49.5436526,83.3112856 C50.0391927,84.227063 50.6833949,85.2177675 51.4762591,86.2833993 C52.2691233,87.3490311 53.2436856,88.5145659 54.3999459,89.7800037 C52.9133255,90.7124315 51.5340721,91.6282088 50.2621858,92.5273357 C48.9902994,93.4264625 47.8422981,94.2756378 46.8181818,95.0748617 C46.9172898,95.5077746 47.0907289,95.924037 47.338499,96.3236489 C47.586269,96.7232609 47.8257801,97.0396203 48.0570322,97.2727273 Z" id="path-1"></path>
        <filter x="-15.2%" y="-13.0%" width="130.2%" height="127.0%" filterUnits="objectBoundingBox" id="filter-2">
            <feMorphology radius="1.5" operator="dilate" in="SourceAlpha" result="shadowSpreadOuter1"></feMorphology>
            <feOffset dx="0" dy="0" in="shadowSpreadOuter1" result="shadowOffsetOuter1"></feOffset>
            <feGaussianBlur stdDeviation="1" in="shadowOffsetOuter1" result="shadowBlurOuter1"></feGaussianBlur>
            <feColorMatrix values="0 0 0 0 0   0 0 0 0 0   0 0 0 0 0  0 0 0 0.5 0" type="matrix" in="shadowBlurOuter1"></feColorMatrix>
        </filter>
    </defs>
    <g id="Icons" stroke="none" stroke-width="1" fill="none" fill-rule="evenodd">
        <g id="hebrew/hebrew_Story">
            <g id="plastic-baby-book" transform="translate(1.818182, 2.272727)">
                <path d="M64.0199986,19.2059996 L0,19.2059996 L49.6154989,0.736229984 C52.8535062,-0.527865049 56.5061619,-0.118049902 59.3835345,1.83216929 C62.2609071,3.78238848 63.9946648,7.02336463 64.0199986,10.4992798 L64.0199986,19.2059996 Z" id="Path" fill="#043D7C" fill-rule="nonzero"></path>
                <path d="M64.0199986,19.2059996 L0,19.2059996 L49.6154989,0.736229984 C52.8535062,-0.527865049 56.5061619,-0.118049902 59.3835345,1.83216929 C62.2609071,3.78238848 63.9946648,7.02336463 64.0199986,10.4992798 L64.0199986,19.2059996 Z" id="Path-Copy" fill="#4382FF" fill-rule="nonzero"></path>
                <path d="M64.0199986,19.2059996 L0,19.2059996 L49.6154989,0.736229984 C52.8535062,-0.527865049 56.5061619,-0.118049902 59.3835345,1.83216929 C62.2609071,3.78238848 63.9946648,7.02336463 64.0199986,10.4992798 L64.0199986,19.2059996 Z" id="Path" stroke="#D8D8D8" stroke-width="3.20099993" stroke-linejoin="round"></path>
                <g id="Pages" transform="translate(2.080393, 4.193084)" fill="#FFFFFF" stroke="#808080" stroke-linejoin="round" stroke-width="1.38281818">
                    <path d="M67.0105164,18.1818182 L2.4650619,18.1818182 L52.4877892,0.685203432 C55.7523731,-0.512287618 59.4350086,-0.124065247 62.3359978,1.72339872 C65.2369869,3.5708627 66.9849747,6.64107485 67.0105164,9.93384728 L67.0105164,18.1818182 Z" id="Page"></path>
                    <path d="M70.3139474,20.9151331 L1.32758854,18.760352 L55.1587999,3.21475352 C59.2363996,2.09176481 62.7384396,2.60924964 65.6394287,4.45671361 C68.5404179,6.30417759 70.2884057,9.37438974 70.3139474,12.6671622 L70.3139474,20.9151331 Z" id="Page"></path>
                    <path d="M73.2335548,24.4753035 L0.0775885359,19.101261 L56.7598358,6.21171582 C61.6947183,5.20771576 65.658047,6.16942009 68.5590361,8.01688406 C71.4600252,9.86434803 73.2080131,12.9345602 73.2335548,16.2273326 L73.2335548,24.4753035 Z" id="Page"></path>
                </g>
                <path d="M6.23966942,95 C3.2956722,95 0.909090909,92.6160617 0.909090909,89.6753247 L0.909090909,20.4545455 L73.7603306,20.4545455 C76.7043278,20.4545455 79.0909091,22.8384838 79.0909091,25.7792208 L79.0909091,89.6753247 C79.0909091,92.6160617 76.7043278,95 73.7603306,95 L6.23966942,95 Z" id="Path" fill="#4382FF" fill-rule="nonzero"></path>
                <path d="M70.4219984,96.0299979 L9.60299979,96.0299979 C4.29940945,96.0299979 0,91.7305884 0,86.4269981 L0,19.2059996 L70.4219984,19.2059996 C75.7255888,19.2059996 80.0249982,23.505409 80.0249982,28.8089994 L80.0249982,86.4269981 C80.0249982,91.7305884 75.7255888,96.0299979 70.4219984,96.0299979 Z" id="Path" stroke="#D8D8D8" stroke-width="3.20099993" stroke-linejoin="round"></path>
            </g>
            <g id="×" fill-rule="nonzero">
                <use fill="black" fill-opacity="1" filter="url(#filter-2)" xlink:href="#path-1"></use>
                <use fill="#F1F35B" xlink:href="#path-1"></use>
            </g>
        </g>
    </g>
</svg>