<?xml version="1.0" encoding="UTF-8"?>
<svg width="100px" height="100px" viewBox="0 0 100 100" version="1.1" xmlns="http://www.w3.org/2000/svg" xmlns:xlink="http://www.w3.org/1999/xlink">
    <!-- Generator: sketchtool 63.1 (101010) - https://sketch.com -->
    <title>hebrew/hebrew_Note</title>
    <desc>Created with sketchtool.</desc>
    <g id="Icons" stroke="none" stroke-width="1" fill="none" fill-rule="evenodd">
        <g id="hebrew/hebrew_Note" fill="#008FFF" fill-rule="nonzero">
            <path d="M12.1496701,96.3583097 C15.6652951,95.1331676 18.5550323,94.2143111 20.8188817,93.6017401 C23.0827311,92.989169 25.0669286,92.6828835 26.771474,92.6828835 C28.3694854,92.6828835 29.7411118,92.935902 30.8863533,93.4419389 C32.0315948,93.9479759 33.2167865,94.6537642 34.4419286,95.559304 L34.4419286,95.559304 L44.908903,83.8139205 C45.0154371,83.5475852 45.0154371,83.28125 44.908903,83.0149148 C41.2867439,79.818892 38.2238888,77.0223722 35.7203377,74.6253551 C33.2167865,72.2283381 31.179322,70.0443892 29.6079442,68.0735085 C28.0365664,66.1026278 26.8913249,64.2915483 26.1722198,62.6402699 C25.4531147,60.9889915 25.0935621,59.3643466 25.0935621,57.7663352 C25.0935621,55.7954545 25.4797482,53.704723 26.2521203,51.4941406 C27.0244925,49.2835582 28.5825536,46.6335227 30.9263036,43.5440341 C32.9504513,45.3018466 35.3874186,47.4591619 38.2372056,50.0159801 C41.0869925,52.5727983 44.1098973,55.3160511 47.3059201,58.2457386 C50.5019428,61.1754261 53.7379158,64.1850142 57.0138391,67.2745028 C60.2897624,70.3639915 63.3393007,73.293679 66.1624541,76.0635653 C67.5473973,77.4485085 68.9323405,78.8600852 70.3172837,80.2982955 C71.7022269,81.7365057 73.0205863,83.2546165 74.2723618,84.8526278 C75.5241374,86.4506392 76.6960124,88.1551847 77.7879868,89.9662642 C78.8799613,91.7773438 79.8254513,93.7482244 80.624457,95.8789062 C81.6365309,96.1452415 82.8084059,96.225142 84.140082,96.118608 C85.1521559,93.5085227 86.1375962,91.0316051 87.096403,88.6878551 C88.0552098,86.3441051 89.0672837,83.9470881 90.1326246,81.496804 C90.558761,80.4847301 90.7718291,79.4992898 90.7718291,78.540483 C90.7718291,77.3153409 90.2125252,75.9303977 89.0939172,74.3856534 C87.9753093,72.8409091 86.3772979,71.1097301 84.2998831,69.1921165 C83.6074115,68.5529119 82.8483561,67.8338068 82.0227169,67.0348011 C81.1970777,66.2357955 80.1983206,65.2769886 79.0264456,64.1583807 C77.8545706,63.0397727 76.4563107,61.7214134 74.8316658,60.2033026 C73.2070209,58.6851918 71.249457,56.887429 68.958974,54.8100142 C73.3268718,50.6019176 76.82918,46.953125 79.4658988,43.8636364 C82.1026175,40.7741477 84.140082,38.1241122 85.5782922,35.9135298 C87.0165024,33.7029474 87.9619925,31.8519176 88.4147624,30.3604403 C88.8675323,28.8689631 89.0939172,27.6171875 89.0939172,26.6051136 C89.0939172,25.2734375 88.4813462,23.795277 87.2562041,22.1706321 C86.0310621,20.5459872 83.8737468,18.3487216 80.7842581,15.5788352 C79.3993149,14.3536932 78.280707,13.3416193 77.4284343,12.5426136 C76.5761615,11.743608 75.9103235,11.0644531 75.4309201,10.5051491 C74.9515166,9.94584517 74.6319144,9.42649148 74.4721132,8.94708807 C74.3123121,8.46768466 74.2324115,7.9350142 74.2324115,7.3490767 C74.2324115,7.02947443 74.2457283,6.68323864 74.2723618,6.31036932 C74.2989953,5.9375 74.3389456,5.48473011 74.3922127,4.95205966 C73.8595422,4.68572443 73.2469712,4.44602273 72.5544996,4.23295455 C71.862028,4.01988636 71.302724,3.96661932 70.8765877,4.07315341 C67.0413604,7.58877841 64.3380578,10.5051491 62.76668,12.8222656 C61.1953022,15.1393821 60.4096132,16.9371449 60.4096132,18.215554 C60.4096132,18.9612926 60.5028306,19.6537642 60.6892652,20.2929688 C60.8756999,20.9321733 61.2485692,21.6379616 61.8078732,22.4103338 C62.3671772,23.182706 63.1528661,24.0482955 64.1649399,25.0071023 C65.1770138,25.9659091 66.4820564,27.1377841 68.0800678,28.5227273 C70.0509485,30.2272727 71.4492084,31.6255327 72.2748476,32.7175071 C73.1004868,33.8094815 73.5133064,34.9680398 73.5133064,36.1931818 C73.5133064,36.9921875 73.3401885,37.8178267 72.9939527,38.6700994 C72.6477169,39.5223722 72.088413,40.481179 71.3160408,41.5465199 C70.5436686,42.6118608 69.5582283,43.8503196 68.3597198,45.2618963 C67.1612113,46.673473 65.7096843,48.2848011 64.0051388,50.0958807 C61.6081218,47.9119318 59.1045706,45.6347656 56.4944854,43.2643821 C53.8844002,40.8939986 51.2743149,38.470348 48.6642297,35.9934304 C46.0541445,33.5165128 43.4840095,31.0129616 40.9538249,28.482777 C38.4236402,25.9525923 36.0399399,23.4889915 33.802724,21.0919744 C32.577582,19.7070312 31.5921416,18.4286222 30.846403,17.2567472 C30.1006644,16.0848722 29.5147269,14.9662642 29.0885905,13.9009233 C28.6624541,12.8355824 28.3694854,11.7835582 28.2096843,10.7448509 C28.0498831,9.70614347 27.9699826,8.6274858 27.9699826,7.50887784 L27.9699826,7.50887784 L27.9699826,6.23046875 C27.9699826,5.75106534 27.9966161,5.29829545 28.0498831,4.87215909 C27.4639456,4.60582386 26.7981076,4.43270597 26.0523689,4.3528054 C25.3066303,4.27290483 24.6407922,4.31285511 24.0548547,4.47265625 C22.6699115,6.8696733 21.2982851,9.22674006 19.9399755,11.5438565 C18.5816658,13.860973 17.2899399,16.2979403 16.0647979,18.8547585 C15.3723263,20.2929688 15.0260905,21.784446 15.0260905,23.3291903 C15.0260905,24.6075994 15.3057425,25.8194247 15.8650465,26.9646662 C16.4243505,28.1099077 17.1967226,29.2950994 18.182163,30.5202415 C19.1676033,31.7453835 20.3128448,33.0237926 21.6178874,34.3554688 C22.92293,35.6871449 24.3211899,37.1519886 25.8126672,38.75 C23.4156502,41.8927557 21.3648689,44.7292259 19.6603235,47.2594105 C17.955778,49.7895952 16.5575181,52.1333452 15.4655436,54.2906605 C14.3735692,56.4479759 13.5745635,58.4454901 13.0685266,60.2832031 C12.5624897,62.1209162 12.3094712,63.8920455 12.3094712,65.5965909 C12.3094712,66.9815341 12.4825891,68.3664773 12.8288249,69.7514205 C13.1750607,71.1363636 13.7476814,72.5612571 14.5466871,74.0261009 C15.3456928,75.4909446 16.3844002,77.0756392 17.6628093,78.7801847 C18.9412184,80.4847301 20.5125962,82.3490767 22.3769428,84.3732244 C19.9799257,85.8647017 17.7560266,87.3295455 15.7052453,88.7677557 C13.6544641,90.2059659 11.8034343,91.5642756 10.1521559,92.8426847 C10.311957,93.5351562 10.591609,94.2009943 10.9911118,94.8401989 C11.3906147,95.4794034 11.7768007,95.9854403 12.1496701,96.3583097 Z" id="×"></path>
        </g>
    </g>
</svg>