<?xml version="1.0" encoding="UTF-8"?>
<svg width="100px" height="100px" viewBox="0 0 100 100" version="1.1" xmlns="http://www.w3.org/2000/svg" xmlns:xlink="http://www.w3.org/1999/xlink">
    <!-- Generator: sketchtool 63.1 (101010) - https://sketch.com -->
    <title>hebrew/hebrew_Lesson</title>
    <desc>Created with sketchtool.</desc>
    <defs>
        <linearGradient x1="50%" y1="0%" x2="50%" y2="100%" id="linearGradient-1">
            <stop stop-color="#343333" offset="0%"></stop>
            <stop stop-color="#1C1C1C" offset="100%"></stop>
        </linearGradient>
        <linearGradient x1="50%" y1="0%" x2="50%" y2="100%" id="linearGradient-2">
            <stop stop-color="#FF9500" offset="0%"></stop>
            <stop stop-color="#985900" offset="100%"></stop>
        </linearGradient>
        <rect id="path-3" x="1.36363636" y="8.63636364" width="97.7272727" height="82.7272727" rx="5.45454545"></rect>
        <filter x="-3.6%" y="-3.0%" width="107.2%" height="108.5%" filterUnits="objectBoundingBox" id="filter-4">
            <feOffset dx="0" dy="1" in="SourceAlpha" result="shadowOffsetOuter1"></feOffset>
            <feGaussianBlur stdDeviation="1" in="shadowOffsetOuter1" result="shadowBlurOuter1"></feGaussianBlur>
            <feComposite in="shadowBlurOuter1" in2="SourceAlpha" operator="out" result="shadowBlurOuter1"></feComposite>
            <feColorMatrix values="0 0 0 0 0   0 0 0 0 0   0 0 0 0 0  0 0 0 0.5 0" type="matrix" in="shadowBlurOuter1"></feColorMatrix>
        </filter>
        <filter x="-8.7%" y="-9.1%" width="117.4%" height="120.5%" filterUnits="objectBoundingBox" id="filter-5">
            <feMorphology radius="6" operator="erode" in="SourceAlpha" result="shadowSpreadInner1"></feMorphology>
            <feGaussianBlur stdDeviation="3.5" in="shadowSpreadInner1" result="shadowBlurInner1"></feGaussianBlur>
            <feOffset dx="0" dy="0" in="shadowBlurInner1" result="shadowOffsetInner1"></feOffset>
            <feComposite in="shadowOffsetInner1" in2="SourceAlpha" operator="arithmetic" k2="-1" k3="1" result="shadowInnerInner1"></feComposite>
            <feColorMatrix values="0 0 0 0 0   0 0 0 0 0   0 0 0 0 0  0 0 0 1 0" type="matrix" in="shadowInnerInner1"></feColorMatrix>
        </filter>
    </defs>
    <g id="Icons" stroke="none" stroke-width="1" fill="none" fill-rule="evenodd">
        <g id="hebrew/hebrew_Lesson">
            <g id="Rectangle">
                <use fill="black" fill-opacity="1" filter="url(#filter-4)" xlink:href="#path-3"></use>
                <use fill="url(#linearGradient-1)" fill-rule="evenodd" xlink:href="#path-3"></use>
                <use fill="black" fill-opacity="1" filter="url(#filter-5)" xlink:href="#path-3"></use>
                <rect stroke="url(#linearGradient-2)" stroke-width="6.81818182" stroke-linejoin="square" x="4.77272727" y="12.0454545" width="90.9090909" height="75.9090909" rx="5.45454545"></rect>
            </g>
            <path d="M27.5461753,77.2727273 C29.6274439,76.5490206 31.3381836,76.0062407 32.6783944,75.6443873 C34.0186053,75.282534 35.1932607,75.1016074 36.2023606,75.1016074 C37.1483917,75.1016074 37.9604018,75.2510685 38.6383908,75.5499908 C39.3163799,75.8489131 40.0180196,76.2658311 40.7433102,76.8007447 L40.7433102,76.8007447 L46.9398144,69.8626006 C47.0028831,69.7052731 47.0028831,69.5479456 46.9398144,69.390618 C44.7954771,67.5026877 42.9822507,65.8507486 41.5001351,64.4348008 C40.0180196,63.0188531 38.8118299,61.7287673 37.8815659,60.5645436 C36.9513019,59.4003199 36.2733129,58.3304927 35.8475989,57.355062 C35.4218849,56.3796313 35.2090278,55.4199334 35.2090278,54.4759682 C35.2090278,53.3117445 35.437652,52.0767234 35.8949004,50.7709049 C36.3521488,49.4650864 37.2745292,47.8996775 38.6620416,46.0746781 C39.8603478,47.1130398 41.3030453,48.3873928 42.9901342,49.8977371 C44.6772232,51.4080814 46.4667988,53.0285549 48.3588612,54.7591578 C50.2509235,56.4897606 52.1666366,58.2675617 54.1060005,60.092561 C56.0453644,61.9175604 57.8507073,63.6481632 59.522029,65.2843695 C60.3419227,66.1024727 61.1618164,66.9363086 61.9817101,67.7858772 C62.8016037,68.6354459 63.5820795,69.5322128 64.3231372,70.476178 C65.064195,71.4201432 65.7579512,72.4270394 66.4044058,73.4968666 C67.0508604,74.5666938 67.6105955,75.7309175 68.0836111,76.9895377 C68.6827642,77.1468652 69.3765204,77.1940635 70.1648797,77.1311325 C70.7640328,75.5893227 71.3474187,74.1261767 71.9150374,72.7416944 C72.4826561,71.3572122 73.0818092,69.9412644 73.7124966,68.4938511 C73.9647716,67.8960065 74.0909091,67.3138946 74.0909091,66.7475155 C74.0909091,66.0238089 73.7597982,65.2057057 73.0975764,64.2932061 C72.4353545,63.3807064 71.4893234,62.3580775 70.2594828,61.2253192 C69.849536,60.8477332 69.4001712,60.4229488 68.9113884,59.9509663 C68.4226056,59.4789837 67.8313362,58.9126046 67.13758,58.2518289 C66.4438238,57.5910533 65.6160465,56.812282 64.6542481,55.9155151 C63.6924498,55.0187482 62.5335616,53.9567874 61.1775836,52.7296326 C63.7634021,50.2438577 65.8367871,48.0884705 67.3977385,46.2634712 C68.95869,44.4384718 70.1648797,42.8730629 71.0163078,41.5672444 C71.8677358,40.2614259 72.4274709,39.1679996 72.6955131,38.2869654 C72.9635553,37.4059312 73.0975764,36.6664919 73.0975764,36.0686472 C73.0975764,35.2820096 72.7349311,34.4088418 72.0096405,33.4491439 C71.2843499,32.4894459 70.0072079,31.1914938 68.1782143,29.5552875 C67.3583206,28.8315809 66.6960987,28.2337363 66.1915488,27.7617537 C65.6869988,27.2897711 65.2928192,26.8885859 65.0090098,26.5581981 C64.7252005,26.2278103 64.5359942,25.9210216 64.4413911,25.637832 C64.346788,25.3546425 64.2994864,25.0399874 64.2994864,24.6938668 C64.2994864,24.5050738 64.30737,24.300548 64.3231372,24.0802895 C64.3389044,23.8600309 64.3625552,23.5925741 64.3940896,23.2779191 C64.0787458,23.1205916 63.7161005,22.9789968 63.3061537,22.8531348 C62.8962069,22.7272727 62.565096,22.6958072 62.312821,22.7587382 C60.0423462,24.8354616 58.4419768,26.5581981 57.5117128,27.9269476 C56.5814488,29.2956971 56.1163168,30.3576579 56.1163168,31.1128301 C56.1163168,31.5533471 56.1715019,31.9623987 56.2818722,32.3399848 C56.3922425,32.7175709 56.6129832,33.1344888 56.9440941,33.5907387 C57.275205,34.0469885 57.740337,34.558303 58.33949,35.1246821 C58.9386431,35.6910612 59.7112352,36.3833023 60.6572664,37.2014055 C61.8240382,38.2083016 62.6518155,39.0342712 63.1405983,39.6793141 C63.629381,40.3243569 63.8737724,41.0087317 63.8737724,41.7324383 C63.8737724,42.2044209 63.7712857,42.6921362 63.5663123,43.1955843 C63.3613389,43.6990324 63.0302279,44.2654115 62.5729795,44.8947217 C62.1157311,45.5240318 61.5323453,46.2556048 60.8228219,47.0894407 C60.1132985,47.9232766 59.2539868,48.8751082 58.2448869,49.9449354 C56.8258402,48.6548496 55.3437247,47.3096992 53.7985404,45.9094842 C52.2533562,44.5092692 50.7081719,43.0775887 49.1629877,41.6144427 C47.6178034,40.1512966 46.0962699,38.6724179 44.5983872,37.1778063 C43.1005045,35.6831948 41.6893414,34.2279151 40.3648977,32.8119674 C39.6396072,31.9938642 39.0562213,31.2386921 38.6147401,30.546451 C38.1732589,29.8542098 37.8263808,29.1934342 37.5741058,28.5641241 C37.3218308,27.934814 37.1483917,27.3133702 37.0537886,26.6997929 C36.9591855,26.0862155 36.911884,25.449039 36.911884,24.7882634 L36.911884,24.7882634 L36.911884,24.0330912 C36.911884,23.7499017 36.9276511,23.4824449 36.9591855,23.2307208 C36.6123074,23.0733933 36.2181278,22.9711304 35.7766465,22.9239321 C35.3351653,22.8767339 34.9409857,22.900333 34.5941076,22.9947295 C33.7742139,24.4106773 32.9622038,25.8030259 32.1580773,27.1717754 C31.3539508,28.5405249 30.5892423,29.9800718 29.8639517,31.4904161 C29.4540049,32.3399848 29.2490314,33.221019 29.2490314,34.1335186 C29.2490314,34.8886908 29.4145869,35.604531 29.7456978,36.2810394 C30.0768087,36.9575478 30.5340571,37.6576553 31.117443,38.3813619 C31.7008289,39.1050686 32.3788179,39.8602407 33.15141,40.6468784 C33.9240022,41.433516 34.7517794,42.2988174 35.6347419,43.2427826 C34.2156951,45.0992474 33.0016218,46.7747856 31.9925218,48.2693972 C30.9834219,49.7640087 30.1556447,51.148491 29.50919,52.422844 C28.8627354,53.6971969 28.3897198,54.8771534 28.0901433,55.9627134 C27.7905667,57.0482733 27.6407784,58.0945014 27.6407784,59.1013976 C27.6407784,59.9195007 27.7432652,60.7376039 27.9482386,61.5557071 C28.153212,62.3738102 28.4922065,63.2155125 28.9652221,64.0808139 C29.4382377,64.9461153 30.0531579,65.8822141 30.8099829,66.8891103 C31.5668078,67.8960065 32.4970718,68.9972992 33.6007748,70.1929884 C32.1817281,71.0740226 30.865168,71.939324 29.6510947,72.7888927 C28.4370214,73.6384613 27.3412019,74.4408317 26.3636364,75.1960039 C26.4582395,75.6050555 26.6237949,75.9983743 26.8603027,76.3759604 C27.0968105,76.7535464 27.3254347,77.0524687 27.5461753,77.2727273 Z" id="אבג" fill="#FFFFFF" fill-rule="nonzero"></path>
        </g>
    </g>
</svg>