<?xml version="1.0" encoding="UTF-8"?>
<svg width="100px" height="100px" viewBox="0 0 100 100" version="1.1" xmlns="http://www.w3.org/2000/svg" xmlns:xlink="http://www.w3.org/1999/xlink">
    <!-- Generator: sketchtool 63.1 (101010) - https://sketch.com -->
    <title>meta/meta_example</title>
    <desc>Created with sketchtool.</desc>
    <g id="Icons" stroke="none" stroke-width="1" fill="none" fill-rule="evenodd">
        <g id="meta/meta_example">
            <circle id="Oval" fill="#00731E" cx="49.5" cy="50.5" r="48.5"></circle>
            <path d="M24.854,61.624 C28.88,61.624 33.896,59.842 39.77,53.704 L38.582,51.922 C35.414,55.024 31.652,56.872 29.012,56.872 C25.448,56.872 24.26,53.638 24.26,50.206 C24.26,49.678 24.26,49.084 24.326,48.358 C30.86,46.642 41.42,43.276 41.42,36.544 C41.42,33.574 39.242,31 34.952,31 C31.652,31 27.494,32.914 24.788,35.026 C19.772,38.92 17,45.652 17,51.856 C17,59.644 21.224,61.624 24.854,61.624 Z M24.59,45.982 C25.514,39.118 28.418,35.62 30.002,34.63 C30.662,34.168 31.52,33.904 32.246,33.904 C33.5,33.904 35.018,34.96 35.018,37.468 C35.018,40.834 32.51,43.672 24.59,45.982 Z M44.4781108,61.312 C45.9181108,61.312 47.3181108,60.232 47.3181108,58.352 C47.3181108,56.832 46.3181108,55.752 44.9181108,55.752 C43.2381108,55.752 42.0781108,57.032 42.0781108,58.752 C42.0781108,60.232 43.0781108,61.312 44.4781108,61.312 Z M59.3581108,77.2 C66.3541108,77.2 76.0561108,72.844 76.0561108,67.102 C76.0561108,64.066 73.4821108,61.426 66.6181108,58.126 C63.4501108,56.542 62.0641108,55.486 62.0641108,54.628 C62.0641108,54.034 62.4601108,53.506 62.9881108,53.11 C67.2781108,52.12 70.5121108,50.668 72.4261108,49.084 C74.6701108,47.17 77.1121108,43.936 77.1121108,39.58 C77.1121108,38.392 76.9141108,37.27 76.6501108,36.346 C77.2441108,36.28 77.5741108,36.214 77.9701108,36.214 C79.2241108,35.95 81.0061108,35.026 83.2501108,32.65 L82.5901108,31.264 C81.4681108,31.99 78.8941108,32.782 74.8021108,32.848 C73.1521108,31.66 71.2381108,31 68.7301108,31 C65.9581108,31 62.3281108,32.254 59.5561108,34.3 C55.9261108,36.94 53.8801108,41.032 53.8801108,45.124 C53.8801108,49.282 55.8601108,52.186 60.2821108,53.11 C56.8501108,54.958 55.5961108,56.278 55.5961108,57.532 C55.5301108,58.588 56.4541108,59.908 57.9061108,60.832 C51.3721108,64 47.2801108,66.772 47.2141108,69.874 C47.1481108,73.9 52.5601108,77.2 59.3581108,77.2 Z M63.9781108,50.404 C61.9981108,50.404 60.7441108,48.49 60.7441108,45.388 C60.7441108,42.22 61.6021108,39.382 62.7241108,37.204 C63.7141108,35.224 65.2981108,33.442 67.1461108,33.442 C69.4561108,33.442 70.5121108,35.818 70.5121108,38.986 C70.5121108,45.982 67.0801108,50.404 63.9781108,50.404 Z M62.4601108,74.164 C58.3021108,74.164 54.3421108,71.722 54.3421108,68.554 C54.3421108,66.178 56.7841108,63.736 59.8861108,62.086 C61.4041108,62.812 63.3841108,63.802 65.5621108,65.056 C68.4661108,66.772 69.7201108,68.158 69.7201108,69.742 C69.7201108,72.118 67.0141108,74.164 62.4601108,74.164 Z M78.6999299,61.312 C80.1399299,61.312 81.5399299,60.232 81.5399299,58.352 C81.5399299,56.832 80.5399299,55.752 79.1399299,55.752 C77.4599299,55.752 76.2999299,57.032 76.2999299,58.752 C76.2999299,60.232 77.2999299,61.312 78.6999299,61.312 Z" id="e.g." fill="#FFFFFF" fill-rule="nonzero"></path>
        </g>
    </g>
</svg>