<?xml version="1.0" encoding="UTF-8"?>
<svg width="100px" height="72px" viewBox="0 0 100 72" version="1.1" xmlns="http://www.w3.org/2000/svg" xmlns:xlink="http://www.w3.org/1999/xlink">
    <!-- Generator: sketchtool 63.1 (101010) - https://sketch.com -->
    <title>meta/meta_blue_arrow_left</title>
    <desc>Created with sketchtool.</desc>
    <defs>
        <linearGradient x1="49.2146191%" y1="100.21866%" x2="50.4710936%" y2="0.230407343%" id="linearGradient-1">
            <stop stop-color="#006BCD" offset="0%"></stop>
            <stop stop-color="#00C4FF" offset="100%"></stop>
        </linearGradient>
    </defs>
    <g id="Icons" stroke="none" stroke-width="1" fill="none" fill-rule="evenodd">
        <g id="meta/meta_blue_arrow_left" fill-rule="nonzero">
            <g id="blue-arrow-left">
                <g transform="translate(50.500000, 36.500000) scale(-1, 1) translate(-50.500000, -36.500000) " id="blue-arrow-up-2068">
                    <g transform="translate(50.891775, 36.108225) rotate(90.000000) translate(-50.891775, -36.108225) translate(14.891775, -13.891775)">
                        <path d="M43.965368,5.54329004 L68.2424242,31.9285714 C72.1580087,36.2575758 74.2056277,39.8203463 66.6753247,39.8203463 L54.9307359,39.8203463 C50.7748918,51.0757576 51.3766234,85.491342 64.1493506,93.4372294 C66.2575758,94.7619048 69.2099567,95.5454545 69.4502165,96.991342 C69.6904762,98.1341991 68.1861472,100.305195 64.1493506,99.4004329 C49.0887446,96.025974 16.9199134,82.3008658 16.7987013,39.7597403 L7.15800866,39.7597403 C-3.38528139,39.8809524 -0.253246753,36.0800866 4.62770563,30.7835498 L27.3398268,6.08441558 C34.3874459,-1.62554113 36.8571429,-2.22943723 43.965368,5.54329004 Z" id="Path" fill="url(#linearGradient-1)"></path>
                        <path d="M58.4242424,95.7251082 C46.1341991,92.478355 20.4718615,79.7077922 18.2424242,41.2662338 L18.3636364,41.2662338 C22.2186147,77.1103896 49.1493506,89.7012987 58.4264069,93.978355 C66.017316,95.965368 68.6645022,98.4372294 58.4242424,95.7251082 Z" id="Path" fill="#2290CC"></path>
                    </g>
                </g>
            </g>
        </g>
    </g>
</svg>