<?xml version="1.0" encoding="UTF-8"?>
<svg width="100px" height="100px" viewBox="0 0 100 100" version="1.1" xmlns="http://www.w3.org/2000/svg" xmlns:xlink="http://www.w3.org/1999/xlink">
    <!-- Generator: sketchtool 63.1 (101010) - https://sketch.com -->
    <title>meta/meta_question</title>
    <desc>Created with sketchtool.</desc>
    <defs>
        <linearGradient x1="36.2857143%" y1="0%" x2="63.7142857%" y2="100%" id="linearGradient-1">
            <stop stop-color="#83AEFF" offset="0%"></stop>
            <stop stop-color="#3177F9" offset="22.972973%"></stop>
            <stop stop-color="#004AD5" offset="100%"></stop>
        </linearGradient>
        <linearGradient x1="34.054611%" y1="9.55131442%" x2="62.0110216%" y2="77.5501605%" id="linearGradient-2">
            <stop stop-color="#737373" stop-opacity="0.160839161" offset="0%"></stop>
            <stop stop-color="#0F0E0E" stop-opacity="0.475524476" offset="100%"></stop>
        </linearGradient>
    </defs>
    <g id="Icons" stroke="none" stroke-width="1" fill="none" fill-rule="evenodd">
        <g id="meta/meta_question">
            <g id="Question" transform="translate(6.600000, 6.600000)">
                <g id="Group" transform="translate(1.042800, 1.042800)">
                    <path d="M42.3528263,0 C18.9605133,0 0,18.9605133 0,42.3528263 C0,65.7451394 18.9605133,84.7056527 42.3528263,84.7056527 C65.7451394,84.7056527 84.7056527,65.7451394 84.7056527,42.3528263 C84.7056527,18.9605133 65.7451394,0 42.3528263,0 Z" id="Background-circle" fill="url(#linearGradient-1)" fill-rule="nonzero"></path>
                    <path d="M52.5175046,17.1831467 C64.6672796,17.1831467 75.5870064,22.449609 83.1184057,30.8242544 C84.1522581,34.4894379 84.7056527,38.3564573 84.7056527,42.3528263 C84.7056527,65.7451394 65.7451394,84.7056527 42.3528263,84.7056527 C31.7441737,84.7056527 22.0470159,80.8060153 14.6165062,74.3618938 C12.5291586,69.4329808 11.3747591,64.0142487 11.3747591,58.3258923 C11.3747591,35.6033813 29.7949937,17.1831467 52.5175046,17.1831467 Z" id="Combined-Shape" fill="url(#linearGradient-2)"></path>
                    <g id="Question-mark" transform="translate(24.927663, 14.841880)" fill-rule="nonzero">
                        <path d="M16.6271775,55.2226665 C13.418226,55.2226665 10.8187899,52.6233388 10.8187899,49.4142789 C10.8187899,46.2053274 13.4181176,43.6058913 16.6271775,43.6058913 C19.8362374,43.6058913 22.4355651,46.205219 22.4355651,49.4142789 C22.4355651,52.6190037 19.8362374,55.2226665 16.6271775,55.2226665 Z" id="Path" fill="#D8D8D8"></path>
                        <path d="M26.6204046,30.279839 C23.7333564,33.0563655 22.0935032,34.7550941 22.0935032,37.4352007 L22.0935032,38.7731602 C22.0935032,39.3058208 21.6486617,39.7336329 21.0991524,39.7336329 L13.1182655,39.7336329 C12.5687561,39.7336329 12.1239259,39.3058208 12.1239259,38.7731602 L12.1239259,37.4352007 C12.1239259,30.6531707 16.2495723,26.6894346 19.5641122,23.501567 C22.4599804,20.7208531 24.0910136,19.0137494 24.0910136,16.3420178 C24.0910136,12.6427385 20.9640387,9.63128265 17.1131524,9.63128265 C13.2666204,9.63128265 10.1352912,12.6427385 10.1352912,16.3420178 C10.1352912,16.8704909 9.6904498,17.2982922 9.1409516,17.2982922 L1.16441891,17.2982922 C0.614909548,17.2982922 0.17007927,16.8704802 0.17007927,16.3420178 C0.17007927,7.35382018 7.7672396,0.0429842006 17.1134427,0.0429842006 C26.4637767,0.0429842006 34.0523403,7.35349806 34.0523403,16.3420178 C34.0523403,23.1198604 29.9354022,27.0877839 26.620974,30.2788727 L26.6204046,30.279839 Z" id="Path" fill="#FFFFFF"></path>
                    </g>
                </g>
            </g>
        </g>
    </g>
</svg>