<?xml version="1.0" encoding="UTF-8"?>
<svg width="100px" height="100px" viewBox="0 0 100 100" version="1.1" xmlns="http://www.w3.org/2000/svg" xmlns:xlink="http://www.w3.org/1999/xlink">
    <!-- Generator: sketchtool 63.1 (101010) - https://sketch.com -->
    <title>design/file_photoshop_psd</title>
    <desc>Created with sketchtool.</desc>
    <defs>
        <path d="M54.4476279,0 L2.61298605,0 C1.16986047,0 0,1.16964286 0,3.43928571 L0,98.2142857 C0,98.8303571 1.16986047,100 2.61298605,100 L74.187014,100 C75.6301395,100 76.8,98.8303571 76.8,98.2142857 L76.8,23.175 C76.8,21.9321429 76.6338977,21.5321429 76.340986,21.2375 L55.5585488,0.458928571 C55.2638512,0.166071429 54.8637767,0 54.4476279,0 Z" id="path-1"></path>
        <path d="M27.4761062,95.2 L27.4761062,86.9702703 L29.2884956,86.9702703 C31.9126844,86.9702703 33.9539823,86.3388514 35.4123894,85.0760135 C36.8707965,83.8131757 37.6,82.0466216 37.6,79.7763514 C37.6,77.7709459 37.0548673,76.3402027 35.9646018,75.4841216 C34.8743363,74.6280405 33.0548673,74.2 30.5061947,74.2 L30.5061947,74.2 L23.2,74.2 L23.2,95.2 L27.4761062,95.2 Z M28.4379052,84 L27.6,84 L27.6,77 L29.2758105,77 C31.8919368,77 33.2,78.0438596 33.2,80.1315789 C33.2,81.3218623 32.7740648,82.26417 31.9221945,82.958502 C31.0703242,83.652834 29.9088944,84 28.4379052,84 L28.4379052,84 Z M45.6850806,95.6 C48.2159946,95.6 50.2012097,95.0478764 51.6407258,93.9436293 C53.0802419,92.8393822 53.8,91.3151437 53.8,89.3709138 C53.8,88.0024024 53.4189516,86.8415272 52.6568548,85.8882883 C51.8947581,84.9350493 50.5069892,83.8921493 48.4935484,82.7595882 L48.4935484,82.7595882 L46.9975806,81.9243243 C45.877957,81.2919777 45.1158602,80.7587302 44.7112903,80.3245817 C44.3067204,79.8904333 44.1044355,79.3854998 44.1044355,78.8097812 C44.1044355,78.1113685 44.39375,77.5474474 44.972379,77.118018 C45.5510081,76.6885886 46.3201613,76.4738739 47.2798387,76.4738739 C48.5217742,76.4738739 50.2106183,76.8749893 52.346371,77.6772201 L52.346371,77.6772201 L52.346371,74.3220077 C50.2576613,73.8406692 48.3806452,73.6 46.7153226,73.6 C44.6360215,73.6 42.9636425,74.1238095 41.6981855,75.1714286 C40.4327285,76.2190476 39.8,77.606435 39.8,79.3335907 C39.8,80.626598 40.1857527,81.7567997 40.9572581,82.7241956 C41.7287634,83.6915916 43.050672,84.7038181 44.9229839,85.7608752 L44.9229839,85.7608752 L46.3201613,86.5395109 C47.4491935,87.1812956 48.2159946,87.7357786 48.6205645,88.2029601 C49.0251344,88.6701416 49.2274194,89.2435006 49.2274194,89.9230373 C49.2274194,90.7818962 48.9051747,91.4614329 48.2606855,91.9616474 C47.6161962,92.4618619 46.7341398,92.7119691 45.6145161,92.7119691 C44.0150538,92.7119691 42.0909946,92.2400686 39.8423387,91.2962677 L39.8423387,91.2962677 L39.8423387,94.8921493 C42.0627688,95.3640498 44.0103495,95.6 45.6850806,95.6 Z M66.4043059,95.2 C69.6861668,95.2 72.2392477,94.2422297 74.0635486,92.3266892 C75.8878495,90.4111486 76.8,87.7222973 76.8,84.2601351 C76.8,81.0060811 75.9395694,78.5158784 74.2187082,76.789527 C72.4978471,75.0631757 70.0199951,74.2 66.7851522,74.2 L66.7851522,74.2 L57.8,74.2 L57.8,95.2 L66.4043059,95.2 Z M65.4303371,92.2 L62.2,92.2 L62.2,77 L64.8123596,77 C66.4790262,77 67.7477528,77.1756951 68.6185393,77.5270853 C69.4893258,77.8784755 70.2337079,78.5147766 70.8516854,79.4359888 C71.7505618,80.7750703 72.2,82.4512965 72.2,84.4646673 C72.2,87.0668541 71.6405431,89.0066229 70.5216292,90.2839738 C69.4027154,91.5613246 67.705618,92.2 65.4303371,92.2 L65.4303371,92.2 Z" id="path-3"></path>
        <filter x="-5.6%" y="-13.6%" width="111.2%" height="127.3%" filterUnits="objectBoundingBox" id="filter-4">
            <feMorphology radius="0.5" operator="dilate" in="SourceAlpha" result="shadowSpreadOuter1"></feMorphology>
            <feOffset dx="0" dy="0" in="shadowSpreadOuter1" result="shadowOffsetOuter1"></feOffset>
            <feGaussianBlur stdDeviation="0.5" in="shadowOffsetOuter1" result="shadowBlurOuter1"></feGaussianBlur>
            <feColorMatrix values="0 0 0 0 0   0 0 0 0 0   0 0 0 0 0  0 0 0 0.5 0" type="matrix" in="shadowBlurOuter1"></feColorMatrix>
        </filter>
    </defs>
    <g id="Icons" stroke="none" stroke-width="1" fill="none" fill-rule="evenodd">
        <g id="design/file_photoshop_psd">
            <g id="file/PSD">
                <g id="Group" stroke-width="1" fill-rule="evenodd" transform="translate(11.600000, 0.000000)">
                    <mask id="mask-2" fill="white">
                        <use xlink:href="#path-1"></use>
                    </mask>
                    <path stroke="#1F1F1F" stroke-width="0.7" d="M2.61298605,0.35 C1.96958864,0.35 1.38973044,0.622147396 0.982468862,1.15819653 C0.582990653,1.68400098 0.35,2.44982223 0.35,3.43928571 L0.35,98.2142857 C0.35,98.4892682 0.690676045,98.8710479 1.12711718,99.1693117 C1.52847064,99.4435966 2.04637395,99.65 2.61298605,99.65 L74.187014,99.65 C74.753626,99.65 75.2715294,99.4435966 75.6728828,99.1693117 C76.109324,98.8710479 76.45,98.4892682 76.45,98.2142857 L76.45,23.175 C76.45,22.1127933 76.3483774,21.7413747 76.0927705,21.4842571 L55.3110845,0.706438964 C55.0185135,0.415697474 54.5234583,0.35 2.61298605,0.35 Z"></path>
                    <path d="M64.9687907,18.455376 C63.9679068,17.8000235 62.6297921,18.0830661 61.9769478,19.0889559 C58.8791798,23.8701985 53.3753995,30.3322787 50.757537,32.9689293 L44.7306165,39.0391043 L38.6172265,32.8818393 L44.6398235,26.809487 C48.4682583,22.953576 58.1960712,14.9608886 62.1844744,13.5239031 C62.2709439,13.5108396 62.3811924,13.4912443 62.4265889,13.4803581 C63.5528534,13.2256198 64.2143447,12.1369944 64.015465,10.9917605 C63.8144235,9.84652663 62.6838355,9.06489362 61.5446005,9.21947842 L60.9328292,9.35446797 C55.6603546,11.1245728 44.8127624,20.4758647 41.5809668,23.7330317 L26.0488923,39.3765782 C25.8435274,39.3678692 25.6403242,39.3460967 25.4327975,39.3460967 C19.0102793,39.3460967 13.6232327,43.9727544 12.4991299,50.2671863 L12.2656624,50.4261256 L12.2224277,51.593132 C12.1489287,53.6441022 11.5695834,60.4153519 7.1574798,61.4909138 C6.0398622,61.7717791 5.30271016,62.8516955 5.44322301,63.9991066 L5.79342427,66 L20.8823429,66 L20.9255776,66 L20.9255776,66 L25.4349593,65.9346825 C32.713525,65.9346825 38.6366822,59.9690155 38.6366822,52.6382123 C38.6366822,52.2180029 38.6129031,51.8043253 38.5739918,51.3928249 L53.8120702,36.0475618 C56.6331359,33.2062496 62.2968847,26.5591032 65.5956941,21.468691 C66.2485385,20.4606239 65.9675128,19.1129057 64.9687907,18.455376 Z M25.1786603,61.6074115 L17.0917391,61.6074115 L17.124182,61.672381 L13.531677,61.672381 C15.4501309,58.7682483 16.0427536,55.0953109 16.2222708,52.9123387 L16.399625,51.8208526 C16.8603135,47.2599999 20.6344984,43.8209524 25.1808232,43.8209524 C25.4425289,43.8209524 25.6890945,43.8750936 25.9464745,43.8989157 L26.3076715,43.9443943 C28.5678568,44.234591 30.5382192,45.3628931 31.9310989,47.0001222 C32.0565446,47.1495519 32.186316,47.2924846 32.3009474,47.4505768 C32.4783017,47.688798 32.6361902,47.9421787 32.7897531,48.1977251 C32.8978959,48.3818051 32.9995502,48.5702163 33.0968787,48.7607933 C33.2331387,49.0336648 33.3650729,49.3108676 33.4732158,49.5988987 C33.5381015,49.7721505 33.5856843,49.9540648 33.6397557,50.1338135 C33.7370843,50.4521636 33.8365757,50.7705137 33.8992985,51.106189 L33.9101128,51.1624959 C33.99879,51.6692573 34.0658385,52.1825156 34.0658385,52.7130991 C34.0615128,57.616124 30.0775308,61.6074115 25.1786603,61.6074115 Z M35.9577431,44.6393389 C35.942463,44.6194591 35.9293657,44.6017881 35.9140855,44.5819083 C34.5934413,42.7905143 32.847135,41.345913 30.8236025,40.3960987 L35.457863,35.7066667 L41.6310559,41.9533524 L37.1103053,46.5257143 C36.78069,45.8630531 36.3921369,45.2335251 35.9577431,44.6393389 Z" id="Shape" fill="#2C2C2C" fill-rule="nonzero" mask="url(#mask-2)"></path>
                    <path d="M54.15,0.996446609 L54.15,22.65 L75.8035534,22.65 L54.15,0.996446609 Z" id="Path" stroke="#1F1F1F" stroke-width="0.5" fill="#B5B3A6" fill-rule="nonzero" mask="url(#mask-2)"></path>
                </g>
                <path d="M85.4822791,98.6 L14.5177209,98.6 C13.1272093,98.6 13,98.4903529 13,97.1215059 L13,69.8 L87,69.8 L87,97.1215059 C87,98.4903529 86.8727907,98.6 85.4822791,98.6 Z" id="Path" fill="#5889C4" fill-rule="nonzero"></path>
                <g id="PSD" fill-rule="nonzero">
                    <use fill="black" fill-opacity="1" filter="url(#filter-4)" xlink:href="#path-3"></use>
                    <use fill="#FFFFFF" xlink:href="#path-3"></use>
                </g>
            </g>
        </g>
    </g>
</svg>