<?xml version="1.0" encoding="UTF-8"?>
<svg width="100px" height="100px" viewBox="0 0 100 100" version="1.1" xmlns="http://www.w3.org/2000/svg" xmlns:xlink="http://www.w3.org/1999/xlink">
    <!-- Generator: sketchtool 63.1 (101010) - https://sketch.com -->
    <title>microsoft/file_ms_visio</title>
    <desc>Created with sketchtool.</desc>
    <g id="Icons" stroke="none" stroke-width="1" fill="none" fill-rule="evenodd">
        <g id="microsoft/file_ms_visio">
            <g id="File/Visio">
                <g id="file_ms_visio" transform="translate(2.800000, 5.400000)">
                    <path d="M25.7077891,83.0659773 C11.6748188,80.5722647 0.149806791,78.5219726 0.096651899,78.5097806 C0.0434970073,78.4980716 0,63.0653137 0,44.2158511 C0,25.3664031 0.0434970073,9.93434778 0.096651899,9.92238995 C0.149806791,9.91068093 11.7129273,7.85301209 25.7924746,5.35032755 L51.3916542,0.8 L51.5002141,5.08162032 L51.608774,9.36324064 L71.0241899,9.55687846 L90.4396058,9.75050163 L91.3198029,10.6325709 L92.2,11.5146401 L92.2,43.8286047 L92.2,76.1425693 L91.3198029,77.0246386 L90.4396058,77.9067078 L71.0241899,78.100331 L51.608774,78.2939688 L51.4154702,82.9469844 L51.222181,87.6 L25.7077891,83.0659773 Z" id="path164" fill="#FFFFFF" fill-rule="nonzero"></path>
                    <path d="M26.397716,84.6561898 L0,79.9536685 L0,44.6928489 L0,9.43202931 L26.2043285,4.81619287 C40.6167021,2.27748356 52.71325,0.122501137 53.0855235,0.0273674435 C53.7024221,-0.130290626 53.762387,0.270304662 53.762387,4.54862661 L53.762387,9.24287477 L72.6963932,9.24287477 C85.7489732,9.24287477 91.9231778,9.37656272 92.5729094,9.67301905 C93.0912796,9.90960133 93.708646,10.5279923 93.9448363,11.0472228 C94.5517212,12.3814081 94.5517212,76.2276696 93.9448363,77.5618548 C93.708646,78.0810854 93.0912796,78.6994764 92.5729094,78.9360586 C91.9231778,79.2325882 85.7489732,79.3662029 72.6963932,79.3662029 L53.762387,79.3662029 L53.762387,84.4026805 C53.762387,88.1950548 53.6429542,89.4292304 53.278911,89.3994768 C53.0130014,89.3768241 40.916468,87.2425757 26.397716,84.6561898 L26.397716,84.6561898 Z M91.2800245,44.3045388 L91.2800245,12.3422535 L72.5212057,12.3422535 L53.762387,12.3422535 L53.762387,19.509553 L53.762387,26.6768526 L58.4694547,26.6768526 L63.1765225,26.6768526 L68.4461374,21.4466519 C71.5812101,18.3350465 74.0203424,16.2164659 74.4676815,16.2164659 C75.3632516,16.2164659 87.0254416,27.7302785 87.0254416,28.614464 C87.0254416,28.9395175 84.588736,31.6415516 81.6105339,34.6190005 L76.1956115,40.0325279 L76.1956115,49.7426221 C76.1956115,56.7783569 76.0678463,59.5807668 75.7314758,59.917637 C75.4208045,60.2288239 73.6944386,60.3825431 70.5099555,60.3825431 L65.7525564,60.3825431 L65.7525564,64.6305546 C65.7525564,68.4339256 65.6742016,68.9205321 65.004428,69.2796153 C64.5929625,69.5001931 61.8951715,69.6806646 59.0093433,69.6806646 L53.762387,69.6806646 L53.762387,72.9737517 L53.762387,76.2668242 L72.5212057,76.2668242 L91.2800245,76.2668242 L91.2800245,44.3045388 Z M62.2715381,58.8328464 L62.2715381,51.4718384 L58.0169698,51.4718384 L53.762387,51.4718384 L53.762387,58.8328464 L53.762387,66.193869 L58.0169698,66.193869 L62.2715381,66.193869 L62.2715381,58.8328464 Z M31.0556219,45.1761169 C33.3515664,37.0258083 35.3299397,29.965093 35.4520038,29.4856614 C35.6662225,28.6443351 35.581377,28.6141711 33.0180757,28.6198964 C31.5573564,28.622825 30.1540144,28.7584165 29.8995657,28.9204234 C29.5645839,29.1337384 24.1557487,50.320526 23.9552567,52.2046475 C23.9421,52.3342355 22.7248802,47.3950294 21.2517395,41.228486 C19.7786004,35.0619279 18.4409932,29.9115007 18.2792824,29.7830987 C18.1175702,29.6546822 16.7977099,29.6160547 15.34626,29.6972925 C13.278014,29.8129699 12.7523433,29.9625891 12.9157162,30.3890288 C13.0303687,30.6883111 14.8128547,37.3771162 16.8768001,45.2530644 L20.6294292,59.5729768 L22.7883637,59.7107648 C23.975781,59.786614 25.3824208,59.8815281 25.91424,59.9217516 C26.8645416,59.9936473 26.9530855,59.7396841 31.0556219,45.1761169 L31.0556219,45.1761169 Z M72.7145932,48.4747097 L72.7145932,40.053672 L67.7887311,35.1086527 L62.862869,30.1636482 L58.312628,30.1636482 L53.762387,30.1636482 L53.762387,39.0743528 L53.762387,47.9850428 L59.357087,47.9850428 C66.032529,47.9850428 65.7525564,47.7572169 65.7525564,53.1897652 L65.7525564,56.8957475 L69.2335748,56.8957475 L72.7145932,56.8957475 L72.7145932,48.4747097 Z M79.0987333,24.3545918 C76.7647224,22.0094445 74.6750881,20.0906783 74.4551097,20.0906783 C74.2351166,20.0906783 72.1464471,22.0084781 69.8136057,24.3524686 L65.5720771,28.6142443 L70.0094052,33.0715881 L74.4467333,37.5289172 L78.8945575,33.0737113 L83.3423816,28.61852 L79.0987333,24.3545918 Z" id="path177" fill="#3652A0" fill-rule="nonzero"></path>
                </g>
            </g>
        </g>
    </g>
</svg>