<?xml version="1.0" encoding="UTF-8"?>
<svg width="100px" height="100px" viewBox="0 0 100 100" version="1.1" xmlns="http://www.w3.org/2000/svg" xmlns:xlink="http://www.w3.org/1999/xlink">
    <!-- Generator: sketchtool 63.1 (101010) - https://sketch.com -->
    <title>microsoft/file_ms_project</title>
    <desc>Created with sketchtool.</desc>
    <g id="Icons" stroke="none" stroke-width="1" fill="none" fill-rule="evenodd">
        <g id="microsoft/file_ms_project">
            <g id="Microsoft_Office_Project_(2013-2019)" transform="translate(2.300000, 2.300000)">
                <path d="M47.75,13.6442665 L90.9519112,13.6442665 C92.2097882,13.6442665 93.2259556,14.6604339 93.2259556,15.918311 L93.2259556,79.5866219 C93.2259556,80.844499 92.2097882,81.8606663 90.9519112,81.8606663 L47.75,81.8606663 C46.4921229,81.8606663 45.4759556,80.844499 45.4759556,79.5866219 L45.4759556,15.918311 C45.4759556,14.6604339 46.4921229,13.6442665 47.75,13.6442665 Z" id="Path" fill="#FFFFFF" fill-rule="nonzero"></path>
                <path d="M90.9519112,15.918311 L90.9519112,79.5866219 L47.75,79.5866219 L47.75,15.918311 L90.9519112,15.918311 M90.9519112,11.3702221 L47.75,11.3702221 C45.2391787,11.3702221 43.2019112,13.4074897 43.2019112,15.918311 L43.2019112,79.5866219 C43.2019112,82.0974432 45.2391787,84.1347107 47.75,84.1347107 L90.9519112,84.1347107 C93.4627324,84.1347107 95.5,82.0974432 95.5,79.5866219 L95.5,15.918311 C95.5,13.4074897 93.4627324,11.3702221 90.9519112,11.3702221 Z" id="Shape" fill="#31752F" fill-rule="nonzero"></path>
                <path d="M85.1311467,38.8610021 L79.581689,38.8610021 L79.581689,25.0095558 C79.581689,23.7516787 78.5655217,22.7355114 77.3076446,22.7355114 L50.0240444,22.7355114 L50.0240444,29.5576446 L72.7644886,29.5576446 L72.7644886,38.8560692 L66.9437242,38.8560692 L65.7401085,40.2668647 L76.0399019,52.293156 L86.4087552,40.2668647 L85.1311467,38.8610021 Z M54.3008264,56.6636622 L54.3008264,66.1446023 L62.075,73.7609246 L74.7178977,61.3893337 L62.0996643,49.0177428 L54.3008264,56.6636622 Z" id="Shape" fill="#31752F" fill-rule="nonzero"></path>
                <polygon id="Path" fill="#31752F" points="56.8461777 0 0 9.95942665 0 85.5405733 56.8461777 95.5"></polygon>
                <path d="M22.7404442,46.5463843 L22.7404442,34.3326446 L25.9221333,34.3326446 C26.8396436,34.2783833 27.7620868,34.3721074 28.65,34.6039514 C29.3849948,34.8061983 30.0657283,35.181095 30.6280733,35.6941116 C31.1805527,36.212061 31.5949122,36.8631973 31.831689,37.5833936 C32.1177944,38.4565083 32.2559143,39.3690857 32.2411157,40.2915289 C32.2460486,41.1942407 32.1079287,42.0920196 31.831689,42.9503357 C31.3581353,44.4647211 30.1693182,45.6486054 28.65,46.1122934 C27.7670196,46.3836002 26.8445764,46.5167872 25.9221333,46.4970558 L22.8982955,46.4970558 M27.2836002,27.2836002 L15.9133781,27.9446023 L15.9133781,66.5984246 L22.7355114,67.0078512 L22.7355114,53.2303977 L26.5782025,53.2303977 C27.5746384,53.2649277 28.5710744,53.220532 29.5576446,53.0922779 C30.4998192,52.9541581 31.4321281,52.7272469 32.329907,52.4115444 C33.1980888,52.1057076 34.0268079,51.7110795 34.8061983,51.2276601 C35.6250517,50.7491736 36.3896436,50.1769628 37.0802428,49.5208936 C37.7116477,48.9042872 38.2739928,48.2284866 38.762345,47.4984246 C39.2408316,46.7831612 39.6453254,46.0235021 39.9659607,45.2243802 C40.2964618,44.3808626 40.5381715,43.5028151 40.6960227,42.609969 C41.1695764,39.7341167 40.952531,36.7892045 40.0596849,34.0169421 C39.5368027,32.497624 38.6340909,31.136157 37.4452738,30.0607955 C36.2169938,28.9706353 34.7420713,28.1912448 33.1487603,27.786751 C31.234814,27.3131973 29.2567407,27.1454804 27.2836002,27.2836002" id="Shape" fill="#FFFFFF" fill-rule="nonzero"></path>
            </g>
        </g>
    </g>
</svg>