<?xml version="1.0" encoding="UTF-8"?>
<svg width="100px" height="100px" viewBox="0 0 100 100" version="1.1" xmlns="http://www.w3.org/2000/svg" xmlns:xlink="http://www.w3.org/1999/xlink">
    <!-- Generator: sketchtool 63.1 (101010) - https://sketch.com -->
    <title>file/audio_mp3_music</title>
    <desc>Created with sketchtool.</desc>
    <defs>
        <path d="M25.1085938,94.5539062 L25.1085938,79.0773437 L29.9484375,93.2003906 L33.3390625,93.2003906 L38.2746094,79.2824219 L38.2746094,94.5539062 L42.1574219,94.5539062 L42.1574219,74.3195312 L37.2628906,74.3195312 L32.2453125,88.5519531 L27.378125,74.3195312 L21.8,74.3195312 L21.8,94.5539062 L25.1085938,94.5539062 Z M51.4602553,94.5539062 L51.4602553,86.6242187 L53.2102553,86.6242187 C55.7441094,86.6242187 57.7151381,86.0158203 59.1233412,84.7990234 C60.5315443,83.5822266 61.2356459,81.8800781 61.2356459,79.6925781 C61.2356459,77.7602865 60.7092787,76.3817057 59.6565443,75.5568359 C58.60381,74.7319661 56.846974,74.3195312 54.3860365,74.3195312 L54.3860365,74.3195312 L47.331349,74.3195312 L47.331349,94.5539062 L51.4602553,94.5539062 Z M52.2805678,83.8488281 L51.4602553,83.8488281 L51.4602553,77.0949219 L53.1008803,77.0949219 C55.6620782,77.0949219 56.9426771,78.1020833 56.9426771,80.1164062 C56.9426771,81.2648437 56.525685,82.1740234 55.6917006,82.8439453 C54.8577162,83.5138672 53.7206719,83.8488281 52.2805678,83.8488281 L52.2805678,83.8488281 Z M70.4291043,95.0597656 C72.7806668,95.0597656 74.6400418,94.5311198 76.0072293,93.4738281 C77.3744168,92.4165365 78.0580105,90.9809896 78.0580105,89.1671875 C78.0580105,86.3052083 76.3535835,84.4822917 72.9447293,83.6984375 C75.925198,82.7140625 77.4154324,81.0278646 77.4154324,78.6398437 C77.4154324,77.1268229 76.8252632,75.9419271 75.6449246,75.0851562 C74.4645861,74.2283854 72.830797,73.8 70.7435574,73.8 C68.7748074,73.8 66.9017605,74.1053385 65.1244168,74.7160156 L65.1244168,74.7160156 L65.1244168,77.4777344 C66.8106147,76.721224 68.3965522,76.3429687 69.8822293,76.3429687 C72.142646,76.3429687 73.2728543,77.2589844 73.2728543,79.0910156 C73.2728543,81.488151 71.440823,82.6867187 67.7767605,82.6867187 L67.7767605,82.6867187 L66.7240262,82.7003906 L66.7240262,85.1203125 L67.9681668,85.1203125 C71.878323,85.1203125 73.8334012,86.455599 73.8334012,89.1261719 C73.8334012,90.1561198 73.4665392,90.9809896 72.7328152,91.6007812 C71.9990913,92.2205729 71.0261095,92.5304687 69.8138699,92.5304687 C68.5104845,92.5304687 66.8561876,92.143099 64.8509793,91.3683594 L64.8509793,91.3683594 L64.8509793,94.4035156 C66.5736355,94.8410156 68.4330105,95.0597656 70.4291043,95.0597656 Z" id="path-1"></path>
        <filter x="-5.3%" y="-14.1%" width="110.7%" height="128.2%" filterUnits="objectBoundingBox" id="filter-2">
            <feMorphology radius="0.5" operator="dilate" in="SourceAlpha" result="shadowSpreadOuter1"></feMorphology>
            <feOffset dx="0" dy="0" in="shadowSpreadOuter1" result="shadowOffsetOuter1"></feOffset>
            <feGaussianBlur stdDeviation="0.5" in="shadowOffsetOuter1" result="shadowBlurOuter1"></feGaussianBlur>
            <feColorMatrix values="0 0 0 0 0   0 0 0 0 0   0 0 0 0 0  0 0 0 0.5 0" type="matrix" in="shadowBlurOuter1"></feColorMatrix>
        </filter>
    </defs>
    <g id="Icons" stroke="none" stroke-width="1" fill="none" fill-rule="evenodd">
        <g id="file/audio_mp3_music" fill-rule="nonzero">
            <g id="file/MP3">
                <g id="file/Generic" transform="translate(11.600000, 0.000000)">
                    <path d="M2.61298605,0.35 C1.96958864,0.35 1.38973044,0.622147396 0.982468862,1.15819653 C0.582990653,1.68400098 0.35,2.44982223 0.35,3.43928571 L0.35,98.2142857 C0.35,98.4892682 0.690676045,98.8710479 1.12711718,99.1693117 C1.52847064,99.4435966 2.04637395,99.65 2.61298605,99.65 L74.187014,99.65 C74.753626,99.65 75.2715294,99.4435966 75.6728828,99.1693117 C76.109324,98.8710479 76.45,98.4892682 76.45,98.2142857 L76.45,23.175 C76.45,22.1127933 76.3483774,21.7413747 76.0927705,21.4842571 L55.3110845,0.706438964 C55.0185135,0.415697474 54.5234583,0.35 2.61298605,0.35 Z" id="Path" stroke="#626262" stroke-width="0.7" fill="#E9E9E0"></path>
                    <polygon id="Path" fill="#B5B3A6" points="54.6 1.4330168 54.6 22.2 75.276405 22.1763331"></polygon>
                </g>
                <path d="M85.4822791,98.6 L14.5177209,98.6 C13.1272093,98.6 13,98.4903529 13,97.1215059 L13,69.8 L87,69.8 L87,97.1215059 C87,98.4903529 86.8727907,98.6 85.4822791,98.6 Z" id="Path" fill="#A80000"></path>
                <path d="M66.9939206,27.9645775 C65.8524103,26.3586241 64.3767012,24.8515297 62.3473495,23.221366 C54.4675057,16.9044816 52.7703396,10.5573342 52.5589488,9.62725318 L52.5589488,7.81752935 C52.5589488,6.70183562 51.6590279,5.8 50.545703,5.8 C49.4323781,5.8 48.5324573,6.70183562 48.5324573,7.81752935 L48.5324573,9.83505871 L48.5324573,26.6995866 L48.5324573,44.9642798 L41.0713686,44.9642798 C33.2559487,44.9642798 28.4,48.9206549 28.4,55.2879775 C28.4,62.2807342 32.9096704,66.8 39.8875801,66.8 C46.8755561,66.8 52.5589488,61.1045146 52.5589488,54.1016702 L52.5589488,30.954556 L53.158896,31.4448156 C53.8433995,32.1227055 54.8923006,32.8974367 56.2210427,33.8759385 C60.8877463,37.3238961 68.7031663,43.089995 66.7382384,49.5985447 C66.6798543,49.7962626 66.6516689,49.991963 66.6516689,50.1856458 C66.6516689,51.0531834 67.2113512,51.852125 68.0810733,52.1164214 C68.2763582,52.1749297 68.471643,52.2031751 68.6649146,52.2031751 C69.5306103,52.2031751 70.3278556,51.642302 70.5915908,50.7707293 C73.8671416,39.926509 69.7420011,31.8261287 66.9939206,27.9645775 Z M48.5324573,54.1016702 C48.5324573,58.8791798 44.654946,62.7649413 39.8875801,62.7649413 C35.1463864,62.7649413 32.4264915,60.0392591 32.4264915,55.2879775 C32.4264915,50.0908219 37.1274202,48.9993385 41.0713686,48.9993385 L48.5324573,48.9993385 L48.5324573,54.1016702 Z M58.6087522,30.6317513 C57.4591889,29.7803539 56.4646455,29.0479907 55.8485923,28.4508021 L52.5589488,25.7473127 L52.5589488,18.7404333 C54.223903,21.1090127 56.559268,23.7499587 59.8307923,26.3727468 C61.5581572,27.760807 62.79429,29.0116752 63.7143433,30.3069291 C65.1558273,32.330511 66.595298,35.0259302 67.3140267,38.3326608 C64.6424496,35.0844386 61.1051769,32.4737556 58.6087522,30.6317513 Z" id="Shape" fill="#000000"></path>
                <g id="MP3">
                    <use fill="black" fill-opacity="1" filter="url(#filter-2)" xlink:href="#path-1"></use>
                    <use fill="#FFFFFF" xlink:href="#path-1"></use>
                </g>
            </g>
        </g>
    </g>
</svg>