<?xml version="1.0" encoding="UTF-8"?>
<svg width="100px" height="100px" viewBox="0 0 100 100" version="1.1" xmlns="http://www.w3.org/2000/svg" xmlns:xlink="http://www.w3.org/1999/xlink">
    <!-- Generator: sketchtool 63.1 (101010) - https://sketch.com -->
    <title>file/book_ePub</title>
    <desc>Created with sketchtool.</desc>
    <g id="Icons" stroke="none" stroke-width="1" fill="none" fill-rule="evenodd">
        <g id="file/book_ePub" fill-rule="nonzero">
            <g id="file/ePub" transform="translate(13.000000, 0.000000)">
                <g id="file/Generic" transform="translate(-1.400000, 0.000000)">
                    <path d="M2.61298605,0.7 C2.07959922,0.7 1.59881136,0.925504223 1.26115963,1.36993093 C0.898761638,1.84692936 0.7,2.54509637 0.7,3.43928571 L0.7,98.2142857 C0.7,98.4219545 1.02021186,98.6723283 1.32459696,98.880345 C1.67260844,99.118176 2.12107086,99.3 2.61298605,99.3 L74.187014,99.3 C74.6789291,99.3 75.1273916,99.118176 75.475403,98.880345 C75.7797881,98.6723283 76.1,98.4219545 76.1,98.2142857 L76.1,23.175 C76.1,22.2934437 76.0628571,21.9506065 75.844555,21.7310142 L55.0636201,0.953949356 C54.7731758,0.665323519 54.1831398,0.7 2.61298605,0.7 Z" id="Path" stroke="#626262" stroke-width="1.4" fill="#E9E9E0"></path>
                    <polygon id="Path" fill="#B5B3A6" points="54.6 1.4330168 54.6 22.2 75.276405 22.1763331"></polygon>
                </g>
                <path d="M72.4822791,98.6 L1.51772093,98.6 C0.127209302,98.6 0,98.4903529 0,97.1215059 L0,69.8 L74,69.8 L74,97.1215059 C74,98.4903529 73.8727907,98.6 72.4822791,98.6 Z" id="Path" fill="#119600"></path>
                <path d="M36.7,54.2302735 L19.1736132,36.7104534 L36.7,19.1697265 L42.5351574,25.0026976 L30.843928,36.6895466 L36.6790855,42.5225178 L54.2054723,25.0026976 L38.9378561,9.7408018 C37.6829835,8.4863994 35.6751874,8.4863994 34.4203148,9.7408018 L9.74115442,34.452529 C8.48628186,35.7069314 8.48628186,37.7139753 9.74115442,38.9683777 L34.4412294,63.6591982 C35.6961019,64.9136006 37.7038981,64.9136006 38.9587706,63.6591982 L63.6588456,38.9683777 C64.9137181,37.7139753 64.9137181,35.7069314 63.6588456,34.452529 L60.0824588,30.8774822 L36.7,54.2302735 Z" id="XMLID_14_" fill="#119600"></path>
                <path d="M11.3074219,95.3761719 C13.0300781,95.3761719 14.8529948,95.0936198 16.7761719,94.5285156 L16.7761719,94.5285156 L16.7761719,91.6847656 C15.0717448,92.3136719 13.5404948,92.628125 12.1824219,92.628125 C9.31132812,92.628125 7.7390625,91.1971354 7.465625,88.3351562 L7.465625,88.3351562 L16.7761719,88.3351562 C16.7761719,85.3364583 16.2703125,83.144401 15.2585937,81.7589844 C14.246875,80.3735677 12.6427083,79.6808594 10.4460937,79.6808594 C8.26770833,79.6808594 6.51542969,80.3895182 5.18925781,81.8068359 C3.86308594,83.2241536 3.2,85.0949219 3.2,87.4191406 C3.2,89.8800781 3.92460938,91.8214844 5.37382813,93.2433594 C6.82304687,94.6652344 8.80091146,95.3761719 11.3074219,95.3761719 Z M12.7976562,86.0519531 L7.4109375,86.0519531 C7.67526042,83.4907552 8.64596354,82.2101562 10.3230469,82.2101562 C11.9727865,82.2101562 12.7976562,83.4907552 12.7976562,86.0519531 L12.7976562,86.0519531 Z M24.6040053,95.034375 L24.6040053,87.1046875 L26.3540053,87.1046875 C28.8878594,87.1046875 30.8588881,86.4962891 32.2670912,85.2794922 C33.6752943,84.0626953 34.3793959,82.3605469 34.3793959,80.1730469 C34.3793959,78.2407552 33.8530287,76.8621745 32.8002943,76.0373047 C31.74756,75.2124349 29.990724,74.8 27.5297865,74.8 L27.5297865,74.8 L20.475099,74.8 L20.475099,95.034375 L24.6040053,95.034375 Z M25.4243178,84.3292969 L24.6040053,84.3292969 L24.6040053,77.5753906 L26.2446303,77.5753906 C28.8058282,77.5753906 30.0864271,78.5825521 30.0864271,80.596875 C30.0864271,81.7453125 29.669435,82.6544922 28.8354506,83.3244141 C28.0014662,83.9943359 26.8644219,84.3292969 25.4243178,84.3292969 L25.4243178,84.3292969 Z M45.2287137,95.5402344 C47.3979845,95.5402344 49.125198,95.0434896 50.4103543,94.05 C51.3491564,93.3299479 51.9962918,92.480013 52.3517605,91.5001953 C52.7072293,90.5203776 52.8849637,89.096224 52.8849637,87.2277344 L52.8849637,87.2277344 L52.8849637,74.8 L49.2209012,74.8 L49.2209012,87.5011719 C49.2209012,89.3423177 48.913284,90.6776042 48.2980496,91.5070312 C47.6828152,92.3364583 46.687047,92.7511719 45.3107449,92.7511719 C43.8706408,92.7511719 42.827021,92.3159505 42.1798855,91.4455078 C41.5327501,90.5750651 41.2091824,89.160026 41.2091824,87.2003906 L41.2091824,87.2003906 L41.2091824,74.8 L36.9982449,74.8 L36.9982449,87.1867187 C36.9982449,88.9731771 37.1919298,90.3654297 37.5792996,91.3634766 C37.9666694,92.3615234 38.6479845,93.2251302 39.6232449,93.9542969 C41.0360053,95.0115885 42.9044949,95.5402344 45.2287137,95.5402344 Z M63.6006877,95.034375 C65.6696981,95.034375 67.2579143,94.6037109 68.3653361,93.7423828 C69.472758,92.8810547 70.0264689,91.64375 70.0264689,90.0304687 C70.0264689,87.2414062 68.1351929,85.3865885 64.3526408,84.4660156 C67.5883179,83.4542969 69.2061564,81.7316406 69.2061564,79.2980469 C69.2061564,77.830599 68.675232,76.7140625 67.613383,75.9484375 C66.5515341,75.1828125 65.0043335,74.8 62.9717814,74.8 L62.9717814,74.8 L56.0948283,74.8 L56.0948283,95.034375 L63.6006877,95.034375 Z M61.0577189,83.221875 L60.0596721,83.221875 L60.0596721,77.5753906 L60.9073283,77.5753906 C62.4659221,77.5753906 63.5254924,77.7417318 64.0860393,78.0744141 C64.6465861,78.4070964 64.9268596,79.0382812 64.9268596,79.9679687 C64.9268596,80.9705729 64.5782268,81.7635417 63.8809611,82.346875 C63.1836955,82.9302083 62.2426148,83.221875 61.0577189,83.221875 L61.0577189,83.221875 Z M60.9620158,92.1632812 L60.0596721,92.1632812 L60.0596721,85.9289062 L60.8799846,85.9289062 C62.2471721,85.9289062 63.3796591,86.2707031 64.2774455,86.9542969 C65.175232,87.6378906 65.6241252,88.4946615 65.6241252,89.5246094 C65.6241252,90.5272135 65.2891643,91.2176432 64.6192424,91.5958984 C63.9493205,91.9741536 62.730245,92.1632812 60.9620158,92.1632812 L60.9620158,92.1632812 Z" id="ePUB" fill="#FFFFFF"></path>
            </g>
        </g>
    </g>
</svg>