<?xml version="1.0" encoding="UTF-8"?>
<svg width="100px" height="100px" viewBox="0 0 100 100" version="1.1" xmlns="http://www.w3.org/2000/svg" xmlns:xlink="http://www.w3.org/1999/xlink">
    <!-- Generator: sketchtool 63.1 (101010) - https://sketch.com -->
    <title>file/cmd</title>
    <desc>Created with sketchtool.</desc>
    <defs>
        <path d="M27.9273438,95.0460937 C30.6434896,95.0460937 32.9813802,94.6085937 34.9410156,93.7335937 L34.9410156,93.7335937 L34.9410156,90.6300781 C32.9175781,91.6326823 30.9123698,92.1339844 28.9253906,92.1339844 C26.7105469,92.1339844 24.9810547,91.4503906 23.7369141,90.0832031 C22.4927734,88.7160156 21.8707031,86.8110677 21.8707031,84.3683594 C21.8707031,81.8800781 22.4494792,79.9591797 23.6070313,78.6056641 C24.7645833,77.2521484 26.4097656,76.5753906 28.5425781,76.5753906 C30.2105469,76.5753906 32.2795573,77.0083333 34.7496094,77.8742187 L34.7496094,77.8742187 L34.7496094,74.5792969 C32.571224,74.0597656 30.3791667,73.8 28.1734375,73.8 C24.7190104,73.8 22.0598307,74.7182943 20.1958984,76.5548828 C18.3319661,78.3914714 17.4,81.0141927 17.4,84.4230469 C17.4,87.768099 18.3251302,90.3748698 20.1753906,92.2433594 C22.025651,94.111849 24.6096354,95.0460937 27.9273438,95.0460937 Z M42.0290053,94.5402344 L42.0290053,79.0636719 L46.868849,93.1867187 L50.259474,93.1867187 L55.1950209,79.26875 L55.1950209,94.5402344 L59.0778334,94.5402344 L59.0778334,74.3058594 L54.1833022,74.3058594 L49.165724,88.5382812 L44.2985365,74.3058594 L38.7204115,74.3058594 L38.7204115,94.5402344 L42.0290053,94.5402344 Z M72.5916043,94.5402344 C75.7725939,94.5402344 78.2472033,93.6173828 80.0154324,91.7716797 C81.7836616,89.9259766 82.6677762,87.3351562 82.6677762,83.9992187 C82.6677762,80.8638021 81.8337918,78.464388 80.165823,76.8009766 C78.4978543,75.1375651 76.0961616,74.3058594 72.9607449,74.3058594 L72.9607449,74.3058594 L64.2517606,74.3058594 L64.2517606,94.5402344 L72.5916043,94.5402344 Z M71.6072293,91.6691406 L68.4626981,91.6691406 L68.4626981,77.08125 L71.0056668,77.08125 C72.6280626,77.08125 73.8630887,77.2498698 74.7107449,77.5871094 C75.5584012,77.924349 76.2830105,78.535026 76.884573,79.4191406 C77.759573,80.7042969 78.197073,82.3130208 78.197073,84.2453125 C78.197073,86.7427083 77.6524767,88.604362 76.563284,89.8302734 C75.4740913,91.0561849 73.822073,91.6691406 71.6072293,91.6691406 L71.6072293,91.6691406 Z" id="path-1"></path>
        <filter x="-5.0%" y="-15.3%" width="110.0%" height="130.6%" filterUnits="objectBoundingBox" id="filter-2">
            <feMorphology radius="0.75" operator="dilate" in="SourceAlpha" result="shadowSpreadOuter1"></feMorphology>
            <feOffset dx="0" dy="0" in="shadowSpreadOuter1" result="shadowOffsetOuter1"></feOffset>
            <feGaussianBlur stdDeviation="0.5" in="shadowOffsetOuter1" result="shadowBlurOuter1"></feGaussianBlur>
            <feComposite in="shadowBlurOuter1" in2="SourceAlpha" operator="out" result="shadowBlurOuter1"></feComposite>
            <feColorMatrix values="0 0 0 0 0   0 0 0 0 0   0 0 0 0 0  0 0 0 0.5 0" type="matrix" in="shadowBlurOuter1"></feColorMatrix>
        </filter>
    </defs>
    <g id="Icons" stroke="none" stroke-width="1" fill="none" fill-rule="evenodd">
        <g id="file/cmd" fill-rule="nonzero">
            <g id="file/CMD-file">
                <g id="file/Generic" transform="translate(11.600000, 0.000000)">
                    <path d="M2.61298605,0.35 C1.96958864,0.35 1.38973044,0.622147396 0.982468862,1.15819653 C0.582990653,1.68400098 0.35,2.44982223 0.35,3.43928571 L0.35,98.2142857 C0.35,98.4892682 0.690676045,98.8710479 1.12711718,99.1693117 C1.52847064,99.4435966 2.04637395,99.65 2.61298605,99.65 L74.187014,99.65 C74.753626,99.65 75.2715294,99.4435966 75.6728828,99.1693117 C76.109324,98.8710479 76.45,98.4892682 76.45,98.2142857 L76.45,23.175 C76.45,22.1127933 76.3483774,21.7413747 76.0927705,21.4842571 L55.3110845,0.706438964 C55.0185135,0.415697474 54.5234583,0.35 2.61298605,0.35 Z" id="Path" stroke="#626262" stroke-width="0.7" fill="#E9E9E0"></path>
                    <polygon id="Path" fill="#B5B3A6" points="54.6 1.4330168 54.6 22.2 75.276405 22.1763331"></polygon>
                </g>
                <path d="M85.4822791,98.6 L14.5177209,98.6 C13.1272093,98.6 13,98.4903529 13,97.1215059 L13,69.8 L87,69.8 L87,97.1215059 C87,98.4903529 86.8727907,98.6 85.4822791,98.6 Z" id="Path" fill="#E70000"></path>
                <g id="CMD">
                    <use fill="black" fill-opacity="1" filter="url(#filter-2)" xlink:href="#path-1"></use>
                    <use stroke="#979797" stroke-width="0.5" fill="#FFFFFF" xlink:href="#path-1"></use>
                </g>
                <path d="M21.6973085,27.1866695 C20.7163444,27.0118417 20,26.1571591 20,25.1591642 L20,22.8985552 C20,21.9005604 20.7162822,21.0458466 21.6973085,20.8710499 L24.3707326,20.4048424 C24.6863928,19.241748 25.1525947,18.1223527 25.7572357,17.0782344 L24.191087,14.8540517 C23.6180364,14.0357643 23.7151693,12.9236419 24.4217606,12.2194821 L26.0243356,10.6169094 L26.0243356,10.6144814 C26.7284964,9.91032162 27.8381962,9.81316398 28.6540605,10.3838082 L30.8782464,11.9572274 C31.9223661,11.3550427 33.041763,10.8912906 34.2048591,10.5779991 L34.6710673,7.9045789 C34.8434649,6.91876763 35.698155,6.20242428 36.6985755,6.2 L38.9664606,6.2 C39.9620326,6.20485664 40.811899,6.91870546 40.986696,7.89730606 L41.4529042,10.5707263 C42.6184246,10.8863861 43.7402457,11.3525873 44.7843655,11.9572274 L47.0037028,10.3959296 C47.8195671,9.82531024 48.9292669,9.9224368 49.6334277,10.6266028 L51.2432755,12.224327 C51.9498606,12.930911 52.0470184,14.0430335 51.4739491,14.8613208 L49.9126491,17.080655 L49.9126491,17.0782263 C50.3667172,17.8843923 50.7406348,18.7342575 51.0247731,19.6156383 C50.3618872,20.43635 49.9175598,21.4124641 49.7330035,22.4493096 L49.51447,23.6925295 L48.8491599,23.9669144 L47.8244965,23.2530575 C46.7682553,22.5076228 45.5055771,22.1118437 44.2138075,22.114268 C44.0098446,22.114268 43.8155912,22.1506906 43.5921967,22.1701159 C42.9511915,20.1377621 41.2975823,18.5885857 39.2263748,18.0811033 C37.1575916,17.5736147 34.9746807,18.1830846 33.466777,19.6885246 C31.9588734,21.1940018 31.3469596,23.3769096 31.8495942,25.4456898 C32.354653,27.5144699 33.9014074,29.1729254 35.9337641,29.8163539 C35.7856467,31.3072233 36.1790083,32.8030034 37.0385531,34.0316155 L37.7597461,35.0562774 C37.6674742,35.2748106 37.572778,35.4982048 37.4853608,35.7215866 L36.2421391,35.9401198 L36.2445671,35.9376918 C35.2052959,36.1246596 34.2291803,36.5689989 33.4084674,37.2318838 C32.5294475,36.9453589 31.6796433,36.5738474 30.8734761,36.1197613 L28.6492902,37.6810591 L28.6468622,37.6786311 C27.8309979,38.24682 26.7262089,38.1472691 26.0244102,37.4430969 L24.4218352,35.8405242 C23.7152501,35.1339401 23.6180923,34.0218177 24.1911616,33.2035303 L25.7573102,30.9841962 C25.1551247,29.9400779 24.6913719,28.8231069 24.37808,27.6600125 L21.6973085,27.1866695 Z M79.9975714,42.1053092 L79.9975714,44.9826796 L80,44.9826796 C79.9975714,46.2477803 79.0869779,47.330687 77.8413319,47.5516694 L74.4540499,48.1732793 C74.053403,49.6399059 73.4633265,51.0482255 72.7009207,52.3618739 L74.6774568,55.1834238 C75.4325897,56.2323906 75.3087648,57.6747123 74.3860767,58.5779738 L72.3779628,60.5860848 C71.4819729,61.4820735 70.071227,61.6058982 69.03438,60.8774645 L66.161854,58.9009312 C64.8360823,59.6682466 63.4131528,60.2558545 61.9344027,60.6540579 L61.3127918,64.041335 C61.0942583,65.2869793 60.011263,66.1975757 58.7462227,66.2 L55.9246687,66.2 C54.6595663,66.1975714 53.5766579,65.2869793 53.3556753,64.041335 L52.7340644,60.6540579 C51.2577386,60.2558421 49.8397198,59.6658223 48.513886,58.9009312 L45.716637,60.8774645 C44.6797901,61.6059292 43.2690442,61.4820797 42.3730542,60.5860848 L40.3406975,58.5779738 C39.4325861,57.6771366 39.3111855,56.2493606 40.0541721,55.2076666 L42.0307083,52.3618739 C41.2658161,51.0361041 40.675783,49.6180253 40.2775791,48.1417016 L36.8902971,47.5200916 C35.644651,47.2991279 34.7340533,46.2185646 34.7340533,44.9511018 L34.7340533,42.1247034 C34.7340533,40.8596027 35.6397403,39.7791203 36.8829621,39.5557136 L40.2702441,38.9341037 L40.2726721,38.9341037 C40.6684642,37.4553557 41.2584848,36.0348525 42.0258013,34.7090827 L40.0541137,31.9166864 C39.3280722,30.8798409 39.4494977,29.4690971 40.3454938,28.5731084 L42.3778506,26.5407546 C43.2762648,25.6496145 44.6821621,25.5282141 45.7165848,26.2542297 L48.5381387,28.2307629 C49.8639104,27.4658719 51.2819913,26.8758397 52.7607414,26.4776363 L53.3823523,23.0903592 C53.6008858,21.8447149 54.6838812,20.9341185 55.9489215,20.9341185 L58.8262961,20.9341185 C60.0840635,20.9438311 61.1549126,21.8471392 61.3758953,23.0830242 L61.9975062,26.4703013 L61.9975062,26.4727293 C63.4544377,26.8758061 64.8554865,27.4682999 66.1618018,28.2307045 L69.0075985,26.2541712 C70.0468698,25.5281308 71.4576157,25.6495561 72.3536056,26.5455509 L74.3859624,28.5779048 C75.2819523,29.4738934 75.4057772,30.8846373 74.6773425,31.923907 L72.7008063,34.7454569 C73.4681228,36.0712267 74.0557316,37.4917298 74.4539355,38.9729021 L77.8412175,39.594512 C79.0747422,39.810621 79.9780049,40.8717341 80,42.1246512 L79.9975714,42.1053092 Z M65.1298823,43.5670872 C65.1298823,40.4250352 63.2383204,37.5937882 60.336703,36.3943296 C57.4350234,35.1923845 54.0963514,35.8552756 51.8772005,38.0770278 C49.6554389,40.2963619 48.9925531,43.6350913 50.1944999,46.5365181 C51.3940224,49.4381935 54.2252735,51.3296905 57.3672678,51.3296905 C59.4263539,51.3296905 61.4004657,50.5114031 62.8573351,49.0569601 C64.3117803,47.6000306 65.1300688,45.6259838 65.1300688,43.5669007 L65.1298823,43.5670872 Z" id="Shape" fill="#E70000"></path>
            </g>
        </g>
    </g>
</svg>