<?xml version="1.0" encoding="UTF-8"?>
<svg width="100px" height="100px" viewBox="0 0 100 100" version="1.1" xmlns="http://www.w3.org/2000/svg" xmlns:xlink="http://www.w3.org/1999/xlink">
    <!-- Generator: sketchtool 63.1 (101010) - https://sketch.com -->
    <title>file/css</title>
    <desc>Created with sketchtool.</desc>
    <defs>
        <path d="M24.5273438,95.6460938 C27.2434896,95.6460938 29.5813802,95.2085938 31.5410156,94.3335938 L31.5410156,94.3335938 L31.5410156,91.2300781 C29.5175781,92.2326823 27.5123698,92.7339844 25.5253906,92.7339844 C23.3105469,92.7339844 21.5810547,92.0503906 20.3369141,90.6832031 C19.0927734,89.3160156 18.4707031,87.4110677 18.4707031,84.9683594 C18.4707031,82.4800781 19.0494792,80.5591797 20.2070312,79.2056641 C21.3645833,77.8521484 23.0097656,77.1753906 25.1425781,77.1753906 C26.8105469,77.1753906 28.8795573,77.6083333 31.3496094,78.4742188 L31.3496094,78.4742188 L31.3496094,75.1792969 C29.171224,74.6597656 26.9791667,74.4 24.7734375,74.4 C21.3190104,74.4 18.6598307,75.3182943 16.7958984,77.1548828 C14.9319661,78.9914714 14,81.6141927 14,85.0230469 C14,88.368099 14.9251302,90.9748698 16.7753906,92.8433594 C18.625651,94.711849 21.2096354,95.6460938 24.5273438,95.6460938 Z M39.8458021,95.6460938 C42.2976251,95.6460938 44.2208021,95.1128906 45.6153334,94.0464844 C47.0098646,92.9800781 47.7071303,91.5080729 47.7071303,89.6304688 C47.7071303,88.3088542 47.3379896,87.1877604 46.5997084,86.2671875 C45.8614271,85.3466146 44.5170261,84.3394531 42.5665053,83.2457031 L42.5665053,83.2457031 L41.1172865,82.4390625 C40.0326511,81.8283854 39.2943699,81.3134115 38.9024428,80.8941406 C38.5105157,80.4748698 38.3145521,79.9872396 38.3145521,79.43125 C38.3145521,78.7567708 38.5948256,78.2121745 39.1553725,77.7974609 C39.7159193,77.3827474 40.4610365,77.1753906 41.390724,77.1753906 C42.593849,77.1753906 44.2299167,77.5627604 46.2989271,78.3375 L46.2989271,78.3375 L46.2989271,75.0972656 C44.2754896,74.6324219 42.4571303,74.4 40.843849,74.4 C38.8295261,74.4 37.2094089,74.9058594 35.9834975,75.9175781 C34.757586,76.9292969 34.1446303,78.2691406 34.1446303,79.9371094 C34.1446303,81.1858073 34.5183282,82.2772786 35.265724,83.2115234 C36.0131199,84.1457682 37.2937188,85.1233073 39.1075209,86.1441406 L39.1075209,86.1441406 L40.4610365,86.8960938 C41.5547865,87.5158854 42.2976251,88.0513672 42.6895521,88.5025391 C43.0814792,88.9537109 43.2774428,89.5074219 43.2774428,90.1636719 C43.2774428,90.993099 42.9652683,91.649349 42.3409193,92.1324219 C41.7165704,92.6154948 40.8620782,92.8570313 39.7774428,92.8570313 C38.2279636,92.8570313 36.3640313,92.4013021 34.1856459,91.4898438 L34.1856459,91.4898438 L34.1856459,94.9625 C36.3366876,95.4182292 38.2234063,95.6460938 39.8458021,95.6460938 Z M55.9572293,95.6460938 C58.4090522,95.6460938 60.3322293,95.1128906 61.7267606,94.0464844 C63.1212918,92.9800781 63.8185574,91.5080729 63.8185574,89.6304688 C63.8185574,88.3088542 63.4494168,87.1877604 62.7111356,86.2671875 C61.9728543,85.3466146 60.6284533,84.3394531 58.6779324,83.2457031 L58.6779324,83.2457031 L57.2287137,82.4390625 C56.1440783,81.8283854 55.405797,81.3134115 55.0138699,80.8941406 C54.6219428,80.4748698 54.4259793,79.9872396 54.4259793,79.43125 C54.4259793,78.7567708 54.7062527,78.2121745 55.2667996,77.7974609 C55.8273465,77.3827474 56.5724637,77.1753906 57.5021512,77.1753906 C58.7052762,77.1753906 60.3413439,77.5627604 62.4103543,78.3375 L62.4103543,78.3375 L62.4103543,75.0972656 C60.3869168,74.6324219 58.5685574,74.4 56.9552762,74.4 C54.9409533,74.4 53.3208361,74.9058594 52.0949246,75.9175781 C50.8690132,76.9292969 50.2560574,78.2691406 50.2560574,79.9371094 C50.2560574,81.1858073 50.6297553,82.2772786 51.3771512,83.2115234 C52.124547,84.1457682 53.405146,85.1233073 55.2189481,86.1441406 L55.2189481,86.1441406 L56.5724637,86.8960938 C57.6662137,87.5158854 58.4090522,88.0513672 58.8009793,88.5025391 C59.1929064,88.9537109 59.3888699,89.5074219 59.3888699,90.1636719 C59.3888699,90.993099 59.0766954,91.649349 58.4523465,92.1324219 C57.8279975,92.6154948 56.9735053,92.8570313 55.8888699,92.8570313 C54.3393908,92.8570313 52.4754585,92.4013021 50.2970731,91.4898438 L50.2970731,91.4898438 L50.2970731,94.9625 C52.4481147,95.4182292 54.3348335,95.6460938 55.9572293,95.6460938 Z" id="path-1"></path>
        <filter x="-6.5%" y="-15.3%" width="113.0%" height="130.6%" filterUnits="objectBoundingBox" id="filter-2">
            <feMorphology radius="0.75" operator="dilate" in="SourceAlpha" result="shadowSpreadOuter1"></feMorphology>
            <feOffset dx="0" dy="0" in="shadowSpreadOuter1" result="shadowOffsetOuter1"></feOffset>
            <feGaussianBlur stdDeviation="0.5" in="shadowOffsetOuter1" result="shadowBlurOuter1"></feGaussianBlur>
            <feComposite in="shadowBlurOuter1" in2="SourceAlpha" operator="out" result="shadowBlurOuter1"></feComposite>
            <feColorMatrix values="0 0 0 0 0   0 0 0 0 0   0 0 0 0 0  0 0 0 0.5 0" type="matrix" in="shadowBlurOuter1"></feColorMatrix>
        </filter>
    </defs>
    <g id="Icons" stroke="none" stroke-width="1" fill="none" fill-rule="evenodd">
        <g id="file/css">
            <g id="file/CSS" transform="translate(11.000000, 0.000000)">
                <g id="file/Generic" transform="translate(0.600000, 0.000000)" fill-rule="nonzero">
                    <path d="M2.6197907,0.7 C2.08432087,0.7 1.60148749,0.925552295 1.26246124,1.37062913 C0.899242095,1.84746662 0.7,2.54541679 0.7,3.43928571 L0.7,98.2142857 C0.7,98.4219706 1.02135892,98.6719997 1.32631774,98.8798672 C1.67570244,99.1180164 2.12595689,99.3 2.6197907,99.3 L74.3802093,99.3 C74.8740431,99.3 75.3242976,99.1180164 75.6736823,98.8798672 C75.9786411,98.6719997 76.3,98.4219706 76.3,98.2142857 L76.3,23.175 C76.3,22.2940249 76.2627746,21.9511535 76.0440018,21.7316593 L55.208948,0.954592537 C54.9177345,0.665954069 54.327752,0.7 2.6197907,0.7 Z" id="Path" stroke="#626262" stroke-width="1.4" fill="#E9E9E0"></path>
                    <polygon id="Path" fill="#B5B3A6" points="54.7421875 1.4330168 54.7421875 22.2 75.4724373 22.1763331"></polygon>
                </g>
                <path d="M74.4822791,98.6 L3.51772093,98.6 C2.1272093,98.6 2,98.4903529 2,97.1215059 L2,69.8 L76,69.8 L76,97.1215059 C76,98.4903529 75.8727907,98.6 74.4822791,98.6 Z" id="Path" fill="#0096E6" fill-rule="nonzero"></path>
                <g id="Group" stroke-width="1" fill-rule="evenodd" transform="translate(17.000000, 21.200000)" fill="#0096E6">
                    <path d="M11.8571429,14.28 L11.8571429,6.12 C11.8571429,4.99596 12.9195429,4.08 14.2285714,4.08 C15.5399714,4.08 16.6,3.16608 16.6,2.04 C16.6,0.91392 15.5399714,0 14.2285714,0 C10.3062286,0 7.11428571,2.74584 7.11428571,6.12 L7.11428571,14.28 C7.11428571,16.53012 4.98711429,18.36 2.37142857,18.36 C1.06002857,18.36 0,19.27392 0,20.4 C0,21.52608 1.06002857,22.44 2.37142857,22.44 C4.98711429,22.44 7.11428571,24.26988 7.11428571,26.52 L7.11428571,34.68 C7.11428571,38.05416 10.3062286,40.8 14.2285714,40.8 C15.5399714,40.8 16.6,39.88608 16.6,38.76 C16.6,37.63392 15.5399714,36.72 14.2285714,36.72 C12.9195429,36.72 11.8571429,35.80404 11.8571429,34.68 L11.8571429,26.52 C11.8571429,24.072 10.5718286,21.89736 8.57982857,20.4 C10.5718286,18.90264 11.8571429,16.728 11.8571429,14.28 Z" id="Path" fill-rule="nonzero"></path>
                    <path d="M41.6285714,18.36 C39.0128857,18.36 36.8857143,16.53012 36.8857143,14.28 L36.8857143,6.12 C36.8857143,2.74584 33.6937714,0 29.7714286,0 C28.4600286,0 27.4,0.91392 27.4,2.04 C27.4,3.16608 28.4600286,4.08 29.7714286,4.08 C31.0804571,4.08 32.1428571,4.99596 32.1428571,6.12 L32.1428571,14.28 C32.1428571,16.728 33.4281714,18.90264 35.4201714,20.4 C33.4281714,21.89736 32.1428571,24.072 32.1428571,26.52 L32.1428571,34.68 C32.1428571,35.80404 31.0804571,36.72 29.7714286,36.72 C28.4600286,36.72 27.4,37.63392 27.4,38.76 C27.4,39.88608 28.4600286,40.8 29.7714286,40.8 C33.6937714,40.8 36.8857143,38.05416 36.8857143,34.68 L36.8857143,26.52 C36.8857143,24.26988 39.0128857,22.44 41.6285714,22.44 C42.9399714,22.44 44,21.52608 44,20.4 C44,19.27392 42.9399714,18.36 41.6285714,18.36 Z" id="Path" fill-rule="nonzero"></path>
                </g>
                <g id="CSS" fill-rule="nonzero">
                    <use fill="black" fill-opacity="1" filter="url(#filter-2)" xlink:href="#path-1"></use>
                    <use stroke="#979797" stroke-width="0.5" fill="#FFFFFF" xlink:href="#path-1"></use>
                </g>
            </g>
        </g>
    </g>
</svg>