<?xml version="1.0" encoding="UTF-8"?>
<svg width="100px" height="100px" viewBox="0 0 100 100" version="1.1" xmlns="http://www.w3.org/2000/svg" xmlns:xlink="http://www.w3.org/1999/xlink">
    <!-- Generator: sketchtool 63.1 (101010) - https://sketch.com -->
    <title>file/exe</title>
    <desc>Created with sketchtool.</desc>
    <defs>
        <path d="M54.4476279,0 L2.61298605,0 C1.16986047,0 0,1.16964286 0,3.43928571 L0,98.2142857 C0,98.8303571 1.16986047,100 2.61298605,100 L74.187014,100 C75.6301395,100 76.8,98.8303571 76.8,98.2142857 L76.8,23.175 C76.8,21.9321429 76.6338977,21.5321429 76.340986,21.2375 L55.5585488,0.458928571 C55.2638512,0.166071429 54.8637767,0 54.4476279,0 Z" id="path-1"></path>
        <path d="M29.2890625,94.434375 L29.2890625,91.5632813 L20.2109375,91.5632813 L20.2109375,85.3289063 L27.1289062,85.3289063 L27.1289062,82.621875 L20.2109375,82.621875 L20.2109375,76.9753906 L28.6464844,76.9753906 L28.6464844,74.2 L16,74.2 L16,94.434375 L29.2890625,94.434375 Z M34.4766615,94.434375 L39.1797865,87.2019531 L43.5684584,94.434375 L48.4629897,94.434375 L42.0372084,83.7429688 L48.2442397,74.2 L44.8399428,74.2 L40.3829115,81.0085938 L36.2676772,74.2 L31.359474,74.2 L37.5528334,84.4675781 L31.0723647,94.434375 L34.4766615,94.434375 Z M65.0119168,94.434375 L65.0119168,91.5632813 L55.9337918,91.5632813 L55.9337918,85.3289063 L62.8517605,85.3289063 L62.8517605,82.621875 L55.9337918,82.621875 L55.9337918,76.9753906 L64.3693387,76.9753906 L64.3693387,74.2 L51.7228543,74.2 L51.7228543,94.434375 L65.0119168,94.434375 Z" id="path-3"></path>
        <filter x="-6.1%" y="-14.8%" width="112.2%" height="129.7%" filterUnits="objectBoundingBox" id="filter-4">
            <feMorphology radius="0.5" operator="dilate" in="SourceAlpha" result="shadowSpreadOuter1"></feMorphology>
            <feOffset dx="0" dy="0" in="shadowSpreadOuter1" result="shadowOffsetOuter1"></feOffset>
            <feGaussianBlur stdDeviation="0.5" in="shadowOffsetOuter1" result="shadowBlurOuter1"></feGaussianBlur>
            <feColorMatrix values="0 0 0 0 0   0 0 0 0 0   0 0 0 0 0  0 0 0 0.5 0" type="matrix" in="shadowBlurOuter1"></feColorMatrix>
        </filter>
    </defs>
    <g id="Icons" stroke="none" stroke-width="1" fill="none" fill-rule="evenodd">
        <g id="file/exe">
            <g id="file/EXE" transform="translate(11.000000, 0.000000)">
                <g id="file/Generic" transform="translate(0.600000, 0.000000)">
                    <mask id="mask-2" fill="white">
                        <use xlink:href="#path-1"></use>
                    </mask>
                    <path stroke="#626262" stroke-width="1.4" d="M2.61298605,0.7 C2.07959922,0.7 1.59881136,0.925504223 1.26115963,1.36993093 C0.898761638,1.84692936 0.7,2.54509637 0.7,3.43928571 L0.7,98.2142857 C0.7,98.4219545 1.02021186,98.6723283 1.32459696,98.880345 C1.67260844,99.118176 2.12107086,99.3 2.61298605,99.3 L74.187014,99.3 C74.6789291,99.3 75.1273916,99.118176 75.475403,98.880345 C75.7797881,98.6723283 76.1,98.4219545 76.1,98.2142857 L76.1,23.175 C76.1,22.2934437 76.0628571,21.9506065 75.844555,21.7310142 L55.0636201,0.953949356 C54.7731758,0.665323519 54.1831398,0.7 2.61298605,0.7 Z"></path>
                    <polygon id="Path" fill="#B5B3A6" fill-rule="nonzero" mask="url(#mask-2)" points="54.6 1.4330168 54.6 22.2 75.276405 22.1763331"></polygon>
                </g>
                <g id="Group" stroke-width="1" fill-rule="evenodd" transform="translate(11.200000, 22.800000)" fill="#B13B00">
                    <g id="Group-3" fill-rule="nonzero">
                        <path d="M40.6740784,40.6556516 C40.4277806,40.6556516 40.176507,40.6183337 39.9302092,40.5412101 C38.6191084,40.1307137 37.8876784,38.7350258 38.2981748,37.4239251 L49.9634607,1.74621028 C50.3739571,0.435109554 51.769645,-0.296320454 53.0807457,0.114175979 C54.3918465,0.524672412 55.1232765,1.92036028 54.71278,3.23146101 L43.0474942,38.9091758 C42.7166092,39.9739787 41.7339056,40.6556516 40.6740784,40.6556516 Z" id="Path"></path>
                        <g id="Group-2" transform="translate(28.895999, 9.030000)">
                            <circle id="Oval" cx="3.73178575" cy="3.73178575" r="3.73178575"></circle>
                            <circle id="Oval" cx="3.73178575" cy="18.6957853" r="3.73178575"></circle>
                        </g>
                        <path d="M22.3907145,37.6680003 L17.4150002,37.6680003 C7.81187151,37.6680003 -5.31628059e-14,29.8561288 -5.31628059e-14,20.2530001 C-5.31628059e-14,10.6498714 7.81187151,2.83799992 17.4150002,2.83799992 L22.3907145,2.83799992 C23.7640117,2.83799992 24.8785717,3.95255993 24.8785717,5.32585708 C24.8785717,6.69915424 23.7640117,7.81371425 22.3907145,7.81371425 L17.4150002,7.81371425 C10.555978,7.81371425 4.97571434,13.3939779 4.97571434,20.2530001 C4.97571434,27.1120223 10.555978,32.6922859 17.4150002,32.6922859 L22.3907145,32.6922859 C23.7640117,32.6922859 24.8785717,33.8068459 24.8785717,35.1801431 C24.8785717,36.5534403 23.7640117,37.6680003 22.3907145,37.6680003 Z" id="Path"></path>
                    </g>
                </g>
                <path d="M74.4822791,98.6 L3.51772093,98.6 C2.1272093,98.6 2,98.4903529 2,97.1215059 L2,69.8 L76,69.8 L76,97.1215059 C76,98.4903529 75.8727907,98.6 74.4822791,98.6 Z" id="Path" fill="#B13B00" fill-rule="nonzero"></path>
                <g id="EXE" fill-rule="nonzero">
                    <use fill="black" fill-opacity="1" filter="url(#filter-4)" xlink:href="#path-3"></use>
                    <use fill="#FFFFFF" xlink:href="#path-3"></use>
                </g>
            </g>
        </g>
    </g>
</svg>