<?xml version="1.0" encoding="UTF-8"?>
<svg width="100px" height="100px" viewBox="0 0 100 100" version="1.1" xmlns="http://www.w3.org/2000/svg" xmlns:xlink="http://www.w3.org/1999/xlink">
    <!-- Generator: sketchtool 63.1 (101010) - https://sketch.com -->
    <title>file/file_generic</title>
    <desc>Created with sketchtool.</desc>
    <g id="Icons" stroke="none" stroke-width="1" fill="none" fill-rule="evenodd">
        <g id="file/file_generic">
            <g id="Files/File">
                <rect id="Rectangle" fill="#FFFFFF" x="18.6" y="28" width="62.4" height="60.8"></rect>
                <rect id="Rectangle-Copy" fill="#FFFFFF" x="18.6" y="11.4" width="45.8" height="18.6"></rect>
                <g id="Group" stroke-width="1" transform="translate(15.400000, 9.000000)" fill="#AEAEAE">
                    <polygon id="Path" fill-rule="nonzero" points="15.4 45.4 54 45.4 54 49.8 15.4 49.8"></polygon>
                    <polygon id="Path" fill-rule="nonzero" points="15.4 32.4 54 32.4 54 36.8 15.4 36.8"></polygon>
                    <polygon id="Path" fill-rule="nonzero" points="15.4 19.6 38 19.6 38 24 15.4 24"></polygon>
                    <polygon id="Path" fill-rule="nonzero" points="15.4 58.2 54 58.2 54 62.6 15.4 62.6"></polygon>
                    <path d="M67.7929885,19.348005 L49.8882315,1.41283847 C49.0441175,0.567290861 47.6764191,0 46.4832549,0 L6.36828361,0 C2.85644563,0 0,2.86129703 0,6.37909951 L0,75.8209005 C0,79.338703 2.85644563,82.2 6.36828361,82.2 L62.8352391,82.2 C66.3470771,82.2 69.1999834,79.338703 69.1999834,75.8209005 L69.1999834,22.7542892 C69.2035291,21.5626606 68.6372211,20.1926575 67.7930797,19.3470917 L67.7929885,19.348005 Z M64.3061335,75.8213572 C64.3061335,76.6240967 63.6329796,77.2948411 62.8387039,77.2948411 L6.36810125,77.2948411 C5.5738529,77.2948411 4.89711563,76.6241059 4.89711563,75.8249192 L4.89711563,6.37946484 C4.89711563,5.58386754 5.57026958,4.90954291 6.36810125,4.90954291 L45.5038136,4.90954291 L45.5038136,17.856985 C45.5038136,21.1036182 48.1429804,23.7437054 51.3805529,23.7437054 L64.3061335,23.7437054 L64.3061335,75.8213572 Z" id="Shape" fill-rule="nonzero"></path>
                </g>
            </g>
        </g>
    </g>
</svg>