<?xml version="1.0" encoding="UTF-8"?>
<svg width="100px" height="100px" viewBox="0 0 100 100" version="1.1" xmlns="http://www.w3.org/2000/svg" xmlns:xlink="http://www.w3.org/1999/xlink">
    <!-- Generator: sketchtool 63.1 (101010) - https://sketch.com -->
    <title>file/file_json</title>
    <desc>Created with sketchtool.</desc>
    <g id="Icons" stroke="none" stroke-width="1" fill="none" fill-rule="evenodd">
        <g id="file/file_json" fill-rule="nonzero">
            <g id="json-file" transform="translate(11.000000, 0.000000)">
                <path d="M55.3303571,0 L3.50535714,0 C2.0625,0 0.892857143,1.16964286 0.892857143,3.43928571 L0.892857143,98.2142857 C0.892857143,98.8303571 2.0625,100 3.50535714,100 L75.0660714,100 C76.5089286,100 77.6785714,98.8303571 77.6785714,98.2142857 L77.6785714,23.175 C77.6785714,21.9321429 77.5125,21.5321429 77.2196429,21.2375 L56.4410714,0.458928571 C56.1464286,0.166071429 55.7464286,0 55.3303571,0 Z" id="Path" fill="#E9E9E0"></path>
                <polygon id="Path" fill="#D9D7CA" points="56.25 0.269642857 56.25 21.4285714 77.4089286 21.4285714"></polygon>
                <path d="M75.0660714,100 L3.50535714,100 C2.0625,100 0.892857143,98.8303571 0.892857143,97.3875 L0.892857143,69.6428571 L77.6785714,69.6428571 L77.6785714,97.3875 C77.6785714,98.8303571 76.5089286,100 75.0660714,100 Z" id="Path" fill="#9777A8"></path>
                <g id="Group" transform="translate(8.142857, 76.000000)" fill="#FFFFFF">
                    <path d="M11.5375,0.283928571 L11.5375,14.2982143 C11.5375,15.1446429 11.3821429,15.8571429 11.0732143,16.4339286 C10.7642857,17.0107143 10.35,17.475 9.82857143,17.825 C9.30714286,18.175 8.70892857,18.4196429 8.03392857,18.5571429 C7.35892857,18.6946429 6.6625,18.7642857 5.94642857,18.7642857 C5.58928571,18.7642857 5.16785714,18.7267857 4.68928571,18.6535714 C4.21071429,18.5803571 3.7125,18.4678571 3.2,18.3125 C2.6875,18.1571429 2.19464286,17.9821429 1.72321429,17.7875 C1.25178571,17.5928571 0.853571429,17.3732143 0.526785714,17.1285714 L1.77142857,15.1517857 C1.93392857,15.2642857 2.16607143,15.3839286 2.46785714,15.5053571 C2.76964286,15.6267857 3.1,15.7410714 3.45714286,15.8464286 C3.81428571,15.9517857 4.18928571,16.0446429 4.58035714,16.1267857 C4.97142857,16.2089286 5.3375,16.2482143 5.67857143,16.2482143 C6.54107143,16.2482143 7.22857143,16.0803571 7.74107143,15.7482143 C8.25357143,15.4160714 8.525,14.8482143 8.55892857,14.0517857 L8.55892857,0.282142857 L11.5375,0.282142857 L11.5375,0.283928571 Z" id="Path"></path>
                    <path d="M26.1142857,13.7107143 C26.1142857,14.3607143 25.9803571,14.9928571 25.7107143,15.6035714 C25.4410714,16.2142857 25.0642857,16.7517857 24.575,17.2142857 C24.0857143,17.6767857 23.4857143,18.0482143 22.7678571,18.325 C22.05,18.6017857 21.2392857,18.7392857 20.3267857,18.7392857 C19.9357143,18.7392857 19.5339286,18.7178571 19.1178571,18.6785714 C18.7017857,18.6392857 18.2839286,18.5678571 17.8607143,18.4714286 C17.4375,18.3732143 17.0339286,18.2392857 16.6517857,18.0678571 C16.2696429,17.8964286 15.9410714,17.6892857 15.6625,17.4446429 L16.175,15.3446429 C16.4035714,15.475 16.6910714,15.6017857 17.0410714,15.7232143 C17.3910714,15.8446429 17.7517857,15.9589286 18.1267857,16.0642857 C18.5017857,16.1696429 18.875,16.2553571 19.25,16.3214286 C19.625,16.3875 19.9732143,16.4196429 20.3,16.4196429 C21.2928571,16.4196429 22.0535714,16.1875 22.5821429,15.7232143 C23.1107143,15.2589286 23.375,14.5714286 23.375,13.6607143 C23.375,13.1071429 23.1892857,12.6357143 22.8142857,12.2446429 C22.4392857,11.8535714 21.9714286,11.5 21.4107143,11.1821429 C20.85,10.8642857 20.2428571,10.5482143 19.5910714,10.2303571 C18.9392857,9.9125 18.3303571,9.5375 17.7607143,9.10714286 C17.1910714,8.67678571 16.7196429,8.16785714 16.3446429,7.58214286 C15.9696429,6.99642857 15.7839286,6.26428571 15.7839286,5.38571429 C15.7839286,4.58928571 15.9303571,3.88035714 16.2232143,3.2625 C16.5160714,2.64464286 16.9107143,2.11785714 17.4071429,1.6875 C17.9035714,1.25714286 18.4821429,0.926785714 19.1410714,0.698214286 C19.8,0.469642857 20.4964286,0.357142857 21.2285714,0.357142857 C21.9767857,0.357142857 22.7339286,0.426785714 23.4982143,0.564285714 C24.2625,0.701785714 24.8803571,0.926785714 25.3535714,1.23571429 C25.2553571,1.44642857 25.1428571,1.67857143 25.0125,1.93214286 C24.8821429,2.18571429 24.7589286,2.41964286 24.6464286,2.63928571 C24.5339286,2.85892857 24.4357143,3.04285714 24.3535714,3.18928571 C24.2714286,3.33571429 24.2232143,3.41785714 24.2071429,3.43392857 C24.1089286,3.38571429 24,3.32142857 23.8767857,3.23928571 C23.7535714,3.15714286 23.5803571,3.07678571 23.3517857,2.99464286 C23.1232143,2.9125 22.8232143,2.85714286 22.4482143,2.82321429 C22.0732143,2.78928571 21.5928571,2.79821429 21.0071429,2.84821429 C20.6803571,2.88214286 20.3732143,2.97321429 20.0785714,3.12857143 C19.7839286,3.28392857 19.525,3.47321429 19.2964286,3.70178571 C19.0678571,3.93035714 18.8892857,4.18571429 18.7589286,4.47142857 C18.6285714,4.75714286 18.5642857,5.03035714 18.5642857,5.28928571 C18.5642857,5.93928571 18.75,6.46428571 19.125,6.86428571 C19.5,7.26428571 19.9642857,7.6125 20.5160714,7.91428571 C21.0678571,8.21607143 21.6714286,8.50892857 22.3232143,8.79285714 C22.975,9.07678571 23.5803571,9.425 24.1428571,9.83035714 C24.7053571,10.2357143 25.1714286,10.7464286 25.5464286,11.3553571 C25.9214286,11.9642857 26.1142857,12.75 26.1142857,13.7107143 Z" id="Path"></path>
                    <path d="M43.7892857,9.56071429 C43.7892857,11.075 43.5982143,12.4089286 43.2160714,13.5642857 C42.8339286,14.7196429 42.3035714,15.6803571 41.6285714,16.4446429 C40.9535714,17.2089286 40.1642857,17.7875 39.2607143,18.1785714 C38.3571429,18.5696429 37.3678571,18.7642857 36.2946429,18.7642857 C35.2214286,18.7642857 34.2321429,18.5696429 33.3285714,18.1785714 C32.425,17.7875 31.6357143,17.2107143 30.9607143,16.4446429 C30.2857143,15.6785714 29.7553571,14.7196429 29.3732143,13.5642857 C28.9910714,12.4089286 28.8,11.0732143 28.8,9.56071429 C28.8,8.04821429 28.9910714,6.71607143 29.3732143,5.56964286 C29.7553571,4.42321429 30.2857143,3.46607143 30.9607143,2.70178571 C31.6357143,1.9375 32.425,1.35535714 33.3285714,0.955357143 C34.2321429,0.555357143 35.2214286,0.357142857 36.2946429,0.357142857 C37.3678571,0.357142857 38.3571429,0.555357143 39.2607143,0.955357143 C40.1642857,1.35535714 40.9535714,1.93571429 41.6285714,2.70178571 C42.3035714,3.46785714 42.8339286,4.42321429 43.2160714,5.56964286 C43.5982143,6.71607143 43.7892857,8.04642857 43.7892857,9.56071429 Z M36.2214286,16.3732143 C36.8232143,16.3732143 37.3964286,16.2553571 37.9428571,16.0196429 C38.4892857,15.7839286 38.9767857,15.3964286 39.4071429,14.8607143 C39.8375,14.325 40.1767857,13.6196429 40.4196429,12.7482143 C40.6625,11.8767857 40.7946429,10.8160714 40.8107143,9.5625 C40.7946429,8.34107143 40.6678571,7.30357143 40.4321429,6.45 C40.1964286,5.59642857 39.8714286,4.89107143 39.4553571,4.3375 C39.0392857,3.78392857 38.5678571,3.38571429 38.0392857,3.14107143 C37.5107143,2.89642857 36.9535714,2.775 36.3660714,2.775 C35.7642857,2.775 35.1910714,2.8875 34.6446429,3.11607143 C34.0982143,3.34464286 33.6107143,3.73035714 33.1803571,4.275 C32.75,4.81964286 32.4107143,5.52321429 32.1678571,6.3875 C31.9232143,7.25 31.7928571,8.30714286 31.7767857,9.56071429 C31.7928571,10.7821429 31.9196429,11.8232143 32.1553571,12.6857143 C32.3910714,13.5482143 32.7160714,14.2517857 33.1321429,14.7982143 C33.5482143,15.3446429 34.0196429,15.7410714 34.5482143,15.9946429 C35.0767857,16.2482143 35.6357143,16.3732143 36.2214286,16.3732143 Z" id="Shape"></path>
                    <polygon id="Path" points="60.9285714 0.65 60.9285714 18.6428571 57.95 18.6428571 50.8946429 6.24107143 50.8946429 18.6428571 47.9160714 18.6428571 47.9160714 0.65 50.8946429 0.65 57.95 13.0517857 57.95 0.65"></polygon>
                </g>
                <g id="Group" transform="translate(14.285714, 21.428571)" fill="#9777A8">
                    <path d="M9.82142857,12.5 L9.82142857,5.35714286 C9.82142857,4.37321429 10.6214286,3.57142857 11.6071429,3.57142857 C12.5946429,3.57142857 13.3928571,2.77142857 13.3928571,1.78571429 C13.3928571,0.8 12.5946429,0 11.6071429,0 C8.65357143,0 6.25,2.40357143 6.25,5.35714286 L6.25,12.5 C6.25,14.4696429 4.64821429,16.0714286 2.67857143,16.0714286 C1.69107143,16.0714286 0.892857143,16.8714286 0.892857143,17.8571429 C0.892857143,18.8428571 1.69107143,19.6428571 2.67857143,19.6428571 C4.64821429,19.6428571 6.25,21.2446429 6.25,23.2142857 L6.25,30.3571429 C6.25,33.3107143 8.65357143,35.7142857 11.6071429,35.7142857 C12.5946429,35.7142857 13.3928571,34.9142857 13.3928571,33.9285714 C13.3928571,32.9428571 12.5946429,32.1428571 11.6071429,32.1428571 C10.6214286,32.1428571 9.82142857,31.3410714 9.82142857,30.3571429 L9.82142857,23.2142857 C9.82142857,21.0714286 8.85357143,19.1678571 7.35357143,17.8571429 C8.85357143,16.5464286 9.82142857,14.6428571 9.82142857,12.5 Z" id="Path"></path>
                    <circle id="Oval" cx="24.1071429" cy="11.6071429" r="2.67857143"></circle>
                    <path d="M45.5357143,16.0714286 C43.5660714,16.0714286 41.9642857,14.4696429 41.9642857,12.5 L41.9642857,5.35714286 C41.9642857,2.40357143 39.5607143,0 36.6071429,0 C35.6196429,0 34.8214286,0.8 34.8214286,1.78571429 C34.8214286,2.77142857 35.6196429,3.57142857 36.6071429,3.57142857 C37.5928571,3.57142857 38.3928571,4.37321429 38.3928571,5.35714286 L38.3928571,12.5 C38.3928571,14.6428571 39.3607143,16.5464286 40.8607143,17.8571429 C39.3607143,19.1678571 38.3928571,21.0714286 38.3928571,23.2142857 L38.3928571,30.3571429 C38.3928571,31.3410714 37.5928571,32.1428571 36.6071429,32.1428571 C35.6196429,32.1428571 34.8214286,32.9428571 34.8214286,33.9285714 C34.8214286,34.9142857 35.6196429,35.7142857 36.6071429,35.7142857 C39.5607143,35.7142857 41.9642857,33.3107143 41.9642857,30.3571429 L41.9642857,23.2142857 C41.9642857,21.2446429 43.5660714,19.6428571 45.5357143,19.6428571 C46.5232143,19.6428571 47.3214286,18.8428571 47.3214286,17.8571429 C47.3214286,16.8714286 46.5232143,16.0714286 45.5357143,16.0714286 Z" id="Path"></path>
                    <path d="M24.1071429,21.4285714 C23.1196429,21.4285714 22.3214286,22.2285714 22.3214286,23.2142857 L22.3214286,28.5714286 C22.3214286,29.5571429 23.1196429,30.3571429 24.1071429,30.3571429 C25.0946429,30.3571429 25.8928571,29.5571429 25.8928571,28.5714286 L25.8928571,23.2142857 C25.8928571,22.2285714 25.0946429,21.4285714 24.1071429,21.4285714 Z" id="Path"></path>
                </g>
            </g>
        </g>
    </g>
</svg>