<?xml version="1.0" encoding="UTF-8" standalone="no"?>
<svg
   xmlns:dc="http://purl.org/dc/elements/1.1/"
   xmlns:cc="http://creativecommons.org/ns#"
   xmlns:rdf="http://www.w3.org/1999/02/22-rdf-syntax-ns#"
   xmlns:svg="http://www.w3.org/2000/svg"
   xmlns="http://www.w3.org/2000/svg"
   xmlns:xlink="http://www.w3.org/1999/xlink"
   width="32"
   height="32"
   viewBox="0 0 32 32"
   version="1.1"
   id="svg24">
  <metadata
     id="metadata30">
    <rdf:RDF>
      <cc:Work
         rdf:about="">
        <dc:format>image/svg+xml</dc:format>
        <dc:type
           rdf:resource="http://purl.org/dc/dcmitype/StillImage" />
        <dc:title>freeplane</dc:title>
      </cc:Work>
    </rdf:RDF>
  </metadata>
  <defs
     id="defs28">
    <linearGradient
       id="linearGradient887">
      <stop
         style="stop-color:#ffffff;stop-opacity:1;"
         offset="0"
         id="stop883" />
      <stop
         style="stop-color:#ffffff;stop-opacity:0;"
         offset="1"
         id="stop885" />
    </linearGradient>
    <radialGradient
       xlink:href="#linearGradient887"
       id="radialGradient889"
       cx="18.979942"
       cy="16"
       fx="18.979942"
       fy="16"
       r="6.3640018"
       gradientTransform="matrix(1,0,0,0.9999949,-2.9799411,8.164502e-5)"
       gradientUnits="userSpaceOnUse" />
  </defs>
  <!-- Generator: Sketch 63.1 (92452) - https://sketch.com -->
  <title
     id="title10">freeplane</title>
  <desc
     id="desc12">Created with Sketch.</desc>
  <g
     id="freeplane"
     stroke="none"
     stroke-width="1"
     fill="none"
     fill-rule="evenodd"
     transform="matrix(0.0312502,0,0,0.03125004,-0.00159448,-2.0610297e-5)">
    <g
       id="Group-4"
       transform="translate(-43)">
      <g
         id="Group-3">
        <g
           id="Group-2">
          <path
             d="m 368.80281,186.241 c -12.00241,28.28877 -16.76963,48.68835 -19.53945,62.17597 -6.7267,32.75565 -18.81541,122.03284 -15.71712,121.66088 1.16466,-0.76626 10.69399,-19.70099 20.47417,-42.8003 40.51384,-92.31391 102.87095,-152.67112 172.22041,-166.63475 42.46227,-8.60582 72.18098,-0.1226 120.42565,24.75702 27.17063,14.01181 27.42701,6.78912 58.43233,-1.94467 l 35.51552,-7.7744 -9.72508,-23.69558 C 697.85189,78.399074 646.3024,24.324996 587.71415,3.545179 556.48639,-7.2390208 499.67492,7.474523 466.10583,35.559675 429.35484,65.404983 380.80521,157.95222 368.80281,186.241 Z"
             id="Orange-Copy"
             fill="#ff9f00" />
          <path
             d="m 661.06726,333.94511 c -12.00241,28.28878 -16.76963,48.68835 -19.53945,62.17597 -6.7267,32.75565 -18.81541,122.03285 -15.71712,121.66088 1.16466,-0.76625 10.69399,-19.70099 20.47417,-42.8003 40.51385,-92.31391 102.87095,-152.67111 172.22041,-166.63474 42.46227,-8.60583 72.18098,-0.12261 120.42565,24.75702 27.17063,14.01181 27.42702,6.78912 58.43233,-1.94468 l 35.51555,-7.7744 -9.7251,-23.69558 C 990.11634,226.10319 938.56686,172.02911 879.9786,151.24929 c -31.22776,-10.7842 -88.03923,3.92935 -121.60832,32.0145 -36.75099,29.84531 -85.30062,122.39255 -97.30302,150.68132 z"
             id="Orange-Copy-2"
             fill="#ff2828"
             transform="rotate(60,829.09548,332.74362)" />
          <path
             d="m 679.28397,660.90561 c -12.00241,28.28877 -16.76963,48.68835 -19.53945,62.17597 -6.7267,32.75565 -18.81541,122.03284 -15.71712,121.66088 1.16466,-0.76626 10.69399,-19.70099 20.47417,-42.8003 40.51385,-92.31391 102.87095,-152.67111 172.22042,-166.63475 42.46226,-8.60582 72.18097,-0.1226 120.42564,24.75702 27.17063,14.01182 27.42702,6.78913 58.43237,-1.94467 l 35.5155,-7.7744 -9.7251,-23.69558 C 1008.333,553.06369 956.78356,498.98961 898.19531,478.20979 c -31.22776,-10.7842 -88.03923,3.92934 -121.60832,32.0145 -36.75099,29.84531 -85.30062,122.39255 -97.30302,150.68132 z"
             id="Orange-Copy-3"
             fill="#d529ff"
             transform="rotate(120,847.31219,659.70411)" />
          <path
             d="m 405.23623,840.16199 c -12.00241,28.28878 -16.76963,48.68835 -19.53945,62.17597 -6.7267,32.75565 -18.81541,122.03284 -15.71712,121.66084 1.16466,-0.7662 10.69399,-19.7009 20.47417,-42.80026 40.51384,-92.31391 102.87095,-152.67111 172.22041,-166.63474 42.46227,-8.60583 72.18098,-0.12261 120.42565,24.75702 27.17063,14.01181 27.42701,6.78912 58.43233,-1.94468 l 35.51552,-7.77439 -9.72507,-23.69559 c -33.03736,-73.58609 -84.58685,-127.66017 -143.1751,-148.43999 -31.22776,-10.7842 -88.03923,3.92935 -121.60832,32.0145 -36.75099,29.84531 -85.30062,122.39255 -97.30302,150.68132 z"
             id="Orange-Copy-4"
             fill="#288bff"
             transform="rotate(180,573.26445,838.9605)" />
          <path
             d="m 112.97177,692.45788 c -12.0024,28.28877 -16.769622,48.68835 -19.539441,62.17597 -6.726704,32.75565 -18.815409,122.03284 -15.717118,121.66088 1.164659,-0.76626 10.693986,-19.70099 20.474169,-42.8003 40.51384,-92.31391 102.87095,-152.67112 172.22041,-166.63475 42.46227,-8.60582 72.18098,-0.1226 120.42564,24.75702 27.17064,14.01181 27.42702,6.78913 58.43234,-1.94468 l 35.51552,-7.77439 -9.72508,-23.69558 c -33.03735,-73.5861 -84.58684,-127.66017 -143.1751,-148.43999 -31.22776,-10.7842 -88.03922,3.92934 -121.60831,32.0145 -36.751,29.8453 -85.30062,122.39254 -97.30303,150.68132 z"
             id="Orange-Copy-5"
             fill="#3f9e00"
             transform="rotate(-120,281,691.25638)" />
          <path
             d="M 94.755065,365.49738 C 82.75266,393.78615 77.985438,414.18573 75.215619,427.67335 68.488915,460.429 56.40021,549.70619 59.498501,549.33423 c 1.164659,-0.76626 10.693986,-19.70099 20.474169,-42.8003 40.51384,-92.31391 102.87095,-152.67111 172.22041,-166.63475 42.46227,-8.60582 72.18098,-0.1226 120.42564,24.75702 27.17064,14.01182 27.42702,6.78913 58.43234,-1.94467 l 35.51552,-7.7744 -9.72508,-23.69558 C 423.80415,257.65546 372.25466,203.58138 313.6664,182.80156 c -31.22776,-10.7842 -88.03922,3.92934 -121.60831,32.0145 -36.751,29.84531 -85.30062,122.39254 -97.303025,150.68132 z"
             id="Orange-Copy-6"
             fill="#deba00"
             transform="rotate(-60,262.78329,364.29589)" />
        </g>
      </g>
    </g>
  </g>
  <ellipse
     style="fill:#568fa8;fill-opacity:1;fill-rule:evenodd;stroke:none;stroke-width:0.0180001"
     id="path32"
     cx="16"
     cy="16"
     rx="6.3640018"
     ry="6.3639693" />
  <ellipse
     style="fill:url(#radialGradient889);fill-opacity:1;fill-rule:evenodd;stroke:none;stroke-width:0.0180001;stroke-opacity:1"
     id="path32-7"
     cx="16"
     cy="16"
     rx="6.3640018"
     ry="6.3639693" />
</svg>
