<?xml version="1.0" encoding="UTF-8"?>
<svg width="100px" height="100px" viewBox="0 0 100 100" version="1.1" xmlns="http://www.w3.org/2000/svg" xmlns:xlink="http://www.w3.org/1999/xlink">
    <!-- Generator: sketchtool 63.1 (101010) - https://sketch.com -->
    <title>file/html</title>
    <desc>Created with sketchtool.</desc>
    <defs>
        <path d="M8.51205212,92 L8.51205212,83.8817568 L15.8879479,83.8817568 L15.8879479,92 L19.6,92 L19.6,74.2 L15.8879479,74.2 L15.8879479,81.4282432 L8.51205212,81.4282432 L8.51205212,74.2 L4.8,74.2 L4.8,92 L8.51205212,92 Z M32.25084,92 L32.25084,76.6414865 L38.6,76.6414865 L38.6,74.2 L22.2,74.2 L22.2,76.6414865 L28.54916,76.6414865 L28.54916,92 L32.25084,92 Z M44.0929483,92 L44.0929483,78.3854054 L48.3247817,90.8093243 L51.289456,90.8093243 L55.6049698,78.5658108 L55.6049698,92 L59,92 L59,74.2 L54.7203492,74.2 L50.3331095,86.7201351 L46.0773674,74.2 L41.2,74.2 L41.2,92 L44.0929483,92 Z M74.2,92 L74.2,89.4743243 L66.2644103,89.4743243 L66.2644103,74.2 L62.6,74.2 L62.6,92 L74.2,92 Z" id="path-1"></path>
        <filter x="-4.3%" y="-16.9%" width="108.6%" height="133.7%" filterUnits="objectBoundingBox" id="filter-2">
            <feMorphology radius="0.5" operator="dilate" in="SourceAlpha" result="shadowSpreadOuter1"></feMorphology>
            <feOffset dx="0" dy="0" in="shadowSpreadOuter1" result="shadowOffsetOuter1"></feOffset>
            <feGaussianBlur stdDeviation="0.5" in="shadowOffsetOuter1" result="shadowBlurOuter1"></feGaussianBlur>
            <feColorMatrix values="0 0 0 0 0   0 0 0 0 0   0 0 0 0 0  0 0 0 0.5 0" type="matrix" in="shadowBlurOuter1"></feColorMatrix>
        </filter>
    </defs>
    <g id="Icons" stroke="none" stroke-width="1" fill="none" fill-rule="evenodd">
        <g id="file/html">
            <g id="file/HTML" transform="translate(11.000000, 0.000000)">
                <g id="file/Generic" transform="translate(0.600000, 0.000000)" fill-rule="nonzero">
                    <path d="M2.61298605,0.7 C2.07959922,0.7 1.59881136,0.925504223 1.26115963,1.36993093 C0.898761638,1.84692936 0.7,2.54509637 0.7,3.43928571 L0.7,98.2142857 C0.7,98.4219545 1.02021186,98.6723283 1.32459696,98.880345 C1.67260844,99.118176 2.12107086,99.3 2.61298605,99.3 L74.187014,99.3 C74.6789291,99.3 75.1273916,99.118176 75.475403,98.880345 C75.7797881,98.6723283 76.1,98.4219545 76.1,98.2142857 L76.1,23.175 C76.1,22.2934437 76.0628571,21.9506065 75.844555,21.7310142 L55.0636201,0.953949356 C54.7731758,0.665323519 54.1831398,0.7 2.61298605,0.7 Z" id="Path" stroke="#626262" stroke-width="1.4" fill="#E9E9E0"></path>
                    <polygon id="Path" fill="#B5B3A6" points="54.6 1.4330168 54.6 22.2 75.276405 22.1763331"></polygon>
                </g>
                <path d="M74.4822791,98.6 L3.51772093,98.6 C2.1272093,98.6 2,98.4903529 2,97.1215059 L2,69.8 L76,69.8 L76,97.1215059 C76,98.4903529 75.8727907,98.6 74.4822791,98.6 Z" id="Path" fill="#EC6630" fill-rule="nonzero"></path>
                <g id="Group" stroke-width="1" fill-rule="evenodd" transform="translate(15.200000, 22.200000)" fill="#EC6630">
                    <path d="M17.4905104,0.798328429 C16.6031914,-0.266109476 15.1689571,-0.266109476 14.281638,0.798328429 L0.665489271,17.1324139 C-0.221829757,18.1968518 -0.221829757,19.9173755 0.665489271,20.9818134 L14.281638,37.3158989 C14.7241629,37.8467567 15.3051186,38.1135468 15.8860742,38.1135468 C16.4670299,38.1135468 17.0479856,37.8467567 17.4905104,37.3158989 C18.3778295,36.251461 18.3778295,34.5309373 17.4905104,33.4664994 L5.47879786,19.0571137 L17.4905104,4.64772791 C18.3778295,3.58329001 18.3778295,1.86276633 17.4905104,0.798328429 Z" id="Path" fill-rule="nonzero"></path>
                    <path d="M47.01051,17.1324139 L33.3943613,0.798328429 C32.5070422,-0.266109476 31.0728079,-0.266109476 30.1854889,0.798328429 C29.2981698,1.86276633 29.2981698,3.58329001 30.1854889,4.64772791 L42.1972014,19.0571137 L30.1854889,33.4664994 C29.2981698,34.5309373 29.2981698,36.251461 30.1854889,37.3158989 C30.6280137,37.8467567 31.2089694,38.1135468 31.7899251,38.1135468 C32.3708807,38.1135468 32.9518364,37.8467567 33.3943613,37.3158989 L47.01051,20.9818134 C47.8978291,19.9173755 47.8978291,18.1968518 47.01051,17.1324139 Z" id="Path" fill-rule="nonzero"></path>
                </g>
                <g id="HTML" fill-rule="nonzero">
                    <use fill="black" fill-opacity="1" filter="url(#filter-2)" xlink:href="#path-1"></use>
                    <use fill="#FFFFFF" xlink:href="#path-1"></use>
                </g>
            </g>
        </g>
    </g>
</svg>