<?xml version="1.0" encoding="UTF-8"?>
<svg width="100px" height="100px" viewBox="0 0 100 100" version="1.1" xmlns="http://www.w3.org/2000/svg" xmlns:xlink="http://www.w3.org/1999/xlink">
    <!-- Generator: sketchtool 63.1 (101010) - https://sketch.com -->
    <title>file/json</title>
    <desc>Created with sketchtool.</desc>
    <defs>
        <path d="M7.0640625,98.3871094 C9.3609375,98.3871094 11.0152344,97.8402344 12.0269531,96.7464844 C13.0386719,95.6527344 13.5445313,93.8617188 13.5445313,91.3734375 L13.5445313,91.3734375 L13.5445313,74.1058594 L9.31992188,74.1058594 L9.31992188,91.8246094 C9.31992188,93.2191406 9.13763021,94.1852865 8.77304688,94.7230469 C8.40846354,95.2608073 7.74309896,95.5296875 6.77695313,95.5296875 C5.61940104,95.5296875 4.49375,95.3154948 3.4,94.8871094 L3.4,94.8871094 L3.42734375,97.8949219 C4.70338542,98.2230469 5.915625,98.3871094 7.0640625,98.3871094 Z M23.243849,94.8460938 C25.6956719,94.8460938 27.618849,94.3128906 29.0133803,93.2464844 C30.4079115,92.1800781 31.1051771,90.7080729 31.1051771,88.8304688 C31.1051771,87.5088542 30.7360365,86.3877604 29.9977553,85.4671875 C29.259474,84.5466146 27.915073,83.5394531 25.9645521,82.4457031 L25.9645521,82.4457031 L24.5153334,81.6390625 C23.430698,81.0283854 22.6924167,80.5134115 22.3004896,80.0941406 C21.9085626,79.6748698 21.712599,79.1872396 21.712599,78.63125 C21.712599,77.9567708 21.9928725,77.4121745 22.5534193,76.9974609 C23.1139662,76.5827474 23.8590834,76.3753906 24.7887709,76.3753906 C25.9918959,76.3753906 27.6279636,76.7627604 29.696974,77.5375 L29.696974,77.5375 L29.696974,74.2972656 C27.6735365,73.8324219 25.8551771,73.6 24.2418959,73.6 C22.227573,73.6 20.6074558,74.1058594 19.3815443,75.1175781 C18.1556329,76.1292969 17.5426771,77.4691406 17.5426771,79.1371094 C17.5426771,80.3858073 17.9163751,81.4772786 18.6637709,82.4115234 C19.4111667,83.3457682 20.6917657,84.3233073 22.5055678,85.3441406 L22.5055678,85.3441406 L23.8590834,86.0960938 C24.9528334,86.7158854 25.6956719,87.2513672 26.087599,87.7025391 C26.4795261,88.1537109 26.6754896,88.7074219 26.6754896,89.3636719 C26.6754896,90.193099 26.3633152,90.849349 25.7389662,91.3324219 C25.1146173,91.8154948 24.2601251,92.0570313 23.1754896,92.0570313 C21.6260105,92.0570313 19.7620782,91.6013021 17.5836928,90.6898438 L17.5836928,90.6898438 L17.5836928,94.1625 C19.7347344,94.6182292 21.6214532,94.8460938 23.243849,94.8460938 Z M43.7029324,94.8460938 C46.9203803,94.8460938 49.4565132,93.8936198 51.3113309,91.9886719 C53.1661486,90.083724 54.0935574,87.4815104 54.0935574,84.1820313 C54.0935574,80.9554688 53.1661486,78.3851563 51.3113309,76.4710938 C49.4565132,74.5570313 46.9659533,73.6 43.8396512,73.6 C40.6951199,73.6 38.1977241,74.5570313 36.3474637,76.4710938 C34.4972033,78.3851563 33.572073,80.9691406 33.572073,84.2230469 C33.572073,87.4404948 34.492646,90.0153646 36.3337918,91.9476563 C38.1749376,93.8799479 40.6313178,94.8460938 43.7029324,94.8460938 Z M43.7576199,92.0570313 C42.0440783,92.0570313 40.6632189,91.3392578 39.6150418,89.9037109 C38.5668647,88.4681641 38.0427762,86.5700521 38.0427762,84.209375 C38.0427762,81.8304688 38.5691434,79.9300781 39.6218777,78.5082031 C40.6746121,77.0863281 42.0805366,76.3753906 43.8396512,76.3753906 C45.5805366,76.3753906 46.9796251,77.0863281 48.0369168,78.5082031 C49.0942085,79.9300781 49.6228543,81.8167969 49.6228543,84.1683594 C49.6228543,86.5928385 49.0964871,88.513737 48.0437527,89.9310547 C46.9910184,91.3483724 45.5623074,92.0570313 43.7576199,92.0570313 Z M61.3729533,94.3402344 L61.3729533,80.5179688 L70.6835002,94.3402344 L74.4569377,94.3402344 L74.4569377,74.1058594 L71.0799846,74.1058594 L71.0799846,87.928125 L61.7010783,74.1058594 L57.9960002,74.1058594 L57.9960002,94.3402344 L61.3729533,94.3402344 Z" id="path-1"></path>
        <filter x="-4.6%" y="-13.1%" width="109.2%" height="126.2%" filterUnits="objectBoundingBox" id="filter-2">
            <feMorphology radius="0.75" operator="dilate" in="SourceAlpha" result="shadowSpreadOuter1"></feMorphology>
            <feOffset dx="0" dy="0" in="shadowSpreadOuter1" result="shadowOffsetOuter1"></feOffset>
            <feGaussianBlur stdDeviation="0.5" in="shadowOffsetOuter1" result="shadowBlurOuter1"></feGaussianBlur>
            <feComposite in="shadowBlurOuter1" in2="SourceAlpha" operator="out" result="shadowBlurOuter1"></feComposite>
            <feColorMatrix values="0 0 0 0 0   0 0 0 0 0   0 0 0 0 0  0 0 0 0.5 0" type="matrix" in="shadowBlurOuter1"></feColorMatrix>
        </filter>
    </defs>
    <g id="Icons" stroke="none" stroke-width="1" fill="none" fill-rule="evenodd">
        <g id="file/json">
            <g id="file/JSON" transform="translate(11.000000, 0.000000)">
                <g id="file/Generic" transform="translate(0.892857, 0.000000)" fill-rule="nonzero">
                    <path d="M2.61298605,0.7 C2.07959922,0.7 1.59881136,0.925504223 1.26115963,1.36993093 C0.898761638,1.84692936 0.7,2.54509637 0.7,3.43928571 L0.7,98.2142857 C0.7,98.4219545 1.02021186,98.6723283 1.32459696,98.880345 C1.67260844,99.118176 2.12107086,99.3 2.61298605,99.3 L74.187014,99.3 C74.6789291,99.3 75.1273916,99.118176 75.475403,98.880345 C75.7797881,98.6723283 76.1,98.4219545 76.1,98.2142857 L76.1,23.175 C76.1,22.2934437 76.0628571,21.9506065 75.844555,21.7310142 L55.0636201,0.953949356 C54.7731758,0.665323519 54.1831398,0.7 2.61298605,0.7 Z" id="Path" stroke="#626262" stroke-width="1.4" fill="#E9E9E0"></path>
                    <polygon id="Path" fill="#B5B3A6" points="54.6 1.4330168 54.6 22.2 75.276405 22.1763331"></polygon>
                </g>
                <path d="M74.4822791,98.6 L3.51772093,98.6 C2.1272093,98.6 2,98.4903529 2,97.1215059 L2,69.8 L76,69.8 L76,97.1215059 C76,98.4903529 75.8727907,98.6 74.4822791,98.6 Z" id="Path" fill="#BF46FF" fill-rule="nonzero"></path>
                <g id="Group" stroke-width="1" fill-rule="evenodd" transform="translate(15.400000, 20.400000)" fill="#BF46FF">
                    <path d="M10.3746426,14.3749997 L10.3746426,6.16071416 C10.3746426,5.02919632 11.2946426,4.10714277 12.428214,4.10714277 C13.563839,4.10714277 14.4817854,3.18714279 14.4817854,2.05357139 C14.4817854,0.919999981 13.563839,0 12.428214,0 C9.03160696,0 6.26749987,2.76410709 6.26749987,6.16071416 L6.26749987,14.3749997 C6.26749987,16.6400889 4.42544634,18.4821425 2.1603571,18.4821425 C1.02473212,18.4821425 0.106785712,19.4021425 0.106785712,20.5357139 C0.106785712,21.6692853 1.02473212,22.5892852 2.1603571,22.5892852 C4.42544634,22.5892852 6.26749987,24.4313388 6.26749987,26.696428 L6.26749987,34.9107136 C6.26749987,38.3073206 9.03160696,41.0714277 12.428214,41.0714277 C13.563839,41.0714277 14.4817854,40.1514277 14.4817854,39.0178563 C14.4817854,37.8842849 13.563839,36.9642849 12.428214,36.9642849 C11.2946426,36.9642849 10.3746426,36.0422314 10.3746426,34.9107136 L10.3746426,26.696428 C10.3746426,24.2321424 9.26160695,22.0430353 7.53660699,20.5357139 C9.26160695,19.0283925 10.3746426,16.8392854 10.3746426,14.3749997 Z" id="Path" fill-rule="nonzero"></path>
                    <circle id="Oval" fill-rule="nonzero" cx="21.8417853" cy="13.348214" r="3.08035708"></circle>
                    <path d="M42.1228563,18.4821425 C39.857767,18.4821425 38.0157135,16.6400889 38.0157135,14.3749997 L38.0157135,6.16071416 C38.0157135,2.76410709 35.2516064,8.49809094e-14 31.8549993,8.49809094e-14 C30.7193744,8.49809094e-14 29.801428,0.919999981 29.801428,2.05357139 C29.801428,3.18714279 30.7193744,4.10714277 31.8549993,4.10714277 C32.9885707,4.10714277 33.9085707,5.02919632 33.9085707,6.16071416 L33.9085707,14.3749997 C33.9085707,16.8392854 35.0216064,19.0283925 36.7466064,20.5357139 C35.0216064,22.0430353 33.9085707,24.2321424 33.9085707,26.696428 L33.9085707,34.9107136 C33.9085707,36.0422314 32.9885707,36.9642849 31.8549993,36.9642849 C30.7193744,36.9642849 29.801428,37.8842849 29.801428,39.0178563 C29.801428,40.1514277 30.7193744,41.0714277 31.8549993,41.0714277 C35.2516064,41.0714277 38.0157135,38.3073206 38.0157135,34.9107136 L38.0157135,26.696428 C38.0157135,24.4313388 39.857767,22.5892852 42.1228563,22.5892852 C43.2584812,22.5892852 44.1764277,21.6692853 44.1764277,20.5357139 C44.1764277,19.4021425 43.2584812,18.4821425 42.1228563,18.4821425 Z" id="Path" fill-rule="nonzero"></path>
                    <path d="M21.8417853,24.6428566 C20.7061603,24.6428566 19.7882139,25.5628566 19.7882139,26.696428 L19.7882139,32.8571422 C19.7882139,33.9907136 20.7061603,34.9107136 21.8417853,34.9107136 C22.9774102,34.9107136 23.8953566,33.9907136 23.8953566,32.8571422 L23.8953566,26.696428 C23.8953566,25.5628566 22.9774102,24.6428566 21.8417853,24.6428566 Z" id="Path" fill-rule="nonzero"></path>
                </g>
                <g id="JSON" fill-rule="nonzero">
                    <use fill="black" fill-opacity="1" filter="url(#filter-2)" xlink:href="#path-1"></use>
                    <use stroke="#979797" stroke-width="0.5" fill="#FFFFFF" xlink:href="#path-1"></use>
                </g>
            </g>
        </g>
    </g>
</svg>