<?xml version="1.0" encoding="UTF-8"?>
<svg width="100px" height="100px" viewBox="0 0 100 100" version="1.1" xmlns="http://www.w3.org/2000/svg" xmlns:xlink="http://www.w3.org/1999/xlink">
    <!-- Generator: sketchtool 63.1 (101010) - https://sketch.com -->
    <title>file/m4a_audio_sound_music</title>
    <desc>Created with sketchtool.</desc>
    <defs>
        <path d="M22.3085938,95.034375 L22.3085938,79.5578125 L27.1484375,93.6808594 L30.5390625,93.6808594 L35.4746094,79.7628906 L35.4746094,95.034375 L39.3574219,95.034375 L39.3574219,74.8 L34.4628906,74.8 L29.4453125,89.0324219 L24.578125,74.8 L19,74.8 L19,95.034375 L22.3085938,95.034375 Z M56.3028334,95.034375 L56.3028334,89.6339844 L58.6680678,89.6339844 L58.6680678,86.5988281 L56.3028334,86.5988281 L56.3028334,74.8 L52.5977553,74.8 L43.3145522,86.5988281 L43.3145522,89.6339844 L52.7618178,89.6339844 L52.7618178,95.034375 L56.3028334,95.034375 Z M52.843849,86.5988281 L46.5547865,86.5988281 L52.843849,78.6691406 L52.843849,86.5988281 Z M63.9650418,95.034375 L66.0705106,89.6339844 L74.4376981,89.6339844 L76.5431668,95.034375 L80.8634793,95.034375 L72.9884793,74.8 L68.7775418,74.8 L60.9025418,95.034375 L63.9650418,95.034375 Z M73.3986356,86.940625 L67.1095731,86.940625 L70.2541043,78.8742187 L73.3986356,86.940625 Z" id="path-1"></path>
        <filter x="-5.3%" y="-16.1%" width="111.4%" height="132.1%" filterUnits="objectBoundingBox" id="filter-2">
            <feMorphology radius="0.75" operator="dilate" in="SourceAlpha" result="shadowSpreadOuter1"></feMorphology>
            <feOffset dx="0" dy="0" in="shadowSpreadOuter1" result="shadowOffsetOuter1"></feOffset>
            <feGaussianBlur stdDeviation="0.5" in="shadowOffsetOuter1" result="shadowBlurOuter1"></feGaussianBlur>
            <feComposite in="shadowBlurOuter1" in2="SourceAlpha" operator="out" result="shadowBlurOuter1"></feComposite>
            <feColorMatrix values="0 0 0 0 0   0 0 0 0 0   0 0 0 0 0  0 0 0 0.5 0" type="matrix" in="shadowBlurOuter1"></feColorMatrix>
        </filter>
    </defs>
    <g id="Icons" stroke="none" stroke-width="1" fill="none" fill-rule="evenodd">
        <g id="file/m4a_audio_sound_music">
            <g id="file/M4A">
                <g id="file/Generic" transform="translate(11.600000, 0.000000)" fill-rule="nonzero">
                    <path d="M2.61298605,0.35 C1.96958864,0.35 1.38973044,0.622147396 0.982468862,1.15819653 C0.582990653,1.68400098 0.35,2.44982223 0.35,3.43928571 L0.35,98.2142857 C0.35,98.4892682 0.690676045,98.8710479 1.12711718,99.1693117 C1.52847064,99.4435966 2.04637395,99.65 2.61298605,99.65 L74.187014,99.65 C74.753626,99.65 75.2715294,99.4435966 75.6728828,99.1693117 C76.109324,98.8710479 76.45,98.4892682 76.45,98.2142857 L76.45,23.175 C76.45,22.1127933 76.3483774,21.7413747 76.0927705,21.4842571 L55.3110845,0.706438964 C55.0185135,0.415697474 54.5234583,0.35 2.61298605,0.35 Z" id="Path" stroke="#626262" stroke-width="0.7" fill="#E9E9E0"></path>
                    <polygon id="Path" fill="#B5B3A6" points="54.6 1.4330168 54.6 22.2 75.276405 22.1763331"></polygon>
                </g>
                <path d="M85.4822791,98.6 L14.5177209,98.6 C13.1272093,98.6 13,98.4903529 13,97.1215059 L13,69.8 L87,69.8 L87,97.1215059 C87,98.4903529 86.8727907,98.6 85.4822791,98.6 Z" id="Path" fill="#A80000" fill-rule="nonzero"></path>
                <g id="M4A" fill-rule="nonzero">
                    <use fill="black" fill-opacity="1" filter="url(#filter-2)" xlink:href="#path-1"></use>
                    <use stroke="#979797" stroke-width="0.5" fill="#FFFFFF" xlink:href="#path-1"></use>
                </g>
                <g id="np_audio_2524823_F1F35B" stroke-width="1" fill-rule="evenodd" transform="translate(23.600000, 10.800000)" fill="#000000">
                    <path d="M34.9791522,2.50467925 L34.9791522,53.6953208 C34.9558838,54.6086363 34.4119823,55.4288034 33.5801399,55.8069068 C33.2543813,55.949429 32.9024429,56.0221383 32.5476154,56.0221383 C31.9978986,56.0221383 31.4627461,55.8272639 31.0439136,55.4695102 L15.2064598,42.0609128 L5.78887097,42.0609128 C4.25895954,42.055096 2.79308294,41.4355754 1.71982926,40.3448536 C0.646575575,39.2511981 0.0532108887,37.7737059 0.0765165917,36.2437944 L0.0765165917,19.9558631 C0.0532481183,18.4259516 0.646590467,16.9483849 1.71982926,15.8548039 C2.79308294,14.7641268 4.25903399,14.1445525 5.78887097,14.1387447 L15.2064598,14.1387447 L31.0699743,0.730147283 C31.7738437,0.145524097 32.7482082,0.0146398646 33.5800655,0.392750696 C34.4119227,0.770861527 34.9558465,1.59109569 34.9791522,2.50433674 L34.9791522,2.50467925 Z M38.7777585,20.2006325 C38.2251304,20.4769428 37.8062904,20.9626471 37.6114309,21.5473001 C37.4165565,22.1319232 37.4601895,22.7717802 37.7364999,23.3244157 C39.0773596,26.3667407 39.0773596,29.8337805 37.7364999,32.876031 C37.1635146,34.0249352 37.6288841,35.4239475 38.7777361,35.9998143 C39.9266403,36.5727995 41.3256526,36.10743 41.9015194,34.958578 C43.8851846,30.6015284 43.8851846,25.5990672 41.9015194,21.2417198 C41.3256228,20.0928157 39.9266403,19.6274462 38.7777361,20.2004836 L38.7777585,20.2006325 Z M48.3814951,14.2613267 L48.3844035,14.2613267 C47.8085069,13.1124226 46.4095244,12.6470531 45.2606202,13.2200905 C44.1117161,13.7959871 43.6463466,15.1949696 44.219384,16.3438737 C47.572948,23.8218026 47.572948,32.3786441 44.219384,39.856573 C43.9430736,40.4092011 43.8994406,41.0491102 44.094315,41.6336887 C44.2891894,42.2183119 44.7080219,42.7040385 45.2606426,42.9803563 C46.4095467,43.5533415 47.808559,43.087972 48.3844258,41.93912 C52.392411,33.1492215 52.392411,23.0510763 48.3844258,14.2611778 L48.3814951,14.2613267 Z" id="Shape" fill-rule="nonzero"></path>
                </g>
            </g>
        </g>
    </g>
</svg>