<?xml version="1.0" encoding="UTF-8"?>
<svg width="100px" height="100px" viewBox="0 0 100 100" version="1.1" xmlns="http://www.w3.org/2000/svg" xmlns:xlink="http://www.w3.org/1999/xlink">
    <!-- Generator: sketchtool 63.1 (101010) - https://sketch.com -->
    <title>file/pdf</title>
    <desc>Created with sketchtool.</desc>
    <g id="Icons" stroke="none" stroke-width="1" fill="none" fill-rule="evenodd">
        <g id="file/pdf">
            <g id="file/PDF">
                <g transform="translate(1.000000, 1.000000)">
                    <rect id="Rectangle" stroke="#979797" stroke-width="0.595238095" fill="#FFFFFF" x="1.19971909" y="1.25635449" width="95.6005618" height="95.6005618" rx="10"></rect>
                    <g id="PDF-File" fill-rule="nonzero">
                        <path d="M69.6298937,69.755899 C78.8297308,74.3729541 89.7518265,76.3291651 97.3760685,76.473851 L97.8794105,76.4808223 L97.8794105,76.4808223 L97.8790407,84.7838026 C97.8790407,92.0161029 92.0161029,97.8790407 84.7838026,97.8790407 L16.2830547,97.879468 C20.3587237,93.1223754 24.7585369,86.6510481 29.4841602,78.3946718 C30.4282614,77.4149155 30.4282614,77.4149155 31.4080178,77.4149155 C40.9188231,73.5793383 53.3806559,71.6679979 69.6298937,69.755899 Z M15.1106077,81.2379755 C11.9090579,87.7019329 8.68839436,92.3446703 5.46147526,95.3365933 C5.21614697,95.1565225 4.97766526,94.9678602 4.74610807,94.7712889 L5.04719455,95.0200755 C4.91691525,94.9158578 4.7886697,94.809221 4.66252643,94.7002322 L4.74610807,94.7712889 C4.50047126,94.5627653 4.26262667,94.3453417 4.03307253,94.1195163 L4.28844223,94.3643831 C4.18421775,94.2671679 4.08158191,94.168281 3.9805776,94.0677641 L4.03307253,94.1195163 C3.91967002,94.0079558 3.80829079,93.8943449 3.6989949,93.7787437 L3.9805776,94.0677641 C3.8572095,93.9449914 3.73627541,93.8197871 3.61785352,93.6922275 L3.61761887,93.6918906 C3.40939051,93.4676789 3.2087123,93.2358317 3.01624537,92.997102 L3.06465113,93.0567724 C2.96410377,92.9335419 2.86575563,92.8084461 2.76966656,92.6815452 L3.01624537,92.997102 C2.9073711,92.862058 2.80112438,92.7248115 2.69758239,92.5854381 L2.69789875,92.585863 L2.45219031,92.2438385 L2.45219031,92.2438385 C4.5474063,89.6377383 7.24844225,86.7549299 10.3555843,84.0816585 C11.3353406,83.1500745 13.1992673,82.1699388 15.1106077,81.2379755 Z M35.3769593,0.120830448 C32.6477608,11.5510989 34.5479996,18.0970203 38.0751401,28.69034 C35.2318364,37.2688027 32.3403604,46.8395389 27.5728199,56.4098957 C23.7493805,63.0770181 20.8582839,68.8243149 18.002463,73.5797176 C14.179403,75.5031958 11.33572,77.4152948 9.42362099,78.3950511 C5.74806107,80.5288986 2.66019569,82.8599009 0.128253351,85.2007504 L0.123515433,85.0451584 C0.121814003,84.9582447 0.120959333,84.8711234 0.120959333,84.7838026 L0.120959333,13.2161974 C0.120959333,5.98389713 5.98389713,0.120959333 13.2161974,0.120959333 L35.3769593,0.120830448 Z M44.754021,37.2684233 C48.5774603,45.8594032 54.3243779,53.5180405 59.1275735,59.2531994 L59.4582013,59.5839565 C60.2926783,60.4150322 61.2164084,61.2745618 62.9032198,62.0968824 C55.3041342,63.0766387 43.8216783,65.9324596 31.4080178,70.735276 L29.4841602,70.735276 C31.4080178,66.9118367 33.3197374,64.0203607 35.2314571,60.1851628 C39.0071034,51.6063208 42.8423013,43.9473043 44.754021,37.2684233 Z M84.8883752,63.0770181 C90.8016008,63.0770181 94.8517705,63.6336871 97.6156574,64.3397685 L97.8791342,64.4085518 L97.8791342,64.4085518 L97.8794006,68.5747947 C93.535547,67.9684744 88.2760421,66.2984773 83.0240693,64.02074 L83.0240693,63.0770181 L84.8883752,63.0770181 Z M84.7838026,0.120959333 C92.0161029,0.120959333 97.8790407,5.98389713 97.8790407,13.2161974 L97.8788803,57.0600663 C94.9541793,56.6136629 91.5756279,56.4098957 87.7790926,56.4098957 C83.9556533,56.4098957 80.1325933,57.3422384 75.3650527,57.3422384 C71.5419927,55.4301394 69.6298937,53.5187991 66.7387971,51.6070794 C60.9915002,45.8601618 55.3045135,37.269182 51.4693156,26.7668617 L51.4693156,25.7867261 C54.0716231,17.3631356 56.2172559,7.60846466 55.2414604,0.12086507 L84.7838026,0.120959333 Z M46.3739593,0.120830448 C46.2787431,1.49544979 46.0653069,3.08164827 45.7341566,4.79308563 L45.7341566,6.7051846 C45.7341566,9.54848828 44.7544003,11.4605873 43.8220576,15.2840266 C42.518034,9.46799376 42.0980743,4.50324943 42.5621784,0.12161584 L46.3739593,0.120830448 Z" id="Combined-Shape" fill="#CD2A00"></path>
                        <rect id="Border-Copy-3" stroke="#686868" stroke-width="2.38095238" x="1.31143552" y="1.31143552" width="95.377129" height="95.377129" rx="13.0952381"></rect>
                    </g>
                </g>
            </g>
        </g>
    </g>
</svg>