<?xml version="1.0" encoding="UTF-8"?>
<svg width="100px" height="100px" viewBox="0 0 100 100" version="1.1" xmlns="http://www.w3.org/2000/svg" xmlns:xlink="http://www.w3.org/1999/xlink">
    <!-- Generator: sketchtool 63.1 (101010) - https://sketch.com -->
    <title>file/pdf</title>
    <desc>Created with sketchtool.</desc>
    <g id="Icons" stroke="none" stroke-width="1" fill="none" fill-rule="evenodd">
        <g id="file/pdf">
            <g id="file/PDF">
                <g transform="translate(10.200000, 10.200000)">
                    <rect id="Rectangle" stroke="#979797" stroke-width="0.5" fill="#FFFFFF" x="0.973212127" y="1.01915477" width="77.551176" height="77.551176" rx="8.11200002"></rect>
                    <g id="PDF-File" fill-rule="nonzero">
                        <path d="M56.48377,56.5859854 C63.9219254,60.3189183 72.7479249,61.9076687 78.9298392,62.0343717 L79.4000879,62.0412459 L79.4000879,62.0412459 L79.399478,68.7766209 C79.399478,74.6434629 74.6434629,79.399478 68.7766209,79.399478 L13.2091222,79.39886 L13.5636312,78.9815451 C16.7699681,75.1645065 20.2208707,70.0524154 23.9175508,63.593758 C24.6834058,62.7989796 24.6834058,62.7989796 25.4781841,62.7989796 C33.1933494,59.6875594 43.3023882,58.1370801 56.48377,56.5859854 Z M12.257725,65.9002459 C9.66087385,71.1433114 7.04852056,74.9092832 4.43109273,77.3363549 C4.4154579,77.3265016 4.40076445,77.3156277 4.38610011,77.3047168 L4.4300946,77.3372803 C4.20820322,77.1739288 3.9929109,77.0021825 3.78468268,76.8225079 L3.83513647,76.8657921 C3.74408054,76.7882063 3.65435088,76.7091102 3.56598624,76.6285425 L3.78468268,76.8225079 C3.69239903,76.7428788 3.60150286,76.6616925 3.51203466,76.5789896 L3.56598624,76.6285425 C3.46388634,76.5354515 3.36360879,76.440396 3.26521339,76.3434357 L3.51203466,76.5789896 C3.40927946,76.4840044 3.30840787,76.3870186 3.20948119,76.2880939 L3.26521339,76.3434357 C3.17653445,76.2560501 3.08938429,76.1671174 3.00380665,76.0766812 L3.20948119,76.2880939 C3.1235886,76.202203 3.03916218,76.1148504 2.95624209,76.0260763 L2.95565335,76.0254577 C2.77407056,75.8310438 2.59916943,75.6291505 2.43196433,75.4208233 L2.4822511,75.4830016 C2.3965177,75.3778062 2.31275886,75.2709378 2.2310311,75.1624529 L2.43196433,75.4208233 C2.34609074,75.3138302 2.2622471,75.2051399 2.18049108,75.0948105 L2.2310311,75.1624529 C2.16516355,75.0750207 2.10061525,74.9865385 2.0374158,74.8970358 L2.03730836,74.8968837 L1.9898671,74.8291385 L1.9898671,74.8291385 C3.68890915,72.7140768 5.87996694,70.3755731 8.40045003,68.2070416 C9.19522836,67.4513406 10.7072457,66.6562546 12.257725,65.9002459 Z M10.7209794,0.0981222109 L28.6976887,0.099293874 C26.4840251,9.37080749 28.0254872,14.6807529 30.8865537,23.2736039 C28.5800658,30.2324528 26.2345004,37.996234 22.3670715,45.7597076 C19.2654975,51.1680772 16.9202399,55.8302844 14.603598,59.6878671 C11.5023317,61.2481927 9.19553606,62.7992873 7.64444137,63.5940657 C4.6629156,65.3249914 2.15809936,67.2158396 0.104221904,69.11468 L0.100059217,68.9815408 C0.0987698101,68.9133893 0.0981222109,68.8450807 0.0981222109,68.7766209 L0.0981222109,10.7209794 C0.0981222109,4.95031511 4.6994806,0.254355663 10.4333578,0.101940617 L10.7209794,0.0981222109 L10.7209794,0.0981222109 Z M36.3044619,30.2321451 C39.4060359,37.201148 44.0679355,43.4138345 47.9642878,48.0661955 L48.2686676,48.3704829 C48.9362593,49.0334558 49.6830767,49.7177837 51.0270921,50.3729912 C44.8627138,51.1677695 35.5481456,53.4844114 25.4781841,57.380456 L23.9175508,57.380456 C25.4781841,54.2788821 27.0289711,51.9333167 28.5797581,48.8222042 C31.6425624,41.8630476 34.7536749,35.6500533 36.3044619,30.2321451 Z M68.8614502,51.1680772 C73.6425913,51.1680772 76.9222781,51.6167021 79.1638189,52.1868119 L79.4000326,52.248345 L79.4000326,52.248345 L79.3991222,55.62786 L78.892131,55.5518954 C75.4702883,55.0060745 71.4069354,53.6934633 67.3491252,51.9336244 L67.3491252,51.1680772 L68.8614502,51.1680772 Z M68.7766209,0.0981222109 C74.6434629,0.0981222109 79.399478,4.85413737 79.399478,10.7209794 L79.3991222,46.28686 L78.846232,46.2071632 C76.6038722,45.9005895 74.0496305,45.7597076 71.2064001,45.7597076 C68.1048262,45.7597076 65.0035599,46.5160239 61.136131,46.5160239 C58.0348647,44.9649292 56.48377,43.4144499 54.1385123,41.8636629 C49.4763051,37.2017634 44.8630215,30.2327605 41.7519089,21.7132783 L41.7519089,20.9181923 C43.8628564,14.0851194 45.6033649,6.17231945 44.8119228,0.0984290473 L68.7766209,0.0981222109 Z M37.6189209,0.0978599593 C37.5412489,1.21361122 37.3681246,2.50010409 37.099548,3.88815107 L37.099548,5.43924576 C37.099548,7.74573372 36.3047696,9.29682841 35.5484533,12.3984024 C34.4906443,7.68050356 34.1499676,3.65315033 34.5264232,0.0988061916 L28.6976887,0.099293874 L28.6971222,0.0978599593 L37.6189209,0.0978599593 Z" id="Combined-Shape" fill="#CD2A00"></path>
                        <rect id="Border-Copy-3" stroke="#686868" stroke-width="1.93142858" x="1.0638365" y="1.0638365" width="77.3699272" height="77.3699272" rx="10.6228572"></rect>
                    </g>
                </g>
            </g>
        </g>
    </g>
</svg>