<?xml version="1.0" encoding="UTF-8"?>
<svg width="100px" height="100px" viewBox="0 0 100 100" version="1.1" xmlns="http://www.w3.org/2000/svg" xmlns:xlink="http://www.w3.org/1999/xlink">
    <!-- Generator: sketchtool 63.1 (101010) - https://sketch.com -->
    <title>file/png_image_graphic</title>
    <desc>Created with sketchtool.</desc>
    <defs>
        <path d="M15.5289063,95.1402344 L15.5289063,87.2105469 L17.2789062,87.2105469 C19.8127604,87.2105469 21.7837891,86.6021484 23.1919922,85.3853516 C24.6001953,84.1685547 25.3042969,82.4664063 25.3042969,80.2789063 C25.3042969,78.3466146 24.7779297,76.9680339 23.7251953,76.1431641 C22.6724609,75.3182943 20.915625,74.9058594 18.4546875,74.9058594 L18.4546875,74.9058594 L11.4,74.9058594 L11.4,95.1402344 L15.5289063,95.1402344 Z M16.3492187,84.4351563 L15.5289063,84.4351563 L15.5289063,77.68125 L17.1695312,77.68125 C19.7307292,77.68125 21.0113281,78.6884115 21.0113281,80.7027344 C21.0113281,81.8511719 20.5943359,82.7603516 19.7603516,83.4302734 C18.9263672,84.1001953 17.7893229,84.4351563 16.3492187,84.4351563 L16.3492187,84.4351563 Z M32.0641615,95.1402344 L32.0641615,81.3179688 L41.3747084,95.1402344 L45.1481459,95.1402344 L45.1481459,74.9058594 L41.7711928,74.9058594 L41.7711928,88.728125 L32.3922865,74.9058594 L28.6872084,74.9058594 L28.6872084,95.1402344 L32.0641615,95.1402344 Z M59.9197293,95.6460938 C61.7608751,95.6460938 63.9483751,95.3179688 66.4822293,94.6617188 L66.4822293,94.6617188 L66.4822293,85.9527344 L62.2712918,85.9527344 L62.2712918,92.6109375 C61.6241564,92.7476563 61.0590522,92.8160156 60.5759793,92.8160156 C58.3793647,92.8160156 56.6567085,92.1255859 55.4080106,90.7447266 C54.1593126,89.3638672 53.5349637,87.4611979 53.5349637,85.0367188 C53.5349637,82.5302083 54.118297,80.5933594 55.2849637,79.2261719 C56.4516303,77.8589844 58.1059272,77.1753906 60.2478543,77.1753906 C61.8702501,77.1753906 63.9438178,77.6083333 66.4685574,78.4742188 L66.4685574,78.4742188 L66.4685574,75.1792969 C64.290172,74.6597656 62.0935574,74.4 59.8787137,74.4 C56.415172,74.4 53.7468777,75.3160156 51.8738309,77.1480469 C50.000784,78.9800781 49.0642606,81.5959635 49.0642606,84.9957031 C49.0642606,88.4227865 50.000784,91.0546224 51.8738309,92.8912109 C53.7468777,94.7277995 56.4288439,95.6460938 59.9197293,95.6460938 Z" id="path-1"></path>
        <filter x="-5.4%" y="-14.1%" width="110.9%" height="128.2%" filterUnits="objectBoundingBox" id="filter-2">
            <feMorphology radius="0.5" operator="dilate" in="SourceAlpha" result="shadowSpreadOuter1"></feMorphology>
            <feOffset dx="0" dy="0" in="shadowSpreadOuter1" result="shadowOffsetOuter1"></feOffset>
            <feGaussianBlur stdDeviation="0.5" in="shadowOffsetOuter1" result="shadowBlurOuter1"></feGaussianBlur>
            <feColorMatrix values="0 0 0 0 0   0 0 0 0 0   0 0 0 0 0  0 0 0 0.5 0" type="matrix" in="shadowBlurOuter1"></feColorMatrix>
        </filter>
    </defs>
    <g id="Icons" stroke="none" stroke-width="1" fill="none" fill-rule="evenodd">
        <g id="file/png_image_graphic" fill-rule="nonzero">
            <g id="file/PNG" transform="translate(11.000000, 0.000000)">
                <g id="file/Generic" transform="translate(0.600000, 0.000000)">
                    <path d="M2.61298605,0.7 C2.07959922,0.7 1.59881136,0.925504223 1.26115963,1.36993093 C0.898761638,1.84692936 0.7,2.54509637 0.7,3.43928571 L0.7,98.2142857 C0.7,98.4219545 1.02021186,98.6723283 1.32459696,98.880345 C1.67260844,99.118176 2.12107086,99.3 2.61298605,99.3 L74.187014,99.3 C74.6789291,99.3 75.1273916,99.118176 75.475403,98.880345 C75.7797881,98.6723283 76.1,98.4219545 76.1,98.2142857 L76.1,23.175 C76.1,22.2934437 76.0628571,21.9506065 75.844555,21.7310142 L55.0636201,0.953949356 C54.7731758,0.665323519 54.1831398,0.7 2.61298605,0.7 Z" id="Path" stroke="#626262" stroke-width="1.4" fill="#E9E9E0"></path>
                    <polygon id="Path" fill="#B5B3A6" points="54.6 1.4330168 54.6 22.2 75.276405 22.1763331"></polygon>
                </g>
                <path d="M74.4822791,98.6 L3.51772093,98.6 C2.1272093,98.6 2,98.4903529 2,97.1215059 L2,69.8 L76,69.8 L76,97.1215059 C76,98.4903529 75.8727907,98.6 74.4822791,98.6 Z" id="Path-Copy" fill="#488E00"></path>
                <circle id="Oval" fill="#F3D55B" cx="23.0910714" cy="25.7696429" r="8.15892857"></circle>
                <polygon id="Path" fill="#88C057" points="2 69.8071429 20.9302326 69.8071429 76 69.8071429 76 50.1642857 58.7906977 33.2 40.7209302 53.7357143 31.2850698 43.9446429"></polygon>
                <g id="PNG">
                    <use fill="black" fill-opacity="1" filter="url(#filter-2)" xlink:href="#path-1"></use>
                    <use fill="#FFFFFF" xlink:href="#path-1"></use>
                </g>
            </g>
        </g>
    </g>
</svg>