<?xml version="1.0" encoding="UTF-8"?>
<svg width="100px" height="100px" viewBox="0 0 100 100" version="1.1" xmlns="http://www.w3.org/2000/svg" xmlns:xlink="http://www.w3.org/1999/xlink">
    <!-- Generator: sketchtool 63.1 (101010) - https://sketch.com -->
    <title>file/tsv</title>
    <desc>Created with sketchtool.</desc>
    <defs>
        <path d="M34.6631863,95.6275862 L34.6631863,77.954287 L42.0308725,77.954287 L42.0308725,75.1448276 L23,75.1448276 L23,77.954287 L30.3676862,77.954287 L30.3676862,95.6275862 L34.6631863,95.6275862 Z M49.7004736,96 C52.1964449,96 54.1542515,95.4579151 55.5738932,94.3737452 C56.9935349,93.2895753 57.7033557,91.7930502 57.7033557,89.8841699 C57.7033557,88.5405405 57.3275682,87.4007722 56.5759932,86.4648649 C55.8244182,85.5289575 54.4558093,84.5050193 52.4701667,83.3930502 L50.9948528,82.572973 C49.890687,81.9521236 49.139112,81.4285714 48.7401277,81.0023166 C48.3411435,80.5760618 48.1416513,80.0803089 48.1416513,79.5150579 C48.1416513,78.8293436 48.4269715,78.2756757 48.9976118,77.8540541 C49.5682521,77.4324324 50.3267861,77.2216216 51.2732139,77.2216216 C52.4980028,77.2216216 54.1635302,77.615444 56.269796,78.4030888 L56.269796,75.1088803 C54.2099237,74.6362934 52.3588223,74.4 50.7164917,74.4 C48.6658981,74.4 47.0166085,74.9142857 45.7686228,75.9428571 C44.5206371,76.9714286 43.8966443,78.3335907 43.8966443,80.0293436 C43.8966443,81.2988417 44.2770712,82.4084942 45.0379249,83.3583012 C45.7987786,84.3081081 47.1024365,85.3019305 48.9488986,86.3397683 L50.3267861,87.1042471 C51.4402306,87.7343629 52.1964449,88.2787645 52.5954292,88.7374517 C52.9944135,89.196139 53.1939056,89.7590734 53.1939056,90.4262548 C53.1939056,91.2694981 52.87611,91.9366795 52.2405188,92.4277992 C51.6049276,92.9189189 50.7350491,93.1644788 49.6308833,93.1644788 C48.0535036,93.1644788 46.1560087,92.7011583 43.9383985,91.7745174 L43.9383985,95.3050193 C46.1281726,95.7683398 48.0488643,96 49.7004736,96 Z M71.1886425,95.6275862 L78.6,75.1448276 L75.4897517,75.1448276 L69.7455993,90.9912861 L63.8053052,75.1448276 L59.1959732,75.1448276 L66.859513,95.6275862 L71.1886425,95.6275862 Z" id="path-1"></path>
        <filter x="-5.4%" y="-13.9%" width="111.6%" height="127.8%" filterUnits="objectBoundingBox" id="filter-2">
            <feMorphology radius="0.5" operator="dilate" in="SourceAlpha" result="shadowSpreadOuter1"></feMorphology>
            <feOffset dx="0" dy="0" in="shadowSpreadOuter1" result="shadowOffsetOuter1"></feOffset>
            <feGaussianBlur stdDeviation="0.5" in="shadowOffsetOuter1" result="shadowBlurOuter1"></feGaussianBlur>
            <feColorMatrix values="0 0 0 0 0   0 0 0 0 0   0 0 0 0 0  0 0 0 0.5 0" type="matrix" in="shadowBlurOuter1"></feColorMatrix>
        </filter>
    </defs>
    <g id="Icons" stroke="none" stroke-width="1" fill="none" fill-rule="evenodd">
        <g id="file/tsv">
            <g id="file/TSV">
                <g id="file/Generic" transform="translate(11.600000, 0.000000)" fill-rule="nonzero">
                    <path d="M2.61298605,0.35 C1.96958864,0.35 1.38973044,0.622147396 0.982468862,1.15819653 C0.582990653,1.68400098 0.35,2.44982223 0.35,3.43928571 L0.35,98.2142857 C0.35,98.4892682 0.690676045,98.8710479 1.12711718,99.1693117 C1.52847064,99.4435966 2.04637395,99.65 2.61298605,99.65 L74.187014,99.65 C74.753626,99.65 75.2715294,99.4435966 75.6728828,99.1693117 C76.109324,98.8710479 76.45,98.4892682 76.45,98.2142857 L76.45,23.175 C76.45,22.1127933 76.3483774,21.7413747 76.0927705,21.4842571 L55.3110845,0.706438964 C55.0185135,0.415697474 54.5234583,0.35 2.61298605,0.35 Z" id="Path" stroke="#626262" stroke-width="0.7" fill="#E9E9E0"></path>
                    <polygon id="Path" fill="#B5B3A6" points="54.6 1.4330168 54.6 22.2 75.276405 22.1763331"></polygon>
                </g>
                <path d="M85.4822791,98.6 L14.5177209,98.6 C13.1272093,98.6 13,98.4903529 13,97.1215059 L13,69.8 L87,69.8 L87,97.1215059 C87,98.4903529 86.8727907,98.6 85.4822791,98.6 Z" id="Path" fill="#6700A8" fill-rule="nonzero"></path>
                <g id="TSV" fill-rule="nonzero">
                    <use fill="black" fill-opacity="1" filter="url(#filter-2)" xlink:href="#path-1"></use>
                    <use fill="#FFFFFF" xlink:href="#path-1"></use>
                </g>
                <g id="Group-5" stroke-width="1" fill-rule="evenodd" transform="translate(18.600000, 24.200000)" fill="#000000">
                    <rect id="Rectangle" x="49.7981651" y="0" width="9.20183486" height="37.2"></rect>
                    <polygon id="Rectangle-Copy-3" transform="translate(17.862385, 18.330435) rotate(-90.000000) translate(-17.862385, -18.330435) " points="13.0102114 0.468049462 22.7145592 0.468049462 22.7145592 36.1928201 13.0102114 36.1928201"></polygon>
                    <polygon id="Triangle" transform="translate(36.807339, 18.330435) rotate(90.000000) translate(-36.807339, -18.330435) " points="36.8073394 8.04603111 55.1377742 28.6148385 18.4769047 28.6148385"></polygon>
                </g>
            </g>
        </g>
    </g>
</svg>