<?xml version="1.0" encoding="UTF-8"?>
<svg width="100px" height="100px" viewBox="0 0 100 100" version="1.1" xmlns="http://www.w3.org/2000/svg" xmlns:xlink="http://www.w3.org/1999/xlink">
    <!-- Generator: sketchtool 63.1 (101010) - https://sketch.com -->
    <title>file/txt</title>
    <desc>Created with sketchtool.</desc>
    <defs>
        <path d="M54.4476279,0 L2.61298605,0 C1.16986047,0 0,1.16964286 0,3.43928571 L0,98.2142857 C0,98.8303571 1.16986047,100 2.61298605,100 L74.187014,100 C75.6301395,100 76.8,98.8303571 76.8,98.2142857 L76.8,23.175 C76.8,21.9321429 76.6338977,21.5321429 76.340986,21.2375 L55.5585488,0.458928571 C55.2638512,0.166071429 54.8637767,0 54.4476279,0 Z" id="path-1"></path>
        <path d="M32.4894083,95.2 L32.4894083,77.0804054 L40,77.0804054 L40,74.2 L20.6,74.2 L20.6,77.0804054 L28.1105917,77.0804054 L28.1105917,95.2 L32.4894083,95.2 Z M44.7235849,95.2 L49.5915094,87.6939189 L54.1339623,95.2 L59.2,95.2 L52.5490566,84.1040541 L58.9735849,74.2 L55.45,74.2 L50.8367925,81.2662162 L46.5773585,74.2 L41.4971698,74.2 L47.9075472,84.8560811 L41.2,95.2 L44.7235849,95.2 Z M72.0894083,95.2 L72.0894083,77.0804054 L79.6,77.0804054 L79.6,74.2 L60.2,74.2 L60.2,77.0804054 L67.7105917,77.0804054 L67.7105917,95.2 L72.0894083,95.2 Z" id="path-3"></path>
        <filter x="-5.1%" y="-14.3%" width="110.2%" height="128.6%" filterUnits="objectBoundingBox" id="filter-4">
            <feMorphology radius="0.5" operator="dilate" in="SourceAlpha" result="shadowSpreadOuter1"></feMorphology>
            <feOffset dx="0" dy="0" in="shadowSpreadOuter1" result="shadowOffsetOuter1"></feOffset>
            <feGaussianBlur stdDeviation="0.5" in="shadowOffsetOuter1" result="shadowBlurOuter1"></feGaussianBlur>
            <feColorMatrix values="0 0 0 0 0   0 0 0 0 0   0 0 0 0 0  0 0 0 0.5 0" type="matrix" in="shadowBlurOuter1"></feColorMatrix>
        </filter>
    </defs>
    <g id="Icons" stroke="none" stroke-width="1" fill="none" fill-rule="evenodd">
        <g id="file/txt">
            <g id="file/TXT">
                <g id="file/Generic" transform="translate(11.600000, 0.000000)">
                    <mask id="mask-2" fill="white">
                        <use xlink:href="#path-1"></use>
                    </mask>
                    <path stroke="#626262" stroke-width="0.7" d="M2.61298605,0.35 C1.96958864,0.35 1.38973044,0.622147396 0.982468862,1.15819653 C0.582990653,1.68400098 0.35,2.44982223 0.35,3.43928571 L0.35,98.2142857 C0.35,98.4892682 0.690676045,98.8710479 1.12711718,99.1693117 C1.52847064,99.4435966 2.04637395,99.65 2.61298605,99.65 L74.187014,99.65 C74.753626,99.65 75.2715294,99.4435966 75.6728828,99.1693117 C76.109324,98.8710479 76.45,98.4892682 76.45,98.2142857 L76.45,23.175 C76.45,22.1127933 76.3483774,21.7413747 76.0927705,21.4842571 L55.3110845,0.706438964 C55.0185135,0.415697474 54.5234583,0.35 2.61298605,0.35 Z"></path>
                    <polygon id="Path" fill="#B5B3A6" fill-rule="nonzero" mask="url(#mask-2)" points="54.6 1.4330168 54.6 22.2 75.276405 22.1763331"></polygon>
                </g>
                <path d="M85.4822791,98.6 L14.5177209,98.6 C13.1272093,98.6 13,98.4903529 13,97.1215059 L13,69.8 L87,69.8 L87,97.1215059 C87,98.4903529 86.8727907,98.6 85.4822791,98.6 Z" id="Path" fill="#127400" fill-rule="nonzero"></path>
                <g id="TXT" fill-rule="nonzero">
                    <use fill="black" fill-opacity="1" filter="url(#filter-4)" xlink:href="#path-3"></use>
                    <use fill="#FFFFFF" xlink:href="#path-3"></use>
                </g>
                <g id="Group" stroke-width="1" fill-rule="evenodd" transform="translate(20.600000, 17.200000)" fill="#2C2C2C">
                    <path d="M12.425,4.2 L1.775,4.2 C0.793425,4.2 0,3.2592 0,2.1 C0,0.9408 0.793425,0 1.775,0 L12.425,0 C13.406575,0 14.2,0.9408 14.2,2.1 C14.2,3.2592 13.406575,4.2 12.425,4.2 Z" id="Path" fill-rule="nonzero"></path>
                    <path d="M18,14.2 L1.8,14.2 C0.8046,14.2 0,13.2592 0,12.1 C0,10.9408 0.8046,10 1.8,10 L18,10 C18.9954,10 19.8,10.9408 19.8,12.1 C19.8,13.2592 18.9954,14.2 18,14.2 Z" id="Path" fill-rule="nonzero"></path>
                    <path d="M25,14 C24.532,14 24.0622,13.7786164 23.722,13.4163522 C23.3962,13.0339623 23.2,12.5308176 23.2,11.9874214 C23.2,11.4440252 23.3962,10.9408805 23.74,10.5584906 C24.388,9.81383648 25.612,9.81383648 26.278,10.5584906 C26.602,10.9408805 26.8,11.4641509 26.8,11.9874214 C26.8,12.5106918 26.602,13.0339623 26.278,13.4163522 C25.936,13.7786164 25.468,14 25,14 Z" id="Path" fill-rule="nonzero"></path>
                    <path d="M46.22,14.2 L31.98,14.2 C30.99566,14.2 30.2,13.2592 30.2,12.1 C30.2,10.9408 30.99566,10 31.98,10 L46.22,10 C47.20434,10 48,10.9408 48,12.1 C48,13.2592 47.20434,14.2 46.22,14.2 Z" id="Path" fill-rule="nonzero"></path>
                    <path d="M2,44 C1.532,44 1.0622,43.7784784 0.722,43.4159886 C0.3962,43.0333604 0.2,42.5097639 0.2,41.9861675 C0.2,41.462571 0.3962,40.9389746 0.722,40.5563464 C1.388,39.8112284 2.612,39.8112284 3.278,40.5764847 C3.602,40.9389746 3.8,41.462571 3.8,41.9861675 C3.8,42.5097639 3.602,43.0333604 3.278,43.4159886 C2.936,43.7784784 2.468,44 2,44 Z" id="Path" fill-rule="nonzero"></path>
                    <path d="M23.22,44.2 L8.98,44.2 C7.99566,44.2 7.2,43.2592 7.2,42.1 C7.2,40.9408 7.99566,40 8.98,40 L23.22,40 C24.20434,40 25,40.9408 25,42.1 C25,43.2592 24.20434,44.2 23.22,44.2 Z" id="Path" fill-rule="nonzero"></path>
                    <path d="M57.1,14.2 L53.7,14.2 C52.7599,14.2 52,13.2592 52,12.1 C52,10.9408 52.7599,10 53.7,10 L57.1,10 C58.0401,10 58.8,10.9408 58.8,12.1 C58.8,13.2592 58.0401,14.2 57.1,14.2 Z" id="Path" fill-rule="nonzero"></path>
                    <path d="M41.0166667,24.2 L1.78333333,24.2 C0.79715,24.2 0,23.2592 0,22.1 C0,20.9408 0.79715,20 1.78333333,20 L41.0166667,20 C42.00285,20 42.8,20.9408 42.8,22.1 C42.8,23.2592 42.00285,24.2 41.0166667,24.2 Z" id="Path" fill-rule="nonzero"></path>
                    <path d="M57.025,24.2 L46.375,24.2 C45.393425,24.2 44.6,23.2592 44.6,22.1 C44.6,20.9408 45.393425,20 46.375,20 L57.025,20 C58.006575,20 58.8,20.9408 58.8,22.1 C58.8,23.2592 58.006575,24.2 57.025,24.2 Z" id="Path" fill-rule="nonzero"></path>
                    <path d="M9.16666667,34.2 L1.83333333,34.2 C0.8195,34.2 0,33.2592 0,32.1 C0,30.9408 0.8195,30 1.83333333,30 L9.16666667,30 C10.1805,30 11,30.9408 11,32.1 C11,33.2592 10.1805,34.2 9.16666667,34.2 Z" id="Path" fill-rule="nonzero"></path>
                    <path d="M33.8166667,34.2 L15.9833333,34.2 C14.99715,34.2 14.2,33.2592 14.2,32.1 C14.2,30.9408 14.99715,30 15.9833333,30 L33.8166667,30 C34.80285,30 35.6,30.9408 35.6,32.1 C35.6,33.2592 34.80285,34.2 33.8166667,34.2 Z" id="Path" fill-rule="nonzero"></path>
                    <path d="M57.2,34.2 L41,34.2 C40.0046,34.2 39.2,33.2592 39.2,32.1 C39.2,30.9408 40.0046,30 41,30 L57.2,30 C58.1954,30 59,30.9408 59,32.1 C59,33.2592 58.1954,34.2 57.2,34.2 Z" id="Path" fill-rule="nonzero"></path>
                </g>
            </g>
        </g>
    </g>
</svg>