<?xml version="1.0" encoding="UTF-8"?>
<svg width="100px" height="100px" viewBox="0 0 100 100" version="1.1" xmlns="http://www.w3.org/2000/svg" xmlns:xlink="http://www.w3.org/1999/xlink">
    <!-- Generator: sketchtool 63.1 (101010) - https://sketch.com -->
    <title>file/webarchive</title>
    <desc>Created with sketchtool.</desc>
    <defs>
        <radialGradient cx="50.704%" cy="57.042%" fx="50.704%" fy="57.042%" r="58.1%" id="radialGradient-1">
            <stop stop-color="#92BEFC" offset="0%"></stop>
            <stop stop-color="#7396E7" offset="36.195%"></stop>
            <stop stop-color="#438EC5" offset="62.535%"></stop>
            <stop stop-color="#475BAF" offset="72.607%"></stop>
            <stop stop-color="#020407" offset="100%"></stop>
        </radialGradient>
        <linearGradient x1="25.7654609%" y1="89.8948913%" x2="68.6230319%" y2="7.63730304%" id="linearGradient-2">
            <stop stop-color="#73FA66" offset="0%"></stop>
            <stop stop-color="#3ABC3E" offset="78.9121354%"></stop>
            <stop stop-color="#077D0F" offset="100%"></stop>
        </linearGradient>
        <linearGradient x1="72.887%" y1="-12.6524121%" x2="35.915%" y2="24.9388115%" id="linearGradient-3">
            <stop stop-color="#FFFFFF" offset="0%"></stop>
            <stop stop-color="#FFFFFF" stop-opacity="0" offset="100%"></stop>
        </linearGradient>
        <linearGradient x1="42.241%" y1="14.4159387%" x2="37.791%" y2="53.7436004%" id="linearGradient-4">
            <stop stop-color="#FFFFFF" stop-opacity="0.664745411" offset="0%"></stop>
            <stop stop-color="#FFFFFF" stop-opacity="0" offset="100%"></stop>
        </linearGradient>
        <linearGradient x1="51.163%" y1="171.7%" x2="51.163%" y2="48.507%" id="linearGradient-5">
            <stop stop-color="#FFFFFF" offset="0%"></stop>
            <stop stop-color="#FFFFFF" stop-opacity="0" offset="100%"></stop>
        </linearGradient>
    </defs>
    <g id="Icons" stroke="none" stroke-width="1" fill="none" fill-rule="evenodd">
        <g id="file/webarchive">
            <g id="file/Web-Archive">
                <g id="file/File">
                    <rect id="Rectangle" fill="#FFFFFF" x="18.6" y="28" width="62.4" height="60.8"></rect>
                    <rect id="Rectangle-Copy" fill="#FFFFFF" x="18.6" y="11.4" width="45.8" height="18.6"></rect>
                    <g id="Group" stroke-width="1" transform="translate(15.400000, 9.000000)" fill="#AEAEAE">
                        <polygon id="Path" fill-rule="nonzero" points="15.4 45.4 54 45.4 54 49.8 15.4 49.8"></polygon>
                        <polygon id="Path" fill-rule="nonzero" points="15.4 32.4 54 32.4 54 36.8 15.4 36.8"></polygon>
                        <polygon id="Path" fill-rule="nonzero" points="15.4 19.6 38 19.6 38 24 15.4 24"></polygon>
                        <polygon id="Path" fill-rule="nonzero" points="15.4 58.2 54 58.2 54 62.6 15.4 62.6"></polygon>
                        <path d="M67.7929885,19.348005 L49.8882315,1.41283847 C49.0441175,0.567290861 47.6764191,0 46.4832549,0 L6.36828361,0 C2.85644563,0 0,2.86129703 0,6.37909951 L0,75.8209005 C0,79.338703 2.85644563,82.2 6.36828361,82.2 L62.8352391,82.2 C66.3470771,82.2 69.1999834,79.338703 69.1999834,75.8209005 L69.1999834,22.7542892 C69.2035291,21.5626606 68.6372211,20.1926575 67.7930797,19.3470917 L67.7929885,19.348005 Z M64.3061335,75.8213572 C64.3061335,76.6240967 63.6329796,77.2948411 62.8387039,77.2948411 L6.36810125,77.2948411 C5.5738529,77.2948411 4.89711563,76.6241059 4.89711563,75.8249192 L4.89711563,6.37946484 C4.89711563,5.58386754 5.57026958,4.90954291 6.36810125,4.90954291 L45.5038136,4.90954291 L45.5038136,17.856985 C45.5038136,21.1036182 48.1429804,23.7437054 51.3805529,23.7437054 L64.3061335,23.7437054 L64.3061335,75.8213572 Z" id="Shape" fill-rule="nonzero"></path>
                    </g>
                </g>
                <g id="annotation/Globe-(Very-Simple)" transform="translate(45.400000, 45.400000)" stroke-width="1">
                    <g id="Group" transform="translate(0.327600, 0.327600)">
                        <path d="M53.939451,26.9697259 C53.939451,17.3343709 48.7990506,8.43093569 40.4545884,3.61325815 C32.1101262,-1.20441938 21.8293248,-1.20441938 13.4848626,3.61325815 C5.14040047,8.43093569 -1.3966428e-13,17.3343709 -1.3966428e-13,26.9697259 C-1.3966428e-13,41.864694 12.0747574,53.9394514 26.9697255,53.9394514 C41.8646936,53.9394514 53.939451,41.864694 53.939451,26.9697259 L53.939451,26.9697259 Z" id="Blue-ball" fill="url(#radialGradient-1)" transform="translate(26.969726, 26.969726) scale(-1, 1) translate(-26.969726, -26.969726) "></path>
                        <path d="M32.5247056,44.331091 C28.8136999,43.8788416 28.7771782,37.3074242 32.4638361,36.7744918 C34.7809321,38.1397329 36.9316516,32.3836384 38.1145474,34.6788572 C37.1386077,39.0293691 42.4423632,38.0441873 43.4548246,34.7022128 C44.9603283,32.0057022 44.2055475,37.0314034 44.783807,38.1015147 C46.1310501,41.5666369 41.9594658,46.4076165 38.8835311,43.4775499 C36.682087,41.432873 34.6632512,43.6070673 32.5247056,44.331091 Z M40.2875857,46.7239787 C40.6588892,48.2272303 41.415699,48.3631174 41.9107703,46.7770596 C42.4038126,45.2738081 40.5493242,45.5540753 40.2875857,46.7239787 Z M12.19229,10.2892377 C9.12650013,13.467723 8.22157473,18.0560374 7.20099744,22.2727854 C7.95983622,25.24744 10.2444685,28.2794219 7.61288052,30.9971648 C5.93085552,34.8232373 0.515506036,32.4154869 1.8647782,28.5257174 C1.79579286,23.9161706 1.25811297,19.0348495 3.37433984,14.7926227 C4.53288782,12.0939889 6.72621596,8.84756003 9.89548381,9.15542934 C10.7314239,9.35076712 11.4740308,9.82212565 12.19229,10.2892377 L12.19229,10.2892377 Z M18.7718444,21.0213556 C18.5527145,17.3556659 22.4138648,17.6693866 21.543432,13.2878242 C21.3932875,9.57160228 13.9205516,11.4223439 16.1098217,6.98814378 C18.1469184,3.67407395 17.9034407,1.97492888 23.0042982,1.11798706 C28.1071846,0.0294393452 33.5651427,-1.24439309 42.1457021,5.32268684 C50.4990156,11.8897668 35.1964432,6.6828451 33.3622446,9.09154643 C30.4141357,11.6686884 31.743118,17.3051337 28.3060247,18.4884293 C25.335597,20.4655015 25.5709587,24.5501873 25.0758874,27.7526652 C25.6663208,30.3761283 33.4900704,28.5127536 29.8318182,32.1131725 C26.1126966,33.0922338 23.6190793,29.2054658 21.0321289,27.1547008 C19.7214074,25.8703409 18.9889453,24.4533339 18.7718444,21.0213556 L18.7718444,21.0213556 Z M44.7229375,15.4890443 C47.8820605,15.2788439 49.1785791,19.0709445 48.9006088,21.8247825 C47.1800332,24.8270391 50.9681401,27.625465 52.8408893,24.5382789 C54.8597251,20.8077521 51.5666894,16.1366315 48.4826388,14.1598981 C47.1191637,12.8965723 44.4348223,13.0685545 44.7229375,15.4890443 Z M13.5476491,47.1677352 C17.5183643,47.1040381 21.5235722,46.161321 25.4679107,47.0297248 C27.0058781,49.193303 31.3458678,50.7071707 31.4026792,52.9684177 C28.3409474,55.2105556 24.3621162,53.1043049 21.1624136,52.2359011 C18.6221298,51.4311944 15.0125731,51.9896056 13.6998226,49.0022117 C13.5151854,48.4161983 13.4198233,47.7792273 13.5476491,47.1677352 Z" id="Continents" fill="url(#linearGradient-2)"></path>
                        <g id="Glows" transform="translate(1.444358, 0.000000)">
                            <path d="M1.24146027e-14,2.61603183 C11.8053489,-4.99157305 35.820775,6.26253879 32.3026093,27.4593941 C27.5312711,34.1811383 18.8983051,-0.187803192 1.24146027e-14,2.61603183 Z" id="Top-left-glow" fill="url(#linearGradient-3)" transform="translate(16.325460, 14.284312) scale(-1, 1) translate(-16.325460, -14.284312) "></path>
                            <path d="M45.9348031,13.0290444 C45.9348031,5.83330187 36.9128098,0 25.783617,0 C14.6544242,0 5.63243086,5.83330187 5.63243086,13.0290444 C5.63243086,20.2247869 14.6544242,26.0580888 25.783617,26.0580888 C36.9128098,26.0580888 45.9348031,20.2247869 45.9348031,13.0290444 Z" id="Top-glow" fill="url(#linearGradient-4)" transform="translate(25.783617, 13.029044) scale(-1, 1) translate(-25.783617, -13.029044) "></path>
                            <path d="M47.6151471,37.8832785 C47.6151471,29.0101891 37.8459677,21.8171289 25.7950741,21.8171289 C13.7441806,21.8171289 3.97500112,29.0101891 3.97500112,37.8832785 C3.97500112,46.756368 13.7441806,53.9494282 25.7950741,53.9494282 C37.8459677,53.9494282 47.6151471,46.756368 47.6151471,37.8832785 Z" id="Bottom-Glow" fill="url(#linearGradient-5)" transform="translate(25.795074, 37.883279) scale(-1, 1) translate(-25.795074, -37.883279) "></path>
                        </g>
                        <path d="M14.1848626,4.82569371 C6.27356198,9.39328534 1.4,17.8345428 1.4,26.9697259 C1.4,34.0306106 4.26198901,40.423042 8.88919921,45.0502522 C13.5164094,49.6774624 19.9088408,52.5394514 26.9697255,52.5394514 C34.0306102,52.5394514 40.4230416,49.6774624 45.0502518,45.0502522 C49.677462,40.423042 52.539451,34.0306106 52.539451,26.9697259 C52.539451,17.8345428 47.6658891,9.39328534 39.7545884,4.82569371 C35.7989381,2.5418979 31.3843318,1.4 26.9697255,1.4 C22.5551192,1.4 18.140513,2.5418979 14.1848626,4.82569371 Z" id="Black-outline" stroke="#000000" stroke-width="2.8" transform="translate(26.969726, 26.969726) scale(-1, 1) translate(-26.969726, -26.969726) "></path>
                    </g>
                </g>
            </g>
        </g>
    </g>
</svg>