<?xml version="1.0" encoding="UTF-8"?>
<svg width="100px" height="100px" viewBox="0 0 100 100" version="1.1" xmlns="http://www.w3.org/2000/svg" xmlns:xlink="http://www.w3.org/1999/xlink">
    <!-- Generator: sketchtool 63.1 (101010) - https://sketch.com -->
    <title>folder/folder_key</title>
    <desc>Created with sketchtool.</desc>
    <defs>
        <linearGradient x1="50%" y1="0%" x2="50%" y2="100%" id="linearGradient-1">
            <stop stop-color="#F4DE7C" offset="0%"></stop>
            <stop stop-color="#C66C00" offset="100%"></stop>
        </linearGradient>
        <linearGradient x1="50%" y1="0%" x2="50%" y2="100%" id="linearGradient-2">
            <stop stop-color="#F6F6F6" offset="0%"></stop>
            <stop stop-color="#B0B0B0" offset="100%"></stop>
        </linearGradient>
        <linearGradient x1="50%" y1="0%" x2="50%" y2="100%" id="linearGradient-3">
            <stop stop-color="#F4DE7C" stop-opacity="0.573126093" offset="0%"></stop>
            <stop stop-color="#FAB04C" stop-opacity="0.938456075" offset="60.102335%"></stop>
            <stop stop-color="#DA8C2F" offset="100%"></stop>
        </linearGradient>
        <linearGradient x1="50%" y1="0%" x2="50%" y2="100%" id="linearGradient-4">
            <stop stop-color="#F6F6F6" offset="0%"></stop>
            <stop stop-color="#B0B0B0" offset="100%"></stop>
        </linearGradient>
    </defs>
    <g id="Icons" stroke="none" stroke-width="1" fill="none" fill-rule="evenodd">
        <g id="folder/folder_key" fill-rule="nonzero">
            <g id="Folder/Key" transform="translate(5.000000, 0.000000)">
                <g id="Folder/Parts/Back">
                    <path d="M27.8669531,26.4295898 L5.4,26.4295898 C5.11289948,26.4295898 4.75956145,26.307064 4.56644234,26.5001831 C4.38126652,26.6853589 4.5,27.0336077 4.5,27.3295898 L4.5,84.42 C4.5,84.6995927 4.66136797,84.9516332 4.85097773,85.1450221 C4.99216216,85.2890205 5.1728167,85.4276284 5.4,85.4276284 L84.6,85.4276284 C84.8518248,85.4276284 85.0852478,85.3478907 85.2488584,85.1842801 C85.4161043,85.0170343 85.5,84.7800482 85.5,84.5276284 L85.5,32.6453906 C85.5,32.3503075 85.5336333,32.0399057 85.3511693,31.8560178 C85.1678653,31.6712834 84.866867,31.7032509 84.6,31.7032509 L39.4284375,31.7032509 C37.2706377,31.7032509 35.4422025,30.5807448 34.0030941,29.2881088 L30.5472995,26.3519015 C30.069613,25.946662 29.0138304,26.4295898 27.8669531,26.4295898 Z" id="Folder-Back" stroke-opacity="0.8" stroke="#DA8C2F" stroke-width="9" fill-opacity="0.8" fill="#DA8C2F"></path>
                    <path d="M29.1579508,27.3495595 L8.2,27.3495595 C7.05621874,27.3495595 6.15816317,27.5174874 5.58542027,28.0767246 C5.03682992,28.6123789 4.85,29.4640645 4.85,30.5910887 L4.85,81.5303705 C4.85,82.6104926 4.84811439,83.4822515 5.40172396,84.003322 C5.91867299,84.4898867 6.82753972,84.61 8.2,84.61 L81.8,84.61 C83.0264101,84.61 83.9279812,84.469232 84.482526,83.9472813 C85.02293,83.4386401 85.15,82.6106751 85.15,81.5303705 L85.15,35.8449495 C85.15,34.7318988 85.0768757,33.8328085 84.5066651,33.2760984 C83.9782085,32.7601537 83.0871867,32.6038608 81.8,32.6038608 L38.0155208,32.6038608 C37.2396095,32.6038608 35.9807184,32.2831462 35.3893194,31.7998989 L31.1180342,28.3006929 C30.7464369,27.9576436 30.2001,27.3495595 29.1579508,27.3495595 Z" id="Folder-Back" stroke="url(#linearGradient-2)" stroke-width="2.5" fill="url(#linearGradient-1)"></path>
                </g>
                <g id="Annotations/Key" transform="translate(50.364902, 39.240467) scale(-1, 1) rotate(45.000000) translate(-50.364902, -39.240467) translate(4.464902, -6.659533)">
                    <path d="M84.041137,38.2651577 L46.9468122,38.5591045 L46.7204788,34.453887 C46.7032889,32.987021 44.9456238,32.3747514 43.796767,33.1332774 L39.6196266,36.5473615 C37.4207546,31.7768207 33.5200847,27.8321985 28.683999,25.9265632 C26.496587,25.0031402 24.1616285,24.5830114 21.8324,24.6030858 C16.7040863,24.6403669 11.5786376,26.8241762 7.9759256,30.6039014 C1.51396385,37.0807674 0.23475041,47.9596653 4.50643517,56.0367487 C8.15212185,63.3409672 16.4218858,67.7802803 24.3378248,66.657547 C31.3570251,65.8129878 37.2775056,60.5922066 39.9949389,54.022138 L45.0215458,56.9114196 C46.4927129,57.829107 47.317827,56.6791299 47.317827,55.3284087 L47.2218502,49.9341272 L52.9417822,50.0674786 L56.8281272,53.731059 L61.8891139,48.6006126 L66.5146236,53.0198512 L69.9339769,53.0198512 L74.6697884,48.2693848 L78.1006016,51.1701375 L82.4653982,50.9894677 L86.2529014,47.3488296 L90.3312,43.5891788 C89.6335774,41.2820552 87.6639039,39.8567719 84.041137,38.2651577 Z M13.4365769,49.594296 C11.6345047,49.835189 9.74934804,48.874485 8.91993642,47.2972097 C7.94584331,45.5550374 8.24093622,43.2091989 9.70923833,41.8097255 C10.9067998,40.6253351 12.8306337,40.1664914 14.4278599,40.8074387 C16.1010081,41.4311794 17.2914071,43.068678 17.3573017,44.8079825 C17.3601667,44.8954495 17.3658966,44.9857844 17.3658966,45.0775531 C17.4188987,47.2398542 15.6726936,49.3390642 13.4365769,49.594296 Z" id="Shape" fill="#FFE600"></path>
                    <path d="M88.2671823,43.5132 L39.1068,44.1250154 L44.7464172,45.9 L86.5033691,45.2838659 L88.3116,43.5751013 C88.2987045,43.5549474 88.2815106,43.5347935 88.2671823,43.5132 Z" id="Path" fill="#8F7200"></path>
                    <path d="M21.7295643,68.6664 C13.9508149,68.6664 6.37676933,63.9623852 2.87962451,56.9572288 C-1.82856596,48.0521262 -0.246762836,36.540687 6.66020554,29.6186353 C10.5409913,25.5465031 16.0236211,23.1737195 21.673736,23.1336 C21.676599,23.1336 21.6780305,23.1336 21.679462,23.1336 C24.4279344,23.1336 26.8958335,23.6236314 29.1819327,24.5879329 C33.6095499,26.3331325 37.4731577,29.764785 39.9968853,34.1464108 L42.5835986,32.0329713 C45.2604962,30.2275925 48.1936316,32.0816879 48.226556,34.6249794 L48.3625481,37.0679722 L83.8407459,36.7857027 C84.1456545,36.7756728 84.3088451,36.8329864 84.5235695,36.926121 C88.1867679,38.5352007 90.8149946,40.2345493 91.7297206,43.2950963 C91.912952,43.9054863 91.731152,44.5688913 91.2630528,45.0001763 L83.4270435,52.3707069 C83.1350183,52.6529765 82.7485144,52.8177531 82.3419695,52.8349472 L77.9816326,53.0169179 C77.5951287,53.0455747 77.1570909,52.8951265 76.8364358,52.6243197 L74.580398,50.7157763 L70.9329461,54.3766834 C70.6194485,54.6904754 70.1942942,54.8667148 69.7519619,54.8667148 L66.3349809,54.8667148 C65.905532,54.8667148 65.4932612,54.7019381 65.184058,54.4039074 L61.7484675,51.1198373 L57.8433464,55.080208 C57.2077621,55.7249861 56.1727905,55.7421802 55.5143023,55.1231932 L52.0958898,51.9021681 L48.754778,51.8233619 L48.8206268,55.4742391 C48.8206268,58.3313227 46.3298237,59.970492 43.9778757,58.5032635 L40.5866616,56.5546007 C37.2541389,63.0725914 31.070076,67.6806059 24.3907155,68.4829964 C23.5389753,68.603355 22.6328383,68.6664 21.7295643,68.6664 Z M21.8397895,26.4692523 C17.0156479,26.5050733 12.285985,28.5526021 9.04507794,31.9498665 C3.21602608,37.7944223 1.85037886,47.8773197 5.8442528,55.4326867 C9.14241967,62.0409463 16.6964243,66.2033475 23.9569722,65.1745681 C30.0665973,64.4380882 35.6823562,59.8816559 38.296268,53.5628301 C38.480931,53.1200824 38.8459624,52.7762007 39.2997467,52.621454 C39.7520994,52.4638416 40.2502601,52.5125581 40.6668254,52.7532753 L45.4866726,55.5229557 C45.4866726,55.5157915 45.4866726,55.5100601 45.4866726,55.5043287 L45.3907623,50.1455059 C45.3821734,49.6898627 45.5596789,49.2528464 45.883197,48.9318901 C46.2038521,48.6123667 46.6504788,48.4604857 47.0971056,48.4461573 L52.8130693,48.5794114 C53.2253401,48.5894413 53.6190016,48.7513523 53.9181842,49.0336218 L56.6165543,51.5769134 L60.5302644,47.6079457 C61.1701431,46.9603018 62.2079778,46.9431078 62.8678974,47.5735575 L67.0063525,51.5281968 L69.0634123,51.5281968 L73.3063666,47.2712282 C73.9204784,46.6565397 74.9010531,46.617853 75.5624043,47.1752279 L78.4955397,49.6540417 L81.5761192,49.5265189 L88.135234,43.3509771 C87.4395269,42.2218989 86.0524073,41.2704929 83.5100703,40.1270863 L46.8036489,40.4193857 C46.7979229,40.4193857 46.7936284,40.4193857 46.789334,40.4193857 C45.9061009,40.4193857 45.1731749,39.7273239 45.1245041,38.8432614 L44.8983277,34.7396067 L40.5193813,38.0322737 C40.1185624,38.3575285 39.5889089,38.4850513 39.0907483,38.3646927 C38.5897247,38.2471998 38.1688648,37.9061838 37.9527089,37.437645 C35.8741767,32.9270637 32.2195673,29.370754 27.9265107,27.6800024 C26.011169,26.8704476 23.9770131,26.4692523 21.8397895,26.4692523 Z M12.7412007,51.4809131 C10.4694165,51.4809131 8.3379189,50.2157151 7.30867325,48.2570223 C5.96306697,45.8498506 6.4240087,42.6933033 8.42380866,40.7876257 C10.0600086,39.169949 12.7669676,38.5882158 14.9084857,39.4450543 C17.1774069,40.2889973 18.7892715,42.4984371 18.8794557,44.9299671 C18.8808872,44.9500269 18.8894762,45.2394606 18.8894762,45.2595204 C18.966777,48.2942762 16.5432542,51.0840163 13.4870101,51.4336294 C13.2594023,51.4622862 13.0003015,51.4809131 12.7412007,51.4809131 Z M12.7540842,42.3723471 C12.0097062,42.3723471 11.2581708,42.6746764 10.7442637,43.1819019 C9.83812675,44.0459046 9.62626533,45.567581 10.2403771,46.6651367 C10.7571472,47.6480652 11.9438574,48.2842463 13.0790338,48.1223354 C14.447544,47.9661558 15.5913093,46.6493755 15.5569534,45.3025056 C15.509714,43.9900238 14.7352747,42.9411847 13.7074605,42.5586164 C13.3868054,42.4296607 13.0790338,42.3723471 12.7540842,42.3723471 Z" id="Shape" fill="#8F7200"></path>
                </g>
                <g id="Folder/Parts/Front" fill="url(#linearGradient-3)" stroke="url(#linearGradient-4)" stroke-width="2.5">
                    <path d="M5.94,81.9 L5.97556748,54.7597266 C5.97556748,51.7322423 8.13226413,49.3597266 11.3405484,49.3597266 C38.490801,49.3597266 53.177704,49.3597266 55.4012576,49.3597266 C57.0647806,49.3597266 59.245027,50.9405187 61.9419968,54.1021029 C62.924803,54.8435395 64.4445284,55.6639632 65.6735853,55.6639632 L79.0205484,55.6639632 C82.4674419,55.6639632 84.4205484,57.7585227 84.4205484,61.3286091 L84.4205484,81.9" id="Path" transform="translate(45.180274, 65.629863) scale(-1, 1) translate(-45.180274, -65.629863) "></path>
                </g>
            </g>
        </g>
    </g>
</svg>