<?xml version="1.0" encoding="UTF-8"?>
<svg width="100px" height="100px" viewBox="0 0 100 100" version="1.1" xmlns="http://www.w3.org/2000/svg" xmlns:xlink="http://www.w3.org/1999/xlink">
    <!-- Generator: sketchtool 63.1 (101010) - https://sketch.com -->
    <title>hebrew/hebrew_Journal Entry</title>
    <desc>Created with sketchtool.</desc>
    <defs>
        <path d="M11.6708712,84.9315068 C13.8116046,84.1802619 15.5712226,83.6168282 16.9497252,83.2412057 C18.3282278,82.8655833 19.5364447,82.677772 20.5743761,82.677772 C21.5474367,82.677772 22.3826471,82.8329204 23.0800072,83.1432173 C23.7773673,83.4535141 24.499054,83.8862965 25.2450671,84.4415645 L31.6186143,77.2394119 C31.683485,77.0760978 31.683485,76.9127837 31.6186143,76.7494696 C29.4130102,74.7897001 27.5479773,73.0749019 26.0235156,71.6050749 C24.499054,70.1352478 23.2584017,68.796072 22.3015587,67.5875476 C21.3447157,66.3790231 20.6473556,65.2684871 20.2094783,64.2559396 C19.771601,63.243392 19.5526624,62.2471759 19.5526624,61.2672912 C19.5526624,60.0587667 19.7878187,58.7767509 20.2581314,57.4212437 C20.728444,56.0657366 21.6771781,54.4407611 23.1043337,52.5463173 C24.3368772,53.6241905 25.8207947,54.9470349 27.5560861,56.5148504 C29.2913776,58.0826659 31.132084,59.7648013 33.0782052,61.5612566 C35.0243265,63.3577119 36.9947743,65.2031614 38.9895486,67.0976052 C40.9843229,68.992049 42.841247,70.7885043 44.5603207,72.4869711 C45.40364,73.3362045 46.2469592,74.2017693 47.0902784,75.0836656 C47.9335976,75.9655618 48.7363726,76.8964523 49.4986035,77.876337 C50.2608343,78.8562217 50.9744121,79.901432 51.6393369,81.011968 C52.3042616,82.122504 52.8799892,83.3310285 53.3665195,84.6375414 C53.9827912,84.8008556 54.696369,84.8498498 55.5072529,84.7845241 C56.1235246,83.1840458 56.7235787,81.6652245 57.3074151,80.2280603 C57.8912515,78.790896 58.5075232,77.321069 59.1562303,75.8185791 C59.4157131,75.1979854 59.5454545,74.5937232 59.5454545,74.0057924 C59.5454545,73.2545474 59.2048833,72.405314 58.5237409,71.4580921 C57.8425984,70.5108703 56.8695378,69.4493285 55.604559,68.2734669 C55.1828994,67.881513 54.7206956,67.4405649 54.2179476,66.9506225 C53.7151996,66.4606802 53.1070367,65.8727493 52.3934589,65.18683 C51.6798811,64.5009107 50.828453,63.6925059 49.8391747,62.7616154 C48.8498964,61.8307249 47.6578971,60.7283546 46.2631769,59.4545045 C48.9228759,56.8741414 51.0555005,54.636738 52.6610505,52.7422943 C54.2666006,50.8478505 55.5072529,49.222875 56.3830075,47.8673679 C57.2587621,46.5118607 57.8344896,45.3768276 58.1101901,44.4622685 C58.3858906,43.5477095 58.5237409,42.7801331 58.5237409,42.1595395 C58.5237409,41.3429689 58.1507343,40.4365755 57.4047211,39.4403594 C56.658708,38.4441433 55.3450761,37.0968018 53.4638256,35.398335 C52.6205064,34.64709 51.9393639,34.0264964 51.4203982,33.536554 C50.9014326,33.0466117 50.4959906,32.6301607 50.2040724,32.287201 C49.9121542,31.9442414 49.7175421,31.6257789 49.6202361,31.3318135 C49.52293,31.037848 49.474277,30.7112198 49.474277,30.3519288 C49.474277,30.1559518 49.4823858,29.9436435 49.4986035,29.7150037 C49.5148212,29.4863639 49.5391477,29.2087299 49.571583,28.8821017 C49.2472295,28.7187876 48.8742229,28.5718049 48.4525633,28.4411536 C48.0309037,28.3105023 47.6903325,28.2778395 47.4308496,28.3431651 C45.0955041,30.4989115 43.4494099,32.287201 42.4925669,33.7080339 C41.5357239,35.1288667 41.0573025,36.231237 41.0573025,37.0151448 C41.0573025,37.4724243 41.1140643,37.897041 41.2275881,38.2889949 C41.3411118,38.6809487 41.5681593,39.1137312 41.9087305,39.5873421 C42.2493017,40.060953 42.7277232,40.5917239 43.343995,41.1796547 C43.9602667,41.7675856 44.7549329,42.4861677 45.7279935,43.3354011 C46.9281016,44.3806115 47.7795297,45.2380106 48.2822777,45.9075985 C48.7850257,46.5771863 49.0363997,47.2876027 49.0363997,48.0388477 C49.0363997,48.52879 48.9309848,49.0350638 48.720155,49.557669 C48.5093252,50.0802742 48.1687539,50.668205 47.6984413,51.3214615 C47.2281287,51.9747179 46.6280746,52.7341286 45.8982791,53.5996934 C45.1684836,54.4652582 44.2846202,55.4533086 43.2466889,56.5638446 C41.7870979,55.2246689 40.2626363,53.8283332 38.6733039,52.3748375 C37.0839715,50.9213419 35.4946392,49.4351834 33.9053068,47.9163621 C32.3159744,46.3975408 30.7509686,44.8623881 29.2102892,43.310904 C27.6696099,41.7594199 26.2181278,40.2487643 24.8558429,38.7789372 C24.1098297,37.9297038 23.5097757,37.145796 23.0556807,36.4272139 C22.6015857,35.7086318 22.2447968,35.0227125 21.985314,34.369456 C21.7258312,33.7161996 21.5474367,33.0711088 21.4501306,32.4341838 C21.3528246,31.7972587 21.3041715,31.1358365 21.3041715,30.4499172 L21.3041715,29.6660095 C21.3041715,29.372044 21.3203892,29.09441 21.3528246,28.8331075 C20.9960357,28.6697933 20.5905937,28.5636392 20.1364988,28.5146449 C19.6824038,28.4656507 19.2769619,28.4901478 18.920173,28.5881363 C18.0768538,30.0579633 17.2416434,31.5032933 16.4145419,32.9241261 C15.5874403,34.3449589 14.800883,35.8392831 14.0548698,37.4070986 C13.6332102,38.2889949 13.4223804,39.2035539 13.4223804,40.1507758 C13.4223804,40.9346836 13.592666,41.6777628 13.9332372,42.3800135 C14.2738085,43.0822642 14.7441211,43.809012 15.3441752,44.560257 C15.9442292,45.3115019 16.6415893,46.0954097 17.4362555,46.9119803 C18.2309217,47.7285509 19.0823498,48.6267785 19.9905397,49.6066632 C18.5309487,51.5337698 17.2821876,53.2730652 16.2442562,54.8245493 C15.2063249,56.3760334 14.3548968,57.8131976 13.6899721,59.136042 C13.0250473,60.4588863 12.538517,61.6837422 12.2303811,62.8106096 C11.9222452,63.937477 11.7681773,65.0235159 11.7681773,66.0687263 C11.7681773,66.9179597 11.8735922,67.7671931 12.084422,68.6164265 C12.2952518,69.4656599 12.6439319,70.3393904 13.1304622,71.2376181 C13.6169925,72.1358457 14.2494819,73.1075647 15.0279304,74.1527751 C15.806379,75.1979854 16.7632219,76.3411843 17.8984593,77.5823716 C16.4388684,78.4969306 15.0846923,79.3951583 13.8359312,80.2770545 C12.58717,81.1589507 11.4600414,81.9918527 10.4545455,82.7757605 C10.5518515,83.2003772 10.7221371,83.6086625 10.9654023,84.0006164 C11.2086674,84.3925703 11.4438238,84.7028671 11.6708712,84.9315068 Z" id="path-1"></path>
        <filter x="-1.0%" y="-0.9%" width="102.0%" height="101.8%" filterUnits="objectBoundingBox" id="filter-2">
            <feGaussianBlur stdDeviation="0.5" in="SourceAlpha" result="shadowBlurInner1"></feGaussianBlur>
            <feOffset dx="0" dy="0" in="shadowBlurInner1" result="shadowOffsetInner1"></feOffset>
            <feComposite in="shadowOffsetInner1" in2="SourceAlpha" operator="arithmetic" k2="-1" k3="1" result="shadowInnerInner1"></feComposite>
            <feColorMatrix values="0 0 0 0 0   0 0 0 0 0   0 0 0 0 0  0 0 0 0.475387893 0" type="matrix" in="shadowInnerInner1"></feColorMatrix>
        </filter>
        <rect id="path-3" x="67.2727273" y="0" width="2.04545455" height="100"></rect>
        <filter x="-48.9%" y="-2.0%" width="295.6%" height="104.0%" filterUnits="objectBoundingBox" id="filter-4">
            <feOffset dx="1" dy="0" in="SourceAlpha" result="shadowOffsetOuter1"></feOffset>
            <feGaussianBlur stdDeviation="0.5" in="shadowOffsetOuter1" result="shadowBlurOuter1"></feGaussianBlur>
            <feColorMatrix values="0 0 0 0 0   0 0 0 0 0   0 0 0 0 0  0 0 0 0.5 0" type="matrix" in="shadowBlurOuter1"></feColorMatrix>
        </filter>
    </defs>
    <g id="Icons" stroke="none" stroke-width="1" fill="none" fill-rule="evenodd">
        <g id="hebrew/hebrew_Journal-Entry">
            <rect id="Rectangle" fill="#FF3939" x="5.45454545" y="0" width="30" height="25.4545455"></rect>
            <g id="Group-2" fill-rule="nonzero">
                <path d="M11.7543416,0 L11.7543416,22.6711605 C11.7543416,25.1359506 14.603334,21.4842141 16.5272731,19.9452202 L19.0320729,16.5304654 C19.3290328,16.1256245 19.8979548,16.0381697 20.3027957,16.3351296 C20.377478,16.3899108 20.4433503,16.4557831 20.4981314,16.5304654 L23.0029312,19.9452202 L23.0029312,19.9452202 C24.9269702,21.4843141 27.7758627,25.1360206 27.7758627,22.6711605 L27.7758627,0 L67.2727273,0 L67.2727273,100 L5.87352414,100 C2.63039248,100 0,97.3516106 0,94.1133235 L0,5.88667645 C0,2.63668945 2.63039248,0 5.87352414,0 L11.7543416,0 Z" id="Path" fill="#008FFF"></path>
                <path d="M69.0909091,0 L75.0039174,0 C78.2645246,0 80.9090909,2.64838941 80.9090909,5.88667645 L80.9090909,94.1133235 C80.9090909,97.3633105 78.2645246,100 75.0039174,100 L69.0909091,100 L69.0909091,0 Z" id="Path" fill="#008FFF"></path>
                <g id="Group" transform="translate(87.727273, 5.936073)" fill="#D5D5D5">
                    <polygon id="Path" points="0 70.6834289 0 13.2521853 11.6208467 13.2521853 11.6208467 70.6834289"></polygon>
                    <path d="M0.208337702,79.1403978 C0.073304372,78.7961728 0,78.4245701 0,78.049092 L0,75.1036279 L11.6208467,75.1036279 L11.6208467,78.049092 C11.6208467,78.4246102 11.5514021,78.7962129 11.412509,79.1403978 L7.56220228,87.6952017 C7.39630447,88.0589837 6.95262635,88.3562739 6.53206943,88.3562739 L5.09304396,88.3562739 C4.68794397,88.3562739 4.2211249,88.0511629 4.05905923,87.6952017 L0.208337702,79.1403978 Z" id="Path"></path>
                    <path d="M0,8.83639244 L0,2.94546415 C0,1.31821888 1.30016,0 2.90511291,0 L8.71533872,0 C10.3202916,0 11.6204516,1.31821888 11.6204516,2.94546415 L11.6204516,8.83639244 L0,8.83639244 Z" id="Path"></path>
                </g>
                <g id="×">
                    <use fill="#FFFFFF" xlink:href="#path-1"></use>
                    <use fill="black" fill-opacity="1" filter="url(#filter-2)" xlink:href="#path-1"></use>
                </g>
            </g>
            <g id="Rectangle">
                <use fill="black" fill-opacity="1" filter="url(#filter-4)" xlink:href="#path-3"></use>
                <use fill="#0059FF" fill-rule="evenodd" xlink:href="#path-3"></use>
            </g>
        </g>
    </g>
</svg>