<?xml version="1.0" encoding="UTF-8"?>
<svg width="100px" height="100px" viewBox="0 0 100 100" version="1.1" xmlns="http://www.w3.org/2000/svg" xmlns:xlink="http://www.w3.org/1999/xlink">
    <!-- Generator: sketchtool 63.1 (101010) - https://sketch.com -->
    <title>file/file_csv</title>
    <desc>Created with sketchtool.</desc>
    <defs>
        <path d="M33.0028059,95.6 C35.7900234,95.6 38.1890881,95.151094 40.2,94.2532819 L40.2,94.2532819 L40.2,91.0688546 C38.1236165,92.0975976 36.0659392,92.6119691 34.026968,92.6119691 C31.7541699,92.6119691 29.9794232,91.9105534 28.702728,90.507722 C27.4260327,89.1048906 26.7876851,87.1502789 26.7876851,84.6438867 C26.7876851,82.0907336 27.3816056,80.1197555 28.5694466,78.7309524 C29.7572876,77.3421493 31.4455183,76.6477477 33.6341387,76.6477477 C35.3457521,76.6477477 37.468901,77.0919777 40.0035853,77.9804376 L40.0035853,77.9804376 L40.0035853,74.5996139 C37.7681995,74.066538 35.5187841,73.8 33.255339,73.8 C29.7105222,73.8 26.9817615,74.7422351 25.0690569,76.6267053 C23.1563523,78.5111755 22.2,81.2022737 22.2,84.7 C22.2,88.1322608 23.1493375,90.8069927 25.0480125,92.7241956 C26.9466875,94.6413985 29.5982853,95.6 33.0028059,95.6 Z M48.6850806,95.6 C51.2159946,95.6 53.2012097,95.0528958 54.6407258,93.9586873 C56.0802419,92.8644788 56.8,91.354097 56.8,89.4275418 C56.8,88.0714715 56.4189516,86.9211497 55.6568548,85.9765766 C54.8947581,85.0320034 53.5069892,83.9985843 51.4935484,82.8763192 L51.4935484,82.8763192 L49.9975806,82.0486486 C48.877957,81.4220506 48.1158602,80.8936508 47.7112903,80.4634492 C47.3067204,80.0332475 47.1044355,79.5329043 47.1044355,78.9624196 C47.1044355,78.2703561 47.39375,77.7115616 47.972379,77.286036 C48.5510081,76.8605105 49.3201613,76.6477477 50.2798387,76.6477477 C51.5217742,76.6477477 53.2106183,77.0452166 55.346371,77.8401544 L55.346371,77.8401544 L55.346371,74.515444 C53.2576613,74.0384813 51.3806452,73.8 49.7153226,73.8 C47.6360215,73.8 45.9636425,74.3190476 44.6981855,75.3571429 C43.4327285,76.3952381 42.8,77.7700129 42.8,79.4814672 C42.8,80.7627199 43.1857527,81.8826469 43.9572581,82.8412484 C44.7287634,83.7998498 46.050672,84.8028743 47.9229839,85.8503218 L47.9229839,85.8503218 L49.3201613,86.621879 C50.4491935,87.2578293 51.2159946,87.8072716 51.6205645,88.2702059 C52.0251344,88.7331403 52.2274194,89.301287 52.2274194,89.9746461 C52.2274194,90.8256971 51.9051747,91.4990562 51.2606855,91.9947233 C50.6161962,92.4903904 49.7341398,92.7382239 48.6145161,92.7382239 C47.0150538,92.7382239 45.0909946,92.2706135 42.8423387,91.3353925 L42.8423387,91.3353925 L42.8423387,94.8985843 C45.0627688,95.3661948 47.0103495,95.6 48.6850806,95.6 Z M70.3901805,95 L77.8,74.2 L74.6903971,74.2 L68.9474368,90.2918919 L63.0083755,74.2 L58.4,74.2 L66.0619495,95 L70.3901805,95 Z" id="path-1"></path>
        <filter x="-5.4%" y="-13.8%" width="111.5%" height="127.5%" filterUnits="objectBoundingBox" id="filter-2">
            <feMorphology radius="0.5" operator="dilate" in="SourceAlpha" result="shadowSpreadOuter1"></feMorphology>
            <feOffset dx="0" dy="0" in="shadowSpreadOuter1" result="shadowOffsetOuter1"></feOffset>
            <feGaussianBlur stdDeviation="0.5" in="shadowOffsetOuter1" result="shadowBlurOuter1"></feGaussianBlur>
            <feColorMatrix values="0 0 0 0 0   0 0 0 0 0   0 0 0 0 0  0 0 0 0.5 0" type="matrix" in="shadowBlurOuter1"></feColorMatrix>
        </filter>
    </defs>
    <g id="Icons" stroke="none" stroke-width="1" fill="none" fill-rule="evenodd">
        <g id="file/file_csv">
            <g id="File/CSV">
                <g id="csv" stroke-width="1" fill-rule="evenodd" transform="translate(11.600000, 0.000000)">
                    <path d="M54.4476279,0 L2.61298605,0 C1.16986047,0 0,1.16964286 0,3.43928571 L0,98.2142857 C0,98.8303571 1.16986047,100 2.61298605,100 L74.187014,100 C75.6301395,100 76.8,98.8303571 76.8,98.2142857 L76.8,23.175 C76.8,21.9321429 76.6338977,21.5321429 76.340986,21.2375 L55.5585488,0.458928571 C55.2638512,0.166071429 54.8637767,0 54.4476279,0 Z" id="Path" fill="#E9E9E0" fill-rule="nonzero"></path>
                    <polygon id="Path" fill="#D9D7CA" fill-rule="nonzero" points="55 0.6 55 21.6 76.2 21.6"></polygon>
                    <path d="M74.187014,100 L2.61298605,100 C1.16986047,100 0,98.8364118 0,97.4010235 L0,69.8 L76.8,69.8 L76.8,97.4010235 C76.8,98.8364118 75.6301395,100 74.187014,100 Z" id="Path" fill="#C81759" fill-rule="nonzero"></path>
                </g>
                <path d="M42.3819871,62 C56.9353021,53.9715302 64.9647173,42.2633452 64.7974378,30.0533808 C64.6301583,20.519573 60.1136123,15.8362989 57.938979,15 L54.9279483,15 L41.3783102,23.3629893 L41.3783102,26.5409253 L48.571328,30.5551601 C49.7422843,32.0604982 50.4114023,34.2348754 50.4114023,36.4092527 C50.4114023,43.2669039 45.0584588,50.7935943 38.2,56.3131673 L42.3819871,62 Z" id="," fill="#1E1E1E" fill-rule="nonzero"></path>
                <g id="CSV" fill-rule="nonzero">
                    <use fill="black" fill-opacity="1" filter="url(#filter-2)" xlink:href="#path-1"></use>
                    <use fill="#FFFFFF" xlink:href="#path-1"></use>
                </g>
            </g>
        </g>
    </g>
</svg>