<?xml version="1.0" encoding="UTF-8"?>
<svg width="100px" height="100px" viewBox="0 0 100 100" version="1.1" xmlns="http://www.w3.org/2000/svg" xmlns:xlink="http://www.w3.org/1999/xlink">
    <!-- Generator: sketchtool 63.1 (101010) - https://sketch.com -->
    <title>file/file_pdf_alt</title>
    <desc>Created with sketchtool.</desc>
    <g id="Icons" stroke="none" stroke-width="1" fill="none" fill-rule="evenodd">
        <g id="file/file_pdf_alt" fill-rule="nonzero">
            <g id="file_pdf" transform="translate(11.000000, 0.000000)">
                <path d="M55.3303571,0 L3.50535714,0 C2.0625,0 0.892857143,1.16964286 0.892857143,3.43928571 L0.892857143,98.2142857 C0.892857143,98.8303571 2.0625,100 3.50535714,100 L75.0660714,100 C76.5089286,100 77.6785714,98.8303571 77.6785714,98.2142857 L77.6785714,23.175 C77.6785714,21.9321429 77.5125,21.5321429 77.2196429,21.2375 L56.4410714,0.458928571 C56.1464286,0.166071429 55.7464286,0 55.3303571,0 Z" id="Path" fill="#E9E9E0"></path>
                <polygon id="Path" fill="#D9D7CA" points="56.25 0.269642857 56.25 21.4285714 77.4089286 21.4285714"></polygon>
                <path d="M24.1321429,59.5071429 L24.1321429,59.5071429 C23.5107143,59.5071429 22.9142857,59.3053571 22.4053571,58.925 C20.5464286,57.5303571 20.2964286,55.9785714 20.4142857,54.9214286 C20.7392857,52.0142857 24.3339286,48.9714286 31.1017857,45.8714286 C33.7875,39.9857143 36.3428571,32.7339286 37.8660714,26.675 C36.0839286,22.7964286 34.3517857,17.7642857 35.6142857,14.8125 C36.0571429,13.7785714 36.6089286,12.9857143 37.6392857,12.6428571 C38.0464286,12.5071429 39.075,12.3357143 39.4535714,12.3357143 C40.3535714,12.3357143 41.1446429,13.4946429 41.7053571,14.2089286 C42.2321429,14.8803571 43.4267857,16.3035714 41.0392857,26.3553571 C43.4464286,31.3267857 46.8571429,36.3910714 50.125,39.8589286 C52.4660714,39.4357143 54.4803571,39.2196429 56.1214286,39.2196429 C58.9178571,39.2196429 60.6125,39.8714286 61.3035714,41.2142857 C61.875,42.325 61.6410714,43.6232143 60.6071429,45.0714286 C59.6125,46.4625 58.2410714,47.1982143 56.6428571,47.1982143 C54.4714286,47.1982143 51.9428571,45.8267857 49.1232143,43.1178571 C44.0571429,44.1767857 38.1410714,46.0660714 33.3589286,48.1571429 C31.8660714,51.325 30.4357143,53.8767857 29.1035714,55.7482143 C27.2732143,58.3107143 25.6946429,59.5071429 24.1321429,59.5071429 Z M28.8857143,50.3535714 C25.0696429,52.4982143 23.5142857,54.2607143 23.4017857,55.2535714 C23.3839286,55.4178571 23.3357143,55.85 24.1714286,56.4892857 C24.4375,56.4053571 25.9910714,55.6964286 28.8857143,50.3535714 Z M53.2375,42.4214286 C54.6928571,43.5410714 55.0482143,44.1071429 56,44.1071429 C56.4178571,44.1071429 57.6089286,44.0892857 58.1607143,43.3196429 C58.4267857,42.9464286 58.5303571,42.7071429 58.5714286,42.5785714 C58.3517857,42.4625 58.0607143,42.2267857 56.4732143,42.2267857 C55.5714286,42.2285714 54.4375,42.2678571 53.2375,42.4214286 Z M39.8982143,30.6678571 C38.6214286,35.0857143 36.9357143,39.8553571 35.1232143,44.175 C38.8553571,42.7267857 42.9125,41.4625 46.7232143,40.5678571 C44.3125,37.7678571 41.9035714,34.2714286 39.8982143,30.6678571 Z M38.8142857,15.5571429 C38.6392857,15.6160714 36.4392857,18.6946429 38.9857143,21.3 C40.6803571,17.5232143 38.8910714,15.5321429 38.8142857,15.5571429 Z" id="Shape" fill="#CC4B4C"></path>
                <path d="M75.0660714,100 L3.50535714,100 C2.0625,100 0.892857143,98.8303571 0.892857143,97.3875 L0.892857143,69.6428571 L77.6785714,69.6428571 L77.6785714,97.3875 C77.6785714,98.8303571 76.5089286,100 75.0660714,100 Z" id="Path" fill="#CC4B4C"></path>
                <g id="Group" transform="translate(17.071429, 76.000000)" fill="#FFFFFF">
                    <path d="M3.25892857,18.6428571 L0.328571429,18.6428571 L0.328571429,0.65 L5.50357143,0.65 C6.26785714,0.65 7.025,0.771428571 7.77321429,1.01607143 C8.52142857,1.26071429 9.19285714,1.62678571 9.7875,2.11428571 C10.3821429,2.60178571 10.8625,3.19285714 11.2285714,3.88392857 C11.5946429,4.575 11.7785714,5.35178571 11.7785714,6.21607143 C11.7785714,7.12857143 11.6232143,7.95357143 11.3142857,8.69464286 C11.0053571,9.43571429 10.5732143,10.0589286 10.0196429,10.5625 C9.46607143,11.0660714 8.79821429,11.4571429 8.01785714,11.7339286 C7.2375,12.0107143 6.37321429,12.1482143 5.43035714,12.1482143 L3.25714286,12.1482143 L3.25714286,18.6428571 L3.25892857,18.6428571 Z M3.25892857,2.87142857 L3.25892857,10 L5.94464286,10 C6.30178571,10 6.65535714,9.93928571 7.00714286,9.81607143 C7.35714286,9.69464286 7.67857143,9.49464286 7.97142857,9.21785714 C8.26428571,8.94107143 8.5,8.55535714 8.67857143,8.05892857 C8.85714286,7.5625 8.94642857,6.94821429 8.94642857,6.21607143 C8.94642857,5.92321429 8.90535714,5.58392857 8.825,5.20357143 C8.74285714,4.82142857 8.57678571,4.45535714 8.325,4.10535714 C8.07142857,3.75535714 7.71785714,3.4625 7.2625,3.22678571 C6.80714286,2.99107143 6.20357143,2.87321429 5.45535714,2.87321429 L3.25892857,2.87321429 L3.25892857,2.87142857 Z" id="Shape"></path>
                    <path d="M29.7482143,9.14642857 C29.7482143,10.6267857 29.5892857,11.8928571 29.2714286,12.9428571 C28.9535714,13.9928571 28.5517857,14.8714286 28.0625,15.5803571 C27.5732143,16.2892857 27.025,16.8464286 26.4142857,17.2535714 C25.8035714,17.6607143 25.2142857,17.9642857 24.6446429,18.1696429 C24.075,18.3732143 23.5535714,18.5035714 23.0821429,18.5607143 C22.6107143,18.6142857 22.2607143,18.6428571 22.0321429,18.6428571 L15.2214286,18.6428571 L15.2214286,0.65 L20.6410714,0.65 C22.1553571,0.65 23.4857143,0.891071429 24.6321429,1.36964286 C25.7785714,1.84821429 26.7321429,2.48928571 27.4892857,3.28571429 C28.2464286,4.08214286 28.8107143,4.99107143 29.1857143,6.00714286 C29.5607143,7.025 29.7482143,8.07142857 29.7482143,9.14642857 Z M21.0571429,16.4946429 C23.0428571,16.4946429 24.475,15.8607143 25.3535714,14.5910714 C26.2321429,13.3214286 26.6714286,11.4821429 26.6714286,9.07321429 C26.6714286,8.325 26.5821429,7.58392857 26.4035714,6.85178571 C26.2232143,6.11964286 25.8785714,5.45714286 25.3660714,4.8625 C24.8535714,4.26785714 24.1571429,3.7875 23.2785714,3.42142857 C22.4,3.05535714 21.2607143,2.87142857 19.8607143,2.87142857 L18.1517857,2.87142857 L18.1517857,16.4946429 L21.0571429,16.4946429 L21.0571429,16.4946429 Z" id="Shape"></path>
                    <polygon id="Path" points="36.975 2.87142857 36.975 8.53571429 44.4946429 8.53571429 44.4946429 10.5375 36.975 10.5375 36.975 18.6428571 33.9964286 18.6428571 33.9964286 0.65 45.25 0.65 45.25 2.87142857"></polygon>
                </g>
            </g>
        </g>
    </g>
</svg>