<?xml version="1.0" encoding="UTF-8"?>
<svg width="100px" height="100px" viewBox="0 0 100 100" version="1.1" xmlns="http://www.w3.org/2000/svg" xmlns:xlink="http://www.w3.org/1999/xlink">
    <!-- Generator: sketchtool 63.1 (101010) - https://sketch.com -->
    <title>file/file_css</title>
    <desc>Created with sketchtool.</desc>
    <g id="Icons" stroke="none" stroke-width="1" fill="none" fill-rule="evenodd">
        <g id="file/file_css" fill-rule="nonzero">
            <g id="css" transform="translate(11.000000, 0.000000)">
                <path d="M55.3303571,0 L3.50535714,0 C2.0625,0 0.892857143,1.16964286 0.892857143,3.43928571 L0.892857143,98.2142857 C0.892857143,98.8303571 2.0625,100 3.50535714,100 L75.0660714,100 C76.5089286,100 77.6785714,98.8303571 77.6785714,98.2142857 L77.6785714,23.175 C77.6785714,21.9321429 77.5125,21.5321429 77.2196429,21.2375 L56.4410714,0.458928571 C56.1464286,0.166071429 55.7464286,0 55.3303571,0 Z" id="Path" fill="#E9E9E0"></path>
                <polygon id="Path" fill="#D9D7CA" points="56.25 0.269642857 56.25 21.4285714 77.4089286 21.4285714"></polygon>
                <path d="M75.0660714,100 L3.50535714,100 C2.0625,100 0.892857143,98.8303571 0.892857143,97.3875 L0.892857143,69.6428571 L77.6785714,69.6428571 L77.6785714,97.3875 C77.6785714,98.8303571 76.5089286,100 75.0660714,100 Z" id="Path" fill="#0096E6"></path>
                <g id="Group" transform="translate(18.857143, 76.000000)" fill="#FFFFFF">
                    <path d="M12.5357143,16.8125 C11.8678571,17.4625 11.1107143,17.9517857 10.2660714,18.2767857 C9.42142857,18.6017857 8.50892857,18.7642857 7.53214286,18.7642857 C6.45714286,18.7642857 5.46964286,18.5696429 4.56607143,18.1785714 C3.6625,17.7875 2.87321429,17.2107143 2.19821429,16.4446429 C1.52321429,15.6785714 0.992857143,14.7196429 0.610714286,13.5642857 C0.228571429,12.4089286 0.0375,11.0732143 0.0375,9.56071429 C0.0375,8.04821429 0.228571429,6.71607143 0.610714286,5.56964286 C0.992857143,4.42142857 1.52321429,3.46607143 2.19821429,2.70178571 C2.87321429,1.9375 3.66607143,1.35535714 4.57857143,0.955357143 C5.49107143,0.555357143 6.475,0.357142857 7.53214286,0.357142857 C8.50892857,0.357142857 9.42142857,0.519642857 10.2660714,0.844642857 C11.1107143,1.16964286 11.8678571,1.65892857 12.5357143,2.30892857 L10.5089286,4.11607143 C10.1017857,3.64285714 9.65178571,3.30178571 9.15357143,3.09107143 C8.65535714,2.88035714 8.14107143,2.77321429 7.60357143,2.77321429 C7.00178571,2.77321429 6.42857143,2.88571429 5.88214286,3.11428571 C5.33571429,3.34285714 4.84821429,3.72857143 4.41785714,4.27321429 C3.9875,4.81785714 3.64821429,5.52142857 3.40535714,6.38571429 C3.1625,7.25 3.03035714,8.30535714 3.01428571,9.55892857 C3.03035714,10.7803571 3.15714286,11.8214286 3.39285714,12.6839286 C3.62857143,13.5464286 3.95357143,14.25 4.36964286,14.7964286 C4.78571429,15.3428571 5.25714286,15.7392857 5.78571429,15.9928571 C6.31428571,16.2464286 6.87142857,16.3714286 7.45892857,16.3714286 C8.04642857,16.3714286 8.59464286,16.2642857 9.10714286,16.0535714 C9.61964286,15.8428571 10.0875,15.5 10.5107143,15.0285714 L12.5357143,16.8125 Z" id="Path"></path>
                    <path d="M26.9160714,13.7107143 C26.9160714,14.3607143 26.7821429,14.9928571 26.5125,15.6035714 C26.2428571,16.2142857 25.8660714,16.7517857 25.3767857,17.2142857 C24.8875,17.6767857 24.2875,18.0482143 23.5696429,18.325 C22.8517857,18.6017857 22.0410714,18.7392857 21.1285714,18.7392857 C20.7375,18.7392857 20.3357143,18.7178571 19.9196429,18.6785714 C19.5035714,18.6392857 19.0857143,18.5678571 18.6625,18.4714286 C18.2392857,18.375 17.8357143,18.2392857 17.4535714,18.0678571 C17.0714286,17.8964286 16.7428571,17.6892857 16.4642857,17.4446429 L16.9767857,15.3446429 C17.2053571,15.475 17.4928571,15.6017857 17.8428571,15.7232143 C18.1928571,15.8446429 18.5535714,15.9589286 18.9285714,16.0642857 C19.3035714,16.1696429 19.6767857,16.2553571 20.0517857,16.3214286 C20.4267857,16.3875 20.775,16.4196429 21.1017857,16.4196429 C22.0946429,16.4196429 22.8553571,16.1875 23.3839286,15.7232143 C23.9125,15.2589286 24.1767857,14.5714286 24.1767857,13.6607143 C24.1767857,13.1071429 23.9910714,12.6357143 23.6160714,12.2446429 C23.2410714,11.8535714 22.7732143,11.5 22.2125,11.1821429 C21.6517857,10.8642857 21.0446429,10.5482143 20.3928571,10.2303571 C19.7410714,9.9125 19.1321429,9.5375 18.5625,9.10714286 C17.9928571,8.67678571 17.5214286,8.16785714 17.1464286,7.58214286 C16.7714286,6.99642857 16.5857143,6.26428571 16.5857143,5.38571429 C16.5857143,4.58928571 16.7321429,3.88035714 17.025,3.2625 C17.3178571,2.64464286 17.7125,2.11785714 18.2089286,1.6875 C18.7053571,1.25714286 19.2839286,0.926785714 19.9428571,0.698214286 C20.6017857,0.469642857 21.2982143,0.357142857 22.0303571,0.357142857 C22.7785714,0.357142857 23.5357143,0.426785714 24.3,0.564285714 C25.0642857,0.701785714 25.6821429,0.926785714 26.1553571,1.23571429 C26.0571429,1.44642857 25.9446429,1.67857143 25.8142857,1.93214286 C25.6839286,2.18571429 25.5607143,2.41964286 25.4482143,2.63928571 C25.3357143,2.85892857 25.2375,3.04285714 25.1553571,3.18928571 C25.0732143,3.33571429 25.025,3.41785714 25.0089286,3.43392857 C24.9107143,3.38571429 24.8017857,3.32142857 24.6785714,3.23928571 C24.5553571,3.15714286 24.3821429,3.07678571 24.1535714,2.99464286 C23.925,2.9125 23.625,2.85714286 23.25,2.82321429 C22.875,2.78928571 22.3946429,2.79821429 21.8089286,2.84821429 C21.4821429,2.88214286 21.175,2.97321429 20.8803571,3.12857143 C20.5857143,3.28392857 20.3267857,3.47321429 20.0982143,3.70178571 C19.8696429,3.93035714 19.6910714,4.18571429 19.5607143,4.47142857 C19.4303571,4.75714286 19.3660714,5.03035714 19.3660714,5.28928571 C19.3660714,5.93928571 19.5517857,6.46428571 19.9267857,6.86428571 C20.3017857,7.26428571 20.7660714,7.6125 21.3178571,7.91428571 C21.8696429,8.21607143 22.4732143,8.50892857 23.125,8.79285714 C23.7767857,9.07678571 24.3821429,9.425 24.9446429,9.83035714 C25.5071429,10.2357143 25.9732143,10.7464286 26.3482143,11.3553571 C26.7232143,11.9642857 26.9160714,12.75 26.9160714,13.7107143 Z" id="Path"></path>
                    <path d="M40.1482143,13.7107143 C40.1482143,14.3607143 40.0142857,14.9928571 39.7446429,15.6035714 C39.475,16.2142857 39.0982143,16.7517857 38.6089286,17.2142857 C38.1196429,17.6767857 37.5196429,18.0482143 36.8017857,18.325 C36.0839286,18.6017857 35.2732143,18.7392857 34.3607143,18.7392857 C33.9696429,18.7392857 33.5678571,18.7178571 33.1517857,18.6785714 C32.7357143,18.6392857 32.3178571,18.5678571 31.8946429,18.4714286 C31.4714286,18.375 31.0678571,18.2392857 30.6857143,18.0678571 C30.3035714,17.8964286 29.975,17.6892857 29.6964286,17.4446429 L30.2089286,15.3446429 C30.4375,15.475 30.725,15.6017857 31.075,15.7232143 C31.425,15.8446429 31.7857143,15.9589286 32.1607143,16.0642857 C32.5357143,16.1696429 32.9089286,16.2553571 33.2839286,16.3214286 C33.6589286,16.3875 34.0071429,16.4196429 34.3339286,16.4196429 C35.3267857,16.4196429 36.0875,16.1875 36.6160714,15.7232143 C37.1446429,15.2589286 37.4089286,14.5714286 37.4089286,13.6607143 C37.4089286,13.1071429 37.2232143,12.6357143 36.8482143,12.2446429 C36.4732143,11.8535714 36.0053571,11.5 35.4446429,11.1821429 C34.8839286,10.8642857 34.2767857,10.5482143 33.625,10.2303571 C32.9732143,9.9125 32.3642857,9.5375 31.7946429,9.10714286 C31.225,8.67678571 30.7535714,8.16785714 30.3785714,7.58214286 C30.0035714,6.99642857 29.8178571,6.26428571 29.8178571,5.38571429 C29.8178571,4.58928571 29.9642857,3.88035714 30.2571429,3.2625 C30.55,2.64464286 30.9446429,2.11785714 31.4410714,1.6875 C31.9375,1.25714286 32.5160714,0.926785714 33.175,0.698214286 C33.8339286,0.469642857 34.5303571,0.357142857 35.2625,0.357142857 C36.0107143,0.357142857 36.7678571,0.426785714 37.5321429,0.564285714 C38.2964286,0.701785714 38.9142857,0.926785714 39.3875,1.23571429 C39.2892857,1.44642857 39.1767857,1.67857143 39.0464286,1.93214286 C38.9160714,2.18571429 38.7928571,2.41964286 38.6803571,2.63928571 C38.5678571,2.85892857 38.4696429,3.04285714 38.3875,3.18928571 C38.3053571,3.33571429 38.2571429,3.41785714 38.2410714,3.43392857 C38.1428571,3.38571429 38.0339286,3.32142857 37.9107143,3.23928571 C37.7875,3.15714286 37.6142857,3.07678571 37.3857143,2.99464286 C37.1571429,2.9125 36.8571429,2.85714286 36.4821429,2.82321429 C36.1071429,2.78928571 35.6267857,2.79821429 35.0410714,2.84821429 C34.7142857,2.88214286 34.4071429,2.97321429 34.1125,3.12857143 C33.8178571,3.28392857 33.5589286,3.47321429 33.3303571,3.70178571 C33.1017857,3.93035714 32.9232143,4.18571429 32.7928571,4.47142857 C32.6625,4.75714286 32.5982143,5.03035714 32.5982143,5.28928571 C32.5982143,5.93928571 32.7839286,6.46428571 33.1589286,6.86428571 C33.5339286,7.26428571 33.9982143,7.6125 34.55,7.91428571 C35.1017857,8.21607143 35.7053571,8.50892857 36.3571429,8.79285714 C37.0089286,9.07678571 37.6142857,9.425 38.1767857,9.83035714 C38.7392857,10.2357143 39.2053571,10.7464286 39.5803571,11.3553571 C39.9553571,11.9642857 40.1482143,12.75 40.1482143,13.7107143 Z" id="Path"></path>
                </g>
                <g id="Group" transform="translate(14.285714, 21.428571)" fill="#0096E6">
                    <path d="M9.82142857,12.5 L9.82142857,5.35714286 C9.82142857,4.37321429 10.6214286,3.57142857 11.6071429,3.57142857 C12.5946429,3.57142857 13.3928571,2.77142857 13.3928571,1.78571429 C13.3928571,0.8 12.5946429,0 11.6071429,0 C8.65357143,0 6.25,2.40357143 6.25,5.35714286 L6.25,12.5 C6.25,14.4696429 4.64821429,16.0714286 2.67857143,16.0714286 C1.69107143,16.0714286 0.892857143,16.8714286 0.892857143,17.8571429 C0.892857143,18.8428571 1.69107143,19.6428571 2.67857143,19.6428571 C4.64821429,19.6428571 6.25,21.2446429 6.25,23.2142857 L6.25,30.3571429 C6.25,33.3107143 8.65357143,35.7142857 11.6071429,35.7142857 C12.5946429,35.7142857 13.3928571,34.9142857 13.3928571,33.9285714 C13.3928571,32.9428571 12.5946429,32.1428571 11.6071429,32.1428571 C10.6214286,32.1428571 9.82142857,31.3410714 9.82142857,30.3571429 L9.82142857,23.2142857 C9.82142857,21.0714286 8.85357143,19.1678571 7.35357143,17.8571429 C8.85357143,16.5464286 9.82142857,14.6428571 9.82142857,12.5 Z" id="Path"></path>
                    <path d="M45.5357143,16.0714286 C43.5660714,16.0714286 41.9642857,14.4696429 41.9642857,12.5 L41.9642857,5.35714286 C41.9642857,2.40357143 39.5607143,0 36.6071429,0 C35.6196429,0 34.8214286,0.8 34.8214286,1.78571429 C34.8214286,2.77142857 35.6196429,3.57142857 36.6071429,3.57142857 C37.5928571,3.57142857 38.3928571,4.37321429 38.3928571,5.35714286 L38.3928571,12.5 C38.3928571,14.6428571 39.3607143,16.5464286 40.8607143,17.8571429 C39.3607143,19.1678571 38.3928571,21.0714286 38.3928571,23.2142857 L38.3928571,30.3571429 C38.3928571,31.3410714 37.5928571,32.1428571 36.6071429,32.1428571 C35.6196429,32.1428571 34.8214286,32.9428571 34.8214286,33.9285714 C34.8214286,34.9142857 35.6196429,35.7142857 36.6071429,35.7142857 C39.5607143,35.7142857 41.9642857,33.3107143 41.9642857,30.3571429 L41.9642857,23.2142857 C41.9642857,21.2446429 43.5660714,19.6428571 45.5357143,19.6428571 C46.5232143,19.6428571 47.3214286,18.8428571 47.3214286,17.8571429 C47.3214286,16.8714286 46.5232143,16.0714286 45.5357143,16.0714286 Z" id="Path"></path>
                </g>
            </g>
        </g>
    </g>
</svg>