<?xml version="1.0" encoding="UTF-8"?>
<svg width="100px" height="100px" viewBox="0 0 100 100" version="1.1" xmlns="http://www.w3.org/2000/svg" xmlns:xlink="http://www.w3.org/1999/xlink">
    <!-- Generator: sketchtool 63.1 (101010) - https://sketch.com -->
    <title>file/file_book_ePub</title>
    <desc>Created with sketchtool.</desc>
    <g id="Icons" stroke="none" stroke-width="1" fill="none" fill-rule="evenodd">
        <g id="file/file_book_ePub" fill-rule="nonzero">
            <g id="ePub" transform="translate(13.000000, 0.000000)">
                <path d="M14.0710383,98.4153005 C15.6010929,98.4153005 16.6666667,97.7868852 17.568306,96.8579235 L18.6065574,97.7868852 C17.4863388,99.0437158 16.147541,99.863388 14.0437158,99.863388 C10.9836066,99.863388 8.52459016,97.5136612 8.52459016,94.0710383 C8.52459016,90.8469945 10.7650273,88.2786885 13.852459,88.2786885 C17.1311475,88.2786885 19.0163934,90.9016393 19.0163934,94.1530055 C19.0163934,94.3169399 19.0163934,94.4808743 18.989071,94.6721311 L10.1912568,94.6721311 C10.4098361,97.0765027 12.1311475,98.4153005 14.0710383,98.4153005 Z M17.3224044,93.442623 C17.1584699,91.420765 15.9836066,89.6721311 13.7704918,89.6721311 C11.8579235,89.6721311 10.3825137,91.284153 10.1639344,93.442623 L17.3224044,93.442623 Z" id="XMLID_5_" fill="#D5D5D5"></path>
                <path d="M27.5136612,94.3169399 L23.8797814,94.3169399 L23.8797814,99.6174863 L22.1857923,99.6174863 L22.1857923,84.5901639 L27.8142077,84.5901639 C31.2021858,84.5901639 33.442623,86.3934426 33.442623,89.3715847 C33.4153005,92.6502732 30.7103825,94.3169399 27.5136612,94.3169399 Z M27.6502732,86.147541 L23.852459,86.147541 L23.852459,92.7595628 L27.568306,92.7595628 C30.0546448,92.7595628 31.6939891,91.420765 31.6939891,89.4262295 C31.6939891,87.2677596 30.0819672,86.147541 27.6502732,86.147541 Z" id="XMLID_8_" fill="#D5D5D5"></path>
                <path d="M48.7704918,93.1967213 C48.7704918,97.568306 46.2568306,99.8360656 42.5136612,99.8360656 C38.7978142,99.8360656 36.284153,97.568306 36.284153,93.3060109 L36.284153,84.5901639 L37.9781421,84.5901639 L37.9781421,93.2240437 C37.9781421,96.4754098 39.6994536,98.2786885 42.568306,98.2786885 C45.3278689,98.2786885 47.1038251,96.6120219 47.1038251,93.3333333 L47.1038251,84.6174863 L48.7978142,84.6174863 L48.7978142,93.1967213 L48.7704918,93.1967213 Z" id="XMLID_9_" fill="#D5D5D5"></path>
                <path d="M63.8797814,88.3606557 C63.8797814,90.3278689 62.6775956,91.3387978 61.5027322,91.8579235 C63.2786885,92.4043716 64.726776,93.4153005 64.726776,95.4918033 C64.726776,98.0874317 62.568306,99.6174863 59.2896175,99.6174863 L52.5136612,99.6174863 L52.5136612,84.5901639 L59.0163934,84.5901639 C61.9672131,84.5901639 63.8797814,86.0382514 63.8797814,88.3606557 Z M62.1584699,88.579235 C62.1584699,87.0765027 60.9836066,86.1202186 58.8251366,86.1202186 L54.1530055,86.1202186 L54.1530055,91.284153 L58.6885246,91.284153 C60.7650273,91.284153 62.1584699,90.3551913 62.1584699,88.579235 Z M63.0054645,95.3825137 C63.0054645,93.7431694 61.6393443,92.7868852 59.0163934,92.7868852 L54.1803279,92.7868852 L54.1803279,98.0874317 L59.3169399,98.0874317 C61.5846995,98.0874317 63.0054645,97.0765027 63.0054645,95.3825137 Z" id="XMLID_13_" fill="#D5D5D5"></path>
                <path d="M36.6120219,59.4808743 L13.715847,36.5846995 L36.6120219,13.6612022 L44.2349727,21.284153 L28.9617486,36.557377 L36.5846995,44.1803279 L59.4808743,21.284153 L39.5355191,1.33879781 C37.8961749,-0.300546448 35.273224,-0.300546448 33.6338798,1.33879781 L1.39344262,33.6338798 C-0.245901639,35.273224 -0.245901639,37.8961749 1.39344262,39.5355191 L33.6612022,71.8032787 C35.3005464,73.442623 37.9234973,73.442623 39.5628415,71.8032787 L71.8306011,39.5355191 C73.4699454,37.8961749 73.4699454,35.273224 71.8306011,33.6338798 L67.1584699,28.9617486 L36.6120219,59.4808743 Z" id="XMLID_14_" fill="#86B918"></path>
            </g>
        </g>
    </g>
</svg>