<?xml version="1.0" encoding="UTF-8"?>
<svg width="100px" height="100px" viewBox="0 0 100 100" version="1.1" xmlns="http://www.w3.org/2000/svg" xmlns:xlink="http://www.w3.org/1999/xlink">
    <!-- Generator: sketchtool 63.1 (101010) - https://sketch.com -->
    <title>file/file_video_api</title>
    <desc>Created with sketchtool.</desc>
    <g id="Icons" stroke="none" stroke-width="1" fill="none" fill-rule="evenodd">
        <g id="file/file_video_api" fill-rule="nonzero">
            <g id="file_avi" transform="translate(11.000000, 0.000000)">
                <path d="M55.3303571,0 L3.50535714,0 C2.0625,0 0.892857143,1.16964286 0.892857143,3.43928571 L0.892857143,98.2142857 C0.892857143,98.8303571 2.0625,100 3.50535714,100 L75.0660714,100 C76.5089286,100 77.6785714,98.8303571 77.6785714,98.2142857 L77.6785714,23.175 C77.6785714,21.9321429 77.5125,21.5321429 77.2196429,21.2375 L56.4410714,0.458928571 C56.1464286,0.166071429 55.7464286,0 55.3303571,0 Z" id="Path" fill="#E9E9E0"></path>
                <polygon id="Path" fill="#D9D7CA" points="56.25 0.269642857 56.25 21.4285714 77.4089286 21.4285714"></polygon>
                <path d="M75.0660714,100 L3.50535714,100 C2.0625,100 0.892857143,98.8303571 0.892857143,97.3875 L0.892857143,69.6428571 L77.6785714,69.6428571 L77.6785714,97.3875 C77.6785714,98.8303571 76.5089286,100 75.0660714,100 Z" id="Path" fill="#D75E72"></path>
                <g id="Group" transform="translate(17.857143, 76.000000)" fill="#FFFFFF">
                    <path d="M0.644642857,18.6428571 L6.94285714,0.673214286 L9.84821429,0.673214286 L16.1,18.6428571 L13.0714286,18.6428571 L11.7767857,14.9071429 L5.01428571,14.9071429 L3.69642857,18.6428571 L0.644642857,18.6428571 Z M5.69821429,12.9303571 L11.0696429,12.9303571 L8.40892857,5.16607143 L5.69821429,12.9303571 Z" id="Shape"></path>
                    <polygon id="Path" points="24.6928571 18.7410714 19.1017857 0.65 22.4464286 0.65 26.6214286 16.1767857 31.0410714 0.65 34.3607143 0.65 28.5017857 18.7410714"></polygon>
                    <polygon id="Path" points="41.05 18.6428571 38.0714286 18.6428571 38.0714286 0.65 41.05 0.65"></polygon>
                </g>
                <polygon id="Path" fill="#C8BDB8" points="31.25 50 31.25 37.4178571 31.25 25 50.8928571 37.5"></polygon>
            </g>
        </g>
    </g>
</svg>