<?xml version="1.0" encoding="UTF-8"?>
<svg width="100px" height="100px" viewBox="0 0 100 100" version="1.1" xmlns="http://www.w3.org/2000/svg" xmlns:xlink="http://www.w3.org/1999/xlink">
    <!-- Generator: sketchtool 63.1 (101010) - https://sketch.com -->
    <title>file/file_tsv</title>
    <desc>Created with sketchtool.</desc>
    <defs>
        <path d="M23.0631863,95.6275862 L23.0631863,77.954287 L30.4308725,77.954287 L30.4308725,75.1448276 L11.4,75.1448276 L11.4,77.954287 L18.7676862,77.954287 L18.7676862,95.6275862 L23.0631863,95.6275862 Z M38.1004736,96 C40.5964449,96 42.5542515,95.4579151 43.9738932,94.3737452 C45.3935349,93.2895753 46.1033557,91.7930502 46.1033557,89.8841699 C46.1033557,88.5405405 45.7275682,87.4007722 44.9759932,86.4648649 C44.2244182,85.5289575 42.8558093,84.5050193 40.8701667,83.3930502 L39.3948528,82.572973 C38.290687,81.9521236 37.539112,81.4285714 37.1401277,81.0023166 C36.7411435,80.5760618 36.5416513,80.0803089 36.5416513,79.5150579 C36.5416513,78.8293436 36.8269715,78.2756757 37.3976118,77.8540541 C37.9682521,77.4324324 38.7267861,77.2216216 39.6732139,77.2216216 C40.8980028,77.2216216 42.5635302,77.615444 44.669796,78.4030888 L44.669796,75.1088803 C42.6099237,74.6362934 40.7588223,74.4 39.1164917,74.4 C37.0658981,74.4 35.4166085,74.9142857 34.1686228,75.9428571 C32.9206371,76.9714286 32.2966443,78.3335907 32.2966443,80.0293436 C32.2966443,81.2988417 32.6770712,82.4084942 33.4379249,83.3583012 C34.1987786,84.3081081 35.5024365,85.3019305 37.3488986,86.3397683 L38.7267861,87.1042471 C39.8402306,87.7343629 40.5964449,88.2787645 40.9954292,88.7374517 C41.3944135,89.196139 41.5939056,89.7590734 41.5939056,90.4262548 C41.5939056,91.2694981 41.27611,91.9366795 40.6405188,92.4277992 C40.0049276,92.9189189 39.1350491,93.1644788 38.0308833,93.1644788 C36.4535036,93.1644788 34.5560087,92.7011583 32.3383985,91.7745174 L32.3383985,95.3050193 C34.5281726,95.7683398 36.4488643,96 38.1004736,96 Z M59.5886425,95.6275862 L67,75.1448276 L63.8897517,75.1448276 L58.1455993,90.9912861 L52.2053052,75.1448276 L47.5959732,75.1448276 L55.259513,95.6275862 L59.5886425,95.6275862 Z" id="path-1"></path>
        <filter x="-5.4%" y="-13.9%" width="111.6%" height="127.8%" filterUnits="objectBoundingBox" id="filter-2">
            <feMorphology radius="0.5" operator="dilate" in="SourceAlpha" result="shadowSpreadOuter1"></feMorphology>
            <feOffset dx="0" dy="0" in="shadowSpreadOuter1" result="shadowOffsetOuter1"></feOffset>
            <feGaussianBlur stdDeviation="0.5" in="shadowOffsetOuter1" result="shadowBlurOuter1"></feGaussianBlur>
            <feColorMatrix values="0 0 0 0 0   0 0 0 0 0   0 0 0 0 0  0 0 0 0.5 0" type="matrix" in="shadowBlurOuter1"></feColorMatrix>
        </filter>
    </defs>
    <g id="Icons" stroke="none" stroke-width="1" fill="none" fill-rule="evenodd">
        <g id="file/file_tsv">
            <g id="File/TSV">
                <g id="tsv" transform="translate(11.600000, 0.000000)">
                    <path d="M54.4476279,0 L2.61298605,0 C1.16986047,0 0,1.16964286 0,3.43928571 L0,98.2142857 C0,98.8303571 1.16986047,100 2.61298605,100 L74.187014,100 C75.6301395,100 76.8,98.8303571 76.8,98.2142857 L76.8,23.175 C76.8,21.9321429 76.6338977,21.5321429 76.340986,21.2375 L55.5585488,0.458928571 C55.2638512,0.166071429 54.8637767,0 54.4476279,0 Z" id="Path" fill="#E9E9E0" fill-rule="nonzero"></path>
                    <polygon id="Path" fill="#D9D7CA" fill-rule="nonzero" points="55.2 0.6 55.2 21.6 76.2 21.6"></polygon>
                    <path d="M74.187014,100 L2.61298605,100 C1.16986047,100 0,98.8364118 0,97.4010235 L0,69.8 L76.8,69.8 L76.8,97.4010235 C76.8,98.8364118 75.6301395,100 74.187014,100 Z" id="Path" fill="#6700A8" fill-rule="nonzero"></path>
                    <g id="TSV" fill-rule="nonzero">
                        <use fill="black" fill-opacity="1" filter="url(#filter-2)" xlink:href="#path-1"></use>
                        <use fill="#FFFFFF" xlink:href="#path-1"></use>
                    </g>
                    <g id="Group-5" transform="translate(7.000000, 24.200000)" fill="#000000">
                        <rect id="Rectangle" x="49.7981651" y="0" width="9.20183486" height="37.2"></rect>
                        <polygon id="Rectangle-Copy-3" transform="translate(17.862385, 18.330435) rotate(-90.000000) translate(-17.862385, -18.330435) " points="13.0102114 0.468049462 22.7145592 0.468049462 22.7145592 36.1928201 13.0102114 36.1928201"></polygon>
                        <polygon id="Triangle" transform="translate(36.807339, 18.330435) rotate(90.000000) translate(-36.807339, -18.330435) " points="36.8073394 8.04603111 55.1377742 28.6148385 18.4769047 28.6148385"></polygon>
                    </g>
                </g>
            </g>
        </g>
    </g>
</svg>