<?xml version="1.0" encoding="UTF-8"?>
<svg width="100px" height="100px" viewBox="0 0 100 100" version="1.1" xmlns="http://www.w3.org/2000/svg" xmlns:xlink="http://www.w3.org/1999/xlink">
    <!-- Generator: sketchtool 63.1 (101010) - https://sketch.com -->
    <title>libreoffice/file_libreoffice_doc_spreadsheet</title>
    <desc>Created with sketchtool.</desc>
    <defs>
        <linearGradient x1="84.4911759%" y1="-0.2217849%" x2="84.4911759%" y2="100.572268%" id="linearGradient-1">
            <stop stop-color="#18A303" offset="0%"></stop>
            <stop stop-color="#106802" offset="100%"></stop>
        </linearGradient>
        <linearGradient x1="-252.214072%" y1="-1.75562323%" x2="-252.214072%" y2="403.839575%" id="linearGradient-2">
            <stop stop-color="#18A303" offset="0%"></stop>
            <stop stop-color="#106802" offset="100%"></stop>
        </linearGradient>
        <linearGradient x1="25.3870541%" y1="94.7758621%" x2="25.7977261%" y2="1.92327586%" id="linearGradient-3">
            <stop stop-color="#B3B3B3" offset="0%"></stop>
            <stop stop-color="#E6E6E6" offset="100%"></stop>
        </linearGradient>
        <linearGradient x1="2.6786671%" y1="61.712963%" x2="2.6786671%" y2="1.85425926%" id="linearGradient-4">
            <stop stop-color="#FFFFFF" stop-opacity="0.59" offset="0%"></stop>
            <stop stop-color="#FFFFFF" stop-opacity="0.86" offset="100%"></stop>
        </linearGradient>
        <linearGradient x1="36.6666667%" y1="-86.5384615%" x2="36.6666667%" y2="144.230769%" id="linearGradient-5">
            <stop stop-color="#18A303" offset="0%"></stop>
            <stop stop-color="#106802" offset="100%"></stop>
        </linearGradient>
        <linearGradient x1="0%" y1="100%" x2="0%" y2="0%" id="linearGradient-6">
            <stop stop-color="#B3B3B3" offset="0%"></stop>
            <stop stop-color="#E6E6E6" offset="100%"></stop>
        </linearGradient>
        <linearGradient x1="0%" y1="100%" x2="0%" y2="0%" id="linearGradient-7">
            <stop stop-color="#FFFFFF" stop-opacity="0.59" offset="0%"></stop>
            <stop stop-color="#FFFFFF" stop-opacity="0.86" offset="100%"></stop>
        </linearGradient>
        <radialGradient cx="49.8742857%" cy="49.3243243%" fx="49.8742857%" fy="49.3243243%" r="56.6233108%" gradientTransform="translate(0.498743,0.493243),scale(0.084571,1.000000),rotate(90.000000),translate(-0.498743,-0.493243)" id="radialGradient-8">
            <stop stop-color="#000000" stop-opacity="0.25" offset="0%"></stop>
            <stop stop-color="#000000" stop-opacity="0" offset="100%"></stop>
        </radialGradient>
        <linearGradient x1="30.56%" y1="-5.64285714%" x2="30.56%" y2="103.881429%" id="linearGradient-9">
            <stop stop-color="#63BBEE" offset="0%"></stop>
            <stop stop-color="#AADCF7" offset="100%"></stop>
        </linearGradient>
        <linearGradient x1="30.56%" y1="-5.63157895%" x2="30.56%" y2="103.892632%" id="linearGradient-10">
            <stop stop-color="#F09E6F" offset="0%"></stop>
            <stop stop-color="#F9CFB5" offset="100%"></stop>
        </linearGradient>
        <linearGradient x1="30.56%" y1="-5.625%" x2="30.56%" y2="103.898875%" id="linearGradient-11">
            <stop stop-color="#F5CE53" offset="0%"></stop>
            <stop stop-color="#FDE9A9" offset="100%"></stop>
        </linearGradient>
        <linearGradient x1="30.56%" y1="-5.66666667%" x2="30.56%" y2="103.8575%" id="linearGradient-12">
            <stop stop-color="#92E285" offset="0%"></stop>
            <stop stop-color="#CCF4C6" offset="100%"></stop>
        </linearGradient>
    </defs>
    <g id="Icons" stroke="none" stroke-width="1" fill="none" fill-rule="evenodd">
        <g id="libreoffice/file_libreoffice_doc_spreadsheet">
            <g id="Group" transform="translate(10.000000, 0.000000)">
                <g id="g5980" fill-rule="nonzero">
                    <path d="M3.46022887,0.69240965 C0.640327051,1.23403304 -0.049255927,2.44037604 -1.30104261e-18,5.30851807 L-1.30104261e-18,94.5655904 C-1.30104261e-18,97.7907115 1.39147994,99.1816989 4.61774315,99.1816989 L75.4231382,99.1816989 C78.6494014,99.1816989 80.0408813,97.7907115 80.0408813,94.5655904 L80.0408813,39.2892308 C80.0778233,37.6643607 79.4374962,36.0333357 78.3107669,34.8639216 L45.857268,2.42806642 C44.6935967,1.29558115 43.0619942,0.655480783 41.4365486,0.69240965 L4.61774315,0.69240965 C4.23600972,0.655480783 3.8481193,0.655480783 3.46022887,0.69240965 Z" id="path5982" fill="url(#linearGradient-1)"></path>
                    <path d="M57.4385679,0.717028895 C55.3944469,1.36943888 54.7048639,4.48992818 56.2810536,5.95477325 L74.8259101,24.5976964 C76.5375535,26.2287214 79.9546835,24.8315793 80.0408813,22.4619769 L80.0408813,3.81905375 C80.0408813,2.19418359 78.5693605,0.717028895 76.9500719,0.717028895 L58.4052154,0.717028895 C58.0850519,0.661635594 57.7587314,0.661635594 57.4385679,0.717028895 Z" id="path5984" fill="url(#linearGradient-2)"></path>
                </g>
                <g id="path5986" transform="translate(4.616929, 5.001321)" fill="url(#linearGradient-3)" fill-rule="nonzero">
                    <polygon id="Path" points="0 0.32325327 0 89.6027278 70.8070895 89.6027278 70.8070895 33.5182855 70.3260578 33.0334056 38.1931435 0.708078591 37.8083182 0.32325327"></polygon>
                </g>
                <g id="path5988" transform="translate(7.695531, 8.079923)" fill="url(#linearGradient-4)" fill-rule="nonzero">
                    <polygon id="Path" points="0 0.32325327 32.5054253 0.32325327 64.6483451 32.6485803 64.6483451 83.4455227 0 83.4455227"></polygon>
                </g>
                <g id="rect7041" transform="translate(14.622387, 37.326648)" fill="#CCF4C6" fill-opacity="0.75">
                    <rect id="Rectangle" x="0" y="0.277074231" width="46.1790386" height="38.4825321"></rect>
                </g>
                <g id="rect7043" transform="translate(14.622387, 37.326648)" fill="#92E285">
                    <rect id="Rectangle" x="0" y="0.277074231" width="46.1790386" height="8.46615707"></rect>
                </g>
                <g id="rect7045" transform="translate(14.622387, 37.326648)" fill="url(#linearGradient-5)" fill-rule="nonzero">
                    <path d="M0,0.277074231 L0,40.2989077 L46.1790386,40.2989077 L46.1790386,0.277074231 L0,0.277074231 Z M1.53930129,1.81637552 L14.6233622,1.81637552 L14.6233622,7.97358066 L1.53930129,7.97358066 L1.53930129,1.81637552 Z M16.1626635,1.81637552 L30.0163751,1.81637552 L30.0163751,7.97358066 L16.1626635,7.97358066 L16.1626635,1.81637552 Z M31.5556764,1.81637552 L44.6397373,1.81637552 L44.6397373,7.97358066 L31.5556764,7.97358066 L31.5556764,1.81637552 Z M1.53930129,9.51288195 L14.6233622,9.51288195 L14.6233622,15.6700871 L1.53930129,15.6700871 L1.53930129,9.51288195 Z M16.1626635,9.51288195 L30.0163751,9.51288195 L30.0163751,15.6700871 L16.1626635,15.6700871 L16.1626635,9.51288195 Z M31.5556764,9.51288195 L44.6397373,9.51288195 L44.6397373,15.6700871 L31.5556764,15.6700871 L31.5556764,9.51288195 Z M1.53930129,17.2093884 L14.6233622,17.2093884 L14.6233622,23.3665935 L1.53930129,23.3665935 L1.53930129,17.2093884 Z M16.1626635,17.2093884 L30.0163751,17.2093884 L30.0163751,23.3665935 L16.1626635,23.3665935 L16.1626635,17.2093884 Z M31.5556764,17.2093884 L44.6397373,17.2093884 L44.6397373,23.3665935 L31.5556764,23.3665935 L31.5556764,17.2093884 Z M1.53930129,24.9058948 L14.6233622,24.9058948 L14.6233622,31.0630999 L1.53930129,31.0630999 L1.53930129,24.9058948 Z M16.1626635,24.9058948 L30.0163751,24.9058948 L30.0163751,31.0630999 L16.1626635,31.0630999 L16.1626635,24.9058948 Z M31.5556764,24.9058948 L44.6397373,24.9058948 L44.6397373,31.0630999 L31.5556764,31.0630999 L31.5556764,24.9058948 Z M1.53930129,32.6024012 L14.6233622,32.6024012 L14.6233622,38.7596064 L1.53930129,38.7596064 L1.53930129,32.6024012 Z M16.1626635,32.6024012 L30.0163751,32.6024012 L30.0163751,38.7596064 L16.1626635,38.7596064 L16.1626635,32.6024012 Z M31.5556764,32.6024012 L44.6397373,32.6024012 L44.6397373,38.7596064 L31.5556764,38.7596064 L31.5556764,32.6024012 Z" id="Shape"></path>
                </g>
                <g id="rect7127" transform="translate(33.863653, 58.876866)" fill="#808080">
                    <rect id="Rectangle" x="0" y="0.277074231" width="30.0163751" height="21.550218"></rect>
                </g>
                <g id="rect7192" transform="translate(35.402954, 60.416167)" fill="url(#linearGradient-6)">
                    <rect id="Rectangle" x="0" y="0.277074231" width="26.9377725" height="18.4716154"></rect>
                </g>
                <g id="rect7153" transform="translate(35.402954, 60.416167)" fill="url(#linearGradient-7)">
                    <rect id="Rectangle" x="0" y="0.277074231" width="26.9377725" height="18.4716154"></rect>
                </g>
                <g id="rect7466" transform="translate(35.402954, 76.578831)" fill="url(#radialGradient-8)" fill-rule="nonzero">
                    <path d="M0.769650643,0.307860257 L26.1681219,0.307860257 C26.5945083,0.307860257 26.9377725,0.654203046 26.9377725,1.0775109 L26.9377725,1.81637552 C26.9377725,2.24737988 26.5945083,2.58602616 26.1681219,2.58602616 L0.769650643,2.58602616 C0.343264187,2.58602616 0,2.24737988 0,1.81637552 L0,1.0775109 C0,0.654203046 0.343264187,0.307860257 0.769650643,0.307860257 Z" id="Path"></path>
                </g>
                <g id="g7262" transform="translate(36.941509, 61.954853)" fill="#E6E6E6">
                    <rect id="rect7256" x="0" y="4.12532745" width="23.8591755" height="1"></rect>
                    <rect id="rect7250" x="0" y="0.277074231" width="23.8591755" height="1"></rect>
                    <rect id="rect7258" x="0" y="7.97358066" width="23.8591755" height="1"></rect>
                    <rect id="rect7260" x="0" y="11.8218339" width="23.8591755" height="1"></rect>
                </g>
                <g id="rect7069" transform="translate(36.942256, 65.803722)" fill="#0369A3">
                    <rect id="Rectangle" x="0" y="0.277074231" width="5.3875545" height="12.3144103"></rect>
                </g>
                <g id="rect7071" transform="translate(39.732108, 72.057526) scale(-1, 1) rotate(-180.000000) translate(-39.732108, -72.057526) translate(37.711906, 65.996920)" fill="url(#linearGradient-9)">
                    <rect id="Rectangle" x="0" y="0.492576411" width="3.84825321" height="10.775109"></rect>
                </g>
                <g id="rect7073" transform="translate(43.099461, 61.955468)" fill="#A33E03">
                    <rect id="Rectangle" x="0" y="0.277074231" width="5.3875545" height="16.1626635"></rect>
                </g>
                <g id="rect7075" transform="translate(45.889313, 70.542374) scale(-1, 1) rotate(-180.000000) translate(-45.889313, -70.542374) translate(43.869111, 62.966617)" fill="url(#linearGradient-10)">
                    <rect id="Rectangle" x="0" y="0.492576411" width="3.84825321" height="14.6233622"></rect>
                </g>
                <g id="rect7077" transform="translate(49.256666, 70.421625)" fill="#C99C00">
                    <rect id="Rectangle" x="0" y="0.277074231" width="5.3875545" height="7.69650643"></rect>
                </g>
                <g id="rect7079" transform="translate(52.046519, 74.582778) scale(-1, 1) rotate(-180.000000) translate(-52.046519, -74.582778) translate(50.026316, 71.047425)" fill="url(#linearGradient-11)">
                    <rect id="Rectangle" x="0" y="0.492576411" width="3.84825321" height="6.15720514"></rect>
                </g>
                <g id="rect7244" transform="translate(55.413871, 67.343023)" fill="#43C330">
                    <rect id="Rectangle" x="0" y="0.277074231" width="5.3875545" height="10.775109"></rect>
                </g>
                <g id="rect7246" transform="translate(58.203724, 73.067627) scale(-1, 1) rotate(-180.000000) translate(-58.203724, -73.067627) translate(56.183522, 68.017122)" fill="url(#linearGradient-12)">
                    <rect id="Rectangle" x="0" y="0.492576411" width="3.84825321" height="9.23580772"></rect>
                </g>
            </g>
        </g>
    </g>
</svg>