<?xml version="1.0" encoding="UTF-8"?>
<svg width="100px" height="100px" viewBox="0 0 100 100" version="1.1" xmlns="http://www.w3.org/2000/svg" xmlns:xlink="http://www.w3.org/1999/xlink">
    <!-- Generator: sketchtool 63.1 (101010) - https://sketch.com -->
    <title>libreoffice/libreoffice_master_document</title>
    <desc>Created with sketchtool.</desc>
    <defs>
        <linearGradient x1="79.2760473%" y1="0.0531034267%" x2="79.2760473%" y2="100.312373%" id="linearGradient-1">
            <stop stop-color="#666666" offset="0%"></stop>
            <stop stop-color="#333333" offset="100%"></stop>
        </linearGradient>
        <linearGradient x1="-252.214072%" y1="-1.75562323%" x2="-252.214072%" y2="403.839575%" id="linearGradient-2">
            <stop stop-color="#666666" offset="0%"></stop>
            <stop stop-color="#333333" offset="100%"></stop>
        </linearGradient>
        <linearGradient x1="25.3870541%" y1="94.7758621%" x2="25.7977261%" y2="1.92327586%" id="linearGradient-3">
            <stop stop-color="#B3B3B3" offset="0%"></stop>
            <stop stop-color="#E6E6E6" offset="100%"></stop>
        </linearGradient>
        <linearGradient x1="2.6786671%" y1="61.712963%" x2="2.6786671%" y2="1.85425926%" id="linearGradient-4">
            <stop stop-color="#FFFFFF" stop-opacity="0.59" offset="0%"></stop>
            <stop stop-color="#FFFFFF" stop-opacity="0.86" offset="100%"></stop>
        </linearGradient>
        <linearGradient x1="100%" y1="100%" x2="100%" y2="3.76923077%" id="linearGradient-5">
            <stop stop-color="#63BBEE" stop-opacity="0.5" offset="0%"></stop>
            <stop stop-color="#AADCF7" stop-opacity="0.5" offset="100%"></stop>
        </linearGradient>
        <linearGradient x1="-78.1214286%" y1="0.52%" x2="-78.1214286%" y2="232.829%" id="linearGradient-6">
            <stop stop-color="#0369A3" offset="0%"></stop>
            <stop stop-color="#023F62" offset="100%"></stop>
        </linearGradient>
        <linearGradient x1="100%" y1="0%" x2="100%" y2="50.000125%" id="linearGradient-7">
            <stop stop-color="#63BBEE" offset="0%"></stop>
            <stop stop-color="#AADCF7" offset="100%"></stop>
        </linearGradient>
        <linearGradient x1="0%" y1="-18.5846154%" x2="0%" y2="99.3653846%" id="linearGradient-8">
            <stop stop-color="#666666" offset="0%"></stop>
            <stop stop-color="#333333" offset="100%"></stop>
        </linearGradient>
        <linearGradient x1="0%" y1="-400%" x2="0%" y2="700%" id="linearGradient-9">
            <stop stop-color="#0369A3" offset="0%"></stop>
            <stop stop-color="#023F62" offset="100%"></stop>
        </linearGradient>
        <linearGradient x1="0%" y1="0%" x2="0%" y2="1100%" id="linearGradient-10">
            <stop stop-color="#0369A3" offset="0%"></stop>
            <stop stop-color="#023F62" offset="100%"></stop>
        </linearGradient>
        <linearGradient x1="0%" y1="-600%" x2="0%" y2="500%" id="linearGradient-11">
            <stop stop-color="#0369A3" offset="0%"></stop>
            <stop stop-color="#023F62" offset="100%"></stop>
        </linearGradient>
        <linearGradient x1="0%" y1="-1000%" x2="0%" y2="100%" id="linearGradient-12">
            <stop stop-color="#0369A3" offset="0%"></stop>
            <stop stop-color="#023F62" offset="100%"></stop>
        </linearGradient>
        <linearGradient x1="0%" y1="-200%" x2="0%" y2="900%" id="linearGradient-13">
            <stop stop-color="#0369A3" offset="0%"></stop>
            <stop stop-color="#023F62" offset="100%"></stop>
        </linearGradient>
        <linearGradient x1="0%" y1="-800%" x2="0%" y2="300%" id="linearGradient-14">
            <stop stop-color="#0369A3" offset="0%"></stop>
            <stop stop-color="#023F62" offset="100%"></stop>
        </linearGradient>
    </defs>
    <g id="Icons" stroke="none" stroke-width="1" fill="none" fill-rule="evenodd">
        <g id="libreoffice/libreoffice_master_document">
            <g id="Group" transform="translate(10.000000, 0.000000)">
                <g id="use6712" fill-rule="nonzero">
                    <g id="g25513" transform="translate(0.002393, 0.315754)">
                        <path d="M3.42563446,0.685488508 C0.633925238,1.22169636 -0.0487634799,2.41597748 4.33680869e-19,5.25544178 L4.33680869e-19,93.6200583 C4.33680869e-19,96.8129323 1.37756831,98.1900116 4.57157624,98.1900116 L74.6690786,98.1900116 C77.8630865,98.1900116 79.2406548,96.8129323 79.2406548,93.6200583 L79.2406548,38.8963912 C79.2772274,37.2877676 78.6433022,35.6730508 77.5278376,34.5153293 L45.3987998,2.40379094 C44.2467625,1.28262907 42.6314723,0.648928882 41.0222774,0.685488508 L4.57157624,0.685488508 C4.19365927,0.648928882 3.80964686,0.648928882 3.42563446,0.685488508 Z" id="path25515" fill="url(#linearGradient-1)"></path>
                        <path d="M56.864313,0.709861593 C54.8406285,1.35574832 54.1579398,4.44503674 55.7183712,5.89523524 L74.0778214,24.3517532 C75.7723523,25.96647 79.1553187,24.5832975 79.2406548,22.2373882 L79.2406548,3.78087019 C79.2406548,2.17224664 77.7838458,0.709861593 76.1807464,0.709861593 L57.8212963,0.709861593 C57.5043336,0.655022153 57.1812756,0.655022153 56.864313,0.709861593 Z" id="path25517" fill="url(#linearGradient-2)"></path>
                    </g>
                    <polygon id="path25519" fill="url(#linearGradient-3)" points="4.57172482 5.59030638 4.57172482 93.9769862 74.6707434 93.9769862 74.6707434 38.4533883 74.1945221 37.9733572 42.3829369 5.97128345 42.0019598 5.59030638"></polygon>
                    <polygon id="path25521" fill="url(#linearGradient-4)" points="7.61954136 8.63812292 39.7999124 8.63812292 71.621403 40.6401967 71.621403 90.9291697 7.61954136 90.9291697"></polygon>
                </g>
                <g id="rect24351" transform="translate(41.145772, 37.272359)" fill="url(#linearGradient-5)">
                    <rect id="Rectangle" x="0" y="0.274303489" width="22.09667" height="19.8108075"></rect>
                </g>
                <g id="rect24355" transform="translate(41.145772, 60.130983)" fill="url(#linearGradient-5)">
                    <rect id="Rectangle" x="0" y="0.274303489" width="22.09667" height="19.8108075"></rect>
                </g>
                <g id="rect24359" transform="translate(14.477377, 60.130983)" fill="url(#linearGradient-5)">
                    <rect id="Rectangle" x="0" y="0.274303489" width="22.09667" height="19.8108075"></rect>
                </g>
                <g id="rect24341" transform="translate(14.477377, 37.272359)" fill="url(#linearGradient-5)">
                    <rect id="Rectangle" x="0" y="0.274303489" width="22.09667" height="19.8108075"></rect>
                </g>
                <g id="g23711" transform="translate(25.906832, 37.268881)">
                    <rect id="rect23713" fill="url(#linearGradient-6)" x="0" y="0.275827397" width="10.6673579" height="7.61954136"></rect>
                    <rect id="rect23715" fill="url(#linearGradient-7)" x="0.761954136" y="1.03778153" width="9.14344964" height="6.09563309"></rect>
                    <polygon id="path23717" fill="url(#linearGradient-8)" fill-rule="nonzero" points="6.09563309 5.60950635 3.42879361 2.18071274 0.761954136 6.37146049 0.761954136 7.13341463 9.90540377 7.13341463 9.90540377 6.37146049 8.00051843 4.08559808"></polygon>
                    <g id="path23719" transform="translate(8.296261, 2.472303) rotate(90.000000) translate(-8.296261, -2.472303) translate(6.796261, 0.472303)" fill="#C99C00" fill-opacity="0.5" fill-rule="nonzero">
                        <path d="M2.73275307,0.392558946 C2.73275307,1.86607731 1.53866796,3.06082193 0.0661036511,3.06082193 L0.0661036511,0.392558946 L2.73275307,0.392558946 Z" id="Path"></path>
                    </g>
                    <g id="path23721" transform="translate(8.740664, 2.481414) rotate(90.000000) translate(-8.740664, -2.481414) translate(7.240664, 0.981414)" fill="#E9B913" fill-opacity="0.5" fill-rule="nonzero">
                        <path d="M2.34236316,0.336478947 C2.34236316,1.59949412 1.31886016,2.62356048 0.0566603543,2.62356048 L0.0566603543,0.336478947 L2.34236316,0.336478947 Z" id="Path"></path>
                    </g>
                </g>
                <g id="g23723" transform="translate(14.477584, 37.268881)">
                    <rect id="rect23725" fill="url(#linearGradient-9)" x="0" y="6.37146049" width="9.90540377" height="1.52390827"></rect>
                    <rect id="rect23727" fill="url(#linearGradient-10)" x="0" y="0.275827397" width="9.90540377" height="1.52390827"></rect>
                    <rect id="rect23729" fill="url(#linearGradient-11)" x="0" y="9.41927704" width="22.09667" height="1.52390827"></rect>
                    <rect id="rect23731" fill="url(#linearGradient-12)" x="0" y="18.5627267" width="17.5249451" height="1.52390827"></rect>
                    <rect id="rect23733" fill="url(#linearGradient-13)" x="0" y="3.32364394" width="9.90540377" height="1.52390827"></rect>
                    <rect id="rect23735" fill="url(#linearGradient-14)" x="0" y="12.4670936" width="22.09667" height="1.52390827"></rect>
                    <rect id="rect23895" fill="url(#linearGradient-14)" x="0" y="15.5149101" width="22.09667" height="1.52390827"></rect>
                </g>
                <g id="g23899" transform="translate(14.477584, 60.127487)">
                    <rect id="rect23901" fill="url(#linearGradient-9)" x="0" y="6.37146049" width="9.90540377" height="1.52390827"></rect>
                    <rect id="rect23903" fill="url(#linearGradient-10)" x="0" y="0.275827397" width="9.90540377" height="1.52390827"></rect>
                    <rect id="rect23905" fill="url(#linearGradient-11)" x="0" y="9.41927704" width="22.09667" height="1.52390827"></rect>
                    <rect id="rect23907" fill="url(#linearGradient-12)" x="0" y="18.5627267" width="17.5249451" height="1.52390827"></rect>
                    <rect id="rect23909" fill="url(#linearGradient-13)" x="0" y="3.32364394" width="9.90540377" height="1.52390827"></rect>
                    <rect id="rect23911" fill="url(#linearGradient-14)" x="0" y="12.4670936" width="22.09667" height="1.52390827"></rect>
                    <rect id="rect23913" fill="url(#linearGradient-14)" x="0" y="15.5149101" width="22.09667" height="1.52390827"></rect>
                </g>
                <g id="g23931" transform="translate(25.906832, 60.127487)">
                    <rect id="rect23933" fill="url(#linearGradient-6)" x="0" y="0.275827397" width="10.6673579" height="7.61954136"></rect>
                    <rect id="rect23935" fill="url(#linearGradient-7)" x="0.761954136" y="1.03778153" width="9.14344964" height="6.09563309"></rect>
                    <polygon id="path23937" fill="url(#linearGradient-8)" fill-rule="nonzero" points="6.09563309 5.60950635 3.42879361 2.18071274 0.761954136 6.37146049 0.761954136 7.13341463 9.90540377 7.13341463 9.90540377 6.37146049 8.00051843 4.08559808"></polygon>
                    <g id="path23939" transform="translate(8.296261, 2.472303) rotate(90.000000) translate(-8.296261, -2.472303) translate(6.796261, 0.472303)" fill="#C99C00" fill-opacity="0.5" fill-rule="nonzero">
                        <path d="M2.73275307,0.392558946 C2.73275307,1.86607731 1.53866796,3.06082193 0.0661036511,3.06082193 L0.0661036511,0.392558946 L2.73275307,0.392558946 Z" id="Path"></path>
                    </g>
                    <g id="path23941" transform="translate(8.740664, 2.481414) rotate(90.000000) translate(-8.740664, -2.481414) translate(7.240664, 0.981414)" fill="#E9B913" fill-opacity="0.5" fill-rule="nonzero">
                        <path d="M2.34236316,0.336478947 C2.34236316,1.59949412 1.31886016,2.62356048 0.0566603543,2.62356048 L0.0566603543,0.336478947 L2.34236316,0.336478947 Z" id="Path"></path>
                    </g>
                </g>
                <g id="g23949" transform="translate(52.575144, 37.268881)">
                    <rect id="rect23951" fill="url(#linearGradient-6)" x="0" y="0.275827397" width="10.6673579" height="7.61954136"></rect>
                    <rect id="rect23953" fill="url(#linearGradient-7)" x="0.761954136" y="1.03778153" width="9.14344964" height="6.09563309"></rect>
                    <polygon id="path23955" fill="url(#linearGradient-8)" fill-rule="nonzero" points="6.09563309 5.60950635 3.42879361 2.18071274 0.761954136 6.37146049 0.761954136 7.13341463 9.90540377 7.13341463 9.90540377 6.37146049 8.00051843 4.08559808"></polygon>
                    <g id="path23957" transform="translate(8.296261, 2.472303) rotate(90.000000) translate(-8.296261, -2.472303) translate(6.796261, 0.472303)" fill="#C99C00" fill-opacity="0.5" fill-rule="nonzero">
                        <path d="M2.73275307,0.392558946 C2.73275307,1.86607731 1.53866796,3.06082193 0.0661036511,3.06082193 L0.0661036511,0.392558946 L2.73275307,0.392558946 Z" id="Path"></path>
                    </g>
                    <g id="path23959" transform="translate(8.740664, 2.481414) rotate(90.000000) translate(-8.740664, -2.481414) translate(7.240664, 0.981414)" fill="#E9B913" fill-opacity="0.5" fill-rule="nonzero">
                        <path d="M2.34236316,0.336478947 C2.34236316,1.59949412 1.31886016,2.62356048 0.0566603543,2.62356048 L0.0566603543,0.336478947 L2.34236316,0.336478947 Z" id="Path"></path>
                    </g>
                </g>
                <g id="g23961" transform="translate(41.145896, 37.268881)">
                    <rect id="rect23963" fill="url(#linearGradient-9)" x="0" y="6.37146049" width="9.90540377" height="1.52390827"></rect>
                    <rect id="rect23965" fill="url(#linearGradient-10)" x="0" y="0.275827397" width="9.90540377" height="1.52390827"></rect>
                    <rect id="rect23967" fill="url(#linearGradient-11)" x="0" y="9.41927704" width="22.09667" height="1.52390827"></rect>
                    <rect id="rect23969" fill="url(#linearGradient-12)" x="0" y="18.5627267" width="17.5249451" height="1.52390827"></rect>
                    <rect id="rect23971" fill="url(#linearGradient-13)" x="0" y="3.32364394" width="9.90540377" height="1.52390827"></rect>
                    <rect id="rect23973" fill="url(#linearGradient-14)" x="0" y="12.4670936" width="22.09667" height="1.52390827"></rect>
                    <rect id="rect23975" fill="url(#linearGradient-14)" x="0" y="15.5149101" width="22.09667" height="1.52390827"></rect>
                </g>
                <g id="g23977" transform="translate(41.145896, 60.127487)">
                    <rect id="rect23979" fill="url(#linearGradient-9)" x="0" y="6.37146049" width="9.90540377" height="1.52390827"></rect>
                    <rect id="rect23981" fill="url(#linearGradient-10)" x="0" y="0.275827397" width="9.90540377" height="1.52390827"></rect>
                    <rect id="rect23983" fill="url(#linearGradient-11)" x="0" y="9.41927704" width="22.09667" height="1.52390827"></rect>
                    <rect id="rect23985" fill="url(#linearGradient-12)" x="0" y="18.5627267" width="17.5249451" height="1.52390827"></rect>
                    <rect id="rect23987" fill="url(#linearGradient-13)" x="0" y="3.32364394" width="9.90540377" height="1.52390827"></rect>
                    <rect id="rect23989" fill="url(#linearGradient-14)" x="0" y="12.4670936" width="22.09667" height="1.52390827"></rect>
                    <rect id="rect23991" fill="url(#linearGradient-14)" x="0" y="15.5149101" width="22.09667" height="1.52390827"></rect>
                </g>
                <g id="g23993" transform="translate(52.575144, 60.127487)">
                    <rect id="rect23995" fill="url(#linearGradient-6)" x="0" y="0.275827397" width="10.6673579" height="7.61954136"></rect>
                    <rect id="rect23997" fill="url(#linearGradient-7)" x="0.761954136" y="1.03778153" width="9.14344964" height="6.09563309"></rect>
                    <polygon id="path23999" fill="url(#linearGradient-8)" fill-rule="nonzero" points="6.09563309 5.60950635 3.42879361 2.18071274 0.761954136 6.37146049 0.761954136 7.13341463 9.90540377 7.13341463 9.90540377 6.37146049 8.00051843 4.08559808"></polygon>
                    <g id="path24001" transform="translate(8.296261, 2.472303) rotate(90.000000) translate(-8.296261, -2.472303) translate(6.796261, 0.472303)" fill="#C99C00" fill-opacity="0.5" fill-rule="nonzero">
                        <path d="M2.73275307,0.392558946 C2.73275307,1.86607731 1.53866796,3.06082193 0.0661036511,3.06082193 L0.0661036511,0.392558946 L2.73275307,0.392558946 Z" id="Path"></path>
                    </g>
                    <g id="path24003" transform="translate(8.740664, 2.481414) rotate(90.000000) translate(-8.740664, -2.481414) translate(7.240664, 0.981414)" fill="#E9B913" fill-opacity="0.5" fill-rule="nonzero">
                        <path d="M2.34236316,0.336478947 C2.34236316,1.59949412 1.31886016,2.62356048 0.0566603543,2.62356048 L0.0566603543,0.336478947 L2.34236316,0.336478947 Z" id="Path"></path>
                    </g>
                </g>
            </g>
            <g id="palette" transform="translate(62.000000, -845.000000)"></g>
        </g>
    </g>
</svg>