<?xml version="1.0" encoding="UTF-8"?>
<svg width="100px" height="100px" viewBox="0 0 100 100" version="1.1" xmlns="http://www.w3.org/2000/svg" xmlns:xlink="http://www.w3.org/1999/xlink">
    <!-- Generator: sketchtool 63.1 (101010) - https://sketch.com -->
    <title>libreoffice/libreoffice_chart</title>
    <desc>Created with sketchtool.</desc>
    <defs>
        <linearGradient x1="79.2760473%" y1="0.0531034267%" x2="79.2760473%" y2="100.312373%" id="linearGradient-1">
            <stop stop-color="#666666" offset="0%"></stop>
            <stop stop-color="#333333" offset="100%"></stop>
        </linearGradient>
        <linearGradient x1="-252.214072%" y1="-1.75562323%" x2="-252.214072%" y2="403.839575%" id="linearGradient-2">
            <stop stop-color="#666666" offset="0%"></stop>
            <stop stop-color="#333333" offset="100%"></stop>
        </linearGradient>
        <linearGradient x1="25.3870541%" y1="94.7758621%" x2="25.7977261%" y2="1.92327586%" id="linearGradient-3">
            <stop stop-color="#B3B3B3" offset="0%"></stop>
            <stop stop-color="#E6E6E6" offset="100%"></stop>
        </linearGradient>
        <linearGradient x1="2.6786671%" y1="61.712963%" x2="2.6786671%" y2="1.85425926%" id="linearGradient-4">
            <stop stop-color="#FFFFFF" stop-opacity="0.59" offset="0%"></stop>
            <stop stop-color="#FFFFFF" stop-opacity="0.86" offset="100%"></stop>
        </linearGradient>
        <linearGradient x1="0%" y1="100%" x2="0%" y2="0%" id="linearGradient-5">
            <stop stop-color="#B3B3B3" offset="0%"></stop>
            <stop stop-color="#E6E6E6" offset="100%"></stop>
        </linearGradient>
        <linearGradient x1="0%" y1="100%" x2="0%" y2="0%" id="linearGradient-6">
            <stop stop-color="#FFFFFF" stop-opacity="0.59" offset="0%"></stop>
            <stop stop-color="#FFFFFF" stop-opacity="0.86" offset="100%"></stop>
        </linearGradient>
        <radialGradient cx="49.8666667%" cy="49.2385787%" fx="49.8666667%" fy="49.2385787%" r="56.7192893%" gradientTransform="translate(0.498667,0.492386),scale(0.098500,1.000000),rotate(90.000000),translate(-0.498667,-0.492386)" id="radialGradient-7">
            <stop stop-color="#000000" stop-opacity="0.25" offset="0%"></stop>
            <stop stop-color="#000000" stop-opacity="0" offset="100%"></stop>
        </radialGradient>
        <linearGradient x1="30.6%" y1="-5.63333333%" x2="30.6%" y2="103.891%" id="linearGradient-8">
            <stop stop-color="#63BBEE" offset="0%"></stop>
            <stop stop-color="#AADCF7" offset="100%"></stop>
        </linearGradient>
        <linearGradient x1="30.6%" y1="-5.625%" x2="30.6%" y2="103.8995%" id="linearGradient-9">
            <stop stop-color="#F09E6F" offset="0%"></stop>
            <stop stop-color="#F9CFB5" offset="100%"></stop>
        </linearGradient>
        <linearGradient x1="30.6%" y1="-5.66666667%" x2="30.6%" y2="103.857778%" id="linearGradient-10">
            <stop stop-color="#F5CE53" offset="0%"></stop>
            <stop stop-color="#FDE9A9" offset="100%"></stop>
        </linearGradient>
        <linearGradient x1="30.6%" y1="-5.65384615%" x2="30.6%" y2="103.870769%" id="linearGradient-11">
            <stop stop-color="#92E285" offset="0%"></stop>
            <stop stop-color="#CCF4C6" offset="100%"></stop>
        </linearGradient>
    </defs>
    <g id="Icons" stroke="none" stroke-width="1" fill="none" fill-rule="evenodd">
        <g id="libreoffice/libreoffice_chart">
            <g id="Group" transform="translate(10.000000, 0.000000)">
                <g id="use6741" fill-rule="nonzero">
                    <g id="g25513" transform="translate(0.002393, 0.315754)">
                        <path d="M3.42563446,0.685488508 C0.633925238,1.22169636 -0.0487634799,2.41597748 -8.67361738e-19,5.25544178 L-8.67361738e-19,93.6200583 C-8.67361738e-19,96.8129323 1.37756831,98.1900116 4.57157624,98.1900116 L74.6690786,98.1900116 C77.8630865,98.1900116 79.2406548,96.8129323 79.2406548,93.6200583 L79.2406548,38.8963912 C79.2772274,37.2877676 78.6433022,35.6730508 77.5278376,34.5153293 L45.3987998,2.40379094 C44.2467625,1.28262907 42.6314723,0.648928882 41.0222774,0.685488508 L4.57157624,0.685488508 C4.19365927,0.648928882 3.80964686,0.648928882 3.42563446,0.685488508 Z" id="path25515" fill="url(#linearGradient-1)"></path>
                        <path d="M56.864313,0.709861593 C54.8406285,1.35574832 54.1579398,4.44503674 55.7183712,5.89523524 L74.0778214,24.3517532 C75.7723523,25.96647 79.1553187,24.5832975 79.2406548,22.2373882 L79.2406548,3.78087019 C79.2406548,2.17224664 77.7838458,0.709861593 76.1807464,0.709861593 L57.8212963,0.709861593 C57.5043336,0.655022153 57.1812756,0.655022153 56.864313,0.709861593 Z" id="path25517" fill="url(#linearGradient-2)"></path>
                    </g>
                    <polygon id="path25519" fill="url(#linearGradient-3)" points="4.57172482 5.59030638 4.57172482 93.9769862 74.6707434 93.9769862 74.6707434 38.4533883 74.1945221 37.9733572 42.3829369 5.97128345 42.0019598 5.59030638"></polygon>
                    <polygon id="path25521" fill="url(#linearGradient-4)" points="7.61954136 8.63812292 39.7999124 8.63812292 71.621403 40.6401967 71.621403 90.9291697 7.61954136 90.9291697"></polygon>
                </g>
                <g id="use6757" fill-rule="nonzero">
                    <g id="g255131" transform="translate(0.002393, 0.315754)">
                        <path d="M3.42563446,0.685488508 C0.633925238,1.22169636 -0.0487634799,2.41597748 -8.67361738e-19,5.25544178 L-8.67361738e-19,93.6200583 C-8.67361738e-19,96.8129323 1.37756831,98.1900116 4.57157624,98.1900116 L74.6690786,98.1900116 C77.8630865,98.1900116 79.2406548,96.8129323 79.2406548,93.6200583 L79.2406548,38.8963912 C79.2772274,37.2877676 78.6433022,35.6730508 77.5278376,34.5153293 L45.3987998,2.40379094 C44.2467625,1.28262907 42.6314723,0.648928882 41.0222774,0.685488508 L4.57157624,0.685488508 C4.19365927,0.648928882 3.80964686,0.648928882 3.42563446,0.685488508 Z" id="path255151" fill="url(#linearGradient-1)"></path>
                        <path d="M56.864313,0.709861593 C54.8406285,1.35574832 54.1579398,4.44503674 55.7183712,5.89523524 L74.0778214,24.3517532 C75.7723523,25.96647 79.1553187,24.5832975 79.2406548,22.2373882 L79.2406548,3.78087019 C79.2406548,2.17224664 77.7838458,0.709861593 76.1807464,0.709861593 L57.8212963,0.709861593 C57.5043336,0.655022153 57.1812756,0.655022153 56.864313,0.709861593 Z" id="path255171" fill="url(#linearGradient-2)"></path>
                    </g>
                    <polygon id="path255191" fill="url(#linearGradient-3)" points="4.57172482 5.59030638 4.57172482 93.9769862 74.6707434 93.9769862 74.6707434 38.4533883 74.1945221 37.9733572 42.3829369 5.97128345 42.0019598 5.59030638"></polygon>
                    <polygon id="path255211" fill="url(#linearGradient-4)" points="7.61954136 8.63812292 39.7999124 8.63812292 71.621403 40.6401967 71.621403 90.9291697 7.61954136 90.9291697"></polygon>
                </g>
                <g id="use25335" transform="translate(14.477695, 37.272359)" fill="#808080">
                    <rect id="Rectangle" x="0" y="0.274303489" width="48.7650647" height="42.6694316"></rect>
                </g>
                <g id="use25337" transform="translate(16.001604, 38.796268)" fill="url(#linearGradient-5)">
                    <rect id="Rectangle" x="0" y="0.274303489" width="45.7172482" height="39.6216151"></rect>
                </g>
                <g id="use25339" transform="translate(16.001604, 38.796268)" fill="url(#linearGradient-6)">
                    <rect id="Rectangle" x="0" y="0.274303489" width="45.7172482" height="39.6216151"></rect>
                </g>
                <g id="use25341" transform="translate(16.001604, 74.608112)" fill="url(#radialGradient-7)" fill-rule="nonzero">
                    <path d="M1.30294157,0.342879361 L44.4143066,0.342879361 C45.138163,0.342879361 45.7172482,1.02101854 45.7172482,1.86678763 L45.7172482,3.32212004 C45.7172482,4.16788913 45.138163,4.84602831 44.4143066,4.84602831 L1.30294157,4.84602831 C0.579085144,4.84602831 0,4.16788913 0,3.32212004 L0,1.86678763 C0,1.02101854 0.579085144,0.342879361 1.30294157,0.342879361 Z" id="Path"></path>
                </g>
                <g id="use25343" transform="translate(17.525708, 40.797114)" fill="#E6E6E6">
                    <rect id="rect25388" x="0" y="8.93012391" width="42.6694188" height="1.52391193"></rect>
                    <rect id="rect25390" x="0" y="0.548608295" width="42.6694188" height="1.52391193"></rect>
                    <rect id="rect25392" x="0" y="17.3116395" width="42.6694188" height="1.52391193"></rect>
                    <rect id="rect25394" x="0" y="25.6931551" width="42.6694188" height="1.52391193"></rect>
                </g>
                <g id="use25345" transform="translate(18.287466, 52.511442)" fill="#0369A3">
                    <rect id="Rectangle" x="0" y="0.274303489" width="9.14344964" height="24.3825324"></rect>
                </g>
                <g id="use25347" transform="translate(23.049420, 64.893974) scale(-1, 1) rotate(-180.000000) translate(-23.049420, -64.893974) translate(19.049420, 52.893974)" fill="url(#linearGradient-8)">
                    <rect id="Rectangle" x="0" y="0.487650647" width="7.61954136" height="22.8586241"></rect>
                </g>
                <g id="use25349" transform="translate(28.954824, 44.891901)" fill="#A33E03">
                    <rect id="Rectangle" x="0" y="0.274303489" width="9.14344964" height="32.0020737"></rect>
                </g>
                <g id="use25351" transform="translate(33.716778, 61.393974) scale(-1, 1) rotate(-180.000000) translate(-33.716778, -61.393974) translate(29.716778, 45.893974)" fill="url(#linearGradient-9)">
                    <rect id="Rectangle" x="0" y="0.487650647" width="7.61954136" height="30.4781655"></rect>
                </g>
                <g id="use25353" transform="translate(39.622182, 61.654892)" fill="#C99C00">
                    <rect id="Rectangle" x="0" y="0.274303489" width="9.14344964" height="15.2390827"></rect>
                </g>
                <g id="use25355" transform="translate(44.384136, 69.393974) scale(-1, 1) rotate(-180.000000) translate(-44.384136, -69.393974) translate(40.384136, 61.893974)" fill="url(#linearGradient-10)">
                    <rect id="Rectangle" x="0" y="0.487650647" width="7.61954136" height="13.7151745"></rect>
                </g>
                <g id="use25357" transform="translate(50.289540, 55.559259)" fill="#43C330">
                    <rect id="Rectangle" x="0" y="0.274303489" width="9.14344964" height="21.3347158"></rect>
                </g>
                <g id="use25359" transform="translate(55.051494, 66.393974) scale(-1, 1) rotate(-180.000000) translate(-55.051494, -66.393974) translate(51.051494, 55.893974)" fill="url(#linearGradient-11)">
                    <rect id="Rectangle" x="0" y="0.487650647" width="7.61954136" height="19.8108075"></rect>
                </g>
            </g>
        </g>
    </g>
</svg>