<?xml version="1.0" encoding="UTF-8"?>
<svg width="500px" height="500px" viewBox="0 0 500 500" version="1.1" xmlns="http://www.w3.org/2000/svg" xmlns:xlink="http://www.w3.org/1999/xlink">
    <!-- Generator: Sketch 58 (84663) - https://sketch.com -->
    <title>File/Email</title>
    <desc>Created with Sketch.</desc>
    <g id="File/Email" stroke="none" stroke-width="1" fill="none" fill-rule="evenodd">
        <g id="Group" transform="translate(31.750000, 83.250000)" fill="#F2EFA4" fill-rule="nonzero">
            <path d="M431.686112,45.5365097 L414.382238,28.232636 L254.093724,188.52115 C234.05766,208.557214 200.360643,208.557214 180.324578,188.52115 L20.0360643,29.1433662 L2.73219058,46.4472399 L122.037846,165.752895 L2.73219058,285.058551 L20.0360643,302.362424 L139.34172,183.056769 L163.020705,206.735754 C177.592388,221.307437 196.717722,229.504009 216.753786,229.504009 C236.78985,229.504009 255.915185,221.307437 270.486868,206.735754 L294.165853,183.056769 L413.471508,302.362424 L430.775382,285.058551 L311.469726,165.752895 L431.686112,45.5365097" id="Fill-3"></path>
            <path d="M397.989095,333.327251 L38.2506682,333.327251 C17.3038737,333.327251 -5.68434189e-14,316.023377 -5.68434189e-14,295.076583 L-5.68434189e-14,38.2506682 C-5.68434189e-14,17.3038737 17.3038737,0 38.2506682,0 L397.989095,0 C418.935889,0 436.239763,17.3038737 436.239763,38.2506682 L436.239763,295.076583 C436.239763,316.023377 418.935889,333.327251 397.989095,333.327251 L397.989095,333.327251 Z M37.339938,24.5897152 C30.0540964,24.5897152 24.5897152,30.0540964 24.5897152,37.339938 L24.5897152,294.165853 C24.5897152,301.451694 30.0540964,306.916075 37.339938,306.916075 L397.078365,306.916075 C404.364206,306.916075 409.828587,301.451694 409.828587,294.165853 L409.828587,37.339938 C409.828587,30.0540964 404.364206,24.5897152 397.078365,24.5897152 L37.339938,24.5897152 L37.339938,24.5897152 Z" id="Fill-4"></path>
        </g>
    </g>
</svg>