<?xml version="1.0" encoding="UTF-8"?>
<svg width="100px" height="100px" viewBox="0 0 100 100" version="1.1" xmlns="http://www.w3.org/2000/svg" xmlns:xlink="http://www.w3.org/1999/xlink">
    <!-- Generator: sketchtool 63.1 (101010) - https://sketch.com -->
    <title>app/devonthink_research_library_archive_notes</title>
    <desc>Created with sketchtool.</desc>
    <defs>
        <linearGradient x1="5.14848169%" y1="65.6900306%" x2="91.9566915%" y2="21.103355%" id="linearGradient-1">
            <stop stop-color="#00C9F9" offset="0%"></stop>
            <stop stop-color="#005672" offset="100%"></stop>
        </linearGradient>
        <radialGradient cx="50%" cy="50%" fx="50%" fy="50%" r="49.1260933%" id="radialGradient-2">
            <stop stop-color="#5DE2F5" offset="0%"></stop>
            <stop stop-color="#00A7D5" offset="100%"></stop>
        </radialGradient>
    </defs>
    <g id="Icons" stroke="none" stroke-width="1" fill="none" fill-rule="evenodd">
        <g id="app/devonthink_research_library_archive_notes">
            <g id="App/DEVONthink">
                <g id="Group" transform="translate(5.800000, 9.200000)">
                    <path d="M3.41060513e-14,54.9600822 C3.37096774,62.1159962 8.69354839,68.2961037 15.9677419,73.5004048 C23.7741935,78.2907274 30.7822581,80.7745984 37.7016129,81.1955661 C49.3225806,81.7504048 59.0580645,79.6213726 66.3322581,74.7423403 C77.7758065,66.9358887 84.0725293,57.4262533 86.2919355,48.3955661 C89.1306452,37.0407274 88.3548387,26.4842758 82.766129,16.7262113 C78.1532258,10.0729855 72.7419355,4.0407274 61.5645161,1.02459837 C47.9032258,-1.99153067 39.6532258,2.17782417 34.3306452,6.70201772 C28.0322581,12.5568564 25.6370968,19.3875016 25.6370968,27.9923403 C25.9919355,32.191265 26.8198925,35.4735231 28.1209677,37.8391145 L3.41060513e-14,54.9600822 Z" id="Path-3" fill=""></path>
                    <path d="M0.6,54.966129 C3.91067288,59.105914 7.31121052,61.5086022 10.8016129,62.1741935 C14.5719229,62.9191756 17.5154699,62.0563472 20.1143964,61.0870968 C21.6934974,60.4981827 23.2618365,60.0070699 24.7290323,58.4701613 C27.5660093,55.4983871 28.7879063,52.3935484 29.616129,48.8822581 C30.1682775,46.5413978 29.6333313,42.9806452 28.0112903,38.2 L0.6,54.966129 Z" id="Path-6" stroke="#00719B" stroke-width="0.6" fill="url(#linearGradient-1)"></path>
                    <ellipse id="Oval" fill="" transform="translate(51.105449, 27.024388) rotate(-1.000000) translate(-51.105449, -27.024388) " cx="51.1054489" cy="27.0243877" rx="25.5" ry="25.2"></ellipse>
                    <path d="M26.8,56.083713 C32.7776485,61.442026 37.7883245,64.4380719 41.832028,65.0718509 C47.8975831,66.0225193 55.98499,66.0225193 63.3691441,62.2198456 C70.7532981,58.4171719 75.6760675,54.9601958 79.3681446,45.6263604 C82.4448755,37.8481642 79.1681446,26.9 76.7309467,23.4818302 C74.2490234,19.45 70.5434761,17.9701261 66.3980469,16.2 C64.5501292,15.4109267 62.0350736,14.5442601 58.8528802,13.6 C64.0315009,15.456477 67.7489719,18.0153697 70.0052929,21.2766779 C72.5114301,24.8845039 73.830029,30.50209 73.5215568,34.2639085 C72.8630565,38.9716814 70.9946417,43.8334469 67.4783779,47.290423 C63.962114,50.7473991 57.9189351,53.2577851 50.7985008,52.8640112 C47.1064237,52.7131614 40.8426792,51.0506701 37.0626955,48.8036357 C33.2683272,46.4549871 30.5213792,42.9472039 28.8218517,38.2802862 C29.4070936,40.0740995 30.6654972,44.941418 29.9646375,48.8036357 C29.5544067,51.0642885 28.4995275,53.490981 26.8,56.083713 Z" id="Path-4" fill=""></path>
                    <circle id="Oval" fill="url(#radialGradient-2)" cx="51.5" cy="29.3" r="13.3"></circle>
                </g>
            </g>
        </g>
    </g>
</svg>