<?xml version="1.0" encoding="UTF-8"?>
<svg width="100px" height="100px" viewBox="0 0 100 100" version="1.1" xmlns="http://www.w3.org/2000/svg" xmlns:xlink="http://www.w3.org/1999/xlink">
    <!-- Generator: sketchtool 63.1 (101010) - https://sketch.com -->
    <title>app/devothink_search</title>
    <desc>Created with sketchtool.</desc>
    <g id="Icons" stroke="none" stroke-width="1" fill="none" fill-rule="evenodd">
        <g id="app/devothink_search" fill="#D1D1D1" fill-rule="nonzero">
            <path d="M95.2839314,82.1801293 L71.3670687,58.2635993 C69.601226,56.4932953 67.2872957,55.5902574 64.9688794,55.5542555 C73.9371566,42.1875458 72.5262768,23.864537 60.7184113,12.0621269 C47.3066564,-1.35404229 25.4740218,-1.35404229 12.0622669,12.0621269 C-1.35408896,25.4736952 -1.35408896,47.306026 12.0622669,60.7221951 C23.8659915,72.5257555 42.1846543,73.9405264 55.55155,64.9681182 C55.5919877,67.2865022 56.4951003,69.5959144 58.2654175,71.3662185 L82.1822802,95.2873493 C85.7991982,98.9042169 91.6627576,98.9042169 95.2800206,95.2873493 C98.9059104,91.6659958 98.9059104,85.7980321 95.2845146,82.1805894 L95.2839314,82.1801293 Z M51.5208921,51.515257 C43.1771932,59.8588398 29.6077409,59.8588398 21.263927,51.515257 C12.924714,43.1761601 12.924714,29.5978099 21.263927,21.258713 C29.6076259,12.9151302 43.1770782,12.9151302 51.5208921,21.258713 C59.860105,29.5978099 59.860105,43.1761601 51.5208921,51.515257 Z" id="Shape"></path>
        </g>
    </g>
</svg>