<?xml version="1.0" encoding="UTF-8"?>
<svg width="100px" height="100px" viewBox="0 0 100 100" version="1.1" xmlns="http://www.w3.org/2000/svg" xmlns:xlink="http://www.w3.org/1999/xlink">
    <!-- Generator: sketchtool 63.1 (101010) - https://sketch.com -->
    <title>link/executable</title>
    <desc>Created with sketchtool.</desc>
    <g id="Icons" stroke="none" stroke-width="1" fill="none" fill-rule="evenodd">
        <g id="link/executable">
            <g id="Group-2">
                <rect id="Rectangle" stroke="#C8C8C8" stroke-width="5" fill="#121212" x="2.5" y="2.5" width="95" height="95" rx="10"></rect>
                <g id="Group" transform="translate(10.000000, 17.977778)" fill="#00E903">
                    <path d="M6.62962393,10.6791818 L31.9241887,10.713038 C35.5991182,10.7179568 38.5770102,13.6958511 38.5819262,17.3707806 L38.5819404,17.3813901 C38.5868473,21.0494746 35.617255,24.0270224 31.9491704,24.0319293 C31.9432457,24.0319372 31.9373209,24.0319372 31.9313961,24.0319293 L6.63683136,23.9980731 C2.96190184,23.9931543 -0.0159901654,21.01526 -0.0209061727,17.3403305 L-0.0209203652,17.3297211 C-0.0258272159,13.6616365 2.94376505,10.6840887 6.61184959,10.6791818 C6.61777437,10.6791739 6.62369915,10.6791739 6.62962393,10.6791818 Z" id="Rectangle" transform="translate(19.280510, 17.355556) rotate(39.000000) translate(-19.280510, -17.355556) "></path>
                    <path d="M6.62962393,26.7538744 L31.9241887,26.7877305 C35.5991182,26.7926493 38.5770102,29.7705436 38.5819262,33.4454731 L38.5819404,33.4560826 C38.5868473,37.1241672 35.617255,40.101715 31.9491704,40.1066218 C31.9432457,40.1066298 31.9373209,40.1066298 31.9313961,40.1066218 L6.63683136,40.0727657 C2.96190184,40.0678469 -0.0159901654,37.0899526 -0.0209061727,33.4150231 L-0.0209203652,33.4044136 C-0.0258272159,29.7363291 2.94376505,26.7587812 6.61184959,26.7538744 C6.61777437,26.7538664 6.62369915,26.7538664 6.62962393,26.7538744 Z" id="Rectangle-Copy" transform="translate(19.280510, 33.430248) scale(1, -1) rotate(39.000000) translate(-19.280510, -33.430248) "></path>
                    <rect id="Rectangle-Copy-2" transform="translate(60.926979, 57.640022) scale(1, -1) translate(-60.926979, -57.640022) " x="41.4825345" y="50.9733549" width="38.8888889" height="13.3333333" rx="6.66666667"></rect>
                </g>
            </g>
        </g>
    </g>
</svg>