<?xml version="1.0" encoding="UTF-8"?>
<svg width="100px" height="100px" viewBox="0 0 100 100" version="1.1" xmlns="http://www.w3.org/2000/svg" xmlns:xlink="http://www.w3.org/1999/xlink">
    <!-- Generator: sketchtool 63.1 (101010) - https://sketch.com -->
    <title>action/export_arrow</title>
    <desc>Created with sketchtool.</desc>
    <g id="Icons" stroke="none" stroke-width="1" fill="none" fill-rule="evenodd">
        <g id="action/export_arrow">
            <g id="Group-3">
                <g id="Group-2">
                    <rect id="Rectangle" x="0" y="0" width="99.9622784" height="99.9622784"></rect>
                    <g id="NP-Export-2303934-F1F35B" transform="translate(12.566994, 10.788382)" fill="#F1F35B" fill-rule="nonzero">
                        <path d="M67.9563938,1.20614862 C69.4925123,-0.326291965 71.9790268,-0.326291965 73.5151452,1.20614862 C75.0475858,2.74226707 75.0475858,5.22878159 73.5151452,6.76490004 L38.1511316,42.1289136 C36.6150132,43.6613542 34.1284987,43.6613542 32.5923802,42.1289136 C31.0599396,40.5927952 31.0599396,38.1062806 32.5923802,36.5701622 L67.9563938,1.20614862 Z" id="Path"></path>
                        <path d="M66.8068276,7.91399472 L51.0882309,7.91399472 C48.9184836,7.91399472 47.1576386,6.15682761 47.1576386,3.98708035 C47.1576386,1.81733308 48.9184836,0.0564881177 51.0882309,0.0564881177 L70.7336477,0.0564881177 C72.9033949,0.0564881177 74.6642399,1.81733308 74.6642399,3.98708035 L74.6642399,23.6324972 C74.6642399,25.8022444 72.9033949,27.5630894 70.7336477,27.5630894 C68.5639004,27.5630894 66.8067333,25.8022444 66.8067333,23.6324972 L66.8068276,7.91399472 Z" id="Path"></path>
                        <path d="M58.9456432,41.3145983 C58.9456432,39.144851 60.7064881,37.384006 62.8762354,37.384006 C65.0459826,37.384006 66.8068276,39.144851 66.8068276,41.3145983 L66.8068276,63.4175783 C66.8068276,69.657865 61.7490192,74.7152018 55.5092041,74.7152018 L11.3041871,74.7152018 C5.06390041,74.7152018 0.00656356092,69.6573934 0.00656356092,63.4175783 L0.00656356092,19.2125613 C0.00656356092,12.9722746 5.06437194,7.91493776 11.3041871,7.91493776 L35.2489249,7.91493776 C37.4186722,7.91493776 39.1795172,9.67578272 39.1795172,11.84553 C39.1795172,14.0152773 37.4186722,15.7761222 35.2489249,15.7761222 L11.3041871,15.7761222 C9.4070728,15.7761222 7.8672765,17.3159185 7.8672765,19.2130328 L7.8672765,63.4180498 C7.8672765,65.3151641 9.4070728,66.8549604 11.3041871,66.8549604 L55.5092041,66.8549604 C57.4063184,66.8549604 58.9461147,65.3151641 58.9461147,63.4180498 L58.9456432,41.3145983 Z" id="Path"></path>
                    </g>
                </g>
            </g>
        </g>
    </g>
</svg>