<?xml version="1.0" encoding="UTF-8"?>
<svg width="100px" height="100px" viewBox="0 0 100 100" version="1.1" xmlns="http://www.w3.org/2000/svg" xmlns:xlink="http://www.w3.org/1999/xlink">
    <!-- Generator: sketchtool 63.1 (101010) - https://sketch.com -->
    <title>file/text/file_script</title>
    <desc>Created with sketchtool.</desc>
    <g id="Icons" stroke="none" stroke-width="1" fill="none" fill-rule="evenodd">
        <g id="file/text/file_script">
            <g id="Files/Script">
                <g id="Fill" stroke-width="1" fill-rule="evenodd" transform="translate(14.600000, 14.200000)" fill="#FFFFFF">
                    <rect id="Rectangle" x="0" y="0" width="64" height="11.8"></rect>
                    <rect id="Rectangle-Copy" x="13.2" y="10.8" width="52.8" height="21"></rect>
                    <rect id="Rectangle-Copy-2" x="10.4" y="30.2" width="52.8" height="13.4"></rect>
                    <rect id="Rectangle-Copy-4" x="18.4" y="62" width="52.8" height="9"></rect>
                    <rect id="Rectangle-Copy-3" x="7.6" y="42.8" width="52.8" height="29"></rect>
                </g>
                <path d="M20.9372003,9.0048128 C17.8751303,8.90110293 14.7523463,10.488959 12.7992441,12.2734866 C10.2523725,14.6517276 8.8,17.9811918 8.8,21.4680335 L8.8,29.2177099 L25.3154715,29.2177099 C25.7769249,35.8087069 24.1171269,41.1624728 22.0745563,46.6839616 C15.982742,62.2047377 14.3014331,69.6717022 18.7371216,82.3745139 C20.1966369,87.2704293 24.4641029,90.7751237 29.3506128,91.3544634 C47.6050852,91.3115485 61.5445644,91.4546028 78.2679102,91.3759204 C81.6304364,91.3544634 84.8391173,90.006214 87.1928582,87.6065499 C89.546599,85.2068857 90.8486977,80.9761857 90.7986064,77.6182489 L90.7449501,73.9740296 C86.0875597,74.0348255 81.433649,74.0026396 76.776167,74.0026396 C76.3397593,71.0486293 76.2717927,69.2712427 76.4577989,66.9287985 C76.8548571,61.9220138 78.3894727,57.7879009 80.09221,53.0925755 C81.7949473,48.3972501 83.6371527,43.1473039 84.0771684,36.4878262 C84.2989529,33.1082832 84.1737521,28.6200479 83.522712,24.4176374 L83.5084034,24.3246574 L83.4940949,24.2424045 C82.8537873,21.0881704 82.2206591,17.640696 80.3068424,14.536083 C78.3930257,11.4314701 74.4331587,9.01441109 69.9259505,9.01441109 L20.9372003,9.0048128 Z M22.0067912,16.2323694 C22.8366856,18.2243533 23.5091634,20.1126091 24.013556,21.8971368 L16.1223932,21.9007128 C16.040119,19.3472416 17.2385039,18.181421 17.7928963,17.6235044 C18.7801616,16.8224262 19.5063479,16.2359454 22.0032198,16.2359454 L22.0067912,16.2323694 Z M70.1301371,16.4183294 C72.6806717,16.4183294 73.1599729,16.879668 74.0757185,18.3602345 C74.9807315,19.8265281 75.6782732,22.5695115 76.3007055,25.6200173 C76.8301164,29.1211411 76.9517457,33.2946213 76.7728823,36.001991 C76.4044412,41.5773123 74.8948712,45.937192 73.2100825,50.5825301 C71.5252938,55.2278682 69.6615684,60.1771584 69.1714614,66.3468339 C68.96399,68.9575249 69.0247955,70.8921975 69.4111303,73.9893032 L35.8179195,73.9964562 L35.8179195,79.418062 C35.2312745,81.2884652 33.6430237,83.6881293 31.5933104,83.9956518 C28.7423197,84.4283805 26.3063449,82.5401613 25.7482895,80.2835011 C20.4541812,66.4793213 25.7804835,58.1755733 28.935542,49.2199766 C32.079846,40.7228713 33.46775,29.89797 28.9605821,16.4297852 C43.3011579,16.3940233 57.8670071,16.4512432 70.1297561,16.4083283 L70.1301371,16.4183294 Z M43.6202183,80.3361315 L82.1282357,80.3361315 C82.1282357,81.9347174 80.0856651,85.0174495 78.9195547,85.0174495 C66.9644962,85.0389074 53.9261106,85.0174495 41.935338,85.0174495 C42.7652325,84.7957202 43.6201267,81.4340206 43.6201267,80.3361315 L43.6202183,80.3361315 Z" id="Shape" fill="#398EC7" fill-rule="nonzero"></path>
                <path d="M41.7578756,23.6 L41.7578756,27.2534642 L66.8,27.2534642 L66.8,23.6 L41.7578756,23.6 Z M41.7686234,37.8357232 L41.7686234,41.4856253 L66.7997423,41.4856253 L66.7997423,37.8357232 L41.7686234,37.8357232 Z M38.2004531,52.1253351 L38.2004531,55.7645508 L63.2279035,55.7645508 L63.2279035,52.1253351 L38.2004531,52.1253351 Z M34.6,66.3500979 L34.6,70 L59.6632183,69.9964315 L59.6632183,66.3465294 L34.6,66.3500979 Z" id="Shape" fill="#398EC7" fill-rule="nonzero"></path>
            </g>
        </g>
    </g>
</svg>