<?xml version="1.0" encoding="UTF-8"?>
<svg width="100px" height="100px" viewBox="0 0 100 100" version="1.1" xmlns="http://www.w3.org/2000/svg" xmlns:xlink="http://www.w3.org/1999/xlink">
    <!-- Generator: sketchtool 63.1 (101010) - https://sketch.com -->
    <title>file/text/file_batch</title>
    <desc>Created with sketchtool.</desc>
    <defs>
        <path d="M31.1058594,95.034375 C33.1748698,95.034375 34.7630859,94.6037109 35.8705078,93.7423828 C36.9779297,92.8810547 37.5316406,91.64375 37.5316406,90.0304687 C37.5316406,87.2414062 35.6403646,85.3865885 31.8578125,84.4660156 C35.0934896,83.4542969 36.7113281,81.7316406 36.7113281,79.2980469 C36.7113281,77.830599 36.1804036,76.7140625 35.1185547,75.9484375 C34.0567057,75.1828125 32.5095052,74.8 30.4769531,74.8 L30.4769531,74.8 L23.6,74.8 L23.6,95.034375 L31.1058594,95.034375 Z M28.5628906,83.221875 L27.5648438,83.221875 L27.5648438,77.5753906 L28.4125,77.5753906 C29.9710938,77.5753906 31.0306641,77.7417318 31.5912109,78.0744141 C32.1517578,78.4070964 32.4320312,79.0382812 32.4320312,79.9679687 C32.4320312,80.9705729 32.0833984,81.7635417 31.3861328,82.346875 C30.6888672,82.9302083 29.7477865,83.221875 28.5628906,83.221875 L28.5628906,83.221875 Z M28.4671875,92.1632812 L27.5648438,92.1632812 L27.5648438,85.9289062 L28.3851563,85.9289062 C29.7523438,85.9289062 30.8848307,86.2707031 31.7826172,86.9542969 C32.6804036,87.6378906 33.1292969,88.4946615 33.1292969,89.5246094 C33.1292969,90.5272135 32.7943359,91.2176432 32.1244141,91.5958984 C31.4544922,91.9741536 30.2354167,92.1632812 28.4671875,92.1632812 L28.4671875,92.1632812 Z M42.1997084,95.034375 L44.3051771,89.6339844 L52.6723646,89.6339844 L54.7778334,95.034375 L59.0981459,95.034375 L51.2231459,74.8 L47.0122084,74.8 L39.1372084,95.034375 L42.1997084,95.034375 Z M51.6333021,86.940625 L45.3442396,86.940625 L48.4887709,78.8742187 L51.6333021,86.940625 Z M71.3267605,95.034375 L71.3267605,77.5753906 L78.5728543,77.5753906 L78.5728543,74.8 L59.8560574,74.8 L59.8560574,77.5753906 L67.1021512,77.5753906 L67.1021512,95.034375 L71.3267605,95.034375 Z" id="path-1"></path>
        <filter x="-5.5%" y="-14.8%" width="110.9%" height="129.7%" filterUnits="objectBoundingBox" id="filter-2">
            <feMorphology radius="0.5" operator="dilate" in="SourceAlpha" result="shadowSpreadOuter1"></feMorphology>
            <feOffset dx="0" dy="0" in="shadowSpreadOuter1" result="shadowOffsetOuter1"></feOffset>
            <feGaussianBlur stdDeviation="0.5" in="shadowOffsetOuter1" result="shadowBlurOuter1"></feGaussianBlur>
            <feColorMatrix values="0 0 0 0 0   0 0 0 0 0   0 0 0 0 0  0 0 0 0.5 0" type="matrix" in="shadowBlurOuter1"></feColorMatrix>
        </filter>
    </defs>
    <g id="Icons" stroke="none" stroke-width="1" fill="none" fill-rule="evenodd">
        <g id="file/text/file_batch">
            <g id="File/Batch-File">
                <g id="xml" stroke-width="1" fill-rule="evenodd" transform="translate(11.600000, 0.000000)">
                    <path d="M54.4476279,0 L2.61298605,0 C1.16986047,0 0,1.16964286 0,3.43928571 L0,98.2142857 C0,98.8303571 1.16986047,100 2.61298605,100 L74.187014,100 C75.6301395,100 76.8,98.8303571 76.8,98.2142857 L76.8,23.175 C76.8,21.9321429 76.6338977,21.5321429 76.340986,21.2375 L55.5585488,0.458928571 C55.2638512,0.166071429 54.8637767,0 54.4476279,0 Z" id="Path" fill="#E9E9E0" fill-rule="nonzero"></path>
                    <polygon id="Path" fill="#D9D7CA" fill-rule="nonzero" points="55.8 0.6 55.8 21.6 76.8 21.6"></polygon>
                    <path d="M74.187014,100 L2.61298605,100 C1.16986047,100 0,98.8364118 0,97.4010235 L0,69.8 L76.8,69.8 L76.8,97.4010235 C76.8,98.8364118 75.6301395,100 74.187014,100 Z" id="Path" fill="#E70000" fill-rule="nonzero"></path>
                </g>
                <g id="BAT" fill-rule="nonzero">
                    <use fill="black" fill-opacity="1" filter="url(#filter-2)" xlink:href="#path-1"></use>
                    <use fill="#FFFFFF" xlink:href="#path-1"></use>
                </g>
                <path d="M21.6973085,27.1866695 C20.7163444,27.0118417 20,26.1571591 20,25.1591642 L20,22.8985552 C20,21.9005604 20.7162822,21.0458466 21.6973085,20.8710499 L24.3707326,20.4048424 C24.6863928,19.241748 25.1525947,18.1223527 25.7572357,17.0782344 L24.191087,14.8540517 C23.6180364,14.0357643 23.7151693,12.9236419 24.4217606,12.2194821 L26.0243356,10.6169094 L26.0243356,10.6144814 C26.7284964,9.91032162 27.8381962,9.81316398 28.6540605,10.3838082 L30.8782464,11.9572274 C31.9223661,11.3550427 33.041763,10.8912906 34.2048591,10.5779991 L34.6710673,7.9045789 C34.8434649,6.91876763 35.698155,6.20242428 36.6985755,6.2 L38.9664606,6.2 C39.9620326,6.20485664 40.811899,6.91870546 40.986696,7.89730606 L41.4529042,10.5707263 C42.6184246,10.8863861 43.7402457,11.3525873 44.7843655,11.9572274 L47.0037028,10.3959296 C47.8195671,9.82531024 48.9292669,9.9224368 49.6334277,10.6266028 L51.2432755,12.224327 C51.9498606,12.930911 52.0470184,14.0430335 51.4739491,14.8613208 L49.9126491,17.080655 L49.9126491,17.0782263 C50.3667172,17.8843923 50.7406348,18.7342575 51.0247731,19.6156383 C50.3618872,20.43635 49.9175598,21.4124641 49.7330035,22.4493096 L49.51447,23.6925295 L48.8491599,23.9669144 L47.8244965,23.2530575 C46.7682553,22.5076228 45.5055771,22.1118437 44.2138075,22.114268 C44.0098446,22.114268 43.8155912,22.1506906 43.5921967,22.1701159 C42.9511915,20.1377621 41.2975823,18.5885857 39.2263748,18.0811033 C37.1575916,17.5736147 34.9746807,18.1830846 33.466777,19.6885246 C31.9588734,21.1940018 31.3469596,23.3769096 31.8495942,25.4456898 C32.354653,27.5144699 33.9014074,29.1729254 35.9337641,29.8163539 C35.7856467,31.3072233 36.1790083,32.8030034 37.0385531,34.0316155 L37.7597461,35.0562774 C37.6674742,35.2748106 37.572778,35.4982048 37.4853608,35.7215866 L36.2421391,35.9401198 L36.2445671,35.9376918 C35.2052959,36.1246596 34.2291803,36.5689989 33.4084674,37.2318838 C32.5294475,36.9453589 31.6796433,36.5738474 30.8734761,36.1197613 L28.6492902,37.6810591 L28.6468622,37.6786311 C27.8309979,38.24682 26.7262089,38.1472691 26.0244102,37.4430969 L24.4218352,35.8405242 C23.7152501,35.1339401 23.6180923,34.0218177 24.1911616,33.2035303 L25.7573102,30.9841962 C25.1551247,29.9400779 24.6913719,28.8231069 24.37808,27.6600125 L21.6973085,27.1866695 Z M79.9975714,42.1053092 L79.9975714,44.9826796 L80,44.9826796 C79.9975714,46.2477803 79.0869779,47.330687 77.8413319,47.5516694 L74.4540499,48.1732793 C74.053403,49.6399059 73.4633265,51.0482255 72.7009207,52.3618739 L74.6774568,55.1834238 C75.4325897,56.2323906 75.3087648,57.6747123 74.3860767,58.5779738 L72.3779628,60.5860848 C71.4819729,61.4820735 70.071227,61.6058982 69.03438,60.8774645 L66.161854,58.9009312 C64.8360823,59.6682466 63.4131528,60.2558545 61.9344027,60.6540579 L61.3127918,64.041335 C61.0942583,65.2869793 60.011263,66.1975757 58.7462227,66.2 L55.9246687,66.2 C54.6595663,66.1975714 53.5766579,65.2869793 53.3556753,64.041335 L52.7340644,60.6540579 C51.2577386,60.2558421 49.8397198,59.6658223 48.513886,58.9009312 L45.716637,60.8774645 C44.6797901,61.6059292 43.2690442,61.4820797 42.3730542,60.5860848 L40.3406975,58.5779738 C39.4325861,57.6771366 39.3111855,56.2493606 40.0541721,55.2076666 L42.0307083,52.3618739 C41.2658161,51.0361041 40.675783,49.6180253 40.2775791,48.1417016 L36.8902971,47.5200916 C35.644651,47.2991279 34.7340533,46.2185646 34.7340533,44.9511018 L34.7340533,42.1247034 C34.7340533,40.8596027 35.6397403,39.7791203 36.8829621,39.5557136 L40.2702441,38.9341037 L40.2726721,38.9341037 C40.6684642,37.4553557 41.2584848,36.0348525 42.0258013,34.7090827 L40.0541137,31.9166864 C39.3280722,30.8798409 39.4494977,29.4690971 40.3454938,28.5731084 L42.3778506,26.5407546 C43.2762648,25.6496145 44.6821621,25.5282141 45.7165848,26.2542297 L48.5381387,28.2307629 C49.8639104,27.4658719 51.2819913,26.8758397 52.7607414,26.4776363 L53.3823523,23.0903592 C53.6008858,21.8447149 54.6838812,20.9341185 55.9489215,20.9341185 L58.8262961,20.9341185 C60.0840635,20.9438311 61.1549126,21.8471392 61.3758953,23.0830242 L61.9975062,26.4703013 L61.9975062,26.4727293 C63.4544377,26.8758061 64.8554865,27.4682999 66.1618018,28.2307045 L69.0075985,26.2541712 C70.0468698,25.5281308 71.4576157,25.6495561 72.3536056,26.5455509 L74.3859624,28.5779048 C75.2819523,29.4738934 75.4057772,30.8846373 74.6773425,31.923907 L72.7008063,34.7454569 C73.4681228,36.0712267 74.0557316,37.4917298 74.4539355,38.9729021 L77.8412175,39.594512 C79.0747422,39.810621 79.9780049,40.8717341 80,42.1246512 L79.9975714,42.1053092 Z M65.1298823,43.5670872 C65.1298823,40.4250352 63.2383204,37.5937882 60.336703,36.3943296 C57.4350234,35.1923845 54.0963514,35.8552756 51.8772005,38.0770278 C49.6554389,40.2963619 48.9925531,43.6350913 50.1944999,46.5365181 C51.3940224,49.4381935 54.2252735,51.3296905 57.3672678,51.3296905 C59.4263539,51.3296905 61.4004657,50.5114031 62.8573351,49.0569601 C64.3117803,47.6000306 65.1300688,45.6259838 65.1300688,43.5669007 L65.1298823,43.5670872 Z" id="Shape" fill="#E70000" fill-rule="nonzero"></path>
            </g>
        </g>
    </g>
</svg>