<?xml version="1.0" encoding="UTF-8"?>
<svg width="100px" height="100px" viewBox="0 0 100 100" version="1.1" xmlns="http://www.w3.org/2000/svg" xmlns:xlink="http://www.w3.org/1999/xlink">
    <!-- Generator: sketchtool 63.1 (101010) - https://sketch.com -->
    <title>file/binary/file_m4a_audio_sound_music</title>
    <desc>Created with sketchtool.</desc>
    <defs>
        <path d="M22.3085938,95.034375 L22.3085938,79.5578125 L27.1484375,93.6808594 L30.5390625,93.6808594 L35.4746094,79.7628906 L35.4746094,95.034375 L39.3574219,95.034375 L39.3574219,74.8 L34.4628906,74.8 L29.4453125,89.0324219 L24.578125,74.8 L19,74.8 L19,95.034375 L22.3085938,95.034375 Z M56.3028334,95.034375 L56.3028334,89.6339844 L58.6680678,89.6339844 L58.6680678,86.5988281 L56.3028334,86.5988281 L56.3028334,74.8 L52.5977553,74.8 L43.3145522,86.5988281 L43.3145522,89.6339844 L52.7618178,89.6339844 L52.7618178,95.034375 L56.3028334,95.034375 Z M52.843849,86.5988281 L46.5547865,86.5988281 L52.843849,78.6691406 L52.843849,86.5988281 Z M63.9650418,95.034375 L66.0705106,89.6339844 L74.4376981,89.6339844 L76.5431668,95.034375 L80.8634793,95.034375 L72.9884793,74.8 L68.7775418,74.8 L60.9025418,95.034375 L63.9650418,95.034375 Z M73.3986356,86.940625 L67.1095731,86.940625 L70.2541043,78.8742187 L73.3986356,86.940625 Z" id="path-1"></path>
        <filter x="-4.8%" y="-14.8%" width="110.4%" height="129.7%" filterUnits="objectBoundingBox" id="filter-2">
            <feMorphology radius="0.5" operator="dilate" in="SourceAlpha" result="shadowSpreadOuter1"></feMorphology>
            <feOffset dx="0" dy="0" in="shadowSpreadOuter1" result="shadowOffsetOuter1"></feOffset>
            <feGaussianBlur stdDeviation="0.5" in="shadowOffsetOuter1" result="shadowBlurOuter1"></feGaussianBlur>
            <feColorMatrix values="0 0 0 0 0   0 0 0 0 0   0 0 0 0 0  0 0 0 0.5 0" type="matrix" in="shadowBlurOuter1"></feColorMatrix>
        </filter>
    </defs>
    <g id="Icons" stroke="none" stroke-width="1" fill="none" fill-rule="evenodd">
        <g id="file/binary/file_m4a_audio_sound_music">
            <g id="File/M4A">
                <path d="M66.0476279,0 L14.212986,0 C12.7698605,0 11.6,1.16964286 11.6,3.43928571 L11.6,98.2142857 C11.6,98.8303571 12.7698605,100 14.212986,100 L85.787014,100 C87.2301395,100 88.4,98.8303571 88.4,98.2142857 L88.4,23.175 C88.4,21.9321429 88.2338977,21.5321429 87.940986,21.2375 L67.1585488,0.458928571 C66.8638512,0.166071429 66.4637767,0 66.0476279,0 Z" id="Path" fill="#E9E9E0" fill-rule="nonzero"></path>
                <polygon id="Path" fill="#D9D7CA" fill-rule="nonzero" points="66.8 0.6 66.8 21.6 87.8 21.6"></polygon>
                <path d="M85.787014,100 L14.212986,100 C12.7698605,100 11.6,98.8364118 11.6,97.4010235 L11.6,69.8 L88.4,69.8 L88.4,97.4010235 C88.4,98.8364118 87.2301395,100 85.787014,100 Z" id="Path" fill="#A80000" fill-rule="nonzero"></path>
                <g id="M4A" fill-rule="nonzero">
                    <use fill="black" fill-opacity="1" filter="url(#filter-2)" xlink:href="#path-1"></use>
                    <use fill="#FFFFFF" xlink:href="#path-1"></use>
                </g>
                <g id="np_audio_2524823_F1F35B" stroke-width="1" fill-rule="evenodd" transform="translate(23.600000, 10.800000)" fill="#000000">
                    <path d="M34.9791522,2.50467925 L34.9791522,53.6953208 C34.9558838,54.6086363 34.4119823,55.4288034 33.5801399,55.8069068 C33.2543813,55.949429 32.9024429,56.0221383 32.5476154,56.0221383 C31.9978986,56.0221383 31.4627461,55.8272639 31.0439136,55.4695102 L15.2064598,42.0609128 L5.78887097,42.0609128 C4.25895954,42.055096 2.79308294,41.4355754 1.71982926,40.3448536 C0.646575575,39.2511981 0.0532108887,37.7737059 0.0765165917,36.2437944 L0.0765165917,19.9558631 C0.0532481183,18.4259516 0.646590467,16.9483849 1.71982926,15.8548039 C2.79308294,14.7641268 4.25903399,14.1445525 5.78887097,14.1387447 L15.2064598,14.1387447 L31.0699743,0.730147283 C31.7738437,0.145524097 32.7482082,0.0146398646 33.5800655,0.392750696 C34.4119227,0.770861527 34.9558465,1.59109569 34.9791522,2.50433674 L34.9791522,2.50467925 Z M38.7777585,20.2006325 C38.2251304,20.4769428 37.8062904,20.9626471 37.6114309,21.5473001 C37.4165565,22.1319232 37.4601895,22.7717802 37.7364999,23.3244157 C39.0773596,26.3667407 39.0773596,29.8337805 37.7364999,32.876031 C37.1635146,34.0249352 37.6288841,35.4239475 38.7777361,35.9998143 C39.9266403,36.5727995 41.3256526,36.10743 41.9015194,34.958578 C43.8851846,30.6015284 43.8851846,25.5990672 41.9015194,21.2417198 C41.3256228,20.0928157 39.9266403,19.6274462 38.7777361,20.2004836 L38.7777585,20.2006325 Z M48.3814951,14.2613267 L48.3844035,14.2613267 C47.8085069,13.1124226 46.4095244,12.6470531 45.2606202,13.2200905 C44.1117161,13.7959871 43.6463466,15.1949696 44.219384,16.3438737 C47.572948,23.8218026 47.572948,32.3786441 44.219384,39.856573 C43.9430736,40.4092011 43.8994406,41.0491102 44.094315,41.6336887 C44.2891894,42.2183119 44.7080219,42.7040385 45.2606426,42.9803563 C46.4095467,43.5533415 47.808559,43.087972 48.3844258,41.93912 C52.392411,33.1492215 52.392411,23.0510763 48.3844258,14.2611778 L48.3814951,14.2613267 Z" id="Shape" fill-rule="nonzero"></path>
                </g>
            </g>
        </g>
    </g>
</svg>