<?xml version="1.0" encoding="UTF-8"?>
<svg width="100px" height="100px" viewBox="0 0 100 100" version="1.1" xmlns="http://www.w3.org/2000/svg" xmlns:xlink="http://www.w3.org/1999/xlink">
    <!-- Generator: sketchtool 63.1 (101010) - https://sketch.com -->
    <title>file/text/file_java</title>
    <desc>Created with sketchtool.</desc>
    <defs>
        <path d="M19.2640625,98.48125 C21.5609375,98.48125 23.2152344,97.934375 24.2269531,96.840625 C25.2386719,95.746875 25.7445313,93.9558594 25.7445313,91.4675781 L25.7445313,91.4675781 L25.7445313,74.2 L21.5199219,74.2 L21.5199219,91.91875 C21.5199219,93.3132813 21.3376302,94.2794271 20.9730469,94.8171875 C20.6084635,95.3549479 19.943099,95.6238281 18.9769531,95.6238281 C17.819401,95.6238281 16.69375,95.4096354 15.6,94.98125 L15.6,94.98125 L15.6273438,97.9890625 C16.9033854,98.3171875 18.115625,98.48125 19.2640625,98.48125 Z M31.7661147,94.434375 L33.8715834,89.0339844 L42.2387709,89.0339844 L44.3442397,94.434375 L48.6645522,94.434375 L40.7895522,74.2 L36.5786147,74.2 L28.7036147,94.434375 L31.7661147,94.434375 Z M41.1997084,86.340625 L34.9106459,86.340625 L38.0551772,78.2742188 L41.1997084,86.340625 Z M58.8666043,94.434375 L66.0990262,74.2 L63.0638699,74.2 L57.4584012,89.8542969 L51.6615262,74.2 L47.1634793,74.2 L54.6419949,94.434375 L58.8666043,94.434375 Z M67.5784221,94.434375 L69.6838908,89.0339844 L78.0510783,89.0339844 L80.1565471,94.434375 L84.4768596,94.434375 L76.6018596,74.2 L72.3909221,74.2 L64.5159221,94.434375 L67.5784221,94.434375 Z M77.0120158,86.340625 L70.7229533,86.340625 L73.8674846,78.2742188 L77.0120158,86.340625 Z" id="path-1"></path>
        <filter x="-4.4%" y="-12.4%" width="109.4%" height="124.7%" filterUnits="objectBoundingBox" id="filter-2">
            <feMorphology radius="0.5" operator="dilate" in="SourceAlpha" result="shadowSpreadOuter1"></feMorphology>
            <feOffset dx="0" dy="0" in="shadowSpreadOuter1" result="shadowOffsetOuter1"></feOffset>
            <feGaussianBlur stdDeviation="0.5" in="shadowOffsetOuter1" result="shadowBlurOuter1"></feGaussianBlur>
            <feColorMatrix values="0 0 0 0 0   0 0 0 0 0   0 0 0 0 0  0 0 0 0.5 0" type="matrix" in="shadowBlurOuter1"></feColorMatrix>
        </filter>
    </defs>
    <g id="Icons" stroke="none" stroke-width="1" fill="none" fill-rule="evenodd">
        <g id="file/text/file_java">
            <g id="File/Java">
                <path d="M66.0476279,0 L14.212986,0 C12.7698605,0 11.6,1.16964286 11.6,3.43928571 L11.6,98.2142857 C11.6,98.8303571 12.7698605,100 14.212986,100 L85.787014,100 C87.2301395,100 88.4,98.8303571 88.4,98.2142857 L88.4,23.175 C88.4,21.9321429 88.2338977,21.5321429 87.940986,21.2375 L67.1585488,0.458928571 C66.8638512,0.166071429 66.4637767,0 66.0476279,0 Z" id="Path" fill="#E9E9E0" fill-rule="nonzero"></path>
                <polygon id="Path" fill="#D9D7CA" fill-rule="nonzero" points="66.8 0.6 66.8 21.6 87.8 21.6"></polygon>
                <path d="M85.787014,100 L14.212986,100 C12.7698605,100 11.6,98.8364118 11.6,97.4010235 L11.6,69.8 L88.4,69.8 L88.4,97.4010235 C88.4,98.8364118 87.2301395,100 85.787014,100 Z" id="Path" fill="#6700A8" fill-rule="nonzero"></path>
                <g id="Group" stroke-width="1" fill-rule="evenodd" transform="translate(27.600000, 5.800000)">
                    <path d="M10.5232813,56.795933 C13.1792842,57.8842133 16.1927965,58.2 19.3889258,58.2 C21.9740752,58.2 24.4401183,58.0997109 26.6937919,57.3642635 C32.1473138,55.5962002 36.3491233,51.9041296 38.0065026,47.3429561 C38.4274369,47.3206694 38.8781621,47.1646664 39.2022379,46.9343732 C39.7498216,46.5406525 39.9658721,46.1134989 40.0962501,45.8052051 C40.2303471,45.4820586 40.2862289,45.214624 40.3309247,44.9397536 C40.3979751,44.5868921 40.4277736,44.6091712 40.4836554,44.5274622 C40.5544306,44.4123204 41.1318166,44.0743116 42.2046407,43.6174431 C43.2588598,43.1457218 44.7153129,42.4919834 46.3356921,41.3479816 C47.5091129,40.5271073 48.399406,39.5465425 48.9767232,38.4693875 C49.5578359,37.388524 49.8036869,36.2295934 49.8,35.1524384 C49.7813332,32.8681432 48.8463453,30.9477492 47.9374568,29.4508765 C47.3638013,28.5074244 46.4585938,27.965129 45.6428732,27.6976469 C44.8121905,27.422786 44.0000841,27.3484939 43.19924,27.3484939 C41.6458998,27.3559221 40.0925596,27.6493613 38.7776227,27.9650814 L38.7776227,26.3456404 C38.7366469,24.7112707 36.6282744,23.2330351 33.2198709,22.1483681 C32.6834636,21.9775048 32.1134891,21.8177858 31.5212955,21.669211 C31.1189852,21.5689219 30.7055082,21.4723507 30.2808357,21.3832058 C29.5768023,21.2309131 28.8168491,21.0414791 28.384767,21.7880708 C27.8856078,22.6460864 28.6082748,23.1066539 29.3420991,23.2923604 C29.9269309,23.4409352 30.4707954,23.6043626 30.9587592,23.775226 C31.446742,23.9497977 31.8863004,24.1280874 32.2736961,24.3212394 C33.5029986,24.9266827 34.2032366,25.6324056 34.2032366,26.3827437 C34.2032366,28.6893845 27.565232,30.5613788 19.3850446,30.5613788 C11.1974189,30.5613788 4.56685254,28.685581 4.56685254,26.3827437 C4.56685254,25.5210102 5.49811283,24.7187065 7.08496296,24.0538524 C7.47981595,23.886707 7.91937432,23.7307059 8.39246171,23.5821311 C9.16727226,23.3406936 10.7616178,23.2329781 10.6312589,22.0517874 C10.5381329,21.2123425 9.80429526,21.1157618 9.11892408,21.2494838 C8.67936571,21.3349145 8.25098369,21.4277735 7.83373987,21.5243447 C7.3345807,21.6394866 6.85037417,21.7620643 6.39216314,21.8957768 C2.49579588,22.9951824 0.037190906,24.5775391 0,26.341894 L0,43.0307606 C0,49.0294721 4.26894385,54.2254519 10.5231192,56.7966271 L10.5232813,56.795933 Z" id="Path" fill="#000000" fill-rule="nonzero"></path>
                    <path d="M38.6211437,35.5710634 C38.6211437,34.6127757 38.4556184,33.3621804 39.3095551,32.677635 C40.287607,31.8969294 41.8789155,31.78963 43.0827013,31.8007312 C44.6815215,31.7896309 45.4075488,34.0725086 45.4,35.2972452 C45.3961793,35.7671443 45.3058953,36.1667514 45.0839519,36.5848762 C44.8544814,36.9992786 44.4670165,37.4691777 43.7447643,37.9723427 C42.529711,38.8122487 41.0249788,39.7113171 39.5954591,40.1368965 C38.3879174,40.4958021 38.6174072,39.2414937 38.6174072,38.4497342 C38.6211688,37.4877524 38.6211688,36.5294647 38.6211688,35.5710823 L38.6211437,35.5710634 Z" id="Path" fill="#FFFFFF" fill-rule="nonzero"></path>
                    <path d="M23.6873698,8.25841265 C24.6122736,12.2004645 22.9096922,15.6623268 22.452947,18.4949588 C22.2641933,19.6749919 22.094314,22.6715307 23.7629447,22.9804758 C24.6274465,23.1405421 26.0053554,22.2806513 26.6093749,21.7074352 C27.0359674,21.3054063 27.2586912,20.8773334 27.3492941,20.4268663 C27.6097763,19.127715 26.7830233,17.675997 26.7603798,16.335869 C26.7377286,15.1298205 27.1303394,13.960937 27.1567713,12.758605 C27.224723,9.63923144 24.7708456,6.41179385 22.1774271,4.90423324 C22.1170252,4.87073147 22.060402,4.83350654 22,4.8 C22.4001606,5.36208568 22.7776776,5.9651671 23.1023116,6.63518345 C23.3590151,7.17121559 23.5515475,7.71468071 23.6874568,8.25814583 L23.6873698,8.25841265 Z" id="Path" fill="#000000" fill-rule="nonzero"></path>
                    <path d="M15.5389559,25.7593906 C16.847586,26.5103496 20.7021559,27.815282 21.1521565,25.4433932 C21.4146313,24.06417 20.5184697,22.5882528 20.2934982,21.2499533 C20.0797671,19.9041353 20.121014,18.4877953 20.5034761,17.0713602 C21.4596217,13.7255164 22.9707041,10.8108939 22.5170559,8.37955151 C22.4608116,8.03752472 22.3745685,7.69178626 22.2433312,7.34608586 C21.2647143,4.57269766 19.1049418,1.47220555 15.3515453,0 C18.7936466,5.53183449 16.6788934,7.66947809 14.3729284,11.6584899 C11.9619504,15.837083 10.0833323,22.628891 15.5390135,25.7590765 L15.5389559,25.7593906 Z" id="Path" fill="#000000" fill-rule="nonzero"></path>
                </g>
                <g id="JAVA" fill-rule="nonzero">
                    <use fill="black" fill-opacity="1" filter="url(#filter-2)" xlink:href="#path-1"></use>
                    <use fill="#FFFFFF" xlink:href="#path-1"></use>
                </g>
            </g>
        </g>
    </g>
</svg>