<?xml version="1.0" encoding="UTF-8"?>
<svg width="100px" height="100px" viewBox="0 0 100 100" version="1.1" xmlns="http://www.w3.org/2000/svg" xmlns:xlink="http://www.w3.org/1999/xlink">
    <!-- Generator: sketchtool 63.1 (101010) - https://sketch.com -->
    <title>file/binary/file_pdf_1</title>
    <desc>Created with sketchtool.</desc>
    <g id="Icons" stroke="none" stroke-width="1" fill="none" fill-rule="evenodd">
        <g id="file/binary/file_pdf_1">
            <rect id="Rectangle" stroke="#979797" stroke-width="0.5" fill="#FFFFFF" x="9.80019029" y="9.84776403" width="80.3044719" height="80.3044719" rx="8.4"></rect>
            <g id="File/PDF3" transform="translate(-0.047574, -0.047574)" fill-rule="nonzero">
                <path d="M67.3291107,67.4349551 C75.0363481,71.3029302 84.1825705,72.9477112 90.5845585,73.0770292 L91.0576058,73.0831397 L91.0583942,80.0583942 C91.0583942,86.1335264 86.1335264,91.0583942 80.0583942,91.0583942 L22.5175767,91.058974 C25.9411917,87.0629957 29.6370978,81.6270082 33.6066946,74.6915243 C34.3997396,73.868529 34.3997396,73.868529 35.2227349,73.868529 C43.2118114,70.6466442 53.679751,69.0411183 67.3291107,67.4349551 Z M21.5329104,77.0798994 C18.843701,82.5094372 16.138437,86.4092552 13.4279184,88.9224795 C13.2164812,88.7677624 13.0107114,88.6046791 12.8110973,88.4345863 L13.0155637,88.6051021 C12.9196095,88.5271859 12.8249915,88.4476921 12.7317496,88.3666599 L12.8110973,88.4345863 C12.7254816,88.3616325 12.6409984,88.2873892 12.5576776,88.2118866 L12.5575844,88.2120619 C12.450036,88.1143451 12.3443345,88.0147017 12.2406378,87.9130212 C12.20994,87.8830597 12.1793765,87.8527304 12.1489907,87.8222242 L12.2406378,87.9130212 C12.146875,87.8210813 12.0547514,87.7274759 11.9643148,87.6322527 L11.9644324,87.6324563 C11.8641135,87.5267482 11.7659833,87.4192579 11.6699893,87.3098467 C11.6472532,87.2839665 11.6241407,87.2573695 11.6011542,87.2306611 L11.6699893,87.3098467 C11.5904504,87.2191907 11.512378,87.1272159 11.4358092,87.0339595 L11.6011542,87.2306611 C11.5230996,87.1399679 11.4464985,87.0479898 11.371387,86.9547623 L11.4358092,87.0339595 C11.3440208,86.9221664 11.2543931,86.8085316 11.16699,86.6931188 L11.371387,86.9547623 C11.2820744,86.8439083 11.1948681,86.7312878 11.1098291,86.6169604 L11.1099914,86.6171779 L10.9007305,86.3261068 L10.9007305,86.3261068 C12.6594234,84.1361248 14.9284626,81.714338 17.5386908,79.4685931 C18.3616861,78.6860626 19.9273845,77.8627486 21.5329104,77.0798994 Z M19.9416058,8.94160584 L38.5566152,8.9425103 C36.264252,18.543381 37.860443,24.0418676 40.8231177,32.9398856 C38.4347426,40.1457942 36.0059027,48.1852126 32.0011687,56.2243124 C28.7894796,61.8246952 26.3609584,66.6524245 23.9620689,70.6469628 C20.7506985,72.2626845 18.3620048,73.8688476 16.7558416,74.691843 C13.6682706,76.4843333 11.0743952,78.4424445 8.94752479,80.4088227 C8.94344069,80.2924904 8.94160584,80.1756565 8.94160584,80.0583942 L8.94160584,19.9416058 C8.94160584,13.9629043 13.7113694,9.09824066 19.6531984,8.94531324 L19.9416058,8.94160584 L19.9416058,8.94160584 Z M46.4333776,40.1454756 C49.6450667,47.3618987 54.4724774,53.795154 58.5071618,58.6126875 L58.822348,58.927778 C59.5136411,59.6142884 60.2869728,60.3229119 61.6787047,61.0013812 C55.2954727,61.8243765 45.6502098,64.2232661 35.2227349,68.2576318 L33.6066946,68.2576318 C35.2227349,65.0459428 36.8285794,62.617103 38.4344239,59.3955367 C41.6059669,52.1893095 44.8275331,45.7557356 46.4333776,40.1454756 Z M80.1462352,61.8246952 C85.0970692,61.8246952 88.4931752,62.2892379 90.8142956,62.8795794 L91.0576058,62.9431397 L91.0576058,66.4421397 L90.5572484,66.3680035 C87.0088835,65.8051452 82.791668,64.4438927 78.5802182,62.6174216 L78.5802182,61.8246952 L80.1462352,61.8246952 Z M80.0583942,8.94160584 C86.1335264,8.94160584 91.0583942,13.8664736 91.0583942,19.9416058 L91.0576058,56.7701397 L90.4849211,56.6875741 C88.1630917,56.3701716 85.5183639,56.2243124 82.5744378,56.2243124 C79.3627488,56.2243124 76.1513784,57.0074802 72.1466443,57.0074802 C68.9352739,55.4013171 67.3291107,53.7957912 64.9005895,52.1899467 C60.0728602,47.3625359 55.2957913,40.1461128 52.0742251,31.3241639 L52.0742251,30.5008499 C54.2601717,23.4250072 56.0625086,15.2310484 55.2428175,8.94145542 L80.0583942,8.94160584 Z M47.7936058,8.94113966 C47.7141004,10.0965032 47.5348238,11.4287601 47.2566916,12.8661919 L47.2566916,14.4723551 C47.2566916,16.8607302 46.4336962,18.4668933 45.6505284,21.6785823 C44.5550496,16.7926731 44.2023186,12.6219756 44.5923356,8.94115923 L38.5566152,8.9425103 L38.5566058,8.94113966 L47.7936058,8.94113966 Z" id="Combined-Shape" fill="#CD2A00"></path>
                <rect id="Border-Copy-3" stroke="#686868" stroke-width="2" x="9.94160584" y="9.94160584" width="80.1167883" height="80.1167883" rx="11"></rect>
            </g>
        </g>
    </g>
</svg>