<?xml version="1.0" encoding="UTF-8"?>
<svg width="100px" height="100px" viewBox="0 0 100 100" version="1.1" xmlns="http://www.w3.org/2000/svg" xmlns:xlink="http://www.w3.org/1999/xlink">
    <!-- Generator: sketchtool 63.1 (101010) - https://sketch.com -->
    <title>file/binary/file_affinity_photo</title>
    <desc>Created with sketchtool.</desc>
    <defs>
        <path d="M99.9701802,2.99909744 C99.9701802,1.34393735 98.6262393,0 96.9710748,0 L2.99910541,0 C1.34394092,0 0,1.34393735 0,2.99909744 L0,96.9708172 C0,98.6259773 1.34394092,99.9699146 2.99910541,99.9699146 L96.9710748,99.9699146 C98.6262393,99.9699146 99.9701802,98.6259773 99.9701802,96.9708172 L99.9701802,2.99909744 Z" id="path-1"></path>
        <radialGradient cx="76.4332357%" cy="-18.7940812%" fx="76.4332357%" fy="-18.7940812%" r="118.794197%" gradientTransform="translate(0.764332,-0.187941),scale(0.999988,1.000000),translate(-0.764332,0.187941)" id="radialGradient-3">
            <stop stop-color="#F9A6FF" offset="0%"></stop>
            <stop stop-color="#EA73FF" offset="100%"></stop>
        </radialGradient>
        <linearGradient x1="3662.47251%" y1="3.48358757%" x2="3662.47251%" y2="96.1568402%" id="linearGradient-4">
            <stop stop-color="#F7B3FF" offset="0%"></stop>
            <stop stop-color="#EE8AFF" offset="100%"></stop>
        </linearGradient>
    </defs>
    <g id="Icons" stroke="none" stroke-width="1" fill="none" fill-rule="evenodd">
        <g id="file/binary/file_affinity_photo">
            <g id="Group">
                <path d="M99.9701802,2.99909744 C99.9701802,1.34393735 98.6262393,0 96.9710748,0 L2.99910541,0 C1.34394092,0 0,1.34393735 0,2.99909744 L0,96.9708172 C0,98.6259773 1.34394092,99.9699146 2.99910541,99.9699146 L96.9710748,99.9699146 C98.6262393,99.9699146 99.9701802,98.6259773 99.9701802,96.9708172 L99.9701802,2.99909744 Z" id="Path"></path>
                <g id="Clipped">
                    <mask id="mask-2" fill="white">
                        <use xlink:href="#path-1"></use>
                    </mask>
                    <g id="Path"></g>
                    <g id="Group" mask="url(#mask-2)">
                        <g transform="translate(-2.358990, -3.834582)">
                            <path d="M102.32917,6.83367902 C102.32917,5.17851893 100.985229,3.83458158 99.3300645,3.83458158 L5.35809509,3.83458158 C3.70293061,3.83458158 2.35898968,5.17851893 2.35898968,6.83367902 L2.35898968,100.805399 C2.35898968,102.460559 3.70293061,103.804496 5.35809509,103.804496 L99.3300645,103.804496 C100.985229,103.804496 102.32917,102.460559 102.32917,100.805399 L102.32917,6.83367902 Z" id="Path" fill="#7E4DD2" fill-rule="evenodd"></path>
                            <path d="M102.32917,6.83367902 C102.32917,5.17851893 100.985229,3.83458158 99.3300645,3.83458158 L43.3467636,3.83458158 L2.35898968,74.8273045 L2.35898968,100.805399 C2.35898968,102.460559 3.70293061,103.804496 5.35809509,103.804496 L99.3300645,103.804496 C100.985229,103.804496 102.32917,102.460559 102.32917,100.805399 L102.32917,6.83367902 Z" id="Path" fill="#7140C2" fill-rule="evenodd"></path>
                            <path d="M103.58099,105.090022 L66.8279811,105.098102 L45.5932066,68.3193323 L103.635016,68.3193323 C103.620932,80.5696872 103.594843,92.8398976 103.58099,105.090022 Z M65.3143449,105.096948 L7.35057235,105.096948 L36.348851,54.9272887 L65.3143449,105.096948 Z M5.86902814,105.097179 L1.08154163,105.097179 L1.06538017,78.8099397 L23.3520349,40.1968487 L43.3460709,40.1968487 C30.8567248,61.8284451 18.3583743,83.4655824 5.86902814,105.097179 L5.86902814,105.097179 Z M56.676044,40.2026207 C58.5983343,40.2266319 60.4317366,41.2808181 61.4185093,42.9408266 C62.950154,45.5677497 64.4596345,48.2071402 65.9801971,50.8402969 C66.9037091,52.4585166 66.9729725,54.5380294 66.0679307,56.2322077 C66.0462282,56.273073 66.0240639,56.3134766 66.0009761,56.354111 C64.49265,58.9941941 62.9610053,61.6204245 61.4404427,64.2535813 C60.4947663,65.877342 58.7033838,66.9486132 56.8148017,67.0114118 C56.7688569,67.013028 56.6769675,67.0114118 56.6769675,67.0114118 L48.1264002,67.0114118 L48.0525193,67.0114118 C46.1671694,67.0033311 44.339539,66.014945 43.3409916,64.4105779 C43.3158259,64.3713287 43.2920455,64.331387 43.2680342,64.2914452 C41.7373129,61.6642912 40.2278325,59.0251317 38.7072699,56.3919749 C37.7745227,54.7596717 37.7295015,52.6656136 38.6183818,50.9996023 C38.6403152,50.9589679 38.663403,50.9183335 38.6853365,50.8779299 C40.1938934,48.2378468 41.7264617,45.6116164 43.2458699,42.9784597 C44.1906227,41.3583929 45.9840831,40.2684207 47.8715109,40.2056221 C47.91861,40.2040059 47.9645547,40.2033133 48.0104995,40.2026207 C50.8997069,40.1903842 53.78776,40.1903842 56.676044,40.2026207 L56.676044,40.2026207 Z M103.621856,2.54166813 L103.621856,67.0114118 L61.3614824,67.0114118 L98.5836359,2.54166813 L103.621856,2.54166813 Z M68.3383851,52.3059067 L42.3530646,7.29774259 L45.0993586,2.54166813 L97.0699996,2.54166813 L68.3383851,52.3059067 Z M59.0912589,38.8979325 L24.1116236,38.8923914 L41.5964773,8.60774097 C47.4247619,18.7026244 53.2627434,28.8032799 59.0912589,38.8979325 Z" id="Shape" fill="#58328A" fill-rule="nonzero"></path>
                            <path d="M5.12216547,103.804396 L2.37298551,103.804396 L2.35798998,79.156014 L24.1015042,41.4952478 L41.0964348,41.4952478 L5.12216547,103.804396 Z M102.32917,69.6147854 L102.32917,103.804496 L67.573537,103.804496 L47.834425,69.6147854 L102.32917,69.6147854 Z M63.0748789,103.804396 L9.59083252,103.804396 L36.3478513,57.5119277 L63.0748789,103.804396 Z M102.32917,65.7159587 L63.6017218,65.7159587 L99.3290648,3.83448161 L102.32817,3.83448161 L102.32917,65.7159587 Z M56.6387987,41.424869 C58.1193571,41.4310671 59.5359346,42.3012053 60.3017061,43.5907172 C60.3097037,43.6038133 60.3246993,43.6301053 60.3246993,43.6301053 L64.8183589,51.4141628 C64.8183589,51.4141628 64.8443511,51.4576497 64.8563475,51.4786434 C65.5911284,52.7635567 65.61912,54.3826694 64.8853389,55.6909757 C63.3787883,58.3265825 61.8492445,60.9495931 60.3316972,63.5789019 C59.5859196,64.857617 58.1743407,65.691866 56.674788,65.7105604 C53.8126417,65.7225567 48.0743534,65.7159587 48.0663558,65.7159587 C46.5857974,65.7097606 45.1462268,64.9198983 44.3804552,63.6303864 C44.3634603,63.6023948 44.3304701,63.5454119 44.3304701,63.5454119 C44.3304701,63.5454119 39.8358108,55.7605548 39.8258138,55.7424602 C39.091033,54.4575469 39.0920327,52.7974465 39.8258138,51.4891402 L39.858804,51.4314576 C39.858804,51.4314576 42.8669067,46.2113285 44.3734573,43.601214 C45.1192349,42.3224989 46.5328132,41.4427636 48.0323659,41.4239693 C48.0573585,41.4238693 48.1073436,41.4227696 48.1073436,41.4227696 L56.5878139,41.424869 L56.6387987,41.424869 Z M45.8450184,3.83448161 L94.8304067,3.83448161 L68.3383089,49.7200726 L43.8456148,7.29753942 L45.8450184,3.83448161 Z M56.8417382,37.5993203 L26.3508332,37.5993203 L41.5962857,11.193467 L56.8417382,37.5993203 Z" id="Shape" fill="url(#radialGradient-3)" fill-rule="evenodd"></path>
                            <path d="M2.72887935,107.950249 L0.0296844855,107.864274 L0.0616749432,83.1342168 L24.1015042,41.4952478 L41.0964348,41.4952478 L2.72887935,107.950249 Z M65.324208,107.700324 L7.52244949,107.383419 L36.3478513,57.5119277 L65.324208,107.700324 Z M104.456535,107.551369 L69.6009323,107.31544 L47.834425,69.6147854 L104.588496,69.6147854 L104.456535,107.551369 Z M24.7942975,42.6948868 L1.2603174,83.4564198 L1.23032635,106.702624 L2.04908213,106.728616 L39.0190545,42.6948868 L24.7942975,42.6948868 Z M9.59483133,106.195777 L63.2398297,106.489688 L36.3478513,59.9102059 L9.59483133,106.195777 Z M49.9118053,70.8144244 L70.2967248,106.120799 L103.260892,106.343732 L103.383855,70.8144244 L49.9118053,70.8144244 Z M56.5878139,41.424869 L56.6387987,41.424869 L56.6567934,41.424969 L56.6737883,41.4251689 L56.6907832,41.4254688 L56.7087779,41.4257687 L56.7427677,41.4267684 L56.7597626,41.4273682 L56.7777573,41.4279681 L56.8117471,41.4295676 L56.8297418,41.4304673 L56.8467367,41.431367 L56.8807266,41.4335664 L56.8987212,41.434766 L56.9157161,41.4360656 L56.949706,41.4388648 L56.9677006,41.4403643 L57.0016905,41.4435634 L57.0356803,41.4471623 L57.053675,41.4490617 L57.0706699,41.4509611 L57.1046598,41.4551599 L57.1386496,41.4595586 L57.1726395,41.4643571 L57.1896344,41.4668564 L57.2236243,41.4720548 L57.2576141,41.4775531 L57.291604,41.4832514 L57.3255939,41.4893496 L57.3595837,41.4957477 L57.3935736,41.5023457 L57.4275635,41.5093436 L57.4605536,41.5165414 L57.4945435,41.5240392 L57.5285333,41.5318368 L57.5615235,41.5399344 L57.5955134,41.5483318 L57.6285035,41.5569293 L57.6614937,41.5659265 L57.6944838,41.5751238 L57.7284737,41.584521 L57.7614639,41.594318 L57.794454,41.604315 L57.8274442,41.6146119 L57.8594346,41.6252087 L57.8924248,41.6361054 L57.925415,41.6472021 L57.9574054,41.6585987 L57.9903956,41.6701952 L58.022386,41.6820916 L58.0543765,41.6942879 L58.0873666,41.7067842 L58.1193571,41.7194803 L58.1513476,41.7324764 L58.183338,41.7456725 L58.2143288,41.7591684 L58.2463192,41.7728643 L58.2783097,41.7868601 L58.3093004,41.8011558 L58.3412909,41.8156514 L58.3722817,41.830347 L58.4032724,41.8453425 L58.4342632,41.8606379 L58.4652539,41.8761332 L58.4962447,41.8918285 L58.5272354,41.9078237 L58.5572265,41.9241188 L58.5882172,41.9406138 L58.6182083,41.9573088 L58.6481994,41.9742037 L58.6781904,41.9913985 L58.7081815,42.0088932 L58.7381725,42.0265879 L58.7681636,42.0444825 L58.7971549,42.0625771 L58.827146,42.0809715 L58.8561373,42.099566 L58.8851287,42.1183603 L58.91412,42.1374545 L58.9431114,42.1567487 L58.9721027,42.1762429 L59.0000944,42.1960369 L59.0290857,42.2159309 L59.0570774,42.2361249 L59.085069,42.2566187 L59.1130607,42.2772125 L59.1410523,42.2980062 L59.169044,42.3190999 L59.1960359,42.3403935 L59.2240276,42.361887 L59.2510195,42.3835805 L59.2780115,42.4054739 L59.3050034,42.4276672 L59.3319954,42.4499605 L59.3579876,42.4725537 L59.3849796,42.4952469 L59.4109718,42.51824 L59.4369641,42.541433 L59.4629563,42.564726 L59.4889486,42.5883189 L59.5139411,42.6121117 L59.5399334,42.6361045 L59.5649259,42.6601972 L59.5899185,42.6845899 L59.614911,42.7091825 L59.6389038,42.7338751 L59.6638964,42.7588675 L59.6878892,42.78406 L59.7118821,42.8093523 L59.7358749,42.8348447 L59.7588681,42.8605369 L59.7828609,42.8864291 L59.805854,42.9125213 L59.8288472,42.9388134 L59.8518403,42.9652054 L59.8748335,42.9918974 L59.8978266,43.0186893 L59.91982,43.0456812 L59.9418135,43.072873 L59.9638069,43.1001648 L59.9848007,43.1276566 L60.0067941,43.1553482 L60.0277878,43.1832398 L60.0487816,43.2112314 L60.0907691,43.2678144 L60.1107631,43.2964058 L60.1307571,43.3250971 L60.1507512,43.3539884 L60.1707452,43.3829797 L60.1897395,43.4121709 L60.2087339,43.4415621 L60.2277282,43.4710532 L60.2467225,43.5007443 L60.2657169,43.5306353 L60.2837115,43.5606263 L60.3017061,43.5907172 L60.3246993,43.6301053 L64.8183589,51.4141628 L64.8563475,51.4786434 L64.8733425,51.5088343 L64.8903374,51.5391252 L64.9063326,51.569516 L64.9223279,51.6001068 L64.9393228,51.6306976 L64.9543183,51.6614883 L64.9703135,51.692379 L64.9853091,51.7233697 L65.0003046,51.7544604 L65.0153001,51.785651 L65.029296,51.8169416 L65.0442915,51.8483321 L65.0582873,51.8798226 L65.0712834,51.9114131 L65.0852793,51.9431036 L65.0982754,51.974894 L65.1112715,52.0067844 L65.1242676,52.0387748 L65.1482605,52.1029555 L65.1722533,52.1675361 L65.18325,52.1999263 L65.1942468,52.2324165 L65.2162402,52.2975969 L65.2262372,52.3302871 L65.2362342,52.3630772 L65.2462312,52.3959673 L65.2552286,52.4288574 L65.2652256,52.4618475 L65.2742229,52.4949375 L65.2822205,52.5280276 L65.2912178,52.5612176 L65.3152107,52.6610875 L65.3222086,52.6945774 L65.3292065,52.7279674 L65.3362044,52.7614573 L65.3432023,52.7950472 L65.3492005,52.8286371 L65.361197,52.8960168 L65.3661955,52.9297067 L65.3721937,52.9634965 L65.3771922,52.9972863 L65.381191,53.0311761 L65.3861895,53.0650659 L65.3901883,53.0989557 L65.3941871,53.1329455 L65.3981859,53.1668353 L65.401185,53.2008251 L65.4041841,53.2349148 L65.4071832,53.2689046 L65.4101823,53.3029943 L65.4161806,53.4052636 L65.41818,53.4394533 L65.4191797,53.473543 L65.4211791,53.5419224 L65.4211791,53.6785813 L65.4201794,53.712771 L65.4201794,53.7468608 L65.41818,53.7810505 L65.4171803,53.8152402 L65.4151809,53.8493299 L65.4131814,53.8835196 L65.411182,53.9176094 L65.4091826,53.9516991 L65.4061835,53.9857889 L65.4031844,54.0198786 L65.4001853,54.0539683 L65.3961865,54.0880581 L65.3921877,54.1220479 L65.3881889,54.1560376 L65.3841901,54.1899274 L65.3791916,54.2239172 L65.3741931,54.257807 L65.3691946,54.2916968 L65.3631964,54.3254866 L65.3581978,54.3592765 L65.3521996,54.3930663 L65.3452017,54.4267562 L65.3392035,54.460446 L65.3322056,54.4941359 L65.3252077,54.5277258 L65.3172101,54.5612157 L65.3102122,54.5947056 L65.3022145,54.6281955 L65.2942169,54.6615855 L65.2852196,54.6948755 L65.2762223,54.7281654 L65.267225,54.7613555 L65.2582277,54.7945455 L65.2482307,54.8276355 L65.2392333,54.8606256 L65.2282366,54.8936157 L65.2182396,54.9265058 L65.2072429,54.9592959 L65.1962462,54.992086 L65.1852494,55.0247762 L65.1742527,55.0573664 L65.1622563,55.0899566 L65.1502599,55.1223468 L65.1372638,55.1547371 L65.1252673,55.1870274 L65.1122712,55.2192177 L65.0992751,55.251308 L65.0852793,55.2833984 L65.0722831,55.3152888 L65.0572876,55.3471792 L65.0432918,55.3789696 L65.029296,55.4105601 L65.0143004,55.4421506 L64.9993049,55.4736411 L64.9833097,55.5050317 L64.9683141,55.5362223 L64.9523189,55.5674129 L64.935324,55.5984036 L64.9193288,55.6293942 L64.9023338,55.660185 L64.8853389,55.6909757 L64.7443809,55.9380014 L64.6024233,56.184927 L64.4614653,56.4318527 L64.3195077,56.6787784 L64.17755,56.9255042 L64.0355924,57.1722299 L63.8936347,57.4189557 L63.7516771,57.6655814 L63.6097194,57.9122072 L63.4677617,58.158733 L63.1828467,58.6516847 L62.8979317,59.1445364 L62.6130167,59.6372881 L62.327102,60.1299398 L62.042187,60.6225916 L61.4713572,61.6077951 L61.1864422,62.1004468 L60.9015272,62.5931985 L60.6166122,63.0859502 L60.3316972,63.5789019 L60.3137026,63.6087929 L60.2957079,63.6384839 L60.2777133,63.668075 L60.2597187,63.6974662 L60.241724,63.7266574 L60.2227297,63.7557486 L60.2037354,63.78464 L60.1837413,63.8133313 L60.164747,63.8419227 L60.144753,63.8703142 L60.1247589,63.8985057 L60.1047649,63.9264973 L60.0847708,63.9543889 L60.0637771,63.9820805 L60.0427834,64.0095723 L60.0217896,64.036864 L60.0007959,64.0639559 L59.9788025,64.0909478 L59.9578087,64.1177397 L59.9358153,64.1443317 L59.9138218,64.1707238 L59.8908287,64.1969159 L59.8688353,64.223008 L59.8458421,64.2488003 L59.822849,64.2744925 L59.7998558,64.2999849 L59.7768627,64.3252772 L59.7528698,64.3503697 L59.728877,64.3752622 L59.7048842,64.3999548 L59.6808913,64.4244474 L59.6568985,64.4488401 L59.6319059,64.4729328 L59.6069134,64.4968256 L59.5829205,64.5205185 L59.5569283,64.5441114 L59.5319357,64.5674044 L59.5069432,64.5904974 L59.480951,64.6134905 L59.4549587,64.6361837 L59.4289665,64.6586769 L59.4029742,64.6809702 L59.376982,64.7030636 L59.34999,64.724957 L59.3239978,64.7466504 L59.2970058,64.768044 L59.2700139,64.7893376 L59.2420222,64.8103313 L59.2150303,64.831225 L59.1870386,64.8518188 L59.1600467,64.8722127 L59.132055,64.8924066 L59.1040634,64.9124006 L59.0760717,64.9320946 L59.0480801,64.9515888 L59.0190887,64.970883 L58.9900974,64.9899772 L58.9621057,65.0088715 L58.9331144,65.0274659 L58.904123,65.0458604 L58.874132,65.0640549 L58.8451406,65.0820495 L58.8161493,65.0997442 L58.7861582,65.1172389 L58.7561671,65.1345337 L58.7261761,65.1515286 L58.696185,65.1683235 L58.666194,65.1849185 L58.6362029,65.2012136 L58.6052122,65.2173088 L58.5752211,65.233204 L58.5442304,65.2487993 L58.5132396,65.2641947 L58.4822489,65.2792901 L58.4512581,65.2941857 L58.4202673,65.3088812 L58.3892766,65.3232769 L58.3572861,65.3374726 L58.3262954,65.3513685 L58.2943049,65.3650643 L58.2623145,65.3784603 L58.230324,65.3916563 L58.1983335,65.4045524 L58.1663431,65.4172486 L58.1343526,65.4296449 L58.1023622,65.4418412 L58.0703717,65.4537376 L58.0373816,65.4654341 L58.0043914,65.4768307 L57.9724009,65.4880273 L57.9394108,65.498924 L57.9064206,65.5095209 L57.8734305,65.5199177 L57.8404403,65.5300147 L57.8074501,65.5398117 L57.77446,65.5494089 L57.7404701,65.558806 L57.70748,65.5678033 L57.6734901,65.5766007 L57.6404999,65.5850981 L57.6065101,65.5933956 L57.5725202,65.6013932 L57.5395301,65.6090909 L57.5055402,65.6164887 L57.4715503,65.6236865 L57.4375605,65.6305844 L57.4035706,65.6371824 L57.3695807,65.6434805 L57.3345912,65.6495787 L57.3006013,65.655377 L57.2666115,65.6608753 L57.2316219,65.6660737 L57.197632,65.6709723 L57.1626425,65.6756709 L57.1286526,65.6800695 L57.0936631,65.6841683 L57.0586735,65.6879672 L57.0246836,65.6914661 L56.9896941,65.6946651 L56.9547045,65.6976642 L56.9197149,65.7002635 L56.8847254,65.7026627 L56.8497358,65.7046621 L56.8147462,65.7064616 L56.7797567,65.7079611 L56.7447671,65.7091608 L56.7097776,65.7100605 L56.674788,65.7105604 L56.3978706,65.71166 L56.1059577,65.7126597 L55.8010486,65.7134595 L55.4831434,65.7142592 L55.1552413,65.714959 L54.8183417,65.7155589 L54.4734446,65.7160587 L54.123549,65.7164586 L53.4117613,65.7171584 L52.6949751,65.7177582 L51.9871862,65.7177582 L51.3003911,65.7177582 L50.6465861,65.7177582 L50.0387674,65.7174583 L49.4899311,65.7171584 L49.0120737,65.7167585 L48.3212797,65.7162586 L48.0663558,65.7159587 L48.0313662,65.7156588 L47.9973764,65.715059 L47.9623868,65.7142592 L47.9273972,65.7130596 L47.8934074,65.71166 L47.8584178,65.7099605 L47.8244279,65.7079611 L47.7894384,65.7056618 L47.7554485,65.7031626 L47.720459,65.7002635 L47.6864691,65.6971644 L47.6514795,65.6937654 L47.6174897,65.6901665 L47.5834998,65.6861677 L47.5485102,65.681969 L47.5145204,65.6774703 L47.4805305,65.6726718 L47.4465407,65.6676733 L47.4115511,65.6623749 L47.3775612,65.6567765 L47.3435714,65.6508783 L47.3095815,65.6447802 L47.2765914,65.6383821 L47.2426015,65.6316841 L47.2086116,65.6247862 L47.1746218,65.6175883 L47.1406319,65.6100906 L47.1076417,65.6023929 L47.0736519,65.5943953 L47.0406617,65.5860978 L47.0066719,65.5776004 L46.9736817,65.568803 L46.9406915,65.5598057 L46.9077014,65.5505085 L46.8747112,65.5409114 L46.8407214,65.5311144 L46.8077312,65.5210174 L46.7757408,65.5107205 L46.7427506,65.5001237 L46.7097604,65.489227 L46.67777,65.4781303 L46.6447798,65.4667337 L46.6117897,65.4551372 L46.5797992,65.4433408 L46.5478087,65.4312444 L46.5158183,65.4188481 L46.4838278,65.4062519 L46.4518374,65.3933558 L46.4198469,65.3802598 L46.3878565,65.3668638 L46.3568657,65.3532679 L46.3248752,65.339472 L46.2938845,65.3253763 L46.261894,65.3109806 L46.2309033,65.296485 L46.1999125,65.2815895 L46.1689218,65.266594 L46.137931,65.2512986 L46.1069402,65.2357033 L46.0769492,65.219908 L46.0459584,65.2039128 L46.0159674,65.1876177 L45.9859763,65.1711227 L45.9559853,65.1544277 L45.9259942,65.1374328 L45.8960032,65.120238 L45.8660121,65.1028432 L45.8360211,65.0851486 L45.8070297,65.067254 L45.7780384,65.0491594 L45.7480473,65.0307649 L45.7190559,65.0121705 L45.6910643,64.9933762 L45.6620729,64.9742819 L45.6330816,64.9550877 L45.6050899,64.9355936 L45.5770983,64.9157995 L45.5481069,64.8959055 L45.521115,64.8757116 L45.4931233,64.8553177 L45.4651317,64.8347239 L45.4381397,64.8138302 L45.4101481,64.7928365 L45.3831561,64.7715429 L45.3561642,64.7500494 L45.3291722,64.7283559 L45.30318,64.7063626 L45.276188,64.6842692 L45.2501958,64.661876 L45.2242036,64.6392828 L45.1982113,64.6164896 L45.1722191,64.5934965 L45.1462268,64.5703035 L45.1212343,64.5469105 L45.0962417,64.5232177 L45.0712492,64.4994248 L45.0462566,64.4753321 L45.0212641,64.4510394 L44.9972712,64.4266467 L44.9732784,64.4019542 L44.9492856,64.3770617 L44.9252927,64.3519692 L44.9012999,64.3266768 L44.8783067,64.3011845 L44.8543139,64.2754922 L44.8313207,64.2496 L44.8083276,64.2234079 L44.7863342,64.1971158 L44.763341,64.1706238 L44.7413476,64.1439318 L44.7193541,64.1170399 L44.6973607,64.0899481 L44.676367,64.0626563 L44.6543735,64.0351646 L44.6333798,64.0074729 L44.6123861,63.9796813 L44.592392,63.9515897 L44.5713983,63.9232982 L44.5514042,63.8949068 L44.5314102,63.8662154 L44.5114162,63.8374241 L44.5014192,63.8229284 L44.4924218,63.8083328 L44.4824248,63.7938372 L44.4724278,63.7791416 L44.4634305,63.764546 L44.4534335,63.7497505 L44.4444361,63.7350549 L44.4344391,63.7201594 L44.4254418,63.7053638 L44.4164445,63.6904683 L44.4074472,63.6754728 L44.3984499,63.6604773 L44.3884528,63.6454818 L44.3804552,63.6303864 L44.3304701,63.5454119 L39.8258138,55.7424602 L39.8168165,55.7273647 L39.8088189,55.7122693 L39.8008213,55.6970739 L39.791824,55.6818784 L39.7838263,55.666683 L39.7758287,55.6514876 L39.7588338,55.6208968 L39.7428386,55.590206 L39.727843,55.5593153 L39.7118478,55.5283246 L39.6968523,55.497234 L39.6818568,55.4660434 L39.6668612,55.4347528 L39.6528654,55.4032623 L39.6388696,55.3717718 L39.6248738,55.3400813 L39.6108779,55.3082909 L39.5978818,55.2764005 L39.5848857,55.2444101 L39.5718896,55.2123197 L39.5598931,55.1801294 L39.546897,55.1478391 L39.5349006,55.1154489 L39.5239039,55.0829587 L39.5119075,55.0503685 L39.5009107,55.0176783 L39.489914,54.9848882 L39.479917,54.9519981 L39.4689203,54.919108 L39.4589233,54.8860179 L39.4489262,54.8529279 L39.4399289,54.8197379 L39.4309316,54.7865479 L39.4219343,54.7531579 L39.412937,54.719768 L39.4039397,54.6862781 L39.395942,54.6526882 L39.3879444,54.6190983 L39.3809465,54.5854084 L39.3729489,54.5517185 L39.365951,54.5178287 L39.3589531,54.4840389 L39.3529549,54.4500491 L39.345957,54.4161593 L39.3399587,54.3820696 L39.3349602,54.3479799 L39.328962,54.3138901 L39.3239635,54.2797004 L39.318965,54.2455107 L39.3139665,54.211221 L39.3099677,54.1769313 L39.3059689,54.1426417 L39.3019701,54.108252 L39.2979713,54.0738624 L39.2949722,54.0394727 L39.2909734,54.0049831 L39.288974,53.9704935 L39.2859749,53.9360038 L39.2839754,53.9014143 L39.281976,53.8668247 L39.2799766,53.832335 L39.2789769,53.7977454 L39.2779772,53.7630559 L39.2769775,53.7284663 L39.2759778,53.6938767 L39.2759778,53.6591871 L39.2749781,53.6245976 L39.2759778,53.589908 L39.2759778,53.5552184 L39.2769775,53.5206288 L39.2779772,53.4859393 L39.2789769,53.4512497 L39.2799766,53.4166601 L39.281976,53.3820705 L39.2839754,53.347381 L39.2859749,53.3127914 L39.288974,53.2782018 L39.2919731,53.2436122 L39.2949722,53.2090226 L39.2979713,53.174533 L39.3019701,53.1400434 L39.3059689,53.1055538 L39.3099677,53.0710641 L39.3139665,53.0365745 L39.318965,53.0021849 L39.3239635,52.9677952 L39.328962,52.9335055 L39.3349602,52.8992159 L39.3409584,52.8649262 L39.3469567,52.8307365 L39.3529549,52.7965468 L39.3599528,52.762457 L39.365951,52.7283673 L39.3739486,52.6942775 L39.3809465,52.6602878 L39.3889441,52.626398 L39.3969418,52.5925082 L39.4049394,52.5587183 L39.412937,52.5249285 L39.4219343,52.4912386 L39.4309316,52.4576487 L39.4399289,52.4240589 L39.4499259,52.3905689 L39.459923,52.357179 L39.46992,52.323789 L39.479917,52.290599 L39.4909137,52.257409 L39.5019104,52.224219 L39.5129072,52.1912289 L39.5239039,52.1582388 L39.5359003,52.1254487 L39.5478967,52.0926586 L39.5598931,52.0599684 L39.5728893,52.0273782 L39.5858854,51.994788 L39.5988815,51.9623978 L39.6118776,51.9301075 L39.6248738,51.8979172 L39.6388696,51.8658268 L39.6528654,51.8337365 L39.6678609,51.8018461 L39.6818568,51.7700557 L39.6968523,51.7383652 L39.7118478,51.7068747 L39.727843,51.6753842 L39.7438383,51.6439936 L39.7598335,51.612803 L39.7758287,51.5817124 L39.791824,51.5507217 L39.8088189,51.519831 L39.8258138,51.4891402 L39.858804,51.4314576 L40.3526567,50.5750153 L40.8904962,49.6420961 L41.5512991,48.4951412 L42.2830809,47.2257233 L43.0328572,45.9258145 L43.747644,44.6870873 L44.0745465,44.1192581 L44.3734573,43.601214 L44.391452,43.571323 L44.4094466,43.541532 L44.4274412,43.5119409 L44.4454359,43.4825497 L44.4644302,43.4532586 L44.4834245,43.4240673 L44.5024189,43.3950761 L44.5214132,43.3662847 L44.5404075,43.3375934 L44.5604016,43.309002 L44.5803956,43.2807105 L44.6003896,43.252419 L44.6213834,43.2244274 L44.6413774,43.1965358 L44.6623711,43.1688442 L44.6833649,43.1412525 L44.7053583,43.1139607 L44.7263521,43.0866689 L44.7483455,43.059677 L44.7703389,43.0327851 L44.7923324,43.0060931 L44.8143258,42.9796011 L44.837319,42.9532091 L44.8593124,42.9270169 L44.8833052,42.9010248 L44.9062984,42.8752325 L44.9292915,42.8496402 L44.9532844,42.8241479 L44.9762775,42.7988555 L45.0002704,42.7737631 L45.0252629,42.7488705 L45.0492557,42.724178 L45.0732486,42.6996853 L45.0982411,42.6752927 L45.1232337,42.6511999 L45.1482262,42.6272072 L45.1742185,42.6035143 L45.199211,42.5799214 L45.2252033,42.5565284 L45.2501958,42.5334354 L45.2771878,42.5104423 L45.30318,42.4876492 L45.3291722,42.465056 L45.3561642,42.4427627 L45.3821564,42.4205693 L45.4091484,42.398576 L45.4361403,42.3768825 L45.4631323,42.355289 L45.4911239,42.3339954 L45.5181159,42.3129017 L45.5461075,42.292008 L45.5740992,42.2713143 L45.6020908,42.2508204 L45.6300825,42.2305265 L45.6580741,42.2105326 L45.6870655,42.1906385 L45.7160568,42.1710444 L45.7440485,42.1516503 L45.7730398,42.132556 L45.8020312,42.1135617 L45.8320223,42.0948674 L45.8610136,42.0763729 L45.8910047,42.0581784 L45.919996,42.0400839 L45.9499871,42.0222892 L45.9799781,42.0046945 L46.0099692,41.9873997 L46.0399602,41.9703049 L46.070951,41.9534099 L46.100942,41.9368149 L46.1319328,41.9204199 L46.1619238,41.9043247 L46.1929146,41.8884295 L46.2239054,41.8727342 L46.2548961,41.8573388 L46.2858869,41.8421434 L46.3178773,41.8272479 L46.3488681,41.8125523 L46.3808585,41.7981567 L46.4118493,41.7839609 L46.4438398,41.7700651 L46.4758302,41.7563692 L46.5078207,41.7429733 L46.5398111,41.7297772 L46.5718016,41.7168811 L46.6047917,41.7041849 L46.6367822,41.6917887 L46.6697724,41.6796923 L46.7017628,41.6678959 L46.734753,41.6562993 L46.7677431,41.6449028 L46.8007333,41.6338061 L46.8337235,41.6230094 L46.8667136,41.6125125 L46.8997038,41.6022156 L46.9326939,41.5923186 L46.9656841,41.5825216 L46.999674,41.5731244 L47.0326641,41.5639271 L47.066654,41.5550298 L47.1006438,41.5464324 L47.133634,41.5381349 L47.1676239,41.5300373 L47.2016137,41.5223397 L47.2356036,41.5148419 L47.2695934,41.5076441 L47.3035833,41.5007462 L47.3375732,41.4940482 L47.3725627,41.4877501 L47.4065526,41.4816519 L47.4405424,41.4759536 L47.475532,41.4704553 L47.4925269,41.4678561 L47.5095219,41.4653568 L47.5265168,41.4628576 L47.5445114,41.4604583 L47.5615064,41.458159 L47.5785013,41.4558597 L47.5964959,41.4536603 L47.6134909,41.451561 L47.6304858,41.4495616 L47.6484804,41.4475622 L47.6654754,41.4457627 L47.6824703,41.4439633 L47.7004649,41.4421638 L47.7174598,41.4405643 L47.7344548,41.4389648 L47.7524494,41.4374652 L47.7694443,41.4360656 L47.787439,41.434766 L47.8044339,41.4334664 L47.8224285,41.4322668 L47.8394235,41.4311671 L47.8574181,41.4300674 L47.874413,41.4291677 L47.8924077,41.428268 L47.9094026,41.4274682 L47.9273972,41.4267684 L47.9443922,41.4260686 L47.9623868,41.4254688 L47.9793817,41.424969 L47.9973764,41.4245691 L48.0143713,41.4242692 L48.0323659,41.4239693 L48.0553591,41.4237693 L48.0793519,41.4233694 L48.1073436,41.4227696 L56.5878139,41.424869 Z M104.391555,65.7159587 L63.6017218,65.7159587 L101.38845,0.267555056 L104.498523,0.0767124893 L104.391555,65.7159587 Z M48.102345,42.6227085 L48.0713543,42.6233083 L48.0473614,42.6235083 L48.035365,42.6237082 L48.0233686,42.6239082 L48.0103725,42.6242081 L47.9983761,42.6246079 L47.9863796,42.6250078 L47.9743832,42.6254077 L47.9623868,42.6259076 L47.9503904,42.6265074 L47.9373942,42.6271072 L47.9253978,42.627807 L47.9134014,42.6285068 L47.901405,42.6293065 L47.8894086,42.6301063 L47.8764124,42.631006 L47.864416,42.6320057 L47.8524196,42.6329054 L47.8404232,42.6340051 L47.8284267,42.6351048 L47.8164303,42.6362045 L47.8034342,42.6374041 L47.7914378,42.6387037 L47.7794414,42.6400033 L47.7674449,42.6414029 L47.7554485,42.6428025 L47.7434521,42.644302 L47.730456,42.6458016 L47.7184596,42.6474011 L47.7064631,42.6490006 L47.6944667,42.6507001 L47.6824703,42.6523996 L47.6704739,42.654299 L47.6594771,42.6558985 L47.6334849,42.6598973 L47.6094921,42.6639961 L47.5854992,42.6682948 L47.5615064,42.6726935 L47.5375135,42.6773921 L47.512521,42.6822906 L47.4885281,42.687389 L47.4645353,42.6926875 L47.4405424,42.6982858 L47.4165496,42.7039841 L47.3925568,42.7098823 L47.3685639,42.7159804 L47.3445711,42.7223785 L47.3205782,42.7288766 L47.2975851,42.7356745 L47.2735922,42.7425724 L47.2495994,42.7497703 L47.2256066,42.7570681 L47.2016137,42.7646658 L47.1786206,42.7723635 L47.1546277,42.7803611 L47.1316346,42.7884586 L47.1076417,42.7968561 L47.0836489,42.8053535 L47.0606558,42.8141509 L47.0376626,42.8230482 L47.0136698,42.8321455 L46.9906766,42.8415427 L46.9676835,42.8510398 L46.9446904,42.8608369 L46.9216972,42.8706339 L46.8987041,42.8807309 L46.8757109,42.8910278 L46.8527178,42.9015246 L46.8297246,42.9122214 L46.8067315,42.9231181 L46.7837384,42.9341148 L46.7617449,42.9453114 L46.7387518,42.956708 L46.7167583,42.9683045 L46.6937652,42.980101 L46.6717718,42.9920973 L46.6497783,43.0041937 L46.6277849,43.01649 L46.6047917,43.0289862 L46.5827983,43.0416824 L46.5608049,43.0544786 L46.5398111,43.0675746 L46.5178177,43.0807707 L46.4958242,43.0940667 L46.4748305,43.1076626 L46.4528371,43.1213584 L46.4318433,43.1352543 L46.4108496,43.14935 L46.3898559,43.1635458 L46.3688621,43.1779414 L46.3478684,43.1924371 L46.3268746,43.2072326 L46.3058809,43.2220282 L46.2858869,43.2370236 L46.2648931,43.252319 L46.2448991,43.2676144 L46.2249051,43.2831098 L46.204911,43.298805 L46.184917,43.3146003 L46.164923,43.3305955 L46.1449289,43.3466906 L46.1249349,43.3629857 L46.1059405,43.3793808 L46.0859465,43.3959758 L46.0669522,43.4126708 L46.0479578,43.4295657 L46.0289635,43.4466605 L46.0099692,43.4637554 L45.9919745,43.4809502 L45.9729802,43.498445 L45.9549856,43.5159397 L45.9359912,43.5336344 L45.9179966,43.551529 L45.900002,43.5694236 L45.883007,43.5876181 L45.8650124,43.6058127 L45.8470178,43.6241071 L45.8300228,43.6426016 L45.8130279,43.661296 L45.796033,43.6798904 L45.7790381,43.6987847 L45.7620431,43.717679 L45.7450482,43.7367732 L45.729053,43.7560674 L45.7130577,43.7754616 L45.6960628,43.7948558 L45.6810673,43.8144499 L45.665072,43.834044 L45.6490768,43.853738 L45.6340813,43.8736321 L45.6180861,43.893626 L45.6030905,43.91382 L45.588095,43.9340139 L45.5740992,43.9543078 L45.5591037,43.9747016 L45.5451078,43.9951955 L45.5301123,44.0157893 L45.5161165,44.036483 L45.5021207,44.0572768 L45.4891245,44.0781705 L45.4751287,44.0990642 L45.4621326,44.1202578 L45.4491365,44.1413515 L45.4361403,44.1625451 L45.4231442,44.1839387 L45.4101481,44.2052323 L45.1142364,44.7188777 L44.7863342,45.2865069 L44.0715474,46.5251341 L43.3227707,47.8249429 L42.590989,49.094161 L41.9301861,50.2411158 L41.3923465,51.174035 L40.8994936,52.0286778 L40.8715019,52.078063 L40.8605052,52.097857 L40.8485088,52.1198504 L40.8365123,52.1418438 L40.8255156,52.1641371 L40.8135192,52.1864304 L40.8025225,52.2088236 L40.7915258,52.2313169 L40.780529,52.2538101 L40.7695323,52.2766032 L40.7595353,52.2993964 L40.7485386,52.3222895 L40.7385416,52.3451826 L40.7285446,52.3682756 L40.7195472,52.3915686 L40.7095502,52.4146617 L40.7005529,52.4379547 L40.6905559,52.4614476 L40.6815586,52.4849405 L40.673561,52.5085334 L40.6645636,52.5321263 L40.656566,52.5558192 L40.6475687,52.579712 L40.6395711,52.6036048 L40.6315735,52.6275976 L40.6245756,52.6515904 L40.6165779,52.6756831 L40.60958,52.6997759 L40.6025821,52.7241685 L40.5955842,52.7484612 L40.5885863,52.7728539 L40.5815884,52.7972465 L40.5755902,52.8216392 L40.569592,52.8462318 L40.5635938,52.8709244 L40.5575955,52.895517 L40.552597,52.9201096 L40.5465988,52.9449021 L40.5416003,52.9697946 L40.5366018,52.9946871 L40.5316033,53.0194797 L40.5276045,53.0443722 L40.522606,53.0693647 L40.5186072,53.0943571 L40.5146084,53.1195495 L40.5106096,53.144542 L40.5066108,53.1696345 L40.5036116,53.1948269 L40.5006125,53.2199193 L40.4976134,53.2452117 L40.4946143,53.2704042 L40.4916152,53.2955966 L40.4896158,53.3209889 L40.4866167,53.3462813 L40.4846173,53.3714737 L40.4826179,53.3967661 L40.4816182,53.4221585 L40.4796188,53.4474509 L40.4786191,53.4728432 L40.4776194,53.4981356 L40.4766197,53.523528 L40.47562,53.5488204 L40.47562,53.5996051 L40.4746203,53.6248975 L40.47562,53.6501899 L40.47562,53.7008746 L40.4766197,53.726167 L40.4776194,53.7513594 L40.4796188,53.8019442 L40.4816182,53.8272366 L40.4826179,53.852429 L40.4866167,53.9028138 L40.4886161,53.9278063 L40.4946143,53.9779912 L40.4966137,54.0030837 L40.4996128,54.0280761 L40.5036116,54.0528687 L40.5066108,54.0778612 L40.5106096,54.1026537 L40.5136087,54.1275462 L40.5176075,54.1523387 L40.522606,54.1770313 L40.5266048,54.2016239 L40.5316033,54.2263165 L40.5356021,54.2509091 L40.5455991,54.2996944 L40.5515973,54.3240871 L40.5565958,54.3484797 L40.5625941,54.3727724 L40.5685923,54.3969651 L40.5745905,54.4209579 L40.5805887,54.4450506 L40.5875866,54.4690434 L40.5935848,54.4929362 L40.6075806,54.5405219 L40.6155782,54.5642148 L40.6225762,54.5877077 L40.6305738,54.6113006 L40.6375717,54.6346936 L40.6455693,54.6580865 L40.6545666,54.6813795 L40.6625642,54.7044726 L40.6705618,54.7274657 L40.6885565,54.7734518 L40.6975538,54.796245 L40.7065511,54.8188382 L40.7165481,54.8414314 L40.7255454,54.8640246 L40.7355425,54.8864178 L40.7455395,54.9087111 L40.7555365,54.9309044 L40.7665332,54.9529978 L40.7765302,54.9748912 L40.787527,54.9968846 L40.7985237,55.018678 L40.8205171,55.061865 L40.8325135,55.0845582 L40.837512,55.0938554 L40.8495085,55.115249 L40.8615049,55.1364426 L40.8665034,55.1458397 L45.3681606,62.9434931 L45.4131472,63.0207698 L45.417146,63.0281676 L45.4241439,63.0388644 L45.4301421,63.0493612 L45.43714,63.0598581 L45.4431382,63.0703549 L45.4501362,63.0807518 L45.4561344,63.0911487 L45.4631323,63.1016455 L45.4771281,63.1224392 L45.4831263,63.1327361 L45.4901242,63.1429331 L45.4971221,63.15323 L45.5031204,63.1625272 L45.5181159,63.1838208 L45.5321117,63.2040147 L45.5461075,63.2241086 L45.5611031,63.2441026 L45.5750989,63.2639966 L45.5900944,63.2837907 L45.6050899,63.3033848 L45.6200855,63.3227789 L45.6360807,63.3421731 L45.6510762,63.3614673 L45.6670715,63.3806615 L45.6830667,63.3995558 L45.7150571,63.4371445 L45.7310524,63.4557389 L45.7470476,63.4741334 L45.7640425,63.4925279 L45.7810375,63.5107224 L45.7980324,63.5288169 L45.8150273,63.5467116 L45.8320223,63.5645062 L45.8490172,63.5822009 L45.8670118,63.5996956 L45.8840067,63.6171903 L45.9020014,63.6343852 L45.919996,63.65148 L45.9379906,63.6684749 L45.956985,63.6852699 L45.9749796,63.7019648 L45.9939739,63.7184599 L46.0119686,63.7349549 L46.0309629,63.75125 L46.0499572,63.7673452 L46.0689516,63.7833403 L46.0879459,63.7991356 L46.1079399,63.8147309 L46.1269343,63.8303262 L46.1469283,63.8457216 L46.1659227,63.860917 L46.1859167,63.8760125 L46.2059107,63.890908 L46.2269045,63.9057035 L46.2468985,63.9202991 L46.2668925,63.9346948 L46.2878863,63.9490905 L46.3078803,63.9631862 L46.328874,63.977182 L46.3498678,63.9909779 L46.3708615,64.0046737 L46.3918553,64.0181697 L46.412849,64.0315656 L46.4338427,64.0447617 L46.4558362,64.0577578 L46.4768299,64.0705539 L46.4988234,64.0832501 L46.5208168,64.0957463 L46.5428102,64.1081426 L46.563804,64.1203389 L46.5857974,64.1323353 L46.6087906,64.1441318 L46.630784,64.1558282 L46.6527774,64.1673248 L46.6747709,64.1786214 L46.697764,64.189818 L46.7207572,64.2008147 L46.7427506,64.2116115 L46.7657437,64.2222083 L46.7887369,64.2327051 L46.8347232,64.253099 L46.8577163,64.262996 L46.8807094,64.2726931 L46.9037026,64.2822902 L46.9266957,64.2915874 L46.9506886,64.3007846 L46.9736817,64.3097819 L46.9976746,64.3186792 L47.0206677,64.3272766 L47.0446605,64.3357741 L47.0686534,64.3439716 L47.0916465,64.3520692 L47.1156394,64.3599668 L47.1396322,64.3676645 L47.1636251,64.3752622 L47.1876179,64.38256 L47.2116107,64.3896579 L47.2356036,64.3966558 L47.2595964,64.4034537 L47.2835893,64.4099518 L47.3085818,64.4163498 L47.3325747,64.422548 L47.3565675,64.4285462 L47.38156,64.4343444 L47.4055529,64.4399427 L47.4295457,64.4453411 L47.4545383,64.4505396 L47.4785311,64.455638 L47.5035237,64.4604366 L47.5275165,64.4650352 L47.5525091,64.4694339 L47.5765019,64.4737326 L47.6014944,64.4777314 L47.626487,64.4815302 L47.6504798,64.4852291 L47.6754724,64.4886281 L47.7004649,64.4919271 L47.7244578,64.4949262 L47.7494503,64.4977254 L47.7744429,64.5004245 L47.7994354,64.5028238 L47.8234282,64.5051231 L47.8484208,64.5071225 L47.8734133,64.508922 L47.8984059,64.5106215 L47.9223987,64.512021 L47.9473913,64.5132207 L47.9723838,64.5143204 L47.9973764,64.5151201 L48.0223689,64.5157199 L48.0463617,64.5161198 L48.072354,64.5163198 L48.3222794,64.5166197 L49.0130734,64.5171195 L49.4909308,64.5175194 L50.0387674,64.5178193 L50.6465861,64.5181192 L51.3003911,64.5181192 L51.9871862,64.5181192 L52.6949751,64.5181192 L53.4107616,64.5175194 L54.1225493,64.5168196 L54.4724449,64.5164197 L54.8163423,64.5159199 L55.1532419,64.5153201 L55.481144,64.5146203 L55.7980495,64.5138205 L56.1029586,64.5130207 L56.3938718,64.512021 L56.6617919,64.5110214 L56.684785,64.5106215 L56.7097776,64.5100217 L56.7347701,64.5091219 L56.7597626,64.5081222 L56.7847552,64.5068226 L56.808748,64.505423 L56.8337406,64.5037235 L56.8587331,64.5018241 L56.8837257,64.4997247 L56.9087182,64.4974254 L56.9327111,64.4949262 L56.9577036,64.492227 L56.9826962,64.4892279 L57.0076887,64.4861288 L57.0316815,64.4828298 L57.0566741,64.4792309 L57.0816666,64.475532 L57.1056595,64.4716332 L57.130652,64.4674345 L57.1546449,64.4631358 L57.1796374,64.4585371 L57.2036302,64.4538386 L57.2286228,64.4488401 L57.2526156,64.4437416 L57.2766085,64.4384432 L57.301601,64.4328449 L57.3255939,64.4271466 L57.3495867,64.4211484 L57.3735796,64.4150502 L57.3985721,64.4087521 L57.4225649,64.4021541 L57.4465578,64.3954561 L57.4705506,64.3885582 L57.4945435,64.3814603 L57.5185363,64.3740626 L57.5415295,64.3666648 L57.5655223,64.3589671 L57.5895151,64.3510695 L57.6125083,64.3429719 L57.6365011,64.3347744 L57.6594943,64.3262769 L57.6834871,64.3176795 L57.7064803,64.3088822 L57.7304731,64.2998849 L57.7534662,64.2905877 L57.7764594,64.2812905 L57.7994525,64.2717933 L57.8224457,64.2619963 L57.8454388,64.2520993 L57.8684319,64.2419023 L57.8914251,64.2316054 L57.9144182,64.2212086 L57.9364117,64.2106118 L57.9594048,64.199715 L57.9813983,64.1887183 L58.0043914,64.1775217 L58.0263848,64.1662251 L58.0483783,64.1546286 L58.0713714,64.1429321 L58.0933649,64.1310357 L58.1153583,64.1190393 L58.136352,64.106843 L58.1583455,64.0943467 L58.1803389,64.0818505 L58.2013326,64.0691543 L58.2233261,64.0562582 L58.2443198,64.0431621 L58.2663133,64.0299661 L58.287307,64.0165702 L58.3083007,64.0030742 L58.3292945,63.9892784 L58.3492885,63.9753825 L58.3702823,63.9612868 L58.391276,63.947191 L58.41127,63.9328953 L58.4312641,63.9182997 L58.4522578,63.9036041 L58.4722518,63.8888086 L58.4922459,63.8738131 L58.5122399,63.8587177 L58.5312342,63.8434223 L58.5512283,63.8280269 L58.5712223,63.8124316 L58.5902166,63.7967363 L58.609211,63.7808411 L58.6282053,63.7648459 L58.6471997,63.7486508 L58.666194,63.7323557 L58.6851883,63.7158606 L58.7041827,63.6992656 L58.7221773,63.6825707 L58.7401719,63.6656758 L58.7581666,63.6486809 L58.7761612,63.631486 L58.7941558,63.6141912 L58.8121504,63.5968965 L58.8301451,63.5793017 L58.84714,63.5616071 L58.8641349,63.5438124 L58.8811299,63.5258178 L58.8981248,63.5077233 L58.9151197,63.4895288 L58.9321147,63.4712343 L58.9481099,63.4527398 L58.9651048,63.4341454 L58.9811001,63.4154511 L58.9970953,63.3966567 L59.0130905,63.3777624 L59.0290857,63.3585682 L59.0440813,63.3394739 L59.0590768,63.3200798 L59.075072,63.3006856 L59.0900675,63.2811915 L59.1050631,63.2614974 L59.1190589,63.2418033 L59.1340544,63.2218093 L59.1480503,63.2018153 L59.1620461,63.1817214 L59.1770416,63.1615275 L59.1900377,63.1412336 L59.2040336,63.1207397 L59.2180294,63.1001459 L59.2310255,63.0796521 L59.2440216,63.0588584 L59.2570178,63.0379647 L59.2700139,63.016971 L59.28301,62.9958773 L59.2950064,62.9745837 L59.577922,62.4856309 L59.862837,61.9924793 L60.1477521,61.4995276 L60.4336668,61.006676 L61.0044965,60.0213725 L61.2894115,59.5289207 L61.5743265,59.0363689 L61.8592415,58.5440171 L62.1441566,58.0515653 L62.4280719,57.5590135 L62.5700295,57.3128876 L62.7119872,57.0665617 L62.8539448,56.8203358 L62.9959025,56.5740099 L63.1378601,56.3276841 L63.2788181,56.0812582 L63.4207758,55.8349324 L63.5617337,55.5885065 L63.7026917,55.3419807 L63.8406505,55.101853 L63.8516472,55.0823589 L63.8636437,55.0604654 L63.8746404,55.038572 L63.8866368,55.0164787 L63.8976335,54.9942854 L63.9086302,54.972092 L63.919627,54.9498987 L63.9306237,54.9275055 L63.9416204,54.9050122 L63.9516174,54.882519 L63.9616144,54.8599258 L63.9716114,54.8373326 L63.9816085,54.8146394 L63.9906058,54.7917463 L64.0006028,54.7688532 L64.0096001,54.7459601 L64.0185974,54.722867 L64.0275948,54.699874 L64.0355924,54.6766809 L64.0445897,54.6533879 L64.0525873,54.6302949 L64.0605849,54.6069019 L64.0685825,54.583509 L64.0755804,54.560016 L64.0835781,54.5365231 L64.090576,54.5130302 L64.0975739,54.4893373 L64.1045718,54.4656444 L64.1115697,54.4419516 L64.1175679,54.4180588 L64.1235661,54.3942659 L64.1295643,54.3704731 L64.1355625,54.3463803 L64.1415608,54.3224875 L64.147559,54.2984948 L64.1525575,54.274302 L64.157556,54.2502093 L64.1625545,54.2260166 L64.167553,54.2019238 L64.1715518,54.1777311 L64.1755506,54.1533384 L64.1795494,54.1289458 L64.1835482,54.1046531 L64.187547,54.0803604 L64.1915458,54.0559677 L64.194545,54.0313751 L64.1975441,54.0069825 L64.2005432,53.9824899 L64.2035423,53.9578973 L64.2065414,53.9334046 L64.2085408,53.908912 L64.2105402,53.8842194 L64.2125396,53.8595269 L64.214539,53.8349343 L64.2165384,53.8104416 L64.2175381,53.7856491 L64.2185378,53.7609565 L64.2195375,53.736264 L64.2205372,53.7115714 L64.2215369,53.6868788 L64.2215369,53.563316 L64.2205372,53.5385235 L64.2205372,53.5138309 L64.2195375,53.4890384 L64.2185378,53.4643458 L64.2165384,53.4397532 L64.2155387,53.4149606 L64.2135393,53.3902681 L64.2115399,53.3656755 L64.2095405,53.3409829 L64.2075411,53.3162903 L64.204542,53.2916977 L64.2025426,53.2670052 L64.1995435,53.2425125 L64.1965444,53.2180199 L64.1935452,53.1934273 L64.1895464,53.1688347 L64.1855476,53.1444421 L64.1825485,53.1199494 L64.1785497,53.0954568 L64.1735512,53.0710641 L64.1695524,53.0467715 L64.1645539,53.0224788 L64.1595554,52.9981861 L64.1555566,52.9739934 L64.1495584,52.9497007 L64.1445599,52.925408 L64.1385617,52.9013152 L64.1335631,52.8773224 L64.1275649,52.8532297 L64.1215667,52.8292369 L64.1145688,52.8053441 L64.1085706,52.7814513 L64.1015727,52.7576585 L64.0945748,52.7338656 L64.0875769,52.7100728 L64.0805789,52.6864799 L64.073581,52.662787 L64.0655834,52.6391941 L64.0575858,52.6158011 L64.0495882,52.5924082 L64.0415906,52.5690152 L64.0325933,52.5457222 L64.0245956,52.5224292 L64.0155983,52.4993362 L64.006601,52.4762431 L63.9976037,52.4532501 L63.9886064,52.430357 L63.9786094,52.4073639 L63.969612,52.3845707 L63.959615,52.3617776 L63.949618,52.3392844 L63.939621,52.3166912 L63.9286243,52.2941979 L63.9186273,52.2718047 L63.9076305,52.2494114 L63.8966338,52.2273181 L63.8856371,52.2052247 L63.8736407,52.1831314 L63.862644,52.161138 L63.8506475,52.1392446 L63.8386511,52.1173512 L63.8266547,52.0957577 L63.8146583,52.0742641 L63.7796687,52.0139823 L59.2870088,44.2320242 L59.2690142,44.2012335 L59.2570178,44.1816394 L59.2440216,44.1598459 L59.2310255,44.1381524 L59.2170297,44.1166589 L59.2030339,44.0950654 L59.189038,44.0737718 L59.1750422,44.0524782 L59.1600467,44.0313846 L59.1460509,44.0102909 L59.1310553,43.9893972 L59.1160598,43.9685035 L59.1010643,43.9477098 L59.0860687,43.9272159 L59.0710732,43.9066221 L59.055078,43.8861283 L59.0400825,43.8660343 L59.0240872,43.8458404 L59.008092,43.8257465 L58.9920968,43.8058525 L58.9751018,43.7860584 L58.9591066,43.7663643 L58.9421117,43.7467702 L58.9251168,43.7273761 L58.9081218,43.7081818 L58.8911269,43.6889876 L58.874132,43.6698934 L58.8561373,43.6509991 L58.8391424,43.6323047 L58.8211478,43.6136103 L58.8031531,43.5951159 L58.7851585,43.5767214 L58.7671639,43.5585269 L58.7491692,43.5404323 L58.7301749,43.5224377 L58.7121803,43.5046431 L58.6931859,43.4869484 L58.6741916,43.4694537 L58.6551973,43.4521589 L58.6362029,43.4348641 L58.6172086,43.4177692 L58.5982143,43.4008743 L58.5782202,43.3841794 L58.5592259,43.3675843 L58.5392319,43.3510893 L58.5192378,43.3347942 L58.4992438,43.3185991 L58.4792497,43.3026039 L58.4592557,43.2868087 L58.4392617,43.2711134 L58.4182679,43.255618 L58.3982739,43.2403226 L58.3772802,43.2251272 L58.3562864,43.2100318 L58.3362924,43.1952362 L58.3152987,43.1805406 L58.2943049,43.166045 L58.2733112,43.1517493 L58.2523174,43.1375536 L58.230324,43.1235578 L58.2093303,43.1097619 L58.1873368,43.096166 L58.1663431,43.0826701 L58.1443496,43.0693741 L58.1223562,43.056278 L58.1013625,43.0433819 L58.079369,43.0306857 L58.0573756,43.0179896 L58.0343824,43.0055933 L58.012389,42.9934969 L57.9903956,42.9814006 L57.9684021,42.9696041 L57.9464087,42.9580076 L57.9234155,42.9465111 L57.9014221,42.9352145 L57.878429,42.9241178 L57.8554358,42.9133211 L57.8334424,42.9025243 L57.8104492,42.8920275 L57.7874561,42.8817306 L57.764463,42.8716336 L57.7424695,42.8617366 L57.7194764,42.8519395 L57.6964832,42.8424424 L57.6734901,42.8331452 L57.6494973,42.823948 L57.6265041,42.8149507 L57.603511,42.8062533 L57.5805178,42.7976559 L57.5575247,42.7893584 L57.5335318,42.7811608 L57.5105387,42.7732632 L57.4865459,42.7654656 L57.4635527,42.7579678 L57.4405596,42.75067 L57.4165667,42.7434722 L57.3935736,42.7364743 L57.3695807,42.7297763 L57.3465876,42.7232782 L57.3225948,42.7169801 L57.2986019,42.710782 L57.2756088,42.7048838 L57.2516159,42.6991855 L57.2276231,42.6936872 L57.20463,42.6883887 L57.1806371,42.6832903 L57.1566443,42.6784917 L57.1336511,42.6737931 L57.1096583,42.6692945 L57.0856654,42.6650958 L57.0616726,42.660997 L57.0376797,42.6571981 L57.0126872,42.6533993 L57.0026902,42.6517998 L56.9906938,42.6502002 L56.9786973,42.6485008 L56.9667009,42.6470012 L56.9547045,42.6455017 L56.9427081,42.6440021 L56.9307117,42.6425026 L56.9197149,42.6412029 L56.9077185,42.6399033 L56.8957221,42.6386037 L56.8837257,42.6374041 L56.8717293,42.6363044 L56.8597328,42.6352048 L56.8477364,42.6341051 L56.83574,42.6331054 L56.8237436,42.6322057 L56.8127468,42.6313059 L56.8007504,42.6305062 L56.788754,42.6297064 L56.7767576,42.6290066 L56.7647612,42.6283068 L56.7527647,42.627707 L56.7407683,42.6272072 L56.7287719,42.6266073 L56.7167755,42.6262075 L56.7057788,42.6258076 L56.6937823,42.6254077 L56.6817859,42.6251078 L56.6697895,42.6249079 L56.6577931,42.6247079 L56.6457966,42.6246079 L56.6347999,42.624508 L56.5878139,42.624508 L48.1203397,42.6224086 L48.102345,42.6227085 Z M102.105237,1.42550658 L65.6801018,64.5163198 L103.193912,64.5163198 L103.296881,1.35242857 L102.105237,1.42550658 Z M68.3383089,49.7200726 L43.8456148,7.29753942 L47.7494503,0.536874006 L96.8598013,0.320239201 L68.3383089,49.7200726 Z M48.4432434,1.73341391 L45.2312015,7.29753942 L68.3383089,47.3207947 L94.7764228,1.52907541 L48.4432434,1.73341391 Z M56.8417382,37.5993203 L26.3508332,37.5993203 L41.5962857,11.193467 L56.8417382,37.5993203 Z M28.4292133,36.3996813 L54.7643579,36.3996813 L41.5962857,13.5927449 L28.4292133,36.3996813 Z" id="Shape" fill="url(#linearGradient-4)" fill-rule="evenodd"></path>
                        </g>
                    </g>
                </g>
            </g>
        </g>
    </g>
</svg>