<?xml version="1.0" encoding="UTF-8"?>
<svg width="100px" height="100px" viewBox="0 0 100 100" version="1.1" xmlns="http://www.w3.org/2000/svg" xmlns:xlink="http://www.w3.org/1999/xlink">
    <!-- Generator: sketchtool 63.1 (101010) - https://sketch.com -->
    <title>file/binary/file_affinity_designer</title>
    <desc>Created with sketchtool.</desc>
    <defs>
        <path d="M99.8379762,3.03797619 C99.8379762,1.385 98.4958333,0.0427380952 96.8428571,0.0427380952 L2.99511905,0.0427380952 C1.34214286,0.0427380952 0,1.385 0,3.03797619 L0,96.8858333 C0,98.5388095 1.34214286,99.8809524 2.99511905,99.8809524 L96.8428571,99.8809524 C98.4958333,99.8809524 99.8379762,98.5388095 99.8379762,96.8858333 L99.8379762,3.03797619 Z" id="path-1"></path>
        <path d="M60.4017857,0.0422619048 L23.7115476,63.5922619 L44.6625,99.8809524 L2.99511905,99.8809524 C1.34214286,99.8809524 0,98.5388095 0,96.8858333 L0,96.8858333 L0,75.2647619 L43.4294048,0.0422619048 L60.4017857,0.0422619048 Z M99.8379762,65.7391667 L99.8379762,96.8858333 C99.8379762,98.5388095 98.4958333,99.8809524 96.8428571,99.8809524 L96.8428571,99.8809524 L49.155119,99.88 L29.4441667,65.7391667 L99.8379762,65.7391667 Z M42.4310714,38.9507143 L55.649881,61.8461905 L38.4897619,61.8461905 C36.5740476,61.8461905 34.8040476,60.8409524 33.8461905,59.1815476 C32.8895238,57.525 32.8895238,55.4765476 33.8461905,53.820119 C37.6580952,47.2175 42.4310714,38.9507143 42.4310714,38.9507143 Z M96.8428571,0.0422619048 C98.4958333,0.0422619048 99.8379762,1.385 99.8379762,3.03797619 L99.8379762,3.03797619 L99.8379762,61.8461905 L60.1445238,61.8461905 L44.677381,35.0595238 L64.8945238,0.0422619048 L96.8428571,0.0422619048 Z" id="path-3"></path>
        <radialGradient cx="76.433399%" cy="-18.7939478%" fx="76.433399%" fy="-18.7939478%" r="118.79397%" gradientTransform="translate(0.764334,-0.187939),scale(1.000000,1.000002),translate(-0.764334,0.187939)" id="radialGradient-5">
            <stop stop-color="#6AE1FA" offset="0%"></stop>
            <stop stop-color="#37BDFA" offset="100%"></stop>
        </radialGradient>
        <path d="M60.4011905,0.0428571429 L23.7115476,63.5922619 L44.6630952,99.8809524 L43.2785714,99.8809524 L22.3280952,63.5922619 L59.0178571,0.0428571429 L60.4011905,0.0428571429 Z M99.8369048,65.7391667 L99.8369048,66.9380952 L31.5192857,66.9375 L50.5380952,99.8809524 L49.1547619,99.8809524 L29.4441667,65.7391667 L99.8369048,65.7391667 Z M44.8119048,0.0428571429 L0,77.6619048 L0,75.2642857 L43.4285714,0.0428571429 L44.8119048,0.0428571429 Z M42.4310714,38.9507143 L55.649881,61.8461905 L38.444881,61.8461905 L38.422381,61.845119 L38.3329762,61.8441667 L38.1767857,61.837381 L38.1546429,61.8353571 L38.132381,61.8344048 L38.0879762,61.8315476 L37.9333333,61.8178571 L37.8891667,61.8129762 L37.8452381,61.8080952 L37.6921429,61.787619 L37.6702381,61.7836905 L37.6484524,61.7808333 L37.6267857,61.7769048 L37.605,61.7739286 L37.4534524,61.7466667 L37.3889286,61.7329762 L37.367381,61.7291667 L37.2604762,61.7047619 L37.1965476,61.690119 L37.1753571,61.6842857 L37.1329762,61.6745238 L37.0064286,61.6394048 L36.9436905,61.6219048 L36.9228571,61.615119 L36.9019048,61.6091667 L36.8603571,61.5955952 L36.8395238,61.5897619 L36.7567857,61.562381 L36.7361905,61.5546429 L36.6746429,61.5341667 L36.6336905,61.5185714 L36.6132143,61.5116667 L36.5319048,61.4804762 L36.4714286,61.4571429 L36.4513095,61.4483333 L36.4311905,61.4405952 L36.4111905,61.4317857 L36.3911905,61.4239286 L36.3313095,61.397619 L36.3114286,61.389881 L36.2916667,61.380119 L36.212619,61.345 L36.1930952,61.3352381 L36.1734524,61.3264286 L36.1538095,61.3166667 L36.1344048,61.3079762 L36.0566667,61.2689286 L35.9796429,61.23 L35.9222619,61.1986905 L35.9033333,61.1890476 L35.8275,61.1460714 L35.8086905,61.1363095 L35.79,61.1255952 L35.7713095,61.1139286 L35.7339286,61.0925 L35.7153571,61.0808333 L35.6783333,61.0592857 L35.6414286,61.0359524 L35.6230952,61.0241667 L35.6047619,61.0134524 L35.5320238,60.9666667 L35.4420238,60.9063095 L35.4064286,60.8809524 L35.3886905,60.8691667 L35.3533333,60.8438095 L35.3007143,60.8058333 L35.2833333,60.7932143 L35.2658333,60.7795238 L35.2311905,60.7541667 L35.2139286,60.7404762 L35.1967857,60.7278571 L35.1455952,60.6869048 L35.1285714,60.6741667 L35.0947619,60.6469048 L35.0779762,60.6322619 L35.0444048,60.605 L35.0111905,60.5766667 L34.9780952,60.5494048 L34.9453571,60.520119 L34.9290476,60.5065476 L34.8803571,60.462619 L34.8163095,60.4041667 L34.8003571,60.3885714 L34.7846429,60.3739286 L34.7689286,60.3583333 L34.7530952,60.3436905 L34.7375,60.3280952 L34.7219048,60.3134524 L34.6909524,60.2822619 L34.644881,60.2354762 L34.6145238,60.2042857 L34.5844048,60.1730952 L34.5692857,60.1565476 L34.5396429,60.1252381 L34.51,60.0921429 L34.4953571,60.0765476 L34.4661905,60.0434524 L34.3521429,59.909881 L34.3380952,59.8932143 L34.3241667,59.8757143 L34.3103571,59.8591667 L34.2965476,59.8415476 L34.2828571,59.8240476 L34.2692857,59.8075 L34.2555952,59.789881 L34.2286905,59.7547619 L34.2019048,59.7197619 L34.1755952,59.6846429 L34.1625,59.6670238 L34.1494048,59.6485714 L34.1234524,59.6125 L34.1107143,59.594881 L34.085119,59.5578571 L34.072619,59.5403571 L34.0475,59.5032143 L34.0227381,59.4661905 L33.9860714,59.4105952 L33.9741667,59.3921429 L33.9621429,59.372619 L33.950119,59.3540476 L33.914881,59.2975 L33.8916667,59.2585714 L33.880119,59.24 L33.857381,59.2010714 L33.835,59.1620238 L33.8128571,59.1229762 L33.7910714,59.0840476 L33.7591667,59.0254762 L33.7486905,59.005 L33.7382143,58.9855952 L33.7279762,58.9660714 L33.7177381,58.9455952 L33.697619,58.9065476 L33.687619,58.8860714 L33.6679762,58.8460714 L33.6583333,58.8266667 L33.6391667,58.7857143 L33.6297619,58.7661905 L33.6020238,58.7057143 L33.5839286,58.6647619 L33.575,58.6452381 L33.5403571,58.5633333 L33.5234524,58.522381 L33.5070238,58.4814286 L33.4828571,58.42 L33.4672619,58.3791667 L33.4596429,58.357619 L33.4446429,58.3166667 L33.429881,58.2757143 L33.422619,58.2542857 L33.4084524,58.2133333 L33.3877381,58.15 L33.3744048,58.1090476 L33.3678571,58.087619 L33.3614286,58.0671429 L33.3488095,58.0241667 L33.342619,58.0036905 L33.3304762,57.9617857 L33.3188095,57.919881 L33.307381,57.8770238 L33.3019048,57.8565476 L33.2963095,57.835119 L33.2857143,57.7921429 L33.2803571,57.7716667 L33.2752381,57.7502381 L33.2653571,57.707381 L33.2509524,57.6439286 L33.2417857,57.6010714 L33.2329762,57.5582143 L33.2246429,57.5152381 L33.2165476,57.4733333 L33.205119,57.4090476 L33.2015476,57.3865476 L33.1979762,57.3660714 L33.1945238,57.3436905 L33.1877381,57.3008333 L33.1845238,57.2792857 L33.1784524,57.2364286 L33.172619,57.1935714 L33.1672619,57.1505952 L33.1597619,57.0853571 L33.1510714,56.9995238 L33.1471429,56.9555952 L33.1435714,56.9127381 L33.1420238,56.8913095 L33.1390476,56.847381 L33.1364286,56.8045238 L33.1340476,56.7605952 L33.1313095,56.6963095 L33.1305952,56.6739286 L33.1294048,56.6309524 L33.1284524,56.5871429 L33.1284524,56.4135714 L33.1294048,56.3705952 L33.1305952,56.3267857 L33.1330952,56.262381 L33.1340476,56.24 L33.1364286,56.1971429 L33.1390476,56.1532143 L33.1420238,56.1103571 L33.1471429,56.0459524 L33.1489286,56.0235714 L33.1530952,55.9807143 L33.1597619,55.9153571 L33.1672619,55.8509524 L33.172619,55.8080952 L33.1784524,55.7652381 L33.1845238,55.7213095 L33.1910714,55.6784524 L33.212619,55.5497619 L33.2205952,55.5067857 L33.2329762,55.4425 L33.237381,55.4220238 L33.2417857,55.4005952 L33.2509524,55.357619 L33.2653571,55.2933333 L33.2702381,55.2728571 L33.2752381,55.2514286 L33.2857143,55.2084524 L33.2963095,55.1665476 L33.307381,55.1236905 L33.3130952,55.1032143 L33.3245238,55.0602381 L33.3304762,55.0397619 L33.3365476,55.0183333 L33.3488095,54.9764286 L33.3614286,54.9345238 L33.3678571,54.9140476 L33.3744048,54.892619 L33.3810714,54.8721429 L33.3877381,54.8507143 L33.3945238,54.8302381 L33.4014286,54.8086905 L33.4154762,54.7677381 L33.422619,54.7472619 L33.429881,54.7258333 L33.4521429,54.6644048 L33.4596429,54.6429762 L33.4828571,54.5815476 L33.4989286,54.5405952 L33.5152381,54.4996429 L33.5319048,54.4586905 L33.5575,54.3972619 L33.575,54.3563095 L33.5839286,54.3358333 L33.5929762,54.3164286 L33.6111905,54.2754762 L33.6297619,54.2354762 L33.6391667,54.215 L33.6488095,54.1954762 L33.6679762,54.1545238 L33.687619,54.1154762 L33.697619,54.095 L33.707619,54.0755952 L33.7177381,54.055119 L33.7382143,54.0160714 L33.7591667,53.9760714 L33.7803571,53.9371429 L33.8019048,53.8980952 L33.8128571,53.8785714 L33.8238095,53.8580952 L33.835,53.8396429 L33.8461905,53.820119 L42.4310714,38.9507143 Z M66.277381,0.0428571429 L46.0608333,35.0595238 L60.8342857,60.6478571 L99.8369048,60.6488095 L99.8369048,61.8464286 L60.142619,61.8464286 L44.677381,35.0595238 L64.8940476,0.0428571429 L66.277381,0.0428571429 Z M42.4310714,41.3461905 L34.8844048,54.4177381 L34.875,54.4344048 L34.8663095,54.4489286 L34.8579762,54.4635714 L34.8410714,54.4947619 L34.8242857,54.525 L34.8078571,54.5561905 L34.799881,54.5708333 L34.7759524,54.617619 L34.7683333,54.6322619 L34.7604762,54.6478571 L34.7527381,54.6644048 L34.7303571,54.7102381 L34.7082143,54.7570238 L34.7010714,54.7736905 L34.6940476,54.7882143 L34.6871429,54.8038095 L34.68,54.8204762 L34.6661905,54.8516667 L34.6527381,54.8828571 L34.6461905,54.8994048 L34.6329762,54.9305952 L34.6266667,54.9461905 L34.6202381,54.9627381 L34.6139286,54.9783333 L34.6077381,54.9939286 L34.6015476,55.0105952 L34.5954762,55.0261905 L34.5894048,55.0427381 L34.5660714,55.1070238 L34.5547619,55.1383333 L34.5491667,55.154881 L34.5436905,55.1714286 L34.5383333,55.1870238 L34.5329762,55.2035714 L34.5277381,55.2191667 L34.517381,55.252381 L34.5122619,55.2679762 L34.5072619,55.2845238 L34.502381,55.3010714 L34.4975,55.3166667 L34.4879762,55.349881 L34.4833333,55.3654762 L34.4786905,55.3829762 L34.4741667,55.3985714 L34.4653571,55.4317857 L34.4566667,55.464881 L34.4525,55.4804762 L34.4442857,55.5136905 L34.4403571,55.5302381 L34.4288095,55.58 L34.4214286,55.6130952 L34.4042857,55.6959524 L34.3947619,55.7457143 L34.3859524,55.7953571 L34.3802381,55.8285714 L34.377619,55.8460714 L34.375,55.8616667 L34.37,55.8958333 L34.365119,55.9290476 L34.3607143,55.9621429 L34.3544048,56.0128571 L34.3505952,56.0459524 L34.3438095,56.1132143 L34.3369048,56.1971429 L34.3334524,56.2478571 L34.3307143,56.2984524 L34.3285714,56.3491667 L34.3270238,56.399881 L34.3263095,56.4330952 L34.3259524,56.4671429 L34.3259524,56.5344048 L34.3263095,56.567619 L34.3270238,56.6016667 L34.3279762,56.6358333 L34.33,56.6865476 L34.3307143,56.7030952 L34.3334524,56.7538095 L34.342381,56.8708333 L34.3438095,56.8883333 L34.3471429,56.9215476 L34.3525,56.9722619 L34.3544048,56.9888095 L34.3607143,57.0385714 L34.367619,57.0891667 L34.37,57.1058333 L34.375,57.1389286 L34.3830952,57.1896429 L34.3859524,57.2061905 L34.3917857,57.2394048 L34.3947619,57.2559524 L34.4010714,57.2890476 L34.4364286,57.454881 L34.4403571,57.4714286 L34.4442857,57.4870238 L34.4484524,57.5045238 L34.452619,57.520119 L34.4566667,57.5367857 L34.4653571,57.569881 L34.4741667,57.6029762 L34.4786905,57.6185714 L34.4832143,57.6352381 L34.4927381,57.6683333 L34.502381,57.7004762 L34.5072619,57.7171429 L34.5121429,57.7327381 L34.5225,57.7658333 L34.5277381,57.7814286 L34.5383333,57.8146429 L34.5436905,57.8302381 L34.5491667,57.8467857 L34.5547619,57.862381 L34.5603571,57.8789286 L34.5660714,57.8945238 L34.5717857,57.9110714 L34.5834524,57.9433333 L34.5894048,57.9589286 L34.5954762,57.9754762 L34.6077381,58.0066667 L34.6139286,58.0232143 L34.6265476,58.0544048 L34.6330952,58.0710714 L34.6395238,58.0866667 L34.6594048,58.1334524 L34.6661905,58.15 L34.68,58.1811905 L34.6940476,58.212381 L34.7011905,58.2289286 L34.7155952,58.260119 L34.7228571,58.2747619 L34.7303571,58.2903571 L34.7378571,58.3069048 L34.7452381,58.3215476 L34.7682143,58.3683333 L34.7839286,58.3996429 L34.7917857,58.4141667 L34.8160714,58.4609524 L34.8242857,58.4765476 L34.8325,58.4911905 L34.8663095,58.552619 L34.875,58.5672619 L34.8835714,58.5828571 L34.892381,58.5975 L34.9014286,58.6130952 L34.9188095,58.642381 L34.9278571,58.6570238 L34.9370238,58.672619 L34.955,58.7017857 L34.9828571,58.7457143 L35.0688095,58.8744048 L35.0788095,58.8890476 L35.0986905,58.9163095 L35.1088095,58.9309524 L35.1186905,58.9446429 L35.1489286,58.9855952 L35.1591667,58.9991667 L35.1697619,59.0138095 L35.18,59.0265476 L35.1902381,59.040119 L35.2116667,59.0675 L35.2322619,59.0938095 L35.2430952,59.107381 L35.2541667,59.1210714 L35.2753571,59.1464286 L35.2863095,59.160119 L35.297381,59.1727381 L35.3083333,59.1864286 L35.3191667,59.1990476 L35.3303571,59.2117857 L35.3413095,59.2244048 L35.3525,59.2371429 L35.3639286,59.2507143 L35.375,59.262381 L35.4207143,59.3130952 L35.4321429,59.3258333 L35.4434524,59.3375 L35.4670238,59.3628571 L35.490119,59.3863095 L35.5140476,59.4116667 L35.5496429,59.4466667 L35.5735714,59.470119 L35.5857143,59.4817857 L35.5980952,59.4945238 L35.6102381,59.5052381 L35.6222619,59.5169048 L35.634881,59.5285714 L35.6470238,59.5403571 L35.6592857,59.5510714 L35.6716667,59.5627381 L35.6971429,59.5861905 L35.7090476,59.5969048 L35.7216667,59.607619 L35.7345238,59.6192857 L35.747619,59.63 L35.760119,59.6416667 L35.7727381,59.652381 L35.7983333,59.6739286 L35.8632143,59.7275 L35.8763095,59.7372619 L35.9028571,59.7586905 L35.9155952,59.7684524 L35.9429762,59.789881 L35.9692857,59.8094048 L35.9960714,59.829881 L36.0095238,59.8396429 L36.0234524,59.8503571 L36.0644048,59.8796429 L36.0914286,59.8980952 L36.1055952,59.9078571 L36.147381,59.9371429 L36.1608333,59.9459524 L36.174881,59.9546429 L36.1894048,59.9644048 L36.2028571,59.9732143 L36.2170238,59.9829762 L36.2317857,59.9916667 L36.2592857,60.0092857 L36.2739286,60.0190476 L36.2884524,60.0278571 L36.3166667,60.0444048 L36.3747619,60.0795238 L36.3895238,60.0882143 L36.4178571,60.1038095 L36.4330952,60.112619 L36.4478571,60.1214286 L36.4771429,60.1370238 L36.4915476,60.1447619 L36.5214286,60.1614286 L36.5515476,60.1770238 L36.6565476,60.2296429 L36.6714286,60.2364286 L36.6869048,60.2442857 L36.7022619,60.2510714 L36.7941667,60.2929762 L36.8092857,60.2997619 L36.8245238,60.3057143 L36.8560714,60.3192857 L36.8713095,60.3261905 L36.8866667,60.3320238 L36.9186905,60.3455952 L36.965,60.3632143 L36.9810714,60.37 L37.0122619,60.3816667 L37.0285714,60.387619 L37.0760714,60.405119 L37.0917857,60.41 L37.1082143,60.4158333 L37.1240476,60.4216667 L37.139881,60.4265476 L37.1564286,60.432381 L37.172381,60.4372619 L37.1882143,60.4430952 L37.2363095,60.4577381 L37.2529762,60.4635714 L37.285119,60.4733333 L37.3019048,60.4782143 L37.3175,60.4821429 L37.3336905,60.4870238 L37.3667857,60.4967857 L37.3830952,60.5007143 L37.400119,60.5055952 L37.4164286,60.5094048 L37.4322619,60.5142857 L37.4658333,60.5221429 L37.4822619,60.5270238 L37.4980952,60.5308333 L37.5484524,60.542619 L37.5977381,60.5533333 L37.615119,60.5572619 L37.6317857,60.560119 L37.6653571,60.5669048 L37.6821429,60.5708333 L37.7490476,60.582619 L37.7665476,60.5854762 L37.7992857,60.5913095 L37.8339286,60.5971429 L37.8504762,60.5991667 L37.8846429,60.605 L37.9017857,60.6069048 L37.9189286,60.609881 L37.9872619,60.617619 L38.0045238,60.6205952 L38.0378571,60.6234524 L38.0733333,60.627381 L38.09,60.6294048 L38.1067857,60.6303571 L38.124881,60.6322619 L38.1417857,60.6332143 L38.1585714,60.6352381 L38.1935714,60.6371429 L38.2104762,60.6391667 L38.297381,60.6439286 L38.315,60.6439286 L38.3497619,60.6459524 L38.3669048,60.6459524 L38.3847619,60.6469048 L38.4196429,60.6469048 L38.4367857,60.6478571 L53.574881,60.6478571 L42.4310714,41.3461905 Z" id="path-6"></path>
        <linearGradient x1="167536.947%" y1="93.884594%" x2="167536.946%" y2="0.601371702%" id="linearGradient-8">
            <stop stop-color="#4AC4FA" offset="0%"></stop>
            <stop stop-color="#97E7FB" offset="100%"></stop>
        </linearGradient>
    </defs>
    <g id="Icons" stroke="none" stroke-width="1" fill="none" fill-rule="evenodd">
        <g id="file/binary/file_affinity_designer">
            <g id="Group-12" transform="translate(0.100000, 0.076310)">
                <mask id="mask-2" fill="white">
                    <use xlink:href="#path-1"></use>
                </mask>
                <g id="Clip-3"></g>
                <path d="M99.8379762,3.03797619 C99.8379762,1.385 98.4958333,0.0427380952 96.8428571,0.0427380952 L2.99511905,0.0427380952 C1.34214286,0.0427380952 0,1.385 0,3.03797619 L0,96.8858333 C0,98.5388095 1.34214286,99.8809524 2.99511905,99.8809524 L96.8428571,99.8809524 C98.4958333,99.8809524 99.8379762,98.5388095 99.8379762,96.8858333 L99.8379762,3.03797619 Z" id="Fill-2" fill="#1B72BE" mask="url(#mask-2)"></path>
                <path d="M99.8379762,3.03797619 C99.8379762,1.385 98.4958333,0.0427380952 96.8428571,0.0427380952 L40.9335714,0.0427380952 L0,70.9419048 L0,96.8858333 C0,98.5388095 1.34214286,99.8809524 2.99511905,99.8809524 L96.8428571,99.8809524 C98.4958333,99.8809524 99.8379762,98.5388095 99.8379762,96.8858333 L99.8379762,3.03797619 Z" id="Fill-4" fill="#0568AA" mask="url(#mask-2)"></path>
                <path d="M46.1602381,99.8809524 L39.197381,99.8809524 L21.2127381,63.7238095 L56.2597619,0.0427380952 L61.8995238,0.0427380952 L25.2091667,63.592619 L46.16,99.8809524 L46.1602381,99.8809524 Z M65.0215476,99.8809524 L47.6577381,99.8809524 L27.197381,64.4425 L99.844881,64.4425 L99.8379762,71.0592857 L65.0215476,99.8809524 Z M47.7630952,0.0427380952 L41.9319048,0.0427380952 L0,72.6710714 L0,82.7713095 L47.7630952,0.0427380952 Z M57.8921429,63.1363095 L38.1445238,63.1363095 C35.8395238,63.1363095 33.6960714,61.9304762 32.5434524,59.9346429 C31.3925,57.9408333 31.3925,55.4766667 32.5434524,53.4829762 L42.4311905,36.3571429 L57.8921429,63.1363095 Z M99.8379762,63.1363095 L59.3897619,63.1363095 L43.1797619,35.059881 L63.3971429,0.0427380952 L70.722381,0.0473809524 L60.082619,36.2427381 L65.0215476,46.3879762 L99.8379762,60.0794048 L99.8379762,63.1363095 Z" id="Fill-5" fill="#074F7F" mask="url(#mask-2)"></path>
                <mask id="mask-4" fill="white">
                    <use xlink:href="#path-3"></use>
                </mask>
                <g id="Clip-7"></g>
                <path d="M99.8377381,99.88 L49.155119,99.88 L29.4441667,65.7391667 L99.8377381,65.7391667 L99.8377381,99.88 Z M44.6625,99.88 L0.000119047618,99.88 L0.000119047618,75.2647619 L43.4294048,0.0422619048 L60.4017857,0.0422619048 L23.7115476,63.5922619 L44.6625,99.88 Z M55.649881,61.8461905 L38.4897619,61.8461905 C36.5740476,61.8461905 34.8040476,60.8409524 33.8461905,59.1815476 C32.8895238,57.525 32.8895238,55.4765476 33.8461905,53.820119 C37.6580952,47.2175 42.4310714,38.9507143 42.4310714,38.9507143 L55.649881,61.8461905 Z M99.8377381,61.8461905 L60.1445238,61.8461905 L44.677381,35.0595238 L64.8945238,0.0422619048 L99.8377381,0.0422619048 L99.8377381,61.8461905 Z" id="Fill-6" fill="url(#radialGradient-5)" mask="url(#mask-4)"></path>
                <mask id="mask-7" fill="white">
                    <use xlink:href="#path-6"></use>
                </mask>
                <g id="Clip-10"></g>
                <path d="M102.154286,101.715952 L50.2152381,101.715952 L29.4441667,65.7391667 L102.118214,65.7391667 L102.154286,101.715952 Z M23.7115476,63.5922619 L45.722619,101.715952 L-3.06404762,101.715952 L-3.22738095,80.8542857 L44.6352381,-2.04619048 L61.607619,-2.04619048 L23.7115476,63.5922619 Z M31.5192857,66.9375 L50.9070238,100.51869 L100.955,100.51869 L100.921905,66.9375 L31.5192857,66.9375 Z M45.3267857,-0.847857143 L-2.02678571,81.1711905 L-1.87535714,100.51869 L43.6475,100.51869 L22.3280952,63.5922619 L59.532381,-0.847857143 L45.3267857,-0.847857143 Z M55.649881,61.8461905 L38.444881,61.8461905 L38.422381,61.845119 L38.3777381,61.845119 L38.3552381,61.8441667 L38.3329762,61.8441667 L38.1767857,61.837381 L38.1546429,61.8353571 L38.132381,61.8344048 L38.1102381,61.8325 L38.0879762,61.8315476 L37.9333333,61.8178571 L37.9113095,61.814881 L37.8891667,61.8129762 L37.8672619,61.81 L37.8452381,61.8080952 L37.6921429,61.787619 L37.6702381,61.7836905 L37.6484524,61.7808333 L37.6267857,61.7769048 L37.605,61.7739286 L37.4534524,61.7466667 L37.4319048,61.7417857 L37.4103571,61.7378571 L37.3889286,61.7329762 L37.367381,61.7291667 L37.3032143,61.7145238 L37.2817857,61.7105952 L37.2604762,61.7047619 L37.1965476,61.690119 L37.1753571,61.6842857 L37.1329762,61.6745238 L37.0064286,61.6394048 L36.9436905,61.6219048 L36.9228571,61.615119 L36.9019048,61.6091667 L36.8603571,61.5955952 L36.8395238,61.5897619 L36.7567857,61.562381 L36.7361905,61.5546429 L36.6746429,61.5341667 L36.6336905,61.5185714 L36.6132143,61.5116667 L36.5319048,61.4804762 L36.4714286,61.4571429 L36.4513095,61.4483333 L36.4311905,61.4405952 L36.4111905,61.4317857 L36.3911905,61.4239286 L36.3313095,61.397619 L36.3114286,61.389881 L36.2916667,61.380119 L36.212619,61.345 L36.1930952,61.3352381 L36.1734524,61.3264286 L36.1538095,61.3166667 L36.1344048,61.3079762 L36.0566667,61.2689286 L35.9796429,61.23 L35.9604762,61.2191667 L35.9413095,61.2095238 L35.9222619,61.1986905 L35.9033333,61.1890476 L35.8275,61.1460714 L35.8086905,61.1363095 L35.79,61.1255952 L35.7713095,61.1139286 L35.7339286,61.0925 L35.7153571,61.0808333 L35.6783333,61.0592857 L35.6414286,61.0359524 L35.6230952,61.0241667 L35.6047619,61.0134524 L35.5320238,60.9666667 L35.5139286,60.9540476 L35.4778571,60.9305952 L35.46,60.9179762 L35.4420238,60.9063095 L35.4064286,60.8809524 L35.3886905,60.8691667 L35.3533333,60.8438095 L35.3007143,60.8058333 L35.2833333,60.7932143 L35.2658333,60.7795238 L35.2311905,60.7541667 L35.2139286,60.7404762 L35.1967857,60.7278571 L35.1455952,60.6869048 L35.1285714,60.6741667 L35.0947619,60.6469048 L35.0779762,60.6322619 L35.0444048,60.605 L35.0278571,60.5913095 L35.0111905,60.5766667 L34.9780952,60.5494048 L34.9453571,60.520119 L34.9290476,60.5065476 L34.8803571,60.462619 L34.8163095,60.4041667 L34.8003571,60.3885714 L34.7846429,60.3739286 L34.7689286,60.3583333 L34.7530952,60.3436905 L34.7375,60.3280952 L34.7219048,60.3134524 L34.6909524,60.2822619 L34.644881,60.2354762 L34.6145238,60.2042857 L34.5844048,60.1730952 L34.5692857,60.1565476 L34.5396429,60.1252381 L34.51,60.0921429 L34.4953571,60.0765476 L34.4661905,60.0434524 L34.4228571,59.9936905 L34.3802381,59.9439286 L34.3661905,59.927381 L34.3521429,59.909881 L34.3380952,59.8932143 L34.3241667,59.8757143 L34.3103571,59.8591667 L34.2965476,59.8415476 L34.2828571,59.8240476 L34.2692857,59.8075 L34.2555952,59.789881 L34.2286905,59.7547619 L34.2019048,59.7197619 L34.1755952,59.6846429 L34.1625,59.6670238 L34.1494048,59.6485714 L34.1364286,59.6309524 L34.1234524,59.6125 L34.1107143,59.594881 L34.085119,59.5578571 L34.072619,59.5403571 L34.0475,59.5032143 L34.0227381,59.4661905 L33.9860714,59.4105952 L33.9741667,59.3921429 L33.9621429,59.372619 L33.950119,59.3540476 L33.9383333,59.3355952 L33.9265476,59.3160714 L33.914881,59.2975 L33.8916667,59.2585714 L33.880119,59.24 L33.857381,59.2010714 L33.835,59.1620238 L33.8128571,59.1229762 L33.7910714,59.0840476 L33.7591667,59.0254762 L33.7486905,59.005 L33.7382143,58.9855952 L33.7279762,58.9660714 L33.7177381,58.9455952 L33.697619,58.9065476 L33.687619,58.8860714 L33.6778571,58.8665476 L33.6679762,58.8460714 L33.6583333,58.8266667 L33.6391667,58.7857143 L33.6297619,58.7661905 L33.6111905,58.7252381 L33.6020238,58.7057143 L33.5839286,58.6647619 L33.575,58.6452381 L33.5575,58.6042857 L33.5403571,58.5633333 L33.5234524,58.522381 L33.5070238,58.4814286 L33.4828571,58.42 L33.4672619,58.3791667 L33.4596429,58.357619 L33.4446429,58.3166667 L33.429881,58.2757143 L33.422619,58.2542857 L33.4084524,58.2133333 L33.3945238,58.1714286 L33.3877381,58.15 L33.3744048,58.1090476 L33.3678571,58.087619 L33.3614286,58.0671429 L33.3488095,58.0241667 L33.342619,58.0036905 L33.3365476,57.9822619 L33.3304762,57.9617857 L33.3188095,57.919881 L33.307381,57.8770238 L33.3019048,57.8565476 L33.2963095,57.835119 L33.2857143,57.7921429 L33.2803571,57.7716667 L33.2752381,57.7502381 L33.2653571,57.707381 L33.2604762,57.6869048 L33.2509524,57.6439286 L33.2417857,57.6010714 L33.2329762,57.5582143 L33.2246429,57.5152381 L33.2165476,57.4733333 L33.2088095,57.4304762 L33.205119,57.4090476 L33.2015476,57.3865476 L33.1979762,57.3660714 L33.1945238,57.3436905 L33.1877381,57.3008333 L33.1845238,57.2792857 L33.1784524,57.2364286 L33.172619,57.1935714 L33.1672619,57.1505952 L33.1597619,57.0853571 L33.1552381,57.042381 L33.1510714,56.9995238 L33.1471429,56.9555952 L33.1435714,56.9127381 L33.1420238,56.8913095 L33.1390476,56.847381 L33.1364286,56.8045238 L33.1340476,56.7605952 L33.1313095,56.6963095 L33.1305952,56.6739286 L33.1294048,56.6309524 L33.1284524,56.5871429 L33.1278571,56.5441667 L33.1278571,56.5227381 L33.1278571,56.4789286 L33.1278571,56.457381 L33.1284524,56.4135714 L33.1294048,56.3705952 L33.1305952,56.3267857 L33.1330952,56.262381 L33.1340476,56.24 L33.1364286,56.1971429 L33.1390476,56.1532143 L33.1420238,56.1103571 L33.1471429,56.0459524 L33.1489286,56.0235714 L33.1530952,55.9807143 L33.1597619,55.9153571 L33.1672619,55.8509524 L33.172619,55.8080952 L33.1784524,55.7652381 L33.1845238,55.7213095 L33.1910714,55.6784524 L33.1979762,55.6354762 L33.205119,55.592619 L33.212619,55.5497619 L33.2205952,55.5067857 L33.2329762,55.4425 L33.237381,55.4220238 L33.2417857,55.4005952 L33.2509524,55.357619 L33.2604762,55.3147619 L33.2653571,55.2933333 L33.2702381,55.2728571 L33.2752381,55.2514286 L33.2857143,55.2084524 L33.2909524,55.1879762 L33.2963095,55.1665476 L33.307381,55.1236905 L33.3130952,55.1032143 L33.3245238,55.0602381 L33.3304762,55.0397619 L33.3365476,55.0183333 L33.3488095,54.9764286 L33.355119,54.9559524 L33.3614286,54.9345238 L33.3678571,54.9140476 L33.3744048,54.892619 L33.3810714,54.8721429 L33.3877381,54.8507143 L33.3945238,54.8302381 L33.4014286,54.8086905 L33.4154762,54.7677381 L33.422619,54.7472619 L33.429881,54.7258333 L33.4446429,54.684881 L33.4521429,54.6644048 L33.4596429,54.6429762 L33.4828571,54.5815476 L33.4989286,54.5405952 L33.5152381,54.4996429 L33.5319048,54.4586905 L33.5575,54.3972619 L33.575,54.3563095 L33.5839286,54.3358333 L33.5929762,54.3164286 L33.6111905,54.2754762 L33.6204762,54.2559524 L33.6297619,54.2354762 L33.6391667,54.215 L33.6488095,54.1954762 L33.6679762,54.1545238 L33.687619,54.1154762 L33.697619,54.095 L33.707619,54.0755952 L33.7177381,54.055119 L33.7382143,54.0160714 L33.7486905,53.9965476 L33.7591667,53.9760714 L33.7803571,53.9371429 L33.8019048,53.8980952 L33.8128571,53.8785714 L33.8238095,53.8580952 L33.835,53.8396429 L33.8461905,53.820119 L42.4310714,38.9507143 L55.649881,61.8461905 Z M102.09381,61.8461905 L60.142619,61.8461905 L44.677381,35.0595238 L66.1002381,-2.04619048 L101.659881,-2.04619048 L102.09381,61.8461905 Z M34.8844048,54.4177381 L34.875,54.4344048 L34.8663095,54.4489286 L34.8579762,54.4635714 L34.8492857,54.4791667 L34.8410714,54.4947619 L34.8242857,54.525 L34.8078571,54.5561905 L34.799881,54.5708333 L34.7759524,54.617619 L34.7683333,54.6322619 L34.7604762,54.6478571 L34.7527381,54.6644048 L34.7453571,54.6790476 L34.7303571,54.7102381 L34.7082143,54.7570238 L34.7010714,54.7736905 L34.6940476,54.7882143 L34.6871429,54.8038095 L34.68,54.8204762 L34.6661905,54.8516667 L34.6527381,54.8828571 L34.6461905,54.8994048 L34.6329762,54.9305952 L34.6266667,54.9461905 L34.6202381,54.9627381 L34.6139286,54.9783333 L34.6077381,54.9939286 L34.6015476,55.0105952 L34.5954762,55.0261905 L34.5894048,55.0427381 L34.577619,55.0739286 L34.5660714,55.1070238 L34.5547619,55.1383333 L34.5491667,55.154881 L34.5436905,55.1714286 L34.5383333,55.1870238 L34.5329762,55.2035714 L34.5277381,55.2191667 L34.517381,55.252381 L34.5122619,55.2679762 L34.5072619,55.2845238 L34.502381,55.3010714 L34.4975,55.3166667 L34.492619,55.3333333 L34.4879762,55.349881 L34.4833333,55.3654762 L34.4786905,55.3829762 L34.4741667,55.3985714 L34.4653571,55.4317857 L34.4566667,55.464881 L34.4525,55.4804762 L34.4442857,55.5136905 L34.4403571,55.5302381 L34.4288095,55.58 L34.4214286,55.6130952 L34.4144048,55.6461905 L34.407619,55.6794048 L34.4042857,55.6959524 L34.3947619,55.7457143 L34.3859524,55.7953571 L34.3802381,55.8285714 L34.377619,55.8460714 L34.375,55.8616667 L34.37,55.8958333 L34.365119,55.9290476 L34.3607143,55.9621429 L34.3585714,55.9786905 L34.3544048,56.0128571 L34.3505952,56.0459524 L34.3438095,56.1132143 L34.3394048,56.1639286 L34.3369048,56.1971429 L34.3334524,56.2478571 L34.3307143,56.2984524 L34.3285714,56.3491667 L34.3270238,56.399881 L34.3263095,56.4330952 L34.3258333,56.4671429 L34.3258333,56.4838095 L34.3258333,56.5178571 L34.3258333,56.5344048 L34.3263095,56.567619 L34.3270238,56.6016667 L34.3279762,56.6358333 L34.33,56.6865476 L34.3307143,56.7030952 L34.3334524,56.7538095 L34.3345238,56.7703571 L34.3382143,56.8210714 L34.3394048,56.837619 L34.342381,56.8708333 L34.3438095,56.8883333 L34.3471429,56.9215476 L34.3525,56.9722619 L34.3544048,56.9888095 L34.3585714,57.0219048 L34.3607143,57.0385714 L34.367619,57.0891667 L34.37,57.1058333 L34.375,57.1389286 L34.3830952,57.1896429 L34.3859524,57.2061905 L34.3917857,57.2394048 L34.3947619,57.2559524 L34.4010714,57.2890476 L34.407619,57.3222619 L34.4144048,57.3553571 L34.4179762,57.3719048 L34.425119,57.405119 L34.4288095,57.4216667 L34.4364286,57.454881 L34.4403571,57.4714286 L34.4442857,57.4870238 L34.4484524,57.5045238 L34.452619,57.520119 L34.4566667,57.5367857 L34.4653571,57.569881 L34.4741667,57.6029762 L34.4786905,57.6185714 L34.4832143,57.6352381 L34.4927381,57.6683333 L34.502381,57.7004762 L34.5072619,57.7171429 L34.5121429,57.7327381 L34.5225,57.7658333 L34.5277381,57.7814286 L34.5383333,57.8146429 L34.5436905,57.8302381 L34.5491667,57.8467857 L34.5547619,57.862381 L34.5603571,57.8789286 L34.5660714,57.8945238 L34.5717857,57.9110714 L34.5834524,57.9433333 L34.5894048,57.9589286 L34.5954762,57.9754762 L34.6077381,58.0066667 L34.6139286,58.0232143 L34.6265476,58.0544048 L34.6330952,58.0710714 L34.6395238,58.0866667 L34.6594048,58.1334524 L34.6661905,58.15 L34.68,58.1811905 L34.6871429,58.1967857 L34.6940476,58.212381 L34.7011905,58.2289286 L34.7155952,58.260119 L34.7228571,58.2747619 L34.7303571,58.2903571 L34.7378571,58.3069048 L34.7452381,58.3215476 L34.7682143,58.3683333 L34.7839286,58.3996429 L34.7917857,58.4141667 L34.8160714,58.4609524 L34.8242857,58.4765476 L34.8325,58.4911905 L34.8408333,58.5067857 L34.8494048,58.522381 L34.8579762,58.5370238 L34.8663095,58.552619 L34.875,58.5672619 L34.8835714,58.5828571 L34.892381,58.5975 L34.9014286,58.6130952 L34.9188095,58.642381 L34.9278571,58.6570238 L34.9370238,58.672619 L34.955,58.7017857 L34.9828571,58.7457143 L35.0017857,58.775 L35.0109524,58.7885714 L35.030119,58.8178571 L35.0396429,58.8315476 L35.0496429,58.8460714 L35.0591667,58.8607143 L35.0688095,58.8744048 L35.0788095,58.8890476 L35.0986905,58.9163095 L35.1088095,58.9309524 L35.1186905,58.9446429 L35.1489286,58.9855952 L35.1591667,58.9991667 L35.1697619,59.0138095 L35.18,59.0265476 L35.1902381,59.040119 L35.2116667,59.0675 L35.2220238,59.080119 L35.2322619,59.0938095 L35.2430952,59.107381 L35.2541667,59.1210714 L35.2753571,59.1464286 L35.2863095,59.160119 L35.297381,59.1727381 L35.3083333,59.1864286 L35.3191667,59.1990476 L35.3303571,59.2117857 L35.3413095,59.2244048 L35.3525,59.2371429 L35.3639286,59.2507143 L35.375,59.262381 L35.397619,59.2877381 L35.4207143,59.3130952 L35.4321429,59.3258333 L35.4434524,59.3375 L35.4670238,59.3628571 L35.490119,59.3863095 L35.5140476,59.4116667 L35.5375,59.435 L35.5496429,59.4466667 L35.5735714,59.470119 L35.5857143,59.4817857 L35.5980952,59.4945238 L35.6102381,59.5052381 L35.6222619,59.5169048 L35.634881,59.5285714 L35.6470238,59.5403571 L35.6592857,59.5510714 L35.6716667,59.5627381 L35.6971429,59.5861905 L35.7090476,59.5969048 L35.7216667,59.607619 L35.7345238,59.6192857 L35.747619,59.63 L35.760119,59.6416667 L35.7727381,59.652381 L35.7983333,59.6739286 L35.8115476,59.6846429 L35.8371429,59.7060714 L35.8632143,59.7275 L35.8763095,59.7372619 L35.8897619,59.7479762 L35.9028571,59.7586905 L35.9155952,59.7684524 L35.9429762,59.789881 L35.9559524,59.7996429 L35.9692857,59.8094048 L35.9830952,59.820119 L35.9960714,59.829881 L36.0095238,59.8396429 L36.0234524,59.8503571 L36.0644048,59.8796429 L36.0777381,59.8883333 L36.0914286,59.8980952 L36.1055952,59.9078571 L36.147381,59.9371429 L36.1608333,59.9459524 L36.174881,59.9546429 L36.1894048,59.9644048 L36.2028571,59.9732143 L36.2170238,59.9829762 L36.2317857,59.9916667 L36.2592857,60.0092857 L36.2739286,60.0190476 L36.2884524,60.0278571 L36.302381,60.0365476 L36.3166667,60.0444048 L36.3747619,60.0795238 L36.3895238,60.0882143 L36.4178571,60.1038095 L36.4330952,60.112619 L36.4478571,60.1214286 L36.4622619,60.1291667 L36.4771429,60.1370238 L36.4915476,60.1447619 L36.5065476,60.152619 L36.5214286,60.1614286 L36.5515476,60.1770238 L36.5661905,60.1838095 L36.5808333,60.1915476 L36.6111905,60.2071429 L36.6259524,60.2140476 L36.6565476,60.2296429 L36.6714286,60.2364286 L36.6869048,60.2442857 L36.7022619,60.2510714 L36.7322619,60.2647619 L36.7477381,60.2725 L36.7634524,60.2792857 L36.7785714,60.2861905 L36.7941667,60.2929762 L36.8092857,60.2997619 L36.8245238,60.3057143 L36.8560714,60.3192857 L36.8713095,60.3261905 L36.8866667,60.3320238 L36.9186905,60.3455952 L36.965,60.3632143 L36.9810714,60.37 L37.0122619,60.3816667 L37.0285714,60.387619 L37.0441667,60.3934524 L37.0603571,60.3992857 L37.0760714,60.405119 L37.0917857,60.41 L37.1082143,60.4158333 L37.1240476,60.4216667 L37.139881,60.4265476 L37.1564286,60.432381 L37.172381,60.4372619 L37.1882143,60.4430952 L37.2363095,60.4577381 L37.2529762,60.4635714 L37.285119,60.4733333 L37.3019048,60.4782143 L37.3175,60.4821429 L37.3336905,60.4870238 L37.3505952,60.4919048 L37.3667857,60.4967857 L37.3830952,60.5007143 L37.400119,60.5055952 L37.4164286,60.5094048 L37.4322619,60.5142857 L37.4658333,60.5221429 L37.4822619,60.5270238 L37.4980952,60.5308333 L37.5484524,60.542619 L37.565,60.5454762 L37.5977381,60.5533333 L37.615119,60.5572619 L37.6317857,60.560119 L37.6479762,60.5640476 L37.6653571,60.5669048 L37.6821429,60.5708333 L37.7490476,60.582619 L37.7665476,60.5854762 L37.7992857,60.5913095 L37.8339286,60.5971429 L37.8504762,60.5991667 L37.8846429,60.605 L37.9017857,60.6069048 L37.9189286,60.609881 L37.9527381,60.6138095 L37.9872619,60.617619 L38.0045238,60.6205952 L38.0211905,60.6225 L38.0378571,60.6234524 L38.0733333,60.627381 L38.09,60.6294048 L38.1067857,60.6303571 L38.124881,60.6322619 L38.1417857,60.6332143 L38.1585714,60.6352381 L38.1935714,60.6371429 L38.2104762,60.6391667 L38.297381,60.6439286 L38.315,60.6439286 L38.3497619,60.6459524 L38.3669048,60.6459524 L38.3847619,60.6469048 L38.4196429,60.6469048 L38.4367857,60.6478571 L53.574881,60.6478571 L42.4310714,41.3461905 L34.8844048,54.4177381 Z M66.7919048,-0.847857143 L46.0608333,35.0595238 L60.8342857,60.6478571 L100.887738,60.6478571 L100.470476,-0.847857143 L66.7919048,-0.847857143 Z" id="Fill-9" fill="url(#linearGradient-8)" mask="url(#mask-7)"></path>
            </g>
        </g>
    </g>
</svg>