<?xml version="1.0" encoding="UTF-8"?>
<svg width="100px" height="100px" viewBox="0 0 100 100" version="1.1" xmlns="http://www.w3.org/2000/svg" xmlns:xlink="http://www.w3.org/1999/xlink">
    <!-- Generator: sketchtool 63.1 (101010) - https://sketch.com -->
    <title>file/binary/microsoft/file_ms_outlook</title>
    <desc>Created with sketchtool.</desc>
    <g id="Icons" stroke="none" stroke-width="1" fill="none" fill-rule="evenodd">
        <g id="file/binary/microsoft/file_ms_outlook">
            <g id="File/Outlook">
                <g id="file_ms_outlook" transform="translate(4.000000, 5.000000)">
                    <path d="M48.0871266,0 L54.3370944,0 C54.3370944,6.97678553 54.3370944,13.9431111 54.3370944,20.9198966 C65.1647978,20.9408165 75.9820497,20.8885168 86.7993016,20.9198966 C88.9313976,20.8152972 91.8473525,21.4324341 91.8055467,24.1206408 C92.2027018,37.3524755 91.8159981,50.6156899 91.9936728,63.8579845 C92.0354786,66.2010129 91.9623185,69.8933747 88.7746259,69.9247545 C77.309384,70.3222326 65.8127877,69.9561344 54.3370944,70.0816537 C54.3370944,76.702801 54.3370944,83.3344083 54.3370944,89.9555556 L47.8571947,89.9555556 C31.9291832,87.0581499 15.9593659,84.390863 0.0104514511,81.5875969 C0,57.1845375 0,32.781478 0,8.38887855 C16.032526,5.57515245 32.0650521,2.85556589 48.0871266,0 Z" id="path18" fill="#0071C5" fill-rule="nonzero"></path>
                    <path d="M54.2707071,23.9817937 C65.8593786,23.9922666 77.4375911,23.9503749 89.0262626,24.0027395 C88.8275399,25.3746923 88.4091763,26.7256993 87.2586764,27.5844789 C80.334759,34.0462718 73.4526778,40.5394835 66.5496785,47.0222222 C62.3974199,43.2624432 58.3602112,39.3769891 54.2707071,35.5543726 C54.2707071,31.6898643 54.2707071,27.835829 54.2707071,23.9817937 Z" id="path64" fill="#FFFFFF" fill-rule="nonzero"></path>
                    <path d="M22.3836701,27.8587703 C28.2919808,25.6278953 35.1954857,28.7594991 37.6991847,34.4676063 C41.1142721,42.3227998 40.6323886,53.0687044 33.8441167,59.0072306 C27.590107,64.3592357 17.1039031,61.3114206 14.254505,53.7075934 C10.5041944,44.9411976 12.3269711,31.4512121 22.3836701,27.8587703 Z" id="path76" fill="#FFFFFF" fill-rule="nonzero"></path>
                    <path d="M69.7743659,47.9597591 C76.0352085,41.9851216 82.3481379,36.052338 88.6402326,30.1090909 C88.6714847,42.3722698 88.6402326,54.6459121 88.65065,66.9090909 C77.1915371,66.9090909 65.7324243,66.9090909 54.2733114,66.9090909 C54.2733114,57.784951 54.262894,48.6608111 54.2837288,39.5471347 C58.1694098,43.0000775 61.6488131,46.9343397 65.7740938,50.0838421 C67.472126,50.397746 68.6180372,48.9223977 69.7743659,47.9597591 Z" id="path92" fill="#FFFFFF" fill-rule="nonzero"></path>
                    <path d="M23.3397477,34.1548655 C26.105571,32.8296497 29.568049,34.1757351 30.867778,36.9200797 C32.9473443,41.0522487 32.9369465,46.0922428 31.5748305,50.4539768 C30.6078322,53.5531036 27.2285368,56.1096223 23.9532198,54.8887542 C19.8668718,53.5948427 18.6295298,48.7322397 18.5879385,44.9235485 C18.5359493,40.9792053 19.4405607,36.0644285 23.3397477,34.1548655 L23.3397477,34.1548655 Z" id="path96" fill="#0071C5" fill-rule="nonzero"></path>
                </g>
            </g>
        </g>
    </g>
</svg>