<?xml version="1.0" encoding="UTF-8"?>
<svg width="100px" height="100px" viewBox="0 0 100 100" version="1.1" xmlns="http://www.w3.org/2000/svg" xmlns:xlink="http://www.w3.org/1999/xlink">
    <!-- Generator: sketchtool 63.1 (101010) - https://sketch.com -->
    <title>file/binary/file_psd</title>
    <desc>Created with sketchtool.</desc>
    <defs>
        <path d="M27.4761062,95.2 L27.4761062,86.9702703 L29.2884956,86.9702703 C31.9126844,86.9702703 33.9539823,86.3388514 35.4123894,85.0760135 C36.8707965,83.8131757 37.6,82.0466216 37.6,79.7763514 C37.6,77.7709459 37.0548673,76.3402027 35.9646018,75.4841216 C34.8743363,74.6280405 33.0548673,74.2 30.5061947,74.2 L30.5061947,74.2 L23.2,74.2 L23.2,95.2 L27.4761062,95.2 Z M28.4379052,84 L27.6,84 L27.6,77 L29.2758105,77 C31.8919368,77 33.2,78.0438596 33.2,80.1315789 C33.2,81.3218623 32.7740648,82.26417 31.9221945,82.958502 C31.0703242,83.652834 29.9088944,84 28.4379052,84 L28.4379052,84 Z M45.6850806,95.6 C48.2159946,95.6 50.2012097,95.0478764 51.6407258,93.9436293 C53.0802419,92.8393822 53.8,91.3151437 53.8,89.3709138 C53.8,88.0024024 53.4189516,86.8415272 52.6568548,85.8882883 C51.8947581,84.9350493 50.5069892,83.8921493 48.4935484,82.7595882 L48.4935484,82.7595882 L46.9975806,81.9243243 C45.877957,81.2919777 45.1158602,80.7587302 44.7112903,80.3245817 C44.3067204,79.8904333 44.1044355,79.3854998 44.1044355,78.8097812 C44.1044355,78.1113685 44.39375,77.5474474 44.972379,77.118018 C45.5510081,76.6885886 46.3201613,76.4738739 47.2798387,76.4738739 C48.5217742,76.4738739 50.2106183,76.8749893 52.346371,77.6772201 L52.346371,77.6772201 L52.346371,74.3220077 C50.2576613,73.8406692 48.3806452,73.6 46.7153226,73.6 C44.6360215,73.6 42.9636425,74.1238095 41.6981855,75.1714286 C40.4327285,76.2190476 39.8,77.606435 39.8,79.3335907 C39.8,80.626598 40.1857527,81.7567997 40.9572581,82.7241956 C41.7287634,83.6915916 43.050672,84.7038181 44.9229839,85.7608752 L44.9229839,85.7608752 L46.3201613,86.5395109 C47.4491935,87.1812956 48.2159946,87.7357786 48.6205645,88.2029601 C49.0251344,88.6701416 49.2274194,89.2435006 49.2274194,89.9230373 C49.2274194,90.7818962 48.9051747,91.4614329 48.2606855,91.9616474 C47.6161962,92.4618619 46.7341398,92.7119691 45.6145161,92.7119691 C44.0150538,92.7119691 42.0909946,92.2400686 39.8423387,91.2962677 L39.8423387,91.2962677 L39.8423387,94.8921493 C42.0627688,95.3640498 44.0103495,95.6 45.6850806,95.6 Z M66.4043059,95.2 C69.6861668,95.2 72.2392477,94.2422297 74.0635486,92.3266892 C75.8878495,90.4111486 76.8,87.7222973 76.8,84.2601351 C76.8,81.0060811 75.9395694,78.5158784 74.2187082,76.789527 C72.4978471,75.0631757 70.0199951,74.2 66.7851522,74.2 L66.7851522,74.2 L57.8,74.2 L57.8,95.2 L66.4043059,95.2 Z M65.4303371,92.2 L62.2,92.2 L62.2,77 L64.8123596,77 C66.4790262,77 67.7477528,77.1756951 68.6185393,77.5270853 C69.4893258,77.8784755 70.2337079,78.5147766 70.8516854,79.4359888 C71.7505618,80.7750703 72.2,82.4512965 72.2,84.4646673 C72.2,87.0668541 71.6405431,89.0066229 70.5216292,90.2839738 C69.4027154,91.5613246 67.705618,92.2 65.4303371,92.2 L65.4303371,92.2 Z" id="path-1"></path>
        <filter x="-5.6%" y="-13.6%" width="111.2%" height="127.3%" filterUnits="objectBoundingBox" id="filter-2">
            <feMorphology radius="0.5" operator="dilate" in="SourceAlpha" result="shadowSpreadOuter1"></feMorphology>
            <feOffset dx="0" dy="0" in="shadowSpreadOuter1" result="shadowOffsetOuter1"></feOffset>
            <feGaussianBlur stdDeviation="0.5" in="shadowOffsetOuter1" result="shadowBlurOuter1"></feGaussianBlur>
            <feColorMatrix values="0 0 0 0 0   0 0 0 0 0   0 0 0 0 0  0 0 0 0.5 0" type="matrix" in="shadowBlurOuter1"></feColorMatrix>
        </filter>
    </defs>
    <g id="Icons" stroke="none" stroke-width="1" fill="none" fill-rule="evenodd">
        <g id="file/binary/file_psd">
            <g id="File/PSD">
                <g id="file_psd" stroke-width="1" fill-rule="evenodd" transform="translate(13.200000, 0.000000)">
                    <path d="M52.1789767,0 L2.50411163,0 C1.12111628,0 0,1.16964286 0,3.43928571 L0,98.2142857 C0,98.8303571 1.12111628,100 2.50411163,100 L71.0958884,100 C72.4788837,100 73.6,98.8303571 73.6,98.2142857 L73.6,23.175 C73.6,21.9321429 73.4408186,21.5321429 73.1601116,21.2375 L53.2436093,0.458928571 C52.9611907,0.166071429 52.577786,0 52.1789767,0 Z" id="Path" fill="#E9E9E0" fill-rule="nonzero"></path>
                    <path d="M71.0958884,100 L2.50411163,100 C1.12111628,100 0,98.8364118 0,97.4010235 L0,69.8 L73.6,69.8 L73.6,97.4010235 C73.6,98.8364118 72.4788837,100 71.0958884,100 Z" id="Path" fill="#5889C4" fill-rule="nonzero"></path>
                    <path d="M62.2617577,18.455376 C61.3025773,17.8000235 60.0202174,18.0830661 59.3945749,19.0889559 C56.4258807,23.8701985 51.1514245,30.3322787 48.6426396,32.9689293 L42.8668408,39.0391043 L37.0081754,32.8818393 L42.7798309,26.809487 C46.4487476,22.953576 55.7712349,14.9608886 59.5934547,13.5239031 C59.6763212,13.5108396 59.7819761,13.4912443 59.825481,13.4803581 C60.9048179,13.2256198 61.538747,12.1369944 61.348154,10.9917605 C61.1554892,9.84652663 60.072009,9.06489362 58.9802422,9.21947842 L58.3939613,9.35446797 C53.3411732,11.1245728 42.945564,20.4758647 39.8484266,23.7330317 L24.9635218,39.3765782 C24.7667138,39.3678692 24.5719774,39.3460967 24.3730976,39.3460967 C18.2181843,39.3460967 13.055598,43.9727544 11.9783328,50.2671863 L11.7545931,50.4261256 L11.7131599,51.593132 C11.6427233,53.6441022 11.0875174,60.4153519 6.85925148,61.4909138 C5.78820127,61.7717791 5.0817639,62.8516955 5.21642205,63.9991066 L5.55203159,66 L20.0122452,66 L20.0536785,66 L20.0536785,66 L24.3751693,65.9346825 C31.3504615,65.9346825 37.0268204,59.9690155 37.0268204,52.6382123 C37.0268204,52.2180029 37.0040321,51.8043253 36.9667421,51.3928249 L51.5699006,36.0475618 C54.2734219,33.2062496 59.7011812,26.5591032 62.8625402,21.468691 C63.4881827,20.4606239 63.2188664,19.1129057 62.2617577,18.455376 Z M24.1295495,61.6074115 L16.3795833,61.6074115 L16.4106744,61.672381 L12.9678571,61.672381 C14.8063755,58.7682483 15.3743056,55.0953109 15.5463428,52.9123387 L15.7163073,51.8208526 C16.1578004,47.2599999 19.7747276,43.8209524 24.1316222,43.8209524 C24.3824235,43.8209524 24.6187156,43.8750936 24.8653714,43.8989157 L25.2115186,43.9443943 C27.3775294,44.234591 29.2657934,45.3628931 30.6006365,47.0001222 C30.7208553,47.1495519 30.8452195,47.2924846 30.9550746,47.4505768 C31.1250391,47.688798 31.276349,47.9421787 31.4235133,48.1977251 C31.5271502,48.3818051 31.6245689,48.5702163 31.7178421,48.7607933 C31.8484246,49.0336648 31.9748616,49.3108676 32.0784985,49.5988987 C32.1406806,49.7721505 32.1862808,49.9540648 32.2380993,50.1338135 C32.3313724,50.4521636 32.4267184,50.7705137 32.4868278,51.106189 L32.4971915,51.1624959 C32.5821737,51.6692573 32.6464286,52.1825156 32.6464286,52.7130991 C32.6422831,57.616124 28.8243003,61.6074115 24.1295495,61.6074115 Z M34.4595039,44.6393389 C34.4448603,44.6194591 34.4323088,44.6017881 34.4176653,44.5819083 C33.1520479,42.7905143 31.4785043,41.345913 29.5392857,40.3960987 L33.980452,35.7066667 L39.8964286,41.9533524 L35.5640426,46.5257143 C35.2481613,45.8630531 34.8757978,45.2335251 34.4595039,44.6393389 Z" id="Shape" fill="#2C2C2C" fill-rule="nonzero"></path>
                    <polygon id="Path" fill="#D9D7CA" fill-rule="nonzero" points="53.4 0.6 53.4 21.6 73.6 21.6"></polygon>
                </g>
                <g id="PSD" fill-rule="nonzero">
                    <use fill="black" fill-opacity="1" filter="url(#filter-2)" xlink:href="#path-1"></use>
                    <use fill="#FFFFFF" xlink:href="#path-1"></use>
                </g>
            </g>
        </g>
    </g>
</svg>