<?xml version="1.0" encoding="UTF-8"?>
<svg width="100px" height="100px" viewBox="0 0 100 100" version="1.1" xmlns="http://www.w3.org/2000/svg" xmlns:xlink="http://www.w3.org/1999/xlink">
    <!-- Generator: sketchtool 63.1 (101010) - https://sketch.com -->
    <title>file/binary/microsoft/file_ms_powerpoint</title>
    <desc>Created with sketchtool.</desc>
    <defs>
        <polygon id="path-1" points="0 105.596365 126.586875 105.596365 126.586875 0 0 0"></polygon>
    </defs>
    <g id="Icons" stroke="none" stroke-width="1" fill="none" fill-rule="evenodd">
        <g id="file/binary/microsoft/file_ms_powerpoint">
            <g id="File/PowerPoint">
                <rect id="Rectangle" stroke="#979797" stroke-width="0.5" fill="#D8D8D8" x="47.45" y="16.25" width="47.3" height="66.1"></rect>
                <g id="file_ms_powerpoint" stroke-width="1" transform="translate(-13.400000, -4.800000)">
                    <g id="g12" transform="translate(64.000000, 54.600000) scale(-1, 1) rotate(-180.000000) translate(-64.000000, -54.600000) translate(0.000000, 1.600000)">
                        <g id="g14-Clipped">
                            <mask id="mask-2" fill="white">
                                <use xlink:href="#path-1"></use>
                            </mask>
                            <g id="path16"></g>
                            <g id="g14" mask="url(#mask-2)">
                                <g transform="translate(17.368196, 7.604291)">
                                    <g id="g20" transform="translate(0.018382, 0.030741)">
                                        <path d="M89.2218094,15.0112479 L52.7759291,15.0112479 L52.7759291,22.8186498 L81.1965517,22.8186498 L81.1965517,26.4420544 L52.7759291,26.4420544 L52.7759291,32.5671612 L81.1965517,32.5671612 L81.1965517,36.1905659 L52.7759291,36.1905659 L52.7759291,46.2600075 C55.0659049,43.5051847 58.4713547,41.7555979 62.2773863,41.7555979 C69.1735482,41.7555979 74.7635309,47.4914475 74.7635309,54.5664039 L62.2773863,54.5664039 L62.2773863,67.37721 C58.4713547,67.37721 55.0659049,65.6276231 52.7759291,62.8728003 L52.7759291,77.1267567 L89.2268545,77.1267567 L89.2218094,15.0112479 Z M89.2268545,80.2325321 L52.7759291,80.2325321 L52.7759291,90.0022664 L0.0545214348,80.6171306 L0.0545214348,9.44932177 L52.7759291,0.0641860257 L52.7759291,11.9054725 L89.2268545,11.9054725 C90.8962817,11.9054725 92.253921,13.2984128 92.253921,15.0112479 L92.253921,77.1267567 C92.253921,78.8395918 90.8962817,80.2325321 89.2268545,80.2325321" id="path22" fill="#CB4A32" fill-rule="nonzero"></path>
                                    </g>
                                    <g id="g24" transform="translate(64.229559, 56.350936)">
                                        <path d="M0,12.8692347 L0,0.0584286629 L12.4861447,0.0584286629 C12.4861447,7.13338511 6.89616193,12.8692347 0,12.8692347" id="path26" fill="#CB4A32" fill-rule="nonzero"></path>
                                    </g>
                                    <g id="g28" transform="translate(16.903006, 29.708933)">
                                        <path d="M5.47801553,15.9035139 C7.58132221,15.7378725 9.63569132,15.3346393 10.9131134,17.5718329 C11.8787476,19.2598219 11.7975213,22.3443745 10.6775067,23.6415534 C9.2290554,25.3186721 7.35782381,25.0795274 5.47801553,24.7741261 L5.47801553,15.9035139 Z M5.32968927,0.0226488042 L0.0489718129,0.0226488042 L0.0489718129,30.2635842 C4.12289877,30.2635842 8.17614077,30.3810861 12.2142474,30.184387 C13.2757388,30.132624 14.5082593,29.3230519 15.291765,28.4927746 C18.2905789,25.316084 18.2910834,21.3588084 17.3950717,17.4118855 C16.5964307,13.8966653 14.3861676,11.4234328 10.9025186,10.5538157 C9.16700053,10.12056 7.30989525,10.2002749 5.32968927,10.0330807 L5.32968927,0.0226488042 Z" id="path30" fill="#FFFFFF"></path>
                                    </g>
                                </g>
                            </g>
                        </g>
                    </g>
                </g>
            </g>
        </g>
    </g>
</svg>