<?xml version="1.0" encoding="UTF-8"?>
<svg width="100px" height="100px" viewBox="0 0 100 100" version="1.1" xmlns="http://www.w3.org/2000/svg" xmlns:xlink="http://www.w3.org/1999/xlink">
    <!-- Generator: sketchtool 63.1 (101010) - https://sketch.com -->
    <title>file/text/file_xml</title>
    <desc>Created with sketchtool.</desc>
    <defs>
        <path d="M22.7235849,95.2 L27.5915094,87.6939189 L32.1339623,95.2 L37.2,95.2 L30.5490566,84.1040541 L36.9735849,74.2 L33.45,74.2 L28.8367925,81.2662162 L24.5773585,74.2 L19.4971698,74.2 L25.9075472,84.8560811 L19.2,95.2 L22.7235849,95.2 Z M44.0455339,95.2 L44.0455339,79.1378378 L49.0856951,93.7952703 L52.6166555,93.7952703 L57.7564809,79.3506757 L57.7564809,95.2 L61.8,95.2 L61.8,74.2 L56.7028878,74.2 L51.477636,88.9709459 L46.4089993,74.2 L40.6,74.2 L40.6,95.2 L44.0455339,95.2 Z M81,95.2 L81,92.2202703 L71.5593846,92.2202703 L71.5593846,74.2 L67.2,74.2 L67.2,95.2 L81,95.2 Z" id="path-1"></path>
        <filter x="-6.2%" y="-14.3%" width="111.1%" height="128.6%" filterUnits="objectBoundingBox" id="filter-2">
            <feMorphology radius="0.5" operator="dilate" in="SourceAlpha" result="shadowSpreadOuter1"></feMorphology>
            <feOffset dx="0" dy="0" in="shadowSpreadOuter1" result="shadowOffsetOuter1"></feOffset>
            <feGaussianBlur stdDeviation="0.5" in="shadowOffsetOuter1" result="shadowBlurOuter1"></feGaussianBlur>
            <feColorMatrix values="0 0 0 0 0   0 0 0 0 0   0 0 0 0 0  0 0 0 0.5 0" type="matrix" in="shadowBlurOuter1"></feColorMatrix>
        </filter>
    </defs>
    <g id="Icons" stroke="none" stroke-width="1" fill="none" fill-rule="evenodd">
        <g id="file/text/file_xml">
            <g id="File/XML">
                <g id="xml" stroke-width="1" fill-rule="evenodd" transform="translate(11.600000, 0.000000)">
                    <path d="M54.4476279,0 L2.61298605,0 C1.16986047,0 0,1.16964286 0,3.43928571 L0,98.2142857 C0,98.8303571 1.16986047,100 2.61298605,100 L74.187014,100 C75.6301395,100 76.8,98.8303571 76.8,98.2142857 L76.8,23.175 C76.8,21.9321429 76.6338977,21.5321429 76.340986,21.2375 L55.5585488,0.458928571 C55.2638512,0.166071429 54.8637767,0 54.4476279,0 Z" id="Path" fill="#E9E9E0" fill-rule="nonzero"></path>
                    <polygon id="Path" fill="#D9D7CA" fill-rule="nonzero" points="55.8 0.6 55.8 21.6 76.8 21.6"></polygon>
                    <path d="M74.187014,100 L2.61298605,100 C1.16986047,100 0,98.8364118 0,97.4010235 L0,69.8 L76.8,69.8 L76.8,97.4010235 C76.8,98.8364118 75.6301395,100 74.187014,100 Z" id="Path" fill="#BD3700" fill-rule="nonzero"></path>
                    <g id="Group-3" transform="translate(5.000000, 24.200000)" fill="#BD3700">
                        <path d="M0.0146717326,7.69558967 L23.3824458,7.70878601 C23.7963285,7.70901974 24.1317884,8.04447962 24.1320221,8.45836234 L24.1357544,15.0674225 C24.1359883,15.481636 23.8003916,15.817612 23.3861781,15.8178459 C23.3858957,15.817846 23.3856133,15.817846 23.385331,15.8178459 L0.0175569395,15.8046495 C-0.396325788,15.8044158 -0.731785669,15.4689559 -0.732019398,15.0550732 L-0.73575169,8.4460131 C-0.735985607,8.0317996 -0.400388849,7.69582359 0.0138246473,7.69558967 C0.0141070091,7.69558951 0.0143893709,7.69558951 0.0146717326,7.69558967 Z" id="Rectangle" transform="translate(11.700001, 11.756718) rotate(-45.000000) translate(-11.700001, -11.756718) "></path>
                        <path d="M0.0175555799,19.5953537 L23.3853296,19.5821574 C23.7995431,19.5819235 24.1355191,19.9175202 24.135753,20.3317337 C24.1357532,20.3320161 24.1357532,20.3322985 24.135753,20.3325808 L24.1320208,26.9416371 C24.131787,27.3555198 23.7963271,27.6909797 23.3824444,27.6912134 L0.0146703751,27.7044098 C-0.399543121,27.7046437 -0.735519132,27.3690469 -0.735753048,26.9548334 C-0.735753207,26.9545511 -0.735753207,26.9542687 -0.735753048,26.9539863 L-0.732020758,20.3449301 C-0.731787029,19.9310473 -0.396327148,19.5955875 0.0175555799,19.5953537 Z" id="Rectangle-Copy" transform="translate(11.700000, 23.643284) rotate(45.000000) translate(-11.700000, -23.643284) "></path>
                    </g>
                    <g id="Group-3-Copy" transform="translate(58.200000, 42.200000) scale(-1, 1) translate(-58.200000, -42.200000) translate(46.200000, 24.200000)" fill="#BD3700">
                        <path d="M0.0146717326,7.69558967 L23.3824458,7.70878601 C23.7963285,7.70901974 24.1317884,8.04447962 24.1320221,8.45836234 L24.1357544,15.0674225 C24.1359883,15.481636 23.8003916,15.817612 23.3861781,15.8178459 C23.3858957,15.817846 23.3856133,15.817846 23.385331,15.8178459 L0.0175569395,15.8046495 C-0.396325788,15.8044158 -0.731785669,15.4689559 -0.732019398,15.0550732 L-0.73575169,8.4460131 C-0.735985607,8.0317996 -0.400388849,7.69582359 0.0138246473,7.69558967 C0.0141070091,7.69558951 0.0143893709,7.69558951 0.0146717326,7.69558967 Z" id="Rectangle" transform="translate(11.700001, 11.756718) rotate(-45.000000) translate(-11.700001, -11.756718) "></path>
                        <path d="M0.0175555799,19.5953537 L23.3853296,19.5821574 C23.7995431,19.5819235 24.1355191,19.9175202 24.135753,20.3317337 C24.1357532,20.3320161 24.1357532,20.3322985 24.135753,20.3325808 L24.1320208,26.9416371 C24.131787,27.3555198 23.7963271,27.6909797 23.3824444,27.6912134 L0.0146703751,27.7044098 C-0.399543121,27.7046437 -0.735519132,27.3690469 -0.735753048,26.9548334 C-0.735753207,26.9545511 -0.735753207,26.9542687 -0.735753048,26.9539863 L-0.732020758,20.3449301 C-0.731787029,19.9310473 -0.396327148,19.5955875 0.0175555799,19.5953537 Z" id="Rectangle-Copy" transform="translate(11.700000, 23.643284) rotate(45.000000) translate(-11.700000, -23.643284) "></path>
                    </g>
                    <path d="M14.7234777,38.3725499 L61.5344586,38.3806676 C61.8933556,38.3809553 62.1842836,38.6718833 62.1845712,39.0307803 L62.1855646,44.7613466 C62.1858522,45.1203317 61.8948877,45.411397 61.5359026,45.4114593 C61.5358275,45.4114593 61.5357523,45.4114593 61.5356773,45.4112339 L14.7246963,45.4031162 C14.3657993,45.4028285 14.0748713,45.1119005 14.0745837,44.7530035 L14.0735904,39.0224371 C14.0733028,38.6634521 14.3642672,38.3723867 14.7232523,38.3723245 C14.7233275,38.3723245 14.7234026,38.3723245 14.7234777,38.3725499 Z" id="Rectangle-Copy-2" fill="#BD3700" transform="translate(38.129577, 41.891892) rotate(-71.000000) translate(-38.129577, -41.891892) "></path>
                </g>
                <g id="XML" fill-rule="nonzero">
                    <use fill="black" fill-opacity="1" filter="url(#filter-2)" xlink:href="#path-1"></use>
                    <use fill="#FFFFFF" xlink:href="#path-1"></use>
                </g>
            </g>
        </g>
    </g>
</svg>