<?xml version="1.0" encoding="UTF-8"?>
<svg width="100px" height="100px" viewBox="0 0 100 100" version="1.1" xmlns="http://www.w3.org/2000/svg" xmlns:xlink="http://www.w3.org/1999/xlink">
    <!-- Generator: sketchtool 63.1 (101010) - https://sketch.com -->
    <title>file/binary/microsoft/file_ms_word</title>
    <desc>Created with sketchtool.</desc>
    <g id="Icons" stroke="none" stroke-width="1" fill="none" fill-rule="evenodd">
        <g id="file/binary/microsoft/file_ms_word">
            <g id="File/Word">
                <g id="file_ms_word" transform="translate(4.000000, 5.000000)">
                    <path d="M48.0821994,0.172972973 L54.3322814,0.172972973 C54.3322814,2.96094972 54.3322814,5.7384846 54.3322814,8.52646135 C65.5155386,8.58911251 76.6883441,8.41160088 87.8611497,8.58911251 C90.2441241,8.34894972 92.1149681,10.197159 91.8954836,12.5779032 C92.0731615,33.1483683 91.853677,53.7292753 92,74.2997404 C91.8954836,76.4089962 92.2090328,78.747973 90.9861907,80.617066 C89.4602509,81.7030195 87.4848906,81.5672753 85.7081114,81.6508102 C75.2460175,81.5986009 64.7943753,81.6194846 54.3322814,81.6194846 C54.3322814,84.4074613 54.3322814,87.1849962 54.3322814,89.972973 L47.800005,89.972973 C31.8926056,87.0701358 15.9433996,84.4074613 0.00464517432,81.6194846 C-0.0058064679,57.2586241 0.00464517432,32.8977637 0.00464517432,8.54734507 C16.0270127,5.74892646 32.0598319,3.02360088 48.0821994,0.172972973 Z" id="path6" fill="#2A5699" fill-rule="nonzero"></path>
                    <path d="M54.4,11.772973 C65.8666667,11.772973 77.3333333,11.772973 88.8,11.772973 C88.8,34.0361605 88.8,56.3097855 88.8,78.572973 C77.3333333,78.572973 65.8666667,78.572973 54.4,78.572973 C54.4,75.7861605 54.4,73.0097855 54.4,70.222973 C63.4378182,70.222973 72.4652121,70.222973 81.5030303,70.222973 C81.5030303,68.8347855 81.5030303,67.4361605 81.5030303,66.047973 C72.4652121,66.047973 63.4378182,66.047973 54.4,66.047973 C54.4,64.3049105 54.4,62.5722855 54.4,60.829223 C63.4378182,60.829223 72.4652121,60.829223 81.5030303,60.829223 C81.5030303,59.4410355 81.5030303,58.0424105 81.5030303,56.654223 C72.4652121,56.654223 63.4378182,56.654223 54.4,56.654223 C54.4,54.9111605 54.4,53.1785355 54.4,51.435473 C63.4378182,51.435473 72.4652121,51.435473 81.5030303,51.435473 C81.5030303,50.0472855 81.5030303,48.6486605 81.5030303,47.260473 C72.4652121,47.260473 63.4378182,47.260473 54.4,47.260473 C54.4,45.5174105 54.4,43.7847855 54.4,42.041723 C63.4378182,42.041723 72.4652121,42.041723 81.5030303,42.041723 C81.5030303,40.6535355 81.5030303,39.2549105 81.5030303,37.866723 C72.4652121,37.866723 63.4378182,37.866723 54.4,37.866723 C54.4,36.1236605 54.4,34.3910355 54.4,32.647973 C63.4378182,32.647973 72.4652121,32.647973 81.5030303,32.647973 C81.5030303,31.2597855 81.5030303,29.8611605 81.5030303,28.472973 C72.4652121,28.472973 63.4378182,28.472973 54.4,28.472973 C54.4,26.7299105 54.4,24.9972855 54.4,23.254223 C63.4378182,23.254223 72.4652121,23.254223 81.5030303,23.254223 C81.5030303,21.8660355 81.5030303,20.4674105 81.5030303,19.079223 C72.4652121,19.079223 63.4378182,19.079223 54.4,19.079223 C54.4,16.6472855 54.4,14.2049105 54.4,11.772973 Z" id="path46" fill="#FFFFFF" fill-rule="nonzero"></path>
                    <path d="M21.6773041,30.1957142 C23.6666458,30.0807556 25.6559875,29.9971494 27.6453292,29.8926416 C29.0378683,36.9469177 30.4618182,43.9907431 31.9695298,51.0136669 C33.1526646,43.7608259 34.461442,36.5288865 35.7283386,29.2864964 C37.8223824,29.2133409 39.9164263,29.0983823 42,28.972973 C39.6337304,39.0997783 37.560627,49.3101898 34.9744828,59.3742905 C33.2259561,60.2835083 30.6084013,59.3324874 28.5352978,59.4787983 C27.1427586,52.5603823 25.5198746,45.6837694 24.2739185,38.734001 C23.0489028,45.4852045 21.4574295,52.1737034 20.0544201,58.8831038 C18.0441379,58.778596 16.0233856,58.6531867 14.0026332,58.5173266 C12.2645768,49.3206406 10.222884,40.1866594 8.6,30.9690719 C10.3904075,30.8854656 12.1912853,30.8123102 13.9816928,30.7496055 C15.0601254,37.406752 16.2851411,44.0325462 17.2274608,50.7001435 C18.7037618,43.8653337 20.2114734,37.0305239 21.6773041,30.1957142 L21.6773041,30.1957142 Z" id="path88" fill="#FFFFFF" fill-rule="nonzero"></path>
                </g>
            </g>
        </g>
    </g>
</svg>