<?xml version="1.0" encoding="UTF-8"?>
<svg width="100px" height="100px" viewBox="0 0 100 100" version="1.1" xmlns="http://www.w3.org/2000/svg" xmlns:xlink="http://www.w3.org/1999/xlink">
    <!-- Generator: sketchtool 63.1 (101010) - https://sketch.com -->
    <title>file/binary/microsoft/file_ms_access</title>
    <desc>Created with sketchtool.</desc>
    <g id="Icons" stroke="none" stroke-width="1" fill="none" fill-rule="evenodd">
        <g id="file/binary/microsoft/file_ms_access">
            <g id="File/Access">
                <g id="file_ms_access" transform="translate(4.000000, 4.800000)">
                    <path d="M48.090908,0 L54.342726,0 C54.342726,3.04227266 54.342726,6.07409077 54.342726,9.11636343 C64.4418167,7.83045437 75.0009074,7.92454527 84.6922708,11.3536361 C88.3409071,12.597727 92.3136343,15.4413633 91.9581797,19.7904541 C92,35.8590901 92,51.9381806 91.9581797,68.0172712 C92.3240888,72.4186347 88.2468162,75.2413619 84.5563617,76.4749983 C74.8545438,79.6949982 64.4104531,80.0818164 54.342726,78.6495437 C54.342726,82.4027254 54.342726,86.1559071 54.342726,89.9090889 L47.8295444,89.9090889 C31.907272,87.0027253 15.9431815,84.3472708 0,81.5454527 C0,57.1549987 0,32.7645447 0,8.38454526 C16.0268178,5.58272715 32.0745447,2.85409084 48.090908,0 Z" id="path22" fill="#A33639" fill-rule="nonzero"></path>
                    <path d="M54.342726,12.2945452 C63.6786349,11.0086361 73.401362,11.0504543 82.4759072,13.8209088 C84.9745435,14.7513633 88.319998,15.8699996 88.8845434,18.849545 C88.4663616,21.2854541 85.9259071,22.3831813 83.9186345,23.2613631 C74.4363619,26.4604539 64.1804531,26.7636358 54.342726,25.2790903 C54.342726,20.9509086 54.342726,16.6227269 54.342726,12.2945452 L54.342726,12.2945452 Z" id="path50" fill="#FFFFFF" fill-rule="nonzero"></path>
                    <path d="M75.7536346,28.5618175 C80.3536345,27.8822721 85.1522708,26.8890903 88.8740889,23.8990904 C88.6440889,28.3945448 89.2295434,32.942272 88.5604525,37.3959082 C86.6890889,39.6227264 83.7199981,40.4172718 81.0436345,41.1804536 C72.3140893,43.239999 63.2081804,43.2922717 54.342726,42.1527263 C54.342726,37.6363628 54.342726,33.1199992 54.342726,28.6036357 C61.4413622,29.5027266 68.6549984,29.4922721 75.7536346,28.5618175 L75.7536346,28.5618175 Z" id="path66" fill="#FFFFFF" fill-rule="nonzero"></path>
                    <path d="M21.3377268,27.4849994 C23.7736358,27.3072721 26.1990903,27.1399994 28.6454539,26.9518176 C32.1477265,38.6609082 35.4722719,50.4327261 38.9327264,62.1522713 C36.5177264,61.9954531 34.1027265,61.8177259 31.7086356,61.5981804 C31.0709084,58.9845441 30.3913629,56.3709078 29.701363,53.7677261 C26.4918176,53.7572715 23.2822722,53.6527261 20.0831814,53.4959079 C19.4663632,55.9736351 18.8390905,58.4409078 18.2013632,60.9081804 C16.1522724,60.7513623 14.113636,60.6049986 12.0749997,60.4690895 C15.1277269,49.4604534 18.3059087,38.4936355 21.3377268,27.4849994 Z" id="path78" fill="#FFFFFF" fill-rule="nonzero"></path>
                    <path d="M21.3899995,47.8504535 C22.4459086,42.9577263 24.0140904,38.1799991 24.7145449,33.2140902 C25.655454,38.1695446 27.1086357,42.9995445 28.3004539,47.8922716 C25.9899994,47.8818171 23.6899995,47.8713625 21.3899995,47.8504535 Z" id="path98" fill="#A33639" fill-rule="nonzero"></path>
                    <path d="M75.8163619,45.2786353 C80.4059073,44.5990899 85.1731799,43.6059081 88.8740889,40.6263627 C88.664998,45.1113626 89.1981798,49.6381807 88.5813616,54.091817 C86.7518162,56.3290896 83.7827254,57.1236351 81.1168163,57.8868169 C72.366362,59.9672714 63.2290895,60.0195441 54.342726,58.8904532 C54.342726,54.3636351 54.342726,49.8472716 54.342726,45.3309081 C61.4622713,46.2404535 68.6968166,46.2195444 75.8163619,45.2786353 L75.8163619,45.2786353 Z" id="path110" fill="#FFFFFF" fill-rule="nonzero"></path>
                    <path d="M75.7745437,62.0059077 C80.3745436,61.3368168 85.1522708,60.3331804 88.8740889,57.3536351 C88.6545434,61.838635 89.2190889,66.3863621 88.5604525,70.8399984 C85.6018162,74.0599983 80.9077254,74.6559074 76.8409073,75.4818165 C69.3868166,76.6213619 61.7654531,76.642271 54.3009079,75.5654528 C54.3740897,71.0595438 54.342726,66.5640894 54.342726,62.0581804 C61.4518168,62.9677258 68.665453,62.9468168 75.7745437,62.0059077 L75.7745437,62.0059077 Z" id="path118" fill="#FFFFFF" fill-rule="nonzero"></path>
                </g>
            </g>
        </g>
    </g>
</svg>