<?xml version="1.0" encoding="UTF-8"?>
<svg width="100px" height="100px" viewBox="0 0 100 100" version="1.1" xmlns="http://www.w3.org/2000/svg" xmlns:xlink="http://www.w3.org/1999/xlink">
    <!-- Generator: sketchtool 63.1 (101010) - https://sketch.com -->
    <title>file/binary/file_zip</title>
    <desc>Created with sketchtool.</desc>
    <defs>
        <path d="M43.4,95.6 L43.4,92.5635135 L32.7703839,92.5635135 L43.4,77.1352703 L43.4,74.2 L28.2065814,74.2 L28.2065814,77.1352703 L38.2296161,77.1352703 L27.6,92.5635135 L27.6,95.6 L43.4,95.6 Z M52.4,95.6 L52.4,74.2 L48,74.2 L48,95.6 L52.4,95.6 Z M62.1948869,95.6 L62.1948869,87.2135135 L64.0576205,87.2135135 C66.7547034,87.2135135 68.852704,86.5700676 70.3516224,85.2831757 C71.8505408,83.9962838 72.6,82.1960811 72.6,79.8825676 C72.6,77.838964 72.0397247,76.3809685 70.919174,75.5085811 C69.7986234,74.6361937 67.9286136,74.2 65.3091445,74.2 L65.3091445,74.2 L57.8,74.2 L57.8,95.6 L62.1948869,95.6 Z M63.0678304,84.4 L62.2,84.4 L62.2,77.2 L63.9356608,77.2 C66.6452203,77.2 68,78.2736842 68,80.4210526 C68,81.6453441 67.5588529,82.6145749 66.6765586,83.3287449 C65.7942643,84.042915 64.5913549,84.4 63.0678304,84.4 L63.0678304,84.4 Z" id="path-1"></path>
        <filter x="-6.7%" y="-14.0%" width="113.3%" height="128.0%" filterUnits="objectBoundingBox" id="filter-2">
            <feMorphology radius="0.5" operator="dilate" in="SourceAlpha" result="shadowSpreadOuter1"></feMorphology>
            <feOffset dx="0" dy="0" in="shadowSpreadOuter1" result="shadowOffsetOuter1"></feOffset>
            <feGaussianBlur stdDeviation="0.5" in="shadowOffsetOuter1" result="shadowBlurOuter1"></feGaussianBlur>
            <feColorMatrix values="0 0 0 0 0   0 0 0 0 0   0 0 0 0 0  0 0 0 0.5 0" type="matrix" in="shadowBlurOuter1"></feColorMatrix>
        </filter>
    </defs>
    <g id="Icons" stroke="none" stroke-width="1" fill="none" fill-rule="evenodd">
        <g id="file/binary/file_zip">
            <g id="File/Zip">
                <g id="file_zip" stroke-width="1" fill-rule="evenodd" transform="translate(11.600000, 0.000000)">
                    <path d="M54.4476279,0 L2.61298605,0 C1.16986047,0 0,1.16964286 0,3.43928571 L0,98.2142857 C0,98.8303571 1.16986047,100 2.61298605,100 L74.187014,100 C75.6301395,100 76.8,98.8303571 76.8,98.2142857 L76.8,23.175 C76.8,21.9321429 76.6338977,21.5321429 76.340986,21.2375 L55.5585488,0.458928571 C55.2638512,0.166071429 54.8637767,0 54.4476279,0 Z" id="Path" fill="#E9E9E0" fill-rule="nonzero"></path>
                    <polygon id="Path" fill="#D9D7CA" fill-rule="nonzero" points="55.8 0.6 55.8 21.6 76.8 21.6"></polygon>
                    <path d="M74.187014,100 L2.61298605,100 C1.16986047,100 0,98.8364118 0,97.4010235 L0,69.8 L76.8,69.8 L76.8,97.4010235 C76.8,98.8364118 75.6301395,100 74.187014,100 Z" id="Path" fill="#374E90" fill-rule="nonzero"></path>
                    <g id="Group" transform="translate(28.600000, 3.800000)" fill="#2C2C2C" fill-rule="nonzero">
                        <path d="M13.32,40.6285714 L13.32,36.1142857 L17.76,36.1142857 L17.76,31.6 L13.32,31.6 L13.32,27.0857143 L17.76,27.0857143 L17.76,22.5714286 L13.32,22.5714286 L13.32,18.0571429 L17.76,18.0571429 L17.76,13.5428571 L13.32,13.5428571 L13.32,9.02857143 L17.76,9.02857143 L17.76,4.51428571 L13.32,4.51428571 L13.32,0 L8.88,0 L8.88,4.51428571 L4.44,4.51428571 L4.44,9.02857143 L8.88,9.02857143 L8.88,13.5428571 L4.44,13.5428571 L4.44,18.0571429 L8.88,18.0571429 L8.88,22.5714286 L4.44,22.5714286 L4.44,27.0857143 L8.88,27.0857143 L8.88,31.6 L4.44,31.6 L4.44,36.1142857 L8.88,36.1142857 L8.88,40.6285714 L0,40.6285714 L0,51.9142857 C0,58.1372286 4.97946,63.2 11.1,63.2 C17.22054,63.2 22.2,58.1372286 22.2,51.9142857 L22.2,40.6285714 L13.32,40.6285714 Z M17.76,51.9142857 C17.76,55.6476 14.77188,58.6857143 11.1,58.6857143 C7.42812,58.6857143 4.44,55.6476 4.44,51.9142857 L4.44,45.1428571 L17.76,45.1428571 L17.76,51.9142857 Z" id="Shape"></path>
                        <path d="M8.79878049,54.017094 L13.4012195,54.017094 C14.6714927,54.017094 15.702439,53.0512684 15.702439,51.8564103 C15.702439,50.6615521 14.6714927,49.6957265 13.4012195,49.6957265 L8.79878049,49.6957265 C7.52850732,49.6957265 6.49756098,50.6615521 6.49756098,51.8564103 C6.49756098,53.0512684 7.52850732,54.017094 8.79878049,54.017094 Z" id="Path"></path>
                    </g>
                </g>
                <g id="ZIP" fill-rule="nonzero">
                    <use fill="black" fill-opacity="1" filter="url(#filter-2)" xlink:href="#path-1"></use>
                    <use fill="#FFFFFF" xlink:href="#path-1"></use>
                </g>
            </g>
        </g>
    </g>
</svg>