<?xml version="1.0" encoding="UTF-8"?>
<svg width="100px" height="100px" viewBox="0 0 100 100" version="1.1" xmlns="http://www.w3.org/2000/svg" xmlns:xlink="http://www.w3.org/1999/xlink">
    <!-- Generator: sketchtool 63.1 (101010) - https://sketch.com -->
    <title>meta/heart_small</title>
    <desc>Created with sketchtool.</desc>
    <defs>
        <radialGradient cx="49.9975263%" cy="49.99844%" fx="49.9975263%" fy="49.99844%" r="235.711005%" gradientTransform="translate(0.499975,0.499984),scale(0.212121,1.000000),translate(-0.499975,-0.499984)" id="radialGradient-1">
            <stop stop-color="#000000" offset="0%"></stop>
            <stop stop-color="#000000" stop-opacity="0" offset="100%"></stop>
        </radialGradient>
        <linearGradient x1="-3.28448515%" y1="100.000835%" x2="-3.28448515%" y2="0.000134908592%" id="linearGradient-2">
            <stop stop-color="#AF0400" offset="0%"></stop>
            <stop stop-color="#E85752" offset="100%"></stop>
        </linearGradient>
        <radialGradient cx="49.9999623%" cy="-19.5489949%" fx="49.9999623%" fy="-19.5489949%" r="75.7959606%" gradientTransform="translate(0.500000,-0.195490),scale(0.920940,1.000000),rotate(-0.973586),translate(-0.500000,0.195490)" id="radialGradient-3">
            <stop stop-color="#EEEEEE" offset="0%"></stop>
            <stop stop-color="#EEEEEE" stop-opacity="0" offset="100%"></stop>
        </radialGradient>
    </defs>
    <g id="Icons" stroke="none" stroke-width="1" fill="none" fill-rule="evenodd">
        <g id="meta/heart_small">
            <g id="Annotations/Heart" transform="translate(14.800000, 14.800000)">
                <path d="M39.8274857,47.9412328 C39.8274857,45.3877073 37.7522395,43.3124612 35.198714,43.3124612 C32.6370821,43.3124612 30.5699424,45.3877073 30.5699424,47.9412328 C30.5699424,49.8867761 31.7615876,51.5404878 33.4558316,52.2295344 L33.3585544,52.6672816 L31.8669712,59.0389357 L38.5385633,59.0389357 L37.0469801,52.6672816 L36.9497029,52.2295344 C38.627734,51.5323814 39.8274857,49.8786696 39.8274857,47.9412328 Z" id="Keyhole" fill="#2F2F2F" fill-rule="nonzero"></path>
                <g id="Group" stroke-width="1" fill-rule="evenodd" transform="translate(0.000000, 1.971200)">
                    <path d="M42.0992,65.12 C42.0992,65.9364978 38.9788038,66.5984 35.1296,66.5984 C31.2803962,66.5984 28.16,65.9364978 28.16,65.12 C28.16,64.3035022 31.2803962,63.6416 35.1296,63.6416 C38.9788038,63.6416 42.0992,64.3035022 42.0992,65.12 L42.0992,65.12 Z" id="1" fill="url(#radialGradient-1)" opacity="0.23"></path>
                    <path d="M51.1141913,0 C44.4661512,0.0177218538 38.6083198,3.4412428 35.1650478,8.59602793 C31.6979643,3.46624449 25.8597111,0.0697826722 19.2159043,0.087426109 C8.60858582,0.11559195 -0.0280953111,8.7838414 0,19.3933912 C0.0277930983,29.8374536 5.46809835,36.6163411 12.2807345,42.9099786 C19.0933707,49.2036162 27.3392141,55.26498 33.9946287,64.7842486 C34.3021777,65.2215428 34.805701,65.4788494 35.3402182,65.472 C35.8747354,65.4648731 36.3713618,65.1944908 36.6673768,64.7493057 C42.8961757,55.2760723 51.1205981,49.0130369 57.9794853,42.5954923 C64.8383731,36.1779477 70.4268915,29.367875 70.4,19.2012052 C70.3717511,8.59429085 61.7202816,-0.0280953632 51.1141913,0 Z" id="2" fill="#9C0F0F" fill-rule="nonzero"></path>
                    <path d="M19.0957537,1.6333637 C9.38408278,1.65914255 1.52307902,9.56045672 1.5488,19.2702294 C1.60131692,39.0233286 21.5446921,44.1495262 35.1772448,63.6416 C47.9652647,44.1992114 68.6202866,38.2148074 68.5696,19.0923266 C68.543726,9.3825567 60.6408768,1.52308289 50.929188,1.5488 C43.8847232,1.56756261 37.8327601,5.74232797 35.0394029,11.7329446 C32.214285,5.7572405 26.1402347,1.6146626 19.0957537,1.6333637 Z" id="4" fill="url(#linearGradient-2)" fill-rule="nonzero"></path>
                    <path d="M51.0808465,2.2528 C44.2554371,2.2710099 38.3928646,6.30636188 35.68809,12.1167503 C35.6016109,12.317086 35.4060721,12.4482028 35.1881729,12.4519653 C34.9702737,12.4557277 34.7703379,12.3314396 34.6770143,12.1342085 C31.9411031,6.33747213 26.0749582,2.32200223 19.2493931,2.34015263 C9.83926243,2.36517301 2.2278783,10.0253405 2.2528,19.4491986 C2.27858979,29.1542757 7.13180409,35.1972097 13.7930706,41.3592523 C20.3061187,47.3841851 28.5155277,53.4668143 35.3045786,62.9376 C41.6973592,53.4819339 49.8801003,47.2003979 56.4500074,41.0450045 C63.1725983,34.7465627 68.1719648,28.6331668 68.1472,19.2571582 C68.1221279,9.83239965 60.4914207,2.22783857 51.0808465,2.2528 Z" id="5" stroke="url(#radialGradient-3)" stroke-width="0.54"></path>
                </g>
            </g>
        </g>
    </g>
</svg>