<?xml version="1.0" encoding="UTF-8"?>
<svg width="100px" height="100px" viewBox="0 0 100 100" version="1.1" xmlns="http://www.w3.org/2000/svg" xmlns:xlink="http://www.w3.org/1999/xlink">
    <!-- Generator: sketchtool 63.1 (101010) - https://sketch.com -->
    <title>action/import_arrow</title>
    <desc>Created with sketchtool.</desc>
    <g id="Icons" stroke="none" stroke-width="1" fill="none" fill-rule="evenodd">
        <g id="action/import_arrow" fill="#F1F35B" fill-rule="nonzero">
            <g id="Group-4" transform="translate(15.600000, 15.600000)">
                <g id="Group" transform="translate(0.073981, 0.073981)">
                    <g id="Group-Copy" transform="translate(46.727077, 22.726293) rotate(-180.000000) translate(-46.727077, -22.726293) translate(24.227077, 0.226293)">
                        <path d="M37.92981,1.1942594 C39.5255192,-0.39762931 42.1084933,-0.39762931 43.7042026,1.1942594 C45.2960913,2.78996865 45.2960913,5.37294279 43.7042026,6.96865204 L6.96830917,43.7045455 C5.37259992,45.2964342 2.78962578,45.2964342 1.19391654,43.7045455 C-0.397972179,42.1088362 -0.397972179,39.5258621 1.19391654,37.9301528 L37.92981,1.1942594 Z" id="Path"></path>
                        <path d="M36.7356485,8.16232367 L20.4072786,8.16232367 C18.1533601,8.16232367 16.3242065,6.3369906 16.3242065,4.0830721 C16.3242065,1.82915361 18.1533601,-5.04646829e-14 20.4072786,-5.04646829e-14 L40.8148021,-5.04646829e-14 C43.0687206,-5.04646829e-14 44.8978742,1.82915361 44.8978742,4.0830721 L44.8978742,24.4905956 C44.8978742,26.7445141 43.0687206,28.5736677 40.8148021,28.5736677 C38.5608836,28.5736677 36.7355505,26.7445141 36.7355505,24.4905956 L36.7356485,8.16232367 Z" id="Path"></path>
                    </g>
                    <path d="M61.2255094,34.695337 C61.2255094,32.4414185 63.054663,30.6122649 65.3085815,30.6122649 C67.5625,30.6122649 69.3916536,32.4414185 69.3916536,34.695337 L69.3916536,57.6557602 C69.3916536,64.138127 64.1376371,69.3916536 57.6557602,69.3916536 L11.7358934,69.3916536 C5.25352665,69.3916536 1.39212918e-14,64.1376371 1.39212918e-14,57.6557602 L1.39212918e-14,11.7358934 C1.39212918e-14,5.25352665 5.25401646,1.39212918e-14 11.7358934,1.39212918e-14 L36.6095219,1.39212918e-14 C38.8634404,1.39212918e-14 40.692594,1.82915361 40.692594,4.0830721 C40.692594,6.3369906 38.8634404,8.1661442 36.6095219,8.1661442 L11.7358934,8.1661442 C9.76518417,8.1661442 8.16565439,9.76567398 8.16565439,11.7363832 L8.16565439,57.65625 C8.16565439,59.6269592 9.76518417,61.226489 11.7358934,61.226489 L57.6557602,61.226489 C59.6264694,61.226489 61.2259992,59.6269592 61.2259992,57.65625 L61.2255094,34.695337 Z" id="Path"></path>
                </g>
            </g>
        </g>
    </g>
</svg>