<?xml version="1.0" encoding="UTF-8"?>
<svg width="100px" height="100px" viewBox="0 0 100 100" version="1.1" xmlns="http://www.w3.org/2000/svg" xmlns:xlink="http://www.w3.org/1999/xlink">
    <!-- Generator: sketchtool 63.1 (101010) - https://sketch.com -->
    <title>link/site/link_website_apple</title>
    <desc>Created with sketchtool.</desc>
    <g id="Icons" stroke="none" stroke-width="1" fill="none" fill-rule="evenodd">
        <g id="link/site/link_website_apple" fill="#B3B3B3" fill-rule="nonzero">
            <g id="link_apple" transform="translate(10.000000, 0.000000)">
                <g id="g186" transform="translate(37.088906, 55.449651) scale(-1, 1) rotate(-180.000000) translate(-37.088906, -55.449651) translate(0.088906, 20.949651)">
                    <path d="M61.5513331,42.4981282 C61.4500915,53.7921877 70.775565,59.2142362 71.1974049,59.4785892 C65.9497168,67.1560749 57.7828969,68.2078624 54.8693895,68.3316021 C47.9230929,69.0346685 41.3086437,64.2425675 37.7876868,64.2425675 C34.26673,64.2425675 28.8221834,68.2303605 23.062663,68.1178698 C15.4807943,68.0053792 8.50075054,63.7138616 4.59732558,56.9306764 C-3.2713942,43.2799381 2.58936778,23.0484977 10.2499799,11.9681704 C14.0015425,6.5517464 18.4674206,0.44912956 24.3394317,0.674110826 C29.9977105,0.899092092 32.1350325,4.3300564 38.963214,4.3300564 C45.7913954,4.3300564 47.7149852,0.674110826 53.6938624,0.780976928 C59.7739811,0.899092092 63.6324098,6.31551607 67.3558497,11.7488136 C71.6529919,18.03704 73.4303439,24.1227833 73.5315855,24.4433816 C73.3965967,24.4996269 61.6750728,28.9936277 61.5513331,42.4981282" id="path188"></path>
                </g>
                <path d="M50.4078336,14.2881972 C53.5237831,10.5141313 55.6273374,5.2663664 55.0479542,0.0357570499 C50.5592396,0.215936896 45.1262599,3.02806941 41.9033059,6.80213528 C39.017998,10.1376312 36.4869793,15.4807825 37.1728543,20.6049 C42.178872,20.9929978 47.2913713,18.0567154 50.4078336,14.2881972" id="path190"></path>
            </g>
        </g>
    </g>
</svg>