<?xml version="1.0" encoding="UTF-8"?>
<svg width="100px" height="100px" viewBox="0 0 100 100" version="1.1" xmlns="http://www.w3.org/2000/svg" xmlns:xlink="http://www.w3.org/1999/xlink">
    <!-- Generator: sketchtool 63.1 (101010) - https://sketch.com -->
    <title>link/site/link_website_stackoverflow</title>
    <desc>Created with sketchtool.</desc>
    <g id="Icons" stroke="none" stroke-width="1" fill="none" fill-rule="evenodd">
        <g id="link/site/link_website_stackoverflow" fill-rule="nonzero">
            <g id="Stack_Overflow_icon" transform="translate(8.000000, 0.000000)">
                <polygon id="Path" fill="#BCBBBB" points="70.9090909 89.6818182 70.9090909 63.3181818 79.6590909 63.3181818 79.6590909 98.4318182 0.681818182 98.4318182 0.681818182 63.3181818 9.43181818 63.3181818 9.43181818 89.6818182"></polygon>
                <path d="M19.0909091,60.8181818 L62.0454545,69.7954545 L63.8636364,61.1590909 L20.9090909,52.1818182 L19.0909091,60.8181818 L19.0909091,60.8181818 Z M24.7727273,40.3636364 L64.5454545,58.8863636 L68.1818182,50.9318182 L28.4090909,32.2954545 L24.7727273,40.3636364 Z M35.7954545,20.8181818 L69.5454545,48.8863636 L75.1136364,42.1818182 L41.3636364,14.1136364 L35.7954545,20.8181818 L35.7954545,20.8181818 Z M57.6136364,0.0227272727 L50.5681818,5.25 L76.7045455,40.4772727 L83.75,35.25 L57.6136364,0.0227272727 Z M18.1818182,80.8181818 L62.0454545,80.8181818 L62.0454545,72.0681818 L18.1818182,72.0681818 L18.1818182,80.8181818 Z" id="Shape" fill="#F48023"></path>
            </g>
        </g>
    </g>
</svg>