<?xml version="1.0" encoding="UTF-8"?>
<svg width="100px" height="100px" viewBox="0 0 100 100" version="1.1" xmlns="http://www.w3.org/2000/svg" xmlns:xlink="http://www.w3.org/1999/xlink">
    <!-- Generator: sketchtool 63.1 (101010) - https://sketch.com -->
    <title>link/site/link_website_google</title>
    <desc>Created with sketchtool.</desc>
    <g id="Icons" stroke="none" stroke-width="1" fill="none" fill-rule="evenodd">
        <g id="link/site/link_website_google" fill-rule="nonzero">
            <g id="link_google" transform="translate(4.000000, 3.000000)">
                <path d="M92.0707348,48.1282756 C92.0707348,44.941543 91.8123511,41.7375848 91.2611325,38.6025289 L47.043064,38.6025289 L47.043064,56.6549386 L72.3646692,56.6549386 C71.3139087,62.4771853 67.9376947,67.6276342 62.9939527,70.9004948 L62.9939527,82.6138904 L78.100788,82.6138904 C86.9719626,74.4489646 92.0707348,62.3910574 92.0707348,48.1282756 Z" id="Path" fill="#4285F4"></path>
                <path d="M47.043064,93.9310977 C59.686641,93.9310977 70.3492762,89.7797325 78.1180136,82.6138904 L63.0111783,70.9004948 C58.8081363,73.7599414 53.3820781,75.3791461 47.0602895,75.3791461 C34.8301264,75.3791461 24.4603262,67.1280924 20.7396005,56.0348177 L5.15044896,56.0348177 L5.15044896,68.1099505 C13.1086678,83.9402602 29.3179403,93.9310977 47.043064,93.9310977 Z" id="Path" fill="#34A853"></path>
                <path d="M20.7223749,56.0348177 C18.7586586,50.212571 18.7586586,43.9080081 20.7223749,38.0857614 L20.7223749,26.0106286 L5.15044896,26.0106286 C-1.49862562,39.257101 -1.49862562,54.8634781 5.15044896,68.1099505 L20.7223749,56.0348177 L20.7223749,56.0348177 Z" id="Path" fill="#FBBC04"></path>
                <path d="M47.043064,18.7242074 C53.7265897,18.6208539 60.1861829,21.1357889 65.0265714,25.7522448 L78.4108485,12.3679677 C69.9358622,4.40974895 58.6875573,0.0344511636 47.043064,0.172255818 C29.3179403,0.172255818 13.1086678,10.1630933 5.15044896,26.0106286 L20.7223749,38.0857614 C24.425875,26.9752611 34.8129009,18.7242074 47.043064,18.7242074 Z" id="Path" fill="#EA4335"></path>
            </g>
        </g>
    </g>
</svg>