<?xml version="1.0" encoding="UTF-8"?>
<svg width="100px" height="100px" viewBox="0 0 100 100" version="1.1" xmlns="http://www.w3.org/2000/svg" xmlns:xlink="http://www.w3.org/1999/xlink">
    <!-- Generator: sketchtool 63.1 (101010) - https://sketch.com -->
    <title>link/site/link_website_swift.org</title>
    <desc>Created with sketchtool.</desc>
    <g id="Icons" stroke="none" stroke-width="1" fill="none" fill-rule="evenodd">
        <g id="link/site/link_website_swift.org" fill-rule="nonzero">
            <g id="Group" transform="translate(3.000000, 3.000000)">
                <path d="M93.9352627,26.0192079 C93.9316065,25.0744616 93.9176863,24.1297828 93.8935045,23.1853388 C93.8365613,21.1277942 93.7169808,19.0512686 93.3506467,17.0165013 C93.0014553,14.9754738 92.3495492,12.9980041 91.4164789,11.1494622 C89.5264556,7.4356214 86.5082994,4.41613627 82.7952911,2.52447816 C80.9471507,1.59245295 78.9703699,0.941202838 76.9301501,0.592208409 C74.8915865,0.225874361 72.8150609,0.104395713 70.7575163,0.0493507008 C69.8103625,0.0227772465 68.8670048,0.0113886233 67.9217491,0.00569431163 C66.7999697,0 65.6781903,0 64.5545128,0 L29.3864442,0 C28.2627667,0 27.1428854,0 26.021106,0.00569431163 C25.0758503,0.0132867271 24.1305946,0.0246753504 23.1853388,0.0493507008 C22.6709527,0.0626374279 22.1546684,0.0816184667 21.6383842,0.106293817 C20.0914295,0.180319868 18.5406787,0.316983347 17.012705,0.592208409 C15.4891654,0.857292209 13.9987286,1.28622234 12.5673458,1.87153042 C10.1691858,2.864242 7.98986838,4.31927016 6.15365277,6.15365277 C4.68910482,7.61731103 3.46435798,9.30261905 2.52447816,11.1475641 C1.5678338,13.0266869 0.962338665,14.947568 0.592208409,17.0146031 C0.225874361,19.0512686 0.104395713,21.1277942 0.0493507008,23.1834407 C0.0227772465,24.1324927 0.0113886233,25.0758503 0.00569431163,26.0192079 C0,27.1428854 0,28.2646648 0,29.3864442 L0,64.5545128 C0,65.6781903 0,66.7999697 0.00569431163,67.9217491 C0.0132867271,68.8670048 0.0246753504,69.8122606 0.0493507008,70.7556182 C0.106293817,72.8150609 0.225874361,74.8915865 0.592208409,76.9244558 C0.940655035,78.9666289 1.59191784,80.9453675 2.52447816,82.7952911 C4.41484864,86.5101768 7.43457644,89.5299046 11.1494622,91.4202751 C13.0266869,92.3750213 14.947568,92.9805165 17.0146031,93.3525448 C19.0493705,93.7188789 21.1277942,93.8403575 23.1853388,93.8954026 C24.1305946,93.9200779 25.0758503,93.9314665 26.021106,93.9371608 C27.1409873,93.9447533 28.2627667,93.9430661 29.3864442,93.9430661 L64.5545128,93.9430661 C65.6743941,93.9430661 66.7980716,93.9447533 67.919851,93.9371608 C68.8651067,93.9314665 69.8084644,93.9200779 70.7537201,93.8954026 C72.8131628,93.8384594 74.8915865,93.7188789 76.9263539,93.3525448 C78.9665737,93.0035504 80.9433545,92.3523003 82.7914949,91.4202751 C86.5054418,89.5292606 89.5243837,86.5096542 91.4145808,82.7952911 C92.3712251,80.9161682 92.9767203,78.993389 93.3487486,76.928252 C93.7150827,74.8934846 93.8365613,72.816959 93.8916063,70.7575163 C93.9162817,69.8141587 93.9276703,68.8689029 93.9333646,67.9236472 C93.940957,66.8018678 93.9392698,65.6800884 93.9392698,64.5564109 L93.9392698,29.3864442 C93.9392698,28.2646648 93.9392698,27.1428854 93.9333646,26.0192079 L93.9352627,26.0192079 Z" id="Path" fill="#F05138"></path>
                <path d="M74.4379397,57.9870734 L74.4322454,57.9813791 C74.534743,57.6264337 74.6410368,57.2752845 74.7340439,56.9127466 C78.6327493,41.3786645 69.1156564,23.0126114 53.0140413,13.3436703 C60.0711915,22.9101138 63.1897761,34.4961398 60.4166464,44.6282183 C60.1698929,45.5336139 59.8737887,46.4010474 59.5454167,47.2438055 C59.0866718,46.948318 58.6168688,46.6703617 58.1370236,46.4105379 C58.1370236,46.4105379 42.1170269,36.5214167 24.7569689,19.0265933 C24.3014239,18.5672521 34.0140215,32.909325 45.0382088,44.5560904 C39.8449966,41.6425009 25.3700564,31.1099225 16.207909,22.7240996 C17.3334846,24.6032224 18.6735459,26.4102173 20.1445764,28.1507786 C27.7958332,37.8538856 37.7760633,49.8271249 49.7303216,59.02154 C41.3312119,64.1616053 29.4623684,64.5602071 17.6447736,59.0272343 C14.7515607,57.6684365 11.9998354,56.0268111 9.42978006,54.1263301 C14.7140267,62.5190031 22.4113772,69.118717 31.5123206,73.0599163 C42.6959486,77.8659153 53.8150411,77.5394415 62.0964683,73.1396367 L62.090774,73.1491272 C62.1287361,73.1244518 62.1761887,73.0997765 62.2160489,73.073203 C62.5558095,72.8928832 62.8936719,72.7049709 63.2220439,72.5094662 C67.2023677,70.4443292 75.0624159,68.3488225 79.2800027,76.5562236 C80.3144693,78.5663156 82.5105755,67.919851 74.4398378,57.9889715 L74.4379397,57.9870734 Z" id="Path" fill="#FFFFFF"></path>
            </g>
        </g>
    </g>
</svg>