<?xml version="1.0" encoding="UTF-8"?>
<svg width="100px" height="100px" viewBox="0 0 100 100" version="1.1" xmlns="http://www.w3.org/2000/svg" xmlns:xlink="http://www.w3.org/1999/xlink">
    <!-- Generator: sketchtool 63.1 (101010) - https://sketch.com -->
    <title>link/site/link_website_apple__light</title>
    <desc>Created with sketchtool.</desc>
    <g id="Icons" stroke="none" stroke-width="1" fill="none" fill-rule="evenodd">
        <g id="link/site/link_website_apple__light" fill="#6F6F6F" fill-rule="nonzero">
            <g id="link_apple" transform="translate(10.000000, 0.000000)">
                <path d="M61.6402386,63.3776728 C61.538997,74.6717324 70.8644705,80.0937809 71.2863104,80.3581339 C66.0386224,88.0356196 57.8718024,89.087407 54.958295,89.2111467 C48.0119984,89.9142132 41.3975492,85.1221122 37.8765924,85.1221122 C34.3556356,85.1221122 28.9110889,89.1099051 23.1515685,88.9974145 C15.5696999,88.8849239 8.58965608,84.5934062 4.68623112,77.810221 C-3.18248866,64.1594827 2.67827332,43.9280424 10.3388854,32.847715 C14.090448,27.431291 18.5563262,21.3286742 24.4283372,21.5536555 C30.0866161,21.7786367 32.2239381,25.209601 39.0521195,25.209601 C45.8803009,25.209601 47.8038908,21.5536555 53.7827679,21.6605216 C59.8628866,21.7786367 63.7213153,27.1950607 67.4447553,32.6283583 C71.7418975,38.9165847 73.5192495,45.0023279 73.620491,45.3229262 C73.4855023,45.3791715 61.7639783,49.8731723 61.6402386,63.3776728" id="path188" transform="translate(37.286264, 55.414598) scale(-1, 1) rotate(-180.000000) translate(-37.286264, -55.414598) "></path>
                <path d="M50.4078336,14.2881972 C53.5237831,10.5141313 55.6273374,5.2663664 55.0479542,0.0357570499 C50.5592396,0.215936896 45.1262599,3.02806941 41.9033059,6.80213528 C39.017998,10.1376312 36.4869793,15.4807825 37.1728543,20.6049 C42.178872,20.9929978 47.2913713,18.0567154 50.4078336,14.2881972" id="path190"></path>
            </g>
        </g>
    </g>
</svg>