<?xml version="1.0" encoding="UTF-8"?>
<svg width="100px" height="100px" viewBox="0 0 100 100" version="1.1" xmlns="http://www.w3.org/2000/svg" xmlns:xlink="http://www.w3.org/1999/xlink">
    <!-- Generator: sketchtool 63.1 (101010) - https://sketch.com -->
    <title>link/site/link_website_youtube</title>
    <desc>Created with sketchtool.</desc>
    <g id="Icons" stroke="none" stroke-width="1" fill="none" fill-rule="evenodd">
        <g id="link/site/link_website_youtube" fill-rule="nonzero">
            <g id="link_youtube" transform="translate(0.000000, 23.000000)">
                <path d="M97.1405222,10.866013 C95.9967314,6.61764701 92.6470582,3.26797383 88.3986922,2.12418299 C80.6372543,0 49.5915029,0 49.5915029,0 C49.5915029,0 18.5457515,0 10.7843136,2.04248365 C6.61764701,3.18627449 3.18627449,6.61764701 2.04248365,10.866013 C0,18.6274508 0,34.722222 0,34.722222 C0,34.722222 0,50.8986925 2.04248365,58.578431 C3.18627449,62.8267969 6.53594767,66.1764701 10.7843136,67.320261 C18.6274508,69.444444 49.5915029,69.444444 49.5915029,69.444444 C49.5915029,69.444444 80.6372543,69.444444 88.3986922,67.4019603 C92.6470582,66.2581695 95.9967314,62.9084963 97.1405222,58.6601303 C99.1834227,50.8986925 99.1834227,34.8039213 99.1834227,34.8039213 C99.1834227,34.8039213 99.2647052,18.6274508 97.1405222,10.866013 Z" id="path7" fill="#FF0000"></path>
                <polygon id="polygon9" fill="#FFFFFF" points="65.5228754 34.722222 39.7058821 19.852941 39.7058821 49.5915029"></polygon>
            </g>
        </g>
    </g>
</svg>