<?xml version="1.0" encoding="UTF-8"?>
<svg width="100px" height="100px" viewBox="0 0 100 100" version="1.1" xmlns="http://www.w3.org/2000/svg" xmlns:xlink="http://www.w3.org/1999/xlink">
    <!-- Generator: sketchtool 63.1 (101010) - https://sketch.com -->
    <title>app/MarginNote_app_logo_mindmap_document_blue_deepwork</title>
    <desc>Created with sketchtool.</desc>
    <defs>
        <circle id="path-1" cx="40.2473834" cy="40.2473834" r="40.2473834"></circle>
        <filter x="-8.0%" y="-8.0%" width="116.0%" height="116.0%" filterUnits="objectBoundingBox" id="filter-2">
            <feMorphology radius="0.45" operator="dilate" in="SourceAlpha" result="shadowSpreadOuter1"></feMorphology>
            <feOffset dx="0" dy="2" in="shadowSpreadOuter1" result="shadowOffsetOuter1"></feOffset>
            <feGaussianBlur stdDeviation="1" in="shadowOffsetOuter1" result="shadowBlurOuter1"></feGaussianBlur>
            <feComposite in="shadowBlurOuter1" in2="SourceAlpha" operator="out" result="shadowBlurOuter1"></feComposite>
            <feColorMatrix values="0 0 0 0 0.859233469   0 0 0 0 0.837539789   0 0 0 0 0.837539789  0 0 0 0.5 0" type="matrix" in="shadowBlurOuter1" result="shadowMatrixOuter1"></feColorMatrix>
            <feMorphology radius="0.05" operator="erode" in="SourceAlpha" result="shadowSpreadOuter2"></feMorphology>
            <feOffset dx="0" dy="0" in="shadowSpreadOuter2" result="shadowOffsetOuter2"></feOffset>
            <feGaussianBlur stdDeviation="2" in="shadowOffsetOuter2" result="shadowBlurOuter2"></feGaussianBlur>
            <feComposite in="shadowBlurOuter2" in2="SourceAlpha" operator="out" result="shadowBlurOuter2"></feComposite>
            <feColorMatrix values="0 0 0 0 0.597316576   0 0 0 0 0.597316576   0 0 0 0 0.597316576  0 0 0 0.5 0" type="matrix" in="shadowBlurOuter2" result="shadowMatrixOuter2"></feColorMatrix>
            <feMerge>
                <feMergeNode in="shadowMatrixOuter1"></feMergeNode>
                <feMergeNode in="shadowMatrixOuter2"></feMergeNode>
            </feMerge>
        </filter>
    </defs>
    <g id="Icons" stroke="none" stroke-width="1" fill="none" fill-rule="evenodd">
        <g id="app/MarginNote_app_logo_mindmap_document_blue_deepwork">
            <g id="App/MarginNote" transform="translate(7.183635, 7.183635)">
                <g id="MarginNote" transform="translate(2.568982, 2.568982)">
                    <g id="Oval">
                        <use fill="black" fill-opacity="1" filter="url(#filter-2)" xlink:href="#path-1"></use>
                        <use stroke="#E7E7E7" stroke-width="0.9" fill="#FFFFFF" fill-rule="evenodd" xlink:href="#path-1"></use>
                    </g>
                    <path d="M31.6387921,22.8970781 C35.5354343,22.8970781 38.6942871,26.0757978 38.6942871,29.9969473 C38.6942871,32.1994753 37.6976307,34.1677577 36.1333899,35.4700239 L36.1764652,35.4894586 C31.9402361,38.657543 29.198212,43.7138806 29.198212,49.4106521 C29.198212,49.9016239 29.218579,50.3878387 29.2585142,50.8684977 L29.196222,50.8400781 L29.198212,50.9415614 C29.198212,54.7826874 26.1669764,57.9113777 22.3803445,58.0374796 L22.142717,58.0414306 C18.2460747,58.0414306 15.087222,54.8627109 15.087222,50.9415614 C15.087222,48.3757831 16.4397331,46.1278874 18.466453,44.8804428 C22.2605013,41.693909 24.6720454,36.914694 24.6720454,31.5722308 C24.6720454,31.4026572 24.6696159,31.233651 24.6647896,31.0652452 C24.610428,30.7173638 24.5832971,30.3603439 24.5832971,29.9969473 C24.5832971,26.0757978 27.7421498,22.8970781 31.6387921,22.8970781 Z" id="Combined-Shape" stroke="#2B8BE1" stroke-width="0.5" fill="#1D94FF"></path>
                    <path d="M49.1222199,22.8970781 C53.0188622,22.8970781 56.1777149,26.0757978 56.1777149,29.9969473 C56.1777149,32.1994753 55.1810585,34.1677577 53.6168178,35.4700239 L53.659893,35.4894586 C49.423664,38.657543 46.6816399,43.7138806 46.6816399,49.4106521 C46.6816399,49.9016239 46.7020069,50.3878387 46.741942,50.8684977 L46.6796499,50.8400781 L46.6816399,50.9415614 C46.6816399,54.7826874 43.6504043,57.9113777 39.8637724,58.0374796 L39.6261449,58.0414306 C35.7295026,58.0414306 32.5706499,54.8627109 32.5706499,50.9415614 C32.5706499,48.3757831 33.923161,46.1278874 35.9498809,44.8804428 C39.7439292,41.693909 42.1554733,36.914694 42.1554733,31.5722308 C42.1554733,31.4026572 42.1530437,31.233651 42.1482175,31.0652452 C42.0938558,30.7173638 42.0667249,30.3603439 42.0667249,29.9969473 C42.0667249,26.0757978 45.2255776,22.8970781 49.1222199,22.8970781 Z" id="Combined-Shape-Copy" stroke="#2B8BE1" stroke-width="0.5" fill="#1D94FF"></path>
                    <path d="M58.1745531,58.0414306 C62.0711954,58.0414306 65.2300481,54.8627109 65.2300481,50.9415614 C65.2896895,49.4878465 64.8712413,48.1464808 64.1469949,46.439535 C62.9485451,43.079015 59.7730182,37.9807699 58.1745531,37.9807699 C55.8928118,37.9455093 53.3571674,42.6574914 51.8992329,46.4344239 C51.1190581,48.071074 51.1190581,49.5369937 51.1190581,50.9415614 C51.1190581,54.8627109 54.2779108,58.0414306 58.1745531,58.0414306 Z" id="Oval-Copy-4" stroke="#2B8BE1" stroke-width="0.5" fill="#1D94FF"></path>
                </g>
            </g>
        </g>
    </g>
</svg>