<?xml version="1.0" encoding="UTF-8"?>
<svg width="100px" height="100px" viewBox="0 0 100 100" version="1.1" xmlns="http://www.w3.org/2000/svg" xmlns:xlink="http://www.w3.org/1999/xlink">
    <!-- Generator: sketchtool 63.1 (101010) - https://sketch.com -->
    <title>meta/round_information</title>
    <desc>Created with sketchtool.</desc>
    <defs>
        <linearGradient x1="0.0213623056%" y1="50.0019945%" x2="100%" y2="50.0019945%" id="linearGradient-1">
            <stop stop-color="#016AE4" offset="0.0105574324%"></stop>
            <stop stop-color="#000000" offset="100%"></stop>
        </linearGradient>
        <linearGradient x1="8.35539435e-16%" y1="50%" x2="99.9997648%" y2="50%" id="linearGradient-2">
            <stop stop-color="#0048CD" offset="0%"></stop>
            <stop stop-color="#002AA0" offset="100%"></stop>
        </linearGradient>
        <radialGradient cx="5.87979933%" cy="6.87332533%" fx="5.87979933%" fy="6.87332533%" r="81.3538442%" id="radialGradient-3">
            <stop stop-color="#FFFFFF" stop-opacity="0" offset="0%"></stop>
            <stop stop-color="#FFFFFF" stop-opacity="0" offset="83.784%"></stop>
            <stop stop-color="#FFFFFF" stop-opacity="0" offset="100%"></stop>
        </radialGradient>
        <radialGradient cx="50%" cy="50%" fx="50%" fy="50%" r="50%" id="radialGradient-4">
            <stop stop-color="#FFFFFF" stop-opacity="0.79381" offset="0%"></stop>
            <stop stop-color="#FFFFFF" stop-opacity="0" offset="83.784%"></stop>
            <stop stop-color="#FFFFFF" stop-opacity="0" offset="100%"></stop>
        </radialGradient>
        <radialGradient cx="50%" cy="50%" fx="50%" fy="50%" r="50%" id="radialGradient-5">
            <stop stop-color="#0465CE" stop-opacity="0.196814904" offset="0%"></stop>
            <stop stop-color="#0054FF" stop-opacity="0.41237" offset="100%"></stop>
        </radialGradient>
    </defs>
    <g id="Icons" stroke="none" stroke-width="1" fill="none" fill-rule="evenodd">
        <g id="meta/round_information">
            <g id="Annotations/Information" transform="translate(7.183635, 7.183635)">
                <g id="round_information" transform="translate(1.712655, 1.712655)">
                    <path d="M41.1037108,0 C18.4384396,0 0,18.4384396 0,41.1037108 C0,63.7689819 18.4384396,82.2074215 41.1037108,82.2074215 C63.7689819,82.2074215 82.2074215,63.7689819 82.2074215,41.1037108 C82.2074215,18.4384396 63.7689819,0 41.1037108,0 Z" id="Outer-border" fill="#003FC0" fill-rule="nonzero"></path>
                    <path d="M79.6384396,41.1037108 C79.6384396,62.3526166 62.3526166,79.6384396 41.1037108,79.6384396 C19.8548049,79.6384396 2.56898192,62.3526166 2.56898192,41.1037108 C2.56898192,19.8548049 19.8548049,2.56898192 41.1037108,2.56898192 C62.3526166,2.56898192 79.6384396,19.8548049 79.6384396,41.1037108 Z" id="Inner-border" fill="#649EFA" fill-rule="nonzero"></path>
                    <path d="M41.1037108,47.6272122 C54.4915319,47.6272122 65.990295,40.0178877 75.5486204,29.2966698 C70.6333016,14.9975452 57.0502379,4.69267364 41.1037108,4.69267364 C25.1571836,4.69267364 11.5741199,14.9975452 6.65880114,29.2966698 C16.2171265,40.0178877 27.7158896,47.6272122 41.1037108,47.6272122 Z" id="path2826" fill="url(#linearGradient-1)" fill-rule="nonzero"></path>
                    <path d="M41.1037108,47.6272122 C27.7158896,47.6272122 16.2171265,40.0178877 6.65880114,29.2966698 C5.38578497,33.0011418 4.69284491,36.9727878 4.69284491,41.1037108 C4.69284491,61.1811608 21.0262607,77.5147479 41.103882,77.5147479 C61.1815033,77.5147479 77.5149191,61.1811608 77.5149191,41.1037108 C77.5149191,36.9727878 76.821294,33.0011418 75.5487916,29.2966698 C65.9904662,40.0178877 54.4917031,47.6272122 41.103882,47.6272122 L41.1037108,47.6272122 Z" id="path2828" fill="url(#linearGradient-2)" fill-rule="nonzero"></path>
                    <g id="layer4" transform="translate(2.568982, 2.568982)" fill="url(#radialGradient-3)">
                        <path d="M77.0694577,38.5347288 C77.0694577,59.7836346 59.7836346,77.0694577 38.5347288,77.0694577 C17.285823,77.0694577 0,59.7836346 0,38.5347288 C0,17.285823 17.285823,0 38.5347288,0 C59.7836346,0 77.0694577,17.285823 77.0694577,38.5347288 Z" id="White-shine"></path>
                    </g>
                    <g id="layer3" fill="url(#radialGradient-4)">
                        <path d="M41.1037108,0 C18.4384396,0 0,18.4384396 0,41.1037108 C0,63.7689819 18.4384396,82.2074215 41.1037108,82.2074215 C63.7689819,82.2074215 82.2074215,63.7689819 82.2074215,41.1037108 C82.2074215,18.4384396 63.7689819,0 41.1037108,0 Z" id="path3846"></path>
                    </g>
                    <g id="layer1" transform="translate(2.568982, 2.568982)" fill="url(#radialGradient-5)">
                        <path d="M77.0694577,38.5347288 C77.0694577,59.7836346 59.7836346,77.0694577 38.5347288,77.0694577 C17.285823,77.0694577 0,59.7836346 0,38.5347288 C0,17.285823 17.285823,0 38.5347288,0 C59.7836346,0 77.0694577,17.285823 77.0694577,38.5347288 Z" id="Shine-overlay"></path>
                    </g>
                    <g id="layer2" transform="translate(29.800190, 12.502379)" fill="#FFFFFF" fill-rule="nonzero" stroke="#0064D4" stroke-width="0.5">
                        <g id="g2831">
                            <path d="M5.00780209,30.8517602 C5.00780209,25.6470029 4.83653663,25.5613701 0.0582302569,24.9636537 L0.0582302569,22.0624167 L18.4041865,22.0624167 L18.4041865,49.1120837 C18.4041865,53.9760228 18.8306375,54.4024738 23.3537583,54.9145576 L23.3537583,58.2422455 L0.0582302569,58.2422455 L0.0582302569,54.9145576 C4.58135109,54.4024738 5.00780209,53.9760228 5.00780209,49.1120837 L5.00780209,30.8517602 Z M18.9162702,7.47059943 C18.9162702,11.5672693 15.674215,14.8949572 11.4919125,14.8949572 C7.48258801,14.8949572 4.06926736,11.5672693 4.06926736,7.47059943 C4.06926736,3.29035205 7.48258801,0.0477830637 11.4919125,0.0477830637 C15.674215,0.0477830637 18.9162702,3.29035205 18.9162702,7.47059943 Z" id="path2833"></path>
                        </g>
                    </g>
                </g>
            </g>
        </g>
    </g>
</svg>