<?xml version="1.0" encoding="UTF-8"?>
<svg width="100px" height="100px" viewBox="0 0 100 100" version="1.1" xmlns="http://www.w3.org/2000/svg" xmlns:xlink="http://www.w3.org/1999/xlink">
    <!-- Generator: sketchtool 63.1 (101010) - https://sketch.com -->
    <title>meta/tag</title>
    <desc>Created with sketchtool.</desc>
    <g id="Icons" stroke="none" stroke-width="1" fill="none" fill-rule="evenodd">
        <g id="meta/tag" fill="#FFFFFF" fill-rule="nonzero">
            <g id="np_tag_3457145_FFFFFF" transform="translate(50.000000, 50.000000) rotate(90.000000) translate(-50.000000, -50.000000) ">
                <path d="M7.6523,-0.000394 L43.5973,-0.000394 C45.6598,-0.000394 47.5348,0.78906 48.9957,2.2422 L96.3707,49.6092 C101.2145,54.453 101.2105,62.4102 96.374606,67.2572 L67.272606,96.3702 C62.413206,101.1944 54.463606,101.2296 49.612606,96.374106 L2.241606,49.007106 C0.784606,47.522706 -0.000594,45.679006 -0.000594,43.596906 L-0.000594,7.651906 C-0.000594,3.433106 3.433006,-0.000394 7.651706,-0.000394 L7.6523,-0.000394 Z M43.5973,5.625 L7.6523,5.625 C6.539,5.625 5.625,6.53906 5.625,7.6523 L5.625,43.5973 C5.625,44.18714 5.79297,44.6168 6.21094,45.0387 L53.58194,92.3937 C56.23424,95.046 60.64054,95.0578 63.29674,92.405419 L92.39074,63.300419 C95.05484,60.655919 95.04694,56.241819 92.394646,53.593419 L45.027646,6.222419 C44.629206,5.796639 44.168266,5.628669 43.594046,5.628669 L43.5973,5.625 Z" id="Shape"></path>
                <path d="M26.938,16.988 C32.4224,16.988 36.895,21.4568 36.895,26.9411 C36.895,32.4294 32.4262,36.8981 26.938,36.8981 C21.4458,36.8981 16.9849,32.4293 16.9849,26.9411 C16.9849,21.4528 21.4497,16.988 26.938,16.988 Z M22.6099,26.9411 C22.6099,29.3434 24.5396,31.277 26.938,31.277 C29.3403,31.277 31.2739,29.3473 31.2739,26.9411 C31.2739,24.5466 29.3325,22.613 26.938,22.613 C24.5435,22.613 22.6099,24.5505 22.6099,26.9411 Z" id="Shape"></path>
            </g>
        </g>
    </g>
</svg>