<?xml version="1.0" encoding="UTF-8"?>
<svg width="100px" height="100px" viewBox="0 0 100 100" version="1.1" xmlns="http://www.w3.org/2000/svg" xmlns:xlink="http://www.w3.org/1999/xlink">
    <!-- Generator: sketchtool 63.1 (101010) - https://sketch.com -->
    <title>meta/tag__light</title>
    <desc>Created with sketchtool.</desc>
    <g id="Icons" stroke="none" stroke-width="1" fill="none" fill-rule="evenodd">
        <g id="meta/tag__light" fill="#6D6D6D" fill-rule="nonzero">
            <g id="Group" transform="translate(-0.002396, -0.000251)">
                <path d="M7.652894,0 L43.597894,0 C45.660394,0 47.535394,0.789454 48.996294,2.242594 L96.371294,49.609594 C101.215094,54.453394 101.211094,62.410594 96.3752,67.257594 L67.2732,96.370594 C62.4138,101.194794 54.4642,101.229994 49.6132,96.3745 L2.2422,49.0075 C0.7852,47.5231 1.42108547e-14,45.6794 1.42108547e-14,43.5973 L1.42108547e-14,7.6523 C1.42108547e-14,3.4335 3.4336,0 7.6523,0 L7.652894,0 Z M43.597894,5.625394 L7.652894,5.625394 C6.539594,5.625394 5.625594,6.539454 5.625594,7.652694 L5.625594,43.597694 C5.625594,44.187534 5.793564,44.617194 6.211534,45.039094 L53.582534,92.394094 C56.234834,95.046394 60.641134,95.058194 63.297334,92.405813 L92.391334,63.300813 C95.055434,60.656313 95.047534,56.242213 92.39524,53.593813 L45.02824,6.222813 C44.6298,5.797033 44.16886,5.629063 43.59464,5.629063 L43.597894,5.625394 Z" id="Shape" transform="translate(50.001566, 50.001224) rotate(90.000000) translate(-50.001566, -50.001224) "></path>
                <path d="M73.0573957,16.9851514 C78.5417957,16.9851514 83.0143957,21.4539514 83.0143957,26.9382514 C83.0143957,32.4265514 78.5455957,36.8952514 73.0573957,36.8952514 C67.5651957,36.8952514 63.1042957,32.4264514 63.1042957,26.9382514 C63.1042957,21.4499514 67.5690957,16.9851514 73.0573957,16.9851514 Z M68.7292957,26.9382514 C68.7292957,29.3405514 70.6589957,31.2741514 73.0573957,31.2741514 C75.4596957,31.2741514 77.3932957,29.3444514 77.3932957,26.9382514 C77.3932957,24.5437514 75.4518957,22.6101514 73.0573957,22.6101514 C70.6628957,22.6101514 68.7292957,24.5476514 68.7292957,26.9382514 Z" id="Shape" transform="translate(73.059346, 26.940201) rotate(90.000000) translate(-73.059346, -26.940201) "></path>
            </g>
        </g>
    </g>
</svg>