<?xml version="1.0" encoding="UTF-8"?>
<svg width="100px" height="100px" viewBox="0 0 100 100" version="1.1" xmlns="http://www.w3.org/2000/svg" xmlns:xlink="http://www.w3.org/1999/xlink">
    <!-- Generator: sketchtool 63.1 (101010) - https://sketch.com -->
    <title>meta/tip</title>
    <desc>Created with sketchtool.</desc>
    <g id="Icons" stroke="none" stroke-width="1" fill="none" fill-rule="evenodd">
        <g id="meta/tip" fill="#F1F35B" fill-rule="nonzero">
            <g id="meta_tip" transform="translate(12.000000, 0.000000)">
                <path d="M38.4995285,18 C23.1582133,18 17,29.8994637 17,38.2690245 C17,50.4940343 26.5395259,59.5137407 28.7280442,69 L48.2719558,69 C50.459814,59.5175261 60,50.4940343 60,38.2690245 C60,29.899653 53.8415981,18 38.5004715,18 L38.4995285,18 Z" id="Path"></path>
                <path d="M29.000385,77.766542 C29.000385,80.5344821 30.0817909,81.6229285 32.8318271,81.6229285 L33.2221306,81.6229285 L33.5981155,82.7582453 C34.1710397,84.4918062 34.8728489,85 36.6847561,85 L40.3192039,85 C42.1311111,85 42.8293453,84.4918246 43.4022695,82.7618436 L43.7782545,81.6265268 L44.1685579,81.6265268 C46.9221692,81.6265268 48,80.5380805 48,77.7701403 L48,72 L29,72 L29.000385,77.766542 Z" id="Path"></path>
                <path d="M39,13 C40.2188572,13 41,12.2037676 41,10.967329 L41,2.02884905 C41,0.79623236 40.2188668,0 39,0 C37.7849104,0 37,0.79623236 37,2.03267097 L37,10.9711509 C37,12.2037676 37.7849104,13 39,13 L39,13 Z" id="Path"></path>
                <path d="M55.7784926,17.523426 C56.6826133,18.266598 57.7255337,18.1314715 58.4303758,17.181867 L63.5454249,10.2756441 C64.2537662,9.32228262 64.125628,8.2225621 63.2215074,7.4793324 C62.3173867,6.73241298 61.2744663,6.86752993 60.5696242,7.82089137 L55.4545751,14.7271143 C54.7462338,15.6804758 54.874372,16.7801963 55.7784926,17.523426 Z" id="Path"></path>
                <path d="M76.9273884,29.4942537 C76.6468124,28.3455958 75.7403115,27.787848 74.6144716,28.0740965 L66.4634126,30.1474489 C65.3374806,30.433688 64.7943591,31.3584858 65.0713529,32.5070498 C65.3519289,33.6557077 66.2584298,34.2097916 67.3842697,33.9272069 L75.5317373,31.8538545 C76.6612607,31.5712886 77.2079736,30.6428176 76.9273884,29.4942537 Z" id="Path"></path>
                <path d="M72.7896535,52.4661589 L64.82228,49.1909578 C63.7241365,48.7393192 62.6931209,49.1047677 62.2075433,50.1183828 C61.7182173,51.1353906 62.1104278,52.0801143 63.212358,52.5351773 L71.1760022,55.8069363 C72.2741457,56.262017 73.3051613,55.896572 73.7907388,54.8795113 C74.2837942,53.8659457 73.8878544,52.9177799 72.7896535,52.4661589 L72.7896535,52.4661589 Z" id="Path"></path>
                <path d="M18.5696251,17.1793179 C19.2744132,18.132441 20.31738,18.2675145 21.2215105,17.5207914 C22.125632,16.7740587 22.2537612,15.6783115 21.5454284,14.7251788 L16.4303749,7.82068215 C15.7255868,6.86755902 14.68262,6.73248545 13.7784895,7.47920856 C12.874368,8.22219484 12.7462388,9.32168849 13.4545716,10.2748212 L18.5696251,17.1793179 Z" id="Path"></path>
                <path d="M11.9273629,32.5070561 C12.2079928,31.3583946 11.6611288,30.4336973 10.5350356,30.1474479 L2.38600182,28.0740892 C1.25985337,27.7878492 0.353279467,28.3456456 0.0726403634,29.4942507 C-0.20799874,30.6428557 0.338874493,31.5676094 1.46496768,31.8538588 L9.61400146,33.9272176 C10.7401499,34.2097843 11.6467238,33.6556611 11.9273629,32.5070561 Z" id="Path"></path>
                <path d="M12.1782027,49.1895198 L4.21214017,52.466145 C3.11044863,52.91798 2.71826441,53.8664522 3.2074908,54.8805469 C3.6967363,55.8979969 4.72373883,56.2601925 5.82179726,55.8083751 L13.7878598,52.5317499 C14.8895514,52.0799149 15.2817356,51.1314427 14.7925092,50.117348 C14.307002,49.1033416 13.2799899,48.741146 12.1782027,49.1895198 L12.1782027,49.1895198 Z" id="Path"></path>
            </g>
        </g>
    </g>
</svg>