<?xml version="1.0" encoding="UTF-8"?>
<svg width="100px" height="100px" viewBox="0 0 100 100" version="1.1" xmlns="http://www.w3.org/2000/svg" xmlns:xlink="http://www.w3.org/1999/xlink">
    <!-- Generator: sketchtool 63.1 (101010) - https://sketch.com -->
    <title>user/user_1_female</title>
    <desc>Created with sketchtool.</desc>
    <g id="Icons" stroke="none" stroke-width="1" fill="none" fill-rule="evenodd">
        <g id="user/user_1_female" fill-rule="nonzero" stroke="#383838" stroke-width="1.5">
            <g id="Person/Female" transform="translate(7.136061, 7.136061)">
                <path d="M41.5288023,39.1985616 C24.4521185,39.6830859 11.0572457,67.6369413 17.3743551,77.1166055 C23.6914644,86.5962698 60.7574011,86.5962698 66.7960129,77.1166055 C72.8346247,67.6369413 59.1612544,38.6981795 41.5288023,39.1985616 L41.5288023,39.1985616 Z" id="Path" fill="#ED68E2"></path>
                <path d="M28.8144988,44.896932 L57.2934493,44.896932 C57.2934493,44.896932 57.7478925,73.1523698 47.5983438,73.1523698 C38.0548298,73.1523698 28.8144988,44.896932 28.8144988,44.896932 L28.8144988,44.896932 Z" id="Path" fill="#FFFFFF"></path>
                <path d="M64.3498497,33.0851948 C64.3498497,46.1509792 54.8718451,56.7500726 43.1652111,56.7762966 C31.4585771,56.8024235 21.9428497,46.2457987 21.8955174,33.1801203 C21.848537,20.114442 31.2877554,9.47259824 42.9941984,9.39306841 C54.7006414,9.31442513 64.2545941,19.8279545 64.3491571,32.8933126" id="Path" fill="#FFCCAA"></path>
                <path d="M35.1198675,26.3455019 C35.1198675,26.3455019 45.0009713,36.7839296 55.1428469,35.9695581 C65.300062,35.1538988 72.1421005,30.4239211 72.1421005,30.4239211 C72.1421005,30.4239211 66.9036552,1.88473726 43.5007665,1.41254895 C25.1792464,1.02899714 16.1577692,18.6069488 13.4837844,30.4239211 C10.7753165,42.3929748 14.4907931,42.3475956 18.4497386,41.3277916 C22.4086841,40.3079875 35.1201129,26.3453179 35.1201129,26.3453179 L35.1198675,26.3455019 Z" id="Path" fill="#D38D5F"></path>
            </g>
        </g>
    </g>
</svg>