<?xml version="1.0" encoding="UTF-8"?>
<svg width="100px" height="100px" viewBox="0 0 100 100" version="1.1" xmlns="http://www.w3.org/2000/svg" xmlns:xlink="http://www.w3.org/1999/xlink">
    <!-- Generator: sketchtool 63.1 (101010) - https://sketch.com -->
    <title>app/waitinglist</title>
    <desc>Created with sketchtool.</desc>
    <g id="Icons" stroke="none" stroke-width="1" fill="none" fill-rule="evenodd">
        <g id="app/waitinglist" fill="#F3F36D">
            <g id="Group" transform="translate(0.000000, 0.500000)">
                <circle id="Oval" cx="33.1360947" cy="8.28402367" r="2.95857988"></circle>
                <circle id="Oval-Copy-4" cx="67.4556213" cy="8.28402367" r="2.95857988"></circle>
                <circle id="Oval-Copy-5" cx="90.5325444" cy="33.1360947" r="2.95857988"></circle>
                <circle id="Oval-Copy-6" cx="90.5325444" cy="66.2721893" r="2.95857988"></circle>
                <circle id="Oval-Copy-7" cx="8.28402367" cy="66.2721893" r="2.95857988"></circle>
                <circle id="Oval-Copy-9" cx="33.1360947" cy="90.5325444" r="2.95857988"></circle>
                <circle id="Oval-Copy-10" cx="67.4556213" cy="90.5325444" r="2.95857988"></circle>
                <circle id="Oval-Copy-8" cx="8.28402367" cy="33.1360947" r="2.95857988"></circle>
                <polygon id="Path" points="50.295858 16.5680473 40.2366864 36.3905325 18.6390533 39.4970414 34.9112426 54.1420118 30.1775148 77.2189349 50.147929 64.9408284 70.2662722 77.2189349 65.6804734 53.9940828 81.0650888 39.4970414 60.0591716 36.3905325"></polygon>
                <circle id="Oval" cx="50.295858" cy="5.32544379" r="5.32544379"></circle>
                <circle id="Oval-Copy" cx="50.295858" cy="93.4911243" r="5.32544379"></circle>
                <circle id="Oval-Copy-2" cx="94.6745562" cy="49.704142" r="5.32544379"></circle>
                <circle id="Oval-Copy-3" cx="5.32544379" cy="49.704142" r="5.32544379"></circle>
                <rect id="Rectangle" x="15.9763314" y="15.3846154" width="5.32544379" height="5.32544379"></rect>
                <rect id="Rectangle-Copy" x="78.6982249" y="15.3846154" width="5.32544379" height="5.32544379"></rect>
                <rect id="Rectangle-Copy-2" x="78.6982249" y="78.1065089" width="5.32544379" height="5.32544379"></rect>
                <rect id="Rectangle-Copy-3" x="15.9763314" y="78.1065089" width="5.32544379" height="5.32544379"></rect>
            </g>
        </g>
    </g>
</svg>