<?xml version="1.0" encoding="UTF-8"?>
<svg width="100px" height="100px" viewBox="0 0 100 100" version="1.1" xmlns="http://www.w3.org/2000/svg" xmlns:xlink="http://www.w3.org/1999/xlink">
    <!-- Generator: sketchtool 63.1 (101010) - https://sketch.com -->
    <title>folder/task</title>
    <desc>Created with sketchtool.</desc>
    <defs>
        <linearGradient x1="50%" y1="0%" x2="50%" y2="100%" id="linearGradient-1">
            <stop stop-color="#F4DE7C" offset="0%"></stop>
            <stop stop-color="#C66C00" offset="100%"></stop>
        </linearGradient>
        <linearGradient x1="50%" y1="0%" x2="50%" y2="100%" id="linearGradient-2">
            <stop stop-color="#F6F6F6" offset="0%"></stop>
            <stop stop-color="#B0B0B0" offset="100%"></stop>
        </linearGradient>
        <linearGradient x1="50%" y1="0%" x2="50%" y2="100%" id="linearGradient-3">
            <stop stop-color="#F4DE7C" stop-opacity="0.573126093" offset="0%"></stop>
            <stop stop-color="#FAB04C" stop-opacity="0.938456075" offset="60.102335%"></stop>
            <stop stop-color="#DA8C2F" offset="100%"></stop>
        </linearGradient>
        <linearGradient x1="50%" y1="0%" x2="50%" y2="100%" id="linearGradient-4">
            <stop stop-color="#F6F6F6" offset="0%"></stop>
            <stop stop-color="#B0B0B0" offset="100%"></stop>
        </linearGradient>
    </defs>
    <g id="Icons" stroke="none" stroke-width="1" fill="none" fill-rule="evenodd">
        <g id="folder/task">
            <g id="folder/Gear" transform="translate(5.000000, 0.000000)">
                <g id="folder/Parts/Back" fill-rule="nonzero">
                    <path d="M27.8669531,26.4295898 L5.4,26.4295898 C5.11289948,26.4295898 4.75956145,26.307064 4.56644234,26.5001831 C4.38126652,26.6853589 4.5,27.0336077 4.5,27.3295898 L4.5,84.42 C4.5,84.6995927 4.66136797,84.9516332 4.85097773,85.1450221 C4.99216216,85.2890205 5.1728167,85.4276284 5.4,85.4276284 L84.6,85.4276284 C84.8518248,85.4276284 85.0852478,85.3478907 85.2488584,85.1842801 C85.4161043,85.0170343 85.5,84.7800482 85.5,84.5276284 L85.5,32.6453906 C85.5,32.3503075 85.5336333,32.0399057 85.3511693,31.8560178 C85.1678653,31.6712834 84.866867,31.7032509 84.6,31.7032509 L39.4284375,31.7032509 C37.2706377,31.7032509 35.4422025,30.5807448 34.0030941,29.2881088 L30.5472995,26.3519015 C30.069613,25.946662 29.0138304,26.4295898 27.8669531,26.4295898 Z" id="Folder-Back" stroke-opacity="0.8" stroke="#DA8C2F" stroke-width="9" fill-opacity="0.8" fill="#DA8C2F"></path>
                    <path d="M29.1579508,27.3495595 L8.2,27.3495595 C7.05621874,27.3495595 6.15816317,27.5174874 5.58542027,28.0767246 C5.03682992,28.6123789 4.85,29.4640645 4.85,30.5910887 L4.85,81.5303705 C4.85,82.6104926 4.84811439,83.4822515 5.40172396,84.003322 C5.91867299,84.4898867 6.82753972,84.61 8.2,84.61 L81.8,84.61 C83.0264101,84.61 83.9279812,84.469232 84.482526,83.9472813 C85.02293,83.4386401 85.15,82.6106751 85.15,81.5303705 L85.15,35.8449495 C85.15,34.7318988 85.0768757,33.8328085 84.5066651,33.2760984 C83.9782085,32.7601537 83.0871867,32.6038608 81.8,32.6038608 L38.0155208,32.6038608 C37.2396095,32.6038608 35.9807184,32.2831462 35.3893194,31.7998989 L31.1180342,28.3006929 C30.7464369,27.9576436 30.2001,27.3495595 29.1579508,27.3495595 Z" id="Folder-Back" stroke="url(#linearGradient-2)" stroke-width="2.5" fill="url(#linearGradient-1)"></path>
                </g>
                <g id="annotation/Gear" transform="translate(21.600000, 0.000000)" fill-rule="evenodd" stroke="#4A4A4A" stroke-width="1">
                    <g id="Group" transform="translate(4.172400, 4.172400)">
                        <path d="M58.8536529,34.604511 C56.4028536,33.9198561 54.7370944,31.9615369 54.7370944,29.9037144 C54.7370944,27.845892 56.4028536,25.9870368 58.8536529,25.3024015 C59.6386733,25.1073314 60.1288527,24.2237485 60.0292522,23.4435463 C59.2442318,20.0164533 57.9690124,16.7844109 56.1079735,13.7513357 C55.6178136,13.0666809 54.7370944,12.7721663 53.9520544,13.1623065 C51.206375,14.6310607 48.1697367,14.2409596 46.6992572,12.1831371 C45.619337,10.6148994 45.8184987,8.36594307 47.0898557,6.50317117 C47.3847163,6.1130309 47.4804543,5.71907188 47.3847163,5.3289512 C47.285155,4.93881094 47.0898557,4.54485191 46.6992572,4.25029817 C43.6586976,2.29195933 40.3271791,0.823205203 36.7009766,0.0390863323 C36.310378,-0.0603581139 35.8202182,0.0390863323 35.5253772,0.234156464 C35.1347786,0.429226595 34.9356561,0.823185619 34.8399181,1.21332588 C34.250197,3.95578359 32.2895184,5.81463881 30.0379201,5.81463881 C27.7824005,5.81463881 25.9213616,3.85629998 25.3316013,1.21332588 C25.23204,0.823185619 25.0367407,0.429226595 24.6461422,0.234156464 C24.2555436,0.0390863323 23.8611218,-0.0603581139 23.4705428,0.0390863323 C19.9398234,0.823185619 16.6083049,2.19247572 13.4722622,4.15081455 C13.0816636,4.34588469 12.8825411,4.73984371 12.7868031,5.22946759 C12.6872418,5.61960785 12.7868031,6.10919256 13.0816636,6.50317117 C14.4525427,8.46151 14.6517437,10.714383 13.5718235,12.3781877 C12.1013439,14.4360101 8.8655047,14.8261112 6.21942578,13.2579126 C5.43440537,12.8677724 4.55366655,13.0628425 4.06350671,13.7474974 C2.2024678,16.7844892 0.827667457,20.012615 0.0426274459,23.5391915 C-0.152671844,24.4189165 0.337488004,25.2029962 1.21822682,25.3980468 C3.86430574,26.0827016 5.62966545,28.0410209 5.62966545,30.1944102 C5.62966545,32.3477996 3.76862654,34.2105715 1.3178273,34.7957232 C0.437068878,34.9907933 -0.0530517563,35.8743762 0.142227927,36.6545784 C0.927248332,40.181155 2.298147,43.4092807 4.16310719,46.4462726 C4.65326703,47.1309274 5.53398625,47.425442 6.31902626,46.9358573 C8.96510518,45.3676196 12.2009444,45.7616373 13.671424,47.8155823 C14.7513441,49.38382 14.5521824,51.6327763 13.1812641,53.5911152 C12.8864036,53.9812554 12.7906655,54.3752145 12.8864036,54.8648187 C12.9859648,55.254959 13.1812641,55.648918 13.5718627,55.9434718 C16.7081015,57.9018106 20.0435412,59.2710811 23.6701359,60.0552 L23.9649964,60.0552 C24.6504556,60.0552 25.3358755,59.5656153 25.5350765,58.88098 C26.2205356,56.3335729 28.0854762,54.5742013 30.2413952,54.5742013 L30.3409565,54.5742013 C32.4011964,54.5742013 34.2622353,56.3374896 34.9476748,58.7854131 C35.1429741,59.5695124 36.027595,60.1546836 36.8087137,59.9596331 C40.3394331,59.1755338 43.6709516,57.8062437 46.7119033,55.7484212 C47.1025019,55.5533511 47.3016244,55.1593921 47.3973624,54.7692518 C47.4969237,54.3791115 47.3973624,53.8895268 47.1025019,53.5950318 C45.827302,51.7361766 45.6320223,49.4833036 46.7119033,47.9150659 C48.0827824,45.8572434 51.2229424,45.4671423 53.8690213,46.9358965 C54.6540417,47.3260367 55.5347805,47.1309666 56.0249404,46.3468673 C57.8859793,43.3098754 59.2607796,39.9822661 60.0458196,36.5551731 C60.1300654,35.6831053 59.6399085,34.7995224 58.8549273,34.6044718 L58.8536529,34.604511 Z" id="Path" stroke-width="3.5" fill="#B4B4B4" fill-rule="nonzero"></path>
                        <path d="M30.0276,40.9032 C23.9963189,40.9032 19.152,36.0541522 19.152,30.0276 C19.152,23.9963189 24.0010478,19.152 30.0276,19.152 C36.0588811,19.152 40.9032,24.0010478 40.9032,30.0276 C40.9032,36.0541522 35.9387662,40.9032 30.0276,40.9032 Z" id="Path" stroke-width="3.3" fill="#929292" fill-rule="nonzero"></path>
                    </g>
                </g>
                <g id="folder/Parts/Front" fill="url(#linearGradient-3)" fill-rule="nonzero" stroke="url(#linearGradient-4)" stroke-width="2.5">
                    <path d="M5.94,81.9 L5.97556748,54.7597266 C5.97556748,51.7322423 8.13226413,49.3597266 11.3405484,49.3597266 C38.490801,49.3597266 53.177704,49.3597266 55.4012576,49.3597266 C57.0647806,49.3597266 59.245027,50.9405187 61.9419968,54.1021029 C62.924803,54.8435395 64.4445284,55.6639632 65.6735853,55.6639632 L79.0205484,55.6639632 C82.4674419,55.6639632 84.4205484,57.7585227 84.4205484,61.3286091 L84.4205484,81.9" id="Path" transform="translate(45.180274, 65.629863) scale(-1, 1) translate(-45.180274, -65.629863) "></path>
                </g>
            </g>
        </g>
    </g>
</svg>