<?xml version="1.0" encoding="UTF-8"?>
<svg width="100px" height="100px" viewBox="0 0 100 100" version="1.1" xmlns="http://www.w3.org/2000/svg" xmlns:xlink="http://www.w3.org/1999/xlink">
    <!-- Generator: sketchtool 63.1 (101010) - https://sketch.com -->
    <title>folder/user</title>
    <desc>Created with sketchtool.</desc>
    <defs>
        <linearGradient x1="50%" y1="0%" x2="50%" y2="100%" id="linearGradient-1">
            <stop stop-color="#F4DE7C" offset="0%"></stop>
            <stop stop-color="#C66C00" offset="100%"></stop>
        </linearGradient>
        <linearGradient x1="50%" y1="0%" x2="50%" y2="100%" id="linearGradient-2">
            <stop stop-color="#F6F6F6" offset="0%"></stop>
            <stop stop-color="#B0B0B0" offset="100%"></stop>
        </linearGradient>
        <linearGradient x1="50%" y1="0%" x2="50%" y2="100%" id="linearGradient-3">
            <stop stop-color="#F4DE7C" stop-opacity="0.573126093" offset="0%"></stop>
            <stop stop-color="#FAB04C" stop-opacity="0.938456075" offset="60.102335%"></stop>
            <stop stop-color="#DA8C2F" offset="100%"></stop>
        </linearGradient>
        <linearGradient x1="50%" y1="0%" x2="50%" y2="100%" id="linearGradient-4">
            <stop stop-color="#F6F6F6" offset="0%"></stop>
            <stop stop-color="#B0B0B0" offset="100%"></stop>
        </linearGradient>
    </defs>
    <g id="Icons" stroke="none" stroke-width="1" fill="none" fill-rule="evenodd">
        <g id="folder/user" fill-rule="nonzero">
            <g id="folder/People" transform="translate(5.000000, 0.000000)">
                <g id="folder/Parts/Back">
                    <path d="M27.8669531,26.4295898 L5.4,26.4295898 C5.11289948,26.4295898 4.75956145,26.307064 4.56644234,26.5001831 C4.38126652,26.6853589 4.5,27.0336077 4.5,27.3295898 L4.5,84.42 C4.5,84.6995927 4.66136797,84.9516332 4.85097773,85.1450221 C4.99216216,85.2890205 5.1728167,85.4276284 5.4,85.4276284 L84.6,85.4276284 C84.8518248,85.4276284 85.0852478,85.3478907 85.2488584,85.1842801 C85.4161043,85.0170343 85.5,84.7800482 85.5,84.5276284 L85.5,32.6453906 C85.5,32.3503075 85.5336333,32.0399057 85.3511693,31.8560178 C85.1678653,31.6712834 84.866867,31.7032509 84.6,31.7032509 L39.4284375,31.7032509 C37.2706377,31.7032509 35.4422025,30.5807448 34.0030941,29.2881088 L30.5472995,26.3519015 C30.069613,25.946662 29.0138304,26.4295898 27.8669531,26.4295898 Z" id="Folder-Back" stroke-opacity="0.8" stroke="#DA8C2F" stroke-width="9" fill-opacity="0.8" fill="#DA8C2F"></path>
                    <path d="M29.1579508,27.3495595 L8.2,27.3495595 C7.05621874,27.3495595 6.15816317,27.5174874 5.58542027,28.0767246 C5.03682992,28.6123789 4.85,29.4640645 4.85,30.5910887 L4.85,81.5303705 C4.85,82.6104926 4.84811439,83.4822515 5.40172396,84.003322 C5.91867299,84.4898867 6.82753972,84.61 8.2,84.61 L81.8,84.61 C83.0264101,84.61 83.9279812,84.469232 84.482526,83.9472813 C85.02293,83.4386401 85.15,82.6106751 85.15,81.5303705 L85.15,35.8449495 C85.15,34.7318988 85.0768757,33.8328085 84.5066651,33.2760984 C83.9782085,32.7601537 83.0871867,32.6038608 81.8,32.6038608 L38.0155208,32.6038608 C37.2396095,32.6038608 35.9807184,32.2831462 35.3893194,31.7998989 L31.1180342,28.3006929 C30.7464369,27.9576436 30.2001,27.3495595 29.1579508,27.3495595 Z" id="Folder-Back" stroke="url(#linearGradient-2)" stroke-width="2.5" fill="url(#linearGradient-1)"></path>
                </g>
                <g id="user/Male" transform="translate(25.200000, -0.180000)" stroke="#383838" stroke-width="1.5">
                    <path d="M35.0356729,32.0901995 C19.5326887,32.5259771 7.37234936,57.66773 13.1073055,66.1935736 C18.8422616,74.7194171 52.4919439,74.7194171 57.9739029,66.1935736 C63.4558619,57.66773 51.0425255,31.6401411 35.0356729,32.0901995 Z" id="Path" fill="#66A5FF"></path>
                    <path d="M20.576958,14.5700307 C26.3450708,5.25368612 37.6823922,2.53416329 46.4208683,8.37076181 C55.1593443,14.2073603 58.2631272,26.5723783 53.4960743,36.5573504 C48.7290215,46.5423225 37.7472624,50.6783537 28.4626836,45.985611 C19.1781047,41.2928682 14.8162765,29.4016647 18.519709,18.8791026" id="Path" fill="#FFCCAA"></path>
                    <path d="M28.6957321,15.7210575 C28.6957321,15.7210575 35.7801325,23.1741752 43.6826999,23.1741752 C51.115313,23.1741752 58.3666429,17.7890568 58.3666429,17.7890568 C58.3666429,17.7890568 54.5821823,2.81014904 42.5317373,1.47887781 C30.4989953,0.149660369 16.563045,3.54787762 12.6795432,17.0855052 C8.75053452,30.7815898 19.1717163,40.0004324 19.1717163,40.0004324 L22.4326351,25.7203368 L26.7707272,25.8303562 L28.6957852,15.7220686 L28.6957321,15.7210575 Z" id="Path" fill="#918A6F"></path>
                    <path d="M25.7791191,26.5562645 C24.2730198,22.309843 19.2128206,23.7576186 18.9298407,28.458814 C18.6071218,33.8157682 25.3329224,34.7231006 25.3329224,34.7231006" id="Path" fill="#FFCCAA"></path>
                </g>
                <g id="folder/Parts/Front" fill="url(#linearGradient-3)" stroke="url(#linearGradient-4)" stroke-width="2.5">
                    <path d="M5.94,81.9 L5.97556748,54.7597266 C5.97556748,51.7322423 8.13226413,49.3597266 11.3405484,49.3597266 C38.490801,49.3597266 53.177704,49.3597266 55.4012576,49.3597266 C57.0647806,49.3597266 59.245027,50.9405187 61.9419968,54.1021029 C62.924803,54.8435395 64.4445284,55.6639632 65.6735853,55.6639632 L79.0205484,55.6639632 C82.4674419,55.6639632 84.4205484,57.7585227 84.4205484,61.3286091 L84.4205484,81.9" id="Path" transform="translate(45.180274, 65.629863) scale(-1, 1) translate(-45.180274, -65.629863) "></path>
                </g>
            </g>
        </g>
    </g>
</svg>