<?xml version="1.0" encoding="UTF-8" standalone="no"?>
<svg xmlns:rdf="http://www.w3.org/1999/02/22-rdf-syntax-ns#" xmlns="http://www.w3.org/2000/svg" version="1.1" xmlns:cc="http://creativecommons.org/ns#" xmlns:xlink="http://www.w3.org/1999/xlink" viewBox="0 0 19.725 16.002" xmlns:dc="http://purl.org/dc/elements/1.1/">
<metadata>
<rdf:RDF>
<cc:Work rdf:about="">
<dc:format>image/svg+xml</dc:format>
<dc:type rdf:resource="http://purl.org/dc/dcmitype/StillImage"/>
<dc:title/>
</cc:Work>
</rdf:RDF>
</metadata>
<g transform="translate(-86.687 -297.99)">
<g stroke-linejoin="round" stroke-linecap="round" stroke-opacity=".99608" stroke-width=".72788" transform="matrix(.85116 0 0 .87095 300.59 -80.978)">
<path style="color:#000000;text-indent:0;block-progression:tb;text-decoration-line:none;text-transform:none" d="m-246.35 442.74c2.887-0.0579 5.5539 2.6669 8.5847 0.2255 2.8686-2.3528 6.8305 1.7352 9.2772 2.0083-2.0453-0.2121-5.56-4.0903-8.3863-1.2373-4.2349 4.2234-6.5108 1.6273-9.4591 1.6863l-0.0165-2.6828z" stroke="#217821" fill="#2ca02c"/>
<path style="color:#000000;text-indent:0;block-progression:tb;text-decoration-line:none;text-transform:none" d="m-250.92 445.73c2.887 0.0579 5.5539 0.3457 8.5847 2.7871 2.8686 2.3528 6.5436 4.8638 8.9903 4.5906-2.0453 0.2121-5.2731-2.5086-8.0994-5.3617-4.2349-4.2234-6.5108-4.6399-9.4591-4.6989l-0.0165 2.6828h-0.00001z" stroke="#000080" fill="#003380"/>
<path style="color:#000000;text-indent:0;block-progression:tb;text-decoration-line:none;text-transform:none" d="m-250.94 442.88c2.887-0.0579 5.5539-0.3457 8.5847-2.7871 2.8686-2.3528 6.5436-4.8638 8.9903-4.5906-2.0453-0.2121-5.2731 2.5086-8.0994 5.3617-4.2349 4.2234-6.5108 4.6399-9.4591 4.6989l-0.0165-2.6828h-0.00001z" stroke="#a00" fill="#f00"/>
</g>
</g>
</svg>
