<?xml version="1.0" encoding="UTF-8" standalone="no"?>
<!-- Created with Inkscape (http://www.inkscape.org/) -->

<svg
   xmlns:dc="http://purl.org/dc/elements/1.1/"
   xmlns:cc="http://creativecommons.org/ns#"
   xmlns:rdf="http://www.w3.org/1999/02/22-rdf-syntax-ns#"
   xmlns:svg="http://www.w3.org/2000/svg"
   xmlns="http://www.w3.org/2000/svg"
   xmlns:xlink="http://www.w3.org/1999/xlink"
   xmlns:sodipodi="http://sodipodi.sourceforge.net/DTD/sodipodi-0.dtd"
   xmlns:inkscape="http://www.inkscape.org/namespaces/inkscape"
   width="10.710093mm"
   height="8.1957636mm"
   viewBox="0 0 37.949148 29.040108"
   id="svg5654"
   version="1.1"
   inkscape:version="0.92.1 r15371"
   sodipodi:docname="CentarSelectedNodeSlideContent.svg">
  <defs
     id="defs5656">
    <linearGradient
       x1="268.63"
       x2="219.96001"
       y1="238.03"
       gradientUnits="userSpaceOnUse"
       y2="124.52"
       id="a"
       gradientTransform="matrix(0.09048591,0,0,0.0907745,264.0459,479.40474)">
      <stop
         id="stop4697"
         offset="0"
         stop-color="#fff" />
      <stop
         id="stop4699"
         offset="1"
         stop-opacity=".99225"
         stop-color="#fff" />
    </linearGradient>
    <linearGradient
       x1="56.425999"
       y1="834.12"
       gradientTransform="matrix(-1,0,0,1,783.51,-380.02)"
       x2="56.047001"
       gradientUnits="userSpaceOnUse"
       y2="838.97998"
       id="a-5">
      <stop
         id="stop3019"
         offset="0"
         stop-opacity=".54615"
         stop-color="#fff" />
      <stop
         id="stop3021"
         offset="1"
         stop-opacity="0"
         stop-color="#fff" />
    </linearGradient>
    <linearGradient
       inkscape:collect="always"
       xlink:href="#a"
       id="linearGradient5069"
       gradientUnits="userSpaceOnUse"
       gradientTransform="matrix(0.08334743,0,0,0.08361326,79.89008,1190.9851)"
       x1="268.63"
       y1="238.03"
       x2="219.96001"
       y2="124.52" />
  </defs>
  <sodipodi:namedview
     id="base"
     pagecolor="#ffffff"
     bordercolor="#666666"
     borderopacity="1.0"
     inkscape:pageopacity="0.0"
     inkscape:pageshadow="2"
     inkscape:zoom="9.7776558"
     inkscape:cx="36.510752"
     inkscape:cy="23.933031"
     inkscape:document-units="px"
     inkscape:current-layer="layer1"
     showgrid="false"
     fit-margin-top="0"
     fit-margin-left="0"
     fit-margin-right="0"
     fit-margin-bottom="0"
     inkscape:window-width="1920"
     inkscape:window-height="1018"
     inkscape:window-x="-8"
     inkscape:window-y="-8"
     inkscape:window-maximized="1"
     inkscape:snap-global="false" />
  <metadata
     id="metadata5659">
    <rdf:RDF>
      <cc:Work
         rdf:about="">
        <dc:format>image/svg+xml</dc:format>
        <dc:type
           rdf:resource="http://purl.org/dc/dcmitype/StillImage" />
        <dc:title></dc:title>
      </cc:Work>
    </rdf:RDF>
  </metadata>
  <g
     inkscape:label="Layer 1"
     inkscape:groupmode="layer"
     id="layer1"
     transform="translate(-94.198897,-1194.0722)">
    <g
       id="g4803">
      <rect
         ry="1.6847268"
         rx="1.6814741"
         y="1194.4114"
         x="94.538063"
         height="28.361774"
         width="37.270817"
         id="rect4498"
         style="opacity:1;fill:#ffffff;fill-opacity:1;stroke:#000000;stroke-width:0.6783312;stroke-opacity:1" />
      <path
         inkscape:connector-curvature="0"
         style="color:#000000;text-indent:0;text-decoration:none;text-decoration-line:none;text-transform:none;fill:#800080;stroke:#800080;stroke-width:0.5772624;stroke-linecap:round;stroke-linejoin:round;stroke-opacity:0.99607999"
         d="m 104.51445,1206.7632 c 2.10291,-0.044 4.04549,1.9859 6.25314,0.1679 2.08951,-1.752 4.97537,1.2922 6.75756,1.4955 -1.48981,-0.1579 -4.04993,-3.0459 -6.10862,-0.9213 -3.08471,3.1449 -4.74251,1.2117 -6.89005,1.2556 z"
         id="path4779" />
      <path
         inkscape:connector-curvature="0"
         style="color:#000000;text-indent:0;text-decoration:none;text-decoration-line:none;text-transform:none;fill:#0034b0;stroke:#0034b0;stroke-width:0.5772624;stroke-linecap:round;stroke-linejoin:round;stroke-opacity:0.99738668"
         d="m 101.91962,1207.2905 c 2.00909,0.6225 3.81699,1.3647 5.43662,3.7218 1.52428,2.2611 3.58056,4.7975 5.34964,5.0943 -1.47549,-0.2598 -3.17558,-2.8563 -4.56734,-5.4669 -2.09607,-3.8747 -3.60369,-4.6306 -5.65556,-5.266 l -0.56335,1.9167 v 0 z"
         id="path4781" />
      <path
         inkscape:connector-curvature="0"
         style="color:#000000;text-indent:0;text-decoration:none;text-decoration-line:none;text-transform:none;fill:#ff0000;stroke:#ff0000;stroke-width:0.5772624;stroke-linecap:round;stroke-linejoin:round;stroke-opacity:0.99607999"
         d="m 101.59694,1208.0016 c 2.05999,-0.425 3.93128,-0.9887 5.77164,-3.1777 1.73615,-2.1027 4.0285,-4.428 5.81797,-4.552 -1.49368,0.1156 -3.43733,2.5352 -5.07546,4.9988 -2.46157,3.6532 -4.03533,4.2597 -6.13911,4.6932 l -0.37502,-1.9622 v 0 z"
         id="path4783" />
      <path
         style="font-size:61.54299927px;fill:url(#linearGradient5069);fill-rule:evenodd;stroke:#0034b0;stroke-width:0.90082085;stroke-opacity:0.99738668"
         inkscape:connector-curvature="0"
         font-size="61.543px"
         d="m 105.61527,1209.3725 a 4.2678888,4.2815005 0 0 1 -4.26822,4.2819 4.2678888,4.2815005 0 0 1 -4.268243,-4.2819 4.2678888,4.2815005 0 0 1 4.268243,-4.2818 4.2678888,4.2815005 0 0 1 4.26822,4.2818 z"
         id="path4743" />
      <rect
         transform="scale(-1,1)"
         id="rect4717"
         x="-125.81588"
         y="1205.1343"
         width="9.6958838"
         height="5.4238472"
         ry="1.1960983"
         rx="1.0963738"
         style="fill:#ffffff;fill-rule:evenodd;stroke:#800080;stroke-width:0.42395699;stroke-linejoin:round;stroke-opacity:1" />
      <rect
         id="rect4723"
         x="112.14316"
         y="1215.5518"
         width="8.5920601"
         height="4.7752547"
         ry="1.0530723"
         rx="0.97155929"
         style="fill:#ffffff;fill-rule:evenodd;stroke:#0034b0;stroke-width:0.66612858;stroke-linejoin:round;stroke-opacity:0.99738668" />
      <rect
         transform="scale(-1)"
         id="rect4729"
         x="-119.00128"
         y="-1201.2218"
         width="8.0067453"
         height="4.5461607"
         ry="1.0025294"
         rx="0.90538543"
         style="fill:#ffffff;fill-rule:evenodd;stroke:#ff0000;stroke-width:0.63478428;stroke-linejoin:round;stroke-opacity:1" />
    </g>
    <g
       id="g4543"
       transform="matrix(0.72420923,0,0,0.72420923,60.452021,338.48155)">
      <ellipse
         ry="5.1644287"
         rx="5.1542387"
         cy="1200.1965"
         cx="83.603951"
         id="path4523"
         style="color:#000000;clip-rule:nonzero;display:inline;overflow:visible;visibility:visible;opacity:1;isolation:auto;mix-blend-mode:normal;color-interpolation:sRGB;color-interpolation-filters:linearRGB;solid-color:#000000;solid-opacity:1;fill:#ffffff;fill-opacity:1;fill-rule:evenodd;stroke:none;stroke-width:0.10089233;stroke-linecap:round;stroke-linejoin:round;stroke-miterlimit:4;stroke-dasharray:none;stroke-dashoffset:0;stroke-opacity:1;marker:none;color-rendering:auto;image-rendering:auto;shape-rendering:auto;text-rendering:auto;enable-background:accumulate" />
      <path
         style="color:#000000;text-indent:0;text-transform:none;fill:#d40000;stroke:#000000;stroke-width:0.09375"
         d="m 83.61744,1195.0272 c -2.84549,0 -5.16802,2.3226 -5.16802,5.1681 0,2.8454 2.32253,5.168 5.16802,5.168 2.84548,0 5.1475,-2.3226 5.1475,-5.168 0,-2.8455 -2.30212,-5.1681 -5.1475,-5.1681 z m 0,0.9805 c 2.31555,0 4.16703,1.8719 4.16703,4.1875 0,2.3155 -1.85148,4.1874 -4.16703,4.1874 -2.31556,0 -4.18745,-1.8719 -4.18745,-4.1874 0,-2.3156 1.87189,-4.1875 4.18745,-4.1875 z"
         id="path12"
         inkscape:connector-curvature="0" />
      <path
         style="color:#000000;text-indent:0;text-transform:none;fill:#d40000;stroke:#000000;stroke-width:0.09628199"
         d="m 83.61744,1197.1489 c -1.67656,0 -3.04492,1.3684 -3.04492,3.045 0,1.6765 1.36846,3.0449 3.04492,3.0449 1.67645,0 3.03285,-1.3684 3.03285,-3.0449 0,-1.6766 -1.3564,-3.045 -3.03285,-3.045 z m 0,0.5777 c 1.36427,0 2.45521,1.1029 2.45521,2.4673 0,1.3643 -1.09094,2.4673 -2.45521,2.4673 -1.36428,0 -2.46727,-1.1029 -2.46727,-2.4673 0,-1.3643 1.1029,-2.4673 2.46727,-2.4673 z"
         id="path14"
         inkscape:connector-curvature="0" />
      <path
         style="color:#000000;fill:#d40000;fill-rule:evenodd;stroke:#000000;stroke-width:0.00747371;stroke-dasharray:0.08968452, 0.08968452"
         d="m 83.32857,1201.3027 c -0.22934,-0.062 -0.37094,-0.1426 -0.53213,-0.3038 -0.43889,-0.4389 -0.43716,-1.1647 0.004,-1.6057 0.44912,-0.4491 1.16206,-0.4475 1.61321,0 0.43434,0.4344 0.43442,1.168 1.8e-4,1.6022 -0.16489,0.1649 -0.303,0.2422 -0.54494,0.3053 -0.2085,0.054 -0.33427,0.054 -0.5402,-10e-4 h 1e-5 z"
         id="path16"
         inkscape:connector-curvature="0" />
    </g>
  </g>
</svg>
