<?xml version="1.0" encoding="UTF-8" standalone="no"?>
<svg xmlns:rdf="http://www.w3.org/1999/02/22-rdf-syntax-ns#" xmlns="http://www.w3.org/2000/svg" version="1.1" xmlns:cc="http://creativecommons.org/ns#" xmlns:xlink="http://www.w3.org/1999/xlink" viewBox="0 0 16 16" xmlns:dc="http://purl.org/dc/elements/1.1/">
<defs>
<linearGradient id="c" y2="795.42" gradientUnits="userSpaceOnUse" x2="-224.13" y1="787.17" x1="-223.82">
<stop stop-color="#048aac" stop-opacity=".93725" offset="0"/>
<stop stop-color="#ff7f2a" offset="1"/>
</linearGradient>
<linearGradient id="b" y2="785.47" gradientUnits="userSpaceOnUse" x2="-206.56" y1="796.31" x1="-202.64">
<stop stop-color="#08a" offset="0"/>
<stop stop-color="#d5f6ff" offset="1"/>
</linearGradient>
<linearGradient id="a" y2="796.02" gradientUnits="userSpaceOnUse" x2="-207.64" y1="802.89" x1="-207.64">
<stop stop-color="#d45500" offset="0"/>
<stop stop-color="#ff7f2a" stop-opacity="0" offset="1"/>
</linearGradient>
</defs>
<metadata>
<rdf:RDF>
<cc:Work rdf:about="">
<dc:format>image/svg+xml</dc:format>
<dc:type rdf:resource="http://purl.org/dc/dcmitype/StillImage"/>
<dc:title/>
</cc:Work>
</rdf:RDF>
</metadata>
<g transform="translate(-87.777 -215.15)">
<g transform="translate(456.52 -565.32)">
<g transform="matrix(-.86706 0 0 .86706 -539.24 100.32)">
<ellipse opacity=".93720" stroke="#164450" style="color:#000000" fill-rule="evenodd" rx="3.1022" transform="matrix(.88339 -.32078 .33024 .85809 -273.28 42.919)" ry="5.4886" cy="791.06" cx="-224.08" stroke-width=".53793" fill="url(#c)"/>
<path opacity=".93720" stroke-linejoin="round" style="color:#000000" d="m-202.5 785.72-9.25 3.125c4.4361-0.50391 6.6699 8.3341 3.6562 9.4688l9-3.125c2.4988-1.4901 0.84607-9.205-3.4062-9.4688z" fill-rule="evenodd" stroke="#164450" stroke-linecap="round" stroke-width=".5" fill="url(#b)"/>
<path stroke-linejoin="round" style="color:#000000" d="m-208.85 796.32c-0.23083 1.1337 0.0736 1.4127-0.76393 2.5464-0.63241 0.50912-1.9006 0.40521-2.3933 0.6411-0.86273 0.25262-1.7369 1.7233-1.7369 1.7233s2.4302 0.3337 6.0808 1.3429c2.6412-1.3013 6.13-1.8608 6.13-1.8608-2.5492-2.7883-5.2221-0.90506-6.2756-1.6979-0.97188-1.2782-0.70695-1.4167-1.0412-2.695h-0.00003z" stroke="url(#a)" stroke-linecap="round" stroke-width=".61704px" fill="#ff7f2a"/>
<g transform="matrix(.24751 0 0 .24751 -115.52 598.5)" stroke="#000" stroke-linecap="round">
<path style="color:#000000" d="m-384.03 766.54c-9.0574-23.171 18.853-16.997 23.014 16.843" stroke-width="3" fill="none"/>
<ellipse stroke-linejoin="round" ry="2.2795" cy="784.81" stroke-width="2" fill="#fff" style="color:#000000" fill-rule="evenodd" rx="2.4219" transform="matrix(1.1738 0 0 1.1738 62.373 -136.66)" opacity=".93720" cx="-360.58"/>
</g>
</g>
<rect style="color:#000000" height="16" width="16" y="780.46" x="-368.75" fill="none"/>
</g>
</g>
</svg>
