<?xml version="1.0" encoding="UTF-8" standalone="no"?>
<svg xmlns:rdf="http://www.w3.org/1999/02/22-rdf-syntax-ns#" xmlns="http://www.w3.org/2000/svg" version="1.1" xmlns:cc="http://creativecommons.org/ns#" xmlns:xlink="http://www.w3.org/1999/xlink" viewBox="0 0 16 16" xmlns:dc="http://purl.org/dc/elements/1.1/">
<defs>
<linearGradient id="a" y2="396.55" gradientUnits="userSpaceOnUse" y1="381.33" x2="307.79" x1="301.2">
<stop stop-color="#000080" offset="0"/>
<stop stop-color="#000080" stop-opacity="0" offset="1"/>
</linearGradient>
</defs>
<metadata>
<rdf:RDF>
<cc:Work rdf:about="">
<dc:format>image/svg+xml</dc:format>
<dc:type rdf:resource="http://purl.org/dc/dcmitype/StillImage"/>
<dc:title/>
</cc:Work>
</rdf:RDF>
</metadata>
<g transform="translate(-83.21 -164.72)">
<g transform="translate(468.62 -267.6)">
<rect style="color:#000000" height="16" width="16" y="432.32" x="-385.4" fill="none"/>
<rect stroke-linejoin="round" height="6.0403" stroke="#000080" stroke-width=".65393" fill="#fff" fill-rule="evenodd" rx="1.4879" ry="1.5167" width="12.752" y="433.65" x="-383.78"/>
<path stroke-linejoin="round" d="m301.17 397-9.5008-16.456h19.002z" transform="matrix(.22528 0 0 .22528 -448.21 349.45)" stroke="#000" stroke-linecap="round" stroke-width="1.3" fill="url(#a)"/>
<rect style="color:#000000" height="13.217" width="14.214" y="433.81" x="-384.51" fill="none"/>
<g transform="matrix(.88810 0 0 .93325 -627.77 74.151)">
<g transform="matrix(1.0027 0 0 .86533 -.77761 53.664)" stroke="#000" stroke-dasharray="1.43526771, 1.43526771" stroke-width="1.4353" fill="none">
<path d="m274.64 399.35h14.565"/>
<path d="m274.64 393.64h14.565"/>
<path d="m274.64 396.5h14.565"/>
</g>
</g>
<g transform="matrix(.65234 0 0 .68443 -276.25 -161.68)" fill="#f00">
<path style="color:#000000" d="m-161.28 889.17c0.59165-6.8804 5.7208-14.856 13.736-16l1.3818 2.3683c-7.776 1.6244-12.057 5.7928-15.118 13.632z"/>
<path style="color:#000000" d="m-164.97 874.34c6.9053 0.0759 15.242 4.5947 16.982 12.502l-2.2584 1.555c-2.2009-7.6329-6.6776-11.591-14.723-14.057z"/>
</g>
</g>
</g>
</svg>
