<?xml version="1.0" encoding="UTF-8" standalone="no"?>
<!-- Created with Inkscape (http://www.inkscape.org/) -->

<svg
   xmlns:dc="http://purl.org/dc/elements/1.1/"
   xmlns:cc="http://creativecommons.org/ns#"
   xmlns:rdf="http://www.w3.org/1999/02/22-rdf-syntax-ns#"
   xmlns:svg="http://www.w3.org/2000/svg"
   xmlns="http://www.w3.org/2000/svg"
   xmlns:xlink="http://www.w3.org/1999/xlink"
   xmlns:sodipodi="http://sodipodi.sourceforge.net/DTD/sodipodi-0.dtd"
   xmlns:inkscape="http://www.inkscape.org/namespaces/inkscape"
   width="12.485151mm"
   height="9.5962362mm"
   viewBox="0 0 44.238722 34.002412"
   id="svg5654"
   version="1.1"
   inkscape:version="0.91 r13725"
   sodipodi:docname="DeleteSlide.svg">
  <defs
     id="defs5656">
    <linearGradient
       x1="268.63"
       x2="219.96001"
       y1="238.03"
       gradientUnits="userSpaceOnUse"
       y2="124.52"
       id="a"
       gradientTransform="matrix(0.09048591,0,0,0.0907745,264.0459,479.40474)">
      <stop
         id="stop4697"
         offset="0"
         stop-color="#fff" />
      <stop
         id="stop4699"
         offset="1"
         stop-opacity=".99225"
         stop-color="#fff" />
    </linearGradient>
    <linearGradient
       x1="56.425999"
       y1="834.12"
       gradientTransform="matrix(-1,0,0,1,783.51,-380.02)"
       x2="56.047001"
       gradientUnits="userSpaceOnUse"
       y2="838.97998"
       id="a-5">
      <stop
         id="stop3019"
         offset="0"
         stop-opacity=".54615"
         stop-color="#fff" />
      <stop
         id="stop3021"
         offset="1"
         stop-opacity="0"
         stop-color="#fff" />
    </linearGradient>
    <linearGradient
       inkscape:collect="always"
       xlink:href="#a"
       id="linearGradient4983-6-6"
       gradientUnits="userSpaceOnUse"
       gradientTransform="matrix(0.09048591,0,0,0.0907745,460.67594,479.87448)"
       x1="268.63"
       y1="238.03"
       x2="219.96001"
       y2="124.52" />
  </defs>
  <sodipodi:namedview
     id="base"
     pagecolor="#ffffff"
     bordercolor="#666666"
     borderopacity="1.0"
     inkscape:pageopacity="0.0"
     inkscape:pageshadow="2"
     inkscape:zoom="0.98994949"
     inkscape:cx="-57.701651"
     inkscape:cy="223.8793"
     inkscape:document-units="px"
     inkscape:current-layer="layer1"
     showgrid="false"
     fit-margin-top="0"
     fit-margin-left="0"
     fit-margin-right="0"
     fit-margin-bottom="0"
     inkscape:window-width="1920"
     inkscape:window-height="1018"
     inkscape:window-x="-8"
     inkscape:window-y="-8"
     inkscape:window-maximized="1" />
  <metadata
     id="metadata5659">
    <rdf:RDF>
      <cc:Work
         rdf:about="">
        <dc:format>image/svg+xml</dc:format>
        <dc:type
           rdf:resource="http://purl.org/dc/dcmitype/StillImage" />
        <dc:title></dc:title>
      </cc:Work>
    </rdf:RDF>
  </metadata>
  <g
     inkscape:label="Layer 1"
     inkscape:groupmode="layer"
     id="layer1"
     transform="translate(-144.2609,-1118.0672)">
    <g
       transform="translate(-329.71728,633.45261)"
       id="g4581">
      <rect
         ry="1.862726"
         rx="1.8591295"
         y="484.73956"
         x="474.10318"
         height="31.358326"
         width="41.208649"
         id="rect4498-2-0-6"
         style="opacity:1;fill:#cccccc;fill-opacity:1;stroke:#000000;stroke-width:0.24999997;stroke-opacity:1" />
      <rect
         rx="0.93272001"
         ry="0.92075998"
         y="486.86374"
         x="475.80261"
         height="27.110037"
         width="37.663914"
         id="rect4500-2-9-5"
         style="opacity:1;fill:#ffffff;fill-opacity:1;stroke:#000000;stroke-width:0.13951352;stroke-opacity:1" />
      <g
         transform="matrix(0.92907468,0,0,0.92822122,403.28617,215.67718)"
         id="g4775-0-6-0">
        <g
           style="stroke-width:0.72788;stroke-linecap:round;stroke-linejoin:round;stroke-opacity:0.99607999"
           transform="matrix(0.85116,0,0,0.87095,300.59,-80.978)"
           id="g4777-7-4-7">
          <path
             inkscape:connector-curvature="0"
             style="color:#000000;text-indent:0;text-decoration:none;text-decoration-line:none;text-transform:none;block-progression:tb;fill:#2ca02c;stroke:#217821;stroke-width:0.7838062"
             d="m -246.35,442.74 c 2.887,-0.0579 5.5539,2.6669 8.5847,0.2255 2.8686,-2.3528 6.8305,1.7352 9.2772,2.0083 -2.0453,-0.2121 -5.56,-4.0903 -8.3863,-1.2373 -4.2349,4.2234 -6.5108,1.6273 -9.4591,1.6863 L -246.35,442.74 Z"
             id="path4779-5-0-6" />
          <path
             inkscape:connector-curvature="0"
             style="color:#000000;text-indent:0;text-decoration:none;text-decoration-line:none;text-transform:none;block-progression:tb;fill:#003380;stroke:#000080;stroke-width:0.7838062"
             d="m -250.92,445.73 c 2.887,0.0579 5.5539,0.3457 8.5847,2.7871 2.8686,2.3528 6.5436,4.8638 8.9903,4.5906 -2.0453,0.2121 -5.2731,-2.5086 -8.0994,-5.3617 -4.2349,-4.2234 -6.5108,-4.6399 -9.4591,-4.6989 l -0.0165,2.6828 -1e-5,0 z"
             id="path4781-2-3-0" />
          <path
             inkscape:connector-curvature="0"
             style="color:#000000;text-indent:0;text-decoration:none;text-decoration-line:none;text-transform:none;block-progression:tb;fill:#ff0000;stroke:#aa0000;stroke-width:0.7838062"
             d="m -250.94,442.88 c 2.887,-0.0579 5.5539,-0.3457 8.5847,-2.7871 2.8686,-2.3528 6.5436,-4.8638 8.9903,-4.5906 -2.0453,-0.2121 -5.2731,2.5086 -8.0994,5.3617 -4.2349,4.2234 -6.5108,4.6399 -9.4591,4.6989 l -0.0165,-2.6828 -1e-5,0 z"
             id="path4783-6-5-6" />
        </g>
      </g>
      <path
         style="font-size:61.54299927px;fill:url(#linearGradient4983-6-6);fill-rule:evenodd;stroke:#000080;stroke-width:0.97797364;stroke-opacity:0.99607999"
         inkscape:connector-curvature="0"
         font-size="61.543px"
         d="m 488.60441,499.8367 a 4.6334215,4.6481989 0 0 1 -4.63377,4.64856 4.6334215,4.6481989 0 0 1 -4.6338,-4.64856 4.6334215,4.6481989 0 0 1 4.6338,-4.64856 4.6334215,4.6481989 0 0 1 4.63377,4.64856 z"
         id="path4743-0-4-7" />
      <rect
         transform="scale(-1,1)"
         id="rect4717-4-2-8"
         x="-509.47314"
         y="497.22125"
         width="9.3280153"
         height="5.1841207"
         ry="1.1432326"
         rx="1.0547765"
         style="fill:#ffffff;fill-rule:evenodd;stroke:#237923;stroke-width:0.72319204;stroke-linejoin:round;stroke-opacity:1" />
      <rect
         id="rect4723-2-1-7"
         x="495.89426"
         y="505.84872"
         width="9.3279457"
         height="5.1842418"
         ry="1.143265"
         rx="1.0547706"
         style="fill:#ffffff;fill-rule:evenodd;stroke:#000080;stroke-width:0.72318059;stroke-linejoin:round" />
      <rect
         transform="scale(-1,-1)"
         id="rect4729-4-8-4"
         x="-504.9375"
         y="-493.95288"
         width="8.6925001"
         height="4.9355264"
         ry="1.0883932"
         rx="0.98292917"
         style="fill:#ffffff;fill-rule:evenodd;stroke:#aa0101;stroke-width:0.68915176;stroke-linejoin:round;stroke-opacity:1" />
      <g
         transform="matrix(0.78906847,0,0,0.78906847,108.13934,36.0093)"
         id="g4483">
        <path
           inkscape:connector-curvature="0"
           id="path3736"
           d="m 485.54327,611.61627 c 1.33669,-16.30925 12.92478,-35.21456 31.03321,-37.92629 l 3.12185,5.6138 c -17.56802,3.85047 -27.23992,13.73121 -34.15551,32.3132 z"
           style="color:#000000;fill:#ff0000" />
        <path
           inkscape:connector-curvature="0"
           id="path3738"
           d="m 477.20659,576.46334 c 15.60088,0.17991 34.43566,10.89124 38.36678,29.63465 l -5.10232,3.68596 c -4.97241,-18.09297 -15.08644,-27.47522 -33.2631,-33.32061 z"
           style="color:#000000;fill:#ff0000" />
      </g>
    </g>
  </g>
</svg>
