<?xml version="1.0" encoding="UTF-8" standalone="no"?>
<svg xmlns:rdf="http://www.w3.org/1999/02/22-rdf-syntax-ns#" xmlns="http://www.w3.org/2000/svg" version="1.1" xmlns:cc="http://creativecommons.org/ns#" xmlns:xlink="http://www.w3.org/1999/xlink" viewBox="0 0 16.001 15.972" xmlns:dc="http://purl.org/dc/elements/1.1/">
<defs>
<linearGradient id="d" y2="446.77" xlink:href="#e" gradientUnits="userSpaceOnUse" x2="215.36" gradientTransform="matrix(.99094 0 0 1.0073 134.73 -154.36)" y1="440.75" x1="209.71"/>
<linearGradient id="e">
<stop stop-color="#f70000" offset="0"/>
<stop stop-color="#780000" offset="1"/>
</linearGradient>
<linearGradient id="c" y2="449.6" xlink:href="#f" gradientUnits="userSpaceOnUse" x2="194.27" gradientTransform="matrix(.99094 0 0 1.0073 134.73 -154.36)" y1="456.24" x1="202.53"/>
<linearGradient id="f">
<stop stop-color="#baa492" offset="0"/>
<stop stop-color="#fff" offset="1"/>
</linearGradient>
<linearGradient id="b" y2="449.64" xlink:href="#h" gradientUnits="userSpaceOnUse" x2="193.04" gradientTransform="matrix(.99094 0 0 1.0073 134.73 -154.36)" y1="457.89" x1="203.5"/>
<linearGradient id="h">
<stop offset="0"/>
<stop stop-color="#7e7e7e" offset="1"/>
</linearGradient>
<linearGradient id="a" y2="462.65" xlink:href="#g" gradientUnits="userSpaceOnUse" x2="196.75" gradientTransform="matrix(.99094 0 0 1.0073 134.73 -154.36)" y1="458.87" x1="193.01"/>
<linearGradient id="g">
<stop stop-color="#c00000" offset="0"/>
<stop offset="1"/>
</linearGradient>
</defs>
<metadata>
<rdf:RDF>
<cc:Work rdf:about="">
<dc:format>image/svg+xml</dc:format>
<dc:type rdf:resource="http://purl.org/dc/dcmitype/StillImage"/>
<dc:title/>
</cc:Work>
</rdf:RDF>
</metadata>
<g transform="translate(-37.141 -114.25)">
<g transform="translate(-73.061 -260.73)">
<g transform="matrix(.99766 0 0 .99192 .25830 3.1594)">
<rect opacity=".92511" style="color:#000000" rx=".070384" ry=".092563" height="16" width="16" y="374.95" x="110.2" fill="none"/>
<rect style="color:#000000" height="16" width="16" y="374.95" x="110.2" fill="none"/>
<rect stroke-linejoin="round" height="7.3623" stroke="#000080" stroke-width=".85615" fill="#fff" fill-rule="evenodd" rx="1.7124" ry="1.6236" width="15.144" y="383.16" x="110.63"/>
<text style="word-spacing:0px;letter-spacing:0px" font-family="Sans" xml:space="preserve" transform="scale(1.002 .99801)" stroke="#000000" font-size="5.7243px" y="389.63705" x="112.14785" stroke-width=".26739" line-height="125%" fill="#000000"><tspan y="389.63705" x="112.14785" stroke-width=".26739">N</tspan></text>
<g transform="matrix(1.243 -.13583 .13583 1.243 -80.398 -76.306)">
<g transform="matrix(.35249 .010495 .0022081 .35250 -.004426 272.71)">
<path stroke-linejoin="round" d="m340.34 304.7 10.562-10.6 1.2706-8.9948-8.9644-0.60659-12.355 11.644" fill-rule="evenodd" stroke="#500" stroke-width="1.1768" fill="url(#d)"/>
<path stroke-linejoin="round" d="m330.92 296.04-3.868 9.283 3.5794 3.6904 9.6367-4.2554c0.28336-1.8145 0.78302-3.5456-2.0093-3.9874-0.2834-1.4968 0.0987-3.1947-2.942-3.2724-0.96058-3.3215-2.9418-1.8004-4.3968-1.4582z" fill-rule="evenodd" stroke="url(#b)" stroke-width="1.1762px" fill="url(#c)"/>
<path d="m335.35 297.57-6.1721 7.7077" stroke="#000" stroke-width=".40004" fill="none"/>
<path d="m338.29 300.98c-0.2939 0.11951-8.1706 5.5567-8.1706 5.5567" stroke="#000" stroke-width=".40004" fill="none"/>
<path stroke-linejoin="round" d="m327.03 305.38-2.3538 5.7552 5.9886-2.1372c-0.64013-2.659-1.4809-4.203-3.6348-3.618z" stroke-opacity=".83871" fill-rule="evenodd" stroke="#750000" stroke-width="1.1762px" fill="url(#a)"/>
<path d="m351.02 294.19-10.31 10.57" stroke="#000" stroke-width=".46147" fill="none"/>
</g>
<g transform="matrix(.35249 .010495 .0022081 .35250 -.004426 272.71)">
<path stroke-linejoin="round" d="m340.34 304.7 10.878-10.924 1.2315-8.9383-8.9253-0.66307-12.671 11.968" fill-rule="evenodd" stroke="#500" stroke-width="1.1768" fill="url(#d)"/>
<path stroke-linejoin="round" d="m330.92 296.04-3.868 9.283 3.5794 3.6904 9.6367-4.2554c0.28336-1.8145 0.78302-3.5456-2.0093-3.9874-0.2834-1.4968 0.0987-3.1947-2.942-3.2724-0.96058-3.3215-2.9418-1.8004-4.3968-1.4582z" fill-rule="evenodd" stroke="url(#b)" stroke-width="1.1762px" fill="url(#c)"/>
<path stroke-linejoin="round" d="m327.03 305.38-2.3538 5.7552 5.9886-2.1372c-0.64013-2.659-1.4809-4.203-3.6348-3.618z" stroke-opacity=".83871" fill-rule="evenodd" stroke="#750000" stroke-width="1.1762px" fill="url(#a)"/>
<path d="m351.01 294.5-10.3 10.26" stroke="#000" stroke-width=".46147" fill="none"/>
</g>
</g>
</g>
</g>
</g>
</svg>
