<?xml version="1.0" encoding="UTF-8" standalone="no"?>
<svg xmlns:rdf="http://www.w3.org/1999/02/22-rdf-syntax-ns#" xmlns="http://www.w3.org/2000/svg" version="1.1" xmlns:cc="http://creativecommons.org/ns#" xmlns:xlink="http://www.w3.org/1999/xlink" viewBox="0 0 16 16" xmlns:dc="http://purl.org/dc/elements/1.1/">
<metadata>
<rdf:RDF>
<cc:Work rdf:about="">
<dc:format>image/svg+xml</dc:format>
<dc:type rdf:resource="http://purl.org/dc/dcmitype/StillImage"/>
<dc:title/>
</cc:Work>
</rdf:RDF>
</metadata>
<g transform="translate(-60.426 -164.72)">
<g transform="translate(440.12 -268.54)">
<rect style="color:#000000" height="16" width="16" y="433.26" x="-379.7" fill="none"/>
<g transform="translate(22.539 1.3372)">
<g transform="matrix(1 0 0 1.0508 0 -22.774)">
<g transform="matrix(.84096 0 0 .84096 -631.31 111.66)">
<rect style="color:#000000" height="14.163" width="16.005" y="385.38" x="273.91" fill="none"/>
<rect stroke-linejoin="round" height="6.4723" stroke="#000080" stroke-width=".71830" fill="#fff" fill-rule="evenodd" rx="1.6754" ry="1.6252" width="14.359" y="385.22" x="274.73"/>
<g transform="matrix(1.0027 0 0 .86533 -.77761 53.664)" stroke="#000" stroke-dasharray="1.43526771, 1.43526771" stroke-width="1.4353" fill="none">
<path d="m274.64 399.35h14.565"/>
<path d="m274.64 393.64h14.565"/>
<path d="m274.64 396.5h14.565"/>
</g>
</g>
<path d="m-397.78 432.77v2.4467h-2.2894v1.7062h2.2894v2.4467h1.7413v-2.4467h2.2894v-1.7062h-2.2894v-2.4467h-1.7413z" stroke="#000" stroke-width=".15385px" fill="#f21313"/>
</g>
</g>
</g>
</g>
</svg>
