<?xml version="1.0" encoding="UTF-8" standalone="no"?>
<svg xmlns:rdf="http://www.w3.org/1999/02/22-rdf-syntax-ns#" xmlns="http://www.w3.org/2000/svg" version="1.1" xmlns:cc="http://creativecommons.org/ns#" xmlns:xlink="http://www.w3.org/1999/xlink" viewBox="0 0 16 16" xmlns:dc="http://purl.org/dc/elements/1.1/">
<metadata>
<rdf:RDF>
<cc:Work rdf:about="">
<dc:format>image/svg+xml</dc:format>
<dc:type rdf:resource="http://purl.org/dc/dcmitype/StillImage"/>
<dc:title/>
</cc:Work>
</rdf:RDF>
</metadata>
<g transform="translate(-129.02 -81.772)">
<g transform="translate(453.95 -778.39)">
<rect stroke-linejoin="round" height="7.3909" stroke="#000080" stroke-width=".85776" fill="#fff" fill-rule="evenodd" rx="1.7122" ry="1.6299" width="15.142" y="864.46" x="-324.5"/>
<text xml:space="preserve" font-size="5.1358px" font-style="italic" y="869.96783" x="-323.16437" fill="#000000"><tspan y="869.96783" x="-323.16437">Node</tspan><tspan y="876.38763" x="-323.16437"/></text>
<g transform="matrix(.85044 0 0 .98108 -184.63 3.6574)" fill="#f00">
<path style="color:#000000" d="m-161.28 889.17c0.59165-6.8804 5.7208-14.856 13.736-16l1.3818 2.3683c-7.776 1.6244-12.057 5.7928-15.118 13.632z"/>
<path style="color:#000000" d="m-164.97 874.34c6.9053 0.0759 15.242 4.5947 16.982 12.502l-2.2584 1.555c-2.2009-7.6329-6.6776-11.591-14.723-14.057z"/>
</g>
<rect opacity=".92511" style="color:#000000" rx=".070384" ry=".092563" height="16" width="16" y="860.16" x="-324.93" fill="none"/>
</g>
</g>
</svg>
