<?xml version="1.0" encoding="UTF-8" standalone="no"?>
<svg
   xmlns:dc="http://purl.org/dc/elements/1.1/"
   xmlns:cc="http://creativecommons.org/ns#"
   xmlns:rdf="http://www.w3.org/1999/02/22-rdf-syntax-ns#"
   xmlns:svg="http://www.w3.org/2000/svg"
   xmlns="http://www.w3.org/2000/svg"
   xmlns:sodipodi="http://sodipodi.sourceforge.net/DTD/sodipodi-0.dtd"
   xmlns:inkscape="http://www.inkscape.org/namespaces/inkscape"
   version="1.1"
   viewBox="0 0 16 16"
   id="svg2"
   inkscape:version="0.91 r13725"
   sodipodi:docname="editdelete.svg">
  <defs
     id="defs28" />
  <sodipodi:namedview
     pagecolor="#ffffff"
     bordercolor="#666666"
     borderopacity="1"
     objecttolerance="10"
     gridtolerance="10"
     guidetolerance="10"
     inkscape:pageopacity="0"
     inkscape:pageshadow="2"
     inkscape:window-width="1187"
     inkscape:window-height="759"
     id="namedview26"
     showgrid="false"
     inkscape:zoom="14.75"
     inkscape:cx="-2.3050847"
     inkscape:cy="7.9322034"
     inkscape:window-x="617"
     inkscape:window-y="159"
     inkscape:window-maximized="0"
     inkscape:current-layer="svg2" />
  <metadata
     id="metadata4">
    <rdf:RDF>
      <cc:Work
         rdf:about="">
        <dc:format>image/svg+xml</dc:format>
        <dc:type
           rdf:resource="http://purl.org/dc/dcmitype/StillImage" />
        <dc:title />
      </cc:Work>
    </rdf:RDF>
  </metadata>
  <g
     id="g4493">
    <rect
       style="fill:#ffffff;fill-rule:evenodd;stroke:#000080;stroke-width:0.85776001;stroke-linejoin:round"
       id="rect10"
       x="0.43000001"
       y="4.2980218"
       width="15.142"
       ry="1.6299"
       rx="1.7122"
       height="7.3909001" />
    <g
       id="text12"
       style="font-style:italic;font-size:5.13579988px;fill:#000000">
      <path
         id="path4485"
         style=""
         d="m 2.6333016,6.0618166 0.6820984,0 1.0331785,3.2098749 0.6269287,-3.2098749 0.4940198,0 -0.729745,3.7440182 -0.6846061,0 -1.0306708,-3.2299367 -0.6269287,3.2299367 -0.4940198,0 0.729745,-3.7440182 z" />
      <path
         id="path4487"
         style=""
         d="m 6.911463,9.8785585 q -0.4940198,0 -0.782407,-0.3034335 -0.2858795,-0.3059412 -0.2858795,-0.8325613 0,-0.3059412 0.097801,-0.6219133 Q 6.041286,7.8021707 6.199272,7.5865072 6.4475358,7.2504734 6.753477,7.0899797 7.0594182,6.9294859 7.4456063,6.9294859 q 0.4789735,0 0.7723761,0.2984181 0.2959104,0.298418 0.2959104,0.7798993 0,0.333526 -0.097801,0.6645444 Q 8.318291,9.003366 8.160305,9.2215372 7.9145489,9.557571 7.6086077,9.7180648 7.3026665,9.8785585 6.911463,9.8785585 Z M 6.32215,8.7275174 q 0,0.3811727 0.1579861,0.571759 0.1604937,0.1880786 0.4839889,0.1880786 0.4639273,0 0.7673607,-0.4037421 0.3059412,-0.4062498 0.3059412,-1.0281631 0,-0.3636186 -0.1630014,-0.5491895 Q 7.711424,7.3206894 7.395452,7.3206894 q -0.2608024,0 -0.4639273,0.122878 Q 6.7283998,7.5639378 6.5679061,7.8122015 6.4500435,7.9977724 6.3848429,8.2360053 6.32215,8.4742382 6.32215,8.7275174 Z" />
      <path
         id="path4489"
         style=""
         d="m 10.893714,9.3845387 q -0.185571,0.2432483 -0.43885,0.3686341 -0.253279,0.1253857 -0.5617283,0.1253857 -0.4212961,0 -0.6670522,-0.2858795 -0.2432483,-0.2883872 -0.2432483,-0.7874224 0,-0.4162807 0.1479552,-0.7924379 0.1479551,-0.3786649 0.4288192,-0.677083 0.1855709,-0.1981095 0.4187884,-0.3009258 0.233217,-0.105324 0.489004,-0.105324 0.270834,0 0.476466,0.1304012 0.20814,0.1304011 0.320988,0.3736495 l 0.300925,-1.529706 0.463928,0 -0.759838,3.9020042 -0.463927,0 0.08777,-0.4212961 z M 9.4618087,8.722502 q 0,0.3636186 0.1630015,0.5667435 0.1655092,0.2031249 0.4564038,0.2031249 0.215664,0 0.398727,-0.1028163 0.185571,-0.105324 0.326003,-0.3084489 0.147955,-0.210648 0.233217,-0.4864967 0.08526,-0.2758486 0.08526,-0.5441741 0,-0.3485723 -0.16551,-0.5441741 -0.163001,-0.1956017 -0.451388,-0.1956017 -0.218171,0 -0.40625,0.1028163 Q 9.9131974,7.5162912 9.7802885,7.7093852 9.634841,7.9175255 9.547071,8.1933742 9.4618087,8.4692228 9.4618087,8.722502 Z" />
      <path
         id="path4491"
         style=""
         d="m 14.477239,8.150743 q 0.0075,-0.040123 0.01003,-0.082755 0.005,-0.042631 0.005,-0.085262 0,-0.3059412 -0.180555,-0.4839889 -0.178048,-0.1780478 -0.486497,-0.1780478 -0.343557,0 -0.606867,0.2181712 -0.26331,0.2156635 -0.398727,0.6143901 l 1.6576,-0.00251 z m 0.401234,0.3611109 -2.146604,0 q -0.01505,0.095293 -0.02006,0.1504629 -0.005,0.05517 -0.005,0.095293 0,0.3485723 0.213156,0.5391587 0.215663,0.1905863 0.606867,0.1905863 0.300926,0 0.569251,-0.067708 0.268326,-0.067708 0.499035,-0.1981095 l -0.08777,0.4564041 q -0.248263,0.1003086 -0.514081,0.1504629 -0.26331,0.050154 -0.536651,0.050154 -0.584298,0 -0.90027,-0.2783563 -0.313464,-0.2808641 -0.313464,-0.7949456 0,-0.4388501 0.155478,-0.8150073 0.157986,-0.378665 0.46142,-0.6745753 0.195602,-0.1855709 0.463927,-0.2858795 0.270833,-0.1003086 0.574267,-0.1003086 0.476466,0 0.75733,0.2858795 0.283371,0.2858795 0.283371,0.7673607 0,0.1153549 -0.01505,0.2482638 -0.01505,0.1304012 -0.04514,0.280864 z" />
    </g>
    <g
       style="fill:#ff0000"
       id="g18"
       transform="matrix(0.85044,0,0,0.98108,140.3,-856.5046)">
      <path
         inkscape:connector-curvature="0"
         id="path20"
         d="m -161.28,889.17 c 0.59165,-6.8804 5.7208,-14.856 13.736,-16 l 1.3818,2.3683 c -7.776,1.6244 -12.057,5.7928 -15.118,13.632 z"
         style="color:#000000" />
      <path
         inkscape:connector-curvature="0"
         id="path22"
         d="m -164.97,874.34 c 6.9053,0.0759 15.242,4.5947 16.982,12.502 l -2.2584,1.555 c -2.2009,-7.6329 -6.6776,-11.591 -14.723,-14.057 z"
         style="color:#000000" />
    </g>
    <rect
       id="rect24"
       x="7.3242186e-006"
       y="-0.0020268555"
       width="16"
       height="16"
       ry="0.092563003"
       rx="0.070384003"
       style="color:#000000;opacity:0.92510998;fill:none" />
  </g>
</svg>
