<?xml version="1.0" encoding="UTF-8" standalone="no"?>
<svg xmlns:rdf="http://www.w3.org/1999/02/22-rdf-syntax-ns#" xmlns="http://www.w3.org/2000/svg" version="1.1" xmlns:cc="http://creativecommons.org/ns#" xmlns:xlink="http://www.w3.org/1999/xlink" viewBox="0 0 15.854 16" xmlns:dc="http://purl.org/dc/elements/1.1/">
<defs>
<linearGradient id="b" y2="124.52" gradientUnits="userSpaceOnUse" x2="219.96" y1="238.03" x1="268.63">
<stop stop-color="#fff" offset="0"/>
<stop stop-color="#fff" stop-opacity=".99225" offset="1"/>
</linearGradient>
</defs>
<metadata>
<rdf:RDF>
<cc:Work rdf:about="">
<dc:format>image/svg+xml</dc:format>
<dc:type rdf:resource="http://purl.org/dc/dcmitype/StillImage"/>
<dc:title/>
</cc:Work>
</rdf:RDF>
</metadata>
<g transform="translate(-106.07 -164.72)">
<g transform="matrix(.99090 0 0 .99090 62.595 98.074)">
<g transform="translate(-45.651 -764.76)">
<g transform="matrix(.70605 0 0 .70605 63.018 229.25)">
<rect opacity=".93720" style="color:#000000" fill-rule="evenodd" height="22.161" width="20.342" stroke="#000" y="854.07" x="38.7" stroke-width=".70817" fill="#fff"/>
<path opacity=".93720" stroke-linejoin="round" style="color:#000000" d="m48.871 858.78h-10.122v-4.6868h10.122m0 4.6868h10.122v-4.6868h-10.122l-0.03471 4.694" fill-rule="evenodd" stroke="#000" stroke-linecap="round" stroke-width=".16712" fill="#b1b1b1"/>
<path opacity=".93720" stroke-linejoin="round" style="color:#000000" d="m48.871 863.64h-10.122v-4.6868h10.122m0 4.6868h10.122v-4.6868h-10.122l-0.03471 4.694" stroke="#000" stroke-linecap="round" stroke-width=".35408" fill="none"/>
<path opacity=".93720" stroke-linejoin="round" style="color:#000000" d="m48.871 868.5h-10.122v-4.6868h10.122m0 4.6868h10.122v-4.6868h-10.122l-0.03471 4.694" stroke="#000" stroke-linecap="round" stroke-width=".35408" fill="none"/>
<path opacity=".93720" stroke-linejoin="round" style="color:#000000" d="m48.871 873.36h-10.122v-4.6868h10.122m0 4.6868h10.122v-4.6868h-10.122l-0.03471 4.694" stroke="#000" stroke-linecap="round" stroke-width=".35408" fill="none"/>
<path opacity=".93720" stroke-linejoin="round" style="color:#000000" d="m39.023 874.74v-1.2365h9.8478 9.8478v1.2365 1.2365h-9.8478-9.8478v-1.2365z" stroke="#000" stroke-linecap="round" stroke-width=".044161" fill="#ccc"/>
<text xml:space="preserve" font-size="2.0835px" font-style="italic" y="861.82092" x="40.057484" fill="#0000ff"><tspan y="861.82092" x="40.057484">Predrag</tspan></text>
<text xml:space="preserve" font-size="2.0835px" font-style="italic" y="866.51904" x="40.350864" fill="#ff0000"><tspan y="866.51904" x="40.350864">Romina</tspan></text>
<text xml:space="preserve" font-size="2.0835px" font-style="italic" y="866.53125" x="51.055748" fill="#008000"><tspan y="866.53125" x="51.055748">Sara</tspan></text>
<text xml:space="preserve" font-size="2.0835px" font-style="italic" y="862.04016" x="51.055748" fill="#ff6600"><tspan y="862.04016" x="51.055748">Stela</tspan></text>
</g>
<rect style="color:#000000" height="16" width="16" y="832.09" x="89.523" fill="none"/>
</g>
<g transform="matrix(1.2007 0 0 1.2007 -9.4542 -14.007)" fill-rule="evenodd">
<circle cy="219.91" transform="matrix(.082981 0 0 .080136 28.09 54.515)" cx="257.44" r="51.206" fill="url(#b)"/>
<path style="color:#000000" d="m49.021 69.232a0.32535 0.32535 0 0 0 -0.32617 0.32617v1.8223h-1.8223a0.32535 0.32535 0 0 0 -0.32617 0.32617v0.86133a0.32535 0.32535 0 0 0 0.32617 0.32617h1.8223v1.8223a0.32535 0.32535 0 0 0 0.32617 0.32617h0.86328a0.32535 0.32535 0 0 0 0.32617 -0.32617v-1.8223h1.8223a0.32535 0.32535 0 0 0 0.32617 -0.32617v-0.86133a0.32535 0.32535 0 0 0 -0.32617 -0.32617h-1.8223v-1.8223a0.32535 0.32535 0 0 0 -0.32617 -0.32617h-0.86328z" xlink:href="#a" transform="translate(-.00023472 .000022134)" stroke="#000" stroke-width=".038849" fill="#00f"/>
<path id="a" style="color:#000000" d="m49.022 69.558v2.1488h-2.1488v0.86196h2.1488v2.1488h0.86196v-2.1488h2.1488v-0.86196h-2.1488v-2.1488h-0.86196z" fill-rule="evenodd" stroke="#000" stroke-width=".038849" fill="#00f"/>
</g>
</g>
</g>
</svg>
