<?xml version="1.0" encoding="UTF-8" standalone="no"?>
<svg xmlns:rdf="http://www.w3.org/1999/02/22-rdf-syntax-ns#" xmlns="http://www.w3.org/2000/svg" version="1.1" xmlns:cc="http://creativecommons.org/ns#" xmlns:xlink="http://www.w3.org/1999/xlink" viewBox="0 0 16.313 16.368" xmlns:dc="http://purl.org/dc/elements/1.1/">
<defs>
<radialGradient id="f" xlink:href="#a" gradientUnits="userSpaceOnUse" cy="718.77" cx="160.44" gradientTransform="matrix(.19981 .17870 -.15894 .16574 241.58 572.22)" r="6.9383"/>
<linearGradient id="a">
<stop stop-color="#fff" offset="0"/>
<stop stop-color="#b9150a" offset="1"/>
</linearGradient>
<radialGradient id="b" xlink:href="#a" gradientUnits="userSpaceOnUse" cy="718.77" cx="160.44" gradientTransform="matrix(.19981 .17871 -.14353 .14931 230.51 584.03)" r="6.9383"/>
<radialGradient id="e" xlink:href="#a" gradientUnits="userSpaceOnUse" cy="718.77" cx="160.44" gradientTransform="matrix(.19980 .17871 -.15040 .15662 235.45 578.78)" r="6.9383"/>
<filter id="j" style="color-interpolation-filters:sRGB">
<feGaussianBlur stdDeviation="0.61377733"/>
</filter>
<linearGradient id="d" y2="29.408" xlink:href="#c" gradientUnits="userSpaceOnUse" x2="32.888" y1="22.38" x1="35.687"/>
<linearGradient id="c">
<stop stop-color="#fffffd" stop-opacity="0" offset="0"/>
<stop stop-color="#fffab3" stop-opacity=".84375" offset=".31646"/>
<stop stop-color="#fffbfb" stop-opacity="0" offset="1"/>
</linearGradient>
<linearGradient id="i" y2="43.595" gradientUnits="userSpaceOnUse" x2="48.452" gradientTransform="translate(-.75 6.25)" y1="52.405" x1="43.549">
<stop stop-color="#2b2b2b" stop-opacity=".67188" offset="0"/>
<stop stop-opacity=".58594" offset=".28481"/>
<stop stop-color="#333" stop-opacity="0" offset="1"/>
</linearGradient>
<linearGradient id="h" y2="43.97" xlink:href="#c" gradientUnits="userSpaceOnUse" x2="46.986" gradientTransform="translate(-.75 6.25)" y1="39.783" x1="53.164"/>
<linearGradient id="g" y2="8.8007" gradientUnits="userSpaceOnUse" x2="14.143" y1="14.623" x1="14.069">
<stop stop-opacity=".52344" offset="0"/>
<stop stop-color="#fff" stop-opacity=".78039" offset="1"/>
</linearGradient>
<filter id="k" style="color-interpolation-filters:sRGB" height="1.4931" width="1.8416" y="-.24656" x="-.42079">
<feGaussianBlur stdDeviation="0.56224844"/>
</filter>
</defs>
<metadata>
<rdf:RDF>
<cc:Work rdf:about="">
<dc:format>image/svg+xml</dc:format>
<dc:type rdf:resource="http://purl.org/dc/dcmitype/StillImage"/>
<dc:title/>
</cc:Work>
</rdf:RDF>
</metadata>
<g transform="translate(-62.731 -187.56)">
<g transform="matrix(1.014 0 0 1.014 573.05 -510.25)">
<g transform="matrix(.45725 .044646 0 .42579 -263.86 413.93)">
<rect transform="matrix(.92114 -.38924 0 1 0 0)" height="29.416" width="24.606" stroke="#d40000" y="485.68" x="-567.88" fill="#ff0"/>
<g>
<circle cx="160.79" transform="matrix(.64502 -.27257 0 .67601 -623.02 266.93)" cy="721.26" r="2.962" fill="url(#f)"/>
<rect ry=".18629" rx=".12231" transform="matrix(.92114 -.38924 0 1 0 0)" height="2.0194" width="13.971" y="490.23" x="-560.16"/>
<circle cx="160.79" transform="matrix(.64502 -.27257 0 .67601 -623.02 278.47)" cy="721.26" r="2.962" fill="url(#b)"/>
<rect ry=".18629" rx=".12231" transform="matrix(.92114 -.38924 0 1 0 0)" height="2.0194" width="13.971" y="501.77" x="-560.16"/>
<circle cx="160.79" transform="matrix(.64502 -.27257 0 .67601 -623.02 272.7)" cy="721.26" r="2.962" fill="url(#e)"/>
<g transform="matrix(1 -.42257 0 1 -640.34 117.66)">
<rect rx=".11266" ry=".18629" height="2.0194" width="12.869" y="648.93" x="124.36"/>
</g>
<circle cx="160.79" transform="matrix(.64502 -.27257 0 .67601 -623.02 284.24)" cy="721.26" r="2.962" fill="url(#b)"/>
<rect ry=".18629" rx=".12231" transform="matrix(.92114 -.38924 0 1 0 0)" height="2.0194" width="13.971" y="507.54" x="-560.16"/>
</g>
</g>
<g transform="matrix(.42479 .029187 -.029187 .42479 -272.81 414.06)">
<g transform="matrix(-.44660 0 0 .44660 -455.25 672.13)">
<path d="m11.077 24.893-3.3765 3.3765 24.851 24.851 2.1609 2.1609 0.10129 0.03376 2.1947 0.50647 2.4986-2.4986-28.43-28.43z" fill-opacity=".80328" fill-rule="evenodd" fill="#ff3434"/>
<path opacity="0.98" d="m20.031 16.562c-0.011 0.01-0.022 0.02-0.031 0.032-0.0104-0.00091-0.02085-0.00091-0.03125 0-0.01167 0.0091-0.02216 0.01958-0.03125 0.03125l-3.876 3.875 26.376 26.375 3.874-3.875c0.01167-0.0091 0.02216-0.01958 0.03125-0.03125 0.000909-0.0104 0.00091-0.02085 0-0.03125 0.01442-0.01858 0.02504-0.03982 0.03125-0.0625 0.000909-0.0104 0.00091-0.02085 0-0.03125-0.0091-0.01167-0.01958-0.02216-0.03125-0.03125 0.000909-0.0104 0.00091-0.02085 0-0.03125-0.008-0.011-0.019-0.022-0.031-0.031l-26.124-26.125c-0.0091-0.01167-0.01958-0.02216-0.03125-0.03125-0.0104-0.00091-0.02085-0.00091-0.03125 0-0.01858-0.01442-0.03982-0.02504-0.0625-0.03125-0.0104-0.00091-0.02085-0.00091-0.03125 0zm-3.25 4.2812c0.31548-0.06492 1.0232 0.13566 1.9375 0.625 0.91431 0.48934 2.0419 1.2394 3.3438 2.2188 2.6038 1.9587 5.8531 4.7906 9.1875 8.125 3.5567 3.5567 6.5659 7 8.5312 9.6875 0.98268 1.3438 1.6882 2.5016 2.0938 3.375 0.20275 0.4367 0.33688 0.82084 0.375 1.0938 0.02796 0.20013 0.0119 0.31447-0.03125 0.40625l-25.5-25.5c0.02612-0.0088 0.02808-0.02417 0.0625-0.03125z" fill-rule="evenodd" transform="translate(-7.3614 7.7812)" filter="url(#j)" fill="#ed0000"/>
<path d="m26.781 6.25c-2.1767-0.12554-5.3918 1.4855-8.1875 4.2812-3.7276 3.7276-5.3019 8.1981-3.5312 9.9688 0.41629 0.41629 0.98692 0.6267 1.6562 0.6875l-0.343-0.344c0.01319-0.01781 0.01566-0.04691 0.03125-0.0625 0.06872-0.06872 0.17023-0.10215 0.28125-0.125 0.3463-0.07127 0.91745 0.06928 1.625 0.40625 2.0167-0.44579 4.5001-1.9064 6.7188-4.125 3.728-3.728 5.302-8.1986 3.531-9.9692-0.442-0.4427-1.055-0.677-1.781-0.7188z" fill-rule="evenodd" transform="translate(-7.3614 7.7812)" fill="#860000"/>
<g fill-rule="evenodd" transform="matrix(1.0805 1.0805 -1.0805 1.0805 36.873 -11.707)" fill="#ed0000">
<path d="m28.562 6.9688-13.5 13.531 27 27l13.532-13.5-27.032-27.031zm-11.875 13.688c1.6653-0.3427 7.9461 4.3524 14.625 11.031 7.1241 7.1241 12.006 13.807 10.906 14.906-0.01559 0.01559-0.04469 0.01806-0.0625 0.03125l-25.78-25.781c0.01319-0.01781 0.01566-0.04691 0.03125-0.0625 0.06872-0.06872 0.17023-0.10215 0.28125-0.125z" transform="matrix(.46276 -.46276 .46276 .46276 -11.451 29.489)"/>
<path d="m52.875 31.312-11.844 11.844c1.1274 1.7746 1.6093 3.0157 1.1875 3.4375-0.01559 0.01559-0.04469 0.01806-0.0625 0.03125l-2.2812-2.3125-0.5 0.5 2.7188 2.6875 8.75 2.0312 6.7812-6.75-2.031-8.781-2.719-2.688z" transform="matrix(.46276 -.46276 .46276 .46276 -11.451 29.489)"/>
</g>
<g transform="matrix(1.0805 1.0805 -1.0389 1.0389 35.543 -10.378)" fill="#860000">
<path d="m13.728 10.978v-7.4452l5.3994 3.1173c0.43545 0.25651 0.47055 0.91841 0.04141 1.1866l-5.44 3.1413z" fill-rule="evenodd" transform="matrix(.61897 0 0 .69686 27.512 20.444)" fill="#860000"/>
</g>
<path d="m21.206 14.764-3.3765 3.3765 28.16 28.16 2.6674-2.6674-0.43894-1.857-2.2622-2.2622-24.749-24.749z" fill-opacity=".52459" fill-rule="evenodd" fill="#fff"/>
<path d="m11.062 24.906-3.375 3.375 24.875 24.844 2.1562 2.1562 0.09375 0.03125 2.1875 0.5 2.5-2.5-28.438-28.406z" fill-opacity=".41569" fill-rule="evenodd"/>
<path d="m48.218 41.776c0.1303 1.3034-0.95477 2.8686-3.4777 3.2752-1.0677 4.2832-3.2545 6.2819-6.7191 6.7867-0.67928 2.9521-1.4937 3.5518-3.2752 3.4778l11.311 2.5999c0.12148-0.72099 1.1594-1.8865 2.0218-2.7489s2.1354-1.9122 2.7728-2.0457l-2.634-11.345z" fill-rule="evenodd" fill="#fd5"/>
</g>
<g transform="matrix(-.44660 0 0 .44660 -455.25 672.13)">
<g transform="matrix(1.0805 1.0805 -1.0389 1.0389 35.543 -10.378)" fill="url(#d)">
<path d="m13.728 10.978v-7.4452l5.3994 3.1173c0.43545 0.25651 0.47055 0.91841 0.04141 1.1866l-5.44 3.1413z" fill-rule="evenodd" transform="matrix(.61897 0 0 .69686 27.512 20.444)" fill="url(#d)"/>
</g>
<path d="m48.218 41.776c0.1303 1.3034-0.95477 2.8686-3.4777 3.2752-1.0677 4.2832-3.2545 6.2819-6.7191 6.7867-0.67928 2.9521-1.4937 3.5518-3.2752 3.4778l11.311 2.5999c0.12148-0.72099 1.1594-1.8865 2.0218-2.7489s2.1354-1.9122 2.7728-2.0457l-2.634-11.345z" fill-rule="evenodd" fill="url(#i)"/>
<path opacity=".75709" d="m48.218 41.776c0.1303 1.3034-0.95477 2.8686-3.4777 3.2752-1.0677 4.2832-3.2545 6.2819-6.7191 6.7867-0.67928 2.9521-1.4937 3.5518-3.2752 3.4778l11.311 2.5999c0.12148-0.72099 1.1594-1.8865 2.0218-2.7489s2.1354-1.9122 2.7728-2.0457l-2.634-11.345z" fill-rule="evenodd" fill="url(#h)"/>
<path d="m14.71 14.575c-1.848 0-3.3461-1.3285-3.3461-2.9673s1.4981-2.9673 3.3461-2.9673v2.9673 2.9673z" fill-rule="evenodd" transform="matrix(.95861 .95861 -2.2758 2.2758 26.768 -19)" fill="url(#g)"/>
<path d="m50.573 53.21c0.08255 0.0163 0.65806 2.6441 0.65806 2.6441 0.76266 2.8865 0.91389 2.9662 0.17278 2.7427-0.723-0.35663-1.71-1.5192-2.1711-2.1768-0.44044-0.67086-1.0193-1.7389 0.08043-2.5723 0.38412-0.35825 0.92033-0.70483 1.2598-0.63777z" fill-rule="evenodd" fill-opacity=".29918" filter="url(#k)" fill="#fff"/>
<path d="m19.438 14.031c-2.8856 0.006-5.4077 1.8076-7.5 3.625 1.3408-0.52693 2.6436-1.1997 4.1174-0.92456 1.4089 0.26309 1.033 0.97828 1.7811 1.3779 0.81-0.81 2.572-2.549 3.383-3.359-0.466-0.472-1.132-0.685-1.781-0.719z" fill-opacity=".18443" fill-rule="evenodd" fill="#fff"/>
</g>
<g fill-rule="evenodd" transform="matrix(-.44660 0 0 .44660 -451.96 675.6)">
<path d="m25.206 10.353 26.908 26.908" stroke="#f24e4e" stroke-width=".30037" fill="#b9b9b9"/>
<path d="m18.442 17.107 26.941 26.941" stroke="#b80000" stroke-width=".30073" fill="#fff"/>
</g>
</g>
</g>
</g>
</svg>
