<?xml version="1.0" encoding="UTF-8" standalone="no"?>
<svg
   xmlns:dc="http://purl.org/dc/elements/1.1/"
   xmlns:cc="http://creativecommons.org/ns#"
   xmlns:rdf="http://www.w3.org/1999/02/22-rdf-syntax-ns#"
   xmlns:svg="http://www.w3.org/2000/svg"
   xmlns="http://www.w3.org/2000/svg"
   xmlns:sodipodi="http://sodipodi.sourceforge.net/DTD/sodipodi-0.dtd"
   xmlns:inkscape="http://www.inkscape.org/namespaces/inkscape"
   height="15.989544"
   width="16.889978"
   version="1.1"
   viewBox="0 0 16.889979 15.989544"
   id="svg3320"
   inkscape:version="0.48.5 r10040"
   sodipodi:docname="executescriptforselectionaction.svg">
  <sodipodi:namedview
     pagecolor="#ffffff"
     bordercolor="#666666"
     borderopacity="1"
     objecttolerance="10"
     gridtolerance="10"
     guidetolerance="10"
     inkscape:pageopacity="0"
     inkscape:pageshadow="2"
     inkscape:window-width="640"
     inkscape:window-height="480"
     id="namedview3368"
     showgrid="false"
     fit-margin-top="0"
     fit-margin-left="0"
     fit-margin-right="0"
     fit-margin-bottom="0"
     inkscape:zoom="0.22425739"
     inkscape:cx="343.58056"
     inkscape:cy="-353.21465"
     inkscape:window-x="0"
     inkscape:window-y="27"
     inkscape:window-maximized="0"
     inkscape:current-layer="svg3320" />
  <defs
     id="defs3322">
    <linearGradient
       id="d"
       y2="166.63"
       gradientUnits="userSpaceOnUse"
       x2="-239.53999"
       y1="192.64"
       x1="-241.17">
      <stop
         stop-color="#c8e3ee"
         offset="0"
         id="stop3325" />
      <stop
         stop-color="#fff"
         offset="1"
         id="stop3327" />
    </linearGradient>
    <linearGradient
       id="c"
       y2="170.07001"
       gradientUnits="userSpaceOnUse"
       x2="-230.53"
       y1="173.28"
       x1="-229.32001">
      <stop
         stop-color="#90c7dc"
         offset="0"
         id="stop3330" />
      <stop
         stop-color="#fff"
         offset="1"
         id="stop3332" />
    </linearGradient>
    <linearGradient
       id="b"
       y2="191.92999"
       gradientUnits="userSpaceOnUse"
       x2="-245.73"
       y1="194.64"
       x1="-245.55">
      <stop
         stop-color="#64afd2"
         offset="0"
         id="stop3335" />
      <stop
         stop-color="#fff"
         offset="1"
         id="stop3337" />
    </linearGradient>
    <linearGradient
       id="a"
       y2="377.60001"
       gradientUnits="userSpaceOnUse"
       x2="142.38"
       gradientTransform="matrix(-0.3029,2.1942e-4,-3.1283e-4,-0.19286,-348.14,341.34)"
       y1="388.92001"
       x1="160.7">
      <stop
         stop-color="#36d200"
         offset="0"
         id="stop3340" />
      <stop
         stop-color="#fff"
         offset="1"
         id="stop3342" />
    </linearGradient>
  </defs>
  <metadata
     id="metadata3344">
    <rdf:RDF>
      <cc:Work
         rdf:about="">
        <dc:format>image/svg+xml</dc:format>
        <dc:type
           rdf:resource="http://purl.org/dc/dcmitype/StillImage" />
        <dc:title />
      </cc:Work>
    </rdf:RDF>
  </metadata>
  <g
     transform="matrix(1.0548,0,0,1.0548,428.39332,-274.73691)"
     id="g3346">
    <g
       transform="matrix(0.55109,0,0,0.57877,-265.38,162.31)"
       id="g3348"
       style="stroke-width:1px;stroke-linejoin:round">
      <path
         d="m -234.63,195.29 -17.922,-0.12801 c 8.8005,-1.9328 -0.41555,-23.448 5.7606,-24.963 l 18.07,-0.0756 c -6.9699,0.86566 0.94577,25.241 -5.9087,25.166 z"
         id="path3350"
         inkscape:connector-curvature="0"
         style="fill:url(#d);stroke:#0073b3" />
      <path
         d="m -231.5,173.78 4.6146,0.0567 c 0.13634,-1.7956 -0.74159,-3.7591 -1.9593,-3.7557 -1.9505,0.50173 -2.2545,2.4591 -2.6554,3.699 z"
         id="path3352"
         inkscape:connector-curvature="0"
         style="fill:url(#c);stroke:#0073b3" />
      <path
         d="m -252.62,195.16 c -2.0319,-0.87677 -2.019,-2.4351 -2.2929,-3.8979 h 18.458 c 0.17074,1.9039 0.56722,3.7897 1.9776,3.9266 z"
         id="path3354"
         inkscape:connector-curvature="0"
         style="fill:url(#b);stroke:#0072af" />
    </g>
    <path
       style="text-indent:0;text-transform:none;block-progression:tb;color:#000000;fill:#003380;stroke:#000080;stroke-width:0.17577;stroke-linecap:round;stroke-linejoin:round;stroke-opacity:0.99607999"
       d="m -404.76,267.01 c 0.68916,0.0141 1.3258,0.0845 2.0493,0.6808 0.68479,0.57469 1.5621,1.188 2.1461,1.1213 -0.48823,0.0517 -1.2588,-0.61277 -1.9334,-1.3097 -1.0109,-1.0316 -1.5542,-1.1334 -2.258,-1.1478 l -0.004,0.65533 v 0 z"
       id="path3356"
       inkscape:connector-curvature="0" />
    <g
       transform="matrix(0.39283,0,0,0.39283,-296.78,-72.13)"
       id="g3358">
      <rect
         height="7.3909001"
         rx="1.7122"
         ry="1.6299"
         width="15.142"
         y="864.46002"
         x="-264.92999"
         id="rect3360"
         style="fill:#ffffff;fill-rule:evenodd;stroke:#000080;stroke-width:0.85776001;stroke-linejoin:round" />
    </g>
    <path
       style="text-indent:0;text-transform:none;block-progression:tb;color:#000000;fill:#003380;stroke:#000080;stroke-width:0.17577;stroke-linecap:round;stroke-linejoin:round;stroke-opacity:0.99607999"
       d="m -404.41,266.34 c 0.68916,-0.0141 1.3258,-0.0845 2.0493,-0.68079 0.68479,-0.57469 1.5621,-1.1881 2.1461,-1.1213 -0.48824,-0.0517 -1.2588,0.61278 -1.9334,1.3097 -1.0109,1.0316 -1.5542,1.1334 -2.258,1.1478 l -0.004,-0.65534 h -2e-5 z"
       id="path3362"
       inkscape:connector-curvature="0" />
    <rect
       height="2.9033"
       rx="0.67260998"
       ry="0.64025998"
       width="5.9482999"
       y="262.35001"
       x="-401.67001"
       id="rect3364"
       style="fill:#ffffff;fill-rule:evenodd;stroke:#000080;stroke-width:0.33695;stroke-linejoin:round" />
    <path
       d="m -390.35,266.95 -3.5088,2.3951 -0.0174,-1.4196 -3.6249,0.0459 -0.003,-1.9948 3.6249,-0.0295 -0.002,-1.3819 3.5316,2.3849 z"
       id="path3366"
       inkscape:connector-curvature="0"
       style="fill:url(#a);fill-rule:evenodd;stroke:#005200;stroke-width:0.24169999px" />
  </g>
</svg>
