<?xml version="1.0" encoding="UTF-8" standalone="no"?>
<svg xmlns:rdf="http://www.w3.org/1999/02/22-rdf-syntax-ns#" xmlns="http://www.w3.org/2000/svg" version="1.1" xmlns:cc="http://creativecommons.org/ns#" xmlns:xlink="http://www.w3.org/1999/xlink" viewBox="0 0 16 16" xmlns:dc="http://purl.org/dc/elements/1.1/">
<defs>
<linearGradient id="d" y2="907.59" gradientUnits="userSpaceOnUse" x2="-278.93" gradientTransform="matrix(-1.1335 0 0 -1.1335 -555.03 2007.9)" y1="932.61" x1="-258.39">
<stop stop-color="#083ea2" offset="0"/>
<stop stop-color="#a8e2fb" offset="1"/>
</linearGradient>
<linearGradient id="c" y2="932.7" gradientUnits="userSpaceOnUse" x2="-265.45" gradientTransform="matrix(-1.1335 0 0 -1.1335 -555.1 2008)" y1="924.27" x1="-276.11">
<stop stop-color="#c1c1c1" offset="0"/>
<stop stop-color="#fff" offset=".5"/>
<stop stop-color="#9c9c9c" offset="1"/>
</linearGradient>
<linearGradient id="b" y2="907.59" gradientUnits="userSpaceOnUse" x2="-278.93" gradientTransform="matrix(-1.1335 0 0 -1.1335 -541.54 2021.1)" y1="932.61" x1="-258.39">
<stop stop-color="#f60" offset="0"/>
<stop stop-color="#fca" offset="1"/>
</linearGradient>
<linearGradient id="a" y2="932.7" gradientUnits="userSpaceOnUse" x2="-265.45" gradientTransform="matrix(-1.1335 0 0 -1.1335 -541.61 2021.3)" y1="924.27" x1="-276.11">
<stop stop-color="#c1c1c1" offset="0"/>
<stop stop-color="#fff" offset=".5"/>
<stop stop-color="#9c9c9c" offset="1"/>
</linearGradient>
</defs>
<metadata>
<rdf:RDF>
<cc:Work rdf:about="">
<dc:format>image/svg+xml</dc:format>
<dc:type rdf:resource="http://purl.org/dc/dcmitype/StillImage"/>
<dc:title/>
</cc:Work>
</rdf:RDF>
</metadata>
<g transform="translate(-95.692 -146.29)">
<g transform="translate(258.99 -685.8)">
<g transform="matrix(.36790 0 0 .36790 -64.569 482.65)">
<path d="m-264.23 957.41v-1.1174h0.79994l-1.3205-2.9966-1.3206 2.9966h0.78724v1.1174h1.0539z" stroke="#000" stroke-width=".050790" fill="#909192"/>
<path d="m-238.57 980.93h-27.568c-1.1216 0-2.0245-0.90293-2.0245-2.0245v-25.864c0-1.1216 0.90292-2.0245 2.0245-2.0245h13.784l8.5363 0.41104 3.2759 0.0457 0.62691-0.45672h1.3451l2.0245 2.0245v25.865c0 1.1216-0.90293 2.0245-2.0245 2.0245z" stroke="#000" stroke-width=".38256" fill="url(#d)"/>
<path d="m-241.35 980.71v-14.58c0-0.5513-0.44061-0.96198-0.98321-0.96198h-19.919c-0.5426 0-0.98321 0.41068-0.98321 0.96198v14.58h21.885z" stroke="#000" stroke-width=".17619" fill="#fff"/>
<rect transform="scale(-1)" height="2.0567" width="21.648" y="-980.54" x="241.45" fill="#ffee4f"/>
<path d="m-243.04 976.06h-18.361" stroke="#000" stroke-width=".14682" fill="none"/>
<path d="m-243.04 973.36h-18.361" stroke="#000" stroke-width=".14682" fill="none"/>
<path d="m-243.04 970.66h-18.361" stroke="#000" stroke-width=".14682" fill="none"/>
<path d="m-243.04 967.96h-18.361" stroke="#000" stroke-width=".14682" fill="none"/>
<path d="m-242.96 960.42c0.56094 0 0.99182-0.43087 0.99182-0.99181v-8.2888h-20.041v8.2888c-0.00001 0.56095 0.46629 0.99181 1.0272 0.99181h18.022z" stroke="#000" stroke-width=".14169" fill="#6aa3d9"/>
<path d="m-243.31 960.25c0.56094 0.00001 0.99182-0.43087 0.99182-0.99182l0.0516-8.2888h-15.265l-0.0516 8.2888c0 0.56095 0.4663 0.99182 1.0272 0.99182h13.246zm-1.6133-1.4877h-2.019c-0.40919 0-0.74387-0.33467-0.74387-0.74386v-5.6866h3.5068v5.6866c0 0.40919-0.33467 0.74386-0.74387 0.74386z" stroke="#000" stroke-width=".28338" fill="url(#c)"/>
<path d="m-242.91 960.32h-17.573" stroke="#acabac" stroke-width=".11335" fill="none"/>
<g transform="translate(-2,-2)">
<rect transform="scale(-1)" height="1.0786" width="1.5433" stroke="#000" y="-979.72" x="238.09" stroke-width=".14795" fill="#fff"/>
<path d="m-250.74 970.62v-1.1174h0.79994l-1.3205-2.9966-1.3206 2.9966h0.78724v1.1174h1.0539z" stroke="#000" stroke-width=".050790" fill="#909192"/>
<path d="m-225.08 994.14h-27.568c-1.1216 0-2.0245-0.90293-2.0245-2.0245v-25.864c0-1.1216 0.90292-2.0245 2.0245-2.0245h13.784l8.5363 0.41104 3.2759 0.0457 0.62691-0.45672h1.3451l2.0245 2.0245v25.865c0 1.1216-0.90293 2.0245-2.0245 2.0245z" stroke="#000" stroke-width=".38256" fill="url(#b)"/>
<path d="m-227.86 993.92v-14.58c0-0.5513-0.44061-0.96198-0.98321-0.96198h-19.919c-0.5426 0-0.98321 0.41068-0.98321 0.96198v14.58h21.885z" stroke="#000" stroke-width=".17619" fill="#fff"/>
<rect transform="scale(-1)" height="2.0567" width="21.648" y="-993.75" x="227.96" fill="#ffee4f"/>
<path d="m-229.55 989.27h-18.361" stroke="#000" stroke-width=".14682" fill="none"/>
<path d="m-229.55 986.57h-18.361" stroke="#000" stroke-width=".14682" fill="none"/>
<path d="m-229.55 983.87h-18.361" stroke="#000" stroke-width=".14682" fill="none"/>
<path d="m-229.55 981.17h-18.361" stroke="#000" stroke-width=".14682" fill="none"/>
<rect transform="scale(-1)" height="1.0786" width="1.5433" stroke="#000" y="-992.93" x="224.6" stroke-width=".14795" fill="#fff"/>
<path d="m-229.47 973.63c0.56094 0 0.99182-0.43087 0.99182-0.99181v-8.2888h-20.041v8.2888c-0.00001 0.56095 0.46629 0.99181 1.0272 0.99181h18.022z" stroke="#000" stroke-width=".14169" fill="#ffa86d"/>
<path d="m-229.82 973.46c0.56094 0.00001 0.99182-0.43087 0.99182-0.99182l0.0516-8.2888h-15.265l-0.0516 8.2888c0 0.56095 0.4663 0.99182 1.0272 0.99182h13.246zm-1.6133-1.4877h-2.019c-0.40919 0-0.74387-0.33467-0.74387-0.74386v-5.6866h3.5068v5.6866c0 0.40919-0.33467 0.74386-0.74387 0.74386z" stroke="#000" stroke-width=".28338" fill="url(#a)"/>
<path d="m-229.42 973.53h-17.573" stroke="#acabac" stroke-width=".11335" fill="none"/>
</g>
</g>
<rect style="color:#000000" height="16" width="16" y="832.09" x="-163.3" fill="none"/>
</g>
</g>
</svg>
