<?xml version="1.0" encoding="UTF-8" standalone="no"?>
<svg xmlns:rdf="http://www.w3.org/1999/02/22-rdf-syntax-ns#" xmlns="http://www.w3.org/2000/svg" version="1.1" xmlns:cc="http://creativecommons.org/ns#" xmlns:xlink="http://www.w3.org/1999/xlink" viewBox="0 0 16 16" xmlns:dc="http://purl.org/dc/elements/1.1/">
<metadata>
<rdf:RDF>
<cc:Work rdf:about="">
<dc:format>image/svg+xml</dc:format>
<dc:type rdf:resource="http://purl.org/dc/dcmitype/StillImage"/>
<dc:title/>
</cc:Work>
</rdf:RDF>
</metadata>
<g transform="translate(-85.244 -114.82)">
<g transform="translate(274.61 -189.36)">
<g transform="translate(-9.3612 -14.184)">
<rect opacity=".92511" style="color:#000000" rx=".070384" ry=".092563" height="16" width="16" y="318.36" x="-180" fill="none"/>
<g transform="matrix(.78772 0 0 .78772 32.426 -352.83)">
<rect stroke-linejoin="round" height="7.3909" stroke="#000080" stroke-width=".85776" fill="#fff" fill-rule="evenodd" rx="1.7122" ry="1.6299" width="15.142" y="864.46" x="-264.93"/>
<text xml:space="preserve" font-size="5.1358px" font-style="italic" y="869.9679" x="-263.59253" fill="#000000"><tspan y="869.9679" x="-263.59253">Node</tspan><tspan y="876.3877" x="-263.59253"/></text>
</g>
<g transform="matrix(.78772 0 0 .78772 29.029 -361.42)">
<rect stroke-linejoin="round" height="7.3909" stroke="#000080" stroke-width=".85776" fill="#fff" fill-rule="evenodd" rx="1.7122" ry="1.6299" width="15.142" y="864.46" x="-264.93"/>
<text xml:space="preserve" font-size="5.1358px" font-style="italic" y="869.9679" x="-263.59253" fill="#000000"><tspan y="869.9679" x="-263.59253">Node</tspan><tspan y="876.3877" x="-263.59253"/></text>
</g>
</g>
<path d="m-179.81 304.3v3.8769h-3.5925v2.7036h3.5925v3.8769h2.7324v-3.8769h3.5925v-2.7036h-3.5925v-3.8769h-2.7324z" stroke="#f70808" stroke-width=".24259px" fill="#f21313"/>
</g>
</g>
</svg>
