<?xml version="1.0" encoding="UTF-8" standalone="no"?>
<svg xmlns:rdf="http://www.w3.org/1999/02/22-rdf-syntax-ns#" xmlns="http://www.w3.org/2000/svg" version="1.1" xmlns:cc="http://creativecommons.org/ns#" xmlns:xlink="http://www.w3.org/1999/xlink" viewBox="0 0 16 16" xmlns:dc="http://purl.org/dc/elements/1.1/">
<defs>
<radialGradient id="c" gradientUnits="userSpaceOnUse" cy="201.49" cx="250.8" gradientTransform="matrix(.61353 .75941 -.64044 .51741 225.97 -93.219)" r="51.206">
<stop stop-color="#fff" offset="0"/>
<stop stop-color="#f60" offset="1"/>
</radialGradient>
<radialGradient id="b" gradientUnits="userSpaceOnUse" cy="201.49" cx="250.8" gradientTransform="matrix(.61353 .75941 -.64044 .51741 225.97 -93.219)" r="51.206">
<stop stop-color="#fff" offset="0"/>
<stop stop-color="#2ca02c" offset="1"/>
</radialGradient>
<radialGradient id="a" gradientUnits="userSpaceOnUse" cy="201.49" cx="250.8" gradientTransform="matrix(.61353 .75941 -.64044 .51741 225.97 -93.219)" r="51.206">
<stop stop-color="#fff" offset="0"/>
<stop stop-color="#0055d4" offset="1"/>
</radialGradient>
</defs>
<metadata>
<rdf:RDF>
<cc:Work rdf:about="">
<dc:format>image/svg+xml</dc:format>
<dc:type rdf:resource="http://purl.org/dc/dcmitype/StillImage"/>
<dc:title/>
</cc:Work>
</rdf:RDF>
</metadata>
<g transform="translate(-37.639 -141.41)">
<g transform="translate(161.04 -724.37)">
<g transform="matrix(.22785 0 0 .22785 -95.518 655.49)">
<g fill-rule="evenodd" transform="matrix(.91510 0 0 .91510 -5.943 79.75)">
<circle style="color:#000000" stroke-width="2.9068" stroke-opacity=".78453" cy="219.91" transform="matrix(.29248 0 0 .29248 -149.15 917.39)" stroke="#803300" cx="257.44" r="51.206" fill="#db71c9"/>
<circle style="color:#000000" cy="219.91" transform="matrix(.28375 0 0 .28375 -146.9 919.31)" cx="257.44" r="51.206" fill="url(#c)"/>
</g>
<g transform="translate(-6.9782 -36.434)" fill-rule="evenodd">
<circle style="color:#000000" stroke-width="2.9068" stroke-opacity=".78453" cy="219.91" transform="matrix(.30384 0 0 .30384 -139.38 909.5)" stroke="#050" cx="257.44" r="51.206" fill="#00d400"/>
<circle style="color:#000000" cy="219.91" transform="matrix(.29478 0 0 .29478 -137.05 911.49)" cx="257.44" r="51.206" fill="url(#b)"/>
</g>
<path style="color:#000000" d="m-69.956 953.97-1.9614 9.8069" stroke="#000" stroke-linecap="round" stroke-width="6" fill="none"/>
<path style="color:#000000" d="m-95.127 951.68 16.672-8.4994" stroke="#000" stroke-linecap="round" stroke-width="6" fill="none"/>
<path style="color:#000000" d="m-95.127 962.79 14.71 11.768" stroke="#000" stroke-linecap="round" stroke-width="6" fill="none"/>
<g transform="matrix(1.1698 0 0 1.1698 17.718 -162.14)">
<g fill-rule="evenodd" transform="translate(-134.02 30.091)" stroke="#000080">
<circle style="color:#000000" stroke-width="2.9068" stroke-opacity=".78453" cy="219.91" transform="matrix(.29248 0 0 .29248 -45.621 860.51)" cx="257.44" r="51.206" fill="#db71c9"/>
<circle style="color:#000000" cy="219.91" transform="matrix(.28375 0 0 .28375 -43.375 862.43)" cx="257.44" r="51.206" fill="url(#a)"/>
</g>
</g>
</g>
<rect style="color:#000000" height="16" width="16" y="865.78" x="-123.4" fill="none"/>
</g>
</g>
</svg>
