<?xml version="1.0" encoding="UTF-8" standalone="no"?>
<svg
   xmlns:dc="http://purl.org/dc/elements/1.1/"
   xmlns:cc="http://creativecommons.org/ns#"
   xmlns:rdf="http://www.w3.org/1999/02/22-rdf-syntax-ns#"
   xmlns:svg="http://www.w3.org/2000/svg"
   xmlns="http://www.w3.org/2000/svg"
   xmlns:xlink="http://www.w3.org/1999/xlink"
   xmlns:sodipodi="http://sodipodi.sourceforge.net/DTD/sodipodi-0.dtd"
   xmlns:inkscape="http://www.inkscape.org/namespaces/inkscape"
   height="16.011959"
   width="23.143818"
   version="1.1"
   viewBox="0 0 23.143818 16.011959"
   id="svg3455"
   inkscape:version="0.48.5 r10040"
   sodipodi:docname="manage_addon.svg">
  <sodipodi:namedview
     pagecolor="#ffffff"
     bordercolor="#666666"
     borderopacity="1"
     objecttolerance="10"
     gridtolerance="10"
     guidetolerance="10"
     inkscape:pageopacity="0"
     inkscape:pageshadow="2"
     inkscape:window-width="640"
     inkscape:window-height="480"
     id="namedview3531"
     showgrid="false"
     fit-margin-top="0"
     fit-margin-left="0"
     fit-margin-right="0"
     fit-margin-bottom="0"
     inkscape:zoom="0.22425739"
     inkscape:cx="285.71971"
     inkscape:cy="-374.72531"
     inkscape:window-x="0"
     inkscape:window-y="27"
     inkscape:window-maximized="0"
     inkscape:current-layer="svg3455" />
  <defs
     id="defs3457">
    <linearGradient
       id="c">
      <stop
         stop-color="#fff"
         offset="0"
         id="stop3460" />
      <stop
         stop-color="#fff"
         stop-opacity="0"
         offset="1"
         id="stop3462" />
    </linearGradient>
    <linearGradient
       id="g">
      <stop
         stop-color="#eda701"
         offset="0"
         id="stop3465" />
      <stop
         stop-color="#fee806"
         offset="1"
         id="stop3467" />
    </linearGradient>
    <linearGradient
       id="j">
      <stop
         stop-color="#c933b0"
         offset="0"
         id="stop3470" />
      <stop
         stop-color="#f695e8"
         offset="1"
         id="stop3472" />
    </linearGradient>
    <radialGradient
       id="e"
       gradientUnits="userSpaceOnUse"
       cy="235.85001"
       cx="-1490.8"
       gradientTransform="matrix(-1.0088,1.5906,-0.51887,-0.32907,-2866.2,2679.4)"
       r="12.631">
      <stop
         stop-color="#2840d5"
         offset="0"
         id="stop3475" />
      <stop
         stop-color="#99a5eb"
         offset="1"
         id="stop3477" />
    </radialGradient>
    <radialGradient
       id="b"
       xlink:href="#g"
       gradientUnits="userSpaceOnUse"
       cy="235.85001"
       cx="-1490.8"
       gradientTransform="matrix(-1.0088,1.5906,-0.51887,-0.32907,-2866.2,2679.4)"
       r="12.631" />
    <linearGradient
       id="d"
       y2="229.36"
       xlink:href="#c"
       gradientUnits="userSpaceOnUse"
       x2="-1508.5"
       gradientTransform="matrix(-0.13856,0.24444,-0.24509,-0.13939,-511.49,1126.1)"
       y1="210.75"
       x1="-1498.6" />
    <linearGradient
       id="i"
       y2="229.36"
       xlink:href="#c"
       gradientUnits="userSpaceOnUse"
       x2="-1508.5"
       gradientTransform="matrix(-0.13131,0.23166,-0.23227,-0.13211,-503.4,1105.3)"
       y1="210.75"
       x1="-1498.6" />
    <radialGradient
       id="a"
       xlink:href="#j"
       gradientUnits="userSpaceOnUse"
       cy="235.85001"
       cx="-1490.8"
       gradientTransform="matrix(-1.0088,1.5906,-0.51887,-0.32907,-2866.2,2679.4)"
       r="12.631" />
    <linearGradient
       id="h"
       y2="39.685001"
       gradientUnits="userSpaceOnUse"
       x2="34.534"
       gradientTransform="matrix(0.30262,0,0,0.30262,-240.46,727.85)"
       y1="12.285"
       x1="14.463">
      <stop
         stop-color="#dadada"
         offset="0"
         id="stop3484" />
      <stop
         stop-color="#f1f1f1"
         offset="1"
         id="stop3486" />
    </linearGradient>
    <linearGradient
       id="f"
       y2="229.36"
       xlink:href="#c"
       gradientUnits="userSpaceOnUse"
       x2="-1508.5"
       gradientTransform="matrix(-0.14292,0.23542,-0.24256,-0.13916,-524.7,1115.7)"
       y1="210.75"
       x1="-1498.6" />
    <radialGradient
       inkscape:collect="always"
       xlink:href="#g"
       id="radialGradient4958"
       gradientUnits="userSpaceOnUse"
       gradientTransform="matrix(-1.0088,1.5906,-0.51887,-0.32907,-2866.2,2679.4)"
       cx="-1490.8"
       cy="235.85001"
       r="12.631" />
    <linearGradient
       inkscape:collect="always"
       xlink:href="#c"
       id="linearGradient4960"
       gradientUnits="userSpaceOnUse"
       gradientTransform="matrix(-0.13856,0.24444,-0.24509,-0.13939,-511.49,1126.1)"
       x1="-1498.6"
       y1="210.75"
       x2="-1508.5"
       y2="229.36" />
    <radialGradient
       inkscape:collect="always"
       xlink:href="#g"
       id="radialGradient4962"
       gradientUnits="userSpaceOnUse"
       gradientTransform="matrix(-1.0088,1.5906,-0.51887,-0.32907,-2866.2,2679.4)"
       cx="-1490.8"
       cy="235.85001"
       r="12.631" />
    <radialGradient
       inkscape:collect="always"
       xlink:href="#j"
       id="radialGradient4964"
       gradientUnits="userSpaceOnUse"
       gradientTransform="matrix(-1.0088,1.5906,-0.51887,-0.32907,-2866.2,2679.4)"
       cx="-1490.8"
       cy="235.85001"
       r="12.631" />
    <radialGradient
       inkscape:collect="always"
       xlink:href="#j"
       id="radialGradient4966"
       gradientUnits="userSpaceOnUse"
       gradientTransform="matrix(-1.0088,1.5906,-0.51887,-0.32907,-2866.2,2679.4)"
       cx="-1490.8"
       cy="235.85001"
       r="12.631" />
  </defs>
  <metadata
     id="metadata3489">
    <rdf:RDF>
      <cc:Work
         rdf:about="">
        <dc:format>image/svg+xml</dc:format>
        <dc:type
           rdf:resource="http://purl.org/dc/dcmitype/StillImage" />
        <dc:title />
      </cc:Work>
    </rdf:RDF>
  </metadata>
  <g
     transform="translate(415.97247,-775.12382)"
     id="g3491">
    <g
       transform="matrix(0.99142,0,0,0.99142,-41.881,56.566)"
       id="g3493">
      <g
         transform="matrix(1.0018,0,0,1.0018,0.68015,-1.3645)"
         id="g3495">
        <g
           transform="translate(0.57952,0.86928)"
           id="g3497">
          <path
             transform="matrix(-0.22957,0.16231,-0.16297,-0.23043,-661.96,1033.8)"
             d="m -1480.3,247.22 -12.13,5.5765 -10.895,-7.717 1.2358,-13.294 12.13,-5.5765 10.895,7.7171 z"
             id="path3499"
             inkscape:connector-curvature="0"
             style="fill:url(#e);fill-rule:evenodd;stroke:#0d1547;stroke-width:1.77170002" />
        </g>
        <g
           transform="matrix(1,0.0030561,-0.0030561,1,2.1083,1.1601)"
           id="g3501"
           style="fill-rule:evenodd">
          <path
             d="m -1480.3,247.22 -12.13,5.5765 -10.895,-7.717 1.2358,-13.294 12.13,-5.5765 10.895,7.7171 z"
             transform="matrix(-0.22812,0.16407,-0.16501,-0.22861,-660.16,1027.7)"
             id="path3503"
             inkscape:connector-curvature="0"
             style="opacity:0.73683998;fill:url(#radialGradient4958);stroke:#ce6209;stroke-width:1px;stroke-opacity:0.91860004" />
          <path
             d="m -357.66,731.54 1.7821,-3.1439 -1.933,-3.2515 -1.1142,0.14888 c 1.5571,3.3888 1.5523,5.0642 1.2652,6.2466 z"
             id="path3505"
             inkscape:connector-curvature="0"
             style="opacity:0.73683998;fill:url(#linearGradient4960)" />
          <path
             transform="matrix(-0.22812,0.16407,-0.16501,-0.22861,-660.16,1027.7)"
             d="m -1480.3,247.22 -12.13,5.5765 -10.895,-7.717 1.2358,-13.294 12.13,-5.5765 10.895,7.7171 z"
             id="path3507"
             inkscape:connector-curvature="0"
             style="opacity:0.73683998;fill:url(#radialGradient4962);stroke:#ce6209;stroke-width:1px;stroke-opacity:0.91860004" />
          <path
             d="m -357.66,731.54 1.7821,-3.1439 -1.933,-3.2515 -1.1142,0.14888 c 1.5571,3.3888 1.5523,5.0642 1.2652,6.2466 z"
             id="path3509"
             inkscape:connector-curvature="0"
             style="opacity:0.73683998;fill:url(#d)" />
          <path
             d="m -1480.3,247.22 -12.13,5.5765 -10.895,-7.717 1.2358,-13.294 12.13,-5.5765 10.895,7.7171 z"
             transform="matrix(-0.22812,0.16407,-0.16501,-0.22861,-660.16,1027.7)"
             id="path3511"
             inkscape:connector-curvature="0"
             style="fill:url(#b);stroke:#3c1d03;stroke-width:1.77320004" />
          <path
             d="m -357.61,731.3 1.6889,-2.9796 -1.832,-3.0816 -1.056,0.14109 c 1.4757,3.2116 1.4712,4.7994 1.1991,5.9201 z"
             id="path3513"
             inkscape:connector-curvature="0"
             style="opacity:0.73683998;fill:url(#i)" />
        </g>
        <path
           d="m -1480.3,247.22 -12.13,5.5765 -10.895,-7.717 1.2358,-13.294 12.13,-5.5765 10.895,7.7171 z"
           transform="matrix(0.25601,0.11742,-0.11715,0.25607,44.412,845.48)"
           id="path3515"
           inkscape:connector-curvature="0"
           style="opacity:0.73683998;fill:url(#radialGradient4964);fill-rule:evenodd;stroke:#800080;stroke-width:1px" />
        <path
           d="m -363.81,734.68 1.8382,-3.0279 -1.8746,-3.1888 -1.1168,0.12775 c 1.4962,3.3165 1.4614,4.9443 1.1532,6.0889 z"
           id="path3517"
           inkscape:connector-curvature="0"
           style="opacity:0.73683998;fill:url(#f);fill-rule:evenodd" />
        <path
           transform="matrix(0.25601,0.11742,-0.11715,0.25607,44.412,845.48)"
           d="m -1480.3,247.22 -12.13,5.5765 -10.895,-7.717 1.2358,-13.294 12.13,-5.5765 10.895,7.7171 z"
           id="path3519"
           inkscape:connector-curvature="0"
           style="opacity:0.73683998;fill:url(#radialGradient4966);fill-rule:evenodd;stroke:#800080;stroke-width:1px" />
        <path
           d="m -1480.3,247.22 -12.13,5.5765 -10.895,-7.717 1.2358,-13.294 12.13,-5.5765 10.895,7.7171 z"
           transform="matrix(0.25601,0.11742,-0.11715,0.25607,44.412,845.48)"
           id="path3521"
           inkscape:connector-curvature="0"
           style="fill:url(#a);fill-rule:evenodd;stroke:#480048;stroke-width:1.77209997" />
        <g
           transform="matrix(0.077328,9.1119e-4,-8.5264e-4,0.077374,-375.14,690.52)"
           id="g3523"
           style="opacity:0.57521997" />
      </g>
    </g>
    <g
       transform="matrix(1.0816,0,0,1.0816,-157.63,-10.459)"
       id="g3525">
      <path
         style="color:#000000;fill:url(#h);stroke:#000000;stroke-width:0.40062001"
         d="m -233.56,729.72 c -0.11342,0.008 -0.22365,0.0253 -0.33504,0.0381 h -0.008 l -0.26651,1.4544 c -0.43438,0.0989 -0.84305,0.26681 -1.2107,0.49495 l -1.1955,-0.86044 c -0.32317,0.25089 -0.61725,0.54351 -0.87567,0.86044 l 0.82998,1.2107 c -0.25201,0.38511 -0.44151,0.82486 -0.54824,1.2868 -2e-5,0.002 -2e-5,0.007 0,0.008 l -1.4468,0.22844 c -0.0264,0.21603 -0.0381,0.43931 -0.0381,0.66246 0,0.18258 0.005,0.36271 0.0229,0.54063 l 1.4468,0.25889 c 0.10289,0.50241 0.29835,0.97161 0.57108,1.3858 l -0.86043,1.1802 c 0.24642,0.30592 0.53091,0.58445 0.83759,0.82997 l 1.2183,-0.8376 c 0.42578,0.27163 0.90108,0.46208 1.4163,0.55586 l 0.22844,1.4392 c 0.16232,0.0148 0.32879,0.0152 0.49494,0.0152 0.23457,-10e-6 0.45864,-0.009 0.6853,-0.0381 l 0.27412,-1.4696 c 0.48917,-0.12174 0.94871,-0.33292 1.3478,-0.61677 l 1.1726,0.85281 c 0.3041,-0.25871 0.58218,-0.55609 0.82237,-0.87565 l -0.85283,-1.2336 c 0.23096,-0.39887 0.39099,-0.83896 0.4721,-1.3097 l 1.4391,-0.22843 c 0.0126,-0.15018 0.0152,-0.29583 0.0152,-0.44926 0,-0.26661 -0.031,-0.52803 -0.0685,-0.78429 l -1.462,-0.2665 c -0.11457,-0.42306 -0.30255,-0.81777 -0.54063,-1.1726 l 0.86044,-1.1802 c -0.26671,-0.32617 -0.57094,-0.62748 -0.90613,-0.88329 l -1.2412,0.85283 c -0.35673,-0.21097 -0.74061,-0.37285 -1.1574,-0.46448 l -0.22843,-1.4468 c -0.20793,-0.0245 -0.41756,-0.0381 -0.63201,-0.0381 -0.058,0 -0.11761,-0.002 -0.17513,0 -0.028,8e-4 -0.0558,-0.002 -0.0838,0 -0.007,4.3e-4 -0.0153,-5e-4 -0.0229,0 z m 0.19797,3.7006 c 0.0278,-0.002 0.0556,0 0.0838,0 0.90134,0 1.6371,0.73577 1.6371,1.6371 0,0.90134 -0.73577,1.6295 -1.6371,1.6295 -0.90134,0 -1.6295,-0.72815 -1.6295,-1.6295 0,-0.87319 0.68338,-1.5934 1.5457,-1.6371 z"
         id="path3527"
         inkscape:connector-curvature="0" />
      <circle
         style="opacity:0.64772997;color:#000000;fill:none;stroke:#ffffff;stroke-width:2.45970011"
         transform="matrix(0.16287,0,0,0.16287,-237.11,731.22)"
         cy="23.782"
         cx="23.511"
         r="12.728"
         id="circle3529"
         d="m 36.238999,23.782 c 0,7.02948 -5.698519,12.727999 -12.727999,12.727999 -7.02948,0 -12.728,-5.698519 -12.728,-12.727999 0,-7.029481 5.69852,-12.728 12.728,-12.728 7.02948,0 12.727999,5.698519 12.727999,12.728 z"
         sodipodi:cx="23.511"
         sodipodi:cy="23.782"
         sodipodi:rx="12.728"
         sodipodi:ry="12.728" />
    </g>
  </g>
</svg>
