<?xml version="1.0" encoding="UTF-8" standalone="no"?>
<svg
   xmlns:dc="http://purl.org/dc/elements/1.1/"
   xmlns:cc="http://creativecommons.org/ns#"
   xmlns:rdf="http://www.w3.org/1999/02/22-rdf-syntax-ns#"
   xmlns:svg="http://www.w3.org/2000/svg"
   xmlns="http://www.w3.org/2000/svg"
   xmlns:sodipodi="http://sodipodi.sourceforge.net/DTD/sodipodi-0.dtd"
   xmlns:inkscape="http://www.inkscape.org/namespaces/inkscape"
   height="16"
   width="24.893923"
   version="1.1"
   viewBox="0 0 24.893923 16"
   id="svg3533"
   inkscape:version="0.48.5 r10040"
   sodipodi:docname="manage_themes.svg">
  <sodipodi:namedview
     pagecolor="#ffffff"
     bordercolor="#666666"
     borderopacity="1"
     objecttolerance="10"
     gridtolerance="10"
     guidetolerance="10"
     inkscape:pageopacity="0"
     inkscape:pageshadow="2"
     inkscape:window-width="640"
     inkscape:window-height="480"
     id="namedview3602"
     showgrid="false"
     fit-margin-top="0"
     fit-margin-left="0"
     fit-margin-right="0"
     fit-margin-bottom="0"
     inkscape:zoom="0.22425739"
     inkscape:cx="253.01617"
     inkscape:cy="-374.57984"
     inkscape:window-x="0"
     inkscape:window-y="27"
     inkscape:window-maximized="0"
     inkscape:current-layer="svg3533" />
  <defs
     id="defs3535">
    <linearGradient
       id="b"
       y2="823.71997"
       gradientUnits="userSpaceOnUse"
       x2="-285.82999"
       gradientTransform="translate(-73,-32.856)"
       y1="808.62"
       x1="-300.92999">
      <stop
         offset="0"
         id="stop3538" />
      <stop
         stop-color="#ccc"
         offset="1"
         id="stop3540" />
    </linearGradient>
    <linearGradient
       id="c"
       y2="813.87"
       gradientUnits="userSpaceOnUse"
       x2="-295.78"
       gradientTransform="translate(-73,-33.033)"
       y1="810.40002"
       x1="-299.17001">
      <stop
         stop-color="#f60"
         offset="0"
         id="stop3543" />
      <stop
         stop-color="#f9ac79"
         offset="1"
         id="stop3545" />
    </linearGradient>
    <linearGradient
       id="d"
       y2="818.06"
       gradientUnits="userSpaceOnUse"
       x2="-295.78"
       gradientTransform="translate(-64.746,-28.893)"
       y1="814.65002"
       x1="-299.28">
      <stop
         stop-color="#00f"
         offset="0"
         id="stop3548" />
      <stop
         stop-color="#6666fa"
         offset="1"
         id="stop3550" />
    </linearGradient>
    <linearGradient
       id="e"
       y2="822.23999"
       gradientUnits="userSpaceOnUse"
       x2="-295.78"
       gradientTransform="translate(-73,-33.061)"
       y1="818.78998"
       x1="-299.28">
      <stop
         stop-color="#fc0"
         offset="0"
         id="stop3553" />
      <stop
         stop-color="#f7e28c"
         offset="1"
         id="stop3555" />
    </linearGradient>
    <linearGradient
       id="f"
       y2="829.98999"
       gradientUnits="userSpaceOnUse"
       x2="-288.70999"
       gradientTransform="translate(-71.816,-49.115)"
       y1="826.48999"
       x1="-292.20999">
      <stop
         stop-color="#ce72fc"
         offset="0"
         id="stop3558" />
      <stop
         stop-color="#d893fa"
         offset="1"
         id="stop3560" />
    </linearGradient>
    <linearGradient
       id="g"
       y2="822.19"
       gradientUnits="userSpaceOnUse"
       x2="-291.66"
       gradientTransform="translate(-73,-33.033)"
       y1="818.67999"
       x1="-295.16">
      <stop
         stop-color="#008000"
         offset="0"
         id="stop3563" />
      <stop
         stop-color="#78b978"
         offset="1"
         id="stop3565" />
    </linearGradient>
    <linearGradient
       id="a"
       y2="39.685001"
       gradientUnits="userSpaceOnUse"
       x2="34.534"
       gradientTransform="matrix(0.30262,0,0,0.30262,-240.46,727.85)"
       y1="12.285"
       x1="14.463">
      <stop
         stop-color="#dadada"
         offset="0"
         id="stop3568" />
      <stop
         stop-color="#f1f1f1"
         offset="1"
         id="stop3570" />
    </linearGradient>
  </defs>
  <metadata
     id="metadata3572">
    <rdf:RDF>
      <cc:Work
         rdf:about="">
        <dc:format>image/svg+xml</dc:format>
        <dc:type
           rdf:resource="http://purl.org/dc/dcmitype/StillImage" />
        <dc:title />
      </cc:Work>
    </rdf:RDF>
  </metadata>
  <g
     transform="translate(383.26892,-775.28125)"
     id="g3574">
    <rect
       style="color:#000000;fill:#f2f2f2;stroke:url(#b);stroke-width:0.72100002;stroke-linecap:round"
       height="15.279"
       width="15.279"
       y="775.65002"
       x="-374.01999"
       id="rect3576" />
    <rect
       style="color:#000000;fill:url(#c)"
       height="3.5"
       width="3.5"
       y="777.37"
       x="-372.28"
       id="rect3578" />
    <rect
       style="color:#000000;fill:url(#d)"
       height="3.5"
       width="3.5"
       y="785.71002"
       x="-364.03"
       id="rect3580" />
    <rect
       style="color:#000000;fill:url(#e)"
       height="3.5"
       width="3.5"
       y="785.67999"
       x="-372.28"
       id="rect3582" />
    <rect
       style="color:#000000;fill:url(#f)"
       height="3.5"
       width="3.5"
       y="777.37"
       x="-364.03"
       id="rect3584" />
    <rect
       style="color:#000000;fill:#ff4f4f"
       height="3.5"
       width="3.5"
       y="777.37"
       x="-368.16"
       id="rect3586" />
    <rect
       style="color:#000000"
       height="3.5"
       width="3.5"
       y="781.53998"
       x="-372.34"
       id="rect3588" />
    <rect
       style="color:#000000;fill:#ffffff"
       height="3.5"
       width="3.5"
       y="781.56"
       x="-364.07999"
       id="rect3590" />
    <rect
       style="color:#000000;fill:#b3b3b3"
       height="3.5"
       width="3.5"
       y="781.56"
       x="-368.16"
       id="rect3592" />
    <rect
       style="color:#000000;fill:url(#g)"
       height="3.5"
       width="3.5"
       y="785.65002"
       x="-368.16"
       id="rect3594" />
    <g
       transform="matrix(1.1631,0,0,1.1631,-105.46,-70.969)"
       id="g3596">
      <path
         style="color:#000000;fill:url(#a);stroke:#000000;stroke-width:0.40062001"
         d="m -233.56,729.72 c -0.11342,0.008 -0.22365,0.0253 -0.33504,0.0381 h -0.008 l -0.26651,1.4544 c -0.43438,0.0989 -0.84305,0.26681 -1.2107,0.49495 l -1.1955,-0.86044 c -0.32317,0.25089 -0.61725,0.54351 -0.87567,0.86044 l 0.82998,1.2107 c -0.25201,0.38511 -0.44151,0.82486 -0.54824,1.2868 -2e-5,0.002 -2e-5,0.007 0,0.008 l -1.4468,0.22844 c -0.0264,0.21603 -0.0381,0.43931 -0.0381,0.66246 0,0.18258 0.005,0.36271 0.0229,0.54063 l 1.4468,0.25889 c 0.10289,0.50241 0.29835,0.97161 0.57108,1.3858 l -0.86043,1.1802 c 0.24642,0.30592 0.53091,0.58445 0.83759,0.82997 l 1.2183,-0.8376 c 0.42578,0.27163 0.90108,0.46208 1.4163,0.55586 l 0.22844,1.4392 c 0.16232,0.0148 0.32879,0.0152 0.49494,0.0152 0.23457,-10e-6 0.45864,-0.009 0.6853,-0.0381 l 0.27412,-1.4696 c 0.48917,-0.12174 0.94871,-0.33292 1.3478,-0.61677 l 1.1726,0.85281 c 0.3041,-0.25871 0.58218,-0.55609 0.82237,-0.87565 l -0.85283,-1.2336 c 0.23096,-0.39887 0.39099,-0.83896 0.4721,-1.3097 l 1.4391,-0.22843 c 0.0126,-0.15018 0.0152,-0.29583 0.0152,-0.44926 0,-0.26661 -0.031,-0.52803 -0.0685,-0.78429 l -1.462,-0.2665 c -0.11457,-0.42306 -0.30255,-0.81777 -0.54063,-1.1726 l 0.86044,-1.1802 c -0.26671,-0.32617 -0.57094,-0.62748 -0.90613,-0.88329 l -1.2412,0.85283 c -0.35673,-0.21097 -0.74061,-0.37285 -1.1574,-0.46448 l -0.22843,-1.4468 c -0.20793,-0.0245 -0.41756,-0.0381 -0.63201,-0.0381 -0.058,0 -0.11761,-0.002 -0.17513,0 -0.028,8e-4 -0.0558,-0.002 -0.0838,0 -0.007,4.3e-4 -0.0153,-5e-4 -0.0229,0 z m 0.19797,3.7006 c 0.0278,-0.002 0.0556,0 0.0838,0 0.90134,0 1.6371,0.73577 1.6371,1.6371 0,0.90134 -0.73577,1.6295 -1.6371,1.6295 -0.90134,0 -1.6295,-0.72815 -1.6295,-1.6295 0,-0.87319 0.68338,-1.5934 1.5457,-1.6371 z"
         id="path3598"
         inkscape:connector-curvature="0" />
      <circle
         style="opacity:0.64772997;color:#000000;fill:none;stroke:#ffffff;stroke-width:2.45970011"
         transform="matrix(0.16287,0,0,0.16287,-237.11,731.22)"
         cy="23.782"
         cx="23.511"
         r="12.728"
         id="circle3600"
         d="m 36.238999,23.782 c 0,7.02948 -5.698519,12.727999 -12.727999,12.727999 -7.02948,0 -12.728,-5.698519 -12.728,-12.727999 0,-7.029481 5.69852,-12.728 12.728,-12.728 7.02948,0 12.727999,5.698519 12.727999,12.728 z"
         sodipodi:cx="23.511"
         sodipodi:cy="23.782"
         sodipodi:rx="12.728"
         sodipodi:ry="12.728" />
    </g>
  </g>
</svg>
