<?xml version="1.0" encoding="UTF-8" standalone="no"?>
<svg xmlns:rdf="http://www.w3.org/1999/02/22-rdf-syntax-ns#" xmlns="http://www.w3.org/2000/svg" version="1.1" xmlns:cc="http://creativecommons.org/ns#" xmlns:xlink="http://www.w3.org/1999/xlink" viewBox="0 0 16 16.093" xmlns:dc="http://purl.org/dc/elements/1.1/">
<defs>
<linearGradient id="a" y2="-2104.9" gradientUnits="userSpaceOnUse" x2="-2596.4" gradientTransform="matrix(.37028 0 0 .36654 1011.7 985.36)" y1="-2128.6" x1="-2585.9">
<stop stop-color="#5fbcd3" offset="0"/>
<stop stop-color="#d5f6ff" offset="1"/>
</linearGradient>
<filter id="b" style="color-interpolation-filters:sRGB" height="1.3315" width="1.3481" y="-.16576" x="-.17407">
<feGaussianBlur stdDeviation="0.82320991"/>
</filter>
</defs>
<metadata>
<rdf:RDF>
<cc:Work rdf:about="">
<dc:format>image/svg+xml</dc:format>
<dc:type rdf:resource="http://purl.org/dc/dcmitype/StillImage"/>
<dc:title/>
</cc:Work>
</rdf:RDF>
</metadata>
<g transform="translate(-86.047 -237.51)">
<g transform="translate(279.98 -123.29)">
<g fill-rule="evenodd" transform="translate(-234.6 158.24)">
<path d="m44.481 203.1h7.8035l3.9268 4.0816-0.0887 11.207h-11.642v-15.288z" stroke="#006680" stroke-width=".53351" fill="url(#a)"/>
<path stroke-linejoin="round" d="m-2829.3-1828.3c1.0683 4.7916 0.3837 8.5401-0.06 10.889 2.6346-0.6545 5.7398-1.3853 10.35 0.03-4.9699-5.5487-6.9971-7.2565-10.29-10.919z" transform="matrix(.33386 0 0 .33049 996.91 807.89)" filter="url(#b)" stroke="#666" stroke-width="1.6061" fill="#d3d3d3"/>
<path stroke-linejoin="round" d="m52.517 203.34c0.35669 1.5836 0.12812 2.8224-0.02 3.5988 0.8796-0.21633 1.9163-0.45787 3.4556 0.009-1.6593-1.8338-2.3361-2.3982-3.4356-3.6086z" stroke="#006680" stroke-width=".53351" fill="#aef"/>
</g>
<rect style="color:#000000" height="16" width="16" y="360.8" x="-193.93" fill="none"/>
</g>
</g>
</svg>
