<?xml version="1.0" encoding="UTF-8" standalone="no"?>
<!-- Created with Inkscape (http://www.inkscape.org/) -->

<svg
   xmlns:dc="http://purl.org/dc/elements/1.1/"
   xmlns:cc="http://creativecommons.org/ns#"
   xmlns:rdf="http://www.w3.org/1999/02/22-rdf-syntax-ns#"
   xmlns:svg="http://www.w3.org/2000/svg"
   xmlns="http://www.w3.org/2000/svg"
   xmlns:xlink="http://www.w3.org/1999/xlink"
   xmlns:sodipodi="http://sodipodi.sourceforge.net/DTD/sodipodi-0.dtd"
   xmlns:inkscape="http://www.inkscape.org/namespaces/inkscape"
   width="11.821814mm"
   height="10.402451mm"
   viewBox="0 0 41.888317 36.859077"
   id="svg5769"
   version="1.1"
   inkscape:version="0.91 r13725"
   sodipodi:docname="NewPresentation.svg">
  <defs
     id="defs5771">
    <linearGradient
       inkscape:collect="always"
       id="linearGradient4484">
      <stop
         style="stop-color:#ffffff;stop-opacity:1;"
         offset="0"
         id="stop4486" />
      <stop
         style="stop-color:#ffffff;stop-opacity:0;"
         offset="1"
         id="stop4488" />
    </linearGradient>
    <linearGradient
       x1="268.63"
       x2="219.96001"
       y1="238.03"
       gradientUnits="userSpaceOnUse"
       y2="124.52"
       id="a"
       gradientTransform="matrix(0.09048591,0,0,0.0907745,264.0459,479.40474)">
      <stop
         id="stop4697"
         offset="0"
         stop-color="#fff" />
      <stop
         id="stop4699"
         offset="1"
         stop-opacity=".99225"
         stop-color="#fff" />
    </linearGradient>
    <linearGradient
       id="aigrd5"
       gradientUnits="userSpaceOnUse"
       x1="27.294901"
       y1="25.4727"
       x2="20.945299"
       y2="11.0039">
      <stop
         offset="0"
         style="stop-color:#f5f5f5;stop-opacity:1;"
         id="stop13012" />
      <stop
         offset="1"
         style="stop-color:#e1e1e1;stop-opacity:1;"
         id="stop13014" />
    </linearGradient>
    <linearGradient
       y2="7.4600263"
       x2="24.919374"
       y1="6.1478682"
       x1="24.919374"
       gradientTransform="matrix(1.7574358,0,0,2.3416133,245.10519,489.54873)"
       gradientUnits="userSpaceOnUse"
       id="linearGradient9224"
       xlink:href="#aigrd6"
       inkscape:collect="always" />
    <linearGradient
       id="aigrd6"
       gradientUnits="userSpaceOnUse"
       x1="24.6035"
       y1="9.3432999"
       x2="24.6035"
       y2="10.4377">
      <stop
         offset="0"
         style="stop-color:#87deaa;stop-opacity:1"
         id="stop13035" />
      <stop
         offset="1"
         style="stop-color:#008033;stop-opacity:1"
         id="stop13037" />
    </linearGradient>
    <linearGradient
       inkscape:collect="always"
       xlink:href="#a"
       id="linearGradient5069"
       gradientUnits="userSpaceOnUse"
       gradientTransform="matrix(0.08379709,0,0,0.08406435,351.02808,700.23699)"
       x1="268.63"
       y1="238.03"
       x2="219.96001"
       y2="124.52" />
    <linearGradient
       inkscape:collect="always"
       xlink:href="#linearGradient4484"
       id="linearGradient4490"
       x1="270.70633"
       y1="505.10529"
       x2="273.03723"
       y2="505.12097"
       gradientUnits="userSpaceOnUse"
       gradientTransform="translate(0.21527024,0)" />
  </defs>
  <sodipodi:namedview
     id="base"
     pagecolor="#ffffff"
     bordercolor="#666666"
     borderopacity="1.0"
     inkscape:pageopacity="0.0"
     inkscape:pageshadow="2"
     inkscape:zoom="6.6081216"
     inkscape:cx="-13.365064"
     inkscape:cy="16.695042"
     inkscape:document-units="px"
     inkscape:current-layer="layer1"
     showgrid="false"
     fit-margin-top="0"
     fit-margin-left="0"
     fit-margin-right="0"
     fit-margin-bottom="0"
     inkscape:window-width="1920"
     inkscape:window-height="1018"
     inkscape:window-x="-8"
     inkscape:window-y="-8"
     inkscape:window-maximized="1" />
  <metadata
     id="metadata5774">
    <rdf:RDF>
      <cc:Work
         rdf:about="">
        <dc:format>image/svg+xml</dc:format>
        <dc:type
           rdf:resource="http://purl.org/dc/dcmitype/StillImage" />
        <dc:title></dc:title>
      </cc:Work>
    </rdf:RDF>
  </metadata>
  <g
     inkscape:label="Layer 1"
     inkscape:groupmode="layer"
     id="layer1"
     transform="translate(-298.42909,-498.43194)">
    <g
       id="g4654"
       transform="translate(-3.6102158,6.7390695)">
      <g
         transform="matrix(1.0895892,0,0,1.0895892,6.9915163,-56.224788)"
         id="g4577">
        <path
           inkscape:connector-curvature="0"
           id="path4575"
           d="m 290.03565,529.06437 0,6.98637"
           style="fill:#2d5016;fill-opacity:0;fill-rule:evenodd;stroke:#005900;stroke-width:0.68497515px;stroke-linecap:round;stroke-linejoin:miter;stroke-opacity:1"
           sodipodi:nodetypes="cc" />
        <path
           inkscape:connector-curvature="0"
           style="display:inline;fill:#ffffff;fill-opacity:1;fill-rule:nonzero;stroke:#005900;stroke-width:0.75;stroke-linejoin:round;stroke-miterlimit:4;stroke-opacity:1"
           d="m 306.58353,530.38279 -33.22567,0 0,-23.55079 33.22567,0 0,23.55079 0,0 z"
           id="path13016"
           inkscape:r_cx="true"
           inkscape:r_cy="true" />
        <g
           id="g4530"
           transform="translate(0.26630924,0)">
          <rect
             ry="1.802771"
             rx="1.790844"
             inkscape:r_cy="true"
             inkscape:r_cx="true"
             y="503.24127"
             x="270.89679"
             height="3.7142279"
             width="37.615192"
             id="rect9222"
             style="color:#000000;display:inline;overflow:visible;visibility:visible;fill:url(#linearGradient9224);fill-opacity:1;fill-rule:nonzero;stroke:#005900;stroke-width:0.75;stroke-linecap:butt;stroke-linejoin:miter;stroke-miterlimit:4;stroke-dasharray:none;stroke-dashoffset:0;stroke-opacity:1;marker:none" />
          <path
             sodipodi:nodetypes="czcsccc"
             inkscape:connector-curvature="0"
             id="path4474"
             d="m 272.50317,503.58778 c -0.48389,0.008 -1.25261,0.52281 -1.25982,1.45249 -0.007,0.92968 0.6178,1.53088 1.32433,1.57022 0,0 1.35181,0.0113 1.19881,0 -1.886,-0.13941 -1.94949,-2.72959 -0.21448,-3.01573 -0.46187,6.1e-4 -0.65743,-0.0107 -1.04884,-0.007 z"
             style="opacity:0.65899999;fill:url(#linearGradient4490);fill-opacity:1;fill-rule:evenodd;stroke:none;stroke-width:1px;stroke-linecap:butt;stroke-linejoin:miter;stroke-opacity:1" />
          <path
             sodipodi:nodetypes="czcsccc"
             inkscape:connector-curvature="0"
             id="path4474-7"
             d="m 306.98696,503.56031 c 0.48389,0.008 1.25261,0.52281 1.25982,1.45249 0.007,0.92968 -0.6178,1.53088 -1.32433,1.57022 0,0 -1.35181,0.0113 -1.19881,0 1.886,-0.13941 1.94949,-2.72959 0.21448,-3.01573 0.46187,6.1e-4 0.65743,-0.0107 1.04884,-0.007 z"
             style="opacity:0.65899999;fill:#005522;fill-opacity:1;fill-rule:evenodd;stroke:none;stroke-width:1px;stroke-linecap:butt;stroke-linejoin:miter;stroke-opacity:1" />
        </g>
        <path
           style="fill:#2d5016;fill-opacity:0;fill-rule:evenodd;stroke:#005900;stroke-width:0.93418342px;stroke-linecap:round;stroke-linejoin:miter;stroke-opacity:1"
           d="m 271.31254,530.32914 c 0.30445,0.0904 37.44595,0 37.44595,0"
           id="path4535"
           inkscape:connector-curvature="0"
           sodipodi:nodetypes="cc" />
        <circle
           style="color:#000000;clip-rule:nonzero;display:inline;overflow:visible;visibility:visible;opacity:1;isolation:auto;mix-blend-mode:normal;color-interpolation:sRGB;color-interpolation-filters:linearRGB;solid-color:#000000;solid-opacity:1;fill:#ffff1e;fill-opacity:1;fill-rule:nonzero;stroke:#005900;stroke-width:0.59698266;stroke-linecap:round;stroke-linejoin:round;stroke-miterlimit:4;stroke-dasharray:none;stroke-dashoffset:0;stroke-opacity:1;color-rendering:auto;image-rendering:auto;shape-rendering:auto;text-rendering:auto;enable-background:accumulate"
           id="path4573"
           cx="290.03564"
           cy="534.54059"
           r="1.8556092" />
      </g>
      <g
         transform="matrix(0.61021279,0,0,0.61021279,145.23041,160.87507)"
         id="g4621">
        <rect
           style="opacity:1;fill:#ffffff;fill-opacity:1;stroke:#000000;stroke-width:0.75;stroke-opacity:1"
           id="rect4498"
           width="41.208649"
           height="31.358326"
           x="270.47888"
           y="553.88306"
           rx="1.8591295"
           ry="1.862726" />
        <g
           id="g4422"
           transform="matrix(1.2353875,0,0,1.2353875,-181.15889,-317.07983)">
          <path
             inkscape:connector-curvature="0"
             style="color:#000000;text-indent:0;text-decoration:none;text-decoration-line:none;text-transform:none;block-progression:tb;fill:#2ca02c;stroke:#2ca02c;stroke-width:0.58037668;stroke-linecap:round;stroke-linejoin:round;stroke-opacity:0.99607999"
             d="m 375.78529,716.10016 c 2.11426,-0.0434 4.06732,1.99664 6.28688,0.16883 2.10078,-1.76148 5.00221,1.2991 6.79402,1.50356 -1.49785,-0.15879 -4.07178,-3.0623 -6.14158,-0.92633 -3.10136,3.16195 -4.76809,1.21831 -6.92723,1.26249 l -0.0121,-2.00855 z"
             id="path4779" />
          <path
             inkscape:connector-curvature="0"
             style="color:#000000;text-indent:0;text-decoration:none;text-decoration-line:none;text-transform:none;block-progression:tb;fill:#0034b0;stroke:#0034b0;stroke-width:0.58037668;stroke-linecap:round;stroke-linejoin:round;stroke-opacity:0.99738668"
             d="m 372.43853,718.33869 c 2.11424,0.0434 4.0673,0.25882 6.28687,2.08663 2.10078,1.76148 4.7921,3.64141 6.58392,3.43686 -1.49785,0.1588 -3.86169,-1.87811 -5.93148,-4.01416 -3.10137,-3.16194 -4.76809,-3.47377 -6.92723,-3.51794 l -0.0121,2.00854 0,0 z"
             id="path4781" />
          <path
             inkscape:connector-curvature="0"
             style="color:#000000;text-indent:0;text-decoration:none;text-decoration-line:none;text-transform:none;block-progression:tb;fill:#ff0000;stroke:#ff0000;stroke-width:0.58037668;stroke-linecap:round;stroke-linejoin:round;stroke-opacity:0.99607999"
             d="m 372.42387,716.20498 c 2.11426,-0.0434 4.06732,-0.25882 6.28689,-2.08663 2.10076,-1.76148 4.7921,-3.6414 6.5839,-3.43687 -1.49784,-0.15879 -3.86167,1.87812 -5.93147,4.01417 -3.10137,3.16195 -4.76809,3.47377 -6.92723,3.51794 l -0.0121,-2.00854 0,0 z"
             id="path4783" />
          <path
             style="font-size:61.54299927px;fill:url(#linearGradient5069);fill-rule:evenodd;stroke:#0034b0;stroke-width:0.90568078;stroke-opacity:0.99738668"
             inkscape:connector-curvature="0"
             font-size="61.543px"
             d="m 376.89205,718.72358 a 4.290914,4.3045991 0 0 1 -4.29124,4.30494 4.290914,4.3045991 0 0 1 -4.29127,-4.30494 4.290914,4.3045991 0 0 1 4.29127,-4.30493 4.290914,4.3045991 0 0 1 4.29124,4.30493 z"
             id="path4743" />
          <rect
             transform="scale(-1,1)"
             id="rect4717"
             x="-395.90698"
             y="714.97345"
             width="8.6384783"
             height="4.8009052"
             ry="1.0587236"
             rx="0.97680634"
             style="fill:#ffffff;fill-rule:evenodd;stroke:#2ca02c;stroke-width:0.66973293;stroke-linejoin:round;stroke-opacity:1" />
          <rect
             id="rect4723"
             x="383.33188"
             y="722.9632"
             width="8.6384134"
             height="4.8010173"
             ry="1.0587536"
             rx="0.9768008"
             style="fill:#ffffff;fill-rule:evenodd;stroke:#0034b0;stroke-width:0.66972232;stroke-linejoin:round;stroke-opacity:0.99738668" />
          <rect
             transform="scale(-1,-1)"
             id="rect4729"
             x="-391.7066"
             y="-711.94672"
             width="8.0499411"
             height="4.5706868"
             ry="1.007938"
             rx="0.91026998"
             style="fill:#ffffff;fill-rule:evenodd;stroke:#ff0000;stroke-width:0.63820893;stroke-linejoin:round;stroke-opacity:1" />
        </g>
      </g>
      <path
         transform="matrix(0.30912726,0,0,0.30902132,247.38285,344.93898)"
         inkscape:transform-center-y="-0.025988708"
         inkscape:transform-center-x="-0.17179119"
         d="m 211.81305,520.78506 c -0.56886,0.11377 -4.56777,-13.47361 -5.14123,-13.56127 -0.57347,-0.0876 -8.44849,11.68488 -8.95739,11.40638 -0.50891,-0.2785 5.16155,-13.2575 4.77859,-13.69326 -0.38295,-0.43576 -13.98281,3.52055 -14.19363,2.98009 -0.21082,-0.54046 12.47573,-6.83804 12.46247,-7.41802 -0.0133,-0.57997 -12.97442,-6.29108 -12.78852,-6.84061 0.1859,-0.54953 13.95238,2.781 14.31502,2.32819 0.36264,-0.45281 -5.89515,-13.15904 -5.39951,-13.46051 0.49564,-0.30147 8.90055,11.09878 9.46941,10.98501 0.56885,-0.11377 3.94252,-13.86974 4.51598,-13.78209 0.57347,0.0876 -0.31595,14.22332 0.19296,14.50182 0.5089,0.27851 11.93544,-8.09063 12.3184,-7.65487 0.38296,0.43576 -9.38461,10.69261 -9.17378,11.23307 0.21082,0.54046 14.34364,1.47417 14.3569,2.05415 0.0133,0.57997 -14.0621,2.1587 -14.248,2.70823 -0.1859,0.54954 10.04029,10.3492 9.67765,10.80201 -0.36264,0.45281 -12.15979,-7.38528 -12.65543,-7.08381 -0.49564,0.30147 1.03897,14.38172 0.47011,14.49549 z"
         inkscape:randomized="0"
         inkscape:rounded="0.04"
         inkscape:flatsided="false"
         sodipodi:arg2="1.7224667"
         sodipodi:arg1="1.3734008"
         sodipodi:r2="6.9639573"
         sodipodi:r1="20.850172"
         sodipodi:cy="500.33978"
         sodipodi:cx="207.724"
         sodipodi:sides="9"
         id="path4845"
         style="color:#000000;clip-rule:nonzero;display:inline;overflow:visible;visibility:visible;opacity:1;isolation:auto;mix-blend-mode:normal;color-interpolation:sRGB;color-interpolation-filters:linearRGB;solid-color:#000000;solid-opacity:1;fill:#ffff1e;fill-opacity:1;fill-rule:nonzero;stroke:#ff0000;stroke-width:1.12508535;stroke-linecap:butt;stroke-linejoin:miter;stroke-miterlimit:4;stroke-dasharray:none;stroke-dashoffset:0;stroke-opacity:1;color-rendering:auto;image-rendering:auto;shape-rendering:auto;text-rendering:auto;enable-background:accumulate"
         sodipodi:type="star" />
    </g>
  </g>
</svg>
