<?xml version="1.0" encoding="UTF-8" standalone="no"?>
<!-- Created with Inkscape (http://www.inkscape.org/) -->

<svg
   xmlns:dc="http://purl.org/dc/elements/1.1/"
   xmlns:cc="http://creativecommons.org/ns#"
   xmlns:rdf="http://www.w3.org/1999/02/22-rdf-syntax-ns#"
   xmlns:svg="http://www.w3.org/2000/svg"
   xmlns="http://www.w3.org/2000/svg"
   xmlns:sodipodi="http://sodipodi.sourceforge.net/DTD/sodipodi-0.dtd"
   xmlns:inkscape="http://www.inkscape.org/namespaces/inkscape"
   width="40.499912"
   height="31.000242"
   viewBox="0 0 40.499913 31.000242"
   id="svg5654"
   version="1.1"
   inkscape:version="0.92.1 r15371"
   sodipodi:docname="CenterSelectedNodeSlideContent.svg">
  <defs
     id="defs5656">
    <linearGradient
       x1="268.63"
       x2="219.96001"
       y1="238.03"
       gradientUnits="userSpaceOnUse"
       y2="124.52"
       id="a"
       gradientTransform="matrix(0.09048591,0,0,0.0907745,264.0459,479.40474)">
      <stop
         id="stop4697"
         offset="0"
         stop-color="#fff" />
      <stop
         id="stop4699"
         offset="1"
         stop-opacity=".99225"
         stop-color="#fff" />
    </linearGradient>
    <linearGradient
       x1="56.425999"
       y1="834.12"
       gradientTransform="matrix(-1,0,0,1,783.51,-380.02)"
       x2="56.047001"
       gradientUnits="userSpaceOnUse"
       y2="838.97998"
       id="a-5">
      <stop
         id="stop3019"
         offset="0"
         stop-opacity=".54615"
         stop-color="#fff" />
      <stop
         id="stop3021"
         offset="1"
         stop-opacity="0"
         stop-color="#fff" />
    </linearGradient>
    <linearGradient
       id="linearGradient3773">
      <stop
         id="stop3775"
         offset="0.00000000"
         style="stop-color:#24424c;stop-opacity:1.0000000;" />
      <stop
         id="stop3777"
         offset="1.0000000"
         style="stop-color:#79dfee;stop-opacity:1.0000000;" />
    </linearGradient>
    <linearGradient
       id="linearGradient8251">
      <stop
         id="stop8253"
         offset="0.00000000"
         style="stop-color:#000000;stop-opacity:0.25098041;" />
      <stop
         id="stop8255"
         offset="1.0000000"
         style="stop-color:#000000;stop-opacity:0.00000000;" />
    </linearGradient>
    <linearGradient
       id="linearGradient8983">
      <stop
         id="stop8985"
         offset="0.00000000"
         style="stop-color:#ffffff;stop-opacity:0.37254903;" />
      <stop
         id="stop8987"
         offset="1.0000000"
         style="stop-color:#ffffff;stop-opacity:0.094117649;" />
    </linearGradient>
  </defs>
  <sodipodi:namedview
     id="base"
     pagecolor="#ffffff"
     bordercolor="#666666"
     borderopacity="1.0"
     inkscape:pageopacity="0.0"
     inkscape:pageshadow="2"
     inkscape:zoom="10.318188"
     inkscape:cx="9.7504427"
     inkscape:cy="17.519139"
     inkscape:document-units="px"
     inkscape:current-layer="layer1"
     showgrid="false"
     fit-margin-top="0"
     fit-margin-left="0"
     fit-margin-right="0"
     fit-margin-bottom="0"
     inkscape:window-width="1920"
     inkscape:window-height="1018"
     inkscape:window-x="-8"
     inkscape:window-y="-8"
     inkscape:window-maximized="1"
     inkscape:snap-global="false"
     units="px" />
  <metadata
     id="metadata5659">
    <rdf:RDF>
      <cc:Work
         rdf:about="">
        <dc:format>image/svg+xml</dc:format>
        <dc:type
           rdf:resource="http://purl.org/dc/dcmitype/StillImage" />
        <dc:title />
      </cc:Work>
    </rdf:RDF>
  </metadata>
  <g
     inkscape:label="Layer 1"
     inkscape:groupmode="layer"
     id="layer1"
     transform="translate(-94.289351,-1194.1475)">
    <rect
       style="opacity:1;fill:#ffffff;fill-opacity:1;stroke:#000000;stroke-width:0.6783312;stroke-opacity:1"
       id="rect4498"
       width="39.821793"
       height="30.321701"
       x="94.62841"
       y="1194.4867"
       rx="1.7965614"
       ry="1.801149" />
    <path
       id="path4779"
       d="m 95.019436,1207.7265 c 3.72305,-0.068 4.66127,1.369 6.406744,0.2018 3.69933,-2.726 8.3692,1.9216 11.52442,2.238 -2.57002,0.2885 -7.1701,-4.7393 -10.81489,-1.4334 -2.985808,2.0984 -3.30514,0.076 -7.094974,2.102 z"
       style="color:#000000;text-indent:0;text-decoration:none;text-decoration-line:none;text-transform:none;fill:#800080;stroke:#800080;stroke-width:0.57726246;stroke-linecap:round;stroke-linejoin:miter;stroke-opacity:0.99607999"
       inkscape:connector-curvature="0"
       sodipodi:nodetypes="cccccc" />
    <rect
       style="fill:#ffffff;fill-opacity:1;fill-rule:evenodd;stroke:#800080;stroke-width:0.703125;stroke-linejoin:round;stroke-opacity:1"
       rx="2.4386196"
       ry="2.6943121"
       height="12.217672"
       width="21.566158"
       y="1203.6156"
       x="-131.08214"
       id="rect4717"
       transform="scale(-1,1)" />
    <g
       id="g4543"
       transform="matrix(1.5230667,0,0,1.5230533,-7.0617196,-618.2335)"
       style="stroke-width:0.50719601">
      <ellipse
         ry="5.1644287"
         rx="5.1542387"
         cy="1200.1965"
         cx="83.603951"
         id="path4523"
         style="color:#000000;clip-rule:nonzero;display:inline;overflow:visible;visibility:visible;opacity:1;isolation:auto;mix-blend-mode:normal;color-interpolation:sRGB;color-interpolation-filters:linearRGB;solid-color:#000000;solid-opacity:1;fill:#ffffff;fill-opacity:1;fill-rule:evenodd;stroke:none;stroke-width:0.05117218;stroke-linecap:round;stroke-linejoin:round;stroke-miterlimit:4;stroke-dasharray:none;stroke-dashoffset:0;stroke-opacity:1;marker:none;color-rendering:auto;image-rendering:auto;shape-rendering:auto;text-rendering:auto;enable-background:accumulate" />
      <path
         style="color:#000000;text-indent:0;text-transform:none;fill:#d40000;stroke:#000000;stroke-width:0.04754962"
         d="m 83.61744,1195.0272 c -2.84549,0 -5.16802,2.3226 -5.16802,5.1681 0,2.8454 2.32253,5.168 5.16802,5.168 2.84548,0 5.1475,-2.3226 5.1475,-5.168 0,-2.8455 -2.30212,-5.1681 -5.1475,-5.1681 z m 0,0.9805 c 2.31555,0 4.16703,1.8719 4.16703,4.1875 0,2.3155 -1.85148,4.1874 -4.16703,4.1874 -2.31556,0 -4.18745,-1.8719 -4.18745,-4.1874 0,-2.3156 1.87189,-4.1875 4.18745,-4.1875 z"
         id="path12"
         inkscape:connector-curvature="0" />
      <path
         style="color:#000000;text-indent:0;text-transform:none;fill:#d40000;stroke:#000000;stroke-width:0.04883384"
         d="m 83.61744,1197.1489 c -1.67656,0 -3.04492,1.3684 -3.04492,3.045 0,1.6765 1.36846,3.0449 3.04492,3.0449 1.67645,0 3.03285,-1.3684 3.03285,-3.0449 0,-1.6766 -1.3564,-3.045 -3.03285,-3.045 z m 0,0.5777 c 1.36427,0 2.45521,1.1029 2.45521,2.4673 0,1.3643 -1.09094,2.4673 -2.45521,2.4673 -1.36428,0 -2.46727,-1.1029 -2.46727,-2.4673 0,-1.3643 1.1029,-2.4673 2.46727,-2.4673 z"
         id="path14"
         inkscape:connector-curvature="0" />
      <path
         style="color:#000000;fill:#d40000;fill-rule:evenodd;stroke:#000000;stroke-width:0.00379063;stroke-dasharray:0.04548763, 0.04548763"
         d="m 83.32857,1201.3027 c -0.22934,-0.062 -0.37094,-0.1426 -0.53213,-0.3038 -0.43889,-0.4389 -0.43716,-1.1647 0.004,-1.6057 0.44912,-0.4491 1.16206,-0.4475 1.61321,0 0.43434,0.4344 0.43442,1.168 1.8e-4,1.6022 -0.16489,0.1649 -0.303,0.2422 -0.54494,0.3053 -0.2085,0.054 -0.33427,0.054 -0.5402,-10e-4 h 1e-5 z"
         id="path16"
         inkscape:connector-curvature="0" />
    </g>
  </g>
</svg>
