<?xml version="1.0" encoding="UTF-8" standalone="no"?>
<svg
   xmlns:dc="http://purl.org/dc/elements/1.1/"
   xmlns:cc="http://creativecommons.org/ns#"
   xmlns:rdf="http://www.w3.org/1999/02/22-rdf-syntax-ns#"
   xmlns:svg="http://www.w3.org/2000/svg"
   xmlns="http://www.w3.org/2000/svg"
   xmlns:xlink="http://www.w3.org/1999/xlink"
   xmlns:sodipodi="http://sodipodi.sourceforge.net/DTD/sodipodi-0.dtd"
   xmlns:inkscape="http://www.inkscape.org/namespaces/inkscape"
   height="16.030081"
   width="16.016481"
   version="1.1"
   viewBox="0 0 16.016482 16.030081"
   id="svg3688"
   inkscape:version="0.48.5 r10040"
   sodipodi:docname="reminderhookaction.svg">
  <sodipodi:namedview
     pagecolor="#ffffff"
     bordercolor="#666666"
     borderopacity="1"
     objecttolerance="10"
     gridtolerance="10"
     guidetolerance="10"
     inkscape:pageopacity="0"
     inkscape:pageshadow="2"
     inkscape:window-width="640"
     inkscape:window-height="480"
     id="namedview3740"
     showgrid="false"
     fit-margin-top="0"
     fit-margin-left="0"
     fit-margin-right="0"
     fit-margin-bottom="0"
     inkscape:zoom="0.22425739"
     inkscape:cx="344.07447"
     inkscape:cy="-440.26707"
     inkscape:window-x="0"
     inkscape:window-y="27"
     inkscape:window-maximized="0"
     inkscape:current-layer="svg3688" />
  <defs
     id="defs3690">
    <linearGradient
       id="c">
      <stop
         stop-color="#fefdb7"
         offset="0"
         id="stop3693" />
      <stop
         stop-color="#f5f06c"
         offset="1"
         id="stop3695" />
    </linearGradient>
    <linearGradient
       id="a"
       y2="-130.78999"
       xlink:href="#c"
       gradientUnits="userSpaceOnUse"
       x2="463.22"
       gradientTransform="matrix(0,0.041425,-0.043471,0,-351.19,88.932)"
       y1="340.63"
       x1="41.688999" />
    <filter
       id="d"
       height="1.3585"
       width="1.3599"
       y="-0.17925"
       x="-0.17994"
       color-interpolation-filters="sRGB">
      <feGaussianBlur
         stdDeviation="18.47879"
         id="feGaussianBlur3699" />
    </filter>
    <linearGradient
       id="b"
       y2="354.38"
       gradientUnits="userSpaceOnUse"
       x2="690.78998"
       gradientTransform="matrix(0,0.025883,-0.032241,0,-345.79,81.756)"
       y1="584.52002"
       x1="351.57999">
      <stop
         stop-color="#fff"
         offset="0"
         id="stop3702" />
      <stop
         stop-color="#fff"
         stop-opacity="0"
         offset="1"
         id="stop3704" />
    </linearGradient>
    <linearGradient
       inkscape:collect="always"
       xlink:href="#c"
       id="linearGradient4956"
       gradientUnits="userSpaceOnUse"
       gradientTransform="matrix(0,0.041425,-0.043471,0,-351.19,88.932)"
       x1="41.688999"
       y1="340.63"
       x2="463.22"
       y2="-130.78999" />
  </defs>
  <metadata
     id="metadata3706">
    <rdf:RDF>
      <cc:Work
         rdf:about="">
        <dc:format>image/svg+xml</dc:format>
        <dc:type
           rdf:resource="http://purl.org/dc/dcmitype/StillImage" />
        <dc:title />
      </cc:Work>
    </rdf:RDF>
  </metadata>
  <g
     transform="translate(345.96723,-89.14794)"
     id="g3708">
    <g
       transform="translate(21.268,0.13654)"
       id="g3710">
      <path
         d="m -351.98,89.69 c -0.20581,5.0025 -0.11602,10.43 0.65531,15.197 -5.3082,-0.0724 -10.676,-0.56905 -15.599,-0.25452 0.0184,0.0502 1.046,0.92855 -0.0573,-0.0546 -0.0953,-6.449 0.42493,-9.0149 0,-14.888 0,-0.03027 0.0256,-0.05464 0.0573,-0.05464 5.0001,0.1909 10.016,0.46272 14.886,0 0.0318,0 0.0573,0.02437 0.0573,0.05464 z"
         id="path3712"
         inkscape:connector-curvature="0"
         style="fill:url(#linearGradient4956);fill-rule:evenodd" />
      <path
         d="m -351.98,89.69 c -0.20581,5.0025 -0.11602,10.43 0.65531,15.197 -8.4954,-0.85078 -15.577,-0.3319 -15.577,-0.3319 0,0 0.11023,-5.6825 -0.0793,-14.866 0,-0.03027 0.0256,-0.05464 0.0573,-0.05464 5.0001,0.1909 10.016,0.46272 14.886,0 0.0318,0 0.0573,0.02437 0.0573,0.05464 z"
         id="path3714"
         inkscape:connector-curvature="0"
         style="fill:url(#a);fill-rule:evenodd;stroke:#000000;stroke-width:0.17726" />
      <path
         d="m -351.37,89.641 -7.2382,-0.02664 -8.5923,-0.12695 c 0,0 -0.92022,22.89 6.7128,10.332 7.63302,-12.558 8.3328,-8.5522 9.1177,-10.179 z"
         id="path3716"
         inkscape:connector-curvature="0"
         style="opacity:0.27778003;fill:url(#b);fill-rule:evenodd;stroke-width:1pt" />
      <g
         transform="matrix(1.4497,0,0,1.4497,161.55,-40.215)"
         id="g3718">
        <circle
           transform="matrix(0.0098426,-0.0017988,0.0016961,0.0092808,-364.14,88.088)"
           cy="393.14001"
           cx="404.39001"
           r="123.43"
           id="circle3720"
           d="m 527.82001,393.14001 c 0,68.16851 -55.26149,123.43 -123.43,123.43 -68.1685,0 -123.43,-55.26149 -123.43,-123.43 0,-68.1685 55.2615,-123.43 123.43,-123.43 68.16851,0 123.43,55.2615 123.43,123.43 z"
           sodipodi:cx="404.39001"
           sodipodi:cy="393.14001"
           sodipodi:rx="123.43"
           sodipodi:ry="123.43"
           style="fill:#a0892c;filter:url(#d)" />
        <circle
           transform="matrix(0.0098426,-0.0017988,0.0016961,0.0092808,-363.86,87.746)"
           cy="393.14001"
           cx="404.39001"
           r="123.43"
           id="circle3722"
           d="m 527.82001,393.14001 c 0,68.16851 -55.26149,123.43 -123.43,123.43 -68.1685,0 -123.43,-55.26149 -123.43,-123.43 0,-68.1685 55.2615,-123.43 123.43,-123.43 68.16851,0 123.43,55.2615 123.43,123.43 z"
           sodipodi:cx="404.39001"
           sodipodi:cy="393.14001"
           sodipodi:rx="123.43"
           sodipodi:ry="123.43"
           style="fill:#d40000" />
        <path
           d="m -357.93,90.386 -1.1895,0.21751 -0.24904,1.1252 c 0.13821,0.02106 0.28251,0.02138 0.42892,-0.0054 0.65989,-0.1206 1.1056,-0.71584 1.0096,-1.3373 z"
           id="path3724"
           inkscape:connector-curvature="0"
           style="fill:#ee0000" />
        <path
           d="m -359.11,89.411 c -0.0819,-8.19e-4 -0.16521,0.0062 -0.24904,0.02151 -0.67064,0.12256 -1.121,0.73528 -1.0054,1.3676 0.0903,0.49431 0.50031,0.85354 0.99517,0.92895 l 0.24904,-1.1252 1.1895,-0.21751 c -0.002,-0.01011 -0.002,-0.02018 -0.004,-0.03031 -0.10112,-0.55331 -0.60231,-0.93934 -1.1753,-0.94508 z"
           id="path3726"
           inkscape:connector-curvature="0"
           style="fill:#ff0000" />
        <path
           d="m -359.61,90.043 -0.0893,0.06601 -0.1647,0.12316 c -0.0672,0.14292 -0.0579,0.29457 -0.0158,0.45566 0.10919,0.41794 0.42004,0.62224 0.85865,0.57241 0.22452,-0.02551 0.4302,-0.10101 0.55634,-0.26144 l 0.22874,-0.28684 -1.374,-0.66897 z"
           id="path3728"
           inkscape:connector-curvature="0"
           style="fill:#aa0000" />
        <circle
           transform="matrix(0.0076932,-0.001406,0.0013257,0.0072541,-362.52,87.832)"
           cy="393.14001"
           cx="404.39001"
           r="123.43"
           id="circle3730"
           d="m 527.82001,393.14001 c 0,68.16851 -55.26149,123.43 -123.43,123.43 -68.1685,0 -123.43,-55.26149 -123.43,-123.43 0,-68.1685 55.2615,-123.43 123.43,-123.43 68.16851,0 123.43,55.2615 123.43,123.43 z"
           sodipodi:cx="404.39001"
           sodipodi:cy="393.14001"
           sodipodi:rx="123.43"
           sodipodi:ry="123.43"
           style="fill:#d40000" />
        <circle
           transform="matrix(0.0076932,-0.001406,0.0013257,0.0072541,-362.46,87.769)"
           cy="393.14001"
           cx="404.39001"
           r="123.43"
           id="circle3732"
           d="m 527.82001,393.14001 c 0,68.16851 -55.26149,123.43 -123.43,123.43 -68.1685,0 -123.43,-55.26149 -123.43,-123.43 0,-68.1685 55.2615,-123.43 123.43,-123.43 68.16851,0 123.43,55.2615 123.43,123.43 z"
           sodipodi:cx="404.39001"
           sodipodi:cy="393.14001"
           sodipodi:rx="123.43"
           sodipodi:ry="123.43"
           style="fill:#ff0000" />
      </g>
    </g>
    <g
       transform="matrix(0.76724,0,0,0.80498,-219.15,-610.87)"
       id="g3734"
       style="fill:#ff0000">
      <path
         style="color:#000000"
         d="m -161.28,889.17 c 0.59165,-6.8804 5.7208,-14.856 13.736,-16 l 1.3818,2.3683 c -7.776,1.6244 -12.057,5.7928 -15.118,13.632 z"
         id="path3736"
         inkscape:connector-curvature="0" />
      <path
         style="color:#000000"
         d="m -164.97,874.34 c 6.9053,0.0759 15.242,4.5947 16.982,12.502 l -2.2584,1.555 c -2.2009,-7.6329 -6.6776,-11.591 -14.723,-14.057 z"
         id="path3738"
         inkscape:connector-curvature="0" />
    </g>
  </g>
</svg>
