<?xml version="1.0" encoding="UTF-8" standalone="no"?>
<svg xmlns:rdf="http://www.w3.org/1999/02/22-rdf-syntax-ns#" xmlns="http://www.w3.org/2000/svg" version="1.1" xmlns:cc="http://creativecommons.org/ns#" xmlns:xlink="http://www.w3.org/1999/xlink" viewBox="0 0 16.296 16" xmlns:dc="http://purl.org/dc/elements/1.1/">
<defs>
<linearGradient id="c" y2="510.32" gradientUnits="userSpaceOnUse" x2="-286.06" gradientTransform="matrix(.53469 0 -.25393 .51005 -3.8837 253.66)" y1="523.79" x1="-295.68">
<stop stop-color="#f5863e" offset="0"/>
<stop stop-color="#d26933" offset="1"/>
</linearGradient>
<linearGradient id="b" y2="510.32" gradientUnits="userSpaceOnUse" x2="-286.06" gradientTransform="matrix(.53469 0 -.25393 .51005 5.6013 246.03)" y1="523.79" x1="-295.68">
<stop stop-color="#f5863e" offset="0"/>
<stop stop-color="#d26933" offset="1"/>
</linearGradient>
<linearGradient id="a" y2="553.04" gradientUnits="userSpaceOnUse" y1="553.04" gradientTransform="matrix(.15519 -.13105 .13105 .15519 -304.44 382.28)" x2="-325.57" x1="-371.74">
<stop stop-color="#de6827" offset="0"/>
<stop stop-color="#f1833d" offset="1"/>
</linearGradient>
</defs>
<metadata>
<rdf:RDF>
<cc:Work rdf:about="">
<dc:format>image/svg+xml</dc:format>
<dc:type rdf:resource="http://purl.org/dc/dcmitype/StillImage"/>
<dc:title/>
</cc:Work>
</rdf:RDF>
</metadata>
<g transform="translate(-105.05 -81.772)">
<g transform="translate(295.73 -426.69)">
<g transform="matrix(.95413 0 .27651 .96662 -51.539 19.925)">
<path style="color:#000000;text-indent:0;block-progression:tb;text-decoration-line:none;text-transform:none" d="m-288.61 513.16c-2.4966 0-5.5009 1.9538-6.6866 4.3354s-0.12692 4.3354 2.3697 4.3354 5.5176-1.9538 6.7033-4.3354 0.1102-4.3354-2.3864-4.3354zm-0.76974 1.5461c1.6242 0 2.3068 1.2399 1.5354 2.7894-0.77138 1.5494-2.6885 2.7894-4.3128 2.7894-1.6242 0-2.3068-1.2399-1.5354-2.7894 0.77138-1.5494 2.6885-2.7894 4.3128-2.7894z" stroke="#d56c34" stroke-width=".25" fill="url(#c)"/>
<path style="color:#000000;text-indent:0;block-progression:tb;text-decoration-line:none;text-transform:none" d="m-279.12 505.53c-2.4966 0-5.5009 1.9538-6.6866 4.3354s-0.12692 4.3354 2.3697 4.3354 5.5176-1.9538 6.7033-4.3354 0.1102-4.3354-2.3864-4.3354zm-0.76974 1.5461c1.6242 0 2.3068 1.2399 1.5354 2.7894-0.77138 1.5494-2.6885 2.7894-4.3128 2.7894-1.6242 0-2.3068-1.2399-1.5354-2.7894 0.77138-1.5494 2.6885-2.7894 4.3128-2.7894z" stroke="#dd6929" stroke-width=".25" fill="url(#b)"/>
<path style="color:#000000" d="m-290.05 515.87c2.3281-2.4226 4.531-4.1364 6.6999-5.6578l1.2287 1.455c-2.0498 2.1947-4.2831 4.0806-6.6999 5.6578z" fill-rule="evenodd" stroke-dashoffset="4.503" stroke="#de6827" stroke-linecap="square" stroke-width=".60935" fill="url(#a)"/>
</g>
<g transform="matrix(.91895 0 0 .91895 -13.626 44.834)">
<rect style="color:#000000" height="4.2113" width="17.269" stroke="#000" y="516.1" x="-192.64" stroke-width=".067887" fill="#fff"/>
<text style="word-spacing:0px;letter-spacing:.30677px" xml:space="preserve" font-size="3.6812px" line-height="125%" y="519.52576" x="-191.39433" font-family="Arial" fill="#000000"><tspan x="-191.39433" y="519.52576">LINK</tspan></text>
</g>
</g>
</g>
</svg>
