<?xml version="1.0" encoding="UTF-8" standalone="no"?>
<svg
   xmlns:dc="http://purl.org/dc/elements/1.1/"
   xmlns:cc="http://creativecommons.org/ns#"
   xmlns:rdf="http://www.w3.org/1999/02/22-rdf-syntax-ns#"
   xmlns:svg="http://www.w3.org/2000/svg"
   xmlns="http://www.w3.org/2000/svg"
   xmlns:sodipodi="http://sodipodi.sourceforge.net/DTD/sodipodi-0.dtd"
   xmlns:inkscape="http://www.inkscape.org/namespaces/inkscape"
   height="15.922721"
   width="15.920974"
   version="1.1"
   viewBox="0 0 15.920974 15.922721"
   id="svg3659"
   inkscape:version="0.48.5 r10040"
   sodipodi:docname="propertyaction.svg">
  <sodipodi:namedview
     pagecolor="#ffffff"
     bordercolor="#666666"
     borderopacity="1"
     objecttolerance="10"
     gridtolerance="10"
     guidetolerance="10"
     inkscape:pageopacity="0"
     inkscape:pageshadow="2"
     inkscape:window-width="640"
     inkscape:window-height="480"
     id="namedview3686"
     showgrid="false"
     fit-margin-top="0"
     fit-margin-left="0"
     fit-margin-right="0"
     fit-margin-bottom="0"
     inkscape:zoom="0.22425739"
     inkscape:cx="341.17951"
     inkscape:cy="-183.63747"
     inkscape:window-x="0"
     inkscape:window-y="27"
     inkscape:window-maximized="0"
     inkscape:current-layer="svg3659" />
  <defs
     id="defs3661">
    <linearGradient
       id="a"
       y2="39.685001"
       gradientUnits="userSpaceOnUse"
       x2="34.534"
       gradientTransform="matrix(0.90504,0,0,0.90504,-531.65,73.301)"
       y1="12.285"
       x1="14.463">
      <stop
         stop-color="#8da6d8"
         offset="0"
         id="stop3664" />
      <stop
         stop-color="#b4c5e5"
         offset=".25"
         id="stop3666" />
      <stop
         stop-color="#d8e1f2"
         offset=".5"
         id="stop3668" />
      <stop
         stop-color="#92aada"
         offset=".75"
         id="stop3670" />
      <stop
         stop-color="#8ea7d8"
         offset="1"
         id="stop3672" />
    </linearGradient>
  </defs>
  <metadata
     id="metadata3674">
    <rdf:RDF>
      <cc:Work
         rdf:about="">
        <dc:format>image/svg+xml</dc:format>
        <dc:type
           rdf:resource="http://purl.org/dc/dcmitype/StillImage" />
        <dc:title />
      </cc:Work>
    </rdf:RDF>
  </metadata>
  <g
     transform="matrix(0.47748,0,0,0.47748,251.57227,-37.390905)"
     id="g3676">
    <path
       style="color:#000000;fill:url(#a);stroke:#003380;stroke-width:1.19809997"
       d="m -511.05,78.896 c -0.33917,0.02321 -0.66885,0.07574 -1.002,0.11386 h -0.0228 l -0.79705,4.3496 c -1.2991,0.29586 -2.5213,0.79795 -3.6209,1.4802 l -3.5753,-2.5733 c -0.9665,0.75036 -1.846,1.6255 -2.6189,2.5733 l 2.4822,3.6209 c -0.75367,1.1518 -1.3204,2.4669 -1.6396,3.8486 -6e-5,0.0066 -5e-5,0.02164 0,0.02277 l -4.3268,0.68318 c -0.0791,0.64612 -0.11386,1.3139 -0.11386,1.9812 0,0.54604 0.0151,1.0848 0.0683,1.6169 l 4.3268,0.77427 c 0.30773,1.5026 0.8923,2.9058 1.708,4.1446 l -2.5733,3.5298 c 0.73698,0.91493 1.5878,1.7479 2.505,2.4822 l 3.6436,-2.505 c 1.2734,0.81233 2.6949,1.3819 4.2357,1.6624 l 0.68319,4.3041 c 0.48546,0.0442 0.98331,0.0456 1.4802,0.0456 0.70153,-1e-5 1.3716,-0.0266 2.0495,-0.11387 l 0.81982,-4.3951 c 1.463,-0.36407 2.8373,-0.99566 4.0308,-1.8446 l 3.507,2.5505 c 0.90947,-0.77376 1.7411,-1.6631 2.4595,-2.6189 l -2.5506,-3.6892 c 0.69072,-1.1929 1.1693,-2.5091 1.4119,-3.9169 l 4.304,-0.68318 c 0.0377,-0.44915 0.0455,-0.88474 0.0455,-1.3436 0,-0.79738 -0.0927,-1.5792 -0.20496,-2.3456 l -4.3724,-0.79705 c -0.34264,-1.2652 -0.90484,-2.4457 -1.6169,-3.507 l 2.5733,-3.5298 c -0.79765,-0.97548 -1.7075,-1.8766 -2.71,-2.6416 l -3.712,2.5505 c -1.0669,-0.63096 -2.2149,-1.1151 -3.4615,-1.3891 l -0.68318,-4.3268 c -0.62183,-0.07315 -1.2488,-0.11386 -1.8901,-0.11386 -0.17335,0 -0.35175,-0.0055 -0.52378,0 -0.0839,0.0027 -0.16685,-0.0049 -0.2505,0 -0.0226,0.0013 -0.0457,-0.0015 -0.0683,0 z m 0.5921,11.068 c 0.0832,-0.0042 0.16626,0 0.2505,0 2.6957,0 4.8961,2.2005 4.8961,4.8961 0,2.6957 -2.2005,4.8734 -4.8961,4.8734 -2.6957,0 -4.8734,-2.1777 -4.8734,-4.8734 0,-2.6114 2.0438,-4.7653 4.6229,-4.8961 z"
       id="path3678"
       inkscape:connector-curvature="0" />
    <g
       id="g3680"
       style="fill:none;stroke:#ffffff">
      <circle
         style="opacity:0.64772997;color:#000000;stroke-width:2.45970011"
         transform="matrix(0.4871,0,0,0.4871,-521.65,83.397)"
         cy="23.782"
         cx="23.511"
         r="12.728"
         id="circle3682"
         d="m 36.238999,23.782 c 0,7.02948 -5.698519,12.727999 -12.727999,12.727999 -7.02948,0 -12.728,-5.698519 -12.728,-12.727999 0,-7.029481 5.69852,-12.728 12.728,-12.728 7.02948,0 12.727999,5.698519 12.727999,12.728 z"
         sodipodi:cx="23.511"
         sodipodi:cy="23.782"
         sodipodi:rx="12.728"
         sodipodi:ry="12.728" />
      <path
         style="opacity:0.34659005;color:#000000;stroke-width:1.19809997"
         d="m -511.47,80.748 -0.60389,3.974 c -1.1491,0.26168 -3.2628,1.062 -4.2353,1.6655 l -3.2128,-2.398 c -0.85487,0.6637 -0.9135,0.70871 -1.5971,1.5471 l 2.3229,3.4451 c -0.66662,1.0187 -1.4673,2.8342 -1.7548,4.1315 0,0 -4.0705,0.68617 -4.0705,0.68617 -0.07,0.57149 -0.0363,1.7946 0.0108,2.2653 l 3.8882,0.70044 c 0.27218,1.329 1.2908,3.4683 2.0122,4.564 l -2.4588,3.2485 c 0.65186,0.80926 0.78232,0.88331 1.5936,1.5328 l 3.2878,-2.4087 c 1.1263,0.7185 3.362,1.5925 4.7248,1.8406 l 0.5396,3.924 c 0.4294,0.0391 1.6156,0.14873 2.2152,0.0715 l 0.60389,-4.0848 c 1.294,-0.32202 3.5299,-1.2398 4.5855,-1.9907 l 3.2843,2.373 c 0.80443,-0.68439 0.81164,-0.78752 1.447,-1.6329 l -2.4338,-3.4594 c 0.61095,-1.0551 1.4009,-3.1187 1.6155,-4.3639 l 3.9847,-0.66116 c 0.0334,-0.39727 0.035,-1.5051 -0.0643,-2.183 l -4.0598,-0.70044 c -0.30307,-1.1191 -1.3431,-3.1357 -1.9729,-4.0744 l 2.5803,-3.2485 c -0.70552,-0.86281 -0.96784,-0.9812 -1.8545,-1.6579 l -3.3986,2.4338 c -0.94364,-0.55808 -2.8253,-1.4088 -3.9279,-1.6512 l -0.60037,-3.8882 c -0.55001,-0.0647 -2.1368,-0.03597 -2.4512,0 z"
         id="path3684"
         inkscape:connector-curvature="0" />
    </g>
  </g>
</svg>
