<?xml version="1.0" encoding="UTF-8" standalone="no"?>
<svg xmlns:rdf="http://www.w3.org/1999/02/22-rdf-syntax-ns#" xmlns="http://www.w3.org/2000/svg" version="1.1" xmlns:cc="http://creativecommons.org/ns#" xmlns:xlink="http://www.w3.org/1999/xlink" viewBox="0 0 16 16" xmlns:dc="http://purl.org/dc/elements/1.1/">
<defs>
<linearGradient id="a" y2="677.01" gradientUnits="userSpaceOnUse" x2="158.14" gradientTransform="matrix(.33166 .092269 -.13287 .47762 -190.76 529.9)" y1="673.53" x1="150.2">
<stop stop-color="#f00" offset="0"/>
<stop stop-color="#fffe21" offset="1"/>
</linearGradient>
</defs>
<metadata>
<rdf:RDF>
<cc:Work rdf:about="">
<dc:format>image/svg+xml</dc:format>
<dc:type rdf:resource="http://purl.org/dc/dcmitype/StillImage"/>
<dc:title/>
</cc:Work>
</rdf:RDF>
</metadata>
<g transform="translate(-109.3 -114.36)">
<g transform="translate(341.09 -741.84)">
<g transform="translate(6.6508 -2.1318)">
<rect opacity=".92511" style="color:#000000" rx=".070384" ry=".092563" height="16" width="16" y="858.33" x="-238.45" fill="none"/>
<g transform="matrix(1.0551 0 0 1.0551 11.634 -51.037)">
<g transform="matrix(.74660 0 0 .74660 -35.692 225.74)">
<rect stroke-linejoin="round" height="7.3909" stroke="#000080" stroke-width=".85776" fill="#fff" fill-rule="evenodd" rx="1.7122" ry="1.6299" width="15.142" y="864.46" x="-264.93"/>
<text xml:space="preserve" font-size="5.1358px" font-style="italic" y="869.9679" x="-263.59253" fill="#000000"><tspan y="869.9679" x="-263.59253">Node</tspan><tspan y="876.3877" x="-263.59253"/></text>
</g>
<g transform="matrix(.74660 0 0 .74660 -38.911 217.6)">
<rect stroke-linejoin="round" height="7.3909" stroke="#000080" stroke-width=".85776" fill="#fff" fill-rule="evenodd" rx="1.7122" ry="1.6299" width="15.142" y="864.46" x="-264.93"/>
<text xml:space="preserve" font-size="5.1358px" font-style="italic" y="869.9679" x="-263.59253" fill="#000000"><tspan y="869.9679" x="-263.59253">Node</tspan><tspan y="876.3877" x="-263.59253"/></text>
</g>
<path stroke-linejoin="round" d="m-226.29 862.99-2.2752 4.382 1.8626-0.50437-6.9843 8.5624 4.1629-8.7141-1.7544 0.41905 2.8844-4.8553" fill-rule="evenodd" stroke="#b40000" stroke-linecap="round" stroke-width=".62853" fill="url(#a)"/>
</g>
</g>
</g>
</g>
</svg>
