<?xml version="1.0" encoding="UTF-8" standalone="no"?>
<svg
   xmlns:dc="http://purl.org/dc/elements/1.1/"
   xmlns:cc="http://creativecommons.org/ns#"
   xmlns:rdf="http://www.w3.org/1999/02/22-rdf-syntax-ns#"
   xmlns:svg="http://www.w3.org/2000/svg"
   xmlns="http://www.w3.org/2000/svg"
   id="svg16"
   viewBox="0 0 16 16"
   version="1.1">
  <defs
     id="defs20" />
  <metadata
     id="metadata2">
    <rdf:RDF>
      <cc:Work
         rdf:about="">
        <dc:format>image/svg+xml</dc:format>
        <dc:type
           rdf:resource="http://purl.org/dc/dcmitype/StillImage" />
        <dc:title></dc:title>
      </cc:Work>
    </rdf:RDF>
  </metadata>
  <rect
     id="rect4"
     x="-0.00099633785"
     y="-0.010009766"
     width="16"
     height="16"
     style="color:#000000;fill:none" />
  <rect
     id="rect10"
     x="-0.00099633785"
     y="-0.010009766"
     width="16"
     height="16"
     style="color:#000000;fill:none" />
  <g
     transform="translate(0.61016949,0.13559322)"
     id="text3723"
     style="font-style:normal;font-variant:normal;font-weight:bold;font-stretch:normal;font-size:18.66666603px;line-height:1.25;font-family:sans-serif;-inkscape-font-specification:'sans-serif, Bold';font-variant-ligatures:normal;font-variant-caps:normal;font-variant-numeric:normal;font-feature-settings:normal;text-align:start;letter-spacing:0px;word-spacing:0px;writing-mode:lr-tb;text-anchor:start;fill:#000000;fill-opacity:1;stroke:none"
     aria-label="S ">
    <path
       id="path4538"
       d="M 12.26834,1.5321774 V 4.4123857 Q 11.147246,3.9110836 10.08084,3.6558753 9.0144336,3.4006669 8.066517,3.4006669 q -1.2578125,0 -1.859375,0.3463542 -0.6015625,0.3463541 -0.6015625,1.0755208 0,0.546875 0.4010417,0.8567708 0.4101562,0.3007812 1.4765624,0.5195312 l 1.4947917,0.3007813 q 2.2695307,0.4557291 3.2265627,1.3854166 0.957031,0.9296875 0.957031,2.6432292 0,2.251302 -1.339844,3.354166 -1.330729,1.09375 -4.0742184,1.09375 -1.2942708,0 -2.5976562,-0.246093 Q 3.846465,14.484 2.5430796,14.000927 v -2.962239 q 1.3033854,0.692708 2.515625,1.048177 1.2213541,0.346354 2.3515624,0.346354 1.1484374,0 1.7591145,-0.382813 0.6106771,-0.382812 0.6106771,-1.09375 0,-0.638021 -0.4192709,-0.9843747 Q 8.9506315,9.6259271 7.7110482,9.3524897 L 6.3529753,9.0517084 Q 4.3113088,8.6142084 3.3633921,7.6571772 2.4245901,6.700146 2.4245901,5.0777502 q 0,-2.032552 1.3124999,-3.126302 1.3125,-1.09374992 3.7734374,-1.09374992 1.1210937,0 2.3059895,0.17317712 1.1848961,0.1640624 2.4518231,0.501302 z" />
  </g>
  <rect
     style="fill:#fffbff;fill-opacity:1;stroke:none;stroke-width:0.84975582;stroke-miterlimit:4;stroke-dasharray:none;stroke-opacity:1"
     y="7.4576273"
     x="1.1525424"
     height="2.6440678"
     width="12.745763"
     id="rect3727" />
  <path
     id="path4536"
     d="m 1.095695,8.9057737 14.154479,0.035678"
     style="fill:none;stroke:#000000;stroke-width:1.2706486px;stroke-linecap:round;stroke-linejoin:miter;stroke-opacity:1" />
</svg>
