<?xml version="1.0" encoding="UTF-8" standalone="no"?>
<svg
   xmlns:dc="http://purl.org/dc/elements/1.1/"
   xmlns:cc="http://creativecommons.org/ns#"
   xmlns:rdf="http://www.w3.org/1999/02/22-rdf-syntax-ns#"
   xmlns:svg="http://www.w3.org/2000/svg"
   xmlns="http://www.w3.org/2000/svg"
   xmlns:sodipodi="http://sodipodi.sourceforge.net/DTD/sodipodi-0.dtd"
   xmlns:inkscape="http://www.inkscape.org/namespaces/inkscape"
   version="1.1"
   viewBox="0 0 16 16"
   id="svg2"
   inkscape:version="0.91 r13725"
   sodipodi:docname="ExtractLinkFromTextAction.svg"
   width="16"
   height="16"
   inkscape:export-filename="J:\Freeplane\editor\images\ExtractLinkFromTextAction.png"
   inkscape:export-xdpi="90"
   inkscape:export-ydpi="90">
  <sodipodi:namedview
     pagecolor="#ffffff"
     bordercolor="#666666"
     borderopacity="1"
     objecttolerance="10"
     gridtolerance="10"
     guidetolerance="10"
     inkscape:pageopacity="0"
     inkscape:pageshadow="2"
     inkscape:window-width="1113"
     inkscape:window-height="843"
     id="namedview47"
     showgrid="false"
     inkscape:zoom="14.75"
     inkscape:cx="12.759182"
     inkscape:cy="8"
     inkscape:window-x="720"
     inkscape:window-y="96"
     inkscape:window-maximized="0"
     inkscape:current-layer="svg2" />
  <defs
     id="defs4">
    <radialGradient
       id="a"
       gradientUnits="userSpaceOnUse"
       cy="315.41"
       cx="298.10001"
       gradientTransform="matrix(1.131,0,0,1.1312,-22.1,-17.655)"
       r="149.3">
      <stop
         stop-color="#007fff"
         offset="0"
         id="stop7" />
      <stop
         stop-color="#1c8eff"
         offset=".39286"
         id="stop9" />
      <stop
         stop-color="#1a4a7a"
         offset="1"
         id="stop11" />
    </radialGradient>
    <radialGradient
       id="b"
       spreadMethod="reflect"
       gradientUnits="userSpaceOnUse"
       cy="249.47"
       cx="317.85999"
       gradientTransform="matrix(0.92255,0.54994,-0.61282,1.0614,218.04,-49.879)"
       r="141.81">
      <stop
         stop-color="#b8ff71"
         offset="0"
         id="stop14" />
      <stop
         stop-color="#6c0"
         offset="1"
         id="stop16" />
    </radialGradient>
    <radialGradient
       id="c"
       gradientUnits="userSpaceOnUse"
       cx="298.67001"
       cy="309.10999"
       r="130.08"
       gradientTransform="matrix(0.24362,0.87764,-1.1344,0.31491,586.41,-25.658)">
      <stop
         stop-color="#fff"
         stop-opacity=".86735"
         offset="0"
         id="stop19" />
      <stop
         stop-color="#fff"
         stop-opacity="0"
         offset="1"
         id="stop21" />
    </radialGradient>
    <linearGradient
       id="linearGradient4568-1-4">
      <stop
         style="stop-color:#e12b1c;stop-opacity:1;"
         offset="0"
         id="stop4570-9-2" />
      <stop
         style="stop-color:#980b00;stop-opacity:1.0000000;"
         offset="1.0000000"
         id="stop4572-8-0" />
    </linearGradient>
    <linearGradient
       id="linearGradient4554-5-4">
      <stop
         style="stop-color:#ffffff;stop-opacity:1.0000000;"
         offset="0.0000000"
         id="stop4556-0-0" />
      <stop
         style="stop-color:#ffffff;stop-opacity:0.0000000;"
         offset="1.0000000"
         id="stop4558-9-7" />
    </linearGradient>
    <linearGradient
       id="linearGradient10396-80-5">
      <stop
         style="stop-color:#cccccc;stop-opacity:1;"
         offset="0"
         id="stop10398-8-5" />
      <stop
         style="stop-color:#ffffff;stop-opacity:1;"
         offset="1"
         id="stop10400-8-2" />
    </linearGradient>
  </defs>
  <metadata
     id="metadata23">
    <rdf:RDF>
      <cc:Work
         rdf:about="">
        <dc:format>image/svg+xml</dc:format>
        <dc:type
           rdf:resource="http://purl.org/dc/dcmitype/StillImage" />
        <dc:title></dc:title>
      </cc:Work>
    </rdf:RDF>
  </metadata>
  <g
     id="g9894"
     inkscape:export-filename="J:\FreePlane_radna_mapa\images\uline.png"
     inkscape:export-xdpi="90"
     inkscape:export-ydpi="90"
     transform="translate(-286.20724,-727.12158)">
    <rect
       y="727.12158"
       x="286.20724"
       height="16"
       width="16"
       id="rect6193-0-23-7-8-2-89-0-63-1-7-8"
       style="color:#000000;display:inline;overflow:visible;visibility:visible;fill:none;stroke:none;stroke-width:0.85016513;marker:none;enable-background:accumulate" />
    <rect
       y="727.12158"
       x="286.20724"
       height="16"
       width="16"
       id="rect6193-0-23-7-8-2-34-2-4-8"
       style="color:#000000;display:inline;overflow:visible;visibility:visible;fill:none;stroke:none;stroke-width:0.85016513;marker:none;enable-background:accumulate" />
    <g
       id="g9888">
      <g
         id="g9861"
         transform="matrix(0.80642755,0,0,0.84110238,160.37198,64.779473)">
        <g
           transform="scale(0.95164112,1.0508163)"
           style="font-style:normal;font-weight:normal;font-size:25.47897339px;font-family:Archeologicaps;-inkscape-font-specification:Archeologicaps;fill:#000000;fill-opacity:1;stroke:none"
           id="text9845">
          <path
             inkscape:connector-curvature="0"
             d="m 166.00356,751.15853 4.71511,-0.18662 0,8.01195 c -1e-5,0.70499 0.0975,1.26483 0.29236,1.67952 0.1949,0.4147 0.49348,0.73609 0.89574,0.96417 0.40225,0.22808 0.87293,0.34213 1.41205,0.34212 0.6635,1e-5 1.41618,-0.17831 2.25802,-0.53495 0.84182,-0.35664 1.68158,-0.88745 2.51928,-1.59244 l 0,-5.79746 c -1e-5,-0.61374 -0.0456,-1.016 -0.13685,-1.20677 -0.0912,-0.19075 -0.25297,-0.34419 -0.48519,-0.46031 -0.23224,-0.11611 -0.59718,-0.17416 -1.0948,-0.17418 l -0.90819,0 0,-1.04503 4.71511,-0.18662 0,9.28092 c -2e-5,0.59717 0.0497,1.00979 0.14929,1.23787 0.0995,0.22808 0.24673,0.38982 0.44165,0.4852 0.19489,0.0954 0.58678,0.14307 1.17566,0.14307 l 0.38567,0 0,1.04503 -4.13038,0.2115 0,-2.30157 c -1.13628,0.90404 -2.1274,1.52816 -2.97337,1.87236 -0.846,0.34419 -1.70442,0.51629 -2.57527,0.51629 -0.64694,0 -1.20885,-0.0871 -1.68574,-0.26126 -0.47691,-0.17417 -0.89575,-0.43543 -1.25654,-0.78377 -0.36079,-0.34835 -0.63656,-0.76719 -0.82732,-1.25653 -0.19076,-0.48934 -0.28614,-1.01186 -0.28614,-1.56756 l 0,-5.66061 c 0,-0.50592 -0.0456,-0.86049 -0.13685,-1.0637 -0.0912,-0.20319 -0.2426,-0.36492 -0.45409,-0.48519 -0.2115,-0.12025 -0.49971,-0.18038 -0.86464,-0.1804 l -1.14457,0 z"
             style="font-family:'Bookman Old Style';-inkscape-font-specification:'Bookman Old Style'"
             id="path9886" />
        </g>
        <path
           inkscape:connector-curvature="0"
           sodipodi:nodetypes="cc"
           id="path9851"
           d="m 158.26905,804.34415 15.38326,0"
           style="fill:none;stroke:#000000;stroke-width:0.98668981px;stroke-linecap:butt;stroke-linejoin:miter;stroke-opacity:1" />
      </g>
    </g>
  </g>
</svg>
