<?xml version="1.0" encoding="UTF-8" standalone="no"?>
<svg xmlns:rdf="http://www.w3.org/1999/02/22-rdf-syntax-ns#" xmlns="http://www.w3.org/2000/svg" version="1.1" xmlns:cc="http://creativecommons.org/ns#" xmlns:xlink="http://www.w3.org/1999/xlink" viewBox="0 0 16.089 15.989" xmlns:dc="http://purl.org/dc/elements/1.1/">
<defs>
<linearGradient id="a" y2=".029297" gradientUnits="userSpaceOnUse" y1="8.4145" x2="-.13419" x1="12.978">
<stop stop-color="#003a00" offset="0"/>
<stop stop-color="#00d800" offset="1"/>
</linearGradient>
</defs>
<metadata>
<rdf:RDF>
<cc:Work rdf:about="">
<dc:format>image/svg+xml</dc:format>
<dc:type rdf:resource="http://purl.org/dc/dcmitype/StillImage"/>
<dc:title/>
</cc:Work>
</rdf:RDF>
</metadata>
<g transform="translate(-36.303 -257.05)">
<g transform="translate(36.304 257.05)" stroke="#008000">
<path d="m6.8344 2.3145c9.1116-0.0305 9.2026 13.622 9.2026 13.622" stroke-linecap="square" stroke-width=".10268" fill="none"/>
<path d="m6.8731 7.5577c9.1639-0.0551 9.1639 8.3793 9.1639 8.3793" stroke-width=".097447" fill="none"/>
<path d="m15.828 13.918c-0.04417-0.0012-0.08824 0.03624-0.07709 0.08282 0.01649 0.06229 0.02393 0.12816 0.04842 0.18767 0.02758 0.05273 0.11714 0.03995 0.12565-0.02028 0.0012-0.06518-0.01129-0.13063-0.01907-0.19538-0.0077-0.03491-0.04255-0.05906-0.07791-0.05483zm-0.07228-0.41032c-0.08234-0.003-0.12906 0.0819-0.08981 0.15232 0.0371 0.10056 0.03381 0.22471 0.10556 0.30694 0.06998 0.05137 0.14352-0.04469 0.11806-0.11482-0.02667-0.10564 0.000226-0.2319-0.0662-0.32315-0.01876-0.01605-0.04283-0.02449-0.06759-0.0213zm-8.7867-11.165c-0.038909 0.53136-0.00554 1.0764-0.016667 1.613v3.5407c0.077741 0.12969 0.28139 0.033885 0.41477 0.065156 1.5288 0.056914 3.0697 0.343 4.4261 1.0721 1.4981 0.78097 2.6685 2.0965 3.3682 3.6339 0.20215 0.40766 0.32853 0.84973 0.48908 1.2714 0.09679 0.10084 0.19926-0.04418 0.16018-0.14444-0.12908-1.0954-0.36045-2.1792-0.64674-3.244-0.544-1.9121-1.352-3.7972-2.672-5.3019-1.072-1.2315-2.5538-2.1231-4.1745-2.3982-0.437-0.0739-0.8876-0.1341-1.3283-0.1165l-0.019824 0.00816zm-6.9693 2.6784 3.5 2.4895 3.5 2.4895-0.0098-5-0.0098-5-3.4902 2.5105z" stroke-linecap="square" stroke-width=".00052378" fill="url(#a)"/>
</g>
</g>
</svg>
