<?xml version="1.0" encoding="UTF-8"?>
<svg width="100px" height="100px" viewBox="0 0 100 100" version="1.1" xmlns="http://www.w3.org/2000/svg" xmlns:xlink="http://www.w3.org/1999/xlink">
    <!-- Generator: sketchtool 63.1 (101010) - https://sketch.com -->
    <title>microsoft/file_ms_onenote</title>
    <desc>Created with sketchtool.</desc>
    <g id="Icons" stroke="none" stroke-width="1" fill="none" fill-rule="evenodd">
        <g id="microsoft/file_ms_onenote">
            <g id="File/OneNote" transform="translate(-4.200000, 0.000000)">
                <g id="file_ms_onenote" transform="translate(4.000000, 5.200000)">
                    <path d="M47.6369353,0 L53.8324306,0 C53.8324306,2.76621612 53.8324306,5.53243224 53.842791,8.29864837 C63.5400879,8.67162133 73.3513489,7.51126101 82.9761233,8.96171141 C83.3180152,10.0599096 83.6806278,11.1477474 84.0432404,12.2355852 C86.4882853,12.6707203 90.4252221,12.3702698 90.8085555,15.6855851 C91.5959428,21.7463957 91.0468437,27.8797288 90.6531501,33.9508997 C91.2126095,40.405404 91.5959428,46.9635119 90.4666636,53.3765748 C91.4094563,59.313061 91.4198167,65.4049527 90.7878347,71.3621597 C90.3423393,74.5842317 86.5193664,74.3563038 84.1054025,74.8121596 C83.7531503,76.5008983 83.7842314,78.3554027 82.8725197,79.8576549 C81.0076549,81.0283756 78.6972946,80.7486459 76.6148623,80.8418891 C69.0207184,80.7693666 61.4265745,80.8004477 53.842791,80.8004477 C53.8324306,83.5666638 53.8324306,86.3328799 53.8324306,89.0990961 L47.3468452,89.0990961 C31.5887377,86.2085556 15.7891887,83.5666638 0.01036036,80.8108081 C0,56.6400882 0,32.4797286 0,8.30900873 C15.8824319,5.5427926 31.7648638,2.82837828 47.6369353,0 Z" id="path26" fill="#733781" fill-rule="nonzero"></path>
                    <path d="M53.8324306,11.3860356 C62.8148627,11.3860356 71.7972949,11.3756753 80.779727,11.3860356 C80.7693666,12.7639635 80.7693666,14.1315311 80.779727,15.5094589 C83.1626098,15.5198193 85.5454926,15.5612607 87.9387357,15.6648643 C88.0734204,21.1144137 88.1252222,26.5639631 87.8972943,32.0135124 C85.5247719,32.0963953 83.1418891,32.1378367 80.779727,32.1481971 C80.779727,47.3364849 80.7900873,62.5247726 80.779727,77.7130604 C71.7972949,77.7234208 62.8148627,77.7130604 53.8324306,77.7130604 C53.8324306,74.9468443 53.8324306,72.1702678 53.8324306,69.4040517 C60.3905385,69.3936913 66.9486464,69.4040517 73.5171146,69.4040517 C73.5067543,68.0261238 73.5067543,66.6585563 73.5171146,65.2806284 C66.9486464,65.2806284 60.3905385,65.2909888 53.8324306,65.2806284 C53.8324306,63.5504483 53.8324306,61.8099078 53.8324306,60.0797277 C60.3905385,60.0693673 66.9486464,60.0797277 73.5171146,60.0797277 C73.5067543,58.7017998 73.5067543,57.3342323 73.5171146,55.9563044 C66.9486464,55.9563044 60.3905385,55.9666648 53.8324306,55.9563044 C53.8324306,54.2261243 53.8324306,52.4855838 53.8324306,50.7554037 C60.3905385,50.7450433 66.9486464,50.7554037 73.5171146,50.7554037 C73.5067543,49.3774758 73.5067543,48.0099083 73.5171146,46.6319804 C66.9486464,46.6319804 60.3905385,46.6423408 53.8324306,46.6319804 C53.8324306,44.9018003 53.8324306,43.1612598 53.8324306,41.4310797 C60.3905385,41.4207193 66.9486464,41.4310797 73.5067543,41.4310797 C73.5067543,40.0531518 73.5067543,38.6855843 73.5171146,37.3076564 C66.9486464,37.3076564 60.3905385,37.3180167 53.8324306,37.3076564 C53.8324306,35.5774763 53.8324306,33.8369358 53.8324306,32.1067557 C60.3905385,32.0963953 66.9486464,32.1067557 73.5171146,32.1067557 C73.5067543,30.7288278 73.5067543,29.3612603 73.5171146,27.9833324 C66.9486464,27.9833324 60.3905385,27.9936927 53.8324306,27.9833324 C53.8324306,26.2531523 53.8324306,24.5126118 53.8324306,22.7824317 C60.3905385,22.7720713 66.9486464,22.7824317 73.5171146,22.7824317 C73.5067543,21.4045038 73.5067543,20.0369363 73.5171146,18.6590084 C66.9486464,18.6590084 60.3905385,18.6693687 53.8324306,18.6590084 C53.8324306,16.2346841 53.8324306,13.8103599 53.8324306,11.3860356 L53.8324306,11.3860356 Z" id="path52" fill="#FFFFFF" fill-rule="nonzero"></path>
                    <path d="M32.0135124,27.1752243 C34.0752241,27.0612603 36.1472961,26.9472964 38.2297284,26.8540531 C38.2297284,38.2918906 38.2297284,49.7400884 38.2297284,61.1779258 C35.9918907,61.0846826 33.7747736,60.9603583 31.5576566,60.836034 C27.4342333,52.9103586 22.9689181,45.1608093 18.9801795,37.1626113 C19.2081075,44.8292778 19.0734228,52.5063045 19.0941435,60.1729709 C17.208558,60.0486466 15.3436932,59.9346826 13.468468,59.8207187 C13.4995491,49.2945929 13.4891887,38.7581068 13.468468,28.231981 C15.6027022,28.1180171 17.726576,28.0040531 19.8711705,27.8900891 C23.9220713,35.3081069 28.0351342,42.6950436 31.972071,50.1855839 C32.0549539,42.5189175 31.972071,34.8418907 32.0135124,27.1752243 Z" id="path80" fill="#FFFFFF" fill-rule="nonzero"></path>
                    <path d="M83.8671143,35.1734222 C85.2139611,35.225224 86.5608079,35.2873862 87.918015,35.3495483 C88.0941411,40.7990977 88.1252222,46.2382867 87.8869339,51.6774757 C86.5400871,51.7396379 85.2036007,51.8018 83.8671143,51.8536018 C83.8567539,46.2900885 83.8567539,40.7265752 83.8671143,35.1734222 Z" id="path102" fill="#FFFFFF" fill-rule="nonzero"></path>
                    <path d="M83.8671143,54.8477459 C85.2139611,54.909908 86.5711682,54.9824306 87.9387357,55.0549531 C88.0941411,60.4734214 88.0837808,65.8918896 87.9387357,71.3103579 C86.5711682,71.3932408 85.2139611,71.4761237 83.8671143,71.5590066 C83.8567539,65.9851329 83.8567539,60.4216196 83.8671143,54.8477459 Z" id="path116" fill="#FFFFFF" fill-rule="nonzero"></path>
                </g>
            </g>
        </g>
    </g>
</svg>