<?xml version="1.0" encoding="UTF-8"?>
<svg width="100px" height="100px" viewBox="0 0 100 100" version="1.1" xmlns="http://www.w3.org/2000/svg" xmlns:xlink="http://www.w3.org/1999/xlink">
    <!-- Generator: sketchtool 63.1 (101010) - https://sketch.com -->
    <title>microsoft/file_ms_excel</title>
    <desc>Created with sketchtool.</desc>
    <g id="Icons" stroke="none" stroke-width="1" fill="none" fill-rule="evenodd">
        <g id="microsoft/file_ms_excel">
            <g id="file/Excel" transform="translate(-4.100000, 0.000000)">
                <g id="file_ms_excel" transform="translate(3.600000, 4.600000)">
                    <path d="M48.63929,0 L54.9146458,0 C54.9146458,2.81843061 54.9146458,5.6263053 54.9146458,8.44473591 C65.4897825,8.44473591 76.0649192,8.46584775 86.6400558,8.41306815 C88.4254685,8.48695959 90.3904789,8.36028855 91.943471,9.42643646 C93.031622,10.9887126 92.9048471,12.9732255 92.9787991,14.7677319 C92.9259762,33.0928089 92.9471054,51.4073299 92.95767,69.7218509 C92.9048471,72.7936236 93.2429134,75.9287318 92.5984745,78.9582808 C92.1758916,81.1539121 89.5347486,81.2066917 87.7704651,81.2805832 C76.8255684,81.3122509 65.8701071,81.2594713 54.9146458,81.2805832 C54.9146458,84.4473591 54.9146458,87.6141351 54.9146458,90.7809111 L48.3540465,90.7809111 C32.2536386,87.8569213 16.121537,85.1546058 0,82.3361752 C0,57.709214 0,33.0822529 0,8.45529183 C16.2166182,5.63686122 32.4332364,2.86065429 48.63929,0 Z" id="path10" fill="#207245" fill-rule="nonzero"></path>
                    <path d="M54.8720174,11.4989154 C66.505423,11.4989154 78.1388286,11.4989154 89.7722343,11.4989154 C89.7722343,33.6898048 89.7722343,55.8806941 89.7722343,78.0715835 C78.1388286,78.0715835 66.505423,78.0715835 54.8720174,78.0715835 C54.8720174,75.9581655 54.8720174,73.8447474 54.8720174,71.7313294 C57.6957622,71.7313294 60.5089312,71.7313294 63.332676,71.7313294 C63.332676,69.2691974 63.332676,66.7964983 63.332676,64.3343663 C60.5089312,64.3343663 57.6957622,64.3343663 54.8720174,64.3343663 C54.8720174,62.9289433 54.8720174,61.5129532 54.8720174,60.1075302 C57.6957622,60.1075302 60.5089312,60.1075302 63.332676,60.1075302 C63.332676,57.6453982 63.332676,55.1726991 63.332676,52.7105671 C60.5089312,52.7105671 57.6957622,52.7105671 54.8720174,52.7105671 C54.8720174,51.3051441 54.8720174,49.889154 54.8720174,48.483731 C57.6957622,48.483731 60.5089312,48.483731 63.332676,48.483731 C63.332676,46.021599 63.332676,43.5488999 63.332676,41.0867679 C60.5089312,41.0867679 57.6957622,41.0867679 54.8720174,41.0867679 C54.8720174,39.6813449 54.8720174,38.2653548 54.8720174,36.8599318 C57.6957622,36.8599318 60.5089312,36.8599318 63.332676,36.8599318 C63.332676,34.3977998 63.332676,31.9251007 63.332676,29.4629687 C60.5089312,29.4629687 57.6957622,29.4629687 54.8720174,29.4629687 C54.8720174,28.0575457 54.8720174,26.6415556 54.8720174,25.2361326 C57.6957622,25.2361326 60.5089312,25.2361326 63.332676,25.2361326 C63.332676,22.7740006 63.332676,20.3013015 63.332676,17.8391695 C60.5089312,17.8391695 57.6957622,17.8391695 54.8720174,17.8391695 C54.8720174,15.7257515 54.8720174,13.6123334 54.8720174,11.4989154 Z" id="path48" fill="#FFFFFF" fill-rule="nonzero"></path>
                    <path d="M67.5813449,17.9544469 C72.493745,17.9544469 77.395626,17.9544469 82.308026,17.9544469 C82.308026,20.4389619 82.308026,22.9341401 82.308026,25.4186551 C77.395626,25.4186551 72.493745,25.4186551 67.5813449,25.4186551 C67.5813449,22.9341401 67.5813449,20.4389619 67.5813449,17.9544469 L67.5813449,17.9544469 Z" id="path58" fill="#207245" fill-rule="nonzero"></path>
                    <path d="M31.2730766,27.8676554 C33.6645452,27.6992079 36.0665955,27.5518163 38.4686457,27.4360087 C35.6433267,33.1948077 32.8074259,38.9536067 29.9291983,44.6913497 C32.8391711,50.5870123 35.8126342,56.440563 38.7331887,62.3362256 C36.1829944,62.188834 33.6433817,62.0309145 31.0931874,61.851939 C29.2942951,57.461776 27.1038792,53.2190045 25.8129095,48.6288101 C24.3737957,52.9031655 22.3209421,56.9353775 20.6701939,61.1255092 C18.3527974,61.0939253 16.0354009,60.9991735 13.7180043,60.9044218 C16.4375062,55.6088535 19.0617726,50.2711732 21.8659282,45.0071888 C19.4850413,39.5852848 16.8713567,34.2686605 14.4163978,28.8783404 C16.7443761,28.7414768 19.0723543,28.6046132 21.4003325,28.4782776 C22.9770087,32.5947134 24.701829,36.6585094 26.0033804,40.880225 C27.4001674,36.4058382 29.4847661,32.1946506 31.2730766,27.8676554 L31.2730766,27.8676554 Z" id="path72" fill="#FFFFFF" fill-rule="nonzero"></path>
                    <path d="M67.5813449,29.4533623 C72.493745,29.4533623 77.395626,29.4533623 82.308026,29.4533623 C82.308026,31.9378773 82.308026,34.4330555 82.308026,36.9175705 C77.395626,36.9175705 72.493745,36.9175705 67.5813449,36.9175705 C67.5813449,34.4330555 67.5813449,31.9378773 67.5813449,29.4533623 L67.5813449,29.4533623 Z" id="path90" fill="#207245" fill-rule="nonzero"></path>
                    <path d="M67.5813449,41.154013 C72.493745,41.154013 77.395626,41.154013 82.308026,41.154013 C82.308026,43.638528 82.308026,46.1337062 82.308026,48.6182213 C77.395626,48.6182213 72.493745,48.6182213 67.5813449,48.6182213 C67.5813449,46.1337062 67.5813449,43.638528 67.5813449,41.154013 L67.5813449,41.154013 Z" id="path108" fill="#207245" fill-rule="nonzero"></path>
                    <path d="M67.5813449,52.6529284 C72.493745,52.6529284 77.395626,52.6529284 82.308026,52.6529284 C82.308026,55.1374434 82.308026,57.6326216 82.308026,60.1171367 C77.395626,60.1171367 72.493745,60.1171367 67.5813449,60.1171367 C67.5813449,57.6326216 67.5813449,55.1374434 67.5813449,52.6529284 L67.5813449,52.6529284 Z" id="path114" fill="#207245" fill-rule="nonzero"></path>
                    <path d="M67.5813449,64.3535792 C72.493745,64.3535792 77.395626,64.3535792 82.308026,64.3535792 C82.308026,66.8380942 82.308026,69.3332724 82.308026,71.8177874 C77.395626,71.8177874 72.493745,71.8177874 67.5813449,71.8177874 C67.5813449,69.3332724 67.5813449,66.8380942 67.5813449,64.3535792 L67.5813449,64.3535792 Z" id="path120" fill="#207245" fill-rule="nonzero"></path>
                </g>
            </g>
        </g>
    </g>
</svg>