<?xml version="1.0" encoding="UTF-8"?>
<svg width="100px" height="100px" viewBox="0 0 100 100" version="1.1" xmlns="http://www.w3.org/2000/svg" xmlns:xlink="http://www.w3.org/1999/xlink">
    <!-- Generator: sketchtool 63.1 (101010) - https://sketch.com -->
    <title>libreoffice/file_doc_presentation</title>
    <desc>Created with sketchtool.</desc>
    <defs>
        <linearGradient x1="85.1757577%" y1="0.0468559648%" x2="85.1757577%" y2="100.100584%" id="linearGradient-1">
            <stop stop-color="#A33E03" offset="0%"></stop>
            <stop stop-color="#622502" offset="100%"></stop>
        </linearGradient>
        <linearGradient x1="-252.214072%" y1="-1.75562323%" x2="-252.214072%" y2="403.839575%" id="linearGradient-2">
            <stop stop-color="#A33E03" offset="0%"></stop>
            <stop stop-color="#622502" offset="100%"></stop>
        </linearGradient>
        <linearGradient x1="25.3870541%" y1="94.7758621%" x2="25.7977261%" y2="1.92327586%" id="linearGradient-3">
            <stop stop-color="#B3B3B3" offset="0%"></stop>
            <stop stop-color="#E6E6E6" offset="100%"></stop>
        </linearGradient>
        <linearGradient x1="2.6786671%" y1="61.712963%" x2="2.6786671%" y2="1.85425926%" id="linearGradient-4">
            <stop stop-color="#FFFFFF" stop-opacity="0.59" offset="0%"></stop>
            <stop stop-color="#FFFFFF" stop-opacity="0.86" offset="100%"></stop>
        </linearGradient>
        <linearGradient x1="86.0416667%" y1="99.7142857%" x2="86.0416667%" y2="-0.288095238%" id="linearGradient-5">
            <stop stop-color="#D36118" offset="0%"></stop>
            <stop stop-color="#F09E6F" offset="100%"></stop>
        </linearGradient>
        <linearGradient x1="90%" y1="100%" x2="90%" y2="0%" id="linearGradient-6">
            <stop stop-color="#FFFFFF" stop-opacity="0.59" offset="0%"></stop>
            <stop stop-color="#FFFFFF" stop-opacity="0.86" offset="100%"></stop>
        </linearGradient>
        <linearGradient x1="51.3666667%" y1="-1724%" x2="51.3666667%" y2="1475.1%" id="linearGradient-7">
            <stop stop-color="#A33E03" offset="0%"></stop>
            <stop stop-color="#622502" offset="100%"></stop>
        </linearGradient>
        <linearGradient x1="51.3666667%" y1="-1899%" x2="51.3666667%" y2="1300.1%" id="linearGradient-8">
            <stop stop-color="#A33E03" offset="0%"></stop>
            <stop stop-color="#622502" offset="100%"></stop>
        </linearGradient>
        <linearGradient x1="51.3666667%" y1="-2074%" x2="51.3666667%" y2="1125.1%" id="linearGradient-9">
            <stop stop-color="#A33E03" offset="0%"></stop>
            <stop stop-color="#622502" offset="100%"></stop>
        </linearGradient>
        <radialGradient cx="49.875%" cy="49.25%" fx="49.875%" fy="49.25%" r="50.764%" gradientTransform="translate(0.498750,0.492500),scale(0.076923,1.000000),rotate(89.999301),translate(-0.498750,-0.492500)" id="radialGradient-10">
            <stop stop-color="#000000" stop-opacity="0.2" offset="0%"></stop>
            <stop stop-color="#000000" stop-opacity="0" offset="100%"></stop>
        </radialGradient>
        <linearGradient x1="0%" y1="100%" x2="0%" y2="-0.000714285714%" id="linearGradient-11">
            <stop stop-color="#FFFFFF" stop-opacity="0.59" offset="0%"></stop>
            <stop stop-color="#FFFFFF" stop-opacity="0.86" offset="100%"></stop>
        </linearGradient>
        <linearGradient x1="61.7647059%" y1="34.4290657%" x2="2.94117647%" y2="71.799308%" id="linearGradient-12">
            <stop stop-color="#18A303" offset="0%"></stop>
            <stop stop-color="#106802" offset="100%"></stop>
        </linearGradient>
        <linearGradient x1="14.7058824%" y1="71.799308%" x2="73.5294118%" y2="37.5432526%" id="linearGradient-13">
            <stop stop-color="#92E285" offset="0%"></stop>
            <stop stop-color="#CCF4C6" offset="100%"></stop>
        </linearGradient>
    </defs>
    <g id="Icons" stroke="none" stroke-width="1" fill="none" fill-rule="evenodd">
        <g id="libreoffice/file_doc_presentation">
            <g id="Group" transform="translate(10.000000, 0.000000)">
                <g id="g4791" fill-rule="nonzero">
                    <path d="M3.46022887,0.69240965 C0.640327051,1.23403304 -0.049255927,2.44037604 -1.30104261e-18,5.30851807 L-1.30104261e-18,94.5655904 C-1.30104261e-18,97.7907115 1.39147994,99.1816989 4.61774315,99.1816989 L75.4231382,99.1816989 C78.6494014,99.1816989 80.0408813,97.7907115 80.0408813,94.5655904 L80.0408813,39.2892308 C80.0778233,37.6643607 79.4374962,36.0333357 78.3107669,34.8639216 L45.857268,2.42806642 C44.6935967,1.29558115 43.0619942,0.655480783 41.4365486,0.69240965 L4.61774315,0.69240965 C4.23600972,0.655480783 3.8481193,0.655480783 3.46022887,0.69240965 Z" id="path4793" fill="url(#linearGradient-1)"></path>
                    <path d="M57.4385679,0.717028895 C55.3944469,1.36943888 54.7048639,4.48992818 56.2810536,5.95477325 L74.8259101,24.5976964 C76.5375535,26.2287214 79.9546835,24.8315793 80.0408813,22.4619769 L80.0408813,3.81905375 C80.0408813,2.19418359 78.5693605,0.717028895 76.9500719,0.717028895 L58.4052154,0.717028895 C58.0850519,0.661635594 57.7587314,0.661635594 57.4385679,0.717028895 Z" id="path4795" fill="url(#linearGradient-2)"></path>
                </g>
                <g id="path4797" transform="translate(4.617089, 5.001321)" fill="url(#linearGradient-3)" fill-rule="nonzero">
                    <polygon id="Path" points="0 0.32325327 0 89.6027278 70.8070895 89.6027278 70.8070895 33.5182855 70.3260578 33.0334056 38.1931435 0.708078591 37.8083182 0.32325327"></polygon>
                </g>
                <g id="path4799" transform="translate(7.695692, 8.079923)" fill="url(#linearGradient-4)" fill-rule="nonzero">
                    <polygon id="Path" points="0 0.32325327 32.5054253 0.32325327 64.6483451 32.6485803 64.6483451 83.4455227 0 83.4455227"></polygon>
                </g>
                <g id="path5997" transform="translate(27.706609, 73.500228)" fill="#808080" fill-rule="nonzero">
                    <polygon id="Path" points="9.32893544 0.277074231 0 6.43427937 4.52477613 6.43427937 12.3144103 0.277074231"></polygon>
                </g>
                <g id="rect8649" transform="translate(36.942416, 71.960927)" fill="#808080">
                    <rect id="Rectangle" x="0" y="0.277074231" width="4.61790386" height="2.30895193"></rect>
                </g>
                <g id="path5999" transform="translate(38.481718, 73.500228)" fill="#808080" fill-rule="nonzero">
                    <polygon id="Path" points="3.07860257 0.277074231 12.3144103 6.43427937 7.69650643 6.43427937 0 0.277074231"></polygon>
                </g>
                <g id="rect6001" transform="translate(14.622548, 37.326648)" fill="#A33E03">
                    <rect id="Rectangle" x="0" y="0.277074231" width="49.2576411" height="35.4039296"></rect>
                </g>
                <g id="rect6005" transform="translate(16.161849, 38.865949)" fill="url(#linearGradient-5)">
                    <path d="M46.1790386,0.461790386 C46.1790386,0.361735802 46.0959163,0.277074231 45.9943224,0.277074231 L0.184716154,0.277074231 C0.0831222694,0.277074231 0,0.361735802 0,0.461790386 L0,32.4176851 C0,32.5177397 0.0831222694,32.6024012 0.184716154,32.6024012 L45.9943224,32.6024012 C46.0959163,32.6024012 46.1790386,32.5177397 46.1790386,32.4176851 L46.1790386,0.461790386 Z" id="Path"></path>
                </g>
                <g id="rect6007" transform="translate(16.161849, 38.865949)" fill="url(#linearGradient-6)">
                    <path d="M46.1790386,0.461790386 C46.1790386,0.361735802 46.0959163,0.277074231 45.9943224,0.277074231 L0.184716154,0.277074231 C0.0831222694,0.277074231 0,0.361735802 0,0.461790386 L0,32.4176851 C0,32.5177397 0.0831222694,32.6024012 0.184716154,32.6024012 L45.9943224,32.6024012 C46.0959163,32.6024012 46.1790386,32.5177397 46.1790386,32.4176851 L46.1790386,0.461790386 Z" id="Path"></path>
                </g>
                <g id="g7333" transform="translate(24.628006, 53.489311)">
                    <rect id="rect6009" fill="url(#linearGradient-7)" x="0" y="0.277074231" width="11.5447596" height="3.07860257"></rect>
                    <rect id="rect6013" fill="url(#linearGradient-8)" x="0" y="5.66462873" width="11.5447596" height="3.07860257"></rect>
                    <rect id="rect6015" fill="url(#linearGradient-9)" x="0" y="11.0521832" width="11.5447596" height="3.07860257"></rect>
                </g>
                <g id="path6019" transform="translate(19.238782, 53.622207)" fill="#D36118" fill-rule="nonzero">
                    <path d="M3.07859703,1.68589837 C3.07859703,2.53617755 2.38955104,3.22519689 1.53929852,3.22519689 C0.68904599,3.22519689 0,2.53617755 0,1.68589837 C0,0.835912394 0.68904599,0.146599859 1.53929852,0.146599859 C2.38955104,0.146599859 3.07859703,0.835912394 3.07859703,1.68589837 Z" id="Path"></path>
                </g>
                <g id="path6021" transform="translate(19.238782, 59.010373)" fill="#D36118" fill-rule="nonzero">
                    <path d="M3.07859703,1.68589837 C3.07859703,2.53617755 2.38955104,3.22519689 1.53929852,3.22519689 C0.68904599,3.22519689 0,2.53617755 0,1.68589837 C0,0.835912394 0.68904599,0.146599859 1.53929852,0.146599859 C2.38955104,0.146599859 3.07859703,0.835912394 3.07859703,1.68589837 Z" id="Path"></path>
                </g>
                <g id="path6023" transform="translate(19.238782, 64.396692)" fill="#D36118" fill-rule="nonzero">
                    <path d="M3.07859703,1.68589837 C3.07859703,2.53617755 2.38955104,3.22519689 1.53929852,3.22519689 C0.68904599,3.22519689 0,2.53617755 0,1.68589837 C0,0.835912394 0.68904599,0.146599859 1.53929852,0.146599859 C2.38955104,0.146599859 3.07859703,0.835912394 3.07859703,1.68589837 Z" id="Path"></path>
                </g>
                <g id="rect6025" transform="translate(19.240451, 41.944552)" fill="#D36118">
                    <rect id="Rectangle" x="0" y="0.277074231" width="40.0218334" height="3.07860257"></rect>
                </g>
                <g id="path6561" transform="translate(19.240451, 77.348481)" fill="url(#radialGradient-10)" fill-rule="nonzero">
                    <path d="M1.14370086,0.277074231 L38.8781326,0.277074231 C39.5115551,0.277074231 40.0218334,0.738864617 40.0218334,1.3161026 L40.0218334,2.31664844 C40.0218334,2.89388642 39.5115551,3.3556768 38.8781326,3.3556768 L1.14370086,3.3556768 C0.510278376,3.3556768 0,2.89388642 0,2.31664844 L0,1.3161026 C0,0.738864617 0.510278376,0.277074231 1.14370086,0.277074231 Z" id="Path"></path>
                </g>
                <g id="rect7235" transform="translate(39.251368, 53.489311)" fill="#808080">
                    <rect id="Rectangle" x="0" y="0.277074231" width="20.0109167" height="13.8537116"></rect>
                </g>
                <g id="rect7237" transform="translate(40.790669, 55.028613)" fill="#E6E6E6">
                    <rect id="Rectangle" x="0" y="0.277074231" width="16.9323141" height="10.775109"></rect>
                </g>
                <g id="rect7239" transform="translate(40.790669, 55.028613)" fill="url(#linearGradient-11)">
                    <rect id="Rectangle" x="0" y="0.277074231" width="16.9323141" height="10.775109"></rect>
                </g>
                <g id="g7243" transform="translate(40.899066, 56.567919)" fill="#E6E6E6">
                    <rect id="rect7245" x="0.659724601" y="2.58602616" width="15.3933216" height="1"></rect>
                    <rect id="rect7247" x="0.659724601" y="0.277074231" width="15.3933216" height="1"></rect>
                    <rect id="rect7249" x="0.659724601" y="4.89497809" width="15.3933216" height="1"></rect>
                    <rect id="rect7251" x="0.659724601" y="7.20393002" width="15.3933216" height="1"></rect>
                </g>
                <g id="path7255" transform="translate(42.329971, 56.567914)" stroke="url(#linearGradient-12)" stroke-width="9.52442671">
                    <polyline id="Path" points="0.384825321 7.58875534 4.61790386 3.3556768 7.69650643 6.43427937 13.4688863 0.661899553"></polyline>
                </g>
                <g id="path7257" transform="translate(42.329971, 56.567914)" stroke="url(#linearGradient-13)" stroke-width="4.76221335">
                    <polyline id="Path" points="0.384825321 7.58875534 4.61790386 3.3556768 7.69650643 6.43427937 13.4688863 0.661899553"></polyline>
                </g>
                <g id="rect7305" transform="translate(26.936958, 47.332106)" fill="#D36118">
                    <rect id="Rectangle" x="0" y="0.277074231" width="24.6288206" height="3.07860257"></rect>
                </g>
            </g>
        </g>
    </g>
</svg>