<?xml version="1.0" encoding="UTF-8"?>
<svg width="100px" height="100px" viewBox="0 0 100 100" version="1.1" xmlns="http://www.w3.org/2000/svg" xmlns:xlink="http://www.w3.org/1999/xlink">
    <!-- Generator: sketchtool 63.1 (101010) - https://sketch.com -->
    <title>libreoffice/file_doc_texthtml</title>
    <desc>Created with sketchtool.</desc>
    <defs>
        <linearGradient x1="79.2760473%" y1="0.0531034267%" x2="79.2760473%" y2="100.312373%" id="linearGradient-1">
            <stop stop-color="#666666" offset="0%"></stop>
            <stop stop-color="#333333" offset="100%"></stop>
        </linearGradient>
        <linearGradient x1="-252.214072%" y1="-1.75562323%" x2="-252.214072%" y2="403.839575%" id="linearGradient-2">
            <stop stop-color="#666666" offset="0%"></stop>
            <stop stop-color="#333333" offset="100%"></stop>
        </linearGradient>
        <linearGradient x1="25.3870541%" y1="94.7758621%" x2="25.7977261%" y2="1.92327586%" id="linearGradient-3">
            <stop stop-color="#B3B3B3" offset="0%"></stop>
            <stop stop-color="#E6E6E6" offset="100%"></stop>
        </linearGradient>
        <linearGradient x1="2.6786671%" y1="61.712963%" x2="2.6786671%" y2="1.85425926%" id="linearGradient-4">
            <stop stop-color="#FFFFFF" stop-opacity="0.59" offset="0%"></stop>
            <stop stop-color="#FFFFFF" stop-opacity="0.86" offset="100%"></stop>
        </linearGradient>
        <linearGradient x1="0%" y1="-0.230769231%" x2="0%" y2="100.009615%" id="linearGradient-5">
            <stop stop-color="#0369A3" offset="0%"></stop>
            <stop stop-color="#023F62" offset="100%"></stop>
        </linearGradient>
        <path d="M27.7776427,14.0615779 C27.7776427,21.5857273 21.5825132,27.7768391 14.0615779,27.7768391 C6.5406425,27.7768391 0.345513056,21.5857273 0.345513056,14.0615779 C0.345513056,6.53742843 6.5406425,0.346316575 14.0615779,0.346316575 C21.5825132,0.346316575 27.7776427,6.53742843 27.7776427,14.0615779 Z" id="path-6"></path>
        <radialGradient cx="35.8484848%" cy="27.9181818%" fx="35.8484848%" fy="27.9181818%" r="60.0923058%" id="radialGradient-8">
            <stop stop-color="#0369A3" offset="0%"></stop>
            <stop stop-color="#023F62" offset="100%"></stop>
        </radialGradient>
        <path d="M27.4303489,14.0443386 C27.4303489,21.5693977 21.2402335,27.7595131 13.7151745,27.7595131 C6.1901154,27.7595131 0,21.5693977 0,14.0443386 C0,6.51927959 6.1901154,0.329164187 13.7151745,0.329164187 C21.2402335,0.329164187 27.4303489,6.51927959 27.4303489,14.0443386 Z" id="path-9"></path>
        <linearGradient x1="37.1555632%" y1="97.6752633%" x2="47.5226895%" y2="0.508536142%" id="linearGradient-11">
            <stop stop-color="#63BBEE" offset="0%"></stop>
            <stop stop-color="#AADCF7" offset="100%"></stop>
        </linearGradient>
        <path d="M27.4303489,14.0443386 C27.4303489,21.5693977 21.2402335,27.7595131 13.7151745,27.7595131 C6.1901154,27.7595131 0,21.5693977 0,14.0443386 C0,6.51927959 6.1901154,0.329164187 13.7151745,0.329164187 C21.2402335,0.329164187 27.4303489,6.51927959 27.4303489,14.0443386 Z" id="path-12"></path>
        <linearGradient x1="91.3399649%" y1="47.9837289%" x2="2.93300176%" y2="52.3642409%" id="linearGradient-14">
            <stop stop-color="#63BBEE" offset="0%"></stop>
            <stop stop-color="#AADCF7" offset="100%"></stop>
        </linearGradient>
        <path d="M27.4303489,14.0443386 C27.4303489,21.5693977 21.2402335,27.7595131 13.7151745,27.7595131 C6.1901154,27.7595131 0,21.5693977 0,14.0443386 C0,6.51927959 6.1901154,0.329164187 13.7151745,0.329164187 C21.2402335,0.329164187 27.4303489,6.51927959 27.4303489,14.0443386 Z" id="path-15"></path>
        <linearGradient x1="95.9396148%" y1="68.4702973%" x2="22.9068194%" y2="24.8039546%" id="linearGradient-17">
            <stop stop-color="#63BBEE" offset="0%"></stop>
            <stop stop-color="#AADCF7" offset="100%"></stop>
        </linearGradient>
        <path d="M27.4303489,14.0443386 C27.4303489,21.5693977 21.2402335,27.7595131 13.7151745,27.7595131 C6.1901154,27.7595131 0,21.5693977 0,14.0443386 C0,6.51927959 6.1901154,0.329164187 13.7151745,0.329164187 C21.2402335,0.329164187 27.4303489,6.51927959 27.4303489,14.0443386 Z" id="path-18"></path>
        <linearGradient x1="59.4381439%" y1="88.9242746%" x2="45.101253%" y2="6.21019108%" id="linearGradient-20">
            <stop stop-color="#63BBEE" offset="0%"></stop>
            <stop stop-color="#AADCF7" offset="100%"></stop>
        </linearGradient>
        <path d="M27.4303489,14.0443386 C27.4303489,21.5693977 21.2402335,27.7595131 13.7151745,27.7595131 C6.1901154,27.7595131 0,21.5693977 0,14.0443386 C0,6.51927959 6.1901154,0.329164187 13.7151745,0.329164187 C21.2402335,0.329164187 27.4303489,6.51927959 27.4303489,14.0443386 Z" id="path-21"></path>
        <linearGradient x1="71.1894297%" y1="87.223703%" x2="34.9633742%" y2="-10.1265535%" id="linearGradient-23">
            <stop stop-color="#63BBEE" offset="0%"></stop>
            <stop stop-color="#AADCF7" offset="100%"></stop>
        </linearGradient>
        <path d="M27.4303489,14.0443386 C27.4303489,21.5693977 21.2402335,27.7595131 13.7151745,27.7595131 C6.1901154,27.7595131 0,21.5693977 0,14.0443386 C0,6.51927959 6.1901154,0.329164187 13.7151745,0.329164187 C21.2402335,0.329164187 27.4303489,6.51927959 27.4303489,14.0443386 Z" id="path-24"></path>
        <linearGradient x1="42.9264651%" y1="48.5276466%" x2="6.24524076%" y2="2.565135%" id="linearGradient-26">
            <stop stop-color="#63BBEE" offset="0%"></stop>
            <stop stop-color="#AADCF7" offset="100%"></stop>
        </linearGradient>
        <path d="M27.4303489,14.0443386 C27.4303489,21.5693977 21.2402335,27.7595131 13.7151745,27.7595131 C6.1901154,27.7595131 0,21.5693977 0,14.0443386 C0,6.51927959 6.1901154,0.329164187 13.7151745,0.329164187 C21.2402335,0.329164187 27.4303489,6.51927959 27.4303489,14.0443386 Z" id="path-27"></path>
        <linearGradient x1="52.7105353%" y1="60.2333867%" x2="30.0739175%" y2="26.9439189%" id="linearGradient-29">
            <stop stop-color="#63BBEE" offset="0%"></stop>
            <stop stop-color="#AADCF7" offset="100%"></stop>
        </linearGradient>
        <path d="M27.4303489,14.0443386 C27.4303489,21.5693977 21.2402335,27.7595131 13.7151745,27.7595131 C6.1901154,27.7595131 0,21.5693977 0,14.0443386 C0,6.51927959 6.1901154,0.329164187 13.7151745,0.329164187 C21.2402335,0.329164187 27.4303489,6.51927959 27.4303489,14.0443386 Z" id="path-30"></path>
        <linearGradient x1="67.7833425%" y1="71.7838023%" x2="-19.4544024%" y2="-13.503033%" id="linearGradient-32">
            <stop stop-color="#63BBEE" offset="0%"></stop>
            <stop stop-color="#AADCF7" offset="100%"></stop>
        </linearGradient>
        <path d="M19.9226464,10.179965 C19.9226464,15.6390422 15.4191036,20.1308367 9.95611025,20.1308367 C4.51269755,20.1308367 0.00915467572,15.6390422 0.00915467572,10.179965 C0.00915467572,4.72088777 4.51269755,0.229093268 9.95611025,0.229093268 C15.4191036,0.229093268 19.9226464,4.72088777 19.9226464,10.179965 Z" id="path-33"></path>
        <radialGradient cx="48%" cy="50.5333333%" fx="48%" fy="50.5333333%" r="48.129%" id="radialGradient-35">
            <stop stop-color="#63BBEE" offset="0%"></stop>
            <stop stop-color="#00A0FC" stop-opacity="0" offset="100%"></stop>
        </radialGradient>
        <path d="M19.9226464,10.179965 C19.9226464,15.6390422 15.4191036,20.1308367 9.95611025,20.1308367 C4.51269755,20.1308367 0.00915467572,15.6390422 0.00915467572,10.179965 C0.00915467572,4.72088777 4.51269755,0.229093268 9.95611025,0.229093268 C15.4191036,0.229093268 19.9226464,4.72088777 19.9226464,10.179965 Z" id="path-36"></path>
        <path d="M19.9226464,10.179965 C19.9226464,15.6390422 15.4191036,20.1308367 9.95611025,20.1308367 C4.51269755,20.1308367 0.00915467572,15.6390422 0.00915467572,10.179965 C0.00915467572,4.72088777 4.51269755,0.229093268 9.95611025,0.229093268 C15.4191036,0.229093268 19.9226464,4.72088777 19.9226464,10.179965 Z" id="path-38"></path>
        <path d="M19.9226464,10.179965 C19.9226464,15.6390422 15.4191036,20.1308367 9.95611025,20.1308367 C4.51269755,20.1308367 0.00915467572,15.6390422 0.00915467572,10.179965 C0.00915467572,4.72088777 4.51269755,0.229093268 9.95611025,0.229093268 C15.4191036,0.229093268 19.9226464,4.72088777 19.9226464,10.179965 Z" id="path-40"></path>
        <path d="M19.9226464,10.179965 C19.9226464,15.6390422 15.4191036,20.1308367 9.95611025,20.1308367 C4.51269755,20.1308367 0.00915467572,15.6390422 0.00915467572,10.179965 C0.00915467572,4.72088777 4.51269755,0.229093268 9.95611025,0.229093268 C15.4191036,0.229093268 19.9226464,4.72088777 19.9226464,10.179965 Z" id="path-42"></path>
        <path d="M19.9226464,10.179965 C19.9226464,15.6390422 15.4191036,20.1308367 9.95611025,20.1308367 C4.51269755,20.1308367 0.00915467572,15.6390422 0.00915467572,10.179965 C0.00915467572,4.72088777 4.51269755,0.229093268 9.95611025,0.229093268 C15.4191036,0.229093268 19.9226464,4.72088777 19.9226464,10.179965 Z" id="path-44"></path>
        <path d="M19.9226464,10.179965 C19.9226464,15.6390422 15.4191036,20.1308367 9.95611025,20.1308367 C4.51269755,20.1308367 0.00915467572,15.6390422 0.00915467572,10.179965 C0.00915467572,4.72088777 4.51269755,0.229093268 9.95611025,0.229093268 C15.4191036,0.229093268 19.9226464,4.72088777 19.9226464,10.179965 Z" id="path-46"></path>
        <path d="M19.9226464,10.179965 C19.9226464,15.6390422 15.4191036,20.1308367 9.95611025,20.1308367 C4.51269755,20.1308367 0.00915467572,15.6390422 0.00915467572,10.179965 C0.00915467572,4.72088777 4.51269755,0.229093268 9.95611025,0.229093268 C15.4191036,0.229093268 19.9226464,4.72088777 19.9226464,10.179965 Z" id="path-48"></path>
        <path d="M19.9226464,10.179965 C19.9226464,15.6390422 15.4191036,20.1308367 9.95611025,20.1308367 C4.51269755,20.1308367 0.00915467572,15.6390422 0.00915467572,10.179965 C0.00915467572,4.72088777 4.51269755,0.229093268 9.95611025,0.229093268 C15.4191036,0.229093268 19.9226464,4.72088777 19.9226464,10.179965 Z" id="path-50"></path>
    </defs>
    <g id="Icons" stroke="none" stroke-width="1" fill="none" fill-rule="evenodd">
        <g id="libreoffice/file_doc_texthtml">
            <g id="Group" transform="translate(10.000000, 0.000000)">
                <g id="use6696" fill-rule="nonzero">
                    <g id="g25513" transform="translate(0.002393, 0.315754)">
                        <path d="M3.42563446,0.685488508 C0.633925238,1.22169636 -0.0487634799,2.41597748 -3.90312782e-18,5.25544178 L-3.90312782e-18,93.6200583 C-3.90312782e-18,96.8129323 1.37756831,98.1900116 4.57157624,98.1900116 L74.6690786,98.1900116 C77.8630865,98.1900116 79.2406548,96.8129323 79.2406548,93.6200583 L79.2406548,38.8963912 C79.2772274,37.2877676 78.6433022,35.6730508 77.5278376,34.5153293 L45.3987998,2.40379094 C44.2467625,1.28262907 42.6314723,0.648928882 41.0222774,0.685488508 L4.57157624,0.685488508 C4.19365927,0.648928882 3.80964686,0.648928882 3.42563446,0.685488508 Z" id="path25515" fill="url(#linearGradient-1)"></path>
                        <path d="M56.864313,0.709861593 C54.8406285,1.35574832 54.1579398,4.44503674 55.7183712,5.89523524 L74.0778214,24.3517532 C75.7723523,25.96647 79.1553187,24.5832975 79.2406548,22.2373882 L79.2406548,3.78087019 C79.2406548,2.17224664 77.7838458,0.709861593 76.1807464,0.709861593 L57.8212963,0.709861593 C57.5043336,0.655022153 57.1812756,0.655022153 56.864313,0.709861593 Z" id="path25517" fill="url(#linearGradient-2)"></path>
                    </g>
                    <polygon id="path25519" fill="url(#linearGradient-3)" points="4.57172482 5.59030638 4.57172482 93.9769862 74.6707434 93.9769862 74.6707434 38.4533883 74.1945221 37.9733572 42.3829369 5.97128345 42.0019598 5.59030638"></polygon>
                    <polygon id="path25521" fill="url(#linearGradient-4)" points="7.61954136 8.63812292 39.7999124 8.63812292 71.621403 40.6401967 71.621403 90.9291697 7.61954136 90.9291697"></polygon>
                </g>
                <g id="g11472" transform="translate(14.478696, 37.272359)">
                    <path d="M0,0.274303489 L0,3.32212004 L48.7650647,3.32212004 L48.7650647,0.274303489 L0,0.274303489 Z M0,6.36993658 L0,9.41775313 L48.7650647,9.41775313 L48.7650647,6.36993658 L0,6.36993658 Z M0,12.4655697 L0,15.5133862 L28.4285088,15.5133862 C30.4324482,14.5457045 32.6725934,13.9894779 35.0498903,13.9894779 C37.4271872,13.9894779 39.6673323,14.5457045 41.6712717,15.5133862 L48.7650647,15.5133862 L48.7650647,12.4655697 L0,12.4655697 Z M0,18.5612028 L0,21.6090193 L21.8604642,21.6090193 C22.5005057,20.5041858 23.2776989,19.4755477 24.1691852,18.5612028 L0,18.5612028 Z M45.9305953,18.5612028 C46.8220817,19.4755477 47.5992749,20.5041858 48.2393164,21.6090193 L48.7650647,21.6090193 L48.7650647,18.5612028 L45.9305953,18.5612028 Z M0,24.6568359 L0,27.7046524 L19.8793834,27.7046524 C19.986057,26.6531557 20.2146432,25.6321372 20.5270444,24.6568359 L0,24.6568359 Z M0,30.7524689 L0,33.8002855 L20.5270444,33.8002855 C20.2146432,32.8249842 19.986057,31.8039657 19.8793834,30.7524689 L0,30.7524689 Z M0,36.848102 L0,39.8959186 L24.1691852,39.8959186 C23.2776989,38.9891932 22.5005057,37.9605551 21.8604642,36.848102 L0,36.848102 Z" id="rect7807" fill="url(#linearGradient-5)" fill-rule="nonzero"></path>
                    <g id="path8828" transform="translate(20.992484, 15.173478)">
                        <g id="Clipped">
                            <mask id="mask-7" fill="white">
                                <use xlink:href="#path-6"></use>
                            </mask>
                            <g id="Path"></g>
                            <path d="M27.319637,14.0615779 C27.319637,21.3840441 21.3816335,27.319637 14.0615779,27.319637 C6.74152218,27.319637 0.803518735,21.3840441 0.803518735,14.0615779 C0.803518735,6.73911163 6.74152218,0.803518735 14.0615779,0.803518735 C21.3816335,0.803518735 27.319637,6.73911163 27.319637,14.0615779 Z" id="Path" stroke="#023F62" stroke-width="0.763342798" fill="url(#radialGradient-8)" fill-rule="nonzero" mask="url(#mask-7)"></path>
                        </g>
                    </g>
                    <g id="path8842" transform="translate(21.334716, 15.184222)">
                        <g id="Clipped">
                            <mask id="mask-10" fill="white">
                                <use xlink:href="#path-9"></use>
                            </mask>
                            <g id="Path"></g>
                            <path d="M17.5371364,0.420598683 C3.07219908,5.52264358 2.73389144,19.4572608 6.19925885,25.5925155" id="Path" stroke="url(#linearGradient-11)" stroke-width="0.75890632" stroke-linecap="round" mask="url(#mask-10)"></path>
                        </g>
                    </g>
                    <g id="path8858" transform="translate(21.570922, 14.422268)">
                        <g id="Clipped">
                            <mask id="mask-13" fill="white">
                                <use xlink:href="#path-12"></use>
                            </mask>
                            <g id="Path"></g>
                            <path d="M26.9457461,10.615545 C12.7185384,1.75554233 -0.731475971,9.54576142 -4.30656478,15.9278893" id="Path" stroke="url(#linearGradient-14)" stroke-width="0.75890632" stroke-linecap="round" mask="url(#mask-13)"></path>
                        </g>
                    </g>
                    <g id="path8860" transform="translate(21.334716, 15.184222)">
                        <g id="Clipped">
                            <mask id="mask-16" fill="white">
                                <use xlink:href="#path-15"></use>
                            </mask>
                            <g id="Path"></g>
                            <path d="M15.7450203,28.0612469 C13.8797566,16.4033487 3.31907222,14.2272076 -1.81954648,16.0010369" id="Path" stroke="url(#linearGradient-17)" stroke-width="0.75890632" stroke-linecap="round" mask="url(#mask-16)"></path>
                        </g>
                    </g>
                    <g id="path8862" transform="translate(21.334716, 15.184222)">
                        <g id="Clipped">
                            <mask id="mask-19" fill="white">
                                <use xlink:href="#path-18"></use>
                            </mask>
                            <g id="Path"></g>
                            <path d="M12.5813867,-0.0822910467 C26.6988729,5.92495537 26.150266,19.8504292 22.3100171,25.7570976" id="Path" stroke="url(#linearGradient-20)" stroke-width="0.75890632" stroke-linecap="round" mask="url(#mask-19)"></path>
                        </g>
                    </g>
                    <g id="path8864" transform="translate(21.334716, 15.184222)">
                        <g id="Clipped">
                            <mask id="mask-22" fill="white">
                                <use xlink:href="#path-21"></use>
                            </mask>
                            <g id="Path"></g>
                            <path d="M21.4048156,29.0395961 C22.9134848,10.533254 9.16173654,4.58086827 1.46295194,6.07125056" id="Path" stroke="url(#linearGradient-23)" stroke-width="0.75890632" stroke-linecap="round" mask="url(#mask-22)"></path>
                        </g>
                    </g>
                    <g id="path8866" transform="translate(21.334716, 15.184222)">
                        <g id="Clipped">
                            <mask id="mask-25" fill="white">
                                <use xlink:href="#path-24"></use>
                            </mask>
                            <g id="Path"></g>
                            <path d="M32.9255621,21.0756514 C18.4149076,16.1107583 9.50918762,26.8360247 8.43026057,33.7941899" id="Path" stroke="url(#linearGradient-26)" stroke-width="0.75890632" stroke-linecap="round" mask="url(#mask-25)"></path>
                        </g>
                    </g>
                    <g id="path8868" transform="translate(21.334716, 15.184222)">
                        <g id="Clipped">
                            <mask id="mask-28" fill="white">
                                <use xlink:href="#path-27"></use>
                            </mask>
                            <g id="Path"></g>
                            <path d="M34.0319196,18.4149076 C21.1030818,10.1492291 9.91149941,18.4606248 7.21418176,24.970761" id="Path" stroke="url(#linearGradient-29)" stroke-width="0.75890632" stroke-linecap="round" mask="url(#mask-28)"></path>
                        </g>
                    </g>
                    <g id="path8911" transform="translate(21.334716, 15.184222)">
                        <g id="Clipped">
                            <mask id="mask-31" fill="white">
                                <use xlink:href="#path-30"></use>
                            </mask>
                            <g id="Path"></g>
                            <path d="M26.9914633,7.14103417 C11.6578983,6.57414029 6.23583265,19.4115436 7.20503831,26.3879957" id="Path" stroke="url(#linearGradient-32)" stroke-width="0.75890632" stroke-linecap="round" mask="url(#mask-31)"></path>
                        </g>
                    </g>
                    <g id="path8931" transform="translate(25.452963, 17.976045)">
                        <g id="Clipped">
                            <mask id="mask-34" fill="white">
                                <use xlink:href="#path-33"></use>
                            </mask>
                            <g id="Path"></g>
                            <path d="M13.8918151,7.34273295 C13.8918151,8.96400839 12.5799135,10.2798261 10.9547219,10.2798261 C9.32953037,10.2798261 8.01762875,8.96400839 8.01762875,7.34273295 C8.01762875,5.72145752 9.32953037,4.40563977 10.9547219,4.40563977 C12.5799135,4.40563977 13.8918151,5.72145752 13.8918151,7.34273295 Z" id="Path" fill="url(#radialGradient-35)" fill-rule="nonzero" mask="url(#mask-34)"></path>
                        </g>
                    </g>
                    <g id="path9944" transform="translate(25.742506, 9.305007)">
                        <g id="Clipped">
                            <mask id="mask-37" fill="white">
                                <use xlink:href="#path-36"></use>
                            </mask>
                            <g id="Path"></g>
                            <path d="M13.8918151,7.34273295 C13.8918151,8.96400839 12.5799135,10.2798261 10.9547219,10.2798261 C9.32953037,10.2798261 8.01762875,8.96400839 8.01762875,7.34273295 C8.01762875,5.72145752 9.32953037,4.40563977 10.9547219,4.40563977 C12.5799135,4.40563977 13.8918151,5.72145752 13.8918151,7.34273295 Z" id="Path" fill="url(#radialGradient-35)" fill-rule="nonzero" mask="url(#mask-37)"></path>
                        </g>
                    </g>
                    <g id="path9948" transform="translate(18.785864, 14.402480)">
                        <g id="Clipped">
                            <mask id="mask-39" fill="white">
                                <use xlink:href="#path-38"></use>
                            </mask>
                            <g id="Path"></g>
                            <path d="M13.8918151,7.34273295 C13.8918151,8.96400839 12.5799135,10.2798261 10.9547219,10.2798261 C9.32953037,10.2798261 8.01762875,8.96400839 8.01762875,7.34273295 C8.01762875,5.72145752 9.32953037,4.40563977 10.9547219,4.40563977 C12.5799135,4.40563977 13.8918151,5.72145752 13.8918151,7.34273295 Z" id="Path" fill="url(#radialGradient-35)" fill-rule="nonzero" mask="url(#mask-39)"></path>
                        </g>
                    </g>
                    <g id="path9952" transform="translate(14.930376, 23.500212)">
                        <g id="Clipped">
                            <mask id="mask-41" fill="white">
                                <use xlink:href="#path-40"></use>
                            </mask>
                            <g id="Path"></g>
                            <path d="M13.8918151,7.34273295 C13.8918151,8.96400839 12.5799135,10.2798261 10.9547219,10.2798261 C9.32953037,10.2798261 8.01762875,8.96400839 8.01762875,7.34273295 C8.01762875,5.72145752 9.32953037,4.40563977 10.9547219,4.40563977 C12.5799135,4.40563977 13.8918151,5.72145752 13.8918151,7.34273295 Z" id="Path" fill="url(#radialGradient-35)" fill-rule="nonzero" mask="url(#mask-41)"></path>
                        </g>
                    </g>
                    <g id="path9956" transform="translate(22.267995, 27.020440)">
                        <g id="Clipped">
                            <mask id="mask-43" fill="white">
                                <use xlink:href="#path-42"></use>
                            </mask>
                            <g id="Path"></g>
                            <path d="M13.8918151,7.34273295 C13.8918151,8.96400839 12.5799135,10.2798261 10.9547219,10.2798261 C9.32953037,10.2798261 8.01762875,8.96400839 8.01762875,7.34273295 C8.01762875,5.72145752 9.32953037,4.40563977 10.9547219,4.40563977 C12.5799135,4.40563977 13.8918151,5.72145752 13.8918151,7.34273295 Z" id="Path" fill="url(#radialGradient-35)" fill-rule="nonzero" mask="url(#mask-43)"></path>
                        </g>
                    </g>
                    <g id="path9960" transform="translate(25.071986, 31.691219)">
                        <g id="Clipped">
                            <mask id="mask-45" fill="white">
                                <use xlink:href="#path-44"></use>
                            </mask>
                            <g id="Path"></g>
                            <path d="M13.8918151,7.34273295 C13.8918151,8.96400839 12.5799135,10.2798261 10.9547219,10.2798261 C9.32953037,10.2798261 8.01762875,8.96400839 8.01762875,7.34273295 C8.01762875,5.72145752 9.32953037,4.40563977 10.9547219,4.40563977 C12.5799135,4.40563977 13.8918151,5.72145752 13.8918151,7.34273295 Z" id="Path" fill="url(#radialGradient-35)" fill-rule="nonzero" mask="url(#mask-45)"></path>
                        </g>
                    </g>
                    <g id="path9964" transform="translate(31.548596, 28.498631)">
                        <g id="Clipped">
                            <mask id="mask-47" fill="white">
                                <use xlink:href="#path-46"></use>
                            </mask>
                            <g id="Path"></g>
                            <path d="M13.8918151,7.34273295 C13.8918151,8.96400839 12.5799135,10.2798261 10.9547219,10.2798261 C9.32953037,10.2798261 8.01762875,8.96400839 8.01762875,7.34273295 C8.01762875,5.72145752 9.32953037,4.40563977 10.9547219,4.40563977 C12.5799135,4.40563977 13.8918151,5.72145752 13.8918151,7.34273295 Z" id="Path" fill="url(#radialGradient-35)" fill-rule="nonzero" mask="url(#mask-47)"></path>
                        </g>
                    </g>
                    <g id="path9968" transform="translate(32.264833, 15.690182)">
                        <g id="Clipped">
                            <mask id="mask-49" fill="white">
                                <use xlink:href="#path-48"></use>
                            </mask>
                            <g id="Path"></g>
                            <path d="M13.8918151,7.34273295 C13.8918151,8.96400839 12.5799135,10.2798261 10.9547219,10.2798261 C9.32953037,10.2798261 8.01762875,8.96400839 8.01762875,7.34273295 C8.01762875,5.72145752 9.32953037,4.40563977 10.9547219,4.40563977 C12.5799135,4.40563977 13.8918151,5.72145752 13.8918151,7.34273295 Z" id="Path" fill="url(#radialGradient-35)" fill-rule="nonzero" mask="url(#mask-49)"></path>
                        </g>
                    </g>
                    <g id="path9972" transform="translate(34.931672, 22.829693)">
                        <g id="Clipped">
                            <mask id="mask-51" fill="white">
                                <use xlink:href="#path-50"></use>
                            </mask>
                            <g id="Path"></g>
                            <path d="M13.8918151,7.34273295 C13.8918151,8.96400839 12.5799135,10.2798261 10.9547219,10.2798261 C9.32953037,10.2798261 8.01762875,8.96400839 8.01762875,7.34273295 C8.01762875,5.72145752 9.32953037,4.40563977 10.9547219,4.40563977 C12.5799135,4.40563977 13.8918151,5.72145752 13.8918151,7.34273295 Z" id="Path" fill="url(#radialGradient-35)" fill-rule="nonzero" mask="url(#mask-51)"></path>
                        </g>
                    </g>
                </g>
            </g>
        </g>
    </g>
</svg>