<?xml version="1.0" encoding="UTF-8"?>
<svg width="100px" height="100px" viewBox="0 0 100 100" version="1.1" xmlns="http://www.w3.org/2000/svg" xmlns:xlink="http://www.w3.org/1999/xlink">
    <!-- Generator: sketchtool 63.1 (101010) - https://sketch.com -->
    <title>libreoffice/file_libreoffice_doc_text</title>
    <desc>Created with sketchtool.</desc>
    <defs>
        <linearGradient x1="80.8990446%" y1="0.0531034267%" x2="80.8990446%" y2="100.264268%" id="linearGradient-1">
            <stop stop-color="#0369A3" offset="0%"></stop>
            <stop stop-color="#023F62" offset="100%"></stop>
        </linearGradient>
        <linearGradient x1="-252.214072%" y1="-1.75562323%" x2="-252.214072%" y2="403.839575%" id="linearGradient-2">
            <stop stop-color="#0369A3" offset="0%"></stop>
            <stop stop-color="#023F62" offset="100%"></stop>
        </linearGradient>
        <linearGradient x1="25.3870541%" y1="94.7758621%" x2="25.7977261%" y2="1.92327586%" id="linearGradient-3">
            <stop stop-color="#B3B3B3" offset="0%"></stop>
            <stop stop-color="#E6E6E6" offset="100%"></stop>
        </linearGradient>
        <linearGradient x1="2.6786671%" y1="61.712963%" x2="2.6786671%" y2="1.85425926%" id="linearGradient-4">
            <stop stop-color="#FFFFFF" stop-opacity="0.59" offset="0%"></stop>
            <stop stop-color="#FFFFFF" stop-opacity="0.86" offset="100%"></stop>
        </linearGradient>
        <linearGradient x1="0%" y1="-203.125%" x2="0%" y2="1100%" id="linearGradient-5">
            <stop stop-color="#0369A3" offset="0%"></stop>
            <stop stop-color="#023F62" offset="100%"></stop>
        </linearGradient>
        <linearGradient x1="0%" y1="-3.125%" x2="0%" y2="1300%" id="linearGradient-6">
            <stop stop-color="#0369A3" offset="0%"></stop>
            <stop stop-color="#023F62" offset="100%"></stop>
        </linearGradient>
        <linearGradient x1="0%" y1="-803.125%" x2="0%" y2="500%" id="linearGradient-7">
            <stop stop-color="#0369A3" offset="0%"></stop>
            <stop stop-color="#023F62" offset="100%"></stop>
        </linearGradient>
        <linearGradient x1="0%" y1="-403.125%" x2="0%" y2="900%" id="linearGradient-8">
            <stop stop-color="#0369A3" offset="0%"></stop>
            <stop stop-color="#023F62" offset="100%"></stop>
        </linearGradient>
        <linearGradient x1="0%" y1="-1003.125%" x2="0%" y2="300%" id="linearGradient-9">
            <stop stop-color="#0369A3" offset="0%"></stop>
            <stop stop-color="#023F62" offset="100%"></stop>
        </linearGradient>
        <linearGradient x1="0%" y1="-1203.125%" x2="0%" y2="100%" id="linearGradient-10">
            <stop stop-color="#0369A3" offset="0%"></stop>
            <stop stop-color="#023F62" offset="100%"></stop>
        </linearGradient>
        <linearGradient x1="0%" y1="-603.125%" x2="0%" y2="700%" id="linearGradient-11">
            <stop stop-color="#0369A3" offset="0%"></stop>
            <stop stop-color="#023F62" offset="100%"></stop>
        </linearGradient>
        <linearGradient x1="-78.1232886%" y1="0.521428571%" x2="-78.1232886%" y2="232.828571%" id="linearGradient-12">
            <stop stop-color="#0369A3" offset="0%"></stop>
            <stop stop-color="#023F62" offset="100%"></stop>
        </linearGradient>
        <linearGradient x1="100%" y1="0%" x2="100%" y2="50%" id="linearGradient-13">
            <stop stop-color="#63BBEE" offset="0%"></stop>
            <stop stop-color="#AADCF7" offset="100%"></stop>
        </linearGradient>
        <linearGradient x1="100%" y1="-70.0068575%" x2="100%" y2="90.0025716%" id="linearGradient-14">
            <stop stop-color="#666666" offset="0%"></stop>
            <stop stop-color="#333333" offset="100%"></stop>
        </linearGradient>
        <linearGradient x1="0%" y1="-23.0845312%" x2="0%" y2="99.9980219%" id="linearGradient-15">
            <stop stop-color="#666666" offset="0%"></stop>
            <stop stop-color="#333333" offset="100%"></stop>
        </linearGradient>
        <linearGradient x1="57.2926488%" y1="99.4860529%" x2="57.2926488%" y2="1.54444758%" id="linearGradient-16">
            <stop stop-color="#18A303" offset="0%"></stop>
            <stop stop-color="#106802" offset="100%"></stop>
        </linearGradient>
        <linearGradient x1="0%" y1="-233.333333%" x2="0%" y2="122.222857%" id="linearGradient-17">
            <stop stop-color="#0369A3" offset="0%"></stop>
            <stop stop-color="#023F62" offset="100%"></stop>
        </linearGradient>
    </defs>
    <g id="Icons" stroke="none" stroke-width="1" fill="none" fill-rule="evenodd">
        <g id="libreoffice/file_libreoffice_doc_text">
            <g id="Group" transform="translate(11.000000, 0.000000)">
                <g id="g5632" fill-rule="nonzero">
                    <path d="M3.46022887,0.69240965 C0.640327051,1.23403304 -0.049255927,2.44037604 -1.30104261e-18,5.30851807 L-1.30104261e-18,94.5655904 C-1.30104261e-18,97.7907115 1.39147994,99.1816989 4.61774315,99.1816989 L75.4231382,99.1816989 C78.6494014,99.1816989 80.0408813,97.7907115 80.0408813,94.5655904 L80.0408813,39.2892308 C80.0778233,37.6643607 79.4374962,36.0333357 78.3107669,34.8639216 L45.857268,2.42806642 C44.6935967,1.29558115 43.0619942,0.655480783 41.4365486,0.69240965 L4.61774315,0.69240965 C4.23600972,0.655480783 3.8481193,0.655480783 3.46022887,0.69240965 Z" id="path5634" fill="url(#linearGradient-1)"></path>
                    <path d="M57.4385679,0.717028895 C55.3944469,1.36943888 54.7048639,4.48992818 56.2810536,5.95477325 L74.8259101,24.5976964 C76.5375535,26.2287214 79.9546835,24.8315793 80.0408813,22.4619769 L80.0408813,3.81905375 C80.0408813,2.19418359 78.5693605,0.717028895 76.9500719,0.717028895 L58.4052154,0.717028895 C58.0850519,0.661635594 57.7587314,0.661635594 57.4385679,0.717028895 Z" id="path5636" fill="url(#linearGradient-2)"></path>
                </g>
                <g id="path5638" transform="translate(4.616029, 5.001321)" fill="url(#linearGradient-3)" fill-rule="nonzero">
                    <polygon id="Path" points="0 0.32325327 0 89.6027278 70.8070895 89.6027278 70.8070895 33.5182855 70.3260578 33.0334056 38.1931435 0.708078591 37.8083182 0.32325327"></polygon>
                </g>
                <g id="path5640" transform="translate(7.694632, 8.079923)" fill="url(#linearGradient-4)" fill-rule="nonzero">
                    <polygon id="Path" points="0 0.32325327 32.5054253 0.32325327 64.6483451 32.6485803 64.6483451 83.4455227 0 83.4455227"></polygon>
                </g>
                <g id="g5655" transform="translate(14.620955, 37.326114)">
                    <rect id="rect5657" fill="url(#linearGradient-5)" x="0" y="6.43581868" width="13.8537116" height="3.07860257"></rect>
                    <rect id="rect5659" fill="url(#linearGradient-6)" x="0" y="0.278613533" width="13.8537116" height="3.07860257"></rect>
                    <rect id="rect5661" fill="url(#linearGradient-7)" x="0" y="24.9074341" width="49.2576411" height="3.07860257"></rect>
                    <rect id="rect5663" fill="url(#linearGradient-8)" x="0" y="12.5930238" width="13.8537116" height="3.07860257"></rect>
                    <rect id="rect5665" fill="url(#linearGradient-9)" x="0" y="31.0646392" width="49.2576411" height="3.07860257"></rect>
                    <rect id="rect5667" fill="url(#linearGradient-10)" x="0" y="37.2218444" width="32.325327" height="3.07860257"></rect>
                    <rect id="rect5669" fill="url(#linearGradient-11)" x="0" y="18.750229" width="13.8537116" height="3.07860257"></rect>
                </g>
                <g id="g5671" transform="translate(31.553270, 37.326114)">
                    <rect id="rect5673" fill="url(#linearGradient-12)" x="-0.000769650643" y="0.278613533" width="32.3245574" height="21.550218"></rect>
                    <rect id="rect5675" fill="url(#linearGradient-13)" x="2.69377725" y="2.97239078" width="26.9377725" height="16.1626635"></rect>
                    <path d="M22.4484003,7.46253263 C24.2439953,8.35994528 27.3649286,11.4870358 29.6307801,13.7474998 L29.6307801,16.441277 L8.9787444,16.441277 C12.570704,11.9519048 17.9582585,9.25812758 22.4484003,7.46253263 Z" id="path5677" fill="url(#linearGradient-14)" fill-rule="nonzero"></path>
                    <polygon id="path5679" fill="#333333" fill-rule="nonzero" points="15.8540336 12.6815336 16.0110423 11.4131494 18.3692519 10.4041374 19.69536 9.16499986 22.0274014 8.21986887 21.4186077 9.75147365 20.5096503 11.3438808 19.9685859 13.0748251 19.5945357 14.0722924"></polygon>
                    <path d="M16.6113698,11.5031985 C13.9237498,9.27275095 12.570704,7.46253263 10.775109,4.76875538 C10.2502073,4.92730342 10.2702182,4.86650102 9.8769267,4.76875538 C9.8769267,4.76875538 7.47484704,8.33762541 6.2857368,10.1563099 C5.09662656,11.9742247 2.6930076,14.6456821 2.6930076,14.6456821 L2.6930076,16.441277 L23.3450433,16.441277 C23.3450433,16.441277 18.4115827,12.8777946 16.6113698,11.5031985 Z" id="path5681" fill="url(#linearGradient-15)" fill-rule="nonzero"></path>
                    <path d="M29.6315498,14.6456821 L28.4739952,14.6456821 L23.345813,15.5438644 C23.345813,15.5438644 18.2784331,14.1969758 17.516479,14.1969758 C16.7676089,14.1969758 14.3670686,14.6456821 13.9175926,14.6456821 C13.6028055,14.6456821 11.6732913,13.7474998 11.2168885,13.7474998 C10.4641701,13.7474998 9.59600422,14.7018666 7.35170294,15.0943884 C7.35170294,15.0943884 6.7067357,13.6636079 6.2857368,13.7474998 C3.59195955,14.7857585 2.6930076,14.6456821 2.6930076,14.6456821 L2.6930076,19.1350543 L29.6307801,19.1350543 L29.6315498,14.6456821 L29.6315498,14.6456821 Z" id="path5683" fill="url(#linearGradient-16)" fill-rule="nonzero"></path>
                    <polygon id="path5685" fill="url(#linearGradient-17)" fill-rule="nonzero" points="2.69377725 15.5438644 2.6930076 19.1350543 26.0395902 19.1350543 26.9377725 18.2376416 26.0395902 17.3394593 24.2439953 16.441277 19.7546231 15.5438644 15.2644812 15.0943884 11.2238153 15.5438644"></polygon>
                    <path d="M4.4893722,13.7474998 L5.76930122,11.6940719 L7.28551299,9.89924657 L8.44306755,7.79040381 L9.8769267,5.66616803 L8.90408829,8.34840052 L8.19139179,10.5588372 L7.8465883,11.9526745 L7.20316037,13.4373306 C6.94455775,13.2487662 6.61668658,13.2418393 6.32191038,13.145633 L5.47914293,13.4765828 L4.4893722,13.7474998 Z" id="path5687" fill="#333333" fill-rule="nonzero"></path>
                    <path d="M17.0608458,13.7474998 L15.7532094,11.766419 L13.4350216,9.23811667 L11.5162826,6.71597151 L10.775109,5.66616803 L11.5786243,8.39150096 L12.4598743,10.0262389 L13.2418393,12.5229856 L13.4688863,13.7474998 L14.2762498,14.0184168 L15.5099998,13.7321068 C16.0279746,13.6813098 16.5459495,13.7413426 17.0608458,13.7474998 L17.0608458,13.7474998 Z" id="path5689" fill="#808080" fill-rule="nonzero"></path>
                    <polygon id="path5691" fill="#666666" fill-rule="nonzero" points="7.78347695 13.7875216 8.74938851 11.3492684 9.2204147 8.83251078 9.90078587 7.27858613 10.3264027 5.66616803 10.9167247 7.32553482 11.0837389 8.90947584 11.7979747 10.3210151 12.5052836 11.942669 12.6376636 13.0879092 11.449323 13.4211679 10.3202455 12.9809277 9.07187213 13.7913699 7.78347695 13.7913699"></polygon>
                    <polygon id="path5693" fill="#808080" fill-rule="nonzero" points="19.3567137 14.1985151 17.7843174 13.0648197 16.7799233 12.2628437 17.7550707 13.7836734"></polygon>
                    <g id="path5695" transform="translate(26.889190, 5.872293) rotate(90.000000) translate(-26.889190, -5.872293) translate(23.858887, 2.336939)" fill="#C99C00" fill-opacity="0.5" fill-rule="nonzero">
                        <path d="M5.52071925,0.793046252 C5.52071925,3.76984305 3.1084235,6.18346208 0.133542874,6.18346208 L0.133542874,0.793046252 L5.52071925,0.793046252 Z" id="Path"></path>
                    </g>
                    <g id="path5697" transform="translate(27.263485, 5.386097) rotate(90.000000) translate(-27.263485, -5.386097) translate(24.738232, 2.355794)" fill="#E9B913" fill-opacity="0.5" fill-rule="nonzero">
                        <path d="M4.60059838,0.660870992 C4.60059838,3.14153167 2.59035235,5.15287817 0.111285704,5.15287817 L0.111285704,0.660870992 L4.60059838,0.660870992 Z" id="Path"></path>
                    </g>
                    <polygon id="path5699" fill="#666666" fill-rule="nonzero" points="20.6751252 13.1171559 21.2300433 11.3300271 21.9111842 9.77610247 22.3360313 8.16368437 22.9263534 9.8222815 23.6829199 11.2384387 24.2286022 12.649978 24.1508675 14.1592629 24.9005073 14.9119812 23.3573577 14.8280893 20.2425816 14.1838917"></polygon>
                    <path d="M17.0608458,13.7474998 L15.7532094,11.766419 L13.4350216,9.23811667 L11.5162826,6.71597151 L10.775109,5.66616803 L11.5786243,8.39150096 L12.4598743,10.0262389 L13.2418393,12.5229856 L13.4688863,13.7474998 L14.2762498,14.0184168 L15.5099998,13.7321068 C16.0279746,13.6813098 16.5459495,13.7413426 17.0608458,13.7474998 L17.0608458,13.7474998 Z" id="path5701" fill="#808080" fill-rule="nonzero"></path>
                    <polygon id="path5703" fill="#808080" fill-rule="nonzero" points="29.2667353 14.1123142 28.212314 13.4781221 26.7353544 11.4547105 24.5649396 9.57830225 22.8693992 8.16368437 23.1957311 9.34586776 24.6942409 11.7094649 24.8589461 13.8413972 25.7594374 14.5333131 27.7797703 14.1407913"></polygon>
                    <polygon id="path5705" fill="#0369A3" fill-rule="nonzero" points="3.59195955 16.441277 2.69377725 19.1350543 25.1421776 19.1350543 25.1421776 18.2376416 24.2439953 17.3394593 19.7546231 16.441277 15.2644812 15.9925707 10.775109 16.441277 5.91630449 16.5751962"></polygon>
                    <polygon id="path5707" fill-opacity="0.5" fill="#1C99E0" fill-rule="nonzero" points="12.570704 18.2376416 13.4688863 17.3394593 17.0608458 17.3394593 19.7546231 18.2376416 20.6520357 19.1350543 18.8564408 19.1350543"></polygon>
                </g>
            </g>
        </g>
    </g>
</svg>