<?xml version="1.0" encoding="UTF-8"?>
<svg width="100px" height="100px" viewBox="0 0 100 100" version="1.1" xmlns="http://www.w3.org/2000/svg" xmlns:xlink="http://www.w3.org/1999/xlink">
    <!-- Generator: sketchtool 63.1 (101010) - https://sketch.com -->
    <title>libreoffice/math</title>
    <desc>Created with sketchtool.</desc>
    <defs>
        <linearGradient x1="79.2760473%" y1="0.0531034267%" x2="79.2760473%" y2="100.312373%" id="linearGradient-1">
            <stop stop-color="#666666" offset="0%"></stop>
            <stop stop-color="#333333" offset="100%"></stop>
        </linearGradient>
        <linearGradient x1="-252.214072%" y1="-1.75562323%" x2="-252.214072%" y2="403.839575%" id="linearGradient-2">
            <stop stop-color="#666666" offset="0%"></stop>
            <stop stop-color="#333333" offset="100%"></stop>
        </linearGradient>
        <linearGradient x1="25.3870541%" y1="94.7758621%" x2="25.7977261%" y2="1.92327586%" id="linearGradient-3">
            <stop stop-color="#B3B3B3" offset="0%"></stop>
            <stop stop-color="#E6E6E6" offset="100%"></stop>
        </linearGradient>
        <linearGradient x1="2.6786671%" y1="61.712963%" x2="2.6786671%" y2="1.85425926%" id="linearGradient-4">
            <stop stop-color="#FFFFFF" stop-opacity="0.59" offset="0%"></stop>
            <stop stop-color="#FFFFFF" stop-opacity="0.86" offset="100%"></stop>
        </linearGradient>
        <linearGradient x1="33.15625%" y1="100.047619%" x2="33.15625%" y2="0.0161904762%" id="linearGradient-5">
            <stop stop-color="#FFFFFF" stop-opacity="0.59" offset="0%"></stop>
            <stop stop-color="#FFFFFF" stop-opacity="0.86" offset="100%"></stop>
        </linearGradient>
        <linearGradient x1="0%" y1="100%" x2="0%" y2="0%" id="linearGradient-6">
            <stop stop-color="#FFFFFF" stop-opacity="0.59" offset="0%"></stop>
            <stop stop-color="#FFFFFF" stop-opacity="0.86" offset="100%"></stop>
        </linearGradient>
        <linearGradient x1="100%" y1="100%" x2="0%" y2="100%" id="linearGradient-7">
            <stop stop-color="#F09E6F" offset="0%"></stop>
            <stop stop-color="#F9CFB5" offset="100%"></stop>
        </linearGradient>
        <linearGradient x1="100%" y1="100%" x2="0%" y2="100%" id="linearGradient-8">
            <stop stop-color="#F09E6F" offset="0%"></stop>
            <stop stop-color="#F9CFB5" offset="100%"></stop>
        </linearGradient>
        <linearGradient x1="100%" y1="100%" x2="0.000666666665%" y2="100%" id="linearGradient-9">
            <stop stop-color="#F09E6F" offset="0%"></stop>
            <stop stop-color="#F9CFB5" offset="100%"></stop>
        </linearGradient>
        <linearGradient x1="100%" y1="100%" x2="-0.000666666665%" y2="100%" id="linearGradient-10">
            <stop stop-color="#F09E6F" offset="0%"></stop>
            <stop stop-color="#F9CFB5" offset="100%"></stop>
        </linearGradient>
        <linearGradient x1="48.0681818%" y1="-163.66454%" x2="48.0681818%" y2="222.009116%" id="linearGradient-11">
            <stop stop-color="#666666" offset="0%"></stop>
            <stop stop-color="#333333" offset="100%"></stop>
        </linearGradient>
        <linearGradient x1="-3.82978723%" y1="-278.304348%" x2="-3.82978723%" y2="275.056522%" id="linearGradient-12">
            <stop stop-color="#666666" offset="0%"></stop>
            <stop stop-color="#333333" offset="100%"></stop>
        </linearGradient>
    </defs>
    <g id="Icons" stroke="none" stroke-width="1" fill="none" fill-rule="evenodd">
        <g id="libreoffice/math">
            <g id="Group" transform="translate(10.000000, 0.000000)">
                <g id="use5178" transform="translate(-0.000000, 0.000000)" fill-rule="nonzero">
                    <g id="g25513" transform="translate(0.002393, 0.315754)">
                        <path d="M3.42563446,0.685488508 C0.633925238,1.22169636 -0.0487634799,2.41597748 -3.90312782e-18,5.25544178 L-3.90312782e-18,93.6200583 C-3.90312782e-18,96.8129323 1.37756831,98.1900116 4.57157624,98.1900116 L74.6690786,98.1900116 C77.8630865,98.1900116 79.2406548,96.8129323 79.2406548,93.6200583 L79.2406548,38.8963912 C79.2772274,37.2877676 78.6433022,35.6730508 77.5278376,34.5153293 L45.3987998,2.40379094 C44.2467625,1.28262907 42.6314723,0.648928882 41.0222774,0.685488508 L4.57157624,0.685488508 C4.19365927,0.648928882 3.80964686,0.648928882 3.42563446,0.685488508 Z" id="path25515" fill="url(#linearGradient-1)"></path>
                        <path d="M56.864313,0.709861593 C54.8406285,1.35574832 54.1579398,4.44503674 55.7183712,5.89523524 L74.0778214,24.3517532 C75.7723523,25.96647 79.1553187,24.5832975 79.2406548,22.2373882 L79.2406548,3.78087019 C79.2406548,2.17224664 77.7838458,0.709861593 76.1807464,0.709861593 L57.8212963,0.709861593 C57.5043336,0.655022153 57.1812756,0.655022153 56.864313,0.709861593 Z" id="path25517" fill="url(#linearGradient-2)"></path>
                    </g>
                    <polygon id="path25519" fill="url(#linearGradient-3)" points="4.57172482 5.59030638 4.57172482 93.9769862 74.6707434 93.9769862 74.6707434 38.4533883 74.1945221 37.9733572 42.3829369 5.97128345 42.0019598 5.59030638"></polygon>
                    <polygon id="path25521" fill="url(#linearGradient-4)" points="7.61954136 8.63812292 39.7999124 8.63812292 71.621403 40.6401967 71.621403 90.9291697 7.61954136 90.9291697"></polygon>
                </g>
                <g id="g10178" transform="translate(13.715582, 37.377204)">
                    <g id="use7849" transform="translate(0.766221, 32.031957)" fill="#808080">
                        <rect id="Rectangle" x="0" y="0.137152293" width="48.7651943" height="10.6674006"></rect>
                    </g>
                    <rect id="use7948" fill="url(#linearGradient-5)" x="0.761954136" y="0.166411418" width="48.7650647" height="32.0020737"></rect>
                    <rect id="use7851" fill="#CCCCCC" x="2.28586241" y="33.6923934" width="45.7172482" height="7.61954136"></rect>
                    <g id="use7954" transform="translate(2.285390, 33.579551)" fill="url(#linearGradient-6)">
                        <rect id="Rectangle" x="0" y="0.114292389" width="45.7173625" height="7.6194926"></rect>
                    </g>
                    <g id="text7855" transform="translate(12.191266, 34.179968)" fill="#000000">
                        <path d="M2.47635094,2.01155892 L2.47635094,2.59826361 C2.30872103,2.49920957 2.13347158,2.4306337 1.95822213,2.37729691 C1.78297268,2.32396012 1.60772323,2.30110149 1.43247378,2.30110149 C1.15817029,2.30110149 0.952442671,2.34681874 0.815290926,2.43825324 C0.685758723,2.52206819 0.617182851,2.65921994 0.617182851,2.83446939 C0.617182851,3.0020993 0.67051964,3.12401196 0.769573678,3.20020737 C0.868627716,3.28402233 1.12007258,3.36021774 1.51628873,3.43641316 L1.76011406,3.4821304 C2.05727617,3.53546719 2.27824287,3.64976031 2.4306337,3.82500977 C2.58302452,3.99263968 2.66683948,4.21360637 2.66683948,4.48029032 C2.66683948,4.84602831 2.53730727,5.12795134 2.27824287,5.33367896 C2.026798,5.53178703 1.66867956,5.63084107 1.21150708,5.63084107 C1.02863808,5.63084107 0.83814955,5.61560199 0.640041475,5.57750428 C0.441933399,5.53940657 0.228586241,5.48606978 0,5.40987437 L0,4.78507198 C0.2209667,4.8993651 0.441933399,4.99079959 0.640041475,5.04413638 C0.845769092,5.10509271 1.04387717,5.13557088 1.22674616,5.13557088 C1.48581057,5.13557088 1.69153818,5.08223409 1.83630947,4.97556051 C1.9887003,4.86126739 2.05727617,4.7164961 2.05727617,4.51838803 C2.05727617,4.24408454 1.79059222,4.04597646 1.25722433,3.93930289 L1.2343657,3.93168334 L1.00577946,3.8859661 C0.662900099,3.81739022 0.411455234,3.71071664 0.251444865,3.55070628 C0.0914344964,3.39069591 0.0152390827,3.16972921 0.0152390827,2.89542572 C0.0152390827,2.54492682 0.129532203,2.27062333 0.365737986,2.08775433 C0.609563309,1.8972658 0.944823129,1.79821176 1.38675653,1.79821176 C1.57724506,1.79821176 1.7677336,1.81345084 1.95060259,1.85154855 C2.12585204,1.88964626 2.30872103,1.94298305 2.47635094,2.01155892" id="path8801"></path>
                        <path d="M4.42695353,3.73357527 C4.42695353,4.19836729 4.50314895,4.54886619 4.64792023,4.78507198 C4.79269152,5.02127776 5.01365822,5.13557088 5.30320079,5.13557088 C5.59274336,5.13557088 5.81371006,5.02127776 5.95848135,4.78507198 C6.11087217,4.54124665 6.18706759,4.19074775 6.18706759,3.73357527 C6.18706759,3.26878325 6.11087217,2.91828434 5.95848135,2.68207856 C5.81371006,2.43825324 5.59274336,2.32396012 5.30320079,2.32396012 C5.01365822,2.32396012 4.79269152,2.43825324 4.64792023,2.67445902 C4.50314895,2.91828434 4.42695353,3.26878325 4.42695353,3.73357527 M6.18706759,5.08985363 C6.08801355,5.26510308 5.95086181,5.40987437 5.7832319,5.50130887 C5.62322153,5.6003629 5.42511345,5.64608015 5.21176629,5.64608015 C4.76983289,5.64608015 4.42695353,5.47845024 4.16788913,5.14319042 C3.91644426,4.8079306 3.7945316,4.33551904 3.7945316,3.74119481 C3.7945316,3.13925104 3.91644426,2.66683948 4.16788913,2.32396012 C4.42695353,1.98108075 4.76983289,1.81345084 5.21176629,1.81345084 C5.42511345,1.81345084 5.61560199,1.85916809 5.7832319,1.95822213 C5.95086181,2.04965663 6.08801355,2.18680837 6.18706759,2.36967736 L6.18706759,1.8972658 L6.78901136,1.8972658 L6.78901136,6.94140218 L6.18706759,6.94140218 L6.18706759,5.08985363" id="path8803"></path>
                        <path d="M11.0864327,2.71255673 C10.9569005,2.61350269 10.8273683,2.53730727 10.6902165,2.49159003 C10.5606843,2.44587278 10.415913,2.42301415 10.2559027,2.42301415 C9.88254515,2.42301415 9.59300258,2.54492682 9.3948945,2.7811326 C9.19678643,3.00971884 9.09773239,3.3525982 9.09773239,3.7945316 L9.09773239,5.61560199 L8.49578862,5.61560199 L8.49578862,1.95822213 L9.09773239,1.95822213 L9.09773239,2.67445902 C9.20440597,2.41539461 9.3567968,2.21728654 9.56252441,2.08013479 C9.76825203,1.94298305 10.0120774,1.87440718 10.3016199,1.87440718 C10.4463912,1.87440718 10.583543,1.88964626 10.7130752,1.92774397 C10.8426074,1.96584167 10.96452,2.01917846 11.0864327,2.10299342 L11.0864327,2.71255673" id="path8805"></path>
                        <path d="M13.62374,0.944823129 L13.62374,1.98108075 L14.9876379,1.98108075 L14.9876379,2.44587278 L13.62374,2.44587278 L13.62374,4.43457307 C13.62374,4.70125702 13.6770768,4.89174556 13.7761308,4.99841914 C13.8751848,5.10509271 14.0580538,5.1584295 14.3094987,5.1584295 L14.9876379,5.1584295 L14.9876379,5.63846061 L14.2485424,5.63846061 C13.7989894,5.63846061 13.4865882,5.54702611 13.2960997,5.36415712 C13.1132307,5.18890767 13.0217962,4.87650647 13.0217962,4.43457307 L13.0217962,2.44587278 L12.0464949,2.44587278 L12.0464949,1.98108075 L13.0217962,1.98108075 L13.0217962,0.944823129 L13.62374,0.944823129" id="path8807"></path>
                        <path d="M19.1783856,5.97372043 L19.1783856,6.43851245 L18.9650385,6.43851245 C18.424051,6.43851245 18.0659326,6.36231704 17.875444,6.19468713 C17.692575,6.03467676 17.6087601,5.71465602 17.6087601,5.23462492 L17.6087601,4.4574317 C17.6087601,4.12979142 17.5478038,3.90120518 17.4258911,3.77167298 C17.311598,3.64976031 17.1058704,3.58880398 16.8010887,3.58880398 L16.5953611,3.58880398 L16.5953611,3.11639242 L16.8010887,3.11639242 C17.1058704,3.11639242 17.3192175,3.05543609 17.4335106,2.93352343 C17.5478038,2.81161076 17.6087601,2.58302452 17.6087601,2.25538424 L17.6087601,1.47819102 C17.6087601,0.998159919 17.692575,0.678139181 17.875444,0.518128813 C18.0659326,0.358118444 18.424051,0.274303489 18.9650385,0.274303489 L19.1783856,0.274303489 L19.1783856,0.739095512 L18.9497994,0.739095512 C18.6450177,0.739095512 18.4469096,0.792432302 18.3554751,0.883866798 C18.2640407,0.982920836 18.2183234,1.18102891 18.2183234,1.48581057 L18.2183234,2.30110149 C18.2183234,2.63636131 18.1649866,2.88780618 18.0659326,3.040197 C17.9668785,3.19258783 17.7992486,3.29926141 17.5630428,3.3525982 C17.7992486,3.41355453 17.9668785,3.52022811 18.0659326,3.67261894 C18.1649866,3.82500977 18.2183234,4.07645463 18.2183234,4.41171445 L18.2183234,5.22700538 C18.2183234,5.53178703 18.2640407,5.73751465 18.3554751,5.82894914 C18.4469096,5.92038364 18.6450177,5.97372043 18.9497994,5.97372043 L19.1783856,5.97372043" id="path8809"></path>
                        <polyline id="path8811" points="23.2548402 1.88964626 21.9442791 3.63452123 23.3843724 5.53940657 22.6909942 5.53940657 21.6166389 4.07645463 20.5499031 5.53940657 19.8565248 5.53940657 21.2889986 3.63452123 19.986057 1.88964626 20.6489571 1.88964626 21.6166389 3.20782691 22.5767011 1.88964626 23.2548402 1.88964626"></polyline>
                        <path d="M24.2758588,5.97372043 L24.4968255,5.97372043 C24.8016071,5.97372043 25.0073348,5.92038364 25.0987693,5.82894914 C25.1902038,5.72989511 25.235921,5.53178703 25.235921,5.22700538 L25.235921,4.41171445 C25.235921,4.07645463 25.2892578,3.82500977 25.3806923,3.67261894 C25.4797463,3.52022811 25.6473762,3.41355453 25.8912016,3.3525982 C25.6549958,3.29926141 25.4873659,3.19258783 25.3806923,3.040197 C25.2892578,2.88780618 25.235921,2.63636131 25.235921,2.30110149 L25.235921,1.48581057 C25.235921,1.18102891 25.1902038,0.982920836 25.0987693,0.883866798 C25.0073348,0.792432302 24.8016071,0.739095512 24.4968255,0.739095512 L24.2758588,0.739095512 L24.2758588,0.274303489 L24.4739669,0.274303489 C25.0225738,0.274303489 25.3806923,0.358118444 25.5635613,0.518128813 C25.7464303,0.678139181 25.8378648,0.998159919 25.8378648,1.47819102 L25.8378648,2.25538424 C25.8378648,2.58302452 25.8988211,2.81161076 26.0131142,2.93352343 C26.1274073,3.05543609 26.3407545,3.11639242 26.6455362,3.11639242 L26.8512638,3.11639242 L26.8512638,3.58880398 L26.6455362,3.58880398 C26.3407545,3.58880398 26.1274073,3.64976031 26.0131142,3.77167298 C25.8988211,3.90120518 25.8378648,4.12979142 25.8378648,4.4574317 L25.8378648,5.23462492 C25.8378648,5.71465602 25.7464303,6.03467676 25.5635613,6.19468713 C25.3806923,6.36231704 25.0225738,6.43851245 24.4739669,6.43851245 L24.2758588,6.43851245 L24.2758588,5.97372043" id="path8813"></path>
                    </g>
                    <g id="g8155" transform="translate(4.540028, 3.701802)" fill="#F09E6F">
                        <rect id="rect7999" x="0.793650794" y="0.274303489" width="39.6216151" height="1"></rect>
                        <rect id="rect8004" x="0.793650794" y="24.6568359" width="39.6216151" height="1"></rect>
                        <g id="rect8007" transform="translate(1.055605, 13.000000) rotate(90.000000) translate(-1.055605, -13.000000) translate(-11.944395, 12.500000)">
                            <rect id="Rectangle" x="0.274303489" y="0" width="25.1444865" height="1"></rect>
                        </g>
                        <g id="rect8009" transform="translate(39.915266, 13.000000) rotate(90.000000) translate(-39.915266, -13.000000) translate(26.915266, 12.500000)">
                            <rect id="Rectangle" x="0.274303489" y="0" width="25.1444865" height="1"></rect>
                        </g>
                        <g id="rect8011" transform="translate(19.342504, 13.000000) rotate(90.000000) translate(-19.342504, -13.000000) translate(6.342504, 12.500000)">
                            <rect id="Rectangle" x="0.274303489" y="0" width="25.1444865" height="1"></rect>
                        </g>
                        <rect id="rect8013" x="0.793650794" y="7.89384485" width="39.6216151" height="1"></rect>
                    </g>
                    <rect id="rect8017" fill="url(#linearGradient-7)" x="2.28586241" y="3.9761821" width="3.04781655" height="1"></rect>
                    <g id="rect8019" transform="translate(5.595633, 2.992212) rotate(90.000000) translate(-5.595633, -2.992212) translate(4.095633, 2.492212)" fill="url(#linearGradient-8)">
                        <rect id="Rectangle" x="0.198108075" y="0" width="2.28586241" height="1"></rect>
                    </g>
                    <g id="rect8023" transform="translate(44.455294, 2.992212) rotate(90.000000) translate(-44.455294, -2.992212) translate(42.955294, 2.492212)" fill="url(#linearGradient-8)">
                        <rect id="Rectangle" x="0.198108075" y="0" width="2.28586241" height="1"></rect>
                    </g>
                    <g id="rect8025" transform="translate(45.741156, 4.301982) rotate(-180.000000) translate(-45.741156, -4.301982) translate(44.241156, 3.301982)" fill="url(#linearGradient-8)">
                        <rect id="Rectangle" x="0" y="0.563846061" width="2.28586241" height="1"></rect>
                    </g>
                    <g id="rect8029" transform="translate(46.003111, 28.684515) rotate(-180.000000) translate(-46.003111, -28.684515) translate(44.003111, 27.684515)" fill="url(#linearGradient-7)">
                        <rect id="Rectangle" x="0" y="0.563846061" width="3.04781655" height="1"></rect>
                    </g>
                    <g id="rect8031" transform="translate(44.693340, 30.470377) rotate(-90.000000) translate(-44.693340, -30.470377) translate(43.193340, 29.970377)" fill="url(#linearGradient-8)">
                        <rect id="Rectangle" x="0.563846061" y="0" width="2.28586241" height="1"></rect>
                    </g>
                    <g id="rect8035" transform="translate(5.833679, 30.470377) rotate(-90.000000) translate(-5.833679, -30.470377) translate(4.333679, 29.970377)" fill="url(#linearGradient-8)">
                        <rect id="Rectangle" x="0.563846061" y="0" width="2.28586241" height="1"></rect>
                    </g>
                    <rect id="rect8037" fill="url(#linearGradient-7)" x="2.28586241" y="28.3587145" width="3.04781655" height="1"></rect>
                    <rect id="rect8039" fill="url(#linearGradient-7)" x="2.28586241" y="11.5957235" width="3.04781655" height="1"></rect>
                    <g id="rect8041" transform="translate(46.003111, 11.897615) scale(-1, 1) translate(-46.003111, -11.897615) translate(44.003111, 11.397615)" fill="url(#linearGradient-7)">
                        <rect id="Rectangle" x="0" y="0.198108075" width="3.04781655" height="1"></rect>
                    </g>
                    <g id="rect8043" transform="translate(23.882532, 30.470377) scale(-1, 1) rotate(-90.000000) translate(-23.882532, -30.470377) translate(22.382532, 29.970377)" fill="url(#linearGradient-9)">
                        <rect id="Rectangle" x="0.563846061" y="0" width="2.28586241" height="1"></rect>
                    </g>
                    <g id="rect8045" transform="translate(24.120578, 2.992212) scale(-1, 1) rotate(90.000000) translate(-24.120578, -2.992212) translate(22.620578, 2.492212)" fill="url(#linearGradient-10)">
                        <rect id="Rectangle" x="0.198108075" y="0" width="2.28586241" height="1"></rect>
                    </g>
                    <g id="g7773" transform="translate(4.308047, 3.573410)" fill="url(#linearGradient-11)" fill-rule="nonzero">
                        <polyline id="path7775" points="17.8069761 0.405129084 40.6365858 0.405129084 40.6365858 4.97563527 38.3444563 4.97563527 38.3444563 3.4536613 19.6865223 3.4536613 10.3804766 25.5497895 9.05104149 25.5497895 3.32071779 13.3694134 1.12027348 14.5338152 0.295106869 11.6778219 4.87936583 9.92663495 9.69283775 19.2876918 17.7611335 0.405129084"></polyline>
                    </g>
                    <g id="g7777" transform="translate(25.449268, 11.321344)" fill="url(#linearGradient-12)" fill-rule="nonzero">
                        <polyline id="path7779" points="17.3573152 0.274303489 13.5780227 0.274303489 8.93010248 6.36993658 8.81580936 6.36993658 4.3278995 0.274303489 0.236205782 0.274303489 6.66709869 8.8234289 6.66709869 8.93010248 0 17.7992486 3.77929252 17.7992486 8.73961395 11.2007258 8.85390707 11.2007258 13.8142285 17.7992486 17.9059222 17.7992486 11.0864327 8.78533119 11.0864327 8.67865761 17.3573152 0.274303489"></polyline>
                    </g>
                </g>
            </g>
        </g>
    </g>
</svg>