<?xml version="1.0" encoding="UTF-8" standalone="no"?>
<svg xmlns:rdf="http://www.w3.org/1999/02/22-rdf-syntax-ns#" xmlns="http://www.w3.org/2000/svg" height="30.848" width="31.988" version="1.1" xmlns:cc="http://creativecommons.org/ns#" xmlns:xlink="http://www.w3.org/1999/xlink" viewBox="0 0 31.987725 30.847692" xmlns:dc="http://purl.org/dc/elements/1.1/">
<defs>
<radialGradient id="a" gradientUnits="userSpaceOnUse" cy="762.16" cx="-287.17" gradientTransform="matrix(.017037 .017161 -.016374 .039353 104.07 618.45)" r="27.027">
<stop stop-color="#f5cd03" offset="0"/>
<stop stop-color="#f8d21d" offset="1"/>
</radialGradient>
<radialGradient id="b" gradientUnits="userSpaceOnUse" cy="770.32" cx="-286.68" gradientTransform="matrix(.018845 .018983 -.018112 .04353 104.28 614.88)" r="27.027">
<stop stop-color="#f6cd03" offset="0"/>
<stop stop-color="#f8d21d" offset="1"/>
</radialGradient>
<radialGradient id="c" gradientUnits="userSpaceOnUse" cy="767.94" cx="-202.58" gradientTransform="matrix(.036128 .023821 -.034722 .054624 123.05 607.85)" r="27.027">
<stop stop-color="#f1d103" offset="0"/>
<stop stop-color="#f7cd03" offset="1"/>
</radialGradient>
</defs>
<metadata>
<rdf:RDF>
<cc:Work rdf:about="">
<dc:format>image/svg+xml</dc:format>
<dc:type rdf:resource="http://purl.org/dc/dcmitype/StillImage"/>
<dc:title/>
</cc:Work>
</rdf:RDF>
</metadata>
<g transform="translate(-155.08 -784.93)">
<g transform="matrix(-2.1136 .37782 .35796 2.1183 177.09 -599.53)">
<g transform="translate(28.123 -.28844)">
<g transform="matrix(1.0113,0,0,1.0113,23.302,-39.536)" stroke="#000">
<path stroke-width="4.6752" d="m-362.73 767.36a52.159 49.091 0 0 1 -52.159 49.091 52.159 49.091 0 0 1 -52.159 -49.091 52.159 49.091 0 0 1 52.159 -49.091 52.159 49.091 0 0 1 52.159 49.091z" transform="matrix(.04289 .031926 -.032053 .042811 99.579 652.88)"/>
<path fill-rule="evenodd" stroke-width=".5" d="m56.167 670.68c-1.049-1.9045-1.4988-3.9059-0.46333-3.7462 1.0516 0.29153-1.3592 0.44168 0.67427 3.5987"/>
<path fill-rule="evenodd" stroke-width=".5" d="m54.928 672.12c-2.9716 0.43229-3.0072 2.3559-2.3222 2.5977 1.1331 0.17562-1.2063-1.8103 2.2781-2.3855"/>
</g>
<path stroke-width="1.0113" d="m90.608 645.78c-0.86888 1.5835-3.5621 1.752-6.2076 0.36615-2.6455-1.3859-4.0874-3.7957-3.2185-5.3792 0.86888-1.5834 3.7211-1.7438 6.3666-0.35796 2.6455 1.3859 3.9283 3.7876 3.0594 5.371z" stroke="#000"/>
<path fill-rule="evenodd" fill="url(#a)" d="m85.676 646.51c0.08078-0.98487 0.28894-2.1144 0.77343-2.9906 0.46517-0.84129 1.0486-1.3583 1.9962-2.0915 0.29088 0.21263 0.53904 0.31427 0.87353 0.76197-1.0184 0.44313-1.5156 1.051-1.9199 1.8285-0.34452 0.66991-0.68711 2.0798-0.68282 2.7261-0.46246-0.0343-0.68615-0.0385-1.0405-0.23448z"/>
<path fill-rule="evenodd" fill="url(#b)" d="m84.385 645.71c-0.26154-0.17817-0.25435-0.10277-0.42771-0.2875 0.07504-1.0879 0.30065-1.94 0.63305-2.682 0.38565-0.77759 1.6807-1.6781 2.1926-1.9948 0.30438 0.2352 0.60771 0.23852 0.96589 0.53149-1.2223 0.70834-1.8906 1.5958-2.129 2.2297-0.39439 0.86524-0.57502 1.82-0.57028 2.5349-0.16837-0.0629-0.4527-0.20259-0.6645-0.33178z"/>
<path d="m82.823 644.37c-0.64034-0.82376-0.91288-1.7168-0.75359-2.4693 0.13878-0.65559 0.58126-1.1753 1.2556-1.4746 0.44624-0.19811 0.94145-0.29059 1.5372-0.28711 0.1377 0.0008 0.47255 0.0239 0.58013 0.04l0.6655 0.11542c-1.1457 0.70649-1.8267 1.3728-2.2221 2.0398-0.49024 0.82704-0.62422 1.4373-0.63534 2.5134-0.0016 0.00076-0.3828-0.42015-0.42736-0.47749z" fill-rule="evenodd" stroke="#f8d21d" stroke-width=".25283" fill="#f8d322"/>
<path d="m88 644.77c0.21971-0.56593 0.59689-1.2668 1.8752-1.9324 0.15118 0.20128 0.41828 0.65333 0.53982 0.97879 0.30341 0.87421 0.1821 1.6798-0.45212 2.2992-0.66414 0.54294-1.5282 0.58167-2.3475 0.63034 0.09722-1.0752 0.15959-1.3962 0.38461-1.9759z" fill-rule="evenodd" stroke="#f8d21d" stroke-width=".25283" fill="url(#c)"/>
</g>
<g fill-rule="evenodd" transform="matrix(.16116 -.0024084 .0024084 .16116 57.043 559.6)" stroke="#000" stroke-width="3" fill="#fff">
<g transform="translate(6.7042,-1.1174)">
<path d="m319.62 514.6c2.818 8.2957-7.1056 55.479-28.858 41.133-21.605-16.638 22.234-41.325 28.858-41.133z"/>
<path d="m319.71 514.39c6.0508 3.8944 23.521 36.841 2.0363 37.128-22.552-1.1741-6.4586-34.49-2.0363-37.128z"/>
</g>
<g transform="translate(1.1174,6.7042)">
<path d="m326.93 504.45c8.6473-1.409 45.639-32.333 22.757-44.797-24.837-11.257-26.038 39.04-22.757 44.797z"/>
<path d="m326.78 504.63c6.2803 3.5124 43.572 3.459 33.733-15.643-11.63-19.357-33.482 10.499-33.733 15.643z"/>
</g>
</g>
</g>
</g>
</svg>
