<?xml version="1.0" encoding="UTF-8" standalone="no"?>
<svg xmlns:rdf="http://www.w3.org/1999/02/22-rdf-syntax-ns#" xmlns="http://www.w3.org/2000/svg" height="32.039" width="21.188" version="1.1" xmlns:cc="http://creativecommons.org/ns#" xmlns:xlink="http://www.w3.org/1999/xlink" viewBox="0 0 21.187968 32.03852" xmlns:dc="http://purl.org/dc/elements/1.1/">
<defs>
<radialGradient id="a" gradientUnits="userSpaceOnUse" cy="441.74" cx="377.08" gradientTransform="matrix(-1.3526,-1.9915,1.9289,-1.3101,60.133,1659.1)" r="11.103">
<stop stop-color="#756e33" offset="0"/>
<stop stop-color="#fff" offset="1"/>
</radialGradient>
<radialGradient id="b" gradientUnits="userSpaceOnUse" cy="441.09" cx="376.61" gradientTransform="matrix(-2.0544,-2.46,2.309,-1.9283,118.35,2189.3)" r="11.103">
<stop stop-color="#756e33" offset="0"/>
<stop stop-color="#fff" stop-opacity="0" offset="1"/>
</radialGradient>
<radialGradient id="c" gradientUnits="userSpaceOnUse" cy="424.28" cx="370.16" gradientTransform="matrix(.733 2.3687 -2.0163 .62396 942.37 -745.91)" r="4.0723">
<stop stop-color="#b16620" offset="0"/>
<stop stop-color="#370000" offset="1"/>
</radialGradient>
<radialGradient id="d" gradientUnits="userSpaceOnUse" cy="413.13" cx="361.27" gradientTransform="matrix(1 .35143 -.32168 .91538 132.89 -92.001)" r="1.2865">
<stop stop-color="#fff" offset="0"/>
<stop stop-color="#fff" stop-opacity="0" offset="1"/>
</radialGradient>
</defs>
<metadata>
<rdf:RDF>
<cc:Work rdf:about="">
<dc:format>image/svg+xml</dc:format>
<dc:type rdf:resource="http://purl.org/dc/dcmitype/StillImage"/>
<dc:title/>
</cc:Work>
</rdf:RDF>
</metadata>
<g transform="translate(-386.46 -107.07)">
<g transform="translate(13.507,-207)">
<g transform="translate(-14.163,2.8582)">
<path stroke-linejoin="round" d="m397.05 325.56c-3.975 0.0839-6.4736 1.5188-7.5684 4.5262s0.56886 5.6392 0.5936 8.6071l-1.4098 0.5194c-0.87291 0.76423-1.2369 0.91517-0.89039 1.855 0.50622 0.99986 1.3242 1.4981 2.5228 1.7066h14.321c1.2193-0.17376 3.1504-1.2081 3.1906-1.9292 0.0402-0.72111 0.11329-1.1712-1.113-2.0776l-1.5582-0.74199c0.20893-2.8457 1.7406-5.6089 0-8.4588s-4.1128-4.0907-8.0878-4.0068z" stroke-opacity=".76129" fill-rule="evenodd" stroke="#353516" stroke-linecap="round" stroke-width=".95165px" fill="url(#a)"/>
<g transform="translate(38.366,-81.135)">
<path stroke-linejoin="round" d="m358.63 406.66c-3.975 0.0839-6.4736 1.5188-7.5684 4.5262s0.56886 5.6392 0.5936 8.6071l-1.4098 0.5194c-0.87291 0.76423-1.2369 0.91517-0.89039 1.855 0.50622 0.99986 1.3242 1.4981 2.5228 1.7066h14.321c1.2193-0.17376 3.1504-1.2081 3.1906-1.9292 0.0402-0.72111 0.11329-1.1712-1.113-2.0776l-1.5582-0.74199c0.20893-2.8457 1.7406-5.6089 0-8.4588s-4.1128-4.0907-8.0878-4.0068z" stroke-opacity=".76129" fill-rule="evenodd" stroke="#353516" stroke-linecap="round" stroke-width=".95165px" fill="url(#b)"/>
<path stroke-linejoin="round" d="m362.11 407.41c-1.5596 2.549-6.5662 1.078-6.2258 0l1.664-4.2121c-0.85754-2.3725-2.09-4.6631-1.664-7.6735 1.0691-2.6834 2.3784-2.3842 3.2072-2.4526 0.82882-0.0684 1.8374 0.0831 2.8702 1.9268 0.85155 4.2385-2.0285 5.6386-1.3609 8.8268l1.5093 3.5846z" stroke-opacity=".78065" fill-rule="evenodd" stroke="#43250a" stroke-linecap="round" stroke-width="1.4275" fill="url(#c)"/>
<path fill="url(#d)" d="m362.56 413.13a1.2865 1.4875 0 0 1 -1.2862 1.4875 1.2865 1.4875 0 0 1 -1.2868 -1.4868 1.2865 1.4875 0 0 1 1.2856 -1.4882 1.2865 1.4875 0 0 1 1.2874 1.4861" transform="matrix(1.9394,0,0,1.9394,-337.47,-389.3)"/>
</g>
</g>
</g>
</g>
</svg>
