<?xml version="1.0" encoding="UTF-8" standalone="no"?>
<svg xmlns:rdf="http://www.w3.org/1999/02/22-rdf-syntax-ns#" xmlns="http://www.w3.org/2000/svg" height="32.007" width="27.413" version="1.1" xmlns:cc="http://creativecommons.org/ns#" xmlns:xlink="http://www.w3.org/1999/xlink" viewBox="0 0 27.412723 32.006564" xmlns:dc="http://purl.org/dc/elements/1.1/">
<defs>
<linearGradient id="a">
<stop stop-color="#0243aa" offset="0"/>
<stop stop-color="#fff" offset="1"/>
</linearGradient>
<pattern id="k" xlink:href="#j" patternTransform="matrix(9.2354 4.1188e-7 0 9.5822 -68.59 -224.35)"/>
<pattern id="j" xlink:href="#i" patternTransform="matrix(10.634 4.7426e-7 0 11.033 -16.626 -100.22)"/>
<pattern id="i" xlink:href="#h" patternTransform="matrix(11.137 0 0 11.555 -52.389 -156.93)"/>
<pattern id="h" xlink:href="#g" patternTransform="matrix(11.582 0 0 11.582 -51.591 -86.506)"/>
<pattern id="g" xlink:href="#b" patternTransform="scale(10)"/>
<pattern id="b" width="2" patternUnits="userSpaceOnUse" patternTransform="translate(0) scale(10)" height="1">
<rect y="-.5" width="1" x="0" height="2"/>
</pattern>
<linearGradient id="c" y2="511.32" gradientUnits="userSpaceOnUse" y1="510.13" gradientTransform="matrix(.87498 0 0 .96055 -54.156 -177.48)" x2="374.66" x1="392.13">
<stop stop-color="#0243aa" offset="0"/>
<stop stop-color="#f2ffff" offset="1"/>
</linearGradient>
<linearGradient id="d" y2="427.12" gradientUnits="userSpaceOnUse" y1="443.06" gradientTransform="matrix(.33702 .10413 -.028535 .22948 186.27 174.85)" x2="336.6" x1="342.08">
<stop stop-color="#520" offset="0"/>
<stop stop-color="#262200" offset="1"/>
</linearGradient>
<linearGradient id="e" y2="504.68" xlink:href="#a" gradientUnits="userSpaceOnUse" y1="526.04" gradientTransform="matrix(.86848 0 0 .79258 -51.972 -91.789)" x2="417.16" x1="393.53"/>
<linearGradient id="f" y2="498.78" xlink:href="#a" gradientUnits="userSpaceOnUse" y1="536.66" gradientTransform="matrix(.86848 0 0 .78794 -51.972 -89.296)" x2="393.08" x1="379.62"/>
</defs>
<metadata>
<rdf:RDF>
<cc:Work rdf:about="">
<dc:format>image/svg+xml</dc:format>
<dc:type rdf:resource="http://purl.org/dc/dcmitype/StillImage"/>
<dc:title/>
</cc:Work>
</rdf:RDF>
</metadata>
<g transform="translate(-73.988 -336.99)">
<g transform="translate(-200.82,29.942)">
<path d="m275.71 313.25 20.334-2.3148 5.7043 0.76276c-7.1811 0.91337-13.882 1.7718-21.708 2.6851l-4.3297-1.1331z" fill-rule="evenodd" stroke="#000" stroke-width=".91677px" fill="url(#c)"/>
<path d="m284.54 312.74c1.5827 0.5447 0.93729 0.23119 2.0287 0.0692-0.35673-3.6991 2.589-4.9252 4.3578-3.3584 0.6155 1.1708 0.53005 1.9012 0.49193 2.5435 0.79889 0.28692 1.3076 0.27369 1.8599-0.0406-0.57094-3.7139-2.4808-4.367-2.8811-4.5462-2.5825-0.83536-5.6367 0.63122-5.8572 5.3324z" fill-rule="evenodd" stroke="#2b1100" stroke-width=".28339px" fill="url(#d)"/>
<path d="m288.58 319.54 0.7361-0.11446" stroke="#333" stroke-width=".30177" fill="none"/>
<path d="m292.38 319.06 0.83509-0.085" stroke="#333" stroke-width=".30177" fill="none"/>
<path stroke-linejoin="round" d="m281.99 314.29 19.373-2.165-0.16938 19.941-19.159 6.0898" fill-rule="evenodd" stroke="#000" stroke-linecap="round" stroke-width="1.7145px" fill="url(#e)"/>
<path stroke-linejoin="round" d="m286.86 312.03 2.6345-0.40471 2.5347 1.0569 0.20726 8.4176-1.3935 2.1717-1.504-1.672-0.0217-8.5117-2.4573-1.0579z" stroke-opacity=".88953" fill-rule="evenodd" stroke="#2b1100" stroke-linecap="round" stroke-width=".40211" fill="#debf67"/>
<path d="m345.83 481.02a0.686 0.77746 0 0 1 -0.686 0.77747 0.686 0.77746 0 0 1 -0.68599 -0.77747 0.686 0.77746 0 0 1 0.68599 -0.77746 0.686 0.77746 0 0 1 0.686 0.77746z" stroke-opacity=".88953" fill-rule="evenodd" transform="matrix(.59193 .11061 0 .51701 86.409 28.935)" stroke="#000" stroke-width=".5" fill="#e3dbdb"/>
<path d="m345.83 481.02a0.686 0.77746 0 0 1 -0.686 0.77747 0.686 0.77746 0 0 1 -0.68599 -0.77747 0.686 0.77746 0 0 1 0.68599 -0.77746 0.686 0.77746 0 0 1 0.686 0.77746z" stroke-opacity=".88953" fill-rule="evenodd" transform="matrix(.68454 .12791 0 .56587 54.525 1.2724)" stroke="#000" stroke-width=".5" fill="#e3dbdb"/>
<path d="m345.83 481.02a0.686 0.77746 0 0 1 -0.686 0.77747 0.686 0.77746 0 0 1 -0.68599 -0.77747 0.686 0.77746 0 0 1 0.68599 -0.77746 0.686 0.77746 0 0 1 0.686 0.77746z" stroke-opacity=".88953" fill-rule="evenodd" transform="matrix(.68454 .12791 0 .56587 54.594 2.996)" stroke="#000" stroke-width=".5" fill="#e3dbdb"/>
<rect stroke-linejoin="round" transform="matrix(.99183 -.12753 -.012647 .99992 0 0)" stroke-opacity=".88953" fill-rule="evenodd" rx=".88353" ry=".66733" height="2.7601" width="4.5107" stroke="#000" stroke-linecap="square" y="355.74" x="295.45" stroke-width=".28290" fill="url(#k)"/>
<path d="m290.79 319.35 0.0696 1.8016" stroke="#000" stroke-linecap="round" stroke-width=".60354" fill="none"/>
<path stroke-linejoin="round" d="m275.83 313.58 5.9095 0.81606v23.793l-6.0167-0.91752 0.10718-23.691z" fill-rule="evenodd" stroke="#000" stroke-width="1.7234px" fill="url(#f)"/>
<path stroke-linejoin="round" d="m277.42 313.59-1.9398-0.31071 0.0859 2.7339c1.288-0.72338 1.471-0.92643 1.8539-2.4232z" stroke-opacity=".86628" fill-rule="evenodd" stroke="#803300" stroke-width=".98535px" fill="#debf67"/>
<path stroke-linejoin="round" d="m301.59 329.03-0.0118 3.242-2.2501 0.73102c0.48149-1.3226 0.84578-2.4462 2.2619-3.973z" stroke-opacity=".86628" fill-rule="evenodd" stroke="#803300" stroke-width=".94131px" fill="#debf67"/>
<path stroke-linejoin="round" d="m282.16 335.56 0.0118 2.9477 2.3307-0.66713c-0.48148-1.1018-1.007-1.6367-2.3425-2.2806z" stroke-opacity=".86628" fill-rule="evenodd" stroke="#803300" stroke-width=".94131px" fill="#debf67"/>
<path stroke-linejoin="round" d="m282.08 317.48 0.0118-3.0687 2.6532-0.39786c-0.48149 1.4492-1.249 2.7611-2.6651 3.4666z" stroke-opacity=".86628" fill-rule="evenodd" stroke="#803300" stroke-width=".98535px" fill="#debf67"/>
<path stroke-linejoin="round" d="m301.68 315.39-0.0118-3.5525-2.4113 0.32784c0.48149 1.4492 0.84579 2.1966 2.4232 3.2246z" stroke-opacity=".86628" fill-rule="evenodd" stroke="#803300" stroke-width=".98535px" fill="#debf67"/>
<path stroke-linejoin="round" d="m282.08 317.48 0.0118-3.0687 2.6532-0.39786c-0.48149 1.4492-1.249 2.7611-2.6651 3.4666z" stroke-opacity=".86628" fill-rule="evenodd" stroke="#803300" stroke-width=".98535px" fill="#debf67"/>
<path stroke-linejoin="round" d="m279.34 314.09 2.0205 0.41499 0.0753 2.9758c-1.6911-1.6103-1.5516-1.2489-2.0958-3.3908z" stroke-opacity=".86628" fill-rule="evenodd" stroke="#803300" stroke-width=".98535px" fill="#debf67"/>
<path stroke-linejoin="round" d="m284.66 313.93-2.8268 0.3107-2.0911-0.31487c0.70309 0.10841 1.8502-0.94013 4.9179 0.004z" stroke-opacity=".86628" fill-rule="evenodd" stroke="#803300" stroke-width=".98535px" fill="#debf67"/>
<path stroke-linejoin="round" d="m275.29 334.38-0.0132 3.1726 2.2142 0.41137c-0.48148-1.3148-0.87972-2.1116-2.2009-3.584z" stroke-opacity=".86628" fill-rule="evenodd" stroke="#803300" stroke-width=".93855px" fill="#debf67"/>
<path stroke-linejoin="round" d="m281.41 335.55 0.0383 2.9304-2.5062-0.34473c0.48148-1.0954 1.1324-1.9457 2.4679-2.5857z" stroke-opacity=".86628" fill-rule="evenodd" stroke="#803300" stroke-width=".93855px" fill="#debf67"/>
</g>
</g>
</svg>
