<?xml version="1.0" encoding="UTF-8" standalone="no"?>
<svg xmlns:rdf="http://www.w3.org/1999/02/22-rdf-syntax-ns#" xmlns="http://www.w3.org/2000/svg" height="32" width="32" version="1.1" xmlns:cc="http://creativecommons.org/ns#" xmlns:xlink="http://www.w3.org/1999/xlink" viewBox="0 0 31.999999 31.999999" xmlns:dc="http://purl.org/dc/elements/1.1/">
<defs>
<linearGradient id="a">
<stop stop-color="#04a" offset="0"/>
<stop stop-color="#06f" offset="1"/>
</linearGradient>
<linearGradient id="b" y2="79.658" xlink:href="#a" gradientUnits="userSpaceOnUse" y1="79.658" gradientTransform="translate(255.9,671.6)" x2="122.65" x1="108.4"/>
<linearGradient id="c" y2="79.658" xlink:href="#a" gradientUnits="userSpaceOnUse" y1="79.658" x2="122.65" x1="108.4"/>
<linearGradient id="d" y2="118.51" xlink:href="#a" gradientUnits="userSpaceOnUse" y1="119.18" gradientTransform="translate(255.9,671.6)" x2="81.44" x1="74.059"/>
<linearGradient id="e" y2="75.453" xlink:href="#a" gradientUnits="userSpaceOnUse" y1="74.852" x2="117.25" x1="113.36"/>
<linearGradient id="f" y2="75.153" xlink:href="#a" gradientUnits="userSpaceOnUse" y1="75.153" x2="116.95" x1="113.51"/>
</defs>
<metadata>
<rdf:RDF>
<cc:Work rdf:about="">
<dc:format>image/svg+xml</dc:format>
<dc:type rdf:resource="http://purl.org/dc/dcmitype/StillImage"/>
<dc:title/>
</cc:Work>
</rdf:RDF>
</metadata>
<g transform="translate(-138.12 -901.88)">
<g transform="matrix(2,0,0,2,-837.9,-144.84)">
<text style="word-spacing:0px;letter-spacing:0px" stroke-width=".25" font-family="Arial" space="preserve" transform="scale(1.4868 .67257)" stroke="#00112b" font-size="34.935px" y="799.10809" x="326.9342" font-weight="bold" line-height="125%" fill="url(#b)">
<tspan y="799.10809" x="326.9342" stroke-width=".25" fill="url(#b)">-</tspan>
</text>
<path style="color:#000000" d="m116.64 74.967a1.3562 1.3562 0 0 1 -1.3562 1.3562 1.3562 1.3562 0 0 1 -1.3562 -1.3562 1.3562 1.3562 0 0 1 1.3562 -1.3562 1.3562 1.3562 0 0 1 1.3562 1.3562z" transform="translate(380.73,451.7)" stroke="#00112b" stroke-width=".25" fill="url(#c)"/>
<path style="color:#000000" d="m116.64 74.967a1.3562 1.3562 0 0 1 -1.3562 1.3562 1.3562 1.3562 0 0 1 -1.3562 -1.3562 1.3562 1.3562 0 0 1 1.3562 -1.3562 1.3562 1.3562 0 0 1 1.3562 1.3562z" transform="translate(380.73,461.09)" stroke="#00112b" stroke-width=".25" fill="url(#c)"/>
<text style="word-spacing:0px;letter-spacing:0px" font-family="Arial" space="preserve" transform="scale(1.4868 .67257)" font-size="34.935px" y="799.10809" x="326.9342" font-weight="bold" line-height="125%" fill="url(#d)">
<tspan y="799.10809" x="326.9342" fill="url(#d)">-</tspan>
</text>
<path style="color:#000000" fill="url(#e)" d="m116.64 74.967a1.3562 1.3562 0 0 1 -1.3562 1.3562 1.3562 1.3562 0 0 1 -1.3562 -1.3562 1.3562 1.3562 0 0 1 1.3562 -1.3562 1.3562 1.3562 0 0 1 1.3562 1.3562z" transform="translate(380.73,451.7)"/>
<path style="color:#000000" fill="url(#f)" d="m116.64 74.967a1.3562 1.3562 0 0 1 -1.3562 1.3562 1.3562 1.3562 0 0 1 -1.3562 -1.3562 1.3562 1.3562 0 0 1 1.3562 -1.3562 1.3562 1.3562 0 0 1 1.3562 1.3562z" transform="translate(380.73,461.09)"/>
<rect style="color:#000000" height="16" width="16" y="523.36" x="488.01" fill="none"/>
<rect style="color:#000000" height="16" width="16" y="523.36" x="488.01" fill="none"/>
<rect style="color:#000000" height="16" width="16" y="523.36" x="488.01" fill="none"/>
</g>
</g>
</svg>
