<?xml version="1.0" encoding="UTF-8"?>
<svg width="1000px" height="1000px" viewBox="0 0 1000 1000" version="1.1" xmlns="http://www.w3.org/2000/svg" xmlns:xlink="http://www.w3.org/1999/xlink">
    <!-- Generator: Sketch 63.1 (92452) - https://sketch.com -->
    <title>executable</title>
    <desc>Created with Sketch.</desc>
    <g id="executable" stroke="none" stroke-width="1" fill="none" fill-rule="evenodd">
        <g id="Group-2">
            <rect id="Rectangle" stroke="#C8C8C8" stroke-width="50" fill="#121212" x="25" y="25" width="950" height="950" rx="100"></rect>
            <g id="Group" transform="translate(100.000000, 179.777778)" fill="#00E903">
                <path d="M66.2962393,106.791818 L319.241887,107.13038 C355.991182,107.179568 385.770102,136.958511 385.819262,173.707806 L385.819404,173.813901 C385.868473,210.494746 356.17255,240.270224 319.491704,240.319293 C319.432457,240.319372 319.373209,240.319372 319.313961,240.319293 L66.3683136,239.980731 C29.6190184,239.931543 -0.159901654,210.1526 -0.209061727,173.403305 L-0.209203652,173.297211 C-0.258272159,136.616365 29.4376505,106.840887 66.1184959,106.791818 C66.1777437,106.791739 66.2369915,106.791739 66.2962393,106.791818 Z" id="Rectangle" transform="translate(192.805100, 173.555556) rotate(39.000000) translate(-192.805100, -173.555556) "></path>
                <path d="M66.2962393,267.538744 L319.241887,267.877305 C355.991182,267.926493 385.770102,297.705436 385.819262,334.454731 L385.819404,334.560826 C385.868473,371.241672 356.17255,401.01715 319.491704,401.066218 C319.432457,401.066298 319.373209,401.066298 319.313961,401.066218 L66.3683136,400.727657 C29.6190184,400.678469 -0.159901654,370.899526 -0.209061727,334.150231 L-0.209203652,334.044136 C-0.258272159,297.363291 29.4376505,267.587812 66.1184959,267.538744 C66.1777437,267.538664 66.2369915,267.538664 66.2962393,267.538744 Z" id="Rectangle-Copy" transform="translate(192.805100, 334.302481) scale(1, -1) rotate(39.000000) translate(-192.805100, -334.302481) "></path>
                <rect id="Rectangle-Copy-2" transform="translate(609.269790, 576.400216) scale(1, -1) translate(-609.269790, -576.400216) " x="414.825345" y="509.733549" width="388.888889" height="133.333333" rx="66.6666667"></rect>
            </g>
        </g>
    </g>
</svg>