<?xml version="1.0" encoding="UTF-8" standalone="no"?>
<svg xmlns:rdf="http://www.w3.org/1999/02/22-rdf-syntax-ns#" xmlns="http://www.w3.org/2000/svg" height="31.689" width="31.35" version="1.1" xmlns:cc="http://creativecommons.org/ns#" xmlns:xlink="http://www.w3.org/1999/xlink" viewBox="0 0 31.349999 31.688899" xmlns:dc="http://purl.org/dc/elements/1.1/">
<defs>
<radialGradient id="f" gradientUnits="userSpaceOnUse" cy="602.05" cx="50.237" gradientTransform="matrix(1.2638 .57269 -.39157 .86413 316.91 -19.177)" r="9.493">
<stop stop-color="#faa" offset="0"/>
<stop stop-color="#f00" offset="1"/>
</radialGradient>
<linearGradient id="b" y2="596.5" gradientUnits="userSpaceOnUse" y1="591.89" x2="34.085" x1="28.851">
<stop stop-color="#fae2b9" offset="0"/>
<stop stop-color="#e9b45c" offset="1"/>
</linearGradient>
<radialGradient id="a" gradientUnits="userSpaceOnUse" cy="562.53" cx="207.66" gradientTransform="matrix(.98375 .93925 -.54764 .57359 250.7 -5.1697)" r="9.8135">
<stop stop-color="#fcf87a" offset="0"/>
<stop stop-color="#f3b60a" offset="1"/>
</radialGradient>
<linearGradient id="c" y2="596.5" gradientUnits="userSpaceOnUse" y1="591.89" x2="34.085" x1="28.851">
<stop stop-color="#fcc362" offset="0"/>
<stop stop-color="#cb923a" offset="1"/>
</linearGradient>
<radialGradient id="d" gradientUnits="userSpaceOnUse" cy="613.34" cx="131.66" gradientTransform="matrix(-.91276 .4433 .2557 .58228 14.509 138.23)" r="9.493">
<stop stop-color="#25c7f0" offset="0"/>
<stop stop-color="#0004d4" offset="1"/>
</radialGradient>
<radialGradient id="e" gradientUnits="userSpaceOnUse" cy="587.32" cx="48.061" gradientTransform="matrix(.16504 .95247 .62203 -.11154 -321.44 561.7)" r="9.2659">
<stop stop-color="#636363" offset="0"/>
<stop stop-color="#0e0d0c" offset="1"/>
</radialGradient>
</defs>
<metadata>
<rdf:RDF>
<cc:Work rdf:about="">
<dc:format>image/svg+xml</dc:format>
<dc:type rdf:resource="http://purl.org/dc/dcmitype/StillImage"/>
<dc:title/>
</cc:Work>
</rdf:RDF>
</metadata>
<g transform="translate(-299.36 -658.33)">
<g transform="translate(99.673,183.55)">
<g transform="translate(161.1,-62.715)">
<path fill-rule="evenodd" fill="#ffce2c" d="m45.44 556.64 5.9079-6.4168c-5.8637-0.53239-5.4365-0.14297-8.1355-0.30556l1.2591 1.0185c-0.4257 1.9728-0.02539 3.8667 0.96851 5.7038z"/>
<path d="m45.406 556.72c0.93816-1.6876 2.6152-4.2188 5.9842-6.5354 1.4433 0.9214 2.5615 1.8449 2.9346 3.8123l-0.05754 5.3251c-2.0803 1.7214-4.9974 1.8882-7.5379 1.9364-3.8253-0.49564-4.8443-1.7186-6.0418-2.9046-0.06557-1.6803-0.17975-2.7913 0.34524-5.2646 0.35311-1.2523 1.4864-2.7658 2.129-3.2072 0.9164 0.6776 0.98395 0.65421 1.2659 1.0287 0.12622 2.0701 0.55248 4.2116 0.97819 5.8092z" fill-rule="evenodd" stroke="#000080" stroke-width=".78086px" fill="url(#d)"/>
<path d="m37.935 591.89a6.6122 6.6122 0 0 1 -6.6107 6.6122 6.6122 6.6122 0 0 1 -6.6138 -6.6091 6.6122 6.6122 0 0 1 6.6075 -6.6154 6.6122 6.6122 0 0 1 6.6169 6.606" stroke-opacity=".72674" transform="matrix(-.83097 0 0 .84997 73.483 42.978)" stroke="#62340a" fill="url(#c)"/>
<path stroke-linejoin="round" d="m41.333 545.18 1.1563-2.0841 1.3144 1.669c2.9225 0.87728 4.9748 0.72172 7.1151 0.67053l0.96395-1.1032c0.43018 1.9832-0.72368 4.1744 1.0769 4.5554 1.139-1.2467 1.3554-2.6312 1.5901-4.2296-0.02172-2.2264-0.22245-3.1237-1.5825-4.7999-1.1557-1.0636-2.3638-1.7395-4.8197-1.9612-3.9893-0.10828-6.946 2.4798-6.8144 7.283z" fill-rule="evenodd" stroke="#000" stroke-linecap="round" stroke-width=".80411px" fill="url(#e)"/>
<path d="m45.367 556.39c0.09061 1.5 0.16723 2.9999-0.16004 4.4999" fill-rule="evenodd" stroke="#000080" stroke-width=".75853px"/>
</g>
<g transform="matrix(.75895 0 0 .75895 137.62 91.394)">
<g transform="matrix(-1,0,0,1.02,260.21,-3.3037)">
<path fill-rule="evenodd" fill="#fff" d="m152.17 533.15-7.7589-8.0132c7.7008-0.66485 7.1398-0.17854 10.684-0.38158l-1.6535 1.2719c0.55907 2.4637 0.0334 4.8287-1.2719 7.1229z"/>
<path stroke-linejoin="round" d="m152.22 533.25c-0.88882-2.7368-3.034-5.2113-7.8591-8.1614-1.8955 1.1506-2.9063 3.5626-3.1674 5.1041l-0.61097 6.3068c2.732 2.1497 6.5631 2.358 9.8994 2.4182 5.0237-0.61895 6.362-2.1462 7.9347-3.6273-0.0855-1.6406-0.22162-3.2569-0.9111-6.3456-0.46374-1.5638-1.4944-3.6827-2.3383-4.234-1.2035 0.84618-1.2922 0.81697-1.6625 1.2846-1.1956 2.6996-1.2977 4.8589-1.2847 7.2546z" fill-rule="evenodd" stroke="#a00" stroke-linecap="round" stroke-width="1px" fill="url(#f)"/>
<path d="m37.935 591.89a6.6122 6.6122 0 0 1 -6.6107 6.6122 6.6122 6.6122 0 0 1 -6.6138 -6.6091 6.6122 6.6122 0 0 1 6.6075 -6.6154 6.6122 6.6122 0 0 1 6.6169 6.606" stroke-opacity=".72674" transform="matrix(1.0913,0,0,1.0614,115.34,-108.32)" stroke="#62340a" fill="url(#b)"/>
<path stroke-linejoin="round" d="m145.37 516.88c3.6029 2.8024 7.6446 2.5929 11.008 0.97331 0.76758 2.3963 0.10114 4.3418-0.6646 6.0874l1.1826 1.6864c0.92314-2.5919 2.0843-5.8192 1.6737-9.2618-0.67553-3.8798-3.1449-7.28-8.3049-7.766-6.1388-0.63449-9.1782 4.1598-9.8554 6.5661-0.69519 2.7157-0.68967 5.84-0.53245 7.1144 0.44166 3.2436 0.0978 4.4181 2.7609 5.3808 1.7881 0.13806 1.3659-2.2245 1.5778-5.2106 0.0942-1.9292 0.53545-3.7717 1.154-5.5699z" fill-rule="evenodd" stroke="#784421" stroke-linecap="round" stroke-width="1px" fill="url(#a)"/>
</g>
<path d="m108.1 540.43-0.63054 5.5348" fill-rule="evenodd" stroke="#a00" stroke-width="1px"/>
</g>
<rect rx=".134" ry=".13557" height="31.35" width="31.35" y="474.94" x="199.69" fill="none"/>
</g>
</g>
</svg>
