<?xml version="1.0" encoding="UTF-8" standalone="no"?>
<svg xmlns:rdf="http://www.w3.org/1999/02/22-rdf-syntax-ns#" xmlns="http://www.w3.org/2000/svg" height="32.003" width="32.136" version="1.1" xmlns:cc="http://creativecommons.org/ns#" xmlns:xlink="http://www.w3.org/1999/xlink" viewBox="0 0 32.136458 32.002563" xmlns:dc="http://purl.org/dc/elements/1.1/">
<defs>
<linearGradient id="a">
<stop stop-color="#fff" offset="0"/>
<stop stop-color="#434343" offset="1"/>
</linearGradient>
<linearGradient id="b" y2="333.93" xlink:href="#a" gradientUnits="userSpaceOnUse" y1="301.62" gradientTransform="matrix(.66 0 0 .76453 113.21 54.011)" x2="481.32" x1="483.29"/>
<radialGradient id="d" xlink:href="#a" gradientUnits="userSpaceOnUse" cy="311.28" cx="461.25" gradientTransform="matrix(-.029894 .20908 -1.4056 -.26967 868.94 280.55)" r="20.882"/>
<linearGradient id="c" y2="299.76" gradientUnits="userSpaceOnUse" y1="314.5" gradientTransform="matrix(.66 0 0 .76453 113.21 54.011)" x2="469.29" x1="469.65">
<stop stop-color="#d40000" offset="0"/>
<stop stop-color="#fff" offset="1"/>
</linearGradient>
</defs>
<metadata>
<rdf:RDF>
<cc:Work rdf:about="">
<dc:format>image/svg+xml</dc:format>
<dc:type rdf:resource="http://purl.org/dc/dcmitype/StillImage"/>
<dc:title/>
</cc:Work>
</rdf:RDF>
</metadata>
<g transform="translate(-340 -336.99)">
<g transform="translate(-64.511,52.87)">
<path stroke-linejoin="round" d="m425.46 315.77c0-1.0977 0.78309-17.03 0.78309-17.03 0.97427-4.3017 2.9374-6.1979 5.37-6.9523 2.3899 0.10792 3.749 2.3167 4.6767 5.9816l-0.0416 15.607-10.788 2.3937z" fill-rule="evenodd" stroke="#000" stroke-linecap="round" stroke-width=".71035px" fill="url(#b)"/>
<path stroke-linejoin="round" d="m431.51 291.7c-3.0334 1.1591-4.8741 3.4774-5.2764 7.3456l-0.79792 16.641-20.572-6.2204 0.59012-15.058c0.29368-2.2333 1.0663-5.796 4.5188-6.4669l21.538 3.7588z" fill-rule="evenodd" stroke="#000" stroke-linecap="round" stroke-width=".71035px" fill="url(#d)"/>
<path stroke-linejoin="round" d="m424.41 294.39-0.16455 5.6384c0.52382-1.9416 0.79466-3.0208 1.5357-4.1771l0.42856-2.1645-1.7998 0.70319z" fill-rule="evenodd" stroke="#000" stroke-linecap="round" stroke-width=".2131" fill="#383838"/>
<path stroke-linejoin="round" d="m424.36 294.39-1.9197-0.38121-0.17849 5.5351 1.9578 0.51259 0.14037-5.6664z" fill-rule="evenodd" stroke="#000" stroke-linecap="round" stroke-width=".2131" fill="#3d3d3d"/>
<path stroke-linejoin="round" d="m424.29 294.32c-0.21939 0-2.0173-0.37905-2.0173-0.37905l1.8211-0.65904 2.1242 0.38121-1.928 0.65688z" fill-rule="evenodd" stroke="#000" stroke-linecap="round" stroke-width=".2131" fill="#808080"/>
<path stroke-linejoin="round" d="m428.86 307.41v1.7154c-0.14942 0.10659-0.73943 0.80665-0.7085 0.64583 0.0255-0.2826 0.10518-3.5049 0.10518-3.5049l0.60332 1.1436z" fill-rule="evenodd" stroke="#000" stroke-linecap="round" stroke-width=".2131" fill="#212020"/>
<path stroke-linejoin="round" d="m424.3 296.74s-1.4949-0.10299-2.1871-0.34413c0.0558-2.5905 0.48385-5.7087 0.48682-8.6143l-2.0842-0.88949 0.0548-2.4143 3.6906 0.69566 0.0391 11.567z" stroke-opacity=".89535" fill-rule="evenodd" stroke="#800000" stroke-linecap="round" stroke-width=".71035px" fill="url(#c)"/>
<path stroke-linejoin="round" d="m461.44 311.29a0.33805 0.40566 0 0 1 -0.33804 0.40566 0.33805 0.40566 0 0 1 -0.33805 -0.40566 0.33805 0.40566 0 0 1 0.33805 -0.40566 0.33805 0.40566 0 0 1 0.33804 0.40566z" transform="matrix(.66 0 0 .76453 118.92 57.397)" stroke="#000" stroke-linecap="round" stroke-width="0.3"/>
<path stroke-linejoin="round" d="m434.46 306.51v1.7154c-0.24371 0.27387-0.5116 0.52414-0.74355 0.76765 0.0323-0.28167 0.14022-3.6267 0.14022-3.6267l0.60333 1.1436z" fill-rule="evenodd" stroke="#000" stroke-linecap="round" stroke-width=".2131" fill="#212020"/>
<path stroke-linejoin="round" d="m428.9 307.44c1.1382-0.25462 5.5248-0.98355 5.5248-0.98355l-0.58039-1.112-5.5956 0.93667 0.65116 1.1589z" fill-rule="evenodd" stroke="#000" stroke-linecap="round" stroke-width=".2131" fill="#4d4d4d"/>
<text font-size="7.8289px" space="preserve" transform="matrix(.91774 .26972 0 1.0896 0 0)" y="172.46812" x="442.96512" font-family="&apos;Bitstream Vera Sans Mono&apos;" fill="#ffffff">
<tspan y="172.46812" x="442.96512">MAIL</tspan>
</text>
</g>
</g>
</svg>
