<?xml version="1.0" encoding="UTF-8"?>
<svg width="1000px" height="1001px" viewBox="0 0 1000 1001" version="1.1" xmlns="http://www.w3.org/2000/svg" xmlns:xlink="http://www.w3.org/1999/xlink">
    <!-- Generator: sketchtool 63.1 (101010) - https://sketch.com -->
    <title>Mail</title>
    <desc>Created with sketchtool.</desc>
    <g id="Icons" stroke="none" stroke-width="1" fill="none" fill-rule="evenodd">
        <g id="Mail" transform="translate(0.000000, 1.000000)" fill-rule="nonzero">
            <g id="Annotations/Email-Address" transform="translate(100.000000, 100.000000)">
                <path d="M563.566694,263.576889 C570.199793,230.382222 550.547619,195.208889 519.00522,183.646222 C491.802814,173.438222 464.423376,168.924444 430.270659,168.924444 C252.199989,168.924444 172.499477,312.435556 172.499477,454.684444 C172.499477,567.084444 250.543476,625.866667 327.673411,625.866667 C378.585455,625.866667 423.640993,610.103111 461.007382,579.651556 C464.112215,583.887644 467.287591,587.568178 470.392785,590.762667 C492.232749,613.401778 522.963149,625.866667 556.939737,625.866667 C670.583418,625.866667 785.6,527.431111 785.6,339.306667 C785.6,142.675556 639.774438,0 438.843161,0 C196.878404,0 14.4,187.884444 14.4,436.977778 C14.4,647.324444 165.581683,800 373.856173,800 C438.210904,800 491.519202,791.111111 541.449441,771.632 C563.182824,763.159822 571.086036,737.708444 560.219345,717.326222 C549.352653,696.978667 523.843793,689.444444 501.827701,697.222222 C464.181312,710.555556 423.183961,716.666667 373.858882,716.666667 C237.318466,716.666667 99.0438584,620.586667 99.0438584,436.977778 C99.0438584,261.217778 215.758502,83.3333333 438.809742,83.3333333 C595.564318,83.3333333 700.925432,186.177778 700.925432,339.271111 C700.925432,472.711111 628.49136,542.497778 556.942447,542.497778 C550.838638,542.497778 539.477702,541.317244 531.785844,533.366222 C523.177033,524.442667 521.554119,509.755556 521.906377,498.158222 L563.566694,263.576889 Z M439.465797,479.915101 C411.466955,523.032758 374.946296,544 327.966305,544 C285.880137,544 257.6,508.613544 257.6,455.883375 C257.6,362.228031 302.855252,252.835665 430.344423,252.8 C446.016742,252.8 457.885257,254.05379 467.499801,255.969427 C473.698224,257.188445 477.712999,263.66657 476.621175,269.796608 L439.465797,479.915101 Z" id="Shape" fill="#F3F26E"></path>
                <path d="M563.566694,263.576889 C570.199793,230.382222 550.547619,195.208889 519.00522,183.646222 C491.802814,173.438222 464.423376,168.924444 430.270659,168.924444 C252.199989,168.924444 172.499477,312.435556 172.499477,454.684444 C172.499477,567.084444 250.543476,625.866667 327.673411,625.866667 C378.585455,625.866667 423.640993,610.103111 461.007382,579.651556 C464.112215,583.887644 467.287591,587.568178 470.392785,590.762667 C492.232749,613.401778 522.963149,625.866667 556.939737,625.866667 C670.583418,625.866667 785.6,527.431111 785.6,339.306667 C785.6,142.675556 639.774438,0 438.843161,0 C196.878404,0 14.4,187.884444 14.4,436.977778 C14.4,647.324444 165.581683,800 373.856173,800 C438.210904,800 491.519202,791.111111 541.449441,771.632 C563.182824,763.159822 571.086036,737.708444 560.219345,717.326222 C549.352653,696.978667 523.843793,689.444444 501.827701,697.222222 C464.181312,710.555556 423.183961,716.666667 373.858882,716.666667 C237.318466,716.666667 99.0438584,620.586667 99.0438584,436.977778 C99.0438584,261.217778 215.758502,83.3333333 438.809742,83.3333333 C595.564318,83.3333333 700.925432,186.177778 700.925432,339.271111 C700.925432,472.711111 628.49136,542.497778 556.942447,542.497778 C550.838638,542.497778 539.477702,541.317244 531.785844,533.366222 C523.177033,524.442667 521.554119,509.755556 521.906377,498.158222 L563.566694,263.576889 Z M439.465797,479.915101 C411.466955,523.032758 374.946296,544 327.966305,544 C285.880137,544 257.6,508.613544 257.6,455.883375 C257.6,362.228031 302.855252,252.835665 430.344423,252.8 C446.016742,252.8 457.885257,254.05379 467.499801,255.969427 C473.698224,257.188445 477.712999,263.66657 476.621175,269.796608 L439.465797,479.915101 Z" id="Shape-Copy" fill="#858400"></path>
            </g>
        </g>
    </g>
</svg>