<?xml version="1.0" encoding="UTF-8" standalone="no"?>
<svg xmlns:rdf="http://www.w3.org/1999/02/22-rdf-syntax-ns#" xmlns="http://www.w3.org/2000/svg" height="32.005" width="31.35" version="1.1" xmlns:cc="http://creativecommons.org/ns#" xmlns:xlink="http://www.w3.org/1999/xlink" viewBox="0 0 31.349999 32.005222" xmlns:dc="http://purl.org/dc/elements/1.1/">
<defs>
<linearGradient id="c" y2="596.5" gradientUnits="userSpaceOnUse" y1="591.89" x2="34.085" x1="28.851">
<stop stop-color="#fcc362" offset="0"/>
<stop stop-color="#cb923a" offset="1"/>
</linearGradient>
<radialGradient id="a" gradientUnits="userSpaceOnUse" cy="613.34" cx="131.66" gradientTransform="matrix(1.1987 .55359 -.33581 .72715 179.8 95.034)" r="9.493">
<stop stop-color="#7ff44c" offset="0"/>
<stop stop-color="#35981b" offset="1"/>
</radialGradient>
<radialGradient id="b" gradientUnits="userSpaceOnUse" cy="587.32" cx="48.061" gradientTransform="matrix(-.21675 1.1894 -.81691 -.1393 621.01 623.86)" r="9.2659">
<stop stop-color="#636363" offset="0"/>
<stop stop-color="#0e0d0c" offset="1"/>
</radialGradient>
</defs>
<metadata>
<rdf:RDF>
<cc:Work rdf:about="">
<dc:format>image/svg+xml</dc:format>
<dc:type rdf:resource="http://purl.org/dc/dcmitype/StillImage"/>
<dc:title/>
</cc:Work>
</rdf:RDF>
</metadata>
<g transform="translate(-207.21 -658.01)">
<g transform="translate(126.2,90.232)">
<g transform="translate(73.407,51.975)">
<g transform="matrix(1,0,0,1.0597,-113.08,-113.24)">
<path fill-rule="evenodd" fill="#fff" d="m139.18 617.54-7.7588-8.0132c7.7008-0.66485 7.1398-0.17854 10.684-0.38158l-1.6535 1.2719c0.55907 2.4637 0.0334 4.8287-1.2719 7.1229z"/>
<path d="m139.23 617.64c-1.2321-2.1074-3.4345-5.2685-7.8591-8.1614-1.8954 1.1506-3.364 2.304-3.854 4.7608l0.0756 6.65c2.732 2.1497 6.5631 2.358 9.8995 2.4182 5.0237-0.61895 6.362-2.1462 7.9347-3.6273 0.0861-2.0983 0.23606-3.4857-0.45341-6.5744-0.46374-1.5638-1.9521-3.4539-2.796-4.0051-1.2035 0.84618-1.2922 0.81697-1.6625 1.2846-0.16577 2.5852-0.72557 5.2594-1.2847 7.2546z" fill-rule="evenodd" stroke="#196616" stroke-width="1px" fill="url(#a)"/>
<path d="m37.935 591.89a6.6122 6.6122 0 0 1 -6.6107 6.6122 6.6122 6.6122 0 0 1 -6.6138 -6.6091 6.6122 6.6122 0 0 1 6.6075 -6.6154 6.6122 6.6122 0 0 1 6.6169 6.606" stroke-opacity=".72674" transform="matrix(1.0913,0,0,1.0614,102.35,-23.922)" stroke="#62340a" fill="url(#c)"/>
<path stroke-linejoin="round" d="m144.58 603.22-1.5186-2.6026-1.7262 2.0843c-3.8382 1.0955-6.5335 0.90128-9.3442 0.83735l-1.266-1.3777c-0.56495 2.4766 0.95041 5.213-1.4143 5.6888-1.4958-1.5569-1.78-3.2859-2.0882-5.2819 0.0285-2.7803 0.29214-3.9009 2.0783-5.9941 1.5178-1.3282 3.1044-2.1723 6.3298-2.4492 5.2391-0.13522 9.1222 3.0967 8.9494 9.095z" fill-rule="evenodd" stroke="#000" stroke-linecap="round" stroke-width="1.0298px" fill="url(#b)"/>
</g>
<path d="m26.203 540.85c-0.119 1.985-0.21962 3.9701 0.21018 5.9551" fill-rule="evenodd" stroke="#196616" stroke-width="1px"/>
</g>
<rect rx=".134" ry=".13557" height="31.35" width="31.35" y="568.12" x="81.008" fill="none"/>
</g>
</g>
</svg>
