<?xml version="1.0" encoding="UTF-8" standalone="no"?>
<svg xmlns:rdf="http://www.w3.org/1999/02/22-rdf-syntax-ns#" xmlns="http://www.w3.org/2000/svg" height="29.858" width="32.012" version="1.1" xmlns:cc="http://creativecommons.org/ns#" xmlns:xlink="http://www.w3.org/1999/xlink" viewBox="0 0 32.012229 29.858152" xmlns:dc="http://purl.org/dc/elements/1.1/">
<defs>
<linearGradient id="a">
<stop stop-color="#b16200" offset="0"/>
<stop stop-color="#ff0" stop-opacity=".99115" offset="1"/>
</linearGradient>
<linearGradient id="b" y2="421.52" xlink:href="#a" gradientUnits="userSpaceOnUse" y1="425.52" gradientTransform="matrix(.33314 -.038288 0 .43814 356.41 137.32)" x2="161.74" x1="159.3"/>
<linearGradient id="c" y2="422.19" xlink:href="#a" gradientUnits="userSpaceOnUse" y1="436.95" gradientTransform="matrix(.33314 -.038288 0 .43814 356.41 137.32)" x2="153.43" x1="145.53"/>
<linearGradient id="d" y2="437.09" xlink:href="#a" gradientUnits="userSpaceOnUse" y1="437.09" gradientTransform="matrix(.33314 -.038288 0 .43814 356.41 137.32)" x2="159.14" x1="154.24"/>
<linearGradient id="e" y2="437.07" xlink:href="#a" gradientUnits="userSpaceOnUse" y1="460.54" gradientTransform="matrix(.32012 -.062648 .042715 .40013 134.8 235.06)" x2="203.57" x1="214.48"/>
<linearGradient id="f" y2="454.28" xlink:href="#a" gradientUnits="userSpaceOnUse" y1="454.28" gradientTransform="matrix(.32012 -.062648 .042715 .40013 135.02 235.05)" x2="209.26" x1="204.26"/>
</defs>
<metadata>
<rdf:RDF>
<cc:Work rdf:about="">
<dc:format>image/svg+xml</dc:format>
<dc:type rdf:resource="http://purl.org/dc/dcmitype/StillImage"/>
<dc:title/>
</cc:Work>
</rdf:RDF>
</metadata>
<g transform="translate(-265.81 -109.28)">
<g transform="translate(-134.23,-200.5)">
<path stroke-linejoin="round" d="m422.1 323.62c-0.33242 1.3616-0.656 2.3645-0.77011 4.8246l-20.424-15.104c-1.2811-1.6278-0.45393-3.5564 1.327-3.2941l19.867 13.574z" fill-rule="evenodd" stroke="#5d1001" stroke-linecap="round" stroke-width="0.497" fill="url(#b)"/>
<path stroke-linejoin="round" d="m401.73 314.19-0.0252 7.8987 1.1753 1.0453 0.0633-2.2349 1.163 1.0136-0.0128 2.2285 1.1501 1.0314-0.0128-2.492 1.3656 1.1567 0.0628 2.2198 1.4155 1.1172-0.11368-8.5151-6.231-4.4691z" fill-rule="evenodd" stroke="#5d1001" stroke-linecap="round" stroke-width=".45846" fill="url(#c)"/>
<path stroke-linejoin="round" d="m407.99 318.66 0.0318 8.4705 1.1996-0.43749-0.34613-7.4314-0.88534-0.60159z" fill-rule="evenodd" stroke="#5d1001" stroke-linecap="round" stroke-width=".45846" fill="url(#d)"/>
<g transform="matrix(1.0109 .07645 -.07645 1.0109 232.96 -95.818)">
<path stroke-linejoin="round" d="m222.44 394.55c-2.9362-1.0678-5.5677 2.2938-5.8718 7.5092-0.30406 5.2154 1.8336 10.324 4.7699 11.392 2.9362 1.0678 5.5586-2.31 5.8627-7.5254 0.30405-5.2154-1.8244-10.308-4.7607-11.376zm-0.71417 4.2462c1.0294 0.56254 2.2486 2.3614 2.2998 6.1632 0.0383 2.8438-1.0039 4.2475-2.437 4.1933-1.429-0.0541-2.0632-3.2231-2.1818-6.0611-0.0809-1.9355 0.55689-5.2868 2.319-4.2953z" stroke-opacity=".97674" stroke="#5d1001" stroke-linecap="round" stroke-width=".56846" fill="url(#e)"/>
<path d="m220.72 398.77c-0.65546 3.5076-0.39239 6.4376 0.4341 10.061-0.7738-1.0051-1.3121-2.5904-1.4467-4.5765-0.13457-1.9861 0.032-3.8391 1.0126-5.4841z" fill-rule="evenodd" stroke="#5f1201" stroke-width=".36161px" fill="url(#f)"/>
</g>
</g>
</g>
</svg>
