<?xml version="1.0" encoding="UTF-8" standalone="no"?>
<svg xmlns="http://www.w3.org/2000/svg" xmlns:svg="http://www.w3.org/2000/svg" viewBox="0 0 24 24" version="1.1" id="svg206">
  <defs id="defs210"/>
  <path d="M 3.5144748,18.619844 A 0.426624,0.426624 0 0 1 3.0878508,18.19322 v -1.146552 a 0.426624,0.426624 0 0 1 0.426624,-0.426624 h 3.812952 a 0.426624,0.426624 0 0 1 0.426624,0.426624 v 1.146552 a 0.426624,0.426624 0 0 1 -0.426624,0.426624 h -3.812952 m 0,0.6666 h 3.812952 a 1.09989,1.09989 0 0 0 1.093224,-1.093224 v -1.146552 a 1.093224,1.093224 0 0 0 -1.093224,-1.093224 h -3.812952 a 1.086558,1.086558 0 0 0 -1.093224,1.093224 v 1.146552 a 1.093224,1.093224 0 0 0 1.093224,1.093224 z" style="fill:#0071bc;stroke-width:0.6666" id="path103-46"/>
  <path d="M 10.640855,18.619844 A 0.426624,0.426624 0 0 1 10.214231,18.19322 v -1.146552 a 0.426624,0.426624 0 0 1 0.426624,-0.426624 h 3.812951 a 0.426624,0.426624 0 0 1 0.426624,0.426624 v 1.146552 a 0.426624,0.426624 0 0 1 -0.426624,0.426624 h -3.812951 m 0,0.6666 h 3.812951 A 1.09989,1.09989 0 0 0 15.54703,18.19322 v -1.146552 a 1.093224,1.093224 0 0 0 -1.093224,-1.093224 h -3.812951 a 1.086558,1.086558 0 0 0 -1.0932242,1.093224 v 1.146552 a 1.093224,1.093224 0 0 0 1.0932242,1.093224 z" style="fill:#0071bc;stroke-width:0.6666" id="path103-46-3"/>
  <path d="M 17.767234,18.619823 A 0.426624,0.426624 0 0 1 17.34061,18.193199 v -1.146552 a 0.426624,0.426624 0 0 1 0.426624,-0.426624 h 3.812952 a 0.426624,0.426624 0 0 1 0.426624,0.426624 v 1.146552 a 0.426624,0.426624 0 0 1 -0.426624,0.426624 h -3.812952 m 0,0.6666 h 3.812952 a 1.09989,1.09989 0 0 0 1.093224,-1.093224 v -1.146552 a 1.093224,1.093224 0 0 0 -1.093224,-1.093224 h -3.812952 a 1.086558,1.086558 0 0 0 -1.093224,1.093224 v 1.146552 a 1.093224,1.093224 0 0 0 1.093224,1.093224 z" style="fill:#0071bc;stroke-width:0.6666" id="path103-46-3-4"/>
  <path d="m 17.767235,8.4014394 a 0.426624,0.426624 0 0 1 -0.426624,-0.426624 v -1.146552 a 0.426624,0.426624 0 0 1 0.426624,-0.426624 h 3.812952 a 0.426624,0.426624 0 0 1 0.426624,0.426624 v 1.146552 a 0.426624,0.426624 0 0 1 -0.426624,0.426624 h -3.812952 m 0,0.6666 h 3.812952 a 1.09989,1.09989 0 0 0 1.093223,-1.093224 v -1.146552 a 1.093224,1.093224 0 0 0 -1.093223,-1.093224 h -3.812952 a 1.086558,1.086558 0 0 0 -1.093224,1.093224 v 1.146552 a 1.093224,1.093224 0 0 0 1.093224,1.093224 z" style="fill:#0071bc;stroke-width:0.6666" id="path103-8"/>
  <path d="m 17.767235,13.510632 a 0.426624,0.426624 0 0 1 -0.426624,-0.426624 v -1.146552 a 0.426624,0.426624 0 0 1 0.426624,-0.426624 h 3.812952 a 0.426624,0.426624 0 0 1 0.426623,0.426624 v 1.146552 a 0.426624,0.426624 0 0 1 -0.426623,0.426624 h -3.812952 m 0,0.6666 h 3.812952 a 1.09989,1.09989 0 0 0 1.093223,-1.093224 v -1.146552 a 1.093224,1.093224 0 0 0 -1.093223,-1.093224 h -3.812952 a 1.086558,1.086558 0 0 0 -1.093224,1.093224 v 1.146552 a 1.093224,1.093224 0 0 0 1.093224,1.093224 z" style="fill:#0071bc;stroke-width:0.6666" id="path103-4-1"/>
  <path d="m 3.5144748,8.4014394 a 0.426624,0.426624 0 0 1 -0.426624,-0.426624 v -1.146552 a 0.426624,0.426624 0 0 1 0.426624,-0.426624 h 3.812952 a 0.426624,0.426624 0 0 1 0.426624,0.426624 v 1.146552 a 0.426624,0.426624 0 0 1 -0.426624,0.426624 h -3.812952 m 0,0.6666 h 3.812952 a 1.09989,1.09989 0 0 0 1.093224,-1.093224 v -1.146552 a 1.093224,1.093224 0 0 0 -1.093224,-1.093224 h -3.812952 a 1.086558,1.086558 0 0 0 -1.093224,1.093224 v 1.146552 a 1.093224,1.093224 0 0 0 1.093224,1.093224 z" style="fill:#0071bc;stroke-width:0.6666" id="path103-46-5"/>
  <path d="m 14.042998,9.9499964 c -0.05326,-0.0355 -0.106513,-0.0355 -0.142017,0.0089 l -0.470429,0.5148096 c -0.115389,-0.05326 -0.248529,-0.08876 -0.372794,-0.115389 l -0.07101,-0.6657016 c 0,-0.06213 -0.0355,-0.09764 -0.106512,-0.09764 h -0.683455 c -0.07101,0 -0.106512,0.0355 -0.115388,0.09764 l -0.07101,0.6657016 c -0.124265,0.02663 -0.239653,0.07101 -0.355041,0.115389 L 11.193789,9.9588964 c -0.04438,-0.04438 -0.08876,-0.04438 -0.142016,-0.0089 l -0.55919,0.3994206 c -0.05326,0.04438 -0.06213,0.08876 -0.02663,0.142017 l 0.346165,0.612446 c -0.06213,0.07101 -0.115389,0.150892 -0.168645,0.230777 L 9.9333908,11.183764 c -0.06213,-0.02663 -0.09764,0.0089 -0.124265,0.07101 l -0.213024,0.647951 c -0.01775,0.06213 0,0.09764 0.05326,0.13314 l 0.6568262,0.292909 c -0.0089,0.06213 -0.0089,0.13314 -0.0089,0.195273 0,0.05326 0,0.115388 0.0089,0.168644 L 9.6493618,12.9856 c -0.05326,0.0355 -0.07101,0.07101 -0.05326,0.133141 l 0.213024,0.64795 c 0.02663,0.06213 0.06213,0.09764 0.124265,0.07101 l 0.7100822,-0.150892 c 0.05326,0.07988 0.106513,0.159768 0.168645,0.239652 l -0.346165,0.60357 c -0.0355,0.05326 -0.02663,0.09764 0.02663,0.142017 l 0.55919,0.399421 c 0.05326,0.0355 0.09764,0.0355 0.142016,-0.0089 l 0.461553,-0.51481 c 0.115388,0.04438 0.230776,0.08876 0.355041,0.115389 l 0.07101,0.665702 c 0.0089,0.06213 0.04438,0.09764 0.115388,0.09764 h 0.683455 c 0.07101,0 0.106512,-0.0355 0.106512,-0.09764 l 0.07101,-0.665702 c 0.124265,-0.02663 0.257405,-0.06213 0.372794,-0.115389 l 0.470429,0.51481 c 0.0355,0.04438 0.08876,0.04438 0.142017,0.0089 l 0.559189,-0.399425 c 0.05326,-0.04438 0.06213,-0.08876 0.0355,-0.142017 l -0.346164,-0.60357 c 0.06213,-0.07101 0.124264,-0.150892 0.17752,-0.230776 l 0.683454,0.142016 c 0.07101,0.02663 0.115389,-0.0089 0.133141,-0.07101 l 0.213024,-0.64795 c 0.01775,-0.06213 0,-0.09764 -0.06213,-0.133141 l -0.630198,-0.284033 c 0.0089,-0.06213 0.0089,-0.115388 0.0089,-0.17752 0,-0.07101 0,-0.133141 -0.0089,-0.204149 l 0.630198,-0.284033 c 0.06213,-0.0355 0.07988,-0.07101 0.06213,-0.13314 L 15.285638,11.25477 c -0.01775,-0.06213 -0.06213,-0.09764 -0.133141,-0.07101 l -0.69233,0.150893 C 14.406907,11.245893 14.353655,11.166008 14.282646,11.095 l 0.355042,-0.60357 c 0.02663,-0.05326 0.01775,-0.09764 -0.0355,-0.142017 z m -1.508925,0.9497346 c 0.931983,0 1.677569,0.718959 1.677569,1.624314 0,0.878727 -0.745586,1.597685 -1.677569,1.597685 -0.905355,0 -1.642065,-0.718958 -1.642065,-1.597685 0,-0.905355 0.73671,-1.624314 1.642065,-1.624314 z m 0,0.896479 c -0.408298,0 -0.718959,0.328413 -0.718959,0.718959 0,0.381669 0.310661,0.710082 0.718959,0.710082 0.417173,0 0.73671,-0.328413 0.73671,-0.710082 0,-0.390546 -0.319537,-0.718959 -0.73671,-0.718959 z" id="path6609" style="fill:#333333;stroke-width:0.739669"/>
  <rect x="-15.54703" y="4.0395904" width="5.9994001" height="3.3329999" rx="1.093224" style="fill:#0071bc;stroke-width:0.6666" id="rect191-3" transform="scale(-1,1)"/>
  <rect x="-6.9969039" y="10.844233" width="5.9994001" height="3.3329999" rx="1.093224" style="fill:#0071bc;stroke-width:0.6666" id="rect191-3-5" transform="scale(-1,1)"/>
  <path style="fill:none;stroke:#333333;stroke-width:0.38395;stroke-dasharray:1.5358, 0.38395;stroke-dashoffset:0;stroke-opacity:1" d="M 0.99750379,5.5382104 H 23.002496" id="path629"/>
  <path style="fill:none;stroke:#333333;stroke-width:0.326585;stroke-dasharray:1.30635, 0.326585;stroke-dashoffset:0;stroke-opacity:1" d="M 2.2244218,19.960409 V 4.0395914" id="path629-7"/>
</svg>
