<?xml version="1.0" encoding="UTF-8"?>
<svg xmlns="http://www.w3.org/2000/svg" version="1.1" viewBox="0 0 24 24">
 <path d="m10.504 14.561c0.05326 0.0355 0.10651 0.0355 0.14202-0.0089l0.47043-0.51481c0.11539 0.05326 0.24853 0.08876 0.37279 0.11539l0.07101 0.6657c0 0.06213 0.0355 0.09764 0.10651 0.09764h0.68346c0.07101 0 0.10651-0.0355 0.11539-0.09764l0.07101-0.6657c0.12426-0.02663 0.23965-0.07101 0.35504-0.11539l0.46155 0.51481c0.04438 0.04438 0.08876 0.04438 0.14202 0.0089l0.55919-0.39942c0.05326-0.04438 0.06213-0.08876 0.02663-0.14202l-0.34616-0.61245c0.06213-0.07101 0.11539-0.15089 0.16864-0.23078l0.71008 0.15089c0.06213 0.02663 0.09764-0.0089 0.12426-0.07101l0.21302-0.64795c0.01775-0.06213 0-0.09764-0.05326-0.13314l-0.65683-0.29291c0.0089-0.06213 0.0089-0.13314 0.0089-0.19527 0-0.05326 0-0.11539-0.0089-0.16864l0.65683-0.29291c0.05326-0.0355 0.07101-0.07101 0.05326-0.13314l-0.21302-0.64795c-0.02663-0.06213-0.06213-0.09764-0.12426-0.07101l-0.71008 0.15089c-0.05326-0.07988-0.10651-0.15977-0.16864-0.23965l0.34616-0.60357c0.0355-0.053256 0.02663-0.097636-0.02663-0.14202l-0.55919-0.39942c-0.05326-0.035504-0.09764-0.035504-0.14202 0.00888l-0.46155 0.51481c-0.11539-0.04438-0.23078-0.08876-0.35504-0.11539l-0.07101-0.6657c-0.0089-0.062132-0.04438-0.097636-0.11539-0.097636h-0.68346c-0.07101 0-0.10651 0.035504-0.10651 0.097636l-0.07101 0.6657c-0.12426 0.026628-0.2574 0.062132-0.37279 0.11539l-0.47043-0.51481c-0.0355-0.04438-0.08876-0.04438-0.14202-0.00888l-0.55919 0.39943c-0.053256 0.04438-0.062132 0.08876-0.035504 0.14202l0.34616 0.60357c-0.06213 0.07101-0.12426 0.15089-0.17752 0.23078l-0.68345-0.14202c-0.071008-0.02663-0.11539 0.0089-0.13314 0.07101l-0.21302 0.64795c-0.017752 0.06213 0 0.09764 0.062132 0.13314l0.6302 0.28403c-0.00888 0.06213-0.00888 0.11539-0.00888 0.17752 0 0.07101 0 0.13314 0.00888 0.20415l-0.6302 0.28403c-0.062132 0.0355-0.079884 0.07101-0.062132 0.13314l0.21302 0.64795c0.017752 0.06213 0.062132 0.09764 0.13314 0.07101l0.69233-0.15089c0.05326 0.08876 0.10651 0.16864 0.17752 0.23965l-0.35504 0.60357c-0.026628 0.05326-0.017752 0.09764 0.035504 0.14202zm1.5089-0.94974c-0.93198 0-1.6776-0.71896-1.6776-1.6243 0-0.87873 0.74559-1.5977 1.6776-1.5977 0.90536 0 1.6421 0.71896 1.6421 1.5977 0 0.90536-0.73671 1.6243-1.6421 1.6243zm0-0.89648c0.4083 0 0.71896-0.32841 0.71896-0.71896 0-0.38167-0.31066-0.71008-0.71896-0.71008-0.41717 0-0.73671 0.32841-0.73671 0.71008 0 0.39055 0.31954 0.71896 0.73671 0.71896z" fill="#333333" stroke-width=".73967"/>
 <rect transform="scale(1,-1)" x="9.0003" y="-8.5573" width="5.9994" height="3.333" rx="1.0932" fill="#0071bc" stroke-width=".6666"/>
 <rect transform="scale(1,-1)" x="9.0003" y="-18.776" width="5.9994" height="3.333" rx="1.0932" fill="#0071bc" stroke-width=".6666"/>
 <rect transform="scale(1,-1)" x="16.127" y="-13.666" width="5.9994" height="3.333" rx="1.0932" fill="#0071bc" stroke-width=".6666"/>
 <rect transform="scale(1,-1)" x="1.8739" y="-13.666" width="5.9994" height="3.333" rx="1.0932" fill="#0071bc" stroke-width=".6666"/>
 <path d="m23.605 12h-23.127" fill="none" stroke="#333333" stroke-dasharray="1.57447, 0.393617" stroke-width=".39362"/>
 <path d="m12 3.7247v16.551" fill="none" stroke="#333333" stroke-dasharray="1.33193, 0.332982" stroke-width=".33298"/>
 <g transform="translate(1.6121 1.3339)">
  <path d="m19.421 4.557a0.42662 0.42662 0 0 1 0.42662 0.42662v1.1466a0.42662 0.42662 0 0 1-0.42662 0.42662h-3.813a0.42662 0.42662 0 0 1-0.42662-0.42662v-1.1466a0.42662 0.42662 0 0 1 0.42662-0.42662h3.813m0-0.6666h-3.813a1.0999 1.0999 0 0 0-1.0932 1.0932v1.1466a1.0932 1.0932 0 0 0 1.0932 1.0932h3.813a1.0866 1.0866 0 0 0 1.0932-1.0932v-1.1466a1.0932 1.0932 0 0 0-1.0932-1.0932z" fill="#0071bc" stroke-width=".6666"/>
  <path d="m16.549 3.2735 1.0289-1.7352 1.0289 1.7352" fill="none" stroke="#0071bc" stroke-linecap="round" stroke-linejoin="round" stroke-miterlimit="0" stroke-width=".666"/>
 </g>
 <g transform="translate(-12.641 1.3339)">
  <path d="m19.421 4.557a0.42662 0.42662 0 0 1 0.42662 0.42662v1.1466a0.42662 0.42662 0 0 1-0.42662 0.42662h-3.813a0.42662 0.42662 0 0 1-0.42662-0.42662v-1.1466a0.42662 0.42662 0 0 1 0.42662-0.42662h3.813m0-0.6666h-3.813a1.0999 1.0999 0 0 0-1.0932 1.0932v1.1466a1.0932 1.0932 0 0 0 1.0932 1.0932h3.813a1.0866 1.0866 0 0 0 1.0932-1.0932v-1.1466a1.0932 1.0932 0 0 0-1.0932-1.0932z" fill="#0071bc" stroke-width=".6666"/>
  <path d="m16.549 3.2735 1.0289-1.7352 1.0289 1.7352" fill="none" stroke="#0071bc" stroke-linecap="round" stroke-linejoin="round" stroke-miterlimit="0" stroke-width=".666"/>
 </g>
 <g transform="matrix(1 0 0 -1 -12.641 22.666)">
  <path d="m19.421 4.557a0.42662 0.42662 0 0 1 0.42662 0.42662v1.1466a0.42662 0.42662 0 0 1-0.42662 0.42662h-3.813a0.42662 0.42662 0 0 1-0.42662-0.42662v-1.1466a0.42662 0.42662 0 0 1 0.42662-0.42662h3.813m0-0.6666h-3.813a1.0999 1.0999 0 0 0-1.0932 1.0932v1.1466a1.0932 1.0932 0 0 0 1.0932 1.0932h3.813a1.0866 1.0866 0 0 0 1.0932-1.0932v-1.1466a1.0932 1.0932 0 0 0-1.0932-1.0932z" fill="#0071bc" stroke-width=".6666"/>
  <path d="m16.549 3.2735 1.0289-1.7352 1.0289 1.7352" fill="none" stroke="#0071bc" stroke-linecap="round" stroke-linejoin="round" stroke-miterlimit="0" stroke-width=".666"/>
 </g>
 <g transform="matrix(1 0 0 -1 1.6121 22.666)">
  <path d="m19.421 4.557a0.42662 0.42662 0 0 1 0.42662 0.42662v1.1466a0.42662 0.42662 0 0 1-0.42662 0.42662h-3.813a0.42662 0.42662 0 0 1-0.42662-0.42662v-1.1466a0.42662 0.42662 0 0 1 0.42662-0.42662h3.813m0-0.6666h-3.813a1.0999 1.0999 0 0 0-1.0932 1.0932v1.1466a1.0932 1.0932 0 0 0 1.0932 1.0932h3.813a1.0866 1.0866 0 0 0 1.0932-1.0932v-1.1466a1.0932 1.0932 0 0 0-1.0932-1.0932z" fill="#0071bc" stroke-width=".6666"/>
  <path d="m16.549 3.2735 1.0289-1.7352 1.0289 1.7352" fill="none" stroke="#0071bc" stroke-linecap="round" stroke-linejoin="round" stroke-miterlimit="0" stroke-width=".666"/>
 </g>
</svg>
