<?xml version="1.0" encoding="UTF-8" standalone="no"?>
<svg xmlns="http://www.w3.org/2000/svg" xmlns:svg="http://www.w3.org/2000/svg" viewBox="0 0 24 24" version="1.1" id="svg206">
  <defs id="defs210"/>
  <path d="m 21.032846,5.8908873 a 0.426624,0.426624 0 0 1 0.426624,0.426624 v 1.146552 a 0.426624,0.426624 0 0 1 -0.426624,0.426624 H 17.219894 A 0.426624,0.426624 0 0 1 16.79327,7.4640633 v -1.146552 a 0.426624,0.426624 0 0 1 0.426624,-0.426624 h 3.812952 m 0,-0.6666 h -3.812952 a 1.09989,1.09989 0 0 0 -1.093224,1.093224 v 1.146552 a 1.093224,1.093224 0 0 0 1.093224,1.093224 h 3.812952 a 1.086558,1.086558 0 0 0 1.093224,-1.093224 v -1.146552 a 1.093224,1.093224 0 0 0 -1.093224,-1.093224 z" style="fill:#0071bc;stroke-width:0.6666" id="path103-46"/>
  <path d="m 6.7800854,5.8909083 a 0.426624,0.426624 0 0 1 0.426624,0.426624 V 7.464084 A 0.426624,0.426624 0 0 1 6.7800854,7.890708 H 2.9671334 A 0.426624,0.426624 0 0 1 2.5405094,7.464084 V 6.3175323 a 0.426624,0.426624 0 0 1 0.426624,-0.426624 h 3.812952 m 0,-0.6666 h -3.812952 a 1.09989,1.09989 0 0 0 -1.093224,1.093224 V 7.464084 a 1.093224,1.093224 0 0 0 1.093224,1.093224 h 3.812952 A 1.086558,1.086558 0 0 0 7.8733094,7.464084 V 6.3175323 a 1.093224,1.093224 0 0 0 -1.093224,-1.093224 z" style="fill:#0071bc;stroke-width:0.6666" id="path103-46-3-4"/>
  <path d="m 6.7800852,16.109292 a 0.426624,0.426624 0 0 1 0.426624,0.426624 v 1.146552 a 0.426624,0.426624 0 0 1 -0.426624,0.426624 h -3.812952 a 0.426624,0.426624 0 0 1 -0.426624,-0.426624 v -1.146552 a 0.426624,0.426624 0 0 1 0.426624,-0.426624 h 3.812952 m 0,-0.6666 h -3.812952 a 1.09989,1.09989 0 0 0 -1.0932238,1.093224 v 1.146552 a 1.093224,1.093224 0 0 0 1.0932238,1.093224 h 3.812952 a 1.086558,1.086558 0 0 0 1.093224,-1.093224 v -1.146552 a 1.093224,1.093224 0 0 0 -1.093224,-1.093224 z" style="fill:#0071bc;stroke-width:0.6666" id="path103-8"/>
  <path d="m 21.032846,16.109292 a 0.426624,0.426624 0 0 1 0.426624,0.426624 v 1.146552 a 0.426624,0.426624 0 0 1 -0.426624,0.426624 H 17.219894 A 0.426624,0.426624 0 0 1 16.79327,17.682468 v -1.146552 a 0.426624,0.426624 0 0 1 0.426624,-0.426624 h 3.812952 m 0,-0.6666 h -3.812952 a 1.09989,1.09989 0 0 0 -1.093224,1.093224 v 1.146552 a 1.093224,1.093224 0 0 0 1.093224,1.093224 h 3.812952 a 1.086558,1.086558 0 0 0 1.093224,-1.093224 v -1.146552 a 1.093224,1.093224 0 0 0 -1.093224,-1.093224 z" style="fill:#0071bc;stroke-width:0.6666" id="path103-46-5"/>
  <path d="m 10.504322,14.560735 c 0.05326,0.0355 0.106513,0.0355 0.142017,-0.0089 l 0.470429,-0.51481 c 0.115389,0.05326 0.248529,0.08876 0.372794,0.115389 l 0.07101,0.665702 c 0,0.06213 0.0355,0.09764 0.106512,0.09764 h 0.683455 c 0.07101,0 0.106512,-0.0355 0.115388,-0.09764 l 0.07101,-0.665702 c 0.124265,-0.02663 0.239653,-0.07101 0.355041,-0.115389 l 0.461554,0.51481 c 0.04438,0.04438 0.08876,0.04438 0.142016,0.0089 l 0.55919,-0.399421 c 0.05326,-0.04438 0.06213,-0.08876 0.02663,-0.142017 l -0.346165,-0.612446 c 0.06213,-0.07101 0.115389,-0.150892 0.168645,-0.230777 l 0.710082,0.150893 c 0.06213,0.02663 0.09764,-0.0089 0.124265,-0.07101 l 0.213024,-0.647951 c 0.01775,-0.06213 0,-0.09764 -0.05326,-0.13314 l -0.656826,-0.292909 c 0.0089,-0.06213 0.0089,-0.13314 0.0089,-0.195273 0,-0.05326 0,-0.115388 -0.0089,-0.168644 l 0.656826,-0.292909 c 0.05326,-0.0355 0.07101,-0.07101 0.05326,-0.133141 l -0.213024,-0.64795 c -0.02663,-0.06213 -0.06213,-0.09764 -0.124265,-0.07101 l -0.710082,0.150892 c -0.05326,-0.07988 -0.106513,-0.159768 -0.168645,-0.239652 l 0.346165,-0.6035704 c 0.0355,-0.053256 0.02663,-0.097636 -0.02663,-0.1420165 l -0.55919,-0.3994213 c -0.05326,-0.035504 -0.09764,-0.035504 -0.142016,0.00888 l -0.461554,0.5148097 c -0.115388,-0.04438 -0.230776,-0.08876 -0.355041,-0.1153884 l -0.07101,-0.6657022 c -0.0089,-0.062132 -0.04438,-0.097636 -0.115388,-0.097636 h -0.683455 c -0.07101,0 -0.106512,0.035504 -0.106512,0.097636 l -0.07101,0.6657022 c -0.124265,0.026628 -0.257405,0.062132 -0.372794,0.1153884 L 10.646339,9.4481418 c -0.0355,-0.04438 -0.08876,-0.04438 -0.142017,-0.00888 L 9.9451324,9.8386871 c -0.053256,0.04438 -0.062132,0.08876 -0.035504,0.1420165 l 0.3461646,0.6035704 c -0.06213,0.07101 -0.124264,0.150892 -0.17752,0.230776 L 9.3948186,10.673034 c -0.071008,-0.02663 -0.1153884,0.0089 -0.1331405,0.07101 l -0.2130247,0.64795 c -0.017752,0.06213 0,0.09764 0.062132,0.133141 l 0.6301981,0.284033 c -0.00888,0.06213 -0.00888,0.115388 -0.00888,0.17752 0,0.07101 0,0.133141 0.00888,0.204149 L 9.1107854,12.47487 c -0.062132,0.0355 -0.079884,0.07101 -0.062132,0.13314 l 0.2130247,0.647951 c 0.017752,0.06213 0.062132,0.09764 0.1331405,0.07101 l 0.6923304,-0.150893 c 0.05326,0.08876 0.106512,0.168645 0.177521,0.239653 l -0.3550417,0.60357 c -0.026628,0.05326 -0.017752,0.09764 0.035504,0.142017 z M 12.013247,13.611 c -0.931983,0 -1.677569,-0.718959 -1.677569,-1.624314 0,-0.878727 0.745586,-1.597685 1.677569,-1.597685 0.905355,0 1.642066,0.718958 1.642066,1.597685 0,0.905355 -0.736711,1.624314 -1.642066,1.624314 z m 0,-0.896479 c 0.408298,0 0.718959,-0.328413 0.718959,-0.718959 0,-0.381669 -0.310661,-0.710082 -0.718959,-0.710082 -0.417173,0 -0.73671,0.328413 -0.73671,0.710082 0,0.390546 0.319537,0.718959 0.73671,0.718959 z" id="path6609" style="fill:#333333;stroke-width:0.739669"/>
  <rect x="9.0002899" y="-8.5573082" width="5.9994001" height="3.3329999" rx="1.093224" style="fill:#0071bc;stroke-width:0.6666" id="rect191-3" transform="scale(1,-1)"/>
  <rect x="9.0002899" y="-18.775713" width="5.9994001" height="3.3329999" rx="1.093224" style="fill:#0071bc;stroke-width:0.6666" id="rect191-3-9" transform="scale(1,-1)"/>
  <rect x="16.12669" y="-13.666499" width="5.9994001" height="3.3329999" rx="1.093224" style="fill:#0071bc;stroke-width:0.6666" id="rect191-3-1" transform="scale(1,-1)"/>
  <rect x="1.8739094" y="-13.666499" width="5.9994001" height="3.3329999" rx="1.093224" style="fill:#0071bc;stroke-width:0.6666" id="rect191-3-5" transform="scale(1,-1)"/>
  <path style="fill:none;stroke:#333333;stroke-width:0.393617;stroke-dasharray:1.57447, 0.393617;stroke-dashoffset:0;stroke-opacity:1" d="M 23.604549,11.999999 H 0.47754904" id="path629"/>
  <path style="fill:none;stroke:#333333;stroke-width:0.332982;stroke-dasharray:1.33193, 0.332982;stroke-dashoffset:0;stroke-opacity:1" d="M 12,3.7246857 V 20.275314" id="path629-7"/>
</svg>
