<?xml version="1.0" encoding="UTF-8" standalone="no"?>
<svg xmlns="http://www.w3.org/2000/svg" xmlns:svg="http://www.w3.org/2000/svg" viewBox="0 0 24 24" version="1.1" id="svg206">
  <defs id="defs210"/>
  <path d="m 20.485525,5.3801554 a 0.426624,0.426624 0 0 1 0.426624,0.426624 v 1.146552 a 0.426624,0.426624 0 0 1 -0.426624,0.426624 h -3.812952 a 0.426624,0.426624 0 0 1 -0.426624,-0.426624 v -1.146552 a 0.426624,0.426624 0 0 1 0.426624,-0.426624 h 3.812952 m 0,-0.6666 h -3.812952 a 1.09989,1.09989 0 0 0 -1.093224,1.093224 v 1.146552 a 1.093224,1.093224 0 0 0 1.093224,1.093224 h 3.812952 a 1.086558,1.086558 0 0 0 1.093224,-1.093224 v -1.146552 a 1.093224,1.093224 0 0 0 -1.093224,-1.093224 z" style="fill:#0071bc;stroke-width:0.6666" id="path103-46"/>
  <path d="m 13.359145,5.3801554 a 0.426624,0.426624 0 0 1 0.426624,0.426624 v 1.146552 a 0.426624,0.426624 0 0 1 -0.426624,0.426624 H 9.5461938 a 0.426624,0.426624 0 0 1 -0.426624,-0.426624 v -1.146552 a 0.426624,0.426624 0 0 1 0.426624,-0.426624 h 3.8129512 m 0,-0.6666 H 9.5461938 a 1.09989,1.09989 0 0 0 -1.093224,1.093224 v 1.146552 a 1.093224,1.093224 0 0 0 1.093224,1.093224 h 3.8129512 a 1.086558,1.086558 0 0 0 1.093224,-1.093224 v -1.146552 a 1.093224,1.093224 0 0 0 -1.093224,-1.093224 z" style="fill:#0071bc;stroke-width:0.6666" id="path103-46-3"/>
  <path d="m 6.2327658,5.3801764 a 0.426624,0.426624 0 0 1 0.426624,0.426624 v 1.146552 a 0.426624,0.426624 0 0 1 -0.426624,0.426624 h -3.812952 a 0.426624,0.426624 0 0 1 -0.426624,-0.426624 v -1.146552 a 0.426624,0.426624 0 0 1 0.426624,-0.426624 h 3.812952 m 0,-0.6666 h -3.812952 a 1.09989,1.09989 0 0 0 -1.093224,1.093224 v 1.146552 a 1.093224,1.093224 0 0 0 1.093224,1.093224 h 3.812952 a 1.086558,1.086558 0 0 0 1.093224,-1.093224 v -1.146552 a 1.093224,1.093224 0 0 0 -1.093224,-1.093224 z" style="fill:#0071bc;stroke-width:0.6666" id="path103-46-3-4"/>
  <path d="m 6.2327648,15.59856 a 0.426624,0.426624 0 0 1 0.426624,0.426624 v 1.146552 a 0.426624,0.426624 0 0 1 -0.426624,0.426624 h -3.812952 a 0.426624,0.426624 0 0 1 -0.426624,-0.426624 v -1.146552 a 0.426624,0.426624 0 0 1 0.426624,-0.426624 h 3.812952 m 0,-0.6666 h -3.812952 a 1.09989,1.09989 0 0 0 -1.093223,1.093224 v 1.146552 a 1.093224,1.093224 0 0 0 1.093223,1.093224 h 3.812952 a 1.086558,1.086558 0 0 0 1.093224,-1.093224 V 16.025184 A 1.093224,1.093224 0 0 0 6.2327648,14.93196 Z" style="fill:#0071bc;stroke-width:0.6666" id="path103-8"/>
  <path d="m 6.2327648,10.489367 a 0.426624,0.426624 0 0 1 0.426624,0.426624 v 1.146552 a 0.426624,0.426624 0 0 1 -0.426624,0.426624 h -3.812952 a 0.426624,0.426624 0 0 1 -0.426623,-0.426624 v -1.146552 a 0.426624,0.426624 0 0 1 0.426623,-0.426624 h 3.812952 m 0,-0.6665996 h -3.812952 a 1.09989,1.09989 0 0 0 -1.093223,1.0932236 v 1.146552 a 1.093224,1.093224 0 0 0 1.093223,1.093224 h 3.812952 a 1.086558,1.086558 0 0 0 1.093224,-1.093224 V 10.915991 A 1.093224,1.093224 0 0 0 6.2327648,9.8227674 Z" style="fill:#0071bc;stroke-width:0.6666" id="path103-4-1"/>
  <path d="m 20.485525,15.59856 a 0.426624,0.426624 0 0 1 0.426624,0.426624 v 1.146552 a 0.426624,0.426624 0 0 1 -0.426624,0.426624 h -3.812952 a 0.426624,0.426624 0 0 1 -0.426624,-0.426624 v -1.146552 a 0.426624,0.426624 0 0 1 0.426624,-0.426624 h 3.812952 m 0,-0.6666 h -3.812952 a 1.09989,1.09989 0 0 0 -1.093224,1.093224 v 1.146552 a 1.093224,1.093224 0 0 0 1.093224,1.093224 h 3.812952 a 1.086558,1.086558 0 0 0 1.093224,-1.093224 V 16.025184 A 1.093224,1.093224 0 0 0 20.485525,14.93196 Z" style="fill:#0071bc;stroke-width:0.6666" id="path103-46-5"/>
  <path d="m 9.9570018,14.050003 c 0.05326,0.0355 0.1065132,0.0355 0.1420172,-0.0089 l 0.470429,-0.51481 c 0.115389,0.05326 0.248529,0.08876 0.372794,0.115389 l 0.07101,0.665702 c 0,0.06213 0.0355,0.09764 0.106512,0.09764 h 0.683455 c 0.07101,0 0.106512,-0.0355 0.115388,-0.09764 l 0.07101,-0.665702 c 0.124265,-0.02663 0.239653,-0.07101 0.355041,-0.115389 l 0.461553,0.51481 c 0.04438,0.04438 0.08876,0.04438 0.142016,0.0089 l 0.55919,-0.399421 c 0.05326,-0.04438 0.06213,-0.08876 0.02663,-0.142017 l -0.346165,-0.612446 c 0.06213,-0.07101 0.115389,-0.150892 0.168645,-0.230777 l 0.710082,0.150893 c 0.06213,0.02663 0.09764,-0.0089 0.124265,-0.07101 l 0.213024,-0.647951 c 0.01775,-0.06213 0,-0.09764 -0.05326,-0.13314 l -0.656826,-0.292909 c 0.0089,-0.06213 0.0089,-0.13314 0.0089,-0.195273 0,-0.05326 0,-0.115388 -0.0089,-0.168644 l 0.656826,-0.292909 c 0.05326,-0.0355 0.07101,-0.07101 0.05326,-0.133141 l -0.213024,-0.64795 c -0.02663,-0.06213 -0.06213,-0.09764 -0.124265,-0.07101 l -0.710082,0.150892 c -0.05326,-0.07988 -0.106513,-0.159768 -0.168645,-0.239652 l 0.346165,-0.6035696 c 0.0355,-0.05326 0.02663,-0.09764 -0.02663,-0.142017 l -0.55919,-0.399421 c -0.05326,-0.0355 -0.09764,-0.0355 -0.142016,0.0089 l -0.461553,0.51481 c -0.115388,-0.04438 -0.230776,-0.08876 -0.355041,-0.115389 l -0.07101,-0.665702 c -0.0089,-0.06213 -0.04438,-0.09764 -0.115388,-0.09764 h -0.683455 c -0.07101,0 -0.106512,0.0355 -0.106512,0.09764 l -0.07101,0.665702 c -0.124265,0.02663 -0.257405,0.06213 -0.372794,0.115389 l -0.470429,-0.51481 c -0.0355,-0.04438 -0.08876,-0.04438 -0.1420172,-0.0089 l -0.559189,0.399425 c -0.05326,0.04438 -0.06213,0.08876 -0.0355,0.142017 l 0.346164,0.6035696 c -0.06213,0.07101 -0.124264,0.150892 -0.17752,0.230776 l -0.683454,-0.142016 c -0.07101,-0.02663 -0.115389,0.0089 -0.133141,0.07101 l -0.213024,0.64795 c -0.01775,0.06213 0,0.09764 0.06213,0.133141 l 0.630198,0.284033 c -0.0089,0.06213 -0.0089,0.115388 -0.0089,0.17752 0,0.07101 0,0.133141 0.0089,0.204149 l -0.630198,0.284033 c -0.06213,0.0355 -0.07988,0.07101 -0.06213,0.13314 l 0.213024,0.647951 c 0.01775,0.06213 0.06213,0.09764 0.133141,0.07101 l 0.69233,-0.150893 c 0.05326,0.08876 0.106512,0.168645 0.177521,0.239653 l -0.355042,0.60357 c -0.02663,0.05326 -0.01775,0.09764 0.0355,0.142017 z m 1.5089252,-0.949735 c -0.931983,0 -1.6775692,-0.718959 -1.6775692,-1.624314 0,-0.878727 0.7455862,-1.5976846 1.6775692,-1.5976846 0.905355,0 1.642065,0.7189576 1.642065,1.5976846 0,0.905355 -0.73671,1.624314 -1.642065,1.624314 z m 0,-0.896479 c 0.408298,0 0.718959,-0.328413 0.718959,-0.718959 0,-0.381669 -0.310661,-0.710082 -0.718959,-0.710082 -0.417173,0 -0.73671,0.328413 -0.73671,0.710082 0,0.390546 0.319537,0.718959 0.73671,0.718959 z" id="path6609" style="fill:#333333;stroke-width:0.739669"/>
  <rect x="8.4529696" y="-19.960409" width="5.9994001" height="3.3329999" rx="1.093224" style="fill:#0071bc;stroke-width:0.6666" id="rect191-3" transform="scale(1,-1)"/>
  <rect x="17.003096" y="-13.155766" width="5.9994001" height="3.3329999" rx="1.093224" style="fill:#0071bc;stroke-width:0.6666" id="rect191-3-5" transform="scale(1,-1)"/>
  <path style="fill:none;stroke:#333333;stroke-width:0.38395;stroke-dasharray:1.5358, 0.38395;stroke-dashoffset:0;stroke-opacity:1" d="M 23.002496,18.461789 H 0.99750376" id="path629"/>
  <path style="fill:none;stroke:#333333;stroke-width:0.326585;stroke-dasharray:1.30635, 0.326585;stroke-dashoffset:0;stroke-opacity:1" d="M 21.775578,4.0395904 V 19.960408" id="path629-7"/>
</svg>
