<?xml version="1.0" encoding="UTF-8" standalone="no"?>
<svg
   viewBox="0 0 24 24"
   version="1.1"
   id="svg206"
   xmlns="http://www.w3.org/2000/svg"
   xmlns:svg="http://www.w3.org/2000/svg">
  <defs
     id="defs210" />
  <path
     d="m 16.315321,8.4454938 a 0.426624,0.426624 0 0 0 -0.426624,0.426624 V 10.01867 a 0.426624,0.426624 0 0 0 0.426624,0.426624 h 3.812952 A 0.426624,0.426624 0 0 0 20.554897,10.01867 V 8.8721178 a 0.426624,0.426624 0 0 0 -0.426624,-0.426624 h -3.812952 m 0,-0.6666 h 3.812952 a 1.09989,1.09989 0 0 1 1.093224,1.093224 V 10.01867 a 1.093224,1.093224 0 0 1 -1.093224,1.093224 H 16.315321 A 1.086558,1.086558 0 0 1 15.222097,10.01867 V 8.8721178 a 1.093224,1.093224 0 0 1 1.093224,-1.093224 z"
     style="fill:#0071bc;stroke-width:0.6666"
     id="path103" />
  <path
     d="M 9.641237,8.4454938 A 0.426624,0.426624 0 0 0 9.214613,8.8721178 V 10.01867 a 0.426624,0.426624 0 0 0 0.426624,0.426624 h 3.812952 A 0.426624,0.426624 0 0 0 13.880813,10.01867 V 8.8721178 A 0.426624,0.426624 0 0 0 13.454189,8.4454938 H 9.641237 m 0,-0.6666 h 3.812952 a 1.09989,1.09989 0 0 1 1.093224,1.093224 V 10.01867 a 1.093224,1.093224 0 0 1 -1.093224,1.093224 H 9.641237 A 1.086558,1.086558 0 0 1 8.548013,10.01867 V 8.8721178 a 1.093224,1.093224 0 0 1 1.093224,-1.093224 z"
     style="fill:#0071bc;stroke-width:0.6666"
     id="path103-4" />
  <path
     d="M 2.967154,8.4454937 A 0.426624,0.426624 0 0 0 2.54053,8.8721177 V 10.01867 a 0.426624,0.426624 0 0 0 0.426624,0.426624 H 6.780106 A 0.426624,0.426624 0 0 0 7.20673,10.01867 V 8.8721177 A 0.426624,0.426624 0 0 0 6.780106,8.4454937 H 2.967154 m 0,-0.6666 H 6.780106 A 1.09989,1.09989 0 0 1 7.87333,8.8721177 V 10.01867 A 1.093224,1.093224 0 0 1 6.780106,11.111894 H 2.967154 A 1.086558,1.086558 0 0 1 1.87393,10.01867 V 8.8721177 a 1.093224,1.093224 0 0 1 1.093224,-1.093224 z"
     style="fill:#0071bc;stroke-width:0.6666"
     id="path103-46" />
  <rect
     x="-22.126091"
     y="12.888106"
     width="5.9994001"
     height="3.3329999"
     rx="1.093224"
     style="fill:#0071bc;stroke-width:0.6666"
     id="rect191"
     transform="scale(-1,1)" />
</svg>
