<?xml version="1.0" encoding="UTF-8" standalone="no"?>
<svg
   viewBox="0 0 24 24"
   version="1.1"
   id="svg206"
   xmlns="http://www.w3.org/2000/svg"
   xmlns:svg="http://www.w3.org/2000/svg">
  <defs
     id="defs210" />
  <path
     d="m 7.6846794,15.554506 a 0.426624,0.426624 0 0 0 0.426624,-0.426624 V 13.98133 a 0.426624,0.426624 0 0 0 -0.426624,-0.426624 h -3.812952 a 0.426624,0.426624 0 0 0 -0.426624,0.426624 v 1.146552 a 0.426624,0.426624 0 0 0 0.426624,0.426624 h 3.812952 m 0,0.6666 H 3.8717274 A 1.09989,1.09989 0 0 1 2.7785034,15.127882 V 13.98133 a 1.093224,1.093224 0 0 1 1.093224,-1.093224 h 3.812952 a 1.086558,1.086558 0 0 1 1.093224,1.093224 v 1.146552 a 1.093224,1.093224 0 0 1 -1.093224,1.093224 z"
     style="fill:#0071bc;stroke-width:0.6666"
     id="path103" />
  <path
     d="m 14.358763,15.554506 a 0.426624,0.426624 0 0 0 0.426624,-0.426624 V 13.98133 a 0.426624,0.426624 0 0 0 -0.426624,-0.426624 h -3.812952 a 0.426624,0.426624 0 0 0 -0.426624,0.426624 v 1.146552 a 0.426624,0.426624 0 0 0 0.426624,0.426624 h 3.812952 m 0,0.6666 H 10.545811 A 1.09989,1.09989 0 0 1 9.4525874,15.127882 V 13.98133 a 1.093224,1.093224 0 0 1 1.0932236,-1.093224 h 3.812952 a 1.086558,1.086558 0 0 1 1.093224,1.093224 v 1.146552 a 1.093224,1.093224 0 0 1 -1.093224,1.093224 z"
     style="fill:#0071bc;stroke-width:0.6666"
     id="path103-4" />
  <path
     d="M 21.032846,15.554506 A 0.426624,0.426624 0 0 0 21.45947,15.127882 V 13.98133 A 0.426624,0.426624 0 0 0 21.032846,13.554706 H 17.219894 A 0.426624,0.426624 0 0 0 16.79327,13.98133 v 1.146552 a 0.426624,0.426624 0 0 0 0.426624,0.426624 h 3.812952 m 0,0.6666 H 17.219894 A 1.09989,1.09989 0 0 1 16.12667,15.127882 V 13.98133 a 1.093224,1.093224 0 0 1 1.093224,-1.093224 h 3.812952 a 1.086558,1.086558 0 0 1 1.093224,1.093224 v 1.146552 a 1.093224,1.093224 0 0 1 -1.093224,1.093224 z"
     style="fill:#0071bc;stroke-width:0.6666"
     id="path103-46" />
  <rect
     x="1.8739095"
     y="-11.111894"
     width="5.9994001"
     height="3.3329999"
     rx="1.093224"
     style="fill:#0071bc;stroke-width:0.6666"
     id="rect191"
     transform="scale(1,-1)" />
</svg>
