<?xml version="1.0" encoding="UTF-8" standalone="no"?>
<svg xmlns="http://www.w3.org/2000/svg" xmlns:svg="http://www.w3.org/2000/svg" viewBox="0 0 24 24" version="1.1" id="svg206">
  <defs id="defs210"/>
  <path d="m 16.767618,5.8908874 a 0.426624,0.426624 0 0 0 -0.426624,0.426624 v 1.146552 a 0.426624,0.426624 0 0 0 0.426624,0.426624 h 3.812952 a 0.426624,0.426624 0 0 0 0.426624,-0.426624 V 6.3175114 A 0.426624,0.426624 0 0 0 20.58057,5.8908874 h -3.812952 m 0,-0.6666 h 3.812952 a 1.09989,1.09989 0 0 1 1.093224,1.093224 v 1.146552 a 1.093224,1.093224 0 0 1 -1.093224,1.093224 h -3.812952 a 1.086558,1.086558 0 0 1 -1.093224,-1.093224 v -1.146552 a 1.093224,1.093224 0 0 1 1.093224,-1.093224 z" style="fill:#0071bc;stroke-width:0.6666" id="path103"/>
  <path d="M 10.093534,5.8908874 A 0.426624,0.426624 0 0 0 9.66691,6.3175114 v 1.146552 a 0.426624,0.426624 0 0 0 0.426624,0.426624 h 3.812952 a 0.426624,0.426624 0 0 0 0.426624,-0.426624 v -1.146552 a 0.426624,0.426624 0 0 0 -0.426624,-0.426624 h -3.812952 m 0,-0.6666 h 3.812952 a 1.09989,1.09989 0 0 1 1.093224,1.093224 v 1.146552 a 1.093224,1.093224 0 0 1 -1.093224,1.093224 H 10.093534 A 1.086558,1.086558 0 0 1 9.00031,7.4640634 v -1.146552 a 1.093224,1.093224 0 0 1 1.093224,-1.093224 z" style="fill:#0071bc;stroke-width:0.6666" id="path103-4"/>
  <path d="m 3.419451,5.8908873 a 0.426624,0.426624 0 0 0 -0.426624,0.426624 v 1.146552 a 0.426624,0.426624 0 0 0 0.426624,0.426624 H 7.232403 A 0.426624,0.426624 0 0 0 7.659027,7.4640633 V 6.3175113 A 0.426624,0.426624 0 0 0 7.232403,5.8908873 H 3.419451 m 0,-0.6666 h 3.812952 a 1.09989,1.09989 0 0 1 1.093224,1.093224 v 1.146552 A 1.093224,1.093224 0 0 1 7.232403,8.5572873 H 3.419451 A 1.086558,1.086558 0 0 1 2.326227,7.4640633 v -1.146552 a 1.093224,1.093224 0 0 1 1.093224,-1.093224 z" style="fill:#0071bc;stroke-width:0.6666" id="path103-46"/>
  <rect x="-21.673773" y="10.3335" width="5.9994001" height="3.3329999" rx="1.093224" style="fill:#0071bc;stroke-width:0.6666" id="rect191" transform="scale(-1,1)"/>
</svg>
