<?xml version="1.0" encoding="UTF-8" standalone="no"?>
<svg xmlns="http://www.w3.org/2000/svg" xmlns:svg="http://www.w3.org/2000/svg" viewBox="0 0 24 24" version="1.1" id="svg206">
  <defs id="defs210"/>
  <path d="m 7.2323824,5.8908874 a 0.426624,0.426624 0 0 1 0.426624,0.426624 v 1.146552 a 0.426624,0.426624 0 0 1 -0.426624,0.426624 h -3.812952 a 0.426624,0.426624 0 0 1 -0.426624,-0.426624 v -1.146552 a 0.426624,0.426624 0 0 1 0.426624,-0.426624 h 3.812952 m 0,-0.6666 h -3.812952 a 1.09989,1.09989 0 0 0 -1.093224,1.093224 v 1.146552 a 1.093224,1.093224 0 0 0 1.093224,1.093224 h 3.812952 a 1.086558,1.086558 0 0 0 1.093224,-1.093224 v -1.146552 a 1.093224,1.093224 0 0 0 -1.093224,-1.093224 z" style="fill:#0071bc;stroke-width:0.6666" id="path103"/>
  <path d="m 7.2323824,16.109292 a 0.426624,0.426624 0 0 1 0.426624,0.426624 v 1.146552 a 0.426624,0.426624 0 0 1 -0.426624,0.426624 h -3.812952 a 0.426624,0.426624 0 0 1 -0.426624,-0.426624 v -1.146552 a 0.426624,0.426624 0 0 1 0.426624,-0.426624 h 3.812952 m 0,-0.6666 h -3.812952 a 1.09989,1.09989 0 0 0 -1.093224,1.093224 v 1.146552 a 1.093224,1.093224 0 0 0 1.093224,1.093224 h 3.812952 a 1.086558,1.086558 0 0 0 1.093224,-1.093224 v -1.146552 a 1.093224,1.093224 0 0 0 -1.093224,-1.093224 z" style="fill:#0071bc;stroke-width:0.6666" id="path103-8"/>
  <path d="m 13.906466,5.8908874 a 0.426624,0.426624 0 0 1 0.426624,0.426624 v 1.146552 a 0.426624,0.426624 0 0 1 -0.426624,0.426624 H 10.093514 A 0.426624,0.426624 0 0 1 9.6668901,7.4640634 v -1.146552 a 0.426624,0.426624 0 0 1 0.4266239,-0.426624 h 3.812952 m 0,-0.6666 h -3.812952 a 1.09989,1.09989 0 0 0 -1.0932239,1.093224 v 1.146552 a 1.093224,1.093224 0 0 0 1.0932239,1.093224 h 3.812952 a 1.086558,1.086558 0 0 0 1.093224,-1.093224 v -1.146552 a 1.093224,1.093224 0 0 0 -1.093224,-1.093224 z" style="fill:#0071bc;stroke-width:0.6666" id="path103-4"/>
  <path d="m 13.906466,16.109292 a 0.426624,0.426624 0 0 1 0.426624,0.426624 v 1.146552 a 0.426624,0.426624 0 0 1 -0.426624,0.426624 H 10.093514 A 0.426624,0.426624 0 0 1 9.6668901,17.682468 v -1.146552 a 0.426624,0.426624 0 0 1 0.4266239,-0.426624 h 3.812952 m 0,-0.6666 h -3.812952 a 1.09989,1.09989 0 0 0 -1.0932239,1.093224 v 1.146552 a 1.093224,1.093224 0 0 0 1.0932239,1.093224 h 3.812952 a 1.086558,1.086558 0 0 0 1.093224,-1.093224 v -1.146552 a 1.093224,1.093224 0 0 0 -1.093224,-1.093224 z" style="fill:#0071bc;stroke-width:0.6666" id="path103-4-1"/>
  <path d="m 20.580549,5.8908873 a 0.426624,0.426624 0 0 1 0.426624,0.426624 v 1.146552 a 0.426624,0.426624 0 0 1 -0.426624,0.426624 h -3.812952 a 0.426624,0.426624 0 0 1 -0.426624,-0.426624 v -1.146552 a 0.426624,0.426624 0 0 1 0.426624,-0.426624 h 3.812952 m 0,-0.6666 h -3.812952 a 1.09989,1.09989 0 0 0 -1.093224,1.093224 v 1.146552 a 1.093224,1.093224 0 0 0 1.093224,1.093224 h 3.812952 a 1.086558,1.086558 0 0 0 1.093224,-1.093224 v -1.146552 a 1.093224,1.093224 0 0 0 -1.093224,-1.093224 z" style="fill:#0071bc;stroke-width:0.6666" id="path103-46"/>
  <path d="m 20.580549,16.109292 a 0.426624,0.426624 0 0 1 0.426624,0.426624 v 1.146552 a 0.426624,0.426624 0 0 1 -0.426624,0.426624 h -3.812952 a 0.426624,0.426624 0 0 1 -0.426624,-0.426624 v -1.146552 a 0.426624,0.426624 0 0 1 0.426624,-0.426624 h 3.812952 m 0,-0.6666 h -3.812952 a 1.09989,1.09989 0 0 0 -1.093224,1.093224 v 1.146552 a 1.093224,1.093224 0 0 0 1.093224,1.093224 h 3.812952 a 1.086558,1.086558 0 0 0 1.093224,-1.093224 v -1.146552 a 1.093224,1.093224 0 0 0 -1.093224,-1.093224 z" style="fill:#0071bc;stroke-width:0.6666" id="path103-46-5"/>
  <rect x="2.3262269" y="10.3335" width="5.9994001" height="3.3329999" rx="1.093224" style="fill:#0071bc;stroke-width:0.6666" id="rect191"/>
</svg>
