<?xml version="1.0" encoding="UTF-8" standalone="no"?>
<svg
   viewBox="0 0 24 24"
   version="1.1"
   id="svg206"
   xmlns="http://www.w3.org/2000/svg"
   xmlns:svg="http://www.w3.org/2000/svg">
  <defs
     id="defs210" />
  <path
     d="m 7.6846794,8.4454937 a 0.426624,0.426624 0 0 1 0.426624,0.426624 V 10.01867 a 0.426624,0.426624 0 0 1 -0.426624,0.426624 H 3.8717274 A 0.426624,0.426624 0 0 1 3.4451034,10.01867 V 8.8721177 a 0.426624,0.426624 0 0 1 0.426624,-0.426624 h 3.812952 m 0,-0.6666 h -3.812952 a 1.09989,1.09989 0 0 0 -1.093224,1.093224 V 10.01867 a 1.093224,1.093224 0 0 0 1.093224,1.093224 h 3.812952 A 1.086558,1.086558 0 0 0 8.7779034,10.01867 V 8.8721177 a 1.093224,1.093224 0 0 0 -1.093224,-1.093224 z"
     style="fill:#0071bc;stroke-width:0.6666"
     id="path103" />
  <path
     d="m 14.358763,8.4454937 a 0.426624,0.426624 0 0 1 0.426624,0.426624 V 10.01867 a 0.426624,0.426624 0 0 1 -0.426624,0.426624 H 10.545811 A 0.426624,0.426624 0 0 1 10.119187,10.01867 V 8.8721177 a 0.426624,0.426624 0 0 1 0.426624,-0.426624 h 3.812952 m 0,-0.6666 H 10.545811 A 1.09989,1.09989 0 0 0 9.4525874,8.8721177 V 10.01867 a 1.093224,1.093224 0 0 0 1.0932236,1.093224 h 3.812952 A 1.086558,1.086558 0 0 0 15.451987,10.01867 V 8.8721177 a 1.093224,1.093224 0 0 0 -1.093224,-1.093224 z"
     style="fill:#0071bc;stroke-width:0.6666"
     id="path103-4" />
  <path
     d="m 21.032846,8.4454937 a 0.426624,0.426624 0 0 1 0.426624,0.426624 V 10.01867 a 0.426624,0.426624 0 0 1 -0.426624,0.426624 H 17.219894 A 0.426624,0.426624 0 0 1 16.79327,10.01867 V 8.8721177 a 0.426624,0.426624 0 0 1 0.426624,-0.426624 h 3.812952 m 0,-0.6666 H 17.219894 A 1.09989,1.09989 0 0 0 16.12667,8.8721177 V 10.01867 a 1.093224,1.093224 0 0 0 1.093224,1.093224 h 3.812952 A 1.086558,1.086558 0 0 0 22.12607,10.01867 V 8.8721177 a 1.093224,1.093224 0 0 0 -1.093224,-1.093224 z"
     style="fill:#0071bc;stroke-width:0.6666"
     id="path103-46" />
  <rect
     x="1.8739095"
     y="12.888106"
     width="5.9994001"
     height="3.3329999"
     rx="1.093224"
     style="fill:#0071bc;stroke-width:0.6666"
     id="rect191" />
</svg>
