<?xml version="1.0" encoding="UTF-8" standalone="no"?>
<svg
   viewBox="0 0 24 24"
   version="1.1"
   id="svg206"
   xmlns="http://www.w3.org/2000/svg"
   xmlns:svg="http://www.w3.org/2000/svg">
  <defs
     id="defs210" />
  <path
     d="m 15.234362,5.8908874 a 0.426624,0.426624 0 0 0 -0.426624,0.426624 v 1.146552 a 0.426624,0.426624 0 0 0 0.426624,0.426624 h 3.812952 a 0.426624,0.426624 0 0 0 0.426624,-0.426624 v -1.146552 a 0.426624,0.426624 0 0 0 -0.426624,-0.426624 h -3.812952 m 0,-0.6666 h 3.812952 a 1.09989,1.09989 0 0 1 1.093224,1.093224 v 1.146552 a 1.093224,1.093224 0 0 1 -1.093224,1.093224 h -3.812952 a 1.086558,1.086558 0 0 1 -1.093224,-1.093224 v -1.146552 a 1.093224,1.093224 0 0 1 1.093224,-1.093224 z"
     style="fill:#0071bc;stroke-width:0.6666"
     id="path103" />
  <path
     d="m 15.234362,16.109292 a 0.426624,0.426624 0 0 0 -0.426624,0.426624 v 1.146552 a 0.426624,0.426624 0 0 0 0.426624,0.426624 h 3.812952 a 0.426624,0.426624 0 0 0 0.426624,-0.426624 v -1.146552 a 0.426624,0.426624 0 0 0 -0.426624,-0.426624 h -3.812952 m 0,-0.6666 h 3.812952 a 1.09989,1.09989 0 0 1 1.093224,1.093224 v 1.146552 a 1.093224,1.093224 0 0 1 -1.093224,1.093224 h -3.812952 a 1.086558,1.086558 0 0 1 -1.093224,-1.093224 v -1.146552 a 1.093224,1.093224 0 0 1 1.093224,-1.093224 z"
     style="fill:#0071bc;stroke-width:0.6666"
     id="path103-8" />
  <path
     d="m 8.5602784,5.8908874 a 0.426624,0.426624 0 0 0 -0.426624,0.426624 v 1.146552 a 0.426624,0.426624 0 0 0 0.426624,0.426624 H 12.37323 a 0.426624,0.426624 0 0 0 0.426624,-0.426624 V 6.3175114 A 0.426624,0.426624 0 0 0 12.37323,5.8908874 H 8.5602784 m 0,-0.6666 H 12.37323 a 1.09989,1.09989 0 0 1 1.093224,1.093224 v 1.146552 A 1.093224,1.093224 0 0 1 12.37323,8.5572874 H 8.5602784 a 1.086558,1.086558 0 0 1 -1.093224,-1.093224 v -1.146552 a 1.093224,1.093224 0 0 1 1.093224,-1.093224 z"
     style="fill:#0071bc;stroke-width:0.6666"
     id="path103-4" />
  <path
     d="m 8.5602784,16.109292 a 0.426624,0.426624 0 0 0 -0.426624,0.426624 v 1.146552 a 0.426624,0.426624 0 0 0 0.426624,0.426624 H 12.37323 a 0.426624,0.426624 0 0 0 0.426624,-0.426624 V 16.535916 A 0.426624,0.426624 0 0 0 12.37323,16.109292 H 8.5602784 m 0,-0.6666 H 12.37323 a 1.09989,1.09989 0 0 1 1.093224,1.093224 v 1.146552 A 1.093224,1.093224 0 0 1 12.37323,18.775692 H 8.5602784 a 1.086558,1.086558 0 0 1 -1.093224,-1.093224 v -1.146552 a 1.093224,1.093224 0 0 1 1.093224,-1.093224 z"
     style="fill:#0071bc;stroke-width:0.6666"
     id="path103-4-1" />
  <path
     d="m 1.8861954,5.8908873 a 0.426624,0.426624 0 0 0 -0.426624,0.426624 v 1.146552 a 0.426624,0.426624 0 0 0 0.426624,0.426624 h 3.812952 a 0.426624,0.426624 0 0 0 0.426624,-0.426624 v -1.146552 a 0.426624,0.426624 0 0 0 -0.426624,-0.426624 h -3.812952 m 0,-0.6666 h 3.812952 a 1.09989,1.09989 0 0 1 1.093224,1.093224 v 1.146552 a 1.093224,1.093224 0 0 1 -1.093224,1.093224 H 1.8861954 A 1.086558,1.086558 0 0 1 0.79297144,7.4640633 V 6.3175113 A 1.093224,1.093224 0 0 1 1.8861954,5.2242873 Z"
     style="fill:#0071bc;stroke-width:0.6666"
     id="path103-46" />
  <path
     d="m 1.8861954,16.109292 a 0.426624,0.426624 0 0 0 -0.426624,0.426624 v 1.146552 a 0.426624,0.426624 0 0 0 0.426624,0.426624 h 3.812952 a 0.426624,0.426624 0 0 0 0.426624,-0.426624 v -1.146552 a 0.426624,0.426624 0 0 0 -0.426624,-0.426624 h -3.812952 m 0,-0.6666 h 3.812952 a 1.09989,1.09989 0 0 1 1.093224,1.093224 v 1.146552 a 1.093224,1.093224 0 0 1 -1.093224,1.093224 H 1.8861954 A 1.086558,1.086558 0 0 1 0.79297144,17.682468 V 16.535916 A 1.093224,1.093224 0 0 1 1.8861954,15.442692 Z"
     style="fill:#0071bc;stroke-width:0.6666"
     id="path103-46-5" />
  <rect
     x="-23.207048"
     y="10.3335"
     width="5.9994001"
     height="3.3329999"
     rx="1.093224"
     style="fill:#0071bc;stroke-width:0.6666"
     id="rect191"
     transform="scale(-1,1)" />
</svg>
