<?xml version="1.0" encoding="UTF-8" standalone="no"?>
<svg xmlns="http://www.w3.org/2000/svg" xmlns:svg="http://www.w3.org/2000/svg" viewBox="0 0 24 24" version="1.1" id="svg206" xml:space="preserve"><defs id="defs210"/><rect x="6.9409437" y="10.333501" width="4.5" height="3.3329999" rx="0.82000005" style="fill:#0071bc;stroke-width:0.577322" id="rect191"/><path d="m 5.0028189,5.8908873 a 0.31999889,0.426624 0 0 1 0.3199988,0.426624 v 1.146552 A 0.31999889,0.426624 0 0 1 5.0028189,7.8906873 H 2.1428287 a 0.31999889,0.426624 0 0 1 -0.319999,-0.426624 v -1.146552 a 0.31999889,0.426624 0 0 1 0.319999,-0.426624 h 2.8599902 m 0,-0.6666 H 2.1428287 a 0.82499717,1.09989 0 0 0 -0.8199972,1.093224 v 1.146552 a 0.81999718,1.093224 0 0 0 0.8199972,1.093224 H 5.0028189 A 0.81499721,1.086558 0 0 0 5.8228161,7.4640633 V 6.3175113 A 0.81999718,1.093224 0 0 0 5.0028189,5.2242873 Z" style="fill:#0071bc;stroke-width:0.57732" id="path103"/><path d="m 10.620931,5.8908873 a 0.31999889,0.426624 0 0 1 0.319999,0.426624 v 1.146552 a 0.31999889,0.426624 0 0 1 -0.319999,0.426624 H 7.7609409 a 0.31999889,0.426624 0 0 1 -0.319999,-0.426624 v -1.146552 a 0.31999889,0.426624 0 0 1 0.319999,-0.426624 h 2.8599901 m 0,-0.6666 H 7.7609409 a 0.82499717,1.09989 0 0 0 -0.8199972,1.093224 v 1.146552 a 0.81999718,1.093224 0 0 0 0.8199972,1.093224 h 2.8599901 a 0.81499721,1.086558 0 0 0 0.819998,-1.093224 v -1.146552 a 0.81999718,1.093224 0 0 0 -0.819998,-1.093224 z" style="fill:#0071bc;stroke-width:0.57732" id="path103-46-3-5"/><rect x="-17.059055" y="10.333501" width="4.5" height="3.3329999" rx="0.82000005" style="fill:#0071bc;stroke-width:0.577322" id="rect191-4" transform="scale(-1,1)"/><path d="m 18.99718,5.8908872 a 0.31999889,0.426624 0 0 0 -0.319999,0.426624 v 1.146552 a 0.31999889,0.426624 0 0 0 0.319999,0.426624 h 2.85999 a 0.31999889,0.426624 0 0 0 0.319999,-0.426624 V 6.3175112 A 0.31999889,0.426624 0 0 0 21.85717,5.8908872 h -2.85999 m 0,-0.6666 h 2.85999 a 0.82499717,1.09989 0 0 1 0.819998,1.093224 v 1.146552 a 0.81999718,1.093224 0 0 1 -0.819998,1.093224 h -2.85999 a 0.81499721,1.086558 0 0 1 -0.819997,-1.093224 v -1.146552 a 0.81999718,1.093224 0 0 1 0.819997,-1.093224 z" style="fill:#0071bc;stroke-width:0.57732" id="path103-9"/><path d="m 13.379068,5.8908872 a 0.31999889,0.426624 0 0 0 -0.319999,0.426624 v 1.146552 a 0.31999889,0.426624 0 0 0 0.319999,0.426624 h 2.85999 a 0.31999889,0.426624 0 0 0 0.319999,-0.426624 v -1.146552 a 0.31999889,0.426624 0 0 0 -0.319999,-0.426624 h -2.85999 m 0,-0.6666 h 2.85999 a 0.82499717,1.09989 0 0 1 0.819998,1.093224 v 1.146552 a 0.81999718,1.093224 0 0 1 -0.819998,1.093224 h -2.85999 a 0.81499721,1.086558 0 0 1 -0.819997,-1.093224 v -1.146552 a 0.81999718,1.093224 0 0 1 0.819997,-1.093224 z" style="fill:#0071bc;stroke-width:0.57732" id="path103-46-3-5-5"/><g id="g13621" transform="translate(-0.02736609,0.01555188)"><path d="m 10.518001,14.588111 c 0.05326,0.0355 0.106513,0.0355 0.142017,-0.0089 l 0.470429,-0.51481 c 0.115389,0.05326 0.248529,0.08876 0.372794,0.115389 l 0.07101,0.665702 c 0,0.06213 0.0355,0.09764 0.106512,0.09764 h 0.683455 c 0.07101,0 0.106512,-0.0355 0.115388,-0.09764 l 0.07101,-0.665702 c 0.124265,-0.02663 0.239653,-0.07101 0.355041,-0.115389 l 0.461554,0.51481 c 0.04438,0.04438 0.08876,0.04438 0.142016,0.0089 l 0.55919,-0.399421 c 0.05326,-0.04438 0.06213,-0.08876 0.02663,-0.142017 l -0.346165,-0.612446 c 0.06213,-0.07101 0.115389,-0.150892 0.168645,-0.230777 l 0.710082,0.150893 c 0.06213,0.02663 0.09764,-0.0089 0.124265,-0.07101 l 0.213024,-0.647951 c 0.01775,-0.06213 0,-0.09764 -0.05326,-0.13314 l -0.656826,-0.292909 c 0.0089,-0.06213 0.0089,-0.13314 0.0089,-0.195273 0,-0.05326 0,-0.115388 -0.0089,-0.168644 l 0.656826,-0.292909 c 0.05326,-0.0355 0.07101,-0.07101 0.05326,-0.133141 l -0.213024,-0.64795 c -0.02663,-0.06213 -0.06213,-0.09764 -0.124265,-0.07101 l -0.710082,0.150892 c -0.05326,-0.07988 -0.106513,-0.159768 -0.168645,-0.239652 l 0.346165,-0.603571 c 0.0355,-0.053256 0.02663,-0.097636 -0.02663,-0.1420165 l -0.55919,-0.3994213 c -0.05326,-0.035504 -0.09764,-0.035504 -0.142016,0.00888 l -0.461554,0.5148097 c -0.115388,-0.04438 -0.230776,-0.08876 -0.355041,-0.1153884 l -0.07101,-0.6657022 c -0.0089,-0.062132 -0.04438,-0.097636 -0.115388,-0.097636 h -0.683455 c -0.07101,0 -0.106512,0.035504 -0.106512,0.097636 l -0.07101,0.6657022 c -0.124265,0.026628 -0.257405,0.062132 -0.372794,0.1153884 L 10.660018,9.4755172 c -0.0355,-0.04438 -0.08876,-0.04438 -0.142017,-0.00888 L 9.9588107,9.8660624 c -0.05326,0.04438 -0.06213,0.08876 -0.0355,0.1420166 l 0.3461653,0.603571 c -0.06213,0.07101 -0.124264,0.150892 -0.17752,0.230776 L 9.4085007,10.70041 c -0.07101,-0.02663 -0.115388,0.0089 -0.13314,0.07101 l -0.213025,0.64795 c -0.01775,0.06213 0,0.09764 0.06213,0.133141 l 0.630198,0.284033 c -0.0089,0.06213 -0.0089,0.115388 -0.0089,0.17752 0,0.07101 0,0.133141 0.0089,0.204149 l -0.630198,0.284033 c -0.06213,0.0355 -0.07988,0.07101 -0.06213,0.13314 l 0.213025,0.647951 c 0.01775,0.06213 0.06213,0.09764 0.13314,0.07101 l 0.6923313,-0.150893 c 0.05326,0.08876 0.106512,0.168645 0.177521,0.239653 l -0.3550423,0.60357 c -0.02663,0.05326 -0.01775,0.09764 0.0355,0.142017 z m 1.508925,-0.949735 c -0.931983,0 -1.677569,-0.718959 -1.677569,-1.624314 0,-0.878727 0.745586,-1.597685 1.677569,-1.597685 0.905355,0 1.642066,0.718958 1.642066,1.597685 0,0.905355 -0.736711,1.624314 -1.642066,1.624314 z m 0,-0.896479 c 0.408298,0 0.718959,-0.328413 0.718959,-0.718959 0,-0.381669 -0.310661,-0.710082 -0.718959,-0.710082 -0.417173,0 -0.73671,0.328413 -0.73671,0.710082 0,0.390546 0.319537,0.718959 0.73671,0.718959 z" id="path6609" style="fill:#333333;stroke-width:0.739669"/><path style="fill:none;stroke:#333333;stroke-width:0.393617;stroke-dasharray:1.57447, 0.393617;stroke-dashoffset:0;stroke-opacity:1" d="M 11.991281,0.44831428 V 23.575314" id="path629"/></g></svg>
