<?xml version="1.0" encoding="UTF-8"?>
<svg xmlns="http://www.w3.org/2000/svg" version="1.1" viewBox="0 0 24 24">
 <path d="m10.065 8.982a0.42662 0.42662 0 0 0-0.42662 0.42662v1.1466a0.42662 0.42662 0 0 0 0.42662 0.42662h3.813a0.42662 0.42662 0 0 0 0.42662-0.42662v-1.1466a0.42662 0.42662 0 0 0-0.42662-0.42662h-3.813m0-0.6666h3.813a1.0999 1.0999 0 0 1 1.0932 1.0932v1.1466a1.0932 1.0932 0 0 1-1.0932 1.0932h-3.813a1.0866 1.0866 0 0 1-1.0932-1.0932v-1.1466a1.0932 1.0932 0 0 1 1.0932-1.0932z" fill="#0071bc" stroke-width=".6666"/>
 <path d="m3.3913 8.982a0.42662 0.42662 0 0 0-0.42662 0.42662v1.1466a0.42662 0.42662 0 0 0 0.42662 0.42662h3.813a0.42662 0.42662 0 0 0 0.42662-0.42662v-1.1466a0.42662 0.42662 0 0 0-0.42662-0.42662h-3.813m0-0.6666h3.813a1.0999 1.0999 0 0 1 1.0932 1.0932v1.1466a1.0932 1.0932 0 0 1-1.0932 1.0932h-3.813a1.0866 1.0866 0 0 1-1.0932-1.0932v-1.1466a1.0932 1.0932 0 0 1 1.0932-1.0932z" fill="#0071bc" stroke-width=".6666"/>
 <rect transform="scale(-1,1)" x="-21.702" y="10.334" width="5.9994" height="3.333" rx="1.0932" ry="1.0932" fill="#0071bc" stroke-width=".6666"/>
</svg>
