<?xml version="1.0" encoding="UTF-8" standalone="no"?>
<svg
   viewBox="0 0 24 24"
   version="1.1"
   id="svg206"
   xmlns="http://www.w3.org/2000/svg"
   xmlns:svg="http://www.w3.org/2000/svg">
  <defs
     id="defs210" />
  <path
     d="M 16.315321,15.554506 A 0.426624,0.426624 0 0 1 15.888697,15.127882 V 13.98133 a 0.426624,0.426624 0 0 1 0.426624,-0.426624 h 3.812952 a 0.426624,0.426624 0 0 1 0.426624,0.426624 v 1.146552 a 0.426624,0.426624 0 0 1 -0.426624,0.426624 h -3.812952 m 0,0.6666 h 3.812952 a 1.09989,1.09989 0 0 0 1.093224,-1.093224 V 13.98133 a 1.093224,1.093224 0 0 0 -1.093224,-1.093224 h -3.812952 a 1.086558,1.086558 0 0 0 -1.093224,1.093224 v 1.146552 a 1.093224,1.093224 0 0 0 1.093224,1.093224 z"
     style="fill:#0071bc;stroke-width:0.6666"
     id="path103" />
  <path
     d="M 9.641237,15.554506 A 0.426624,0.426624 0 0 1 9.214613,15.127882 V 13.98133 a 0.426624,0.426624 0 0 1 0.426624,-0.426624 h 3.812952 a 0.426624,0.426624 0 0 1 0.426624,0.426624 v 1.146552 a 0.426624,0.426624 0 0 1 -0.426624,0.426624 H 9.641237 m 0,0.6666 h 3.812952 a 1.09989,1.09989 0 0 0 1.093224,-1.093224 V 13.98133 A 1.093224,1.093224 0 0 0 13.454189,12.888106 H 9.641237 A 1.086558,1.086558 0 0 0 8.548013,13.98133 v 1.146552 a 1.093224,1.093224 0 0 0 1.093224,1.093224 z"
     style="fill:#0071bc;stroke-width:0.6666"
     id="path103-4" />
  <path
     d="M 2.967154,15.554506 A 0.426624,0.426624 0 0 1 2.54053,15.127882 V 13.98133 A 0.426624,0.426624 0 0 1 2.967154,13.554706 H 6.780106 A 0.426624,0.426624 0 0 1 7.20673,13.98133 v 1.146552 A 0.426624,0.426624 0 0 1 6.780106,15.554506 H 2.967154 m 0,0.6666 H 6.780106 A 1.09989,1.09989 0 0 0 7.87333,15.127882 V 13.98133 A 1.093224,1.093224 0 0 0 6.780106,12.888106 H 2.967154 A 1.086558,1.086558 0 0 0 1.87393,13.98133 v 1.146552 a 1.093224,1.093224 0 0 0 1.093224,1.093224 z"
     style="fill:#0071bc;stroke-width:0.6666"
     id="path103-46" />
  <rect
     x="-22.126091"
     y="-11.111894"
     width="5.9994001"
     height="3.3329999"
     rx="1.093224"
     style="fill:#0071bc;stroke-width:0.6666"
     id="rect191"
     transform="scale(-1)" />
</svg>
