<?xml version="1.0" encoding="UTF-8" standalone="no"?>
<svg
   viewBox="0 0 24 24"
   version="1.1"
   id="svg206"
   xmlns="http://www.w3.org/2000/svg"
   xmlns:svg="http://www.w3.org/2000/svg">
  <defs
     id="defs210" />
  <path
     d="m 8.7656373,5.8908874 a 0.426624,0.426624 0 0 1 0.426624,0.426624 v 1.146552 a 0.426624,0.426624 0 0 1 -0.426624,0.426624 h -3.812952 a 0.426624,0.426624 0 0 1 -0.426624,-0.426624 v -1.146552 a 0.426624,0.426624 0 0 1 0.426624,-0.426624 h 3.812952 m 0,-0.6666 h -3.812952 a 1.09989,1.09989 0 0 0 -1.093224,1.093224 v 1.146552 a 1.093224,1.093224 0 0 0 1.093224,1.093224 h 3.812952 a 1.086558,1.086558 0 0 0 1.093224,-1.093224 v -1.146552 a 1.093224,1.093224 0 0 0 -1.093224,-1.093224 z"
     style="fill:#0071bc;stroke-width:0.6666"
     id="path103" />
  <path
     d="m 15.439721,5.8908874 a 0.426624,0.426624 0 0 1 0.426624,0.426624 v 1.146552 a 0.426624,0.426624 0 0 1 -0.426624,0.426624 h -3.812952 a 0.426624,0.426624 0 0 1 -0.426624,-0.426624 v -1.146552 a 0.426624,0.426624 0 0 1 0.426624,-0.426624 h 3.812952 m 0,-0.6666 h -3.812952 a 1.09989,1.09989 0 0 0 -1.093224,1.093224 v 1.146552 a 1.093224,1.093224 0 0 0 1.093224,1.093224 h 3.812952 a 1.086558,1.086558 0 0 0 1.093224,-1.093224 v -1.146552 a 1.093224,1.093224 0 0 0 -1.093224,-1.093224 z"
     style="fill:#0071bc;stroke-width:0.6666"
     id="path103-4" />
  <path
     d="m 22.113804,5.8908873 a 0.426624,0.426624 0 0 1 0.426624,0.426624 v 1.146552 a 0.426624,0.426624 0 0 1 -0.426624,0.426624 h -3.812952 a 0.426624,0.426624 0 0 1 -0.426624,-0.426624 v -1.146552 a 0.426624,0.426624 0 0 1 0.426624,-0.426624 h 3.812952 m 0,-0.6666 h -3.812952 a 1.09989,1.09989 0 0 0 -1.093224,1.093224 v 1.146552 a 1.093224,1.093224 0 0 0 1.093224,1.093224 h 3.812952 a 1.086558,1.086558 0 0 0 1.093224,-1.093224 v -1.146552 a 1.093224,1.093224 0 0 0 -1.093224,-1.093224 z"
     style="fill:#0071bc;stroke-width:0.6666"
     id="path103-46" />
  <rect
     x="0.79295087"
     y="10.3335"
     width="5.9994001"
     height="3.3329999"
     rx="1.093224"
     style="fill:#0071bc;stroke-width:0.6666"
     id="rect191" />
</svg>
