<?xml version="1.0" encoding="UTF-8" standalone="no"?>
<svg xmlns="http://www.w3.org/2000/svg" xmlns:svg="http://www.w3.org/2000/svg" viewBox="0 0 24 24" version="1.1" id="svg206" xml:space="preserve"><defs id="defs210"/><rect x="9.0002995" y="-6.4970474" width="5.9994001" height="3.3329999" rx="1.093224" style="fill:#0071bc;stroke-width:0.6666" id="rect191" transform="scale(1,-1)"/><g id="g363" transform="translate(0,-2.0602396)"><path d="m 17.735241,22.229592 a 0.426624,0.426624 0 0 0 0.426624,-0.426624 v -1.146552 a 0.426624,0.426624 0 0 0 -0.426624,-0.426624 h -3.812952 a 0.426624,0.426624 0 0 0 -0.426624,0.426624 v 1.146552 a 0.426624,0.426624 0 0 0 0.426624,0.426624 h 3.812952 m 0,0.6666 h -3.812952 a 1.09989,1.09989 0 0 1 -1.093224,-1.093224 v -1.146552 a 1.093224,1.093224 0 0 1 1.093224,-1.093224 h 3.812952 a 1.086558,1.086558 0 0 1 1.093224,1.093224 v 1.146552 a 1.093224,1.093224 0 0 1 -1.093224,1.093224 z" style="fill:#0071bc;stroke-width:0.6666" id="path103-46-7"/><path d="m 10.077691,22.229592 a 0.426624,0.426624 0 0 0 0.426624,-0.426623 V 20.656417 A 0.426624,0.426624 0 0 0 10.077691,20.229792 H 6.2647389 a 0.426624,0.426624 0 0 0 -0.426624,0.426625 v 1.146552 a 0.426624,0.426624 0 0 0 0.426624,0.426623 h 3.8129521 m 0,0.6666 H 6.2647389 a 1.09989,1.09989 0 0 1 -1.093224,-1.093223 v -1.146552 a 1.093224,1.093224 0 0 1 1.093224,-1.093224 h 3.8129521 a 1.086558,1.086558 0 0 1 1.093224,1.093224 v 1.146552 a 1.093224,1.093224 0 0 1 -1.093224,1.093223 z" style="fill:#0071bc;stroke-width:0.6666" id="path103-46-7-9"/></g><g id="g359" transform="translate(0,-2.7193956)"><path d="m 17.735241,18.109113 a 0.426624,0.426624 0 0 0 0.426624,-0.426624 v -1.146552 a 0.426624,0.426624 0 0 0 -0.426624,-0.426624 h -3.812952 a 0.426624,0.426624 0 0 0 -0.426624,0.426624 v 1.146552 a 0.426624,0.426624 0 0 0 0.426624,0.426624 h 3.812952 m 0,0.6666 h -3.812952 a 1.09989,1.09989 0 0 1 -1.093224,-1.093224 v -1.146552 a 1.093224,1.093224 0 0 1 1.093224,-1.093224 h 3.812952 a 1.086558,1.086558 0 0 1 1.093224,1.093224 v 1.146552 a 1.093224,1.093224 0 0 1 -1.093224,1.093224 z" style="fill:#0071bc;stroke-width:0.6666" id="path103-46"/><g id="g354"><path d="m 10.077691,18.109113 a 0.426624,0.426624 0 0 0 0.426624,-0.426624 V 16.535937 A 0.426624,0.426624 0 0 0 10.077691,16.109313 H 6.2647389 a 0.426624,0.426624 0 0 0 -0.426624,0.426624 v 1.146552 a 0.426624,0.426624 0 0 0 0.426624,0.426624 h 3.8129521 m 0,0.6666 H 6.2647389 a 1.09989,1.09989 0 0 1 -1.093224,-1.093224 v -1.146552 a 1.093224,1.093224 0 0 1 1.093224,-1.093224 h 3.8129521 a 1.086558,1.086558 0 0 1 1.093224,1.093224 v 1.146552 a 1.093224,1.093224 0 0 1 -1.093224,1.093224 z" style="fill:#0071bc;stroke-width:0.6666" id="path103"/></g></g><g id="g351" transform="translate(0,-2.3898386)"><path d="m 17.735241,12.999921 a 0.426624,0.426624 0 0 0 0.426624,-0.426624 v -1.146552 a 0.426624,0.426624 0 0 0 -0.426624,-0.426624 h -3.812952 a 0.426624,0.426624 0 0 0 -0.426624,0.426624 v 1.146552 a 0.426624,0.426624 0 0 0 0.426624,0.426624 h 3.812952 m 0,0.6666 h -3.812952 a 1.09989,1.09989 0 0 1 -1.093224,-1.093224 v -1.146552 a 1.093224,1.093224 0 0 1 1.093224,-1.093224 h 3.812952 a 1.086558,1.086558 0 0 1 1.093224,1.093224 v 1.146552 a 1.093224,1.093224 0 0 1 -1.093224,1.093224 z" style="fill:#0071bc;stroke-width:0.6666" id="path103-46-3"/><path d="m 10.077691,12.999921 a 0.426624,0.426624 0 0 0 0.426624,-0.426624 V 11.426745 A 0.426624,0.426624 0 0 0 10.077691,11.000121 H 6.2647389 a 0.426624,0.426624 0 0 0 -0.426624,0.426624 v 1.146552 a 0.426624,0.426624 0 0 0 0.426624,0.426624 h 3.8129521 m 0,0.6666 H 6.2647389 a 1.09989,1.09989 0 0 1 -1.093224,-1.093224 v -1.146552 a 1.093224,1.093224 0 0 1 1.093224,-1.093224 h 3.8129521 a 1.086558,1.086558 0 0 1 1.093224,1.093224 v 1.146552 a 1.093224,1.093224 0 0 1 -1.093224,1.093224 z" style="fill:#0071bc;stroke-width:0.6666" id="path103-46-3-5"/></g></svg>
