<?xml version="1.0" encoding="UTF-8" standalone="no"?>
<svg xmlns="http://www.w3.org/2000/svg" xmlns:svg="http://www.w3.org/2000/svg" viewBox="0 0 24 24" version="1.1" id="svg206" xml:space="preserve"><defs id="defs210"/><rect x="9.0002995" y="7.7168097" width="5.9994001" height="3.3329999" rx="1.093224" style="fill:#0071bc;stroke-width:0.6666" id="rect191"/><path d="m 6.7800854,3.2741974 a 0.426624,0.426624 0 0 1 0.426624,0.426624 v 1.146552 a 0.426624,0.426624 0 0 1 -0.426624,0.426624 h -3.812952 a 0.426624,0.426624 0 0 1 -0.426624,-0.426624 v -1.146552 a 0.426624,0.426624 0 0 1 0.426624,-0.426624 h 3.812952 m 0,-0.6666 h -3.812952 a 1.09989,1.09989 0 0 0 -1.093224,1.093224 v 1.146552 a 1.093224,1.093224 0 0 0 1.093224,1.093224 h 3.812952 a 1.086558,1.086558 0 0 0 1.093224,-1.093224 v -1.146552 a 1.093224,1.093224 0 0 0 -1.093224,-1.093224 z" style="fill:#0071bc;stroke-width:0.6666" id="path103"/><path d="m 6.7800854,8.3833891 a 0.426624,0.426624 0 0 1 0.426624,0.426624 v 1.146552 A 0.426624,0.426624 0 0 1 6.7800854,10.383189 H 2.9671334 A 0.426624,0.426624 0 0 1 2.5405094,9.9565651 v -1.146552 a 0.426624,0.426624 0 0 1 0.426624,-0.426624 h 3.812952 m 0,-0.6666 h -3.812952 a 1.09989,1.09989 0 0 0 -1.093224,1.093224 v 1.146552 a 1.093224,1.093224 0 0 0 1.093224,1.0932239 h 3.812952 a 1.086558,1.086558 0 0 0 1.093224,-1.0932239 v -1.146552 a 1.093224,1.093224 0 0 0 -1.093224,-1.093224 z" style="fill:#0071bc;stroke-width:0.6666" id="path103-46-3-5"/><rect x="8.986167" y="-16.28319" width="5.9994001" height="3.3329999" rx="1.093224" style="fill:#0071bc;stroke-width:0.6666" id="rect191-3" transform="scale(1,-1)"/><path d="m 6.7659506,20.725803 a 0.426624,0.426624 0 0 0 0.426624,-0.426624 v -1.146552 a 0.426624,0.426624 0 0 0 -0.426624,-0.426624 h -3.812952 a 0.426624,0.426624 0 0 0 -0.426624,0.426624 v 1.146552 a 0.426624,0.426624 0 0 0 0.426624,0.426624 h 3.812952 m 0,0.6666 h -3.812952 a 1.09989,1.09989 0 0 1 -1.093224,-1.093224 v -1.146552 a 1.093224,1.093224 0 0 1 1.093224,-1.093224 h 3.812952 a 1.086558,1.086558 0 0 1 1.093224,1.093224 v 1.146552 a 1.093224,1.093224 0 0 1 -1.093224,1.093224 z" style="fill:#0071bc;stroke-width:0.6666" id="path103-2"/><path d="m 6.7659506,15.616611 a 0.426624,0.426624 0 0 0 0.426624,-0.426624 v -1.146552 a 0.426624,0.426624 0 0 0 -0.426624,-0.426624 h -3.812952 a 0.426624,0.426624 0 0 0 -0.426624,0.426624 v 1.146552 a 0.426624,0.426624 0 0 0 0.426624,0.426624 h 3.812952 m 0,0.6666 h -3.812952 a 1.09989,1.09989 0 0 1 -1.093224,-1.093224 v -1.146552 a 1.093224,1.093224 0 0 1 1.093224,-1.093224 h 3.812952 a 1.086558,1.086558 0 0 1 1.093224,1.093224 v 1.146552 a 1.093224,1.093224 0 0 1 -1.093224,1.093224 z" style="fill:#0071bc;stroke-width:0.6666" id="path103-46-3-5-4"/><g id="g10362" transform="translate(-0.01368303,-0.01555208)"><path d="m 10.490635,14.603663 c 0.05326,0.0355 0.106513,0.0355 0.142017,-0.0089 l 0.470429,-0.51481 c 0.115389,0.05326 0.248529,0.08876 0.372794,0.115389 l 0.07101,0.665702 c 0,0.06213 0.0355,0.09764 0.106512,0.09764 h 0.683455 c 0.07101,0 0.106512,-0.0355 0.115388,-0.09764 l 0.07101,-0.665702 c 0.124265,-0.02663 0.239653,-0.07101 0.355041,-0.115389 l 0.461554,0.51481 c 0.04438,0.04438 0.08876,0.04438 0.142016,0.0089 l 0.55919,-0.399421 c 0.05326,-0.04438 0.06213,-0.08876 0.02663,-0.142017 l -0.346165,-0.612446 c 0.06213,-0.07101 0.115389,-0.150892 0.168645,-0.230777 l 0.710082,0.150893 c 0.06213,0.02663 0.09764,-0.0089 0.124265,-0.07101 l 0.213024,-0.647951 c 0.01775,-0.06213 0,-0.09764 -0.05326,-0.13314 l -0.656826,-0.292909 c 0.0089,-0.06213 0.0089,-0.13314 0.0089,-0.195273 0,-0.05326 0,-0.115388 -0.0089,-0.168644 l 0.656826,-0.292909 c 0.05326,-0.0355 0.07101,-0.07101 0.05326,-0.133141 l -0.213024,-0.64795 c -0.02663,-0.06213 -0.06213,-0.09764 -0.124265,-0.07101 l -0.710082,0.150892 c -0.05326,-0.07988 -0.106513,-0.159768 -0.168645,-0.239652 l 0.346165,-0.603571 c 0.0355,-0.053256 0.02663,-0.097636 -0.02663,-0.1420166 l -0.55919,-0.3994213 c -0.05326,-0.035504 -0.09764,-0.035504 -0.142016,0.00888 L 12.878291,10.005879 C 12.762903,9.9614988 12.647515,9.9171188 12.52325,9.8904904 L 12.45224,9.2247882 c -0.0089,-0.062132 -0.04438,-0.097636 -0.115388,-0.097636 h -0.683455 c -0.07101,0 -0.106512,0.035504 -0.106512,0.097636 l -0.07101,0.6657022 C 11.35161,9.9171184 11.21847,9.9526224 11.103081,10.005879 L 10.632652,9.4910691 c -0.0355,-0.04438 -0.08876,-0.04438 -0.142017,-0.00888 L 9.9314446,9.8816143 c -0.05326,0.04438 -0.06213,0.08876 -0.0355,0.1420167 l 0.3461654,0.603571 c -0.06213,0.07101 -0.124264,0.150892 -0.17752,0.230776 L 9.3811346,10.715962 c -0.07101,-0.02663 -0.115388,0.0089 -0.13314,0.07101 l -0.213025,0.64795 c -0.01775,0.06213 0,0.09764 0.06213,0.133141 l 0.630198,0.284033 c -0.0089,0.06213 -0.0089,0.115388 -0.0089,0.17752 0,0.07101 0,0.133141 0.0089,0.204149 l -0.630198,0.284033 c -0.06213,0.0355 -0.07988,0.07101 -0.06213,0.13314 l 0.213025,0.647951 c 0.01775,0.06213 0.06213,0.09764 0.13314,0.07101 l 0.6923314,-0.150893 c 0.05326,0.08876 0.106512,0.168645 0.177521,0.239653 l -0.3550424,0.60357 c -0.02663,0.05326 -0.01775,0.09764 0.0355,0.142017 z m 1.508925,-0.949735 c -0.931983,0 -1.677569,-0.718959 -1.677569,-1.624314 0,-0.878727 0.745586,-1.597685 1.677569,-1.597685 0.905355,0 1.642066,0.718958 1.642066,1.597685 0,0.905355 -0.736711,1.624314 -1.642066,1.624314 z m 0,-0.896479 c 0.408298,0 0.718959,-0.328413 0.718959,-0.718959 0,-0.381669 -0.310661,-0.710082 -0.718959,-0.710082 -0.417173,0 -0.73671,0.328413 -0.73671,0.710082 0,0.390546 0.319537,0.718959 0.73671,0.718959 z" id="path6609" style="fill:#333333;stroke-width:0.739669"/><path style="fill:none;stroke:#333333;stroke-width:0.393617;stroke-dasharray:1.57447, 0.393617;stroke-dashoffset:0;stroke-opacity:1" d="M 23.5635,12 H 0.43650004" id="path629"/></g></svg>
