<?xml version="1.0" encoding="UTF-8" standalone="no"?>
<svg xmlns="http://www.w3.org/2000/svg" xmlns:svg="http://www.w3.org/2000/svg" viewBox="0 0 24 24" version="1.1" id="svg206" xml:space="preserve"><defs id="defs210"/><rect x="-15.003004" y="17.502953" width="5.9994001" height="3.3329999" rx="1.093224" style="fill:#0071bc;stroke-width:0.6666" id="rect191" transform="scale(-1,1)"/><path d="m 8.6268631,3.830647 a 0.426624,0.426624 0 0 0 -0.426624,0.426624 v 1.146552 a 0.426624,0.426624 0 0 0 0.426624,0.426624 H 12.439815 A 0.426624,0.426624 0 0 0 12.866439,5.403823 V 4.257271 A 0.426624,0.426624 0 0 0 12.439815,3.830647 H 8.6268631 m 0,-0.6666 h 3.8129519 a 1.09989,1.09989 0 0 1 1.093224,1.093224 V 5.403823 A 1.093224,1.093224 0 0 1 12.439815,6.497047 H 8.6268631 A 1.086558,1.086558 0 0 1 7.5336391,5.403823 V 4.257271 a 1.093224,1.093224 0 0 1 1.093224,-1.093224 z" style="fill:#0071bc;stroke-width:0.6666" id="path103-46-7"/><path d="m 8.6268631,8.610282 a 0.426624,0.426624 0 0 0 -0.426624,0.426624 v 1.146552 a 0.426624,0.426624 0 0 0 0.426624,0.426624 h 3.8129519 a 0.426624,0.426624 0 0 0 0.426624,-0.426624 V 9.036906 A 0.426624,0.426624 0 0 0 12.439815,8.610282 H 8.6268631 m 0,-0.6666 h 3.8129519 a 1.09989,1.09989 0 0 1 1.093224,1.093224 v 1.146552 a 1.093224,1.093224 0 0 1 -1.093224,1.093224 H 8.6268631 A 1.086558,1.086558 0 0 1 7.5336391,10.183458 V 9.036906 a 1.093224,1.093224 0 0 1 1.093224,-1.093224 z" style="fill:#0071bc;stroke-width:0.6666" id="path103-46"/><path d="m 8.6268631,13.389917 a 0.426624,0.426624 0 0 0 -0.426624,0.426624 v 1.146553 a 0.426624,0.426624 0 0 0 0.426624,0.426624 h 3.8129519 a 0.426624,0.426624 0 0 0 0.426624,-0.426624 V 13.816541 A 0.426624,0.426624 0 0 0 12.439815,13.389917 H 8.6268631 m 0,-0.6666 h 3.8129519 a 1.09989,1.09989 0 0 1 1.093224,1.093224 v 1.146553 a 1.093224,1.093224 0 0 1 -1.093224,1.093224 H 8.6268631 a 1.086558,1.086558 0 0 1 -1.093224,-1.093224 v -1.146553 a 1.093224,1.093224 0 0 1 1.093224,-1.093224 z" style="fill:#0071bc;stroke-width:0.6666" id="path103-46-3"/></svg>
