<?xml version="1.0" encoding="UTF-8" standalone="no"?>
<svg xmlns="http://www.w3.org/2000/svg" xmlns:svg="http://www.w3.org/2000/svg" viewBox="0 0 24 24" version="1.1" id="svg206" xml:space="preserve"><defs id="defs210"/><rect x="9.0002995" y="5.2242875" width="5.9994001" height="3.3329999" rx="1.093224" style="fill:#0071bc;stroke-width:0.6666" id="rect191"/><path d="m 6.7800854,5.8908873 a 0.426624,0.426624 0 0 1 0.426624,0.426624 v 1.146552 a 0.426624,0.426624 0 0 1 -0.426624,0.426624 h -3.812952 a 0.426624,0.426624 0 0 1 -0.426624,-0.426624 v -1.146552 a 0.426624,0.426624 0 0 1 0.426624,-0.426624 h 3.812952 m 0,-0.6666 h -3.812952 a 1.09989,1.09989 0 0 0 -1.093224,1.093224 v 1.146552 a 1.093224,1.093224 0 0 0 1.093224,1.093224 h 3.812952 a 1.086558,1.086558 0 0 0 1.093224,-1.093224 v -1.146552 a 1.093224,1.093224 0 0 0 -1.093224,-1.093224 z" style="fill:#0071bc;stroke-width:0.6666" id="path103"/><path d="m 6.7800854,11.000079 a 0.426624,0.426624 0 0 1 0.426624,0.426624 v 1.146552 a 0.426624,0.426624 0 0 1 -0.426624,0.426624 h -3.812952 a 0.426624,0.426624 0 0 1 -0.426624,-0.426624 v -1.146552 a 0.426624,0.426624 0 0 1 0.426624,-0.426624 h 3.812952 m 0,-0.6666 h -3.812952 a 1.09989,1.09989 0 0 0 -1.093224,1.093224 v 1.146552 a 1.093224,1.093224 0 0 0 1.093224,1.093224 h 3.812952 a 1.086558,1.086558 0 0 0 1.093224,-1.093224 v -1.146552 a 1.093224,1.093224 0 0 0 -1.093224,-1.093224 z" style="fill:#0071bc;stroke-width:0.6666" id="path103-46-3-5"/><path d="m 6.7800852,16.109292 a 0.426624,0.426624 0 0 1 0.426624,0.426624 v 1.146552 a 0.426624,0.426624 0 0 1 -0.426624,0.426624 h -3.812952 a 0.426624,0.426624 0 0 1 -0.426624,-0.426624 v -1.146552 a 0.426624,0.426624 0 0 1 0.426624,-0.426624 h 3.812952 m 0,-0.6666 h -3.812952 a 1.09989,1.09989 0 0 0 -1.0932238,1.093224 v 1.146552 a 1.093224,1.093224 0 0 0 1.0932238,1.093224 h 3.812952 a 1.086558,1.086558 0 0 0 1.093224,-1.093224 v -1.146552 a 1.093224,1.093224 0 0 0 -1.093224,-1.093224 z" style="fill:#0071bc;stroke-width:0.6666" id="path103-8"/></svg>
