<?xml version="1.0" encoding="UTF-8" standalone="no"?>
<svg xmlns="http://www.w3.org/2000/svg" xmlns:svg="http://www.w3.org/2000/svg" viewBox="0 0 24 24" version="1.1" id="svg206" xml:space="preserve"><defs id="defs210"/><rect x="-15.003004" y="-6.4970469" width="5.9994001" height="3.3329999" rx="1.093224" style="fill:#0071bc;stroke-width:0.6666" id="rect191" transform="scale(-1)"/><path d="m 8.6268631,20.169353 a 0.426624,0.426624 0 0 1 -0.426624,-0.426624 v -1.146552 a 0.426624,0.426624 0 0 1 0.426624,-0.426624 h 3.8129519 a 0.426624,0.426624 0 0 1 0.426624,0.426624 v 1.146552 a 0.426624,0.426624 0 0 1 -0.426624,0.426624 H 8.6268631 m 0,0.6666 h 3.8129519 a 1.09989,1.09989 0 0 0 1.093224,-1.093224 V 18.596177 A 1.093224,1.093224 0 0 0 12.439815,17.502953 H 8.6268631 a 1.086558,1.086558 0 0 0 -1.093224,1.093224 v 1.146552 a 1.093224,1.093224 0 0 0 1.093224,1.093224 z" style="fill:#0071bc;stroke-width:0.6666" id="path103-46-7"/><path d="m 8.6268631,15.389718 a 0.426624,0.426624 0 0 1 -0.426624,-0.426624 v -1.146552 a 0.426624,0.426624 0 0 1 0.426624,-0.426624 h 3.8129519 a 0.426624,0.426624 0 0 1 0.426624,0.426624 v 1.146552 a 0.426624,0.426624 0 0 1 -0.426624,0.426624 H 8.6268631 m 0,0.6666 h 3.8129519 a 1.09989,1.09989 0 0 0 1.093224,-1.093224 V 13.816542 A 1.093224,1.093224 0 0 0 12.439815,12.723318 H 8.6268631 a 1.086558,1.086558 0 0 0 -1.093224,1.093224 v 1.146552 a 1.093224,1.093224 0 0 0 1.093224,1.093224 z" style="fill:#0071bc;stroke-width:0.6666" id="path103-46"/><path d="M 8.6268631,10.610083 A 0.426624,0.426624 0 0 1 8.2002391,10.183459 V 9.0369065 a 0.426624,0.426624 0 0 1 0.426624,-0.426624 h 3.8129519 a 0.426624,0.426624 0 0 1 0.426624,0.426624 v 1.1465525 a 0.426624,0.426624 0 0 1 -0.426624,0.426624 H 8.6268631 m 0,0.6666 h 3.8129519 a 1.09989,1.09989 0 0 0 1.093224,-1.093224 V 9.0369065 A 1.093224,1.093224 0 0 0 12.439815,7.9436825 H 8.6268631 a 1.086558,1.086558 0 0 0 -1.093224,1.093224 v 1.1465525 a 1.093224,1.093224 0 0 0 1.093224,1.093224 z" style="fill:#0071bc;stroke-width:0.6666" id="path103-46-3"/></svg>
