<?xml version="1.0" encoding="UTF-8"?>
<svg xmlns="http://www.w3.org/2000/svg" version="1.1" viewBox="0 0 24 24" xml:space="preserve"><rect x="9.0003" y="10.334" width="5.9994" height="3.333" rx="1.0932" fill="#0071bc" stroke-width=".6666"/><path d="m6.7801 5.8909a0.42662 0.42662 0 0 1 0.42662 0.42662v1.1466a0.42662 0.42662 0 0 1-0.42662 0.42662h-3.813a0.42662 0.42662 0 0 1-0.42662-0.42662v-1.1466a0.42662 0.42662 0 0 1 0.42662-0.42662h3.813m0-0.6666h-3.813a1.0999 1.0999 0 0 0-1.0932 1.0932v1.1466a1.0932 1.0932 0 0 0 1.0932 1.0932h3.813a1.0866 1.0866 0 0 0 1.0932-1.0932v-1.1466a1.0932 1.0932 0 0 0-1.0932-1.0932z" fill="#0071bc" stroke-width=".6666"/><path d="m21.033 5.8909a0.42662 0.42662 0 0 1 0.42662 0.42662v1.1466a0.42662 0.42662 0 0 1-0.42662 0.42662h-3.813a0.42662 0.42662 0 0 1-0.42662-0.42662v-1.1466a0.42662 0.42662 0 0 1 0.42662-0.42662h3.813m0-0.6666h-3.813a1.0999 1.0999 0 0 0-1.0932 1.0932v1.1466a1.0932 1.0932 0 0 0 1.0932 1.0932h3.813a1.0866 1.0866 0 0 0 1.0932-1.0932v-1.1466a1.0932 1.0932 0 0 0-1.0932-1.0932z" fill="#0071bc" stroke-width=".6666"/><path d="m21.033 11a0.42662 0.42662 0 0 1 0.42662 0.42662v1.1466a0.42662 0.42662 0 0 1-0.42662 0.42662h-3.813a0.42662 0.42662 0 0 1-0.42662-0.42662v-1.1466a0.42662 0.42662 0 0 1 0.42662-0.42662h3.813m0-0.6666h-3.813a1.0999 1.0999 0 0 0-1.0932 1.0932v1.1466a1.0932 1.0932 0 0 0 1.0932 1.0932h3.813a1.0866 1.0866 0 0 0 1.0932-1.0932v-1.1466a1.0932 1.0932 0 0 0-1.0932-1.0932z" fill="#0071bc" stroke-width=".6666"/><path d="m6.7801 11a0.42662 0.42662 0 0 1 0.42662 0.42662v1.1466a0.42662 0.42662 0 0 1-0.42662 0.42662h-3.813a0.42662 0.42662 0 0 1-0.42662-0.42662v-1.1466a0.42662 0.42662 0 0 1 0.42662-0.42662h3.813m0-0.6666h-3.813a1.0999 1.0999 0 0 0-1.0932 1.0932v1.1466a1.0932 1.0932 0 0 0 1.0932 1.0932h3.813a1.0866 1.0866 0 0 0 1.0932-1.0932v-1.1466a1.0932 1.0932 0 0 0-1.0932-1.0932z" fill="#0071bc" stroke-width=".6666"/><path d="m6.7801 16.109a0.42662 0.42662 0 0 1 0.42662 0.42662v1.1466a0.42662 0.42662 0 0 1-0.42662 0.42662h-3.813a0.42662 0.42662 0 0 1-0.42662-0.42662v-1.1466a0.42662 0.42662 0 0 1 0.42662-0.42662h3.813m0-0.6666h-3.813a1.0999 1.0999 0 0 0-1.0932 1.0932v1.1466a1.0932 1.0932 0 0 0 1.0932 1.0932h3.813a1.0866 1.0866 0 0 0 1.0932-1.0932v-1.1466a1.0932 1.0932 0 0 0-1.0932-1.0932z" fill="#0071bc" stroke-width=".6666"/><path d="m21.033 16.109a0.42662 0.42662 0 0 1 0.42662 0.42662v1.1466a0.42662 0.42662 0 0 1-0.42662 0.42662h-3.813a0.42662 0.42662 0 0 1-0.42662-0.42662v-1.1466a0.42662 0.42662 0 0 1 0.42662-0.42662h3.813m0-0.6666h-3.813a1.0999 1.0999 0 0 0-1.0932 1.0932v1.1466a1.0932 1.0932 0 0 0 1.0932 1.0932h3.813a1.0866 1.0866 0 0 0 1.0932-1.0932v-1.1466a1.0932 1.0932 0 0 0-1.0932-1.0932z" fill="#0071bc" stroke-width=".6666"/><path d="m18.161 4.6074 1.0289-1.7352 1.0289 1.7352" fill="none" stroke="#0071bc" stroke-linecap="round" stroke-linejoin="round" stroke-miterlimit="0" stroke-width=".666"/><path d="m3.8447 4.6114 1.0289-1.7352 1.0289 1.7352" fill="none" stroke="#0071bc" stroke-linecap="round" stroke-linejoin="round" stroke-miterlimit="0" stroke-width=".666"/><path d="m18.161 19.393 1.0289 1.7352 1.0289-1.7352" fill="none" stroke="#0071bc" stroke-linecap="round" stroke-linejoin="round" stroke-miterlimit="0" stroke-width=".666"/><path d="m3.8447 19.393 1.0289 1.7352 1.0289-1.7352" fill="none" stroke="#0071bc" stroke-linecap="round" stroke-linejoin="round" stroke-miterlimit="0" stroke-width=".666"/></svg>
