<?xml version="1.0" encoding="UTF-8" standalone="no"?>
<svg xmlns="http://www.w3.org/2000/svg" xmlns:svg="http://www.w3.org/2000/svg" viewBox="0 0 24 24" version="1.1" id="svg206" xml:space="preserve"><defs id="defs210"/><rect x="9.0002995" y="-6.4970469" width="5.9994001" height="3.3329999" rx="1.093224" style="fill:#0071bc;stroke-width:0.6666" id="rect191" transform="scale(1,-1)"/><path d="m 15.37644,20.169353 a 0.426624,0.426624 0 0 0 0.426624,-0.426624 V 18.596177 A 0.426624,0.426624 0 0 0 15.37644,18.169553 h -3.812952 a 0.426624,0.426624 0 0 0 -0.426624,0.426624 v 1.146552 a 0.426624,0.426624 0 0 0 0.426624,0.426624 h 3.812952 m 0,0.6666 h -3.812952 a 1.09989,1.09989 0 0 1 -1.093224,-1.093224 v -1.146552 a 1.093224,1.093224 0 0 1 1.093224,-1.093224 h 3.812952 a 1.086558,1.086558 0 0 1 1.093224,1.093224 v 1.146552 a 1.093224,1.093224 0 0 1 -1.093224,1.093224 z" style="fill:#0071bc;stroke-width:0.6666" id="path103-46-7"/><path d="m 15.37644,15.389718 a 0.426624,0.426624 0 0 0 0.426624,-0.426624 V 13.816542 A 0.426624,0.426624 0 0 0 15.37644,13.389918 h -3.812952 a 0.426624,0.426624 0 0 0 -0.426624,0.426624 v 1.146552 a 0.426624,0.426624 0 0 0 0.426624,0.426624 h 3.812952 m 0,0.6666 h -3.812952 a 1.09989,1.09989 0 0 1 -1.093224,-1.093224 v -1.146552 a 1.093224,1.093224 0 0 1 1.093224,-1.093224 h 3.812952 a 1.086558,1.086558 0 0 1 1.093224,1.093224 v 1.146552 a 1.093224,1.093224 0 0 1 -1.093224,1.093224 z" style="fill:#0071bc;stroke-width:0.6666" id="path103-46"/><path d="m 15.37644,10.610083 a 0.426624,0.426624 0 0 0 0.426624,-0.426624 V 9.0369065 A 0.426624,0.426624 0 0 0 15.37644,8.6102825 h -3.812952 a 0.426624,0.426624 0 0 0 -0.426624,0.426624 v 1.1465525 a 0.426624,0.426624 0 0 0 0.426624,0.426624 h 3.812952 m 0,0.6666 H 11.563488 A 1.09989,1.09989 0 0 1 10.470264,10.183459 V 9.0369065 a 1.093224,1.093224 0 0 1 1.093224,-1.093224 h 3.812952 a 1.086558,1.086558 0 0 1 1.093224,1.093224 v 1.1465525 a 1.093224,1.093224 0 0 1 -1.093224,1.093224 z" style="fill:#0071bc;stroke-width:0.6666" id="path103-46-3"/></svg>
