<?xml version="1.0" encoding="UTF-8" standalone="no"?>
<svg xmlns="http://www.w3.org/2000/svg" xmlns:svg="http://www.w3.org/2000/svg" viewBox="0 0 24 24" version="1.1" id="svg206" xml:space="preserve"><defs id="defs210"/><rect x="9.0002995" y="17.502953" width="5.9994001" height="3.3329999" rx="1.093224" style="fill:#0071bc;stroke-width:0.6666" id="rect191"/><path d="m 15.37644,3.830647 a 0.426624,0.426624 0 0 1 0.426624,0.426624 V 5.403823 A 0.426624,0.426624 0 0 1 15.37644,5.830447 H 11.563488 A 0.426624,0.426624 0 0 1 11.136864,5.403823 V 4.257271 a 0.426624,0.426624 0 0 1 0.426624,-0.426624 h 3.812952 m 0,-0.6666 h -3.812952 a 1.09989,1.09989 0 0 0 -1.093224,1.093224 v 1.146552 a 1.093224,1.093224 0 0 0 1.093224,1.093224 H 15.37644 A 1.086558,1.086558 0 0 0 16.469664,5.403823 V 4.257271 A 1.093224,1.093224 0 0 0 15.37644,3.164047 Z" style="fill:#0071bc;stroke-width:0.6666" id="path103-46-7"/><path d="m 15.37644,8.610282 a 0.426624,0.426624 0 0 1 0.426624,0.426624 v 1.146552 A 0.426624,0.426624 0 0 1 15.37644,10.610082 H 11.563488 A 0.426624,0.426624 0 0 1 11.136864,10.183458 V 9.036906 a 0.426624,0.426624 0 0 1 0.426624,-0.426624 h 3.812952 m 0,-0.6666 h -3.812952 a 1.09989,1.09989 0 0 0 -1.093224,1.093224 v 1.146552 a 1.093224,1.093224 0 0 0 1.093224,1.093224 h 3.812952 a 1.086558,1.086558 0 0 0 1.093224,-1.093224 V 9.036906 A 1.093224,1.093224 0 0 0 15.37644,7.943682 Z" style="fill:#0071bc;stroke-width:0.6666" id="path103-46"/><path d="m 15.37644,13.389917 a 0.426624,0.426624 0 0 1 0.426624,0.426624 v 1.146552 a 0.426624,0.426624 0 0 1 -0.426624,0.426624 h -3.812952 a 0.426624,0.426624 0 0 1 -0.426624,-0.426624 v -1.146552 a 0.426624,0.426624 0 0 1 0.426624,-0.426624 h 3.812952 m 0,-0.6666 h -3.812952 a 1.09989,1.09989 0 0 0 -1.093224,1.093224 v 1.146552 a 1.093224,1.093224 0 0 0 1.093224,1.093224 h 3.812952 a 1.086558,1.086558 0 0 0 1.093224,-1.093224 V 13.816541 A 1.093224,1.093224 0 0 0 15.37644,12.723317 Z" style="fill:#0071bc;stroke-width:0.6666" id="path103-46-3"/></svg>
