<?xml version="1.0" encoding="UTF-8"?>
<svg width="100px" height="100px" viewBox="0 0 100 100" version="1.1" xmlns="http://www.w3.org/2000/svg" xmlns:xlink="http://www.w3.org/1999/xlink">
    <!-- Generator: sketchtool 63.1 (101010) - https://sketch.com -->
    <title>code/file_code_Combine</title>
    <desc>Created with sketchtool.</desc>
    <defs>
        <radialGradient cx="78.7636112%" cy="37.8476394%" fx="78.7636112%" fy="37.8476394%" r="125.363631%" gradientTransform="translate(0.787636,0.378476),scale(0.716895,1.000000),translate(-0.787636,-0.378476)" id="radialGradient-1">
            <stop stop-color="#0095F8" offset="0%"></stop>
            <stop stop-color="#8300F2" offset="100%"></stop>
        </radialGradient>
        <radialGradient cx="68.7389016%" cy="4.39833672%" fx="68.7389016%" fy="4.39833672%" r="108.014124%" gradientTransform="translate(0.687389,0.043983),scale(0.756646,1.000000),translate(-0.687389,-0.043983)" id="radialGradient-2">
            <stop stop-color="#014590" offset="0%"></stop>
            <stop stop-color="#00388E" offset="29.1746283%"></stop>
            <stop stop-color="#00D4F8" offset="100%"></stop>
        </radialGradient>
        <linearGradient x1="18.2386532%" y1="-0.0469825691%" x2="81.1591125%" y2="84.3697416%" id="linearGradient-3">
            <stop stop-color="#0023F7" offset="0%"></stop>
            <stop stop-color="#0033E5" offset="66.2162162%"></stop>
            <stop stop-color="#2A00D6" stop-opacity="0.2" offset="82.7147533%"></stop>
            <stop stop-color="#0003C1" stop-opacity="0" offset="100%"></stop>
        </linearGradient>
        <linearGradient x1="64.9060589%" y1="71.8393903%" x2="44.2897699%" y2="50%" id="linearGradient-4">
            <stop stop-color="#0002B2" stop-opacity="0.151340138" offset="0%"></stop>
            <stop stop-color="#0700F7" stop-opacity="0.4" offset="40.0350765%"></stop>
            <stop stop-color="#004CF6" stop-opacity="0.891668" offset="64.8995536%"></stop>
            <stop stop-color="#00C4FF" offset="100%"></stop>
        </linearGradient>
    </defs>
    <g id="Icons" stroke="none" stroke-width="1" fill="none" fill-rule="evenodd">
        <g id="code/file_code_Combine" fill-rule="nonzero">
            <g id="Group" transform="translate(0.454545, 0.454545)">
                <g id="reactivex-seeklogo.com" transform="translate(3.981900, 1.809955)">
                    <path d="M6.15217548,58.1870979 C1.31512764,32.3338146 14.0985941,7.399882 43.438914,4.0829277 C39.3928634,-0.263307172 33.8655282,-0.295965553 31.3224188,0.232730504 C26.8321316,1.67136445 26.973097,4.59247789 21.879688,8.36567466 C16.8161481,11.2730922 14.2730427,9.04655908 10.5844412,12.0606102 C6.90373404,15.0521621 9.47203804,21.9196771 7.9283456,23.2548352 C6.39598271,25.9250173 1.64259307,28.3037388 0.777318833,31.6763842 C0.0622161576,35.9895499 2.71831181,39.0705291 2.61615428,42.7677044 C2.92262686,45.848684 -0.43488236,47.5908748 0.047505474,50.0879062 C1.49242151,54.1673281 4.27743995,56.6226634 5.59036847,57.7544098 C5.89144563,57.9677303 6.20942639,58.4930952 6.15217548,58.1870979 L6.15217548,58.1870979 Z" id="Path" fill="#0084FF"></path>
                    <path d="M58.6022734,22.4421972 C57.5285546,22.4421972 56.6579596,21.5697167 56.6579596,20.4936728 C56.6579596,19.4176289 57.5285546,18.5451484 58.6022734,18.5451484 C59.6759922,18.5451484 60.5465872,19.4176289 60.5465872,20.4936728 C60.5465872,21.5697167 59.6759922,22.4421972 58.6022734,22.4421972 L58.6022734,22.4421972 Z M7.43954981,60.9954751 C2.78322513,38.5581143 17.1918675,19.8100484 45.0944085,29.0399007 C61.4669639,38.638742 82.06293,38.0137373 82.9915419,31.8088564 C85.2839992,24.3704613 72.5536462,9.04188742 53.519837,5.04228477 C15.7592152,-2.34159705 -4.59783838,38.5581147 7.43954981,60.9954751 L7.43954981,60.9954751 Z" id="Shape" stroke="#0126A8" stroke-width="0.542986425" fill="url(#radialGradient-1)"></path>
                    <path d="M69.3278171,63.4864505 C74.9440141,64.0950424 80.2750552,62.7468309 85.2153648,58.7190106 C77.7517024,67.046139 68.4192543,71.2328739 57.7112522,72.3721385 C62.8239675,76.7198384 67.7544373,78.6782822 72.4712966,77.840033 C59.3647872,81.457546 48.3840225,77.475676 35.0263504,64.1700929 C34.3268659,67.7519679 38.1089903,73.3326103 42.0072819,76.8949643 C19.3887441,67.0865466 17.4057741,36.532212 44.9867953,29.0163437 C16.3958068,15.2764192 0.229180064,41.9731934 8.1720695,63.8537928 C15.9436745,80.7063019 36.6533841,93.6798265 59.3512573,90.8267441 C70.3764094,89.4759756 86.8401209,81.8727995 93.5659029,63.8537928 C88.8256735,68.1086046 80.3524409,71.8143442 76.5713089,72.0985999 C89.3686776,65.7014134 96.276956,54.8311404 94.3378924,39.9740523 C91.6870292,46.2865528 88.1895138,51.1345777 83.8145957,54.4641989 C93.1078858,39.9740523 91.5131888,32.484558 84.634598,24.2533937 C89.5546131,37.7867712 83.1901637,52.8069751 69.3278171,63.4864505 L69.3278171,63.4864505 Z" id="Path" stroke="#000273" stroke-width="0.5" fill="url(#radialGradient-2)"></path>
                    <path d="M62.6244344,79.0968095 C61.6578009,78.916112 64.8156973,80.3765866 58.7103743,78.7595845 C52.6050516,77.1425824 46.3886016,75.5843425 35.0158303,64.2533937 C34.3195103,67.8198594 38.0845242,73.3764938 41.9651799,76.9235225 C52.4409684,84.2329341 45.3166483,80.814302 61.2782941,86.3348416 C62.5591324,83.7841243 62.6244344,81.5175285 62.6244344,79.0968095 L62.6244344,79.0968095 Z" id="Path" fill="url(#linearGradient-3)"></path>
                    <path d="M42.3462169,21.2405957 C42.3462169,21.2405957 43.7417086,19.1674917 44.2849193,18.2325089 C44.9505865,17.0867526 45.9728507,14.9983785 45.9728507,14.9983785 C45.9728507,14.9983785 35.2312262,11.4711042 32.595119,11.040724 C24.400622,13.181693 24.370802,16.6371133 28.9521852,21.9261221 C29.4619346,22.5147766 42.3462169,21.2405957 42.3462169,21.2405957 L42.3462169,21.2405957 Z" id="Path" fill="url(#linearGradient-4)"></path>
                </g>
                <g id="Apple_logo_black" transform="translate(0.000000, 42.533937)" fill="#FFE683" stroke="#534600" stroke-width="0.904977376">
                    <path d="M46.0725434,43.4435326 C45.2276509,45.3911635 44.2275731,47.1839466 43.0688624,48.832208 C41.4894285,51.0792067 40.1962251,52.63456 39.1995958,53.4982632 C37.6546489,54.915973 35.9993478,55.6420328 34.2267958,55.6833263 C32.9542838,55.6833263 31.4196814,55.322015 29.6333361,54.5890762 C27.8411286,53.8595698 26.1941037,53.4982632 24.6881244,53.4982632 C23.1086914,53.4982632 21.4147663,53.8595698 19.6029019,54.5890762 C17.7882765,55.322015 16.3264398,55.7039731 15.2087663,55.7418247 C13.508979,55.814086 11.8147108,55.0673795 10.1235438,53.4982632 C9.0441507,52.5588567 7.69404616,50.948447 6.07667818,48.6670339 C4.34137169,46.2307781 2.91470915,43.405681 1.79703607,40.1848638 C0.600046644,36.7059677 0,33.3371855 0,30.075765 C0,26.3398236 0.809028416,23.1176297 2.42949899,20.4174419 C3.70304614,18.248553 5.39731556,16.5376653 7.5178241,15.2816834 C9.63833452,14.0257034 11.929547,13.3856693 14.3969806,13.34472 C15.7470842,13.34472 17.5175679,13.7614305 19.7177381,14.5803993 C21.9117017,15.4021206 23.3204321,15.8188312 23.9380653,15.8188312 C24.3998252,15.8188312 25.9647743,15.3315784 28.6177392,14.360173 C31.1265558,13.4593074 33.2439609,13.0862969 34.9785782,13.2332294 C39.6789439,13.6117446 43.2102524,15.4606181 45.558711,18.7915487 C41.3549368,21.3331043 39.2754645,24.8928642 39.3168466,29.4594736 C39.3547807,33.0164803 40.647984,35.976466 43.1895607,38.3267009 C44.3413735,39.41751 45.6276814,40.2605661 47.0588235,40.8593085 C46.7484589,41.7574205 46.4208473,42.6176819 46.0725434,43.4435326 Z M35.2923969,1.11524953 C35.2923969,3.90321633 34.2716264,6.50633302 32.236987,8.91575083 C29.7816221,11.7800773 26.8117378,13.4352188 23.5911421,13.174044 C23.5501049,12.839574 23.5263096,12.4875559 23.5263096,12.1176441 C23.5263096,9.44119892 24.6939869,6.57687385 26.7675971,4.23489901 C27.8028481,3.04911614 29.1195023,2.06315373 30.7161785,1.27663282 C32.3094054,0.501847278 33.8164195,0.0733741857 35.2337697,5.1442008e-15 C35.2751551,0.372707608 35.2923969,0.745438672 35.2923969,1.11521338 L35.2923969,1.11524953 Z" id="path4"></path>
                </g>
            </g>
        </g>
    </g>
</svg>