<?xml version="1.0" encoding="UTF-8"?>
<svg width="100px" height="100px" viewBox="0 0 100 100" version="1.1" xmlns="http://www.w3.org/2000/svg" xmlns:xlink="http://www.w3.org/1999/xlink">
    <!-- Generator: sketchtool 63.1 (101010) - https://sketch.com -->
    <title>code/file_code_XSD</title>
    <desc>Created with sketchtool.</desc>
    <defs>
        <path d="M25.284434,95.2 L30.0982704,87.7654054 L34.5902516,95.2 L39.6,95.2 L33.022956,84.2097297 L39.3761006,74.4 L35.8916667,74.4 L31.329717,81.3989189 L27.1176101,74.4 L22.0938679,74.4 L28.4330189,84.9545946 L21.8,95.2 L25.284434,95.2 Z M47.6850806,95.6 C50.2159946,95.6 52.2012097,95.0528958 53.6407258,93.9586873 C55.0802419,92.8644788 55.8,91.354097 55.8,89.4275418 C55.8,88.0714715 55.4189516,86.9211497 54.6568548,85.9765766 C53.8947581,85.0320034 52.5069892,83.9985843 50.4935484,82.8763192 L50.4935484,82.8763192 L48.9975806,82.0486486 C47.877957,81.4220506 47.1158602,80.8936508 46.7112903,80.4634492 C46.3067204,80.0332475 46.1044355,79.5329043 46.1044355,78.9624196 C46.1044355,78.2703561 46.39375,77.7115616 46.972379,77.286036 C47.5510081,76.8605105 48.3201613,76.6477477 49.2798387,76.6477477 C50.5217742,76.6477477 52.2106183,77.0452166 54.346371,77.8401544 L54.346371,77.8401544 L54.346371,74.515444 C52.2576613,74.0384813 50.3806452,73.8 48.7153226,73.8 C46.6360215,73.8 44.9636425,74.3190476 43.6981855,75.3571429 C42.4327285,76.3952381 41.8,77.7700129 41.8,79.4814672 C41.8,80.7627199 42.1857527,81.8826469 42.9572581,82.8412484 C43.7287634,83.7998498 45.050672,84.8028743 46.9229839,85.8503218 L46.9229839,85.8503218 L48.3201613,86.621879 C49.4491935,87.2578293 50.2159946,87.8072716 50.6205645,88.2702059 C51.0251344,88.7331403 51.2274194,89.301287 51.2274194,89.9746461 C51.2274194,90.8256971 50.9051747,91.4990562 50.2606855,91.9947233 C49.6161962,92.4903904 48.7341398,92.7382239 47.6145161,92.7382239 C46.0150538,92.7382239 44.0909946,92.2706135 41.8423387,91.3353925 L41.8423387,91.3353925 L41.8423387,94.8985843 C44.0627688,95.3661948 46.0103495,95.6 47.6850806,95.6 Z M68.1137342,95.2 C71.3610492,95.2 73.8872556,94.2513514 75.6923534,92.3540541 C77.4974511,90.4567568 78.4,87.7935135 78.4,84.3643243 C78.4,81.1412613 77.5486266,78.6747748 75.8458797,76.9648649 C74.1431329,75.254955 71.6913635,74.4 68.4905716,74.4 L68.4905716,74.4 L59.6,74.4 L59.6,95.2 L68.1137342,95.2 Z M67.0303371,92.2 L63.8,92.2 L63.8,77.2 L66.4123596,77.2 C68.0790262,77.2 69.3477528,77.3733833 70.2185393,77.72015 C71.0893258,78.0669166 71.8337079,78.6948454 72.4516854,79.6039363 C73.3505618,80.9253983 73.8,82.5795689 73.8,84.566448 C73.8,87.1343955 73.2405431,89.048641 72.1216292,90.3091846 C71.0027154,91.5697282 69.305618,92.2 67.0303371,92.2 L67.0303371,92.2 Z" id="path-1"></path>
        <filter x="-6.8%" y="-13.8%" width="112.1%" height="127.5%" filterUnits="objectBoundingBox" id="filter-2">
            <feMorphology radius="0.5" operator="dilate" in="SourceAlpha" result="shadowSpreadOuter1"></feMorphology>
            <feOffset dx="0" dy="0" in="shadowSpreadOuter1" result="shadowOffsetOuter1"></feOffset>
            <feGaussianBlur stdDeviation="0.5" in="shadowOffsetOuter1" result="shadowBlurOuter1"></feGaussianBlur>
            <feColorMatrix values="0 0 0 0 0   0 0 0 0 0   0 0 0 0 0  0 0 0 0.5 0" type="matrix" in="shadowBlurOuter1"></feColorMatrix>
        </filter>
    </defs>
    <g id="Icons" stroke="none" stroke-width="1" fill="none" fill-rule="evenodd">
        <g id="code/file_code_XSD">
            <g id="File/XSD">
                <g id="xml" stroke-width="1" fill-rule="evenodd" transform="translate(11.600000, 0.000000)">
                    <path d="M54.4476279,0 L2.61298605,0 C1.16986047,0 0,1.16964286 0,3.43928571 L0,98.2142857 C0,98.8303571 1.16986047,100 2.61298605,100 L74.187014,100 C75.6301395,100 76.8,98.8303571 76.8,98.2142857 L76.8,23.175 C76.8,21.9321429 76.6338977,21.5321429 76.340986,21.2375 L55.5585488,0.458928571 C55.2638512,0.166071429 54.8637767,0 54.4476279,0 Z" id="Path" fill="#E9E9E0" fill-rule="nonzero"></path>
                    <polygon id="Path" fill="#D9D7CA" fill-rule="nonzero" points="55.8 0.6 55.8 21.6 76.8 21.6"></polygon>
                    <path d="M74.187014,100 L2.61298605,100 C1.16986047,100 0,98.8364118 0,97.4010235 L0,69.8 L76.8,69.8 L76.8,97.4010235 C76.8,98.8364118 75.6301395,100 74.187014,100 Z" id="Path" fill="#2D42FF" fill-rule="nonzero"></path>
                    <g id="Group-3" transform="translate(5.000000, 24.200000)" fill="#2D42FF">
                        <path d="M0.0146717326,7.69558967 L23.3824458,7.70878601 C23.7963285,7.70901974 24.1317884,8.04447962 24.1320221,8.45836234 L24.1357544,15.0674225 C24.1359883,15.481636 23.8003916,15.817612 23.3861781,15.8178459 C23.3858957,15.817846 23.3856133,15.817846 23.385331,15.8178459 L0.0175569395,15.8046495 C-0.396325788,15.8044158 -0.731785669,15.4689559 -0.732019398,15.0550732 L-0.73575169,8.4460131 C-0.735985607,8.0317996 -0.400388849,7.69582359 0.0138246473,7.69558967 C0.0141070091,7.69558951 0.0143893709,7.69558951 0.0146717326,7.69558967 Z" id="Rectangle" transform="translate(11.700001, 11.756718) rotate(-45.000000) translate(-11.700001, -11.756718) "></path>
                        <path d="M0.0175555799,19.5953537 L23.3853296,19.5821574 C23.7995431,19.5819235 24.1355191,19.9175202 24.135753,20.3317337 C24.1357532,20.3320161 24.1357532,20.3322985 24.135753,20.3325808 L24.1320208,26.9416371 C24.131787,27.3555198 23.7963271,27.6909797 23.3824444,27.6912134 L0.0146703751,27.7044098 C-0.399543121,27.7046437 -0.735519132,27.3690469 -0.735753048,26.9548334 C-0.735753207,26.9545511 -0.735753207,26.9542687 -0.735753048,26.9539863 L-0.732020758,20.3449301 C-0.731787029,19.9310473 -0.396327148,19.5955875 0.0175555799,19.5953537 Z" id="Rectangle-Copy" transform="translate(11.700000, 23.643284) rotate(45.000000) translate(-11.700000, -23.643284) "></path>
                    </g>
                    <g id="Group-3-Copy" transform="translate(58.200000, 42.200000) scale(-1, 1) translate(-58.200000, -42.200000) translate(46.200000, 24.200000)" fill="#2D42FF">
                        <path d="M0.0146717326,7.69558967 L23.3824458,7.70878601 C23.7963285,7.70901974 24.1317884,8.04447962 24.1320221,8.45836234 L24.1357544,15.0674225 C24.1359883,15.481636 23.8003916,15.817612 23.3861781,15.8178459 C23.3858957,15.817846 23.3856133,15.817846 23.385331,15.8178459 L0.0175569395,15.8046495 C-0.396325788,15.8044158 -0.731785669,15.4689559 -0.732019398,15.0550732 L-0.73575169,8.4460131 C-0.735985607,8.0317996 -0.400388849,7.69582359 0.0138246473,7.69558967 C0.0141070091,7.69558951 0.0143893709,7.69558951 0.0146717326,7.69558967 Z" id="Rectangle" transform="translate(11.700001, 11.756718) rotate(-45.000000) translate(-11.700001, -11.756718) "></path>
                        <path d="M0.0175555799,19.5953537 L23.3853296,19.5821574 C23.7995431,19.5819235 24.1355191,19.9175202 24.135753,20.3317337 C24.1357532,20.3320161 24.1357532,20.3322985 24.135753,20.3325808 L24.1320208,26.9416371 C24.131787,27.3555198 23.7963271,27.6909797 23.3824444,27.6912134 L0.0146703751,27.7044098 C-0.399543121,27.7046437 -0.735519132,27.3690469 -0.735753048,26.9548334 C-0.735753207,26.9545511 -0.735753207,26.9542687 -0.735753048,26.9539863 L-0.732020758,20.3449301 C-0.731787029,19.9310473 -0.396327148,19.5955875 0.0175555799,19.5953537 Z" id="Rectangle-Copy" transform="translate(11.700000, 23.643284) rotate(45.000000) translate(-11.700000, -23.643284) "></path>
                    </g>
                    <path d="M14.7234777,38.3725499 L61.5344586,38.3806676 C61.8933556,38.3809553 62.1842836,38.6718833 62.1845712,39.0307803 L62.1855646,44.7613466 C62.1858522,45.1203317 61.8948877,45.411397 61.5359026,45.4114593 C61.5358275,45.4114593 61.5357523,45.4114593 61.5356773,45.4112339 L14.7246963,45.4031162 C14.3657993,45.4028285 14.0748713,45.1119005 14.0745837,44.7530035 L14.0735904,39.0224371 C14.0733028,38.6634521 14.3642672,38.3723867 14.7232523,38.3723245 C14.7233275,38.3723245 14.7234026,38.3723245 14.7234777,38.3725499 Z" id="Rectangle-Copy-2" fill="#2D42FF" transform="translate(38.129577, 41.891892) rotate(-71.000000) translate(-38.129577, -41.891892) "></path>
                </g>
                <g id="XSD" fill-rule="nonzero">
                    <use fill="black" fill-opacity="1" filter="url(#filter-2)" xlink:href="#path-1"></use>
                    <use fill="#FFFFFF" xlink:href="#path-1"></use>
                </g>
            </g>
        </g>
    </g>
</svg>