<?xml version="1.0" encoding="UTF-8"?>
<svg width="100px" height="100px" viewBox="0 0 100 100" version="1.1" xmlns="http://www.w3.org/2000/svg" xmlns:xlink="http://www.w3.org/1999/xlink">
    <!-- Generator: sketchtool 63.1 (101010) - https://sketch.com -->
    <title>meta/meta_goal_objective_target</title>
    <desc>Created with sketchtool.</desc>
    <g id="Icons" stroke="none" stroke-width="1" fill="none" fill-rule="evenodd">
        <g id="meta/meta_goal_objective_target">
            <path d="M50,0.579150579 C22.7471042,0.579150579 0.579150579,22.7509653 0.579150579,50 C0.579150579,77.2490347 22.7471042,99.4208494 50,99.4208494 C77.2528958,99.4208494 99.4208494,77.2528958 99.4208494,50 C99.4208494,22.7471042 77.2528958,0.579150579 50,0.579150579 Z" id="Path" fill="#F1F1F2" fill-rule="nonzero"></path>
            <g id="Clipped" fill="#000000" fill-rule="nonzero" opacity="0.2">
                <g id="Group" transform="translate(0.579151, 0.579151)">
                    <path d="M49.4208494,0 C22.1679537,0 0,22.1718147 0,49.4208494 C0,76.6698842 22.1679537,98.8416988 49.4208494,98.8416988 C76.6737452,98.8416988 98.8416988,76.6737452 98.8416988,49.4208494 C98.8416988,22.1679537 76.6737452,0 49.4208494,0 Z" id="Path"></path>
                </g>
            </g>
            <path d="M50,63.5135135 C57.4633074,63.5135135 63.5135135,57.4633074 63.5135135,50 C63.5135135,42.5366926 57.4633074,36.4864865 50,36.4864865 C42.5366926,36.4864865 36.4864865,42.5366926 36.4864865,50 C36.4981794,57.4584587 42.5415413,63.5018206 50,63.5135135 Z" id="Path" fill="#B9131A" style="mix-blend-mode: multiply;"></path>
            <path d="M50,13.7413127 C29.9749035,13.7413127 13.7413127,29.9787645 13.7413127,50 C13.7413127,70.0212355 29.9749035,86.2586873 50,86.2586873 C70.0250965,86.2586873 86.2586873,70.0173745 86.2586873,50 C86.2586873,40.3835982 82.4385865,31.1610593 75.6387636,24.3612364 C68.8389407,17.5614135 59.6164018,13.7413127 50,13.7413127 Z M50,76.3378378 C39.3463825,76.3378378 29.741825,69.9201504 25.6650425,60.0774165 C21.58826,50.2346826 23.8421326,38.9053272 31.3756538,31.3723581 C38.9091751,23.839389 50.2386957,21.5863468 60.0811307,25.6638508 C69.9235657,29.7413547 76.3405492,39.3463825 76.3397683,50 C76.3387023,64.5466108 64.5466108,76.3387023 50,76.3397683 L50,76.3378378 Z" id="Shape" fill="#B9131A" style="mix-blend-mode: multiply;"></path>
        </g>
    </g>
</svg>