<?xml version="1.0" encoding="UTF-8"?>
<svg width="100px" height="100px" viewBox="0 0 100 100" version="1.1" xmlns="http://www.w3.org/2000/svg" xmlns:xlink="http://www.w3.org/1999/xlink">
    <!-- Generator: sketchtool 63.1 (101010) - https://sketch.com -->
    <title>meta/meta_warning</title>
    <desc>Created with sketchtool.</desc>
    <g id="Icons" stroke="none" stroke-width="1" fill="none" fill-rule="evenodd">
        <g id="meta/meta_warning">
            <g id="Group" transform="translate(0.000000, 6.000000)">
                <rect id="Rectangle" fill="#FFFFFF" x="37.9909783" y="17.95" width="25" height="63"></rect>
                <path d="M98.1909783,75.75 L57.6409783,5.45 C56.271643,2.37747776 53.3422565,0.290529174 49.9909783,7.10542736e-15 C46.6582152,0.307913381 43.7517506,2.39215444 42.3909783,5.45 L1.79097834,75.75 C-2.40902166,83 1.04097834,88.95 9.39097834,88.95 L90.5909783,88.95 C98.9409783,88.95 102.390978,83 98.1909783,75.75 Z M54.9909783,73.95 L44.9909783,73.95 L44.9909783,63.95 L54.9909783,63.95 L54.9909783,73.95 Z M54.9909783,53.95 L44.9909783,53.95 L44.9909783,23.95 L54.9909783,23.95 L54.9909783,53.95 Z" id="Shape" fill="#FF4343" fill-rule="nonzero"></path>
            </g>
        </g>
    </g>
</svg>