<?xml version="1.0" encoding="UTF-8"?>
<svg width="100px" height="100px" viewBox="0 0 100 100" version="1.1" xmlns="http://www.w3.org/2000/svg" xmlns:xlink="http://www.w3.org/1999/xlink">
    <!-- Generator: sketchtool 63.1 (101010) - https://sketch.com -->
    <title>meta/meta_heart</title>
    <desc>Created with sketchtool.</desc>
    <defs>
        <radialGradient cx="49.9975263%" cy="49.99844%" fx="49.9975263%" fy="49.99844%" r="235.711005%" gradientTransform="translate(0.499975,0.499984),scale(0.212121,1.000000),translate(-0.499975,-0.499984)" id="radialGradient-1">
            <stop stop-color="#000000" offset="0%"></stop>
            <stop stop-color="#000000" stop-opacity="0" offset="100%"></stop>
        </radialGradient>
        <linearGradient x1="-3.28448515%" y1="100.000835%" x2="-3.28448515%" y2="0.000134908592%" id="linearGradient-2">
            <stop stop-color="#AF0400" offset="0%"></stop>
            <stop stop-color="#E85752" offset="100%"></stop>
        </linearGradient>
        <radialGradient cx="49.9999623%" cy="-19.5489949%" fx="49.9999623%" fy="-19.5489949%" r="75.7959606%" gradientTransform="translate(0.500000,-0.195490),scale(0.920940,1.000000),rotate(-0.973586),translate(-0.500000,0.195490)" id="radialGradient-3">
            <stop stop-color="#EEEEEE" offset="0%"></stop>
            <stop stop-color="#EEEEEE" stop-opacity="0" offset="100%"></stop>
        </radialGradient>
    </defs>
    <g id="Icons" stroke="none" stroke-width="1" fill="none" fill-rule="evenodd">
        <g id="meta/meta_heart">
            <g id="Annotations/Heart">
                <path d="M56.573133,68.0983421 C56.573133,64.4711752 53.6253402,61.5233824 49.9981733,61.5233824 C46.3594916,61.5233824 43.4232137,64.4711752 43.4232137,68.0983421 C43.4232137,70.8618978 45.1158915,73.2109202 47.522488,74.1896795 L47.3843102,74.8114795 L45.2655841,83.8621246 L54.7422774,83.8621246 L52.6235513,74.8114795 L52.4853735,74.1896795 C54.8689403,73.1994054 56.573133,70.850383 56.573133,68.0983421 Z" id="Keyhole" fill="#2F2F2F" fill-rule="nonzero"></path>
                <g id="Group" stroke-width="1" fill-rule="evenodd" transform="translate(0.000000, 2.800000)">
                    <path d="M59.8,92.5 C59.8,93.659798 55.367619,94.6 49.9,94.6 C44.432381,94.6 40,93.659798 40,92.5 C40,91.340202 44.432381,90.4 49.9,90.4 C55.367619,90.4 59.8,91.340202 59.8,92.5 L59.8,92.5 Z" id="1" fill="url(#radialGradient-1)" opacity="0.23"></path>
                    <path d="M72.6053854,0 C63.1621465,0.0251730877 54.8413634,4.88812898 49.950352,12.210267 C45.0255175,4.92364274 36.7325441,0.099123114 27.2953186,0.124184814 C12.2281049,0.164193111 -0.0399081124,12.4770474 0,27.5474307 C0.0394788329,42.3827466 7.76718515,52.0118481 17.4442252,60.9516742 C27.1212652,69.8915003 38.834111,78.5013921 48.2878249,92.0230804 C48.7246842,92.644237 49.4399162,93.0097292 50.1991736,93 C50.9584309,92.9898765 51.6638662,92.6058107 52.084342,91.9734456 C60.9320678,78.5171482 72.6144859,69.6207911 82.3572234,60.5049607 C92.0999617,51.3891303 100.038198,41.7157315 100,27.2744391 C99.9598737,12.2077995 87.6708546,-0.0399081864 72.6053854,0 Z" id="2" fill="#9C0F0F" fill-rule="nonzero"></path>
                    <path d="M27.1246501,2.32011889 C13.329663,2.35673657 2.16346452,13.5801942 2.2,27.372485 C2.27459789,55.4308644 30.6032558,62.7123951 49.9676773,90.4 C68.1324783,62.7829707 97.471998,54.2823969 97.4,27.1197822 C97.3632472,13.3274953 86.137609,2.16347002 72.3425966,2.2 C62.3362545,2.22665143 53.739716,8.15671587 49.7718791,16.6661145 C45.7589276,8.17789843 37.1310152,2.29355484 27.1246501,2.32011889 Z" id="4" fill="url(#linearGradient-2)" fill-rule="nonzero"></path>
                    <path d="M72.5580207,3.2 C62.8628368,3.22586634 54.5353191,8.9579004 50.6933097,17.211293 C50.5704701,17.4958608 50.2927161,17.6821063 49.9832002,17.6874507 C49.6736842,17.6927951 49.3896845,17.5162494 49.2571226,17.2360916 C45.370885,9.00209109 37.0382929,3.29829863 27.342888,3.32408044 C13.976225,3.35962075 3.16459986,14.2405405 3.2,27.6267025 C3.23663322,41.4123234 10.1304035,49.9960365 19.5924299,58.7489379 C28.8439187,67.3070811 40.5050109,75.9471794 50.1485491,89.4 C59.2292033,75.9686562 70.8524151,67.0460197 80.1846696,58.3025632 C89.7338045,49.355913 96.8351773,40.672112 96.8,27.353918 C96.7643862,13.9664768 85.9253135,3.16454342 72.5580207,3.2 Z" id="5" stroke="url(#radialGradient-3)" stroke-width="0.54"></path>
                </g>
            </g>
        </g>
    </g>
</svg>