<?xml version="1.0" encoding="UTF-8"?>
<svg width="100px" height="100px" viewBox="0 0 100 100" version="1.1" xmlns="http://www.w3.org/2000/svg" xmlns:xlink="http://www.w3.org/1999/xlink">
    <!-- Generator: sketchtool 63.1 (101010) - https://sketch.com -->
    <title>meta/meta_goal_objective_target_arrow</title>
    <desc>Created with sketchtool.</desc>
    <g id="Icons" stroke="none" stroke-width="1" fill="none" fill-rule="evenodd">
        <g id="meta/meta_goal_objective_target_arrow" fill-rule="nonzero">
            <g id="target_2">
                <path d="M77.5861328,22.4138672 L78.3353516,14.1744141 C78.4083984,13.3708984 78.7607422,12.61875 79.33125,12.0482422 L86.7121094,4.66738281 C87.3853516,3.99414062 88.4771484,3.99414062 89.1503906,4.66738281 L95.3328125,10.8498047 C96.0060547,11.5230469 96.0060547,12.6148437 95.3328125,13.2880859 L87.9519531,20.6689453 C87.3814453,21.2394531 86.6291016,21.5917969 85.8259766,21.6648438 L77.5861328,22.4138672 Z" id="Path" fill="#FF6464"></path>
                <circle id="Oval" fill="#707487" cx="41.3792969" cy="58.6208984" r="41.3792969"></circle>
                <circle id="Oval" fill="#00D2FF" cx="41.3792969" cy="58.6208984" r="31.0345703"></circle>
                <circle id="Oval" fill="#FF6464" cx="41.3792969" cy="58.6208984" r="20.6896484"></circle>
                <circle id="Oval" fill="#FFE164" cx="41.3792969" cy="58.6208984" r="10.3449219"></circle>
                <path d="M41.3792969,60.3449219 C40.9380859,60.3449219 40.496875,60.1765625 40.1603516,59.8398437 C39.4869141,59.1664063 39.4869141,58.0751953 40.1603516,57.4017578 L97.0568359,0.505273438 C97.7302734,-0.168164062 98.8214844,-0.168164062 99.4949219,0.505273438 C100.168359,1.17871094 100.168359,2.26992188 99.4949219,2.94335938 L42.5984375,59.8398437 C42.2617188,60.1767578 41.8205078,60.3449219 41.3792969,60.3449219 Z" id="Path" fill="#464655"></path>
                <path d="M99.4949219,0.505273438 C98.8214844,-0.168164063 97.7302734,-0.168164063 97.0568359,0.505273438 L94.1138672,3.4484375 L96.5517578,5.88652344 L99.4949219,2.94335938 C100.168359,2.26972656 100.168359,1.17890625 99.4949219,0.505273438 Z" id="Path" fill="#FF6464"></path>
            </g>
        </g>
    </g>
</svg>