<?xml version="1.0" encoding="UTF-8"?>
<svg width="100px" height="100px" viewBox="0 0 100 100" version="1.1" xmlns="http://www.w3.org/2000/svg" xmlns:xlink="http://www.w3.org/1999/xlink">
    <!-- Generator: sketchtool 63.1 (101010) - https://sketch.com -->
    <title>meta/meta_tag_light</title>
    <desc>Created with sketchtool.</desc>
    <g id="Icons" stroke="none" stroke-width="1" fill="none" fill-rule="evenodd">
        <g id="meta/meta_tag_light" fill="#6D6D6D" fill-rule="nonzero">
            <g id="Group" transform="translate(5.000000, 6.000000)">
                <path d="M6.81091249,0 L38.8011961,0 C40.6367771,0 42.3054872,0.702597228 43.605657,1.99586085 L85.7683969,44.1514809 C90.0792757,48.4623597 90.0757158,55.544098 85.7718732,59.8578247 L59.8717137,85.767774 C55.5469513,90.0612091 48.4719768,90.0925364 44.1546902,85.7712502 L1.99551019,43.6156301 C0.698811259,42.2945458 1.42108547e-14,40.6536921 1.42108547e-14,38.8006675 L1.42108547e-14,6.81038385 C1.42108547e-14,3.05574179 3.05583079,0 6.81038385,0 L6.81091249,0 Z M38.8011961,5.00648072 L6.81091249,5.00648072 C5.82009923,5.00648072 5.00665872,5.81997463 5.00665872,6.8107345 L5.00665872,38.8010181 C5.00665872,39.3259631 5.15614844,39.7083514 5.52813282,40.0838334 L47.6873128,82.2287737 C50.0478033,84.5892642 53.9693163,84.5997659 56.3332777,82.2392034 L82.2263174,56.3363739 C84.5973096,53.9828253 84.5902788,50.0543704 82.2297937,47.6973509 L40.0741736,5.53817089 C39.7195705,5.15923577 39.3093437,5.00974605 38.7983001,5.00974605 L38.8011961,5.00648072 Z" id="Shape" transform="translate(44.500328, 44.500023) rotate(90.000000) translate(-44.500328, -44.500023) "></path>
                <path d="M65.0195245,15.1164226 C69.9005236,15.1164226 73.8810422,19.0935593 73.8810422,23.9744694 C73.8810422,28.8589394 69.9039055,32.8359871 65.0195245,32.8359871 C60.1315836,32.8359871 56.1614777,28.8588504 56.1614777,23.9744694 C56.1614777,19.0899994 60.1350545,15.1164226 65.0195245,15.1164226 Z M61.1676078,23.9744694 C61.1676078,26.1124652 62.8849996,27.833328 65.0195245,27.833328 C67.1575203,27.833328 68.878383,26.1159361 68.878383,23.9744694 C68.878383,21.8434155 67.1505784,20.1225527 65.0195245,20.1225527 C62.8884705,20.1225527 61.1676078,21.8468864 61.1676078,23.9744694 Z" id="Shape" transform="translate(65.021260, 23.976205) rotate(90.000000) translate(-65.021260, -23.976205) "></path>
            </g>
        </g>
    </g>
</svg>