<?xml version="1.0" encoding="UTF-8"?>
<svg width="100px" height="100px" viewBox="0 0 100 100" version="1.1" xmlns="http://www.w3.org/2000/svg" xmlns:xlink="http://www.w3.org/1999/xlink">
    <!-- Generator: sketchtool 63.1 (101010) - https://sketch.com -->
    <title>meta/meta_tip</title>
    <desc>Created with sketchtool.</desc>
    <g id="Icons" stroke="none" stroke-width="1" fill="none" fill-rule="evenodd">
        <g id="meta/meta_tip" fill="#F1F35B" fill-rule="nonzero">
            <g id="meta_tip" transform="translate(6.000000, 1.000000)">
                <path d="M44.6594518,20.8799994 C26.8635266,20.8799994 19.7199994,34.6833769 19.7199994,44.3920672 C19.7199994,58.573078 30.7858492,69.0359372 33.3245303,80.0399977 L55.9954671,80.0399977 C58.5333826,69.0403283 69.599998,58.573078 69.599998,44.3920672 C69.599998,34.6835965 62.456252,20.8799994 44.6605456,20.8799994 L44.6594518,20.8799994 Z" id="Path"></path>
                <path d="M33.6404456,90.2091861 C33.6404456,93.4199966 34.8948764,94.6825943 38.0849183,94.6825943 L38.5376703,94.6825943 L38.9738129,95.9995617 C39.6384049,98.0104924 40.4525036,98.5999972 42.5543159,98.5999972 L46.7702752,98.5999972 C48.8720875,98.5999972 49.6820391,98.0105138 50.3466312,96.0037358 L50.7827737,94.6867684 L51.2355257,94.6867684 C54.4297146,94.6867684 55.6799984,93.4241707 55.6799984,90.2133602 L55.6799984,83.5199976 L33.639999,83.5199976 L33.6404456,90.2091861 Z" id="Path"></path>
                <path d="M45.2399987,15.0799996 C46.653873,15.0799996 47.5599986,14.1563701 47.5599986,12.7221013 L47.5599986,2.35346483 C47.5599986,0.923629511 46.6538842,0 45.2399987,0 C43.8304948,0 42.9199988,0.923629511 42.9199988,2.35789826 L42.9199988,12.7265347 C42.9199988,14.1563701 43.8304948,15.0799996 45.2399987,15.0799996 L45.2399987,15.0799996 Z" id="Path"></path>
                <path d="M64.7030496,20.3271736 C65.7518295,21.1892531 66.9616171,21.0325063 67.779234,19.9309652 L73.7126908,11.9197468 C74.5343667,10.8138475 74.3857264,9.53817176 73.3369464,8.67602534 C72.2881665,7.80959883 71.0783789,7.96633449 70.260762,9.07223373 L64.3273052,17.0834521 C63.5056293,18.1893514 63.6542696,19.4650271 64.7030496,20.3271736 Z" id="Path"></path>
                <path d="M89.235768,34.2133333 C88.9102999,32.8808902 87.8587588,32.2339028 86.5527845,32.565951 L77.0975564,34.9710397 C75.7914753,35.3030771 75.1614544,36.3758425 75.4827672,37.7081767 C75.8082353,39.0406198 76.8597764,39.6833571 78.1657507,39.3555589 L87.6168128,36.9504702 C88.9270598,36.6226938 89.5612468,35.5456674 89.235768,34.2133333 Z" id="Path"></path>
                <path d="M84.4359956,60.8607425 L75.1938426,57.0615095 C73.9199979,56.5376086 72.7240181,56.9615289 72.1607482,58.1373224 C71.59313,59.3170513 72.0480942,60.4129308 73.3263332,60.940804 L82.5641601,64.7360442 C83.8380066,65.2639379 85.0339846,64.8400217 85.5972546,63.6602313 C86.1691988,62.4844952 85.7099086,61.3846229 84.4359956,60.8607425 L84.4359956,60.8607425 Z" id="Path"></path>
                <path d="M21.5407645,19.9280081 C22.3583186,21.0336309 23.5681601,21.1903163 24.6169515,20.3241175 C25.6657323,19.4579076 25.8143622,18.1868408 24.9926962,17.0812069 L19.0592344,9.07199103 C18.2416802,7.96636823 17.0318387,7.8096829 15.9830473,8.67588168 C14.9342665,9.53774574 14.7856366,10.8131583 15.6073026,11.9187923 L21.5407645,19.9280081 Z" id="Path"></path>
                <path d="M13.8357406,37.7081839 C14.1612713,36.3757367 13.526909,35.3030879 12.2206409,34.9710386 L2.76776203,32.5659425 C1.46142987,32.2339041 0.40980417,32.880948 0.0842628192,34.2133298 C-0.241278531,35.5457116 0.3930944,36.6184259 1.69936246,36.9504752 L11.1522414,39.3555712 C12.4585735,39.6833487 13.5101992,39.0405658 13.8357406,37.7081839 Z" id="Path"></path>
                <path d="M14.1267148,57.0598413 L4.88608245,60.8607264 C3.6081203,61.3848551 3.15318663,62.4850827 3.72068922,63.6614326 C4.28821398,64.8416745 5.47953689,65.2618214 6.75328463,64.7377133 L15.9939169,60.9368281 C17.2718791,60.4126995 17.7268128,59.3124718 17.1593102,58.136122 C16.5961218,56.9598746 15.4047878,56.5397277 14.1267148,57.0598413 L14.1267148,57.0598413 Z" id="Path"></path>
            </g>
        </g>
    </g>
</svg>