<?xml version="1.0" encoding="UTF-8"?>
<svg width="100px" height="100px" viewBox="0 0 100 100" version="1.1" xmlns="http://www.w3.org/2000/svg" xmlns:xlink="http://www.w3.org/1999/xlink">
    <!-- Generator: sketchtool 63.1 (101010) - https://sketch.com -->
    <title>meta/meta_tag</title>
    <desc>Created with sketchtool.</desc>
    <g id="Icons" stroke="none" stroke-width="1" fill="none" fill-rule="evenodd">
        <g id="meta/meta_tag" fill="#FFFFFF" fill-rule="nonzero">
            <g id="np_tag_3457145_FFFFFF" transform="translate(50.500000, 50.500000) rotate(90.000000) translate(-50.500000, -50.500000) translate(6.000000, 6.000000)">
                <path d="M6.81038385,-0.0003506516 L38.8006675,-0.0003506516 C40.6362485,-0.0003506516 42.3049585,0.702246577 43.6051284,1.99551019 L85.7678683,44.1511303 C90.078747,48.462009 90.0751871,55.5437474 85.7713446,59.857474 L59.871185,85.7674233 C55.5464226,90.0608585 48.4714481,90.0921857 44.1541616,85.7708996 L1.99498155,43.6152795 C0.698282612,42.2941951 -0.000528647335,40.6533414 -0.000528647335,38.8003168 L-0.000528647335,6.8100332 C-0.000528647335,3.05539114 3.05530215,-0.0003506516 6.8098552,-0.0003506516 L6.81038385,-0.0003506516 Z M38.8006675,5.00613007 L6.81038385,5.00613007 C5.81957058,5.00613007 5.00613007,5.81962398 5.00613007,6.81038385 L5.00613007,38.8006675 C5.00613007,39.3256125 5.15561979,39.7080007 5.52760418,40.0834827 L47.6867842,82.2284231 C50.0472746,84.5889135 53.9687877,84.5994153 56.3327491,82.2388528 L82.2257888,56.3360233 C84.596781,53.9824747 84.5897501,50.0540198 82.229265,47.6970003 L40.0736449,5.53782024 C39.7190418,5.15888512 39.308815,5.0093954 38.7977715,5.0093954 L38.8006675,5.00613007 Z" id="Shape"></path>
                <path d="M23.9742457,15.1189578 C28.8552447,15.1189578 32.8357634,19.0960945 32.8357634,23.9770046 C32.8357634,28.8614746 28.8586266,32.8385223 23.9742457,32.8385223 C19.0863048,32.8385223 15.1161989,28.8613856 15.1161989,23.9770046 C15.1161989,19.0925346 19.0897757,15.1189578 23.9742457,15.1189578 Z M20.1223289,23.9770046 C20.1223289,26.1150004 21.8397208,27.8358631 23.9742457,27.8358631 C26.1122414,27.8358631 27.8331042,26.1184713 27.8331042,23.9770046 C27.8331042,21.8459506 26.1052996,20.1250879 23.9742457,20.1250879 C21.8431917,20.1250879 20.1223289,21.8494216 20.1223289,23.9770046 Z" id="Shape"></path>
            </g>
        </g>
    </g>
</svg>