<?xml version="1.0" encoding="UTF-8"?>
<svg width="100px" height="100px" viewBox="0 0 100 100" version="1.1" xmlns="http://www.w3.org/2000/svg" xmlns:xlink="http://www.w3.org/1999/xlink">
    <!-- Generator: sketchtool 63.1 (101010) - https://sketch.com -->
    <title>meta/meta_question_small</title>
    <desc>Created with sketchtool.</desc>
    <defs>
        <linearGradient x1="36.2857143%" y1="0%" x2="63.7142857%" y2="100%" id="linearGradient-1">
            <stop stop-color="#83AEFF" offset="0%"></stop>
            <stop stop-color="#3177F9" offset="22.972973%"></stop>
            <stop stop-color="#004AD5" offset="100%"></stop>
        </linearGradient>
        <linearGradient x1="34.054611%" y1="9.55131442%" x2="62.0110216%" y2="77.5501605%" id="linearGradient-2">
            <stop stop-color="#737373" stop-opacity="0.160839161" offset="0%"></stop>
            <stop stop-color="#0F0E0E" stop-opacity="0.475524476" offset="100%"></stop>
        </linearGradient>
    </defs>
    <g id="Icons" stroke="none" stroke-width="1" fill="none" fill-rule="evenodd">
        <g id="meta/meta_question_small">
            <g id="Question" transform="translate(16.800000, 16.800000)">
                <g id="Group" transform="translate(0.796800, 0.796800)">
                    <path d="M32.3616533,0 C14.4876649,0 0,14.4876649 0,32.3616533 C0,50.2356416 14.4876649,64.7233065 32.3616533,64.7233065 C50.2356416,64.7233065 64.7233065,50.2356416 64.7233065,32.3616533 C64.7233065,14.4876649 50.2356416,0 32.3616533,0 Z" id="Background-circle" fill="url(#linearGradient-1)" fill-rule="nonzero"></path>
                    <path d="M40.12845,13.129585 C49.4124014,13.129585 57.7564064,17.1539738 63.5111452,23.5534314 C64.3005823,26.3541221 64.7233065,29.3084842 64.7233065,32.3616533 C64.7233065,50.2356416 50.2356416,64.7233065 32.3616533,64.7233065 C24.2554421,64.7233065 16.8457312,61.7434779 11.1680557,56.8193558 C9.57359691,53.054019 8.69141545,48.9133416 8.69141545,44.5666196 C8.69141545,27.2044248 22.7662553,13.129585 40.12845,13.129585 Z" id="Combined-Shape" fill="url(#linearGradient-2)"></path>
                    <g id="Question-mark" transform="translate(19.047144, 11.340631)" fill-rule="nonzero">
                        <path d="M12.7047708,42.1954552 C10.2528217,42.1954552 8.26660125,40.2093176 8.26660125,37.7572856 C8.26660125,35.3053364 10.2527389,33.319116 12.7047708,33.319116 C15.1568028,33.319116 17.1429404,35.3052536 17.1429404,37.7572856 C17.1429404,40.2060051 15.1568028,42.1954552 12.7047708,42.1954552 Z" id="Path" fill="#D8D8D8"></path>
                        <path d="M20.3405623,23.136724 C18.1345784,25.2582585 16.881572,26.5562514 16.881572,28.6041119 L16.881572,29.6264423 C16.881572,30.0334465 16.5416702,30.3603363 16.1217919,30.3603363 L10.0236229,30.3603363 C9.60374462,30.3603363 9.26385129,30.0334465 9.26385129,29.6264423 L9.26385129,28.6041119 C9.26385129,23.4219854 12.416244,20.3933079 14.9488729,17.9574689 C17.1615961,15.8327347 18.4078631,14.5283425 18.4078631,12.4868813 C18.4078631,9.66027429 16.018552,7.35923093 13.0761027,7.35923093 C10.1369804,7.35923093 7.74434221,9.66027429 7.74434221,12.4868813 C7.74434221,12.8906858 7.40444035,13.2175674 6.98457061,13.2175674 L0.889728602,13.2175674 C0.469850333,13.2175674 0.129957003,12.8906776 0.129957003,12.4868813 C0.129957003,5.61902946 5.93492186,0.0328440842 13.0763245,0.0328440842 C20.2208835,0.0328440842 26.0192796,5.61878333 26.0192796,12.4868813 C26.0192796,17.6658082 22.8735409,20.6976853 20.3409974,23.1359856 L20.3405623,23.136724 Z" id="Path" fill="#FFFFFF"></path>
                    </g>
                </g>
            </g>
        </g>
    </g>
</svg>