<?xml version="1.0" encoding="UTF-8"?>
<svg width="100px" height="100px" viewBox="0 0 100 100" version="1.1" xmlns="http://www.w3.org/2000/svg" xmlns:xlink="http://www.w3.org/1999/xlink">
    <!-- Generator: sketchtool 63.1 (101010) - https://sketch.com -->
    <title>meta/meta_key</title>
    <desc>Created with sketchtool.</desc>
    <g id="Icons" stroke="none" stroke-width="1" fill="none" fill-rule="evenodd">
        <g id="meta/meta_key" fill-rule="nonzero">
            <g id="Annotations/Key" transform="translate(-0.021286, 0.000000)">
                <path d="M91.5870528,41.6831783 L51.1620894,42.0033818 L50.9154339,37.5314674 C50.8967005,35.9335741 48.9812176,35.2666137 47.7292068,36.0928948 L43.1770078,39.8119407 C40.7807028,34.6152731 36.5297981,30.3182991 31.2594882,28.2424436 C28.875672,27.2365362 26.3310615,26.7788795 23.7926953,26.8007471 C18.2039188,26.8413583 12.6182645,29.2202356 8.69207087,33.3375832 C1.64990018,40.3929928 0.255828264,52.2436441 4.91106058,61.0422099 C8.88408749,68.998875 17.89638,73.834728 26.5230781,72.611707 C34.1725209,71.6917079 40.6245917,66.0045823 43.5860188,58.8476449 L49.0639565,61.9950104 C50.6672173,62.9946699 51.5664171,61.7419716 51.5664171,60.2705977 L51.4618226,54.3944741 L57.6953379,54.5397371 L61.9306315,58.5305654 L67.4460358,52.9418438 L72.4868625,57.7558292 L76.2132339,57.7558292 L81.3742661,52.5810292 L85.1131264,55.7408905 L89.8698309,55.5440825 L93.9974078,51.5782457 L98.4418902,47.4827656 C97.6816292,44.9695591 95.5351019,43.4169628 91.5870528,41.6831783 Z M14.6430251,54.0242876 C12.6791478,54.2866983 10.624726,53.2401797 9.72084286,51.5220149 C8.65928754,49.6242237 8.98087636,47.0688441 10.5810149,45.5443633 C11.8861035,44.2541777 13.9826753,43.7543479 15.7233138,44.4525476 C17.5466912,45.1320037 18.8439742,46.9157712 18.9157853,48.8104384 C18.9189075,48.9057185 18.925152,49.0041224 18.925152,49.1040884 C18.9829131,51.4595362 17.079919,53.7462573 14.6430251,54.0242876 Z" id="Shape" fill="#FFE600"></path>
                <path d="M96.1925477,47.4 L42.6181354,48.0664656 L48.7641245,50 L94.2703646,49.3288299 L96.2409536,47.4674306 C96.2269003,47.4454765 96.2081625,47.4235223 96.1925477,47.4 Z" id="Path" fill="#8F7200"></path>
                <path d="M23.6806262,74.8 C15.2034356,74.8 6.94932898,69.6758009 3.13818127,62.0449116 C-1.99274989,52.344364 -0.268919266,39.8046699 7.25821447,32.2643086 C11.4874496,27.8284348 17.4623558,25.2437032 23.6197852,25.2 C23.6229052,25.2 23.6244652,25.2 23.6260253,25.2 C26.6212785,25.2 29.3107663,25.7338033 31.8021305,26.7842407 C36.6272963,28.6853295 40.8378111,32.4235131 43.5881399,37.1965259 L46.40711,34.8943042 C49.3243618,32.9276606 52.5208586,34.9473724 52.5567393,37.7178425 L52.7049419,40.3790547 L91.3686688,40.0715715 C91.7009547,40.0606457 91.8787979,40.1230789 92.1128021,40.2245327 C96.104913,41.9773428 98.9691239,43.8284851 99.9659816,47.1624142 C100.165665,47.8273271 99.9675416,48.5499906 99.4574125,49.0197999 L90.9178208,57.0487004 C90.5995752,57.3561835 90.1783677,57.5356788 89.7353198,57.5544087 L84.9834754,57.7526339 C84.5622679,57.7838505 84.0848994,57.6199635 83.7354532,57.324967 L81.2768495,55.2459437 L77.3018989,59.2338599 C76.9602528,59.5756813 76.4969246,59.7676632 76.0148761,59.7676632 L72.2910899,59.7676632 C71.8230816,59.7676632 71.3737936,59.5881679 71.0368276,59.2635156 L67.2927611,55.6860973 L63.0370055,60.0002266 C62.3443532,60.7025993 61.2164531,60.7213292 60.4988404,60.0470514 L56.7734942,56.5383095 L53.1323895,56.452464 L53.2041508,60.4294543 C53.2041508,63.5417459 50.4897026,65.3273334 47.926577,63.7290453 L44.2308714,61.6063188 C40.5991268,68.7065265 33.8598071,73.7261502 26.5807178,74.600214 C25.6525013,74.7313236 24.6650037,74.8 23.6806262,74.8 Z M23.8007484,28.8336082 C18.543455,28.8726289 13.3891234,31.1030524 9.85722064,34.8037762 C3.50478778,41.1703946 2.01652134,52.153943 6.36899867,60.3841903 C9.96330253,67.5827302 18.1955688,72.1169362 26.1080294,70.9962616 C32.7662277,70.1939958 38.8862164,65.230562 41.734827,58.3473095 C41.9360706,57.8650135 42.3338776,57.4904148 42.8284064,57.3218453 C43.3213752,57.1501542 43.8642648,57.2032224 44.3182329,57.4654415 L49.5708462,60.4825225 C49.5708462,60.4747184 49.5708462,60.468475 49.5708462,60.4622317 L49.4663244,54.6247341 C49.4569642,54.1283907 49.6504076,53.6523381 50.0029739,53.3027126 C50.3524201,52.9546479 50.8391488,52.7892001 51.3258774,52.7735918 L57.5550681,52.9187488 C58.0043561,52.9296746 58.4333637,53.1060482 58.7594095,53.4135314 L61.7000617,56.1840015 L65.9651775,51.8605073 C66.6625099,51.1550129 67.79353,51.136283 68.5127028,51.8230474 L73.0227429,56.1309334 L75.2645027,56.1309334 L79.8884249,51.4937126 C80.5576768,50.8241173 81.6262957,50.781975 82.3470286,51.3891371 L85.5435253,54.08937 L88.900705,53.9504563 L96.048752,47.2232866 C95.2905785,45.9933539 93.7789117,44.9569639 91.0083024,43.711423 L51.0060717,44.029832 C50.9998316,44.029832 50.9951515,44.029832 50.9904714,44.029832 C50.0279343,44.029832 49.2292002,43.2759519 49.1761592,42.3129209 L48.9296748,37.8427088 L44.15755,41.4294921 C43.7207423,41.7838001 43.143532,41.9227138 42.6006424,41.7916043 C42.0546327,41.6636163 41.5959845,41.2921392 41.3604204,40.7817484 C39.0952601,35.8682611 35.1125093,31.9942854 30.4339862,30.152508 C28.3466691,29.2706401 26.1298698,28.8336082 23.8007484,28.8336082 Z M13.8852122,56.079426 C11.4094482,56.079426 9.08656695,54.7012147 7.96490702,52.5675625 C6.49848097,49.945371 7.00080989,46.5068664 9.18016861,44.4309648 C10.9632803,42.6687897 13.9132927,42.0350935 16.2470942,42.9684688 C18.7197381,43.8877966 20.4763293,46.2945937 20.5746111,48.9433193 C20.5761711,48.9651709 20.5855313,49.2804582 20.5855313,49.3023098 C20.6697727,52.608144 18.0286458,55.6470766 14.6979866,56.0279187 C14.4499422,56.0591353 14.1675772,56.079426 13.8852122,56.079426 Z M13.8992525,46.1572409 C13.088038,46.1572409 12.2690235,46.4865756 11.7089735,47.0391088 C10.721476,47.9802882 10.4905919,49.6378878 11.1598438,50.8334823 C11.7230138,51.9042105 13.0162768,52.5972182 14.2533787,52.4208446 C15.7447652,52.2507143 16.9912274,50.8163132 16.9537867,49.3491346 C16.9023058,47.9194159 16.0583308,46.7768897 14.9382309,46.3601485 C14.5887847,46.219674 14.2533787,46.1572409 13.8992525,46.1572409 Z" id="Shape" fill="#8F7200"></path>
            </g>
        </g>
    </g>
</svg>