<?xml version="1.0" encoding="UTF-8"?>
<svg width="100px" height="100px" viewBox="0 0 100 100" version="1.1" xmlns="http://www.w3.org/2000/svg" xmlns:xlink="http://www.w3.org/1999/xlink">
    <!-- Generator: sketchtool 63.1 (101010) - https://sketch.com -->
    <title>meta/meta</title>
    <desc>Created with sketchtool.</desc>
    <g id="Icons" stroke="none" stroke-width="1" fill="none" fill-rule="evenodd">
        <g id="meta/meta" fill-rule="nonzero">
            <g id="meta">
                <path d="M50,0.153571429 C32.9392857,0.153571429 17.8642857,8.71428571 8.83928571,21.7714286 L18.5071429,27.3571429 C25.8106513,17.2454998 37.5265664,11.2573359 50,11.2607143 C62.95,11.2607143 74.4285714,17.6071429 81.4928571,27.35 L91.1607143,21.7642857 C82.1357143,8.71428571 67.0607143,0.157142857 50,0.157142857 L50,0.153571429 Z" id="Path" fill="#C00000"></path>
                <path d="M3.57857143,31.5714286 C1.20756862,37.4793979 -0.00727081432,43.7875911 -6.46008102e-05,50.1535714 C-6.46008102e-05,75.875 19.4571429,97.0821429 44.4428571,99.8464286 L44.4428571,88.6428571 C25.6071429,85.9357143 11.1071429,69.7285714 11.1071429,50.15 C11.1071429,45.6071429 11.8928571,41.2464286 13.3285714,37.1928571 L3.57857143,31.5714286 Z" id="Path" fill="#00CD6A"></path>
                <path d="M96.4214286,31.5714286 L86.6714286,37.1964286 C88.1413693,41.3580307 88.8902171,45.7399971 88.8857143,50.1535714 C88.8857143,69.7321429 74.3928571,85.9392857 55.5571429,88.6392857 L55.5571429,99.8357143 C80.5428571,97.0821429 100,75.875 100,50.1535714 C100,43.5821429 98.7285714,37.3142857 96.4214286,31.5714286 L96.4214286,31.5714286 Z" id="Path" fill="#0071DA"></path>
            </g>
        </g>
    </g>
</svg>