<?xml version="1.0" encoding="UTF-8"?>
<svg width="100px" height="100px" viewBox="0 0 100 100" version="1.1" xmlns="http://www.w3.org/2000/svg" xmlns:xlink="http://www.w3.org/1999/xlink">
    <!-- Generator: sketchtool 63.1 (101010) - https://sketch.com -->
    <title>design/file_adobe_indesign</title>
    <desc>Created with sketchtool.</desc>
    <g id="Icons" stroke="none" stroke-width="1" fill="none" fill-rule="evenodd">
        <g id="design/file_adobe_indesign">
            <g id="Indesign">
                <rect id="Rectangle" stroke="#979797" stroke-width="0.5" fill="#330212" x="2.24609375" y="2.24609375" width="95.5078125" height="95.5078125"></rect>
                <path d="M0,0 L0,100 L100,100 L100,0 L0,0 Z M8.3984375,8.59375 L91.6015625,8.59375 L91.6015625,91.796875 L8.3984375,91.796875 L8.3984375,8.59375 Z M36.5625,69.3076172 C36.5625,69.7349668 36.4916666,69.8717187 36.0125,69.8717187 L29.6125,69.8717187 C29.195834,69.8717187 29.0625,69.658043 29.0625,69.3076172 L29.0625,23.4273438 C29.0625,22.9999941 29.270834,22.8632422 29.6125,22.8632422 L36.0833398,22.8632422 C36.4250059,22.8632422 36.5625,23.0042678 36.5625,23.3589688 L36.5625,69.3076016 L36.5625,69.3076172 Z M43.9375,52.7606055 C43.9375,42.5341016 50.5125,34.5683008 61.0291602,34.5683008 C61.9208262,34.5683008 62.4041602,34.5683008 63.2291602,34.6324035 L63.2291602,23.2905285 C63.2291602,23.0084777 63.4374941,22.8631789 63.6458262,22.8631789 L70.416666,22.8631789 C70.766666,22.8631789 70.833332,23.0084781 70.833332,23.2221535 L70.833332,63.2008645 C70.833332,64.3974465 70.833332,65.871802 71.041666,67.4914699 C71.041666,67.7735207 70.9583328,67.8461711 70.679166,67.9871965 C67.104166,69.7521535 63.3208262,70.5299309 59.7458262,70.5299309 C50.5249863,70.5299309 43.9249863,64.6752238 43.9249863,52.7606926 L43.9374863,52.7606926 L43.9375,52.7606055 Z M63.2291602,41.5469336 C62.6124941,41.2648828 61.7833262,41.119584 60.7541602,41.119584 C55.4,41.119584 51.6416602,45.3503457 51.6416602,52.4016348 C51.6416602,60.4443691 55.4666602,63.6836855 60.2791602,63.6836855 C61.3083262,63.6836855 62.4125,63.5469334 63.2375,63.1922324 L63.2375,41.5469199 L63.2291666,41.5469199 L63.2291602,41.5469336 Z" id="Shape" fill="#FF53A0" fill-rule="nonzero"></path>
            </g>
        </g>
    </g>
</svg>