<?xml version="1.0" encoding="UTF-8"?>
<svg width="100px" height="100px" viewBox="0 0 100 100" version="1.1" xmlns="http://www.w3.org/2000/svg" xmlns:xlink="http://www.w3.org/1999/xlink">
    <!-- Generator: sketchtool 63.1 (101010) - https://sketch.com -->
    <title>design/file_affinity_publisher</title>
    <desc>Created with sketchtool.</desc>
    <defs>
        <path d="M99.9591195,2.99875912 C99.9591195,1.34378574 98.6153273,0 96.9603459,0 L2.99877359,0 C1.34379223,0 0,1.34378574 0,2.99875912 L0,96.9598781 C0,98.6148515 1.34379223,99.9586372 2.99877359,99.9586372 L96.9603459,99.9586372 C98.6153273,99.9586372 99.9591195,98.6148515 99.9591195,96.9598781 L99.9591195,2.99875912 Z" id="path-1"></path>
        <radialGradient cx="76.4244%" cy="-18.7941%" fx="76.4244%" fy="-18.7941%" r="118.794573%" id="radialGradient-3">
            <stop stop-color="#FFAE71" offset="0%"></stop>
            <stop stop-color="#FF9350" offset="100%"></stop>
        </radialGradient>
        <linearGradient x1="181.057936%" y1="3.60600703%" x2="181.057936%" y2="96.7555997%" id="linearGradient-4">
            <stop stop-color="#FFBC8F" offset="0%"></stop>
            <stop stop-color="#FFA16B" offset="100%"></stop>
        </linearGradient>
    </defs>
    <g id="Icons" stroke="none" stroke-width="1" fill="none" fill-rule="evenodd">
        <g id="design/file_affinity_publisher">
            <g id="Group">
                <path d="M99.9591195,2.99875912 C99.9591195,1.34378574 98.6153273,0 96.9603459,0 L2.99877359,0 C1.34379223,0 0,1.34378574 0,2.99875912 L0,96.9598781 C0,98.6148515 1.34379223,99.9586372 2.99877359,99.9586372 L96.9603459,99.9586372 C98.6153273,99.9586372 99.9591195,98.6148515 99.9591195,96.9598781 L99.9591195,2.99875912 Z" id="Path"></path>
                <g id="Clipped">
                    <mask id="mask-2" fill="white">
                        <use xlink:href="#path-1"></use>
                    </mask>
                    <g id="Path"></g>
                    <g id="Group" mask="url(#mask-2)">
                        <g transform="translate(-3.693640, -3.924473)">
                            <path d="M103.652759,6.92323217 C103.652759,5.2682588 102.308967,3.92447306 100.653985,3.92447306 L6.69241311,3.92447306 C5.03743175,3.92447306 3.69363952,5.2682588 3.69363952,6.92323217 L3.69363952,100.884351 C3.69363952,102.539325 5.03743175,103.88311 6.69241311,103.88311 L100.653985,103.88311 C102.308967,103.88311 103.652759,102.539325 103.652759,100.884351 L103.652759,6.92323217 Z" id="Path" fill="#C9284D"></path>
                            <path d="M103.652759,6.92323217 C103.652759,5.2682588 102.308967,3.92447306 100.653985,3.92447306 L44.6768785,3.92447306 L3.69363952,74.9091874 L3.69363952,100.884351 C3.69363952,102.539325 5.03743175,103.88311 6.69241311,103.88311 L100.653985,103.88311 C102.308967,103.88311 103.652759,102.539325 103.652759,100.884351 L103.652759,6.92323217 Z" id="Path" fill="#BD163D"></path>
                            <path d="M49.9097384,103.88311 L3.69363952,103.88311 L3.69363952,76.6404833 L18.9378051,50.2377087 L49.9097384,103.88311 Z M71.4009491,103.88311 L51.4091252,103.88311 C41.6366219,86.9784054 32.1102179,70.5256136 22.3769985,53.5982181 C20.7538624,50.7494969 20.7232749,47.1554841 22.3944914,44.2462879 L29.6837103,31.6258103 L71.4009491,103.88311 Z M92.8921598,103.88311 L72.9003359,103.88311 L30.4334037,30.3273476 L40.4290158,13.0140118 L92.8921598,103.88311 Z M94.3915466,103.88311 L41.1787092,11.7154492 L45.6768696,3.92447306 L56.6719729,3.92447306 L103.652759,85.2453226 L103.652759,103.88311 L94.3915466,103.88311 Z M103.652759,3.92447306 L103.652759,82.7001758 L58.1713597,3.92447306 L103.652759,3.92447306 Z" id="Shape" fill="#8D102D"></path>
                            <path d="M18.9374052,52.8346341 L48.4103516,103.88311 L3.69363952,103.88311 L3.69363952,79.2375086 L18.9374052,52.8346341 Z M103.652759,103.88311 L95.8909334,103.88311 L42.6776961,11.7154492 L47.1758565,3.92447306 L55.1725861,3.92447306 L103.652759,87.8942265 L103.652759,103.88311 Z M91.392773,103.88311 L74.3997227,103.88311 L32.1819886,29.8945267 L40.4286159,15.6109372 L91.392773,103.88311 Z M69.9015623,103.88311 L52.908512,103.88311 C52.908512,103.88311 30.8956147,65.7424928 23.5208308,52.982273 C22.0746222,50.4801084 22.0742224,47.3962845 23.5196312,44.89372 C26.1862407,40.2768305 29.6834104,34.221836 29.6834104,34.221836 L69.9015623,103.88311 Z M59.6707464,3.92447306 L103.652759,3.92447306 L103.652759,80.1031504 L59.6707464,3.92447306 Z" id="Shape" fill="url(#radialGradient-3)"></path>
                            <path d="M93.3888567,107.34068 L76.3862103,107.36467 L32.1819886,29.8945267 L40.4286159,15.6109372 L93.3888567,107.34068 Z M71.8820524,107.313691 L54.8501179,107.245719 L53.8064448,105.437467 L50.9919958,100.561685 L46.8818767,93.4411312 L44.4893552,89.2964462 L41.9509933,84.8992658 L39.3262668,80.3525472 L36.6744513,75.759148 L34.0550226,71.2221254 L31.5272563,66.8442369 L29.1506283,62.7283401 L28.0374836,60.8008377 L26.9844142,58.9774922 L25.9987174,57.2710983 L25.0879898,55.6944507 L24.2595286,54.260644 L23.5208308,52.982273 L23.5039377,52.9528852 L23.4872445,52.9234973 L23.4705513,52.8941095 L23.4540581,52.8645217 L23.4377647,52.8350339 L23.4215713,52.8053462 L23.4054779,52.7757585 L23.3894845,52.7460707 L23.3736909,52.7162831 L23.3579973,52.6864954 L23.3424037,52.6566078 L23.32701,52.6267201 L23.3117163,52.5967325 L23.2965225,52.5667449 L23.2815286,52.5366574 L23.2666347,52.5065698 L23.2518408,52.4764823 L23.2372467,52.4462948 L23.2227527,52.4160073 L23.2083585,52.3857199 L23.1941644,52.3554324 L23.1799702,52.325045 L23.1660758,52.2946575 L23.1521815,52.2641702 L23.1384871,52.2336828 L23.1248927,52.2030954 L23.1114982,52.1725081 L23.0982036,52.1419207 L23.085009,52.1112334 L23.0719143,52.0805461 L23.0590196,52.0497589 L23.0463248,52.0189716 L23.03363,51.9880844 L23.0211351,51.9572971 L23.0087402,51.92631 L22.9964452,51.8954227 L22.9843502,51.8644356 L22.9723551,51.8333484 L22.9605599,51.8023612 L22.9488647,51.7711742 L22.9372694,51.740087 L22.9257741,51.7088999 L22.9144787,51.6777128 L22.9032833,51.6464258 L22.8921879,51.6151387 L22.8812923,51.5838517 L22.8704967,51.5524647 L22.8598011,51.5210776 L22.8493054,51.4896906 L22.8389096,51.4583036 L22.8286139,51.4268166 L22.818518,51.3952297 L22.8085221,51.3637427 L22.7986261,51.3321558 L22.7889301,51.3005689 L22.779334,51.268882 L22.7698379,51.2371951 L22.7605417,51.2055082 L22.7513455,51.1738213 L22.7422492,51.1420345 L22.7332529,51.1102476 L22.7244564,51.0784608 L22.71576,51.0466739 L22.7072635,51.0147871 L22.6988669,50.9829003 L22.6905703,50.9509136 L22.6824736,50.9190268 L22.6743769,50.88704 L22.6665801,50.8550532 L22.6587833,50.8230665 L22.6511864,50.7909798 L22.6436895,50.758893 L22.6362925,50.7268063 L22.6290954,50.6947196 L22.6219984,50.6625329 L22.6151012,50.6304462 L22.608304,50.5982595 L22.6016067,50.5660728 L22.5950094,50.5337862 L22.588612,50.5015995 L22.5823146,50.4693129 L22.5761171,50.4370262 L22.5701196,50.4047396 L22.564222,50.3724529 L22.5584244,50.3400663 L22.5528266,50.3076797 L22.5473289,50.2753931 L22.5419311,50.2430065 L22.5367332,50.2105199 L22.5316353,50.1781334 L22.5266374,50.1456468 L22.5218393,50.1132602 L22.5171412,50.0807736 L22.5125431,50.0482871 L22.5081449,50.0158005 L22.5037467,49.983314 L22.4996484,49.9507275 L22.4955501,49.9182409 L22.4916517,49.8856544 L22.4878532,49.8530679 L22.4842547,49.8204813 L22.4807561,49.7878948 L22.4773575,49.7553083 L22.4740589,49.7227218 L22.4709601,49.6901353 L22.4679613,49.6574488 L22.4651625,49.6248623 L22.4624636,49.5921758 L22.4598647,49.5595893 L22.4573657,49.5269028 L22.4550666,49.4942164 L22.4528675,49.4615299 L22.4508683,49.4288434 L22.4488692,49.3961569 L22.4471699,49.3634705 L22.4454705,49.330784 L22.4439712,49.2980975 L22.4425717,49.265411 L22.4412723,49.2327246 L22.4401727,49.1999381 L22.4391731,49.1672517 L22.4382735,49.1345652 L22.4375738,49.1017787 L22.436974,49.0690923 L22.4364742,49.0363058 L22.4358745,49.0036194 L22.4358745,48.9708329 L22.4358745,48.9381465 L22.4358745,48.90546 L22.4358745,48.8726735 L22.4364742,48.8399871 L22.4368741,48.8072006 L22.4374738,48.7745142 L22.4382735,48.7417277 L22.4390732,48.7090413 L22.4400728,48.6763548 L22.4411723,48.6435684 L22.4424718,48.6108819 L22.4438712,48.5781954 L22.4453706,48.5455089 L22.4469699,48.5128225 L22.4487692,48.480136 L22.4506684,48.4474495 L22.4527676,48.414763 L22.4549667,48.3820766 L22.4572657,48.3493901 L22.4596647,48.3167036 L22.4622637,48.2840171 L22.4649626,48.2514306 L22.4677614,48.2187441 L22.4707602,48.1861576 L22.4738589,48.1535711 L22.4771576,48.1208846 L22.4804562,48.0882981 L22.4839548,48.0557116 L22.4876533,48.023225 L22.4913518,47.9906385 L22.4952502,47.958052 L22.4993485,47.9255655 L22.5034468,47.8929789 L22.5077451,47.8604924 L22.5122432,47.8280058 L22.5167414,47.7955193 L22.5214395,47.7630327 L22.5263375,47.7305462 L22.5312355,47.6981596 L22.5363334,47.665673 L22.5415313,47.6332864 L22.5469291,47.6008998 L22.5524268,47.5685132 L22.5580245,47.5362266 L22.5638221,47.50384 L22.5697197,47.4715533 L22.5757173,47.4392667 L22.5818148,47.4069801 L22.5881122,47.3746934 L22.5945096,47.3424068 L22.6011069,47.3102201 L22.6078042,47.2780334 L22.6146014,47.2458467 L22.6214986,47.21366 L22.6285957,47.1815733 L22.6357927,47.1493866 L22.6431897,47.1172999 L22.6506866,47.0852132 L22.6582835,47.0532264 L22.6659804,47.0211397 L22.6738771,46.9891529 L22.6818739,46.9572661 L22.6899706,46.9252794 L22.6982672,46.8933926 L22.7066637,46.8615058 L22.7151602,46.829619 L22.7238567,46.7977322 L22.7326531,46.7659453 L22.7415495,46.7341585 L22.7506457,46.7023716 L22.759842,46.6706847 L22.7691382,46.6389978 L22.7786343,46.607311 L22.7882304,46.5756241 L22.7979264,46.5440371 L22.8078224,46.5124502 L22.8178183,46.4809632 L22.8279141,46.4493763 L22.8382099,46.4178893 L22.8486057,46.3865023 L22.8591014,46.3550154 L22.869697,46.3236283 L22.8804926,46.2923413 L22.8913882,46.2609543 L22.9024836,46.2296672 L22.9136791,46.1984801 L22.9249744,46.167293 L22.9363698,46.1361059 L22.947965,46.1049188 L22.9596603,46.0738317 L22.9715554,46.0427446 L22.9835505,46.0117574 L22.9956455,45.9807702 L23.0078406,45.949783 L23.0202355,45.9188958 L23.0327304,45.8880086 L23.0454252,45.8571214 L23.05812,45.8263341 L23.0710147,45.7956468 L23.0841094,45.7648596 L23.097204,45.7341723 L23.1104986,45.7035849 L23.123993,45.6729976 L23.1374875,45.6424102 L23.1511819,45.6119228 L23.1650762,45.5814355 L23.1789706,45.551048 L23.1930648,45.5206606 L23.207359,45.4903731 L23.2216531,45.4600857 L23.2361472,45.4297982 L23.2508412,45.3996107 L23.2655352,45.3695231 L23.2804291,45.3393356 L23.2954229,45.309348 L23.3106167,45.2793605 L23.3259105,45.2493729 L23.3413042,45.2194852 L23.3568978,45.1895976 L23.3725914,45.1598099 L23.3883849,45.1300223 L23.4042784,45.1003345 L23.4203718,45.0706468 L23.4365652,45.0410591 L23.4529585,45.0114713 L23.4694518,44.9819835 L23.486045,44.9524957 L23.5027382,44.9231079 L23.5196312,44.89372 L29.6834104,34.221836 L71.8820524,107.313691 Z M50.34596,107.235723 L0.122200139,107.116772 L1.21905156,83.523635 L18.9374052,52.8346341 L50.34596,107.235723 Z M105.903838,91.7928132 L106.325666,107.116772 L97.7970539,107.184744 L42.6776961,11.7154492 L49.3388719,0.178023332 L53.0085711,0.176324035 L105.903838,91.7928132 Z M33.565023,29.8980252 L77.0822256,106.164166 L91.3129057,106.144175 L40.4286159,18.0099445 L33.565023,29.8980252 Z M24.5591061,45.4923723 L24.5440123,45.5185615 L24.5297181,45.5436511 L24.5157239,45.5685408 L24.5014297,45.5941302 L24.4875354,45.6192198 L24.473841,45.6443094 L24.4601466,45.669499 L24.4463522,45.6951884 L24.4328578,45.7205779 L24.4196632,45.7456675 L24.4064686,45.771157 L24.3933739,45.7965464 L24.3803792,45.8220359 L24.3672846,45.8479252 L24.3544898,45.8735146 L24.3419949,45.8987042 L24.3293001,45.9247934 L24.3168052,45.9504827 L24.3045102,45.9761721 L24.2923152,46.0018615 L24.2802202,46.0277508 L24.2681251,46.05384 L24.2564299,46.0792295 L24.2446347,46.1052187 L24.2328396,46.1314079 L24.2211443,46.157697 L24.209849,46.1835863 L24.1985536,46.2095755 L24.1873582,46.2355648 L24.1762627,46.2617539 L24.1651672,46.288143 L24.1543717,46.3142322 L24.1435761,46.3407213 L24.1329804,46.3668105 L24.1224847,46.3930996 L24.111989,46.4195886 L24.1016932,46.4457778 L24.0914974,46.4724668 L24.0813015,46.4989558 L24.0714056,46.5253449 L24.0616096,46.551734 L24.0519136,46.5780231 L24.0423175,46.604712 L24.0327214,46.6315009 L24.0233252,46.65799 L24.014029,46.6848789 L24.0047329,46.7116678 L23.9957365,46.7381568 L23.9868402,46.7649457 L23.9779438,46.7918346 L23.9692474,46.8185236 L23.9606509,46.8453125 L23.9520544,46.8723013 L23.9437578,46.8989903 L23.9354612,46.9259791 L23.9272645,46.9529679 L23.9191678,46.9799568 L23.9112711,47.0070455 L23.9034743,47.0337345 L23.8957774,47.0609232 L23.8880806,47.088012 L23.8806836,47.1150009 L23.8731866,47.1422896 L23.8659896,47.1693784 L23.8588925,47.1963672 L23.8517954,47.2238558 L23.8447983,47.2510446 L23.838101,47.2780334 L23.8314037,47.3052222 L23.8248064,47.3325109 L23.8183091,47.3598995 L23.8119117,47.3872882 L23.8056143,47.4145769 L23.7995168,47.4417657 L23.7935192,47.4691543 L23.7876216,47.4967429 L23.7817241,47.5241316 L23.7761263,47.5514203 L23.7705286,47.5790089 L23.7650309,47.6063975 L23.759733,47.6336862 L23.7545352,47.6612748 L23.7493373,47.6888634 L23.7443393,47.7162521 L23.7394413,47.7440406 L23.7346433,47.7714292 L23.7299452,47.7989179 L23.7253471,47.8268063 L23.7209489,47.854095 L23.7166507,47.8817836 L23.7123524,47.9094721 L23.7083541,47.9368608 L23.7043557,47.9647492 L23.7003573,47.9924378 L23.6966588,48.0201263 L23.6929604,48.0477149 L23.6894618,48.0754035 L23.6859632,48.103192 L23.6826646,48.1308805 L23.6794659,48.158669 L23.6763671,48.1863575 L23.6733684,48.214246 L23.6705695,48.2418346 L23.6677707,48.2695231 L23.6650718,48.2975115 L23.6625728,48.3254 L23.6601738,48.3530886 L23.6578747,48.3808771 L23.6556756,48.4084656 L23.6535765,48.4363541 L23.6515773,48.4644425 L23.649778,48.492131 L23.6479788,48.5199195 L23.6463794,48.547808 L23.64488,48.5755965 L23.6434806,48.6034849 L23.6421811,48.6313734 L23.6409816,48.6593618 L23.6398821,48.6871503 L23.6389824,48.7148389 L23.6380828,48.7428273 L23.6373831,48.7707157 L23.6367833,48.7987042 L23.6362835,48.8264927 L23.6358837,48.8543811 L23.6353839,48.8821696 L23.6353839,48.9099581 L23.6353839,48.9380465 L23.6353839,48.9936235 L23.6358837,49.0217119 L23.6362835,49.0495004 L23.6367833,49.0772889 L23.637483,49.1051773 L23.6381828,49.1331658 L23.6389824,49.1610542 L23.639982,49.1888427 L23.6410816,49.2166312 L23.6422811,49.2446196 L23.6435806,49.2725081 L23.64498,49.3001966 L23.6464794,49.3280851 L23.6481787,49.3560735 L23.649878,49.3837621 L23.6517772,49.4116505 L23.6537764,49.439539 L23.6557756,49.4673275 L23.6579747,49.495016 L23.6603737,49.5228045 L23.6627727,49.550693 L23.6652717,49.5785814 L23.6679706,49.6063699 L23.6706695,49.6339585 L23.6735683,49.661747 L23.6765671,49.6895355 L23.6796658,49.717424 L23.6828645,49.7450126 L23.6896617,49.8003897 L23.6932602,49.8282781 L23.6969587,49.8559667 L23.7006572,49.8834553 L23.7045556,49.9111438 L23.708554,49.9387324 L23.7127523,49.9665209 L23.7169505,49.9942095 L23.7212488,50.0216981 L23.7257469,50.0492867 L23.7349432,50.1044638 L23.7398412,50.1321524 L23.7447392,50.159741 L23.7496372,50.1869297 L23.7548351,50.2145183 L23.7601329,50.2422068 L23.7654307,50.2694955 L23.7709285,50.2969842 L23.7765262,50.3244728 L23.7822239,50.3517615 L23.7880215,50.37945 L23.7939191,50.4066388 L23.7999166,50.4339275 L23.8061141,50.4613162 L23.8123115,50.4885049 L23.8188089,50.5160935 L23.8252063,50.5433822 L23.8318036,50.570471 L23.8385008,50.5976598 L23.845398,50.6250484 L23.8522952,50.6523371 L23.8592923,50.679326 L23.8664894,50.7065147 L23.8737864,50.7336035 L23.8811834,50.7606923 L23.8886803,50.787881 L23.8962772,50.8149698 L23.9039741,50.8419587 L23.9117709,50.8688475 L23.9197676,50.8959363 L23.9278643,50.9228252 L23.9360609,50.949914 L23.9443575,50.9769028 L23.9526541,51.0035918 L23.9611507,51.0303807 L23.9698471,51.0573695 L23.9785436,51.0840585 L23.9874399,51.1109474 L23.9964362,51.1377363 L24.0054326,51.1642253 L24.0147288,51.1911142 L24.024025,51.2179031 L24.0333212,51.2442922 L24.0428173,51.2708812 L24.0525133,51.2974702 L24.0623093,51.3241591 L24.0721053,51.3505482 L24.0821012,51.3771372 L24.0921971,51.4034263 L24.1023929,51.4297154 L24.1127887,51.4563044 L24.1231844,51.4827935 L24.1336801,51.5089826 L24.1442758,51.5351718 L24.1551713,51.5616608 L24.1769624,51.6138393 L24.1881578,51.6402283 L24.1993533,51.6662176 L24.2105487,51.6921069 L24.2222439,51.718496 L24.2337392,51.7444852 L24.2453345,51.7703745 L24.2570297,51.7961638 L24.2689248,51.8219531 L24.2809199,51.8477425 L24.2932149,51.8739316 L24.3054099,51.899721 L24.3177049,51.9253104 L24.3301997,51.9509997 L24.3426946,51.9765892 L24.3555894,52.0025784 L24.3683841,52.0282678 L24.3810789,52.0534573 L24.3940736,52.0788468 L24.4073682,52.1046362 L24.4206627,52.1301256 L24.4338574,52.1552152 L24.4473518,52.1806047 L24.4611462,52.2062941 L24.4746407,52.2311838 L24.5024293,52.281563 L24.5165235,52.3068525 L24.5307177,52.3320421 L24.5450119,52.3570317 L24.5601057,52.3834208 L25.2981039,53.6604924 L26.126665,55.094499 L27.0373926,56.6711466 L28.0230895,58.3776404 L29.0761588,60.2009859 L30.1893035,62.1284883 L32.5660315,66.2443852 L35.0937977,70.6223736 L37.7133264,75.1594961 L40.3651419,79.7527954 L42.9898685,84.299514 L45.5281304,88.6966944 L47.9207519,92.8414793 L52.0308709,99.9621328 L54.8453199,104.837715 L55.544334,106.049214 L69.799704,106.10619 L29.6832105,36.6205435 L24.5591061,45.4923723 Z M2.40376704,83.8706914 L1.37868627,105.920267 L48.2655109,106.031221 L18.9374052,55.2336414 L2.40376704,83.8706914 Z M50.0315886,1.37622752 L44.0627297,11.7154492 L98.4863719,105.979243 L105.09317,105.926265 L104.713325,92.1294739 L52.3162542,1.37622752 L50.0315886,1.37622752 Z M106.576563,85.1672549 L57.5121293,0.185620188 L105.886845,0.0548742908 L106.576563,85.1672549 Z M59.5864809,1.37952615 L105.340069,80.6269337 L104.697332,1.25757661 L59.5864809,1.37952615 Z" id="Shape" fill="url(#linearGradient-4)"></path>
                        </g>
                    </g>
                </g>
            </g>
        </g>
    </g>
</svg>