<?xml version="1.0" encoding="UTF-8"?>
<svg width="100px" height="100px" viewBox="0 0 100 100" version="1.1" xmlns="http://www.w3.org/2000/svg" xmlns:xlink="http://www.w3.org/1999/xlink">
    <!-- Generator: sketchtool 63.1 (101010) - https://sketch.com -->
    <title>general/general_medical</title>
    <desc>Created with sketchtool.</desc>
    <g id="Icons" stroke="none" stroke-width="1" fill="none" fill-rule="evenodd">
        <g id="general/general_medical" fill="#F65B5B" fill-rule="nonzero">
            <g id="Group" transform="translate(0.066288, 0.066288)">
                <polygon id="Path" points="57.3979167 26.7697917 41.5614583 26.7697917 41.5614583 41.5604167 26.7708333 41.5604167 26.7708333 57.396875 41.5614583 57.396875 41.5614583 72.1875 57.3979167 72.1875 57.3979167 57.396875 72.1885417 57.396875 72.1885417 41.5604167 57.3979167 41.5604167"></polygon>
                <path d="M49.4791667,0 C22.1885417,0 1.42108547e-13,22.1885417 1.42108547e-13,49.4791667 C1.42108547e-13,76.7697917 22.1885417,98.9583333 49.4791667,98.9583333 C76.7697917,98.9583333 98.9583333,76.7697917 98.9583333,49.4791667 C98.9583333,22.1885417 76.7697917,0 49.4791667,0 Z M49.4791667,84.6885417 C30.1020833,84.6885417 14.2697917,68.85625 14.2697917,49.4791667 C14.2697917,30.1020833 30.1020833,14.2697917 49.4791667,14.2697917 C68.85625,14.2697917 84.6885417,30.1020833 84.6885417,49.4791667 C84.6885417,68.85625 68.85625,84.6885417 49.4791667,84.6885417 Z" id="Shape"></path>
            </g>
        </g>
    </g>
</svg>