<?xml version="1.0" encoding="UTF-8"?>
<svg width="100px" height="100px" viewBox="0 0 100 100" version="1.1" xmlns="http://www.w3.org/2000/svg" xmlns:xlink="http://www.w3.org/1999/xlink">
    <!-- Generator: sketchtool 63.1 (101010) - https://sketch.com -->
    <title>general/general_decision_gavel</title>
    <desc>Created with sketchtool.</desc>
    <g id="Icons" stroke="none" stroke-width="1" fill="none" fill-rule="evenodd">
        <g id="general/general_decision_gavel" fill="#A8001A" fill-rule="nonzero">
            <g id="_auction_hammer_gavel" transform="translate(5.000000, 5.000000)">
                <path d="M82.363,76.695 C82.363,75.97625 81.78097,75.3981 81.0661,75.3981 L40.8361,75.3981 C40.11735,75.3981 39.5392,75.97622 39.5392,76.695 L39.5392,80.5895 L36.2931,80.5895 C35.57435,80.5895 34.9923,81.17153 34.9961805,81.8864 L34.9961805,88.6989 C34.9961805,89.41765 35.57823,89.9997 36.2931,89.9958195 L85.6131,89.9958195 C86.32794,89.9958195 86.91,89.41377 86.91,88.6989 L86.91,81.8864 C86.91,81.16765 86.33188,80.5895 85.6131,80.5895 L82.3709,80.5895 L82.366994,76.695 L82.363,76.695 Z" id="Path"></path>
                <path d="M88.348,32.586 C86.4105,30.6485 83.4144,30.4141 81.223,31.88287 L77.2425,27.90237 L78.16047,26.9844 C79.42607,25.7188 79.42607,23.6641 78.16047,22.3946 L67.60547,11.8436 C66.33597,10.5741 64.28517,10.5741 63.01567,11.8436 L62.0977,12.76157 L58.1172,8.78107 C59.586,6.58577 59.3516,3.59357 57.41407,1.65607 C55.21097,-0.54703 51.63287,-0.54703 49.42967,1.65607 L33.55467,17.53107 C31.35157,19.73417 31.35157,23.30837 33.55467,25.51547 C35.49217,27.45297 38.48827,27.68737 40.67967,26.21859 L47.35157,32.89049 C46.53907,33.66783 45.77347,34.72249 45.09377,36.14829 C44.28127,37.85919 43.39067,39.44909 42.41797,40.82019 C41.45313,39.89441 39.92187,39.90222 38.97267,40.85144 L38.968764,40.85144 C38.003924,41.81238 38.007824,43.37484 38.968764,44.33974 L38.980483,44.351458 C38.980483,44.351458 34.503883,49.882658 30.183583,54.097558 C13.956583,69.921558 -5.754417,81.089558 1.578583,88.421558 C8.906683,95.753558 20.078583,76.042558 35.902583,59.808558 C40.117383,55.488258 45.648683,51.011658 45.648683,51.011658 L45.660401,51.023377 C46.625241,51.984317 48.183801,51.988217 49.148701,51.023377 L49.148701,51.01947 C50.097921,50.07025 50.105731,48.53897 49.183857,47.57417 C50.554957,46.60151 52.148657,45.71087 53.855757,44.89837 C55.281557,44.22259 56.336257,43.45307 57.113557,42.64057 L63.785457,49.31247 C62.316657,51.50777 62.551057,54.49997 64.488577,56.43747 C66.691677,58.64057 70.265877,58.64057 72.472977,56.43747 L88.347977,40.56247 C90.551077,38.36327 90.551077,34.78907 88.347977,32.58587 L88.348,32.586 Z" id="Path"></path>
            </g>
        </g>
    </g>
</svg>