<?xml version="1.0" encoding="UTF-8"?>
<svg width="100px" height="100px" viewBox="0 0 100 100" version="1.1" xmlns="http://www.w3.org/2000/svg" xmlns:xlink="http://www.w3.org/1999/xlink">
    <!-- Generator: sketchtool 63.1 (101010) - https://sketch.com -->
    <title>general/general_attachment_clip_3</title>
    <desc>Created with sketchtool.</desc>
    <g id="Icons" stroke="none" stroke-width="1" fill="none" fill-rule="evenodd">
        <g id="general/general_attachment_clip_3" fill="#000000" fill-rule="nonzero">
            <g id="attachment_paperclip_2c" transform="translate(27.000000, 23.000000)">
                <path d="M45.133,10.215 C44.19159,6.6955 41.9338,3.7541 38.7775,1.9338 C35.6252,0.1135 31.9455,-0.3748 28.4255,0.5705 C24.906,1.51191 21.9646,3.7697 20.1403,6.926 L1.7533,38.774 C1.7533,38.774 1.749394,38.774 1.749394,38.777906 L1.155644,39.801306 L1.22205,39.840369 C0.32752,41.914569 0.14785,44.211469 0.74158,46.426269 C1.4408,49.027869 3.10878,51.203569 5.44078,52.547369 C6.99548,53.445809 8.71808,53.902869 10.46418,53.902869 C11.33918,53.902869 12.22198,53.789589 13.08918,53.555209 C15.30398,52.961459 17.20248,51.660709 18.55398,49.848209 L18.620386,49.887272 L35.882386,19.989272 L35.898012,19.961929 L36.315982,19.239269 L36.312076,19.239269 L36.315982,19.243176 C36.327701,19.219738 36.335514,19.1963 36.351138,19.176769 L36.425357,19.043959 L36.417545,19.040052 C38.058145,15.954152 36.976135,12.090852 33.925345,10.329152 C30.913645,8.590852 27.089445,9.536182 25.210545,12.407252 L25.202732,12.403346 L25.089452,12.594756 C25.066014,12.637725 25.034764,12.672881 25.011327,12.715846 L25.015233,12.719752 L25.011327,12.715846 L24.839447,13.016626 L24.831634,13.028345 L13.151634,33.258345 L16.233634,35.035645 L28.092634,14.488645 L28.077009,14.480833 L28.092634,14.488645 C28.909044,13.074545 30.729334,12.586345 32.147334,13.402745 C33.537934,14.207435 34.026234,15.976945 33.264534,17.379345 L32.975474,17.894965 L16.131474,47.078965 C15.260384,48.590665 13.854174,49.668765 12.170574,50.118065 C10.486974,50.571185 8.729174,50.336815 7.221374,49.465725 C5.709674,48.594635 4.631574,47.188425 4.182274,45.504825 C3.733054,43.821225 3.963524,42.067325 4.834614,40.555625 L23.221614,8.707625 C24.569314,6.375625 26.741114,4.707625 29.342714,4.008425 C31.944314,3.313115 34.659114,3.672485 36.991114,5.016225 C39.327014,6.363925 40.995014,8.535725 41.690314,11.137325 C42.385624,13.738925 42.030154,16.453725 40.682514,18.789625 L27.436514,41.730625 L30.518514,43.507925 L43.764514,20.566925 C45.588714,17.410725 46.073114,13.734925 45.131714,10.214925 L45.133,10.215 Z" id="Path"></path>
            </g>
        </g>
    </g>
</svg>