<?xml version="1.0" encoding="UTF-8"?>
<svg width="100px" height="100px" viewBox="0 0 100 100" version="1.1" xmlns="http://www.w3.org/2000/svg" xmlns:xlink="http://www.w3.org/1999/xlink">
    <!-- Generator: sketchtool 63.1 (101010) - https://sketch.com -->
    <title>general/general_shield_yellow</title>
    <desc>Created with sketchtool.</desc>
    <defs>
        <linearGradient x1="49.9829132%" y1="100.234771%" x2="49.9829132%" y2="0.229752716%" id="linearGradient-1">
            <stop stop-color="#F9A51A" offset="0%"></stop>
            <stop stop-color="#FFF100" offset="100%"></stop>
        </linearGradient>
        <path d="M51.8487805,4.71219512 C49.9926829,2.98780488 46.6756098,-0.0634146341 43.8902439,0.0780487805 C40.6414634,0.275609756 35.3365854,5.05121951 32.9487805,7.04146341 C27.7097561,11.6170732 21.4853659,15.0658537 14.6560976,16.7243902 C11.2073171,17.5853659 7.95853659,17.9829268 4.44390244,18.5146341 C3.7804878,18.5804878 1.45853659,18.9121951 0.929268293,19.3756098 C-0.0634146341,20.1707317 0.197560976,26.9365854 0.268292683,28.0634146 C1.45346662,47.0545608 8.16070173,65.2858296 19.5658537,80.5170732 C23.6121951,85.8829268 28.5195122,91.1926829 33.8902439,95.1731707 C36.0121951,96.7634146 40.6536585,99.8073171 43.4390244,99.8073171 C46.2902439,99.8073171 51,96.8804878 53.195122,95.297561 C58.7,91.395122 63.7390244,86.2121951 67.8512195,80.9731707 C79.4560976,66.0536585 86.2853659,47.7512195 87.0829268,28.8512195 C87.1487805,27.1926829 87.3463415,21.4243902 86.0219512,20.097561 C84.6292683,18.6341463 77.3341463,17.7097561 75.4121951,17.3780488 C66.304878,15.8536585 58.3463415,11.0780488 51.8487805,4.71219512 Z" id="path-2"></path>
        <linearGradient x1="49.9993047%" y1="93.1929783%" x2="49.9993047%" y2="7.19013166%" id="linearGradient-4">
            <stop stop-color="#231F20" offset="0%"></stop>
            <stop stop-color="#262223" offset="34%"></stop>
            <stop stop-color="#403F3A" offset="59%"></stop>
            <stop stop-color="#6D6E70" offset="100%"></stop>
        </linearGradient>
    </defs>
    <g id="Icons" stroke="none" stroke-width="1" fill="none" fill-rule="evenodd">
        <g id="general/general_shield_yellow">
            <g id="Group-2" transform="translate(6.000000, 0.000000)">
                <path d="M51.8487805,4.71219512 C49.9926829,2.98780488 46.6756098,-0.0634146341 43.8902439,0.0780487805 C40.6414634,0.275609756 35.3365854,5.05121951 32.9487805,7.04146341 C27.7097561,11.6170732 21.4853659,15.0658537 14.6560976,16.7243902 C11.2073171,17.5853659 7.95853659,17.9829268 4.44390244,18.5146341 C3.7804878,18.5804878 1.45853659,18.9121951 0.929268293,19.3756098 C-0.0634146341,20.1707317 0.197560976,26.9365854 0.268292683,28.0634146 C1.45346662,47.0545608 8.16070173,65.2858296 19.5658537,80.5170732 C23.6121951,85.8829268 28.5195122,91.1926829 33.8902439,95.1731707 C36.0121951,96.7634146 40.6536585,99.8073171 43.4390244,99.8073171 C46.2902439,99.8073171 51,96.8804878 53.195122,95.297561 C58.7,91.395122 63.7390244,86.2121951 67.8512195,80.9731707 C79.4560976,66.0536585 86.2853659,47.7512195 87.0829268,28.8512195 C87.1487805,27.1926829 87.3463415,21.4243902 86.0219512,20.097561 C84.6292683,18.6341463 77.3341463,17.7097561 75.4121951,17.3780488 C66.304878,15.8536585 58.3463415,11.0780488 51.8487805,4.71219512 Z" id="Path" fill="url(#linearGradient-1)"></path>
                <g id="Clipped">
                    <mask id="mask-3" fill="white">
                        <use xlink:href="#path-2"></use>
                    </mask>
                    <g id="Path"></g>
                    <polygon id="Path" fill="url(#linearGradient-4)" mask="url(#mask-3)" points="-44.0390244 -52.9121951 43.6268293 -52.9121951 43.6268293 49.8731707 131.358537 49.8731707 131.358537 152.721951 43.6268293 152.721951 43.6268293 50.004878 -44.0390244 50.004878"></polygon>
                </g>
            </g>
        </g>
    </g>
</svg>