<?xml version="1.0" encoding="UTF-8"?>
<svg width="100px" height="100px" viewBox="0 0 100 100" version="1.1" xmlns="http://www.w3.org/2000/svg" xmlns:xlink="http://www.w3.org/1999/xlink">
    <!-- Generator: sketchtool 63.1 (101010) - https://sketch.com -->
    <title>general/general_attachment_clip_4</title>
    <desc>Created with sketchtool.</desc>
    <g id="Icons" stroke="none" stroke-width="1" fill="none" fill-rule="evenodd">
        <g id="general/general_attachment_clip_4" fill="#000000" fill-rule="nonzero">
            <g id="attachment_paperclip_2d" transform="translate(20.000000, 5.000000)">
                <path d="M60,70 L60,30 C60,13.5 46.5,0 30,0 C13.5,0 0,13.5 0,30 L0,67.5 C0,79.898 10.102,90 22.5,90 C34.898,90 45,79.898 45,67.5 L45,35 C45,26.6992 38.3008,20 30,20 C21.6992,20 15,26.6992 15,35 L15,70 L25,70 L25,35 C25,32.1992 27.1992,30 30,30 C32.8008,30 35,32.1992 35,35 L35,67.5 C35,74.3984 29.3984,80 22.5,80 C15.6016,80 10,74.3984 10,67.5 L10,30 C10,19 19,10 30,10 C41,10 50,19 50,30 L50,70 L60,70 Z" id="Path"></path>
            </g>
        </g>
    </g>
</svg>