<?xml version="1.0" encoding="UTF-8"?>
<svg width="100px" height="100px" viewBox="0 0 100 100" version="1.1" xmlns="http://www.w3.org/2000/svg" xmlns:xlink="http://www.w3.org/1999/xlink">
    <!-- Generator: sketchtool 63.1 (101010) - https://sketch.com -->
    <title>general/general_Lesson</title>
    <desc>Created with sketchtool.</desc>
    <defs>
        <linearGradient x1="50%" y1="0%" x2="50%" y2="100%" id="linearGradient-1">
            <stop stop-color="#343333" offset="0%"></stop>
            <stop stop-color="#1C1C1C" offset="100%"></stop>
        </linearGradient>
        <linearGradient x1="50%" y1="0%" x2="50%" y2="100%" id="linearGradient-2">
            <stop stop-color="#FF9500" offset="0%"></stop>
            <stop stop-color="#985900" offset="100%"></stop>
        </linearGradient>
        <rect id="path-3" x="1.36363636" y="8.63636364" width="97.7272727" height="82.7272727" rx="5.45454545"></rect>
        <filter x="-3.6%" y="-3.0%" width="107.2%" height="108.5%" filterUnits="objectBoundingBox" id="filter-4">
            <feOffset dx="0" dy="1" in="SourceAlpha" result="shadowOffsetOuter1"></feOffset>
            <feGaussianBlur stdDeviation="1" in="shadowOffsetOuter1" result="shadowBlurOuter1"></feGaussianBlur>
            <feComposite in="shadowBlurOuter1" in2="SourceAlpha" operator="out" result="shadowBlurOuter1"></feComposite>
            <feColorMatrix values="0 0 0 0 0   0 0 0 0 0   0 0 0 0 0  0 0 0 0.5 0" type="matrix" in="shadowBlurOuter1"></feColorMatrix>
        </filter>
        <filter x="-8.7%" y="-9.1%" width="117.4%" height="120.5%" filterUnits="objectBoundingBox" id="filter-5">
            <feMorphology radius="6" operator="erode" in="SourceAlpha" result="shadowSpreadInner1"></feMorphology>
            <feGaussianBlur stdDeviation="3.5" in="shadowSpreadInner1" result="shadowBlurInner1"></feGaussianBlur>
            <feOffset dx="0" dy="0" in="shadowBlurInner1" result="shadowOffsetInner1"></feOffset>
            <feComposite in="shadowOffsetInner1" in2="SourceAlpha" operator="arithmetic" k2="-1" k3="1" result="shadowInnerInner1"></feComposite>
            <feColorMatrix values="0 0 0 0 0   0 0 0 0 0   0 0 0 0 0  0 0 0 1 0" type="matrix" in="shadowInnerInner1"></feColorMatrix>
        </filter>
    </defs>
    <g id="Icons" stroke="none" stroke-width="1" fill="none" fill-rule="evenodd">
        <g id="general/general_Lesson">
            <g id="Rectangle">
                <use fill="black" fill-opacity="1" filter="url(#filter-4)" xlink:href="#path-3"></use>
                <use fill="url(#linearGradient-1)" fill-rule="evenodd" xlink:href="#path-3"></use>
                <use fill="black" fill-opacity="1" filter="url(#filter-5)" xlink:href="#path-3"></use>
                <rect stroke="url(#linearGradient-2)" stroke-width="6.81818182" stroke-linejoin="square" x="4.77272727" y="12.0454545" width="90.9090909" height="75.9090909" rx="5.45454545"></rect>
            </g>
            <path d="M40.9906237,77.2727273 L40.9906237,74.4258373 C35.0387281,73.6937799 34.7941296,72.5550239 36.0171219,68.6507177 C36.9955157,65.3971292 38.0554423,62.4688995 38.9523033,59.9473684 L54.6066042,59.9473684 C55.8295964,63.2009569 57.0525887,66.6985646 57.8679168,69.138756 C59.1724419,72.7177033 58.7647778,73.6937799 53.9543416,74.4258373 L53.9543416,77.2727273 L77.2727273,77.2727273 L77.2727273,74.4258373 C72.054627,73.7751196 71.0762332,72.7177033 68.3041174,65.5598086 C63.0044843,51.569378 57.9494497,37.4162679 52.7313494,23.1818182 L48.5731757,24.2392344 L31.8589482,66.0478469 C29.1683653,72.8803828 28.1084386,73.7751196 22.7272727,74.4258373 L22.7272727,77.2727273 L40.9906237,77.2727273 Z M53.0574806,55.6363636 L40.3383612,55.6363636 C42.4582144,49.861244 44.4965349,43.923445 46.7794537,37.9856459 L47.0240522,37.9856459 L53.0574806,55.6363636 Z" id="ABC" fill="#FFFFFF" fill-rule="nonzero"></path>
        </g>
    </g>
</svg>