<?xml version="1.0" encoding="UTF-8"?>
<svg width="100px" height="100px" viewBox="0 0 100 100" version="1.1" xmlns="http://www.w3.org/2000/svg" xmlns:xlink="http://www.w3.org/1999/xlink">
    <!-- Generator: sketchtool 63.1 (101010) - https://sketch.com -->
    <title>general/general_phone_call</title>
    <desc>Created with sketchtool.</desc>
    <g id="Icons" stroke="none" stroke-width="1" fill="none" fill-rule="evenodd">
        <g id="general/general_phone_call" fill-rule="nonzero">
            <g id="np_phone-call_670890_F1F35B">
                <circle id="Oval" fill="#FFFFFF" cx="49.3181818" cy="50.2272727" r="41.1363636"></circle>
                <path d="M50,0 C22.3866667,0 0,22.3833333 0,50 C0,77.6166667 22.3866667,100 50,100 C77.6166667,100 100,77.6166667 100,50 C100,22.3833333 77.6166667,0 50,0 Z M74.5128028,82.5446331 C71.4346083,85.622667 66.6939993,86.6042283 62.4614344,85.425294 C62.4614344,85.425294 47.9045735,83.0772751 32.4144672,67.5884825 C16.9193095,52.1042359 14.5716731,37.5430838 14.5716731,37.5430838 C13.397615,33.305815 14.3792907,28.5654535 17.4575358,25.4923445 C25.5377491,17.4076281 30.7768046,21.3489005 35.5225913,27.1102222 C39.0842044,31.4362646 39.0249768,34.7115452 35.8975059,38.9537388 C35.3351466,39.7183161 32.9968679,42.2586947 32.9968679,42.2586947 C32.3161165,42.9936724 31.9560025,44.3945661 32.1878616,45.3712026 C32.1878616,45.3712026 33.2533905,49.7415687 41.6887801,58.3096784 C50.2623885,66.7496156 54.6329827,67.8150257 54.6329827,67.8150257 C55.6047829,68.0517976 57.0106749,67.68184 57.7507044,67.0060616 C57.7507044,67.0060616 60.2911778,64.6678924 61.0509078,64.1006502 C65.2933229,60.9683167 68.5687744,60.9141433 72.8950427,64.4755453 C78.6518663,69.2257565 82.5884193,74.4593612 74.5130049,82.5447089 L74.5128028,82.5446331 Z M63.5756021,44.6868311 C63.0786168,42.8283824 62.0895573,41.1188997 60.7178922,39.7424595 C59.3462271,38.3709807 57.6365122,37.38203 55.7728492,36.8801764 C53.904097,36.3832586 51.9311435,36.3832586 50.0574293,36.8851453 C48.6758403,37.252866 47.2742761,36.4329427 46.9064546,35.066387 C46.5386839,33.6949081 47.3537439,32.2836117 48.7254599,31.9158401 C51.4687902,31.1803987 54.3663231,31.1803987 57.0997294,31.9108712 C59.8380977,32.6463126 62.3479612,34.0974011 64.3557756,36.1049429 C66.368552,38.117446 67.8198631,40.6269686 68.545455,43.3550425 C69.2760343,46.093039 69.2710596,48.9901784 68.5404854,51.7281749 C68.2323474,52.8760649 67.1936301,53.6363636 66.0605209,53.6363636 C65.8368763,53.6363636 65.6181936,53.6065488 65.3945489,53.5469179 C64.0228838,53.1791972 63.2077221,51.7729384 63.5705816,50.396371 C64.0725416,48.5329611 64.0725416,46.555187 63.5755512,44.6866886 L63.5756021,44.6868311 Z M81.2709445,54.9206331 C80.9702833,56.0640958 79.9352054,56.8181818 78.8065274,56.8181818 C78.5896496,56.8181818 78.3678508,56.7935385 78.1509857,56.7343939 C76.7906416,56.3745927 75.9772868,54.9748809 76.3420725,53.61446 C77.4461455,49.4644318 77.4510791,45.0877929 76.3519309,40.9477325 C75.2429243,36.8175138 73.0544751,33.0322581 70.0134165,29.9961044 C66.9722317,26.9501092 63.1868387,24.7618528 59.0564702,23.6578199 C54.9162597,22.553787 50.5344149,22.5587204 46.3943305,23.6627483 C45.0339864,24.0274703 43.6341481,23.2142333 43.2693624,21.8588216 C42.9046271,20.4985268 43.71296,19.0987393 45.0733545,18.7339668 C50.0761299,17.3933554 55.3648287,17.3933554 60.3676042,18.72411 C65.3654586,20.0598006 69.9443962,22.7064514 73.6114326,26.3833226 C77.2835162,30.0453052 79.935184,34.6291237 81.270923,39.6266707 C82.606662,44.6243438 82.606662,49.9128508 81.270923,54.9203656 L81.2709445,54.9206331 Z" id="Shape" fill="#00BE00"></path>
            </g>
        </g>
    </g>
</svg>