<?xml version="1.0" encoding="UTF-8"?>
<svg width="100px" height="100px" viewBox="0 0 100 100" version="1.1" xmlns="http://www.w3.org/2000/svg" xmlns:xlink="http://www.w3.org/1999/xlink">
    <!-- Generator: sketchtool 63.1 (101010) - https://sketch.com -->
    <title>general/general_stamp</title>
    <desc>Created with sketchtool.</desc>
    <g id="Icons" stroke="none" stroke-width="1" fill="none" fill-rule="evenodd">
        <g id="general/general_stamp" fill-rule="nonzero">
            <g id="stamp_template" transform="translate(1.000000, 0.000000)">
                <g id="Group" transform="translate(48.732943, 12.865497)" fill="#D49000">
                    <path d="M25.5354776,51.2003899 C11.4545809,51.2003899 -0.000974658869,39.7448343 -0.000974658869,25.6639376 C-0.000974658869,11.582846 11.4545809,0.127290448 25.5354776,0.127290448 C39.6165692,0.127290448 51.0721248,11.5830409 51.0721248,25.6641326 C51.0721248,39.7448343 39.6165692,51.2003899 25.5354776,51.2003899 Z M25.5354776,3.36003899 C13.237232,3.36003899 3.23177388,13.365692 3.23177388,25.6639376 C3.23177388,37.9621832 13.2374269,47.9676413 25.5354776,47.9676413 C37.8339181,47.9676413 47.8393762,37.9619883 47.8393762,25.6639376 C47.8393762,13.365692 37.8341131,3.36003899 25.5354776,3.36003899 Z" id="Shape"></path>
                    <path d="M25.5354776,43.9212476 C15.4684211,43.9212476 7.27836257,35.7311891 7.27836257,25.6641326 C7.27836257,15.5968811 15.468616,7.40682261 25.5354776,7.40682261 C35.602729,7.40682261 43.7927875,15.5968811 43.7927875,25.6641326 C43.7927875,35.7309942 35.602729,43.9212476 25.5354776,43.9212476 Z M25.5354776,10.6395712 C17.2508772,10.6395712 10.5109162,17.3795322 10.5109162,25.6643275 C10.5109162,33.9489279 17.2506823,40.6888889 25.5354776,40.6888889 C33.8202729,40.6888889 40.5602339,33.9491228 40.5602339,25.6643275 C40.5602339,17.3795322 33.8202729,10.6395712 25.5354776,10.6395712 Z" id="Shape"></path>
                    <path d="M22.7933723,33.6105263 L22.7933723,33.6105263 C22.3647173,33.6105263 21.9534113,33.4403509 21.6502924,33.137037 L16.1048733,27.5912281 C15.4736842,26.960039 15.4736842,25.9366472 16.1050682,25.3054581 C16.7362573,24.674269 17.7596491,24.6744639 18.3906433,25.305653 L22.7931774,29.7087719 L33.111501,19.3900585 C33.742885,18.7590643 34.7660819,18.7590643 35.3974659,19.3900585 C36.028655,20.0214425 36.028655,21.0446394 35.3974659,21.6760234 L23.9360624,33.1374269 C23.6329435,33.4401559 23.2220273,33.6105263 22.7933723,33.6105263 Z" id="Path"></path>
                </g>
                <path d="M23.9454191,21.379922 C23.9454191,40.9023392 35.9378168,39.6469786 35.9378168,72.239961 L54.41423,72.239961 C54.41423,39.6469786 66.4066277,40.9023392 66.4066277,21.379922 C66.4066277,9.65477583 56.9017544,0.149122807 45.1758285,0.149122807 C33.4510721,0.149122807 23.9454191,9.65477583 23.9454191,21.379922 Z" id="Path" fill="#5C6670"></path>
                <path d="M31.4822612,45.3107212 C33.8873294,51.0750487 35.9380117,58.762963 35.9380117,72.239961 L54.414425,72.239961 C54.414425,58.762963 56.4651072,51.0752437 58.8707602,45.3107212 L31.4822612,45.3107212 Z" id="Path" fill="#333E48"></path>
                <path d="M35.6475634,64.0031189 C35.8346979,66.4869396 35.9380117,69.217154 35.9380117,72.2397661 L54.414425,72.2397661 C54.414425,69.2173489 54.5181287,66.4869396 54.7054581,64.0031189 L35.6475634,64.0031189 Z" id="Path" fill="#000000" opacity="0.2"></path>
                <path d="M83.6588694,85.820078 C83.6588694,78.0231969 77.3378168,71.7025341 69.5413255,71.7025341 L20.811306,71.7025341 C13.014425,71.7025341 6.69376218,78.0231969 6.69376218,85.820078 L83.6588694,85.820078 Z" id="Path" fill="#C29178"></path>
                <path d="M83.0933723,81.8660819 L7.25906433,81.8660819 C6.89395712,83.1212476 6.69395712,84.4469786 6.69395712,85.8202729 L83.6588694,85.8202729 C83.6588694,84.4469786 83.4590643,83.1210526 83.0933723,81.8660819 Z" id="Path" fill="#000000" opacity="0.2"></path>
                <path d="M90.3524366,94.8467836 C90.3524366,97.062768 88.5395712,98.8762183 86.3230019,98.8762183 L4.02904483,98.8762183 C1.8128655,98.8762183 0,97.062963 0,94.8467836 L0,89.3120858 C0,87.0961014 1.8128655,85.2830409 4.02904483,85.2830409 L86.322807,85.2830409 C88.5393762,85.2830409 90.3524366,87.0961014 90.3524366,89.3120858 L90.3524366,94.8467836 L90.3524366,94.8467836 L90.3524366,94.8467836 Z" id="Path" fill="#FFC843"></path>
            </g>
        </g>
    </g>
</svg>