<?xml version="1.0" encoding="UTF-8"?>
<svg width="100px" height="100px" viewBox="0 0 100 100" version="1.1" xmlns="http://www.w3.org/2000/svg" xmlns:xlink="http://www.w3.org/1999/xlink">
    <!-- Generator: sketchtool 63.1 (101010) - https://sketch.com -->
    <title>general/general_shop_vendor</title>
    <desc>Created with sketchtool.</desc>
    <g id="Icons" stroke="none" stroke-width="1" fill="none" fill-rule="evenodd">
        <g id="general/general_shop_vendor" fill-rule="nonzero">
            <g id="shop_vendor" transform="translate(0.000000, 3.000000)">
                <polyline id="Path" fill="#95A5A6" points="0 87.5 100 87.5 83.3333333 62.5 16.6666667 62.5 0 87.5"></polyline>
                <g id="Group" transform="translate(0.000000, 11.833333)">
                    <rect id="Rectangle" fill="#F1C40F" x="8.33333333" y="0.666666667" width="83.3333333" height="70.8333333"></rect>
                    <rect id="Rectangle" fill="#ECF0F1" x="16.6666667" y="29.8333333" width="37.5" height="37.5"></rect>
                    <rect id="Rectangle" fill="#ECF0F1" x="58.3333333" y="34" width="25" height="37.5"></rect>
                    <rect id="Rectangle" fill="#F39C12" x="8.33333333" y="21.5" width="83.3333333" height="16.6666667"></rect>
                    <rect id="Rectangle" fill="#BDC3C7" x="58.3333333" y="29.8333333" width="25" height="4.16666667"></rect>
                    <rect id="Rectangle" fill="#BDC3C7" x="16.6666667" y="29.8333333" width="37.5" height="8.33333333"></rect>
                    <path d="M0,17.3333333 L0,23.5833333 C0,26.9166667 2.79820833,29.8333333 6.25,29.8333333 C9.70166667,29.8333333 12.5,26.9166667 12.5,23.5833333 L12.5,17.3333333 L6.25,17.3333333 L0,17.3333333 Z" id="Path" fill="#C0392B"></path>
                    <path d="M12.5,17.3333333 L12.5,23.5833333 C12.5,26.9166667 15.2983333,29.8333333 18.75,29.8333333 C22.2016667,29.8333333 25,26.9166667 25,23.5833333 L25,17.3333333 L18.75,17.3333333 L12.5,17.3333333 Z" id="Path" fill="#BDC3C7"></path>
                    <path d="M25,17.3333333 L25,23.5833333 C25,26.9166667 27.7983333,29.8333333 31.25,29.8333333 C34.7016667,29.8333333 37.5,26.9166667 37.5,23.5833333 L37.5,17.3333333 L31.25,17.3333333 L25,17.3333333 Z" id="Path" fill="#C0392B"></path>
                    <path d="M37.5,17.3333333 L37.5,23.5833333 C37.5,26.9166667 40.2983333,29.8333333 43.75,29.8333333 C47.2,29.8333333 50,26.9166667 50,23.5833333 L50,17.3333333 L43.75,17.3333333 L37.5,17.3333333 Z" id="Path" fill="#BDC3C7"></path>
                    <path d="M50,17.3333333 L50,23.5833333 C50,26.9166667 52.8,29.8333333 56.25,29.8333333 C59.7,29.8333333 62.5,26.9166667 62.5,23.5833333 L62.5,17.3333333 L56.25,17.3333333 L50,17.3333333 Z" id="Path" fill="#C0392B"></path>
                    <path d="M62.5,17.3333333 L62.5,23.5833333 C62.5,26.9166667 65.3,29.8333333 68.75,29.8333333 C72.2,29.8333333 75,26.9166667 75,23.5833333 L75,17.3333333 L68.75,17.3333333 L62.5,17.3333333 Z" id="Path" fill="#BDC3C7"></path>
                    <path d="M75,17.3333333 L75,23.5833333 C75,26.9166667 77.8,29.8333333 81.25,29.8333333 C84.7,29.8333333 87.5,26.9166667 87.5,23.5833333 L87.5,17.3333333 L81.25,17.3333333 L75,17.3333333 Z" id="Path" fill="#C0392B"></path>
                    <path d="M87.5,17.3333333 L87.5,23.5833333 C87.5,26.9166667 90.3,29.8333333 93.75,29.8333333 C97.2,29.8333333 100,26.9166667 100,23.5833333 L100,17.3333333 L93.75,17.3333333 L87.5,17.3333333 Z" id="Path" fill="#BDC3C7"></path>
                    <polygon id="Path" fill="#ECF0F1" points="41.6666667 0.666666667 50 0.666666667 50 17.3333333 37.5 17.3333333"></polygon>
                    <polygon id="Path" fill="#E74C3C" points="50 0.666666667 58.3333333 0.666666667 62.5 17.3333333 50 17.3333333"></polygon>
                    <polygon id="Path" fill="#ECF0F1" points="20.8333333 0.666666667 33.3333333 0.666666667 25 17.3333333 12.5 17.3333333"></polygon>
                    <polygon id="Path" fill="#E74C3C" points="33.3333333 0.666666667 41.6666667 0.666666667 37.5 17.3333333 25 17.3333333"></polygon>
                    <polygon id="Path" fill="#ECF0F1" points="66.6666667 0.666666667 58.3333333 0.666666667 62.5 17.3333333 75 17.3333333"></polygon>
                    <polygon id="Path" fill="#E74C3C" points="79.1666667 0.666666667 66.6666667 0.666666667 75 17.3333333 87.5 17.3333333"></polygon>
                    <polygon id="Path" fill="#E74C3C" points="8.33333333 0.666666667 20.8333333 0.666666667 12.5 17.3333333 0 17.3333333"></polygon>
                    <polygon id="Path" fill="#ECF0F1" points="91.6666667 0.666666667 79.1666667 0.666666667 87.5 17.3333333 100 17.3333333"></polygon>
                    <rect id="Rectangle" fill="#3498DB" x="62.5" y="38.1666667" width="16.6666667" height="33.3333333"></rect>
                    <rect id="Rectangle" fill="#ECF0F1" x="58.3333333" y="50.6666667" width="20.8333333" height="4.16666667"></rect>
                    <rect id="Rectangle" fill="#BDC3C7" x="79.1666667" y="34" width="4.16666667" height="4.16666667"></rect>
                    <rect id="Rectangle" fill="#2980B9" x="62.5" y="34" width="16.6666667" height="4.16666667"></rect>
                    <rect id="Rectangle" fill="#BDC3C7" x="58.3333333" y="34" width="4.16666667" height="4.16666667"></rect>
                    <rect id="Rectangle" fill="#3498DB" x="20.8333333" y="34" width="29.1666667" height="29.1666667"></rect>
                </g>
                <g id="Group" transform="translate(4.166667, 3.500000)" fill="#ECF0F1">
                    <rect id="Rectangle" x="12.5" y="54.8333333" width="37.5" height="4.16666667"></rect>
                    <rect id="Rectangle" x="29.1666667" y="42.3333333" width="4.16666667" height="29.1666667"></rect>
                    <polyline id="Path" points="7.40148683e-15 9 91.6666667 9 76.3875 0.666666667 15.2791667 0.666666667 0 9"></polyline>
                </g>
                <rect id="Rectangle" fill="#BDC3C7" x="33.3333333" y="45.8333333" width="4.16666667" height="4.16666667"></rect>
                <polyline id="Path" fill="#BDC3C7" points="4.16666667 8.33333333 95.8333333 8.33333333 80.5541667 0 19.4458333 0 4.16666667 8.33333333"></polyline>
                <g id="Group" transform="translate(0.000000, 7.666667)">
                    <rect id="Rectangle" fill="#7F8C8D" x="4.16666667" y="0.666666667" width="91.6666667" height="4.16666667"></rect>
                    <rect id="Rectangle" fill="#2980B9" x="62.5" y="63.1666667" width="16.6666667" height="12.5"></rect>
                    <rect id="Rectangle" fill="#7F8C8D" x="0" y="79.8333333" width="100" height="4.16666667"></rect>
                    <path d="M20.8333333,38.1666667 L20.8333333,42.3333333 L33.3333333,42.3333333 L33.3333333,38.1666667 L20.8333333,38.1666667 Z M37.5,38.1666667 L37.5,42.3333333 L50,42.3333333 L50,38.1666667 L37.5,38.1666667 Z" id="Shape" fill="#2980B9"></path>
                    <path d="M20.8333333,63.1666667 L20.8333333,67.3333333 L33.3333333,67.3333333 L33.3333333,63.1666667 L20.8333333,63.1666667 Z M37.5,63.1666667 L37.5,67.3333333 L50,67.3333333 L50,63.1666667 L37.5,63.1666667 Z" id="Shape" fill="#2980B9"></path>
                    <path d="M8.33333333,4.83333333 L6.25,9 L18.75,9 L20.8333333,4.83333333 L8.33333333,4.83333333 Z M29.1666667,4.83333333 L28.125,9 L40.625,9 L41.6666667,4.83333333 L29.1666667,4.83333333 Z M50,4.83333333 L50,9 L59.375,9 L58.3333333,4.83333333 L50,4.83333333 Z M66.6666667,4.83333333 L68.75,9 L81.25,9 L79.1666667,4.83333333 L66.6666667,4.83333333 Z" id="Shape" fill="#C0392B"></path>
                    <path d="M20.8333333,4.83333333 L18.75,9 L31.2554167,9 L33.3333333,4.83333333 L20.8333333,4.83333333 Z M41.6666667,4.83333333 L40.625,9 L50,9 L50,4.83333333 L41.6666667,4.83333333 Z M58.3333333,4.83333333 L59.375,9 L68.75,9 L66.6666667,4.83333333 L58.3333333,4.83333333 Z M79.1666667,4.83333333 L81.25,9 L93.75,9 L91.6666667,4.83333333 L79.1666667,4.83333333 Z" id="Shape" fill="#BDC3C7"></path>
                </g>
            </g>
        </g>
    </g>
</svg>