<?xml version="1.0" encoding="UTF-8"?>
<svg width="100px" height="100px" viewBox="0 0 100 100" version="1.1" xmlns="http://www.w3.org/2000/svg" xmlns:xlink="http://www.w3.org/1999/xlink">
    <!-- Generator: sketchtool 63.1 (101010) - https://sketch.com -->
    <title>general/general_attachment_clip_2</title>
    <desc>Created with sketchtool.</desc>
    <g id="Icons" stroke="none" stroke-width="1" fill="none" fill-rule="evenodd">
        <g id="general/general_attachment_clip_2" fill="#000000" fill-rule="nonzero">
            <g id="attachment_paperclip_2e" transform="translate(29.000000, 2.000000)">
                <path d="M21,0.1406 C9.875,0.1406 0.828,9.1914 0.828,20.3126 L0.828,80.4296 C0.828,88.9413 7.7499,95.8636 16.262,95.8636 C24.7741,95.8636 31.696,88.9417 31.696,80.4296 L31.696,31.6096 C31.696,25.3244 26.5788,20.2076 20.29,20.2076 C14.0009,20.2076 8.888,25.3248 8.888,31.6096 L8.888,73.8246 L14.1497,73.8246 L14.1497,31.6096 C14.1497,28.2229 16.9036,25.469 20.2903,25.469 C23.677,25.469 26.4309,28.2229 26.4309,31.6096 L26.4309,80.4296 C26.4309,86.039 21.8684,90.6016 16.2589,90.6016 C10.6495,90.6016 6.0869,86.0391 6.0869,80.4296 L6.090806,20.3126 C6.090806,12.0899 12.782206,5.4026 21.000806,5.4026 C29.223506,5.4026 35.914806,12.094 35.914806,20.3126 L35.914806,73.8246 L41.176506,73.8246 L41.176506,20.3126 C41.176506,9.1876 32.125706,0.1406 21.000506,0.1406 L21,0.1406 Z" id="Path"></path>
            </g>
        </g>
    </g>
</svg>