<?xml version="1.0" encoding="UTF-8"?>
<svg width="100px" height="100px" viewBox="0 0 100 100" version="1.1" xmlns="http://www.w3.org/2000/svg" xmlns:xlink="http://www.w3.org/1999/xlink">
    <!-- Generator: sketchtool 63.1 (101010) - https://sketch.com -->
    <title>general/general_attachment_clip_5</title>
    <desc>Created with sketchtool.</desc>
    <g id="Icons" stroke="none" stroke-width="1" fill="none" fill-rule="evenodd">
        <g id="general/general_attachment_clip_5" fill="#000000" fill-rule="nonzero">
            <g id="attachment_paperclip_2b" transform="translate(9.000000, 5.000000)">
                <path d="M74.422,38.062 L33.856,78.093 C30.9576,80.9914 27.0982,82.5891 22.997,82.5891 C18.8954,82.5891 15.04,80.9914 12.138,78.093 C9.2435,75.1985 7.6497,71.343 7.6497,67.238 C7.6497,63.133 9.2395,59.281 12.1263,56.394 L58.9893,10.046 C60.6885,8.3468 62.9541,7.4093 65.3565,7.4093 C67.7588,7.4093 70.0206,8.3468 71.7198,10.046 C75.2276,13.5538 75.2315,19.2608 71.735425,22.761 L24.868425,69.105 C23.868425,70.105 22.122325,70.105 21.122325,69.105 C20.091125,68.0738 20.083225,66.4019 21.094981,65.3902 L44.672981,42.3592 C45.380011,41.66779 45.774581,40.7381 45.786281,39.7498 C45.798,38.75761 45.423001,37.824 44.727681,37.117 C43.340981,35.7029 40.895681,35.6795 39.485481,37.062312 L15.883481,60.121312 C13.985081,62.015812 12.942081,64.543212 12.942081,67.234612 C12.942081,69.922112 13.988981,72.449412 15.883481,74.347912 C17.781881,76.246312 20.313181,77.293212 23.000681,77.293212 C25.688181,77.293212 28.207681,76.250212 30.098381,74.359612 L76.965381,28.015612 C80.063081,24.921812 81.766181,20.800812 81.766181,16.410612 C81.766181,12.023912 80.063081,7.902812 76.965381,4.805612 C73.859881,1.707912 69.738781,0.000912 65.356381,0.000912 C60.973581,0.000912 56.856381,1.704012 53.766381,4.793912 L6.895381,51.141912 C2.602381,55.434912 0.235181,61.153912 0.235181,67.239912 C0.235181,73.325812 2.598481,79.044912 6.895381,83.337912 C11.196181,87.634812 16.915381,90.002012 22.997381,90.002012 C29.075481,90.002012 34.790381,87.638712 39.079381,83.353612 L79.630381,43.337612 C80.333501,42.642302 80.728081,41.712612 80.731981,40.724312 C80.739793,39.736032 80.360891,38.802412 79.665581,38.099312 C78.274981,36.685212 75.829681,36.673512 74.423381,38.064156 L74.422,38.062 Z" id="Path"></path>
            </g>
        </g>
    </g>
</svg>