<?xml version="1.0" encoding="UTF-8"?>
<svg width="100px" height="100px" viewBox="0 0 100 100" version="1.1" xmlns="http://www.w3.org/2000/svg" xmlns:xlink="http://www.w3.org/1999/xlink">
    <!-- Generator: sketchtool 63.1 (101010) - https://sketch.com -->
    <title>general/court_bank</title>
    <desc>Created with sketchtool.</desc>
    <g id="Icons" stroke="none" stroke-width="1" fill="none" fill-rule="evenodd">
        <g id="general/court_bank" fill="#00479E" fill-rule="nonzero" stroke="#00479E" stroke-width="0.5">
            <g id="court_ea_standard_judge">
                <path d="M97.0687867,94.140625 L94.1390992,94.140625 L94.1390992,91.2109375 C94.1390992,89.5919801 92.829132,88.28125 91.2094117,88.28125 L8.7890625,88.28125 C7.16934199,88.28125 5.859375,89.5919801 5.859375,91.2109375 L5.859375,94.140625 L2.9296875,94.140625 C1.31073008,94.140625 0,95.4513551 0,97.0703125 C0,98.690033 1.31073008,100 2.9296875,100 L97.0687867,100 C98.688507,100 99.9984742,98.690033 99.9984742,97.0703125 C99.9984742,95.4513551 98.688507,94.140625 97.0687867,94.140625 Z" id="Path"></path>
                <path d="M49.9992371,17.7749633 C48.3833313,17.7749633 47.0695496,19.0879822 47.0695496,20.7046508 C47.0695496,22.3205566 48.3833313,23.6335754 49.9992371,23.6335754 C51.6159059,23.6335754 52.9289246,22.3205566 52.9289246,20.7046508 C52.9289246,19.0879822 51.6159059,17.7749633 49.9992371,17.7749633 Z" id="Path"></path>
                <path d="M99.8466492,33.5449219 C100.247192,32.3493957 99.8352051,31.0302734 98.8258361,30.2749633 L51.7562867,0.588226367 C50.7148742,-0.196075391 49.2843629,-0.196075391 48.2429504,0.588226367 L1.17340078,30.2749633 C0.163269141,31.0302734 -0.248718359,32.3493957 0.151825,33.5449219 C0.549316406,34.7412109 1.66854863,35.5476379 2.9296875,35.5476379 L97.0695496,35.5476379 C98.3306885,35.5476379 99.4491578,34.7412109 99.8466492,33.5449219 Z M49.9992371,29.6882629 C45.1530457,29.6882629 41.2101746,25.5508422 41.2101746,20.7046508 C41.2101746,15.8576965 45.1530457,11.9155883 49.9992371,11.9155883 C54.8454285,11.9155883 58.7882996,15.8576965 58.7882996,20.7046508 C58.7882996,25.5508422 54.8454285,29.6882629 49.9992371,29.6882629 Z" id="Shape"></path>
                <polygon id="Path" points="11.71875 58.9851379 23.6328125 58.9851379 23.6328125 82.421875 11.71875 82.421875"></polygon>
                <polygon id="Path" points="76.5617371 58.9851379 88.2797242 58.9851379 88.2797242 82.421875 76.5617371 82.421875"></polygon>
                <polygon id="Path" points="44.1398621 58.9851379 55.8586121 58.9851379 55.8586121 82.421875 44.1398621 82.421875"></polygon>
                <path d="M94.1390992,50.1960754 L94.1390992,41.4070129 L5.859375,41.4070129 L5.859375,50.1960754 C5.859375,51.815033 7.16934199,53.1257629 8.7890625,53.1257629 L91.2094117,53.1257629 C92.829132,53.1257629 94.1390992,51.815033 94.1390992,50.1960754 Z" id="Path"></path>
            </g>
        </g>
    </g>
</svg>