<?xml version="1.0" encoding="UTF-8"?>
<svg width="100px" height="100px" viewBox="0 0 100 100" version="1.1" xmlns="http://www.w3.org/2000/svg" xmlns:xlink="http://www.w3.org/1999/xlink">
    <!-- Generator: sketchtool 63.1 (101010) - https://sketch.com -->
    <title>general/general_attachment_clip_1</title>
    <desc>Created with sketchtool.</desc>
    <g id="Icons" stroke="none" stroke-width="1" fill="none" fill-rule="evenodd">
        <g id="general/general_attachment_clip_1" fill="#535353" fill-rule="nonzero">
            <g id="attachment_paperclip_2" transform="translate(31.000000, 14.000000)">
                <path d="M32.5035673,15.7462693 L32.5035673,52.8770287 C32.5035673,60.3044768 26.4274481,66.380596 19,66.380596 C11.5725519,66.380596 5.49643267,60.3044768 5.49643267,52.8770287 L5.49643267,14.0595386 C5.49643267,9.3315887 9.211696,5.619404 13.9365673,5.619404 C18.6614386,5.619404 22.376702,9.3315077 22.376702,14.0595386 L22.376702,52.8802693 C22.376702,54.7347819 20.8576722,56.2569713 19,56.2569713 C17.1454874,56.2569713 15.623298,54.7379415 15.623298,52.8802693 L15.623298,20.809702 L10.5598653,20.809702 L10.5598653,52.8770287 C10.5598653,57.6049786 14.2751287,61.3171634 19,61.3171634 C23.7248713,61.3171634 27.4401347,57.6050596 27.4401347,52.8770287 L27.4401347,14.0595386 C27.4401347,6.6320905 21.3640154,0.55597129 13.9365673,0.55597129 C6.5091192,0.55597129 0.433,6.6320905 0.433,14.0595386 L0.433,52.8802693 C0.433,63.1715949 8.7054338,71.4440287 19,71.4440287 C29.2945662,71.4440287 37.567,63.1715949 37.567,52.8770287 L37.567,15.7462693 L32.5035673,15.7462693 Z" id="Path"></path>
            </g>
        </g>
    </g>
</svg>