<?xml version="1.0" encoding="UTF-8"?>
<svg width="100px" height="100px" viewBox="0 0 100 100" version="1.1" xmlns="http://www.w3.org/2000/svg" xmlns:xlink="http://www.w3.org/1999/xlink">
    <!-- Generator: sketchtool 63.1 (101010) - https://sketch.com -->
    <title>general/general_snippet</title>
    <desc>Created with sketchtool.</desc>
    <g id="Icons" stroke="none" stroke-width="1" fill="none" fill-rule="evenodd">
        <g id="general/general_snippet" fill="#BEC000" fill-rule="nonzero">
            <g id="Group" transform="translate(0.043775, 15.506494)">
                <path d="M85.1256383,9.38933934 C80.9589716,3.86767267 73.1464716,2.72433934 67.6245966,6.78517267 L38.9787633,28.0330893 L30.1245966,21.469756 C29.1887216,20.7414018 28.66793,19.492256 28.9770966,18.344756 C29.49793,16.1555893 29.6037216,13.864756 29.0828883,11.4680893 C27.8337216,5.73892267 23.0403883,1.15725601 17.2099716,0.217047675 C8.04247164,-1.34545233 0.0224716402,5.73871434 0.0224716402,14.694131 C0.0224716402,22.8199643 6.58580497,29.3837143 14.712055,29.3837143 C17.5237216,29.3837143 20.0262216,28.6553602 22.317055,27.300381 C23.3587216,26.673756 24.7137216,26.7795477 25.649555,27.5079018 L34.1903883,33.8637352 L25.649555,40.2195685 C24.71368,40.9479227 23.3587216,41.0537143 22.317055,40.4270893 C19.399555,38.6570893 15.859555,37.928756 12.1078883,38.551256 C5.85788831,39.698756 0.96309664,44.801256 0.12872164,51.157506 C-1.12044503,60.740006 6.89955497,68.7595893 16.4818466,67.7179227 C22.9393466,66.9895685 28.2537216,61.8829227 29.2953883,55.4252143 C29.6087008,53.341881 29.5029091,51.2585477 28.9820758,49.3827143 C28.6687633,48.2352143 29.1895966,46.9860477 30.1295758,46.2577143 L38.9837425,39.694381 L67.6295758,60.9422977 C73.1512425,65.1089643 80.9639508,63.9614643 85.1306175,58.338131 L52.1108258,33.8589643 L85.1256383,9.38933934 Z M14.711055,20.8476727 C11.378555,20.8476727 8.56688831,18.1376727 8.56688831,14.703506 C8.56688831,11.371006 11.2768883,8.55933934 14.711055,8.55933934 C18.043555,8.55933934 20.8552216,11.2693393 20.8552216,14.703506 C20.8552216,18.036006 18.1452216,20.8476727 14.711055,20.8476727 Z M14.711055,59.1820477 C11.378555,59.1820477 8.56688831,56.4720477 8.56688831,53.037881 C8.56688831,49.705381 11.2768883,46.8937143 14.711055,46.8937143 C18.043555,46.8937143 20.8552216,49.6037143 20.8552216,53.037881 C20.8552216,56.370381 18.1452216,59.1820477 14.711055,59.1820477 Z M44.1870966,36.7862143 C42.6245966,36.7862143 41.2695966,35.4312143 41.2695966,33.8687143 C41.2695966,32.3062143 42.6245966,30.9512143 44.1870966,30.9512143 C45.7495966,30.9512143 47.1045966,32.3062143 47.1045966,33.8687143 C47.1045966,35.4312143 45.85543,36.7862143 44.1870966,36.7862143 Z" id="Shape"></path>
                <polygon id="Path" points="67.417305 30.1164227 80.5443883 30.1164227 80.5443883 37.6155893 67.417305 37.6155893"></polygon>
                <polygon id="Path" points="85.8537633 30.1164227 98.9808466 30.1164227 98.9808466 37.6155893 85.8537633 37.6155893"></polygon>
            </g>
        </g>
    </g>
</svg>