<?xml version="1.0" encoding="UTF-8"?>
<svg width="100px" height="100px" viewBox="0 0 100 100" version="1.1" xmlns="http://www.w3.org/2000/svg" xmlns:xlink="http://www.w3.org/1999/xlink">
    <!-- Generator: sketchtool 63.1 (101010) - https://sketch.com -->
    <title>general/general_archive_box</title>
    <desc>Created with sketchtool.</desc>
    <defs>
        <linearGradient x1="49.9953986%" y1="-0.398930666%" x2="49.9953986%" y2="99.8176958%" id="linearGradient-1">
            <stop stop-color="#FFF59D" offset="0.8023131%"></stop>
            <stop stop-color="#FFF297" offset="16.53%"></stop>
            <stop stop-color="#FEEB87" offset="37.07%"></stop>
            <stop stop-color="#FDDE6C" offset="60.28%"></stop>
            <stop stop-color="#FCCC47" offset="85.26%"></stop>
            <stop stop-color="#FBC02D" offset="100%"></stop>
        </linearGradient>
        <linearGradient x1="49.9983759%" y1="1.21427597%" x2="49.9983759%" y2="98.6032483%" id="linearGradient-2">
            <stop stop-color="#757575" offset="0.7755335%"></stop>
            <stop stop-color="#424242" offset="100%"></stop>
        </linearGradient>
        <linearGradient x1="50.0014338%" y1="1.44643678%" x2="50.0014338%" y2="96.0597701%" id="linearGradient-3">
            <stop stop-color="#FAFAFA" offset="0%"></stop>
            <stop stop-color="#EFEFEF" offset="26.34%"></stop>
            <stop stop-color="#D2D2D2" offset="72.58%"></stop>
            <stop stop-color="#BDBDBD" offset="100%"></stop>
        </linearGradient>
    </defs>
    <g id="Icons" stroke="none" stroke-width="1" fill="none" fill-rule="evenodd">
        <g id="general/general_archive_box" fill-rule="nonzero">
            <g id="Group" transform="translate(1.000000, 0.000000)">
                <rect id="Rectangle" fill="#424242" x="17.6477844" y="10.2759251" width="61.6969189" height="10.1849145"></rect>
                <polygon id="Path" fill="#424242" points="12.4850008 38.6381402 19.0625857 17.8049845 19.0625857 10.2759251 13.4364753 10.2759251 0.388863509 38.6381402"></polygon>
                <polygon id="Path" fill="#424242" points="97.1827826 38.6381402 84.1268971 10.2759251 78.5090605 10.2759251 78.5090605 17.8049845 85.0866453 38.6381402"></polygon>
                <g transform="translate(9.928430, 0.000000)">
                    <path d="M62.5408355,47.2345059 L15.2897822,47.2345059 C13.4612964,47.2345059 11.9803056,45.753515 11.9803056,43.9250292 L11.9803056,5.93223694 C11.9803056,4.10375108 13.4612964,2.62276027 15.2897822,2.62276027 L62.5408355,2.62276027 C64.3693214,2.62276027 65.8503122,4.10375108 65.8503122,5.93223694 L65.8503122,43.9250292 C65.8503122,45.753515 64.3693214,47.2345059 62.5408355,47.2345059 Z" id="Path" fill="#F9A825"></path>
                    <path d="M68.1503985,55.0614182 L9.34927161,55.0614182 C7.52078575,55.0614182 6.03979493,53.5804274 6.03979493,51.7519415 L6.03979493,14.8512766 C6.03979493,13.0227907 7.52078575,11.5417999 9.34927161,11.5417999 L68.1503985,11.5417999 C69.9788843,11.5417999 71.4598751,13.0227907 71.4598751,14.8512766 L71.4598751,51.7519415 C71.4598751,53.5804274 69.9706106,55.0614182 68.1503985,55.0614182 Z" id="Path" fill="#FDD835"></path>
                    <path d="M74.0909091,68.431704 L3.40048728,68.431704 C1.57200142,68.431704 0.0910106086,66.9507132 0.0910106086,65.1222273 L0.0910106086,23.7703162 C0.0910106086,21.9418304 1.57200142,20.4608396 3.40048728,20.4608396 L74.0991828,20.4608396 C75.9276686,20.4608396 77.4086595,21.9418304 77.4086595,23.7703162 L77.4086595,65.1139536 C77.4003858,66.9507132 75.919395,68.431704 74.0909091,68.431704 Z" id="Path" fill="url(#linearGradient-1)"></path>
                    <path d="M48.8065073,8.94386072 L34.509568,8.94386072 C33.1361352,8.94386072 32.0274605,7.83518603 32.0274605,6.46175321 L32.0274605,2.85442363 C32.0274605,1.48099081 33.1361352,0.372316126 34.509568,0.372316126 L48.7982336,0.372316126 C50.1716664,0.372316126 51.2803868,1.48099081 51.2803868,2.85442363 L51.2803868,6.46175321 C51.2886148,7.82691234 50.1716664,8.94386072 48.8065073,8.94386072 Z" id="Path" fill="#4480F7"></path>
                    <g transform="translate(16.547383, 5.791584)">
                        <path d="M5.35307852,12.8986853 C3.30120298,12.8986853 1.62991726,11.2273996 1.62991726,9.17552409 L1.62991726,5.56819451 C1.62991726,3.51631897 3.30120298,1.84503325 5.35307852,1.84503325 L19.7162073,1.84503325 C21.7680828,1.84503325 23.4393686,3.51631897 23.4393686,5.56819451 L23.4393686,9.17552409 C23.4393686,11.2273996 21.7680828,12.8986853 19.7162073,12.8986853 L5.35307852,12.8986853 Z" id="Path" fill="#2CA94F"></path>
                        <path d="M19.7162073,3.086087 C21.0896401,3.086087 22.1983148,4.19476169 22.1983148,5.56819451 L22.1983148,9.17552409 C22.1983148,10.5489569 21.0896401,11.6576316 19.7162073,11.6576316 L5.35307852,11.6576316 C3.9796457,11.6576316 2.87097102,10.5489569 2.87097102,9.17552409 L2.87097102,5.56819451 C2.87097102,4.19476169 3.9796457,3.086087 5.35307852,3.086087 L19.7162073,3.086087 M19.7162073,0.603979493 L5.35307852,0.603979493 C2.61448657,0.603979493 0.388863509,2.82960256 0.388863509,5.56819451 L0.388863509,9.17552409 C0.388863509,11.914116 2.61448657,14.1397391 5.35307852,14.1397391 L19.7162073,14.1397391 C22.4547992,14.1397391 24.6804223,11.914116 24.6804223,9.17552409 L24.6804223,5.56819451 C24.6804223,2.82960256 22.4547992,0.603979493 19.7162073,0.603979493 L19.7162073,0.603979493 Z" id="Shape" fill="#FDD835"></path>
                    </g>
                    <g transform="translate(5.791584, 15.720014)">
                        <path d="M4.40987767,11.5417999 C2.58139181,11.5417999 1.10040099,10.0608091 1.10040099,8.23232323 L1.10040099,4.62499366 C1.10040099,2.79650779 2.58139181,1.31551698 4.40987767,1.31551698 L19.4514492,1.31551698 C21.279935,1.31551698 22.7609258,2.79650779 22.7609258,4.62499366 L22.7609258,8.23232323 C22.7609258,10.0608091 21.279935,11.5417999 19.4514492,11.5417999 L4.40987767,11.5417999 Z" id="Path" fill="#EC4431"></path>
                        <path d="M19.4431755,2.14288615 C20.8166083,2.14288615 21.925283,3.25156083 21.925283,4.62499366 L21.925283,8.23232323 C21.925283,9.60575605 20.8166083,10.7144307 19.4431755,10.7144307 L4.40987767,10.7144307 C3.03644485,10.7144307 1.92777016,9.60575605 1.92777016,8.23232323 L1.92777016,4.62499366 C1.92777016,3.25156083 3.03644485,2.14288615 4.40987767,2.14288615 L19.4431755,2.14288615 M19.4431755,0.48814781 L4.40987767,0.48814781 C2.12633876,0.48814781 0.273031826,2.34145475 0.273031826,4.62499366 L0.273031826,8.23232323 C0.273031826,10.5158621 2.12633876,12.3691691 4.40987767,12.3691691 L19.4431755,12.3691691 C21.7267144,12.3691691 23.5800213,10.5158621 23.5800213,8.23232323 L23.5800213,4.62499366 C23.5800213,2.34145475 21.7267144,0.48814781 19.4431755,0.48814781 L19.4431755,0.48814781 Z" id="Shape" fill="#FFF59D"></path>
                    </g>
                </g>
                <polyline id="Path" fill="#000000" points="85.9305619 38.5471296 81.0490838 38.5471296 66.793513 38.5471296 30.7781331 38.5471296 12.4850008 38.5471296 11.6410842 38.5471296"></polyline>
                <polyline id="Path" fill="url(#linearGradient-2)" points="0.388863509 38.6381402 6.01497386 99.2594792 91.5566723 99.2594792 97.1827826 38.6381402"></polyline>
                <g opacity="0.2" fill="#EEEEEE" id="Shape">
                    <path d="M58.6439267,3.086087 C58.7349373,3.086087 58.7763058,3.16055023 58.7845795,3.21846607 C58.9666007,4.43469875 60.0090858,5.33653114 61.2418659,5.33653114 L72.3286128,5.33653114 C72.8994975,5.33653114 73.3628242,5.79985788 73.3628242,6.3707426 L73.3628242,10.5158621 C73.3628242,11.889295 74.4714989,12.9979696 75.8449317,12.9979696 L78.57525,12.9979696 L79.4108928,12.9979696 L82.6045378,12.9979696 L94.7172225,39.3083092 L89.3558703,97.0173088 L8.33160753,97.0173088 L2.97852901,39.3000355 L15.0912136,12.989696 L17.7057002,12.989696 L19.1205015,12.989696 L21.9749251,12.989696 C23.348358,12.989696 24.4570326,11.8810213 24.4570326,10.5075884 L24.4570326,6.3707426 C24.4570326,5.79985788 24.9203594,5.33653114 25.4912441,5.33653114 L42.0634486,5.33653114 C43.2962286,5.33653114 44.3387138,4.43469875 44.520735,3.21846607 C44.5290087,3.16882392 44.5703771,3.086087 44.6613877,3.086087 L58.6439267,3.086087 M58.6439267,0.603979493 L44.6613877,0.603979493 C43.3375971,0.603979493 42.2537435,1.58027511 42.0634486,2.85442363 L25.4912441,2.85442363 C23.5469266,2.85442363 21.9749251,4.42642505 21.9749251,6.3707426 L21.9749251,10.5158621 L19.1205015,10.5158621 L17.7057002,10.5158621 L13.4943911,10.5158621 L0.446779351,38.8698036 L6.0728897,99.4994163 L91.6145881,99.4994163 L97.2406984,38.8698036 L84.1930866,10.5075884 L79.4108928,10.5075884 L78.57525,10.5075884 L75.8449317,10.5075884 L75.8449317,6.3707426 C75.8449317,4.42642505 74.2729303,2.85442363 72.3286128,2.85442363 L61.2418659,2.85442363 C61.051571,1.58027511 59.9677174,0.603979493 58.6439267,0.603979493 L58.6439267,0.603979493 Z"></path>
                </g>
                <polygon id="Path" stroke="#BDBDBD" stroke-width="2.48210751" fill="url(#linearGradient-3)" points="67.9931983 71.8983808 29.3550581 71.8983808 28.4780468 53.9031014 68.8702096 53.9031014"></polygon>
            </g>
        </g>
    </g>
</svg>