<?xml version="1.0" encoding="UTF-8"?>
<svg width="100px" height="100px" viewBox="0 0 100 100" version="1.1" xmlns="http://www.w3.org/2000/svg" xmlns:xlink="http://www.w3.org/1999/xlink">
    <!-- Generator: sketchtool 63.1 (101010) - https://sketch.com -->
    <title>general/general_Index</title>
    <desc>Created with sketchtool.</desc>
    <defs>
        <linearGradient x1="50%" y1="0%" x2="50%" y2="100%" id="linearGradient-1">
            <stop stop-color="#F7963C" offset="0%"></stop>
            <stop stop-color="#F69339" offset="100%"></stop>
        </linearGradient>
        <path d="M2.50824169,0.0960829012 L76.4096072,0.00316708124 C77.77407,0.00145154896 78.8815763,1.10617646 78.8832918,2.47063924 C78.8833119,2.48661107 78.8831771,2.50258272 78.8828874,2.51855194 L78.0330033,49.3725567 C78.0085517,50.7205692 76.9078843,51.8000629 75.5596512,51.7983285 L3.27296086,51.7053395 C1.92551818,51.7036062 0.827969098,50.6225062 0.80589032,49.2752433 L0.0410992688,2.60714344 C0.0187416058,1.24286277 1.10658514,0.118770297 2.47086581,0.0964126343 C2.48332343,0.0962084804 2.49578241,0.0960985662 2.50824169,0.0960829012 Z" id="path-2"></path>
        <filter x="-6.3%" y="-7.7%" width="112.6%" height="119.3%" filterUnits="objectBoundingBox" id="filter-3">
            <feMorphology radius="0.5" operator="dilate" in="SourceAlpha" result="shadowSpreadOuter1"></feMorphology>
            <feOffset dx="0" dy="1" in="shadowSpreadOuter1" result="shadowOffsetOuter1"></feOffset>
            <feGaussianBlur stdDeviation="1" in="shadowOffsetOuter1" result="shadowBlurOuter1"></feGaussianBlur>
            <feColorMatrix values="0 0 0 0 0   0 0 0 0 0   0 0 0 0 0  0 0 0 0.825038243 0" type="matrix" in="shadowBlurOuter1"></feColorMatrix>
        </filter>
        <linearGradient x1="50%" y1="0%" x2="50%" y2="100%" id="linearGradient-4">
            <stop stop-color="#3B52F6" offset="0%"></stop>
            <stop stop-color="#3A52F6" offset="100%"></stop>
        </linearGradient>
        <path d="M2.62410326,0.0960130132 L79.9044413,0.00316605911 C81.330765,0.0014524304 82.4884179,1.15632703 82.4901316,2.58265068 C82.4901524,2.60002439 82.489998,2.61739786 82.4896683,2.63476844 L81.6052198,49.2277995 C81.5784887,50.6360003 80.4283745,51.7631032 79.0199211,51.7613719 L3.41991056,51.6684417 C2.01208669,51.6667112 0.865016079,50.5377569 0.840875592,49.130139 L0.0449964871,2.72288503 C0.0205387782,1.29677006 1.15680649,0.120848568 2.58292146,0.0963908593 C2.59664751,0.0961554592 2.61037521,0.0960295065 2.62410326,0.0960130132 Z" id="path-5"></path>
        <filter x="-6.0%" y="-7.7%" width="112.0%" height="119.3%" filterUnits="objectBoundingBox" id="filter-6">
            <feMorphology radius="0.5" operator="dilate" in="SourceAlpha" result="shadowSpreadOuter1"></feMorphology>
            <feOffset dx="0" dy="1" in="shadowSpreadOuter1" result="shadowOffsetOuter1"></feOffset>
            <feGaussianBlur stdDeviation="1" in="shadowOffsetOuter1" result="shadowBlurOuter1"></feGaussianBlur>
            <feColorMatrix values="0 0 0 0 0   0 0 0 0 0   0 0 0 0 0  0 0 0 0.825038243 0" type="matrix" in="shadowBlurOuter1"></feColorMatrix>
        </filter>
        <linearGradient x1="50%" y1="0%" x2="50%" y2="100%" id="linearGradient-7">
            <stop stop-color="#F83738" offset="0%"></stop>
            <stop stop-color="#CD2F2F" offset="100%"></stop>
        </linearGradient>
        <path d="M2.73955202,0.105636845 L83.5784957,0.00347691327 C85.0689237,0.00159339015 86.2786811,1.20829708 86.2805647,2.69872505 C86.2805866,2.71609391 86.2804409,2.73346257 86.2801275,2.75082862 L85.3499189,54.296252 C85.3233444,55.7688177 84.1210123,56.9481217 82.6482081,56.9462173 L3.57654824,56.8439783 C2.10463075,56.8420751 0.905730784,55.6610366 0.881735493,54.1893135 L0.0446603477,2.8482891 C0.0203632982,1.35805801 1.20873765,0.130290357 2.69896874,0.105993307 C2.71249542,0.105772765 2.72602356,0.105653941 2.73955202,0.105636845 Z" id="path-8"></path>
        <filter x="-5.7%" y="-7.0%" width="111.5%" height="117.5%" filterUnits="objectBoundingBox" id="filter-9">
            <feMorphology radius="0.5" operator="dilate" in="SourceAlpha" result="shadowSpreadOuter1"></feMorphology>
            <feOffset dx="0" dy="1" in="shadowSpreadOuter1" result="shadowOffsetOuter1"></feOffset>
            <feGaussianBlur stdDeviation="1" in="shadowOffsetOuter1" result="shadowBlurOuter1"></feGaussianBlur>
            <feColorMatrix values="0 0 0 0 0   0 0 0 0 0   0 0 0 0 0  0 0 0 0.825038243 0" type="matrix" in="shadowBlurOuter1"></feColorMatrix>
        </filter>
        <linearGradient x1="50%" y1="0%" x2="50%" y2="100%" id="linearGradient-10">
            <stop stop-color="#F7963C" offset="0%"></stop>
            <stop stop-color="#F69339" offset="100%"></stop>
        </linearGradient>
        <path d="M2.85629281,0.109809898 L87.0340867,0.00361865866 C88.5879781,0.00165840712 89.849245,1.25974714 89.8512053,2.8136385 C89.8512282,2.83177482 89.8510757,2.84991093 89.8507479,2.8680443 L88.8823383,56.4353775 C88.8545838,57.9706076 87.6010746,59.200072 86.065595,59.1980902 L3.72766128,59.0918161 C2.1930977,59.0898354 0.943157418,57.8585555 0.918096553,56.3241953 L0.0466459433,2.96932731 C0.0212694385,1.41564195 1.26020856,0.135559378 2.81389393,0.110182873 C2.82802575,0.109952057 2.84215911,0.109827728 2.85629281,0.109809898 Z" id="path-11"></path>
        <filter x="-7.2%" y="-9.3%" width="114.4%" height="121.9%" filterUnits="objectBoundingBox" id="filter-12">
            <feMorphology radius="1" operator="dilate" in="SourceAlpha" result="shadowSpreadOuter1"></feMorphology>
            <feOffset dx="0" dy="1" in="shadowSpreadOuter1" result="shadowOffsetOuter1"></feOffset>
            <feGaussianBlur stdDeviation="1" in="shadowOffsetOuter1" result="shadowBlurOuter1"></feGaussianBlur>
            <feColorMatrix values="0 0 0 0 0   0 0 0 0 0   0 0 0 0 0  0 0 0 0.825038243 0" type="matrix" in="shadowBlurOuter1"></feColorMatrix>
        </filter>
        <linearGradient x1="50%" y1="0%" x2="50%" y2="100%" id="linearGradient-13">
            <stop stop-color="#3B52F6" offset="0%"></stop>
            <stop stop-color="#3A52F6" offset="100%"></stop>
        </linearGradient>
        <path d="M2.94840846,0.108063383 L89.8962193,0.00355880239 C91.4988301,0.00163258744 92.7995644,1.29924386 92.8014906,2.9018547 C92.8015141,2.92136867 92.8013407,2.94088238 92.8009705,2.96039285 L91.8057829,55.4086898 C91.7757602,56.9909475 90.4834923,58.257369 88.900951,58.2554229 L3.84385679,58.1508249 C2.26202486,58.1488797 0.973178959,56.8803797 0.946065803,55.298779 L0.0505367563,3.05958459 C0.0230674437,1.45720803 1.29978203,0.13595689 2.90215859,0.108487578 C2.91757384,0.108223316 2.93299095,0.108081913 2.94840846,0.108063383 Z" id="path-14"></path>
        <filter x="-6.9%" y="-9.4%" width="113.9%" height="122.3%" filterUnits="objectBoundingBox" id="filter-15">
            <feMorphology radius="1" operator="dilate" in="SourceAlpha" result="shadowSpreadOuter1"></feMorphology>
            <feOffset dx="0" dy="1" in="shadowSpreadOuter1" result="shadowOffsetOuter1"></feOffset>
            <feGaussianBlur stdDeviation="1" in="shadowOffsetOuter1" result="shadowBlurOuter1"></feGaussianBlur>
            <feColorMatrix values="0 0 0 0 0   0 0 0 0 0   0 0 0 0 0  0 0 0 0.825038243 0" type="matrix" in="shadowBlurOuter1"></feColorMatrix>
        </filter>
        <linearGradient x1="50%" y1="0%" x2="50%" y2="100%" id="linearGradient-16">
            <stop stop-color="#F83738" offset="0%"></stop>
            <stop stop-color="#CD2F2F" offset="100%"></stop>
        </linearGradient>
        <path d="M28.2651868,77.9017857 L28.5714286,76.7843615 L25.046429,75.3476732 C24.9612487,74.9188941 24.7845059,70.9873617 24.6827284,64.6315273 L24.5225031,54.0767045 L27.2577271,52.6799242 L27.56601,51.5625 C25.5791716,51.5625 23.5935628,51.642316 21.6067677,51.642316 C19.78216,51.642316 17.9967473,51.5625 16.131552,51.5625 L15.7862313,52.6799242 L18.768689,54.0767045 L18.9376878,64.1734307 C19.0485724,70.7981602 19.0361282,74.8687771 18.8830197,75.3476732 L15.9273473,76.7843615 L15.625,77.9017857 C17.7182793,77.9017857 19.8108978,77.8618777 21.9042002,77.8618777 C24.0377583,77.8618777 26.1719074,77.9017857 28.2651868,77.9017857 Z M50.6601693,76.502532 C54.5925216,75.0632996 59.5770552,71.6251333 59.5982143,63.9492271 C59.6191264,56.3132996 54.8274823,51.1160714 42.348234,51.1160714 C37.2596084,51.1160714 32.9806956,51.5558369 32.1330744,51.6357942 L31.8956239,52.6352612 L35.1295783,53.7546642 L35.1703248,64.0691631 C35.1966994,70.7456023 35.1317658,74.6235341 34.9743107,75.383129 L32.0117517,76.6624467 L31.6964286,77.7818497 C33.0959923,77.7818497 35.8531348,77.894627 38.2853598,77.901462 L38.5123776,77.9017857 C44.1651164,77.9017857 47.5726635,77.6619136 50.6601693,76.502532 Z M41.2889753,76.5625 C41.148053,76.0376152 41.1200801,72.1825628 41.1047877,66.8046133 L41.0714286,52.9017857 C44.6055469,52.9017857 47.4088146,53.4275794 49.9269769,55.5711996 C52.6855125,57.8766026 53.5745246,61.3144841 53.5714286,64.3883547 C53.5672136,68.5542582 52.3112792,71.5067918 50.1285577,73.5695208 C47.7869045,75.834478 44.2757884,76.5625 41.2889753,76.5625 Z M84.9292277,77.9017857 L85.2678571,76.7843615 L82.5362305,75.5472132 C81.7826973,75.2678571 80.7902407,74.9485931 80.205762,74.0706169 C78.8393849,72.1151245 75.3783908,65.7697511 73.5428375,62.6170184 C76.5723874,58.2271374 78.2496936,56.072105 79.1498987,54.9546807 C80.3290715,53.9968885 81.2206309,53.4780844 83.8838842,52.6799242 L84.1841104,51.5625 C82.4970902,51.5625 80.7692564,51.602408 79.0822546,51.602408 C78.0780869,51.602408 76.8736894,51.5625 76.0301793,51.5625 L75.613163,52.6001082 L76.8374621,53.9569805 C74.9396272,57.4688853 73.8328539,59.1450216 72.685332,60.940882 L72.605204,60.940882 C71.7040257,59.4642857 70.6465446,57.6285173 68.7295315,53.9170725 L69.8698373,52.6799242 L70.1256084,51.5625 C68.5590896,51.5625 66.992075,51.602408 65.3854066,51.602408 C63.3369044,51.602408 61.2486686,51.5625 59.1599769,51.5625 L58.7075965,52.6001082 L61.1074418,53.4780844 C62.0277086,53.7574405 62.4639214,54.2363366 63.0167931,55.0344968 C64.0033202,56.4711851 66.0835342,60.2225379 69.0187319,65.610119 C65.8024037,70.159632 63.5294781,73.1926407 62.5576682,74.389881 C62.1119097,74.9885011 61.5492226,75.3476732 60.8279019,75.6270292 L58.1826645,76.7843615 L57.8125,77.9017857 C59.4474792,77.9017857 61.0430148,77.8618777 62.7178899,77.8618777 C63.9142293,77.8618777 65.1499675,77.9017857 66.3861713,77.9017857 L66.6393078,76.7843615 L64.9811062,75.3476732 C65.3498753,74.549513 68.0398032,70.19954 69.876237,67.3261634 L69.9562246,67.3261634 C72.1803205,71.3169643 73.8527913,74.469697 74.2767997,75.5073052 L73.4205785,76.7843615 L73.2052307,77.9017857 C74.7604548,77.9017857 76.3561589,77.8618777 77.9114001,77.8618777 C80.2642009,77.8618777 82.5764528,77.9017857 84.9292277,77.9017857 Z" id="path-17"></path>
        <filter x="-2.2%" y="-5.6%" width="104.3%" height="111.2%" filterUnits="objectBoundingBox" id="filter-18">
            <feOffset dx="0" dy="0" in="SourceAlpha" result="shadowOffsetOuter1"></feOffset>
            <feGaussianBlur stdDeviation="0.5" in="shadowOffsetOuter1" result="shadowBlurOuter1"></feGaussianBlur>
            <feColorMatrix values="0 0 0 0 0   0 0 0 0 0   0 0 0 0 0  0 0 0 0.5 0" type="matrix" in="shadowBlurOuter1"></feColorMatrix>
        </filter>
    </defs>
    <g id="Icons" stroke="none" stroke-width="1" fill="none" fill-rule="evenodd">
        <g id="general/general_Index">
            <g id="Index" transform="translate(0.892857, 4.687500)">
                <g id="Group">
                    <g id="Orange-(no-back-shadow)" transform="translate(9.375000, 0.000000)">
                        <path d="M9.74962228,0.000156006542 L23.4322262,0.00153550742 C24.136218,0.00160648494 24.7689196,0.431178918 25.0287243,1.08547701 L25.0927013,1.24659822 C25.3109405,1.79620457 25.4789041,2.36446424 25.5945343,2.94439969 C25.8628989,4.2903633 26.2707568,5.41617554 26.8181082,6.3218364 C19.841776,6.34377401 7.51409467,6.38308164 4.10450551,6.3218364 C5.73109851,5.28283533 6.23158866,4.33976707 6.73207881,3.14521394 C6.96406373,2.55178133 7.20404663,1.9903583 7.45202754,1.46094486 C7.86959586,0.569472194 8.76520021,5.67556158e-05 9.74962228,0.000156006542 Z" id="Tab" fill="url(#linearGradient-1)" transform="translate(15.461307, 3.177307) scale(-1, 1) translate(-15.461307, -3.177307) "></path>
                        <g id="FrontCover" transform="translate(39.955357, 30.491803) scale(-1, 1) translate(-39.955357, -30.491803) translate(0.000000, 5.626464)" fill="#E0BA8A" stroke="#A47333" stroke-opacity="0.384478802" stroke-width="0.543616071">
                            <path d="M77.507012,0.274673921 L2.3563033,0.36457342 C1.78531845,0.374476732 1.26846131,0.616688393 0.897929248,1.00025327 C0.527397182,1.38381815 0.303190185,1.90873625 0.313133887,2.48409282 L1.08799369,47.3185718 C1.09780756,47.8864159 1.33409547,48.3980322 1.70991203,48.7678607 C2.0857286,49.1376892 2.60107381,49.3657298 3.16900228,49.3664226 L76.6458703,49.4560489 C77.2140393,49.456742 77.7301115,49.2297736 78.1068582,48.8606157 C78.4836048,48.4914577 78.7210258,47.9801101 78.7318926,47.4120446 L79.5934059,2.35052998 C79.5926704,1.78060759 79.3588053,1.25992063 78.9812512,0.883265702 C78.6036971,0.506610775 78.082454,0.27398788 77.507012,0.274673921 Z" id="Body"></path>
                        </g>
                    </g>
                    <g id="Blue" transform="translate(7.589286, 3.794643)">
                        <g id="Shadow" transform="translate(2.466518, 5.860748)">
                            <g>
                                <use fill="black" fill-opacity="1" filter="url(#filter-3)" xlink:href="#path-2"></use>
                                <use fill="#E0BA8A" fill-rule="evenodd" xlink:href="#path-2"></use>
                            </g>
                        </g>
                        <path d="M35.2034993,0.000165099336 L49.0709802,0.00155961822 C50.0624384,0.00165931962 50.9711524,0.554437528 51.4271258,1.4348225 L52.2438301,3.01169973 C52.2634688,3.04962537 52.2828731,3.08767199 52.3020387,3.12583893 C53.0368498,4.58916532 53.9955287,5.74224443 55.1780754,6.58507626 C49.7990586,6.6003901 32.8430149,6.64887173 29.2822277,6.58507626 C30.3014622,5.93571736 31.1442907,4.92364765 31.8107133,3.54886714 C31.8933528,3.39664877 31.9628828,3.238145 32.0263206,3.07717322 L32.8286965,1.4690755 C33.277863,0.568869342 34.1974567,6.39313303e-05 35.2034993,0.000165099336 Z" id="Tab" fill="url(#linearGradient-4)" fill-rule="evenodd"></path>
                        <g id="FrontCover" transform="translate(0.000000, 5.860748)" fill="#E0BA8A" fill-rule="evenodd" stroke="#A47333" stroke-opacity="0.384478802" stroke-width="0.570133929">
                            <path d="M80.9332746,0.288065004 L2.47124602,0.381686735 C1.87242238,0.392099989 1.3303641,0.646151175 0.941775347,1.04844397 C0.553186597,1.45073677 0.318067376,2.00127118 0.328523212,2.60469346 L1.13716161,49.272453 C1.14748062,49.8679786 1.39530494,50.4045283 1.78945315,50.7923777 C2.18360136,51.1802271 2.72407346,51.4193762 3.31968803,51.4201009 L80.0345913,51.5134345 C80.6304534,51.5141595 81.1716831,51.2761352 81.5668036,50.8889913 C81.9619242,50.5018475 82.2109358,49.9655842 82.2223618,49.3698312 L83.1214374,2.46517585 C83.1206676,1.8674656 82.8753962,1.32137852 82.479426,0.926348963 C82.0834559,0.531319402 81.536787,0.28734736 80.9332746,0.288065004 Z" id="Body"></path>
                        </g>
                    </g>
                    <g id="Red" transform="translate(5.357143, 7.812500)">
                        <g id="Shadow" transform="translate(2.579365, 6.148273)">
                            <g>
                                <use fill="black" fill-opacity="1" filter="url(#filter-6)" xlink:href="#path-5"></use>
                                <use fill="#E0BA8A" fill-rule="evenodd" xlink:href="#path-5"></use>
                            </g>
                        </g>
                        <path d="M64.3168242,0.000170541131 L79.300481,0.00167813935 C80.0700763,0.00175557308 80.7618399,0.471074417 81.0463557,1.18614625 L81.1147291,1.35798863 C81.3545849,1.96082343 81.5392606,2.58417398 81.6664833,3.22037758 C81.9603425,4.68988185 82.4067418,5.91913457 83.0056811,6.90813574 C75.3667922,6.93210789 61.8683255,6.97506098 58.1349206,6.90813574 C59.9159945,5.77277571 60.4640173,4.74224547 61.01204,3.43690717 C61.2655235,2.78980043 61.5277278,2.17752514 61.798653,1.60008129 C62.2567927,0.623600167 63.2382105,6.2015155e-05 64.3168242,0.000170541131 Z" id="Tab" fill="url(#linearGradient-7)" fill-rule="evenodd"></path>
                        <g id="FrontCover" transform="translate(0.000000, 6.148273)" fill="#E0BA8A" fill-rule="evenodd" stroke="#A47333" stroke-opacity="0.384478802" stroke-width="0.595982143">
                            <path d="M84.8646539,0.301126741 L2.58328488,0.399358553 C1.95730915,0.410237901 1.39067298,0.675801585 0.984462701,1.09632926 C0.578252427,1.51685694 0.332468054,2.09234862 0.343391866,2.72312841 L1.19154916,51.6987509 C1.20233008,52.32128 1.46138776,52.8821605 1.8734057,53.2875983 C2.28542364,53.693036 2.85040184,53.9430309 3.47302381,53.9437888 L83.9220519,54.0417199 C84.5449338,54.0424781 85.110705,53.793659 85.52374,53.3889583 C85.9367751,52.9842576 86.1970741,52.4236754 86.2090116,51.8009075 L87.1520231,2.57694291 C87.151218,1.95213126 86.8948263,1.38128635 86.4809037,0.968347572 C86.0669812,0.555408793 85.4955278,0.300376146 84.8646539,0.301126741 Z" id="Body"></path>
                        </g>
                    </g>
                    <g id="Orange" transform="translate(3.348214, 12.276786)">
                        <g id="Shadow" transform="translate(45.862690, 34.918033) scale(-1, 1) translate(-45.862690, -34.918033) translate(2.697805, 6.443208)">
                            <g>
                                <use fill="black" fill-opacity="1" filter="url(#filter-9)" xlink:href="#path-8"></use>
                                <use fill="#E0BA8A" fill-rule="evenodd" xlink:href="#path-8"></use>
                            </g>
                        </g>
                        <path d="M11.1662794,0.000178704151 L26.8358805,0.00175841281 C27.6420773,0.0018396884 28.3666383,0.493765652 28.6641814,1.24304626 L28.7372948,1.42716211 C28.9873166,2.05677123 29.1797502,2.70774852 29.312234,3.37210278 C29.6195797,4.91331982 30.0866603,6.20245967 30.7134759,7.23952233 C22.7238217,7.26464444 8.60552742,7.309658 4.70069067,7.23952233 C6.56354857,6.04969853 7.13673562,4.96973326 7.70992266,3.60177726 C7.97551391,2.92243088 8.25025869,2.27971587 8.53415699,1.67363222 C9.01253777,0.65237827 10.0385348,6.50121801e-05 11.1662794,0.000178704151 Z" id="Tab" fill="url(#linearGradient-10)" fill-rule="evenodd" transform="translate(17.707083, 3.638529) scale(-1, 1) translate(-17.707083, -3.638529) "></path>
                        <g id="FrontCover" transform="translate(45.758929, 34.918033) scale(-1, 1) translate(-45.758929, -34.918033) translate(0.000000, 6.443208)" fill="#E0BA8A" fill-rule="evenodd" stroke="#A47333" stroke-opacity="0.384478802" stroke-width="0.622767857">
                            <path d="M88.7641662,0.31466684 L2.69938667,0.417614467 C2.04526554,0.428960614 1.45315316,0.706439671 1.02867135,1.14585308 C0.604189535,1.58526649 0.347338287,2.18661425 0.358730711,2.84574409 L1.2461041,54.1863779 C1.25734776,54.8369008 1.52804009,55.4230089 1.95857641,55.8466846 C2.38911272,56.2703603 2.97949302,56.5316037 3.63011264,56.5323973 L87.7779822,56.6350319 C88.4288773,56.6358258 89.0200903,56.3758109 89.451692,55.9529034 C89.8832937,55.5299959 90.1552841,54.9441958 90.167734,54.2934193 L91.1543438,2.69277224 C91.1535013,2.03986823 90.8855849,1.443368 90.4530581,1.01187118 C90.0205313,0.580374366 89.423394,0.313880971 88.7641662,0.31466684 Z" id="Body"></path>
                        </g>
                    </g>
                    <g id="Blue" transform="translate(1.785714, 17.187500)">
                        <g id="Shadow" transform="translate(2.809456, 6.697998)">
                            <g>
                                <use fill="black" fill-opacity="1" filter="url(#filter-12)" xlink:href="#path-11"></use>
                                <use fill="#E0BA8A" fill-rule="evenodd" xlink:href="#path-11"></use>
                            </g>
                        </g>
                        <path d="M40.1005567,0.000188932488 L55.89119,0.00178216925 C57.0217764,0.00189624268 58.0577477,0.633056099 58.5763347,1.63769184 L59.5076781,3.44194254 C59.5299939,3.48517301 59.5520385,3.52854297 59.5738109,3.57204965 C60.4108103,5.24458297 61.5028378,6.56250023 62.8498934,7.52580144 C56.7229919,7.54330297 37.4094234,7.59871055 33.3535535,7.52580144 C34.5144997,6.78367698 35.474513,5.62702589 36.2335932,4.05584816 C36.3278417,3.88190091 36.4070015,3.70074354 36.479178,3.51676939 L37.3942583,1.67664272 C37.9050605,0.649475199 38.9533898,7.31861139e-05 40.1005567,0.000188932488 Z" id="Tab" fill="url(#linearGradient-13)" fill-rule="evenodd"></path>
                        <g id="FrontCover" transform="translate(0.000000, 6.697998)" fill="#E0BA8A" fill-rule="evenodd" stroke="#A47333" stroke-opacity="0.384478802" stroke-width="0.649285714">
                            <path d="M92.1867258,0.328068358 L2.81432791,0.435061967 C2.13234871,0.446881435 1.51501964,0.736166849 1.07245653,1.1942844 C0.629893417,1.65240195 0.362096258,2.27935163 0.373963893,2.96654781 L1.29537691,56.3210269 C1.30708969,56.9992561 1.58930456,57.6103297 2.0381737,58.0520529 C2.48704285,58.4937761 3.10256627,58.766149 3.78089616,58.7669771 L91.1627112,58.8736449 C91.84133,58.8744733 92.4577234,58.6033811 92.9077044,58.162458 C93.3576854,57.7215348 93.6412541,57.1107807 93.6542235,56.4322854 L94.6786811,2.80743739 C94.6778021,2.12672746 94.3984771,1.50482814 93.9475326,1.05495836 C93.496588,0.60508858 92.8740239,0.327248343 92.1867258,0.328068358 Z" id="Body"></path>
                        </g>
                    </g>
                    <g id="Red" transform="translate(0.000000, 22.544643)">
                        <g id="Shadow" transform="translate(2.901786, 6.919643)">
                            <g>
                                <use fill="black" fill-opacity="1" filter="url(#filter-15)" xlink:href="#path-14"></use>
                                <use fill="#E0BA8A" fill-rule="evenodd" xlink:href="#path-14"></use>
                            </g>
                        </g>
                        <path d="M72.35429,0.00019172231 L89.2125335,0.00188862972 C90.0786121,0.00197580696 90.8570783,0.530197026 91.1771502,1.33496165 L91.2548468,1.53031612 C91.524271,2.20772676 91.73168,2.90818446 91.8745269,3.62307558 C92.2051151,5.27753605 92.7074033,6.66145723 93.3813913,7.77483912 C84.7876413,7.80181885 69.6018662,7.85016088 65.4017857,7.77483912 C67.4054938,6.49703539 68.0220194,5.33721354 68.638545,3.86810586 C68.9241279,3.13875517 69.2195502,2.4487198 69.5248119,1.79799976 C70.0395408,0.700744996 71.1423024,6.97267617e-05 72.35429,0.00019172231 Z" id="Tab" fill="url(#linearGradient-16)" fill-rule="evenodd"></path>
                        <g id="FrontCover" transform="translate(0.000000, 6.919643)" fill="#E0BA8A" fill-rule="evenodd" stroke="#A47333" stroke-opacity="0.384478802" stroke-width="0.669642857">
                            <path d="M95.4764589,0.338346072 L2.90256708,0.448909938 C2.19922094,0.461128938 1.56254896,0.759510582 1.10612957,1.23201035 C0.649710178,1.70451013 0.373543373,2.35112803 0.38581229,3.05986946 L1.34015592,58.1896632 C1.35226441,58.8891375 1.64333856,59.5193447 2.10628023,59.9748963 C2.56922189,60.4304479 3.20403107,60.711344 3.90360961,60.7121959 L94.415847,60.8224221 C95.1157184,60.8232744 95.7514195,60.5436995 96.2155046,60.0889755 C96.6795897,59.6342516 96.9720588,59.0043788 96.9854663,58.3046353 L98.0465379,2.8954441 C98.045633,2.19340608 97.7575521,1.55200744 97.2924704,1.08803151 C96.8273886,0.624055583 96.185306,0.33750236 95.4764589,0.338346072 Z" id="Body"></path>
                        </g>
                    </g>
                </g>
            </g>
            <g id="INDEX" fill-rule="nonzero">
                <use fill="black" fill-opacity="1" filter="url(#filter-18)" xlink:href="#path-17"></use>
                <use fill="#000000" xlink:href="#path-17"></use>
            </g>
        </g>
    </g>
</svg>