<?xml version="1.0" encoding="UTF-8"?>
<svg width="100px" height="100px" viewBox="0 0 100 100" version="1.1" xmlns="http://www.w3.org/2000/svg" xmlns:xlink="http://www.w3.org/1999/xlink">
    <!-- Generator: sketchtool 63.1 (101010) - https://sketch.com -->
    <title>general/general_blood_drop</title>
    <desc>Created with sketchtool.</desc>
    <defs>
        <radialGradient cx="61.9401725%" cy="62.7939852%" fx="61.9401725%" fy="62.7939852%" r="50.0000021%" gradientTransform="translate(0.619402,0.627940),scale(1.000000,0.612284),translate(-0.619402,-0.627940)" id="radialGradient-1">
            <stop stop-color="#B00000" stop-opacity="0" offset="0%"></stop>
            <stop stop-color="#B00000" offset="100%"></stop>
        </radialGradient>
    </defs>
    <g id="Icons" stroke="none" stroke-width="1" fill="none" fill-rule="evenodd">
        <g id="general/general_blood_drop" fill-rule="nonzero">
            <g id="new_blood_drop" transform="translate(19.000000, 0.000000)">
                <path d="M61.1995085,69.3530566 C61.1995085,86.252813 47.4995624,99.9527719 30.5997544,99.9527719 C13.7000755,99.9527719 2.96646037e-07,86.252813 2.96646037e-07,69.3530566 C2.96646037e-07,52.4532873 30.5997544,24.2313313 30.5997544,1.04084711e-07 C30.5997544,24.2100957 61.1995085,52.4532873 61.1995085,69.3530566 Z" id="path3466" fill="#FF0000"></path>
                <path d="M61.1995085,69.3530566 C61.1995085,86.252813 47.4995624,99.9527719 30.5997544,99.9527719 C13.7000755,99.9527719 2.96646037e-07,86.252813 2.96646037e-07,69.3530566 C2.96646037e-07,52.4532873 30.5997544,24.2313313 30.5997544,1.04084711e-07 C30.5997544,24.2100957 61.1995085,52.4532873 61.1995085,69.3530566 Z" id="path4236" fill="url(#radialGradient-1)"></path>
                <path d="M44.7067395,91.0195765 C60.8201134,77.0305384 56.8064316,64.2181029 46.7185538,48.5665963 C38.0542147,35.123546 36.3459681,29.0171614 33.691753,22.1402923 C37.4660684,34.4980312 41.0228485,42.5543267 44.4004591,49.7520463 C51.0635765,63.9514904 51.5569063,76.7514395 44.7067395,91.0195765 Z" id="path3451" fill="#FFFFFF"></path>
            </g>
        </g>
    </g>
</svg>