<?xml version="1.0" encoding="UTF-8"?>
<svg width="100px" height="100px" viewBox="0 0 100 100" version="1.1" xmlns="http://www.w3.org/2000/svg" xmlns:xlink="http://www.w3.org/1999/xlink">
    <!-- Generator: sketchtool 63.1 (101010) - https://sketch.com -->
    <title>general/general_hours_time_clock</title>
    <desc>Created with sketchtool.</desc>
    <g id="Icons" stroke="none" stroke-width="1" fill="none" fill-rule="evenodd">
        <g id="general/general_hours_time_clock" fill-rule="nonzero">
            <g id="hours_time_clock" transform="translate(1.000000, 1.000000)">
                <path d="M49.449,0 C76.758,0 98.902,22.141 98.902,49.457 C98.902,76.766 76.757,98.902 49.449,98.902 C22.14,98.902 0,76.765 0,49.457 C0,22.141 22.141,0 49.449,0 Z" id="Path" fill="#058500"></path>
                <path d="M49.449,90.551 C26.75,90.551 8.355,72.149 8.355,49.457 C8.355,26.758 26.75,8.355 49.449,8.355 C72.148,8.355 90.547,26.757 90.547,49.457 C90.547,72.148 72.149,90.551 49.449,90.551" id="Path" fill="#045900"></path>
                <path d="M49.449,16.715 C47.1404,16.715 45.2730873,18.5861 45.2730873,20.8986 L45.2730873,49.3906 L45.2730873,49.414037 C45.265387,50.499937 45.66382,51.585937 46.492,52.414037 L66.683,72.598037 C67.49941,73.422257 68.5619,73.824637 69.6361,73.824637 C70.7025,73.824637 71.7728,73.422297 72.5892,72.598037 C74.2181,70.969137 74.2181,68.324637 72.5892,66.695737 L53.6282,47.734737 L53.6282,20.898737 C53.6282,18.586237 51.761,16.715 49.4485,16.715 L49.449,16.715 Z" id="Path" fill="#FDFDFD"></path>
            </g>
        </g>
    </g>
</svg>