<?xml version="1.0" encoding="UTF-8"?>
<svg width="100px" height="100px" viewBox="0 0 100 100" version="1.1" xmlns="http://www.w3.org/2000/svg" xmlns:xlink="http://www.w3.org/1999/xlink">
    <!-- Generator: sketchtool 63.1 (101010) - https://sketch.com -->
    <title>link/link_chain_small</title>
    <desc>Created with sketchtool.</desc>
    <g id="Icons" stroke="none" stroke-width="1" fill="none" fill-rule="evenodd">
        <g id="link/link_chain_small" fill="#838383">
            <g id="Annotations/Link" transform="translate(14.800000, 14.800000)">
                <g id="Group">
                    <path d="M64.2247834,5.92846305 C60.4017444,2.09962033 55.7080349,-0.00609821499 51.0091661,0 C46.5265188,0.00613414889 42.2696297,1.88532674 38.7644346,5.44792829 L25.6551301,18.6667479 C21.987808,22.3609029 20.1312428,26.7926667 20.2839111,31.5032081 C20.4426924,36.0360464 22.5465755,40.5505503 26.2047516,44.2174387 C28.2597933,46.2741871 31.5851166,46.2741871 33.6371097,44.2174387 C35.6921515,42.1576347 35.6921515,38.8215497 33.6371097,36.7648013 C31.8660638,34.9896512 30.8553106,32.9910403 30.7912102,31.1485072 C30.7362465,29.4039144 31.5149032,27.7053145 33.1119558,26.0984652 L46.2181335,12.8765116 C46.2272944,12.8673294 46.2334011,12.8612078 46.242562,12.8520265 C47.7723717,11.3186716 49.384652,10.5412599 51.0244486,10.5382042 C52.9115787,10.5351429 54.9605231,11.5451881 56.7926207,13.3845872 C58.8751788,15.4689155 61.7119322,19.6251926 57.3239423,24.04442 L50.8809185,30.523765 C50.6244233,30.7808546 50.5450248,31.2552544 50.6946522,31.5888864 C51.7451164,33.9547346 52.3405461,36.4399918 52.4229385,38.9405277 C52.4595813,39.9719576 52.4076709,40.9911645 52.2763676,41.9950144 C52.0901014,43.4396745 52.5847763,43.7396071 53.6077007,42.7081459 L64.771325,31.4818258 C72.0998718,24.096493 71.8738789,13.5892904 64.2247365,5.9287843 L64.2247834,5.92846305 Z" id="Path" fill-rule="nonzero"></path>
                    <path d="M43.9063234,26.1773244 C41.8512122,24.1234869 38.5288254,24.1295988 36.4767629,26.1834457 C34.4216517,28.249507 34.4277493,31.5858274 36.4828706,33.6427209 C38.2570252,35.4118843 39.2647638,37.4075803 39.3258175,39.2655232 C39.3838365,41.0009927 38.6051488,42.6997908 37.0081205,44.3067535 L23.9014999,57.5202371 L23.8770706,57.5447239 C22.3441604,59.0812429 20.7348744,59.8587094 19.0889249,59.8648214 C17.1986822,59.867882 15.1496685,58.8577663 13.3205578,57.0274054 C11.2379294,54.939874 8.40412887,50.7740575 12.7861695,46.3574175 L19.2355086,39.8776155 C19.4920125,39.6205077 19.5714136,39.1460745 19.4217811,38.8154749 C18.3744085,36.4525157 17.7788804,33.9731951 17.6903876,31.4785947 C17.6567979,30.4409801 17.70871,29.4186453 17.8400201,28.4115902 C18.0293493,26.9699626 17.5346576,26.6668745 16.508642,27.6953525 L5.34151362,38.916196 C-1.97813449,46.292882 -1.7551828,56.8005908 5.88812052,64.4741746 C9.71433752,68.3032875 14.4075021,70.4060986 19.1104383,70.4 C23.5748663,70.390804 27.7916396,68.5237081 31.3125879,64.9945491 L31.3583923,64.9486369 L44.4681398,51.732019 C48.1416834,48.0283571 49.9952625,43.5867209 49.8334427,38.9071904 C49.6868668,34.3679204 47.5767994,29.8474562 43.9063046,26.1771747 L43.9063234,26.1773244 Z" id="Path" fill-rule="nonzero"></path>
                </g>
            </g>
        </g>
    </g>
</svg>