<?xml version="1.0" encoding="UTF-8"?>
<svg width="100px" height="100px" viewBox="0 0 100 100" version="1.1" xmlns="http://www.w3.org/2000/svg" xmlns:xlink="http://www.w3.org/1999/xlink">
    <!-- Generator: sketchtool 63.1 (101010) - https://sketch.com -->
    <title>link/link_chain</title>
    <desc>Created with sketchtool.</desc>
    <g id="Icons" stroke="none" stroke-width="1" fill="none" fill-rule="evenodd">
        <g id="link/link_chain" fill="#838383">
            <g id="Annotations/Link">
                <g id="Group">
                    <path d="M91.2283856,8.42111229 C85.7979324,2.98241524 79.1307314,-0.0086622372 72.4562019,0 C66.088805,0.00871327967 60.0420877,2.67802094 55.0631174,7.7385345 L36.4419462,26.5152668 C31.2326818,31.7626462 28.5955154,38.0577653 28.8123737,44.7488751 C29.0379153,51.1875659 32.0263857,57.6002134 37.2226585,62.8088618 C40.1417519,65.7303794 44.8652224,65.7303794 47.7799854,62.8088618 C50.6990788,59.8830038 50.6990788,55.1442467 47.7799854,52.2227291 C45.2642951,49.7012091 43.8285662,46.8622731 43.7375145,44.2450386 C43.6594411,41.7669239 44.7654876,39.35414 47.0340281,37.0716835 L65.6507578,18.2904994 C65.6637704,18.2774566 65.6724448,18.268761 65.6854574,18.2557194 C67.8584825,16.0776585 70.1486534,14.9733805 72.4779099,14.96904 C75.1584925,14.9646917 78.0689249,16.399415 80.6713363,19.0121977 C83.6295153,21.9728914 87.6589946,27.876694 81.4260545,34.1540057 L72.2740319,43.3576207 C71.9096921,43.7228048 71.7969102,44.3966681 72.0094492,44.8705772 C73.5015857,48.2311571 74.3473667,51.761352 74.4644013,55.3132495 C74.5164507,56.7783488 74.4427144,58.226086 74.256204,59.6520091 C73.9916212,61.704083 74.6942845,62.1301238 76.1473022,60.6649799 L92.004723,44.7185025 C102.414591,34.227973 102.093578,19.3029694 91.2283189,8.4215686 L91.2283856,8.42111229 Z" id="Path" fill-rule="nonzero"></path>
                    <path d="M62.3669367,37.1836994 C59.4477446,34.2663166 54.7284451,34.2749983 51.8135837,37.1923945 C48.8943916,40.1271407 48.9030529,44.8662321 51.8222594,47.7879558 C54.3423653,50.300972 55.7738122,53.1357674 55.8605362,55.7748908 C55.9429496,58.2400465 54.8368591,60.653112 52.5683529,62.9357294 L33.9509942,81.7048822 L33.9162934,81.7396646 C31.7388642,83.92222 29.4529466,85.0265759 27.1149501,85.0352576 C24.4299463,85.0396051 21.5194155,83.6047817 18.9212469,81.0048372 C15.9629679,78.0395938 11.9376831,72.1222408 18.1621725,65.8486044 L27.3231656,56.6443402 C27.6875177,56.2791303 27.8003034,55.6052194 27.5877573,55.1356177 C26.100012,51.7791416 25.2540915,48.2573794 25.1283915,44.7139129 C25.0806789,43.2400285 25.1544176,41.7878484 25.3409377,40.3573725 C25.6098711,38.309606 24.9071841,37.879083 23.4497756,39.3399894 L7.5873773,55.2786876 C-2.80985013,65.7569347 -2.49315738,80.6826574 8.36380755,91.5826344 C13.7987749,97.0217152 20.4652018,100.008663 27.145509,100 C33.487026,99.9869374 39.4767608,97.3348126 44.4781078,92.3218027 L44.5431709,92.2565865 L63.1649713,73.4829815 C68.383073,68.2220981 71.0159979,61.9129559 70.7861402,55.2658954 C70.5779359,48.8180687 67.580681,42.3969549 62.36691,37.1834869 L62.3669367,37.1836994 Z" id="Path" fill-rule="nonzero"></path>
                </g>
            </g>
        </g>
    </g>
</svg>