<?xml version="1.0" encoding="UTF-8"?>
<svg width="100px" height="100px" viewBox="0 0 100 100" version="1.1" xmlns="http://www.w3.org/2000/svg" xmlns:xlink="http://www.w3.org/1999/xlink">
    <!-- Generator: sketchtool 63.1 (101010) - https://sketch.com -->
    <title>app/app_Adobe_Audition</title>
    <desc>Created with sketchtool.</desc>
    <g id="Icons" stroke="none" stroke-width="1" fill="none" fill-rule="evenodd">
        <g id="app/app_Adobe_Audition" fill-rule="nonzero">
            <g id="audition">
                <path d="M78.5076923,100 L21.4923077,100 C9.62115385,100 0,90.3788462 0,78.5076923 L0,21.4923077 C0,9.62115385 9.62115385,0 21.4923077,0 L78.5096154,0 C90.3788462,0 100,9.62115385 100,21.4923077 L100,78.5096154 C100,90.3788462 90.3788462,100 78.5076923,100 Z" id="Path" fill="#2F5074"></path>
                <g id="Group" transform="translate(15.384615, 21.153846)" fill="#00F5F1">
                    <path d="M38.6153846,53.8461538 L32.3846154,53.8461538 L27.0769231,36.4615385 L11.0769231,36.4615385 L6,53.8461538 L0,53.8461538 L15.8442308,0 L22.2288462,0 L38.6153846,53.8461538 Z M25.6903846,30.7692308 L19,8.92307692 L12.5384615,30.7692308 L25.6903846,30.7692308 Z" id="Shape"></path>
                    <path d="M68.9230769,53.8461538 L63.6153846,53.8461538 L63.6153846,51 C61.4096154,53.4615385 58.4346154,54.6942308 54.6903846,54.6942308 C45.0480769,54.6942308 40.2288462,50.0019231 40.2288462,40.6173077 L40.2288462,15.3076923 L45.7673077,15.3076923 L45.7673077,40.6153846 C45.7673077,46.5115385 48.7403846,49.4615385 54.6903846,49.4615385 C60.4865385,49.4615385 63.3846154,46.4884615 63.3846154,40.5384615 L63.3846154,15.3076923 L68.9230769,15.3076923 L68.9230769,53.8461538 L68.9230769,53.8461538 Z" id="Path"></path>
                </g>
            </g>
        </g>
    </g>
</svg>