<?xml version="1.0" encoding="UTF-8"?>
<svg width="100px" height="100px" viewBox="0 0 100 100" version="1.1" xmlns="http://www.w3.org/2000/svg" xmlns:xlink="http://www.w3.org/1999/xlink">
    <!-- Generator: sketchtool 63.1 (101010) - https://sketch.com -->
    <title>app/app_Accordance_search</title>
    <desc>Created with sketchtool.</desc>
    <defs>
        <path d="M59.6779404,50.9832425 C58.5062301,49.808572 56.970841,49.2093687 55.4324752,49.18548 C61.3833008,40.3161111 60.4471233,28.1580313 52.6121125,20.3266404 C43.7128543,11.4244532 29.2259915,11.4244532 20.3267333,20.3266404 C11.4244222,29.2257748 11.4244222,43.712436 20.3267333,52.6146232 C28.1589964,60.4467773 40.3141925,61.3855368 49.1836848,55.4319701 C49.2105169,56.9703145 49.8097697,58.5027057 50.9844489,59.6773762 L66.8542839,75.5500432 C69.2542596,77.9499856 73.1449756,77.9499856 75.5451804,75.5500432 C77.9511093,73.1471243 77.9511093,69.2534859 75.5481623,66.8531619 L59.6779404,50.9832425 Z M46.5091753,46.5054362 C40.9727834,52.041751 31.9688864,52.041751 26.4324182,46.5054362 C20.899003,40.9720979 20.899003,31.9622968 26.4324182,26.4289585 C31.9688101,20.8926437 40.9727071,20.8926437 46.5091753,26.4289585 C52.0425905,31.9622968 52.0425905,40.9720979 46.5091753,46.5054362 Z" id="path-1"></path>
        <filter x="-7.1%" y="-7.1%" width="114.1%" height="114.1%" filterUnits="objectBoundingBox" id="filter-2">
            <feMorphology radius="0.5" operator="dilate" in="SourceAlpha" result="shadowSpreadOuter1"></feMorphology>
            <feOffset dx="0" dy="0" in="shadowSpreadOuter1" result="shadowOffsetOuter1"></feOffset>
            <feGaussianBlur stdDeviation="1" in="shadowOffsetOuter1" result="shadowBlurOuter1"></feGaussianBlur>
            <feColorMatrix values="0 0 0 0 0.811594203   0 0 0 0 0.811594203   0 0 0 0 0.811594203  0 0 0 0.5 0" type="matrix" in="shadowBlurOuter1"></feColorMatrix>
        </filter>
        <filter x="-7.8%" y="-7.8%" width="115.7%" height="115.7%" filterUnits="objectBoundingBox" id="filter-3">
            <feGaussianBlur stdDeviation="1.5" in="SourceAlpha" result="shadowBlurInner1"></feGaussianBlur>
            <feOffset dx="0" dy="1" in="shadowBlurInner1" result="shadowOffsetInner1"></feOffset>
            <feComposite in="shadowOffsetInner1" in2="SourceAlpha" operator="arithmetic" k2="-1" k3="1" result="shadowInnerInner1"></feComposite>
            <feColorMatrix values="0 0 0 0 0   0 0 0 0 0   0 0 0 0 0  0 0 0 0.5 0" type="matrix" in="shadowInnerInner1"></feColorMatrix>
        </filter>
        <linearGradient x1="20.5465557%" y1="51.9079039%" x2="52.4864111%" y2="20.3392732%" id="linearGradient-4">
            <stop stop-color="#000000" offset="0%"></stop>
            <stop stop-color="#373737" offset="51.3381546%"></stop>
            <stop stop-color="#000000" offset="100%"></stop>
        </linearGradient>
        <path d="M41.9104741,58.3422224 C40.7387639,57.1675507 39.2033747,56.5683467 37.665009,56.5444579 C34.0710758,60.3942693 35.5725338,58.8928096 31.4162185,62.7909549 C31.4430506,64.3293009 32.0423035,65.8616939 33.2169827,67.0363656 L49.0868176,82.9090499 C51.4867934,85.3089949 55.3775094,85.3089949 57.7777141,82.9090499 C60.1836431,80.5061284 60.1836431,76.6124857 57.7806961,74.2121591 L41.9104741,58.3422224 Z" id="path-5"></path>
        <filter x="-23.1%" y="-19.5%" width="146.2%" height="146.2%" filterUnits="objectBoundingBox" id="filter-6">
            <feOffset dx="0" dy="1" in="SourceAlpha" result="shadowOffsetOuter1"></feOffset>
            <feGaussianBlur stdDeviation="2" in="shadowOffsetOuter1" result="shadowBlurOuter1"></feGaussianBlur>
            <feColorMatrix values="0 0 0 0 0.811594203   0 0 0 0 0.811594203   0 0 0 0 0.811594203  0 0 0 0.5 0" type="matrix" in="shadowBlurOuter1"></feColorMatrix>
        </filter>
        <filter x="-21.3%" y="-17.8%" width="142.6%" height="142.6%" filterUnits="objectBoundingBox" id="filter-7">
            <feGaussianBlur stdDeviation="1.5" in="SourceAlpha" result="shadowBlurInner1"></feGaussianBlur>
            <feOffset dx="0" dy="1" in="shadowBlurInner1" result="shadowOffsetInner1"></feOffset>
            <feComposite in="shadowOffsetInner1" in2="SourceAlpha" operator="arithmetic" k2="-1" k3="1" result="shadowInnerInner1"></feComposite>
            <feColorMatrix values="0 0 0 0 0   0 0 0 0 0   0 0 0 0 0  0 0 0 0.5 0" type="matrix" in="shadowInnerInner1"></feColorMatrix>
        </filter>
    </defs>
    <g id="Icons" stroke="none" stroke-width="1" fill="none" fill-rule="evenodd">
        <g id="app/app_Accordance_search">
            <g id="Accordance" transform="translate(5.000000, 0.000000)">
                <g id="Group" transform="translate(52.947384, 45.166511)">
                    <path d="M2.80758154e-15,14.0045018 C0.0886932061,13.0966391 0.350218441,11.4142737 0.784575705,8.95740573 C1.4361116,5.27210374 3.04414388,1.41968383 3.69478639,1.0512967 C4.34542889,0.682909572 4.09141548,0.203106461 6.69906948,0.0253130868 C9.30672348,-0.152480287 12.4921203,0.643531738 14.3034186,1.24886269 C16.114717,1.85419364 17.4252114,2.43939218 18.0890831,3.34467184 C18.5316643,3.94819161 18.5975196,6.26168407 18.2866491,10.2851492 L17.7434813,16.320347 L13.9413068,15.4964209 C14.5933419,11.0915133 14.7140459,8.65031633 14.3034186,8.17283002 C13.6874777,7.45660056 9.62299223,6.60367861 9.14332456,6.60367861 C8.66365689,6.60367861 8.66365689,6.60367861 8.20786891,6.9054385 C7.90401026,7.10661176 7.33522179,9.66151213 6.50150349,14.5701396 L2.80758154e-15,14.0045018 Z" id="Path-5" fill="#CEA276"></path>
                    <path d="M7.5541122,8.89248193 C7.66112711,8.61259678 7.82164947,8.4726542 8.03567929,8.4726542 C8.35672402,8.4726542 9.43327875,8.47411787 10.1718615,8.68256807 C10.9104443,8.89101826 11.3943011,8.96656917 11.5795192,9.47283201 C11.7647373,9.97909485 11.6412586,12.0411898 11.3943011,13.1895421 C11.2296627,13.9551103 11.0814883,14.6260115 10.9497776,15.2022456 L13.9132674,15.659117 C14.2266409,13.7822013 14.4159749,12.3498479 14.4812696,11.3620568 C14.5792116,9.88037002 14.6664877,8.89248193 14.3948345,8.37387121 C14.1231813,7.85526049 12.5303055,7.28725828 11.5918671,7.06499655 C10.6534286,6.84273481 9.44285603,6.59085409 9.02350923,6.57108158 C8.60416242,6.55130906 8.48020276,6.70690819 8.20786891,6.9054385 C8.02631301,7.03779204 7.80839411,7.70013984 7.5541122,8.89248193 Z" id="Path-6" fill="#826046"></path>
                </g>
                <ellipse id="Oval-Copy" fill="#CEA276" cx="45.0296102" cy="72.8030662" rx="44.9462621" ry="14.0271851"></ellipse>
                <ellipse id="Oval" fill="#CEA276" cx="29.9158122" cy="82.3850166" rx="18.9663348" ry="7.40872451"></ellipse>
                <path d="M0.0833481508,72.8030662 C-0.21300083,74.5482324 0.280914138,76.2933987 1.56509305,78.0385649 C3.49136143,80.6563142 7.19572368,82.6813656 9.36894954,84.1631105 C11.5421754,85.6448554 14.1599247,87.5217323 15.8886271,89.4973921 C17.6173295,91.473052 17.5185465,91.8187925 19.0434974,93.1523629 C20.5684484,94.4859333 24.6794102,97.4289843 33.7683489,98.7829935 C42.8572877,100.137003 48.6463071,100.017781 56.6421708,98.7829935 C64.6380344,97.5482061 68.3917882,95.3749802 70.8119715,93.1523629 C73.2321549,90.9297455 72.4912824,90.9297455 76.2450362,87.5217323 C79.9987899,84.113719 84.6909821,80.9526632 86.9135995,79.0263948 C89.0868253,77.0836626 90.1075829,75.0092197 89.9758723,72.8030662 C89.41831,75.5803137 87.3109395,77.9511055 83.6537607,79.9154418 C78.1679924,82.8619461 72.4912824,83.7679785 67.3545667,84.9533744 C60.4397572,86.3034087 51.5163601,86.9290343 40.5843755,86.8302513 C34.3610469,87.5546599 30.4097272,88.0156472 28.7304163,88.2132132 C26.2114499,88.5095622 21.8156067,89.1022602 18.8459314,88.2132132 C15.8762562,87.3241663 14.4576463,85.256392 13.0733118,84.1631105 C11.6889773,83.069829 11.9373074,82.6319741 10.6531285,81.9404931 C9.36894954,81.2490122 6.8432374,80.3453422 5.91154477,79.7178758 C3.29379544,77.8409989 2.98409315,78.0909151 1.56509305,76.359254 C0.619092992,75.2048132 0.125178024,74.0194173 0.0833481508,72.8030662 Z" id="Path-4" fill="#826046"></path>
                <ellipse id="Oval" fill="#373431" cx="44.9308272" cy="67.1724356" rx="32.4008219" ry="8.00142248"></ellipse>
                <path d="M44.9308272,59.1710131 C62.825307,59.1710131 77.3316491,62.753372 77.3316491,67.1724356 C77.3316491,70.6514523 68.3405987,73.6118782 55.7836689,74.7139609 C55.7928054,74.6697558 55.7969565,74.6255802 55.7969565,74.5811601 C55.7969565,73.0535826 50.8877981,71.8152363 44.8320442,71.8152363 C38.7762904,71.8152363 33.8671319,73.0535826 33.8671319,74.5811601 C33.8671319,74.6194767 33.8702206,74.6576113 33.8763386,74.695549 C21.4253951,73.5802817 12.5300053,70.6328952 12.5300053,67.1724356 C12.5300053,62.753372 27.0363474,59.1710131 44.9308272,59.1710131 Z" id="Combined-Shape" fill="#826046"></path>
                <ellipse id="Oval" fill="#383431" cx="26.9523224" cy="80.0142248" rx="6.51967757" ry="2.86470681"></ellipse>
                <path d="M23.7193982,71.6577896 C20.3455776,67.5070712 18.7234872,62.6948699 18.8531271,57.2211855 C18.7990574,51.5438692 20.6644613,46.0828317 24.4493388,40.8380729 C29.4255594,33.79494 32.6156704,28.9827386 34.0196719,26.4014687 C36.1256742,22.529564 36.8527536,20.0271043 37.5071662,16.8311357 C37.9434413,14.7004899 37.9434413,12.2132847 37.5071662,9.36952003 C40.926796,14.0086736 43.2037837,18.0909343 44.3381292,21.6163022 C46.0396475,26.9043541 46.5097677,31.4299488 45.779827,35.0796521 C43.5089005,43.0278949 38.3993159,49.1918382 33.4519403,55.4368861 C29.964446,59.4110074 28.6903784,61.2641052 26.8824744,64.2772785 C25.677205,66.2860607 24.6228463,68.7462311 23.7193982,71.6577896 Z" id="Path" fill="#FFC239"></path>
                <path d="M13.4191244,60.4653662 C11.2862584,57.1845847 9.88044678,54.5328683 9.20168951,52.510217 C8.52223817,50.3087674 7.50618452,43.5633001 9.20168951,39.7837142 C10.5390001,36.3796472 13.918355,30.5671568 19.3397542,22.3462429 C22.3492558,16.9680377 24.349834,12.9128118 25.3414885,10.1805652 C26.3331431,7.44831863 27.0360489,4.05479689 27.450206,-5.61516308e-15 C29.8170464,3.82901699 31.1986854,6.95219033 31.5951231,9.36952003 C31.8754017,12.9829077 32.8031042,14.5602092 29.802237,22.3462429 C25.098175,30.2133811 22.746144,32.8898302 19.9885904,36.7017425 C17.2310368,41.0002819 17.6365594,39.6215051 15.1223193,45.5421349 C13.4461593,49.4892215 12.8784276,54.4636319 13.4191244,60.4653662 Z" id="Path-2" fill="#FFC239"></path>
                <path d="M29.9803813,71.0249723 C30.4015124,69.0405318 32.2674134,65.9233795 35.5780843,61.6735156 C40.5440906,55.2987198 44.0937889,51.8364424 47.0369115,46.6585006 C49.9800341,41.4805588 50.7068175,39.0476019 51.4492185,33.7508561 C51.727254,32.0931836 51.3979773,28.2516227 50.4613886,22.2261735 C53.0302824,27.4452084 54.4790996,30.9574926 54.8078403,32.7630262 C56.402392,39.2371529 56.8630411,43.6818397 56.5499357,46.9466177 C56.0727771,51.8215584 50.1979673,57.7880512 48.0905968,59.5661451 C44.9802187,62.0686476 41.3417458,63.8207613 37.5537441,66.2175333 C35.0284097,67.8153813 32.5039554,69.417861 29.9803813,71.0249723 Z" id="Path-3" fill="#FFC239"></path>
            </g>
            <g id="Group" transform="translate(51.500000, 61.500000) rotate(-39.000000) translate(-51.500000, -61.500000) translate(6.000000, 16.000000)" fill-rule="nonzero">
                <g id="Shape" transform="translate(45.500000, 45.500000) rotate(45.000000) translate(-45.500000, -45.500000) ">
                    <use fill="black" fill-opacity="1" filter="url(#filter-2)" xlink:href="#path-1"></use>
                    <use fill="#000000" xlink:href="#path-1"></use>
                    <use fill="black" fill-opacity="1" filter="url(#filter-3)" xlink:href="#path-1"></use>
                </g>
                <g id="Path" transform="translate(45.499376, 70.626733) rotate(45.000000) translate(-45.499376, -70.626733) ">
                    <use fill="black" fill-opacity="1" filter="url(#filter-6)" xlink:href="#path-5"></use>
                    <use fill="url(#linearGradient-4)" xlink:href="#path-5"></use>
                    <use fill="black" fill-opacity="1" filter="url(#filter-7)" xlink:href="#path-5"></use>
                </g>
            </g>
        </g>
    </g>
</svg>