<?xml version="1.0" encoding="UTF-8" standalone="no"?>
<!-- Created with Inkscape (http://www.inkscape.org/) -->

<svg
   xmlns:dc="http://purl.org/dc/elements/1.1/"
   xmlns:cc="http://creativecommons.org/ns#"
   xmlns:rdf="http://www.w3.org/1999/02/22-rdf-syntax-ns#"
   xmlns:svg="http://www.w3.org/2000/svg"
   xmlns="http://www.w3.org/2000/svg"
   xmlns:xlink="http://www.w3.org/1999/xlink"
   xmlns:sodipodi="http://sodipodi.sourceforge.net/DTD/sodipodi-0.dtd"
   xmlns:inkscape="http://www.inkscape.org/namespaces/inkscape"
   width="32"
   height="32"
   id="svg17560"
   version="1.1"
   inkscape:version="0.91 r13725"
   viewBox="0 0 32 32">
  <defs
     id="defs17562">
    <radialGradient
       inkscape:collect="always"
       xlink:href="#linearGradient3773"
       id="radialGradient14019"
       gradientUnits="userSpaceOnUse"
       gradientTransform="matrix(0.610003,0,0,0.610003,57.68046,101.3106)"
       spreadMethod="reflect"
       cx="147.89946"
       cy="259.77209"
       fx="147.89946"
       fy="259.77209"
       r="227.53777" />
    <linearGradient
       id="linearGradient3773">
      <stop
         style="stop-color:#24424c;stop-opacity:1.0000000;"
         offset="0.00000000"
         id="stop3775" />
      <stop
         style="stop-color:#79dfee;stop-opacity:1.0000000;"
         offset="1.0000000"
         id="stop3777" />
    </linearGradient>
    <radialGradient
       inkscape:collect="always"
       xlink:href="#linearGradient8251"
       id="radialGradient14021"
       gradientUnits="userSpaceOnUse"
       gradientTransform="matrix(0.991749,-0.1351,0.1351,0.991749,-57.27289,-28.38547)"
       cx="-235.12236"
       cy="409.56799"
       fx="-235.12236"
       fy="409.56799"
       r="206.68015" />
    <linearGradient
       id="linearGradient8251">
      <stop
         style="stop-color:#000000;stop-opacity:0.25098041;"
         offset="0.00000000"
         id="stop8253" />
      <stop
         style="stop-color:#000000;stop-opacity:0.00000000;"
         offset="1.0000000"
         id="stop8255" />
    </linearGradient>
    <radialGradient
       inkscape:collect="always"
       xlink:href="#linearGradient8983"
       id="radialGradient14023"
       gradientUnits="userSpaceOnUse"
       cx="-235.12236"
       cy="409.56799"
       fx="-235.12236"
       fy="409.56799"
       r="206.68015" />
    <linearGradient
       id="linearGradient8983">
      <stop
         style="stop-color:#ffffff;stop-opacity:0.37254903;"
         offset="0.00000000"
         id="stop8985" />
      <stop
         style="stop-color:#ffffff;stop-opacity:0.094117649;"
         offset="1.0000000"
         id="stop8987" />
    </linearGradient>
    <radialGradient
       inkscape:collect="always"
       xlink:href="#linearGradient8983"
       id="radialGradient14025"
       gradientUnits="userSpaceOnUse"
       gradientTransform="matrix(1.067294,-2.894885e-7,1.666001e-7,0.614226,14.09976,131.3014)"
       spreadMethod="pad"
       cx="-209.52437"
       cy="340.35858"
       fx="-207.43031"
       fy="302.83432"
       r="103.34007" />
    <radialGradient
       inkscape:collect="always"
       xlink:href="#linearGradient8983"
       id="radialGradient14027"
       gradientUnits="userSpaceOnUse"
       gradientTransform="matrix(0.807107,-0.216266,0.149951,0.559619,-90.93863,105.4105)"
       spreadMethod="pad"
       cx="-205.79749"
       cy="344.59457"
       fx="-200.75925"
       fy="374.52814"
       r="103.34007" />
  </defs>
  <sodipodi:namedview
     id="base"
     pagecolor="#ffffff"
     bordercolor="#666666"
     borderopacity="1.0"
     inkscape:pageopacity="0.0"
     inkscape:pageshadow="2"
     inkscape:zoom="13.265876"
     inkscape:cx="-18.01854"
     inkscape:cy="13.468374"
     inkscape:current-layer="layer1"
     showgrid="true"
     inkscape:grid-bbox="true"
     inkscape:document-units="px"
     inkscape:window-width="1920"
     inkscape:window-height="1018"
     inkscape:window-x="-8"
     inkscape:window-y="-8"
     inkscape:window-maximized="1" />
  <metadata
     id="metadata17565">
    <rdf:RDF>
      <cc:Work
         rdf:about="">
        <dc:format>image/svg+xml</dc:format>
        <dc:type
           rdf:resource="http://purl.org/dc/dcmitype/StillImage" />
        <dc:title></dc:title>
      </cc:Work>
    </rdf:RDF>
  </metadata>
  <g
     id="layer1"
     inkscape:label="Layer 1"
     inkscape:groupmode="layer">
    <g
       id="g18340"
       transform="translate(-4.8697612e-7,-3.7515049e-5)">
      <g
         inkscape:export-ydpi="90"
         inkscape:export-xdpi="90"
         inkscape:export-filename="M:\FreePlane_radna_mapa\images-view\showAttributes.gif.png"
         transform="matrix(1.9817952,0,0,1.9817952,-177.26986,-1648.8823)"
         id="g9934-1-9">
        <g
           id="g10366-7-6"
           transform="matrix(0.7060479,0,0,0.7060479,63.01753,229.2518)">
          <rect
             y="854.06769"
             x="38.699677"
             height="22.161352"
             width="20.342138"
             id="rect10214-4-0"
             style="color:#000000;display:inline;overflow:visible;visibility:visible;opacity:0.93719806;fill:#ffffff;fill-opacity:1;fill-rule:evenodd;stroke:#000000;stroke-width:0.70816725;marker:none;enable-background:accumulate" />
          <path
             inkscape:connector-curvature="0"
             sodipodi:nodetypes="cccccccc"
             id="rect10216-0-5"
             d="m 48.870745,858.77559 -10.121756,0 0,-4.68684 10.121756,0 m 0,4.68684 10.121757,0 0,-4.68684 -10.121757,0 -0.03471,4.69397"
             style="color:#000000;display:inline;overflow:visible;visibility:visible;opacity:0.93719806;fill:#b1b1b1;fill-opacity:1;fill-rule:evenodd;stroke:#000000;stroke-width:0.16712102;stroke-linecap:round;stroke-linejoin:round;stroke-miterlimit:4;stroke-dashoffset:0;stroke-opacity:1;marker:none;enable-background:accumulate" />
          <path
             inkscape:connector-curvature="0"
             sodipodi:nodetypes="cccccccc"
             id="rect10216-8-9-2"
             d="m 48.870745,863.63668 -10.121756,0 0,-4.68684 10.121756,0 m 0,4.68684 10.121757,0 0,-4.68684 -10.121757,0 -0.03471,4.69397"
             style="color:#000000;display:inline;overflow:visible;visibility:visible;opacity:0.93719806;fill:none;stroke:#000000;stroke-width:0.35408363;stroke-linecap:round;stroke-linejoin:round;stroke-miterlimit:4;stroke-dashoffset:0;stroke-opacity:1;marker:none;enable-background:accumulate" />
          <path
             inkscape:connector-curvature="0"
             sodipodi:nodetypes="cccccccc"
             id="rect10216-89-4-3"
             d="m 48.870746,868.49777 -10.121757,0 0,-4.68684 10.121757,0 m 0,4.68684 10.121757,0 0,-4.68684 -10.121757,0 -0.03471,4.69397"
             style="color:#000000;display:inline;overflow:visible;visibility:visible;opacity:0.93719806;fill:none;stroke:#000000;stroke-width:0.35408363;stroke-linecap:round;stroke-linejoin:round;stroke-miterlimit:4;stroke-dashoffset:0;stroke-opacity:1;marker:none;enable-background:accumulate" />
          <path
             inkscape:connector-curvature="0"
             sodipodi:nodetypes="cccccccc"
             id="rect10216-7-8-7"
             d="m 48.870744,873.35886 -10.121755,0 0,-4.68684 10.121755,0 m 0,4.68684 10.121758,0 0,-4.68684 -10.121758,0 -0.03471,4.69397"
             style="color:#000000;display:inline;overflow:visible;visibility:visible;opacity:0.93719806;fill:none;stroke:#000000;stroke-width:0.35408363;stroke-linecap:round;stroke-linejoin:round;stroke-miterlimit:4;stroke-dashoffset:0;stroke-opacity:1;marker:none;enable-background:accumulate" />
          <path
             inkscape:connector-curvature="0"
             id="path10281-8-1"
             d="m 39.022949,874.74058 0,-1.23649 9.847796,0 9.847797,0 0,1.23649 0,1.2365 -9.847797,0 -9.847796,0 0,-1.2365 z"
             style="color:#000000;display:inline;overflow:visible;visibility:visible;opacity:0.93719806;fill:#cccccc;fill-opacity:1;stroke:#000000;stroke-width:0.04416052;stroke-linecap:round;stroke-linejoin:round;stroke-miterlimit:4;stroke-dasharray:none;stroke-dashoffset:0;stroke-opacity:1;marker:none;enable-background:accumulate" />
          <text
             id="text10283-2-3"
             y="861.82092"
             x="40.057484"
             style="font-style:italic;font-size:2.08346057px;fill:#0000ff;fill-opacity:1;stroke:none"
             xml:space="preserve"><tspan
               y="861.82092"
               x="40.057484"
               id="tspan10285-4-5"
               sodipodi:role="line">Predrag</tspan></text>
          <text
             id="text10283-8-5-1"
             y="866.51904"
             x="40.350864"
             style="font-style:italic;font-size:2.08346057px;fill:#ff0000;fill-opacity:1;stroke:none"
             xml:space="preserve"><tspan
               y="866.51904"
               x="40.350864"
               id="tspan10285-1-5-6"
               sodipodi:role="line">Romina</tspan></text>
          <text
             id="text10283-86-1-0"
             y="866.53125"
             x="51.055748"
             style="font-style:italic;font-size:2.08346057px;fill:#008000;fill-opacity:1;stroke:none"
             xml:space="preserve"><tspan
               id="tspan10362-7-4"
               y="866.53125"
               x="51.055748"
               sodipodi:role="line">Sara</tspan></text>
          <text
             id="text10283-86-4-1-0"
             y="862.04016"
             x="51.055748"
             style="font-style:italic;font-size:2.08346057px;fill:#ff6600;fill-opacity:1;stroke:none"
             xml:space="preserve"><tspan
               y="862.04016"
               x="51.055748"
               id="tspan10285-12-2-1-0"
               sodipodi:role="line">Stela</tspan></text>
        </g>
        <rect
           style="color:#000000;display:inline;overflow:visible;visibility:visible;fill:none;stroke:none;stroke-width:0.85016513;marker:none;enable-background:accumulate"
           id="rect6193-0-23-7-8-2-89-0-36-52-9"
           width="16"
           height="16"
           x="89.522621"
           y="832.08801" />
      </g>
      <g
         transform="matrix(0.97020322,0,0,0.97020322,13.986932,7.0995543)"
         id="g18326">
        <path
           style="color:#000000;display:inline;overflow:visible;visibility:visible;fill:#ffffff;fill-opacity:1;fill-rule:evenodd;stroke:#000000;stroke-width:0.11973214;stroke-linecap:round;stroke-linejoin:round;stroke-miterlimit:4;stroke-dashoffset:4.50300026;stroke-opacity:1;marker:none;enable-background:accumulate"
           d="m 17.910121,6.879283 c -4.304346,6.256794 -7.420617,7.71017 -15.777834,7.988778 -8.594951,-0.477894 -13.318225,-3.576698 -15.777845,-7.988778 -2.148342,-3.853712 7.06398,-7.98878 15.777845,-7.98878 8.713853,0 18.278511,4.353796 15.777834,7.98878 z"
           id="path12873"
           inkscape:connector-curvature="0"
           sodipodi:nodetypes="scsss" />
        <g
           transform="matrix(0.02792154,0,0,0.02792154,-5.3767978,-0.831001)"
           inkscape:label="Layer 1"
           id="layer1-3">
          <g
             transform="translate(-98,-252)"
             id="g2059">
            <circle
               r="227.53777"
               cy="259.77228"
               cx="147.89955"
               transform="matrix(1.199801,0,0,1.199801,194.5972,214.5061)"
               style="fill:url(#radialGradient14019);fill-opacity:1;fill-rule:nonzero;stroke:none"
               inkscape:label="#path1310"
               id="eyecol" />
            <path
               transform="matrix(0.964567,0.131397,-0.131397,0.964567,652.6546,162.0202)"
               style="fill:url(#radialGradient14021);fill-opacity:1;fill-rule:nonzero;stroke:none"
               sodipodi:type="star"
               sodipodi:sides="24"
               sodipodi:r2="73.729027"
               sodipodi:r1="206.81926"
               sodipodi:cy="409.56799"
               sodipodi:cx="-235.12236"
               sodipodi:arg2="0.094218906"
               sodipodi:arg1="-0.036680788"
               inkscape:rounded="0"
               inkscape:randomized="0"
               inkscape:flatsided="false"
               id="path2067"
               d="m -28.442221,401.9834 -133.278129,14.52099 128.198711,39.23021 -132.495091,-20.46872 113.676917,71.07373 -122.682737,-54.06352 91.408235,98.07371 -104.509755,-83.97397 62.91023,118.39012 -79.21461,-108.16175 30.125,130.63844 -48.52111,-124.97847 -4.71321,133.98396 -14.52099,-133.27812 -39.2302,128.1987 20.46872,-132.49509 -71.07374,113.67692 54.06352,-122.68273 -98.07371,91.40823 83.97398,-104.50976 -118.39013,62.91023 108.16175,-79.2146 -130.63844,30.12499 124.97848,-48.52111 -133.98397,-4.7132 133.27812,-14.52099 -128.1987,-39.23021 132.49509,20.46872 -113.67692,-71.07374 122.68274,54.06352 -91.40824,-98.07371 104.50976,83.97398 -62.91023,-118.39012 79.21461,108.16175 -30.125,-130.63844 48.52111,124.97847 4.71321,-133.98397 14.52098,133.27813 39.23021,-128.19871 -20.46872,132.49509 71.07374,-113.67691 -54.06352,122.68273 98.073711,-91.40823 -83.973981,104.50975 118.390125,-62.91023 -108.161745,79.21461 130.638437,-30.125 -124.978477,48.52112 z" />
            <path
               transform="matrix(1.138602,0,0,1.138602,639.7583,59.8463)"
               style="fill:url(#radialGradient14023);fill-opacity:1;fill-rule:nonzero;stroke:none"
               sodipodi:type="star"
               sodipodi:sides="24"
               sodipodi:r2="73.729027"
               sodipodi:r1="206.81926"
               sodipodi:cy="409.56799"
               sodipodi:cx="-235.12236"
               sodipodi:arg2="0.094218906"
               sodipodi:arg1="-0.036680788"
               inkscape:rounded="0"
               inkscape:randomized="0"
               inkscape:flatsided="false"
               id="path2065"
               d="m -28.442221,401.9834 -133.278129,14.52099 128.198711,39.23021 -132.495091,-20.46872 113.676917,71.07373 -122.682737,-54.06352 91.408235,98.07371 -104.509755,-83.97397 62.91023,118.39012 -79.21461,-108.16175 30.125,130.63844 -48.52111,-124.97847 -4.71321,133.98396 -14.52099,-133.27812 -39.2302,128.1987 20.46872,-132.49509 -71.07374,113.67692 54.06352,-122.68273 -98.07371,91.40823 83.97398,-104.50976 -118.39013,62.91023 108.16175,-79.2146 -130.63844,30.12499 124.97848,-48.52111 -133.98397,-4.7132 133.27812,-14.52099 -128.1987,-39.23021 132.49509,20.46872 -113.67692,-71.07374 122.68274,54.06352 -91.40824,-98.07371 104.50976,83.97398 -62.91023,-118.39012 79.21461,108.16175 -30.125,-130.63844 48.52111,124.97847 4.71321,-133.98397 14.52098,133.27813 39.23021,-128.19871 -20.46872,132.49509 71.07374,-113.67691 -54.06352,122.68273 98.073711,-91.40823 -83.973981,104.50975 118.390125,-62.91023 -108.161745,79.21461 130.638437,-30.125 -124.978477,48.52112 z" />
            <circle
               r="227.53777"
               cy="259.77228"
               cx="147.89955"
               transform="matrix(0.469923,0,0,0.469923,302.5458,404.1086)"
               style="fill:#000000;fill-opacity:1;fill-rule:nonzero;stroke:none"
               id="path1306" />
            <ellipse
               ry="63.520962"
               rx="103.34007"
               cy="340.35858"
               cx="-209.52437"
               transform="matrix(1.082821,-1.082821,1.082821,1.082821,116.8324,-181.3922)"
               style="fill:url(#radialGradient14025);fill-opacity:1;fill-rule:nonzero;stroke:none"
               id="path2809" />
            <ellipse
               ry="63.520962"
               rx="103.34007"
               cy="340.35858"
               cx="-209.52437"
               transform="matrix(0.915538,-0.245317,0.245317,0.915538,585.3109,336.3361)"
               style="fill:url(#radialGradient14027);fill-opacity:1;fill-rule:nonzero;stroke:none"
               id="path3559" />
          </g>
        </g>
        <path
           style="fill:#ffccaa;stroke:none"
           d="M -14.023756,4.952829 C -3.8436396,3.084361 8.3861598,3.610547 18.566277,5.567737 14.889447,-3.565479 -10.278728,-2.582993 -14.023756,4.952829 Z"
           id="path13743"
           inkscape:connector-curvature="0"
           sodipodi:nodetypes="ccc" />
        <path
           sodipodi:nodetypes="ccc"
           inkscape:connector-curvature="0"
           id="path13750"
           d="M -14.02375,5.112737 C -3.8436328,3.244269 8.3861666,3.770455 18.566284,5.727645 14.889454,-3.405571 -10.27872,-2.423085 -14.02375,5.112737 Z"
           style="opacity:0.30199998;fill:#ffffff;fill-opacity:1;stroke:none" />
        <path
           style="fill:#000000;fill-opacity:1;stroke:#000000;stroke-width:1.19732141px;stroke-linecap:round;stroke-linejoin:round;stroke-opacity:1"
           d="M -13.818776,5.362767 C -4.1168804,2.152125 7.7028964,2.424337 17.951369,5.772693 9.9485206,3.740361 3.8356442,-2.719069 -13.818776,5.362767 Z"
           id="path13748"
           inkscape:connector-curvature="0"
           sodipodi:nodetypes="ccc" />
      </g>
    </g>
  </g>
</svg>
