<?xml version="1.0" encoding="UTF-8" standalone="no"?>
<svg xmlns:rdf="http://www.w3.org/1999/02/22-rdf-syntax-ns#" xmlns="http://www.w3.org/2000/svg" version="1.1" xmlns:cc="http://creativecommons.org/ns#" xmlns:xlink="http://www.w3.org/1999/xlink" viewBox="0 0 15.764 16.751" xmlns:dc="http://purl.org/dc/elements/1.1/">
<defs>
<linearGradient id="c" y2="-2104.9" gradientUnits="userSpaceOnUse" x2="-2596.4" gradientTransform="matrix(.37028 0 0 .36654 1011.7 985.36)" y1="-2128.6" x1="-2585.9">
<stop stop-color="#dcdcdc" offset="0"/>
<stop stop-color="#fff" offset="1"/>
</linearGradient>
<filter id="d" style="color-interpolation-filters:sRGB" height="1.3315" width="1.3481" y="-.16576" x="-.17407">
<feGaussianBlur stdDeviation="0.82320991"/>
</filter>
<linearGradient id="b" y2="-2125.2" gradientUnits="userSpaceOnUse" x2="-2589.3" gradientTransform="matrix(.33386 0 0 .33049 917.56 908.65)" y1="-2130.1" x1="-2584.4">
<stop stop-color="#fff" offset="0"/>
<stop stop-color="#dcdcdc" offset="1"/>
</linearGradient>
<linearGradient id="a" y2="335.21" gradientUnits="userSpaceOnUse" y1="355.87" gradientTransform="matrix(.33929 0 0 .33895 -176.7 -195.38)" x2="32.638" x1="53.55">
<stop stop-color="#c83737" offset="0"/>
<stop stop-color="#c83737" stop-opacity=".40708" offset="1"/>
</linearGradient>
</defs>
<metadata>
<rdf:RDF>
<cc:Work rdf:about="">
<dc:format>image/svg+xml</dc:format>
<dc:type rdf:resource="http://purl.org/dc/dcmitype/StillImage"/>
<dc:title/>
</cc:Work>
</rdf:RDF>
</metadata>
<g transform="translate(-95.692 -299.35)">
<g fill-rule="evenodd" transform="matrix(.79802 0 0 .79802 227.88 371.29)">
<g transform="matrix(1.3267 0 0 1.3267 -220.82 -359.26)" stroke="#666">
<path d="m44.481 203.1h7.8035l3.9268 4.0816-0.0887 11.207h-11.642v-15.288z" stroke-width=".53351" fill="url(#c)"/>
<path stroke-linejoin="round" d="m-2829.3-1828.3c1.0683 4.7916 0.3837 8.5401-0.06 10.889 2.6346-0.6545 5.7398-1.3853 10.35 0.03-4.9699-5.5487-6.9971-7.2565-10.29-10.919z" transform="matrix(.33386 0 0 .33049 996.91 807.89)" filter="url(#d)" stroke-width="1.6061" fill="#d3d3d3"/>
<path stroke-linejoin="round" d="m52.517 203.34c0.35669 1.5836 0.12812 2.8224-0.02 3.5988 0.8796-0.21633 1.9163-0.45787 3.4556 0.009-1.6593-1.8338-2.3361-2.3982-3.4356-3.6086z" stroke-width=".53351" fill="url(#b)"/>
</g>
<path d="m-155.89-73.436c-0.02 0.70656 0.36067 1.64-1.5163 1.3862l-3.19-3.2439-3.2992 3.0929c-0.65128 0.5027-2.0586-0.31983-1.3141-1.3879 0.20641-0.29613 3.0735-3.151 3.0826-3.2055l-3.333-3.1439c0.37349-1.634 1.0672-1.477 1.645-1.6577l3.1756 3.0724c0.0133 0.103 3.088-3.0248 3.2186-3.0581 1.3686-0.34908 1.8011 0.99438 1.502 1.5719-0.13693 0.26444-3.1327 3.1597-3.1327 3.201l3.1614 3.3725z" stroke="url(#a)" stroke-width=".33912px" fill="#dc0000"/>
</g>
</g>
</svg>
