<?xml version="1.0" encoding="UTF-8" standalone="no"?>
<svg xmlns:rdf="http://www.w3.org/1999/02/22-rdf-syntax-ns#" xmlns="http://www.w3.org/2000/svg" height="4.5275mm" width="4.5108mm" version="1.1" xmlns:cc="http://creativecommons.org/ns#" xmlns:xlink="http://www.w3.org/1999/xlink" viewBox="0 0 15.983021 16.042342" xmlns:dc="http://purl.org/dc/elements/1.1/">
 <defs>
  <linearGradient id="j" y2="563.76" gradientUnits="userSpaceOnUse" x2="285.19" gradientTransform="matrix(.89748 0 0 .92452 -281.55 239.91)" y1="563.58" x1="295.32">
   <stop stop-color="#2a89ea" offset="0"/>
   <stop stop-color="#d4e2f6" offset=".47542"/>
   <stop stop-color="#e5eef9" offset=".86308"/>
   <stop stop-color="#f7fafd" offset="1"/>
  </linearGradient>
  <linearGradient id="i" y2="557.24" gradientUnits="userSpaceOnUse" x2="290.7" y1="558.21" x1="290.75">
   <stop stop-color="#b6c6dd" offset="0"/>
   <stop stop-color="#f7fafd" offset="1"/>
  </linearGradient>
  <linearGradient id="d" y2="446.77" xlink:href="#e" gradientUnits="userSpaceOnUse" x2="215.36" gradientTransform="matrix(.99094 0 0 1.0073 134.73 -154.36)" y1="440.75" x1="209.71"/>
  <linearGradient id="e">
   <stop stop-color="#f70000" offset="0"/>
   <stop stop-color="#780000" offset="1"/>
  </linearGradient>
  <linearGradient id="c" y2="449.6" xlink:href="#f" gradientUnits="userSpaceOnUse" x2="194.27" gradientTransform="matrix(.99094 0 0 1.0073 134.73 -154.36)" y1="456.24" x1="202.53"/>
  <linearGradient id="f">
   <stop stop-color="#baa492" offset="0"/>
   <stop stop-color="#fff" offset="1"/>
  </linearGradient>
  <linearGradient id="b" y2="449.64" xlink:href="#h" gradientUnits="userSpaceOnUse" x2="193.04" gradientTransform="matrix(.99094 0 0 1.0073 134.73 -154.36)" y1="457.89" x1="203.5"/>
  <linearGradient id="h">
   <stop offset="0"/>
   <stop stop-color="#7e7e7e" offset="1"/>
  </linearGradient>
  <linearGradient id="a" y2="462.65" xlink:href="#g" gradientUnits="userSpaceOnUse" x2="196.75" gradientTransform="matrix(.99094 0 0 1.0073 134.73 -154.36)" y1="458.87" x1="193.01"/>
  <linearGradient id="g">
   <stop stop-color="#c00000" offset="0"/>
   <stop offset="1"/>
  </linearGradient>
 </defs>
 <metadata>
  <rdf:RDF>
   <cc:Work rdf:about="">
    <dc:format>image/svg+xml</dc:format>
    <dc:type rdf:resource="http://purl.org/dc/dcmitype/StillImage"/>
    <dc:title/>
   </cc:Work>
  </rdf:RDF>
 </metadata>
 <g transform="translate(-17.169 -210.93)">
  <g transform="translate(3.2831 53.219)">
   <g transform="translate(-89.238 -438.33)">
    <g transform="translate(61.537 -3.4187)">
     <rect opacity=".92511" style="color:#000000" rx=".070219" ry=".091815" height="15.871" width="15.962" y="599.56" x="41.587" fill="none"/>
     <rect style="color:#000000" height="15.871" width="15.962" y="599.56" x="41.587" fill="none"/>
     <g transform="translate(4.0759 37.809)">
      <g fill-rule="evenodd" transform="translate(66.414 -192.48)" stroke="#000080">
       <path stroke-linejoin="round" d="m-28.659 755.46c0.78387 3.4534 5.9438 5.9718 6.452 7.5807l0.03254 6.9034 2.7652-2.949-0.0976-4.1555c0.32454-1.7212 4.0503-2.5699 6.3522-7.4132" stroke-linecap="round" stroke-width=".45727" fill="url(#j)"/>
       <ellipse rx="8.6451" transform="matrix(.89892 0 0 1.2347 -282.06 66.471)" ry=".79745" cy="557.94" cx="290.51" stroke-width=".43432" fill="url(#i)"/>
      </g>
      <g transform="matrix(1.2401 -.13473 .13551 1.2329 -152.66 114.18)">
       <g transform="matrix(.35249 .010495 .0022081 .35250 -.004426 272.71)">
        <path stroke-linejoin="round" d="m340.34 304.7 10.562-10.6 1.2706-8.9948-8.9644-0.60659-12.355 11.644" fill-rule="evenodd" stroke="#500" stroke-width="1.1768" fill="url(#d)"/>
        <path stroke-linejoin="round" d="m330.92 296.04-3.868 9.283 3.5794 3.6904 9.6367-4.2554c0.28336-1.8145 0.78302-3.5456-2.0093-3.9874-0.2834-1.4968 0.0987-3.1947-2.942-3.2724-0.96058-3.3215-2.9418-1.8004-4.3968-1.4582z" fill-rule="evenodd" stroke="url(#b)" stroke-width="1.1762px" fill="url(#c)"/>
        <path d="m335.35 297.57-6.1721 7.7077" stroke="#000" stroke-width=".40004" fill="none"/>
        <path d="m338.29 300.98c-0.2939 0.11951-8.1706 5.5567-8.1706 5.5567" stroke="#000" stroke-width=".40004" fill="none"/>
        <path stroke-linejoin="round" d="m327.03 305.38-2.3538 5.7552 5.9886-2.1372c-0.64013-2.659-1.4809-4.203-3.6348-3.618z" stroke-opacity=".83871" fill-rule="evenodd" stroke="#750000" stroke-width="1.1762px" fill="url(#a)"/>
        <path d="m351.02 294.19-10.31 10.57" stroke="#000" stroke-width=".46147" fill="none"/>
       </g>
       <g transform="matrix(.35249 .010495 .0022081 .35250 -.004426 272.71)">
        <path stroke-linejoin="round" d="m340.34 304.7 10.878-10.924 1.2315-8.9383-8.9253-0.66307-12.671 11.968" fill-rule="evenodd" stroke="#500" stroke-width="1.1768" fill="url(#d)"/>
        <path stroke-linejoin="round" d="m330.92 296.04-3.868 9.283 3.5794 3.6904 9.6367-4.2554c0.28336-1.8145 0.78302-3.5456-2.0093-3.9874-0.2834-1.4968 0.0987-3.1947-2.942-3.2724-0.96058-3.3215-2.9418-1.8004-4.3968-1.4582z" fill-rule="evenodd" stroke="url(#b)" stroke-width="1.1762px" fill="url(#c)"/>
        <path stroke-linejoin="round" d="m327.03 305.38-2.3538 5.7552 5.9886-2.1372c-0.64013-2.659-1.4809-4.203-3.6348-3.618z" stroke-opacity=".83871" fill-rule="evenodd" stroke="#750000" stroke-width="1.1762px" fill="url(#a)"/>
        <path d="m351.01 294.5-10.3 10.26" stroke="#000" stroke-width=".46147" fill="none"/>
       </g>
      </g>
     </g>
    </g>
   </g>
  </g>
 </g>
</svg>
