<?xml version="1.0" encoding="UTF-8" standalone="no"?>
<svg xmlns:rdf="http://www.w3.org/1999/02/22-rdf-syntax-ns#" xmlns="http://www.w3.org/2000/svg" version="1.1" xmlns:cc="http://creativecommons.org/ns#" xmlns:xlink="http://www.w3.org/1999/xlink" viewBox="0 0 16 16.012" xmlns:dc="http://purl.org/dc/elements/1.1/">
<defs>
<linearGradient id="e" y2="-2104.9" gradientUnits="userSpaceOnUse" x2="-2596.4" gradientTransform="matrix(.35050 0 0 .34695 1368.3 1368.5)" y1="-2128.6" x1="-2585.9">
<stop stop-color="#dcdcdc" offset="0"/>
<stop stop-color="#fff" offset="1"/>
</linearGradient>
<filter id="g" style="color-interpolation-filters:sRGB" height="1.3315" width="1.3481" y="-.16576" x="-.17407">
<feGaussianBlur stdDeviation="0.82320991"/>
</filter>
<linearGradient id="f" y2="-2125.2" gradientUnits="userSpaceOnUse" x2="-2589.3" gradientTransform="matrix(.31602 0 0 .31283 1279.1 1295.9)" y1="-2130.1" x1="-2584.4">
<stop stop-color="#fff" offset="0"/>
<stop stop-color="#dcdcdc" offset="1"/>
</linearGradient>
<radialGradient id="a" gradientUnits="userSpaceOnUse" cy="866.01" cx="386.21" gradientTransform="matrix(1.1453 1.179 -.80701 .78396 653.16 -270.77)" r="61.352">
<stop stop-color="#fff" stop-opacity=".92035" offset="0"/>
<stop stop-color="#ccc" offset="1"/>
</radialGradient>
<linearGradient id="d" y2="864.59" gradientUnits="userSpaceOnUse" x2="318.68" gradientTransform="matrix(.074862 0 0 .035378 -776.1 471.94)" y1="863.3" x1="348.72">
<stop stop-color="#00f" offset="0"/>
<stop stop-color="#fff" offset="1"/>
</linearGradient>
<linearGradient id="c" y2="791.12" gradientUnits="userSpaceOnUse" x2="343.89" gradientTransform="matrix(.056864 -.055812 .035022 .035960 -241.08 860.4)" y1="791.28" x1="333.49">
<stop stop-color="#3c3c3c" stop-opacity=".99608" offset="0"/>
<stop stop-color="#b3b3b3" stop-opacity="0" offset="1"/>
</linearGradient>
<linearGradient id="b" y2="839.97" gradientUnits="userSpaceOnUse" x2="58.986" gradientTransform="translate(-10.311 -15.418)" y1="835.07" x1="59.003">
<stop stop-color="#fff" stop-opacity=".54615" offset="0"/>
<stop stop-color="#fff" stop-opacity="0" offset="1"/>
</linearGradient>
</defs>
<metadata>
<rdf:RDF>
<cc:Work rdf:about="">
<dc:format>image/svg+xml</dc:format>
<dc:type rdf:resource="http://purl.org/dc/dcmitype/StillImage"/>
<dc:title/>
</cc:Work>
</rdf:RDF>
</metadata>
<g transform="translate(-39.09 -368.47)">
<g transform="translate(-413.29 -259.17)">
<rect style="color:#000000" height="16" width="16" y="627.65" x="452.38" fill="none"/>
<path d="m452.68 628.01h7.3865l3.717 3.8635-0.084 10.608h-11.02v-14.472z" fill-rule="evenodd" stroke="#666" stroke-width="0.505" fill="url(#e)"/>
<path stroke-linejoin="round" d="m-2829.3-1828.3c1.0683 4.7916 0.3837 8.5401-0.06 10.889 2.6346-0.6545 5.7398-1.3853 10.35 0.03-4.9699-5.5487-6.9971-7.2565-10.29-10.919z" fill-rule="evenodd" transform="matrix(.31602 0 0 .31283 1354.2 1200.5)" filter="url(#g)" stroke="#666" stroke-width="1.6061" fill="#d3d3d3"/>
<g transform="matrix(.81407 0 0 -.81407 573.84 1359)">
<path d="m-136.67 894.82v-7.2898c0-0.27565-0.2203-0.48099-0.4916-0.48099h-9.9595c-0.2713 0-0.49161 0.20534-0.49161 0.48099v7.2898h10.943z" stroke="#000" stroke-width=".088094" fill="#fff"/>
<rect transform="scale(-1)" height="1.0284" width="10.824" y="-894.73" x="136.73" fill="#ffee4f"/>
<path d="m-137.52 892.5h-9.1804" stroke="#000" stroke-width=".073412" fill="none"/>
<path d="m-137.52 891.14h-9.1804" stroke="#000" stroke-width=".073412" fill="none"/>
<path d="m-137.52 889.79h-9.1804" stroke="#000" stroke-width=".073412" fill="none"/>
<path d="m-137.52 888.44h-9.1804" stroke="#000" stroke-width=".073412" fill="none"/>
</g>
<path stroke-linejoin="round" d="m460.29 628.24c0.33762 1.499 0.12126 2.6716-0.0189 3.4065 0.83261-0.20477 1.8139-0.43341 3.271 0.009-1.5706-1.7358-2.2113-2.27-3.252-3.4158z" fill-rule="evenodd" stroke="#666" stroke-width="0.505" fill="url(#f)"/>
<g stroke-linejoin="round" transform="matrix(1.0011 -.14964 .14964 1.0011 526.23 -260.5)">
<rect transform="matrix(.72730 -.68632 .70389 .71030 0 0)" stroke-opacity=".90698" rx=".27803" ry=".27803" height="4.4428" width="1.7715" stroke="#7900aa" stroke-linecap="round" y="500.43" x="-751.59" stroke-width=".28577" fill="#fff"/>
<path d="m-195.06 869.88 0.66476 1.3056 1.1909-1.1606-1.2384-0.73736-0.61726 0.59241z" stroke-opacity=".88372" fill-rule="evenodd" stroke="#333" stroke-width=".17005" fill="#fff"/>
<g transform="translate(-.035609 -.059735)">
<path d="m451.11 879.75a60.261 57.727 0 0 1 -60.247 57.727 60.261 57.727 0 0 1 -60.275 -57.699 60.261 57.727 0 0 1 60.218 -57.754 60.261 57.727 0 0 1 60.304 57.672" stroke-opacity=".81395" transform="matrix(.069360 0 0 .072422 -224.82 802.68)" stroke="#1a1a1a" stroke-linecap="round" stroke-width="6.3301" fill="url(#a)"/>
<rect transform="matrix(.72730 -.68632 .70389 .71030 0 0)" stroke-opacity=".90698" rx=".27803" ry=".27803" height="4.4428" width="1.7715" stroke="#000080" stroke-linecap="round" y="500.43" x="-751.59" stroke-width=".28577" fill="url(#d)"/>
<path d="m-195.06 869.88 0.66476 1.3056 1.1909-1.1606-1.2384-0.73736-0.61726 0.59241z" stroke-opacity=".88372" fill-rule="evenodd" stroke="#333" stroke-width=".17005" fill="url(#c)"/>
</g>
</g>
<g transform="matrix(-.80983 0 0 .80983 500.48 -32.971)">
<path stroke-linejoin="round" style="color:#000000" d="m40.589 823.88 7.3292-7.4699 0.03141 4.4322 7.5636-0.13497v6.2282l-7.5636 0.0842v4.3147l-7.3606-7.4542z" fill-rule="evenodd" stroke="#04a" stroke-width="1.3284" fill="#00aad4"/>
<path style="color:#000000" d="m40.589 823.88 7.3292-7.4699 0.03141 4.4322 7.5636-0.13497v6.2282l-7.5636 0.0842v4.3147l-7.3606-7.4542z" fill-rule="evenodd" fill="url(#b)"/>
<rect style="color:#000000" height="16" width="16" y="815.87" x="40.051" fill="none"/>
</g>
</g>
</g>
</svg>
