<?xml version="1.0" encoding="UTF-8" standalone="no"?>
<svg xmlns:rdf="http://www.w3.org/1999/02/22-rdf-syntax-ns#" xmlns="http://www.w3.org/2000/svg" version="1.1" xmlns:cc="http://creativecommons.org/ns#" xmlns:xlink="http://www.w3.org/1999/xlink" viewBox="0 0 16 16" xmlns:dc="http://purl.org/dc/elements/1.1/">
<defs>
<radialGradient id="a" gradientUnits="userSpaceOnUse" cy="498.92" cx="453.11" gradientTransform="matrix(.68894 .47114 -.26406 .38613 -344.02 452.26)" r="8.4836">
<stop stop-color="#fff" offset="0"/>
<stop stop-color="#d4aa00" offset="1"/>
</radialGradient>
<linearGradient id="c" y2="536.1" gradientUnits="userSpaceOnUse" x2="501.47" gradientTransform="matrix(.5 0 0 .5 -416.31 597.42)" y1="543.43" x1="517.95">
<stop stop-color="#786721" offset="0"/>
<stop stop-color="#e9ddaf" offset="1"/>
</linearGradient>
<linearGradient id="b" y2="514.45" gradientUnits="userSpaceOnUse" x2="486.74" y1="506.23" x1="475.91">
<stop stop-color="#786721" offset="0"/>
<stop stop-color="#e9ddaf" offset="1"/>
</linearGradient>
</defs>
<metadata>
<rdf:RDF>
<cc:Work rdf:about="">
<dc:format>image/svg+xml</dc:format>
<dc:type rdf:resource="http://purl.org/dc/dcmitype/StillImage"/>
<dc:title/>
</cc:Work>
</rdf:RDF>
</metadata>
<g transform="translate(-95.692 -99.776)">
<g transform="translate(264.86 -755.9)">
<g transform="matrix(1.0654 0 0 1.0654 10.92 -56.976)">
<path d="m-163.06 862.42-2.4598 0.0324 0.0216-2.7619c0.0577-1.5423 1.7639-2.8003 3.9271-2.7835 2.2472-0.00036 3.9927 1.4267 4.035 2.7619v2.7835h-2.4382v-2.5677c-0.0351-0.54405-0.7471-1.0233-1.5223-1.0035-0.67127-0.001-1.5434 0.15913-1.5848 1.0466l0.0216 2.4922z" fill-rule="evenodd" stroke="#806600" stroke-width=".5px" fill="url(#a)"/>
<rect height="8.951" width="10.572" stroke="#540" stroke-linecap="round" y="862.47" x="-166.81" stroke-width=".5" fill="url(#c)"/>
<path d="m-161.54 864.69c-0.5669 0-1.0156 0.44873-1.0156 1.0156 0 0.43756 0.27049 0.82091 0.65625 0.96875l-0.20312 0.6875-0.54688 1.8438h1.1094 1.125l-0.57813-1.8438-0.20312-0.6875c0.40059-0.14009 0.68749-0.52056 0.6875-0.96875 0-0.5669-0.46435-1.0156-1.0312-1.0156z" stroke="#fc0" stroke-linecap="round" stroke-width=".33419"/>
<circle stroke="url(#b)" cx="481.84" stroke-linecap="round" transform="matrix(.5 0 0 .5 -402.45 611.88)" cy="510.14" r="6.7778" fill="none"/>
</g>
<rect ry=".092563" rx=".082762" transform="scale(-1)" height="16" width="16" y="-871.67" x="153.17" fill="none"/>
</g>
</g>
</svg>
