<?xml version="1.0" encoding="UTF-8" standalone="no"?>
<!-- Created with Inkscape (http://www.inkscape.org/) -->

<svg
   xmlns:dc="http://purl.org/dc/elements/1.1/"
   xmlns:cc="http://creativecommons.org/ns#"
   xmlns:rdf="http://www.w3.org/1999/02/22-rdf-syntax-ns#"
   xmlns:svg="http://www.w3.org/2000/svg"
   xmlns="http://www.w3.org/2000/svg"
   xmlns:xlink="http://www.w3.org/1999/xlink"
   xmlns:sodipodi="http://sodipodi.sourceforge.net/DTD/sodipodi-0.dtd"
   xmlns:inkscape="http://www.inkscape.org/namespaces/inkscape"
   width="16"
   height="16"
   id="svg17730"
   version="1.1"
   inkscape:version="0.91 r13725"
   viewBox="0 0 16 16">
  <defs
     id="defs17732">
    <radialGradient
       inkscape:collect="always"
       xlink:href="#linearGradient22279"
       id="radialGradient22593"
       gradientUnits="userSpaceOnUse"
       gradientTransform="matrix(0.06089925,0.05097151,-0.04844131,0.04727386,26.619566,-36.792511)"
       cx="160.43956"
       cy="718.77441"
       fx="160.43956"
       fy="718.77441"
       r="6.9383259" />
    <linearGradient
       id="linearGradient22279">
      <stop
         id="stop22281"
         offset="0"
         style="stop-color:#ffffff;stop-opacity:1" />
      <stop
         id="stop22283"
         offset="1"
         style="stop-color:#000000;stop-opacity:1" />
    </linearGradient>
    <radialGradient
       inkscape:collect="always"
       xlink:href="#linearGradient22279"
       id="radialGradient22595"
       gradientUnits="userSpaceOnUse"
       gradientTransform="matrix(0.06089797,0.05097277,-0.04374451,0.04258737,23.243853,-26.119765)"
       cx="160.43956"
       cy="718.77441"
       fx="160.43956"
       fy="718.77441"
       r="6.9383259" />
    <radialGradient
       inkscape:collect="always"
       xlink:href="#linearGradient22279"
       id="radialGradient22597"
       gradientUnits="userSpaceOnUse"
       gradientTransform="matrix(0.06089925,0.05097151,-0.04844131,0.04727386,26.649834,-34.383824)"
       cx="160.43956"
       cy="718.77441"
       fx="160.43956"
       fy="718.77441"
       r="6.9383259" />
    <radialGradient
       inkscape:collect="always"
       xlink:href="#linearGradient22279"
       id="radialGradient22599"
       gradientUnits="userSpaceOnUse"
       gradientTransform="matrix(0.06089925,0.05097151,-0.04844131,0.04727386,26.649823,-31.918287)"
       cx="160.43956"
       cy="718.77441"
       fx="160.43956"
       fy="718.77441"
       r="6.9383259" />
    <linearGradient
       inkscape:collect="always"
       xlink:href="#linearGradient22117-5"
       id="linearGradient22603"
       gradientUnits="userSpaceOnUse"
       x1="35.687248"
       y1="22.37974"
       x2="32.888287"
       y2="29.407671" />
    <linearGradient
       id="linearGradient22117-5">
      <stop
         id="stop22119-5"
         offset="0"
         style="stop-color:#fffffd;stop-opacity:0" />
      <stop
         id="stop30873-1"
         offset="0.31645569"
         style="stop-color:#fffaff;stop-opacity:0.84375;" />
      <stop
         id="stop22121-7"
         offset="1"
         style="stop-color:#fffbfb;stop-opacity:0" />
    </linearGradient>
    <linearGradient
       inkscape:collect="always"
       xlink:href="#linearGradient23119-5"
       id="linearGradient22605"
       gradientUnits="userSpaceOnUse"
       gradientTransform="matrix(-0.19237552,-0.01321786,-0.01321786,0.19237552,-174.04194,597.10201)"
       x1="43.548729"
       y1="52.405346"
       x2="48.452065"
       y2="43.595425" />
    <linearGradient
       id="linearGradient23119-5">
      <stop
         id="stop24106-4-2"
         offset="0"
         style="stop-color:#2b2b2b;stop-opacity:0.671875" />
      <stop
         id="stop30885-7"
         offset="0.28481013"
         style="stop-color:#000000;stop-opacity:0.5859375" />
      <stop
         id="stop23123-6"
         offset="1"
         style="stop-color:#333333;stop-opacity:0" />
    </linearGradient>
    <linearGradient
       inkscape:collect="always"
       xlink:href="#linearGradient22117-5"
       id="linearGradient22607"
       gradientUnits="userSpaceOnUse"
       gradientTransform="matrix(-0.19237552,-0.01321786,-0.01321786,0.19237552,-174.04194,597.10201)"
       x1="53.164078"
       y1="39.782925"
       x2="46.986229"
       y2="43.970425" />
    <linearGradient
       inkscape:collect="always"
       xlink:href="#linearGradient32103-2"
       id="linearGradient22609"
       gradientUnits="userSpaceOnUse"
       gradientTransform="matrix(-0.19708381,0.17174227,0.4077196,0.46788092,-179.00195,591.88071)"
       x1="14.068726"
       y1="14.622794"
       x2="14.142981"
       y2="8.8007002" />
    <linearGradient
       id="linearGradient32103-2">
      <stop
         id="stop32105-3"
         offset="0"
         style="stop-color:#000000;stop-opacity:0.5234375" />
      <stop
         id="stop32107-2"
         offset="1"
         style="stop-color:#ffffff;stop-opacity:0.78039217" />
    </linearGradient>
    <filter
       style="color-interpolation-filters:sRGB"
       x="-0.42079461"
       width="1.8415892"
       y="-0.24655832"
       height="1.4931167"
       id="filter5747-2">
      <feGaussianBlur
         inkscape:collect="always"
         stdDeviation="0.56224844"
         id="feGaussianBlur5749-1" />
    </filter>
    <linearGradient
       inkscape:collect="always"
       xlink:href="#linearGradient22117-5"
       id="linearGradient18412"
       gradientUnits="userSpaceOnUse"
       x1="35.687248"
       y1="22.37974"
       x2="32.888287"
       y2="29.407671" />
  </defs>
  <sodipodi:namedview
     id="base"
     pagecolor="#ffffff"
     bordercolor="#666666"
     borderopacity="1.0"
     inkscape:pageopacity="0.0"
     inkscape:pageshadow="2"
     inkscape:zoom="22.197802"
     inkscape:cx="0.70198013"
     inkscape:cy="8"
     inkscape:current-layer="layer1"
     showgrid="true"
     inkscape:grid-bbox="true"
     inkscape:document-units="px"
     inkscape:window-width="1920"
     inkscape:window-height="1018"
     inkscape:window-x="-8"
     inkscape:window-y="-8"
     inkscape:window-maximized="1" />
  <metadata
     id="metadata17735">
    <rdf:RDF>
      <cc:Work
         rdf:about="">
        <dc:format>image/svg+xml</dc:format>
        <dc:type
           rdf:resource="http://purl.org/dc/dcmitype/StillImage" />
        <dc:title></dc:title>
      </cc:Work>
    </rdf:RDF>
  </metadata>
  <g
     id="layer1"
     inkscape:label="Layer 1"
     inkscape:groupmode="layer">
    <g
       id="g18445"
       transform="translate(-1.5692921e-6,-2.1886268e-6)">
      <rect
         transform="matrix(0.95891252,-0.28370192,0,1,0,0)"
         y="3.3712361"
         x="0.20380616"
         height="12.41153"
         width="10.709681"
         id="rect7760-2-7"
         style="display:inline;overflow:visible;visibility:visible;fill:#ffffff;fill-opacity:1;fill-rule:nonzero;stroke:#000000;stroke-width:0.42853665;marker:none;enable-background:accumulate" />
      <ellipse
         ry="0.84485745"
         rx="0.90277112"
         transform="matrix(0.95891251,-0.28370194,0,1,0,0)"
         id="path7732-57-1"
         style="display:inline;overflow:visible;visibility:visible;fill:url(#radialGradient22593);fill-opacity:1;fill-rule:nonzero;stroke:none;stroke-width:0.25;marker:none;enable-background:accumulate"
         cx="1.9943744"
         cy="5.7182279" />
      <rect
         transform="matrix(0.95891252,-0.28370192,0,1,0,0)"
         ry="0.078600384"
         rx="0.053234905"
         y="5.2922549"
         x="3.5673158"
         height="0.85203105"
         width="6.0809693"
         id="rect7742-6-8"
         style="display:inline;overflow:visible;visibility:visible;fill:#000000;fill-opacity:1;fill-rule:nonzero;stroke:none;stroke-width:0.12752812;marker:none;enable-background:accumulate" />
      <rect
         transform="matrix(0.95891252,-0.28370192,0,1,0,0)"
         style="display:inline;overflow:visible;visibility:visible;fill:#000000;fill-opacity:1;fill-rule:nonzero;stroke:none;stroke-width:0.12752812;marker:none;enable-background:accumulate"
         id="rect7839-1-2"
         width="6.0809693"
         height="0.85203105"
         x="3.5673158"
         y="10.16186"
         rx="0.053234905"
         ry="0.078600384" />
      <g
         style="fill:#000000;fill-opacity:1"
         transform="matrix(0.45309899,-0.13405295,0,0.42192817,-52.926848,-250.41702)"
         id="g7881-7-9">
        <rect
           style="display:inline;overflow:visible;visibility:visible;fill:#000000;fill-opacity:1;fill-rule:nonzero;stroke:none;stroke-width:0.12752812;marker:none;enable-background:accumulate"
           id="rect7845-48-5"
           width="12.869411"
           height="2.0193746"
           x="124.36045"
           y="648.9325"
           rx="0.11266328"
           ry="0.18628855" />
      </g>
      <ellipse
         ry="0.84485745"
         rx="0.90277112"
         transform="matrix(0.95891251,-0.28370194,0,1,0,0)"
         id="path7871-6-4"
         style="display:inline;overflow:visible;visibility:visible;fill:url(#radialGradient22595);fill-opacity:1;fill-rule:nonzero;stroke:none;stroke-width:0.25;marker:none;enable-background:accumulate"
         cx="1.9943744"
         cy="13.022658" />
      <rect
         transform="matrix(0.95891252,-0.28370192,0,1,0,0)"
         ry="0.078600384"
         rx="0.053234905"
         y="12.596662"
         x="3.5673158"
         height="0.85203105"
         width="6.0809693"
         id="rect7873-4-3"
         style="display:inline;overflow:visible;visibility:visible;fill:#000000;fill-opacity:1;fill-rule:nonzero;stroke:none;stroke-width:0.12752812;marker:none;enable-background:accumulate" />
      <ellipse
         ry="0.84485745"
         rx="0.90277112"
         transform="matrix(0.95891251,-0.28370194,0,1,0,0)"
         id="path7732-57-1-9"
         style="display:inline;overflow:visible;visibility:visible;fill:url(#radialGradient22597);fill-opacity:1;fill-rule:nonzero;stroke:none;stroke-width:0.25;marker:none;enable-background:accumulate"
         cx="2.024642"
         cy="8.126915" />
      <ellipse
         ry="0.84485745"
         rx="0.90277112"
         transform="matrix(0.95891251,-0.28370194,0,1,0,0)"
         id="path7732-57-1-7"
         style="display:inline;overflow:visible;visibility:visible;fill:url(#radialGradient22599);fill-opacity:1;fill-rule:nonzero;stroke:none;stroke-width:0.25;marker:none;enable-background:accumulate"
         cx="2.0246315"
         cy="10.592452" />
      <g
         transform="matrix(0.97721377,0,0,0.97721377,184.70283,-589.594)"
         id="g22526">
        <path
           id="path22391"
           style="display:inline;fill:#140d0d;fill-opacity:0.71957673;fill-rule:evenodd;stroke:none"
           d="m -173.39977,606.01883 0.60492,0.69418 -5.10914,4.45219 -0.44428,0.38715 -0.0199,0.005 -0.4289,0.0684 -0.44764,-0.51369 5.84497,-5.09341 z"
           inkscape:connector-curvature="0" />
        <path
           id="path22395"
           style="display:inline;fill:#000000;fill-opacity:1;fill-rule:evenodd;stroke:none"
           d="m -174.86117,603.81894 c 0.42041,0.005 1.01761,0.35705 1.51849,0.93183 0.66783,0.76637 0.91158,1.6472 0.54756,1.96441 -0.0856,0.0746 -0.19814,0.10752 -0.32771,0.11037 l 0.0707,-0.0616 c -0.002,-0.004 -0.002,-0.009 -0.005,-0.0124 -0.0123,-0.0141 -0.0314,-0.0219 -0.0525,-0.0278 -0.0657,-0.0183 -0.17741,10e-4 -0.31798,0.0567 -0.38207,-0.11242 -0.84051,-0.42623 -1.238,-0.88236 -0.66783,-0.76637 -0.91158,-1.6472 -0.54756,-1.96442 0.091,-0.0793 0.21203,-0.11626 0.35217,-0.11472 z"
           inkscape:connector-curvature="0" />
        <path
           inkscape:connector-curvature="0"
           d="m -175.13324,603.85357 2.41822,2.78152 -5.55102,4.83726 -2.42464,-2.77592 5.55744,-4.84286 z m 2.10354,2.7901 c -0.31583,-0.0879 -1.58617,0.73227 -2.9593,1.92884 -1.46467,1.27633 -2.49211,2.49738 -2.29512,2.72344 0.003,0.003 0.008,0.004 0.0116,0.007 l 5.30045,-4.61891 c -0.002,-0.004 -0.002,-0.009 -0.005,-0.0124 -0.0123,-0.0141 -0.0314,-0.0219 -0.0525,-0.0278 z"
           style="fill:#000000;fill-opacity:1;fill-rule:evenodd;stroke:none"
           id="path22399" />
        <path
           inkscape:connector-curvature="0"
           d="m -180.21224,608.29545 2.1219,2.435 c -0.24034,0.32649 -0.34945,0.55888 -0.27388,0.6456 0.003,0.003 0.008,0.004 0.0116,0.007 l 0.46942,-0.41471 0.0896,0.1028 -0.55855,0.48107 -1.71013,0.2751 -1.21533,-1.38816 0.50684,-1.66245 0.55854,-0.48108 z"
           style="fill:#000000;fill-opacity:1;fill-rule:evenodd;stroke:none"
           id="path22401" />
        <g
           id="g22403"
           style="display:inline;fill:#000000;fill-opacity:1"
           transform="matrix(-0.22213662,0.19357372,0.18612858,0.2135929,-177.64028,598.91017)">
          <path
             id="path22405"
             style="fill:#000000;fill-opacity:1;fill-rule:evenodd;stroke:none"
             transform="matrix(0.6189723,0,0,0.6968594,27.51182,20.443789)"
             d="m 13.727961,10.978299 0,-7.4451723 5.399396,3.1173426 c 0.43545,0.256508 0.47055,0.9184115 0.04141,1.186579 L 13.72796,10.978299 Z"
             inkscape:connector-curvature="0" />
        </g>
        <path
           id="path22407"
           style="display:inline;fill:#ffffff;fill-opacity:0.52459011;fill-rule:evenodd;stroke:none"
           d="m -175.21452,603.9363 0.60492,0.69418 -5.78944,5.04501 -0.47788,-0.5484 0.10898,-0.35145 0.4651,-0.40529 5.08832,-4.43405 z"
           inkscape:connector-curvature="0" />
        <path
           id="path22409"
           style="display:inline;fill:#000000;fill-opacity:0.41568627;fill-rule:evenodd;stroke:none"
           d="m -173.23697,605.74116 0.60466,0.69388 -5.11373,4.45053 -0.44331,0.38631 -0.0185,0.005 -0.42743,0.0673 -0.44789,-0.51399 5.84615,-5.08878 z"
           inkscape:connector-curvature="0" />
        <path
           id="path22411"
           style="display:inline;fill:#ffffff;fill-opacity:1;fill-rule:evenodd;stroke:none"
           d="m -180.76794,608.77564 c -0.0423,0.24902 0.14576,0.56446 0.62575,0.67603 0.14877,0.8381 0.54305,1.2515 1.20289,1.39441 0.0917,0.57689 0.2404,0.70302 0.58409,0.71232 l -2.21035,0.35064 c -0.0138,-0.1403 -0.1981,-0.37824 -0.3526,-0.55554 -0.15451,-0.17731 -0.38552,-0.3961 -0.50638,-0.43019 l 0.6566,-2.14767 z"
           inkscape:connector-curvature="0" />
        <g
           id="g22504"
           transform="translate(3.1638118,5.4866103)">
          <g
             transform="matrix(-0.22213662,0.19357372,0.18612858,0.2135929,-180.80409,593.42356)"
             style="display:inline;fill:url(#linearGradient22603);fill-opacity:1"
             id="g22415">
            <path
               inkscape:connector-curvature="0"
               d="m 13.727961,10.978299 0,-7.4451723 5.399396,3.1173426 c 0.43545,0.256508 0.47055,0.9184115 0.04141,1.186579 L 13.72796,10.978299 Z"
               transform="matrix(0.6189723,0,0,0.6968594,27.51182,20.443789)"
               style="fill:url(#linearGradient18412);fill-opacity:1;fill-rule:evenodd;stroke:none"
               id="path22417" />
          </g>
          <path
             inkscape:connector-curvature="0"
             d="m -183.93175,603.28903 c -0.0423,0.24902 0.14576,0.56446 0.62575,0.67603 0.14877,0.8381 0.54305,1.2515 1.20289,1.39441 0.0917,0.57689 0.2404,0.70302 0.58409,0.71232 l -2.21035,0.35064 c -0.0138,-0.1403 -0.1981,-0.37824 -0.3526,-0.55554 -0.15451,-0.17731 -0.38552,-0.3961 -0.50638,-0.43019 l 0.6566,-2.14767 z"
             style="display:inline;fill:url(#linearGradient22605);fill-opacity:1;fill-rule:evenodd;stroke:none"
             id="path22419" />
          <path
             inkscape:connector-curvature="0"
             d="m -183.93175,603.28903 c -0.0423,0.24902 0.14576,0.56446 0.62575,0.67603 0.14877,0.8381 0.54305,1.2515 1.20289,1.39441 0.0917,0.57689 0.2404,0.70302 0.58409,0.71232 l -2.21035,0.35064 c -0.0138,-0.1403 -0.1981,-0.37824 -0.3526,-0.55554 -0.15451,-0.17731 -0.38552,-0.3961 -0.50638,-0.43019 l 0.6566,-2.14767 z"
             style="display:inline;opacity:0.75708504;fill:url(#linearGradient22607);fill-opacity:1;fill-rule:evenodd;stroke:none"
             id="path22421" />
          <path
             inkscape:connector-curvature="0"
             d="m -175.95866,601.2264 c 0.36421,-0.31738 0.1178,-1.19626 -0.55037,-1.96302 -0.66817,-0.76677 -1.50509,-1.13107 -1.8693,-0.81369 l 1.20983,1.38836 1.20984,1.38835 z"
             style="display:inline;fill:url(#linearGradient22609);fill-opacity:1;fill-rule:evenodd;stroke:none"
             id="path22423" />
          <path
             transform="matrix(-0.19237552,-0.01321786,-0.01321786,0.19237552,-174.10361,595.88975)"
             inkscape:connector-curvature="0"
             d="m 50.573052,53.210019 c 0.08255,0.0163 0.658062,2.64414 0.658062,2.64414 0.762664,2.886532 0.91389,2.966241 0.172783,2.742697 -0.722998,-0.356627 -1.710039,-1.519172 -2.171114,-2.176804 -0.440445,-0.670863 -1.01934,-1.738935 0.08043,-2.572261 0.384121,-0.35825 0.920329,-0.704826 1.259838,-0.637772 z"
             style="fill:#ffffff;fill-opacity:0.29918033;fill-rule:evenodd;stroke:none;filter:url(#filter5747-2)"
             id="path22425" />
          <path
             inkscape:connector-curvature="0"
             d="m -178.02837,598.3321 c 0.55504,0.0393 1.01641,0.41922 1.3949,0.79649 -0.25098,-0.11909 -0.49272,-0.26574 -0.77987,-0.23228 -0.27452,0.032 -0.21165,0.17454 -0.36085,0.24152 -0.14518,-0.1666 -0.46117,-0.52441 -0.60635,-0.69101 0.0958,-0.0846 0.22682,-0.11683 0.35217,-0.11472 z"
             style="display:inline;fill:#ffffff;fill-opacity:0.18442622;fill-rule:evenodd;stroke:none"
             id="path22427" />
          <g
             id="g22429"
             style="display:inline"
             transform="matrix(-0.19237552,-0.01321786,-0.01321786,0.19237552,-172.79031,597.48397)">
            <path
               id="path22431"
               style="fill:#b9b9b9;fill-opacity:1;fill-rule:evenodd;stroke:#ffffff;stroke-width:0.30036592;stroke-linecap:butt;stroke-linejoin:miter;stroke-miterlimit:4;stroke-dasharray:none;stroke-opacity:1"
               d="m 25.205989,10.353086 26.90778,26.90778 0,0"
               inkscape:connector-curvature="0" />
            <path
               id="path22433"
               style="fill:#ffffff;fill-opacity:1;fill-rule:evenodd;stroke:#ffffff;stroke-width:0.30073184;stroke-linecap:butt;stroke-linejoin:miter;stroke-miterlimit:4;stroke-dasharray:none;stroke-opacity:1"
               d="m 18.441657,17.10706 26.940559,26.940559 0,0"
               inkscape:connector-curvature="0" />
          </g>
        </g>
      </g>
    </g>
  </g>
</svg>
