<?xml version="1.0" encoding="UTF-8" standalone="no"?>
<svg xmlns:rdf="http://www.w3.org/1999/02/22-rdf-syntax-ns#" xmlns="http://www.w3.org/2000/svg" height="4.5233mm" width="4.5156mm" version="1.1" xmlns:cc="http://creativecommons.org/ns#" xmlns:xlink="http://www.w3.org/1999/xlink" viewBox="0 0 15.999999 16.027296" xmlns:dc="http://purl.org/dc/elements/1.1/">
 <defs>
  <linearGradient id="b" y2="563.76" gradientUnits="userSpaceOnUse" x2="285.19" gradientTransform="matrix(1.7686 0 0 1.8459 -306.28 -490.99)" y1="563.58" x1="295.32">
   <stop stop-color="#2a89ea" offset="0"/>
   <stop stop-color="#d4e2f6" offset=".47542"/>
   <stop stop-color="#e5eef9" offset=".86308"/>
   <stop stop-color="#f7fafd" offset="1"/>
  </linearGradient>
  <linearGradient id="a" y2="557.24" gradientUnits="userSpaceOnUse" x2="290.7" y1="558.21" x1="290.75">
   <stop stop-color="#b6c6dd" offset="0"/>
   <stop stop-color="#f7fafd" offset="1"/>
  </linearGradient>
  <linearGradient id="c" y2="335.21" gradientUnits="userSpaceOnUse" x2="34.999" gradientTransform="matrix(.0051170 -.41238 .41196 .0051118 -49.255 837.87)" y1="355.87" x1="55.911">
   <stop stop-color="#fe0000" offset="0"/>
   <stop stop-color="#ff5858" offset="1"/>
  </linearGradient>
 </defs>
 <metadata>
  <rdf:RDF>
   <cc:Work rdf:about="">
    <dc:format>image/svg+xml</dc:format>
    <dc:type rdf:resource="http://purl.org/dc/dcmitype/StillImage"/>
    <dc:title/>
   </cc:Work>
  </rdf:RDF>
 </metadata>
 <g transform="translate(-18.312 -189.64)">
  <g transform="translate(-70.12 -620.18)">
   <g transform="matrix(.5 0 0 .5 -7.2306 527.72)">
    <g fill-rule="evenodd" transform="translate(.0000051953 28.466)" stroke="#000080">
     <path stroke-linejoin="round" d="m192.08 538.38c1.5448 6.8951 11.713 11.923 12.715 15.136l0.0641 13.784 5.4493-5.8882-0.19234-8.2969c0.63957-3.4367 7.9818-5.1312 12.518-14.801" stroke-linecap="round" stroke-width=".90705" fill="url(#b)"/>
     <ellipse rx="8.6451" ry=".79745" transform="matrix(1.7715 0 0 2.4653 -307.3 -837.27)" cy="557.94" cx="290.51" stroke-width=".43432" fill="url(#a)"/>
    </g>
    <rect rx=".16552" ry=".18513" height="32" width="32" y="564.25" x="191.33" fill="none"/>
   </g>
   <path d="m99.289 813.44c0.85847 0.035 1.9987-0.41362 1.6619 1.8638l-3.9908 3.8282 3.7094 4.0565c0.60117 0.79915-0.41977 2.4972-1.7067 1.5762-0.35681-0.25532-3.7835-3.7831-3.8495-3.795l-3.8713 4.0036c-1.9803-0.47858-1.7791-1.3193-1.99-2.0244l3.7821-3.8134c0.12538-0.0146-3.6298-3.7988-3.6683-3.958-0.40364-1.6687 1.2357-2.174 1.9332-1.8018 0.31933 0.17041 3.793 3.8552 3.8433 3.8558l4.1466-3.7915z" fill-rule="evenodd" stroke="#a00" stroke-width=".41220px" fill="url(#c)"/>
  </g>
 </g>
</svg>
