<?xml version="1.0" encoding="UTF-8" standalone="no"?>
<svg xmlns:rdf="http://www.w3.org/1999/02/22-rdf-syntax-ns#" xmlns="http://www.w3.org/2000/svg" height="4.5156mm" width="4.5156mm" version="1.1" xmlns:cc="http://creativecommons.org/ns#" xmlns:xlink="http://www.w3.org/1999/xlink" viewBox="0 0 15.999999 15.999999" xmlns:dc="http://purl.org/dc/elements/1.1/">
 <defs>
  <linearGradient id="e" y2="-2104.9" gradientUnits="userSpaceOnUse" x2="-2596.4" gradientTransform="matrix(.35401 0 0 .35044 736.99 1605)" y1="-2128.6" x1="-2585.9">
   <stop stop-color="#dcdcdc" offset="0"/>
   <stop stop-color="#fff" offset="1"/>
  </linearGradient>
  <filter id="f" style="color-interpolation-filters:sRGB" height="1.3315" width="1.3481" y="-.16576" x="-.17407">
   <feGaussianBlur stdDeviation="0.82320991"/>
  </filter>
  <linearGradient id="d" y2="-2125.2" gradientUnits="userSpaceOnUse" x2="-2589.3" gradientTransform="matrix(.31920 0 0 .31597 646.95 1531.6)" y1="-2130.1" x1="-2584.4">
   <stop stop-color="#fff" offset="0"/>
   <stop stop-color="#dcdcdc" offset="1"/>
  </linearGradient>
  <radialGradient id="a" gradientUnits="userSpaceOnUse" cy="866.01" cx="386.21" gradientTransform="matrix(1.1453 1.179 -.80701 .78396 653.16 -270.77)" r="61.352">
   <stop stop-color="#fff" stop-opacity=".92035" offset="0"/>
   <stop stop-color="#ccc" offset="1"/>
  </radialGradient>
  <linearGradient id="c" y2="864.59" gradientUnits="userSpaceOnUse" x2="318.68" gradientTransform="matrix(.074862 0 0 .035378 -776.1 471.94)" y1="863.3" x1="348.72">
   <stop stop-color="#00f" offset="0"/>
   <stop stop-color="#fff" offset="1"/>
  </linearGradient>
  <linearGradient id="b" y2="791.12" gradientUnits="userSpaceOnUse" x2="343.89" gradientTransform="matrix(.056864 -.055812 .035022 .035960 -241.08 860.4)" y1="791.28" x1="333.49">
   <stop stop-color="#3c3c3c" stop-opacity=".99608" offset="0"/>
   <stop stop-color="#b3b3b3" stop-opacity="0" offset="1"/>
  </linearGradient>
 </defs>
 <metadata>
  <rdf:RDF>
   <cc:Work rdf:about="">
    <dc:format>image/svg+xml</dc:format>
    <dc:type rdf:resource="http://purl.org/dc/dcmitype/StillImage"/>
    <dc:title/>
   </cc:Work>
  </rdf:RDF>
 </metadata>
 <g transform="translate(-19.464 -162.59)">
  <g transform="translate(-193.89 75.914)">
   <g transform="translate(147.81 15.862)">
    <g transform="translate(256.69 -788.29)">
     <rect style="color:#000000" height="16" width="16" y="859.1" x="-191.14" fill="none"/>
     <g transform="matrix(.99006 0 0 .99006 -4.9251 10.904)">
      <path d="m-187.78 857.08h7.4607l3.7543 3.9023-0.0848 10.715h-11.13v-14.617z" fill-rule="evenodd" stroke="#666" stroke-width=".51007" fill="url(#e)"/>
      <path stroke-linejoin="round" d="m-2829.3-1828.3c1.0683 4.7916 0.3837 8.5401-0.06 10.889 2.6346-0.6545 5.7398-1.3853 10.35 0.03-4.9699-5.5487-6.9971-7.2565-10.29-10.919z" fill-rule="evenodd" transform="matrix(.31920 0 0 .31597 722.81 1435.3)" filter="url(#f)" stroke="#666" stroke-width="1.6061" fill="#d3d3d3"/>
      <g transform="matrix(.82225 0 0 -.82225 -65.407 1595.4)">
       <path d="m-136.67 894.82v-7.2898c0-0.27565-0.2203-0.48099-0.4916-0.48099h-9.9595c-0.2713 0-0.49161 0.20534-0.49161 0.48099v7.2898h10.943z" stroke="#000" stroke-width=".088094" fill="#fff"/>
       <rect transform="scale(-1)" height="1.0284" width="10.824" y="-894.73" x="136.73" fill="#ffee4f"/>
       <path d="m-137.52 892.5h-9.1804" stroke="#000" stroke-width=".073412" fill="none"/>
       <path d="m-137.52 891.14h-9.1804" stroke="#000" stroke-width=".073412" fill="none"/>
       <path d="m-137.52 889.79h-9.1804" stroke="#000" stroke-width=".073412" fill="none"/>
       <path d="m-137.52 888.44h-9.1804" stroke="#000" stroke-width=".073412" fill="none"/>
      </g>
      <path stroke-linejoin="round" d="m-180.1 857.31c0.34101 1.514 0.12248 2.6984-0.0191 3.4407 0.84097-0.20683 1.8321-0.43776 3.3038 0.009-1.5864-1.7532-2.2335-2.2928-3.2847-3.4501z" fill-rule="evenodd" stroke="#666" stroke-width=".51007" fill="url(#d)"/>
      <g stroke-linejoin="round" transform="matrix(1.0111 -.15114 .15114 1.0111 -111.91 -40.236)">
       <rect transform="matrix(.72730 -.68632 .70389 .71030 0 0)" stroke-opacity=".90698" rx=".27803" ry=".27803" height="4.4428" width="1.7715" stroke="#7900aa" stroke-linecap="round" y="500.43" x="-751.59" stroke-width=".28577" fill="#fff"/>
       <path d="m-195.06 869.88 0.66476 1.3056 1.1909-1.1606-1.2384-0.73736-0.61726 0.59241z" stroke-opacity=".88372" fill-rule="evenodd" stroke="#333" stroke-width=".17005" fill="#fff"/>
       <g transform="translate(-.035609 -.059735)">
        <path d="m451.11 879.75a60.261 57.727 0 0 1 -60.247 57.727 60.261 57.727 0 0 1 -60.275 -57.699 60.261 57.727 0 0 1 60.218 -57.754 60.261 57.727 0 0 1 60.304 57.672" stroke-opacity=".81395" transform="matrix(.069360 0 0 .072422 -224.82 802.68)" stroke="#1a1a1a" stroke-linecap="round" stroke-width="6.3301" fill="url(#a)"/>
        <rect transform="matrix(.72730 -.68632 .70389 .71030 0 0)" stroke-opacity=".90698" rx=".27803" ry=".27803" height="4.4428" width="1.7715" stroke="#000080" stroke-linecap="round" y="500.43" x="-751.59" stroke-width=".28577" fill="url(#c)"/>
        <path d="m-195.06 869.88 0.66476 1.3056 1.1909-1.1606-1.2384-0.73736-0.61726 0.59241z" stroke-opacity=".88372" fill-rule="evenodd" stroke="#333" stroke-width=".17005" fill="url(#b)"/>
       </g>
      </g>
     </g>
    </g>
    <rect stroke-linejoin="round" height="4.3082" stroke="#000080" stroke-width=".5" fill="#fff" fill-rule="evenodd" rx=".99808" ry=".95008" width="8.8266" y="72.092" x="71.666"/>
    <rect stroke-linejoin="round" height="4.3082" stroke="#000080" stroke-width=".5" fill="#fff" fill-rule="evenodd" rx=".99808" ry=".95008" width="8.8266" y="77.481" x="66.915"/>
   </g>
  </g>
 </g>
</svg>
