<?xml version="1.0" encoding="UTF-8"?>
<svg width="100px" height="100px" viewBox="0 0 100 100" version="1.1" xmlns="http://www.w3.org/2000/svg" xmlns:xlink="http://www.w3.org/1999/xlink">
    <!-- Generator: sketchtool 63.1 (101010) - https://sketch.com -->
    <title>sysadmin/sysadmin_Azure</title>
    <desc>Created with sketchtool.</desc>
    <g id="Icons" stroke="none" stroke-width="1" fill="none" fill-rule="evenodd">
        <g id="sysadmin/sysadmin_Azure" fill="#0089D6" fill-rule="nonzero">
            <g id="Microsoft_Azure_Logo" transform="translate(0.454545, 7.727273)">
                <path d="M46.052197,72.715812 C58.8414765,70.4649307 69.4046908,68.6023267 69.5260113,68.576694 L69.7465961,68.5300872 L57.6722554,54.2212631 C51.0313732,46.3514085 45.5979208,39.8819232 45.5979208,39.8446297 C45.5979208,39.774022 58.0656973,5.56769846 58.135787,5.44591887 C58.1592213,5.40531654 66.6439219,19.9996325 78.7032579,40.8235899 C89.9934291,60.3193519 99.3016278,76.3936776 99.3881446,76.5443066 L99.5454545,76.8181818 L61.1722044,76.8132505 L22.7989614,76.8083393 L46.052197,72.715826 L46.052197,72.715812 Z M0,68.3523101 C0,68.3321639 5.68937077,58.4924637 12.6430459,46.4863014 L25.2860898,24.6569173 L40.020096,12.3379326 C48.1237993,5.56249253 54.7759248,0.0106669533 54.8025945,0.000263451024 C54.8292642,-0.00958142242 54.7226619,0.257728809 54.5657,0.594568287 C54.4087382,0.931407764 47.2091626,16.3165109 38.566643,34.7836851 L22.8529748,68.3603645 L11.4264874,68.3746372 C5.14192075,68.3824952 0,68.3724322 0,68.3523021 L0,68.3523101 Z" id="path21"></path>
            </g>
        </g>
    </g>
</svg>