<?xml version="1.0" encoding="UTF-8"?>
<svg width="100px" height="100px" viewBox="0 0 100 100" version="1.1" xmlns="http://www.w3.org/2000/svg" xmlns:xlink="http://www.w3.org/1999/xlink">
    <!-- Generator: sketchtool 63.1 (101010) - https://sketch.com -->
    <title>outline/outline_text_list_numbers</title>
    <desc>Created with sketchtool.</desc>
    <defs>
        <linearGradient x1="0%" y1="50%" x2="100%" y2="50%" id="linearGradient-1">
            <stop stop-color="#989898" offset="0%"></stop>
            <stop stop-color="#333333" offset="100%"></stop>
        </linearGradient>
        <radialGradient cx="50%" cy="50%" fx="50%" fy="50%" r="107.142857%" gradientTransform="translate(0.500000,0.500000),scale(1.000000,0.466667),rotate(90.000000),translate(-0.500000,-0.500000)" id="radialGradient-2">
            <stop stop-color="#99C4FF" offset="0%"></stop>
            <stop stop-color="#539BFF" offset="87.1067356%"></stop>
            <stop stop-color="#4E94F5" offset="100%"></stop>
        </radialGradient>
        <polygon id="path-3" points="6.34444517 17.9828735 6.34444517 3.66387027 6.12032627 3.66387027 1.71265461 6.70463335 1.71265461 3.20277095 6.35689622 0 10.1046622 0 10.1046622 17.9828735"></polygon>
        <radialGradient cx="50%" cy="50%" fx="50%" fy="50%" r="69.7368421%" gradientTransform="translate(0.500000,0.500000),scale(1.000000,0.716981),rotate(90.000000),translate(-0.500000,-0.500000)" id="radialGradient-4">
            <stop stop-color="#99C4FF" offset="0%"></stop>
            <stop stop-color="#539BFF" offset="87.1067356%"></stop>
            <stop stop-color="#4E94F5" offset="100%"></stop>
        </radialGradient>
        <path d="M0.171265461,31.6139841 C0.171265461,28.1916836 2.80402677,25.8610847 6.64244513,25.8610847 C10.3455346,25.8610847 12.9290855,27.9831563 12.9290855,31.0252012 C12.9290855,32.9510119 11.8833625,34.6069638 8.80770677,37.4895466 L5.41218283,40.7155862 L5.41218283,40.9363798 L13.1874405,40.9363798 L13.1874405,44.0152236 L0.380410051,44.0152236 L0.380410051,41.4270322 L6.405989,35.5466319 C8.71137961,33.2851978 9.29981168,32.387149 9.29981168,31.2705274 C9.29981168,29.8476355 8.14336513,28.841798 6.5194189,28.841798 C4.79705169,28.841798 3.61599988,29.9702986 3.61599988,31.6017178 L3.61599988,31.6753157 L0.171265461,31.6753157 L0.171265461,31.6139841 Z" id="path-5"></path>
        <radialGradient cx="50%" cy="50%" fx="50%" fy="50%" r="68.75%" gradientTransform="translate(0.500000,0.500000),scale(1.000000,0.727273),rotate(90.000000),translate(-0.500000,-0.500000)" id="radialGradient-6">
            <stop stop-color="#99C4FF" offset="0%"></stop>
            <stop stop-color="#539BFF" offset="87.1067356%"></stop>
            <stop stop-color="#4E94F5" offset="100%"></stop>
        </radialGradient>
        <path d="M4.55076798,64.0404123 L4.55076798,61.2461999 L6.70381949,61.2461999 C8.37977436,61.2461999 9.51746636,60.2527022 9.51746636,58.787293 C9.51746636,57.3467213 8.41647411,56.4277359 6.69158624,56.4277359 C4.97893163,56.4277359 3.84123964,57.4088149 3.74337366,58.9611551 L0.330297676,58.9611551 C0.452630148,55.5708441 2.93597934,53.434824 6.78945222,53.434824 C10.4104934,53.434824 13.0161751,55.4466569 13.0161751,58.2657067 C13.0161751,60.3396332 11.7316841,61.954067 9.7621313,62.3638849 L9.7621313,62.5874218 C12.1843143,62.8606337 13.7012369,64.499905 13.7012369,66.8594621 C13.7012369,70.0013987 10.7897241,72.2740247 6.76498573,72.2740247 C2.82588011,72.2740247 0.159032214,70.0634923 0,66.6856 L3.53540845,66.6856 C3.64550768,68.200684 4.90553215,69.1569256 6.80168547,69.1569256 C8.6489058,69.1569256 9.93339676,68.1013343 9.93339676,66.5738315 C9.93339676,65.0090726 8.72230529,64.0404123 6.74051923,64.0404123 L4.55076798,64.0404123 Z" id="path-7"></path>
    </defs>
    <g id="Icons" stroke="none" stroke-width="1" fill="none" fill-rule="evenodd">
        <g id="outline/outline_text_list_numbers">
            <g id="Lists/Numbered" transform="translate(7.183635, 7.183635)">
                <g id="Group" transform="translate(4.966698, 6.679353)">
                    <rect id="Rectangle-Copy-8" fill="url(#linearGradient-1)" x="19.708881" y="5.5661275" width="55.8325404" height="6.85061846"></rect>
                    <rect id="Rectangle-Copy-10" fill="url(#linearGradient-1)" x="19.708881" y="32.5404377" width="55.8325404" height="6.85061846"></rect>
                    <rect id="Rectangle-Copy-12" fill="url(#linearGradient-1)" x="19.708881" y="59.5147479" width="55.8325404" height="6.85061846"></rect>
                    <g id="1" fill-rule="nonzero">
                        <use fill="#6DAAFF" xlink:href="#path-3"></use>
                        <use fill="url(#radialGradient-2)" xlink:href="#path-3"></use>
                    </g>
                    <g id="2" fill-rule="nonzero">
                        <use fill="#6DAAFF" xlink:href="#path-5"></use>
                        <use fill="url(#radialGradient-4)" xlink:href="#path-5"></use>
                    </g>
                    <g id="3" fill-rule="nonzero">
                        <use fill="#6DAAFF" xlink:href="#path-7"></use>
                        <use fill="url(#radialGradient-6)" xlink:href="#path-7"></use>
                    </g>
                </g>
            </g>
        </g>
    </g>
</svg>