<?xml version="1.0" encoding="UTF-8" standalone="no"?>
<!-- Created with Inkscape (http://www.inkscape.org/) -->
<svg xmlns:inkscape="http://www.inkscape.org/namespaces/inkscape" xmlns:sodipodi="http://sodipodi.sourceforge.net/DTD/sodipodi-0.dtd" xmlns:xlink="http://www.w3.org/1999/xlink" xmlns="http://www.w3.org/2000/svg" xmlns:svg="http://www.w3.org/2000/svg" xmlns:rdf="http://www.w3.org/1999/02/22-rdf-syntax-ns#" xmlns:cc="http://creativecommons.org/ns#" xmlns:dc="http://purl.org/dc/elements/1.1/" viewBox="0 0 24 24" version="1.1" id="svg10437" inkscape:version="1.1.2 (b8e25be833, 2022-02-05)" sodipodi:docname="edit12.svg">
  <defs id="defs10431">
    <inkscape:path-effect effect="offset" id="path-effect1038" is_visible="true" lpeversion="1" linejoin_type="miter" unit="mm" offset="0.019474025" miter_limit="4" attempt_force_join="false" update_on_knot_move="true"/>
    <linearGradient id="d" y2="446.77" xlink:href="#e" gradientUnits="userSpaceOnUse" x2="215.36" gradientTransform="matrix(0.99094,0,0,1.0073,134.73,-154.36)" y1="440.75" x1="209.71"/>
    <linearGradient id="e">
      <stop stop-color="#f70000" offset="0" id="stop845"/>
      <stop stop-color="#780000" offset="1" id="stop847"/>
    </linearGradient>
    <linearGradient id="c" y2="449.6" xlink:href="#f" gradientUnits="userSpaceOnUse" x2="194.27" gradientTransform="matrix(0.99094,0,0,1.0073,134.73,-154.36)" y1="456.24" x1="202.53"/>
    <linearGradient id="f">
      <stop stop-color="#baa492" offset="0" id="stop851"/>
      <stop stop-color="#fff" offset="1" id="stop853"/>
    </linearGradient>
    <linearGradient id="b" y2="449.64" xlink:href="#h" gradientUnits="userSpaceOnUse" x2="193.04" gradientTransform="matrix(0.99094,0,0,1.0073,134.73,-154.36)" y1="457.89" x1="203.5"/>
    <linearGradient id="h">
      <stop offset="0" id="stop857"/>
      <stop stop-color="#7e7e7e" offset="1" id="stop859"/>
    </linearGradient>
    <linearGradient id="a" y2="462.65" xlink:href="#g" gradientUnits="userSpaceOnUse" x2="196.75" gradientTransform="matrix(0.99094,0,0,1.0073,134.73,-154.36)" y1="458.87" x1="193.01"/>
    <linearGradient id="g">
      <stop stop-color="#c00000" offset="0" id="stop863"/>
      <stop offset="1" id="stop865"/>
    </linearGradient>
  </defs>
  <sodipodi:namedview id="base" pagecolor="#ffffff" bordercolor="#666666" borderopacity="1.0" inkscape:pageopacity="0.0" inkscape:pageshadow="2" inkscape:zoom="7.0096339" inkscape:cx="-38.161765" inkscape:cy="-5.4211105" inkscape:document-units="px" inkscape:current-layer="layer1" inkscape:pagecheckerboard="0" showgrid="true" units="px" showguides="true" inkscape:guide-bbox="true" inkscape:snap-global="true" inkscape:snap-bbox="true" inkscape:snap-page="true" inkscape:window-width="1920" inkscape:window-height="1017" inkscape:window-x="-8" inkscape:window-y="-8" inkscape:window-maximized="1">
    <sodipodi:guide position="0,22" orientation="0,1" id="guide10894" inkscape:label="" inkscape:locked="false" inkscape:color="rgb(0,0,255)"/>
    <sodipodi:guide position="22,24" orientation="-1,0" id="guide10978" inkscape:label="" inkscape:locked="false" inkscape:color="rgb(0,0,255)"/>
    <sodipodi:guide position="11.065513,2" orientation="0,1" id="guide10982" inkscape:label="" inkscape:locked="false" inkscape:color="rgb(0,0,255)"/>
    <sodipodi:guide position="2,22" orientation="-1,0" id="guide10986" inkscape:label="" inkscape:locked="false" inkscape:color="rgb(0,0,255)"/>
    <inkscape:grid type="xygrid" id="grid826"/>
  </sodipodi:namedview>
  <metadata id="metadata10434">
    <rdf:RDF>
      <cc:Work rdf:about="">
        <dc:format>image/svg+xml</dc:format>
        <dc:type rdf:resource="http://purl.org/dc/dcmitype/StillImage"/>
      </cc:Work>
    </rdf:RDF>
  </metadata>
  <g inkscape:label="Layer 1" inkscape:groupmode="layer" id="layer1">
    <rect width="24" height="24" style="fill:none" id="rect828" x="0" y="0"/>
    <path id="rect830" style="fill:#0071bc;stroke-width:0.999999" d="M 18 2.0332031 L 18 2 L 2 2 L 2 6 L 14.046875 6 L 18 2.0332031 z "/>
    <path id="rect832" style="fill:#999999;stroke-width:0.999996" d="M 13.050781 7 L 2 7 L 2 11 L 10.253906 11 A 1.9281809 1.9281809 0 0 1 10.207031 10.636719 A 1.9281809 1.9281809 0 0 1 10.273438 10.136719 A 1.9281809 1.9281809 0 0 1 10.466797 9.671875 A 1.9281809 1.9281809 0 0 1 10.773438 9.2714844 L 12.439453 7.6132812 L 13.050781 7 z "/>
    <path id="rect834" style="fill:#999999;stroke-width:0.999999" d="M 12.974609 16 L 18 16 L 18 12 L 17.736328 12 L 17.150391 12.585938 L 15.621094 14.119141 A 1.9281809 1.9281809 0 0 1 15.222656 14.425781 A 1.9281809 1.9281809 0 0 1 14.757812 14.619141 A 1.9281809 1.9281809 0 0 1 14.664062 14.638672 A 1.8201131 1.8201131 0 0 1 14.640625 14.71875 A 1.8201131 1.8201131 0 0 1 14.546875 14.927734 A 1.8201131 1.8201131 0 0 1 14.427734 15.125 A 1.8201131 1.8201131 0 0 1 14.285156 15.304688 A 1.8201131 1.8201131 0 0 1 14.121094 15.466797 A 1.8201131 1.8201131 0 0 1 13.939453 15.605469 A 1.8201131 1.8201131 0 0 1 13.740234 15.720703 A 1.8201131 1.8201131 0 0 1 13.527344 15.808594 L 12.974609 16 z "/>
    <path id="path2083" style="fill:#999999;stroke-width:0.999999" d="M 8.8652344 12 L 2 12 L 2 16 L 9.1425781 16 C 9.0812952 15.947195 9.0212557 15.892078 8.9648438 15.833984 C 8.9036182 15.770934 8.8459028 15.703355 8.7910156 15.634766 C 8.7361284 15.566176 8.6846423 15.495284 8.6367188 15.421875 C 8.5887952 15.348466 8.5442409 15.27282 8.5039062 15.195312 C 8.4635716 15.117805 8.4266518 15.037919 8.3945312 14.957031 C 8.3624107 14.876144 8.3357811 14.794485 8.3125 14.710938 C 8.2892189 14.62739 8.2696759 14.542519 8.2558594 14.457031 C 8.2420429 14.371543 8.2322422 14.285928 8.2285156 14.199219 C 8.2247891 14.11251 8.2273864 14.02471 8.234375 13.9375 C 8.2378693 13.893895 8.2417565 13.850236 8.2480469 13.806641 C 8.2543372 13.763045 8.2623198 13.719277 8.2714844 13.675781 A 1.8201131 1.8201131 0 0 1 8.34375 13.425781 L 8.8652344 12 z "/>
    <rect x="2" y="17" width="16" height="4" style="fill:#999999;stroke-width:0.999999" id="rect836"/>
    <path d="m 10.81239,11.970831 2.12,2.12 -2.08,0.72 a 0.47,0.47 0 0 1 -0.17,0 0.63,0.63 0 0 1 -0.63,-0.76 z" style="fill:#0071bc" id="path10011"/>
    <g id="g1857" transform="rotate(-0.33709486,-265.70751,4487.5803)">
      <g id="g1855" transform="rotate(-44.598787,42.143649,13.003575)">
        <path id="path1853" style="fill:#0071bc" transform="rotate(44.881979,24.528864,46.494645)" d="m 17.449219,1.9492188 -6.080078,6.0898437 -1.6699222,1.6601563 2.1210932,2.1210932 1.529297,-1.53125 6.220703,-6.2187495 z"/>
      </g>
    </g>
    <g id="g1865" transform="rotate(-0.33709486,-265.70751,4487.5803)">
      <g id="g1863" transform="rotate(-44.598787,42.143649,13.003575)">
        <path id="path1861" style="fill:#0071bc" transform="rotate(44.881979,24.528864,46.494645)" d="m 17.449219,1.9492188 -6.080078,6.0898437 -1.6699222,1.6601563 2.1210932,2.1210932 1.529297,-1.53125 6.220703,-6.2187495 z"/>
      </g>
    </g>
    <g id="g1873" transform="rotate(-0.33709486,-265.70751,4487.5803)">
      <g id="g1871" transform="rotate(-44.598787,42.143649,13.003575)">
        <path id="path1869" style="fill:#0071bc" transform="rotate(44.881979,24.528864,46.494645)" d="m 17.449219,1.9492188 -6.080078,6.0898437 -1.6699222,1.6601563 2.1210932,2.1210932 1.529297,-1.53125 6.220703,-6.2187495 z"/>
      </g>
    </g>
  </g>
</svg>
