<?xml version="1.0" encoding="UTF-8" standalone="no"?>
<svg
   xmlns:dc="http://purl.org/dc/elements/1.1/"
   xmlns:cc="http://creativecommons.org/ns#"
   xmlns:rdf="http://www.w3.org/1999/02/22-rdf-syntax-ns#"
   xmlns:svg="http://www.w3.org/2000/svg"
   xmlns="http://www.w3.org/2000/svg"
   xmlns:xlink="http://www.w3.org/1999/xlink"
   xmlns:sodipodi="http://sodipodi.sourceforge.net/DTD/sodipodi-0.dtd"
   xmlns:inkscape="http://www.inkscape.org/namespaces/inkscape"
   version="1.1"
   viewBox="0 0 32 32"
   id="svg2"
   inkscape:version="0.92.1 r15371"
   sodipodi:docname="AssignAttributesAction.svg"
   inkscape:export-filename="F:\Freeplane\freeplane\resources\images\AssignAttributesAction.png"
   inkscape:export-xdpi="90"
   inkscape:export-ydpi="90"
   width="32"
   height="32">
  <sodipodi:namedview
     pagecolor="#ffffff"
     bordercolor="#666666"
     borderopacity="1"
     objecttolerance="10"
     gridtolerance="10"
     guidetolerance="10"
     inkscape:pageopacity="0"
     inkscape:pageshadow="2"
     inkscape:window-width="1920"
     inkscape:window-height="1018"
     id="namedview58"
     showgrid="false"
     inkscape:zoom="10.302632"
     inkscape:cx="-1.1953994"
     inkscape:cy="25.845699"
     inkscape:window-x="-8"
     inkscape:window-y="-8"
     inkscape:window-maximized="1"
     inkscape:current-layer="svg2"
     fit-margin-top="0"
     fit-margin-left="0"
     fit-margin-right="0"
     fit-margin-bottom="0" />
  <defs
     id="defs4">
    <linearGradient
       id="b"
       y2="124.52"
       gradientUnits="userSpaceOnUse"
       x2="219.96001"
       y1="238.03"
       x1="268.63">
      <stop
         stop-color="#fff"
         offset="0"
         id="stop7" />
      <stop
         stop-color="#fff"
         stop-opacity=".99225"
         offset="1"
         id="stop9" />
    </linearGradient>
    <linearGradient
       x1="-2585.8999"
       y1="-2128.6001"
       gradientTransform="matrix(0.3505,0,0,0.34695,931.94607,742.71776)"
       x2="-2596.3999"
       gradientUnits="userSpaceOnUse"
       y2="-2104.8999"
       id="l">
      <stop
         id="stop4405"
         offset="0"
         stop-color="#dcdcdc" />
      <stop
         id="stop4407"
         offset="1"
         stop-color="#fff" />
    </linearGradient>
    <filter
       x="-0.17407"
       y="-0.16576"
       width="1.3480999"
       height="1.3315001"
       style="color-interpolation-filters:sRGB"
       id="n">
      <feGaussianBlur
         id="feGaussianBlur4410"
         stdDeviation="0.82320991" />
    </filter>
    <linearGradient
       x1="-2584.3999"
       y1="-2130.1001"
       gradientTransform="matrix(0.31602,0,0,0.31283,842.79607,670.09776)"
       x2="-2589.3"
       gradientUnits="userSpaceOnUse"
       y2="-2125.2"
       id="m">
      <stop
         id="stop4413"
         offset="0"
         stop-color="#fff" />
      <stop
         id="stop4415"
         offset="1"
         stop-color="#dcdcdc" />
    </linearGradient>
    <radialGradient
       r="61.352001"
       gradientTransform="matrix(0.07147531,0.09840437,-0.06510107,0.0517216,35.734712,-78.428968)"
       cx="386.20999"
       cy="866.01001"
       gradientUnits="userSpaceOnUse"
       id="e">
      <stop
         id="stop4418"
         offset="0"
         stop-opacity=".92035"
         stop-color="#fff" />
      <stop
         id="stop4420"
         offset="1"
         stop-color="#ccc" />
    </radialGradient>
    <linearGradient
       x1="348.72"
       y1="863.29999"
       gradientTransform="matrix(0.07807109,0,0,0.03689429,-25.02483,-15.360776)"
       x2="318.67999"
       gradientUnits="userSpaceOnUse"
       y2="864.59003"
       id="k">
      <stop
         id="stop4423"
         offset="0"
         stop-color="#00f" />
      <stop
         id="stop4425"
         offset="1"
         stop-color="#fff" />
    </linearGradient>
    <linearGradient
       x1="333.48999"
       y1="791.28003"
       gradientTransform="matrix(0.06590072,-0.05061156,0.03172371,0.04164032,-37.742496,-6.1339926)"
       x2="343.89001"
       gradientUnits="userSpaceOnUse"
       y2="791.12"
       id="j">
      <stop
         id="stop4428"
         offset="0"
         stop-opacity=".99608"
         stop-color="#3c3c3c" />
      <stop
         id="stop4430"
         offset="1"
         stop-opacity="0"
         stop-color="#b3b3b3" />
    </linearGradient>
    <linearGradient
       x1="209.71001"
       y1="440.75"
       gradientTransform="matrix(0.99094,0,0,1.0073,134.73,-154.36)"
       x2="215.36"
       gradientUnits="userSpaceOnUse"
       xlink:href="#f"
       y2="446.76999"
       id="d" />
    <linearGradient
       id="f">
      <stop
         id="stop4434"
         offset="0"
         stop-color="#f70000" />
      <stop
         id="stop4436"
         offset="1"
         stop-color="#780000" />
    </linearGradient>
    <linearGradient
       x1="202.53"
       y1="456.23999"
       gradientTransform="matrix(0.99094,0,0,1.0073,134.73,-154.36)"
       x2="194.27"
       gradientUnits="userSpaceOnUse"
       xlink:href="#g"
       y2="449.60001"
       id="c" />
    <linearGradient
       id="g">
      <stop
         id="stop4440"
         offset="0"
         stop-color="#baa492" />
      <stop
         id="stop4442"
         offset="1"
         stop-color="#fff" />
    </linearGradient>
    <linearGradient
       x1="203.5"
       y1="457.89001"
       gradientTransform="matrix(0.99094,0,0,1.0073,134.73,-154.36)"
       x2="193.03999"
       gradientUnits="userSpaceOnUse"
       xlink:href="#i"
       y2="449.64001"
       id="b-1" />
    <linearGradient
       id="i">
      <stop
         id="stop4446"
         offset="0" />
      <stop
         id="stop4448"
         offset="1"
         stop-color="#7e7e7e" />
    </linearGradient>
    <linearGradient
       x1="193.00999"
       y1="458.87"
       gradientTransform="matrix(0.99094,0,0,1.0073,134.73,-154.36)"
       x2="196.75"
       gradientUnits="userSpaceOnUse"
       xlink:href="#h"
       y2="462.64999"
       id="a-0" />
    <linearGradient
       id="h">
      <stop
         id="stop4452"
         offset="0"
         stop-color="#c00000" />
      <stop
         id="stop4454"
         offset="1" />
    </linearGradient>
    <pattern
       y="0"
       x="0"
       height="6"
       width="6"
       patternUnits="userSpaceOnUse"
       id="EMFhbasepattern" />
  </defs>
  <metadata
     id="metadata11">
    <rdf:RDF>
      <cc:Work
         rdf:about="">
        <dc:format>image/svg+xml</dc:format>
        <dc:type
           rdf:resource="http://purl.org/dc/dcmitype/StillImage" />
        <dc:title></dc:title>
      </cc:Work>
    </rdf:RDF>
  </metadata>
  <g
     id="g4780">
    <rect
       y="0"
       x="0"
       height="32"
       width="32"
       id="rect4667"
       style="fill:none;fill-opacity:1;stroke:none;stroke-width:0.34995812;stroke-linecap:butt;stroke-linejoin:round;stroke-miterlimit:4;stroke-dasharray:none;stroke-dashoffset:0;stroke-opacity:1" />
    <g
       transform="matrix(2.0000836,0,0,1.9818197,-0.00867438,-0.01214266)"
       id="g4533">
      <path
         inkscape:connector-curvature="0"
         style="color:#000000;opacity:0.93720003;fill:#ffffff;fill-rule:evenodd;stroke:#000000;stroke-width:0.5000034"
         d="M 0.82313555,0.25612867 H 15.185604 V 15.902902 H 0.82313555 Z"
         id="rect12" />
      <path
         inkscape:connector-curvature="0"
         style="color:#000000;opacity:0.93720003;fill:#b1b1b1;fill-rule:evenodd;stroke:#000000;stroke-width:0.11799508;stroke-linecap:round;stroke-linejoin:round"
         d="M 8.0043695,3.581619 H 0.85773145 V 0.27250386 H 8.0043695 m 0,3.30911514 H 15.151008 V 0.27250386 H 8.0043695 L 7.9798625,3.5867026"
         id="path14" />
      <path
         inkscape:connector-curvature="0"
         style="color:#000000;opacity:0.93720003;fill:none;stroke:#000000;stroke-width:0.24999818;stroke-linecap:round;stroke-linejoin:round"
         d="M 8.0043695,7.013022 H 0.85773145 V 3.7039069 H 8.0043695 m 0,3.3091151 H 15.151008 V 3.7039069 H 8.0043695 l -0.024507,3.3141987"
         id="path16" />
      <path
         inkscape:connector-curvature="0"
         style="color:#000000;opacity:0.93720003;fill:none;stroke:#000000;stroke-width:0.24999818;stroke-linecap:round;stroke-linejoin:round"
         d="M 8.0043695,10.444425 H 0.85773145 V 7.1353099 H 8.0043695 m 0,3.3091151 H 15.151008 V 7.1353099 H 8.0043695 l -0.024507,3.3141991"
         id="path18" />
      <path
         inkscape:connector-curvature="0"
         style="color:#000000;opacity:0.93720003;fill:none;stroke:#000000;stroke-width:0.24999818;stroke-linecap:round;stroke-linejoin:round"
         d="M 8.0043695,13.875828 H 0.85773145 V 10.566713 H 8.0043695 m 0,3.309115 H 15.151008 V 10.566713 H 8.0043695 l -0.024507,3.314199"
         id="path20" />
      <path
         inkscape:connector-curvature="0"
         style="color:#000000;opacity:0.93720003;fill:#cccccc;stroke:#000000;stroke-width:0.03117987;stroke-linecap:round;stroke-linejoin:round"
         d="m 1.0511891,14.850177 v -0.873031 h 6.9530392 6.9530397 v 0.873031 0.873031 H 8.0042283 1.0511891 Z"
         id="path22" />
      <rect
         id="rect40"
         x="0.0040026247"
         y="0.080026858"
         width="16"
         height="16"
         style="color:#000000;fill:none" />
      <g
         aria-label="AAA"
         style="font-style:normal;font-weight:normal;font-size:1.93536687px;line-height:125%;font-family:sans-serif;letter-spacing:0.77414674px;fill:#0000ff;stroke-width:0.77414674"
         id="text4219">
        <path
           inkscape:connector-curvature="0"
           d="M 2.908486,6.2261734 H 2.7090903 L 2.5711198,5.833997 H 1.9625376 L 1.8245672,6.2261734 H 1.6346215 l 0.5121918,-1.40711 H 2.3962942 Z M 2.5134746,5.6733464 2.2668287,4.982549 2.0192378,5.6733464 Z"
           style="stroke-width:0.77414674"
           id="path4497" />
        <path
           inkscape:connector-curvature="0"
           d="M 5.0056375,6.2261734 H 4.8062418 L 4.6682713,5.833997 H 4.0596892 L 3.9217187,6.2261734 H 3.731773 l 0.5121918,-1.40711 H 4.4934457 Z M 4.6106261,5.6733464 4.3639802,4.982549 4.1163894,5.6733464 Z"
           style="stroke-width:0.77414674"
           id="path4499" />
        <path
           inkscape:connector-curvature="0"
           d="M 7.102789,6.2261734 H 6.9033933 L 6.7654228,5.833997 H 6.1568407 L 6.0188702,6.2261734 H 5.8289245 l 0.5121918,-1.40711 H 6.5905972 Z M 6.7077776,5.6733464 6.4611318,4.982549 6.2135409,5.6733464 Z"
           style="stroke-width:0.77414674"
           id="path4501" />
      </g>
      <g
         aria-label="BBB"
         style="font-style:normal;font-weight:normal;font-size:1.89617288px;line-height:125%;font-family:sans-serif;letter-spacing:0.75846916px;fill:#008000;stroke-width:0.75846916"
         id="text4223">
        <path
           inkscape:connector-curvature="0"
           d="m 10.041582,5.787879 q 0,0.1027711 -0.03889,0.1814697 -0.038887,0.078699 -0.1046231,0.1296212 -0.077773,0.061107 -0.1712851,0.087031 -0.092587,0.025924 -0.2360958,0.025924 H 9.001835 v -1.378614 h 0.4083067 q 0.1509161,0 0.2259112,0.01111 0.074995,0.01111 0.1435092,0.046293 0.075921,0.039812 0.110178,0.1027711 0.034257,0.062033 0.034257,0.1490644 0,0.098142 -0.049997,0.1675816 -0.049997,0.068514 -0.1333246,0.1101781 v 0.00741 q 0.1398057,0.028702 0.220356,0.1231401 0.08055,0.093513 0.08055,0.2370216 z M 9.7332688,5.1666232 q 0,-0.049997 -0.016666,-0.084254 -0.016666,-0.034257 -0.0537,-0.055552 -0.043516,-0.024998 -0.1055487,-0.030554 -0.062033,-0.00648 -0.1536937,-0.00648 H 9.1851564 V 5.3879051 H 9.422178 q 0.086105,0 0.1370281,-0.00833 0.050923,-0.00926 0.094438,-0.037035 0.043516,-0.027776 0.061107,-0.071292 0.018517,-0.044442 0.018517,-0.1046228 z m 0.117585,0.6286628 q 0,-0.083328 -0.024998,-0.1323988 Q 9.800857,5.6138163 9.7351206,5.5795593 9.690679,5.5564126 9.6267943,5.5499316 9.5638354,5.5425246 9.4731006,5.5425246 H 9.1851564 v 0.5129296 h 0.2425768 q 0.1203625,0 0.1972094,-0.012036 0.076847,-0.012962 0.1259177,-0.046293 0.051849,-0.036109 0.075921,-0.082402 0.024072,-0.046293 0.024072,-0.1194372 z"
           style="stroke-width:0.75846916"
           id="path4504" />
        <path
           inkscape:connector-curvature="0"
           d="m 12.099967,5.787879 q 0,0.1027711 -0.03889,0.1814697 -0.03889,0.078699 -0.104622,0.1296212 -0.07777,0.061107 -0.171286,0.087031 -0.09259,0.025924 -0.236095,0.025924 H 11.06022 v -1.378614 h 0.408306 q 0.150916,0 0.225912,0.01111 0.07499,0.01111 0.143509,0.046293 0.07592,0.039812 0.110178,0.1027711 0.03426,0.062033 0.03426,0.1490644 0,0.098142 -0.05,0.1675816 -0.05,0.068514 -0.133325,0.1101781 v 0.00741 q 0.139806,0.028702 0.220356,0.1231401 0.08055,0.093513 0.08055,0.2370216 z M 11.791653,5.1666232 q 0,-0.049997 -0.01666,-0.084254 -0.01667,-0.034257 -0.0537,-0.055552 -0.04352,-0.024998 -0.105549,-0.030554 -0.06203,-0.00648 -0.153694,-0.00648 h -0.218504 v 0.3981223 h 0.237022 q 0.0861,0 0.137028,-0.00833 0.05092,-0.00926 0.09444,-0.037035 0.04352,-0.027776 0.06111,-0.071292 0.01852,-0.044442 0.01852,-0.1046228 z m 0.117585,0.6286628 q 0,-0.083328 -0.025,-0.1323988 -0.025,-0.049071 -0.09074,-0.083328 -0.04444,-0.023147 -0.108326,-0.029628 -0.06296,-0.00741 -0.153694,-0.00741 h -0.287944 v 0.5129296 h 0.242577 q 0.120362,0 0.197209,-0.012036 0.07685,-0.012962 0.125918,-0.046293 0.05185,-0.036109 0.07592,-0.082402 0.02407,-0.046293 0.02407,-0.1194366 z"
           style="stroke-width:0.75846916"
           id="path4506" />
        <path
           inkscape:connector-curvature="0"
           d="m 14.158351,5.787879 q 0,0.1027711 -0.03889,0.1814697 -0.03889,0.078699 -0.104623,0.1296212 -0.07777,0.061107 -0.171285,0.087031 -0.09259,0.025924 -0.236096,0.025924 H 13.1186 v -1.378614 h 0.408307 q 0.150916,0 0.225911,0.01111 0.07499,0.01111 0.143509,0.046293 0.07592,0.039812 0.110178,0.1027711 0.03426,0.062033 0.03426,0.1490644 0,0.098142 -0.05,0.1675816 -0.05,0.068514 -0.133325,0.1101781 v 0.00741 q 0.139806,0.028702 0.220356,0.1231401 0.08055,0.093513 0.08055,0.2370216 z M 13.850038,5.1666232 q 0,-0.049997 -0.01666,-0.084254 -0.01667,-0.034257 -0.0537,-0.055552 -0.04351,-0.024998 -0.105548,-0.030554 -0.06203,-0.00648 -0.153694,-0.00648 h -0.218504 v 0.3981223 h 0.237021 q 0.08611,0 0.137028,-0.00833 0.05092,-0.00926 0.09444,-0.037035 0.04351,-0.027776 0.06111,-0.071292 0.01852,-0.044442 0.01852,-0.1046228 z m 0.117585,0.6286628 q 0,-0.083328 -0.025,-0.1323988 -0.025,-0.049071 -0.09074,-0.083328 -0.04444,-0.023147 -0.108326,-0.029628 -0.06296,-0.00741 -0.153694,-0.00741 h -0.287944 v 0.5129296 h 0.242576 q 0.120363,0 0.19721,-0.012036 0.07685,-0.012962 0.125918,-0.046293 0.05185,-0.036109 0.07592,-0.082402 0.02407,-0.046293 0.02407,-0.1194366 z"
           style="stroke-width:0.75846916"
           id="path4508" />
      </g>
      <g
         aria-label="CCC"
         style="font-style:normal;font-weight:normal;font-size:1.91385388px;line-height:125%;font-family:sans-serif;letter-spacing:0.76554155px;fill:#ff0000;stroke-width:0.76554155"
         id="text4219-4">
        <path
           inkscape:connector-curvature="0"
           d="m 2.8523301,9.3549447 q -0.051397,0.022428 -0.09345,0.042052 -0.041118,0.019625 -0.1084018,0.041118 -0.057004,0.017756 -0.1242884,0.029904 -0.066349,0.013083 -0.1467163,0.013083 -0.1513889,0 -0.2756772,-0.042052 Q 1.9804426,9.3960627 1.8888617,9.3054163 1.7991498,9.2166389 1.7486869,9.080202 1.6982239,8.9428307 1.6982239,8.7615379 q 0,-0.1719478 0.048594,-0.3074502 0.048594,-0.1355023 0.1401748,-0.2289522 0.088777,-0.090646 0.2140003,-0.1383059 0.1261573,-0.047659 0.2794152,-0.047659 0.1121398,0 0.2233452,0.027101 0.1121399,0.0271 0.2485767,0.095319 V 8.3811968 H 2.8383127 Q 2.7233693,8.2849434 2.6102949,8.241022 2.4972205,8.1971005 2.3682597,8.1971005 q -0.1055984,0 -0.1906378,0.034577 -0.084105,0.033642 -0.1504543,0.1055984 -0.06448,0.070087 -0.1009259,0.1775548 -0.035511,0.1065329 -0.035511,0.2467077 0,0.1467163 0.039249,0.2523147 0.040183,0.1055984 0.1027948,0.1719478 0.065415,0.069153 0.1523234,0.1027949 0.087843,0.032707 0.1850308,0.032707 0.1336333,0 0.2504457,-0.04579 0.1168124,-0.04579 0.2186728,-0.1373713 h 0.013083 z"
           style="stroke-width:0.76554155"
           id="path4502" />
        <path
           inkscape:connector-curvature="0"
           d="m 4.9560742,9.3549447 q -0.051398,0.022428 -0.09345,0.042052 -0.041118,0.019625 -0.1084019,0.041118 -0.057004,0.017756 -0.1242884,0.029904 -0.066349,0.013083 -0.1467163,0.013083 -0.1513888,0 -0.2756772,-0.042052 Q 4.0841866,9.3960627 3.9926057,9.3054163 3.9028938,9.2166389 3.8524309,9.080202 3.8019679,8.9428307 3.8019679,8.7615379 q 0,-0.1719478 0.048594,-0.3074502 0.048594,-0.1355023 0.1401748,-0.2289522 0.088777,-0.090646 0.2140003,-0.1383059 0.1261574,-0.047659 0.2794152,-0.047659 0.1121399,0 0.2233452,0.027101 0.1121399,0.0271 0.2485768,0.095319 V 8.3811968 H 4.9420567 Q 4.8271133,8.2849434 4.7140389,8.241022 4.6009646,8.1971005 4.4720037,8.1971005 q -0.1055984,0 -0.1906378,0.034577 -0.084105,0.033642 -0.1504543,0.1055984 -0.06448,0.070087 -0.1009259,0.1775548 -0.035511,0.1065329 -0.035511,0.2467077 0,0.1467163 0.039249,0.2523147 0.040183,0.1055984 0.1027949,0.1719478 0.065415,0.069153 0.1523233,0.1027949 0.087843,0.032707 0.1850308,0.032707 0.1336334,0 0.2504457,-0.04579 0.1168124,-0.04579 0.2186728,-0.1373713 h 0.013083 z"
           style="stroke-width:0.76554155"
           id="path4505" />
        <path
           inkscape:connector-curvature="0"
           d="m 7.0598182,9.3549447 q -0.051397,0.022428 -0.09345,0.042052 -0.041118,0.019625 -0.1084019,0.041118 -0.057004,0.017756 -0.1242883,0.029904 -0.066349,0.013083 -0.1467164,0.013083 -0.1513888,0 -0.2756772,-0.042052 Q 6.1879307,9.3960627 6.0963498,9.3054163 6.0066379,9.2166389 5.9561749,9.080202 5.905712,8.9428307 5.905712,8.7615379 q 0,-0.1719478 0.048594,-0.3074502 0.048594,-0.1355023 0.1401749,-0.2289522 0.088777,-0.090646 0.2140002,-0.1383059 0.1261574,-0.047659 0.2794152,-0.047659 0.1121399,0 0.2233453,0.027101 0.1121399,0.0271 0.2485767,0.095319 V 8.3811968 H 7.0458007 Q 6.9308573,8.2849434 6.817783,8.241022 6.7047086,8.1971005 6.5757477,8.1971005 q -0.1055983,0 -0.1906378,0.034577 -0.084105,0.033642 -0.1504543,0.1055984 -0.06448,0.070087 -0.1009259,0.1775548 -0.035511,0.1065329 -0.035511,0.2467077 0,0.1467163 0.039249,0.2523147 0.040183,0.1055984 0.1027949,0.1719478 0.065415,0.069153 0.1523233,0.1027949 0.087843,0.032707 0.1850308,0.032707 0.1336334,0 0.2504458,-0.04579 0.1168123,-0.04579 0.2186727,-0.1373713 h 0.013083 z"
           style="stroke-width:0.76554155"
           id="path4507" />
      </g>
      <g
         aria-label="123"
         style="font-style:normal;font-weight:normal;font-size:2.13862514px;line-height:125%;font-family:sans-serif;letter-spacing:0.85545003px;fill:#ff6600;stroke-width:0.85545003"
         id="text4219-8">
        <path
           inkscape:connector-curvature="0"
           d="M 9.9111806,9.5375814 H 9.0695146 V 9.3788554 H 9.3932323 V 8.3366933 H 9.0695146 V 8.1946752 q 0.065788,0 0.1409738,-0.010442 0.075186,-0.011487 0.1138233,-0.032372 0.048036,-0.026106 0.075186,-0.065788 0.028195,-0.040726 0.032372,-0.1086021 h 0.1618588 v 1.4013843 h 0.3174522 z"
           style="stroke-width:0.85545003"
           id="path4512" />
        <path
           inkscape:connector-curvature="0"
           d="M 12.217094,9.5375814 H 11.16449 V 9.3193331 q 0.109646,-0.093983 0.219293,-0.1879651 0.11069,-0.093983 0.205717,-0.1869209 0.200496,-0.1942306 0.274638,-0.3080539 0.07414,-0.1148676 0.07414,-0.2474874 0,-0.121133 -0.08041,-0.1890093 -0.07936,-0.068921 -0.222425,-0.068921 -0.09503,0 -0.205717,0.033416 -0.110691,0.033416 -0.21616,0.1023365 h -0.01044 V 8.0474359 q 0.07414,-0.036549 0.197364,-0.066832 0.124265,-0.030283 0.240177,-0.030283 0.239134,0 0.374886,0.1159118 0.135753,0.1148676 0.135753,0.3122309 0,0.088761 -0.02297,0.1660359 -0.02193,0.07623 -0.06579,0.1451508 -0.04073,0.064744 -0.09607,0.1273986 -0.0543,0.062655 -0.13262,0.1388853 -0.111736,0.109646 -0.230781,0.2130268 -0.119044,0.1023366 -0.222425,0.1900536 h 0.836444 z"
           style="stroke-width:0.85545003"
           id="path4514" />
        <path
           inkscape:connector-curvature="0"
           d="m 14.29745,8.7888538 q 0.05012,0.044903 0.0825,0.1127791 0.03237,0.067876 0.03237,0.175434 0,0.1065136 -0.03864,0.1952749 -0.03864,0.088761 -0.108603,0.1545491 -0.07832,0.073097 -0.184832,0.108602 -0.105469,0.03446 -0.231824,0.03446 -0.129487,0 -0.254797,-0.031327 -0.12531,-0.030283 -0.205717,-0.066832 V 9.2535453 h 0.01566 q 0.08876,0.058478 0.20885,0.097115 0.120089,0.038637 0.231823,0.038637 0.06579,0 0.13993,-0.021929 0.07414,-0.021929 0.120089,-0.064744 0.04803,-0.045947 0.07101,-0.1012923 0.02402,-0.055345 0.02402,-0.1399296 0,-0.08354 -0.02715,-0.1378411 -0.02611,-0.055345 -0.0731,-0.086673 -0.04699,-0.032372 -0.113824,-0.043858 -0.06683,-0.012531 -0.144106,-0.012531 H 13.74713 V 8.6071542 h 0.0731 q 0.158726,0 0.252708,-0.065788 0.09503,-0.066832 0.09503,-0.1942306 0,-0.056389 -0.02402,-0.098159 -0.02402,-0.042814 -0.06683,-0.069965 -0.0449,-0.02715 -0.09607,-0.037593 -0.05117,-0.010442 -0.115912,-0.010442 -0.0992,0 -0.210938,0.035505 -0.111735,0.035505 -0.210939,0.100248 h -0.01044 V 8.0484801 q 0.07414,-0.036549 0.197363,-0.066832 0.124266,-0.031327 0.240178,-0.031327 0.113823,0 0.200496,0.020885 0.08667,0.020885 0.156637,0.066832 0.07519,0.050124 0.113824,0.1211331 0.03864,0.071009 0.03864,0.1660358 0,0.1294871 -0.09189,0.2266024 -0.09085,0.096071 -0.215116,0.1211331 v 0.014619 q 0.05012,0.00835 0.114868,0.035505 0.06474,0.026106 0.109646,0.065788 z"
           style="stroke-width:0.85545003"
           id="path4516" />
      </g>
    </g>
    <g
       transform="matrix(2.0790927,0,0,2.0790927,-0.80494651,-1.856246)"
       id="g4636">
      <rect
         style="fill:#ffffff;stroke:#7900aa;stroke-width:0.29801902;stroke-linecap:round;stroke-linejoin:round;stroke-opacity:0.90697997"
         ry="0.28994632"
         rx="0.28994823"
         transform="matrix(0.80490853,-0.59339891,0.61289856,0.7901616,0,0)"
         height="4.6332173"
         width="1.8474383"
         y="14.869841"
         x="0.64221245"
         id="rect4486" />
      <path
         style="fill:#ffffff;fill-rule:evenodd;stroke:#333333;stroke-width:0.17733943;stroke-linejoin:round;stroke-opacity:0.88372001"
         inkscape:connector-curvature="0"
         d="M 9.1078472,9.8270282 9.6314829,11.262394 11.010597,10.210997 9.8215021,9.291594 9.1078409,9.82708 Z"
         id="path4488" />
      <g
         id="g938"
         transform="translate(0.40407994,0.34738516)">
        <path
           style="fill:url(#e);stroke:#1a1a1a;stroke-width:0.46787417;stroke-linecap:round;stroke-linejoin:round;stroke-opacity:0.81395"
           inkscape:connector-curvature="0"
           d="M 10.72604,6.0627702 A 4.3588721,4.3599166 6.939515 0 1 5.8732405,9.8641056 4.3588721,4.3599166 6.939515 0 1 2.0719297,5.0113674 4.3588721,4.3599166 6.939515 0 1 6.9228931,1.2077542 4.3588721,4.3599166 6.939515 0 1 10.726533,6.0587217"
           id="path4492" />
        <rect
           style="fill:url(#k);stroke:#000080;stroke-width:0.29801902;stroke-linecap:round;stroke-linejoin:round;stroke-opacity:0.90697997"
           ry="0.28994632"
           rx="0.28994823"
           transform="matrix(0.80490853,-0.59339891,0.61289856,0.7901616,0,0)"
           height="4.6332173"
           width="1.8474383"
           y="14.350292"
           x="0.53580403"
           id="rect4494" />
        <path
           style="fill:url(#j);fill-rule:evenodd;stroke:#333333;stroke-width:0.17733943;stroke-linejoin:round;stroke-opacity:0.88372001"
           inkscape:connector-curvature="0"
           d="M 8.7037677,9.4796436 9.2274034,10.915009 10.606517,9.8636124 9.4174226,8.9442094 8.7037614,9.4796954 Z"
           id="path4496" />
      </g>
    </g>
  </g>
</svg>
