<?xml version="1.0"?>
<svg xmlns="http://www.w3.org/2000/svg" viewBox="0 0 24 24"><g id="Layer_2" data-name="Layer 2"><path d="M4,21V18H6V6H4V3h8.19a9.64,9.64,0,0,1,5.3,1.25A4.15,4.15,0,0,1,19.39,8a4.36,4.36,0,0,1-.6,2.28,3.78,3.78,0,0,1-1.87,1.53,4.09,4.09,0,0,1,1.76.8,3.44,3.44,0,0,1,1,1.36A4.62,4.62,0,0,1,20,15.66a4.71,4.71,0,0,1-1.77,4A8.41,8.41,0,0,1,13.1,21Zm6.3-10.54H12A4.24,4.24,0,0,0,14.29,10a1.66,1.66,0,0,0,.76-1.51,1.87,1.87,0,0,0-.71-1.64,3.69,3.69,0,0,0-2.15-.51H10.34Zm0,7.24H13.1A3.19,3.19,0,0,0,15,17.2a1.86,1.86,0,0,0,.65-1.55,3,3,0,0,0-.25-1.29,1.64,1.64,0,0,0-.77-.77,3.09,3.09,0,0,0-1.36-.25h-3Z" style="fill:#333"/></g></svg>
