<?xml version="1.0" encoding="UTF-8" standalone="no"?>
<svg xmlns:rdf="http://www.w3.org/1999/02/22-rdf-syntax-ns#" xmlns="http://www.w3.org/2000/svg" version="1.1" xmlns:cc="http://creativecommons.org/ns#" xmlns:xlink="http://www.w3.org/1999/xlink" viewBox="0 0 16 16" xmlns:dc="http://purl.org/dc/elements/1.1/">
<metadata>
<rdf:RDF>
<cc:Work rdf:about="">
<dc:format>image/svg+xml</dc:format>
<dc:type rdf:resource="http://purl.org/dc/dcmitype/StillImage"/>
<dc:title/>
</cc:Work>
</rdf:RDF>
</metadata>
<g transform="translate(-88.111 -328.57)">
<g transform="translate(-350.8 -376.43)">
<rect style="color:#000000" height="16" width="16" y="704.99" x="438.91" fill="none"/>
<g transform="matrix(1.3154 0 0 1.3154 744.22 -505.09)" stroke="#000">
<path d="m-224.04 925.92c0.3583 0.0782 0.66612 0.18568 0.92346 0.32248 0.25733 0.13681 0.4658 0.29643 0.62542 0.47884 0.1596 0.18241 0.27687 0.38437 0.3518 0.60587 0.0749 0.2215 0.11237 0.45278 0.11238 0.69382-0.00001 0.2215-0.0358 0.43975-0.1075 0.65473-0.0717 0.21499-0.17428 0.41858-0.30782 0.61076-0.13356 0.19219-0.29806 0.36483-0.49349 0.51792-0.19545 0.1531-0.41695 0.27851-0.66451 0.37623-0.46907 0.18242-1.2085 0.27362-2.2183 0.27362h-4.1922v-0.2443h0.33225c0.14984 0 0.28339-0.013 0.40066-0.0391s0.21662-0.0847 0.29805-0.1759c0.0814-0.0912 0.14332-0.22476 0.18567-0.40066 0.0423-0.17589 0.0635-0.41368 0.0635-0.71336v-5.7362c0-0.3127-0.0228-0.557-0.0684-0.73291-0.0456-0.17589-0.11076-0.30781-0.19545-0.39577-0.0847-0.0879-0.18567-0.14331-0.30293-0.16612-0.11727-0.0228-0.24431-0.0342-0.38112-0.0342h-0.33225v-0.2443h3.8307c1.2313 0.00001 2.1645 0.20848 2.7997 0.62542 0.63518 0.41695 0.95277 1 0.95278 1.7492-0.00001 0.44952-0.13682 0.84855-0.41043 1.1971-0.27363 0.34854-0.67429 0.6075-1.202 0.77688zm-3.43 3.8893c0.49511 0.11727 0.99349 0.1759 1.4951 0.1759 0.3974 0 0.7492-0.0489 1.0554-0.14658 0.30619-0.0977 0.56027-0.22965 0.76223-0.39577 0.20195-0.16613 0.35505-0.36157 0.45929-0.58633 0.10423-0.22476 0.15635-0.46418 0.15636-0.71825-0.00001-0.28014-0.0554-0.54398-0.16613-0.79155-0.11076-0.24756-0.28177-0.46254-0.51304-0.64496-0.23128-0.18241-0.52118-0.32573-0.86972-0.42997-0.34854-0.10423-0.75734-0.15635-1.2264-0.15636-0.27362 0.00001-0.5049 0.003-0.69382 0.01-0.18893 0.007-0.34203 0.0228-0.45929 0.0489zm0-4.2411c0.16286 0.0326 0.3469 0.057 0.55212 0.0733 0.20521 0.0163 0.4316 0.0244 0.67917 0.0244 0.86645 0.00001 1.4886-0.15634 1.8665-0.46906 0.37785-0.3127 0.56678-0.74593 0.56679-1.2997-0.00001-0.25407-0.0538-0.49674-0.16124-0.72803-0.1075-0.23126-0.26549-0.43159-0.47395-0.60098-0.20848-0.16938-0.46744-0.30456-0.77689-0.40555-0.30945-0.10097-0.66939-0.15146-1.0798-0.15146-0.443 0-0.83389 0.0489-1.1726 0.14658z"/>
</g>
<rect style="color:#000000" height="16" width="16" y="704.99" x="438.91" fill="none"/>
</g>
</g>
</svg>
