<?xml version="1.0"?>
<svg xmlns="http://www.w3.org/2000/svg" id="Layer_2" data-name="Layer 2" viewBox="0 0 24 24"><path d="M9.53,4.59,7.34,11h3L9.08,12.29H6.86l-.48,1.54a9.2,9.2,0,0,0-.27.91,4.11,4.11,0,0,0-.1.94.86.86,0,0,0,0,.23A3.41,3.41,0,0,0,5.85,17H2v-.72A1.57,1.57,0,0,0,2.78,16a2.42,2.42,0,0,0,.62-.65A7.71,7.71,0,0,0,4,14.15L9,2h3.22L14,7.39,11.1,10.27Z" style="fill:#333"/><path d="M14.92,20.58l-.92.93a1.7,1.7,0,0,1-2.39,0L8.34,18.24a1.69,1.69,0,0,1,0-2.39l.93-.93,2,2,.1.1Z" style="fill:#0071bc"/><path d="M21.51,14l-5.17,5.17L14.17,17l-1.83-1.83-1.66-1.66,1.15-1.15,2.84-2.84,1.18-1.18a1.7,1.7,0,0,1,2.39,0l3.27,3.27A1.71,1.71,0,0,1,21.51,14Z" style="fill:#0071bc"/></svg>
