<?xml version="1.0"?>
<svg xmlns="http://www.w3.org/2000/svg" viewBox="0 0 24 24"><g id="Layer_2" data-name="Layer 2"><path d="M8,4.83,11.17,8l-.58.59L8,11.17,4.83,8,8,4.83M8,2,2,8l6,6,4-4h4L8,2Z" style="fill:#333"/><polygon points="14 8 14 10 12 10 8 14 2 8 14 8" style="fill:#333"/><circle cx="11" cy="19.5" r="2.5" style="fill:#0071bc"/><rect x="11" y="18" width="9" height="4" style="fill:#0071bc"/><rect x="11" y="16" width="7" height="4" style="fill:#0071bc"/><rect x="18" y="18" width="4" height="4" rx="1.95" style="fill:#0071bc"/><rect x="15" y="15.5" width="4.5" height="4.5" rx="2.25" style="fill:#0071bc"/><rect x="11" y="13.5" width="5" height="5" rx="2.5" style="fill:#0071bc"/></g></svg>
