<?xml version="1.0"?>
<svg xmlns="http://www.w3.org/2000/svg" id="Layer_2" data-name="Layer 2" viewBox="0 0 24 24"><g id="path23189"><path d="M15,13.28l-8.28,8.1a.92.92,0,0,1-.61.26L3,21.72h-.2l-.06,0-.14-.05-.15-.09a.63.63,0,0,1-.12-.11.57.57,0,0,1-.18-.28.49.49,0,0,1,0-.16.77.77,0,0,1,0-.15v-.07l.15-3.13a.92.92,0,0,1,.27-.6L10.8,9l1.26,1.28L4,18.08,4,19.89l1.81,0,8-7.85Z" style="fill:#333"/><path d="M3,21.72l-.18,0H3Z" style="fill:#333"/></g><g id="path23193"><line x1="16.49" y1="13.34" x2="15.54" y2="12.37" style="fill:#0071bc"/><line x1="11.72" y1="8.47" x2="10.78" y2="7.5" style="fill:#0071bc"/><path d="M22,6.73a3.68,3.68,0,0,1-1.26,2.79,5.58,5.58,0,0,1-2.25,1.14l-.41.14A4.44,4.44,0,0,0,16.56,12l.64.65a1,1,0,0,1,0,1.41,1,1,0,0,1-1.42,0L15,13.28,13.79,12l-1.73-1.77L10.8,9l-.73-.75a1,1,0,0,1,0-1.41,1,1,0,0,1,1.42,0l.68.69A4.59,4.59,0,0,0,13.39,6l.15-.42a5.76,5.76,0,0,1,1.19-2.22,3.79,3.79,0,0,1,2.81-1.2A4.58,4.58,0,0,1,20.75,3.5,4.51,4.51,0,0,1,22,6.73Z" style="fill:#0071bc"/></g></svg>
