<?xml version="1.0"?>
<svg xmlns="http://www.w3.org/2000/svg" id="Layer_2" data-name="Layer 2" viewBox="0 0 24 24"><polygon points="21 3 18 7 15 3 21 3" style="fill:#0071bc"/><path d="M17.29,20.11a1.46,1.46,0,0,1-.41-.48,6.13,6.13,0,0,1-.39-1L13,8H10.17L5.75,18.53a5.7,5.7,0,0,1-.52,1,2,2,0,0,1-.54.57,1.47,1.47,0,0,1-.69.25V21H8v-.06a1.22,1.22,0,0,1-.48-1.06,3.5,3.5,0,0,1,.09-.8c.06-.24.14-.51.23-.77L8.26,17h4.37l.2,1.34a9,9,0,0,1,.23,1,3.66,3.66,0,0,1,.07.69.86.86,0,0,1-.25.66,1.55,1.55,0,0,1-.88.29V21h6v-.62A1.82,1.82,0,0,1,17.29,20.11Zm-6.76-9.66L12.06,16H8.63Z" style="fill:#333"/></svg>
