<?xml version="1.0" encoding="UTF-8" standalone="no"?>
<svg xmlns:inkscape="http://www.inkscape.org/namespaces/inkscape" xmlns:sodipodi="http://sodipodi.sourceforge.net/DTD/sodipodi-0.dtd" xmlns="http://www.w3.org/2000/svg" xmlns:svg="http://www.w3.org/2000/svg" viewBox="0 0 24 24" version="1.1" id="svg37635" sodipodi:docname="DeleteDetailsAction.svg" inkscape:version="1.1.1 (3bf5ae0d25, 2021-09-20)">
  <defs id="defs37639"/>
  <sodipodi:namedview id="namedview37637" pagecolor="#c4ffff" bordercolor="#666666" borderopacity="1.0" inkscape:pageshadow="2" inkscape:pageopacity="0" inkscape:pagecheckerboard="0" showgrid="true" showguides="false" inkscape:guide-bbox="true" inkscape:snap-nodes="true" inkscape:snap-others="true" inkscape:zoom="12.272469" inkscape:cx="-13.852143" inkscape:cy="5.6223405" inkscape:window-width="1920" inkscape:window-height="1017" inkscape:window-x="-8" inkscape:window-y="-8" inkscape:window-maximized="1" inkscape:current-layer="svg37635" inkscape:snap-page="true" inkscape:snap-grids="false" inkscape:snap-global="true">
    <inkscape:grid type="xygrid" id="grid37698"/>
    <sodipodi:guide position="0,24" orientation="0,-1" id="guide37700"/>
    <sodipodi:guide position="2,22" orientation="0,-1" id="guide37702"/>
    <sodipodi:guide position="2,22" orientation="1,0" id="guide37704"/>
    <sodipodi:guide position="14,2" orientation="0,-1" id="guide37706"/>
    <sodipodi:guide position="22,22" orientation="1,0" id="guide37708"/>
    <sodipodi:guide position="-33,15" orientation="0.70710678,-0.70710678" id="guide43342"/>
    <sodipodi:guide position="16.024467,10.568359" orientation="0.70710678,-0.70710678" id="guide44469"/>
    <sodipodi:guide position="12.118217,12.320312" orientation="-0.70802452,0.70618785" id="guide44547"/>
    <sodipodi:guide position="20.070251,11.992977" orientation="-0.70710678,-0.70710678" id="guide44616"/>
    <sodipodi:guide position="16.024467,10.568359" orientation="-0.70710678,-0.70710678" id="guide44618"/>
  </sodipodi:namedview>
  <path id="path45151" style="fill:#0071bc" d="M 4.5097656 3 C 3.1192256 3 2 4.1192256 2 5.5097656 L 2 10.490234 C 2 11.880774 3.1192256 13 4.5097656 13 L 10.798828 13 L 13.193359 10.601562 L 15.59375 13 L 16.457031 13 L 18.847656 10.609375 L 20.849609 12.599609 C 21.541705 12.153647 22 11.378221 22 10.490234 L 22 5.5097656 C 22 4.1192256 20.880774 3 19.490234 3 L 4.5097656 3 z "/>
  <rect style="fill:#333333;stroke-width:2;stroke-linecap:square;paint-order:markers stroke fill;stop-color:#000000" id="rect38119" width="2" height="2" x="3" y="15" rx="0" ry="0.44582042"/>
  <rect style="fill:#333333;fill-opacity:1;stroke-width:2;stroke-linecap:square;paint-order:markers stroke fill;stop-color:#000000" id="rect38281" width="2" height="2" x="3" y="19" rx="0" ry="0.44582042"/>
  <rect style="fill:#333333;fill-opacity:1;stroke-width:2;stroke-linecap:square;paint-order:markers stroke fill;stop-color:#000000" id="rect38285" width="2" height="2" x="7" y="19" rx="0" ry="0.44582042"/>
  <path id="rect41934" style="fill:#333333;fill-opacity:1;stroke-width:2;stroke-linecap:square;paint-order:markers stroke fill;stop-color:#000000" d="M 15.59375 21 L 16.453125 21 L 16.023438 20.570312 L 15.59375 21 z "/>
  <rect style="fill:#333333;stroke-width:2;stroke-linecap:square;paint-order:markers stroke fill;stop-color:#000000" id="rect41938" width="2" height="2" x="7" y="15" rx="0" ry="0.44582042"/>
  <path id="rect41940" style="fill:#333333;stroke-width:2;stroke-linecap:square;paint-order:markers stroke fill;stop-color:#000000" d="M 11 15.546875 L 11 16.554688 C 11 16.801672 11.198328 17 11.445312 17 L 12.455078 17 L 11 15.546875 z "/>
  <path id="rect41944" style="fill:#333333;stroke-width:2;stroke-linecap:square;paint-order:markers stroke fill;stop-color:#000000" d="M 19.59375 17 L 20.554688 17 C 20.801672 17 21 16.801672 21 16.554688 L 21 15.595703 L 19.59375 17 z "/>
  <path id="path42177" style="color:#000000;fill:#333333;-inkscape-stroke:none;paint-order:fill markers stroke" sodipodi:type="inkscape:offset" inkscape:radius="0" inkscape:original="M -10.826172 13.513672 L -12.240234 14.927734 L -9.4121094 17.755859 L -12.240234 20.585938 L -10.826172 22 L -7.9980469 19.171875 L -5.1699219 22 L -3.7539062 20.585938 L -6.5820312 17.755859 L -3.7539062 14.927734 L -5.1699219 13.513672 L -7.9980469 16.341797 L -10.826172 13.513672 z " d="m -10.826172,13.513672 -1.414062,1.414062 2.8281246,2.828125 -2.8281246,2.830079 L -10.826172,22 -7.9980469,19.171875 -5.1699219,22 l 1.4160157,-1.414062 -2.828125,-2.830079 2.828125,-2.828125 -1.4160157,-1.414062 -2.828125,2.828125 z" transform="translate(24.022514,-0.755859)"/>
</svg>
