<?xml version="1.0" encoding="UTF-8" standalone="no"?>
<!-- Created with Inkscape (http://www.inkscape.org/) -->
<svg xmlns:inkscape="http://www.inkscape.org/namespaces/inkscape" xmlns:sodipodi="http://sodipodi.sourceforge.net/DTD/sodipodi-0.dtd" xmlns="http://www.w3.org/2000/svg" xmlns:svg="http://www.w3.org/2000/svg" xmlns:rdf="http://www.w3.org/1999/02/22-rdf-syntax-ns#" xmlns:cc="http://creativecommons.org/ns#" xmlns:dc="http://purl.org/dc/elements/1.1/" viewBox="0 0 24 24" version="1.1" id="svg10437" inkscape:version="1.2 (dc2aedaf03, 2022-05-15)" sodipodi:docname="StyleNEW.svg" xml:space="preserve"><defs id="defs10431"/><sodipodi:namedview id="base" pagecolor="#ffffff" bordercolor="#666666" borderopacity="1.0" inkscape:pageopacity="0.0" inkscape:pageshadow="2" inkscape:zoom="20.160372" inkscape:cx="62.126829" inkscape:cy="18.551245" inkscape:document-units="px" inkscape:current-layer="layer1" inkscape:pagecheckerboard="0" showgrid="true" units="px" showguides="true" inkscape:guide-bbox="true" inkscape:snap-global="true" inkscape:snap-bbox="true" inkscape:snap-page="true" inkscape:window-width="1920" inkscape:window-height="1017" inkscape:window-x="-8" inkscape:window-y="-8" inkscape:window-maximized="1" inkscape:showpageshadow="2" inkscape:deskcolor="#d1d1d1"><sodipodi:guide position="-102,22" orientation="0,1" id="guide10894" inkscape:label="" inkscape:locked="false" inkscape:color="rgb(0,0,255)"/><sodipodi:guide position="-80,24" orientation="-1,0" id="guide10978" inkscape:label="" inkscape:locked="false" inkscape:color="rgb(0,0,255)"/><sodipodi:guide position="-90.934487,2" orientation="0,1" id="guide10982" inkscape:label="" inkscape:locked="false" inkscape:color="rgb(0,0,255)"/><sodipodi:guide position="-100,22" orientation="-1,0" id="guide10986" inkscape:label="" inkscape:locked="false" inkscape:color="rgb(0,0,255)"/><inkscape:grid type="xygrid" id="grid3220"/><sodipodi:guide position="-66,24" orientation="-1,0" id="guide4322" inkscape:locked="false" inkscape:label="" inkscape:color="rgb(0,134,229)"/><sodipodi:guide position="-46,24" orientation="-1,0" id="guide4324" inkscape:locked="false" inkscape:label="" inkscape:color="rgb(0,134,229)"/><sodipodi:guide position="-32,22" orientation="1,0" id="guide3376" inkscape:locked="false"/><sodipodi:guide position="-11.959294,-18.382442" orientation="1,0" id="guide3378" inkscape:locked="false"/><sodipodi:guide position="2,20" orientation="1,0" id="guide3536" inkscape:locked="false"/><sodipodi:guide position="22,22" orientation="1,0" id="guide3538" inkscape:locked="false"/></sodipodi:namedview><metadata id="metadata10434"><rdf:RDF><cc:Work rdf:about=""><dc:format>image/svg+xml</dc:format><dc:type rdf:resource="http://purl.org/dc/dcmitype/StillImage"/></cc:Work></rdf:RDF></metadata><g inkscape:label="Layer 1" inkscape:groupmode="layer" id="layer1" transform="translate(-102)"><path id="path3540" style="fill:#333333;stroke:none;stroke-width:0.133333" d="m 113.67969,1.9277339 c -1.7517,0.031519 -3.52674,0.5962861 -5.10547,1.6640625 -1.11948,0.7573832 -2.03912,1.6720474 -2.83984,2.8320312 -0.17325,0.2506768 -0.69727,1.1557659 -0.8125,1.4003907 -1.04277,2.2290787 -1.23482,4.6020377 -0.5625,6.9335937 0.60941,2.116933 1.86742,3.937653 3.6289,5.242188 0.44054,0.327986 0.65806,0.463251 1.23438,0.773437 0.8117,0.440169 1.4312,0.686315 2.27343,0.90625 0.7314,0.18796 1.28208,0.271162 2.07813,0.306641 0.41453,0.0187 0.78673,0.01644 1.15625,-0.0078 l -0.30469,-0.304687 a 1.538563,1.538563 0 0 1 0,-2.175782 l 1.74024,-1.740234 -1.74024,-1.740234 a 1.538563,1.538563 0 0 1 0,-2.175782 l 1.41406,-1.414062 a 1.538563,1.538563 0 0 1 2.17578,0 l 0.56446,0.564453 c 0.0931,-0.386363 0.3388,-0.645934 1.02539,-1.929687 0.36057,-0.674254 0.66348,-1.2490698 0.67187,-1.2773442 0.007,-0.02926 0.0439,-0.139743 0.082,-0.2480469 0.37764,-1.051828 0.39961,-2.2456363 0.0586,-3.3613281 C 120.1401,5.2655137 119.69129,4.5183813 119.00781,3.835937 118.45529,3.2831176 117.65592,2.7913962 116.75977,2.4531245 115.77332,2.0817151 114.7307,1.9088228 113.67969,1.9277339 Z M 115.5,4.6347651 c 0.26546,0.0045 0.53252,0.072149 0.78125,0.2070313 0.30232,0.1639458 0.50507,0.3658904 0.66797,0.6582031 0.46118,0.8361972 0.12308,1.8712433 -0.75,2.2792969 -0.28222,0.1329779 -0.69502,0.1824197 -1.01563,0.1210937 -0.58381,-0.1102789 -1.07593,-0.5367286 -1.26367,-1.0957031 -0.11619,-0.3514026 -0.12257,-0.7016436 -0.0156,-1.0351562 0.0604,-0.1923188 0.24599,-0.4976262 0.38867,-0.640625 0.3279,-0.3320947 0.7646,-0.5016368 1.20703,-0.4941407 z m -5.40234,0.8964844 c 0.16403,0.0039 0.32944,0.032036 0.48828,0.085937 0.20291,0.06783 0.51715,0.2603798 0.65429,0.4003906 0.4176,0.4304236 0.57451,1.0012364 0.4336,1.5742188 -0.0581,0.2357718 -0.22262,0.5367368 -0.39063,0.7128906 -0.41424,0.4341506 -1.0387,0.6122987 -1.62695,0.4667969 -0.23497,-0.05709 -0.55867,-0.2329875 -0.73047,-0.3964844 -0.46586,-0.4378305 -0.6453,-1.1072507 -0.45508,-1.7050781 0.0448,-0.1421849 0.21858,-0.4487555 0.32227,-0.5683594 0.32497,-0.3776434 0.81258,-0.5819979 1.30469,-0.570312 z m -2.39844,4.8476565 c 0.14179,-0.0015 0.28504,0.01423 0.42773,0.04883 0.2275,0.05767 0.55377,0.23479 0.72657,0.396484 0.44149,0.412897 0.62742,1.032078 0.48437,1.613282 -0.0581,0.23577 -0.22261,0.536736 -0.39062,0.71289 -0.40844,0.427917 -0.97626,0.604351 -1.56641,0.488281 -0.19267,-0.03884 -0.5281,-0.197204 -0.69531,-0.330078 -0.51995,-0.408559 -0.74488,-1.10906 -0.56641,-1.746093 0.0529,-0.191689 0.28244,-0.578957 0.42383,-0.710938 0.32047,-0.304475 0.73087,-0.468045 1.15625,-0.472656 z m 2.73828,4.77539 c 0.17407,0.0088 0.34881,0.05024 0.53711,0.123047 0.48063,0.18562 0.84841,0.603324 0.98828,1.115235 0.075,0.270455 0.0762,0.511862 0.0117,0.802734 -0.048,0.213096 -0.24494,0.580385 -0.39258,0.732422 -0.54037,0.55565 -1.34122,0.67911 -2.01367,0.314453 -0.30233,-0.163946 -0.52944,-0.385266 -0.67969,-0.666016 -0.30835,-0.577487 -0.25151,-1.276278 0.14453,-1.78125 0.22682,-0.291962 0.49261,-0.465934 0.86719,-0.572265 0.1887,-0.05358 0.36304,-0.07719 0.53711,-0.06836 z"/><path id="line4" style="fill:#0071bc;fill-opacity:1;stroke-miterlimit:10" d="m 116.92773,13.515625 -1.41406,1.414062 2.82812,2.828125 -2.82812,2.828125 L 116.92773,22 119.75586,19.171875 122.58593,22 124,20.585937 121.17187,17.757812 124,14.929687 l -1.41407,-1.414062 -2.83007,2.828125 z"/></g></svg>
