<?xml version="1.0" encoding="UTF-8" standalone="no"?>
<!-- Created with Inkscape (http://www.inkscape.org/) -->
<svg xmlns:inkscape="http://www.inkscape.org/namespaces/inkscape" xmlns:sodipodi="http://sodipodi.sourceforge.net/DTD/sodipodi-0.dtd" xmlns="http://www.w3.org/2000/svg" xmlns:svg="http://www.w3.org/2000/svg" xmlns:rdf="http://www.w3.org/1999/02/22-rdf-syntax-ns#" xmlns:cc="http://creativecommons.org/ns#" xmlns:dc="http://purl.org/dc/elements/1.1/" viewBox="0 0 24 24" version="1.1" id="svg10437" inkscape:version="1.2 (dc2aedaf03, 2022-05-15)" sodipodi:docname="StyleNEW.svg" xml:space="preserve"><defs id="defs10431"/><sodipodi:namedview id="base" pagecolor="#ffffff" bordercolor="#666666" borderopacity="1.0" inkscape:pageopacity="0.0" inkscape:pageshadow="2" inkscape:zoom="20.160372" inkscape:cx="62.126829" inkscape:cy="18.551245" inkscape:document-units="px" inkscape:current-layer="layer1" inkscape:pagecheckerboard="0" showgrid="true" units="px" showguides="true" inkscape:guide-bbox="true" inkscape:snap-global="true" inkscape:snap-bbox="true" inkscape:snap-page="true" inkscape:window-width="1920" inkscape:window-height="1017" inkscape:window-x="-8" inkscape:window-y="-8" inkscape:window-maximized="1" inkscape:showpageshadow="2" inkscape:deskcolor="#d1d1d1"><sodipodi:guide position="-34,22" orientation="0,1" id="guide10894" inkscape:label="" inkscape:locked="false" inkscape:color="rgb(0,0,255)"/><sodipodi:guide position="-12,24" orientation="-1,0" id="guide10978" inkscape:label="" inkscape:locked="false" inkscape:color="rgb(0,0,255)"/><sodipodi:guide position="-22.934487,2" orientation="0,1" id="guide10982" inkscape:label="" inkscape:locked="false" inkscape:color="rgb(0,0,255)"/><sodipodi:guide position="-32,22" orientation="-1,0" id="guide10986" inkscape:label="" inkscape:locked="false" inkscape:color="rgb(0,0,255)"/><inkscape:grid type="xygrid" id="grid3220"/><sodipodi:guide position="2,24" orientation="-1,0" id="guide4322" inkscape:locked="false" inkscape:label="" inkscape:color="rgb(0,134,229)"/><sodipodi:guide position="22,24" orientation="-1,0" id="guide4324" inkscape:locked="false" inkscape:label="" inkscape:color="rgb(0,134,229)"/></sodipodi:namedview><metadata id="metadata10434"><rdf:RDF><cc:Work rdf:about=""><dc:format>image/svg+xml</dc:format><dc:type rdf:resource="http://purl.org/dc/dcmitype/StillImage"/></cc:Work></rdf:RDF></metadata><g inkscape:label="Layer 1" inkscape:groupmode="layer" id="layer1" transform="translate(-34)"><g id="g2590"><path id="path5398" style="fill:#333333;stroke:none;stroke-width:0.133333" d="m 45.412109,2.0429688 c -2.623077,-0.01849 -5.183179,1.2305165 -6.998047,3.4394531 -0.85789,1.0444528 -1.478202,2.1836461 -1.916015,3.5234375 -0.09482,0.2895944 -0.339936,1.3069236 -0.380859,1.5742186 -0.365844,2.433574 0.124066,4.762531 1.43164,6.806641 1.186241,1.856234 2.910989,3.244366 4.970703,3.99414 0.51562,0.189173 0.763561,0.257135 1.404297,0.390625 0.90335,0.19118 1.565555,0.2513 2.435547,0.222657 0.754637,-0.02778 1.306803,-0.104523 2.080078,-0.296875 0.847559,-0.210341 1.489654,-0.451146 2.277344,-0.857422 0.34316,-0.175952 1.181121,-0.721133 1.507812,-0.978516 1.495418,-1.181274 2.9847,-3.367718 3.34961,-4.298828 0.364902,-0.931105 0.390165,-1.242319 0.419922,-1.505859 0.02976,-0.263545 -0.07383,-0.930642 -0.333985,-1.28711 -0.252355,-0.345761 -0.576074,-0.545642 -1,-0.607422 -0.407185,-0.05934 -0.583318,-0.02736 -1.0625,0.13086 -0.206394,0.06814 -0.738871,0.245791 -1.037109,0.335937 -0.152386,0.04606 -0.293429,0.100485 -0.441406,0.138672 l -0.533203,0.751953 c -0.130799,0.179128 -0.288217,0.337204 -0.466797,0.46875 -9.28e-4,0.0096 -9.8e-4,0.0177 -0.002,0.02734 -0.05257,0.520636 -0.112073,1.181753 -0.585938,1.998047 -0.548369,0.944634 -1.479281,1.745989 -2.566406,2.326172 -1.753525,0.935834 -3.544922,0.939453 -3.544922,0.939453 -0.07655,-0.0036 -0.152838,-0.01139 -0.228516,-0.02344 -0.211707,0.0383 -0.434487,0.03758 -0.658203,-0.0098 -0.336465,-0.07121 -0.615968,-0.218877 -0.839844,-0.445313 -0.401417,-0.40676 -0.561879,-0.981337 -0.439453,-1.517578 v -0.0039 c -0.02131,-0.62111 0.238414,-1.218751 0.707032,-1.626953 0,0 0.440693,-0.534224 0.490234,-0.816406 0.03975,-0.226439 0.02541,-0.427991 0.08594,-0.945313 0.06053,-0.517322 0.275658,-1.249431 0.669922,-1.902344 0.629217,-1.042 1.506455,-1.540663 2.167969,-1.787109 0.07608,-0.165032 0.172534,-0.3198835 0.287109,-0.4609376 l 4.16643,-4.5806682 C 50.771865,5.060931 50.567079,4.6891232 50.503906,4.59375 49.97866,3.8000806 49.33565,3.209913 48.486328,2.75 47.799418,2.3771208 46.892849,2.1339251 45.9375,2.0644531 45.762277,2.0518631 45.586982,2.0441986 45.412109,2.0429688 Z m 0.353516,2.4101562 c 0.03963,-8.504e-4 0.07915,1.25e-5 0.119141,0.00195 0.09141,0.0044 0.183117,0.015626 0.27539,0.035156 0.336462,0.07121 0.58881,0.2074888 0.828125,0.4414062 0.679928,0.6705288 0.648721,1.7589649 -0.07227,2.3984375 C 46.68326,7.5378197 46.301372,7.702 45.976562,7.734375 45.385499,7.7946648 44.792072,7.5254768 44.453125,7.0429688 44.241809,6.7391124 44.136818,6.4048467 44.144531,6.0546875 c 0.0032,-0.2015486 0.09528,-0.5469398 0.191407,-0.7246094 0.288661,-0.5402613 0.835267,-0.8641975 1.429687,-0.8769531 z m -4.972656,2.4003906 c 0.04156,-0.00161 0.0831,-0.00163 0.125,0 0.213824,0.0073 0.570892,0.1020328 0.742187,0.1972656 0.522758,0.2939026 0.835451,0.797321 0.863282,1.3867188 0.01136,0.2425536 -0.06089,0.5763112 -0.171876,0.7929688 C 42.077885,9.7644876 41.53112,10.114796 40.925781,10.142578 40.684284,10.154668 40.32253,10.078598 40.111328,9.9707031 39.540214,9.6834197 39.179035,9.0920804 39.191406,8.4648438 39.193906,8.315802 39.272496,7.9722778 39.337891,7.828125 39.593093,7.260049 40.16951,6.87765 40.792969,6.8535156 Z m -0.863281,5.3125004 c 0.234502,-0.0094 0.598911,0.06599 0.810546,0.171875 0.540675,0.270303 0.893756,0.812266 0.921875,1.410156 0.01137,0.242552 -0.06088,0.57631 -0.171875,0.792969 -0.269885,0.526391 -0.764487,0.857522 -1.363281,0.914062 -0.195761,0.01755 -0.559724,-0.0393 -0.757812,-0.11914 -0.614669,-0.243837 -1.030963,-0.852192 -1.041016,-1.513672 -0.0038,-0.198819 0.107055,-0.634045 0.205078,-0.800782 0.294216,-0.510714 0.809935,-0.825822 1.396485,-0.855468 z" sodipodi:nodetypes="cccccccccccssssssccccssccsccccssscccccccscsccccccssccccccccsccccccccc"/><g id="g2535" transform="translate(-27.805872,28.602934)"><path style="fill:#333333;fill-opacity:1;stroke:none;stroke-width:1.48437;stroke-linecap:round;stroke-linejoin:round;stroke-opacity:1" d="m 71.954851,-11.239803 c 0,0 1.54489,-0.08753 2.690664,-0.699015 0.940247,-0.501795 1.366129,-0.874555 1.752886,-1.540791 0.386755,-0.666238 0.345631,-1.842567 0.345631,-1.842567 l -1.473439,-1.135216 c 0,0 -1.117454,0.177382 -1.64586,1.052436 -0.528406,0.875052 -0.339301,1.282921 -0.489483,2.138353 -0.209382,1.192645 -1.180399,2.0268 -1.180399,2.0268 z" id="path2531" sodipodi:nodetypes="cszcczsc"/><path style="fill:#0071bc;fill-opacity:1;stroke:none;stroke-width:1.09699;stroke-linecap:square;stroke-linejoin:miter;stroke-opacity:1" d="m 76.510167,-17.853216 1.473439,1.135216 6.29974,-8.967895 c 0.158715,-0.2441 0.34136,-0.743306 0.154692,-0.877481 -0.186668,-0.134174 -0.573537,0.0658 -0.852375,0.371657 z" id="path2533" sodipodi:nodetypes="ccczcc"/></g></g></g></svg>
