<?xml version="1.0" encoding="UTF-8" standalone="no"?>
<svg xmlns:inkscape="http://www.inkscape.org/namespaces/inkscape" xmlns:sodipodi="http://sodipodi.sourceforge.net/DTD/sodipodi-0.dtd" xmlns="http://www.w3.org/2000/svg" xmlns:svg="http://www.w3.org/2000/svg" viewBox="0 0 24 24" version="1.1" id="svg9" sodipodi:docname="editdelete.svg" inkscape:version="1.1.1 (3bf5ae0d25, 2021-09-20)">
  <defs id="defs13"/>
  <sodipodi:namedview id="namedview11" pagecolor="#ffffff" bordercolor="#666666" borderopacity="1.0" inkscape:pageshadow="2" inkscape:pageopacity="0.0" inkscape:pagecheckerboard="0" showgrid="true" showguides="true" inkscape:guide-bbox="true" inkscape:snap-page="true" inkscape:snap-to-guides="true" inkscape:snap-grids="true" inkscape:zoom="30.409483" inkscape:cx="18.925018" inkscape:cy="17.593196" inkscape:window-width="1920" inkscape:window-height="1017" inkscape:window-x="-8" inkscape:window-y="-8" inkscape:window-maximized="1" inkscape:current-layer="svg9">
    <inkscape:grid type="xygrid" id="grid833"/>
    <sodipodi:guide position="12,14" orientation="1,0" id="guide1834"/>
  </sodipodi:namedview>
  <path id="rect2" style="fill:#0071bc" d="M 3.3574219 7.28125 C 2.5507502 7.6977809 2 8.5359491 2 9.5097656 L 2 14.490234 C 2 15.880774 3.1192256 17 4.5097656 17 L 19.490234 17 C 20.880774 17 22 15.880774 22 14.490234 L 22 9.5097656 C 22 8.1192256 20.880774 7 19.490234 7 L 15.15625 7 A 1.9131534 1.9131534 0 0 1 15.101562 7.1152344 A 1.9131534 1.9131534 0 0 1 15.005859 7.2773438 A 1.9131534 1.9131534 0 0 1 14.894531 7.4277344 A 1.9131534 1.9131534 0 0 1 14.767578 7.5664062 L 13.291016 9.0410156 L 14.767578 10.515625 A 1.9131534 1.9131534 0 0 1 14.894531 10.654297 A 1.9131534 1.9131534 0 0 1 15.005859 10.804688 A 1.9131534 1.9131534 0 0 1 15.101562 10.966797 A 1.9131534 1.9131534 0 0 1 15.183594 11.136719 A 1.9131534 1.9131534 0 0 1 15.246094 11.3125 A 1.9131534 1.9131534 0 0 1 15.291016 11.496094 A 1.9131534 1.9131534 0 0 1 15.320312 11.681641 A 1.9131534 1.9131534 0 0 1 15.328125 11.869141 A 1.9131534 1.9131534 0 0 1 15.320312 12.056641 A 1.9131534 1.9131534 0 0 1 15.291016 12.242188 A 1.9131534 1.9131534 0 0 1 15.246094 12.425781 A 1.9131534 1.9131534 0 0 1 15.183594 12.601562 A 1.9131534 1.9131534 0 0 1 15.101562 12.771484 A 1.9131534 1.9131534 0 0 1 15.005859 12.933594 A 1.9131534 1.9131534 0 0 1 14.894531 13.083984 A 1.9131534 1.9131534 0 0 1 14.767578 13.222656 L 13.353516 14.636719 A 1.9131534 1.9131534 0 0 1 12.957031 14.941406 A 1.9131534 1.9131534 0 0 1 12.496094 15.132812 A 1.9131534 1.9131534 0 0 1 12 15.197266 A 1.9131534 1.9131534 0 0 1 11.503906 15.132812 A 1.9131534 1.9131534 0 0 1 11.042969 14.941406 A 1.9131534 1.9131534 0 0 1 10.646484 14.636719 L 9.171875 13.162109 L 7.6972656 14.636719 A 1.9131534 1.9131534 0 0 1 7.3007812 14.941406 A 1.9131534 1.9131534 0 0 1 6.8398438 15.132812 A 1.9131534 1.9131534 0 0 1 6.34375 15.197266 A 1.9131534 1.9131534 0 0 1 5.8476562 15.132812 A 1.9131534 1.9131534 0 0 1 5.3867188 14.941406 A 1.9131534 1.9131534 0 0 1 4.9902344 14.636719 L 3.5761719 13.222656 A 1.9131534 1.9131534 0 0 1 3.2714844 12.826172 A 1.9131534 1.9131534 0 0 1 3.0800781 12.365234 A 1.9131534 1.9131534 0 0 1 3.015625 11.869141 A 1.9131534 1.9131534 0 0 1 3.0800781 11.373047 A 1.9131534 1.9131534 0 0 1 3.2714844 10.912109 A 1.9131534 1.9131534 0 0 1 3.5761719 10.515625 L 5.0527344 9.0410156 L 3.5761719 7.5664062 A 1.9131534 1.9131534 0 0 1 3.3574219 7.28125 z "/>
  <path id="line4" style="color:#000000;fill:#333333;stroke-miterlimit:10;-inkscape-stroke:none" d="M 12.000001,4.7977563 9.171573,7.6261839 6.3431462,4.7977562 4.9289327,6.2119699 7.75736,9.0403969 4.9289327,11.868823 6.3431467,13.283039 9.171574,10.45461 12,13.283039 13.414215,11.868825 10.585786,9.0403969 13.414216,6.2119702 Z" sodipodi:nodetypes="ccccccccccccc"/>
</svg>
