<?xml version="1.0" encoding="UTF-8" standalone="no"?>
<!-- Created with Inkscape (http://www.inkscape.org/) -->
<svg xmlns:inkscape="http://www.inkscape.org/namespaces/inkscape" xmlns:sodipodi="http://sodipodi.sourceforge.net/DTD/sodipodi-0.dtd" xmlns:xlink="http://www.w3.org/1999/xlink" xmlns="http://www.w3.org/2000/svg" xmlns:svg="http://www.w3.org/2000/svg" xmlns:rdf="http://www.w3.org/1999/02/22-rdf-syntax-ns#" xmlns:cc="http://creativecommons.org/ns#" xmlns:dc="http://purl.org/dc/elements/1.1/" viewBox="0 0 24 24" version="1.1" id="svg10437" inkscape:version="1.2-alpha (0bd5040e63, 2022-02-05)" sodipodi:docname="edit_long_node.svg">
  <defs id="defs10431">
    <inkscape:path-effect effect="offset" id="path-effect1038" is_visible="true" lpeversion="1" linejoin_type="miter" unit="mm" offset="0.019474025" miter_limit="4" attempt_force_join="false" update_on_knot_move="true"/>
    <linearGradient id="d" y2="446.77" xlink:href="#e" gradientUnits="userSpaceOnUse" x2="215.36" gradientTransform="matrix(0.99094,0,0,1.0073,134.73,-154.36)" y1="440.75" x1="209.71"/>
    <linearGradient id="e">
      <stop stop-color="#f70000" offset="0" id="stop845"/>
      <stop stop-color="#780000" offset="1" id="stop847"/>
    </linearGradient>
    <linearGradient id="c" y2="449.6" xlink:href="#f" gradientUnits="userSpaceOnUse" x2="194.27" gradientTransform="matrix(0.99094,0,0,1.0073,134.73,-154.36)" y1="456.24" x1="202.53"/>
    <linearGradient id="f">
      <stop stop-color="#baa492" offset="0" id="stop851"/>
      <stop stop-color="#fff" offset="1" id="stop853"/>
    </linearGradient>
    <linearGradient id="b" y2="449.64" xlink:href="#h" gradientUnits="userSpaceOnUse" x2="193.04" gradientTransform="matrix(0.99094,0,0,1.0073,134.73,-154.36)" y1="457.89" x1="203.5"/>
    <linearGradient id="h">
      <stop offset="0" id="stop857"/>
      <stop stop-color="#7e7e7e" offset="1" id="stop859"/>
    </linearGradient>
    <linearGradient id="a" y2="462.65" xlink:href="#g" gradientUnits="userSpaceOnUse" x2="196.75" gradientTransform="matrix(0.99094,0,0,1.0073,134.73,-154.36)" y1="458.87" x1="193.01"/>
    <linearGradient id="g">
      <stop stop-color="#c00000" offset="0" id="stop863"/>
      <stop offset="1" id="stop865"/>
    </linearGradient>
    <linearGradient id="d-6" y2="446.77" xlink:href="#e" gradientUnits="userSpaceOnUse" x2="215.36" gradientTransform="matrix(0.99094,0,0,1.0073,134.73,-154.36)" y1="440.75" x1="209.71"/>
    <linearGradient id="c-4" y2="449.6" xlink:href="#f" gradientUnits="userSpaceOnUse" x2="194.27" gradientTransform="matrix(0.99094,0,0,1.0073,134.73,-154.36)" y1="456.24" x1="202.53"/>
    <linearGradient id="b-2" y2="449.64" xlink:href="#h" gradientUnits="userSpaceOnUse" x2="193.04" gradientTransform="matrix(0.99094,0,0,1.0073,134.73,-154.36)" y1="457.89" x1="203.5"/>
    <linearGradient id="a-4" y2="462.65" xlink:href="#g" gradientUnits="userSpaceOnUse" x2="196.75" gradientTransform="matrix(0.99094,0,0,1.0073,134.73,-154.36)" y1="458.87" x1="193.01"/>
  </defs>
  <sodipodi:namedview id="base" pagecolor="#ffffff" bordercolor="#666666" borderopacity="1.0" inkscape:pageopacity="0" inkscape:pageshadow="2" inkscape:zoom="27.807616" inkscape:cx="15.21166" inkscape:cy="13.611379" inkscape:document-units="px" inkscape:current-layer="layer1" inkscape:pagecheckerboard="0" showgrid="true" units="px" showguides="true" inkscape:guide-bbox="true" inkscape:snap-global="true" inkscape:snap-bbox="false" inkscape:snap-page="true" inkscape:window-width="1622" inkscape:window-height="984" inkscape:window-x="171" inkscape:window-y="16" inkscape:window-maximized="0" inkscape:snap-grids="true" inkscape:snap-nodes="false" inkscape:snap-object-midpoints="true" inkscape:snap-others="false" inkscape:blackoutopacity="0.0">
    <sodipodi:guide position="0,22" orientation="0,1" id="guide10894" inkscape:label="" inkscape:locked="false" inkscape:color="rgb(0,0,255)"/>
    <sodipodi:guide position="22,24" orientation="-1,0" id="guide10978" inkscape:label="" inkscape:locked="false" inkscape:color="rgb(0,0,255)"/>
    <sodipodi:guide position="11.065513,2" orientation="0,1" id="guide10982" inkscape:label="" inkscape:locked="false" inkscape:color="rgb(0,0,255)"/>
    <sodipodi:guide position="2,22" orientation="-1,0" id="guide10986" inkscape:label="" inkscape:locked="false" inkscape:color="rgb(0,0,255)"/>
    <inkscape:grid type="xygrid" id="grid826"/>
  </sodipodi:namedview>
  <metadata id="metadata10434">
    <rdf:RDF>
      <cc:Work rdf:about="">
        <dc:format>image/svg+xml</dc:format>
        <dc:type rdf:resource="http://purl.org/dc/dcmitype/StillImage"/>
      </cc:Work>
    </rdf:RDF>
  </metadata>
  <g inkscape:label="Layer 1" inkscape:groupmode="layer" id="layer1">
    <g id="g2916" transform="translate(-0.00309226,2.9890811)">
      <path id="path1153" style="fill:#0071bc" d="M 12.275391,7 H 4.5097656 C 3.1192256,7 2,8.1192256 2,9.5097656 V 14.490234 C 2,15.880774 3.1192256,17 4.5097656,17 H 19.490234 C 20.880774,17 22,15.880774 22,14.490234 V 9.5097656 C 22,8.8040058 21.709908,8.1699631 21.244141,7.7148438 l -3.072266,3.0761722 -1.527344,1.533203 c -0.671199,0.632272 -0.978328,0.891083 -1.628907,1.44922 -0.07148,0.05093 -0.146541,0.09662 -0.224609,0.136718 -0.07749,0.04022 -0.157778,0.07482 -0.240235,0.103516 l -2.080078,0.720703 c -0.08728,0.03019 -0.176731,0.0537 -0.267578,0.07031 -0.04903,0.009 -0.09911,0.01466 -0.148437,0.01758 -0.04933,0.0029 -0.0989,0.0032 -0.148438,0.002 -0.09907,-0.0025 -0.197477,-0.01165 -0.296875,-0.01953 -0.08809,-0.0041 -0.175593,-0.01264 -0.261719,-0.02734 -0.08613,-0.01471 -0.170367,-0.03599 -0.253906,-0.06055 -0.08354,-0.02456 -0.165767,-0.05224 -0.246094,-0.08594 -0.08033,-0.0337 -0.159839,-0.07312 -0.236328,-0.115234 -0.07649,-0.04212 -0.15063,-0.0869 -0.222656,-0.136719 -0.07203,-0.04981 -0.142046,-0.103364 -0.208984,-0.160156 -0.06694,-0.05679 -0.130181,-0.11859 -0.1914068,-0.181641 C 9.9270552,13.974106 9.8673862,13.90848 9.812499,13.839891 9.757612,13.771301 9.7061257,13.700409 9.6582021,13.627 9.6102791,13.55359 9.5676771,13.477946 9.5273428,13.400438 c -0.040335,-0.07751 -0.077255,-0.157394 -0.109375,-0.238282 -0.032121,-0.08089 -0.060703,-0.162546 -0.083984,-0.246093 -0.023281,-0.08355 -0.040871,-0.168418 -0.054687,-0.253907 -0.013817,-0.08549 -0.023617,-0.171103 -0.027344,-0.257812 -0.00373,-0.08671 -0.00308,-0.174509 0.00391,-0.261719 0.00699,-0.08721 0.020733,-0.174727 0.039063,-0.261719 0.018093,-0.08495 0.042243,-0.168498 0.072266,-0.25 L 10.126953,9.5507812 C 10.179423,9.4078027 10.249635,9.2719755 10.335938,9.1464844 11.111832,8.2435003 11.545684,7.7855414 12.275391,7 Z" sodipodi:nodetypes="csssssssccccccccsscsssssssssssssssccccc"/>
      <path id="path1698" style="fill:#0071bc;fill-opacity:1" sodipodi:type="inkscape:offset" inkscape:radius="0" inkscape:original="M 17.449219 1.9492188 L 11.369141 8.0390625 L 9.6992188 9.6992188 L 11.820312 11.820312 L 13.349609 10.289062 L 19.570312 4.0703125 L 17.449219 1.9492188 z " transform="rotate(-0.053903,-898.58865,-3665.9714)" d="m 17.449219,1.9492188 -6.080078,6.0898437 -1.6699222,1.6601563 2.1210932,2.1210932 1.529297,-1.53125 6.220703,-6.2187495 z"/>
      <path d="m 11.835015,10.17573 2.12,2.12 -2.08,0.72 a 0.47,0.47 0 0 1 -0.17,0 0.63,0.63 0 0 1 -0.63,-0.76 z" style="fill:#333333" id="path10455"/>
    </g>
  </g>
</svg>
