<?xml version="1.0" encoding="UTF-8" standalone="no"?>
<svg xmlns:rdf="http://www.w3.org/1999/02/22-rdf-syntax-ns#" xmlns="http://www.w3.org/2000/svg" version="1.1" xmlns:cc="http://creativecommons.org/ns#" xmlns:xlink="http://www.w3.org/1999/xlink" viewBox="0 0 16 16.213" xmlns:dc="http://purl.org/dc/elements/1.1/">
<defs>
<linearGradient id="a" y2="1202.6" gradientUnits="userSpaceOnUse" x2="-281.66" gradientTransform="matrix(.035434 -.054547 .054547 .035434 -167.48 808.31)" y1="1242.5" x1="-227.36">
<stop stop-color="#000080" offset="0"/>
<stop stop-color="#00f" offset="1"/>
</linearGradient>
<linearGradient id="b" y2="1091.7" gradientUnits="userSpaceOnUse" x2="-562.53" y1="1086.7" x1="-568.7">
<stop stop-color="#808080" offset="0"/>
<stop stop-color="#ccc" stop-opacity="0" offset="1"/>
</linearGradient>
<filter id="c" style="color-interpolation-filters:sRGB">
<feGaussianBlur stdDeviation="0.31601763"/>
</filter>
<filter id="d" style="color-interpolation-filters:sRGB">
<feGaussianBlur stdDeviation="0.31601763"/>
</filter>
</defs>
<metadata>
<rdf:RDF>
<cc:Work rdf:about="">
<dc:format>image/svg+xml</dc:format>
<dc:type rdf:resource="http://purl.org/dc/dcmitype/StillImage"/>
<dc:title/>
</cc:Work>
</rdf:RDF>
</metadata>
<g transform="translate(-39.09 -321.08)">
<g transform="translate(368.52 -512.67)">
<g stroke-linecap="round" transform="matrix(.98857 0 0 .98857 -213.85 -8.7874)">
<path style="color:#000000" d="m-109.4 861.56c-0.14215 0.22802-0.25938 0.46783-0.29941 0.7072-0.10201 0.51596 0.24496 0.72082 0.0583 1.2983-0.0812 0.27147-1.0458 0.27617-1.4895 1.0467-0.9524 2.1289 0.98516 3.5185 1.2519 3.6662 0.90743 0.50365 1.6031 0.36431 1.9699-0.76372 0.26639-1.6399-1.4267-4.5105-0.46053-5.6754l-0.57639-0.91496c-0.14414 0.19212-0.31206 0.40771-0.45419 0.63574zm-1.0075 3.648c0.0885-0.14332 0.20874-0.25044 0.35721-0.30364 0.47515-0.17022 1.0533 0.2726 1.2927 0.98763 0.23946 0.71503 0.0499 1.4321-0.42521 1.6023-0.47514 0.17023-1.0544-0.27088-1.2938-0.98591-0.16464-0.49158-0.12567-0.98507 0.0691-1.3004z" stroke="#000" stroke-width=".25" fill="url(#a)"/>
<path style="color:#000000" d="m-108.16 860.77c0.26664-0.0332 0.53351-0.0389 0.76755 0.0254 0.51108 0.12418 0.55124 0.5251 1.1537 0.59831 0.28045 0.0404 0.68995-0.83304 1.5756-0.91202 2.332 0.03 2.7791 2.3721 2.8011 2.6762 0.0759 1.035-0.34283 1.6078-1.5206 1.4668-1.6001-0.44715-3.4939-3.1895-4.9569-2.8021l-0.58818-0.90742c0.23489-0.0501 0.50108-0.11192 0.76772-0.1451zm3.7337 0.61817c-0.16725 0.0201-0.31496 0.0842-0.4256 0.19661-0.35407 0.35968-0.19509 1.0703 0.35319 1.588 0.54829 0.51769 1.2786 0.64692 1.6327 0.28725 0.35407-0.35967 0.19709-1.0706-0.35119-1.5883-0.37694-0.35591-0.84115-0.52785-1.2091-0.48357z" stroke="#000" stroke-width=".25" fill="#000080"/>
<path style="color:#000000" d="m-109.72 861.68-0.64885-9.0584c0.34186 0.2061 0.69157 0.39593 0.84758 0.98688 0.61749 2.387 0.88922 4.7126 1.3102 7.0647 0.0419 0.66301-0.0722 1.0002-0.38864 1.1956-0.31643 0.19551-0.47109 0.23143-1.1203-0.18882z" stroke="#000" stroke-width=".25" fill="#fff"/>
<path style="color:#000000" d="m-108.19 860.95-7.6046-4.9644c0.0142 0.39893 0.0105 0.79682 0.45137 1.2201 1.7872 1.6986 3.6885 3.065 5.5406 4.5749 0.5593 0.35848 0.90946 0.42236 1.234 0.24061 0.32452-0.18175 0.43101-0.29954 0.37871-1.0711z" stroke="#000" stroke-width=".25" fill="#fff"/>
<circle opacity=".93720" stroke-linejoin="round" style="color:#000000" cx="-564.45" fill-rule="evenodd" transform="matrix(.035434 -.054547 .054547 .035434 -148.53 791.79)" cy="1089.5" r="7.2325" stroke="#000" stroke-width="1.5374" fill="url(#b)"/>
<path opacity=".88333" stroke-linejoin="round" style="color:#000000" d="m-183.17 1068.9-0.77108 114.51" transform="matrix(.033771 -.051987 .051987 .033771 -165.01 810.71)" filter="url(#c)" stroke="#ccc" stroke-width="7.6869" fill="#4d4d4d"/>
<path opacity=".88333" stroke-linejoin="round" d="m-93.301 1109.4-87.518 66.699" transform="matrix(.034295 -.052793 .053101 .034495 -165.87 809.77)" filter="url(#d)" stroke="#ccc" stroke-width="7.9192" fill="#4d4d4d"/>
</g>
<rect style="color:#000000" height="16" width="16" y="833.96" x="-329.43" fill="none"/>
</g>
</g>
</svg>
