<?xml version="1.0"?>
<svg xmlns="http://www.w3.org/2000/svg" id="Layer_2" data-name="Layer 2" viewBox="0 0 24 24"><polygon points="17.18 11 14.36 16.05 14.87 11 17.18 11" style="fill:#333"/><path d="M21,13.26v4.48A2.27,2.27,0,0,1,18.74,20H5.26A2.27,2.27,0,0,1,3,17.74V13.26A2.27,2.27,0,0,1,5.26,11h4.1a2.09,2.09,0,0,0,.28,1,2,2,0,0,0,1.73,1h1.29l-.29,2.9A2,2,0,0,0,13.76,18a1.8,1.8,0,0,0,.6.1,2,2,0,0,0,1.75-1l3.3-5.92A2.27,2.27,0,0,1,21,13.26Z" style="fill:#333"/><polygon points="18.63 8.4 17.18 11 14.36 16.05 14.87 11 14.87 10.95 11.37 10.95 15.64 3.29 15.13 8.4 18.63 8.4" style="fill:#0071bc"/></svg>
