<?xml version="1.0" encoding="UTF-8" standalone="no"?>
<!-- Created with Inkscape (http://www.inkscape.org/) -->
<svg xmlns:inkscape="http://www.inkscape.org/namespaces/inkscape" xmlns:sodipodi="http://sodipodi.sourceforge.net/DTD/sodipodi-0.dtd" xmlns:xlink="http://www.w3.org/1999/xlink" xmlns="http://www.w3.org/2000/svg" xmlns:svg="http://www.w3.org/2000/svg" xmlns:rdf="http://www.w3.org/1999/02/22-rdf-syntax-ns#" xmlns:cc="http://creativecommons.org/ns#" xmlns:dc="http://purl.org/dc/elements/1.1/" viewBox="0 0 24 24" version="1.1" id="svg10437" inkscape:version="1.1.2 (b8e25be833, 2022-02-05)" sodipodi:docname="ExternalImageRemoveAction.svg">
  <defs id="defs10431">
    <linearGradient id="b" y2="298.92001" gradientUnits="userSpaceOnUse" x2="112.73" y1="310.62" x1="111.93" gradientTransform="matrix(1.0082046,0,0,1.0572894,-104.94637,-312.96782)">
      <stop stop-color="#0d2e2e" offset="0" id="stop7"/>
      <stop stop-color="#0d2e2e" stop-opacity="0" offset="1" id="stop9"/>
    </linearGradient>
    <linearGradient id="a" y2="7.1090999" gradientUnits="userSpaceOnUse" y1="24.627001" gradientTransform="matrix(0.42238732,0,0,-0.32008379,-1.4440858,17.202514)" x2="21.933001" x1="21.933001">
      <stop stop-color="#acf" offset="0" id="stop12"/>
      <stop stop-color="#04a" offset="1" id="stop14"/>
    </linearGradient>
    <linearGradient id="c" y2="302.84" gradientUnits="userSpaceOnUse" x2="118.52" y1="302.84" x1="105.51" gradientTransform="matrix(1.0082046,0,0,1.0572894,-104.94637,-312.96782)">
      <stop stop-color="#37c837" offset="0" id="stop17"/>
      <stop stop-color="#165016" offset="1" id="stop19"/>
    </linearGradient>
    <linearGradient id="d" y2="300.78" gradientUnits="userSpaceOnUse" x2="112.37" y1="303.64001" x1="112.29" gradientTransform="matrix(1.0082046,0,0,1.0572894,-104.94637,-312.96782)">
      <stop stop-color="#b9d7ff" offset="0" id="stop22"/>
      <stop stop-color="#3c8dff" offset="1" id="stop24"/>
    </linearGradient>
    <inkscape:path-effect effect="offset" id="path-effect1038" is_visible="true" lpeversion="1" linejoin_type="miter" unit="mm" offset="0.019474025" miter_limit="4" attempt_force_join="false" update_on_knot_move="true"/>
    <linearGradient id="d-3" y2="446.77" xlink:href="#e" gradientUnits="userSpaceOnUse" x2="215.36" gradientTransform="matrix(0.99094,0,0,1.0073,134.73,-154.36)" y1="440.75" x1="209.71"/>
    <linearGradient id="e">
      <stop stop-color="#f70000" offset="0" id="stop845"/>
      <stop stop-color="#780000" offset="1" id="stop847"/>
    </linearGradient>
    <linearGradient id="c-3" y2="449.6" xlink:href="#f" gradientUnits="userSpaceOnUse" x2="194.27" gradientTransform="matrix(0.99094,0,0,1.0073,134.73,-154.36)" y1="456.24" x1="202.53"/>
    <linearGradient id="f">
      <stop stop-color="#baa492" offset="0" id="stop851"/>
      <stop stop-color="#fff" offset="1" id="stop853"/>
    </linearGradient>
    <linearGradient id="b-2" y2="449.64" xlink:href="#h" gradientUnits="userSpaceOnUse" x2="193.04" gradientTransform="matrix(0.99094,0,0,1.0073,134.73,-154.36)" y1="457.89" x1="203.5"/>
    <linearGradient id="h">
      <stop offset="0" id="stop857"/>
      <stop stop-color="#7e7e7e" offset="1" id="stop859"/>
    </linearGradient>
    <linearGradient id="a-5" y2="462.65" xlink:href="#g" gradientUnits="userSpaceOnUse" x2="196.75" gradientTransform="matrix(0.99094,0,0,1.0073,134.73,-154.36)" y1="458.87" x1="193.01"/>
    <linearGradient id="g">
      <stop stop-color="#c00000" offset="0" id="stop863"/>
      <stop offset="1" id="stop865"/>
    </linearGradient>
    <inkscape:path-effect effect="offset" id="path-effect1038-4" is_visible="true" lpeversion="1" linejoin_type="miter" unit="mm" offset="0.019474025" miter_limit="4" attempt_force_join="false" update_on_knot_move="true"/>
  </defs>
  <sodipodi:namedview id="base" pagecolor="#ffffff" bordercolor="#666666" borderopacity="1.0" inkscape:pageopacity="0.0" inkscape:pageshadow="2" inkscape:zoom="3.5781987" inkscape:cx="-36.33113" inkscape:cy="23.754969" inkscape:document-units="px" inkscape:current-layer="layer1" inkscape:pagecheckerboard="0" showgrid="true" units="px" showguides="true" inkscape:guide-bbox="true" inkscape:snap-global="true" inkscape:snap-bbox="true" inkscape:snap-page="true" inkscape:window-width="1920" inkscape:window-height="1017" inkscape:window-x="-8" inkscape:window-y="-8" inkscape:window-maximized="1" inkscape:snap-grids="true" inkscape:bbox-paths="true" inkscape:bbox-nodes="true">
    <sodipodi:guide position="0,22" orientation="0,1" id="guide10894" inkscape:label="" inkscape:locked="false" inkscape:color="rgb(0,0,255)"/>
    <sodipodi:guide position="22,24" orientation="-1,0" id="guide10978" inkscape:label="" inkscape:locked="false" inkscape:color="rgb(0,0,255)"/>
    <sodipodi:guide position="11.065513,2" orientation="0,1" id="guide10982" inkscape:label="" inkscape:locked="false" inkscape:color="rgb(0,0,255)"/>
    <sodipodi:guide position="2,22" orientation="-1,0" id="guide10986" inkscape:label="" inkscape:locked="false" inkscape:color="rgb(0,0,255)"/>
    <inkscape:grid type="xygrid" id="grid826"/>
  </sodipodi:namedview>
  <metadata id="metadata10434">
    <rdf:RDF>
      <cc:Work rdf:about="">
        <dc:format>image/svg+xml</dc:format>
        <dc:type rdf:resource="http://purl.org/dc/dcmitype/StillImage"/>
      </cc:Work>
    </rdf:RDF>
  </metadata>
  <g inkscape:label="Layer 1" inkscape:groupmode="layer" id="layer1">
    <path id="path2264" style="fill:#333333;fill-opacity:1;stroke:none;stroke-width:1px;stroke-linecap:round;stroke-linejoin:round;stroke-opacity:1" sodipodi:type="inkscape:offset" inkscape:radius="0" inkscape:original="M 11.375 11 L 5.1015625 19 L 18.101562 19 L 11.375 11 z " d="M 11.375,11 5.1015625,19 H 18.101562 Z"/>
    <path id="rect942" style="color:#000000;fill:#333333;stroke-linecap:round;stroke-linejoin:round;-inkscape-stroke:none;paint-order:markers stroke fill" d="M 20.998047 7.1679688 L 21.486328 7.65625 A 2.0001996 2.0001996 0 0 1 21.626953 7.8125 A 2.0001996 2.0001996 0 0 1 21.75 7.9804688 A 2.0001996 2.0001996 0 0 1 21.853516 8.1621094 A 2.0001996 2.0001996 0 0 1 21.939453 8.3535156 A 2.0001996 2.0001996 0 0 1 21.998047 8.5351562 L 21.998047 4.5 A 0.50005 0.50005 0 0 0 21.900391 4.21875 A 2.0001996 2.0001996 0 0 1 21.853516 4.3222656 A 2.0001996 2.0001996 0 0 1 21.75 4.5039062 A 2.0001996 2.0001996 0 0 1 21.626953 4.671875 A 2.0001996 2.0001996 0 0 1 21.486328 4.828125 L 20.998047 5.3164062 L 20.998047 7.1679688 z "/>
    <path id="path3945" style="color:#000000;fill:#333333;stroke-linecap:round;stroke-linejoin:round;-inkscape-stroke:none;paint-order:markers stroke fill" d="M 9.6992188 4 L 2.4980469 4 A 0.50005 0.50005 0 0 0 1.9980469 4.5 L 1.9980469 19.5 A 0.50005 0.50005 0 0 0 2.4980469 20 L 21.498047 20 A 0.50005 0.50005 0 0 0 21.998047 19.5 L 21.998047 9.6054688 A 2.0001996 2.0001996 0 0 1 21.939453 9.7871094 A 2.0001996 2.0001996 0 0 1 21.853516 9.9785156 A 2.0001996 2.0001996 0 0 1 21.75 10.160156 A 2.0001996 2.0001996 0 0 1 21.626953 10.328125 A 2.0001996 2.0001996 0 0 1 21.486328 10.484375 L 20.998047 10.972656 L 20.998047 19 L 2.9980469 19 L 2.9980469 5 L 10.34375 5 L 10.171875 4.828125 A 2.0001996 2.0001996 0 0 1 9.8046875 4.3222656 A 2.0001996 2.0001996 0 0 1 9.6992188 4 z "/>
    <circle style="fill:#0071bc;stroke:#0071bc;stroke-width:1;stroke-linecap:round;stroke-linejoin:round;paint-order:markers stroke fill;stop-color:#000000;fill-opacity:1;stroke-opacity:1" id="path1599" cx="7.5" cy="9.5" r="2"/>
    <path id="path22470" style="fill:#333333;fill-opacity:1;stroke:none;stroke-width:1px;stroke-linecap:round;stroke-linejoin:round;stroke-opacity:1" d="M 15.90625 10.5625 L 14.380859 12.742188 L 19.003906 18.240234 L 19.724609 18.988281 L 20 19 L 21 19 L 21 14 L 19.59375 12.242188 A 2.0001996 2.0001996 0 0 1 19.175781 12.416016 A 2.0001996 2.0001996 0 0 1 18.658203 12.484375 A 2.0001996 2.0001996 0 0 1 18.140625 12.416016 A 2.0001996 2.0001996 0 0 1 17.658203 12.216797 A 2.0001996 2.0001996 0 0 1 17.244141 11.898438 L 15.90625 10.5625 z "/>
    <path id="line4" style="fill:#333333;stroke-miterlimit:10" d="m -4.0664062,-37.037109 -1.4140626,1.414062 2.828125,2.828125 -2.828125,2.828125 1.4140626,1.414063 2.828125,-2.828125 2.8300781,2.828125 1.4140625,-1.414063 -2.82812502,-2.828125 2.82812502,-2.828125 -1.4140625,-1.414062 -2.8300781,2.828125 z" transform="translate(17.066406,39.037109)"/>
  </g>
</svg>
