<?xml version="1.0" encoding="UTF-8" standalone="no"?>
<svg
   xmlns:dc="http://purl.org/dc/elements/1.1/"
   xmlns:cc="http://creativecommons.org/ns#"
   xmlns:rdf="http://www.w3.org/1999/02/22-rdf-syntax-ns#"
   xmlns:svg="http://www.w3.org/2000/svg"
   xmlns="http://www.w3.org/2000/svg"
   xmlns:sodipodi="http://sodipodi.sourceforge.net/DTD/sodipodi-0.dtd"
   xmlns:inkscape="http://www.inkscape.org/namespaces/inkscape"
   version="1.1"
   viewBox="0 0 16 16"
   id="svg2"
   inkscape:version="0.91 r13725"
   sodipodi:docname="ExtractLinkFromTextAction.svg"
   width="16"
   height="16">
  <sodipodi:namedview
     pagecolor="#ffffff"
     bordercolor="#666666"
     borderopacity="1"
     objecttolerance="10"
     gridtolerance="10"
     guidetolerance="10"
     inkscape:pageopacity="0"
     inkscape:pageshadow="2"
     inkscape:window-width="1113"
     inkscape:window-height="480"
     id="namedview47"
     showgrid="false"
     inkscape:zoom="14.75"
     inkscape:cx="-1.1346272"
     inkscape:cy="8"
     inkscape:window-x="720"
     inkscape:window-y="96"
     inkscape:window-maximized="0"
     inkscape:current-layer="svg2" />
  <defs
     id="defs4">
    <radialGradient
       id="a"
       gradientUnits="userSpaceOnUse"
       cy="315.41"
       cx="298.10001"
       gradientTransform="matrix(1.131,0,0,1.1312,-22.1,-17.655)"
       r="149.3">
      <stop
         stop-color="#007fff"
         offset="0"
         id="stop7" />
      <stop
         stop-color="#1c8eff"
         offset=".39286"
         id="stop9" />
      <stop
         stop-color="#1a4a7a"
         offset="1"
         id="stop11" />
    </radialGradient>
    <radialGradient
       id="b"
       spreadMethod="reflect"
       gradientUnits="userSpaceOnUse"
       cy="249.47"
       cx="317.85999"
       gradientTransform="matrix(0.92255,0.54994,-0.61282,1.0614,218.04,-49.879)"
       r="141.81">
      <stop
         stop-color="#b8ff71"
         offset="0"
         id="stop14" />
      <stop
         stop-color="#6c0"
         offset="1"
         id="stop16" />
    </radialGradient>
    <radialGradient
       id="c"
       gradientUnits="userSpaceOnUse"
       cx="298.67001"
       cy="309.10999"
       r="130.08"
       gradientTransform="matrix(0.24362,0.87764,-1.1344,0.31491,586.41,-25.658)">
      <stop
         stop-color="#fff"
         stop-opacity=".86735"
         offset="0"
         id="stop19" />
      <stop
         stop-color="#fff"
         stop-opacity="0"
         offset="1"
         id="stop21" />
    </radialGradient>
  </defs>
  <metadata
     id="metadata23">
    <rdf:RDF>
      <cc:Work
         rdf:about="">
        <dc:format>image/svg+xml</dc:format>
        <dc:type
           rdf:resource="http://purl.org/dc/dcmitype/StillImage" />
        <dc:title></dc:title>
      </cc:Work>
    </rdf:RDF>
  </metadata>
  <g
     id="g4446">
    <g
       transform="matrix(0.053575,0,0,0.053575,-11.37,-14.262)"
       id="g31">
      <path
         d="m 361.52,266.24 c -26.481,0 -51.311,6.9656 -72.882,19.078 -0.0135,0.008 -0.0407,-0.008 -0.0541,0 -13.958,7.8431 -26.446,17.93 -37.17,29.67 -24.263,26.559 -39.223,61.789 -39.223,100.58 0,82.436 66.919,149.32 149.33,149.32 2.5937,0 5.1106,-0.2475 7.6718,-0.37835 4.1212,-0.21072 8.1835,-0.54189 12.21,-1.081 37.336,-4.9964 70.315,-23.697 93.628,-51.017 22.259,-26.086 35.766,-59.887 35.766,-96.846 0,-18.861 -3.6075,-36.83 -9.9949,-53.449 -3.1327,-8.1514 -7.0048,-15.955 -11.454,-23.347 -19.28,-32.034 -50.148,-56.199 -86.875,-66.69 -13.038,-3.7242 -26.724,-5.8368 -40.952,-5.8368 z"
         id="path33"
         style="fill:url(#a)"
         inkscape:connector-curvature="0" />
      <path
         d="m 340.38,270.95 c -0.53748,0 -1.3878,0.0981 -1.7524,0.58444 -0.35197,0.46939 -0.68987,1.0794 -1.0708,1.4603 -0.22822,0.22827 -0.4672,0.87639 -1.0709,0.87639 -0.3483,0 -1.5018,-0.18792 -1.7523,0 -0.46412,0.34834 -1.1189,0.67898 -1.2656,1.2658 -0.18838,0.75367 -0.82657,0.63186 -1.3628,1.1683 -0.30271,0.30282 -1.0106,0.86135 -1.4603,0.97381 -0.58787,0.14689 -1.1038,0.29187 -1.7524,0.29202 -0.49352,0 -1.1789,-0.11892 -1.655,0 -0.7773,0.19439 -1.1842,0.90474 -1.8496,1.071 -0.60493,0.15129 -0.87906,0.39324 -1.1683,0.77897 -0.37359,0.49812 -1.2422,0.77882 -1.8496,0.77882 -0.93276,0 -0.97328,0.17022 -1.655,0.68155 -0.48424,0.36323 -1.3306,0.48679 -1.9471,0.48679 -0.82768,0 -2.0004,0.0266 -2.7258,0.38937 -0.49389,0.2472 -1.1487,0.34082 -1.3629,0.87647 -0.34195,0.85488 -0.62856,0.94706 -1.4603,1.3632 -0.48387,0.24203 -1.5504,0.57662 -1.9471,0.97336 -0.30247,0.30274 -0.47035,1.3804 -0.876,1.4607 0.0286,0.0172 0.63783,0.54872 0.77871,0.58405 0.59866,0.14985 1.3774,0.0974 2.0444,0.0974 0.80608,0 1.5096,0.0974 2.3364,0.0974 0.71097,0 1.1336,-0.48687 1.7524,-0.48687 0.82867,0 1.6536,-3e-4 2.4338,0.19477 0.6504,0.16253 1.2633,0.38944 1.9469,0.38944 0.72399,0 1.132,-0.0396 1.7524,-0.19476 0.7873,-0.19689 1.2614,-0.15669 1.655,-0.68147 0.3463,-0.46194 0.63815,-0.7463 1.0709,-1.0712 0.34584,-0.25936 1.6551,-1.6551 1.947,-1.6553 0.72554,0 1.2558,-0.21626 1.9469,-0.3893 0.47497,-0.11877 0.49358,-1.2645 0.97364,-1.1684 0.28198,0.0565 0.8606,0.75861 1.1682,0.68155 0.26769,-0.067 0.59902,-0.13974 0.87622,-0.0972 0.27719,0.0421 0.50166,0.25397 0.58414,0.58406 0.16219,0.64887 0.34928,0.62805 0.68136,1.071 0.16278,0.2171 0.97125,1.1778 0.87614,1.5579 -0.11553,0.46279 -0.22576,1.2386 -0.0971,1.7524 0.12883,0.51604 0.15335,1.086 0.38927,1.5579 0.1577,0.31551 0.60322,1.0497 0.68151,1.363 0.15247,0.61051 0.49172,0.59425 0.77886,1.1684 0.34181,0.68405 0.17176,0.98208 -0.0974,1.6551 -0.23024,0.57577 -0.5659,1.2421 -0.38959,1.9474 0.0365,0.14544 0.0612,0.34104 0.0975,0.48686 0.10872,0.43566 0.17116,0.67153 0.29208,0.77875 0.12068,0.1073 0.29034,0.0975 0.77862,0.0975 0.5745,0 1.3664,0.003 1.655,0.29195 0.39025,0.39051 0.77893,0.60981 0.77893,1.1684 0,0.40199 -0.22216,1.4742 -0.58429,1.6552 -0.26171,0.131 -1.0707,0.83398 -1.0707,1.2657 0,0.54227 0.0973,1.1544 0.0973,1.6552 0,0.10942 -0.0265,0.28367 0,0.3896 0.16159,0.64644 0.29911,1.4742 0.58415,2.0446 0.22439,0.44872 0.72763,0.84546 0.97357,1.4605 0.21723,0.5434 0.23868,1.3538 0.48672,1.85 0.27405,0.54827 0.54817,0.99934 0.77877,1.4604 0.27316,0.54637 0.43745,1.6059 0.87616,2.0448 0.51699,0.51704 0.72374,0.86773 1.1684,1.4604 0.38143,0.5089 0.86597,1.1582 1.2653,1.5578 0.35482,0.35503 0.71665,0.81408 1.1685,1.2658 0.92967,0.93004 1.4911,1.4759 2.6283,2.0447 0.58243,0.29134 1.2589,0.58072 1.8496,0.87624 0.66767,0.33397 1.2321,0.77814 1.7524,1.1684 0.59162,0.44378 1.2067,1.0855 2.0444,0.87623 0.726,-0.1816 1.8432,-0.0454 2.5311,-0.38959 0.22627,-0.113 0.47535,-0.18664 0.68142,-0.38922 0.20631,-0.20267 0.38129,-0.50313 0.19465,-0.87654 -0.15164,-0.30336 -0.48671,-0.79614 -0.48671,-1.2655 0,-0.79781 -0.19464,-1.5158 -0.19464,-2.3367 0,-0.58163 -0.0349,-1.0294 0.0973,-1.558 0.10438,-0.41795 0.13392,-1.0213 0,-1.5577 -0.16487,-0.66028 -0.031,-1.2925 -0.19464,-1.9474 -0.13594,-0.54393 -0.0974,-1.2445 -0.0974,-1.8498 0,-0.56742 -0.0323,-1.039 0.0974,-1.5578 0.15246,-0.60998 0.0974,-1.246 0.0974,-1.85 0,-0.51787 -0.0867,-1.0926 0.0973,-1.4605 0.18792,-0.376 0.434,-1.2806 0.97351,-1.4606 0.45538,-0.15167 2.0444,-0.49584 2.0444,-1.0708 0,-0.64121 -0.061,-1.12 -0.19479,-1.6552 -0.15381,-0.61529 -0.55738,-1.2216 -0.19464,-1.9473 0.41695,-0.8343 1.2333,-1.0605 1.7524,-1.7526 0.29543,-0.39416 0.80712,-0.80724 1.2654,-1.2658 0.34449,-0.34431 1.1008,-0.64371 1.2657,-0.97358 0.21356,-0.42714 0.48678,-1.0631 0.48678,-1.558 0,-0.34856 0.15149,-1.5794 -0.19478,-1.7526 -0.50384,-0.25183 -1.0708,-0.16338 -1.0708,-0.77889 0,-0.40913 0.44148,-1.356 0.29207,-1.6552 -0.23613,-0.47258 -0.49943,-0.87943 -1.2656,-1.0709 -0.60374,-0.15098 -1.434,-0.26741 -2.0443,-0.38944 -0.36969,-0.0739 -1.2108,-0.1826 -1.3629,-0.48679 -0.17341,-0.34697 -0.34255,-1.2912 -0.68142,-1.4607 -0.55232,-0.27622 -1.1762,-0.29195 -1.8498,-0.29195 -0.17019,0 -2.2708,-0.50335 -1.5574,-0.68141 0.70909,-0.17743 0.68808,-0.3057 0.97335,-0.87646 0.16189,-0.32379 0.48716,-0.87579 0.19471,-1.2657 -0.4073,-0.54348 -0.96176,-0.76728 -1.3629,-1.1685 -0.53247,-0.53268 -1.7658,-0.77882 -2.5311,-0.77882 -0.10902,0 -0.18627,0.0264 -0.29207,0 -0.43138,-0.1079 -0.83337,-0.54142 -1.1682,-0.87632 -0.49621,-0.49658 -1.3952,-0.71399 -2.0444,-0.87623 -0.49136,-0.12281 -0.7921,-0.53892 -1.3629,-0.68171 -0.56305,-0.14058 -1.1666,-0.14529 -1.7524,-0.29194 -0.76487,-0.19135 -1.5811,-0.33589 -2.3365,-0.48703 -0.28048,-0.0559 -2.2611,-0.20266 -2.1417,-0.6814 0.0731,-0.29294 0.44926,-0.97358 0.87615,-0.97358 0.58579,0 1.2778,0.11451 1.8498,0 0.74649,-0.1494 1.5124,-0.29233 2.3365,-0.29211 0.75171,0 1.5084,0.0486 2.2388,0.1947 0.91301,0.18275 1.9244,0.0672 2.8233,0.29209 0.70618,0.17653 1.7942,0.29204 2.5311,0.29204 1.0381,0 2.2472,-0.0974 3.31,-0.0974 1.6236,0 3.0738,-0.3893 4.6728,-0.3893 0.92521,0 1.2415,-0.56407 1.9471,-0.68155 0.35751,-0.0596 0.66175,-0.16277 0.77872,-0.29226 0.11716,-0.1291 0.0151,-0.26391 -0.48672,-0.38945 -0.61061,-0.15259 -1.3147,0.0606 -1.947,-0.0973 -0.47519,-0.11877 -1.23,-0.29187 -1.7523,-0.29187 -0.75126,0 -1.3944,-0.0974 -2.1417,-0.0974 -0.5348,0 -1.0174,0.15678 -1.5575,0.29196 -0.71163,0.17804 -1.3953,0 -2.1418,0 l -2.3365,0 c -1.046,0 -2.1446,-0.19453 -3.1152,-0.19453 -0.6326,0 -1.2514,-0.0974 -1.7524,-0.0974 -0.99452,0 -2.1473,-0.003 -2.9206,-0.38944 -0.72083,-0.36072 -1.2437,-0.57889 -2.0444,-0.77905 -0.37006,-0.0926 -1.2283,-1.0712 -1.5576,-1.0712 z m 62.11,1.1684 c -1.2203,0.25426 -2.4801,0.40099 -3.602,0.68178 -1.4192,0.35472 -2.2943,1.0084 -3.6019,0.6814 -0.9098,-0.22744 -1.7738,-0.29629 -2.7259,-0.48687 0.30897,0.3092 0.16038,0.71218 -0.0974,1.071 -0.25775,0.35898 -0.67978,0.63178 -0.87622,0.77897 -0.0287,0.0215 -2.2446,0.26916 -2.3364,0.29218 -0.52753,0.13185 -0.32197,0.48695 0,0.87624 0.32214,0.38953 0.81558,0.73946 0.97366,0.77889 1.2037,0.30115 2.7229,1.0208 3.7966,1.5578 0.46151,0.23086 0.67754,0.41309 0.77872,0.68163 0.10139,0.2684 0.0887,0.64653 0.19478,1.0711 0.20937,0.83779 0.33185,1.0908 1.0709,1.4604 0.64635,0.32326 2.0968,0.38952 2.8231,0.38952 1.1768,0 2.9171,0.58308 3.7967,0.87616 0.74148,0.2472 1.8425,1.064 2.3364,1.5579 0.51288,0.51316 1.0021,0.81681 1.5577,1.5579 0.64344,0.85801 1.2946,1.3288 2.1416,1.7524 0.7322,0.36627 1.8769,0.35441 2.3364,0.58413 0.83613,0.41825 1.8521,1.0736 2.4339,1.6553 0.68614,0.68641 1.2315,1.3288 1.7522,1.85 0.67641,0.67653 0.83883,1.4324 1.655,2.0446 0.83547,0.62684 1.5062,1.1168 2.1418,1.7526 0.73721,0.73725 1.3959,1.1038 2.0444,1.7524 0.51012,0.51034 1.0152,1.2517 1.8496,1.4606 1.1352,0.28383 1.8573,-0.43998 2.8232,-0.68155 0.47318,-0.11855 2.1859,1.6639 2.4336,1.85 0.57419,0.43034 1.1287,1.2839 1.3631,1.7525 0.26651,0.53337 1.1696,1.2673 1.5576,1.6552 0.75015,0.75024 0.92834,0.90238 1.8496,1.363 0.37761,0.18883 0.80824,0.22007 1.1681,0.0973 0.36019,-0.12234 0.60814,-0.38846 0.68157,-0.68171 0.2034,-0.81369 0.51558,-1.2477 0.292,-2.1418 -0.13161,-0.52692 -0.0499,-1.1268 0.19465,-1.5579 0.24488,-0.43101 0.64313,-0.65206 1.3631,-0.2921 0.51423,0.25745 0.84144,1.0989 1.0709,1.558 0.32348,0.64757 0.77871,1.504 0.77871,2.4339 l 0,2.2396 c 0,0.35456 4.0946,2.6346 4.1861,2.7263 0.52485,0.52463 1.2323,0.85405 1.8496,1.2656 0.67948,0.45312 1.1186,0.90017 2.0444,1.3632 0.525,0.26255 0.80795,0.74956 0.97366,1.2657 0.16554,0.51612 0.20458,1.0315 0.0974,1.4604 -0.12016,0.48124 0.28655,1.5801 0.0974,2.3368 -0.14663,0.58702 -0.25498,1.0523 -0.19471,1.3631 0.0601,0.3108 0.31122,0.44766 0.97342,0.77882 0.96049,0.48026 1.3235,1.2422 2.3364,1.85 0.52985,0.31802 0.94545,4.0329 1.2656,4.6736 0.36887,0.73786 0.78298,1.7354 0.58408,2.5314 -0.21595,0.86393 -0.58408,1.5049 -0.58408,2.4341 0,0.66225 -0.51909,1.5899 -0.6815,2.2394 -0.15471,0.61985 -0.44932,1.2743 -0.58414,1.7526 -0.13474,0.4782 -0.10955,0.79348 0.58414,1.071 0.9018,0.36088 2.3857,0.7789 3.3099,0.7789 l 2.9206,0 c 0.46436,0 0.93305,0.93209 1.3629,1.9473 0.43003,1.0152 0.79126,2.1068 0.87629,2.5315 0.17999,0.90116 0.41583,1.292 0.97344,1.8499 0.73129,0.73163 1.8004,1.3606 2.0444,2.3368 0.27839,1.1145 0.66297,1.3997 0.19465,2.3368 -0.22785,0.45602 -1.8277,0.81658 -2.3364,1.071 -0.73034,0.36528 -1.9578,0.49857 -3.0179,0.77897 -0.52993,0.1402 -1.0112,0.34492 -1.363,0.58414 -0.3516,0.23913 -0.58408,0.55548 -0.58408,0.97365 0,0.95314 0.38361,1.3516 0.77894,2.142 0.42988,0.86036 0.82738,1.525 1.3629,2.2394 0.0874,0.11642 0.18902,0.28656 0.29207,0.38945 0.59372,0.59394 0.5312,1.5199 1.0709,2.2394 0.74395,0.9928 1.1112,1.8336 1.6548,2.9211 0.52343,1.0469 1.7046,1.8519 2.3364,3.1154 0.35294,0.70618 0.97366,2.0508 0.97366,3.0185 0,0.76339 0.40281,1.5139 0.58406,2.2394 0.13826,0.55327 0.69984,1.0907 1.2656,1.4605 0.56591,0.36969 1.1392,0.64979 1.655,0.77882 0.911,0.22782 1.9677,0.0973 2.9206,0.0973 1.009,0 1.6271,-0.29188 2.5311,-0.29188 0.52118,0 1.2605,-1.3564 1.5576,-1.7527 0.65047,-0.86751 1.0291,-1.3903 1.2655,-2.3366 0.12749,-0.51035 0.26036,-1.0194 0.29215,-1.5581 0.0315,-0.53832 -0.0711,-1.0444 -0.4868,-1.4603 -0.35428,-0.3545 -0.41455,-0.70382 -0.38943,-1.0712 0.0251,-0.36696 0.13542,-0.73201 0.38943,-1.0708 0.1364,-0.18199 0.19465,-2.5151 0.19465,-2.6289 0,-0.0944 -1.2363,-1.6485 -1.4602,-1.9472 -0.54684,-0.72927 -0.68526,-1.6623 -1.0709,-2.4342 -0.4159,-0.83232 -0.48672,-1.5629 -0.48672,-2.6288 l 0,-2.4342 c 0,-1.1139 -0.50943,-1.483 -1.0709,-2.0446 -0.59103,-0.5912 -0.56702,-1.1 -0.77871,-1.9474 -0.14544,-0.58132 -0.0782,-0.92214 0.0973,-1.1683 0.17564,-0.24635 0.51445,-0.41034 0.87613,-0.6817 0.59918,-0.44933 0.77886,-1.3973 0.77886,-2.1418 -1.4e-4,-0.53748 -0.16861,-1.0813 -0.19464,-1.4606 -0.0262,-0.37941 0.058,-0.67174 0.48672,-0.77882 0.39443,-0.0989 0.84107,0.2257 1.1681,0.58406 0.32722,0.35844 0.54773,0.79531 0.68143,0.97373 0.50721,0.67647 0.61114,1.0668 1.2657,1.5578 0.87936,0.65989 2.1626,0.98407 2.9206,1.3633 0.80122,0.40077 1.5341,0.80975 2.1416,1.2656 0.75283,0.56483 1.3814,1.0896 1.8496,1.5577 0.44716,0.44727 0.57742,1.3218 0.97366,1.85 0.41515,0.55374 0.88122,0.68642 1.3628,1.1685 0.51984,0.51992 0.81535,1.5336 1.0709,2.0446 0.28311,0.56643 0.48021,0.78634 0.68129,0.77889 0.20144,-0.007 0.45142,-0.2744 0.87629,-0.48679 0.26866,-0.13457 -0.41845,-2.1605 -0.48679,-2.4342 -0.19015,-0.76089 -1.2633,-1.845 -1.5576,-2.4341 -0.31429,-0.62867 -0.21288,-0.89752 0,-0.87639 0.21259,0.0214 0.55946,0.26756 0.77871,0.48686 0.64404,0.64417 1.2586,0.86218 1.7524,1.85 0.21387,0.42767 1.027,1.027 1.4603,1.4605 0.63446,0.63474 0.54644,1.2128 0.77877,2.1422 0.0822,0.32865 0.28722,0.40723 0.4868,0.38922 0.19942,-0.0176 0.44677,-0.18154 0.68157,-0.38922 0.46936,-0.41581 0.95211,-1.0288 1.0707,-1.2658 0.2911,-0.58246 0.37829,-1.2322 0.58407,-1.85 0.26815,-0.80473 0.13707,-1.4994 -0.0972,-2.1421 -0.23456,-0.6428 -0.62705,-1.2267 -0.87629,-1.85 -0.22283,-0.55716 -0.56731,-1.0432 -0.87614,-1.5579 -0.93611,-1.5604 -1.7112,-3.0331 -2.531,-4.6734 -0.0402,-0.0802 -0.0579,-0.11391 -0.0974,-0.19484 -19.28,-32.034 -50.11,-56.204 -86.837,-66.695 z m -95.015,12.852 c -0.49,0 -1.2718,0.92829 -1.5575,1.0712 -0.62684,0.31338 -1.2814,1.034 -1.8499,1.4603 -0.59124,0.44363 -1.0912,0.8428 -1.6548,1.2658 -0.64318,0.48253 -1.0698,0.58428 -2.0445,0.58428 -0.92453,2.3e-4 -0.94527,0.4238 -1.655,0.77897 -0.83014,0.41506 -1.5977,1.7351 -1.947,2.434 -0.32916,0.65876 -0.80164,1.4832 -1.1682,1.85 -0.4456,0.44577 -1.2398,0.7172 -1.7523,0.97374 -0.61121,0.3054 -0.38935,1.5121 -0.38935,2.142 0,0.4209 -1.6408,0.48694 -1.7523,0.48694 -0.22333,0 -1.5171,-1.9068 -1.655,-2.0448 -0.68854,-0.68885 -0.3302,-0.81271 -1.363,-1.0711 -0.55911,-0.13975 -1.0137,-0.0921 -1.2656,-0.19469 -0.25181,-0.10258 -0.38936,-0.37805 -0.38936,-1.0709 0,-0.75116 0.89912,-1.094 1.2656,-1.4606 0.44551,-0.44537 1.3225,-0.75868 1.7523,-0.97357 0.62628,-0.31338 0.89034,-0.89031 1.3629,-1.3632 0.58692,-0.58702 0.68148,-1.2621 0.68148,-2.142 0,-0.27448 -1.3851,-0.83863 -1.655,-0.97359 -0.61809,-0.3092 -1.0106,-0.9922 -1.7523,-1.3632 -0.0134,0.008 -0.084,-0.007 -0.0974,0 -13.958,7.843 -26.464,17.859 -37.188,29.599 -0.11965,0.60146 -0.17553,1.3248 -0.38948,1.7525 -0.40869,0.81795 -0.98214,0.98233 -1.5576,1.558 -0.43081,0.43086 -0.65958,1.2363 -0.97343,1.6553 -0.45201,0.60253 -1.1374,0.84531 -1.6549,1.363 -0.50167,0.50177 -0.48668,1.643 -0.48668,2.3369 0,0.6567 0.29017,0.89843 0.58399,0.87609 0.29377,-0.0223 0.54911,-0.31923 0.7789,-0.77882 0.28424,-0.56886 1.7085,-1.4519 2.2391,-1.85 0.72789,-0.54621 1.7645,-0.90041 2.1417,-1.6552 0.34102,-0.68216 0.6663,-1.1075 0.87615,-1.9472 0.27888,-1.116 0.89589,-1.5972 1.4602,-2.7264 0.20171,0.63027 0.53139,1.4077 1.1683,2.0448 0.29131,0.2915 0.4275,0.71362 0.38942,1.0711 -0.0381,0.35738 -0.25038,0.69538 -0.38942,0.97343 -0.21908,0.43861 -1.1006,1.1009 -1.5577,1.558 -0.55355,0.55382 -0.85815,0.54812 -1.1681,1.1685 -0.33476,0.66954 -0.89093,0.83711 -1.0709,1.5576 -0.16822,0.6732 -0.51313,1.1767 -0.68141,1.8498 -0.24023,0.96112 -0.0808,1.5413 -0.77892,2.2396 -0.47339,0.47349 -0.74127,1.4073 -0.87626,1.9474 -0.23927,0.95793 -0.66923,1.2078 -1.2655,1.655 -0.64984,0.48778 -0.8846,1.494 -1.071,2.2396 -0.24384,0.97571 -1.4048,2.0305 -1.8496,2.9209 -0.38219,0.76468 -0.68239,0.87806 -1.0708,1.6553 -0.26977,0.53992 -0.30882,1.4301 -0.48687,2.1419 -0.19747,0.79022 -0.64214,1.5378 -1.1682,2.2393 -0.0872,0.11664 -0.28645,0.18929 -0.38935,0.29218 -0.51974,0.52 -0.87616,1.7197 -0.87616,2.4341 0,0.66505 -0.89675,1.8347 -1.0708,2.5314 -0.237,0.9479 -0.42295,1.7221 -0.77896,2.434 -0.4392,0.8789 -0.85536,1.2243 -1.2655,2.0447 -0.45116,0.90283 -0.71426,1.4288 -1.0708,2.1421 -0.28641,0.57327 -0.292,1.3961 -0.292,2.1422 0,0.65579 -0.2286,1.6931 -0.38937,2.3366 -0.17837,0.71339 0,1.6975 0,2.4343 0,0.95436 -0.34129,1.5095 -0.87627,2.0446 -0.62697,0.62714 -1.028,0.99691 -1.2655,1.9474 -0.15033,0.60161 -0.55275,1.3978 -0.87611,2.0444 -0.42796,0.85602 -0.47983,1.3535 -1.071,2.1422 -0.44569,0.5944 -0.76898,1.5186 -0.97346,2.3367 -0.21727,0.86939 -0.28774,1.549 -0.68138,2.3368 -0.39638,0.7931 -0.48183,1.3432 -0.68148,2.142 -0.19348,0.77465 -0.51905,1.3304 -0.77884,1.85 -0.37545,0.75101 -0.3892,1.5567 -0.58411,2.3368 -0.21258,0.85085 -0.29199,1.8723 -0.29199,2.7259 0,0.74842 -0.38948,1.6626 -0.38948,2.5316 0,0.89774 -0.094,1.6412 -0.292,2.4342 -0.19109,0.76468 -0.0974,1.5819 -0.0974,2.4341 0,1.2116 -0.29199,2.3703 -0.29199,3.6025 0,0.9473 0.37408,1.1072 0.5841,1.9473 0.18482,0.74007 0.11089,1.6124 0.29194,2.3365 0.0885,0.35382 0.19486,0.64204 0.19486,1.0714 0.29416,1.1774 1.0709,1.5255 1.0709,2.726 0,0.9438 0.099,1.3696 0.29188,2.1421 0.18837,0.75337 0,1.7509 0,2.5314 0,0.77934 -0.30145,1.7902 -0.48667,2.5315 -0.025,0.0998 0,0.18899 0,0.29203 0,0.93133 -0.292,1.9171 -0.292,2.9209 0,0.28587 0.57618,1.6395 0.77867,2.0447 0.3758,0.75162 0.58001,1.833 0.77886,2.6291 0.29404,1.1766 0.62549,2.1961 1.0708,3.3103 0.35459,0.8865 0.39684,1.5763 0.77879,2.5312 0.24998,0.62471 -0.0383,1.7939 0.0974,2.3369 0.1896,0.75846 0.19472,1.647 0.19472,2.4341 0,0.88719 0.19486,1.59 0.19486,2.434 -1.6e-4,0.84302 0.10479,1.588 0.29195,2.3368 0.2238,0.89607 0.0974,1.558 0.38941,2.142 0.49398,0.9884 0.95758,1.2022 1.1682,2.0448 0.21059,0.84287 0.50161,1.6168 0.68153,2.3367 0.21048,0.84258 1.0676,1.5459 1.2655,2.3368 0.27183,1.0873 1.2564,2.0554 1.7523,3.2131 0.3071,0.71667 0.31149,1.5963 0.58421,2.142 0.2586,0.51734 1.4543,0.96902 1.8496,1.2657 0.36947,0.27713 0.36759,0.58885 0.48674,0.87632 0.1192,0.28762 0.31747,0.54188 0.87616,0.68155 0.66876,0.16717 1.1099,0.83246 1.5575,1.1683 0.58948,0.44234 -0.30801,-1.4272 -0.4866,-2.1419 -0.2021,-0.80853 -1.0138,-1.6573 -1.363,-2.2393 -0.32661,-0.5447 -0.0454,-1.8433 -0.29211,-2.3368 -0.40179,-0.80382 -0.76203,-1.4909 -0.97359,-2.3367 -0.22495,-0.90025 -0.65211,-1.7332 -0.8761,-2.629 -0.22826,-0.91407 -0.57459,-1.5387 -0.97347,-2.3367 -0.47687,-0.95421 -1.0708,-1.3042 -1.0708,-2.4342 0,-0.72554 -0.5567,-1.9896 -0.87617,-2.6288 -0.33623,-0.67259 -0.19475,-2.0268 -0.19475,-2.8236 0,-0.78239 -0.2921,-1.4218 -0.2921,-2.2393 0,-0.9656 -0.26384,-1.9319 -0.4868,-2.8236 -0.20489,-0.82031 -0.48656,-1.5539 -0.48656,-2.4342 0,-0.65063 0.17035,-0.87085 0.29194,-0.7789 0.12155,0.092 0.19462,0.51795 0.19462,1.0712 0,0.60571 0.82155,1.2408 0.97365,1.8498 0.21453,0.85853 0.36463,1.7505 0.58405,2.6289 0.17262,0.69076 -0.18819,1.6807 0,2.4343 0.21538,0.86211 0.6816,1.3618 0.6816,2.3366 0,0.814 0.29188,1.4055 0.29188,2.1422 0,0.53285 0.64624,1.6112 0.77885,2.1419 0.20882,0.83573 0.37767,1.7052 0.58404,2.5315 0.17496,0.69926 0.57345,1.6119 0.77885,2.4341 0.16692,0.66802 0.58399,1.4926 1.0708,2.1419 0.42357,0.56483 0.50447,1.593 0.77896,2.142 0.43566,0.8719 0.64511,1.3877 1.0707,2.2394 0.34542,0.69089 0.59933,1.2292 0.77886,1.9473 0.20311,0.81263 0.90916,1.9158 1.2655,2.6289 0.33932,0.67851 0.72031,1.4212 0.87628,2.0447 0.23003,0.92114 0.45401,1.9791 0.87611,2.8235 0.34165,0.68368 0.67652,1.3532 0.97347,1.9474 0.42499,0.85026 0.98134,1.468 1.5576,2.0447 0.70405,0.70396 1.681,1.0439 2.5311,1.4603 0.85022,0.41673 1.5344,0.88019 1.7523,1.7526 0.18853,0.75397 0.80274,1.6056 1.0709,2.1421 0.39656,0.7931 1.1415,1.5311 1.7523,2.1421 1.6161,1.6165 2.9799,3.3398 5.0623,4.3815 0.70519,0.35251 1.174,0.56111 2.0445,0.77882 0.87776,0.21953 1.5917,0.3092 2.3363,0.68147 0.7508,0.3757 1.4489,0.48694 2.3365,0.48694 0.35299,0 1.2446,0.82221 1.8497,0.97358 0.53929,0.13504 1.4126,-0.18252 2.1416,0 1.0024,0.25054 1.3196,-0.64378 2.3365,-0.38937 0.94155,0.23534 2.3845,2.3971 3.2125,3.0182 0.73331,0.55017 1.497,1.1301 2.3365,1.85 0.76774,0.65837 1.3015,1.0314 2.239,1.2658 0.74692,0.18693 1.1638,0.28967 1.7523,0.58413 0.62998,0.31513 1.6887,0.0973 2.4339,0.0973 0.71411,0 1.4297,1.0405 1.8496,1.4606 0.9978,0.99805 2.172,1.5657 2.8231,2.4342 0.57203,0.76287 0.89955,1.7758 1.5577,2.434 0.59225,0.59233 1.423,1.3256 2.1418,2.0447 0.59467,0.59477 1.2733,1.0048 1.4602,1.7522 0.19989,0.79995 1.16,1.1644 1.7524,1.4607 0.65289,0.32645 1.5332,0.52935 2.1418,0.68148 0.54293,0.13587 1.421,1.3338 1.8496,1.6553 0.32684,0.2453 2.005,-0.19468 2.5312,-0.19468 0.68569,0 1.5276,0.9985 1.9472,1.5579 0.47774,0.63748 0.77527,1.1683 1.6548,1.1683 0.90613,0 1.6645,-0.39887 2.2391,-0.97381 0.45584,-0.45556 0.58407,-1.6926 0.58407,-2.3365 0,-0.59864 1.546,0.7672 1.8497,1.0711 0.47505,0.47517 1.0977,1.1952 1.4603,1.5577 0.6848,0.68497 1.6172,1.5797 1.9471,2.2394 0.33081,0.66179 0.13894,1.544 0.48672,2.2394 0.38853,0.77745 0.70542,1.2325 1.1683,1.8498 0.49336,0.65815 0.4867,1.1886 0.4867,2.2394 0,0.84523 0.19465,1.5125 0.19465,2.3368 0,0.72069 -0.61547,1.002 -0.77878,1.6553 -0.1954,0.78163 -0.48672,1.3275 -0.48672,2.3368 0,0.69987 -1.2655,1.4034 -1.2655,2.4341 0,0.77906 0.78088,1.9559 0.97336,2.7261 0.22087,0.88384 0.46734,2.0058 0.87629,2.8237 0.47122,0.94272 1.2021,0.81681 1.4601,1.8499 0.22171,0.88688 0.27832,1.7947 0.48679,2.6288 0.19629,0.78558 0.68883,1.1 0.87622,1.85 0.16301,0.65275 0.6646,1.2489 1.0709,1.6552 0.50182,0.50191 1.3573,0.99652 2.0442,1.1683 1.2448,0.31109 1.7053,0.81331 2.3365,1.6553 0.55439,0.73938 0.83426,1.5263 1.6549,2.1421 0.81609,0.61217 1.1768,0.68975 1.7523,1.2656 0.13138,0.13131 0.23523,0.18913 0.38951,0.2921 0.77653,0.51787 0.99091,1.1769 1.9471,1.6553 0.77573,0.388 1.4402,1.0392 2.1416,1.4604 0.88931,0.53374 1.3535,0.92007 2.2392,1.363 0.76226,0.38139 1.348,1.1121 2.0444,1.4605 0.75777,0.37912 1.3186,0.69205 2.239,0.87624 0.74535,0.14925 1.7011,0.42524 2.3366,0.58429 0.96498,0.24134 1.8914,0.41034 2.6284,0.77882 0.69249,0.3462 1.45,1.1581 1.8496,1.5581 0.57539,0.57532 1.5389,1.0127 2.2392,1.3628 0.52859,0.26475 1.2581,0.72662 1.7522,0.97389 0.98427,0.49218 1.3714,1.1989 2.2391,1.8497 0.66835,0.50162 1.1251,1.1253 1.6549,1.6552 0.64584,0.64622 1.0361,1.5231 1.5576,2.0445 0.62237,0.62289 0.88282,1.2924 1.071,2.0447 0.23591,0.94448 0.88699,1.4823 1.2655,2.2396 0.37313,0.74636 1.4473,1.1831 1.947,1.8499 0.48477,0.64636 1.4314,0.94469 1.947,1.4604 0.67687,0.67707 1.2706,0.88278 1.8498,1.6553 0.56298,0.7507 1.1658,0.971 1.5575,1.3631 0.55341,0.55344 1.3543,0.82321 1.8496,1.0709 0.14918,0.0745 0.24055,0.13822 0.38957,0.19491 4.121,-0.21079 8.1423,-0.53215 12.169,-1.0712 0.0324,-0.0776 0.17169,-0.10267 0.19487,-0.19462 0.25648,-1.0266 1.5091,-1.826 2.0443,-2.6289 0.55357,-0.83072 1.4316,-0.92896 2.1416,-1.071 0.84458,-0.169 1.2187,-0.73209 1.8496,-1.363 0.64382,-0.64416 1.2594,-1.2573 1.8497,-2.0447 0.58234,-0.77669 0.79149,-1.3152 1.2656,-1.9472 0.5609,-0.74827 0.67897,-1.4556 1.0709,-2.2396 0.44836,-0.89721 0.92229,-1.581 1.655,-1.9473 0.85235,-0.42646 1.0975,-1.0776 1.8496,-1.2656 1.0055,-0.25168 1.4414,-0.6526 2.3363,-0.87639 0.72518,-0.18146 1.9182,-1.9183 2.3366,-2.3368 0.61451,-0.61476 1.0328,-1.0202 1.6549,-1.85 0.22955,-0.30609 0.41536,-0.70731 0.6815,-0.97365 0.20585,-0.25738 0.37835,-0.4241 0.58421,-0.68156 0.34531,-0.43185 0.3611,-1.8336 0.48657,-2.3367 0.17879,-0.71553 0.54294,-1.67 0.8763,-2.3369 0.34247,-0.68505 0.22985,-1.6276 0.58406,-2.3366 0.39422,-0.78839 0.64217,-1.4792 0.97366,-2.1421 0.37028,-0.74091 0.12113,-1.6053 0.48656,-2.3367 0.37604,-0.75199 0.60052,-1.4932 0.87622,-2.0446 0.39473,-0.78985 0.25154,-1.0505 1.2653,-1.5578 0.5422,-0.27098 1.0987,-1.196 1.5577,-1.6551 0.42839,-0.42865 0.66737,-1.724 0.8763,-2.1421 0.36513,-0.73041 1.2809,-1.3784 1.7523,-1.8501 0.37276,-0.37288 0.72466,-1.2115 1.0709,-1.5577 0.41419,-0.41422 0.47872,-1.6234 0.584,-2.0447 0.16817,-0.67175 0.12137,-1.4587 0.2923,-2.142 0.18806,-0.75283 -0.54706,-1.3259 -0.8763,-1.6553 -0.62482,-0.62486 -1.043,-1.4393 -1.8496,-2.0447 -0.69376,-0.52038 -1.1773,-0.78778 -1.5576,-1.1682 -0.50047,-0.50054 -1.3886,-0.74288 -2.0446,-1.0709 -0.55978,-0.28016 -1.0703,-0.38952 -1.9469,-0.38952 l -2.5311,0 c -0.88789,0 -1.3558,0.19462 -2.1418,0.19462 -0.83892,1.5e-4 -1.4006,0.1949 -2.2389,0.1949 l -2.3364,0 c -0.69863,0 -1.2256,-0.38952 -2.0445,-0.38952 -0.8389,0 -0.91405,-0.56954 -1.3628,-1.1684 -0.40185,-0.5361 -1.4674,-0.68155 -2.1417,-0.68155 -0.9151,0 -1.762,-0.0974 -2.8232,-0.0974 -1.2259,0 -1.4291,0.32516 -2.3366,0.77897 -0.64202,0.32114 -1.2556,0.76903 -1.655,1.1684 -0.46502,0.46521 -1.4919,0.75268 -2.0442,0.97366 -0.72607,0.29043 -1.6527,0.17098 -2.3365,0 -0.46577,-0.1165 -0.60882,-0.4241 -0.68142,-0.77904 -0.0728,-0.35457 0,-0.8014 0,-1.2657 0,-0.90154 0.5303,-1.3091 1.0709,-1.8498 0.35166,-0.35191 0.29207,-1.5946 0.29207,-2.1421 0,-1.0879 0.11792,-1.2244 -0.29207,-2.0446 -0.35206,-0.7042 -1.0673,-0.97009 -1.4604,-1.3631 -0.46585,-0.46604 -0.81677,-1.3039 -1.2655,-1.7526 -0.42914,-0.42919 -0.87532,-1.2639 -1.1682,-1.8499 -0.29029,-0.58102 -1.1166,-0.8991 -1.655,-1.1686 -0.66953,-0.33467 -1.6887,-0.44638 -2.239,-0.58407 -0.6732,-0.16831 -1.6385,0 -2.3366,0 l -2.239,0 c -0.82456,0 -1.4631,0.19477 -2.2391,0.19477 -0.58137,0 -1.142,0.3893 -1.9471,0.3893 -0.63448,0 -1.2217,-0.88247 -1.6549,-1.4604 -0.56784,-0.75725 -1.2644,-0.8748 -1.7523,-1.363 -0.5208,-0.52106 -1.1498,-0.66301 -1.5577,-1.071 -0.48304,-0.48337 -1.8071,-0.71962 -2.4337,-0.87625 -0.92079,-0.23024 -1.6916,-0.45654 -2.3365,-0.77897 -0.88825,-0.44423 -0.92197,-0.87068 -1.3628,-1.7526 -0.37523,-0.75055 -0.68158,-1.1649 -0.68158,-1.9472 0,-0.61985 -0.37837,-1.6333 -0.584,-2.0447 -0.14858,-0.29749 -0.39264,-0.62227 -0.48671,-0.77904 -0.30142,-0.60305 -0.0414,-0.93634 0.0973,-1.1683 0.13887,-0.23199 0.18844,-0.34248 -0.38926,-0.48679 -0.0702,-0.0175 -1.4199,1.2598 -1.5577,1.3632 -0.61539,0.46148 -1.0777,0.36657 -1.9472,0.58398 -1.2825,0.32082 -1.4181,0.26467 -2.531,-0.29211 -0.46294,-0.23138 -0.53966,-0.50654 -0.68151,-0.68147 -0.14193,-0.17494 -0.27526,-0.27197 -0.97343,-0.0974 -0.71096,0.17782 -1.2395,0.66849 -1.8498,0.97374 -0.68875,0.34446 -1.0454,0.41908 -1.655,0.87616 -0.62955,0.47251 -1.7542,0.82913 -2.3364,1.2658 -0.53719,0.40298 -1.9623,-0.34848 -2.2392,-0.48671 -0.73004,-0.36551 -0.74984,-1.6375 -0.87614,-2.142 -0.17042,-0.68194 -0.36483,-0.76499 -0.58408,-0.58429 -0.21894,0.18047 -0.48559,0.67943 -0.68142,1.071 -0.25169,0.50359 -0.61742,0.64546 -0.97342,0.68148 -0.35609,0.0361 -0.65041,-0.0331 -0.97366,-0.19484 -0.0913,-0.0457 0.0974,-2.0456 0.0974,-2.3365 0,-0.37964 -1.2266,-1.4215 -1.363,-1.5579 -0.36863,-0.36877 -0.60171,-0.27956 -0.77879,0 -0.17691,0.27972 -0.321,0.73976 -0.48671,1.071 -0.37919,0.75876 -0.39555,1.6861 -0.58414,2.6289 -0.15927,0.79721 -0.19457,1.6303 -0.19457,2.4342 0,0.55677 -0.48259,0.9694 -0.87613,1.3631 -0.36566,0.36588 -0.42519,-0.1415 -0.38944,-0.87632 0.0357,-0.73475 0.19868,-1.6348 0.0973,-2.142 -0.16398,-0.82016 -0.48028,-1.5319 -0.6815,-2.3367 -0.16713,-0.66887 -0.13407,-1.3393 -0.38943,-1.85 -0.24354,-0.48732 -0.67208,-0.0815 -1.0708,0.48694 -0.3987,0.5681 -0.81303,1.3437 -0.97342,1.5578 -0.62206,0.82943 -1.9601,1.6075 -2.4338,2.2394 -0.22402,0.29856 -1.4937,0.79553 -1.8498,0.97357 -0.81818,0.40914 -1.8478,1.6295 -2.5311,2.1419 -0.64979,0.48771 -0.58407,1.8716 -0.58407,2.629 -7e-5,0.95497 0.31989,0.82032 -0.19472,1.8498 -0.24272,0.48543 -0.63439,0.46225 -0.97357,0.2921 -0.33918,-0.17013 -0.55206,-0.45464 -0.68142,-0.58413 -0.54138,-0.54135 -0.96237,-0.77616 -1.7524,-0.97366 -0.86291,-0.21573 -1.5331,0.21278 -2.2391,0.38922 -0.95428,0.23884 -1.8237,0.65086 -2.7257,0.87647 -0.73085,0.18283 -1.7889,-0.0334 -2.4339,-0.19469 -0.54608,-0.13647 -1.0655,-0.87092 -1.5576,-1.3631 -0.62056,-0.62084 -0.83471,-0.82084 -1.4603,-1.6554 -0.47374,-0.63193 -0.6273,-1.0788 -1.2656,-1.5576 -0.78395,-0.58816 -0.9581,-0.26117 -1.3629,-1.0712 -0.34794,-0.69606 -0.5828,-1.1669 -0.97353,-1.5578 -0.39399,-0.39407 -0.29204,-1.3674 -0.29204,-2.1419 0,-0.75868 -0.19482,-1.7147 -0.19482,-2.5315 0,-0.78779 -0.15552,-1.5958 -0.29194,-2.1421 -0.17104,-0.68421 -0.0973,-1.6554 -0.0973,-2.3368 0,-0.57319 -0.97361,-1.1439 -1.4604,-1.2655 -0.80696,-0.20182 -1.377,-0.38945 -2.6284,-0.38945 l -2.9206,0 -2.3364,0 c -0.58606,0 -0.73392,-0.12371 -1.0708,-0.29233 -0.13341,0 -0.8763,-2.0542 -0.8763,-2.3365 0,-0.84546 -0.19462,-1.5124 -0.19462,-2.3369 0,-0.80785 -0.14839,-1.5672 -0.29213,-2.1418 -0.15855,-0.63497 -0.10637,-1.399 -0.29204,-2.1422 -0.16829,-0.67327 0,-1.6386 0,-2.3367 0,-0.84448 0.19474,-1.2472 0.19474,-2.1421 0,-0.59918 0.0973,-1.4379 0.0973,-2.142 0,-0.90594 -0.5107,-1.5699 -1.2656,-1.9473 -0.65884,-0.32957 -1.4531,-0.19477 -2.239,-0.19477 -0.80436,0 -1.3143,0.20685 -2.0445,0.38938 -0.82725,0.20699 -1.2335,1.1364 -1.5575,1.4608 -0.5515,0.55146 -0.6002,1.4267 -0.77885,2.1419 -0.17097,0.6839 -0.0973,1.6554 -0.0973,2.3368 0,0.38163 -0.85478,1.4718 -0.97365,1.947 -0.21561,0.86323 -1.3992,1.3814 -1.9469,1.6553 -0.81215,0.40632 -2.211,-0.0832 -2.8232,-0.38945 -0.50093,-0.25061 -1.3944,-1.6968 -1.655,-2.0444 -0.42106,-0.56164 -0.88397,-0.98141 -1.2657,-1.3634 -0.51962,-0.51961 -0.98823,-0.79842 -1.5574,-1.5577 -0.44278,-0.59052 -0.76369,-1.2353 -0.97365,-1.6553 -0.36902,-0.73824 -0.47162,-1.2354 -0.8761,-2.0447 -0.36674,-0.73368 -0.84857,-1.5023 -1.2656,-2.3365 -0.46046,-0.9213 -0.47659,-1.353 -1.071,-1.9474 -0.6154,-0.61575 -0.77872,-1.4744 -0.77872,-2.3369 0,-0.86408 -0.29206,-1.7718 -0.29206,-2.6289 0,-0.78209 -0.29211,-1.519 -0.29211,-2.3367 1.7e-4,-0.78238 0,-1.519 0,-2.3367 1.7e-4,-0.72258 0.48679,-1.3185 0.48679,-2.1421 0,-0.89851 -0.19468,-1.2964 -0.19468,-2.1421 0,-1.0165 0.0818,-1.5186 0.48679,-2.5314 0.26076,-0.65215 1.0106,-1.1449 1.2655,-1.6552 0.30624,-0.61262 0.62948,-1.0664 1.071,-1.6552 0.44598,-0.595 1.1313,-0.94083 1.8496,-1.1683 0.71819,-0.22766 1.4629,-0.4146 2.1416,-0.58412 1.0556,-0.26415 1.9435,-0.14713 2.9207,0.0973 1.0593,0.26497 2.0939,0.38945 3.2125,0.38945 0.53889,0 0.79782,0.26452 1.0708,0.48671 0.27301,0.22242 0.54083,0.42479 1.0709,0.29218 0.53981,-0.1351 0.38949,-1.8775 0.38949,-2.3368 0,-0.55115 -0.21515,-0.84044 -0.19474,-1.0709 0.0203,-0.23055 0.26582,-0.4251 0.77878,-0.68171 0.898,-0.44887 1.0296,-0.58414 2.1418,-0.58414 0.98259,0 1.9016,0.19477 2.823,0.19477 0.54585,-8e-5 1.3396,0.62121 1.8498,0.87624 0.4965,0.24841 0.80593,0.25068 1.1681,0.29218 0.36231,0.0414 0.6931,0.17751 1.0709,0.68148 0.51767,0.69044 1.2582,1.1609 1.7523,1.6552 0.53957,0.53983 1.5707,0.83399 2.0444,1.0709 0.34725,0.17386 0.29084,1.9423 0.38945,2.3368 0.18791,0.75215 0.63385,1.365 0.97343,2.0446 0.47427,0.94873 0.69647,1.9845 1.0708,2.921 0.2681,0.67023 0.5194,1.3308 0.77897,1.8499 0.40959,0.81969 0.64548,1.1991 1.3627,1.5578 0.59062,0.2953 1.2007,0.32462 1.8498,0.48686 0.76864,0.19226 1.3924,-0.49363 1.7523,-0.97381 0.27747,-0.36999 0.2022,-0.92631 0.0973,-1.4603 -0.10471,-0.53406 -0.30444,-1.0592 -0.48675,-1.3632 -0.57591,-0.96006 -0.40342,-1.8915 -0.7788,-3.0183 -0.29576,-0.88748 -0.91015,-1.7328 -1.363,-2.3368 -0.45187,-0.60268 -0.53558,-1.6556 -0.87612,-2.3367 -0.36377,-0.72752 -0.59277,-1.3 -0.77879,-2.0448 -0.18335,-0.73323 -0.23141,-1.5097 -0.38943,-2.142 -0.24408,-0.97655 0.32372,-1.784 0.97342,-2.434 0.48186,-0.48193 0.5455,-0.81909 0.68157,-1.3633 0.77803,-0.77828 1.195,-1.7084 1.655,-2.6286 0.39253,-0.78573 0.58417,-1.4226 0.58417,-2.3369 0,-0.47827 0.44145,-0.97852 0.97343,-1.4605 0.53205,-0.48178 1.1569,-0.95823 1.4603,-1.363 0.56549,-0.75405 1.3411,-1.5143 1.7523,-2.3368 0.34673,-0.69393 1.034,-1.2155 1.2656,-2.142 0.15852,-0.63505 0.10633,-1.399 0.29208,-2.1421 0.20644,-0.8264 0.38523,-1.5413 0.58398,-2.3367 0.19899,-0.79569 0.18963,-1.4807 0,-2.2395 -0.18476,-0.73932 -0.49283,-1.4727 -0.77878,-2.0447 -0.38614,-0.7725 -0.92056,-1.2126 -1.3629,-1.6553 -0.34882,-0.3488 -0.29192,-1.777 -0.29192,-2.3365 0,-0.49643 1.4888,-0.48693 1.9469,-0.48693 0.71052,0 1.5529,-0.46119 2.0444,-0.58422 0.45479,-0.11368 1.0889,-1.2044 1.3628,-1.7525 0.34224,-0.68467 0.57509,-1.3267 0.77893,-2.1422 0.22015,-0.88118 -0.19478,-1.5616 -0.19478,-2.3365 0,-0.66552 0.73788,-1.3913 1.2656,-1.6552 0.75898,-0.37973 1.2117,-0.68178 2.1418,-0.68178 0.90104,0 1.6608,0.19476 2.5311,0.19476 1.0403,0 1.2726,-0.30609 1.655,-1.0708 0.28834,-0.57707 0.19465,-1.649 0.19465,-2.3368 0,-0.78877 -0.0496,-1.5617 -0.19465,-2.1422 -0.11814,-0.47273 0.0926,-0.95496 0.19465,-1.363 -0.13057,-0.52303 0.93872,-2.1069 1.0709,-2.2393 0.50846,-0.5086 1.0692,-1.0215 1.7524,-1.3632 0.58519,-0.29265 1.2638,-0.77685 1.8498,-1.363 0.6311,-0.63154 1.1722,-1.3671 1.5576,-1.7526 0.56987,-0.57038 0.65174,-1.1386 1.1681,-1.6553 0.24355,-0.2434 0.13265,1.7795 0,2.0447 -0.18963,0.37941 -0.0926,0.64644 0.0973,0.97381 0.19001,0.32698 0.50623,0.66164 0.58422,0.9735 0.12668,0.50647 -0.0837,0.84623 -0.0974,1.0711 -0.0137,0.22462 0.0938,0.38952 0.77871,0.38952 0.96012,0 1.204,-0.26596 1.5577,-0.97381 0.37747,-0.75518 1.054,-0.83923 1.7523,-1.3631 0.52874,-0.3966 0.82762,-1.0222 1.3629,-1.5579 0.62916,-0.62934 1.0632,-0.76809 1.655,-1.5578 0.50952,-0.67912 1.189,-0.69189 1.947,-1.0709 1.0651,-0.53292 0.57748,-1.2641 1.7523,-1.5579 0.72517,-0.18139 1.1822,-0.80671 1.4604,-1.363 0.29073,-0.58163 -0.48671,-1.4234 -0.48671,-2.0447 0,-0.99251 -0.26838,-1.3639 -0.77887,-2.0446 -0.27546,-0.36741 -0.54383,-0.43421 -0.77886,-0.38961 -0.23494,0.0446 -0.39495,0.20017 -0.58399,0.38961 -0.46406,0.46414 -0.68157,1.6548 -0.97357,2.2393 -0.40611,0.81233 -0.20175,1.344 -0.87622,1.85 -0.49307,0.36969 -1.7933,-1.0045 -2.1418,-1.2658 -0.61121,-0.4586 -1.5266,-0.58421 -2.3363,-0.58421 -0.49979,0 -0.75022,0.19165 -0.9735,0.29203 -0.22336,0.10053 -0.44275,0.0882 -0.77886,-0.58405 -0.26889,-0.53817 -0.17534,-1.675 -0.292,-2.1421 -0.10589,-0.42319 -0.3649,-0.60071 -0.48686,-0.77882 -0.12196,-0.17812 -0.0419,-0.44485 0.38943,-0.87639 0.56448,-0.56461 0.87615,-0.32167 0.87615,-1.3633 0,-0.78459 0.67948,-1.362 1.2656,-1.655 0.76069,-0.38049 0.3507,-0.97359 1.4602,-0.97359 0.77272,0 1.5757,-0.25251 2.0444,-0.48679 0.44236,-0.22151 0.70363,-0.52342 0.68142,-0.77897 -0.022,-0.25548 -0.26254,-0.38945 -0.77886,-0.38945 -0.97395,0 -1.5367,0.58413 -2.5311,0.58413 -0.6145,0 -1.6002,0.67069 -2.1418,0.7789 -0.78021,0.15609 -1.5247,0.0891 -2.3363,0.29218 -0.83585,0.20889 -1.4829,0.85755 -2.3366,1.0708 -0.75261,0.1883 -1.6934,1.4196 -1.8496,2.0447 -0.24333,0.97412 -1.0376,1.8166 -1.7523,2.5315 -0.71351,0.71362 -1.0606,0.7355 -1.7524,0.38944 -0.0919,-0.0458 1.0468,-1.9964 1.2656,-2.4341 0.50348,-1.007 0.6676,-1.6411 1.5576,-2.5316 0.67568,-0.67562 1.3825,-1.0902 1.9471,-1.6551 0.66312,-0.66317 0.97896,-1.3401 1.8496,-1.5578 0.88736,-0.2219 1.8838,-0.0973 2.8232,-0.0973 0.8914,-2.3e-4 1.4743,-0.38968 2.239,-0.38968 0.71171,0 1.5125,-0.98809 2.1417,-1.4602 0.72114,-0.54121 1.8942,-0.51537 2.7259,-0.68178 0.94599,-0.18915 1.3386,-0.43801 1.6548,-1.0709 0.34846,-0.69698 1.2689,-0.58725 1.7525,-1.0712 0.34553,-0.34576 0.38734,-0.71286 0.48672,-0.97358 0.0991,-0.2605 0.18155,-0.45906 0.68135,-0.58414 0.76638,-0.19156 1.6095,-0.13465 2.2391,-0.29195 0.67312,-0.16824 1.5412,0 2.2392,0 0.54803,0 0.91069,-0.0827 1.0709,-0.2921 0.16016,-0.20951 0.19478,-0.56864 0.19478,-0.97366 0,-0.76066 -0.43916,-1.4127 -0.97358,-1.9474 -0.61352,-0.61369 -0.94351,-1.2057 -1.363,-2.0447 -0.36169,-0.72373 -0.69212,-1.5793 -0.97343,-2.1421 -0.33207,-0.66429 -0.58422,-1.4606 -0.87621,-2.0446 -0.39266,-0.78589 -1.2013,-1.201 -1.8496,-1.3633 -0.66477,-0.16604 -1.4717,-0.88756 -1.8497,-1.2657 -0.45986,-0.46004 -0.91202,-0.92737 -1.3628,-1.2657 -0.64658,-0.48505 -0.95301,-0.54303 -1.2656,-1.1684 -0.29522,-0.59074 -0.70514,-1.1184 -1.0707,-1.8499 -0.28401,-0.56787 -0.69587,-0.90481 -0.97366,-1.4604 -0.2952,-0.59082 -0.0852,-1.5336 -0.29206,-1.9473 -0.27945,-0.55921 -0.48822,-1.4634 -0.77872,-2.0446 -0.32759,-0.65534 -0.53532,-0.77844 -0.87615,-1.4608 -0.43473,-0.86947 0.0983,-1.3619 -0.48693,-1.9472 -0.55469,-0.55496 -0.58683,-1.0237 -1.2656,-1.3633 -0.41627,-0.20799 -0.58115,-0.3991 -0.77871,-0.48664 -0.19763,-0.0875 -0.40798,-0.0395 -0.87607,0.19476 -0.0844,0.042 -0.69533,1.488 -0.77893,1.6551 -0.35324,0.70677 -0.84856,0.84857 -1.5576,1.5578 -0.65392,0.65412 -1.0318,1.0902 -1.363,1.7526 -0.29281,0.58588 -1.4674,0.19287 -1.8496,0.0975 -0.35287,-0.0883 -0.41867,-0.44621 -0.38934,-0.87632 0.0294,-0.43025 0.0883,-0.91263 0,-1.2659 -0.16825,-0.6732 0,-1.6384 0,-2.3366 1.4e-4,-0.33458 0.36527,-0.34325 0.77886,-0.38952 0.41373,-0.0464 0.9317,-0.15274 1.1682,-0.38945 0.29244,-0.29279 0.46622,-0.45647 0.48678,-0.68163 0.0203,-0.22501 -0.11238,-0.50191 -0.48678,-0.87616 -0.43684,-0.43694 -1.5324,-0.2614 -2.0444,-0.3896 -1.085,-0.27128 -1.5133,-0.1614 -2.3366,-0.77882 -0.72868,-0.54659 -1.1529,-1.0099 -1.3629,-1.8499 -0.13742,-0.55032 -1.298,-0.44622 -1.8496,-0.58422 -0.77766,-0.19461 -1.5828,-0.19461 -2.4337,-0.19461 -0.72981,-2.2e-4 -1.285,0.58893 -2.0444,0.77883 -0.42637,0.10676 -0.78567,-0.0712 -1.0709,-0.0974 -0.28512,-0.0262 -0.51992,0.0347 -0.68144,0.68147 -0.2143,0.85687 -0.55946,1.4109 -0.87622,2.0446 -0.26051,0.52099 -0.29206,1.3792 -0.29206,2.1422 0,0.94873 -0.25708,1.1135 0,2.142 0.17482,0.69956 -0.065,1.6228 -0.1948,2.142 -0.19815,0.79303 0.19741,1.5472 0,2.3368 -0.25273,1.0111 -0.53381,1.3659 -0.0972,2.2394 0.40498,0.81005 0.83091,0.98749 1.0708,1.9472 0.19276,0.77168 -0.29208,1.5633 -0.29208,2.3368 0,0.66871 -0.9794,1.4681 -1.2656,1.8499 -0.35847,0.47828 -0.77872,1.2909 -0.77872,1.9472 -7e-5,0.53383 -1.2674,0.92594 -1.5577,1.0712 -0.77333,0.38672 -1.1858,1.0292 -1.655,1.6552 -0.36473,0.48633 -0.38937,1.643 -0.38937,2.2395 0,0.76195 -0.1948,1.5272 -0.1948,2.3367 l 0,2.3369 c 0,0.79037 0.19179,1.1801 0,1.9471 -0.18431,0.73755 -1.0738,1.2186 -1.5575,1.4605 -0.45584,0.22805 -0.8905,-0.0248 -1.1682,-0.38945 -0.27766,-0.36466 -0.48677,-0.88588 -0.48677,-1.1683 8e-5,-0.82365 0,-1.708 0,-2.5317 8e-5,-0.65777 -0.19463,-1.4352 -0.19463,-2.1419 l 0,-2.4343 c 0,-0.95277 -0.29902,-1.3904 -0.48685,-2.1419 -0.1185,-0.47402 -1.196,-1.1962 -1.5576,-1.5579 -0.53051,-0.53056 -1.2505,-0.96613 -1.8497,-1.2658 -0.49278,-0.24628 -1.2042,-0.91234 -1.5576,-1.2657 -0.74262,-0.74295 -1.1989,-1.035 -1.5576,-1.7526 -0.37086,-0.74196 -1.3398,-0.87624 -2.1418,-0.87624 -0.84985,8e-5 -1.6814,-0.19021 -2.3364,-0.6814 -0.47126,-0.35351 -0.58417,-1.5416 -0.58417,-2.0449 0,-0.97685 -0.1173,-1.7558 -0.29195,-2.6287 -0.1434,-0.71674 -0.0593,-1.7102 0.0973,-2.3367 0.21935,-0.87806 1.172,-1.5656 1.4602,-2.1421 0.40287,-0.80603 1.6824,-1.3904 2.3365,-2.0447 0.62887,-0.62905 0.96672,-1.5526 1.7523,-2.1422 0.99497,-0.74653 2.0287,-1.3062 3.1152,-1.85 0.57427,-0.2871 0.64997,-1.105 0.87622,-1.5576 0.4051,-0.81051 0.6558,-1.5321 1.1682,-2.0447 0.62818,-0.62852 1.1791,-1.1791 1.7523,-1.7527 0.49717,-0.4972 1.8905,-0.38937 2.1418,-0.38937 0.34319,0 0.96991,1.8427 1.0708,2.0447 0.21314,0.42615 0.37497,0.66218 0.68157,0.77883 0.30649,0.11687 0.77854,0.0827 1.1682,0 0.77917,-0.16498 1.6765,-0.57624 2.7258,-0.87617 0.58444,-0.1671 1.2834,-1.2746 1.8496,-1.558 0.55102,-0.27539 0.58407,-1.5626 0.58407,-2.2393 0,-0.88832 -0.0972,-1.3558 -0.0972,-2.1419 0,-0.44157 -1.2894,-0.93672 -1.5576,-1.0711 -0.37597,-0.188 -0.41105,-0.62031 -0.292,-1.0709 0.11874,-0.45086 0.41351,-0.90063 0.58406,-1.071 0.48239,-0.48269 1.3169,-0.81613 1.9469,-0.97374 0.83748,-0.20935 1.6047,-0.16953 2.2391,-0.48686 0.68479,-0.34234 0.86673,-0.76932 1.3631,-1.2657 0.77116,-0.77145 0.8487,-1.2534 1.0707,-2.142 0.16324,-0.65306 0.0765,-1.6688 0.19464,-2.1419 0.19673,-0.78703 0.94666,-1.5218 1.2656,-1.9475 0.23436,-0.31255 0.33103,-0.58679 0.58415,-0.7789 0.25297,-0.19217 0.57793,-0.2921 1.1683,-0.2921 0.56179,0 0.92654,0.0249 1.1681,0.19484 0.24153,0.16961 0.38323,0.47455 0.58409,0.87616 0.2884,0.57715 0.0974,1.6491 0.0974,2.3369 0,0.82692 -0.64255,1.1292 -1.0709,1.5577 -0.38757,0.38764 1.3579,1.2133 1.5576,1.3632 0.3101,0.23237 0.13781,0.73247 -0.19463,1.2657 -0.33261,0.53322 -0.81588,1.0476 -0.87622,1.1684 -0.25387,0.50762 -0.89798,1.017 -1.2655,1.7526 -0.48911,0.97829 -0.58578,1.12 -1.9472,1.4604 -0.88265,0.22052 -1.6037,0.89927 -2.1416,1.1682 -0.38435,0.19233 -0.3999,0.46407 -0.29216,0.77897 0.10791,0.31498 0.27421,0.66384 0.38944,0.7789 0.67485,0.67501 0.96624,0.65548 1.8497,0.87631 1.0493,0.26255 1.4226,-0.0502 2.0443,0.77897 0.42248,0.56339 0.59707,0.80458 0.87621,1.3631 0.39639,0.79333 0.85423,1.2753 1.0709,2.1419 0.096,0.38451 1.5418,0.52767 2.0443,0.77897 0.65399,0.32706 1.6732,0.39857 2.2392,0.68163 0.71658,0.35837 1.046,0.57783 1.8496,0.77889 0.64898,0.16224 0.86156,0.48308 1.6549,0.68156 0.47371,0.11854 0.76697,0.15449 0.97358,0 0.20661,-0.15464 0.28452,-0.45708 0.38935,-0.87624 0.0869,-0.34804 -0.29453,-0.7795 -0.68149,-1.0709 -0.38675,-0.29157 -0.7699,-0.43382 -0.87615,-0.48701 -0.81543,-0.40784 -1.1331,-0.54903 -1.655,-1.0709 -0.42322,-0.42364 -0.61278,-0.79462 -0.58407,-1.0712 0.0288,-0.27622 0.27607,-0.47076 0.58407,-0.77874 0.29956,-0.29963 0.62139,-0.20487 0.97366,0 0.35204,0.20471 0.7473,0.5526 0.87606,0.68148 0.3374,0.33755 0.73393,0.24392 1.0709,0 0.33708,-0.24394 0.54107,-0.70405 0.58421,-0.87632 0.15464,-0.61908 0.29193,-1.0262 0.29193,-1.9473 0,-0.96317 -0.64322,-1.1265 -0.38936,-2.1421 0.10693,-0.4282 -0.2564,-0.74796 -0.68158,-0.97358 -0.42502,-0.22554 -0.92444,-0.40138 -1.1681,-0.58428 -0.78356,-0.58756 -1.1618,-0.57077 -1.5577,-1.363 -0.28519,-0.5706 -0.0915,-0.87274 0.19479,-0.97335 0.28632,-0.10099 0.65572,-0.0554 0.87622,0 0.88527,0.22113 1.0461,0.65648 1.6548,1.2656 0.69295,0.69295 0.68846,1.0743 1.4604,1.4604 0.74425,0.3722 0.74186,0.97365 1.5575,0.97365 0.51849,0 0.58428,-1.5703 0.58428,-2.0448 0,-0.83225 -0.3895,-1.4483 -0.3895,-2.3368 0,-0.35252 0.82217,-0.96242 0.97359,-1.2657 0.23015,-0.46065 0.20742,-0.86347 0,-1.1684 -0.20758,-0.30502 -0.56785,-0.56779 -0.77886,-0.77881 -0.55499,-0.55519 -1.0311,-0.79669 -1.363,-1.4606 -0.38023,-0.7609 -1.1873,-1.09 -1.8496,-1.7524 -0.10006,-0.20038 -0.43176,0.009 -0.77886,0.0973 -0.34689,0.0882 -0.68943,0.0655 -0.87615,-0.68147 -0.17901,-0.71703 0.22777,-1.6897 0.38943,-2.3369 0.18409,-0.73611 0.60172,-0.94614 0.77886,-1.6552 0.13886,-0.55595 0.44387,-0.71666 0.58407,-0.87609 0.14021,-0.15958 0.17026,-0.34111 -0.0974,-0.87646 -0.18709,-0.37433 -1.1838,-0.7865 -1.5576,-0.97351 -0.61944,-0.31004 -1.0086,-0.81392 -1.363,-1.1686 -0.34127,-0.34135 -0.19456,-1.8155 -0.19456,-2.3367 0,-0.38976 -0.18768,-0.70238 -0.48693,-0.87631 -0.29903,-0.17357 -0.65721,-0.23125 -0.97336,-0.3893 -0.56007,-0.28033 -1.2023,-0.29211 -2.0446,-0.29211 -0.67276,0 -1.7108,-0.13587 -2.3363,-0.29203 -0.71905,-0.18002 -1.6596,0.17143 -2.1416,0.29203 -0.6732,0.16832 -1.6387,0 -2.3365,0 -0.79793,0 -1.0834,-0.29522 -1.8496,-0.48694 -0.49389,-0.12348 -1.6324,0.86477 -2.0444,1.0709 -0.41775,0.20913 -0.59685,0.0544 -0.68127,-0.29187 -0.0847,-0.34667 -0.0975,-0.83217 -0.0975,-1.1685 l 0,-2.3368 c 0,-0.32865 -0.24002,-0.50419 -0.58406,-0.58413 -0.34398,-0.0799 -0.77221,-0.0974 -1.0709,-0.0974 z m 84.404,9.4445 c -0.41461,0.0858 -0.76427,0.42882 -0.87622,0.87616 -0.12988,0.51978 -0.19336,1.2604 -0.292,1.6553 -0.031,0.12386 -1.9253,-0.24241 -3.0179,0.19484 -0.46211,0.18487 -1.1248,0.47592 -1.5576,0.58413 -0.59424,0.14848 -0.41628,0.57433 -0.29192,1.0711 0.15515,0.62083 1.9013,0.74303 2.4337,0.87631 0.37268,0.0931 0.87404,0.77662 1.2655,1.1684 0.38958,0.38983 1.0516,0.66697 1.4603,0.97351 0.31811,0.23861 0.65384,0.94592 1.0709,1.3632 0.43287,0.43315 1.1789,0.63535 1.7523,0.77882 0.69422,0.17371 1.1288,-0.19461 1.8497,-0.19461 0.58819,0 1.1017,0.29202 1.7524,0.29202 0.67409,0 1.1435,-0.29202 1.7523,-0.29202 0.49577,0 0.69743,-0.80003 0.97351,-1.1683 0.3619,-0.48284 0.3895,-1.2297 0.38943,-1.8501 0,-0.57395 -0.18791,-1.1414 -0.29208,-1.5579 -0.12375,-0.49523 -1.102,-0.74349 -1.3629,-1.2658 -0.32744,-0.65526 -0.34703,-0.82023 -1.0708,-1.363 -0.49359,-0.37014 -1.3881,-0.79151 -1.7524,-0.97357 -0.57869,-0.28945 -1.001,-0.53186 -1.4604,-0.8764 -0.30398,-0.22819 -0.76586,-0.29211 -1.2656,-0.29211 l -1.0709,0 c -0.14432,-0.036 -0.25125,-0.0285 -0.38929,0 z m 34.267,12.56 c -0.62774,0.0823 -0.77878,1.0277 -0.77863,1.8499 0,0.82896 -1.1109,1.5878 -1.4604,1.8498 -0.48073,0.36064 1.9496,1.3152 2.1418,1.3633 0.82155,0.20541 1.5044,0.90436 2.3363,1.0709 0.60009,0.12006 1.5941,0.77395 2.3365,1.0709 0.42584,0.17052 0.55842,0.79492 0.68135,1.4606 0.12331,0.66544 0.19465,1.3427 0.19465,1.7526 0,0.84683 -0.005,1.7334 0.19478,2.5315 0.2081,0.83225 0.44245,1.1503 0.19472,2.1418 -0.1183,0.47387 -0.17572,0.83558 -0.19472,1.1685 -0.0189,0.33298 0.0332,0.61741 0.38936,0.97357 0.63963,0.63999 2.4406,0.29887 3.2127,1.0711 0.76427,0.76468 1.361,1.2826 2.239,2.3368 0.45039,0.54059 -0.0416,1.5161 0.58408,2.142 0.4295,0.42965 1.8536,0.51035 2.3364,0.38953 0.34031,-0.0852 0.50309,-2.0119 0.58416,-2.3369 0.10184,-0.40745 0.70072,-0.62061 1.3629,-0.68147 0.66214,-0.0608 1.4232,0.0302 1.7523,0.19476 0.58527,0.29271 0.6474,1.2069 0.48686,1.8499 -0.12107,0.48443 -0.0188,0.80313 0.19464,1.0712 0.21348,0.26772 0.52866,0.50785 0.87614,0.68163 0.64068,0.32022 1.4975,0.20958 1.9471,0.0972 0.71426,-0.17866 1.0346,-1.1931 1.3629,-1.85 0.22261,-0.44522 0.31765,-0.78072 0.38942,-1.0709 0.0718,-0.29013 0.12152,-0.54751 0.58415,-0.77897 0.65466,-0.32752 0.95952,-0.83467 0.77872,-1.558 -0.19674,-0.78779 -0.41763,-1.5166 -0.77872,-2.2392 -0.48035,-0.96066 -1.4945,-1.3158 -2.3364,-1.9472 -0.64322,-0.48292 -0.57757,-0.65534 -0.77893,-1.4605 -0.13505,-0.54149 -1.0626,-0.96948 -1.6549,-1.2658 -0.54518,-0.27258 -0.90246,-1.23 -1.5576,-1.5579 -0.95182,-0.47592 -1.8645,-0.61939 -2.7259,-1.2655 -0.87577,-0.65701 -1.6449,-0.89304 -2.5311,-1.558 -0.8564,-0.64242 -1.6078,-1.413 -2.3364,-2.1419 -0.71859,-0.71879 -1.422,-1.0328 -1.947,-1.5578 -0.64457,-0.64484 -1.6542,-1.0221 -2.3364,-1.3632 -0.88176,-0.44081 -1.3768,-0.95967 -2.1417,-1.2658 -0.924,-0.36961 -1.5816,-0.46862 -2.4339,-0.68163 -0.29103,-0.0726 -0.6187,-0.33222 -0.87592,-0.48671 -0.11014,-0.0276 -0.20257,-0.0117 -0.2923,0 z m -85.085,46.248 c -0.26037,0.26056 -0.74132,0.0301 -1.0708,0.19468 -0.35316,0.17683 -0.50458,0.85003 -0.58407,1.1686 -0.13085,0.52266 -0.0852,1.0098 -0.19479,1.5579 -0.12464,0.62267 0.0621,1.6114 0.19479,2.1419 0.10492,0.41999 -0.56904,0.94326 -0.77901,1.3631 -0.21595,0.43246 -0.49299,0.78734 -0.77863,1.1684 -0.33544,0.44743 -0.2843,1.4212 -0.38951,1.9472 -0.12525,0.62684 -0.15605,1.1111 -0.29199,1.6554 -0.1032,0.41247 -0.0974,0.82015 -0.0974,1.2658 0,0.33694 0.80016,0.54599 1.0709,0.68155 0.29035,0.14515 0.44394,-0.20015 0.58407,-0.5842 0.14006,-0.38436 0.25709,-0.84136 0.48671,-1.0711 0.46982,-0.46985 0.71336,-0.68155 1.3629,-0.68155 0.42509,0 0.8804,-0.0973 1.3628,-0.0973 0.26994,0 0.82411,0.16862 1.0709,0.29202 0.46854,0.23436 0.75455,0.46248 1.0708,0.7789 0.37656,0.37675 0.2659,0.82107 0.8763,0.97381 0.49664,0.12409 0.81093,0.38944 1.3628,0.38944 l 1.6552,0 1.2654,0 c 0.59334,0 0.58423,-0.37751 0.58423,-0.97388 0,-0.52373 0.0759,-0.88779 0.19464,-1.363 0.12113,-0.48535 -0.10484,-0.80846 -0.19464,-1.1686 -0.10574,-0.42281 -0.79974,-0.89699 -1.071,-1.1682 -0.605,-0.60519 -1.2691,-0.50101 -1.4602,-1.266 -0.0891,-0.35562 0.0974,-0.88444 0.0974,-1.2655 0,-0.3709 0.0973,-0.75162 0.0973,-1.1683 0,-0.49841 -0.31293,-0.72342 -0.48664,-1.071 -0.21475,-0.42942 -0.61503,-0.38938 -1.071,-0.38945 -0.42846,0 -1.0363,-0.10996 -1.4602,-0.19483 -0.47924,-0.0959 -0.74521,-0.0638 -1.0707,-0.38953 -0.35668,-0.35647 -0.68158,-0.3013 -0.68158,-0.87617 0,-0.30076 -0.20623,-0.62995 -0.292,-0.97357 -0.10214,-0.40845 -0.18506,-0.55268 -0.48686,-0.77897 -0.18118,-0.13595 -0.67261,-0.0974 -0.87614,-0.0974 z m 144.76,3.6999 c -0.49732,0.0717 -0.514,1.8771 -1.0709,2.4342 -0.51452,0.5146 -1.0398,0.65024 -1.4603,1.0707 -0.72269,0.72305 -1.5932,1.3989 -2.3364,2.1423 -0.63685,0.63709 -0.74139,1.9019 -1.0708,2.7263 -0.23584,0.58969 0,1.881 0,2.5315 0,0.82699 -0.94927,2.1299 -1.2656,2.9207 -0.19846,0.49645 -0.36543,0.7232 -0.68143,0.8764 -0.31599,0.15335 -0.72899,0.1579 -1.2656,0.2921 -0.87188,0.21794 -1.5767,0.39894 -2.3364,0.77905 -0.55476,0.27729 -0.9815,1.4762 -1.2655,2.0447 -0.29409,0.58838 -0.13182,1.6955 -0.292,2.3366 -0.25985,1.0395 -0.19972,2.2146 0,3.2129 0.16316,0.81651 0.29126,1.5544 0.48672,2.337 0.21147,0.84586 -0.15644,1.5992 -0.29208,2.1418 -0.20457,0.81857 -0.48596,1.5548 -0.6815,2.3369 -0.19853,0.79471 0.77886,1.5886 0.77886,2.4342 0,0.89106 0.22844,1.7148 0,2.6289 -0.14873,0.59447 0.13348,1.4638 0.48672,2.3367 0.35323,0.8729 0.83315,1.775 0.97343,2.3367 0.0967,0.38694 -2.0171,2.9504 -2.239,3.5052 -0.2819,0.7048 -0.69196,1.6403 -1.1681,2.4342 -0.48125,0.80237 0.0974,1.7076 0.0974,2.5315 0,0.85853 0.19456,1.8083 0.19456,2.7262 0,1.1278 0.1948,2.2852 0.1948,3.4078 0,1.0097 -1.0247,2.4437 -1.2656,3.4076 -0.22874,0.91538 0.0164,2.0773 0.3895,2.8239 0.27817,0.55663 -0.22694,1.9776 -0.3895,2.6286 -0.27413,1.0964 0.29207,2.3247 0.29207,3.4078 l 0,0.48695 c 0,1.5032 1.2277,3.5109 1.5576,5.1602 0.18036,0.90238 -0.32579,1.4009 -0.48671,2.0447 -0.24676,0.98703 0.28766,1.7351 0.48671,2.5314 0.32258,1.2905 0.0634,2.4046 -0.48671,3.5052 -0.27749,0.55534 -0.28325,0.97715 -0.19471,1.4605 0.0888,0.48353 0.29349,0.97701 0.48671,1.4605 0.37351,0.93392 0.0392,2.2012 0.29207,3.213 0.21527,0.86127 -0.0974,2.428 -0.0974,3.4078 0,0.7064 -0.28481,1.0401 -0.48671,1.4604 -0.2019,0.42037 -0.31113,0.89713 -0.0974,1.7526 0.0513,0.20586 0.0457,0.47554 0.0974,0.6814 0.17984,0.71917 1.678,2.2324 2.3363,2.7263 0.4595,0.34461 0.59395,0.71453 0.68144,1.0712 0.0879,0.35662 0.0976,0.71263 0.0976,1.2658 0,1.1682 0.12705,1.8793 0.87601,2.6288 0.45814,0.45831 1.3426,0.3947 1.8499,1.0711 0.41627,0.55511 0.38927,2.1133 0.38927,2.8235 0,0.86682 0.0226,1.3647 0.29215,1.8499 0.26934,0.4852 0.76585,0.96066 1.3629,1.5579 0.25722,0.2573 0.52148,0.42417 0.77878,0.68148 0.61121,0.61156 0.72106,1.6949 1.3629,2.3368 0.5955,0.59576 1.5224,1.3455 2.3366,1.7526 0.49113,0.24567 1.0029,0.0755 1.4601,-0.19477 0.4571,-0.27029 0.84078,-0.63056 1.1684,-0.87638 0.95952,-0.71955 1.6716,-1.3964 2.1417,-2.3367 0.63695,-1.2742 1.7599,-2.6669 2.0442,-4.0892 0.1094,-0.54712 0.26238,-0.90078 0.58422,-1.1684 0.32175,-0.26756 0.82522,-0.46141 1.2655,-0.68155 0.78612,-0.39309 1.5288,-1.25 1.947,-1.9473 0.4607,-0.7681 1.2892,-1.2843 2.1418,-1.0709 0.65795,0.16458 1.1169,0.65039 1.4601,1.1682 0.34329,0.51802 0.64905,1.0378 0.77902,1.5581 0.20817,0.833 -0.63448,1.8531 -0.97366,2.5313 -0.56822,1.137 -0.30209,1.993 -1.0708,3.0183 -0.6865,0.91553 -1.0302,2.2551 -1.4603,3.1156 -0.58085,1.1622 -0.4316,2.9372 -0.68142,4.1868 -0.11111,0.55556 -0.5081,1.6599 -0.77886,2.3367 -0.31548,0.78885 -0.6815,2.2886 -0.6815,3.1156 0,1.0952 -1.1439,1.9957 -1.6549,3.0182 -0.6059,1.212 -1.059,2.453 -1.5576,3.7 -0.37747,0.94394 -0.83802,1.9485 -1.3629,2.8236 -0.46622,0.77745 -0.85991,1.5899 -1.0709,2.4342 -0.19442,0.77791 -0.7085,1.4171 -1.0708,2.142 -0.34313,0.68626 -0.40483,1.3936 -0.77886,2.1421 -0.69473,1.3895 -2.2453,3.803 -3.4073,4.9656 -1.0018,1.0022 -2.3014,2.3637 -2.8232,3.4077 -0.34247,0.68528 -0.55582,1.2093 -0.8763,1.8501 -0.46713,0.93483 -1.0908,1.9873 -1.6548,3.1156 -0.39437,0.78892 -1.0764,1.1792 -1.4604,1.9475 -0.3982,0.79652 -0.57915,1.1253 -0.68129,1.5576 22.259,-26.086 35.825,-59.919 35.825,-96.878 0,-18.861 -3.6398,-36.833 -10.027,-53.453 -0.65099,0.0512 -1.8028,0.2921 -2.5314,0.2921 -0.46907,2.3e-4 -0.81714,0.36209 -1.0707,0.77881 -0.25365,0.41689 -0.40365,0.93346 -0.4868,1.2659 -0.23076,0.92313 -0.18133,1.9712 0.0974,2.9209 0.27876,0.94949 0.74477,1.8157 1.2655,2.3367 0.39467,0.39468 0.63334,0.7779 0.58415,1.0709 -0.0492,0.29318 -0.34389,0.48695 -0.97351,0.48695 -0.68179,8e-5 -1.0801,-0.10882 -1.3629,-0.29203 -0.2828,-0.18328 -0.43094,-0.43102 -0.7788,-0.77897 -0.65966,-0.66005 -1.2601,-1.2142 -2.1418,-1.6551 -0.77932,-0.38983 -1.4454,-0.7229 -2.1416,-1.0711 -0.50063,-0.25039 -0.92626,-1.6578 -1.1683,-2.1419 -0.38053,-0.76126 -0.68128,-1.5284 -0.68128,-2.4344 -7e-5,-0.61544 -0.62767,-1.547 -0.87629,-2.0445 -0.30098,-0.60222 -0.71867,-1.2425 -1.0708,-1.9472 -0.39363,-0.78748 -0.75397,-1.3202 -1.4605,-1.8499 -0.0899,-0.0677 -0.12338,-0.10776 -0.19457,-0.0975 z m -184.58,81.1 c -0.10816,0.0473 -0.24166,0.14415 -0.38945,0.29204 -0.43086,0.43078 -0.33026,0.34688 -1.0708,-0.0974 0.16036,0 2.0327,2.2522 2.4337,2.921 0.18881,0.31468 0.72787,0.41209 1.2655,0.38937 0.53785,-0.0229 1.0554,-0.13321 1.3631,-0.19476 0.68921,-0.13785 0.86971,-0.54902 0.77872,-0.97358 -0.091,-0.42478 -0.45352,-0.90831 -0.77872,-1.0712 -0.84406,-0.42228 -1.4216,-0.74493 -2.3365,-0.9735 -0.75682,-0.18945 -0.94138,-0.43452 -1.2655,-0.29204 z m 1.7523,6.5233 c -0.57584,0.10403 -1.4424,0.46886 -1.7523,0.77897 -0.24433,0.24438 -0.0424,0.70185 0.19463,1.1684 0.23701,0.4665 0.57485,0.85769 0.68147,1.0712 0.29843,0.59682 2.0672,0.77882 2.7259,0.77882 0.55349,0 0.80429,-0.25008 0.87601,-0.58414 0.0719,-0.33427 -0.0127,-0.73216 -0.0973,-1.0711 -0.15239,-0.60981 -0.90546,-1.1977 -1.2656,-1.5578 -0.36655,-0.3668 -0.0419,-0.0836 -0.87621,-0.58428 -0.11524,-0.0288 -0.29477,-0.0348 -0.48665,0 z m -7.8855,5.2579 c -1.1133,-0.003 -2.1579,0.0322 -3.2126,0.87631 -1.2802,1.0241 -2.8306,2.8846 -3.6993,3.2129 0.19213,0.48057 0.34585,0.89668 0.68138,1.0708 0.33545,0.17455 0.84392,0.16232 1.363,-0.0973 0.85063,-0.42539 1.4167,-0.61096 2.1418,-0.97351 0.75167,-0.37599 1.3306,-0.68154 2.1418,-0.68154 1.041,0 1.7357,0.36086 2.6284,0.58413 0.67493,0.16869 1.1893,0.39977 1.947,0.77889 0.78792,0.39408 1.5105,0.73163 2.1418,1.3633 0.61336,0.61331 1.7455,0.91963 2.3364,1.3629 0.60711,0.45564 1.7271,0.94844 2.3365,1.5579 0.39497,0.39515 1.2302,1.248 1.8496,1.5579 0.65391,0.32691 1.212,0.26012 1.7523,0.0974 0.54025,-0.16308 1.0989,-0.38945 1.8497,-0.38961 0.54765,0 1.476,0.0545 2.3364,0.0974 0.86029,0.0428 1.6138,0.0413 1.9469,-0.29211 0.20698,-0.20692 0.49174,-0.48816 0.58415,-0.77882 0.0924,-0.29058 -0.007,-0.53739 -0.58415,-0.6814 -0.82297,-0.20601 -1.5481,-0.4602 -2.4337,-0.68178 -1.2256,-0.30639 -0.83756,-0.85678 -1.8496,-1.363 -1.1465,-0.57342 -1.4861,-0.73657 -2.8232,-1.0712 -0.87592,-0.219 -2.2039,-0.35389 -2.9206,-1.0708 -0.64479,-0.64508 -0.99056,-1.8098 -1.6549,-2.1422 -1.1619,-0.58101 -2.0504,-1.3836 -3.4073,-1.6552 -1.3543,-0.27083 -3.0104,-0.68156 -4.3809,-0.68132 -0.40408,0 -0.69965,8.3e-4 -1.0708,0 z m 25.993,8.86 c -0.22111,-0.02 -0.46106,0.0422 -0.68158,0.0974 -0.90501,0.2263 -3.2681,0.0137 -3.4074,0.29204 -0.15425,0.25722 -0.35241,0.51049 -0.48656,0.77889 -0.31308,0.62623 -0.26052,0.82912 -0.0975,0.97373 0.16308,0.14446 0.47002,0.17789 0.77886,0.48679 0.11567,0.11588 0.3904,0.495 0.48677,0.87632 0.0963,0.38139 0.003,0.77714 -0.38942,0.97365 -0.0877,0.0438 -1.9825,1.0001 -1.947,1.071 0.2567,0.51338 0.52021,0.68141 1.6548,0.68141 0.94434,0 1.5939,0.12432 2.4339,0.29225 0.56506,0.113 1.8011,0.42608 2.3363,0.29218 1.2659,-0.31665 2.212,-0.65457 3.018,-1.4606 0.67987,-0.68026 0.69049,-0.36733 1.947,-0.68148 0.43467,-0.10881 0.95547,-0.0894 1.2655,-0.19476 0.31017,-0.10532 0.48678,-0.32569 0.48678,-0.87639 0,-0.58458 -0.67372,-1.363 -1.4604,-1.363 -0.68875,0 -1.6053,0.0249 -2.2389,-0.29202 -0.88099,-0.44083 -0.88727,-1.1956 -1.9471,-1.4605 -0.49763,-0.12463 -1.0891,-0.42638 -1.7522,-0.48686 z m 11.098,3.4077 c -0.30666,-0.0767 -0.46966,0.36779 -0.48656,0.87654 -0.0172,0.50853 0.14357,1.0615 0.19456,1.2656 0.11292,0.45191 1.6972,0.68141 2.2392,0.68141 0.5416,0 0.9753,0.0158 1.1682,-0.0973 0.19285,-0.11323 0.13565,-0.3127 -0.0975,-0.7789 -0.32857,-0.65754 -0.52103,-1.4289 -1.1681,-1.7526 -0.53427,-0.26702 -1.2674,-0.19453 -1.8498,-0.19476 z m 8.7617,0.68155 c -0.15957,0.11816 -0.2496,0.54698 -0.19472,0.97374 0.055,0.42683 0.27712,0.79941 0.97358,0.97372 0.68614,0.17167 1.6984,0.11065 2.1417,0 0.35996,-0.09 0.22028,-0.38359 -0.0974,-0.77912 -0.31758,-0.39522 -0.73879,-0.80754 -1.0708,-0.97335 -0.39863,-0.19955 -1.1595,-0.19499 -1.655,-0.19499 -0.0403,-0.0201 -0.0517,-0.0335 -0.0974,0 z m -31.834,0.97374 c -0.12958,0.008 -0.35809,0.0973 -0.48678,0.0973 -0.12959,-0.10623 -1.5028,-0.0274 -2.1416,0.29233 -0.44641,0.22303 -0.73789,0.43976 -0.87622,0.68133 -0.13811,0.24149 -0.14544,0.58512 0.0973,1.0711 0.25356,0.50708 0.28571,0.84189 0.38957,1.071 0.10348,0.22896 0.30112,0.3431 0.87622,0.48687 0.93394,0.23343 1.7746,0.52433 2.6283,0.0974 0.6599,-0.3301 0.9735,-1.2835 0.97365,-2.0447 0,-0.93954 -0.26283,-1.4532 -1.0709,-1.6554 -0.12488,-0.0312 -0.25984,-0.10509 -0.38943,-0.0973 z m 35.923,3.5051 c -0.49778,0.10577 -0.41141,0.8542 0.0975,1.3632 0.60718,0.6073 1.2432,0.40068 1.6549,0.19475 0.44835,-0.22432 0.27771,-0.59613 -0.0973,-0.87631 -0.37508,-0.28017 -0.94493,-0.48109 -0.97357,-0.48679 -0.29357,-0.14689 -0.51551,-0.23002 -0.68151,-0.19484 z m 3.0179,4.2841 c -0.26134,0.20251 -1.0707,0.86643 -1.0707,1.2658 0,0.38025 0.39587,0.37728 0.87607,0.2921 0.48021,-0.0855 0.9928,-0.25305 1.0709,-0.2921 0.45082,-0.22562 -0.36289,-0.93665 -0.7788,-1.2658 -0.0147,0.007 -0.0729,-0.012 -0.0975,0 z m 0.58422,3.5052 c 0.0163,0.027 0.0786,0.16498 0.0973,0.19462 0.0726,-0.0607 0.10872,-0.18961 0.0975,-0.19462 -0.01,-0.004 -0.10933,-0.0428 -0.19479,0 z m 0.0973,0.19462 c -0.34388,0.28838 -1.4235,1.0214 -1.5576,1.5578 -0.11411,0.45661 1.901,-0.0742 1.947,-0.0972 0.45208,-0.22615 -0.091,-0.98779 -0.38944,-1.4606 z m 4.0889,1.0709 c -0.0445,0.46157 -0.52956,1.7206 -0.0974,2.0448 0.63738,0.4782 0.92811,0.34218 1.0709,0.0973 0.14274,-0.24484 0.12763,-0.62099 0,-0.87616 -0.24378,-0.48778 -0.52613,-0.80906 -0.97343,-1.2659 z"
         id="path35"
         style="fill:url(#b)"
         inkscape:connector-curvature="0" />
      <path
         style="color:#000000;fill:url(#c)"
         d="m 485.93,359.96 c 0,0 -39.081,-3.7873 -65.969,15.659 -26.888,19.447 -41.584,62.128 -72.815,75.064 -62.462,25.872 -111.06,12.767 -111.06,12.767 -28.563,-68.958 4.2207,-148.1 73.178,-176.67 68.958,-28.563 148.1,4.2207 176.67,73.178 z"
         id="path37"
         inkscape:connector-curvature="0" />
    </g>
    <rect
       id="rect41"
       x="0.097712204"
       y="5.0480108"
       width="15.816"
       height="5.9103999"
       style="color:#000000;fill:#ffffff;stroke:#ffffff;stroke-width:0.18358;stroke-linecap:square;stroke-dasharray:0.55075116, 0.55075116" />
    <g
       transform="matrix(0.95036157,0,0,1,0.00938134,0)"
       id="text43"
       style="font-size:5.69980001px;line-height:125%;font-family:Sans;letter-spacing:0px;word-spacing:0px;fill:#000000">
      <path
         id="path4420"
         d="m 5.3126907,5.8986262 -1.0770618,4.1440438 -0.6206326,0 -0.871112,-3.4399181 -0.8516302,3.4399181 -0.606717,0 -1.0965436,-4.1440438 0.56497041,0 0.87111199,3.4454846 0.8571965,-3.4454846 0.5594042,0 0.8655458,3.4788818 0.8655458,-3.4788818 0.5399225,0 z"
         inkscape:connector-curvature="0" />
      <path
         id="path4422"
         d="m 10.945696,5.8986262 -1.0770615,4.1440438 -0.6206325,0 -0.8711121,-3.4399181 -0.8516302,3.4399181 -0.606717,0 -1.0965436,-4.1440438 0.5649704,0 0.871112,3.4454846 0.8571965,-3.4454846 0.5594042,0 0.8655458,3.4788818 0.865546,-3.4788818 0.539922,0 z"
         inkscape:connector-curvature="0" />
      <path
         id="path4424"
         d="m 16.578702,5.8986262 -1.077062,4.1440438 -0.620632,0 -0.871112,-3.4399181 -0.851631,3.4399181 -0.606717,0 -1.096543,-4.1440438 0.56497,0 0.871112,3.4454846 0.857197,-3.4454846 0.559404,0 0.865546,3.4788818 0.865545,-3.4788818 0.539923,0 z"
         inkscape:connector-curvature="0" />
    </g>
  </g>
</svg>
