<?xml version="1.0"?>
<svg xmlns="http://www.w3.org/2000/svg" id="Layer_2" data-name="Layer 2" viewBox="0 0 24 24"><path d="M7.73,9.73H5.1v1.54H7.52V13H5.1v3H3V8H7.73ZM13.39,16H11.17V11.77c0-.51,0-1,0-1.42a3.52,3.52,0,0,1-.51.52l-.91.75L8.65,10.24,11.42,8h2Zm6.93-.88a2.52,2.52,0,0,1-2.19,1,2.51,2.51,0,0,1-2.19-1A5.34,5.34,0,0,1,15.21,12a5.47,5.47,0,0,1,.72-3.15,2.52,2.52,0,0,1,2.2-1,2.52,2.52,0,0,1,2.18,1A5.41,5.41,0,0,1,21,12,5.37,5.37,0,0,1,20.32,15.15Zm-1.62-5c-.11-.36-.31-.54-.57-.54s-.46.17-.58.52A7.09,7.09,0,0,0,17.38,12a7.05,7.05,0,0,0,.17,1.88c.12.34.31.51.58.51s.46-.18.57-.53A6.62,6.62,0,0,0,18.87,12,7.12,7.12,0,0,0,18.7,10.15Z" style="fill:#333"/></svg>
