<?xml version="1.0"?>
<svg xmlns="http://www.w3.org/2000/svg" id="Layer_2" data-name="Layer 2" viewBox="0 0 24 24"><polygon points="7.77 10.17 5.14 10.17 5.14 11.7 7.56 11.7 7.56 13.45 5.14 13.45 5.14 16.47 2.99 16.47 2.99 8.42 7.77 8.42 7.77 10.17" style="fill:#333"/><path d="M13.42,16.47H11.21V12.21c0-.52,0-1,0-1.42a4.09,4.09,0,0,1-.51.52l-.91.75L8.68,10.67l2.78-2.25h2Z" style="fill:#333"/><path d="M20.05,16.47H17.84V12.21c0-.52,0-1,0-1.42a4.09,4.09,0,0,1-.51.52l-.91.75-1.14-1.39,2.78-2.25h2Z" style="fill:#333"/></svg>
