<?xml version="1.0"?>
<svg xmlns="http://www.w3.org/2000/svg" id="Layer_2" data-name="Layer 2" viewBox="0 0 24 24"><polygon points="7.65 10.17 5.02 10.17 5.02 11.7 7.44 11.7 7.44 13.45 5.02 13.45 5.02 16.47 2.87 16.47 2.87 8.42 7.65 8.42 7.65 10.17" style="fill:#333"/><path d="M13.3,16.47H11.09V12.21c0-.52,0-1,0-1.42a6.12,6.12,0,0,1-.51.52l-.91.75L8.56,10.67l2.78-2.25h2Z" style="fill:#333"/><path d="M20.93,16.47H15.07V15l2-2c.56-.59.93-1,1.1-1.2a2.29,2.29,0,0,0,.36-.55,1.21,1.21,0,0,0,.11-.49.64.64,0,0,0-.21-.5.83.83,0,0,0-.57-.18,1.61,1.61,0,0,0-.77.22,5.62,5.62,0,0,0-.88.64L15,9.59A5.94,5.94,0,0,1,16,8.8,3.94,3.94,0,0,1,17,8.43a4.9,4.9,0,0,1,1.13-.12,3.46,3.46,0,0,1,1.4.27,2.13,2.13,0,0,1,.95.79,2,2,0,0,1,.34,1.14,3,3,0,0,1-.12.87,3.28,3.28,0,0,1-.36.79,6.24,6.24,0,0,1-.66.82c-.28.29-.86.83-1.76,1.63v.06h3.06Z" style="fill:#333"/></svg>
