<?xml version="1.0"?>
<svg xmlns="http://www.w3.org/2000/svg" id="Layer_2" data-name="Layer 2" viewBox="0 0 24 24"><polygon points="10.96 8.55 7.02 8.55 7.02 10.85 10.66 10.85 10.66 13.48 7.02 13.48 7.02 18.02 3.79 18.02 3.79 5.92 10.96 5.92 10.96 8.55" style="fill:#333"/><path d="M21,18H12.15V15.87l3-3c.84-.88,1.4-1.48,1.66-1.81a3.8,3.8,0,0,0,.54-.83,1.8,1.8,0,0,0,.15-.73,1,1,0,0,0-.3-.74,1.29,1.29,0,0,0-.87-.27,2.45,2.45,0,0,0-1.16.32,8.08,8.08,0,0,0-1.32,1L12,7.69a9.25,9.25,0,0,1,1.58-1.2A5.68,5.68,0,0,1,15,5.94a6.72,6.72,0,0,1,1.69-.19,5.21,5.21,0,0,1,2.1.41,3.32,3.32,0,0,1,1.44,1.18,3,3,0,0,1,.51,1.72,4.46,4.46,0,0,1-.73,2.5,7.84,7.84,0,0,1-1,1.23c-.41.43-1.29,1.25-2.63,2.45v.08H21Z" style="fill:#333"/></svg>
