<?xml version="1.0"?>
<svg xmlns="http://www.w3.org/2000/svg" id="Layer_2" data-name="Layer 2" viewBox="0 0 24 24"><polygon points="10.96 8.55 7.02 8.55 7.02 10.85 10.66 10.85 10.66 13.48 7.02 13.48 7.02 18.02 3.79 18.02 3.79 5.92 10.96 5.92 10.96 8.55" style="fill:#333"/><path d="M19.57,17.21a6.25,6.25,0,0,1-3.72,1A10.35,10.35,0,0,1,14,18a9,9,0,0,1-1.8-.51V14.82a7.22,7.22,0,0,0,1.62.6,6.64,6.64,0,0,0,1.52.19,3.17,3.17,0,0,0,1.58-.3,1,1,0,0,0,.49-1,1.06,1.06,0,0,0-.26-.76,1.65,1.65,0,0,0-.83-.41,6.66,6.66,0,0,0-1.49-.14h-.75V10.6h.76c1.67,0,2.5-.43,2.5-1.28A.78.78,0,0,0,17,8.61a1.86,1.86,0,0,0-1-.23,4.56,4.56,0,0,0-2.41.78L12.24,7a6.7,6.7,0,0,1,2-.94,8.63,8.63,0,0,1,2.32-.28,5.15,5.15,0,0,1,2.95.74,2.36,2.36,0,0,1,1.07,2.06,2.87,2.87,0,0,1-.69,1.93,3.88,3.88,0,0,1-2,1.17v0c2,.25,3,1.21,3,2.86A3.1,3.1,0,0,1,19.57,17.21Z" style="fill:#333"/></svg>
