<?xml version="1.0"?>
<svg xmlns="http://www.w3.org/2000/svg" id="Layer_2" data-name="Layer 2" viewBox="0 0 24 24"><polygon points="10.97 8.55 7.03 8.55 7.03 10.85 10.67 10.85 10.67 13.48 7.03 13.48 7.03 18.02 3.8 18.02 3.8 5.92 10.97 5.92 10.97 8.55" style="fill:#333"/><path d="M19.61,17.1a5.45,5.45,0,0,1-3.7,1.08,8,8,0,0,1-3.47-.65V14.85a9.15,9.15,0,0,0,1.63.55,7,7,0,0,0,1.56.21,2.24,2.24,0,0,0,1.4-.38,1.36,1.36,0,0,0,.49-1.14A1.3,1.3,0,0,0,17,13a2.54,2.54,0,0,0-1.52-.38,5.19,5.19,0,0,0-1.66.29l-1.21-.6.46-6.39H20V8.65H15.89l-.15,1.59a6.23,6.23,0,0,1,.92-.13l.51,0a3.7,3.7,0,0,1,1.89.49A3.39,3.39,0,0,1,20.37,12a4.32,4.32,0,0,1,.47,2A3.92,3.92,0,0,1,19.61,17.1Z" style="fill:#333"/></svg>
