<?xml version="1.0"?>
<svg xmlns="http://www.w3.org/2000/svg" id="Layer_2" data-name="Layer 2" viewBox="0 0 24 24"><path d="M10.53,8.59H6.59v2.3h3.63v2.63H6.59v4.54H3.36V6h7.17Zm9,8.48a4.22,4.22,0,0,1-3.16,1.15A4.22,4.22,0,0,1,13,16.83,5.69,5.69,0,0,1,11.79,13a9.71,9.71,0,0,1,.73-4.1,4.8,4.8,0,0,1,2.14-2.32,7.51,7.51,0,0,1,3.49-.74,13.15,13.15,0,0,1,1.73.14V8.49a9.38,9.38,0,0,0-1.81-.16,3.56,3.56,0,0,0-2.44.72,3.2,3.2,0,0,0-.88,2.35h.1A2.5,2.5,0,0,1,17.24,10a3.16,3.16,0,0,1,2.52,1,4.32,4.32,0,0,1,.89,2.89A4.32,4.32,0,0,1,19.52,17.07Zm-3.2-4.55a1.16,1.16,0,0,0-.91.38,1.28,1.28,0,0,0-.36.92,2.32,2.32,0,0,0,.34,1.3,1,1,0,0,0,.9.51,1.06,1.06,0,0,0,.85-.39A1.93,1.93,0,0,0,17.47,14C17.47,13,17.09,12.52,16.32,12.52Z" style="fill:#333"/></svg>
