<?xml version="1.0"?>
<svg xmlns="http://www.w3.org/2000/svg" id="Layer_2" data-name="Layer 2" viewBox="0 0 24 24"><path d="M10.54,8.59H6.6v2.3h3.63v2.63H6.6v4.54H3.37V6h7.17Zm8.93,8.75a5.32,5.32,0,0,1-3.27.88,5.39,5.39,0,0,1-3.28-.86,3,3,0,0,1-1.14-2.49,3.09,3.09,0,0,1,.51-1.79A4.41,4.41,0,0,1,14,11.74a4.56,4.56,0,0,1-1.41-1.39,3.13,3.13,0,0,1-.44-1.62,2.51,2.51,0,0,1,1.09-2.17,5.12,5.12,0,0,1,3-.77,5.06,5.06,0,0,1,3,.77,2.52,2.52,0,0,1,1.06,2.18,2.88,2.88,0,0,1-.5,1.69,4,4,0,0,1-1.59,1.26,5.93,5.93,0,0,1,1.9,1.52,2.67,2.67,0,0,1,.55,1.63A3,3,0,0,1,19.47,17.34ZM17.31,14a4.41,4.41,0,0,0-1.14-.88,3.33,3.33,0,0,0-1.06.78,1.31,1.31,0,0,0-.32.83,1,1,0,0,0,.36.82,1.53,1.53,0,0,0,1,.31c1,0,1.46-.35,1.46-1.06A1.28,1.28,0,0,0,17.31,14Zm-.4-5.62a1,1,0,0,0-.69-.24,1.1,1.1,0,0,0-.72.24.8.8,0,0,0-.29.63c0,.48.33.9,1,1.26A2.66,2.66,0,0,0,17,9.66,1,1,0,0,0,17.2,9,.76.76,0,0,0,16.91,8.39Z" style="fill:#333"/></svg>
