<?xml version="1.0"?>
<svg xmlns="http://www.w3.org/2000/svg" id="Layer_2" data-name="Layer 2" viewBox="0 0 24 24"><path d="M10.54,8.55H6.6v2.31h3.64v2.62H6.6V18H3.37V5.93h7.17Zm8.55,8.05q-1.53,1.59-4.91,1.59a13.9,13.9,0,0,1-1.69-.08V15.52a7.58,7.58,0,0,0,1.42.13,4.45,4.45,0,0,0,2.72-.72,2.92,2.92,0,0,0,1-2.29h-.1a3.08,3.08,0,0,1-.64.86,2.09,2.09,0,0,1-.77.4,3.75,3.75,0,0,1-1.14.15A3.08,3.08,0,0,1,12.55,13a4.34,4.34,0,0,1-.89-2.89A4.23,4.23,0,0,1,12.82,7,4.26,4.26,0,0,1,16,5.81a4.22,4.22,0,0,1,3.44,1.47,6.41,6.41,0,0,1,1.22,4.18Q20.63,15,19.09,16.6ZM17,9a1.13,1.13,0,0,0-1.81-.14,1.91,1.91,0,0,0-.34,1.25,1.77,1.77,0,0,0,.3,1.08,1,1,0,0,0,.88.4,1.29,1.29,0,0,0,.94-.39,1.24,1.24,0,0,0,.4-.93A2.12,2.12,0,0,0,17,9Z" style="fill:#333"/></svg>
