<?xml version="1.0" encoding="UTF-8" standalone="no"?>
<!DOCTYPE svg PUBLIC "-//W3C//DTD SVG 1.1//EN" "http://www.w3.org/Graphics/SVG/1.1/DTD/svg11.dtd">
<svg width="100%" height="100%" viewBox="0 0 24 24" version="1.1" xmlns="http://www.w3.org/2000/svg" xmlns:xlink="http://www.w3.org/1999/xlink" xml:space="preserve" xmlns:serif="http://www.serif.com/" style="fill-rule:evenodd;clip-rule:evenodd;stroke-linejoin:round;stroke-miterlimit:2;">
    <g id="Layer-1" serif:id="Layer 1" transform="matrix(1,0,0,1,-0.0097656,-0.990234)">
        <rect id="rect847" x="7.009" y="2.991" width="7" height="3"/>
        <path id="polygon849" d="M19.01,11.938L19.01,21.99L22.006,21.99L22.006,8.936L19.01,11.938Z" style="fill:rgb(51,51,51);fill-rule:nonzero;"/>
        <path id="path2613" d="M13.07,7.99L5.01,7.99L5.01,2.99L2.01,2.99L2.01,21.99L5.01,21.99L5.01,10.99L10.248,10.99C10.255,10.969 10.262,10.947 10.27,10.926C10.365,10.739 10.49,10.568 10.639,10.42L11.723,9.34L13.07,7.99Z" style="fill:rgb(51,51,51);fill-rule:nonzero;"/>
        <path id="path2611" d="M18.029,3.016L18.01,2.99L16.01,2.99L16.01,5.045L18.029,3.016Z" style="fill:rgb(51,51,51);fill-rule:nonzero;"/>
        <rect id="rect851" x="7.009" y="2.991" width="7" height="3" style="fill:rgb(51,51,51);"/>
        <path id="rect853" d="M8.938,12.99L7.01,12.99L7.01,21.99L17.01,21.99L17.01,13.941L15.584,15.369C15.24,15.745 15.09,15.918 14.798,16.181C14.737,16.248 14.63,16.328 14.561,16.387C14.491,16.446 14.426,16.483 14.349,16.532C14.272,16.581 14.183,16.632 14.1,16.669C14.018,16.708 13.908,16.757 13.821,16.784C13.734,16.809 13.624,16.858 13.533,16.871C13.518,16.872 13.505,16.884 13.49,16.891L11.791,17.48C11.692,17.515 11.59,17.541 11.486,17.559C11.429,17.569 11.372,17.575 11.314,17.578C11.257,17.581 11.2,17.582 11.143,17.58C11.085,17.578 11.028,17.575 10.971,17.57C10.913,17.565 10.854,17.559 10.797,17.553C10.75,17.549 10.703,17.544 10.656,17.537C10.61,17.53 10.564,17.521 10.518,17.512C10.472,17.502 10.426,17.491 10.381,17.479C10.336,17.466 10.29,17.453 10.246,17.438C10.202,17.422 10.159,17.406 10.115,17.389C10.072,17.371 10.029,17.352 9.986,17.332C9.944,17.312 9.903,17.292 9.861,17.27C9.82,17.247 9.778,17.224 9.738,17.199C9.698,17.175 9.66,17.15 9.621,17.123C9.582,17.097 9.543,17.068 9.506,17.039C9.468,17.011 9.433,16.982 9.396,16.951C9.36,16.921 9.324,16.89 9.289,16.857C9.254,16.825 9.221,16.794 9.188,16.76C9.154,16.726 9.123,16.692 9.092,16.656C9.06,16.621 9.03,16.584 9,16.547C8.97,16.51 8.942,16.472 8.914,16.434C8.886,16.395 8.86,16.358 8.834,16.318C8.808,16.279 8.782,16.238 8.758,16.197C8.734,16.157 8.711,16.116 8.689,16.074C8.668,16.033 8.647,15.99 8.627,15.947C8.607,15.905 8.59,15.862 8.572,15.818C8.555,15.775 8.537,15.73 8.521,15.686C8.506,15.641 8.493,15.598 8.48,15.553C8.468,15.508 8.456,15.462 8.445,15.416C8.435,15.371 8.426,15.325 8.418,15.279C8.41,15.233 8.404,15.187 8.398,15.141C8.393,15.094 8.389,15.048 8.387,15.002C8.384,14.955 8.383,14.908 8.383,14.861C8.383,14.815 8.386,14.769 8.389,14.723C8.392,14.676 8.396,14.629 8.402,14.582C8.408,14.535 8.415,14.49 8.424,14.443C8.433,14.397 8.443,14.349 8.455,14.303C8.473,14.237 8.493,14.173 8.518,14.109L8.938,12.99Z" style="fill:rgb(0,113,188);fill-rule:nonzero;"/>
        <g id="polygon1039" transform="matrix(1,-0.000887116,0.000887116,1,3.12505,-2.62444)">
            <path d="M8.91,14.47L10,13.39L13.39,10L16.66,6.72L18.78,8.84L11.03,16.59L8.91,14.47Z" style="fill:rgb(0,113,188);fill-rule:nonzero;"/>
        </g>
        <path id="path1037" d="M13.231,14.907L13.141,14.907L11.141,15.598C11.085,15.609 11.027,15.609 10.971,15.599C10.633,15.589 10.36,15.307 10.36,14.969C10.36,14.915 10.367,14.861 10.381,14.809L11.139,12.788L13.231,14.907Z" style="fill:rgb(51,51,51);fill-rule:nonzero;"/>
    </g>
</svg>
