<?xml version="1.0"?>
<svg xmlns="http://www.w3.org/2000/svg" id="Layer_2" data-name="Layer 2" viewBox="0 0 24 24"><path d="M22.16,16.89c-.13.16-.24.32-.38.47a2.5,2.5,0,0,1-3.83.06,11.22,11.22,0,0,1-1.23-1.85,3.82,3.82,0,0,1-.25-.56l-.38.39c-.42.45-.81.93-1.27,1.34a2.35,2.35,0,0,1-1.62.63A1.46,1.46,0,0,1,11.73,16a1.16,1.16,0,0,1,1.75-1l.34.25a10.3,10.3,0,0,0,1.9-2.43,1,1,0,0,0,0-.67c-.09-.46-.22-.9-.35-1.38a31.91,31.91,0,0,0-4.28-.17c-.25,1-.48,2-.73,2.94-.29,1.12-.57,2.25-.91,3.35a7,7,0,0,1-1.82,3,5,5,0,0,1-3.9,1.56,1.71,1.71,0,0,1-1.16-.54,1.2,1.2,0,0,1,.74-2c.2,0,.41,0,.62,0l1.24,0c1,0,1.13,0,1.38-1C7,16.29,7.45,14.65,7.87,13c.21-.79.4-1.58.61-2.44h-2a2.47,2.47,0,0,1,.15-.92c.09-.29.15-.59.24-1H8.93l.4-1.22a6.9,6.9,0,0,1,1.22-2.4,5,5,0,0,1,4.32-2,1.28,1.28,0,0,1,1.28,1.29A1.16,1.16,0,0,1,15,5.58,7.87,7.87,0,0,1,14,5.49L12.83,5.4a7.29,7.29,0,0,0-1.22,3.2,14.6,14.6,0,0,0,2.09,0c.85,0,1.7-.08,2.55-.09a1.22,1.22,0,0,1,1.42.94c0,.11.08.23.16.42.32-.31.59-.61.89-.86a7.44,7.44,0,0,1,1.15-.77A1.48,1.48,0,0,1,22.16,9v.46a1.6,1.6,0,0,1-1.51,1,2.19,2.19,0,0,0-1.74,1c-.22.29-.41.59-.59.86l.13.58c.16.7.3,1.41.49,2.11a2.39,2.39,0,0,0,.87,1.34L20,16c.63-1,1.37-1.07,2.09-.1l.06.06Z" style="fill:#333"/></svg>
