<?xml version="1.0" encoding="UTF-8"?>
<svg xmlns="http://www.w3.org/2000/svg" version="1.1" viewBox="0 0 24 24">
 <rect x="3" y="1.8387" width="18" height="20.323" fill="#0071bc"/>
 <g transform="translate(.005 2.5)" fill="#333333">
  <path d="m13.86 12.3h-5l-0.48 1.53c-0.1 0.32-0.19 0.62-0.26 0.92a4 4 0 0 0-0.11 0.93 1.38 1.38 0 0 0 0.55 1.24v0.08h-4.56v-0.72a1.63 1.63 0 0 0 0.82-0.28 2.44 2.44 0 0 0 0.61-0.66 6.54 6.54 0 0 0 0.57-1.19l5.05-12.15h3.22l4 12.25a7.42 7.42 0 0 0 0.44 1.16 1.62 1.62 0 0 0 0.47 0.56 1.91 1.91 0 0 0 0.81 0.31v0.72h-6.85v-0.08a1.57 1.57 0 0 0 1-0.34 1 1 0 0 0 0.29-0.77 5 5 0 0 0-0.08-0.81 10.37 10.37 0 0 0-0.27-1.13zm-4.62-0.92h4.19l-1.86-6.79z"/>
  <rect x="8.5" y="11" width="5.5" height="1"/>
 </g>
</svg>
