<?xml version="1.0" encoding="UTF-8" standalone="no"?>
<svg xmlns:rdf="http://www.w3.org/1999/02/22-rdf-syntax-ns#" xmlns="http://www.w3.org/2000/svg" version="1.1" xmlns:cc="http://creativecommons.org/ns#" xmlns:xlink="http://www.w3.org/1999/xlink" viewBox="0 0 16 16.082" xmlns:dc="http://purl.org/dc/elements/1.1/">
<defs>
<filter id="e" style="color-interpolation-filters:sRGB" height="1.2261" width="1.2447" y="-.11307" x="-.12234">
<feGaussianBlur stdDeviation="0.60443961"/>
</filter>
<radialGradient id="b" gradientUnits="userSpaceOnUse" cy="555.96" cx="590.35" gradientTransform="matrix(.12749 .047352 -.064075 .11244 -340.5 748.45)" r="70.341">
<stop stop-color="#ff0" offset="0"/>
<stop stop-color="#fff" offset="1"/>
</radialGradient>
<radialGradient id="a" gradientUnits="userSpaceOnUse" cy="537.34" cx="591.23" gradientTransform="matrix(.17318 -.016340 .016702 .11537 -412.38 784.42)" r="65.043">
<stop stop-color="#ff0" offset="0"/>
<stop stop-color="#fff" offset="1"/>
</radialGradient>
<linearGradient id="d" y2="666.84" gradientUnits="userSpaceOnUse" x2="447.56" gradientTransform="matrix(.081945 0 0 .066156 -335.48 802.37)" y1="665.36" x1="410.6">
<stop stop-color="#6c5353" offset="0"/>
<stop stop-color="#fff" offset="1"/>
</linearGradient>
<linearGradient id="c" y2="287.59" gradientUnits="userSpaceOnUse" x2="265.33" gradientTransform="matrix(.62121 .023096 -.028608 .50151 -459.05 685.68)" y1="284.45" x1="261.9">
<stop stop-color="#fff" offset="0"/>
<stop stop-color="#fff" stop-opacity="0" offset="1"/>
</linearGradient>
</defs>
<metadata>
<rdf:RDF>
<cc:Work rdf:about="">
<dc:format>image/svg+xml</dc:format>
<dc:type rdf:resource="http://purl.org/dc/dcmitype/StillImage"/>
<dc:title/>
</cc:Work>
</rdf:RDF>
</metadata>
<g transform="translate(-54.414 -21.616)">
<g transform="translate(363.4 -810.83)">
<g transform="matrix(.91438 0 0 .91438 -25.846 72.646)">
<path d="m-300.91 845.32c-0.42273 0.001-1.0078 0.001-2.1785 0.006-0.24821 0.0001-0.29435-0.0265-0.48508-0.22126-0.004-0.004-0.009-0.009-0.0143-0.0134-0.0197-0.0182-0.11426-0.25226-0.13491-0.55203-0.0206-0.29978-0.0114-0.65439-0.0689-0.97893-0.001-0.008-0.003-0.0149-0.005-0.0224-0.70607-2.5828-1.8342-3.18-2.7325-5.1628-0.54052-1.299-0.36817-2.5103 0.69747-3.8039 0.002-0.002 0.007-0.006 0.009-0.009 0.63139-0.65129 2.0613-2.0955 4.9024-2.0652 2.841-0.0303 4.3141 1.4139 4.9455 2.0652l0.009 0.009c1.0656 1.2936 1.238 2.5049 0.69747 3.8039-1.137 2.1204-2.0269 2.5805-2.7325 5.1628-0.002 0.008-0.004 0.0148-0.005 0.0224-0.0575 0.32454-0.0482 0.67915-0.0689 0.97893-0.0206 0.29977-0.11517 0.53386-0.13491 0.55203-0.004 0.004-0.0104 0.009-0.0143 0.0134-0.19072 0.19484-0.23686 0.22136-0.48508 0.22126-1.1707-0.005-1.7759-0.005-2.1986-0.006z" stroke-opacity=".99608" fill-rule="evenodd" filter="url(#e)" stroke="#ff0" stroke-width=".55039" fill="#ff0"/>
<path d="m-300.86 845.15c-0.64976 0.002-0.65487 0.001-1.9539 0.008-0.32517 0.00012-0.53162-0.10587-0.74008-0.32665-0.29239-0.27901-0.17925-1.0487-0.26888-1.5733-0.637-2.3161-1.4152-2.6518-2.42-4.7219-0.52629-1.2926-0.34819-2.5494 0.67349-3.8247 0.57482-0.61349 1.7417-2.0028 4.7093-2.0343 2.9676 0.0315 4.1345 1.4208 4.7093 2.0343 1.0217 1.2752 1.1972 2.5321 0.67093 3.8247-0.94544 1.9096-1.7943 2.3643-2.42 4.7219-0.0896 0.52457 0.0235 1.2943-0.26888 1.5733-0.20845 0.22078-0.41234 0.32677-0.73751 0.32665-1.299-0.007-1.3041-0.006-1.9539-0.008z" fill-rule="evenodd" stroke="#000" stroke-width=".5" fill="url(#b)"/>
<path d="m-300.87 844.84c-0.37716 0.001-0.89912 0.00099-1.9436 0.006-0.22145 0.00009-0.26262-0.0245-0.43278-0.20467-0.004-0.004-0.008-0.008-0.0128-0.0124-0.0176-0.0168-0.10193-0.23335-0.12036-0.51064-0.0184-0.2773-0.0102-0.60531-0.0615-0.90552-0.001-0.007-0.003-0.0138-0.005-0.0207-0.62994-2.3891-1.6365-2.9415-2.4379-4.7756-0.48224-1.2016-0.32847-2.3221 0.62227-3.5187l0.008-0.008c0.56331-0.60245 1.8391-1.9383 4.3738-1.9103 2.5347-0.028 3.849 1.3079 4.4123 1.9103l0.008 0.008c0.95074 1.1966 1.1045 2.3171 0.62227 3.5187-1.0144 1.9614-1.8084 2.387-2.4379 4.7756-0.002 0.007-0.004 0.0137-0.005 0.0207-0.0513 0.30021-0.043 0.62822-0.0615 0.90552-0.0184 0.27729-0.10275 0.49383-0.12036 0.51064-0.004 0.004-0.009 0.008-0.0128 0.0124-0.17016 0.18023-0.21133 0.20476-0.43278 0.20467-1.0445-0.005-1.5844-0.005-1.9616-0.006z" fill-rule="evenodd" fill="url(#a)"/>
<path stroke-linejoin="round" d="m438.47 693.53a17.278 5.7594 0 0 1 -8.6446 4.9888 17.278 5.7594 0 0 1 -17.284 -0.003 17.278 5.7594 0 0 1 -8.628 -4.992" stroke-opacity=".87209" transform="matrix(.080389 0 0 .11896 -334.78 765.22)" stroke="#999" stroke-linecap="round" stroke-width="2" fill="#1a1a1a"/>
<path stroke-linejoin="round" d="m-302.96 845.33c-0.38448 0.22695-0.51893 0.46629-0.0312 0.78125-0.23444 0.19835-0.65215 0.37239 0 0.78125-0.49312 0.27224-0.40474 0.52188 0.0312 0.75h4.0938c0.656-0.39 0.24242-0.56192 0-0.78125 0.61238-0.44625 0.14675-0.54889 0-0.75 0.50095-0.34704 0.27715-0.56488-0.0312-0.78125h-4.0625z" stroke-opacity=".99419" fill-rule="evenodd" stroke="#000" stroke-linecap="round" stroke-width=".15462" fill="url(#d)"/>
<path d="m-305.52 838.44c-0.28295-0.93186-0.11376-2.0911 0.70683-3.2786 1.2602-1.7258 3.1092-1.5548 4.2483-1.5732-1.6976 1.5867-3.1571 3.0467-4.9552 4.8518z" fill-rule="evenodd" fill="url(#c)"/>
</g>
<rect style="color:#000000" height="16" width="16" y="832.45" x="-308.99" fill="none"/>
</g>
</g>
</svg>
