<?xml version="1.0"?>
<svg xmlns="http://www.w3.org/2000/svg" id="Layer_2" data-name="Layer 2" viewBox="0 0 24 24"><polygon points="16 6 19 2 22 6 16 6" style="fill:#0071bc"/><path d="M12.83,16.3h-5l-.48,1.53c-.1.32-.19.62-.26.92a4,4,0,0,0-.11.93,1.36,1.36,0,0,0,.55,1.24V21H3v-.72A1.63,1.63,0,0,0,3.79,20a2.44,2.44,0,0,0,.61-.66A6.54,6.54,0,0,0,5,18.15L10,6h3.22l4,12.25a8.32,8.32,0,0,0,.45,1.16,1.62,1.62,0,0,0,.47.56,1.91,1.91,0,0,0,.81.31V21H12.11v-.08a1.6,1.6,0,0,0,1-.34,1,1,0,0,0,.29-.77,5,5,0,0,0-.08-.81c-.06-.3-.15-.68-.27-1.13Zm-4.62-.92H12.4L10.54,8.59Z" style="fill:#333"/><rect x="7.47" y="15" width="5.5" height="1" style="fill:#333"/></svg>
