<?xml version="1.0" encoding="UTF-8" standalone="no"?>
<svg xmlns:rdf="http://www.w3.org/1999/02/22-rdf-syntax-ns#" xmlns="http://www.w3.org/2000/svg" version="1.1" xmlns:cc="http://creativecommons.org/ns#" xmlns:xlink="http://www.w3.org/1999/xlink" viewBox="0 0 16 16" xmlns:dc="http://purl.org/dc/elements/1.1/">
<metadata>
<rdf:RDF>
<cc:Work rdf:about="">
<dc:format>image/svg+xml</dc:format>
<dc:type rdf:resource="http://purl.org/dc/dcmitype/StillImage"/>
<dc:title/>
</cc:Work>
</rdf:RDF>
</metadata>
<g transform="translate(-87.539 -350.14)">
<g transform="translate(-371.22 -354.88)">
<g transform="matrix(1.4797 0 -.26840 1.4227 1024.7 -604.28)" stroke="#000" stroke-width=".25">
<path d="m-208.61 930.14-0.0831 0.2443h-3.8014l0.0831-0.2443h0.31271c0.15635 0 0.29866-0.0114 0.42692-0.0342 0.12825-0.0228 0.24644-0.0782 0.35454-0.16612 0.1081-0.0879 0.21377-0.2215 0.31699-0.40066 0.10321-0.17916 0.20673-0.42183 0.31057-0.72802l1.9495-5.7362c0.0688-0.20195 0.12102-0.3697 0.15666-0.50326 0.0356-0.13355 0.0564-0.24267 0.0623-0.32737 0.006-0.0847-0.006-0.15146-0.0345-0.20033-0.0289-0.0489-0.0747-0.0961-0.13742-0.14169-0.16003-0.10423-0.34427-0.15635-0.55274-0.15636h-0.31271l0.0831-0.2443h3.8014l-0.0831 0.2443h-0.31271c-0.15636 0.00001-0.29928 0.013-0.42875 0.0391-0.12949 0.0261-0.24828 0.0831-0.35638 0.17101-0.10811 0.088-0.21377 0.22151-0.31698 0.40066-0.10322 0.17916-0.20573 0.41858-0.30752 0.71825l-1.9495 5.7362c-0.0709 0.20847-0.12511 0.37785-0.16277 0.50815-0.0377 0.13029-0.0578 0.23779-0.0605 0.32248-0.003 0.0847 0.0121 0.15147 0.0443 0.20033 0.0322 0.0489 0.0796 0.0961 0.14231 0.14169 0.14698 0.10424 0.32797 0.15636 0.54296 0.15636z"/>
</g>
<rect style="color:#000000" height="16" width="16" y="705.02" x="458.76" fill="none"/>
</g>
</g>
</svg>
