<?xml version="1.0" encoding="UTF-8" standalone="no"?>
<svg
   xmlns:dc="http://purl.org/dc/elements/1.1/"
   xmlns:cc="http://creativecommons.org/ns#"
   xmlns:rdf="http://www.w3.org/1999/02/22-rdf-syntax-ns#"
   xmlns:svg="http://www.w3.org/2000/svg"
   xmlns="http://www.w3.org/2000/svg"
   xmlns:sodipodi="http://sodipodi.sourceforge.net/DTD/sodipodi-0.dtd"
   xmlns:inkscape="http://www.inkscape.org/namespaces/inkscape"
   version="1.1"
   viewBox="0 0 16 16"
   id="svg2"
   inkscape:version="0.91 r13725"
   sodipodi:docname="JoinNodesAction.svg">
  <defs
     id="defs38" />
  <sodipodi:namedview
     pagecolor="#ffffff"
     bordercolor="#666666"
     borderopacity="1"
     objecttolerance="10"
     gridtolerance="10"
     guidetolerance="10"
     inkscape:pageopacity="0"
     inkscape:pageshadow="2"
     inkscape:window-width="1185"
     inkscape:window-height="827"
     id="namedview36"
     showgrid="false"
     inkscape:zoom="14.75"
     inkscape:cx="-2.3050847"
     inkscape:cy="7.9322034"
     inkscape:window-x="722"
     inkscape:window-y="186"
     inkscape:window-maximized="0"
     inkscape:current-layer="svg2" />
  <metadata
     id="metadata4">
    <rdf:RDF>
      <cc:Work
         rdf:about="">
        <dc:format>image/svg+xml</dc:format>
        <dc:type
           rdf:resource="http://purl.org/dc/dcmitype/StillImage" />
        <dc:title />
      </cc:Work>
    </rdf:RDF>
  </metadata>
  <g
     id="g4541">
    <rect
       style="color:#000000;opacity:0.92510998;fill:none"
       rx="0.070384003"
       ry="0.092563003"
       height="16"
       width="16"
       y="-0.0040146485"
       x="0.0048000002"
       id="rect12" />
    <rect
       style="fill:#ffffff;fill-rule:evenodd;stroke:#000080;stroke-width:0.67567474;stroke-linejoin:round"
       id="rect16"
       x="3.7401462"
       y="9.7584486"
       width="11.927656"
       ry="1.2839048"
       rx="1.3487343"
       height="5.82196" />
    <g
       id="text18"
       style="font-style:italic;font-size:4.04557228px;fill:#000000">
      <path
         id="path4533"
         style=""
         d="m 5.4771731,11.147873 0.5373025,0 0.8138554,2.528482 0.4938443,-2.528482 0.3891493,0 -0.5748348,2.949238 -0.5392779,0 -0.81188,-2.544286 -0.4938443,2.544286 -0.3891493,0 0.5748348,-2.949238 z" />
      <path
         id="path4535"
         style=""
         d="m 8.8471665,14.154397 q -0.3891493,0 -0.6163177,-0.239021 -0.225193,-0.240996 -0.225193,-0.655825 0,-0.240996 0.07704,-0.489894 0.079015,-0.250873 0.2034639,-0.420755 0.1955623,-0.264701 0.4365583,-0.391125 0.240996,-0.126424 0.5452041,-0.126424 0.377297,0 0.6084161,0.23507 0.2330941,0.23507 0.2330941,0.614342 0,0.262726 -0.07704,0.523475 -0.07704,0.26075 -0.2014888,0.432608 -0.1935869,0.2647 -0.4345829,0.391125 -0.240996,0.126424 -0.5491548,0.126424 z M 8.3829528,13.247699 q 0,0.300257 0.1244488,0.450386 0.1264241,0.148153 0.3812478,0.148153 0.3654447,0 0.6044654,-0.318036 0.240996,-0.320011 0.240996,-0.809904 0,-0.28643 -0.1283995,-0.432608 -0.1283996,-0.146178 -0.3772971,-0.146178 -0.2054392,0 -0.3654447,0.09679 -0.1600056,0.09482 -0.2864297,0.29038 -0.092843,0.146178 -0.1442025,0.333839 -0.049385,0.187661 -0.049385,0.387174 z" />
      <path
         id="path4537"
         style=""
         d="m 11.984065,13.765247 q -0.146178,0.191612 -0.345691,0.290381 -0.199513,0.09877 -0.442484,0.09877 -0.331864,0 -0.525451,-0.225193 -0.191611,-0.227169 -0.191611,-0.620269 0,-0.327912 0.116547,-0.624219 0.116547,-0.298282 0.337789,-0.533352 0.146178,-0.156054 0.329888,-0.237045 0.183711,-0.08297 0.385199,-0.08297 0.213341,0 0.375322,0.10272 0.163956,0.102719 0.252848,0.294331 l 0.237045,-1.20498 0.365445,0 -0.598539,3.073687 -0.365445,0 0.06914,-0.331864 z m -1.12794,-0.521499 q 0,0.28643 0.128399,0.446435 0.130375,0.160006 0.359519,0.160006 0.169882,0 0.314085,-0.08099 0.146178,-0.08297 0.256799,-0.242971 0.116547,-0.165932 0.18371,-0.383223 0.06716,-0.217292 0.06716,-0.428657 0,-0.274578 -0.130375,-0.428657 -0.1284,-0.154079 -0.355568,-0.154079 -0.171858,0 -0.320011,0.08099 -0.148153,0.08099 -0.252848,0.233095 -0.114572,0.163956 -0.18371,0.381247 -0.06716,0.217292 -0.06716,0.416805 z" />
      <path
         id="path4539"
         style=""
         d="m 14.806879,12.793362 q 0.0059,-0.03161 0.0079,-0.06519 0.0039,-0.03358 0.0039,-0.06716 0,-0.240996 -0.142227,-0.381248 -0.140252,-0.140252 -0.383223,-0.140252 -0.270627,0 -0.478041,0.171858 -0.207415,0.169882 -0.314085,0.483967 l 1.305724,-0.002 z m 0.31606,0.284454 -1.690922,0 q -0.01185,0.07506 -0.0158,0.118523 -0.004,0.04346 -0.004,0.07506 0,0.274578 0.167907,0.424706 0.169882,0.150129 0.478041,0.150129 0.237045,0 0.448411,-0.05333 0.211365,-0.05334 0.3931,-0.156055 l -0.06914,0.359519 q -0.195563,0.07902 -0.404953,0.118522 -0.207414,0.03951 -0.42273,0.03951 -0.460263,0 -0.709161,-0.219267 -0.246922,-0.221242 -0.246922,-0.626195 0,-0.345691 0.122473,-0.641997 0.124449,-0.298282 0.36347,-0.531377 0.154079,-0.146178 0.365445,-0.225193 0.21334,-0.07902 0.452361,-0.07902 0.375322,0 0.596564,0.225193 0.223217,0.225193 0.223217,0.604466 0,0.09087 -0.01185,0.195562 -0.01185,0.10272 -0.03556,0.221242 z" />
    </g>
    <rect
       style="fill:#ffffff;fill-rule:evenodd;stroke:#000080;stroke-width:0.67567474;stroke-linejoin:round"
       id="rect26"
       x="0.34314618"
       y="1.1684486"
       width="11.927656"
       ry="1.2839048"
       rx="1.3487343"
       height="5.82196" />
    <g
       id="text28"
       style="font-style:italic;font-size:4.04557228px;fill:#000000">
      <path
         id="path4524"
         style=""
         d="m 2.0801733,2.5578726 0.5373026,0 0.8138554,2.5284827 0.4938442,-2.5284827 0.3891493,0 -0.5748347,2.949238 -0.5392779,0 -0.81188,-2.5442857 -0.4938443,2.5442857 -0.3891493,0 0.5748347,-2.949238 z" />
      <path
         id="path4526"
         style=""
         d="m 5.4501667,5.5643965 q -0.3891492,0 -0.6163176,-0.2390206 -0.225193,-0.240996 -0.225193,-0.6558252 0,-0.240996 0.07704,-0.4898935 Q 4.7647109,3.9287843 4.8891596,3.7589019 5.084722,3.4942013 5.325718,3.3677772 5.566714,3.2413531 5.8709221,3.2413531 q 0.377297,0 0.6084161,0.2350698 0.2330945,0.2350699 0.2330945,0.6143423 0,0.2627252 -0.07704,0.523475 Q 6.5583533,4.8749899 6.4339045,5.0468477 6.2403176,5.3115483 5.9993216,5.4379724 5.7583256,5.5643965 5.4501667,5.5643965 Z M 4.9859531,4.6576984 q 0,0.3002574 0.1244488,0.450386 0.1264241,0.1481533 0.3812478,0.1481533 0.3654447,0 0.6044653,-0.3180357 0.2409961,-0.3200111 0.2409961,-0.8099046 0,-0.2864297 -0.1283996,-0.4326076 -0.1283995,-0.1461779 -0.377297,-0.1461779 -0.2054392,0 -0.3654447,0.096793 -0.1600056,0.094818 -0.2864297,0.2903804 -0.092843,0.1461779 -0.1442025,0.3338387 -0.049385,0.1876609 -0.049385,0.3871739 z" />
      <path
         id="path4528"
         style=""
         d="m 8.5870654,5.1752472 q -0.1461779,0.1916116 -0.345691,0.2903805 -0.1995131,0.098769 -0.4424845,0.098769 -0.3318633,0 -0.5254503,-0.225193 Q 7.081828,5.1120352 7.081828,4.7189351 q 0,-0.3279126 0.1165473,-0.6242191 0.1165472,-0.298282 0.3377895,-0.5333518 0.1461779,-0.1560548 0.329888,-0.2370453 0.18371,-0.082966 0.3851985,-0.082966 0.2133407,0 0.3753216,0.1027196 0.1639563,0.1027196 0.2528483,0.2943312 l 0.2370453,-1.2049801 0.3654447,0 -0.5985392,3.0736868 -0.3654448,0 0.069138,-0.3318634 z M 7.4591251,4.6537477 q 0,0.2864297 0.1283995,0.4464352 0.1303749,0.1600056 0.3595186,0.1600056 0.1698824,0 0.314085,-0.08099 0.1461779,-0.082966 0.256799,-0.2429714 0.1165472,-0.1659317 0.1837101,-0.3832231 0.067163,-0.2172915 0.067163,-0.4286569 0,-0.2745774 -0.1303749,-0.4286568 -0.1283995,-0.1540794 -0.3555679,-0.1540794 -0.1718578,0 -0.3200111,0.08099 Q 7.8146929,3.7035913 7.709998,3.8556953 7.5954261,4.0196516 7.5262879,4.2369431 7.4591251,4.4542346 7.4591251,4.6537477 Z" />
      <path
         id="path4530"
         style=""
         d="m 11.409879,4.2033617 q 0.0059,-0.031606 0.0079,-0.065187 0.004,-0.033581 0.004,-0.067163 0,-0.2409961 -0.142228,-0.3812478 -0.140251,-0.1402518 -0.383223,-0.1402518 -0.270626,0 -0.478041,0.1718578 -0.207415,0.1698824 -0.314085,0.4839674 l 1.305724,-0.00198 z m 0.316061,0.2844543 -1.690923,0 q -0.01185,0.075064 -0.0158,0.1185226 -0.004,0.043458 -0.004,0.075064 0,0.2745774 0.167907,0.424706 0.169883,0.1501287 0.478041,0.1501287 0.237046,0 0.448411,-0.053335 0.211365,-0.053335 0.3931,-0.1560548 l -0.06914,0.3595187 q -0.195562,0.079015 -0.404952,0.1185226 -0.207415,0.039508 -0.422731,0.039508 -0.460263,0 -0.7091605,-0.2192668 -0.2469221,-0.2212423 -0.2469221,-0.6261946 0,-0.345691 0.1224733,-0.6419975 0.1244488,-0.298282 0.3634693,-0.5313765 0.15408,-0.1461779 0.365445,-0.2251929 0.213341,-0.079015 0.452361,-0.079015 0.375322,0 0.596564,0.225193 0.223218,0.2251929 0.223218,0.6044654 0,0.090867 -0.01185,0.1955623 -0.01185,0.1027196 -0.03556,0.2212422 z" />
    </g>
    <path
       style="fill:#f21313;stroke:#f70808;stroke-width:0.24259px"
       inkscape:connector-curvature="0"
       id="path34"
       d="m 9.556,0.12 0,3.8769 -3.5925,0 0,2.7036 3.5925,0 0,3.8769 2.7324,0 0,-3.8769 3.5925,0 0,-2.7036 -3.5925,0 0,-3.8769 -2.7324,0 z" />
  </g>
</svg>
