<?xml version="1.0" encoding="UTF-8" standalone="no"?>
<!-- Created with Inkscape (http://www.inkscape.org/) -->
<svg xmlns="http://www.w3.org/2000/svg" xmlns:svg="http://www.w3.org/2000/svg" xmlns:rdf="http://www.w3.org/1999/02/22-rdf-syntax-ns#" xmlns:cc="http://creativecommons.org/ns#" xmlns:dc="http://purl.org/dc/elements/1.1/" viewBox="0 0 24 24" version="1.1" id="svg10437" xml:space="preserve"><defs id="defs10431"/><metadata id="metadata10434"><rdf:RDF><cc:Work rdf:about=""><dc:format>image/svg+xml</dc:format><dc:type rdf:resource="http://purl.org/dc/dcmitype/StillImage"/></cc:Work></rdf:RDF></metadata><g id="layer1"><path style="fill:#0071bc;stroke-width:0.848528" d="M 4.2597656,6 C 3.0082808,6 2,7.0082808 2,8.2597656 V 11.740234 C 2,12.991719 3.0082808,14 4.2597656,14 h 6.9199224 c 0.05989,-0.207981 0.135723,-0.402287 0.230468,-0.570312 0.439169,-0.778837 1.648302,-1.548694 2.533203,-1.591797 0.399001,-0.01944 0.474622,0.07417 0.716797,0.128906 0.09088,-0.244286 0.07122,-0.387347 0.31836,-0.722656 0.505207,-0.685439 1.671886,-1.2742262 2.554687,-1.2832035 C 18.331894,9.9528163 19.432171,10.481096 20,11.125 V 8.2597656 C 20,7.0082808 18.991719,6 17.740234,6 Z" id="rect37628"/><path id="path451" style="fill:#333333;fill-opacity:1;stroke:#333333;stroke-width:0.937895;stroke-dasharray:none;stroke-opacity:1" d="m 17.558963,12.468977 c -1.094496,0.01113 -0.543482,1.60046 -1.501186,2.130415 -0.905812,0.501243 -1.955323,-0.838111 -2.463806,0.06365 -0.537611,0.953424 1.114413,1.270976 1.094517,2.365348 -0.01882,1.035076 -1.703662,1.274435 -1.176948,2.165677 0.556882,0.942296 1.657892,-0.329483 2.595699,0.23493 0.886992,0.533837 0.251662,2.112547 1.286857,2.102023 1.094497,-0.01114 0.543483,-1.60046 1.501183,-2.130415 0.905812,-0.501242 1.955783,0.838111 2.464266,-0.06365 0.53761,-0.953425 -1.114413,-1.270977 -1.094516,-2.365347 0.01882,-1.035078 1.703661,-1.274435 1.176948,-2.165679 -0.556885,-0.942295 -1.657894,0.329484 -2.595698,-0.234931 -0.886993,-0.533835 -0.252123,-2.112547 -1.287316,-2.102021 z m -0.08243,2.070881 a 2.4599904,2.4599904 0 0 1 2.460145,2.460144 2.4599904,2.4599904 0 0 1 -2.460145,2.460144 2.4599904,2.4599904 0 0 1 -2.459686,-2.460144 2.4599904,2.4599904 0 0 1 2.459686,-2.460144 z"/></g></svg>
