<?xml version="1.0" encoding="UTF-8" standalone="no"?>
<!-- Created with Inkscape (http://www.inkscape.org/) -->
<svg xmlns="http://www.w3.org/2000/svg" xmlns:svg="http://www.w3.org/2000/svg" xmlns:rdf="http://www.w3.org/1999/02/22-rdf-syntax-ns#" xmlns:cc="http://creativecommons.org/ns#" xmlns:dc="http://purl.org/dc/elements/1.1/" viewBox="0 0 24 24" version="1.1" id="svg10437" xml:space="preserve"><defs id="defs10431"/><metadata id="metadata10434"><rdf:RDF><cc:Work rdf:about=""><dc:format>image/svg+xml</dc:format><dc:type rdf:resource="http://purl.org/dc/dcmitype/StillImage"/></cc:Work></rdf:RDF></metadata><g id="layer1" transform="translate(-34)"><path id="path2818" style="fill:#333333;fill-opacity:1;stroke:#333333;stroke-width:0.937895;stroke-dasharray:none;stroke-opacity:1" d="m 51.558963,12.46898 c -1.094496,0.01113 -0.543482,1.60046 -1.501186,2.130415 -0.905812,0.501243 -1.955323,-0.838111 -2.463806,0.06365 -0.537611,0.953424 1.114413,1.270976 1.094517,2.365348 -0.01882,1.035076 -1.703662,1.274435 -1.176948,2.165677 0.556882,0.942296 1.657892,-0.329483 2.595699,0.23493 0.886992,0.533837 0.251662,2.112547 1.286857,2.102023 1.094497,-0.01114 0.543483,-1.60046 1.501183,-2.130415 0.905812,-0.501242 1.955783,0.838111 2.464266,-0.06365 0.53761,-0.953425 -1.114413,-1.270977 -1.094516,-2.365347 0.01882,-1.035078 1.703661,-1.274435 1.176948,-2.165679 -0.556885,-0.942295 -1.657894,0.329484 -2.595698,-0.234931 -0.886993,-0.533835 -0.252123,-2.112547 -1.287316,-2.102021 z m -0.08243,2.070881 a 2.4599904,2.4599904 0 0 1 2.460145,2.460144 2.4599904,2.4599904 0 0 1 -2.460145,2.460144 2.4599904,2.4599904 0 0 1 -2.459686,-2.460144 2.4599904,2.4599904 0 0 1 2.459686,-2.460144 z"/><path style="fill:#0071bc;fill-opacity:1" d="M 38.046875,2 38,21 h 7.777344 c -0.169477,-0.169449 -0.316036,-0.348855 -0.423828,-0.53125 -0.454623,-0.769257 -0.518787,-2.201904 -0.113282,-2.990234 0.182408,-0.354613 0.302407,-0.372474 0.470704,-0.554688 -0.166627,-0.201244 -0.301344,-0.25719 -0.46875,-0.640625 -0.340418,-0.7797 -0.265963,-2.083961 0.167968,-2.853515 0.439169,-0.778837 1.648302,-1.548694 2.533203,-1.591797 0.399001,-0.01944 0.474622,0.07417 0.716797,0.128906 0.09088,-0.244286 0.07122,-0.387347 0.31836,-0.722656 0.505207,-0.685439 1.671886,-1.2742262 2.554687,-1.2832035 0.161047,-0.00164 0.334829,0.02011 0.513672,0.058594 V 8 h -6 V 2 Z" id="path1638"/><polygon points="15,3 19,7 15,7 " id="polygon1640" transform="translate(33.0475,-1)" style="fill:#0071bc;fill-opacity:1"/></g></svg>
