<?xml version="1.0"?>
<svg xmlns="http://www.w3.org/2000/svg" viewBox="0 0 24 24"><g id="Layer_2" data-name="Layer 2"><polygon points="14 13 14 18 10 18 10 20 6 17.14 3 15 6 12.86 10 10 10 13 14 13" style="fill:none"/><polygon points="6 22 6 19.6 8.84 21.63 9.36 22 6 22" style="fill:none"/><polygon points="20 7 16 7 16 3 20 7" style="fill:none"/><polygon points="14 9 20 9 20 22 12 22 12 20 16 20 16 11 12 11 12 6.11 8.84 8.37 6 10.4 6 3 14 3 14 9" style="fill:none"/><polygon points="14 13 14 18 10 18 10 20 6 17.14 3 15 6 12.86 10 10 10 13 14 13" style="fill:none"/><polygon points="6 22 6 19.6 8.84 21.63 9.36 22 6 22" style="fill:none"/><polygon points="20 7 16 7 16 3 20 7" style="fill:none"/><polygon points="14 9 20 9 20 22 12 22 12 20 16 20 16 11 12 11 12 6.11 8.84 8.37 6 10.4 6 3 14 3 14 9" style="fill:none"/><polygon points="8.84 21.63 9.36 22 6 22 6 19.6 8.84 21.63" style="fill:#333"/><polygon points="14 18 10 18 10 20 6 17.14 6 12.86 10 10 10 13 14 13 14 18" style="fill:#333"/><polygon points="20 9 20 22 12 22 12 20 16 20 16 11 12 11 12 6.11 8.84 8.37 6 10.4 6 3 14 3 14 9 20 9" style="fill:#333"/><polygon points="20 7 16 7 16 3 20 7"/><polygon points="20 7 16 7 16 3 20 7" style="fill:#333"/><polygon points="14 13 14 18 10 18 10 20 6 17.14 3 15 6 12.86 10 10 10 13 14 13" style="fill:#0071bc"/></g></svg>
