<?xml version="1.0" encoding="UTF-8" standalone="no"?>
<svg
   xmlns:dc="http://purl.org/dc/elements/1.1/"
   xmlns:cc="http://creativecommons.org/ns#"
   xmlns:rdf="http://www.w3.org/1999/02/22-rdf-syntax-ns#"
   xmlns:svg="http://www.w3.org/2000/svg"
   xmlns="http://www.w3.org/2000/svg"
   xmlns:sodipodi="http://sodipodi.sourceforge.net/DTD/sodipodi-0.dtd"
   xmlns:inkscape="http://www.inkscape.org/namespaces/inkscape"
   height="16.003561"
   width="16.023281"
   version="1.1"
   viewBox="0 0 16.023281 16.003561"
   id="svg3043"
   inkscape:version="0.48.5 r10040"
   sodipodi:docname="moveto_prevmm.svg">
  <sodipodi:namedview
     pagecolor="#ffffff"
     bordercolor="#666666"
     borderopacity="1"
     objecttolerance="10"
     gridtolerance="10"
     guidetolerance="10"
     inkscape:pageopacity="0"
     inkscape:pageshadow="2"
     inkscape:window-width="640"
     inkscape:window-height="480"
     id="namedview3078"
     showgrid="false"
     fit-margin-top="0"
     fit-margin-left="0"
     fit-margin-right="0"
     fit-margin-bottom="0"
     inkscape:zoom="1.2685914"
     inkscape:cx="-130.06761"
     inkscape:cy="-55.283629"
     inkscape:window-x="0"
     inkscape:window-y="27"
     inkscape:window-maximized="0"
     inkscape:current-layer="svg3043" />
  <defs
     id="defs3045">
    <linearGradient
       id="a"
       y2="838.97998"
       gradientUnits="userSpaceOnUse"
       x2="56.047001"
       gradientTransform="matrix(-1,0,0,1,783.51,-380.02)"
       y1="834.12"
       x1="56.425999">
      <stop
         stop-color="#fff"
         stop-opacity=".54615"
         offset="0"
         id="stop3048" />
      <stop
         stop-color="#fff"
         stop-opacity="0"
         offset="1"
         id="stop3050" />
    </linearGradient>
  </defs>
  <metadata
     id="metadata3052">
    <rdf:RDF>
      <cc:Work
         rdf:about="">
        <dc:format>image/svg+xml</dc:format>
        <dc:type
           rdf:resource="http://purl.org/dc/dcmitype/StillImage" />
        <dc:title />
      </cc:Work>
    </rdf:RDF>
  </metadata>
  <g
     transform="translate(-717.11779,-451.26947)"
     id="g3054">
    <rect
       style="color:#000000;fill:none"
       transform="scale(-1,1)"
       height="16"
       width="16"
       y="451.26999"
       x="-733.14001"
       id="rect3056" />
    <g
       transform="matrix(0.96232,0,0,0.99737,41.509,12.905)"
       id="g3058">
      <rect
         height="15.009"
         width="11.009"
         y="440.04001"
         x="702.58002"
         id="rect3060"
         style="fill:#f9f9f9;stroke:#000000;stroke-width:1.01129997;stroke-linecap:round" />
      <ellipse
         rx="2.7407"
         ry="0.96296"
         transform="matrix(1.0181,0,0,1.0803,701.73,438.91)"
         cy="7.9851999"
         cx="4.2814999"
         id="ellipse3062"
         d="m 7.0221999,7.9851999 c 0,0.5318282 -1.2270532,0.96296 -2.7407,0.96296 -1.5136469,0 -2.7407,-0.4311318 -2.7407,-0.96296 0,-0.5318281 1.2270531,-0.96296 2.7407,-0.96296 1.5136468,0 2.7407,0.4311319 2.7407,0.96296 z"
         sodipodi:cx="4.2814999"
         sodipodi:cy="7.9851999"
         sodipodi:rx="2.7407"
         sodipodi:ry="0.96296"
         style="fill-opacity:0.37726004;stroke:#000000;stroke-width:0.40829;stroke-linecap:round" />
      <ellipse
         rx="2.7407"
         ry="0.96296"
         transform="matrix(1.3914,0,0,1.1043,702.13,433.97)"
         cy="7.9851999"
         cx="4.2814999"
         id="ellipse3064"
         d="m 7.0221999,7.9851999 c 0,0.5318282 -1.2270532,0.96296 -2.7407,0.96296 -1.5136469,0 -2.7407,-0.4311318 -2.7407,-0.96296 0,-0.5318281 1.2270531,-0.96296 2.7407,-0.96296 1.5136468,0 2.7407,0.4311319 2.7407,0.96296 z"
         sodipodi:cx="4.2814999"
         sodipodi:cy="7.9851999"
         sodipodi:rx="2.7407"
         sodipodi:ry="0.96296"
         style="fill-opacity:0.37726004;stroke:#000000;stroke-width:0.30728;stroke-linecap:round" />
      <ellipse
         rx="2.7407"
         ry="0.96296"
         transform="matrix(1.3914,0,0,1.1043,702.13,443.47)"
         cy="7.9851999"
         cx="4.2814999"
         id="ellipse3066"
         d="m 7.0221999,7.9851999 c 0,0.5318282 -1.2270532,0.96296 -2.7407,0.96296 -1.5136469,0 -2.7407,-0.4311318 -2.7407,-0.96296 0,-0.5318281 1.2270531,-0.96296 2.7407,-0.96296 1.5136468,0 2.7407,0.4311319 2.7407,0.96296 z"
         sodipodi:cx="4.2814999"
         sodipodi:cy="7.9851999"
         sodipodi:rx="2.7407"
         sodipodi:ry="0.96296"
         style="fill-opacity:0.37726004;stroke:#000000;stroke-width:0.30728;stroke-linecap:round" />
      <path
         d="m 706.24,448.65 2.5167,2.4574"
         id="path3068"
         inkscape:connector-curvature="0"
         style="fill:none;stroke:#000000;stroke-width:0.51037002;stroke-linecap:round" />
      <path
         d="m 706.19,446.43 1.7876,-2.4394"
         id="path3070"
         inkscape:connector-curvature="0"
         style="fill:none;stroke:#000000;stroke-width:0.51037002;stroke-linecap:round" />
      <g
         transform="matrix(-1,0,0,1,1443.4,-11.729)"
         id="g3072"
         style="fill-rule:evenodd">
        <path
           style="color:#000000;fill:#00aad4;stroke:#0044aa;stroke-width:1.09809995;stroke-linejoin:round"
           d="m 735.54,459.12 -10.263,-7.3107 -0.0314,14.924 z"
           id="path3074"
           inkscape:connector-curvature="0" />
        <path
           style="color:#000000;fill:url(#a)"
           d="m 725.28,451.81 c 0,0 -0.0314,10.499 -0.0314,14.924 l 10.113,-7.5231 z"
           id="path3076"
           inkscape:connector-curvature="0" />
      </g>
    </g>
  </g>
</svg>
