<?xml version="1.0"?>
<svg xmlns="http://www.w3.org/2000/svg" viewBox="0 0 24 24"><g id="Layer_2" data-name="Layer 2"><polygon points="20 7 16 7 16 3 20 7" style="fill:none"/><polygon points="6 17.5 2 17.5 2 12.5 6 12.5 6 9.5 13 14.5 6 19.5 6 17.5" style="fill:none"/><polygon points="20 9 20 22 6 22 6 21.96 7.16 21.13 14.16 16.13 16.44 14.5 14.16 12.87 7.16 7.87 6 7.04 6 3 14 3 14 9 20 9" style="fill:none"/><polygon points="13 14.5 6 19.5 6 9.5 13 14.5" style="fill:#333"/><polygon points="20 9 20 22 6 22 6 21.96 7.16 21.13 14.16 16.13 16.44 14.5 14.16 12.87 7.16 7.87 6 7.04 6 3 14 3 14 9 20 9" style="fill:#333"/><polygon points="20 7 16 7 16 3 20 7"/><polygon points="20 7 16 7 16 3 20 7" style="fill:#333"/><polygon points="6 19.5 6 17.5 2 17.5 2 12.5 6 12.5 6 9.5 13 14.5 6 19.5" style="fill:#0071bc"/></g></svg>
