<?xml version="1.0" encoding="UTF-8" standalone="no"?>
<!-- Created with Inkscape (http://www.inkscape.org/) -->
<svg xmlns:inkscape="http://www.inkscape.org/namespaces/inkscape" xmlns:sodipodi="http://sodipodi.sourceforge.net/DTD/sodipodi-0.dtd" xmlns="http://www.w3.org/2000/svg" xmlns:svg="http://www.w3.org/2000/svg" xmlns:rdf="http://www.w3.org/1999/02/22-rdf-syntax-ns#" xmlns:cc="http://creativecommons.org/ns#" xmlns:dc="http://purl.org/dc/elements/1.1/" viewBox="0 0 24 24" version="1.1" id="svg10437" inkscape:version="1.1.1 (3bf5ae0d25, 2021-09-20)" sodipodi:docname="new_map_.svg">
  <defs id="defs10431"/>
  <sodipodi:namedview id="base" pagecolor="#ffffff" bordercolor="#666666" borderopacity="1.0" inkscape:pageopacity="0.0" inkscape:pageshadow="2" inkscape:zoom="15.929406" inkscape:cx="0.78471227" inkscape:cy="10.201259" inkscape:document-units="px" inkscape:current-layer="layer1" inkscape:pagecheckerboard="0" showgrid="false" units="px" showguides="false" inkscape:guide-bbox="true" inkscape:snap-global="true" inkscape:snap-bbox="true" inkscape:snap-page="true" inkscape:window-width="1920" inkscape:window-height="1017" inkscape:window-x="-8" inkscape:window-y="-8" inkscape:window-maximized="1" inkscape:snap-nodes="false">
    <sodipodi:guide position="-1.7376549,23.002457" orientation="0,1" id="guide10894" inkscape:label="" inkscape:locked="false" inkscape:color="rgb(0,0,255)"/>
    <sodipodi:guide position="23.007837,20.782121" orientation="-1,0" id="guide10978" inkscape:label="" inkscape:locked="false" inkscape:color="rgb(0,0,255)"/>
    <sodipodi:guide position="26.193538,1.0243414" orientation="0,1" id="guide10982" inkscape:label="" inkscape:locked="false" inkscape:color="rgb(0,0,255)"/>
    <sodipodi:guide position="0.9975426,19.72022" orientation="-1,0" id="guide10986" inkscape:label="" inkscape:locked="false" inkscape:color="rgb(0,0,255)"/>
  </sodipodi:namedview>
  <metadata id="metadata10434">
    <rdf:RDF>
      <cc:Work rdf:about="">
        <dc:format>image/svg+xml</dc:format>
        <dc:type rdf:resource="http://purl.org/dc/dcmitype/StillImage"/>
      </cc:Work>
    </rdf:RDF>
  </metadata>
  <g inkscape:label="Layer 1" inkscape:groupmode="layer" id="layer1">
    <g id="g927" transform="matrix(0.92482682,0,0,0.92482682,0.24759915,2.1495784)" style="stroke-width:1.08128">
      <path d="M 18.252168,9.5130801 V 22.51308 h -6.11 a 7,7 0 0 0 -4.8900003,-12 6.88,6.88 0 0 0 -3,0.68 V 3.5130801 h 8.0000003 v 6 z" id="path1840" style="fill:#333333;stroke-width:1.08128"/>
      <polygon points="15,3 19,7 15,7 " id="polygon1842" transform="translate(-0.74783231,0.5130801)" style="stroke-width:1.08128"/>
      <polygon points="15,3 19,7 15,7 " id="polygon1844" transform="translate(-0.74783231,0.5130801)" style="fill:#333333;stroke-width:1.08128"/>
      <path d="m 7.2521677,12.51308 a 4.94,4.94 0 0 0 -3,1 5,5 0 0 0 0,8 4.94,4.94 0 0 0 3,1 5,5 0 0 0 0,-10 z m 3.0000003,6 H 8.2521677 v 2 h -2 v -2 h -2 v -2 h 2 v -2 h 2 v 2 h 2.0000003 z" style="fill:#0071bc;stroke-width:1.08128" id="path1846"/>
      <path d="M 9.0403641,1.4630954 V -1.2751168 H 17.040364 V 1.4630954" id="path4983" style="fill:#333333;stroke-width:1.25172"/>
      <polygon points="15,3 19,7 15,7 " id="polygon4985" transform="translate(4.0403641,-4.2751168)" style="fill:#333333;stroke-width:1.08128"/>
      <path d="m 20.215282,4.7248832 h 2.825082 V 17.724883 h -2.825082" id="path5798" style="fill:#333333;stroke-width:1.62076"/>
    </g>
  </g>
</svg>
