<?xml version="1.0" encoding="UTF-8" standalone="no"?>
<!-- Created with Inkscape (http://www.inkscape.org/) -->
<svg xmlns="http://www.w3.org/2000/svg" xmlns:svg="http://www.w3.org/2000/svg" xmlns:rdf="http://www.w3.org/1999/02/22-rdf-syntax-ns#" xmlns:cc="http://creativecommons.org/ns#" xmlns:dc="http://purl.org/dc/elements/1.1/" viewBox="0 0 24 24" version="1.1" id="svg10437" xml:space="preserve"><defs id="defs10431"/><metadata id="metadata10434"><rdf:RDF><cc:Work rdf:about=""><dc:format>image/svg+xml</dc:format><dc:type rdf:resource="http://purl.org/dc/dcmitype/StillImage"/></cc:Work></rdf:RDF></metadata><g id="layer1" transform="translate(-170)"><rect style="fill:#333333;fill-opacity:1;fill-rule:evenodd;stroke-width:2.98143;stroke-linecap:square;stroke-dasharray:7.25765, 0.907206;paint-order:markers stroke fill;stop-color:#000000" id="rect5049" width="20" height="4" x="172" y="2" ry="2"/><path id="rect5051" style="fill:#333333;fill-rule:evenodd;stroke-width:2.66667;stroke-linecap:square;stroke-dasharray:6.49144, 0.81143;paint-order:markers stroke fill;stop-color:#000000" d="M 173.77734,8 C 172.79245,8 172,8.8920011 172,10 c 0,1.107999 0.79245,2 1.77734,2 h 7.99219 c 0.26974,-0.283315 0.56131,-0.546514 0.875,-0.78125 1.24754,-0.938353 2.80604,-1.4577345 4.36719,-1.4511719 a 2.2651796,2.2651796 0 0 1 0.01,0 c 0.3271,0.00279 0.65093,0.032164 0.97071,0.083984 C 187.92485,8.8136837 187.16298,8 186.22266,8 Z"/><path id="rect5053" style="fill:#333333;fill-rule:evenodd;stroke-width:2.3094;stroke-linecap:square;stroke-dasharray:5.62175, 0.702719;paint-order:markers stroke fill;stop-color:#000000" d="m 173.5,14 c -0.831,0 -1.5,0.892001 -1.5,2 0,1.107999 0.669,2 1.5,2 h 6.31055 c -0.0468,-0.325926 -0.0742,-0.654558 -0.0742,-0.984375 0,-1.039605 0.24195,-2.072517 0.67773,-3.015625 z"/><path d="m 187.00142,12.032798 a 4.94,4.9237782 0 0 0 -3,0.996716 5,4.9835812 0 0 0 0,7.97373 4.94,4.9237782 0 0 0 3,0.996716 5,4.9835812 0 0 0 0,-9.967162 z m 3,5.980297 h -2 v 1.993433 h -2 v -1.993433 h -2 v -1.993432 h 2 V 14.02623 h 2 v 1.993433 h 2 z" style="fill:#0071bc;fill-opacity:1;stroke-width:0.998357" id="path5055"/></g></svg>
