<?xml version="1.0"?>
<svg xmlns="http://www.w3.org/2000/svg" id="Layer_2" data-name="Layer 2" viewBox="0 0 24 24"><path d="M6,20H3.88A3,3,0,0,1,1,16.93V7.07A3,3,0,0,1,3.88,4H6" style="fill:none;stroke:#333;stroke-miterlimit:10;stroke-width:2px"/><rect x="7" width="17" height="8" rx="1.87" style="fill:#333"/><path d="M21.56,15H9.45A2.43,2.43,0,0,0,7,17.41V21.6A2.43,2.43,0,0,0,9.45,24H21.56A2.42,2.42,0,0,0,24,21.6V17.41A2.42,2.42,0,0,0,21.56,15ZM18,20H16v2H15V20H13V19h2V17h1v2h2Z" style="fill:#0071bc"/></svg>
