<?xml version="1.0"?>
<svg xmlns="http://www.w3.org/2000/svg" viewBox="0 0 24 24"><g id="Layer_2" data-name="Layer 2"><path d="M7,18H5.38A2.37,2.37,0,0,1,3,15.63V8.38A2.38,2.38,0,0,1,5.38,6H7" style="fill:none;stroke:#333;stroke-miterlimit:10;stroke-width:2px"/><rect x="9" y="3" width="13" height="7" rx="1.87" style="fill:#333"/><path d="M20.13,14H10.87A1.87,1.87,0,0,0,9,15.87v3.26A1.87,1.87,0,0,0,10.87,21h9.26A1.87,1.87,0,0,0,22,19.13V15.87A1.87,1.87,0,0,0,20.13,14ZM18,18H16v2H15V18H13V17h2V15h1v2h2Z" style="fill:#0071bc"/></g></svg>
