<?xml version="1.0" encoding="UTF-8" standalone="no"?>
<!-- Created with Inkscape (http://www.inkscape.org/) -->
<svg xmlns:inkscape="http://www.inkscape.org/namespaces/inkscape" xmlns:sodipodi="http://sodipodi.sourceforge.net/DTD/sodipodi-0.dtd" xmlns="http://www.w3.org/2000/svg" xmlns:svg="http://www.w3.org/2000/svg" xmlns:rdf="http://www.w3.org/1999/02/22-rdf-syntax-ns#" xmlns:cc="http://creativecommons.org/ns#" xmlns:dc="http://purl.org/dc/elements/1.1/" viewBox="0 0 24 24" version="1.1" id="svg10437" inkscape:version="1.2 (dc2aedaf03, 2022-05-15)" sodipodi:docname="StyleNEW.svg" xml:space="preserve"><defs id="defs10431"/><sodipodi:namedview id="base" pagecolor="#ffffff" bordercolor="#666666" borderopacity="1.0" inkscape:pageopacity="0.0" inkscape:pageshadow="2" inkscape:zoom="20.160372" inkscape:cx="62.126829" inkscape:cy="18.551245" inkscape:document-units="px" inkscape:current-layer="layer1" inkscape:pagecheckerboard="0" showgrid="true" units="px" showguides="true" inkscape:guide-bbox="true" inkscape:snap-global="true" inkscape:snap-bbox="true" inkscape:snap-page="true" inkscape:window-width="1920" inkscape:window-height="1017" inkscape:window-x="-8" inkscape:window-y="-8" inkscape:window-maximized="1" inkscape:showpageshadow="2" inkscape:deskcolor="#d1d1d1"><sodipodi:guide position="-68,22" orientation="0,1" id="guide10894" inkscape:label="" inkscape:locked="false" inkscape:color="rgb(0,0,255)"/><sodipodi:guide position="-46,24" orientation="-1,0" id="guide10978" inkscape:label="" inkscape:locked="false" inkscape:color="rgb(0,0,255)"/><sodipodi:guide position="-56.934487,2" orientation="0,1" id="guide10982" inkscape:label="" inkscape:locked="false" inkscape:color="rgb(0,0,255)"/><sodipodi:guide position="-66,22" orientation="-1,0" id="guide10986" inkscape:label="" inkscape:locked="false" inkscape:color="rgb(0,0,255)"/><inkscape:grid type="xygrid" id="grid3220"/><sodipodi:guide position="-32,24" orientation="-1,0" id="guide4322" inkscape:locked="false" inkscape:label="" inkscape:color="rgb(0,134,229)"/><sodipodi:guide position="-12,24" orientation="-1,0" id="guide4324" inkscape:locked="false" inkscape:label="" inkscape:color="rgb(0,134,229)"/><sodipodi:guide position="2,22" orientation="1,0" id="guide3376" inkscape:locked="false"/><sodipodi:guide position="22,22" orientation="1,0" id="guide3378" inkscape:locked="false"/></sodipodi:namedview><metadata id="metadata10434"><rdf:RDF><cc:Work rdf:about=""><dc:format>image/svg+xml</dc:format><dc:type rdf:resource="http://purl.org/dc/dcmitype/StillImage"/></cc:Work></rdf:RDF></metadata><g inkscape:label="Layer 1" inkscape:groupmode="layer" id="layer1" transform="translate(-68)"><path id="path3380" style="fill:#333333;stroke:none;stroke-width:0.133333" d="m 79.712891,2.0019531 c -1.751694,0.031519 -3.52674,0.5962862 -5.105469,1.6640625 -1.11948,0.757383 -2.037159,1.6720466 -2.837891,2.8320313 -0.173254,0.2506765 -0.699208,1.1557662 -0.814453,1.4003906 -1.042765,2.2290785 -1.234821,4.6020385 -0.5625,6.9335935 0.609423,2.116933 1.869382,3.937653 3.63086,5.242188 0.440538,0.327986 0.658049,0.463252 1.234374,0.773437 0.811696,0.440169 1.429261,0.686315 2.271485,0.90625 0.731385,0.18796 1.284025,0.271162 2.080078,0.306641 0.09133,0.0041 0.174104,0.0037 0.261719,0.0059 -1.141766,-1.173614 -1.877224,-2.739954 -2.042969,-4.36914 -0.06828,0.121848 -0.144501,0.236271 -0.210937,0.304687 -0.540365,0.555651 -1.343182,0.67911 -2.015626,0.314453 -0.302325,-0.163946 -0.527492,-0.385266 -0.677734,-0.666015 -0.308356,-0.577488 -0.253465,-1.276279 0.142578,-1.78125 0.226822,-0.291963 0.494554,-0.465935 0.869141,-0.572266 0.377408,-0.107156 0.69568,-0.09092 1.072265,0.05469 0.359642,0.138892 0.65676,0.407116 0.841797,0.748047 0.250982,-1.910844 1.28307,-3.71711 2.826172,-4.876953 1.239994,-0.93738 2.791285,-1.4561665 4.345703,-1.4511716 0.42858,2.665e-4 0.852278,0.046794 1.267578,0.1308594 9.21e-4,-0.00214 0.02121,-0.042027 0.02148,-0.042969 0.0066,-0.02926 0.04591,-0.1397429 0.08398,-0.2480469 C 86.772178,8.5595008 86.792238,7.3656919 86.451172,6.25 86.173296,5.3397332 85.724494,4.592601 85.041016,3.9101562 84.488494,3.3573372 83.689125,2.8656156 82.792969,2.5273438 81.806521,2.1559346 80.763907,1.983042 79.712891,2.0019531 Z m 1.820312,2.7070313 c 0.265461,0.0045 0.534471,0.072149 0.783203,0.2070312 0.302323,0.163945 0.505052,0.3658905 0.667969,0.6582032 0.461182,0.8361969 0.12111,1.8712431 -0.751953,2.2792968 C 81.950201,7.9864934 81.539358,8.0359355 81.21875,7.9746094 80.634943,7.8643307 80.14087,7.437881 79.953125,6.8789062 79.836939,6.5275033 79.832484,6.1772625 79.939453,5.84375 79.999834,5.6514317 80.185438,5.3461238 80.328125,5.203125 80.656031,4.8710301 81.090769,4.7014881 81.533203,4.7089844 Z m -5.400391,0.8964844 c 0.164037,0.0039 0.327486,0.032036 0.486329,0.085937 0.202911,0.067835 0.517154,0.2603793 0.654297,0.4003907 0.417599,0.4304227 0.576467,1.0012366 0.435546,1.5742187 -0.05808,0.2357716 -0.222612,0.536737 -0.390625,0.7128906 -0.414236,0.4341511 -1.038705,0.612299 -1.626953,0.4667973 C 75.456442,8.7886182 75.130785,8.6127156 74.958984,8.4492188 74.493138,8.0113879 74.313681,7.3419675 74.503906,6.7441406 c 0.04475,-0.1421857 0.218577,-0.4487553 0.322266,-0.5683594 0.324968,-0.377644 0.814532,-0.5819978 1.30664,-0.5703124 z m -2.40039,4.8476562 c 0.141792,-0.0015 0.286996,0.01423 0.429687,0.04883 0.227496,0.05767 0.553771,0.234791 0.726563,0.396485 0.441488,0.412896 0.627437,1.032077 0.484375,1.613281 -0.05808,0.235771 -0.224564,0.536737 -0.392578,0.71289 -0.408435,0.427917 -0.976256,0.604352 -1.566407,0.488282 -0.192669,-0.03884 -0.526149,-0.197205 -0.693359,-0.330079 -0.519954,-0.408559 -0.746824,-1.10906 -0.568359,-1.746093 0.0529,-0.191689 0.284391,-0.578957 0.425781,-0.710938 0.320474,-0.304475 0.72892,-0.468045 1.154297,-0.472656 z"/><path d="m 85.018307,12.000041 a 4.94,4.94 0 0 0 -3,1 5,5 0 0 0 0,8 4.94,4.94 0 0 0 3,1 5,5 0 0 0 0,-10 z m 3,6 h -2 v 2 h -2 v -2 h -2 v -2 h 2 v -2 h 2 v 2 h 2 z" style="fill:#0071bc" id="path3388"/></g></svg>
