<?xml version="1.0" encoding="UTF-8" standalone="no"?>
<!-- Created with Inkscape (http://www.inkscape.org/) -->
<svg xmlns="http://www.w3.org/2000/svg" xmlns:svg="http://www.w3.org/2000/svg" xmlns:rdf="http://www.w3.org/1999/02/22-rdf-syntax-ns#" xmlns:cc="http://creativecommons.org/ns#" xmlns:dc="http://purl.org/dc/elements/1.1/" viewBox="0 0 24 24" version="1.1" id="svg10437" xml:space="preserve"><defs id="defs10431"/><metadata id="metadata10434"><rdf:RDF><cc:Work rdf:about=""><dc:format>image/svg+xml</dc:format><dc:type rdf:resource="http://purl.org/dc/dcmitype/StillImage"/></cc:Work></rdf:RDF></metadata><g id="layer1" transform="translate(-136)"><path id="path4124" style="fill:#333333;stroke:none;stroke-width:0.133114" d="m 147.71332,2.001393 c -1.75169,0.031415 -3.52674,0.5943282 -5.10547,1.6585981 -1.11947,0.754896 -2.03715,1.666556 -2.83789,2.8227316 -0.17325,0.2498534 -0.6992,1.151971 -0.81445,1.3957921 -1.04276,2.2217592 -1.23482,4.5869262 -0.5625,6.9108252 0.60942,2.109982 1.86938,3.924723 3.63086,5.224974 0.44054,0.326909 0.65805,0.461731 1.23437,0.770897 0.8117,0.438724 1.42927,0.684061 2.27149,0.903274 0.73139,0.187343 1.28403,0.270272 2.08008,0.305634 0.0913,0.0041 0.1741,0.0037 0.26172,0.0059 -1.14177,-1.16976 -1.87723,-2.730957 -2.04297,-4.354793 -0.0683,0.121448 -0.1445,0.235495 -0.21094,0.303687 -0.54036,0.553826 -1.34318,0.67688 -2.01563,0.31342 -0.30232,-0.163408 -0.52749,-0.384001 -0.67773,-0.663828 -0.30836,-0.575592 -0.25346,-1.272088 0.14258,-1.775401 0.22682,-0.291004 0.49455,-0.464405 0.86914,-0.570387 0.37741,-0.106804 0.69568,-0.09062 1.07226,0.05451 0.35965,0.138436 0.65676,0.405779 0.8418,0.74559 0.25098,-1.904569 1.28307,-3.704903 2.82617,-4.860938 1.24,-0.934302 2.79129,-1.4513846 4.34571,-1.4464061 0.42858,2.656e-4 0.85227,0.04664 1.26757,0.1304297 9.3e-4,-0.00213 0.0212,-0.041889 0.0215,-0.042828 0.007,-0.029164 0.0459,-0.139284 0.084,-0.2472324 0.37766,-1.048417 0.39772,-2.2383057 0.0567,-3.3503339 C 154.17373,5.3282127 153.72493,4.5835339 153.04145,3.90333 152.48893,3.3523264 151.68956,2.8622195 150.7934,2.5250585 149.80695,2.1548689 148.76434,1.982544 147.71332,2.001393 Z m 1.82032,2.6981421 c 0.26546,0.00449 0.53447,0.071912 0.7832,0.2063513 0.30232,0.1634067 0.50505,0.364689 0.66797,0.6560419 0.46118,0.833451 0.12111,1.8650984 -0.75196,2.2718121 -0.28222,0.1325411 -0.69306,0.1818209 -1.01367,0.1206962 -0.5838,-0.1099166 -1.07788,-0.534966 -1.26562,-1.0921052 -0.11619,-0.350249 -0.12064,-0.6993397 -0.0137,-1.031757 0.0604,-0.1916868 0.24598,-0.4959921 0.38867,-0.6385214 0.3279,-0.3310043 0.76264,-0.4999896 1.20508,-0.4925179 z m -5.4004,0.8935405 c 0.16404,0.00389 0.32749,0.031931 0.48633,0.085655 0.20291,0.067612 0.51716,0.2595243 0.6543,0.399076 0.4176,0.4290093 0.57647,0.9979487 0.43555,1.5690493 -0.0581,0.2349974 -0.22262,0.5349745 -0.39063,0.7105496 -0.41423,0.4327255 -1.0387,0.6102884 -1.62695,0.4652645 -0.23497,-0.056897 -0.56062,-0.2322224 -0.73242,-0.3951823 -0.46585,-0.4363932 -0.64531,-1.1036154 -0.45508,-1.6994792 0.0447,-0.1417188 0.21858,-0.4472817 0.32226,-0.566493 0.32497,-0.3764039 0.81454,-0.5800867 1.30664,-0.5684399 z m -2.40039,4.8317374 c 0.1418,-0.0015 0.287,0.01418 0.42969,0.04867 0.2275,0.05748 0.55377,0.23402 0.72656,0.395183 0.44149,0.41154 0.62744,1.028688 0.48438,1.607983 -0.0581,0.234997 -0.22456,0.534975 -0.39258,0.710549 -0.40843,0.426512 -0.97625,0.602368 -1.56641,0.486679 -0.19266,-0.03871 -0.52614,-0.196557 -0.69335,-0.328995 -0.51996,-0.407217 -0.74683,-1.105418 -0.56836,-1.740359 0.0529,-0.19106 0.28439,-0.577056 0.42578,-0.708604 0.32047,-0.303475 0.72892,-0.466508 1.15429,-0.471104 z"/><path d="m 153.01874,11.96665 a 4.94,4.9237782 0 0 0 -3,0.996716 5,4.9835812 0 0 0 0,7.97373 4.94,4.9237782 0 0 0 3,0.996716 5,4.9835812 0 0 0 0,-9.967162 z m 3,5.980297 h -2 v 1.993433 h -2 v -1.993433 h -2 v -1.993432 h 2 v -1.993433 h 2 v 1.993433 h 2 z" style="fill:#0071bc;fill-opacity:1;stroke-width:0.998357" id="path4126"/><circle style="fill:#0071bc;fill-opacity:1;fill-rule:evenodd;stroke-width:2.66667;stroke-linecap:square;stroke-dasharray:6.49144, 0.81143;paint-order:markers stroke fill;stop-color:#000000" id="path4547" cx="149.5256" cy="6.330987" r="1.6706772"/><circle style="fill:#0071bc;fill-opacity:1;fill-rule:evenodd;stroke-width:2.66667;stroke-linecap:square;stroke-dasharray:6.49144, 0.81143;paint-order:markers stroke fill;stop-color:#000000" id="circle4549" cx="144.0959" cy="7.2542558" r="1.6706772"/><circle style="fill:#0071bc;fill-opacity:1;fill-rule:evenodd;stroke-width:2.66667;stroke-linecap:square;stroke-dasharray:6.49144, 0.81143;paint-order:markers stroke fill;stop-color:#000000" id="circle4551" cx="141.74376" cy="12.090426" r="1.6706772"/><path id="circle4553" style="fill:#0071bc;fill-opacity:1;fill-rule:evenodd;stroke-width:2.66667;stroke-linecap:square;stroke-dasharray:6.49144, 0.81143;paint-order:markers stroke fill;stop-color:#000000" d="m 144.4043,15.146484 a 1.6706772,1.6706772 0 0 0 -1.67188,1.669922 1.6706772,1.6706772 0 0 0 1.67188,1.671875 1.6706772,1.6706772 0 0 0 1.40234,-0.765625 c -0.0289,-0.256171 -0.0449,-0.513231 -0.0449,-0.771484 0,-0.332474 0.0266,-0.663703 0.0742,-0.992188 a 1.6706772,1.6706772 0 0 0 0,-0.002 1.6706772,1.6706772 0 0 0 -1.43164,-0.810547 z"/></g></svg>
