<?xml version="1.0" encoding="UTF-8" standalone="no"?>
<svg xmlns:rdf="http://www.w3.org/1999/02/22-rdf-syntax-ns#" xmlns="http://www.w3.org/2000/svg" version="1.1" xmlns:cc="http://creativecommons.org/ns#" xmlns:xlink="http://www.w3.org/1999/xlink" viewBox="0 0 16.002 16" xmlns:dc="http://purl.org/dc/elements/1.1/">
<defs>
<linearGradient id="l" y2="-2104.9" gradientUnits="userSpaceOnUse" x2="-2596.4" gradientTransform="matrix(.35050 0 0 .34695 723.95 867.18)" y1="-2128.6" x1="-2585.9">
<stop stop-color="#dcdcdc" offset="0"/>
<stop stop-color="#fff" offset="1"/>
</linearGradient>
<filter id="n" style="color-interpolation-filters:sRGB" height="1.3315" width="1.3481" y="-.16576" x="-.17407">
<feGaussianBlur stdDeviation="0.82320991"/>
</filter>
<linearGradient id="m" y2="-2125.2" gradientUnits="userSpaceOnUse" x2="-2589.3" gradientTransform="matrix(.31602 0 0 .31283 634.8 794.56)" y1="-2130.1" x1="-2584.4">
<stop stop-color="#fff" offset="0"/>
<stop stop-color="#dcdcdc" offset="1"/>
</linearGradient>
<radialGradient id="e" gradientUnits="userSpaceOnUse" cy="866.01" cx="386.21" gradientTransform="matrix(1.1453 1.179 -.80701 .78396 653.16 -270.77)" r="61.352">
<stop stop-color="#fff" stop-opacity=".92035" offset="0"/>
<stop stop-color="#ccc" offset="1"/>
</radialGradient>
<linearGradient id="k" y2="864.59" gradientUnits="userSpaceOnUse" x2="318.68" gradientTransform="matrix(.074862 0 0 .035378 -776.1 471.94)" y1="863.3" x1="348.72">
<stop stop-color="#00f" offset="0"/>
<stop stop-color="#fff" offset="1"/>
</linearGradient>
<linearGradient id="j" y2="791.12" gradientUnits="userSpaceOnUse" x2="343.89" gradientTransform="matrix(.056864 -.055812 .035022 .035960 -241.08 860.4)" y1="791.28" x1="333.49">
<stop stop-color="#3c3c3c" stop-opacity=".99608" offset="0"/>
<stop stop-color="#b3b3b3" stop-opacity="0" offset="1"/>
</linearGradient>
<linearGradient id="d" y2="446.77" xlink:href="#f" gradientUnits="userSpaceOnUse" x2="215.36" gradientTransform="matrix(.99094 0 0 1.0073 134.73 -154.36)" y1="440.75" x1="209.71"/>
<linearGradient id="f">
<stop stop-color="#f70000" offset="0"/>
<stop stop-color="#780000" offset="1"/>
</linearGradient>
<linearGradient id="c" y2="449.6" xlink:href="#g" gradientUnits="userSpaceOnUse" x2="194.27" gradientTransform="matrix(.99094 0 0 1.0073 134.73 -154.36)" y1="456.24" x1="202.53"/>
<linearGradient id="g">
<stop stop-color="#baa492" offset="0"/>
<stop stop-color="#fff" offset="1"/>
</linearGradient>
<linearGradient id="b" y2="449.64" xlink:href="#i" gradientUnits="userSpaceOnUse" x2="193.04" gradientTransform="matrix(.99094 0 0 1.0073 134.73 -154.36)" y1="457.89" x1="203.5"/>
<linearGradient id="i">
<stop offset="0"/>
<stop stop-color="#7e7e7e" offset="1"/>
</linearGradient>
<linearGradient id="a" y2="462.65" xlink:href="#h" gradientUnits="userSpaceOnUse" x2="196.75" gradientTransform="matrix(.99094 0 0 1.0073 134.73 -154.36)" y1="458.87" x1="193.01"/>
<linearGradient id="h">
<stop stop-color="#c00000" offset="0"/>
<stop offset="1"/>
</linearGradient>
</defs>
<metadata>
<rdf:RDF>
<cc:Work rdf:about="">
<dc:format>image/svg+xml</dc:format>
<dc:type rdf:resource="http://purl.org/dc/dcmitype/StillImage"/>
<dc:title/>
</cc:Work>
</rdf:RDF>
</metadata>
<g transform="translate(-39.09 -344.74)">
<g transform="translate(231.02 218.38)">
<rect style="color:#000000" height="16" width="16" y="126.35" x="-191.93" fill="none"/>
<path d="m-191.63 126.71h7.3865l3.717 3.8635-0.084 10.608h-11.02v-14.472z" fill-rule="evenodd" stroke="#666" stroke-width="0.505" fill="url(#l)"/>
<path stroke-linejoin="round" d="m-2829.3-1828.3c1.0683 4.7916 0.3837 8.5401-0.06 10.889 2.6346-0.6545 5.7398-1.3853 10.35 0.03-4.9699-5.5487-6.9971-7.2565-10.29-10.919z" fill-rule="evenodd" transform="matrix(.31602 0 0 .31283 709.9 699.18)" filter="url(#n)" stroke="#666" stroke-width="1.6061" fill="#d3d3d3"/>
<g transform="matrix(.81407 0 0 -.81407 -70.474 857.73)">
<path d="m-136.67 894.82v-7.2898c0-0.27565-0.2203-0.48099-0.4916-0.48099h-9.9595c-0.2713 0-0.49161 0.20534-0.49161 0.48099v7.2898h10.943z" stroke="#000" stroke-width=".088094" fill="#fff"/>
<rect transform="scale(-1)" height="1.0284" width="10.824" y="-894.73" x="136.73" fill="#ffee4f"/>
<path d="m-137.52 892.5h-9.1804" stroke="#000" stroke-width=".073412" fill="none"/>
<path d="m-137.52 891.14h-9.1804" stroke="#000" stroke-width=".073412" fill="none"/>
<path d="m-137.52 889.79h-9.1804" stroke="#000" stroke-width=".073412" fill="none"/>
<path d="m-137.52 888.44h-9.1804" stroke="#000" stroke-width=".073412" fill="none"/>
</g>
<path stroke-linejoin="round" d="m-184.02 126.94c0.33762 1.499 0.12126 2.6716-0.0189 3.4065 0.83261-0.20477 1.8139-0.43341 3.271 0.009-1.5706-1.7358-2.2113-2.27-3.252-3.4158z" fill-rule="evenodd" stroke="#666" stroke-width="0.505" fill="url(#m)"/>
<g stroke-linejoin="round" transform="matrix(1.0011 -.14964 .14964 1.0011 -118.08 -761.8)">
<rect ry=".27803" stroke-opacity=".90698" rx=".27803" transform="matrix(.72730 -.68632 .70389 .71030 0 0)" height="4.4428" width="1.7715" stroke="#7900aa" stroke-linecap="round" y="500.43" x="-751.59" stroke-width=".28577" fill="#fff"/>
<path d="m-195.06 869.88 0.66476 1.3056 1.1909-1.1606-1.2384-0.73736-0.61726 0.59241z" stroke-opacity=".88372" fill-rule="evenodd" stroke="#333" stroke-width=".17005" fill="#fff"/>
<g transform="translate(-.035609 -.059735)">
<path d="m451.11 879.75a60.261 57.727 0 0 1 -60.247 57.727 60.261 57.727 0 0 1 -60.275 -57.699 60.261 57.727 0 0 1 60.218 -57.754 60.261 57.727 0 0 1 60.304 57.672" stroke-opacity=".81395" transform="matrix(.069360 0 0 .072422 -224.82 802.68)" stroke="#1a1a1a" stroke-linecap="round" stroke-width="6.3301" fill="url(#e)"/>
<rect ry=".27803" stroke-opacity=".90698" rx=".27803" transform="matrix(.72730 -.68632 .70389 .71030 0 0)" height="4.4428" width="1.7715" stroke="#000080" stroke-linecap="round" y="500.43" x="-751.59" stroke-width=".28577" fill="url(#k)"/>
<path d="m-195.06 869.88 0.66476 1.3056 1.1909-1.1606-1.2384-0.73736-0.61726 0.59241z" stroke-opacity=".88372" fill-rule="evenodd" stroke="#333" stroke-width=".17005" fill="url(#j)"/>
</g>
</g>
<g transform="matrix(1.0797 -.11730 .11798 1.0735 -355.42 -263.27)">
<g transform="matrix(.35249 .010495 .0022081 .35250 -.004426 272.71)">
<path stroke-linejoin="round" d="m340.34 304.7 10.562-10.6 1.2706-8.9948-8.9644-0.60659-12.355 11.644" fill-rule="evenodd" stroke="#500" stroke-width="1.1768" fill="url(#d)"/>
<path stroke-linejoin="round" d="m330.92 296.04-3.868 9.283 3.5794 3.6904 9.6367-4.2554c0.28336-1.8145 0.78302-3.5456-2.0093-3.9874-0.2834-1.4968 0.0987-3.1947-2.942-3.2724-0.96058-3.3215-2.9418-1.8004-4.3968-1.4582z" fill-rule="evenodd" stroke="url(#b)" stroke-width="1.1762px" fill="url(#c)"/>
<path d="m335.35 297.57-6.1721 7.7077" stroke="#000" stroke-width=".40004" fill="none"/>
<path d="m338.29 300.98c-0.2939 0.11951-8.1706 5.5567-8.1706 5.5567" stroke="#000" stroke-width=".40004" fill="none"/>
<path stroke-linejoin="round" d="m327.03 305.38-2.3538 5.7552 5.9886-2.1372c-0.64013-2.659-1.4809-4.203-3.6348-3.618z" stroke-opacity=".83871" fill-rule="evenodd" stroke="#750000" stroke-width="1.1762px" fill="url(#a)"/>
<path d="m351.02 294.19-10.31 10.57" stroke="#000" stroke-width=".46147" fill="none"/>
</g>
<g transform="matrix(.35249 .010495 .0022081 .35250 -.004426 272.71)">
<path stroke-linejoin="round" d="m340.34 304.7 10.878-10.924 1.2315-8.9383-8.9253-0.66307-12.671 11.968" fill-rule="evenodd" stroke="#500" stroke-width="1.1768" fill="url(#d)"/>
<path stroke-linejoin="round" d="m330.92 296.04-3.868 9.283 3.5794 3.6904 9.6367-4.2554c0.28336-1.8145 0.78302-3.5456-2.0093-3.9874-0.2834-1.4968 0.0987-3.1947-2.942-3.2724-0.96058-3.3215-2.9418-1.8004-4.3968-1.4582z" fill-rule="evenodd" stroke="url(#b)" stroke-width="1.1762px" fill="url(#c)"/>
<path stroke-linejoin="round" d="m327.03 305.38-2.3538 5.7552 5.9886-2.1372c-0.64013-2.659-1.4809-4.203-3.6348-3.618z" stroke-opacity=".83871" fill-rule="evenodd" stroke="#750000" stroke-width="1.1762px" fill="url(#a)"/>
<path d="m351.01 294.5-10.3 10.26" stroke="#000" stroke-width=".46147" fill="none"/>
</g>
</g>
</g>
</g>
</svg>
