<?xml version="1.0"?>
<svg xmlns="http://www.w3.org/2000/svg" xmlns:xlink="http://www.w3.org/1999/xlink" id="Layer_2" data-name="Layer 2" viewBox="0 0 24 24"><defs><linearGradient id="linear-gradient" x1="12.13" y1="4" x2="12.13" y2="20" gradientUnits="userSpaceOnUse"><stop offset="0" stop-color="#999" stop-opacity="0"/><stop offset="0.1" stop-color="#888" stop-opacity="0.16"/><stop offset="0.43" stop-color="#595959" stop-opacity="0.62"/><stop offset="0.74" stop-color="#3d3d3d" stop-opacity="0.9"/><stop offset="1" stop-color="#333"/></linearGradient></defs><rect x="4.13" y="4" width="16" height="16" rx="1.89" style="fill:url(#linear-gradient)"/><path d="M18.24,5a.89.89,0,0,1,.89.9V18.11a.89.89,0,0,1-.89.89H6a.89.89,0,0,1-.89-.89V5.9A.89.89,0,0,1,6,5H18.24m0-2H6A2.9,2.9,0,0,0,3.13,5.9V18.11A2.89,2.89,0,0,0,6,21H18.24a2.89,2.89,0,0,0,2.89-2.89V5.9A2.89,2.89,0,0,0,18.24,3Z" style="fill:#333"/></svg>
