<?xml version="1.0"?>
<svg xmlns="http://www.w3.org/2000/svg" viewBox="0 0 24 24"><g id="Layer_2" data-name="Layer 2"><path d="M11.37,8,9.7,9.7l2.12,2.12,1.53-1.53A6,6,0,0,0,11.37,8ZM14,12.5l-1.69,1.69-.33.32-.43.15-1.46.51A3,3,0,0,1,8,16a3,3,0,0,1-1.23-5.73L6.86,10,7,9.56l.32-.32L9.41,7.17A5.92,5.92,0,0,0,8,7,6,6,0,0,0,8,19a5.91,5.91,0,0,0,3.12-.88,5.3,5.3,0,0,0,1.12-.88,5.3,5.3,0,0,0,.88-1.12A5.91,5.91,0,0,0,14,13C14,12.83,14,12.66,14,12.5Z" style="fill:#333"/><rect x="11.92" y="15.98" width="2.83" height="4.71" transform="translate(-9.06 14.8) rotate(-45)" style="fill:#333"/><path d="M8.76,10.65l2.12,2.12-2.08.72a.47.47,0,0,1-.17,0A.63.63,0,0,1,8,12.73Z" style="fill:#0071bc"/><polygon points="19.57 4.07 13.35 10.29 11.82 11.82 9.7 9.7 11.37 8.04 17.45 1.95 19.57 4.07" style="fill:#0071bc"/></g></svg>
