<?xml version="1.0"?>
<svg xmlns="http://www.w3.org/2000/svg" id="Layer_2" data-name="Layer 2" viewBox="0 0 24 24"><rect x="9" y="4" width="12" height="2" transform="translate(30 10.01) rotate(-180)" style="fill:#333"/><rect x="9" y="11" width="12" height="2" transform="translate(30 24.01) rotate(-180)" style="fill:#333"/><rect x="9" y="18" width="12" height="2" transform="translate(30 38.01) rotate(-180)" style="fill:#333"/><path d="M6,8h-1V4.61l0-.52-.37.35L4,4.9l-.51-.64L5.13,3H6Z" style="fill:#333"/><path d="M6.88,15H3.38v-.74L4.64,13c.37-.38.61-.64.73-.79a1.61,1.61,0,0,0,.24-.41,1,1,0,0,0,.08-.38.55.55,0,0,0-.17-.45.63.63,0,0,0-.44-.15,1.28,1.28,0,0,0-.57.13,3.31,3.31,0,0,0-.57.38l-.57-.68A4.14,4.14,0,0,1,4,10.18a1.87,1.87,0,0,1,.53-.2,2.56,2.56,0,0,1,.64-.07,2,2,0,0,1,.83.17,1.26,1.26,0,0,1,.56.48,1.27,1.27,0,0,1,.2.7,1.57,1.57,0,0,1-.13.65,2.41,2.41,0,0,1-.37.62,10.29,10.29,0,0,1-.9.91L4.7,14v.05H6.88Z" style="fill:#333"/><path d="M6.68,18a1.17,1.17,0,0,1-.28.8,1.47,1.47,0,0,1-.8.45v0a1.66,1.66,0,0,1,.92.37,1.05,1.05,0,0,1,.31.79,1.35,1.35,0,0,1-.52,1.12,2.41,2.41,0,0,1-1.5.4,3.63,3.63,0,0,1-1.44-.27v-.9A3,3,0,0,0,4,21a2.72,2.72,0,0,0,.69.09A1.33,1.33,0,0,0,5.47,21a.65.65,0,0,0,.25-.57.51.51,0,0,0-.29-.5,2,2,0,0,0-.91-.15H4.14v-.81h.38a1.79,1.79,0,0,0,.85-.15.55.55,0,0,0,.27-.52c0-.38-.23-.57-.71-.57a1.8,1.8,0,0,0-.5.08,3,3,0,0,0-.57.28l-.48-.72A2.69,2.69,0,0,1,5,16.84a2.1,2.1,0,0,1,1.22.31A1,1,0,0,1,6.68,18Z" style="fill:#333"/></svg>
