<?xml version="1.0" encoding="UTF-8" standalone="no"?>
<!-- Created with Inkscape (http://www.inkscape.org/) -->

<svg
   xmlns:dc="http://purl.org/dc/elements/1.1/"
   xmlns:cc="http://creativecommons.org/ns#"
   xmlns:rdf="http://www.w3.org/1999/02/22-rdf-syntax-ns#"
   xmlns:svg="http://www.w3.org/2000/svg"
   xmlns="http://www.w3.org/2000/svg"
   xmlns:xlink="http://www.w3.org/1999/xlink"
   xmlns:sodipodi="http://sodipodi.sourceforge.net/DTD/sodipodi-0.dtd"
   xmlns:inkscape="http://www.inkscape.org/namespaces/inkscape"
   width="11.821814mm"
   height="10.402451mm"
   viewBox="0 0 41.888317 36.859077"
   id="svg5769"
   version="1.1"
   inkscape:version="0.92.1 r15371"
   sodipodi:docname="PresentationPreference.svg">
  <defs
     id="defs5771">
    <linearGradient
       inkscape:collect="always"
       id="linearGradient4484">
      <stop
         style="stop-color:#ffffff;stop-opacity:1;"
         offset="0"
         id="stop4486" />
      <stop
         style="stop-color:#ffffff;stop-opacity:0;"
         offset="1"
         id="stop4488" />
    </linearGradient>
    <linearGradient
       x1="268.63"
       x2="219.96001"
       y1="238.03"
       gradientUnits="userSpaceOnUse"
       y2="124.52"
       id="a"
       gradientTransform="matrix(0.09048591,0,0,0.0907745,264.0459,479.40474)">
      <stop
         id="stop4697"
         offset="0"
         stop-color="#fff" />
      <stop
         id="stop4699"
         offset="1"
         stop-opacity=".99225"
         stop-color="#fff" />
    </linearGradient>
    <linearGradient
       id="aigrd5"
       gradientUnits="userSpaceOnUse"
       x1="27.294901"
       y1="25.4727"
       x2="20.945299"
       y2="11.0039">
      <stop
         offset="0"
         style="stop-color:#f5f5f5;stop-opacity:1;"
         id="stop13012" />
      <stop
         offset="1"
         style="stop-color:#e1e1e1;stop-opacity:1;"
         id="stop13014" />
    </linearGradient>
    <linearGradient
       y2="7.4600263"
       x2="24.919374"
       y1="6.1478682"
       x1="24.919374"
       gradientTransform="matrix(1.7574358,0,0,2.3416133,245.10519,489.54873)"
       gradientUnits="userSpaceOnUse"
       id="linearGradient9224"
       xlink:href="#aigrd6"
       inkscape:collect="always" />
    <linearGradient
       id="aigrd6"
       gradientUnits="userSpaceOnUse"
       x1="24.6035"
       y1="9.3432999"
       x2="24.6035"
       y2="10.4377">
      <stop
         offset="0"
         style="stop-color:#87deaa;stop-opacity:1"
         id="stop13035" />
      <stop
         offset="1"
         style="stop-color:#008033;stop-opacity:1"
         id="stop13037" />
    </linearGradient>
    <linearGradient
       inkscape:collect="always"
       xlink:href="#a"
       id="linearGradient5069"
       gradientUnits="userSpaceOnUse"
       gradientTransform="matrix(0.08379709,0,0,0.08406435,351.02808,700.23699)"
       x1="268.63"
       y1="238.03"
       x2="219.96001"
       y2="124.52" />
    <linearGradient
       inkscape:collect="always"
       xlink:href="#linearGradient4484"
       id="linearGradient4490"
       x1="270.70633"
       y1="505.10529"
       x2="273.03723"
       y2="505.12097"
       gradientUnits="userSpaceOnUse"
       gradientTransform="translate(0.21527024)" />
    <linearGradient
       x1="14.463"
       y1="12.285"
       gradientTransform="matrix(0.90504,0,0,0.90504,-531.65,73.301)"
       x2="34.534"
       gradientUnits="userSpaceOnUse"
       y2="39.685001"
       id="a-5">
      <stop
         id="stop3664"
         offset="0"
         stop-color="#8da6d8" />
      <stop
         id="stop3666"
         offset=".25"
         stop-color="#b4c5e5" />
      <stop
         id="stop3668"
         offset=".5"
         stop-color="#d8e1f2" />
      <stop
         id="stop3670"
         offset=".75"
         stop-color="#92aada" />
      <stop
         id="stop3672"
         offset="1"
         stop-color="#8ea7d8" />
    </linearGradient>
  </defs>
  <sodipodi:namedview
     id="base"
     pagecolor="#ffffff"
     bordercolor="#666666"
     borderopacity="1.0"
     inkscape:pageopacity="0.0"
     inkscape:pageshadow="2"
     inkscape:zoom="6.6081216"
     inkscape:cx="-39.847628"
     inkscape:cy="16.695042"
     inkscape:document-units="px"
     inkscape:current-layer="layer1"
     showgrid="false"
     fit-margin-top="0"
     fit-margin-left="0"
     fit-margin-right="0"
     fit-margin-bottom="0"
     inkscape:window-width="1920"
     inkscape:window-height="1018"
     inkscape:window-x="-8"
     inkscape:window-y="-8"
     inkscape:window-maximized="1"
     inkscape:snap-global="false" />
  <metadata
     id="metadata5774">
    <rdf:RDF>
      <cc:Work
         rdf:about="">
        <dc:format>image/svg+xml</dc:format>
        <dc:type
           rdf:resource="http://purl.org/dc/dcmitype/StillImage" />
        <dc:title></dc:title>
      </cc:Work>
    </rdf:RDF>
  </metadata>
  <g
     inkscape:label="Layer 1"
     inkscape:groupmode="layer"
     id="layer1"
     transform="translate(-298.42909,-498.43194)">
    <g
       id="g4577"
       transform="matrix(1.0895892,0,0,1.0895892,3.3813005,-49.485718)">
      <path
         sodipodi:nodetypes="cc"
         style="fill:#2d5016;fill-opacity:0;fill-rule:evenodd;stroke:#005900;stroke-width:0.68497515px;stroke-linecap:round;stroke-linejoin:miter;stroke-opacity:1"
         d="m 290.03565,529.06437 v 6.98637"
         id="path4575"
         inkscape:connector-curvature="0" />
      <path
         inkscape:r_cy="true"
         inkscape:r_cx="true"
         id="path13016"
         d="M 306.58353,530.38279 H 273.35786 V 506.832 h 33.22567 z"
         style="display:inline;fill:#ffffff;fill-opacity:1;fill-rule:nonzero;stroke:#005900;stroke-width:0.75;stroke-linejoin:round;stroke-miterlimit:4;stroke-opacity:1"
         inkscape:connector-curvature="0" />
      <g
         transform="translate(0.26630924)"
         id="g4530">
        <rect
           style="color:#000000;display:inline;overflow:visible;visibility:visible;fill:url(#linearGradient9224);fill-opacity:1;fill-rule:nonzero;stroke:#005900;stroke-width:0.75;stroke-linecap:butt;stroke-linejoin:miter;stroke-miterlimit:4;stroke-dasharray:none;stroke-dashoffset:0;stroke-opacity:1;marker:none"
           id="rect9222"
           width="37.615192"
           height="3.7142279"
           x="270.89679"
           y="503.24127"
           inkscape:r_cx="true"
           inkscape:r_cy="true"
           rx="1.790844"
           ry="1.802771" />
        <path
           style="opacity:0.65899999;fill:url(#linearGradient4490);fill-opacity:1;fill-rule:evenodd;stroke:none;stroke-width:1px;stroke-linecap:butt;stroke-linejoin:miter;stroke-opacity:1"
           d="m 272.50317,503.58778 c -0.48389,0.008 -1.25261,0.52281 -1.25982,1.45249 -0.007,0.92968 0.6178,1.53088 1.32433,1.57022 0,0 1.35181,0.0113 1.19881,0 -1.886,-0.13941 -1.94949,-2.72959 -0.21448,-3.01573 -0.46187,6.1e-4 -0.65743,-0.0107 -1.04884,-0.007 z"
           id="path4474"
           inkscape:connector-curvature="0"
           sodipodi:nodetypes="czcsccc" />
        <path
           style="opacity:0.65899999;fill:#005522;fill-opacity:1;fill-rule:evenodd;stroke:none;stroke-width:1px;stroke-linecap:butt;stroke-linejoin:miter;stroke-opacity:1"
           d="m 306.98696,503.56031 c 0.48389,0.008 1.25261,0.52281 1.25982,1.45249 0.007,0.92968 -0.6178,1.53088 -1.32433,1.57022 0,0 -1.35181,0.0113 -1.19881,0 1.886,-0.13941 1.94949,-2.72959 0.21448,-3.01573 0.46187,6.1e-4 0.65743,-0.0107 1.04884,-0.007 z"
           id="path4474-7"
           inkscape:connector-curvature="0"
           sodipodi:nodetypes="czcsccc" />
      </g>
      <path
         sodipodi:nodetypes="cc"
         inkscape:connector-curvature="0"
         id="path4535"
         d="m 271.31254,530.32914 c 0.30445,0.0904 37.44595,0 37.44595,0"
         style="fill:#2d5016;fill-opacity:0;fill-rule:evenodd;stroke:#005900;stroke-width:0.93418342px;stroke-linecap:round;stroke-linejoin:miter;stroke-opacity:1" />
      <circle
         r="1.8556092"
         cy="534.54059"
         cx="290.03564"
         id="path4573"
         style="color:#000000;clip-rule:nonzero;display:inline;overflow:visible;visibility:visible;opacity:1;isolation:auto;mix-blend-mode:normal;color-interpolation:sRGB;color-interpolation-filters:linearRGB;solid-color:#000000;solid-opacity:1;fill:#ffff1e;fill-opacity:1;fill-rule:nonzero;stroke:#005900;stroke-width:0.59698266;stroke-linecap:round;stroke-linejoin:round;stroke-miterlimit:4;stroke-dasharray:none;stroke-dashoffset:0;stroke-opacity:1;color-rendering:auto;image-rendering:auto;shape-rendering:auto;text-rendering:auto;enable-background:accumulate" />
    </g>
    <g
       id="g4621"
       transform="matrix(0.61021279,0,0,0.61021279,141.62019,167.61414)">
      <rect
         ry="1.862726"
         rx="1.8591295"
         y="553.88306"
         x="270.47888"
         height="31.358326"
         width="41.208649"
         id="rect4498"
         style="opacity:1;fill:#ffffff;fill-opacity:1;stroke:#000000;stroke-width:0.75;stroke-opacity:1" />
      <g
         transform="matrix(1.2353875,0,0,1.2353875,-181.15889,-317.07983)"
         id="g4422">
        <path
           id="path4779"
           d="m 375.78529,716.10016 c 2.11426,-0.0434 4.06732,1.99664 6.28688,0.16883 2.10078,-1.76148 5.00221,1.2991 6.79402,1.50356 -1.49785,-0.15879 -4.07178,-3.0623 -6.14158,-0.92633 -3.10136,3.16195 -4.76809,1.21831 -6.92723,1.26249 l -0.0121,-2.00855 z"
           style="color:#000000;text-indent:0;text-decoration:none;text-decoration-line:none;text-transform:none;fill:#2ca02c;stroke:#2ca02c;stroke-width:0.58037668;stroke-linecap:round;stroke-linejoin:round;stroke-opacity:0.99607999"
           inkscape:connector-curvature="0" />
        <path
           id="path4781"
           d="m 372.43853,718.33869 c 2.11424,0.0434 4.0673,0.25882 6.28687,2.08663 2.10078,1.76148 4.7921,3.64141 6.58392,3.43686 -1.49785,0.1588 -3.86169,-1.87811 -5.93148,-4.01416 -3.10137,-3.16194 -4.76809,-3.47377 -6.92723,-3.51794 l -0.0121,2.00854 v 0 z"
           style="color:#000000;text-indent:0;text-decoration:none;text-decoration-line:none;text-transform:none;fill:#0034b0;stroke:#0034b0;stroke-width:0.58037668;stroke-linecap:round;stroke-linejoin:round;stroke-opacity:0.99738668"
           inkscape:connector-curvature="0" />
        <path
           id="path4783"
           d="m 372.42387,716.20498 c 2.11426,-0.0434 4.06732,-0.25882 6.28689,-2.08663 2.10076,-1.76148 4.7921,-3.6414 6.5839,-3.43687 -1.49784,-0.15879 -3.86167,1.87812 -5.93147,4.01417 -3.10137,3.16195 -4.76809,3.47377 -6.92723,3.51794 l -0.0121,-2.00854 v 0 z"
           style="color:#000000;text-indent:0;text-decoration:none;text-decoration-line:none;text-transform:none;fill:#ff0000;stroke:#ff0000;stroke-width:0.58037668;stroke-linecap:round;stroke-linejoin:round;stroke-opacity:0.99607999"
           inkscape:connector-curvature="0" />
        <path
           id="path4743"
           d="m 376.89205,718.72358 a 4.290914,4.3045991 0 0 1 -4.29124,4.30494 4.290914,4.3045991 0 0 1 -4.29127,-4.30494 4.290914,4.3045991 0 0 1 4.29127,-4.30493 4.290914,4.3045991 0 0 1 4.29124,4.30493 z"
           font-size="61.543px"
           inkscape:connector-curvature="0"
           style="font-size:61.54299927px;fill:url(#linearGradient5069);fill-rule:evenodd;stroke:#0034b0;stroke-width:0.90568078;stroke-opacity:0.99738668" />
        <rect
           style="fill:#ffffff;fill-rule:evenodd;stroke:#2ca02c;stroke-width:0.66973293;stroke-linejoin:round;stroke-opacity:1"
           rx="0.97680634"
           ry="1.0587236"
           height="4.8009052"
           width="8.6384783"
           y="714.97345"
           x="-395.90698"
           id="rect4717"
           transform="scale(-1,1)" />
        <rect
           style="fill:#ffffff;fill-rule:evenodd;stroke:#0034b0;stroke-width:0.66972232;stroke-linejoin:round;stroke-opacity:0.99738668"
           rx="0.9768008"
           ry="1.0587536"
           height="4.8010173"
           width="8.6384134"
           y="722.9632"
           x="383.33188"
           id="rect4723" />
        <rect
           style="fill:#ffffff;fill-rule:evenodd;stroke:#ff0000;stroke-width:0.63820893;stroke-linejoin:round;stroke-opacity:1"
           rx="0.91026998"
           ry="1.007938"
           height="4.5706868"
           width="8.0499411"
           y="-711.94672"
           x="-391.7066"
           id="rect4729"
           transform="scale(-1)" />
      </g>
    </g>
    <g
       id="g3676"
       transform="matrix(0.60076327,0,0,0.60076327,618.43159,459.04373)">
      <path
         inkscape:connector-curvature="0"
         id="path3678"
         d="m -511.05,78.896 c -0.33917,0.02321 -0.66885,0.07574 -1.002,0.11386 h -0.0228 l -0.79705,4.3496 c -1.2991,0.29586 -2.5213,0.79795 -3.6209,1.4802 l -3.5753,-2.5733 c -0.9665,0.75036 -1.846,1.6255 -2.6189,2.5733 l 2.4822,3.6209 c -0.75367,1.1518 -1.3204,2.4669 -1.6396,3.8486 -6e-5,0.0066 -5e-5,0.02164 0,0.02277 l -4.3268,0.68318 c -0.0791,0.64612 -0.11386,1.3139 -0.11386,1.9812 0,0.54604 0.0151,1.0848 0.0683,1.6169 l 4.3268,0.77427 c 0.30773,1.5026 0.8923,2.9058 1.708,4.1446 l -2.5733,3.5298 c 0.73698,0.91493 1.5878,1.7479 2.505,2.4822 l 3.6436,-2.505 c 1.2734,0.81233 2.6949,1.3819 4.2357,1.6624 l 0.68319,4.3041 c 0.48546,0.0442 0.98331,0.0456 1.4802,0.0456 0.70153,-1e-5 1.3716,-0.0266 2.0495,-0.11387 l 0.81982,-4.3951 c 1.463,-0.36407 2.8373,-0.99566 4.0308,-1.8446 l 3.507,2.5505 c 0.90947,-0.77376 1.7411,-1.6631 2.4595,-2.6189 l -2.5506,-3.6892 c 0.69072,-1.1929 1.1693,-2.5091 1.4119,-3.9169 l 4.304,-0.68318 c 0.0377,-0.44915 0.0455,-0.88474 0.0455,-1.3436 0,-0.79738 -0.0927,-1.5792 -0.20496,-2.3456 l -4.3724,-0.79705 c -0.34264,-1.2652 -0.90484,-2.4457 -1.6169,-3.507 l 2.5733,-3.5298 c -0.79765,-0.97548 -1.7075,-1.8766 -2.71,-2.6416 l -3.712,2.5505 c -1.0669,-0.63096 -2.2149,-1.1151 -3.4615,-1.3891 l -0.68318,-4.3268 c -0.62183,-0.07315 -1.2488,-0.11386 -1.8901,-0.11386 -0.17335,0 -0.35175,-0.0055 -0.52378,0 -0.0839,0.0027 -0.16685,-0.0049 -0.2505,0 -0.0226,0.0013 -0.0457,-0.0015 -0.0683,0 z m 0.5921,11.068 c 0.0832,-0.0042 0.16626,0 0.2505,0 2.6957,0 4.8961,2.2005 4.8961,4.8961 0,2.6957 -2.2005,4.8734 -4.8961,4.8734 -2.6957,0 -4.8734,-2.1777 -4.8734,-4.8734 0,-2.6114 2.0438,-4.7653 4.6229,-4.8961 z"
         style="color:#000000;fill:url(#a-5);stroke:#003380;stroke-width:1.19809997" />
      <g
         style="fill:none;stroke:#ffffff"
         id="g3680">
        <circle
           id="circle3682"
           r="12.728"
           cx="23.511"
           cy="23.782"
           transform="matrix(0.4871,0,0,0.4871,-521.65,83.397)"
           style="color:#000000;opacity:0.64772997;stroke-width:2.45970011" />
        <path
           inkscape:connector-curvature="0"
           id="path3684"
           d="m -511.47,80.748 -0.60389,3.974 c -1.1491,0.26168 -3.2628,1.062 -4.2353,1.6655 l -3.2128,-2.398 c -0.85487,0.6637 -0.9135,0.70871 -1.5971,1.5471 l 2.3229,3.4451 c -0.66662,1.0187 -1.4673,2.8342 -1.7548,4.1315 0,0 -4.0705,0.68617 -4.0705,0.68617 -0.07,0.57149 -0.0363,1.7946 0.0108,2.2653 l 3.8882,0.70044 c 0.27218,1.329 1.2908,3.4683 2.0122,4.564 l -2.4588,3.2485 c 0.65186,0.80926 0.78232,0.88331 1.5936,1.5328 l 3.2878,-2.4087 c 1.1263,0.7185 3.362,1.5925 4.7248,1.8406 l 0.5396,3.924 c 0.4294,0.0391 1.6156,0.14873 2.2152,0.0715 l 0.60389,-4.0848 c 1.294,-0.32202 3.5299,-1.2398 4.5855,-1.9907 l 3.2843,2.373 c 0.80443,-0.68439 0.81164,-0.78752 1.447,-1.6329 l -2.4338,-3.4594 c 0.61095,-1.0551 1.4009,-3.1187 1.6155,-4.3639 l 3.9847,-0.66116 c 0.0334,-0.39727 0.035,-1.5051 -0.0643,-2.183 l -4.0598,-0.70044 c -0.30307,-1.1191 -1.3431,-3.1357 -1.9729,-4.0744 l 2.5803,-3.2485 c -0.70552,-0.86281 -0.96784,-0.9812 -1.8545,-1.6579 l -3.3986,2.4338 c -0.94364,-0.55808 -2.8253,-1.4088 -3.9279,-1.6512 l -0.60037,-3.8882 c -0.55001,-0.0647 -2.1368,-0.03597 -2.4512,0 z"
           style="color:#000000;opacity:0.34659005;stroke-width:1.19809997" />
      </g>
    </g>
  </g>
</svg>
