<?xml version="1.0" encoding="UTF-8"?>
<!-- Created with Inkscape (http://www.inkscape.org/) -->
<svg xmlns="http://www.w3.org/2000/svg" version="1.1" viewBox="0 0 33.867 34.052">
 <g transform="translate(-138.17 -55.784)">
  <g transform="matrix(.26458 0 0 .26458 138.17 55.876)">
   <g transform="matrix(2.2143,0,0,2.2143,360.57,-54.085)" fill="#0071bc">
    <path d="m-136.95 63.211h3.9648v4.9609h-3.9648v-4.9609m3.8477-2.8711h-3.7305v-3.0078c-1e-5 -1.3151 0.18228-2.3958 0.54687-3.2422 0.36458-0.84634 1.1328-1.8294 2.3047-2.9492l1.7578-1.7383c0.74218-0.69008 1.276-1.3411 1.6016-1.9531 0.33852-0.61196 0.50779-1.237 0.50781-1.875-2e-5 -1.1588-0.4297-2.0963-1.2891-2.8125-0.84637-0.71612-1.9727-1.0742-3.3789-1.0742-1.0286 2.7e-5 -2.1289 0.22789-3.3008 0.68359-1.1589 0.45576-2.3698 1.1198-3.6328 1.9922v-3.6719c1.224-0.74216 2.4609-1.2955 3.7109-1.6602 1.263-0.36455 2.5651-0.54684 3.9062-0.54688 2.3958 3e-5 4.3164 0.63154 5.7617 1.8945 1.4583 1.263 2.1875 2.9297 2.1875 5-2e-5 0.9896-0.23439 1.9336-0.70312 2.832-0.46877 0.88544-1.2891 1.888-2.4609 3.0078l-1.7188 1.6797c-0.61199 0.61199-1.0482 1.0938-1.3086 1.4453-0.24741 0.33856-0.42319 0.67059-0.52735 0.99609-0.0781 0.27345-0.13673 0.60548-0.17578 0.99609-0.0391 0.39064-0.0586 0.92449-0.0586 1.6016v2.4023"/>
   </g>
   <g transform="translate(0,-924.36)">
    <path transform="matrix(.98823 0 0 .98628 .23592 924.39)" d="m128.29 64.865a63.766 63.892 0 1 1-127.53 0 63.766 63.892 0 1 1 127.53 0z" fill="none" stroke="#333333" stroke-linecap="round" stroke-linejoin="round" stroke-width="1.9947"/>
   </g>
  </g>
 </g>
</svg>
