<?xml version="1.0" encoding="UTF-8" standalone="no"?>
<svg xmlns:rdf="http://www.w3.org/1999/02/22-rdf-syntax-ns#" xmlns="http://www.w3.org/2000/svg" version="1.1" xmlns:cc="http://creativecommons.org/ns#" xmlns:xlink="http://www.w3.org/1999/xlink" viewBox="0 0 16.089 15.989" xmlns:dc="http://purl.org/dc/elements/1.1/">
<defs>
<linearGradient id="a" y2=".029297" gradientUnits="userSpaceOnUse" y1="8.4145" gradientTransform="matrix(-1 0 0 1 16.1 0)" x2="-.13419" x1="12.978">
<stop stop-color="#003a00" offset="0"/>
<stop stop-color="#00d800" offset="1"/>
</linearGradient>
</defs>
<metadata>
<rdf:RDF>
<cc:Work rdf:about="">
<dc:format>image/svg+xml</dc:format>
<dc:type rdf:resource="http://purl.org/dc/dcmitype/StillImage"/>
<dc:title/>
</cc:Work>
</rdf:RDF>
</metadata>
<g transform="translate(-38.749 -273.51)">
<g transform="translate(38.738 273.51)" stroke="#008000">
<path d="m9.2652 2.3145c-9.1112-0.0305-9.2023 13.622-9.2023 13.622" stroke-linecap="square" stroke-width=".10268" fill="none"/>
<path d="m9.2265 7.5577c-9.164-0.0551-9.164 8.3793-9.164 8.3793" stroke-width=".097447" fill="none"/>
<path d="m0.27159 13.918c0.04417-0.0012 0.08824 0.03624 0.07709 0.08282-0.01649 0.06229-0.02393 0.12816-0.04842 0.18767-0.02758 0.05273-0.11714 0.03995-0.12565-0.02028-0.0012-0.06518 0.01129-0.13063 0.01907-0.19538 0.0077-0.03491 0.04255-0.05906 0.07791-0.05483zm0.07228-0.41032c0.08234-0.003 0.12906 0.0819 0.08981 0.15232-0.0371 0.10056-0.03381 0.22471-0.10556 0.30694-0.06998 0.05137-0.14352-0.04469-0.11806-0.11482 0.02667-0.10564-0.000226-0.2319 0.0662-0.32315 0.01876-0.01605 0.04283-0.02449 0.06759-0.0213zm8.7864-11.165c0.038909 0.53136 0.00554 1.0764 0.016667 1.613v3.5407c-0.0778 0.1297-0.2815 0.0339-0.4149 0.0652-1.5287 0.0569-3.0697 0.3429-4.4261 1.072-1.498 0.781-2.6684 2.0965-3.3681 3.6335-0.20215 0.40766-0.32853 0.84973-0.48908 1.2714-0.09679 0.10084-0.19926-0.04418-0.16018-0.14444 0.12908-1.0954 0.36045-2.1792 0.64674-3.244 0.54432-1.9111 1.3524-3.7962 2.6726-5.3009 1.0715-1.2315 2.5534-2.1231 4.1741-2.3982 0.437-0.0739 0.8875-0.1341 1.3283-0.1165l0.019824 0.00816zm6.9693 2.6784-3.5 2.4895l-3.5004 2.4895 0.0098-5 0.0098-5 3.4898 2.5105z" stroke-linecap="square" stroke-width=".00052378" fill="url(#a)"/>
</g>
</g>
</svg>
