<?xml version="1.0" encoding="UTF-8" standalone="no"?>
<svg xmlns:dc="http://purl.org/dc/elements/1.1/" xmlns:cc="http://creativecommons.org/ns#" xmlns:rdf="http://www.w3.org/1999/02/22-rdf-syntax-ns#" xmlns:svg="http://www.w3.org/2000/svg" xmlns="http://www.w3.org/2000/svg" version="1.1" viewBox="0 0 24 24" data-name="Layer 2" id="Layer_2">
  <metadata id="metadata17">
    <rdf:RDF>
      <cc:Work rdf:about="">
        <dc:format>image/svg+xml</dc:format>
        <dc:type rdf:resource="http://purl.org/dc/dcmitype/StillImage"/>
        <dc:title/>
      </cc:Work>
    </rdf:RDF>
  </metadata>
  <defs id="defs15"/>
  <g transform="translate(4,2.7457627)" id="g828">
    <path d="M 9.77,7.33 3.33,13.77 A 4.76,4.76 0 0 1 3,12 5,5 0 0 1 8,7 4.76,4.76 0 0 1 9.77,7.33 Z" style="fill:#0071bc" id="path2"/>
    <path d="M 12.2,9.29 5.29,16.2 A 4.82,4.82 0 0 1 3.8,14.71 L 10.71,7.8 a 4.82,4.82 0 0 1 1.49,1.49 z" style="fill:#0071bc" id="path4"/>
    <path d="M 13,12 A 5,5 0 0 1 8,17 4.76,4.76 0 0 1 6.23,16.67 l 6.44,-6.44 A 4.76,4.76 0 0 1 13,12 Z" style="fill:#0071bc" id="path6"/>
    <polygon points="14,7.49 3.49,18 2,16.51 3.8,14.71 10.71,7.8 12.51,6 " style="fill:#333333" id="polygon10"/>
  </g>
  <g id="text833" style="font-style:normal;font-weight:normal;font-size:10.66666698px;line-height:1.25;font-family:sans-serif;letter-spacing:0px;word-spacing:0px;fill:#000000;fill-opacity:1;stroke:none" aria-label="?">
    <path id="path835" style="font-style:normal;font-variant:normal;font-weight:bold;font-stretch:normal;font-family:FreeSans;-inkscape-font-specification:'FreeSans Bold';fill:#333333;fill-opacity:1" d="M 9.3760003,3.4205941 Q 9.386667,2.7272608 9.5573337,2.2045941 9.738667,1.6819274 9.994667,1.3939274 10.261334,1.0952607 10.624,0.91392739 q 0.362667,-0.18133334 0.672,-0.23466668 0.32,-0.064 0.672,-0.064 1.173334,0 1.909334,0.68266669 0.746666,0.6826667 0.746666,1.7706667 0,0.672 -0.266666,1.1093334 -0.266667,0.4373333 -1.013334,0.96 -0.48,0.3413334 -0.597333,0.544 -0.117333,0.2026667 -0.117333,0.7253334 H 11.306667 V 6.2579275 q 0,-0.5333333 0.181333,-0.928 Q 11.68,4.9245942 11.946667,4.6792608 12.213334,4.4339275 12.48,4.2205942 12.746667,4.0072608 12.928,3.7299275 13.12,3.4525941 13.12,3.1005941 q 0,-0.5226667 -0.32,-0.8746667 -0.32,-0.352 -0.8,-0.352 -0.501333,0 -0.842666,0.4053334 -0.330667,0.4053333 -0.330667,1.024 v 0.096 0.021333 z M 12.8,6.9939276 V 8.5512609 H 11.2 V 6.9939276 Z"/>
  </g>
</svg>
