<?xml version="1.0" encoding="UTF-8" standalone="no"?>
<svg
   xmlns:dc="http://purl.org/dc/elements/1.1/"
   xmlns:cc="http://creativecommons.org/ns#"
   xmlns:rdf="http://www.w3.org/1999/02/22-rdf-syntax-ns#"
   xmlns:svg="http://www.w3.org/2000/svg"
   xmlns="http://www.w3.org/2000/svg"
   id="Layer_2"
   data-name="Layer 2"
   viewBox="0 0 24 24"
   version="1.1">
  <metadata
     id="metadata17">
    <rdf:RDF>
      <cc:Work
         rdf:about="">
        <dc:format>image/svg+xml</dc:format>
        <dc:type
           rdf:resource="http://purl.org/dc/dcmitype/StillImage" />
        <dc:title></dc:title>
      </cc:Work>
    </rdf:RDF>
  </metadata>
  <defs
     id="defs15" />
  <g
     id="g828"
     transform="translate(4,2.7457627)">
    <path
       id="path2"
       style="fill:#0071bc"
       d="M 9.77,7.33 3.33,13.77 A 4.76,4.76 0 0 1 3,12 5,5 0 0 1 8,7 4.76,4.76 0 0 1 9.77,7.33 Z" />
    <path
       id="path4"
       style="fill:#0071bc"
       d="M 12.2,9.29 5.29,16.2 A 4.82,4.82 0 0 1 3.8,14.71 L 10.71,7.8 a 4.82,4.82 0 0 1 1.49,1.49 z" />
    <path
       id="path6"
       style="fill:#0071bc"
       d="M 13,12 A 5,5 0 0 1 8,17 4.76,4.76 0 0 1 6.23,16.67 l 6.44,-6.44 A 4.76,4.76 0 0 1 13,12 Z" />
    <polygon
       id="polygon10"
       style="fill:#333333"
       points="14,7.49 3.49,18 2,16.51 3.8,14.71 10.71,7.8 12.51,6 " />
  </g>
  <g
     transform="matrix(0.64721944,0,0,0.64721944,13.189847,15.462016)"
     id="text820"
     style="font-style:normal;font-weight:normal;font-size:40px;line-height:1.25;font-family:sans-serif;letter-spacing:0px;word-spacing:0px;fill:#000000;fill-opacity:1;stroke:none"
     aria-label="?">
    <path
       id="path822"
       style="font-size:13.33333302px;fill:#333300;fill-opacity:1"
       d="m -2.8442577,-13.653646 h 1.3216145 V -12 h -1.3216145 z m 1.282552,-0.957031 h -1.2434895 v -1.002604 q 0,-0.657552 0.1822916,-1.080729 0.1822917,-0.423177 0.7682292,-0.983073 l 0.5859375,-0.579427 q 0.3710937,-0.345052 0.53385412,-0.651042 0.16927083,-0.305989 0.16927083,-0.625 0,-0.579427 -0.42968749,-0.9375 -0.42317706,-0.358073 -1.12630206,-0.358073 -0.5143229,0 -1.1002604,0.227865 -0.5794271,0.227864 -1.2109375,0.664062 v -1.223958 q 0.6119792,-0.371094 1.2369792,-0.553385 0.6315104,-0.182292 1.3020833,-0.182292 1.19791662,0 1.92057285,0.63151 0.72916665,0.631511 0.72916665,1.666667 0,0.494792 -0.234375,0.94401 -0.23437499,0.442709 -0.82031248,1.002604 l -0.57291665,0.559896 q -0.30598957,0.30599 -0.43619787,0.481771 -0.123698,0.169271 -0.1757813,0.332031 -0.039063,0.136719 -0.058594,0.332032 -0.019531,0.195312 -0.019531,0.533854 z" />
  </g>
</svg>
