<?xml version="1.0"?>
<svg xmlns="http://www.w3.org/2000/svg" id="Layer_2" data-name="Layer 2" viewBox="0 0 24 24"><path d="M18.55,9.31a1.59,1.59,0,0,0-.36.28L16.75,11,15.51,9.79A4.74,4.74,0,0,0,11.25,7H8V9L3,5.5,8,2V4h3.25A7.79,7.79,0,0,1,18.55,9.31Z" style="fill:#333"/><path d="M10.59,17.19A2,2,0,0,0,10,18.6a2,2,0,0,0,.57,1.4H8v2L3,18.5,8,15v2h2.78Z" style="fill:#333"/><polygon points="18.65 15.75 21.5 18.6 19.6 20.5 16.75 17.65 13.9 20.5 13.16 19.76 12 18.6 14.85 15.75 14.62 15.52 12 12.9 13.9 11 15.9 13 15.9 13.01 16.75 13.85 19.6 11 21.5 12.9 18.65 15.75" style="fill:#0071bc"/></svg>
