<?xml version="1.0"?>
<svg xmlns="http://www.w3.org/2000/svg" id="Layer_2" data-name="Layer 2" viewBox="0 0 24 24"><path d="M9.77,7.33,3.33,13.77A4.76,4.76,0,0,1,3,12,5,5,0,0,1,8,7,4.76,4.76,0,0,1,9.77,7.33Z" style="fill:#0071bc"/><path d="M12.2,9.29,5.29,16.2A4.82,4.82,0,0,1,3.8,14.71L10.71,7.8A4.82,4.82,0,0,1,12.2,9.29Z" style="fill:#0071bc"/><path d="M13,12a5,5,0,0,1-5,5,4.76,4.76,0,0,1-1.77-.33l6.44-6.44A4.76,4.76,0,0,1,13,12Z" style="fill:#0071bc"/><circle cx="18.5" cy="13.5" r="3.5" style="fill:#333"/><polygon points="14 7.49 3.49 18 2 16.51 3.8 14.71 10.71 7.8 12.51 6 14 7.49" style="fill:#333"/></svg>
