<?xml version="1.0" encoding="UTF-8"?>
<svg xmlns="http://www.w3.org/2000/svg" version="1.1" viewBox="0 0 24 24" xml:space="preserve"><defs><marker id="marker3_Fnone_S-333333_reversed" overflow="visible" markerHeight="1" markerUnits="userSpaceOnUse" markerWidth="1.5" orient="auto" preserveAspectRatio="none" viewBox="0 0 1 1"><g transform="rotate(180)"><path transform="scale(.5)" d="m5.77 0-8.65 5v-10z" fill="#333333" fill-rule="evenodd" stroke="#333333" stroke-width="1pt"/></g></marker></defs>
<g transform="matrix(-.33957 0 0 .27668 31.281 -3.3195)" fill="#333333" stroke-width="3.2624">
<path d="m77.124 12.855c-0.336 2.074-0.519 4.218-0.547 6.433l-1.846 7.021-0.421 0.421h-0.886l-0.462-0.378c-0.14-3.588-0.294-5.69-0.462-6.307-0.337-1.122-1.234-1.78-2.691-1.976-0.56-0.084-3.195-0.126-7.904-0.126h-5.634c-0.056 0.981-0.084 4.877-0.084 11.688v23.882c0 6.67 0.183 11.016 0.547 13.033 0.14 0.813 0.616 1.332 1.429 1.556 0.421 0.113 2.061 0.253 4.919 0.421l0.42 0.42v2.817l-0.42 0.42c-2.775-0.168-7.091-0.252-12.95-0.252-5.999 0-10.315 0.084-12.95 0.252l-0.378-0.378v-2.859l0.421-0.42c2.859-0.168 4.499-0.308 4.919-0.421 0.813-0.224 1.29-0.743 1.43-1.556 0.364-2.018 0.546-6.363 0.546-13.033v-23.882c0-6.923-0.042-10.819-0.126-11.688h-6.013c-5.017 0-7.946 0.154-8.787 0.462-0.449 0.168-0.757 0.378-0.925 0.631-0.252 0.448-0.462 1.345-0.631 2.69-0.196 1.486-0.322 3.014-0.378 4.583l-0.42 0.421h-0.852l-0.463-0.421-1.881-7.189c-0.028-2.019-0.196-4.107-0.505-6.265l0.378-0.42c1.654 0.28 7.68 0.42 18.079 0.42h17.028c9.587 0 15.613-0.14 18.08-0.42z" fill="#333333" stroke-width="3.2624"/>
</g>

<path d="m5.7556 20.64h17.815" fill="none" marker-start="url(#marker3_Fnone_S-333333_reversed)" stroke="#333333" stroke-linejoin="round" stroke-miterlimit="0" stroke-width="3.2"/></svg>
