<?xml version="1.0"?>
<svg xmlns="http://www.w3.org/2000/svg" id="Layer_2" data-name="Layer 2" viewBox="0 0 24 24"><path d="M6,2V16H17v2a1.67,1.67,0,0,0,0,.39l0,.12a1.43,1.43,0,0,0,.09.27l0,.09a1.49,1.49,0,0,0,.14.24l.14.18.11.12a1.54,1.54,0,0,0,.19.17,2.11,2.11,0,0,0,.27.18,1.87,1.87,0,0,0,.63.21A1.66,1.66,0,0,0,19,20h.09l.22,0a2,2,0,0,0,1.62-1.47A1.68,1.68,0,0,0,21,18V2Zm6.18,10a.75.75,0,0,1,0,1.06.71.71,0,0,1-.54.24.79.79,0,0,1-.52-.2l-2.66-2.5a.75.75,0,0,1,0-1.1L11.15,7a.75.75,0,0,1,1,1.1L10.1,10Zm6.33-1.4-2.66,2.5a.79.79,0,0,1-.52.2.71.71,0,0,1-.54-.24.75.75,0,0,1,0-1.06L16.9,10,14.82,8.05a.75.75,0,0,1,0-1.06.75.75,0,0,1,1.06,0l2.66,2.5a.75.75,0,0,1,0,1.1Z" style="fill:#0071bc"/><path d="M19,22H5.08A3,3,0,0,1,2,19V18H14.84A3.66,3.66,0,0,0,15,19s0,0,0,0a1.61,1.61,0,0,0,.09.29,4,4,0,0,0,1,1.55,3.23,3.23,0,0,0,.27.23,3.34,3.34,0,0,0,.34.25l.31.18a4.39,4.39,0,0,0,1.53.46Z" style="fill:#333"/><path d="M19,22v0h0v0Zm-.18,0H18.5m.5,0h0" style="fill:none"/></svg>
