<?xml version="1.0" encoding="UTF-8" standalone="no"?>
<!-- Created with Inkscape (http://www.inkscape.org/) -->
<svg xmlns:inkscape="http://www.inkscape.org/namespaces/inkscape" xmlns:sodipodi="http://sodipodi.sourceforge.net/DTD/sodipodi-0.dtd" xmlns="http://www.w3.org/2000/svg" xmlns:svg="http://www.w3.org/2000/svg" xmlns:rdf="http://www.w3.org/1999/02/22-rdf-syntax-ns#" xmlns:cc="http://creativecommons.org/ns#" xmlns:dc="http://purl.org/dc/elements/1.1/" version="1.1" viewBox="0 0 24 24" id="svg144" sodipodi:docname="selected_menu_items.svg" inkscape:version="1.2.2 (b0a84865, 2022-12-01)">
  <defs id="defs148"/>
  <sodipodi:namedview id="namedview146" pagecolor="#ffffff" bordercolor="#000000" borderopacity="0.25" inkscape:showpageshadow="2" inkscape:pageopacity="0.0" inkscape:pagecheckerboard="0" inkscape:deskcolor="#d1d1d1" showgrid="false" inkscape:zoom="36.541667" inkscape:cx="10.960091" inkscape:cy="12.027366" inkscape:window-width="1920" inkscape:window-height="1027" inkscape:window-x="141" inkscape:window-y="107" inkscape:window-maximized="0" inkscape:current-layer="svg144"/>
  <metadata id="metadata132">
    <rdf:RDF>
      <cc:Work rdf:about="">
        <dc:format>image/svg+xml</dc:format>
        <dc:type rdf:resource="http://purl.org/dc/dcmitype/StillImage"/>
      </cc:Work>
    </rdf:RDF>
  </metadata>
  <rect x="-38.317" y="13.035" width="17.317" height="2.8027" rx="0" ry="1.3506" fill="#ffffff" id="rect134"/>
  <rect x="-38.317" y="19.197" width="17.317" height="2.8027" rx="0" ry="1.4014" fill="#ffffff" id="rect136"/>
  <rect x="-38.317" y="25.513" width="17.317" height="2.8027" rx="0" ry="1.2787" fill="#ffffff" id="rect138"/>
  <path d="m6.3535 2c-1.3035 0-2.3535 1.05-2.3535 2.3535v15.293c0 1.3035 1.05 2.3535 2.3535 2.3535h11.293c1.3035 0 2.3535-1.05 2.3535-2.3535v-15.293c0-1.3035-1.05-2.3535-2.3535-2.3535zm1.0645 3h9.1641a1 1 0 0 1 0.14258 0.00977 1 1 0 0 1 0.13867 0.03125 1 1 0 0 1 0.13477 0.048828 1 1 0 0 1 0.125 0.068359 1 1 0 0 1 0.11328 0.085938 1 1 0 0 1 0.10156 0.10156 1 1 0 0 1 0.08594 0.11328 1 1 0 0 1 0.06836 0.125 1 1 0 0 1 0.04883 0.13477 1 1 0 0 1 0.03125 0.13867 1 1 0 0 1 0.0098 0.14258 1 1 0 0 1-0.07617 0.38281 1 1 0 0 1-0.2168 0.32422 1 1 0 0 1-0.32422 0.2168 1 1 0 0 1-0.38281 0.076172h-9.1641a1 1 0 0 1-0.38281-0.076172 1 1 0 0 1-0.32422-0.2168 1 1 0 0 1-0.2168-0.32422 1 1 0 0 1-0.076172-0.38281 1 1 0 0 1 0.076172-0.38281 1 1 0 0 1 0.2168-0.32422 1 1 0 0 1 0.32422-0.2168 1 1 0 0 1 0.38281-0.076172zm-0.068359 4h9.3008a1 1 0 0 1 0.14258 0.00977 1 1 0 0 1 0.13867 0.03125 1 1 0 0 1 0.13476 0.048828 1 1 0 0 1 0.125 0.068359 1 1 0 0 1 0.11328 0.085938 1 1 0 0 1 0.10156 0.10156 1 1 0 0 1 0.08594 0.11328 1 1 0 0 1 0.06836 0.125 1 1 0 0 1 0.04883 0.13477 1 1 0 0 1 0.03125 0.13867 1 1 0 0 1 0.0098 0.14258 1 1 0 0 1-0.07617 0.38281 1 1 0 0 1-0.2168 0.32422 1 1 0 0 1-0.32422 0.2168 1 1 0 0 1-0.38281 0.07617h-9.3008a1 1 0 0 1-0.38281-0.076174 1 1 0 0 1-0.32422-0.2168 1 1 0 0 1-0.2168-0.32422 1 1 0 0 1-0.076172-0.38281 1 1 0 0 1 0.076172-0.38281 1 1 0 0 1 0.2168-0.32422 1 1 0 0 1 0.32422-0.2168 1 1 0 0 1 0.38281-0.076172zm0 4h9.3008a1 1 0 0 1 0.14258 0.0098 1 1 0 0 1 0.13867 0.03125 1 1 0 0 1 0.13476 0.04883 1 1 0 0 1 0.125 0.06836 1 1 0 0 1 0.11328 0.08594 1 1 0 0 1 0.10156 0.10156 1 1 0 0 1 0.08594 0.11328 1 1 0 0 1 0.06836 0.125 1 1 0 0 1 0.04883 0.13477 1 1 0 0 1 0.03125 0.13867 1 1 0 0 1 0.0098 0.14258 1 1 0 0 1-0.07617 0.38281 1 1 0 0 1-0.2168 0.32422 1 1 0 0 1-0.32422 0.2168 1 1 0 0 1-0.38281 0.07617h-9.3008a1 1 0 0 1-0.38281-0.07617 1 1 0 0 1-0.32422-0.2168 1 1 0 0 1-0.2168-0.32422 1 1 0 0 1-0.076172-0.38281 1 1 0 0 1 0.076172-0.38281 1 1 0 0 1 0.2168-0.32422 1 1 0 0 1 0.32422-0.2168 1 1 0 0 1 0.38281-0.07617zm0 4h9.3008a1 1 0 0 1 0.14258 0.0098 1 1 0 0 1 0.13867 0.03125 1 1 0 0 1 0.13476 0.04883 1 1 0 0 1 0.125 0.06836 1 1 0 0 1 0.11328 0.08594 1 1 0 0 1 0.10156 0.10156 1 1 0 0 1 0.08594 0.11328 1 1 0 0 1 0.06836 0.125 1 1 0 0 1 0.04883 0.13477 1 1 0 0 1 0.03125 0.13867 1 1 0 0 1 0.0098 0.14258 1 1 0 0 1-0.07617 0.38281 1 1 0 0 1-0.2168 0.32422 1 1 0 0 1-0.32422 0.2168 1 1 0 0 1-0.38281 0.07617h-9.3008a1 1 0 0 1-0.38281-0.07617 1 1 0 0 1-0.32422-0.2168 1 1 0 0 1-0.2168-0.32422 1 1 0 0 1-0.076172-0.38281 1 1 0 0 1 0.076172-0.38281 1 1 0 0 1 0.2168-0.32422 1 1 0 0 1 0.32422-0.2168 1 1 0 0 1 0.38281-0.07617z" fill="#0071bc" fill-rule="evenodd" stop-color="#000000" stroke-linecap="round" stroke-width="2" style="paint-order:markers stroke fill" id="path140"/>
  <path d="M 1.0682146,12.722691 9.2263999,22.024614 22.931788,4.872602 19.124139,1.9753877 9.1401339,17.267114 2.7138992,10.52691 Z" fill="#333333" stroke="#333333" stroke-linecap="round" stroke-linejoin="round" stroke-width="0.386409" id="path142"/>
</svg>
