<?xml version="1.0" encoding="UTF-8" standalone="no"?>
<svg
   xmlns:dc="http://purl.org/dc/elements/1.1/"
   xmlns:cc="http://creativecommons.org/ns#"
   xmlns:rdf="http://www.w3.org/1999/02/22-rdf-syntax-ns#"
   xmlns:svg="http://www.w3.org/2000/svg"
   xmlns="http://www.w3.org/2000/svg"
   xmlns:sodipodi="http://sodipodi.sourceforge.net/DTD/sodipodi-0.dtd"
   xmlns:inkscape="http://www.inkscape.org/namespaces/inkscape"
   version="1.1"
   viewBox="0 0 16 16"
   id="svg2"
   inkscape:version="0.91 r13725"
   sodipodi:docname="split_node.svg">
  <sodipodi:namedview
     pagecolor="#ffffff"
     bordercolor="#666666"
     borderopacity="1"
     objecttolerance="10"
     gridtolerance="10"
     guidetolerance="10"
     inkscape:pageopacity="0"
     inkscape:pageshadow="2"
     inkscape:window-width="1076"
     inkscape:window-height="480"
     id="namedview45"
     showgrid="false"
     inkscape:zoom="14.75"
     inkscape:cx="-1.4576271"
     inkscape:cy="8"
     inkscape:window-x="548"
     inkscape:window-y="261"
     inkscape:window-maximized="0"
     inkscape:current-layer="svg2" />
  <defs
     id="defs4">
    <linearGradient
       id="a"
       y2="677.01"
       gradientUnits="userSpaceOnUse"
       x2="158.14"
       gradientTransform="matrix(0.34993447,0.09735302,-0.14019114,0.50393686,48.803924,-350.27131)"
       y1="673.53"
       x1="150.2">
      <stop
         stop-color="#f00"
         offset="0"
         id="stop7" />
      <stop
         stop-color="#fffe21"
         offset="1"
         id="stop9" />
    </linearGradient>
  </defs>
  <metadata
     id="metadata11">
    <rdf:RDF>
      <cc:Work
         rdf:about="">
        <dc:format>image/svg+xml</dc:format>
        <dc:type
           rdf:resource="http://purl.org/dc/dcmitype/StillImage" />
        <dc:title />
      </cc:Work>
    </rdf:RDF>
  </metadata>
  <g
     id="g4466">
    <rect
       style="color:#000000;opacity:0.92510998;fill:none"
       rx="0.070384003"
       ry="0.092563003"
       height="16"
       width="16"
       y="-0.0017829102"
       x="-0.0091969483"
       id="rect19" />
    <rect
       height="5.8220901"
       rx="1.3487644"
       ry="1.2839336"
       width="11.927924"
       y="9.7771845"
       x="3.7208376"
       id="rect25"
       style="fill:#ffffff;fill-rule:evenodd;stroke:#000080;stroke-width:0.67568988;stroke-linejoin:round" />
    <g
       id="text27"
       style="font-style:italic;font-size:4.04566288px;fill:#000000">
      <path
         id="path4458"
         style=""
         d="m 7.1607168,14.115944 -0.4661994,0 -0.8039965,-2.631261 -0.6084298,2.631261 -0.3694037,0 0.6795449,-2.941402 0.5886755,0 0.7348568,2.402112 0.5550934,-2.402112 0.3694038,0 -0.679545,2.941402 z" />
      <path
         id="path4460"
         style=""
         d="m 10.08039,12.68969 q 0,0.296313 -0.09087,0.568921 -0.090869,0.272608 -0.2568048,0.474101 -0.1718616,0.209395 -0.3970597,0.32792 -0.225198,0.11655 -0.525462,0.11655 -0.3931089,0 -0.6143561,-0.223223 -0.2192717,-0.225198 -0.2192717,-0.620282 0,-0.296313 0.088894,-0.56497 0.090869,-0.268658 0.2607556,-0.478052 0.16396,-0.201493 0.4010106,-0.321994 0.2390259,-0.120501 0.5215112,-0.120501 0.3812563,0 0.6064543,0.217297 0.2251985,0.217296 0.2251985,0.624233 z m -0.6044794,0.833628 q 0.1066728,-0.158034 0.1619846,-0.365453 0.057287,-0.20742 0.057287,-0.438544 0,-0.276559 -0.1323532,-0.418789 -0.1323532,-0.142231 -0.3733547,-0.142231 -0.1916158,0 -0.3437233,0.09285 -0.1521074,0.09087 -0.262731,0.250879 -0.1066728,0.156058 -0.16396,0.365453 -0.057287,0.209394 -0.057287,0.434592 0,0.272608 0.1323532,0.41879 0.1323533,0.146181 0.3753301,0.146181 0.1896404,0 0.3437233,-0.09087 0.1540829,-0.09087 0.262731,-0.252853 z" />
      <path
         id="path4462"
         style=""
         d="m 12.869684,11.042188 -0.711151,3.073756 -0.37138,0 0.05334,-0.231124 q -0.250879,0.171861 -0.404962,0.231124 -0.152107,0.06124 -0.33187,0.06124 -0.312117,0 -0.495831,-0.197542 -0.181739,-0.197542 -0.181739,-0.574848 0,-0.318043 0.09877,-0.600528 0.09877,-0.284461 0.268657,-0.497806 0.167911,-0.21137 0.39706,-0.333846 0.229149,-0.124452 0.485954,-0.124452 0.175812,0 0.323969,0.03753 0.148156,0.03753 0.276559,0.112599 l 0.221247,-0.956104 0.371379,0 z m -0.663741,1.26427 q -0.132354,-0.06914 -0.260756,-0.100747 -0.126427,-0.03358 -0.270633,-0.03358 -0.205443,0 -0.367428,0.09877 -0.160009,0.09877 -0.274584,0.270633 -0.104697,0.156058 -0.161984,0.37533 -0.05531,0.219272 -0.05531,0.424716 0,0.241001 0.102722,0.369404 0.104697,0.126427 0.337797,0.126427 0.165935,0 0.337797,-0.08297 0.173837,-0.08297 0.320018,-0.181739 l 0.292363,-1.266245 z" />
      <path
         id="path4464"
         style=""
         d="m 14.675219,12.772657 q 0.0099,-0.05729 0.01383,-0.0968 0.004,-0.03951 0.004,-0.08692 0,-0.21137 -0.11655,-0.329895 -0.114574,-0.118525 -0.369404,-0.118525 -0.280509,0 -0.497806,0.173837 -0.217296,0.173837 -0.294338,0.458297 l 1.260319,0 z m -0.742758,1.394648 q -0.458298,0 -0.719054,-0.215321 -0.260755,-0.215321 -0.260755,-0.630159 0,-0.606455 0.383232,-1.039072 0.383231,-0.434593 0.948202,-0.434593 0.37533,0 0.574847,0.187665 0.199518,0.18569 0.199518,0.523487 0,0.05926 -0.01778,0.187665 -0.0158,0.128402 -0.05334,0.298289 l -1.625772,0 q -0.01185,0.05729 -0.01778,0.112599 -0.004,0.05531 -0.004,0.102721 0,0.278535 0.169887,0.438544 0.169886,0.158034 0.482002,0.158034 0.217297,0 0.446446,-0.08494 0.231124,-0.08494 0.387182,-0.191616 l 0.02173,0 -0.08099,0.40101 q -0.09877,0.03556 -0.177788,0.06519 -0.07902,0.02963 -0.201493,0.05926 -0.122476,0.02963 -0.217297,0.04543 -0.09482,0.0158 -0.23705,0.0158 z" />
    </g>
    <rect
       height="5.8220901"
       rx="1.3487644"
       ry="1.2839336"
       width="11.927924"
       y="1.1886749"
       x="0.32446751"
       id="rect35"
       style="fill:#ffffff;fill-rule:evenodd;stroke:#000080;stroke-width:0.67568988;stroke-linejoin:round" />
    <g
       id="text37"
       style="font-style:italic;font-size:4.04566288px;fill:#000000">
      <path
         id="path4449"
         style=""
         d="m 3.7643468,5.5274343 -0.4661995,0 -0.8039964,-2.6312612 -0.6084298,2.6312612 -0.3694038,0 0.6795449,-2.9414023 0.5886756,0 0.7348567,2.4021123 0.5550934,-2.4021123 0.3694038,0 -0.6795449,2.9414023 z" />
      <path
         id="path4451"
         style=""
         d="m 6.6840195,4.1011802 q 0,0.2963131 -0.090869,0.5689213 -0.090869,0.2726081 -0.2568047,0.4741011 -0.1718617,0.2093947 -0.3970597,0.32792 -0.2251981,0.1165498 -0.5254621,0.1165498 -0.3931088,0 -0.614356,-0.2232226 -0.2192718,-0.225198 -0.2192718,-0.6202823 0,-0.2963132 0.088894,-0.5649705 0.090869,-0.2686573 0.2607556,-0.478052 0.1639599,-0.2014929 0.4010105,-0.3219936 0.239026,-0.1205007 0.5215112,-0.1205007 0.3812564,0 0.6064544,0.2172963 0.225198,0.2172964 0.225198,0.6242332 z M 6.0795406,4.934808 q 0.1066727,-0.1580338 0.1619845,-0.365453 0.057287,-0.2074192 0.057287,-0.4385435 0,-0.276559 -0.1323533,-0.4187894 -0.1323532,-0.1422303 -0.3733546,-0.1422303 -0.1916159,0 -0.3437233,0.092845 Q 5.2972737,3.753506 5.1866501,3.9135151 5.0799774,4.0695734 5.0226902,4.2789681 4.965403,4.4883627 4.965403,4.7135608 q 0,0.2726081 0.1323532,0.4187893 0.1323532,0.1461812 0.37533,0.1461812 0.1896405,0 0.3437234,-0.090869 0.1540828,-0.090869 0.262731,-0.2528539 z" />
      <path
         id="path4453"
         style=""
         d="m 9.4733142,2.4536788 -0.7111517,3.0737555 -0.3713792,0 0.053336,-0.2311242 Q 8.1932412,5.4681717 8.0391583,5.5274343 7.8870509,5.5886724 7.7072876,5.5886724 7.395171,5.5886724 7.2114568,5.3911303 7.029718,5.1935881 7.029718,4.8162827 q 0,-0.3180429 0.098771,-0.6005281 Q 7.2272602,3.9312939 7.3971464,3.7179484 7.5650572,3.5065783 7.7942061,3.3841022 8.023355,3.2596507 8.2801597,3.2596507 q 0.1758125,0 0.3239691,0.037533 0.1481566,0.037533 0.276559,0.112599 l 0.2212472,-0.9561039 0.3713792,0 z M 8.8095727,3.7179484 Q 8.6772194,3.6488087 8.548817,3.6172019 8.4223901,3.5836198 8.2781843,3.5836198 q -0.2054438,0 -0.3674283,0.098771 -0.1600092,0.098771 -0.2745836,0.2706328 -0.1046973,0.1560582 -0.1619846,0.37533 -0.055312,0.2192718 -0.055312,0.4247156 0,0.2410014 0.102722,0.3694038 0.1046973,0.1264269 0.337797,0.1264269 0.1659354,0 0.337797,-0.082968 0.1738371,-0.082968 0.3200183,-0.1817387 L 8.8095727,3.7179484 Z" />
      <path
         id="path4455"
         style=""
         d="m 11.278849,4.1841478 q 0.0099,-0.057287 0.01383,-0.096796 0.004,-0.039508 0.004,-0.086918 0,-0.2113701 -0.11655,-0.3298954 -0.114574,-0.1185253 -0.369404,-0.1185253 -0.280509,0 -0.497806,0.1738371 -0.217296,0.1738371 -0.294338,0.4582977 l 1.260319,0 z m -0.742758,1.3946475 q -0.458298,0 -0.7190536,-0.2153209 Q 9.5562818,5.1481535 9.5562818,4.733315 q 0,-0.6064544 0.3832318,-1.0390716 0.3832314,-0.4345927 0.9482024,-0.4345927 0.37533,0 0.574847,0.187665 0.199518,0.1856896 0.199518,0.5234866 0,0.059263 -0.01778,0.1876651 -0.0158,0.1284024 -0.05334,0.2982886 l -1.625772,0 q -0.011852,0.057287 -0.017779,0.112599 -0.00395,0.055312 -0.00395,0.1027219 0,0.2785344 0.1698866,0.4385435 0.169886,0.1580338 0.482002,0.1580338 0.217297,0 0.446446,-0.084943 0.231124,-0.084943 0.387182,-0.1916158 l 0.02173,0 -0.08099,0.4010105 q -0.09877,0.035558 -0.177788,0.065189 -0.07902,0.029631 -0.201493,0.059263 -0.122476,0.029631 -0.217297,0.045435 -0.09482,0.015803 -0.23705,0.015803 z" />
    </g>
    <path
       inkscape:connector-curvature="0"
       style="fill:url(#a);fill-rule:evenodd;stroke:#b40000;stroke-width:0.66316205;stroke-linecap:round;stroke-linejoin:round"
       id="path43"
       d="M 11.316221,1.171949 8.9156575,5.7953972 10.880887,5.2632364 3.5117518,14.297425 7.9040276,5.1031777 6.0529602,5.5453174 9.0962906,0.42249037" />
  </g>
</svg>
