<?xml version="1.0"?>
<svg xmlns="http://www.w3.org/2000/svg" viewBox="0 0 24 24"><g id="Layer_2" data-name="Layer 2"><path d="M9.39,7.72c0-1.27,1.07-2,2.71-2a5.57,5.57,0,0,1,3.77,1.49l1.59-2A7.65,7.65,0,0,0,12.1,3C8.72,3,6.27,5.13,6.27,7.9a4.46,4.46,0,0,0,.5,2.1h5C10.47,9.48,9.39,9,9.39,7.72Zm5.1,3.44L14.11,11H7.5a6.6,6.6,0,0,0,2.28,1.5l1.16.5h6.17A6.15,6.15,0,0,0,14.49,11.16ZM17.68,14H13.23c1,.48,1.63,1,1.63,2.08,0,1.36-1.08,2.24-3,2.24a6.83,6.83,0,0,1-4.53-2L5.51,18.46A9,9,0,0,0,11.77,21C15.66,21,18,18.65,18,15.84A5,5,0,0,0,17.68,14Z" style="fill:#333"/><rect x="4" y="11" width="16" height="2" style="fill:#333"/></g></svg>
