<?xml version="1.0"?>
<svg xmlns="http://www.w3.org/2000/svg" id="Layer_2" data-name="Layer 2" viewBox="0 0 24 24"><polygon points="21.19 4.91 20.78 5.45 19 7.79 12.21 16.7 6 11.12 8 8.88 11.79 12.3 17.35 5.01 18.67 3.27 18.81 3.09 21.19 4.91" style="fill:#0071bc"/><path d="M21,8.46v8.82A3.71,3.71,0,0,1,17.28,21H6.72A3.71,3.71,0,0,1,3,17.28V6.72A3.71,3.71,0,0,1,6.72,3h9.65L14.84,5H6.72A1.72,1.72,0,0,0,5,6.72V17.28A1.72,1.72,0,0,0,6.72,19H17.28A1.72,1.72,0,0,0,19,17.28V11.09Z" style="fill:#333"/></svg>
