<?xml version="1.0"?>
<svg xmlns="http://www.w3.org/2000/svg" id="Layer_2" data-name="Layer 2" viewBox="0 0 24 24"><rect x="4" y="19" width="16" height="3" style="fill:#333"/><path d="M12,18a8.64,8.64,0,0,1-3.4-.61,4.9,4.9,0,0,1-2.25-1.81,5.17,5.17,0,0,1-.79-2.9V5L4,5V3h6.79V5H9.22v7.67a3,3,0,0,0,.32,1.48,1.92,1.92,0,0,0,.94.86,3.57,3.57,0,0,0,1.51.29A3.66,3.66,0,0,0,13.52,15a1.92,1.92,0,0,0,.94-.86,3.09,3.09,0,0,0,.32-1.48V5L13.21,5V3H20V5H18.43v7.67a5,5,0,0,1-.81,2.88,5.19,5.19,0,0,1-2.26,1.82A8.5,8.5,0,0,1,12,18Z" style="fill:#333"/></svg>
