<?xml version="1.0" encoding="iso-8859-1"?>
<!-- Uploaded to: SVG Repo, www.svgrepo.com, Generator: SVG Repo Mixer Tools -->
<svg height="800px" width="800px" version="1.1" id="Capa_1" xmlns="http://www.w3.org/2000/svg" xmlns:xlink="http://www.w3.org/1999/xlink" 
	 viewBox="0 0 32 32" xml:space="preserve">
<g>
	<g id="spin">
		<g>
			<path style="fill:#333333;" d="M25.883,6.086l-2.82,2.832C24.953,10.809,26,13.324,26,16c0,5.516-4.484,10-10,10v-2l-4,4l4,4v-2
				c7.719,0,14-6.281,14-14C30,12.254,28.539,8.734,25.883,6.086z"/>
			<path style="fill:#333333;" d="M20,4l-4-4v2C8.281,2,2,8.281,2,16c0,3.746,1.461,7.266,4.117,9.914l2.82-2.832
				C7.047,21.191,6,18.676,6,16c0-5.516,4.484-10,10-10v2L20,4z"/>
		</g>
	</g>
</g>
</svg>