<?xml version="1.0" encoding="UTF-8"?>
<svg width="100px" height="100px" viewBox="0 0 100 100" version="1.1" xmlns="http://www.w3.org/2000/svg" xmlns:xlink="http://www.w3.org/1999/xlink">
    <!-- Generator: sketchtool 63.1 (101010) - https://sketch.com -->
    <title>code/file_code_C++_cpp</title>
    <desc>Created with sketchtool.</desc>
    <g id="Icons" stroke="none" stroke-width="1" fill="none" fill-rule="evenodd">
        <g id="code/file_code_C++_cpp" fill-rule="nonzero">
            <g id="ISO_C++_Logo" transform="translate(6.909091, 0.000000)">
                <path d="M87.5029293,75 C88.2019727,73.7922102 88.6363636,72.4313776 88.6363636,71.209358 L88.6363636,28.7903516 C88.6363636,27.568332 88.202555,26.2077898 87.5032204,25 L44.0909091,50 L87.5029293,75 Z" id="Path" fill="#00599C"></path>
                <path d="M48.3826928,99.0834853 L85.0174585,77.8741273 C86.0727714,77.2631175 87.0319362,76.2080802 87.7272727,75 L44.5454545,50 L1.36363636,75.0002904 C2.0589729,76.2080802 3.01842728,77.2634079 4.07345061,77.8741273 L40.7082162,99.0834853 C42.8185525,100.305505 46.2723566,100.305505 48.3826928,99.0834853 Z" id="Path" fill="#004482"></path>
                <path d="M87.7272727,24.9999032 C87.0297708,23.7918277 86.0677292,22.7367944 85.009861,22.125787 L48.2763088,0.91651114 C46.1602819,-0.305503713 42.6971646,-0.305503713 40.5811378,0.91651114 L3.84758551,22.125787 C1.73126829,23.3475114 0,26.3467912 0,28.7905305 L0,71.2093727 C0,72.4313875 0.432962264,73.7922149 1.13046418,75 L44.4287233,50.0000968 L87.7272727,24.9999032 Z" id="Path" fill="#659AD2"></path>
                <path d="M44.2635482,79.5454545 C27.8769331,79.5454545 14.5454545,66.2914216 14.5454545,50 C14.5454545,33.7085784 27.8769331,20.4545455 44.2635482,20.4545455 C54.8373625,20.4545455 64.6988165,26.111631 69.9991259,35.2180036 L57.1378925,42.6171123 C54.4851156,38.0590018 49.5516207,35.2272727 44.2635482,35.2272727 C36.070095,35.2272727 29.4045014,41.8541444 29.4045014,50 C29.4045014,58.145566 36.070095,64.7727273 44.2635482,64.7727273 C49.5522034,64.7727273 54.4856983,61.9409982 57.1387666,57.3820187 L70,64.7808378 C64.6996906,73.8880793 54.8379452,79.5454545 44.2635482,79.5454545 Z" id="Path" fill="#FFFFFF"></path>
                <polygon id="Path" fill="#FFFFFF" points="73.6363636 48.3332353 70.3028342 48.3332353 70.3028342 45 66.969893 45 66.969893 48.3332353 63.6363636 48.3332353 63.6363636 51.6664706 66.969893 51.6664706 66.969893 55 70.3028342 55 70.3028342 51.6664706 73.6363636 51.6664706"></polygon>
                <polygon id="Path" fill="#FFFFFF" points="86.3636364 48.3332353 83.030107 48.3332353 83.030107 45 79.6971658 45 79.6971658 48.3332353 76.3636364 48.3332353 76.3636364 51.6664706 79.6971658 51.6664706 79.6971658 55 83.030107 55 83.030107 51.6664706 86.3636364 51.6664706"></polygon>
            </g>
        </g>
    </g>
</svg>