<?xml version="1.0" encoding="UTF-8"?>
<svg width="100px" height="100px" viewBox="0 0 100 100" version="1.1" xmlns="http://www.w3.org/2000/svg" xmlns:xlink="http://www.w3.org/1999/xlink">
    <!-- Generator: sketchtool 63.1 (101010) - https://sketch.com -->
    <title>code/file_Shell</title>
    <desc>Created with sketchtool.</desc>
    <g id="Icons" stroke="none" stroke-width="1" fill="none" fill-rule="evenodd">
        <g id="code/file_Shell">
            <g id="Group-2">
                <rect id="Rectangle" stroke="#C8C8C8" stroke-width="3.33333333" fill="#121212" x="1.66666667" y="1.66666667" width="96.6666667" height="96.6666667" rx="10"></rect>
                <g id="Group" transform="translate(10.000000, 17.777778)" fill="#00E903">
                    <path d="M6.62962393,10.8791818 L31.9241887,10.913038 C35.5991182,10.9179568 38.5770102,13.8958511 38.5819262,17.5707806 L38.5819404,17.5813901 C38.5868473,21.2494746 35.617255,24.2270224 31.9491704,24.2319293 C31.9432457,24.2319372 31.9373209,24.2319372 31.9313961,24.2319293 L6.63683136,24.1980731 C2.96190184,24.1931543 -0.0159901654,21.21526 -0.0209061727,17.5403305 L-0.0209203652,17.5297211 C-0.0258272159,13.8616365 2.94376505,10.8840887 6.61184959,10.8791818 C6.61777437,10.8791739 6.62369915,10.8791739 6.62962393,10.8791818 Z" id="Rectangle" transform="translate(19.280510, 17.555556) rotate(39.000000) translate(-19.280510, -17.555556) "></path>
                    <path d="M6.62962393,26.9538744 L31.9241887,26.9877305 C35.5991182,26.9926493 38.5770102,29.9705436 38.5819262,33.6454731 L38.5819404,33.6560826 C38.5868473,37.3241672 35.617255,40.301715 31.9491704,40.3066218 C31.9432457,40.3066298 31.9373209,40.3066298 31.9313961,40.3066218 L6.63683136,40.2727657 C2.96190184,40.2678469 -0.0159901654,37.2899526 -0.0209061727,33.6150231 L-0.0209203652,33.6044136 C-0.0258272159,29.9363291 2.94376505,26.9587812 6.61184959,26.9538744 C6.61777437,26.9538664 6.62369915,26.9538664 6.62962393,26.9538744 Z" id="Rectangle-Copy" transform="translate(19.280510, 33.630248) scale(1, -1) rotate(39.000000) translate(-19.280510, -33.630248) "></path>
                    <rect id="Rectangle-Copy-2" transform="translate(60.926979, 57.840022) scale(1, -1) translate(-60.926979, -57.840022) " x="41.4825345" y="51.1733549" width="38.8888889" height="13.3333333" rx="6.66666667"></rect>
                </g>
            </g>
        </g>
    </g>
</svg>