<?xml version="1.0" encoding="UTF-8"?>
<svg width="100px" height="100px" viewBox="0 0 100 100" version="1.1" xmlns="http://www.w3.org/2000/svg" xmlns:xlink="http://www.w3.org/1999/xlink">
    <!-- Generator: sketchtool 63.1 (101010) - https://sketch.com -->
    <title>code/file_code_Python</title>
    <desc>Created with sketchtool.</desc>
    <defs>
        <linearGradient x1="13.1240191%" y1="11.6996305%" x2="79.5070766%" y2="78.4532626%" id="linearGradient-1">
            <stop stop-color="#387EB8" offset="0%"></stop>
            <stop stop-color="#366994" offset="100%"></stop>
        </linearGradient>
        <linearGradient x1="19.2647686%" y1="20.315846%" x2="90.5604163%" y2="88.7730019%" id="linearGradient-2">
            <stop stop-color="#FFE052" offset="0%"></stop>
            <stop stop-color="#FFC331" offset="100%"></stop>
        </linearGradient>
    </defs>
    <g id="Icons" stroke="none" stroke-width="1" fill="none" fill-rule="evenodd">
        <g id="code/file_code_Python" fill-rule="nonzero">
            <g id="Python" transform="translate(0.000000, 0.454545)">
                <path d="M49.3806306,0 C24.126818,0 25.7038288,10.9515766 25.7038288,10.9515766 L25.731982,22.2972973 L49.8310811,22.2972973 L49.8310811,25.7038288 L16.1599099,25.7038288 C16.1599099,25.7038288 0,23.8711477 0,49.3524775 C0,74.8338018 14.1047297,73.9301802 14.1047297,73.9301802 L22.5225225,73.9301802 L22.5225225,62.1058559 C22.5225225,62.1058559 22.068782,48.0011261 36.402027,48.0011261 C50.7352703,48.0011261 60.3040541,48.0011261 60.3040541,48.0011261 C60.3040541,48.0011261 73.7331081,48.2182072 73.7331081,35.0225225 C73.7331081,21.8268414 73.7331081,13.2038288 73.7331081,13.2038288 C73.7331081,13.203827 75.772009,0 49.3806306,0 Z M36.0923423,7.6295045 C38.4900261,7.6295045 40.4279279,9.56740631 40.4279279,11.9650901 C40.4279279,14.3627739 38.4900261,16.3006757 36.0923423,16.3006757 C33.6946586,16.3006757 31.7567568,14.3627739 31.7567568,11.9650901 C31.7567568,9.56740631 33.6946586,7.6295045 36.0923423,7.6295045 Z" id="path8615" fill="url(#linearGradient-1)"></path>
                <path d="M50.0978378,98.9604505 C75.3516577,98.9604505 73.7746396,88.0088739 73.7746396,88.0088739 L73.7464865,76.6631532 L49.6473874,76.6631532 L49.6473874,73.2566216 L83.3185586,73.2566216 C83.3185586,73.2566216 99.4784685,75.0892973 99.4784685,49.607964 C99.4784685,24.1266423 85.3737387,25.030264 85.3737387,25.030264 L76.9559459,25.030264 L76.9559459,36.8545856 C76.9559459,36.8545856 77.4096937,50.9593153 63.0764414,50.9593153 C48.7431964,50.9593153 39.1744126,50.9593153 39.1744126,50.9593153 C39.1744126,50.9593153 25.7453586,50.7422342 25.7453586,63.9379279 C25.7453586,77.1336036 25.7453586,85.7566216 25.7453586,85.7566216 C25.7453586,85.7566216 23.7064577,98.9604505 50.0978378,98.9604505 Z M63.3861261,91.3309459 C60.9884414,91.3309459 59.0505405,89.393045 59.0505405,86.9953604 C59.0505405,84.5976757 60.9884414,82.6597748 63.3861261,82.6597748 C65.7838108,82.6597748 67.7217117,84.5976757 67.7217117,86.9953604 C67.7217117,89.393045 65.7838108,91.3309459 63.3861261,91.3309459 Z" id="path8620" fill="url(#linearGradient-2)"></path>
            </g>
        </g>
    </g>
</svg>