<?xml version="1.0" encoding="UTF-8"?>
<svg width="100px" height="100px" viewBox="0 0 100 100" version="1.1" xmlns="http://www.w3.org/2000/svg" xmlns:xlink="http://www.w3.org/1999/xlink">
    <!-- Generator: sketchtool 63.1 (101010) - https://sketch.com -->
    <title>code/file_AppleScript</title>
    <desc>Created with sketchtool.</desc>
    <g id="Icons" stroke="none" stroke-width="1" fill="none" fill-rule="evenodd">
        <g id="code/file_AppleScript" fill-rule="nonzero">
            <g id="applescript" transform="translate(13.636364, 0.000000)">
                <path d="M70.9681237,60.5240479 L70.4323199,59.6053194 L69.6016931,58.1818182 L26.4534323,82.8335027 L27.2840592,84.2571959 C30.0353529,88.9736236 28.4026211,95.0038235 23.6363636,97.7272727 L32.265977,92.796955 L40.8956873,87.8666373 L66.8352653,73.046692 C71.287103,70.5028604 73.0044303,65.0727621 70.9681237,60.5240479 L70.9681237,60.5240479 Z" id="blue" fill="#009DDC"></path>
                <polygon id="purple" fill="#963D97" points="63.7170107 48.1818182 69.5454545 58.2553564 26.282892 83.1818182 20.4545455 73.1084741"></polygon>
                <polygon id="red" fill="#E03A3E" points="57.8080402 37.2727273 63.6363636 47.3462655 20.373778 72.2727273 14.5454545 62.1991891"></polygon>
                <polygon id="orange" fill="#F5821F" points="52.3535804 27.7272727 58.1818182 37.8011301 14.9191468 62.7272727 9.09090909 52.6537066"></polygon>
                <path d="M5.95536312,27.2439107 C1.12986551,29.9916231 -0.523423359,36.0770059 2.2621798,40.8363878 L3.10316479,42.2727273 L20.4545455,32.3924325 C20.2580995,31.871642 20.0181408,31.3676105 19.7365356,30.8862474 C16.9511289,26.1266717 10.7806643,24.4961015 5.95536312,27.2439107 Z" id="green" fill="#61BB46"></path>
                <path d="M20.3649592,32.4821768 L3.18181818,42.5170123 L9.00997996,52.7272727 L52.2727273,27.4626437 L50.6075521,24.5454545 L15.9974126,44.7572955 C20.2843219,42.2534322 22.0405424,37.0220709 20.3649592,32.4821768 L20.3649592,32.4821768 Z" id="yellow" fill="#FDB827"></path>
                <path d="M63.1965492,6.31044092 C60.4192169,1.57990533 54.2682559,-0.0407821306 49.4578362,2.6903728 L40.7481851,7.63524122 L5.90909091,27.4154852 C10.7193148,24.6843303 16.8702758,26.3050177 19.6472163,31.0355533 C19.9276422,31.5141915 20.1669442,32.0147828 20.3629681,32.5324169 L20.3629681,32.5325131 C22.0493419,36.9754422 20.2818953,42.0948773 15.9663332,44.5454545 L50.8053295,24.7654031 L50.8563427,24.7366136 L59.5151765,19.8204384 C64.3254003,17.0892835 65.9734897,11.0407839 63.1965492,6.31044092 Z" id="backside-top" fill="#FFFFFF"></path>
                <path d="M27.2646472,84.2719121 L22.1520823,75.4545455 L13.2965086,80.5451362 C8.40554961,83.3567219 6.72986676,89.5832468 9.55330077,94.4530936 C12.3770334,99.3228413 18.6309781,100.991059 23.5218376,98.1798695 C28.4127966,95.368383 30.0883799,89.1418581 27.2646472,84.2719121 L27.2646472,84.2719121 Z" id="backside-bottom" fill="#FFFFFF"></path>
                <path d="M71.8032067,59.8313084 L70.7401486,57.9866777 L70.7418104,57.9857012 L64.8848733,47.8514139 L59.0278385,37.7167361 L58.5657626,36.916247 L58.3307656,36.5099966 L52.4735353,26.3752211 L51.4974769,24.6862546 L59.5888399,20.0191602 C62.0725347,18.5864439 63.8498702,16.2730628 64.5920069,13.5053843 C65.3346325,10.7376081 64.9534956,7.84688266 63.5193691,5.36533727 C61.6065487,2.05595904 58.039561,0 54.2105967,0 C52.3360953,0 50.4826107,0.497656736 48.8506332,1.43896625 L40.1553554,6.45440083 L40.1550621,6.4538149 L5.374244,26.5154556 L5.374244,26.5155532 L5.37307097,26.5161392 L5.37307097,26.5161392 C2.88966943,27.9484648 1.11282276,30.2616506 0.370685993,33.0294268 C-0.37184178,35.7972029 0.00890409612,38.6880261 1.44322611,41.1694738 L1.9313042,42.0142012 L1.9313042,42.0142012 L8.48599842,53.3554232 L13.6454716,62.2835569 L13.6454716,62.2835569 L19.502702,72.4180395 L21.1757355,75.3135501 L13.0846657,79.9808398 C7.95686429,82.9381669 6.19389847,89.5119038 9.15423431,94.634858 C11.0665659,97.9443339 14.6335536,100 18.4629089,100 L18.4632022,100 C20.3372148,100 22.1907972,99.5025386 23.8227747,98.5613267 C23.8234589,98.5607408 23.8245342,98.5601548 23.8253162,98.5599595 L67.3498974,73.4548569 C72.1143529,70.707198 74.0287373,64.8502586 71.8032067,59.8313084 Z M68.836517,57.4761303 L66.3201729,58.9274013 L26.5671753,81.8562323 L22.3836628,74.6170651 L22.383565,74.6170651 L21.4074089,72.9280986 L61.1606997,49.9992676 L63.6768483,48.547899 L68.836517,57.4761303 Z M49.5479993,2.6455104 C50.968636,1.82627131 52.5803787,1.39326308 54.2105967,1.39326308 C57.542783,1.39326308 60.6469127,3.18213201 62.3114418,6.0621153 C63.5594476,8.22110178 63.8905352,10.7365339 63.2445869,13.1448371 C62.5987363,15.5531402 61.0523899,17.5659351 58.8914738,18.8127137 L20.0150227,41.2356848 C21.2069185,39.2095109 21.7117123,36.8204461 21.3976336,34.4353852 C21.3179653,33.8298182 21.1849242,33.2248371 20.997435,32.6258131 L21.0117069,32.6175123 L20.8079907,32.0715157 C20.8071109,32.0694649 20.8063289,32.0670235 20.8052536,32.065168 C20.8049604,32.0644844 20.8046671,32.0636055 20.8044716,32.0629219 L20.5172749,31.2938782 L20.4894154,31.3099915 C20.3529529,31.0143858 20.2044669,30.7243464 20.0418068,30.4421196 C18.129182,27.1327413 14.5621943,25.07688 10.7331322,25.07688 C10.7073256,25.07688 10.6823009,25.07688 10.6563965,25.0771729 L49.5479993,2.6455104 Z M2.65066464,40.4733794 C1.40295209,38.3140023 1.07166897,35.7984725 1.71742179,33.3901693 C2.36346788,30.9817685 3.90971647,28.9689736 6.07082811,27.7223904 C7.49087826,26.9030536 9.10320752,26.4700454 10.7331322,26.4700454 C11.4621702,26.4700454 12.1800643,26.5555923 12.8743024,26.7195573 C15.3543803,27.3051048 17.5335762,28.8889931 18.8334885,31.1388976 C18.9081714,31.2679993 18.9784554,31.3993471 19.0467844,31.5319644 C19.0671169,31.5721988 19.0869607,31.6131168 19.1070977,31.6536442 C19.1556807,31.7510076 19.2027974,31.8488592 19.247177,31.9477851 C19.2568545,31.9684883 19.2659455,31.9894844 19.2749387,32.0102852 L12.139497,36.1261095 L3.13893823,41.3178138 L2.65066464,40.4733794 Z M3.83640212,42.524065 L10.0556099,38.9368544 L19.7552943,33.3424154 C19.7557831,33.3445638 19.7565651,33.3465169 19.7574449,33.3486654 C19.7717168,33.4010092 19.7838381,33.4535483 19.7972301,33.5060874 C19.8175627,33.5850914 19.8387749,33.6642907 19.8568592,33.7432947 C19.8702512,33.8015955 19.8812973,33.8598963 19.8936141,33.9184902 C19.909059,33.9923184 19.9252859,34.0658536 19.9384825,34.1396818 C19.9498218,34.1999357 19.9587172,34.2601897 19.9687857,34.320346 C19.9807115,34.3924164 19.9928328,34.4643891 20.0029013,34.5364595 C20.0114058,34.59769 20.0185417,34.6591159 20.0258732,34.7204441 C20.0343776,34.7916355 20.0430776,34.862534 20.0497248,34.9335302 C20.0556877,34.9951514 20.0603798,35.0571631 20.0649742,35.118882 C20.0704483,35.1893898 20.0754337,35.2599954 20.079246,35.3305033 C20.0826674,35.392515 20.0848179,35.4544292 20.0868707,35.516148 C20.0893145,35.5863629 20.0911718,35.6562848 20.0918561,35.7264021 C20.0923449,35.7883162 20.0922471,35.850328 20.0917583,35.9120468 C20.0909763,35.9818711 20.0896078,36.051793 20.0876527,36.1216173 C20.0855022,36.1829455 20.0831561,36.2446643 20.0797348,36.3058948 C20.0763135,36.3757191 20.0714258,36.4454457 20.0662449,36.5151724 C20.0616506,36.5762076 20.0569585,36.6369498 20.0509956,36.6979851 C20.0443484,36.7677117 20.036626,36.837243 20.028317,36.906872 C20.0213766,36.9672236 20.0140451,37.0272823 20.0059317,37.0871456 C19.9965474,37.1570675 19.9855014,37.2266965 19.9741621,37.2962278 C19.9646801,37.3552123 19.9553936,37.4144897 19.9448364,37.4732788 C19.9322263,37.543396 19.9178567,37.6134156 19.9034871,37.6834352 C19.8917568,37.7408572 19.880222,37.7986697 19.8672209,37.8558963 C19.8512873,37.9270878 19.8335941,37.9978887 19.8159009,38.0686895 C19.8019223,38.123963 19.7893122,38.1793342 19.7740628,38.2343147 C19.7544146,38.3080452 19.7322248,38.3810922 19.7105237,38.4541391 C19.6955676,38.5057017 19.6812957,38.5572642 19.6653621,38.6083385 C19.6391644,38.6908581 19.6106207,38.7726941 19.5823702,38.8544325 C19.5682939,38.8951552 19.555586,38.9363661 19.5408254,38.9769912 C19.4972278,39.0982804 19.4509909,39.2184953 19.4019192,39.3378314 C19.3882338,39.3713275 19.3728867,39.40414 19.3589081,39.4373432 C19.3221531,39.5236714 19.2856915,39.609609 19.2464927,39.6946677 C19.2248894,39.7422263 19.2010378,39.7890037 19.178848,39.8361717 C19.1453189,39.905996 19.1117898,39.9763086 19.0765989,40.0454493 C19.0503035,40.0960353 19.0232261,40.1459376 18.9962464,40.1960353 C18.9617398,40.2607815 18.9274287,40.32543 18.8915535,40.3893949 C18.8626188,40.4407621 18.8322177,40.4913481 18.80211,40.5421294 C18.7654528,40.6035553 18.7296754,40.6648835 18.6920407,40.7256257 C18.6599779,40.7767976 18.6268398,40.8273836 18.593995,40.8781649 C18.555676,40.9371494 18.5171615,40.9959385 18.477865,41.0539463 C18.4432607,41.10463 18.407581,41.1545324 18.3720969,41.2043371 C18.3316273,41.2611731 18.2910601,41.3177161 18.2494175,41.3735756 C18.2121738,41.4230873 18.1743436,41.4721108 18.1366112,41.521232 C18.0937956,41.5761148 18.0506867,41.6308024 18.0064049,41.684611 C17.9670106,41.7329509 17.9275186,41.7808025 17.8871469,41.8283612 C17.842083,41.8813886 17.7963348,41.9340253 17.7501956,41.9862715 C17.7085531,42.0331465 17.666324,42.0797286 17.624095,42.1258224 C17.576685,42.177092 17.5283953,42.227678 17.479519,42.2781663 C17.4362147,42.3232835 17.3919328,42.3684008 17.3473577,42.4127367 C17.2975039,42.4624438 17.2460861,42.5113696 17.1946683,42.5602955 C17.1493112,42.6033619 17.1038563,42.646526 17.0577171,42.6885183 C17.0045398,42.7370535 16.9502872,42.7843191 16.8955458,42.8315848 C16.8488201,42.8723075 16.8022899,42.9133232 16.7545867,42.9532646 C16.697988,43.0007256 16.6397276,43.0464288 16.5819559,43.0925226 C16.5341549,43.1306085 16.4869405,43.1689875 16.438162,43.2060969 C16.3773599,43.2528743 16.3145051,43.2980892 16.2519435,43.3434017 C16.2042403,43.3780697 16.1574169,43.413226 16.1091272,43.4470151 C16.0403094,43.4952573 15.9697321,43.5413511 15.8992526,43.5877379 C15.8553617,43.6167418 15.8119596,43.6467223 15.7674823,43.675238 C15.6663085,43.7395935 15.5632774,43.80141 15.4590732,43.8624452 C15.4443126,43.8710389 15.429552,43.8806093 15.4146936,43.8893983 L16.111962,45.0958448 L16.111962,45.0958448 L16.111962,45.0958448 L16.111962,45.0958448 L16.112744,45.0953565 L16.1151878,45.0942823 L37.4350018,32.796907 L50.2894518,25.3827396 L51.2654125,27.0719014 L49.5503454,28.0612579 L8.99607082,51.4522963 L3.83640212,42.524065 Z M9.69333919,52.6587428 L50.2477115,29.267802 L51.9626809,28.2784456 L57.1224473,37.2065793 L14.8532034,61.5867789 L9.69333919,52.6587428 Z M20.7100427,71.7217497 L15.5501785,62.7932254 L57.8197157,38.4134164 L62.9794822,47.3415501 L60.463138,48.7927234 L20.7100427,71.7217497 Z M23.1250175,97.3545873 C21.7045764,98.174217 20.0925404,98.6071275 18.4629089,98.6071275 L18.4627134,98.6071275 C15.1303317,98.6071275 12.0262019,96.8180633 10.3616728,93.9382753 C7.78599297,89.4806538 9.32012026,83.7610193 13.7816408,81.1876769 L21.8731016,76.5203872 L23.3984312,79.15955 L26.5446922,84.6042818 C29.1208609,89.0614151 27.5863426,94.7814402 23.1250175,97.3545873 Z M66.6527268,72.2483127 L27.7043298,94.7132761 C27.7476342,94.6404245 27.7883969,94.5656197 27.8296485,94.4915962 C27.8432361,94.4671821 27.8575079,94.4429633 27.8708023,94.4189399 C27.9413796,94.2894475 28.0084377,94.1589787 28.0735409,94.026752 C28.0933846,93.9867129 28.1123486,93.9464785 28.1316059,93.906244 C28.1849787,93.7948182 28.2361033,93.6830993 28.2857615,93.5698179 C28.2980783,93.5415953 28.3111772,93.5135679 28.3233962,93.4853452 C28.3811679,93.3497005 28.4354205,93.2135676 28.4874249,93.0762628 C28.5025765,93.0362237 28.5176304,92.9957939 28.532,92.9553642 C28.573838,92.840911 28.6137211,92.7260671 28.6517468,92.6103443 C28.661913,92.5783131 28.6728613,92.5468677 28.6830276,92.5147388 C28.7276027,92.374309 28.7687565,92.2333909 28.8077597,92.0909102 C28.8181215,92.0516524 28.8280922,92.0122969 28.8386495,91.9722578 C28.8691483,91.8547772 28.897692,91.736906 28.9245739,91.6186442 C28.9322964,91.5839762 28.9408986,91.5494058 28.9479368,91.5147378 C28.9788265,91.3703041 29.0068815,91.2255774 29.0318084,91.0800694 C29.03826,91.0420811 29.0440274,91.0034092 29.0503813,90.9654209 C29.0697363,90.8454012 29.0870385,90.7250886 29.1019946,90.6043854 C29.106589,90.5673736 29.1120632,90.5307525 29.1163643,90.4931548 C29.1335687,90.345889 29.1471563,90.1986232 29.1583978,90.0506739 C29.1614281,90.0142481 29.1628944,89.9780176 29.1652405,89.9413964 C29.1734517,89.819326 29.1792191,89.6966696 29.1826404,89.5738179 C29.184009,89.535439 29.185573,89.4965718 29.1861595,89.4578022 C29.1890921,89.3090716 29.1889943,89.1596574 29.185573,89.0107315 C29.184791,88.976747 29.1828359,88.942665 29.1819562,88.9086806 C29.1781438,88.784364 29.1715944,88.6603405 29.163481,88.536024 C29.1607439,88.4959849 29.1583978,88.4561411 29.1553675,88.4159067 C29.1436372,88.2665901 29.1289743,88.1169806 29.1109879,87.9670781 C29.1071755,87.9366093 29.1025812,87.9064335 29.0987688,87.8760624 C29.0822486,87.749988 29.0636757,87.6239137 29.0424634,87.497644 C29.0357185,87.4568237 29.0290713,87.4160033 29.0222286,87.3749877 C28.9954445,87.2256711 28.9661187,87.0766475 28.9325896,86.9279169 C28.9266267,86.901745 28.9199795,86.8754755 28.9140166,86.8496942 C28.8842999,86.7211784 28.8519438,86.5933463 28.8173395,86.4659048 C28.8062934,86.4246938 28.7954429,86.3836781 28.7837126,86.3426624 C28.7414835,86.1948107 28.6972017,86.0468614 28.6482277,85.8997909 C28.6414828,85.8797714 28.6338581,85.8589706 28.6268199,85.8385604 C28.582929,85.7082868 28.5356168,85.5787945 28.4860563,85.4491069 C28.4706114,85.4082865 28.454971,85.3672709 28.4386464,85.3266458 C28.3809724,85.1809426 28.3209524,85.0357276 28.2562403,84.8917821 C28.2501796,84.8775243 28.2431414,84.864536 28.2368853,84.8505711 C28.176572,84.7172702 28.1126419,84.5854342 28.0463657,84.4539887 C28.0262287,84.4139496 28.0058962,84.3743011 27.9855637,84.334555 C27.9130313,84.1956877 27.838935,84.057211 27.7597555,83.9202968 C27.7572139,83.9160976 27.7554544,83.911703 27.752815,83.9075038 L27.2646392,83.0627764 L69.5336876,58.6828698 L70.5427864,60.4288676 C72.4559,64.7875633 70.7875586,69.8635448 66.6527268,72.2483127 Z" id="outlines" fill="#484848"></path>
            </g>
        </g>
    </g>
</svg>