<?xml version="1.0" encoding="UTF-8"?>
<svg width="100px" height="100px" viewBox="0 0 100 100" version="1.1" xmlns="http://www.w3.org/2000/svg" xmlns:xlink="http://www.w3.org/1999/xlink">
    <!-- Generator: sketchtool 63.1 (101010) - https://sketch.com -->
    <title>code/file_SCSS</title>
    <desc>Created with sketchtool.</desc>
    <g id="Icons" stroke="none" stroke-width="1" fill="none" fill-rule="evenodd">
        <g id="code/file_SCSS">
            <rect id="Rectangle" fill="#FFFFFF" x="16" y="27" width="74" height="50"></rect>
            <rect id="Rectangle-Copy" fill="#FFFFFF" x="16" y="20" width="64" height="50"></rect>
            <path d="M7.24609375,23.9951172 C7.2780826,25.3151345 6.9783686,75.1499784 7.46960817,75.3208315 C7.62571844,75.3752688 7.75348796,75.4513868 7.75348796,75.4902706 C7.75348796,75.5291544 50.6797962,100.078265 50.7773356,99.9213646 C50.8056763,99.8748906 93.37064,75.3500533 93.4979372,75.3017431 C94.035939,75.0976621 93.9806745,25.3782435 93.8257451,25.1147763 C93.6760115,24.8600285 50.4273274,-0.00533666154 50.4197698,7.8712904e-05 C50.4124485,0.0059749893 7.40480192,23.9128721 7.24609375,23.9951172 Z M52.8771485,21.3114693 C53.0769508,21.3644927 53.6229824,21.4705394 54.0906047,21.5471287 C54.558227,21.6239537 55.115595,21.7679416 55.3290952,21.8671542 C55.5425955,21.9666024 55.7922302,22.0479049 55.8841015,22.0479049 C56.1901815,22.0479049 58.3077075,23.0150511 58.4952287,23.2403415 C58.5533272,23.3103323 58.6574795,23.3675975 58.7262058,23.3675975 C58.9564743,23.3675975 61.0340871,25.2135175 61.0340871,25.4180699 C61.0340871,25.4501196 61.1129688,25.5639431 61.2093273,25.6709324 C61.6516791,26.1627536 62.2218004,27.5710541 62.3753128,28.5521042 C62.5167803,29.4558579 62.4173515,32.2844776 62.2293579,32.6997095 C62.1471698,32.8811672 62.0330983,33.2728331 61.9759445,33.5699996 C61.9185544,33.8671661 61.8330599,34.1341682 61.7860615,34.1631543 C61.7390631,34.1921404 61.6523876,34.3941005 61.5938168,34.6116141 C61.5350097,34.8293634 61.4119636,35.1138043 61.3200924,35.2438883 C61.2284573,35.3739722 61.1207625,35.586537 61.0806131,35.7161497 C61.0406999,35.8457624 60.9289901,36.052907 60.8321593,36.1766281 C60.7353284,36.3003493 60.6562105,36.4561202 60.6562105,36.5228118 C60.6562105,36.5897391 60.5499327,36.7702541 60.4200376,36.9243754 C60.2901425,37.0784966 60.1838647,37.2333249 60.1838647,37.2686738 C60.1838647,37.4859517 58.7276228,39.2420855 57.6804323,40.2874706 C56.4124202,41.5534328 55.7166549,42.1039332 54.1850739,43.0526979 C53.9772417,43.1813679 53.7009195,43.3571698 53.5710244,43.4431855 C53.3608306,43.5826959 53.078604,43.7198496 51.6344069,44.3853518 C51.0704261,44.6450484 49.9785989,45.0315298 49.6047373,45.1036416 C49.4235927,45.1387548 49.1897815,45.2221783 49.085157,45.2895768 C48.9805324,45.3567398 48.6203687,45.4606656 48.2847671,45.520523 C47.9491655,45.5803805 47.5665654,45.6840707 47.4345448,45.7509979 C47.3025241,45.8181609 46.8967792,45.9039409 46.5330729,45.9416464 C46.1693667,45.9793519 45.4891889,46.0978886 45.0215666,46.2051136 C43.7337159,46.5003948 39.4400932,46.4992165 38.5976646,46.2036996 C38.2859164,46.0943537 37.8820608,45.9767596 37.7002077,45.942589 C37.2023553,45.8487966 35.6202332,45.1196664 35.2440098,44.8104813 C34.7801663,44.4296557 33.544746,43.1940935 33.5442737,43.1106701 C33.5438014,43.0557615 33.4372874,42.8672339 33.3073923,42.6916677 C32.5433731,41.6583013 33.2998348,41.029562 34.2258686,41.9286026 C34.8940016,42.5776086 35.0057114,42.661739 35.3760305,42.7953578 C35.5633155,42.8627564 35.7163556,42.9504217 35.7163556,42.9897768 C35.7163556,43.0291319 35.9182834,43.1215104 36.165084,43.1948005 C36.4118847,43.2683262 36.7819676,43.3986459 36.9874379,43.4846616 C37.3705103,43.6446743 40.1552246,43.9592796 40.4315469,43.8734996 C40.5139712,43.8480483 41.1766723,43.7867769 41.9040847,43.7375241 C42.7212428,43.6821441 43.4432233,43.578454 43.7934677,43.4660445 C44.1052159,43.3658892 44.5940937,43.2544223 44.8798629,43.2178951 C45.165632,43.1816036 45.4854101,43.0960592 45.590507,43.0279537 C45.6956039,42.9598481 45.9719262,42.8738324 46.2045565,42.8370695 C46.4371868,42.800071 46.7883758,42.6886041 46.9846355,42.5893915 C47.1811313,42.4901789 47.3972295,42.4088764 47.4647749,42.4088764 C47.5320842,42.4088764 47.7904573,42.3063646 48.038675,42.1809938 C48.2871288,42.0553873 48.5991132,41.925539 48.7323147,41.892311 C48.8655162,41.8588474 49.0790165,41.7495014 49.2070222,41.6488749 C49.3350278,41.548484 49.5133384,41.4662389 49.6033202,41.4662389 C49.6933021,41.4662389 49.8687785,41.3861147 49.993714,41.2880804 C50.1184133,41.1902817 50.3685203,41.0401667 50.5496649,40.954858 C50.9197478,40.78047 51.6282664,40.349449 52.3790599,39.8425456 C53.294466,39.2241754 55.2497412,37.4263299 55.8382839,36.6620865 C55.968179,36.4933544 56.2019902,36.1957165 56.3578643,36.0008262 C56.5137384,35.8059359 56.6937021,35.5667416 56.7577049,35.4691786 C56.8217078,35.3716157 56.9870288,35.122288 57.1249537,34.9149078 C57.2631149,34.7077631 57.4194613,34.4108323 57.4726002,34.2550615 C57.5255029,34.0995263 57.6424085,33.8772994 57.7321542,33.7608837 C57.8218999,33.6447036 57.9243989,33.394669 57.960061,33.2051989 C57.9957231,33.0157287 58.0849964,32.7689933 58.1584462,32.6572908 C58.3639166,32.3443351 58.498299,30.7394946 58.3950914,29.8331486 C58.2602367,28.6482532 57.5361307,27.5234509 56.602067,27.0478903 C56.4088776,26.9496203 56.1951412,26.8023332 56.1273595,26.720795 C56.0595779,26.6392569 55.9256679,26.5725653 55.8295456,26.5725653 C55.7336594,26.5725653 55.4892205,26.4863139 55.286348,26.3807385 C55.0834755,26.2751631 54.6477365,26.1455504 54.3182754,26.0925271 C53.9888142,26.0397394 53.6713979,25.9565516 53.612827,25.9082414 C53.1751987,25.5457973 47.0592661,25.5561663 46.3771988,25.9202601 C46.2787148,25.9728121 45.8484078,26.0557642 45.4209349,26.1043101 C44.993462,26.1528559 44.4001958,26.2782267 44.1028541,26.3826238 C43.8052763,26.4870209 43.4439318,26.5735079 43.2998664,26.5746862 C43.1555647,26.5758645 42.8674338,26.6538678 42.6593656,26.7481315 C42.4512973,26.8426309 42.0474416,26.9753072 41.7619087,27.0431771 C41.4763757,27.1112826 41.1577785,27.219686 41.0538624,27.2844923 C40.9499463,27.3492986 40.7161352,27.4320151 40.5342821,27.4678353 C40.352429,27.5038912 40.0706747,27.6097022 39.9081878,27.7027877 C39.745937,27.7958732 39.4696148,27.9030982 39.2941384,27.941275 C39.1188981,27.9792162 38.8267522,28.0876195 38.6448991,28.1823546 C38.463046,28.2770896 38.1017015,28.4455861 37.8419114,28.5565817 C37.1761401,28.8412582 36.1676819,29.3097491 35.999763,29.4124966 C35.921826,29.4603355 35.6455037,29.6043233 35.3857136,29.7325221 C35.1259234,29.8609564 34.8496011,30.003766 34.7716641,30.0501909 C34.693727,30.0966158 34.5236826,30.1842811 34.3937875,30.2450812 C34.2638924,30.3058814 33.9450591,30.479798 33.6852689,30.6315626 C33.4254787,30.7830916 33.0775961,30.9704408 32.9122751,31.0479728 C32.7469541,31.1252691 32.5835225,31.2343794 32.5488051,31.2902306 C32.5143238,31.3460819 32.3844287,31.4302123 32.2602018,31.4773442 C32.0620528,31.5525195 31.3339318,31.9986228 30.484418,32.565148 C30.3346844,32.6650675 30.1433844,32.789967 30.0593069,32.8425191 C29.8689515,32.9617627 29.0893449,33.4773855 28.9618115,33.56835 C28.9098535,33.6053485 28.7185535,33.7578201 28.5367004,33.9069925 C28.3548473,34.0561649 28.1366235,34.216649 28.0518375,34.2637809 C27.1985449,34.7376919 23.5298356,38.4406079 23.5298356,38.828032 C23.5298356,38.8718646 23.4672498,38.9701346 23.3907297,39.0464882 C23.3142097,39.1228419 23.0761475,39.5182783 22.8619387,39.9252621 C22.6474937,40.3320102 22.4377722,40.7074156 22.3954973,40.7592607 C22.3532223,40.8111057 22.2870939,41.0217852 22.2485978,41.2272802 C22.2101016,41.4330109 22.0894172,41.7935698 21.9803054,42.0285222 C21.7098874,42.6117792 21.679185,45.6013542 21.9396836,45.9908992 C22.0265953,46.1205119 22.1468072,46.4129652 22.2070313,46.6408478 C22.2672554,46.8687304 22.3914823,47.1656613 22.4833536,47.3006941 C22.5749887,47.4357269 22.7719568,47.7371353 22.9207457,47.9704381 C23.7088546,49.2052933 25.5878459,51.0681808 27.4368433,52.4479665 C29.2678916,53.8143197 31.8032073,55.8900076 32.7183772,56.7720807 C33.2644088,57.2985438 33.5669463,57.3609936 33.830279,57.0018486 C33.8581474,56.9639075 34.0281919,56.8665801 34.2081556,56.7855133 C34.3881194,56.7044465 34.7480468,56.5114414 35.007837,56.3568489 C35.2676271,56.2020207 35.6282631,56.0076017 35.8091715,55.9244139 C35.9903161,55.8414618 36.2404232,55.693232 36.3651224,55.5954334 C36.4900579,55.4973991 36.6648258,55.4172749 36.7536268,55.4172749 C36.8424278,55.4172749 36.9923976,55.3319662 37.0868667,55.2280404 C37.1813359,55.1238789 37.4217599,54.9897887 37.6210898,54.9301669 C37.8204197,54.8705451 37.9836151,54.7906566 37.9836151,54.7527154 C37.9836151,54.7147742 38.1430318,54.6124981 38.3378744,54.5255397 C38.532717,54.4388171 38.9046893,54.2453407 39.1644794,54.0961683 C39.4242696,53.9467603 39.8092314,53.7426792 40.0198976,53.642524 C40.2494576,53.533178 40.6013552,53.2159805 40.8991692,52.8495301 C41.7588384,51.7925978 43.8593599,49.949977 44.2046446,49.949977 C44.251643,49.949977 44.3409164,49.8884699 44.4035022,49.8132945 C44.466088,49.7383548 44.6732116,49.626888 44.8638031,49.5658522 C45.0543946,49.5048164 45.2742715,49.4013619 45.3522086,49.3363199 C45.9220937,48.859581 47.9359398,48.8965795 48.5391253,49.3949991 C49.2282777,49.9643522 49.6094607,51.2121687 49.4790933,52.4720038 C49.3969051,53.2673542 49.4809827,53.5864371 49.716447,53.3736366 C50.0130802,53.1059276 50.7931591,53.1558874 51.2527515,53.4721423 C51.9598531,53.9587789 51.973315,54.3839084 51.3455675,56.4070443 C51.2168533,56.8218049 51.1122287,57.2587174 51.1131734,57.377961 C51.1141181,57.4972047 51.0527131,57.7144826 50.9769016,57.8610628 C50.900854,58.0076429 50.7556077,58.5039416 50.6540533,58.9639487 C50.552499,59.4241915 50.4240209,59.9914237 50.3685203,60.2247265 C49.9509667,61.9848665 49.7629731,63.3410863 49.8907426,63.6750156 C50.0052864,63.9738318 49.9599413,63.9981047 50.3944993,63.4047143 C50.6023315,63.1207448 51.6806968,60.9590412 51.6811691,60.8254223 C51.6814053,60.7669787 51.7406847,60.6701227 51.8129536,60.6105009 C51.8849863,60.5506434 51.9903194,60.3180476 52.0470009,60.0936999 C52.1036824,59.8691165 52.2135028,59.6329858 52.2912036,59.5686507 C52.3689045,59.5043157 52.4595949,59.3070688 52.4928953,59.1303243 C52.5259595,58.9538154 52.6253882,58.7141498 52.7134807,58.5979697 C52.8018094,58.481554 52.9246193,58.2112526 52.9867327,57.9970383 C53.0488462,57.7830595 53.1631539,57.5551769 53.2408547,57.4906062 C53.3185556,57.4262712 53.3820861,57.2898244 53.3820861,57.1870769 C53.3820861,57.0843294 53.484349,56.8031878 53.6095206,56.5623439 C53.734456,56.3215 53.9498457,55.8697409 54.0877706,55.5586705 C54.2259318,55.2476001 54.4151062,54.8446226 54.5079222,54.6631648 C54.6009743,54.4817071 54.7074883,54.2085779 54.7443312,54.0561062 C54.7814104,53.9038703 54.8938286,53.663969 54.9944383,53.5232803 C55.0948118,53.382356 55.1769999,53.2136239 55.1769999,53.1478749 C55.1769999,53.0300452 55.5888854,52.1001333 55.9251956,51.4581971 C56.0201371,51.2767394 56.1273595,50.9932411 56.1632578,50.8285152 C56.1989199,50.6635536 56.2865401,50.4802106 56.3578643,50.4212958 C56.4291885,50.3623809 56.5156277,50.1790379 56.550109,50.0140763 C56.584354,49.8493504 56.6698486,49.6238244 56.739992,49.5133001 C56.8101353,49.4025402 56.9508943,48.9995627 57.052921,48.6177944 C57.1549477,48.2357906 57.2834257,47.7960501 57.3386902,47.6405149 C57.3937185,47.4849797 57.4615001,47.2439002 57.4891323,47.1048611 C57.5684864,46.7042402 57.9725782,46.4935607 58.994262,46.3198797 C61.5468183,45.8860308 62.5762959,46.5046367 61.8193618,48.01757 C61.5191861,48.6177944 61.0933664,50.9246642 61.1757908,51.505329 C61.3092284,52.4470239 61.6417598,53.9693836 61.7418971,54.0975823 C61.8025936,54.1753499 61.9272928,54.4421163 62.0191641,54.6902657 C62.2218004,55.2386451 62.92347,55.1087967 62.92347,54.5229475 C62.92347,54.4571985 62.9895984,54.3485595 63.0706057,54.2816323 C63.151613,54.2144693 63.2810357,54.0290054 63.3582642,53.869464 C63.4354928,53.7096869 63.6218332,53.3670382 63.7722753,53.1078128 C63.9227174,52.8485875 64.1227558,52.4880286 64.2167526,52.3065709 C64.3107494,52.1251132 64.4170272,51.9544958 64.4526893,51.9276306 C64.4883514,51.9007654 64.6073826,51.688672 64.7174391,51.4563118 C64.8272595,51.2239517 65.0398151,50.8219167 65.190021,50.5626914 C65.3399908,50.3034661 65.5107438,49.9853259 65.5695508,49.8557132 C65.7207015,49.5215482 66.2192624,48.5327214 66.377262,48.2532294 C66.4504756,48.1236167 66.511172,47.9447512 66.5118806,47.8554363 C66.5125891,47.7663571 66.5997369,47.5278697 66.7055423,47.3254383 C66.8113478,47.1230069 66.9391173,46.7018836 66.9894221,46.3896349 C67.0397269,46.0776218 67.1443515,45.7010381 67.2218162,45.553044 C67.2990447,45.4050499 67.3625752,45.2132232 67.3630476,45.1267362 C67.3651731,44.5017675 67.847202,44.2383003 69.243456,44.0987899 C71.7480692,43.8485197 72.3765252,44.281426 71.7622396,45.8334787 C71.6356509,46.1532685 71.5048112,46.5847609 71.4715108,46.7921411 C71.4379742,46.9995214 71.3484647,47.3334507 71.2726532,47.5344682 C71.1352006,47.8976193 71.0716701,49.7595642 71.1899927,49.950684 C71.220459,50.0001724 71.3097324,50.4071562 71.3881418,50.8553804 C71.4665512,51.3036045 71.6276211,51.8663592 71.7459437,52.1062604 C71.8645024,52.345926 72.1065796,52.8377472 72.2839455,53.1987774 C72.7229908,54.0923978 72.9440486,54.2121128 73.5618769,53.8906733 C73.8157627,53.7587041 74.1723837,53.619665 74.3542368,53.5819595 C74.5360899,53.544254 74.7734437,53.457767 74.8816108,53.3894258 C74.9900142,53.3213202 75.287592,53.2350689 75.5428949,53.1978347 C75.7984339,53.1606005 76.2837692,53.0408856 76.6214964,52.9317753 C77.5562686,52.6298956 81.3761285,52.6315452 82.2896452,52.9343675 C82.6273724,53.0460701 83.0510665,53.1636641 83.2312664,53.1952425 C83.5838725,53.2572209 84.7026234,53.6672682 84.9347813,53.8197399 C85.0127184,53.870878 85.2113398,53.9748037 85.3759522,54.0504504 C86.262309,54.4579055 88.3363791,56.3382318 88.6604083,57.0284781 C88.7435412,57.2052227 88.8729639,57.4557286 88.9483031,57.5853413 C89.5231478,58.5751107 89.6091147,58.9686619 89.607027,60.5998962 L89.6048636,62.1571335 L89.30209,62.7066912 C88.7855799,63.6434373 88.6436401,63.8164113 87.7414597,64.6084625 C87.6486438,64.6900007 87.4573437,64.8064164 87.3163485,64.8672165 C87.1755895,64.927781 86.959019,65.0533874 86.8350282,65.1462372 C86.1817741,65.6354661 85.2708553,65.2426219 85.8889197,64.7380752 C88.2416738,62.8169798 88.6332484,61.5964998 87.639433,59.2820889 C87.3326445,58.5678053 86.4573878,57.5580048 85.7278498,57.076317 C85.4215336,56.8743569 85.0582997,56.6323347 84.920611,56.5385423 C84.7829222,56.4449855 84.549111,56.3394101 84.4010306,56.3042968 C84.2529503,56.2691836 84.0680269,56.1859958 83.9900899,56.1195399 C83.9121528,56.0530839 83.5730086,55.9279488 83.2364622,55.8412261 C82.8999159,55.7547391 82.5461289,55.6418583 82.4500066,55.5904845 C82.2969666,55.5087107 80.7448385,55.3159413 79.0304596,55.1658263 C78.7187114,55.1384898 77.9764201,55.1839721 77.3810283,55.2666885 C76.7856365,55.3496406 76.1479698,55.4170392 75.9639911,55.4168036 C75.7800124,55.4165679 75.3319925,55.5197867 74.9682863,55.6461002 C74.6045801,55.7724136 74.1900967,55.900848 74.0472121,55.931248 C73.7186956,56.0010032 73.6875208,56.5015437 73.9763602,57.0668906 C74.22198,57.5476358 74.2630741,60.120565 74.0283183,60.314984 C73.9532153,60.3774338 73.8412694,60.5841071 73.7796282,60.7742842 C73.4192284,61.8882461 70.3329214,64.4665955 69.359653,64.4665955 C69.296831,64.4665955 69.0684519,64.5566174 68.8521175,64.6666704 C67.8944365,65.1542497 66.5106997,65.0034276 65.9464827,64.3499441 L65.6158407,63.9669976 L65.6222174,62.9206699 C65.6274132,62.0616914 65.6630753,61.8069436 65.8213111,61.4972872 C65.9273527,61.2899069 66.0440221,60.9962753 66.0806289,60.844982 C66.1172357,60.693453 66.2294178,60.4650991 66.3302636,60.3373717 C66.4308733,60.2096443 66.5140061,60.057644 66.5149508,59.9999074 C66.5189657,59.7569426 68.0155932,57.7880084 68.6426322,57.2009808 C69.8435712,56.0768855 69.9042676,55.9366682 69.4560115,55.3230111 C69.3615424,55.1933985 69.253139,54.9633949 69.2153514,54.8121016 C69.1775637,54.6605726 69.0677433,54.4366962 68.9713848,54.3143889 C68.8750263,54.1920817 68.7673315,53.913061 68.7321417,53.6941334 C68.6967158,53.4754415 68.6145276,53.211503 68.5491077,53.1078128 C68.483924,53.0041227 68.3852038,52.6647732 68.3301755,52.3537028 C68.1322626,51.2383269 67.6752681,50.435671 67.5078215,50.9091107 C67.3982373,51.2187671 67.2463782,51.5402066 67.0038286,51.9766478 C66.859527,52.2358731 66.6835782,52.5540133 66.6127264,52.6836259 C66.5418745,52.8132386 66.4483501,52.9829134 66.4048943,53.060681 C66.0333943,53.7261831 65.8331197,54.0787295 65.7353442,54.2389779 C65.672286,54.3426681 65.5237333,54.5865755 65.4056468,54.7809945 C65.0098211,55.4321214 64.7523927,55.8367486 64.2861874,56.5416058 C63.7618837,57.3338927 63.5594835,57.8308984 63.6723742,58.0495903 C63.7144129,58.1311284 63.778652,58.3632529 63.8152588,58.565213 C63.8518655,58.7674088 63.9401942,59.0219209 64.0115184,59.1307956 C64.407108,59.7357332 64.3997866,62.2620019 64.0004183,63.1089618 C63.875719,63.373136 63.7736923,63.6382528 63.7736923,63.6981103 C63.7736923,63.9132673 61.9587038,65.7862881 61.7503994,65.7862881 C61.684271,65.7862881 61.5553206,65.8687689 61.4641578,65.9693955 C61.3727589,66.0702577 61.1767355,66.1791324 61.0286551,66.2116533 C60.8805747,66.2441743 60.6618786,66.3445652 60.5426113,66.4348228 C60.4231078,66.5250803 60.1342684,66.6537504 59.9004573,66.7209133 C59.6666461,66.7878406 59.420554,66.8872888 59.3532447,66.9419618 C59.2351583,67.0381108 58.5247503,67.1908181 57.2553212,67.3925426 C55.4287602,67.6831106 54.0164464,66.4098429 54.9960915,65.3559741 C55.0955203,65.2489847 55.1769999,65.1320977 55.1769999,65.0965131 C55.1769999,64.9833966 56.5314513,63.2703885 57.160852,62.5874476 C57.2387891,62.5028458 57.414974,62.2867462 57.5526628,62.1069381 C57.6901154,61.9271299 57.9307756,61.6316131 58.0873582,61.4501553 C58.2439408,61.2686976 58.4588581,61.0141855 58.5646635,60.8845728 C58.670469,60.7549601 58.8868033,60.5016263 59.0452753,60.3215825 C59.2039835,60.1415387 59.3336424,59.9400499 59.3336424,59.8738297 C59.3336424,59.8076094 59.3733194,59.7534077 59.4219711,59.7534077 C59.4706227,59.7534077 59.6059497,59.5837329 59.7228553,59.3763527 C59.8397609,59.1689724 59.9698921,58.9992976 60.0124032,58.9992976 C60.1973266,58.9992976 59.6708973,57.5935894 59.4302371,57.4453596 C59.3770982,57.412603 59.3336424,57.3096198 59.3336424,57.21677 C59.3336424,57.1239202 59.2323242,56.8576251 59.1083335,56.6250293 C58.9845789,56.3926691 58.8513774,56.0582684 58.8126451,55.8819952 C58.7736765,55.705722 58.6865287,55.4759541 58.6187471,55.371557 C58.5507293,55.2671599 58.4446877,54.8846847 58.3828104,54.5217692 C58.1598632,53.2155092 57.6693322,52.6732569 57.4870067,53.5319997 C57.4596107,53.6616124 57.359001,53.9161246 57.2635872,54.0975823 C57.1681734,54.27904 57.0604785,54.5634809 57.0245803,54.7293851 C56.9884458,54.895525 56.8828765,55.1288278 56.7900606,55.2478358 C56.6972447,55.3670794 56.5928563,55.619235 56.5579027,55.8084695 C56.5231853,55.997704 56.4329672,56.2034346 56.3578643,56.2656487 C56.2827613,56.3278628 56.1934879,56.5335934 56.1594791,56.7228279 C56.1254702,56.9120624 56.0404479,57.1326396 55.9705408,57.2129995 C55.9006336,57.2933593 55.7773513,57.5457505 55.6965802,57.7738688 C55.6158091,58.0019871 55.4929992,58.2543783 55.4233282,58.3347382 C55.3538934,58.415098 55.2669818,58.6055108 55.2306112,58.7579824 C55.1942405,58.9102184 55.0877266,59.1435212 54.9942021,59.2764331 C54.9004415,59.4091093 54.7908573,59.6235594 54.7504717,59.753172 C54.7100862,59.882549 54.5610611,60.2006892 54.4191212,60.4601502 C54.2771813,60.7193756 54.0849366,61.0801701 53.9918845,61.2616278 C53.8988324,61.4430855 53.7887758,61.655179 53.7476817,61.7329466 C53.7065876,61.8107142 53.4723042,62.2561104 53.2271567,62.722716 C52.6268053,63.8651928 52.3745727,64.3317984 52.0557393,64.8907825 C51.9078951,65.1500078 51.7062034,65.531776 51.6079555,65.7391563 C51.5094714,65.9465365 51.3583208,66.1744192 51.2718815,66.2455883 C51.1854423,66.3167574 51.1148266,66.41597 51.1148266,66.4661655 C51.1148266,66.6591705 50.0477976,67.7382549 49.4764954,68.122851 C47.7602272,69.2787603 46.2822574,67.3817022 46.5179579,64.3251999 C46.5786543,63.5369192 46.4872554,63.1690549 46.311779,63.4963858 C46.2515549,63.608324 46.2024309,63.7810624 46.2024309,63.880275 C46.2024309,63.9792519 46.1169363,64.1373794 46.0127841,64.2316431 C45.9083957,64.3259069 45.773541,64.5764128 45.7130807,64.7882706 C45.6523843,65.0001284 45.5527194,65.2372018 45.4910782,65.3149694 C45.4294371,65.392737 45.3300083,65.6020025 45.2700204,65.780161 C45.2100325,65.9583195 45.1030462,66.170413 45.0324305,66.2514798 C44.9615787,66.3325466 44.8524668,66.5580727 44.7901172,66.7524917 C44.7275314,66.9469107 44.642273,67.1059807 44.6007065,67.1059807 C44.5589039,67.1059807 44.4682135,67.2438415 44.3987787,67.412338 C44.173706,67.9590677 43.3605628,68.9912559 43.1548562,68.9912559 C43.1121089,68.9912559 42.9616668,69.0765646 42.8201993,69.1809617 C42.5448217,69.3841001 41.2024151,69.4729437 40.7196778,69.3200007 C40.1153114,69.1286453 39.1784136,68.1355766 38.9734156,67.4691319 C38.9358641,67.347296 38.8643037,67.1962383 38.8142351,67.1337886 C38.6463162,66.9240517 38.1564936,65.4615495 38.0629692,64.8907825 C38.012192,64.5797121 37.909693,64.1093359 37.8352985,63.845633 C37.6619477,63.2303264 37.6619477,61.8076506 37.8352985,60.9974536 C37.9094568,60.6503273 37.9954237,60.0463323 38.0263624,59.6556091 C38.0570649,59.2648858 38.1867238,58.6498148 38.3144933,58.2887846 C38.6713505,57.2792197 38.5024869,56.9295012 37.879699,57.3888014 C37.7304378,57.4988543 37.5122141,57.6308236 37.3946,57.6821973 C37.2769859,57.7333354 36.9680718,57.9013605 36.7082816,58.0554818 C36.4484915,58.209603 36.0281038,58.4532748 35.7739817,58.5967914 C35.0319266,59.0162651 34.9495023,59.0669319 34.8557416,59.1604887 C34.7506447,59.2653571 34.9249403,60.1726458 35.104904,60.4594432 C35.6140927,61.2708185 35.6136204,66.2123603 35.1041955,67.3383409 C35.0328713,67.4955257 34.945015,67.7728968 34.9088805,67.9543546 C34.8725099,68.1358123 34.7419063,68.4749262 34.6183879,68.7077576 C34.4948695,68.9405891 34.3937875,69.2031137 34.3937875,69.2912503 C34.3937875,69.3793869 34.3477338,69.4797778 34.2915247,69.5144197 C34.2353155,69.5492973 34.1066013,69.7531427 34.0055193,69.9678284 C33.085626,71.9209734 29.2704895,75.3036284 27.9845282,75.3066919 C27.914621,75.3066919 27.7445766,75.3714983 27.6066516,75.4502085 C26.0268913,76.3525483 21.4151437,76.342415 20.4312475,75.4341837 C19.511118,74.5846316 19.5385141,74.6206874 18.9979144,73.5630481 C18.4925045,72.5746926 18.3600115,70.0752891 18.755601,68.9912559 C18.8406233,68.7579531 18.9719354,68.3707647 19.0475107,68.1306278 C19.123086,67.8904909 19.2442427,67.6449338 19.3169839,67.5848406 C19.3897252,67.5245118 19.4771091,67.3640278 19.5113542,67.2280523 C19.5765379,66.968827 19.8408154,66.5802246 20.1997981,66.2158952 C20.3167037,66.0973585 20.4123537,65.9686885 20.4123537,65.9300404 C20.4123537,65.8426107 21.8064821,64.4607041 22.4434404,63.9165665 C22.7032305,63.694811 23.0008083,63.4400632 23.1047244,63.3505127 C23.2086405,63.2611978 23.4164726,63.1044843 23.5666785,63.0024437 C23.7168845,62.9004032 23.9563638,62.7321424 24.0990122,62.6284523 C24.2414244,62.5247622 24.6074924,62.2751989 24.9121554,62.0739457 C25.2170545,61.8726926 25.5727309,61.6290208 25.702626,61.5328718 C25.832521,61.4364871 26.0663322,61.2934418 26.2222063,61.2149673 C26.3780804,61.1367283 26.6969137,60.9456086 26.9307249,60.790309 C27.164536,60.6350095 27.5001377,60.4410618 27.6765588,60.359288 C27.8529799,60.2775142 28.057978,60.1502581 28.1321362,60.0762611 C28.2062945,60.0024997 28.3191852,59.9419352 28.3834242,59.9419352 C28.447427,59.9419352 28.644159,59.8358885 28.8201078,59.7062758 C28.9960566,59.5766632 29.2003461,59.4706164 29.2740321,59.4706164 C29.4199869,59.4706164 30.3325589,58.9071548 30.3301971,58.8185469 C30.3257098,58.6540566 29.4204592,57.8895776 28.9381942,57.6430778 C28.7693306,57.5568265 28.6311695,57.4500728 28.6311695,57.4057688 C28.6311695,57.3617005 28.5036362,57.2726213 28.3477621,57.2082863 C28.191888,57.1439513 28.0643546,57.0628844 28.0643546,57.0282425 C28.0643546,56.948354 27.0528262,56.2656487 26.9342675,56.2656487 C26.8856158,56.2656487 26.8116937,56.2126253 26.7701273,56.147819 C26.6843966,56.0139645 25.8485808,55.4172749 25.7467903,55.4172749 C25.7101835,55.4172749 25.5432093,55.3006235 25.3757627,55.1580496 C25.2083161,55.0154756 24.9735603,54.8351962 24.8545292,54.7574286 C24.7352619,54.679661 24.3824196,54.4251488 24.0704353,54.191846 C23.7584509,53.9585432 23.4098597,53.7040311 23.2960244,53.6262635 C23.1821891,53.5484959 23.0149787,53.4106352 22.9247607,53.3199063 C22.8345426,53.2291774 22.7306266,53.1549447 22.6940198,53.1549447 C22.6571768,53.1549447 22.4942175,53.0382933 22.3314944,52.8957194 C22.1687713,52.7531455 21.9219707,52.5516567 21.7826287,52.4479665 C21.4241183,52.1809644 18.7057686,49.4890272 18.4511742,49.148735 C17.9698539,48.5053849 17.6727484,48.0616383 17.6727484,47.9857559 C17.6727484,47.9416876 17.5877262,47.8285711 17.4838101,47.7347787 C17.3798941,47.6409863 17.2948718,47.5130232 17.2948718,47.4505735 C17.2948718,47.3881237 17.188594,47.1807435 17.058699,46.9896237 C16.9288039,46.7987396 16.8225261,46.5897097 16.8225261,46.525139 C16.8225261,46.4605684 16.7325442,46.2397555 16.6227239,46.0344962 C16.4203237,45.6562629 16.1969042,44.7301214 16.1003095,43.8699647 C16.031347,43.2556006 16.3778126,41.2131407 16.6307537,40.7420575 C16.736323,40.5457533 16.8225261,40.3211699 16.8225261,40.242931 C16.8225261,40.069957 17.4651525,38.7552132 17.586073,38.6807448 C17.6337799,38.6512874 17.6727484,38.5631508 17.6727484,38.4851475 C17.6727484,38.4069086 17.7790262,38.2040059 17.9089213,38.0340955 C18.0388164,37.8639494 18.1450942,37.6985165 18.1450942,37.6659955 C18.1450942,37.5769162 19.1150561,36.160839 19.28699,35.998941 C19.3696505,35.9211734 19.6249534,35.6244782 19.854041,35.3393303 C20.5516957,34.4716324 20.8044007,34.1926117 21.6470655,33.3595558 C22.4625704,32.553365 23.4391452,31.6807183 23.6833479,31.5397939 C23.755853,31.4980822 23.9138526,31.3708262 24.0343008,31.2570027 C24.1549851,31.1431792 24.3916304,30.944047 24.5602578,30.8144343 C24.7288852,30.6848217 24.9804093,30.4833329 25.119279,30.3666815 C25.2583848,30.2502657 25.400797,30.1548237 25.4359868,30.154588 C25.4714127,30.154588 25.5564349,30.1015647 25.6249251,30.0367583 C25.7963866,29.875096 26.4758559,29.3639508 26.5963041,29.3062142 C26.6503877,29.2802917 27.0133854,29.0512308 27.4030706,28.7974256 C28.1132424,28.3345905 28.4469547,28.123911 29.1507498,27.6940683 C29.838249,27.2743589 29.9031966,27.2359465 30.3316142,26.9967522 C30.5654253,26.8661969 30.820492,26.7219733 30.8984291,26.6760197 C30.9763661,26.6303018 31.1464106,26.5461714 31.2763056,26.4891418 C31.4062007,26.4321123 31.5762452,26.3453896 31.6541822,26.2963725 C31.7321193,26.247591 31.9234193,26.1476714 32.0792934,26.074617 C32.2351675,26.0015626 32.6602787,25.7927683 33.0239849,25.6106036 C34.4055961,24.9189433 34.9183274,24.6872901 35.0671164,24.6872901 C35.1516662,24.6872901 35.2737676,24.6236621 35.338479,24.5458945 C35.4031903,24.4681269 35.5063979,24.4044989 35.5675667,24.4044989 C35.6289716,24.4044989 35.8894703,24.302694 36.1464264,24.1785015 C36.4036186,24.0540733 36.766144,23.9046653 36.9522482,23.8464574 C37.1383524,23.7882495 37.4555326,23.6565159 37.656988,23.5540041 C37.8586797,23.4514923 38.0972143,23.3675975 38.1871961,23.3675975 C38.277178,23.3675975 38.4913868,23.2867664 38.6630844,23.1882607 C38.8350183,23.0895194 39.1243301,22.9778169 39.3061832,22.9398757 C39.4880363,22.9021702 39.7849056,22.7918816 39.9660502,22.6952613 C40.1471948,22.5984053 40.3899805,22.5192237 40.5057052,22.5192237 C40.6214299,22.5192237 40.9244397,22.4372142 41.179034,22.3372947 C41.4336284,22.2371394 41.9116423,22.1063485 42.2413396,22.0467266 C42.5710369,21.9871048 42.9489135,21.8843573 43.0809341,21.8186083 C43.2129548,21.7528594 43.7622928,21.6470483 44.3012393,21.5838916 C44.840422,21.5204992 45.3930665,21.4236432 45.5293382,21.3684989 C46.1393728,21.1219992 51.9900832,21.0765169 52.8771485,21.3114693 M46.3913692,51.9740555 C46.2614741,52.0487595 46.0701741,52.1498574 45.9662581,52.1986389 C45.862342,52.2474204 45.5113891,52.5287977 45.1864152,52.8238433 C44.6550263,53.306238 44.3307609,53.7294823 43.7058475,54.7574286 C43.5955548,54.9388863 43.4521979,55.1721891 43.3872503,55.2758792 C43.3223028,55.3795694 43.1834331,55.6552909 43.0783362,55.8885937 C42.9734755,56.1218965 42.8466506,56.3764086 42.7968182,56.4541762 C42.7467495,56.5319438 42.6825105,56.6591999 42.6539336,56.7369675 C42.6251205,56.8147351 42.5138831,57.0904566 42.4061882,57.3496819 C42.2984934,57.6089072 42.1690707,58.0330941 42.1182935,58.2923195 C42.0675163,58.5515448 41.9624194,58.9121037 41.8844824,59.0935614 C41.5236102,59.9339228 41.5332933,63.869199 41.8972357,64.2705269 C41.9789515,64.3605488 42.0457884,64.4809708 42.0457884,64.5380003 C42.0457884,64.7406674 42.3178596,64.9138771 42.5625347,64.8672165 C42.8192546,64.8181994 43.1895736,64.3134169 43.737967,63.2647326 C43.9292671,62.8989893 44.2981691,62.0484945 44.3614634,61.8272104 C44.3987787,61.6975977 44.5093076,61.459346 44.6073194,61.2976837 C44.7053311,61.1360214 44.7858661,60.9239279 44.7863384,60.8263649 C44.7868107,60.7288019 44.8916715,60.4368199 45.019441,60.1775946 C45.1472105,59.9183693 45.254433,59.6426478 45.2577394,59.5648802 C45.2610459,59.4871126 45.3682684,59.2113911 45.4960379,58.9521658 C45.6238074,58.6929404 45.7286681,58.416512 45.7291405,58.3380374 C45.7296128,58.2595628 45.8146351,58.0378073 45.9180788,57.8452736 C46.0215225,57.6527399 46.1474026,57.3353067 46.1977075,57.1397094 C46.3202812,56.6648557 46.6464359,55.6694304 46.8708001,55.0854665 C46.9707013,54.8252985 47.0526532,54.5406219 47.0526532,54.4529567 C47.0526532,54.3650557 47.1584587,53.9630208 47.2876453,53.5591006 C47.7503079,52.1133302 47.3570801,51.4178993 46.3913692,51.9740555 M70.2698632,58.1780247 C70.0240073,58.4487973 69.7500468,58.7761282 69.6612458,58.9055052 C69.5726809,59.0348822 69.4760862,59.1619026 69.447037,59.1878252 C69.3317846,59.290337 68.7944913,60.2216629 68.731197,60.4288075 C68.6941179,60.5499364 68.6119297,60.7125414 68.5486354,60.790309 C68.388274,60.9870846 68.0866812,62.1724514 68.153282,62.3451897 C68.2146869,62.5047311 68.6428684,62.5386661 68.7342673,62.3913789 C68.7668591,62.3388269 68.933361,62.2372577 69.1045863,62.1660886 C69.65605,61.936085 70.399286,61.224158 70.5889328,60.7438841 C70.6505739,60.5881133 70.7674795,60.3828539 70.8487229,60.2878832 C71.0076673,60.1021836 71.1245729,58.3750359 71.0093205,57.9169141 C70.922645,57.5721444 70.7719668,57.6254034 70.2698632,58.1780247 M31.3589661,60.9081387 C31.0146261,61.1284803 30.554089,61.4148064 30.3356291,61.5444191 C30.1171692,61.6740317 29.8188829,61.8755205 29.6726919,61.9921719 C29.5265009,62.1088233 29.3651948,62.2042654 29.3139453,62.2042654 C29.2629319,62.2042654 29.1644479,62.2723709 29.0952492,62.3555587 C29.0262867,62.4387465 28.8826936,62.5457358 28.776652,62.5935747 C28.4837976,62.725544 27.5570553,63.3997655 27.2268856,63.7214406 C27.1418634,63.8039213 26.8173619,64.0749296 26.5056137,64.3233146 C25.6674362,64.991409 25.1313238,65.5082101 24.7364427,66.0290173 C24.542781,66.2842364 24.3420341,66.5434618 24.290076,66.6044976 C24.119323,66.806222 23.6557157,67.711861 23.5340867,68.081375 C23.4684306,68.2807428 23.3557762,68.5564643 23.2839796,68.6940894 C23.0227724,69.1934516 23.1118096,70.9627824 23.4155279,71.3127366 C23.9391231,71.9160246 24.8207565,72.139901 25.6284677,71.8747842 C25.8511787,71.8019655 26.1820569,71.7121792 26.36391,71.675652 C26.6570005,71.6167372 27.5492616,71.2587706 27.8416436,71.0829686 C28.9301644,70.4275999 30.235728,69.2778177 30.6983906,68.567069 C30.8334815,68.3596887 30.9678639,68.1688046 30.9969131,68.1428821 C31.1338934,68.0210462 31.6430821,67.193646 31.7021253,66.9971061 C31.7384959,66.8755059 31.835563,66.6700109 31.9179873,66.5403982 C32.0004117,66.4107855 32.1208598,66.0926454 32.1858074,65.83342 C32.2507549,65.5741947 32.368369,65.1924265 32.4472507,64.9850462 C32.719558,64.2686417 32.6092653,60.6017815 32.3154663,60.6017815 C32.2720105,60.6017815 32.179903,60.5805722 32.1107044,60.5546496 C32.0415057,60.5289628 31.70307,60.6880329 31.3589661,60.9081387 M60.6944705,61.4103289 C60.5971672,61.5618579 60.4427102,61.7411947 60.3508389,61.8090646 C60.2589677,61.8766988 60.1838647,61.9933502 60.1838647,62.0682899 C60.1838647,62.1429939 60.148675,62.2042654 60.1054553,62.2042654 C60.0622357,62.2042654 59.8969147,62.3845448 59.7379704,62.6048863 C59.4545629,62.9979662 59.1761151,63.3128072 58.322114,64.2059563 C57.5408542,65.023223 57.9499056,65.1905412 58.926008,64.4533986 C60.3945309,63.3443855 61.3888187,61.8411143 61.0024399,61.3141799 C60.8763236,61.1419128 60.8638064,61.1459191 60.6944705,61.4103289" id="path1" fill="#CB639B"></path>
        </g>
    </g>
</svg>