<?xml version="1.0" encoding="UTF-8"?>
<svg width="100px" height="100px" viewBox="0 0 100 100" version="1.1" xmlns="http://www.w3.org/2000/svg" xmlns:xlink="http://www.w3.org/1999/xlink">
    <!-- Generator: sketchtool 63.1 (101010) - https://sketch.com -->
    <title>code/file_Typescript</title>
    <desc>Created with sketchtool.</desc>
    <g id="Icons" stroke="none" stroke-width="1" fill="none" fill-rule="evenodd">
        <g id="code/file_Typescript">
            <g id="Typescript-logo" transform="translate(0.454545, 11.272727)">
                <g id="Group" transform="translate(50.000000, 38.864382) scale(-1, 1) rotate(-180.000000) translate(-50.000000, -38.864382) translate(0.000000, 0.864382)">
                    <g id="Group-2" transform="translate(3.606557, 8.378871)" fill="#D8D8D8">
                        <rect id="Rectangle" x="-9.31859326e-15" y="45.0364299" width="84.9180328" height="17.106861"></rect>
                        <rect id="Rectangle-Copy" x="16.557377" y="11.8700668" width="64.5901639" height="37.0491803"></rect>
                        <rect id="Rectangle-Copy-2" x="48.6885246" y="-9.92257615e-15" width="40.6557377" height="32.1190043"></rect>
                        <rect id="Rectangle-Copy-3" x="16.557377" y="0" width="15.7377049" height="32.1190043"></rect>
                    </g>
                    <path d="M67.4098361,75.0258045 C64.7540984,74.537037 61.2786885,73.1405586 59.1147541,71.7440801 C58.0655738,71.0458409 57.0491803,70.5221615 56.8852459,70.5919854 C56.7213115,70.6618094 56.2622951,71.2204007 55.8360656,71.883728 C55.4098361,72.5470553 54.4918033,73.4198543 53.7704918,73.8038859 C52.4918033,74.537037 52.0655738,74.537037 29.2131148,74.6417729 C3.31147541,74.7465088 3.7704918,74.7814208 1.86885246,72.4423194 C0.196721311,70.4523376 0,69.3002429 0,61.4450516 C0,53.5200364 0.196721311,52.4377656 1.90163934,50.7270795 C3.50819672,49.1211293 4.75409836,48.8069217 10.3934426,48.5974499 L15.5409836,48.4578021 L15.6393443,27.4408015 C15.7377049,6.87765634 15.7377049,6.42380085 16.4262295,4.8527626 C17.3114754,2.82786885 18.8852459,1.53612629 21.0819672,1.04735883 C22.0983607,0.802975106 25.4098361,0.698239223 29.5737705,0.768063145 C35.9344262,0.872799029 36.4918033,0.942622951 37.9672131,1.67577413 C39.0819672,2.26927747 39.7704918,2.9675167 40.4262295,4.11961141 C41.2459016,5.62082574 41.3114754,6.14450516 41.4754098,10.4735883 L41.6393443,15.1867031 L44.1311475,15.291439 L46.6557377,15.3961749 L48.4262295,12.6730419 C53.9672131,4.25925926 62.5245902,0 73.8360656,0 C90.5901639,0.0349119611 100.622951,10.2292046 99.7377049,26.2887067 C99.4754098,30.7225258 98.8852459,33.236187 97.2131148,36.832119 C95.6065574,40.3582271 93.5737705,42.8020644 90.295082,45.2808136 C88.852459,46.3281724 87.704918,47.2358834 87.704918,47.3406193 C87.704918,47.4104432 89.2459016,48.5625379 91.147541,49.9241044 C95.4754098,53.031269 96.0327869,53.9738919 96.0655738,58.3029751 C96.0655738,61.8290832 95.5081967,63.2953855 92.9508197,66.4374621 C89.5081967,70.7316333 86.0655738,73.1405586 81.5737705,74.3973892 C78.6229508,75.2352763 70.3934426,75.6193078 67.4098361,75.0258045 Z M77.2459016,68.0783242 C81.0163934,67.3102611 84.3278689,65.0060716 87.0163934,61.3054038 C88.2622951,59.5947177 88.3934426,59.28051 88,58.7917426 C87.5081967,58.1633273 80.3934426,53.0661809 80,53.0661809 C79.8688525,53.0661809 78.9180328,53.9738919 77.9016393,55.0910747 C76.3934426,56.8017608 75.7704918,57.2207043 74.3278689,57.6047359 C69.704918,58.7568306 66.1639344,55.5449302 67.3770492,51.250759 C67.9016393,49.3655131 69.1803279,48.1086825 72.0983607,46.6423801 C84.0983607,40.6026108 86.2622951,39.2061324 88.6557377,35.95932 C91.9016393,31.5953248 92.7213115,24.5780206 90.6885246,18.852459 C86.7540984,7.75045537 68.8196721,4.81785064 57.9344262,13.510929 C56.2622951,14.8724954 53.6721311,18.0843959 52.7540984,19.9696418 L52.295082,20.8773528 L56.9508197,23.7401336 L61.6065574,26.6029144 L62.2622951,25.6253795 C64.6885246,22.0294475 67.1803279,20.2140255 70.5901639,19.5506982 C74.1639344,18.887371 78.2295082,20.1791135 79.5081967,22.448391 C80.295082,23.8099575 80.3606557,26.4981785 79.6721311,27.894657 C79.0163934,29.2911354 76.3606557,31.0716454 71.442623,33.3758349 C62.0655738,37.774742 58.8852459,40.5676988 56.7868852,46.1536126 C56.0327869,48.1435944 55.9016393,48.9814815 55.9016393,52.1584699 C55.9016393,55.1608986 56.0327869,56.2431694 56.6885246,58.0935033 C57.5737705,60.7468124 59.6721311,63.784153 61.4098361,65.0060716 C63.7704918,66.6818458 64.3278689,66.9611415 66.4262295,67.6942927 C68.8196721,68.4972678 74.2295082,68.6718276 77.2459016,68.0783242 Z M37.9672131,67.8339405 L49.3442623,67.6244687 L49.3442623,62.4225865 L49.3442623,57.2556163 L41.4754098,57.2556163 L33.6065574,57.2556163 L33.5409836,33.271099 L33.442623,9.2516697 L27.8688525,9.2516697 L22.295082,9.2516697 L22.1967213,33.271099 L22.1311475,57.2556163 L14.2622951,57.2556163 L6.39344262,57.2556163 L6.39344262,62.4924104 L6.39344262,67.6942927 L9.44262295,67.8339405 C15.7704918,68.0434123 27.0163934,68.0783242 37.9672131,67.8339405 Z" id="Shape" fill="#007ACC" fill-rule="nonzero"></path>
                </g>
            </g>
        </g>
    </g>
</svg>