<?xml version="1.0" encoding="UTF-8"?>
<svg width="100px" height="100px" viewBox="0 0 100 100" version="1.1" xmlns="http://www.w3.org/2000/svg" xmlns:xlink="http://www.w3.org/1999/xlink">
    <!-- Generator: sketchtool 63.1 (101010) - https://sketch.com -->
    <title>code/file_RxSwift</title>
    <desc>Created with sketchtool.</desc>
    <defs>
        <radialGradient cx="78.7636112%" cy="37.8476394%" fx="78.7636112%" fy="37.8476394%" r="125.635113%" gradientTransform="translate(0.787636,0.378476),scale(0.715346,1.000000),translate(-0.787636,-0.378476)" id="radialGradient-1">
            <stop stop-color="#F80090" offset="0%"></stop>
            <stop stop-color="#4D008E" offset="100%"></stop>
        </radialGradient>
        <radialGradient cx="68.7389016%" cy="4.39833672%" fx="68.7389016%" fy="4.39833672%" r="108.040765%" gradientTransform="translate(0.687389,0.043983),scale(0.756460,1.000000),translate(-0.687389,-0.043983)" id="radialGradient-2">
            <stop stop-color="#57008E" offset="0%"></stop>
            <stop stop-color="#5C008E" offset="29.1746283%"></stop>
            <stop stop-color="#F80090" offset="100%"></stop>
        </radialGradient>
        <linearGradient x1="18.2386532%" y1="8.32667268e-14%" x2="81.1591125%" y2="84.3374763%" id="linearGradient-3">
            <stop stop-color="#F70090" offset="0%"></stop>
            <stop stop-color="#E50090" offset="66.9712865%"></stop>
            <stop stop-color="#D6008F" stop-opacity="0.2" offset="82.7147533%"></stop>
            <stop stop-color="#C10090" stop-opacity="0" offset="100%"></stop>
        </linearGradient>
        <linearGradient x1="64.9060589%" y1="71.5585538%" x2="44.2897699%" y2="50%" id="linearGradient-4">
            <stop stop-color="#B2008F" stop-opacity="0.151340138" offset="0%"></stop>
            <stop stop-color="#F70090" stop-opacity="0.4" offset="40.0350765%"></stop>
            <stop stop-color="#F60090" stop-opacity="0.891668" offset="64.8995536%"></stop>
            <stop stop-color="#FF0090" offset="100%"></stop>
        </linearGradient>
    </defs>
    <g id="Icons" stroke="none" stroke-width="1" fill="none" fill-rule="evenodd">
        <g id="code/file_RxSwift" fill-rule="nonzero">
            <g id="reactivex-seeklogo.com" transform="translate(0.454545, 2.272727)">
                <path d="M6.45841288,60.8191078 C1.38065648,33.8224493 14.8002733,7.78580025 45.600671,4.32215188 C41.3532747,-0.216297545 35.5508798,-0.250400261 32.8812163,0.301677662 C28.1674765,1.80393596 28.3154569,4.8542372 22.9685819,8.7943056 C17.6530624,11.8303052 14.9834031,9.5053025 11.1112438,12.6526517 C7.24737164,15.7765065 9.94348351,22.947741 8.32297149,24.3419472 C6.71435282,27.1302196 1.72441775,29.6141413 0.816084417,33.1359437 C0.0653957104,37.6398615 2.85366804,40.8570986 2.7464268,44.7177834 C3.06815053,47.935021 -0.456440182,49.7542612 0.0499529713,52.361725 C1.56677312,56.6215615 4.4903839,59.1854854 5.86864837,60.3672838 C6.18470819,60.5900386 6.51851279,61.138638 6.45841288,60.8191078 L6.45841288,60.8191078 Z" id="Path" fill="#FF0090"></path>
                <path d="M61.2643058,23.4483703 C60.1390802,23.4483703 59.2267223,22.5360123 59.2267223,21.4107867 C59.2267223,20.2855611 60.1390802,19.3732031 61.2643058,19.3732031 C62.3895315,19.3732031 63.3018893,20.2855611 63.3018893,21.4107867 C63.3018893,22.5360123 62.3895315,23.4483703 61.2643058,23.4483703 L61.2643058,23.4483703 Z M7.64727917,63.7637645 C2.76758811,40.3008816 17.8674207,20.6959165 47.1084615,30.3476285 C64.266417,40.3851944 85.8503826,39.7316233 86.8235405,33.243142 C89.2259682,25.4647677 75.8849333,9.43558597 55.9380622,5.25317747 C16.3660433,-2.46819208 -4.96754893,40.300882 7.64727917,63.7637645 L7.64727917,63.7637645 Z" id="Shape" stroke="#630173" stroke-width="1.36363636" fill="url(#radialGradient-1)"></path>
                <path d="M72.5603261,66.3805576 C78.4362885,67.0171416 84.0139056,65.6069192 89.1827189,61.3938397 C81.3738405,70.1039736 71.6097397,74.4832769 60.4064615,75.6749419 C65.7556547,80.2226139 70.914173,82.2711361 75.8492006,81.3943318 C62.1364773,85.1782319 50.6478204,81.0132161 36.6723174,67.095644 C35.9404797,70.842267 39.8975382,76.6795906 43.9761371,80.4057947 C20.3114265,70.1462397 18.2367384,38.1865613 47.0934616,30.3250014 C17.1800573,15.9531103 0.265677243,43.8778002 8.57594829,66.7647957 C16.7070125,84.3924344 38.3746061,97.9626751 62.1223216,94.9783654 C73.6574189,93.5654684 90.8826246,85.6125849 97.9194935,66.7647957 C92.9600148,71.2153072 84.0948706,75.0914919 80.1388503,75.3888219 C93.5281343,68.6973975 100.755941,57.3271472 98.7271897,41.7867087 C95.9537165,48.3895521 92.2944309,53.4605615 87.7171601,56.9433283 C97.4402918,41.7867087 95.7718355,33.9527359 88.57509,25.3429799 C93.7226699,39.4988239 87.0638464,55.2098807 72.5603261,66.3805576 L72.5603261,66.3805576 Z" id="Path" stroke="#620056" stroke-width="0.909090909" fill="url(#radialGradient-2)"></path>
                <path d="M65.689172,82.6888635 C64.6732328,82.4990382 67.9922062,84.0332876 61.5754648,82.3346038 C55.1587238,80.6359201 48.6251872,78.998967 36.6723174,67.095644 C35.9404797,70.842267 39.8975382,76.6795906 43.9761371,80.4057947 C54.9862712,88.0844355 47.4985561,84.4931139 64.2743683,90.2925193 C65.6205392,87.6129544 65.689172,85.2318633 65.689172,82.6888635 L65.689172,82.6888635 Z" id="Path" fill="url(#linearGradient-3)"></path>
                <path d="M44.3591958,22.3926143 C44.3591958,22.3926143 45.8177211,20.2398457 46.3854683,19.2689337 C47.0812034,18.0791487 48.1496426,15.9105233 48.1496426,15.9105233 C48.1496426,15.9105233 36.9228253,12.2477041 34.1676466,11.8007853 C25.603009,14.0240267 25.5718421,17.6122308 30.3601637,23.1044838 C30.8929382,23.7157589 44.3591958,22.3926143 44.3591958,22.3926143 L44.3591958,22.3926143 Z" id="Path" fill="url(#linearGradient-4)"></path>
            </g>
        </g>
    </g>
</svg>